  0
SECTION
  2
HEADER
  9
$ACADVER
  1
AC1015
  9
$ACADMAINTVER
 70
     6
  9
$DWGCODEPAGE
  3
ANSI_1252
  9
$INSBASE
 10
0.0
 20
0.0
 30
0.0
  9
$EXTMIN
 10
-75.35
 20
-37.35
 30
0.0
  9
$EXTMAX
 10
75.35
 20
37.35
 30
0.0
  9
$LIMMIN
 10
0.0
 20
0.0
  9
$LIMMAX
 10
420.0
 20
297.0
  9
$ORTHOMODE
 70
     0
  9
$REGENMODE
 70
     1
  9
$FILLMODE
 70
     1
  9
$QTEXTMODE
 70
     0
  9
$MIRRTEXT
 70
     1
  9
$LTSCALE
 40
1.0
  9
$ATTMODE
 70
     1
  9
$TEXTSIZE
 40
3.5
  9
$TRACEWID
 40
1.0
  9
$TEXTSTYLE
  7
Standard
  9
$CLAYER
  8
0
  9
$CELTYPE
  6
ByLayer
  9
$CECOLOR
 62
   256
  9
$CELTSCALE
 40
1.0
  9
$DISPSILH
 70
     0
  9
$DIMSCALE
 40
1.0
  9
$DIMASZ
 40
3.302
  9
$DIMEXO
 40
0.0
  9
$DIMDLI
 40
3.75
  9
$DIMRND
 40
0.0
  9
$DIMDLE
 40
0.0
  9
$DIMEXE
 40
1.0
  9
$DIMTP
 40
0.0
  9
$DIMTM
 40
0.0
  9
$DIMTXT
 40
3.5
  9
$DIMCEN
 40
2.5
  9
$DIMTSZ
 40
0.0
  9
$DIMTOL
 70
     0
  9
$DIMLIM
 70
     0
  9
$DIMTIH
 70
     1
  9
$DIMTOH
 70
     1
  9
$DIMSE1
 70
     0
  9
$DIMSE2
 70
     0
  9
$DIMTAD
 70
     1
  9
$DIMZIN
 70
     1
  9
$DIMBLK
  1

  9
$DIMASO
 70
     1
  9
$DIMSHO
 70
     1
  9
$DIMPOST
  1

  9
$DIMAPOST
  1

  9
$DIMALT
 70
     0
  9
$DIMALTD
 70
     3
  9
$DIMALTF
 40
0.0393700787
  9
$DIMLFAC
 40
1.0
  9
$DIMTOFL
 70
     1
  9
$DIMTVP
 40
0.0
  9
$DIMTIX
 70
     0
  9
$DIMSOXD
 70
     0
  9
$DIMSAH
 70
     0
  9
$DIMBLK1
  1

  9
$DIMBLK2
  1

  9
$DIMSTYLE
  2
ISO-25
  9
$DIMCLRD
 70
     0
  9
$DIMCLRE
 70
     0
  9
$DIMCLRT
 70
     0
  9
$DIMTFAC
 40
1.0
  9
$DIMGAP
 40
1.524
  9
$DIMJUST
 70
     0
  9
$DIMSD1
 70
     0
  9
$DIMSD2
 70
     0
  9
$DIMTOLJ
 70
     0
  9
$DIMTZIN
 70
     1
  9
$DIMALTZ
 70
     0
  9
$DIMALTTZ
 70
     0
  9
$DIMUPT
 70
     0
  9
$DIMDEC
 70
     2
  9
$DIMTDEC
 70
     2
  9
$DIMALTU
 70
     2
  9
$DIMALTTD
 70
     3
  9
$DIMTXSTY
  7
Standard
  9
$DIMAUNIT
 70
     0
  9
$DIMADEC
 70
     2
  9
$DIMALTRND
 40
0.0
  9
$DIMAZIN
 70
     0
  9
$DIMDSEP
 70
    44
  9
$DIMATFIT
 70
     3
  9
$DIMFRAC
 70
     0
  9
$DIMLDRBLK
  1

  9
$DIMLUNIT
 70
     2
  9
$DIMLWD
 70
    -2
  9
$DIMLWE
 70
    -2
  9
$DIMTMOVE
 70
     0
  9
$LUNITS
 70
     2
  9
$LUPREC
 70
     2
  9
$SKETCHINC
 40
1.0
  9
$FILLETRAD
 40
10.0
  9
$AUNITS
 70
     0
  9
$AUPREC
 70
     2
  9
$MENU
  1
.
  9
$ELEVATION
 40
0.0
  9
$PELEVATION
 40
0.0
  9
$THICKNESS
 40
0.0
  9
$LIMCHECK
 70
     0
  9
$CHAMFERA
 40
0.0
  9
$CHAMFERB
 40
0.0
  9
$CHAMFERC
 40
0.0
  9
$CHAMFERD
 40
0.0
  9
$SKPOLY
 70
     0
  9
$TDCREATE
 40
2460881.999754549
  9
$TDUCREATE
 40
2460882.124754549
  9
$TDUPDATE
 40
2460881.999771273
  9
$TDUUPDATE
 40
2460882.124771273
  9
$TDINDWG
 40
0.0000000116
  9
$TDUSRTIMER
 40
0.0000000116
  9
$USRTIMER
 70
     1
  9
$ANGBASE
 50
0.0
  9
$ANGDIR
 70
     0
  9
$PDMODE
 70
     0
  9
$PDSIZE
 40
-1.0
  9
$PLINEWID
 40
0.0
  9
$SPLFRAME
 70
     0
  9
$SPLINETYPE
 70
     6
  9
$SPLINESEGS
 70
     8
  9
$HANDSEED
  5
FE
  9
$SURFTAB1
 70
     6
  9
$SURFTAB2
 70
     6
  9
$SURFTYPE
 70
     6
  9
$SURFU
 70
     6
  9
$SURFV
 70
     6
  9
$UCSBASE
  2

  9
$UCSNAME
  2

  9
$UCSORG
 10
0.0
 20
0.0
 30
0.0
  9
$UCSXDIR
 10
1.0
 20
0.0
 30
0.0
  9
$UCSYDIR
 10
0.0
 20
1.0
 30
0.0
  9
$UCSORTHOREF
  2

  9
$UCSORTHOVIEW
 70
     0
  9
$UCSORGTOP
 10
0.0
 20
0.0
 30
0.0
  9
$UCSORGBOTTOM
 10
0.0
 20
0.0
 30
0.0
  9
$UCSORGLEFT
 10
0.0
 20
0.0
 30
0.0
  9
$UCSORGRIGHT
 10
0.0
 20
0.0
 30
0.0
  9
$UCSORGFRONT
 10
0.0
 20
0.0
 30
0.0
  9
$UCSORGBACK
 10
0.0
 20
0.0
 30
0.0
  9
$PUCSBASE
  2

  9
$PUCSNAME
  2

  9
$PUCSORG
 10
0.0
 20
0.0
 30
0.0
  9
$PUCSXDIR
 10
1.0
 20
0.0
 30
0.0
  9
$PUCSYDIR
 10
0.0
 20
1.0
 30
0.0
  9
$PUCSORTHOREF
  2

  9
$PUCSORTHOVIEW
 70
     0
  9
$PUCSORGTOP
 10
0.0
 20
0.0
 30
0.0
  9
$PUCSORGBOTTOM
 10
0.0
 20
0.0
 30
0.0
  9
$PUCSORGLEFT
 10
0.0
 20
0.0
 30
0.0
  9
$PUCSORGRIGHT
 10
0.0
 20
0.0
 30
0.0
  9
$PUCSORGFRONT
 10
0.0
 20
0.0
 30
0.0
  9
$PUCSORGBACK
 10
0.0
 20
0.0
 30
0.0
  9
$USERI1
 70
     0
  9
$USERI2
 70
     0
  9
$USERI3
 70
     0
  9
$USERI4
 70
     0
  9
$USERI5
 70
     0
  9
$USERR1
 40
0.0
  9
$USERR2
 40
0.0
  9
$USERR3
 40
0.0
  9
$USERR4
 40
0.0
  9
$USERR5
 40
0.0
  9
$WORLDVIEW
 70
     1
  9
$SHADEDGE
 70
     3
  9
$SHADEDIF
 70
    70
  9
$TILEMODE
 70
     1
  9
$MAXACTVP
 70
    64
  9
$PINSBASE
 10
0.0
 20
0.0
 30
0.0
  9
$PLIMCHECK
 70
     0
  9
$PEXTMIN
 10
1.0000000000E+20
 20
1.0000000000E+20
 30
1.0000000000E+20
  9
$PEXTMAX
 10
-1.0000000000E+20
 20
-1.0000000000E+20
 30
-1.0000000000E+20
  9
$PLIMMIN
 10
0.0
 20
0.0
  9
$PLIMMAX
 10
420.0
 20
297.0
  9
$UNITMODE
 70
     0
  9
$VISRETAIN
 70
     1
  9
$PLINEGEN
 70
     0
  9
$PSLTSCALE
 70
     1
  9
$TREEDEPTH
 70
  3020
  9
$CMLSTYLE
  2
Standard
  9
$CMLJUST
 70
     0
  9
$CMLSCALE
 40
20.0
  9
$PROXYGRAPHICS
 70
     1
  9
$MEASUREMENT
 70
     1
  9
$CELWEIGHT
370
    -1
  9
$ENDCAPS
280
     0
  9
$JOINSTYLE
280
     0
  9
$LWDISPLAY
290
     1
  9
$INSUNITS
 70
     4
  9
$HYPERLINKBASE
  1

  9
$STYLESHEET
  1

  9
$XEDIT
290
     1
  9
$CEPSNTYPE
380
     0
  9
$PSTYLEMODE
290
     1
  9
$FINGERPRINTGUID
  2
{a51928c8-3d80-424b-82d0-87ee8def5f42}
  9
$VERSIONGUID
  2
{FAEB1C32-E019-11D5-929B-00C0DF256EC4}
  9
$EXTNAMES
290
     1
  9
$PSVPSCALE
 40
0.0
  9
$OLESTARTUP
290
     0
  0
ENDSEC
  0
SECTION
  2
CLASSES
  0
CLASS
  1
ACDBDICTIONARYWDFLT
  2
AcDbDictionaryWithDefault
  3
ObjectDBX Classes
 90
        0
280
     0
281
     0
  0
CLASS
  1
VISUALSTYLE
  2
AcDbVisualStyle
  3
ObjectDBX Classes
 90
     4095
280
     0
281
     0
  0
CLASS
  1
MATERIAL
  2
AcDbMaterial
  3
ObjectDBX Classes
 90
     1153
280
     0
281
     0
  0
CLASS
  1
SCALE
  2
AcDbScale
  3
ObjectDBX Classes
 90
     1153
280
     0
281
     0
  0
CLASS
  1
TABLESTYLE
  2
AcDbTableStyle
  3
ObjectDBX Classes
 90
     4095
280
     0
281
     0
  0
CLASS
  1
MLEADERSTYLE
  2
AcDbMLeaderStyle
  3
ACDB_MLEADERSTYLE_CLASS
 90
     4095
280
     0
281
     0
  0
CLASS
  1
SUN
  2
AcDbSun
  3
SCENEOE
 90
     1153
280
     0
281
     0
  0
CLASS
  1
ACDBPLACEHOLDER
  2
AcDbPlaceHolder
  3
ObjectDBX Classes
 90
        0
280
     0
281
     0
  0
CLASS
  1
LAYOUT
  2
AcDbLayout
  3
ObjectDBX Classes
 90
        0
280
     0
281
     0
  0
ENDSEC
  0
SECTION
  2
TABLES
  0
TABLE
  2
VPORT
  5
8
330
0
100
AcDbSymbolTable
 70
     1
  0
VPORT
  5
29
330
8
100
AcDbSymbolTableRecord
100
AcDbViewportTableRecord
  2
*Active
 70
     0
 10
0.0
 20
0.0
 11
1.0
 21
1.0
 12
0.0
 22
0.0
 13
0.0
 23
0.0
 14
10.0
 24
10.0
 15
10.0
 25
10.0
 16
0.0
 26
0.0
 36
1.0
 17
0.0
 27
0.0
 37
0.0
 40
76.194
 41
2.0174029451
 42
50.0
 43
0.0
 44
0.0
 50
0.0
 51
0.0
 71
     0
 72
   100
 73
     1
 74
     3
 75
     0
 76
     0
 77
     0
 78
     0
281
     0
 65
     1
110
0.0
120
0.0
130
0.0
111
1.0
121
0.0
131
0.0
112
0.0
122
1.0
132
0.0
 79
     0
146
0.0
  0
ENDTAB
  0
TABLE
  2
LTYPE
  5
5
330
0
100
AcDbSymbolTable
 70
     6
  0
LTYPE
  5
14
330
5
100
AcDbSymbolTableRecord
100
AcDbLinetypeTableRecord
  2
ByBlock
 70
     0
  3

 72
    65
 73
     0
 40
0.0
  0
LTYPE
  5
15
330
5
100
AcDbSymbolTableRecord
100
AcDbLinetypeTableRecord
  2
ByLayer
 70
     0
  3

 72
    65
 73
     0
 40
0.0
  0
LTYPE
  5
16
330
5
100
AcDbSymbolTableRecord
100
AcDbLinetypeTableRecord
  2
Continuous
 70
     0
  3
Solid line
 72
    65
 73
     0
 40
0.0
  0
LTYPE
  5
6E
330
5
100
AcDbSymbolTableRecord
100
AcDbLinetypeTableRecord
  2
HIDDEN
 70
     0
  3
Hidden __ __ __ __ __ __ __ __ __ __ __ __ __ __
 72
    65
 73
     2
 40
1.905
 49
1.27
 74
     0
 49
-0.635
 74
     0
  0
LTYPE
  5
6F
330
5
100
AcDbSymbolTableRecord
100
AcDbLinetypeTableRecord
  2
PHANTOM
 70
     0
  3
Phantom ______  __  __  ______  __  __  ______
 72
    65
 73
     6
 40
12.7
 49
6.35
 74
     0
 49
-1.27
 74
     0
 49
1.27
 74
     0
 49
-1.27
 74
     0
 49
1.27
 74
     0
 49
-1.27
 74
     0
  0
LTYPE
  5
70
330
5
100
AcDbSymbolTableRecord
100
AcDbLinetypeTableRecord
  2
CENTER
 70
     0
  3
Center ____ _ ____ _ ____ _ ____ _ ____ _ ____
 72
    65
 73
     4
 40
10.16
 49
6.35
 74
     0
 49
-1.27
 74
     0
 49
1.27
 74
     0
 49
-1.27
 74
     0
  0
LTYPE
  5
71
330
5
100
AcDbSymbolTableRecord
100
AcDbLinetypeTableRecord
  2
CENTERX2
 70
     0
  3
Center (2x) ________  __  ________  __  _____
 72
    65
 73
     4
 40
20.32
 49
12.7
 74
     0
 49
-2.54
 74
     0
 49
2.54
 74
     0
 49
-2.54
 74
     0
  0
LTYPE
  5
72
330
5
100
AcDbSymbolTableRecord
100
AcDbLinetypeTableRecord
  2
DOT2
 70
     0
  3
Dot (.5x) ........................................
 72
    65
 73
     2
 40
0.635
 49
0.0
 74
     0
 49
-0.635
 74
     0
  0
ENDTAB
  0
TABLE
  2
LAYER
  5
2
330
0
100
AcDbSymbolTable
 70
     1
  0
LAYER
  5
10
330
2
100
AcDbSymbolTableRecord
100
AcDbLayerTableRecord
  2
0
 70
     0
 62
     7
  6
Continuous
370
    -3
390
F
  0
ENDTAB
  0
TABLE
  2
STYLE
  5
3
330
0
100
AcDbSymbolTable
 70
     1
  0
STYLE
  5
11
330
3
100
AcDbSymbolTableRecord
100
AcDbTextStyleTableRecord
  2
Standard
 70
     0
 40
0.0
 41
1.0
 50
0.0
 71
     0
 42
3.5
  3
txt
  4

  0
ENDTAB
  0
TABLE
  2
VIEW
  5
6
330
0
100
AcDbSymbolTable
 70
     0
  0
ENDTAB
  0
TABLE
  2
UCS
  5
7
330
0
100
AcDbSymbolTable
 70
     0
  0
ENDTAB
  0
TABLE
  2
APPID
  5
9
330
0
100
AcDbSymbolTable
 70
     1
  0
APPID
  5
12
330
9
100
AcDbSymbolTableRecord
100
AcDbRegAppTableRecord
  2
ACAD
 70
     0
  0
ENDTAB
  0
TABLE
  2
DIMSTYLE
  5
A
330
0
100
AcDbSymbolTable
 70
     1
100
AcDbDimStyleTable
  0
DIMSTYLE
105
27
330
A
100
AcDbSymbolTableRecord
100
AcDbDimStyleTableRecord
  2
ISO-25
 70
     0
 41
2.5
 42
0.625
 43
3.75
 44
1.25
 73
     0
 74
     0
 77
     1
 78
     8
140
2.5
141
2.5
143
0.0393700787
147
0.625
171
     3
172
     1
178
     0
271
     2
272
     2
274
     3
278
    44
283
     0
284
     8
340
11
  0
ENDTAB
  0
TABLE
  2
BLOCK_RECORD
  5
1
330
0
100
AcDbSymbolTable
 70
     1
  0
BLOCK_RECORD
  5
1F
330
1
100
AcDbSymbolTableRecord
100
AcDbBlockTableRecord
  2
*Model_Space
340
22
  0
BLOCK_RECORD
  5
1B
330
1
100
AcDbSymbolTableRecord
100
AcDbBlockTableRecord
  2
*Paper_Space
340
1E
  0
BLOCK_RECORD
  5
23
330
1
100
AcDbSymbolTableRecord
100
AcDbBlockTableRecord
  2
*Paper_Space0
340
26
  0
ENDTAB
  0
ENDSEC
  0
SECTION
  2
BLOCKS
  0
BLOCK
  5
20
330
1F
100
AcDbEntity
  8
0
100
AcDbBlockBegin
  2
*Model_Space
 70
     0
 10
0.0
 20
0.0
 30
0.0
  3
*Model_Space
  1

  0
ENDBLK
  5
21
330
1F
100
AcDbEntity
  8
0
100
AcDbBlockEnd
  0
BLOCK
  5
1C
330
1B
100
AcDbEntity
 67
     1
  8
0
100
AcDbBlockBegin
  2
*Paper_Space
 70
     0
 10
0.0
 20
0.0
 30
0.0
  3
*Paper_Space
  1

  0
ENDBLK
  5
1D
330
1B
100
AcDbEntity
 67
     1
  8
0
100
AcDbBlockEnd
  0
BLOCK
  5
24
330
23
100
AcDbEntity
  8
0
100
AcDbBlockBegin
  2
*Paper_Space0
 70
     0
 10
0.0
 20
0.0
 30
0.0
  3
*Paper_Space0
  1

  0
ENDBLK
  5
25
330
23
100
AcDbEntity
  8
0
100
AcDbBlockEnd
  0
ENDSEC
  0
SECTION
  2
ENTITIES
  0
SPLINE
  5
73
330
1F
100
AcDbEntity
  8
0
  6
Continuous
 62
     7
370
    25
100
AcDbSpline
210
0.0
220
0.0
230
1.0
 70
     8
 71
     3
 72
    15
 73
    11
 74
     0
 42
0.00000001
 43
0.00000001
 40
0.0
 40
0.0
 40
0.0
 40
0.0
 40
0.1563604787675796
 40
0.3035650673656333
 40
0.4416283984649327
 40
0.5706098238593733
 40
0.690850219948736
 40
0.8024282513857435
 40
0.9053251677621179
 40
1.0
 40
1.0
 40
1.0
 40
1.0
 10
64.9765625
 20
30.05
 30
0.0
 10
65.04688536407298
 20
30.05001345454238
 30
0.0
 10
65.18341324591316
 20
30.05003957577901
 30
0.0
 10
65.38186438724688
 20
30.04128833603802
 30
0.0
 10
65.56782359704226
 20
30.03045000841783
 30
0.0
 10
65.7415399242237
 20
30.01746924639656
 30
0.0
 10
65.90257525651984
 20
29.99699153793193
 30
0.0
 10
66.0509404644277
 20
29.97162168334881
 30
0.0
 10
66.18743596117623
 20
29.94472141556342
 30
0.0
 10
66.2730411601265
 20
29.92082565907673
 30
0.0
 10
66.31406249999999
 20
29.909375
 30
0.0
  0
SPLINE
  5
75
330
1F
100
AcDbEntity
  8
0
  6
Continuous
 62
     7
370
    25
100
AcDbSpline
210
0.0
220
0.0
230
1.0
 70
     8
 71
     3
 72
    19
 73
    15
 74
     0
 42
0.00000001
 43
0.00000001
 40
0.0
 40
0.0
 40
0.0
 40
0.0
 40
0.0784765493089147
 40
0.1513021500833416
 40
0.2198733580941667
 40
0.2824988964935571
 40
0.3418916072077737
 40
0.3965187063622266
 40
0.4494030100303388
 40
0.5007066245753806
 40
0.6051853511939383
 40
0.7200755192864016
 40
0.8497824523466184
 40
1.0
 40
1.0
 40
1.0
 40
1.0
 10
62.05
 20
29.0984375
 30
0.0
 10
62.05043466653539
 20
29.13960842706938
 30
0.0
 10
62.05127270008752
 20
29.21898564027995
 30
0.0
 10
62.06232720299207
 20
29.3339305162743
 30
0.0
 10
62.08086023988639
 20
29.43940785303505
 30
0.0
 10
62.10568278104999
 20
29.53637601399699
 30
0.0
 10
62.13807960324602
 20
29.623387448103
 30
0.0
 10
62.17770676864217
 20
29.70163599835709
 30
0.0
 10
62.22437909001602
 20
29.77099660923691
 30
0.0
 10
62.29906344918432
 20
29.85144499309885
 30
0.0
 10
62.41546225973173
 20
29.93566786224472
 30
0.0
 10
62.58716673119225
 20
30.00313770438567
 30
0.0
 10
62.79140251501111
 20
30.04314997323003
 30
0.0
 10
62.93833710988409
 20
30.0476077803263
 30
0.0
 10
63.0171875
 20
30.05
 30
0.0
  0
SPLINE
  5
77
330
1F
100
AcDbEntity
  8
0
  6
Continuous
 62
     7
370
    25
100
AcDbSpline
210
0.0
220
0.0
230
1.0
 70
     8
 71
     3
 72
    15
 73
    11
 74
     0
 42
0.00000001
 43
0.00000001
 40
0.0
 40
0.0
 40
0.0
 40
0.0
 40
0.1191053007172493
 40
0.230889790238268
 40
0.3402482552901804
 40
0.452664951568961
 40
0.5711010534285671
 40
0.6986957349138936
 40
0.8409021733669371
 40
0.9999999999999999
 40
0.9999999999999999
 40
0.9999999999999999
 40
0.9999999999999999
 10
62.80312500000002
 20
22.25
 30
0.0
 10
62.74920039007828
 20
22.25308366979987
 30
0.0
 10
62.64466564814379
 20
22.25906147153472
 30
0.0
 10
62.49525059001522
 20
22.30316857655137
 30
0.0
 10
62.36465080000588
 20
22.38118956254649
 30
0.0
 10
62.24975397829455
 20
22.48537613648537
 30
0.0
 10
62.15792235261581
 20
22.62112436868885
 30
0.0
 10
62.09493271101352
 20
22.78624451891782
 30
0.0
 10
62.05561862323368
 20
22.97732966327239
 30
0.0
 10
62.05194158706319
 20
23.11385039605559
 30
0.0
 10
62.05
 20
23.1859375
 30
0.0
  0
SPLINE
  5
78
330
1F
100
AcDbEntity
  8
0
  6
Continuous
 62
     7
370
    25
100
AcDbSpline
210
0.0
220
0.0
230
1.0
 70
     8
 71
     3
 72
    15
 73
    11
 74
     0
 42
0.00000001
 43
0.00000001
 40
0.0
 40
0.0
 40
0.0
 40
0.0
 40
0.1607124901155509
 40
0.3046989068249894
 40
0.4330957168571444
 40
0.5541371600276552
 40
0.6676636789979109
 40
0.7763452975322871
 40
0.8851433202124391
 40
1.0
 40
1.0
 40
1.0
 40
1.0
 10
63.55000000000001
 20
23.1921875
 30
0.0
 10
63.54820049315698
 20
23.11955379912285
 30
0.0
 10
63.54478876226101
 20
22.98184571408224
 30
0.0
 10
63.50365626714125
 20
22.78975489820679
 30
0.0
 10
63.43889276701893
 20
22.62319134790064
 30
0.0
 10
63.34381999456498
 20
22.48797718409948
 30
0.0
 10
63.22999700148898
 20
22.3814566945565
 30
0.0
 10
63.10088518348422
 20
22.30397065753233
 30
0.0
 10
62.95599918736118
 20
22.25907595827169
 30
0.0
 10
62.85499510690319
 20
22.25307946641567
 30
0.0
 10
62.803125
 20
22.25
 30
0.0
  0
SPLINE
  5
7B
330
1F
100
AcDbEntity
  8
0
  6
Continuous
 62
     7
370
    25
100
AcDbSpline
210
0.0
220
0.0
230
1.0
 70
     8
 71
     3
 72
    23
 73
    19
 74
     0
 42
0.00000001
 43
0.00000001
 40
0.0
 40
0.0
 40
0.0
 40
0.0
 40
0.0665168182701535
 40
0.1294819366957641
 40
0.1893758846573511
 40
0.2465456548280666
 40
0.3020823411775143
 40
0.3562820622352028
 40
0.4102437909442068
 40
0.4650126659894965
 40
0.520890530427841
 40
0.5786463749673746
 40
0.6391650427694314
 40
0.7030303394887268
 40
0.7705333977904686
 40
0.8422824003264601
 40
0.9185293657934532
 40
1.0
 40
1.0
 40
1.0
 40
1.0
 10
67.85
 20
27.7375
 30
0.0
 10
67.8481865914966
 20
27.64258854177467
 30
0.0
 10
67.84465660237282
 20
27.45783347162498
 30
0.0
 10
67.80902755586386
 20
27.1896086531761
 30
0.0
 10
67.7541678191962
 20
26.93840924592905
 30
0.0
 10
67.67397161303464
 20
26.70506261165488
 30
0.0
 10
67.57073504457067
 20
26.48996268505617
 30
0.0
 10
67.44453727048835
 20
26.2928896723588
 30
0.0
 10
67.2965622813475
 20
26.11299441013881
 30
0.0
 10
67.1252715337166
 20
25.95154160466442
 30
0.0
 10
66.93147142873606
 20
25.80885839012896
 30
0.0
 10
66.7159530731907
 20
25.68420262033513
 30
0.0
 10
66.47644142734865
 20
25.58253442284917
 30
0.0
 10
66.21658739287388
 20
25.49561129037868
 30
0.0
 10
65.93366725088917
 20
25.43175316778898
 30
0.0
 10
65.63008360473765
 20
25.38276790064986
 30
0.0
 10
65.3036395455895
 20
25.3550798037307
 30
0.0
 10
65.07869658158454
 20
25.35173024744935
 30
0.0
 10
64.9625
 20
25.35
 30
0.0
  0
SPLINE
  5
7C
330
1F
100
AcDbEntity
  8
0
  6
Continuous
 62
     7
370
    25
100
AcDbSpline
210
0.0
220
0.0
230
1.0
 70
     8
 71
     3
 72
    19
 73
    15
 74
     0
 42
0.00000001
 43
0.00000001
 40
0.0
 40
0.0
 40
0.0
 40
0.0
 40
0.0846726798858467
 40
0.1665703645112247
 40
0.2469539032756476
 40
0.3274566171073879
 40
0.4073413716992922
 40
0.4861405235049014
 40
0.5661636291395864
 40
0.6477979590766093
 40
0.7312795260866897
 40
0.8171748857837192
 40
0.9065060942102827
 40
0.9999999999999999
 40
0.9999999999999999
 40
0.9999999999999999
 40
0.9999999999999999
 10
66.3140625
 20
29.909375
 30
0.0
 10
66.39183118180841
 20
29.88570116873274
 30
0.0
 10
66.5448198163225
 20
29.83912937356949
 30
0.0
 10
66.75984103932372
 20
29.73829111864689
 30
0.0
 10
66.96074968651033
 20
29.61978351491482
 30
0.0
 10
67.14297539761108
 20
29.47697944337791
 30
0.0
 10
67.30732021396148
 20
29.31631811017978
 30
0.0
 10
67.45128103491895
 20
29.13764414429931
 30
0.0
 10
67.57373795295504
 20
28.94152938566636
 30
0.0
 10
67.67278995635017
 20
28.72786681627784
 30
0.0
 10
67.75373137463417
 20
28.50067845679929
 30
0.0
 10
67.80876307041733
 20
28.25834570235845
 30
0.0
 10
67.84457842894687
 20
28.00263552664222
 30
0.0
 10
67.84816558464465
 20
27.82720991554927
 30
0.0
 10
67.85
 20
27.7375
 30
0.0
  0
SPLINE
  5
7E
330
1F
100
AcDbEntity
  8
0
  6
Continuous
 62
     7
370
    25
100
AcDbSpline
210
0.0
220
0.0
230
1.0
 70
     8
 71
     3
 72
    19
 73
    15
 74
     0
 42
0.00000001
 43
0.00000001
 40
0.0
 40
0.0
 40
0.0
 40
0.0
 40
0.1047581168042639
 40
0.1989239520811407
 40
0.2854590354873249
 40
0.3645611053490584
 40
0.4386955165803987
 40
0.5094874232314666
 40
0.580147895594879
 40
0.6521334350927518
 40
0.7283832577003783
 40
0.8112041591967155
 40
0.9013348244913639
 40
1.0
 40
1.0
 40
1.0
 40
1.0
 10
35.84999999999999
 20
29.09375
 30
0.0
 10
35.85120126194766
 20
29.14744535727574
 30
0.0
 10
35.85348232408781
 20
29.24940683771792
 30
0.0
 10
35.87044811349616
 20
29.39495442192348
 30
0.0
 10
35.8993149947737
 20
29.5252625485405
 30
0.0
 10
35.94178274930824
 20
29.64093233935009
 30
0.0
 10
35.99600054236809
 20
29.74274558934103
 30
0.0
 10
36.06631347853516
 20
29.82891388119171
 30
0.0
 10
36.15034592690345
 20
29.899741117307
 30
0.0
 10
36.24739796399167
 20
29.9572052413403
 30
0.0
 10
36.35888157790183
 20
29.99829188869517
 30
0.0
 10
36.4827946661795
 20
30.03025814229735
 30
0.0
 10
36.62146652976313
 20
30.04621142071961
 30
0.0
 10
36.71819792992495
 20
30.04869964684455
 30
0.0
 10
36.76874999999999
 20
30.05
 30
0.0
  0
SPLINE
  5
80
330
1F
100
AcDbEntity
  8
0
  6
Continuous
 62
     7
370
    25
100
AcDbSpline
210
0.0
220
0.0
230
1.0
 70
     8
 71
     3
 72
    15
 73
    11
 74
     0
 42
0.00000001
 43
0.00000001
 40
0.0
 40
0.0
 40
0.0
 40
0.0
 40
0.1486820213629711
 40
0.2766809162915536
 40
0.3899992311230661
 40
0.493501638371599
 40
0.5984266725526189
 40
0.7146969950159783
 40
0.8472597142252056
 40
1.0
 40
1.0
 40
1.0
 40
1.0
 10
36.76874999999999
 20
22.35
 30
0.0
 10
36.69247503732606
 20
22.35221970624053
 30
0.0
 10
36.55053570687262
 20
22.35635033582774
 30
0.0
 10
36.35387954243696
 20
22.39831005728025
 30
0.0
 10
36.18996276004977
 20
22.46771299361487
 30
0.0
 10
36.05747361969221
 20
22.56981502413559
 30
0.0
 10
35.96169223353201
 20
22.70846099695322
 30
0.0
 10
35.89482092307163
 20
22.87823322821759
 30
0.0
 10
35.85752672343177
 20
23.08174907076924
 30
0.0
 10
35.8526244755077
 20
23.22796929850126
 30
0.0
 10
35.84999999999999
 20
23.30625
 30
0.0
  0
SPLINE
  5
82
330
1F
100
AcDbEntity
  8
0
  6
Continuous
 62
     7
370
    25
100
AcDbSpline
210
0.0
220
0.0
230
1.0
 70
     8
 71
     3
 72
    15
 73
    11
 74
     0
 42
0.00000001
 43
0.00000001
 40
0.0
 40
0.0
 40
0.0
 40
0.0
 40
0.1180930132284009
 40
0.2278811934031612
 40
0.3365199297434482
 40
0.4495744961859419
 40
0.5676228364362993
 40
0.6960131875362376
 40
0.8384494934333648
 40
1.0
 40
1.0
 40
1.0
 40
1.0
 10
41.74374999999999
 20
22.9453125
 30
0.0
 10
41.74219164581918
 20
22.90278967044348
 30
0.0
 10
41.73918452794861
 20
22.8207344083978
 30
0.0
 10
41.70030769002258
 20
22.70509237257667
 30
0.0
 10
41.64219058357392
 20
22.60050828987823
 30
0.0
 10
41.55772226877124
 20
22.51109727738935
 30
0.0
 10
41.45070293625397
 20
22.43737618652237
 30
0.0
 10
41.31967535971636
 20
22.38687756894586
 30
0.0
 10
41.16709590730888
 20
22.35549324001588
 30
0.0
 10
41.05798553062766
 20
22.35190626115454
 30
0.0
 10
40.99999999999999
 20
22.35
 30
0.0
  0
SPLINE
  5
83
330
1F
100
AcDbEntity
  8
0
  6
Continuous
 62
     7
370
    25
100
AcDbSpline
210
0.0
220
0.0
230
1.0
 70
     8
 71
     3
 72
    15
 73
    11
 74
     0
 42
0.00000001
 43
0.00000001
 40
0.0
 40
0.0
 40
0.0
 40
0.0
 40
0.1601765059084929
 40
0.3011147023523773
 40
0.4289577380566904
 40
0.5460020672355648
 40
0.6580950950732017
 40
0.767063780429465
 40
0.8800414759407685
 40
1.0
 40
1.0
 40
1.0
 40
1.0
 10
40.99999999999999
 20
23.55
 30
0.0
 10
41.05792105607102
 20
23.54783271394619
 30
0.0
 10
41.16680644759488
 20
23.54375844792755
 30
0.0
 10
41.32028131549372
 20
23.51562353474572
 30
0.0
 10
41.45034120683166
 20
23.46217970009566
 30
0.0
 10
41.55773932855868
 20
23.3890154755729
 30
0.0
 10
41.64261259164724
 20
23.29921559290005
 30
0.0
 10
41.70099196256309
 20
23.19243421180922
 30
0.0
 10
41.73891324012067
 20
23.07337180428958
 30
0.0
 10
41.74210585373024
 20
22.98884334145324
 30
0.0
 10
41.74374999999999
 20
22.9453125
 30
0.0
  0
SPLINE
  5
87
330
1F
100
AcDbEntity
  8
0
  6
Continuous
 62
     7
370
    25
100
AcDbSpline
210
0.0
220
0.0
230
1.0
 70
     8
 71
     3
 72
    15
 73
    11
 74
     0
 42
0.00000001
 43
0.00000001
 40
0.0
 40
0.0
 40
0.0
 40
0.0
 40
0.1214000302501861
 40
0.2334511404134532
 40
0.3436518189027442
 40
0.455654369536032
 40
0.571599418719747
 40
0.6971149706786453
 40
0.8388803614285795
 40
1.0
 40
1.0
 40
1.0
 40
1.0
 10
41.31093749999999
 20
26.3546875
 30
0.0
 10
41.30907680800565
 20
26.31173329352196
 30
0.0
 10
41.30549871443237
 20
26.22913274995384
 30
0.0
 10
41.27107940868092
 20
26.11155581642401
 30
0.0
 10
41.2156701168192
 20
26.00652670838067
 30
0.0
 10
41.13815334238341
 20
25.91439374723517
 30
0.0
 10
41.03708917536623
 20
25.83916805542091
 30
0.0
 10
40.91150705607736
 20
25.78588198193031
 30
0.0
 10
40.76234809554159
 20
25.75572173402876
 30
0.0
 10
40.65535334102293
 20
25.75198679837188
 30
0.0
 10
40.59843749999999
 20
25.75
 30
0.0
  0
SPLINE
  5
88
330
1F
100
AcDbEntity
  8
0
  6
Continuous
 62
     7
370
    25
100
AcDbSpline
210
0.0
220
0.0
230
1.0
 70
     8
 71
     3
 72
    15
 73
    11
 74
     0
 42
0.00000001
 43
0.00000001
 40
0.0
 40
0.0
 40
0.0
 40
0.0
 40
0.1606616540137166
 40
0.3015712460615775
 40
0.4272982531868629
 40
0.5443004148535048
 40
0.6547630562283039
 40
0.7650659828745294
 40
0.8778288393223634
 40
1.0
 40
1.0
 40
1.0
 40
1.0
 10
40.59843749999999
 20
26.95
 30
0.0
 10
40.6548082832413
 20
26.94786660637536
 30
0.0
 10
40.76061951397904
 20
26.94386210276389
 30
0.0
 10
40.90873519115906
 20
26.91553665094588
 30
0.0
 10
41.03399973578298
 20
26.86354666802096
 30
0.0
 10
41.13590769242921
 20
26.79099638218107
 30
0.0
 10
41.21417346470118
 20
26.70076129109652
 30
0.0
 10
41.27170653345581
 20
26.59789355054422
 30
0.0
 10
41.30534149587431
 20
26.48016536599582
 30
0.0
 10
41.3090230211246
 20
26.39761540326471
 30
0.0
 10
41.31093749999999
 20
26.3546875
 30
0.0
  0
SPLINE
  5
8C
330
1F
100
AcDbEntity
  8
0
  6
Continuous
 62
     7
370
    25
100
AcDbSpline
210
0.0
220
0.0
230
1.0
 70
     8
 71
     3
 72
    15
 73
    11
 74
     0
 42
0.00000001
 43
0.00000001
 40
0.0
 40
0.0
 40
0.0
 40
0.0
 40
0.1202674367482451
 40
0.2331211802607904
 40
0.3423704776858977
 40
0.4528060128971521
 40
0.5689642899254976
 40
0.6952521559714504
 40
0.8379699713073442
 40
1.0
 40
1.0
 40
1.0
 40
1.0
 10
41.61718749999999
 20
29.453125
 30
0.0
 10
41.6153556016923
 20
29.40965823739148
 30
0.0
 10
41.61180472950983
 20
29.32540415103703
 30
0.0
 10
41.57656188919351
 20
29.20559861637661
 30
0.0
 10
41.51730281325322
 20
29.10032551198225
 30
0.0
 10
41.43611789612437
 20
29.00899014501309
 30
0.0
 10
41.33031729854562
 20
28.93607302765905
 30
0.0
 10
41.20027399712282
 20
28.88431663001489
 30
0.0
 10
41.04650022718408
 20
28.85620871931129
 30
0.0
 10
40.9365721640284
 20
28.85215519849363
 30
0.0
 10
40.87812499999999
 20
28.85
 30
0.0
  0
SPLINE
  5
8D
330
1F
100
AcDbEntity
  8
0
  6
Continuous
 62
     7
370
    25
100
AcDbSpline
210
0.0
220
0.0
230
1.0
 70
     8
 71
     3
 72
    15
 73
    11
 74
     0
 42
0.00000001
 43
0.00000001
 40
0.0
 40
0.0
 40
0.0
 40
0.0
 40
0.163044135156243
 40
0.3066551865186249
 40
0.4342887309444154
 40
0.5511740143214239
 40
0.6623007386349149
 40
0.769708499501095
 40
0.8818751392584872
 40
1.0
 40
1.0
 40
1.0
 40
1.0
 10
40.87812499999999
 20
30.05
 30
0.0
 10
40.93654713176723
 20
30.04778672284599
 30
0.0
 10
41.04642811397323
 20
30.0436239670509
 30
0.0
 10
41.20070828950642
 20
30.01619825586152
 30
0.0
 10
41.32992930250243
 20
29.96200798247206
 30
0.0
 10
41.43628278219396
 20
29.8896264284732
 30
0.0
 10
41.51626830927115
 20
29.79852489393998
 30
0.0
 10
41.57702983733928
 20
29.69581664189784
 30
0.0
 10
41.611564599819
 20
29.5781947600151
 30
0.0
 10
41.61528114778829
 20
29.49552785367817
 30
0.0
 10
41.61718749999999
 20
29.453125
 30
0.0
  0
SPLINE
  5
8F
330
1F
100
AcDbEntity
  8
0
  6
Continuous
 62
     7
370
    25
100
AcDbSpline
210
0.0
220
0.0
230
1.0
 70
     8
 71
     3
 72
    15
 73
    11
 74
     0
 42
0.00000001
 43
0.00000001
 40
0.0
 40
0.0
 40
0.0
 40
0.0
 40
0.1242408282818784
 40
0.2395741674140947
 40
0.3492112529738771
 40
0.4615312624092404
 40
0.5787018302885836
 40
0.7048654012499957
 40
0.8436535457254444
 40
1.0
 40
1.0
 40
1.0
 40
1.0
 10
28.24999999999998
 20
29.396875
 30
0.0
 10
28.25200333063843
 20
29.44511342118692
 30
0.0
 10
28.25586636243239
 20
29.53813179327154
 30
0.0
 10
28.29667311016838
 20
29.66848672622432
 30
0.0
 10
28.36018141689862
 20
29.7837640120929
 30
0.0
 10
28.45150261910555
 20
29.87988387777711
 30
0.0
 10
28.56622072440917
 20
29.95798554965659
 30
0.0
 10
28.7050876789312
 20
30.0117729477712
 30
0.0
 10
28.86564407846449
 20
30.04480554836346
 30
0.0
 10
28.98002966279925
 20
30.04820117790142
 30
0.0
 10
29.04062499999998
 20
30.05
 30
0.0
  0
SPLINE
  5
90
330
1F
100
AcDbEntity
  8
0
  6
Continuous
 62
     7
370
    25
100
AcDbSpline
210
0.0
220
0.0
230
1.0
 70
     8
 71
     3
 72
    15
 73
    11
 74
     0
 42
0.00000001
 43
0.00000001
 40
0.0
 40
0.0
 40
0.0
 40
0.0
 40
0.1622719074240401
 40
0.3044553260389209
 40
0.4310506534175539
 40
0.5482806941707623
 40
0.6601655235069579
 40
0.7683402437021959
 40
0.8807126617632766
 40
1.0
 40
1.0
 40
1.0
 40
1.0
 10
29.04062499999998
 20
28.75
 30
0.0
 10
28.97790561750486
 20
28.75155627947053
 30
0.0
 10
28.86023121316933
 20
28.75447617842979
 30
0.0
 10
28.69690681834932
 20
28.78985228448024
 30
0.0
 10
28.55674042281902
 20
28.84298862555416
 30
0.0
 10
28.44332571053944
 20
28.92292139640286
 30
0.0
 10
28.35653953844331
 20
29.02122120346696
 30
0.0
 10
28.29315204958587
 20
29.1338692662905
 30
0.0
 10
28.25707963386991
 20
29.26137560905895
 30
0.0
 10
28.25240637604123
 20
29.35081859454808
 30
0.0
 10
28.24999999999998
 20
29.396875
 30
0.0
  0
SPLINE
  5
93
330
1F
100
AcDbEntity
  8
0
  6
Continuous
 62
     7
370
    25
100
AcDbSpline
210
0.0
220
0.0
230
1.0
 70
     8
 71
     3
 72
    15
 73
    11
 74
     0
 42
0.00000001
 43
0.00000001
 40
0.0
 40
0.0
 40
0.0
 40
0.0
 40
0.1170739408899531
 40
0.22736345133106
 40
0.3358604885361393
 40
0.4475340090666065
 40
0.5658353424842124
 40
0.6936494833443104
 40
0.8373880369278182
 40
1.0
 40
1.0
 40
1.0
 40
1.0
 10
31.50468749999998
 20
22.25
 30
0.0
 10
31.45114268330455
 20
22.25212462299169
 30
0.0
 10
31.34715597001706
 20
22.25625074715303
 30
0.0
 10
31.20056397928724
 20
22.30518176461262
 30
0.0
 10
31.06691443453581
 20
22.37669795150381
 30
0.0
 10
30.95329525368406
 20
22.48311717948478
 30
0.0
 10
30.85862599291761
 20
22.61765802268073
 30
0.0
 10
30.79691244765587
 20
22.7855549263073
 30
0.0
 10
30.75482743513373
 20
22.97968454033134
 30
0.0
 10
30.75167390513661
 20
23.11952315643062
 30
0.0
 10
30.74999999999998
 20
23.19375
 30
0.0
  0
SPLINE
  5
94
330
1F
100
AcDbEntity
  8
0
  6
Continuous
 62
     7
370
    25
100
AcDbSpline
210
0.0
220
0.0
230
1.0
 70
     8
 71
     3
 72
    15
 73
    11
 74
     0
 42
0.00000001
 43
0.00000001
 40
0.0
 40
0.0
 40
0.0
 40
0.0
 40
0.1655964407989139
 40
0.3097132875407083
 40
0.439561993036571
 40
0.556768895924424
 40
0.6672951569545891
 40
0.7742509049746189
 40
0.8835718141545696
 40
1.0
 40
1.0
 40
1.0
 40
1.0
 10
32.24999999999998
 20
23.19375
 30
0.0
 10
32.24814868280954
 20
23.11853568141976
 30
0.0
 10
32.24468618367266
 20
22.97786312973184
 30
0.0
 10
32.205288163206
 20
22.78140494232226
 30
0.0
 10
32.14147777248782
 20
22.61449213244648
 30
0.0
 10
32.04854970716379
 20
22.47973794625162
 30
0.0
 10
31.93590426674601
 20
22.37596867390468
 30
0.0
 10
31.80582586098446
 20
22.30272153751176
 30
0.0
 10
31.66031622008578
 20
22.25684000632001
 30
0.0
 10
31.55764124812412
 20
22.25232735944649
 30
0.0
 10
31.50468749999998
 20
22.25
 30
0.0
  0
SPLINE
  5
97
330
1F
100
AcDbEntity
  8
0
  6
Continuous
 62
     7
370
    25
100
AcDbSpline
210
0.0
220
0.0
230
1.0
 70
     8
 71
     3
 72
    15
 73
    11
 74
     0
 42
0.00000001
 43
0.00000001
 40
0.0
 40
0.0
 40
0.0
 40
0.0
 40
0.1184645462930532
 40
0.230439715942463
 40
0.3385271411479046
 40
0.4505344091696636
 40
0.5680545142844728
 40
0.6950214110918133
 40
0.8388473732983402
 40
1.0
 40
1.0
 40
1.0
 40
1.0
 10
34.75937499999999
 20
29.396875
 30
0.0
 10
34.75710988928127
 20
29.35078420698468
 30
0.0
 10
34.75270374848277
 20
29.26112743133015
 30
0.0
 10
34.71452031812768
 20
29.13371070223128
 30
0.0
 10
34.64963314097729
 20
29.02112434849586
 30
0.0
 10
34.56124806173635
 20
28.92285560065152
 30
0.0
 10
34.44629099443627
 20
28.84299417626251
 30
0.0
 10
34.30414779052123
 20
28.7896159267101
 30
0.0
 10
34.13918252507342
 20
28.75475788460882
 30
0.0
 10
34.02051642320172
 20
28.75164491365645
 30
0.0
 10
33.95781249999998
 20
28.75
 30
0.0
  0
SPLINE
  5
98
330
1F
100
AcDbEntity
  8
0
  6
Continuous
 62
     7
370
    25
100
AcDbSpline
210
0.0
220
0.0
230
1.0
 70
     8
 71
     3
 72
    15
 73
    11
 74
     0
 42
0.00000001
 43
0.00000001
 40
0.0
 40
0.0
 40
0.0
 40
0.0
 40
0.1630620563492698
 40
0.3062143059784063
 40
0.4330856666239282
 40
0.5497351712894406
 40
0.6612177725259609
 40
0.7693107538467227
 40
0.8807614070667562
 40
1.0
 40
1.0
 40
1.0
 40
1.0
 10
33.95781249999998
 20
30.05
 30
0.0
 10
34.02155919106455
 20
30.04838674460175
 30
0.0
 10
34.14126912972094
 20
30.04535721159326
 30
0.0
 10
34.30750979196511
 20
30.01065928997914
 30
0.0
 10
34.44951902095723
 20
29.95589916383096
 30
0.0
 10
34.56231806138437
 20
29.87332355297328
 30
0.0
 10
34.65211365450978
 20
29.77610946987831
 30
0.0
 10
34.7137271108561
 20
29.66136563642968
 30
0.0
 10
34.75305823064465
 20
29.53379908378529
 30
0.0
 10
34.7572225485352
 20
29.44353214831908
 30
0.0
 10
34.75937499999999
 20
29.396875
 30
0.0
  0
SPLINE
  5
99
330
1F
100
AcDbEntity
  8
0
  6
Continuous
 62
     7
370
    25
100
AcDbSpline
210
0.0
220
0.0
230
1.0
 70
     8
 71
     3
 72
    19
 73
    15
 74
     0
 42
0.00000001
 43
0.00000001
 40
0.0
 40
0.0
 40
0.0
 40
0.0
 40
0.1628757387351546
 40
0.3108280799144038
 40
0.4481556185940672
 40
0.577730297835107
 40
0.6391981237499148
 40
0.6970392699141581
 40
0.7507008272888112
 40
0.8021770988940693
 40
0.8520587582095391
 40
0.9010830412596037
 40
0.9505048846990551
 40
1.0
 40
1.0
 40
1.0
 40
1.0
 10
24.4453125
 20
29.15
 30
0.0
 10
24.34564845711835
 20
29.14669535462016
 30
0.0
 10
24.15545203298559
 20
29.14038885012668
 30
0.0
 10
23.88413688556171
 20
29.09310307657743
 30
0.0
 10
23.64370311275342
 20
29.00820286499441
 30
0.0
 10
23.46723045397647
 20
28.91025413227362
 30
0.0
 10
23.34408539826129
 20
28.82025907617538
 30
0.0
 10
23.2664706355444
 20
28.74809972208794
 30
0.0
 10
23.19893299544642
 20
28.67444003463953
 30
0.0
 10
23.14585856314554
 20
28.59544970231327
 30
0.0
 10
23.10335910327425
 20
28.5137190698013
 30
0.0
 10
23.07070120910844
 20
28.4286646681292
 30
0.0
 10
23.0541796309945
 20
28.33918011067453
 30
0.0
 10
23.05139389816715
 20
28.2786999702677
 30
0.0
 10
23.05
 20
28.2484375
 30
0.0
  0
SPLINE
  5
9A
330
1F
100
AcDbEntity
  8
0
  6
Continuous
 62
     7
370
    25
100
AcDbSpline
210
0.0
220
0.0
230
1.0
 70
     8
 71
     3
 72
    19
 73
    15
 74
     0
 42
0.00000001
 43
0.00000001
 40
0.0
 40
0.0
 40
0.0
 40
0.0
 40
0.1289937682148093
 40
0.2489057897661837
 40
0.3614566847417545
 40
0.4676939636324338
 40
0.5204024143951737
 40
0.575809466319512
 40
0.635203005242097
 40
0.6977049570545627
 40
0.7651541981758013
 40
0.8382126754235736
 40
0.9164092787385365
 40
0.9999999999999999
 40
0.9999999999999999
 40
0.9999999999999999
 40
0.9999999999999999
 10
25.9484375
 20
28.15
 30
0.0
 10
25.91182151884705
 20
28.22522411637421
 30
0.0
 10
25.84116748777975
 20
28.37037622995852
 30
0.0
 10
25.71577695294604
 20
28.56907986215407
 30
0.0
 10
25.5772080956279
 20
28.73986482941322
 30
0.0
 10
25.4532381408766
 20
28.86539979502169
 30
0.0
 10
25.34390202244078
 20
28.95179453573441
 30
0.0
 10
25.24849572557486
 20
29.00451545957082
 30
0.0
 10
25.14243093011294
 20
29.04905878513408
 30
0.0
 10
25.02562644982974
 20
29.08744880029244
 30
0.0
 10
24.89665519414169
 20
29.11462536292384
 30
0.0
 10
24.75623580771959
 20
29.1346189073447
 30
0.0
 10
24.60438963168472
 20
29.14719233698807
 30
0.0
 10
24.49950386878495
 20
29.14904353881609
 30
0.0
 10
24.4453125
 20
29.15
 30
0.0
  0
SPLINE
  5
9B
330
1F
100
AcDbEntity
  8
0
  6
Continuous
 62
     7
370
    25
100
AcDbSpline
210
0.0
220
0.0
230
1.0
 70
     8
 71
     3
 72
    15
 73
    11
 74
     0
 42
0.00000001
 43
0.00000001
 40
0.0
 40
0.0
 40
0.0
 40
0.0
 40
0.1364311668591371
 40
0.2577778354134764
 40
0.3669195028648418
 40
0.467786405786613
 40
0.5750613275501953
 40
0.6986396228971704
 40
0.8403153198417299
 40
0.9999999999999999
 40
0.9999999999999999
 40
0.9999999999999999
 40
0.9999999999999999
 10
26.6453125
 20
27.65625
 30
0.0
 10
26.60405226417543
 20
27.65767226842676
 30
0.0
 10
26.52609372636942
 20
27.66035955231408
 30
0.0
 10
26.41687198537787
 20
27.68220195060606
 30
0.0
 10
26.3225084863271
 20
27.71753385487447
 30
0.0
 10
26.24179041096068
 20
27.77071309449783
 30
0.0
 10
26.17023839524876
 20
27.84148581682138
 30
0.0
 10
26.09918766540764
 20
27.92884936681119
 30
0.0
 10
26.02172592222268
 20
28.03141729582442
 30
0.0
 10
25.97382121917802
 20
28.10892843684071
 30
0.0
 10
25.9484375
 20
28.15
 30
0.0
  0
SPLINE
  5
9C
330
1F
100
AcDbEntity
  8
0
  6
Continuous
 62
     7
370
    25
100
AcDbSpline
210
0.0
220
0.0
230
1.0
 70
     8
 71
     3
 72
    15
 73
    11
 74
     0
 42
0.00000001
 43
0.00000001
 40
0.0
 40
0.0
 40
0.0
 40
0.0
 40
0.1246027851343002
 40
0.2460643738438333
 40
0.3704384099008918
 40
0.4999401036637405
 40
0.6290879132842829
 40
0.7506499388263395
 40
0.8724209417025504
 40
1.0
 40
1.0
 40
1.0
 40
1.0
 10
27.321875
 20
28.378125
 30
0.0
 10
27.31943299442759
 20
28.33257111785019
 30
0.0
 10
27.31461054546349
 20
28.24261175237318
 30
0.0
 10
27.27697431606382
 20
28.11143356987178
 30
0.0
 10
27.21486884321159
 20
27.98851261489131
 30
0.0
 10
27.13126705095938
 20
27.87561920564275
 30
0.0
 10
27.03030731666505
 20
27.77885995803689
 30
0.0
 10
26.91296312947529
 20
27.70825822426058
 30
0.0
 10
26.78333915927084
 20
27.66361931429995
 30
0.0
 10
26.69203033181524
 20
27.65874428905892
 30
0.0
 10
26.6453125
 20
27.65625
 30
0.0
  0
SPLINE
  5
9D
330
1F
100
AcDbEntity
  8
0
  6
Continuous
 62
     7
370
    25
100
AcDbSpline
210
0.0
220
0.0
230
1.0
 70
     8
 71
     3
 72
    23
 73
    19
 74
     0
 42
0.00000001
 43
0.00000001
 40
0.0
 40
0.0
 40
0.0
 40
0.0
 40
0.0938556867712031
 40
0.1813281287585034
 40
0.2633350450620878
 40
0.3400661871373298
 40
0.4123539105233235
 40
0.4808994796655215
 40
0.54605443222721
 40
0.6081974093248235
 40
0.667388255289836
 40
0.7223817407685942
 40
0.7745937056578124
 40
0.8240316577503932
 40
0.8709662197162842
 40
0.9155339149425158
 40
0.9583237062697798
 40
1.0
 40
1.0
 40
1.0
 40
1.0
 10
24.5625
 20
30.25
 30
0.0
 10
24.67768929076973
 20
30.248067380735
 30
0.0
 10
24.90023370194869
 20
30.24433358210243
 30
0.0
 10
25.22204109383019
 20
30.21105086268602
 30
0.0
 10
25.51967546957212
 20
30.15751789886482
 30
0.0
 10
25.79321073369642
 20
30.08106654842732
 30
0.0
 10
26.04201497864056
 20
29.98376067980199
 30
0.0
 10
26.27212934425348
 20
29.87831120088904
 30
0.0
 10
26.47709223531534
 20
29.75185959701743
 30
0.0
 10
26.66041244140079
 20
29.61444889721626
 30
0.0
 10
26.82057549787679
 20
29.46846653712992
 30
0.0
 10
26.95808946549594
 20
29.31719456391266
 30
0.0
 10
27.0732413382704
 20
29.16276254867086
 30
0.0
 10
27.16360071727415
 20
29.00400262636448
 30
0.0
 10
27.23473379843335
 20
28.84603144625087
 30
0.0
 10
27.28513050643545
 20
28.68886770642539
 30
0.0
 10
27.31661292926815
 20
28.53303689096585
 30
0.0
 10
27.32013645972862
 20
28.42930647867706
 30
0.0
 10
27.321875
 20
28.378125
 30
0.0
  0
SPLINE
  5
9E
330
1F
100
AcDbEntity
  8
0
  6
Continuous
 62
     7
370
    25
100
AcDbSpline
210
0.0
220
0.0
230
1.0
 70
     8
 71
     3
 72
    27
 73
    23
 74
     0
 42
0.00000001
 43
0.00000001
 40
0.0
 40
0.0
 40
0.0
 40
0.0
 40
0.0384723527587058
 40
0.0760128354031485
 40
0.1131254471578648
 40
0.1494160971637464
 40
0.1856578159338827
 40
0.2218137456985997
 40
0.2583055435290262
 40
0.2949973864909696
 40
0.3319962627235191
 40
0.3692976630443876
 40
0.4073817571965566
 40
0.4459385802925503
 40
0.4848770500564392
 40
0.5250418744445684
 40
0.5668324498003775
 40
0.6097042278413046
 40
0.6993276017763829
 40
0.7934678936399485
 40
0.8933955491110759
 40
1.0
 40
1.0
 40
1.0
 40
1.0
 10
21.65
 20
28.103125
 30
0.0
 10
21.65055797471869
 20
28.15527340658846
 30
0.0
 10
21.65166040899708
 20
28.25830709083975
 30
0.0
 10
21.6708089093404
 20
28.41051192547643
 30
0.0
 10
21.69542782790932
 20
28.55889922608604
 30
0.0
 10
21.73627927131409
 20
28.70190552196366
 30
0.0
 10
21.78397223592067
 20
28.8412287618967
 30
0.0
 10
21.84332294880691
 20
28.97652606188054
 30
0.0
 10
21.91612051499295
 20
29.10564560108531
 30
0.0
 10
21.99674673005741
 20
29.2313894528298
 30
0.0
 10
22.08960220824303
 20
29.34984617252194
 30
0.0
 10
22.19140512801509
 20
29.46316554183374
 30
0.0
 10
22.30382610399369
 20
29.56917334568377
 30
0.0
 10
22.42597172996037
 20
29.66726201588819
 30
0.0
 10
22.55641351171018
 20
29.75906260714923
 30
0.0
 10
22.69798423015248
 20
29.84168131812947
 30
0.0
 10
22.84919983353733
 20
29.91742638117731
 30
0.0
 10
23.06495468191072
 20
30.01350637734187
 30
0.0
 10
23.35749669897464
 20
30.10910810011423
 30
0.0
 10
23.7331544340953
 20
30.19217110288929
 30
0.0
 10
24.13835341607917
 20
30.24003252414658
 30
0.0
 10
24.41810321007381
 20
30.24660666483838
 30
0.0
 10
24.5625
 20
30.25
 30
0.0
  0
SPLINE
  5
9F
330
1F
100
AcDbEntity
  8
0
  6
Continuous
 62
     7
370
    25
100
AcDbSpline
210
0.0
220
0.0
230
1.0
 70
     8
 71
     3
 72
    23
 73
    19
 74
     0
 42
0.00000001
 43
0.00000001
 40
0.0
 40
0.0
 40
0.0
 40
0.0
 40
0.1085313217585518
 40
0.2088693828512836
 40
0.3012250078023531
 40
0.3862486427931395
 40
0.4657740197433343
 40
0.5416266291473398
 40
0.6157829296345448
 40
0.688656258380753
 40
0.7252600122158945
 40
0.7619936492506023
 40
0.7993061661474911
 40
0.8371280538797242
 40
0.875838943986676
 40
0.9156417160966478
 40
0.9570899366420531
 40
1.0
 40
1.0
 40
1.0
 40
1.0
 10
24.2546875
 20
25.83125
 30
0.0
 10
24.12157022134323
 20
25.86394645947102
 30
0.0
 10
23.86538497095314
 20
25.92687105303976
 30
0.0
 10
23.5008063124729
 20
26.03617032285759
 30
0.0
 10
23.17022076783597
 20
26.1535280312159
 30
0.0
 10
22.86978985149086
 20
26.27677533561076
 30
0.0
 10
22.60105201969474
 20
26.41925764058879
 30
0.0
 10
22.3616829674671
 20
26.58421778008941
 30
0.0
 10
22.15335807830284
 20
26.77454552452426
 30
0.0
 10
22.00180485324366
 20
26.95122399739829
 30
0.0
 10
21.8999858091216
 20
27.1054761992864
 30
0.0
 10
21.83193230187891
 20
27.22772824181855
 30
0.0
 10
21.7759391492925
 20
27.35768796440944
 30
0.0
 10
21.73081957652829
 20
27.49434549022821
 30
0.0
 10
21.69492418718929
 20
27.63692784129147
 30
0.0
 10
21.66805372366858
 20
27.78614120482364
 30
0.0
 10
21.65227910188772
 20
27.94236363216555
 30
0.0
 10
21.65076842678094
 20
28.04892235945558
 30
0.0
 10
21.65
 20
28.103125
 30
0.0
  0
SPLINE
  5
A0
330
1F
100
AcDbEntity
  8
0
  6
Continuous
 62
     7
370
    25
100
AcDbSpline
210
0.0
220
0.0
230
1.0
 70
     8
 71
     3
 72
    19
 73
    15
 74
     0
 42
0.00000001
 43
0.00000001
 40
0.0
 40
0.0
 40
0.0
 40
0.0
 40
0.0741014077710948
 40
0.1428418378407235
 40
0.2088848110661615
 40
0.2761080968687056
 40
0.3454455161422855
 40
0.4173790678673769
 40
0.492165177993055
 40
0.5712700891920415
 40
0.6590964491296372
 40
0.7599945452512304
 40
0.8737122187630447
 40
1.0
 40
1.0
 40
1.0
 40
1.0
 10
26.15
 20
24.578125
 30
0.0
 10
26.14716314680416
 20
24.63938069605033
 30
0.0
 10
26.14169467682006
 20
24.75746045276793
 30
0.0
 10
26.09503890200522
 20
24.92494731646176
 30
0.0
 10
26.01895462942845
 20
25.07476024222343
 30
0.0
 10
25.90960962558695
 20
25.20290158262876
 30
0.0
 10
25.77857362062546
 20
25.31506696003138
 30
0.0
 10
25.6295775091975
 20
25.41395121158532
 30
0.0
 10
25.46195374515074
 20
25.4963631350168
 30
0.0
 10
25.27523727421046
 20
25.56728570167651
 30
0.0
 10
25.0631759658418
 20
25.62996030227644
 30
0.0
 10
24.82305509123847
 20
25.69822687445853
 30
0.0
 10
24.54937569933981
 20
25.76379646479552
 30
0.0
 10
24.35628784419196
 20
25.80799388587975
 30
0.0
 10
24.2546875
 20
25.83125
 30
0.0
  0
SPLINE
  5
A1
330
1F
100
AcDbEntity
  8
0
  6
Continuous
 62
     7
370
    25
100
AcDbSpline
210
0.0
220
0.0
230
1.0
 70
     8
 71
     3
 72
    23
 73
    19
 74
     0
 42
0.00000001
 43
0.00000001
 40
0.0
 40
0.0
 40
0.0
 40
0.0
 40
0.080006556055266
 40
0.1567469461515045
 40
0.2297692222692741
 40
0.3002616931479972
 40
0.367568050468567
 40
0.4334849989976216
 40
0.4980063288205083
 40
0.560991978065662
 40
0.6219953359898671
 40
0.6805766817061163
 40
0.735894319359994
 40
0.7891836690972107
 40
0.84156095010083
 40
0.8932769062002067
 40
0.9456541872038275
 40
1.0
 40
1.0
 40
1.0
 40
1.0
 10
24.5375
 20
23.45
 30
0.0
 10
24.59587672015861
 20
23.45070491244519
 30
0.0
 10
24.71024700507479
 20
23.45208596018096
 30
0.0
 10
24.87716558544282
 20
23.4685860821059
 30
0.0
 10
25.03616906984124
 20
23.49257745943735
 30
0.0
 10
25.1855513793502
 20
23.52949666260707
 30
0.0
 10
25.32815358213829
 20
23.57192449097589
 30
0.0
 10
25.46075380396564
 20
23.62931095845724
 30
0.0
 10
25.58608926943755
 20
23.6943509939353
 30
0.0
 10
25.70161903116417
 20
23.76933044093406
 30
0.0
 10
25.80625390441067
 20
23.85196759481913
 30
0.0
 10
25.89867048924457
 20
23.94025931390597
 30
0.0
 10
25.97614910143956
 20
24.03488440215721
 30
0.0
 10
26.038816492281
 20
24.13438364714654
 30
0.0
 10
26.09029301498029
 20
24.23745519059088
 30
0.0
 10
26.12360479818464
 20
24.34690067313483
 30
0.0
 10
26.14753713987461
 20
24.46041719584735
 30
0.0
 10
26.14916901319971
 20
24.53840953644889
 30
0.0
 10
26.15
 20
24.578125
 30
0.0
  0
SPLINE
  5
A2
330
1F
100
AcDbEntity
  8
0
  6
Continuous
 62
     7
370
    25
100
AcDbSpline
210
0.0
220
0.0
230
1.0
 70
     8
 71
     3
 72
    19
 73
    15
 74
     0
 42
0.00000001
 43
0.00000001
 40
0.0
 40
0.0
 40
0.0
 40
0.0
 40
0.0874500435876965
 40
0.1687904132041465
 40
0.2448979298405224
 40
0.315954876226048
 40
0.3848211827056305
 40
0.4559450592788288
 40
0.5304026409355512
 40
0.6093177505774788
 40
0.6940834492470498
 40
0.785913978786834
 40
0.8881013783298379
 40
1.0
 40
1.0
 40
1.0
 40
1.0
 10
22.871875
 20
24.6296875
 30
0.0
 10
22.8974696586733
 20
24.57063971922457
 30
0.0
 10
22.94687081201812
 20
24.45666951512883
 30
0.0
 10
23.02579544233055
 20
24.29444977709806
 30
0.0
 10
23.11143069799029
 20
24.14963557723626
 30
0.0
 10
23.19644740477773
 20
24.01514289615935
 30
0.0
 10
23.2952386151198
 20
23.89454896570023
 30
0.0
 10
23.41266939939816
 20
23.7884607236171
 30
0.0
 10
23.54630272828692
 20
23.69082406848074
 30
0.0
 10
23.69901344125577
 20
23.60405265276431
 30
0.0
 10
23.8736996250115
 20
23.53237755137099
 30
0.0
 10
24.0741830489179
 20
23.48639949981576
 30
0.0
 10
24.29736325760726
 20
23.45366496004278
 30
0.0
 10
24.45506982706781
 20
23.45125804692404
 30
0.0
 10
24.5375
 20
23.45
 30
0.0
  0
SPLINE
  5
A3
330
1F
100
AcDbEntity
  8
0
  6
Continuous
 62
     7
370
    25
100
AcDbSpline
210
0.0
220
0.0
230
1.0
 70
     8
 71
     3
 72
    15
 73
    11
 74
     0
 42
0.00000001
 43
0.00000001
 40
0.0
 40
0.0
 40
0.0
 40
0.0
 40
0.1165542053287021
 40
0.2258854299146277
 40
0.3354193492921934
 40
0.447224797168139
 40
0.5671967606881768
 40
0.6969681797155285
 40
0.8416807150558225
 40
1.0
 40
1.0
 40
1.0
 40
1.0
 10
22.1828125
 20
25.253125
 30
0.0
 10
22.22157571611623
 20
25.25161962091839
 30
0.0
 10
22.29669995305471
 20
25.24870215260333
 30
0.0
 10
22.40454570962197
 20
25.21727086462437
 30
0.0
 10
22.50265741221607
 20
25.16674428174806
 30
0.0
 10
22.59143719090208
 20
25.0955199302472
 30
0.0
 10
22.67332749860357
 20
25.00725767980579
 30
0.0
 10
22.74653265289203
 20
24.89838590225824
 30
0.0
 10
22.81576311376205
 20
24.77224814298614
 30
0.0
 10
22.85261939704299
 20
24.6786092405203
 30
0.0
 10
22.871875
 20
24.6296875
 30
0.0
  0
SPLINE
  5
A4
330
1F
100
AcDbEntity
  8
0
  6
Continuous
 62
     7
370
    25
100
AcDbSpline
210
0.0
220
0.0
230
1.0
 70
     8
 71
     3
 72
    15
 73
    11
 74
     0
 42
0.00000001
 43
0.00000001
 40
0.0
 40
0.0
 40
0.0
 40
0.0
 40
0.1286683721050355
 40
0.2512973715702636
 40
0.3723609026645607
 40
0.4976410587710458
 40
0.6232104981565515
 40
0.7450252415600404
 40
0.8684631259765705
 40
1.0
 40
1.0
 40
1.0
 40
1.0
 10
21.503125
 20
24.55625
 30
0.0
 10
21.50550087538408
 20
24.60284812838886
 30
0.0
 10
21.51014110848433
 20
24.69385718518065
 30
0.0
 10
21.54738188705883
 20
24.82457355079218
 30
0.0
 10
21.60834476661537
 20
24.94402176273925
 30
0.0
 10
21.6903559479927
 20
25.05172149085489
 30
0.0
 10
21.79312825757678
 20
25.14057772518071
 30
0.0
 10
21.91116660562868
 20
25.2058801413385
 30
0.0
 10
22.04262573354677
 20
25.2471254345617
 30
0.0
 10
22.13510441700858
 20
25.25108323976054
 30
0.0
 10
22.1828125
 20
25.253125
 30
0.0
  0
SPLINE
  5
A5
330
1F
100
AcDbEntity
  8
0
  6
Continuous
 62
     7
370
    25
100
AcDbSpline
210
0.0
220
0.0
230
1.0
 70
     8
 71
     3
 72
    15
 73
    11
 74
     0
 42
0.00000001
 43
0.00000001
 40
0.0
 40
0.0
 40
0.0
 40
0.0
 40
0.1310506541780845
 40
0.2607537313579066
 40
0.3914837574313553
 40
0.5246237150193375
 40
0.6543286202260395
 40
0.7755579651278677
 40
0.8901432238787131
 40
1.0
 40
1.0
 40
1.0
 40
1.0
 10
22.653125
 20
22.7015625
 30
0.0
 10
22.57026097390004
 20
22.75621297821578
 30
0.0
 10
22.40538500180805
 20
22.86495197081854
 30
0.0
 10
22.18662819651479
 20
23.066016782703
 30
0.0
 10
21.98755949181594
 20
23.28802135893945
 30
0.0
 10
21.81870051299355
 20
23.53410900165181
 30
0.0
 10
21.68038977759102
 20
23.79023477138195
 30
0.0
 10
21.57861011844794
 20
24.04789337567516
 30
0.0
 10
21.51592704372746
 20
24.3032674591642
 30
0.0
 10
21.50733198849477
 20
24.47311525516318
 30
0.0
 10
21.503125
 20
24.55625
 30
0.0
  0
SPLINE
  5
A6
330
1F
100
AcDbEntity
  8
0
  6
Continuous
 62
     7
370
    25
100
AcDbSpline
210
0.0
220
0.0
230
1.0
 70
     8
 71
     3
 72
    15
 73
    11
 74
     0
 42
0.00000001
 43
0.00000001
 40
0.0
 40
0.0
 40
0.0
 40
0.0
 40
0.1421212240103495
 40
0.279047805508709
 40
0.4097528246128996
 40
0.5352845381732628
 40
0.6572548948418679
 40
0.7745865193284792
 40
0.8883820750027397
 40
1.0
 40
1.0
 40
1.0
 40
1.0
 10
24.55625
 20
22.25
 30
0.0
 10
24.46247410673016
 20
22.25176625090197
 30
0.0
 10
24.27834990284165
 20
22.25523419484635
 30
0.0
 10
24.00842229866877
 20
22.27455649215343
 30
0.0
 10
23.75146431867971
 20
22.31147721772666
 30
0.0
 10
23.50629089398189
 20
22.3589030443579
 30
0.0
 10
23.2738280616201
 20
22.42270404733502
 30
0.0
 10
23.05453789471082
 20
22.50176038506184
 30
0.0
 10
22.84618366689717
 20
22.59078666345768
 30
0.0
 10
22.71706209143823
 20
22.66487580313223
 30
0.0
 10
22.653125
 20
22.7015625
 30
0.0
  0
SPLINE
  5
A7
330
1F
100
AcDbEntity
  8
0
  6
Continuous
 62
     7
370
    25
100
AcDbSpline
210
0.0
220
0.0
230
1.0
 70
     8
 71
     3
 72
    31
 73
    27
 74
     0
 42
0.00000001
 43
0.00000001
 40
0.0
 40
0.0
 40
0.0
 40
0.0
 40
0.0395435687615916
 40
0.0782050836540262
 40
0.1161513514360714
 40
0.1535587483627338
 40
0.1907184712032451
 40
0.2277363939896122
 40
0.2651176250325613
 40
0.3026034100244292
 40
0.3405367829737914
 40
0.3780617005922262
 40
0.4161575505120699
 40
0.4545524091923836
 40
0.4939363680942643
 40
0.5339961852655415
 40
0.5752057888817217
 40
0.6177472431484464
 40
0.6613282480525234
 40
0.705791366202362
 40
0.7512837304589134
 40
0.7981323961856293
 40
0.846025441293255
 40
0.8956529963882052
 40
0.9471812477218899
 40
1.0
 40
1.0
 40
1.0
 40
1.0
 10
27.65
 20
24.7453125
 30
0.0
 10
27.64871295850748
 20
24.68641655454304
 30
0.0
 10
27.64616758410804
 20
24.56993838917781
 30
0.0
 10
27.62850998173748
 20
24.39767137779736
 30
0.0
 10
27.60043228183604
 20
24.23011775160513
 30
0.0
 10
27.56176043561371
 20
24.06690057626787
 30
0.0
 10
27.50972961509772
 20
23.90887259329629
 30
0.0
 10
27.44661828754604
 20
23.75509598054013
 30
0.0
 10
27.37414188604345
 20
23.60483795999086
 30
0.0
 10
27.28696306509443
 20
23.46103569307707
 30
0.0
 10
27.19135931387732
 20
23.3224678362254
 30
0.0
 10
27.08362094122045
 20
23.19190974095858
 30
0.0
 10
26.96717782288972
 20
23.06806969682252
 30
0.0
 10
26.83748770463898
 20
22.95392420560451
 30
0.0
 10
26.69879316093793
 20
22.84624647275625
 30
0.0
 10
26.54967212624891
 20
22.7457199779007
 30
0.0
 10
26.38979422709883
 20
22.65359502433311
 30
0.0
 10
26.21978648801628
 20
22.56929910996332
 30
0.0
 10
26.04007847917828
 20
22.49457984880037
 30
0.0
 10
25.85217805749079
 20
22.42925519407897
 30
0.0
 10
25.65655905658652
 20
22.37161517271466
 30
0.0
 10
25.45174343635574
 20
22.33013349671353
 30
0.0
 10
25.23999223202197
 20
22.29246134224144
 30
0.0
 10
25.01916702502811
 20
22.26876756408178
 30
0.0
 10
24.79036091757501
 20
22.25215019913377
 30
0.0
 10
24.63492774052292
 20
22.25072261819855
 30
0.0
 10
24.55625
 20
22.25
 30
0.0
  0
SPLINE
  5
A8
330
1F
100
AcDbEntity
  8
0
  6
Continuous
 62
     7
370
    25
100
AcDbSpline
210
0.0
220
0.0
230
1.0
 70
     8
 71
     3
 72
    23
 73
    19
 74
     0
 42
0.00000001
 43
0.00000001
 40
0.0
 40
0.0
 40
0.0
 40
0.0
 40
0.0792188885734127
 40
0.1549716777492906
 40
0.2277653819472012
 40
0.2969418962136313
 40
0.3630694736265165
 40
0.425186055404971
 40
0.4842457115273788
 40
0.5404242175094923
 40
0.5946152725349803
 40
0.6479543719647114
 40
0.7012134026486329
 40
0.7551597777925231
 40
0.8107272422453027
 40
0.8694777845350468
 40
0.9324201819528828
 40
1.0
 40
1.0
 40
1.0
 40
1.0
 10
24.7765625
 20
27.1734375
 30
0.0
 10
24.88292957947053
 20
27.14786227520397
 30
0.0
 10
25.09100981209793
 20
27.09783082983999
 30
0.0
 10
25.39485450478806
 20
27.0164280000714
 30
0.0
 10
25.68324811726317
 20
26.93124282519789
 30
0.0
 10
25.95588484628575
 20
26.8403309606404
 30
0.0
 10
26.21171769099037
 20
26.74571644490245
 30
0.0
 10
26.44735175847046
 20
26.63854188440078
 30
0.0
 10
26.66379984668013
 20
26.52359374162778
 30
0.0
 10
26.86110945590262
 20
26.39712163302385
 30
0.0
 10
27.03752206124256
 20
26.25516488361144
 30
0.0
 10
27.19605437379956
 20
26.09888005789515
 30
0.0
 10
27.33061035539231
 20
25.92184144628586
 30
0.0
 10
27.44567581478674
 20
25.72827660972044
 30
0.0
 10
27.5398979764908
 20
25.51501502873376
 30
0.0
 10
27.60435496149812
 20
25.27813304464161
 30
0.0
 10
27.64386369732668
 20
25.01904351042679
 30
0.0
 10
27.64790668368823
 20
24.83869211630449
 30
0.0
 10
27.65
 20
24.7453125
 30
0.0
  0
SPLINE
  5
A9
330
1F
100
AcDbEntity
  8
0
  6
Continuous
 62
     7
370
    25
100
AcDbSpline
210
0.0
220
0.0
230
1.0
 70
     8
 71
     3
 72
    21
 73
    17
 74
     0
 42
0.00000001
 43
0.00000001
 40
0.0
 40
0.0
 40
0.0
 40
0.0
 40
0.0507483020375621
 40
0.0998624972010043
 40
0.1471413746068063
 40
0.1952093540793807
 40
0.2447101796790019
 40
0.2957531404758533
 40
0.3498001580995609
 40
0.4066660193490512
 40
0.523094630599142
 40
0.6356152712702089
 40
0.6999631845087948
 40
0.7824525781103744
 40
0.8825800820386436
 40
1.0
 40
1.0
 40
1.0
 40
1.0
 10
23.05
 20
28.2484375
 30
0.0
 10
23.05132501466167
 20
28.21131229460799
 30
0.0
 10
23.05393237821137
 20
28.13825732388597
 30
0.0
 10
23.07966880131182
 20
28.03311489950633
 30
0.0
 10
23.1212310526105
 20
27.93571278668849
 30
0.0
 10
23.1779397936494
 20
27.84580503957234
 30
0.0
 10
23.25061041848562
 20
27.76449973896145
 30
0.0
 10
23.33702755319144
 20
27.69162071255931
 30
0.0
 10
23.43141099993522
 20
27.61992783791335
 30
0.0
 10
23.5766900159792
 20
27.5388152644158
 30
0.0
 10
23.76600039883302
 20
27.45018090564006
 30
0.0
 10
23.96880492676937
 20
27.37981375364635
 30
0.0
 10
24.15180234335203
 20
27.33070040863891
 30
0.0
 10
24.32658438104626
 20
27.2860290387842
 30
0.0
 10
24.53861227632211
 20
27.23049414211987
 30
0.0
 10
24.69315109709853
 20
27.19343821481549
 30
0.0
 10
24.77656249999999
 20
27.1734375
 30
0.0
  0
SPLINE
  5
AE
330
1F
100
AcDbEntity
  8
0
  6
Continuous
 62
     7
370
    25
100
AcDbSpline
210
0.0
220
0.0
230
1.0
 70
     8
 71
     3
 72
    15
 73
    11
 74
     0
 42
0.00000001
 43
0.00000001
 40
0.0
 40
0.0
 40
0.0
 40
0.0
 40
0.1563604787675832
 40
0.3035650673656406
 40
0.4416283984649282
 40
0.5706098238593676
 40
0.6908502199487291
 40
0.8024282513857355
 40
0.9053251677621088
 40
0.9999999999999999
 40
0.9999999999999999
 40
0.9999999999999999
 40
0.9999999999999999
 10
45.97656249999997
 20
30.05
 30
0.0
 10
46.04688536407295
 20
30.05001345454238
 30
0.0
 10
46.18341324591314
 20
30.05003957577901
 30
0.0
 10
46.38186438724688
 20
30.04128833603804
 30
0.0
 10
46.56782359704222
 20
30.03045000841783
 30
0.0
 10
46.74153992422368
 20
30.01746924639657
 30
0.0
 10
46.9025752565198
 20
29.99699153793193
 30
0.0
 10
47.05094046442763
 20
29.9716216833488
 30
0.0
 10
47.18743596117622
 20
29.94472141556342
 30
0.0
 10
47.27304116012647
 20
29.92082565907673
 30
0.0
 10
47.31406249999998
 20
29.909375
 30
0.0
  0
SPLINE
  5
B0
330
1F
100
AcDbEntity
  8
0
  6
Continuous
 62
     7
370
    25
100
AcDbSpline
210
0.0
220
0.0
230
1.0
 70
     8
 71
     3
 72
    19
 73
    15
 74
     0
 42
0.00000001
 43
0.00000001
 40
0.0
 40
0.0
 40
0.0
 40
0.0
 40
0.078476549308915
 40
0.1513021500833423
 40
0.2198733580941677
 40
0.2824988964935584
 40
0.3418916072077753
 40
0.3965187063622284
 40
0.4494030100303408
 40
0.500706624575383
 40
0.6051853511939412
 40
0.7200755192864089
 40
0.8497824523466221
 40
1.0
 40
1.0
 40
1.0
 40
1.0
 10
43.04999999999997
 20
29.0984375
 30
0.0
 10
43.05043466653537
 20
29.13960842706938
 30
0.0
 10
43.05127270008747
 20
29.21898564027995
 30
0.0
 10
43.06232720299207
 20
29.33393051627431
 30
0.0
 10
43.08086023988635
 20
29.43940785303504
 30
0.0
 10
43.10568278104999
 20
29.53637601399699
 30
0.0
 10
43.13807960324598
 20
29.62338744810299
 30
0.0
 10
43.17770676864215
 20
29.70163599835709
 30
0.0
 10
43.22437909001601
 20
29.77099660923692
 30
0.0
 10
43.29906344918429
 20
29.85144499309884
 30
0.0
 10
43.4154622597317
 20
29.93566786224472
 30
0.0
 10
43.58716673119224
 20
30.00313770438568
 30
0.0
 10
43.79140251501108
 20
30.04314997323003
 30
0.0
 10
43.93833710988406
 20
30.0476077803263
 30
0.0
 10
44.01718749999997
 20
30.05
 30
0.0
  0
SPLINE
  5
B2
330
1F
100
AcDbEntity
  8
0
  6
Continuous
 62
     7
370
    25
100
AcDbSpline
210
0.0
220
0.0
230
1.0
 70
     8
 71
     3
 72
    15
 73
    11
 74
     0
 42
0.00000001
 43
0.00000001
 40
0.0
 40
0.0
 40
0.0
 40
0.0
 40
0.1191053007172498
 40
0.2308897902382643
 40
0.3402482552901772
 40
0.4526649515689583
 40
0.571101053428565
 40
0.6986957349138921
 40
0.8409021733669363
 40
0.9999999999999999
 40
0.9999999999999999
 40
0.9999999999999999
 40
0.9999999999999999
 10
43.80312499999998
 20
22.25
 30
0.0
 10
43.74920039007825
 20
22.25308366979987
 30
0.0
 10
43.64466564814374
 20
22.25906147153472
 30
0.0
 10
43.49525059001519
 20
22.30316857655137
 30
0.0
 10
43.36465080000588
 20
22.38118956254649
 30
0.0
 10
43.24975397829455
 20
22.48537613648538
 30
0.0
 10
43.15792235261577
 20
22.62112436868885
 30
0.0
 10
43.09493271101347
 20
22.78624451891781
 30
0.0
 10
43.05561862323364
 20
22.97732966327239
 30
0.0
 10
43.05194158706316
 20
23.11385039605558
 30
0.0
 10
43.04999999999997
 20
23.1859375
 30
0.0
  0
SPLINE
  5
B3
330
1F
100
AcDbEntity
  8
0
  6
Continuous
 62
     7
370
    25
100
AcDbSpline
210
0.0
220
0.0
230
1.0
 70
     8
 71
     3
 72
    15
 73
    11
 74
     0
 42
0.00000001
 43
0.00000001
 40
0.0
 40
0.0
 40
0.0
 40
0.0
 40
0.1607124901155498
 40
0.3046989068249873
 40
0.4330957168571415
 40
0.5541371600276487
 40
0.6676636789979037
 40
0.7763452975322835
 40
0.8851433202124399
 40
0.9999999999999999
 40
0.9999999999999999
 40
0.9999999999999999
 40
0.9999999999999999
 10
44.54999999999997
 20
23.1921875
 30
0.0
 10
44.54820049315694
 20
23.11955379912284
 30
0.0
 10
44.54478876226096
 20
22.98184571408223
 30
0.0
 10
44.50365626714125
 20
22.78975489820681
 30
0.0
 10
44.43889276701888
 20
22.62319134790063
 30
0.0
 10
44.34381999456502
 20
22.4879771840995
 30
0.0
 10
44.22999700148894
 20
22.3814566945565
 30
0.0
 10
44.10088518348422
 20
22.30397065753233
 30
0.0
 10
43.95599918736114
 20
22.25907595827169
 30
0.0
 10
43.85499510690316
 20
22.25307946641567
 30
0.0
 10
43.80312499999997
 20
22.25
 30
0.0
  0
SPLINE
  5
B6
330
1F
100
AcDbEntity
  8
0
  6
Continuous
 62
     7
370
    25
100
AcDbSpline
210
0.0
220
0.0
230
1.0
 70
     8
 71
     3
 72
    23
 73
    19
 74
     0
 42
0.00000001
 43
0.00000001
 40
0.0
 40
0.0
 40
0.0
 40
0.0
 40
0.0665168182701535
 40
0.1294819366957647
 40
0.1893758846573513
 40
0.2465456548280674
 40
0.3020823411775138
 40
0.3562820622352023
 40
0.4102437909442085
 40
0.4650126659894973
 40
0.5208905304278416
 40
0.5786463749673755
 40
0.6391650427694324
 40
0.7030303394887264
 40
0.7705333977904681
 40
0.8422824003264597
 40
0.9185293657934548
 40
1.0
 40
1.0
 40
1.0
 40
1.0
 10
48.84999999999997
 20
27.7375
 30
0.0
 10
48.84818659149657
 20
27.64258854177466
 30
0.0
 10
48.84465660237284
 20
27.45783347162498
 30
0.0
 10
48.80902755586381
 20
27.1896086531761
 30
0.0
 10
48.75416781919615
 20
26.93840924592904
 30
0.0
 10
48.67397161303461
 20
26.70506261165488
 30
0.0
 10
48.57073504457066
 20
26.48996268505617
 30
0.0
 10
48.44453727048835
 20
26.2928896723588
 30
0.0
 10
48.29656228134746
 20
26.11299441013881
 30
0.0
 10
48.1252715337166
 20
25.95154160466443
 30
0.0
 10
47.93147142873605
 20
25.80885839012896
 30
0.0
 10
47.71595307319068
 20
25.68420262033512
 30
0.0
 10
47.47644142734864
 20
25.58253442284918
 30
0.0
 10
47.21658739287384
 20
25.49561129037867
 30
0.0
 10
46.93366725088917
 20
25.43175316778898
 30
0.0
 10
46.63008360473762
 20
25.38276790064985
 30
0.0
 10
46.30363954558949
 20
25.35507980373071
 30
0.0
 10
46.07869658158452
 20
25.35173024744934
 30
0.0
 10
45.96249999999998
 20
25.35
 30
0.0
  0
SPLINE
  5
B7
330
1F
100
AcDbEntity
  8
0
  6
Continuous
 62
     7
370
    25
100
AcDbSpline
210
0.0
220
0.0
230
1.0
 70
     8
 71
     3
 72
    19
 73
    15
 74
     0
 42
0.00000001
 43
0.00000001
 40
0.0
 40
0.0
 40
0.0
 40
0.0
 40
0.0846726798858446
 40
0.1665703645112229
 40
0.246953903275648
 40
0.3274566171073867
 40
0.4073413716992894
 40
0.4861405235049019
 40
0.5661636291395858
 40
0.6477979590766079
 40
0.7312795260866891
 40
0.8171748857837183
 40
0.9065060942102827
 40
1.0
 40
1.0
 40
1.0
 40
1.0
 10
47.31406249999998
 20
29.909375
 30
0.0
 10
47.39183118180838
 20
29.88570116873273
 30
0.0
 10
47.54481981632247
 20
29.83912937356948
 30
0.0
 10
47.75984103932372
 20
29.7382911186469
 30
0.0
 10
47.96074968651031
 20
29.61978351491484
 30
0.0
 10
48.14297539761105
 20
29.47697944337791
 30
0.0
 10
48.30732021396147
 20
29.31631811017979
 30
0.0
 10
48.45128103491891
 20
29.13764414429931
 30
0.0
 10
48.57373795295504
 20
28.94152938566637
 30
0.0
 10
48.67278995635014
 20
28.72786681627784
 30
0.0
 10
48.75373137463415
 20
28.50067845679929
 30
0.0
 10
48.80876307041728
 20
28.25834570235844
 30
0.0
 10
48.8445784289469
 20
28.00263552664224
 30
0.0
 10
48.84816558464465
 20
27.82720991554928
 30
0.0
 10
48.84999999999998
 20
27.7375
 30
0.0
  0
SPLINE
  5
B9
330
1F
100
AcDbEntity
  8
0
  6
Continuous
 62
     7
370
    25
100
AcDbSpline
210
0.0
220
0.0
230
1.0
 70
     8
 71
     3
 72
    15
 73
    11
 74
     0
 42
0.00000001
 43
0.00000001
 40
0.0
 40
0.0
 40
0.0
 40
0.0
 40
0.1162816136217284
 40
0.225651217414648
 40
0.3319169795823376
 40
0.4428059296458596
 40
0.5606361044591903
 40
0.6906429007549713
 40
0.8345747159746331
 40
1.0
 40
1.0
 40
1.0
 40
1.0
 10
49.54999999999999
 20
25.146875
 30
0.0
 10
49.55235531510916
 20
25.18984314061682
 30
0.0
 10
49.55692594072424
 20
25.2732253103188
 30
0.0
 10
49.59374918507488
 20
25.3915572303069
 30
0.0
 10
49.65554407018361
 20
25.49596572598869
 30
0.0
 10
49.73918910956763
 20
25.588263853487
 30
0.0
 10
49.84990806195715
 20
25.66349039239812
 30
0.0
 10
49.98682406500178
 20
25.71286924871137
 30
0.0
 10
50.14646201604509
 20
25.7447358936638
 30
0.0
 10
50.26075701476094
 20
25.74816586226345
 30
0.0
 10
50.32187499999998
 20
25.75
 30
0.0
  0
SPLINE
  5
BA
330
1F
100
AcDbEntity
  8
0
  6
Continuous
 62
     7
370
    25
100
AcDbSpline
210
0.0
220
0.0
230
1.0
 70
     8
 71
     3
 72
    15
 73
    11
 74
     0
 42
0.00000001
 43
0.00000001
 40
0.0
 40
0.0
 40
0.0
 40
0.0
 40
0.1624757409959156
 40
0.3061529418420242
 40
0.4358623550631821
 40
0.5558042046584528
 40
0.6684821039879816
 40
0.7763145099756616
 40
0.8856286734182817
 40
1.0
 40
1.0
 40
1.0
 40
1.0
 10
50.32187499999998
 20
24.55
 30
0.0
 10
50.26232598868246
 20
24.5519032630733
 30
0.0
 10
50.15011782217779
 20
24.55548958054702
 30
0.0
 10
49.99300865504112
 20
24.58702077614238
 30
0.0
 10
49.85690171875605
 20
24.63712509155862
 30
0.0
 10
49.74618992821038
 20
24.71220931119137
 30
0.0
 10
49.65815282831799
 20
24.80187854913985
 30
0.0
 10
49.59599332056751
 20
24.90647939899984
 30
0.0
 10
49.55659117621649
 20
25.02277985835947
 30
0.0
 10
49.55222992565326
 20
25.1048911520946
 30
0.0
 10
49.54999999999998
 20
25.146875
 30
0.0
  0
SPLINE
  5
BC
330
1F
100
AcDbEntity
  8
0
  6
Continuous
 62
     7
370
    25
100
AcDbSpline
210
0.0
220
0.0
230
1.0
 70
     8
 71
     3
 72
    15
 73
    11
 74
     0
 42
0.00000001
 43
0.00000001
 40
0.0
 40
0.0
 40
0.0
 40
0.0
 40
0.113943486410305
 40
0.2219970243528923
 40
0.3287038150625197
 40
0.4390109143830534
 40
0.557330112839886
 40
0.6865543091867998
 40
0.8324734443864964
 40
1.0
 40
1.0
 40
1.0
 40
1.0
 10
52.74999999999999
 20
25.146875
 30
0.0
 10
52.74745629131488
 20
25.10498772829921
 30
0.0
 10
52.74250036292702
 20
25.02337841504414
 30
0.0
 10
52.70779690393287
 20
24.9062618580976
 30
0.0
 10
52.64639286547754
 20
24.80258179795426
 30
0.0
 10
52.56181216674866
 20
24.71173250978363
 30
0.0
 10
52.45208255689132
 20
24.63686625069673
 30
0.0
 10
52.31542127467929
 20
24.58656943237871
 30
0.0
 10
52.15505026863051
 20
24.5553933299233
 30
0.0
 10
52.039749513836
 20
24.55187854079326
 30
0.0
 10
51.97812499999998
 20
24.55
 30
0.0
  0
SPLINE
  5
BD
330
1F
100
AcDbEntity
  8
0
  6
Continuous
 62
     7
370
    25
100
AcDbSpline
210
0.0
220
0.0
230
1.0
 70
     8
 71
     3
 72
    15
 73
    11
 74
     0
 42
0.00000001
 43
0.00000001
 40
0.0
 40
0.0
 40
0.0
 40
0.0
 40
0.1654848212038788
 40
0.3094684380222366
 40
0.4382048554600607
 40
0.5560774377940632
 40
0.6679635622551395
 40
0.7742675698681317
 40
0.8836765361905652
 40
1.0
 40
1.0
 40
1.0
 40
1.0
 10
51.97812499999998
 20
25.75
 30
0.0
 10
52.03923660434065
 20
25.74814310338769
 30
0.0
 10
52.15351967032072
 20
25.74467057406449
 30
0.0
 10
52.31275711223603
 20
25.71317726528984
 30
0.0
 10
52.44898831213448
 20
25.6631708002236
 30
0.0
 10
52.55920858417337
 20
25.58777454965963
 30
0.0
 10
52.64454487399201
 20
25.49651720901568
 30
0.0
 10
52.70617820432781
 20
25.39149121847803
 30
0.0
 10
52.74309378806705
 20
25.27324324618001
 30
0.0
 10
52.74765139409062
 20
25.18984924009219
 30
0.0
 10
52.74999999999999
 20
25.146875
 30
0.0
  0
SPLINE
  5
BE
330
1F
100
AcDbEntity
  8
0
  6
Continuous
 62
     7
370
    25
100
AcDbSpline
210
0.0
220
0.0
230
1.0
 70
     8
 71
     3
 72
    15
 73
    11
 74
     0
 42
0.00000001
 43
0.00000001
 40
0.0
 40
0.0
 40
0.0
 40
0.0
 40
0.1560571310773342
 40
0.2996404756320879
 40
0.4302000547329704
 40
0.5488940427725059
 40
0.6608353486686975
 40
0.7718679840649937
 40
0.8847882005942824
 40
1.0
 40
1.0
 40
1.0
 40
1.0
 10
60.24999999999999
 20
25.5625
 30
0.0
 10
60.24789608694846
 20
25.41713654492512
 30
0.0
 10
60.24385642850352
 20
25.13802866617925
 30
0.0
 10
60.21357235289596
 20
24.7381168062828
 30
0.0
 10
60.16061970390167
 20
24.37582377064387
 30
0.0
 10
60.0890482734516
 20
24.04664335153565
 30
0.0
 10
59.98521184280141
 20
23.74475834923787
 30
0.0
 10
59.84242333338413
 20
23.46542449606642
 30
0.0
 10
59.66296703991323
 20
23.20381539553668
 30
0.0
 10
59.5162718636287
 20
23.04970447917129
 30
0.0
 10
59.4421875
 20
22.971875
 30
0.0
  0
SPLINE
  5
C0
330
1F
100
AcDbEntity
  8
0
  6
Continuous
 62
     7
370
    25
100
AcDbSpline
210
0.0
220
0.0
230
1.0
 70
     8
 71
     3
 72
    15
 73
    11
 74
     0
 42
0.00000001
 43
0.00000001
 40
0.0
 40
0.0
 40
0.0
 40
0.0
 40
0.1172088941753119
 40
0.2276434076371417
 40
0.3357730289913441
 40
0.4464980836378796
 40
0.5637946598109979
 40
0.6919952456032485
 40
0.836505411167078
 40
1.0
 40
1.0
 40
1.0
 40
1.0
 10
59.49218749999999
 20
30.25
 30
0.0
 10
59.54621734747413
 20
30.24781588703406
 30
0.0
 10
59.65115425247326
 20
30.24357389736485
 30
0.0
 10
59.7995258724002
 20
30.19553115411494
 30
0.0
 10
59.93259922513602
 20
30.12140966576485
 30
0.0
 10
60.04689276935363
 20
30.01550090896892
 30
0.0
 10
60.14128803140373
 20
29.88002136375241
 30
0.0
 10
60.20576231917674
 20
29.71138325834218
 30
0.0
 10
60.24437252622689
 20
29.5137365180559
 30
0.0
 10
60.2480486473122
 20
29.37207273937619
 30
0.0
 10
60.24999999999999
 20
29.296875
 30
0.0
  0
SPLINE
  5
C1
330
1F
100
AcDbEntity
  8
0
  6
Continuous
 62
     7
370
    25
100
AcDbSpline
210
0.0
220
0.0
230
1.0
 70
     8
 71
     3
 72
    15
 73
    11
 74
     0
 42
0.00000001
 43
0.00000001
 40
0.0
 40
0.0
 40
0.0
 40
0.0
 40
0.1655261847957345
 40
0.3106068782471893
 40
0.4390891293713564
 40
0.5551109159101176
 40
0.6655565063479352
 40
0.7732866846713524
 40
0.8821505488306298
 40
1.0
 40
1.0
 40
1.0
 40
1.0
 10
58.74999999999999
 20
29.29375
 30
0.0
 10
58.75210354826162
 20
29.36943371695695
 30
0.0
 10
58.75605081835423
 20
29.51145283669412
 30
0.0
 10
58.79243974185174
 20
29.70978566888648
 30
0.0
 10
58.85604142119217
 20
29.87736248692675
 30
0.0
 10
58.94546365435676
 20
30.01408651633346
 30
0.0
 10
59.05605008211734
 20
30.12182016577895
 30
0.0
 10
59.18760045993499
 20
30.19502782560567
 30
0.0
 10
59.33410073876332
 20
30.24399620719412
 30
0.0
 10
59.43811770529108
 20
30.24794654630186
 30
0.0
 10
59.49218749999999
 20
30.25
 30
0.0
  0
SPLINE
  5
C3
330
1F
100
AcDbEntity
  8
0
  6
Continuous
 62
     7
370
    25
100
AcDbSpline
210
0.0
220
0.0
230
1.0
 70
     8
 71
     3
 72
    23
 73
    19
 74
     0
 42
0.00000001
 43
0.00000001
 40
0.0
 40
0.0
 40
0.0
 40
0.0
 40
0.0741929871253203
 40
0.1430774948129211
 40
0.2070400828356038
 40
0.2668943497746406
 40
0.3230689589558325
 40
0.3770468663646727
 40
0.4286332676404269
 40
0.4803939697676103
 40
0.5330302881745482
 40
0.5882369421756367
 40
0.6463939197216022
 40
0.7082278106480633
 40
0.7740302315655567
 40
0.8447196605840044
 40
0.9196033835461626
 40
1.0
 40
1.0
 40
1.0
 40
1.0
 10
57.05781249999999
 20
23.45
 30
0.0
 10
57.13237073279521
 20
23.4513210998377
 30
0.0
 10
57.27615258576198
 20
23.45386877533238
 30
0.0
 10
57.48293543563127
 20
23.47826970059893
 30
0.0
 10
57.67350242959958
 20
23.51392998364046
 30
0.0
 10
57.84603805915006
 20
23.56935284526844
 30
0.0
 10
58.00279289107866
 20
23.63795305271396
 30
0.0
 10
58.14236388279112
 20
23.72211960119828
 30
0.0
 10
58.26535708132526
 20
23.82222039791667
 30
0.0
 10
58.37081961943204
 20
23.93897733211233
 30
0.0
 10
58.4598230179628
 20
24.07276732501518
 30
0.0
 10
58.5385680236628
 20
24.22007531442972
 30
0.0
 10
58.6034721242363
 20
24.38396980218191
 30
0.0
 10
58.65839402817129
 20
24.56252152070301
 30
0.0
 10
58.70024787810004
 20
24.75753537286334
 30
0.0
 10
58.72925371747993
 20
24.9680132408113
 30
0.0
 10
58.7463348882916
 20
25.19450936633721
 30
0.0
 10
58.74874971832018
 20
25.3504905305246
 30
0.0
 10
58.74999999999999
 20
25.43125
 30
0.0
  0
SPLINE
  5
C4
330
1F
100
AcDbEntity
  8
0
  6
Continuous
 62
     7
370
    25
100
AcDbSpline
210
0.0
220
0.0
230
1.0
 70
     8
 71
     3
 72
    23
 73
    19
 74
     0
 42
0.00000001
 43
0.00000001
 40
0.0
 40
0.0
 40
0.0
 40
0.0
 40
0.1025526013774935
 40
0.1962816444124368
 40
0.2827236889379661
 40
0.3615357280622177
 40
0.4346612152331567
 40
0.5052623414759398
 40
0.5749364169100345
 40
0.6458316391981301
 40
0.6828362980708338
 40
0.7209489181768224
 40
0.7616008157359915
 40
0.8042752989443929
 40
0.8489826721146827
 40
0.8962987073381105
 40
0.9469517761345452
 40
1.0
 40
1.0
 40
1.0
 40
1.0
 10
55.34999999999999
 20
25.4640625
 30
0.0
 10
55.35177494447562
 20
25.35931796555466
 30
0.0
 10
55.35517211837211
 20
25.15884104748539
 30
0.0
 10
55.38143623182943
 20
24.87097732686276
 30
0.0
 10
55.42580743091604
 20
24.60996618653266
 30
0.0
 10
55.48844990817702
 20
24.37419354350367
 30
0.0
 10
55.57615220587029
 20
24.16357850112294
 30
0.0
 10
55.69274921211498
 20
23.97809142013986
 30
0.0
 10
55.83892184879213
 20
23.81810230832644
 30
0.0
 10
55.98297711587202
 20
23.70624294097876
 30
0.0
 10
56.11268769849071
 20
23.63222861361972
 30
0.0
 10
56.2205902512494
 20
23.58360902458218
 30
0.0
 10
56.33724419217315
 20
23.54091882269097
 30
0.0
 10
56.46434015272148
 20
23.50959754100088
 30
0.0
 10
56.59920089531821
 20
23.48209216156771
 30
0.0
 10
56.74392805257868
 20
23.46445409288829
 30
0.0
 10
56.89765746520174
 20
23.45079657434124
 30
0.0
 10
57.0036117577752
 20
23.45026958203709
 30
0.0
 10
57.05781249999999
 20
23.45
 30
0.0
  0
SPLINE
  5
C6
330
1F
100
AcDbEntity
  8
0
  6
Continuous
 62
     7
370
    25
100
AcDbSpline
210
0.0
220
0.0
230
1.0
 70
     8
 71
     3
 72
    15
 73
    11
 74
     0
 42
0.00000001
 43
0.00000001
 40
0.0
 40
0.0
 40
0.0
 40
0.0
 40
0.1203535975178695
 40
0.2312242730810974
 40
0.3396064295417065
 40
0.4499572605739844
 40
0.5665850356666364
 40
0.694003856967286
 40
0.8381011559967196
 40
1.0
 40
1.0
 40
1.0
 40
1.0
 10
54.59218749999999
 20
30.25
 30
0.0
 10
54.64769692282206
 20
30.24701911339861
 30
0.0
 10
54.7543420601997
 20
30.24129221074045
 30
0.0
 10
54.90607840763999
 20
30.19665497934312
 30
0.0
 10
55.03863165984298
 20
30.11980515408012
 30
0.0
 10
55.15186271326875
 20
30.01264284948864
 30
0.0
 10
55.24225194214848
 20
29.87488275081814
 30
0.0
 10
55.30555971864452
 20
29.70649091733006
 30
0.0
 10
55.34434541235065
 20
29.50956743291616
 30
0.0
 10
55.3480434259201
 20
29.3684261428803
 30
0.0
 10
55.34999999999999
 20
29.29375
 30
0.0
  0
SPLINE
  5
C7
330
1F
100
AcDbEntity
  8
0
  6
Continuous
 62
     7
370
    25
100
AcDbSpline
210
0.0
220
0.0
230
1.0
 70
     8
 71
     3
 72
    15
 73
    11
 74
     0
 42
0.00000001
 43
0.00000001
 40
0.0
 40
0.0
 40
0.0
 40
0.0
 40
0.164250761655691
 40
0.3081929903446221
 40
0.4374628352082316
 40
0.55483066841298
 40
0.6667845749277365
 40
0.7741816858952554
 40
0.8837128834575032
 40
1.0
 40
1.0
 40
1.0
 40
1.0
 10
53.84999999999999
 20
29.3
 30
0.0
 10
53.85184333674915
 20
29.3747031407729
 30
0.0
 10
53.85530209370838
 20
29.51487286729873
 30
0.0
 10
53.89504383681853
 20
29.71047810675613
 30
0.0
 10
53.9572346000388
 20
29.87783956586194
 30
0.0
 10
54.04870857656615
 20
30.01428273449682
 30
0.0
 10
54.16037636496679
 20
30.12086301368241
 30
0.0
 10
54.29095701097208
 20
30.19550570831755
 30
0.0
 10
54.43627969019479
 20
30.24358010903268
 30
0.0
 10
54.53919193774188
 20
30.24781777621099
 30
0.0
 10
54.59218749999999
 20
30.25
 30
0.0
  0
SPLINE
  5
C9
330
1F
100
AcDbEntity
  8
0
  6
Continuous
 62
     7
370
    25
100
AcDbSpline
210
0.0
220
0.0
230
1.0
 70
     8
 71
     3
 72
    23
 73
    19
 74
     0
 42
0.00000001
 43
0.00000001
 40
0.0
 40
0.0
 40
0.0
 40
0.0
 40
0.0777864446363029
 40
0.1501215602570651
 40
0.2176059718810103
 40
0.2804195268388599
 40
0.33937519679692
 40
0.395368681405867
 40
0.4490441805813244
 40
0.5015086797186299
 40
0.5537851628117891
 40
0.6072218809477616
 40
0.6628353770077744
 40
0.721156298657779
 40
0.7835541439997163
 40
0.850474361889383
 40
0.9224992873105635
 40
0.9999999999999999
 40
0.9999999999999999
 40
0.9999999999999999
 40
0.9999999999999999
 10
57.17968749999999
 20
22.25
 30
0.0
 10
57.03793436564661
 20
22.25231268422759
 30
0.0
 10
56.76436225677913
 20
22.25677597813763
 30
0.0
 10
56.36921128550888
 20
22.29327411387674
 30
0.0
 10
56.00414441639177
 20
22.35081405443322
 30
0.0
 10
55.66938563226056
 20
22.43526752718471
 30
0.0
 10
55.36318630739769
 20
22.54311274426569
 30
0.0
 10
55.08864109735037
 20
22.68251380333679
 30
0.0
 10
54.83959647063837
 20
22.84282048863394
 30
0.0
 10
54.62223914763538
 20
23.03436487739205
 30
0.0
 10
54.43278483744642
 20
23.25252762220886
 30
0.0
 10
54.27006275887749
 20
23.49849865308605
 30
0.0
 10
54.13874269661637
 20
23.77450845956226
 30
0.0
 10
54.02926865841702
 20
24.07719170322884
 30
0.0
 10
53.95073627121874
 20
24.41048193105849
 30
0.0
 10
53.89068328333651
 20
24.77263329876041
 30
0.0
 10
53.85748150296374
 20
25.16605257409488
 30
0.0
 10
53.85255398463495
 20
25.43848362019522
 30
0.0
 10
53.84999999999999
 20
25.5796875
 30
0.0
  0
SPLINE
  5
CA
330
1F
100
AcDbEntity
  8
0
  6
Continuous
 62
     7
370
    25
100
AcDbSpline
210
0.0
220
0.0
230
1.0
 70
     8
 71
     3
 72
    15
 73
    11
 74
     0
 42
0.00000001
 43
0.00000001
 40
0.0
 40
0.0
 40
0.0
 40
0.0
 40
0.1147092221500856
 40
0.2291499412244099
 40
0.3441018964331152
 40
0.4620327426381473
 40
0.5842283471708962
 40
0.7139589625245167
 40
0.8527756451861968
 40
1.0
 40
1.0
 40
1.0
 40
1.0
 10
59.4421875
 20
22.971875
 30
0.0
 10
59.37109309332412
 20
22.91181276330493
 30
0.0
 10
59.22907069263306
 20
22.79182887926748
 30
0.0
 10
58.99240693324671
 20
22.64273717323847
 30
0.0
 10
58.74054802273873
 20
22.51607448780042
 30
0.0
 10
58.47002961361344
 20
22.41608452278274
 30
0.0
 10
58.17928790285882
 20
22.34124092058602
 30
0.0
 10
57.86661587191074
 20
22.28926171106396
 30
0.0
 10
57.53093687537518
 20
22.25571064169821
 30
0.0
 10
57.29904266565291
 20
22.25194048625751
 30
0.0
 10
57.17968749999999
 20
22.25
 30
0.0
  0
SPLINE
  5
CB
330
1F
100
AcDbEntity
  8
0
  6
Continuous
 62
     7
370
    25
100
AcDbSpline
210
0.0
220
0.0
230
1.0
 70
     8
 71
     3
 72
    19
 73
    15
 74
     0
 42
0.00000001
 43
0.00000001
 40
0.0
 40
0.0
 40
0.0
 40
0.0
 40
0.1129424994900818
 40
0.2167430936214008
 40
0.3119846783840787
 40
0.3983884125691889
 40
0.4779843006146352
 40
0.5524425049632141
 40
0.6237083688221652
 40
0.6926470589452322
 40
0.7624421631487585
 40
0.836023704400647
 40
0.9139779049333883
 40
1.0
 40
1.0
 40
1.0
 40
1.0
 10
64.58906250000001
 20
26.55
 30
0.0
 10
64.67607038263662
 20
26.55170170609503
 30
0.0
 10
64.84304346838599
 20
26.55496737707925
 30
0.0
 10
65.0829314488976
 20
26.57402008103052
 30
0.0
 10
65.3000403315182
 20
26.61034165611481
 30
0.0
 10
65.49605888989979
 20
26.65716527155042
 30
0.0
 10
65.67024309610987
 20
26.72226264925042
 30
0.0
 10
65.82201210233094
 20
26.80776046564058
 30
0.0
 10
65.95369649815856
 20
26.90912186240398
 30
0.0
 10
66.06187306345487
 20
27.03055287846095
 30
0.0
 10
66.14881017220095
 20
27.17039685475112
 30
0.0
 10
66.2063966211569
 20
27.3318761275848
 30
0.0
 10
66.24362802820585
 20
27.51185377320809
 30
0.0
 10
66.24780746443217
 20
27.63833522815555
 30
0.0
 10
66.25
 20
27.7046875
 30
0.0
  0
SPLINE
  5
CF
330
1F
100
AcDbEntity
  8
0
  6
Continuous
 62
     7
370
    25
100
AcDbSpline
210
0.0
220
0.0
230
1.0
 70
     8
 71
     3
 72
    11
 73
     7
 74
     0
 42
0.00000001
 43
0.00000001
 40
0.0
 40
0.0
 40
0.0
 40
0.0
 40
0.2695251994381105
 40
0.5194770874139005
 40
0.7606229217728117
 40
1.0
 40
1.0
 40
1.0
 40
1.0
 10
66.25
 20
27.7046875
 30
0.0
 10
66.24663576678225
 20
27.78423692538188
 30
0.0
 10
66.24015161584951
 20
27.9375587813307
 30
0.0
 10
66.18356845733881
 20
28.15580825900195
 30
0.0
 10
66.09276157896753
 20
28.35343504210188
 30
0.0
 10
66.00059911275724
 20
28.46169451141147
 30
0.0
 10
65.95468749999999
 20
28.515625
 30
0.0
  0
SPLINE
  5
D0
330
1F
100
AcDbEntity
  8
0
  6
Continuous
 62
     7
370
    25
100
AcDbSpline
210
0.0
220
0.0
230
1.0
 70
     8
 71
     3
 72
    15
 73
    11
 74
     0
 42
0.00000001
 43
0.00000001
 40
0.0
 40
0.0
 40
0.0
 40
0.0
 40
0.0849359925019057
 40
0.1785615795527578
 40
0.2829666623799994
 40
0.3989008621144725
 40
0.5275059302587749
 40
0.6700838107267015
 40
0.8281449861738296
 40
1.0
 40
1.0
 40
1.0
 40
1.0
 10
65.95468749999999
 20
28.515625
 30
0.0
 10
65.92422273115204
 20
28.54268938163538
 30
0.0
 10
65.86017641714591
 20
28.59958703588159
 30
0.0
 10
65.74218314303597
 20
28.66826381778696
 30
0.0
 10
65.60157833374905
 20
28.72213827454734
 30
0.0
 10
65.44184173232502
 20
28.77206992249452
 30
0.0
 10
65.25922800163855
 20
28.80584622970011
 30
0.0
 10
65.0553739247349
 20
28.832726412998
 30
0.0
 10
64.82939250583586
 20
28.84785513410657
 30
0.0
 10
64.67137474952857
 20
28.84926539037017
 30
0.0
 10
64.58906250000001
 20
28.85
 30
0.0
  0
SPLINE
  5
D1
330
1F
100
AcDbEntity
  8
0
  6
Continuous
 62
     7
370
    25
100
AcDbSpline
210
0.0
220
0.0
230
1.0
 70
     8
 71
     3
 72
    19
 73
    15
 74
     0
 42
0.00000001
 43
0.00000001
 40
0.0
 40
0.0
 40
0.0
 40
0.0
 40
0.1129424994900873
 40
0.2167430936214058
 40
0.3119846783840802
 40
0.3983884125691871
 40
0.4779843006146388
 40
0.552442504963212
 40
0.6237083688221675
 40
0.6926470589452322
 40
0.7624421631487597
 40
0.8360237044006479
 40
0.9139779049333889
 40
0.9999999999999999
 40
0.9999999999999999
 40
0.9999999999999999
 40
0.9999999999999999
 10
45.58906249999997
 20
26.55
 30
0.0
 10
45.67607038263658
 20
26.55170170609503
 30
0.0
 10
45.84304346838596
 20
26.55496737707925
 30
0.0
 10
46.08293144889757
 20
26.57402008103052
 30
0.0
 10
46.30004033151819
 20
26.6103416561148
 30
0.0
 10
46.49605888989974
 20
26.65716527155042
 30
0.0
 10
46.67024309610986
 20
26.72226264925041
 30
0.0
 10
46.82201210233092
 20
26.80776046564059
 30
0.0
 10
46.95369649815854
 20
26.90912186240397
 30
0.0
 10
47.06187306345486
 20
27.03055287846096
 30
0.0
 10
47.14881017220092
 20
27.17039685475111
 30
0.0
 10
47.20639662115691
 20
27.33187612758481
 30
0.0
 10
47.24362802820583
 20
27.51185377320808
 30
0.0
 10
47.24780746443214
 20
27.63833522815555
 30
0.0
 10
47.24999999999997
 20
27.7046875
 30
0.0
  0
SPLINE
  5
D3
330
1F
100
AcDbEntity
  8
0
  6
Continuous
 62
     7
370
    25
100
AcDbSpline
210
0.0
220
0.0
230
1.0
 70
     8
 71
     3
 72
    11
 73
     7
 74
     0
 42
0.00000001
 43
0.00000001
 40
0.0
 40
0.0
 40
0.0
 40
0.0
 40
0.2695251994381095
 40
0.5194770874139016
 40
0.7606229217728163
 40
1.0
 40
1.0
 40
1.0
 40
1.0
 10
47.24999999999997
 20
27.7046875
 30
0.0
 10
47.24663576678223
 20
27.78423692538188
 30
0.0
 10
47.24015161584949
 20
27.9375587813307
 30
0.0
 10
47.18356845733878
 20
28.15580825900195
 30
0.0
 10
47.0927615789675
 20
28.35343504210189
 30
0.0
 10
47.00059911275721
 20
28.46169451141147
 30
0.0
 10
46.95468749999998
 20
28.515625
 30
0.0
  0
SPLINE
  5
D6
330
1F
100
AcDbEntity
  8
0
  6
Continuous
 62
     7
370
    25
100
AcDbSpline
210
0.0
220
0.0
230
1.0
 70
     8
 71
     3
 72
    15
 73
    11
 74
     0
 42
0.00000001
 43
0.00000001
 40
0.0
 40
0.0
 40
0.0
 40
0.0
 40
0.0849359925019053
 40
0.1785615795527611
 40
0.2829666623799933
 40
0.3989008621144751
 40
0.5275059302587722
 40
0.6700838107266981
 40
0.8281449861738255
 40
1.0
 40
1.0
 40
1.0
 40
1.0
 10
46.95468749999998
 20
28.515625
 30
0.0
 10
46.92422273115203
 20
28.54268938163538
 30
0.0
 10
46.86017641714591
 20
28.59958703588159
 30
0.0
 10
46.74218314303591
 20
28.66826381778695
 30
0.0
 10
46.60157833374906
 20
28.72213827454737
 30
0.0
 10
46.44184173232497
 20
28.77206992249451
 30
0.0
 10
46.25922800163854
 20
28.80584622970011
 30
0.0
 10
46.05537392473489
 20
28.832726412998
 30
0.0
 10
45.82939250583583
 20
28.84785513410657
 30
0.0
 10
45.67137474952853
 20
28.84926539037016
 30
0.0
 10
45.58906249999997
 20
28.85
 30
0.0
  0
LINE
  5
D7
330
1F
100
AcDbEntity
  8
0
  6
Continuous
 62
     7
370
    25
100
AcDbLine
 10
63.0171875
 20
30.05
 30
0.0
 11
64.9765625
 21
30.05
 31
0.0
  0
LINE
  5
D8
330
1F
100
AcDbEntity
  8
0
  6
Continuous
 62
     7
370
    25
100
AcDbLine
 10
62.05
 20
23.1859375
 30
0.0
 11
62.05
 21
29.0984375
 31
0.0
  0
LINE
  5
D9
330
1F
100
AcDbEntity
  8
0
  6
Continuous
 62
     7
370
    25
100
AcDbLine
 10
63.55
 20
25.35
 30
0.0
 11
63.55
 21
23.1921875
 31
0.0
  0
LINE
  5
DA
330
1F
100
AcDbEntity
  8
0
  6
Continuous
 62
     7
370
    25
100
AcDbLine
 10
64.9625
 20
25.35
 30
0.0
 11
63.55
 21
25.35
 31
0.0
  0
LINE
  5
DB
330
1F
100
AcDbEntity
  8
0
  6
Continuous
 62
     7
370
    25
100
AcDbLine
 10
36.76875
 20
30.05
 30
0.0
 11
40.878125
 21
30.05
 31
0.0
  0
LINE
  5
DC
330
1F
100
AcDbEntity
  8
0
  6
Continuous
 62
     7
370
    25
100
AcDbLine
 10
35.85
 20
23.30625
 30
0.0
 11
35.85
 21
29.09375
 31
0.0
  0
LINE
  5
DD
330
1F
100
AcDbEntity
  8
0
  6
Continuous
 62
     7
370
    25
100
AcDbLine
 10
41.0
 20
22.35
 30
0.0
 11
36.76875
 21
22.35
 31
0.0
  0
LINE
  5
DE
330
1F
100
AcDbEntity
  8
0
  6
Continuous
 62
     7
370
    25
100
AcDbLine
 10
37.35
 20
23.55
 30
0.0
 11
41.0
 21
23.55
 31
0.0
  0
LINE
  5
DF
330
1F
100
AcDbEntity
  8
0
  6
Continuous
 62
     7
370
    25
100
AcDbLine
 10
37.35
 20
25.75
 30
0.0
 11
37.35
 21
23.55
 31
0.0
  0
LINE
  5
E0
330
1F
100
AcDbEntity
  8
0
  6
Continuous
 62
     7
370
    25
100
AcDbLine
 10
40.5984375
 20
25.75
 30
0.0
 11
37.35
 21
25.75
 31
0.0
  0
LINE
  5
E1
330
1F
100
AcDbEntity
  8
0
  6
Continuous
 62
     7
370
    25
100
AcDbLine
 10
37.35
 20
26.95
 30
0.0
 11
40.5984375
 21
26.95
 31
0.0
  0
LINE
  5
E2
330
1F
100
AcDbEntity
  8
0
  6
Continuous
 62
     7
370
    25
100
AcDbLine
 10
37.35
 20
28.85
 30
0.0
 11
37.35
 21
26.95
 31
0.0
  0
LINE
  5
E3
330
1F
100
AcDbEntity
  8
0
  6
Continuous
 62
     7
370
    25
100
AcDbLine
 10
40.878125
 20
28.85
 30
0.0
 11
37.35
 21
28.85
 31
0.0
  0
LINE
  5
E4
330
1F
100
AcDbEntity
  8
0
  6
Continuous
 62
     7
370
    25
100
AcDbLine
 10
29.040625
 20
30.05
 30
0.0
 11
33.9578125
 21
30.05
 31
0.0
  0
LINE
  5
E5
330
1F
100
AcDbEntity
  8
0
  6
Continuous
 62
     7
370
    25
100
AcDbLine
 10
30.75
 20
28.75
 30
0.0
 11
29.040625
 21
28.75
 31
0.0
  0
LINE
  5
E6
330
1F
100
AcDbEntity
  8
0
  6
Continuous
 62
     7
370
    25
100
AcDbLine
 10
30.75
 20
23.19375
 30
0.0
 11
30.75
 21
28.75
 31
0.0
  0
LINE
  5
E7
330
1F
100
AcDbEntity
  8
0
  6
Continuous
 62
     7
370
    25
100
AcDbLine
 10
32.25
 20
28.75
 30
0.0
 11
32.25
 21
23.19375
 31
0.0
  0
LINE
  5
E8
330
1F
100
AcDbEntity
  8
0
  6
Continuous
 62
     7
370
    25
100
AcDbLine
 10
33.9578125
 20
28.75
 30
0.0
 11
32.25
 21
28.75
 31
0.0
  0
LINE
  5
E9
330
1F
100
AcDbEntity
  8
0
  6
Continuous
 62
     7
370
    25
100
AcDbLine
 10
-75.35
 20
-37.35
 30
0.0
 11
75.35
 21
-37.35
 31
0.0
  0
LINE
  5
EA
330
1F
100
AcDbEntity
  8
0
  6
Continuous
 62
     7
370
    25
100
AcDbLine
 10
-75.35
 20
37.35
 30
0.0
 11
-75.35
 21
-37.35
 31
0.0
  0
LINE
  5
EB
330
1F
100
AcDbEntity
  8
0
  6
Continuous
 62
     7
370
    25
100
AcDbLine
 10
75.35
 20
37.35
 30
0.0
 11
-75.35
 21
37.35
 31
0.0
  0
LINE
  5
EC
330
1F
100
AcDbEntity
  8
0
  6
Continuous
 62
     7
370
    25
100
AcDbLine
 10
75.35
 20
-37.35
 30
0.0
 11
75.35
 21
37.35
 31
0.0
  0
LINE
  5
ED
330
1F
100
AcDbEntity
  8
0
  6
Continuous
 62
     7
370
    25
100
AcDbLine
 10
44.0171875
 20
30.05
 30
0.0
 11
45.9765625
 21
30.05
 31
0.0
  0
LINE
  5
EE
330
1F
100
AcDbEntity
  8
0
  6
Continuous
 62
     7
370
    25
100
AcDbLine
 10
43.05
 20
23.1859375
 30
0.0
 11
43.05
 21
29.0984375
 31
0.0
  0
LINE
  5
EF
330
1F
100
AcDbEntity
  8
0
  6
Continuous
 62
     7
370
    25
100
AcDbLine
 10
44.55
 20
25.35
 30
0.0
 11
44.55
 21
23.1921875
 31
0.0
  0
LINE
  5
F0
330
1F
100
AcDbEntity
  8
0
  6
Continuous
 62
     7
370
    25
100
AcDbLine
 10
45.9625
 20
25.35
 30
0.0
 11
44.55
 21
25.35
 31
0.0
  0
LINE
  5
F1
330
1F
100
AcDbEntity
  8
0
  6
Continuous
 62
     7
370
    25
100
AcDbLine
 10
50.321875
 20
25.75
 30
0.0
 11
51.978125
 21
25.75
 31
0.0
  0
LINE
  5
F2
330
1F
100
AcDbEntity
  8
0
  6
Continuous
 62
     7
370
    25
100
AcDbLine
 10
51.978125
 20
24.55
 30
0.0
 11
50.321875
 21
24.55
 31
0.0
  0
LINE
  5
F3
330
1F
100
AcDbEntity
  8
0
  6
Continuous
 62
     7
370
    25
100
AcDbLine
 10
60.25
 20
29.296875
 30
0.0
 11
60.25
 21
25.5625
 31
0.0
  0
LINE
  5
F4
330
1F
100
AcDbEntity
  8
0
  6
Continuous
 62
     7
370
    25
100
AcDbLine
 10
58.75
 20
25.43125
 30
0.0
 11
58.75
 21
29.29375
 31
0.0
  0
LINE
  5
F5
330
1F
100
AcDbEntity
  8
0
  6
Continuous
 62
     7
370
    25
100
AcDbLine
 10
55.35
 20
29.29375
 30
0.0
 11
55.35
 21
25.4640625
 31
0.0
  0
LINE
  5
F6
330
1F
100
AcDbEntity
  8
0
  6
Continuous
 62
     7
370
    25
100
AcDbLine
 10
53.85
 20
25.5796875
 30
0.0
 11
53.85
 21
29.3
 31
0.0
  0
LINE
  5
F7
330
1F
100
AcDbEntity
  8
0
  6
Continuous
 62
     7
370
    25
100
AcDbLine
 10
63.55
 20
26.55
 30
0.0
 11
64.5890625
 21
26.55
 31
0.0
  0
LINE
  5
F8
330
1F
100
AcDbEntity
  8
0
  6
Continuous
 62
     7
370
    25
100
AcDbLine
 10
63.55
 20
28.85
 30
0.0
 11
63.55
 21
26.55
 31
0.0
  0
LINE
  5
F9
330
1F
100
AcDbEntity
  8
0
  6
Continuous
 62
     7
370
    25
100
AcDbLine
 10
64.5890625
 20
28.85
 30
0.0
 11
63.55
 21
28.85
 31
0.0
  0
LINE
  5
FA
330
1F
100
AcDbEntity
  8
0
  6
Continuous
 62
     7
370
    25
100
AcDbLine
 10
44.55
 20
26.55
 30
0.0
 11
45.5890625
 21
26.55
 31
0.0
  0
LINE
  5
FB
330
1F
100
AcDbEntity
  8
0
  6
Continuous
 62
     7
370
    25
100
AcDbLine
 10
44.55
 20
28.85
 30
0.0
 11
44.55
 21
26.55
 31
0.0
  0
LINE
  5
FC
330
1F
100
AcDbEntity
  8
0
  6
Continuous
 62
     7
370
    25
100
AcDbLine
 10
45.5890625
 20
28.85
 30
0.0
 11
44.55
 21
28.85
 31
0.0
  0
ENDSEC
  0
SECTION
  2
OBJECTS
  0
DICTIONARY
  5
C
330
0
100
AcDbDictionary
281
     1
  3
ACAD_GROUP
350
D
  3
ACAD_LAYOUT
350
1A
  3
ACAD_MLINESTYLE
350
17
  3
ACAD_PLOTSETTINGS
350
19
  3
ACAD_PLOTSTYLENAME
350
E
  3
ACAD_SCALELIST
350
47
  3
DWGPROPS
350
FD
  0
DICTIONARY
  5
D
102
{ACAD_REACTORS
330
C
102
}
330
C
100
AcDbDictionary
281
     1
  0
DICTIONARY
  5
1A
102
{ACAD_REACTORS
330
C
102
}
330
C
100
AcDbDictionary
281
     1
  3
Layout1
350
1E
  3
Layout2
350
26
  3
Model
350
22
  0
DICTIONARY
  5
17
102
{ACAD_REACTORS
330
C
102
}
330
C
100
AcDbDictionary
281
     1
  3
Standard
350
18
  0
DICTIONARY
  5
19
102
{ACAD_REACTORS
330
C
102
}
330
C
100
AcDbDictionary
281
     1
  0
ACDBDICTIONARYWDFLT
  5
E
102
{ACAD_REACTORS
330
C
102
}
330
C
100
AcDbDictionary
281
     1
  3
Normal
350
F
100
AcDbDictionaryWithDefault
340
F
  0
DICTIONARY
  5
47
102
{ACAD_REACTORS
330
C
102
}
330
C
100
AcDbDictionary
281
     1
  3
A0
350
48
  3
A1
350
49
  3
A2
350
4A
  3
A3
350
4B
  3
A4
350
4C
  3
A5
350
4D
  3
A6
350
4E
  3
A7
350
4F
  3
A8
350
50
  3
A9
350
51
  3
B0
350
52
  3
B1
350
53
  3
B2
350
54
  3
B3
350
55
  3
B4
350
56
  3
B5
350
57
  3
B6
350
58
  3
B7
350
59
  3
B8
350
5A
  3
B9
350
5B
  3
C0
350
5C
  3
C1
350
5D
  3
C2
350
5E
  3
C3
350
5F
  3
C4
350
60
  3
C5
350
61
  3
C6
350
62
  3
C7
350
63
  3
C8
350
64
  3
C9
350
65
  3
D0
350
66
  3
D1
350
67
  3
D2
350
68
  0
XRECORD
  5
FD
102
{ACAD_REACTORS
330
C
102
}
330
C
100
AcDbXrecord
280
     1
  1
DWGPROPS COOKIE
  2

  3

  4

  6

  7

  8
rfranca
  9

300
=
301
=
302
=
303
=
304
=
305
=
306
=
307
=
308
=
309
=
 40
0.0
 41
2460882.124754549
 42
2460882.124771273
  1

 90
        0
  0
LAYOUT
  5
1E
102
{ACAD_REACTORS
330
1A
102
}
330
1A
100
AcDbPlotSettings
  1

  2
none_device
  4

  6

 40
0.0
 41
0.0
 42
0.0
 43
0.0
 44
0.0
 45
0.0
 46
0.0
 47
0.0
 48
0.0
 49
0.0
140
0.0
141
0.0
142
1.0
143
1.0
 70
   688
 72
     1
 73
     0
 74
     5
  7

 75
    16
147
1.0
148
0.0
149
0.0
100
AcDbLayout
  1
Layout1
 70
     1
 71
     1
 10
0.0
 20
0.0
 11
420.0
 21
297.0
 12
0.0
 22
0.0
 32
0.0
 14
1.0000000000E+20
 24
1.0000000000E+20
 34
1.0000000000E+20
 15
-1.0000000000E+20
 25
-1.0000000000E+20
 35
-1.0000000000E+20
146
0.0
 13
0.0
 23
0.0
 33
0.0
 16
1.0
 26
0.0
 36
0.0
 17
0.0
 27
1.0
 37
0.0
 76
     0
330
1B
  0
LAYOUT
  5
26
102
{ACAD_REACTORS
330
1A
102
}
330
1A
100
AcDbPlotSettings
  1

  2
none_device
  4

  6

 40
0.0
 41
0.0
 42
0.0
 43
0.0
 44
0.0
 45
0.0
 46
0.0
 47
0.0
 48
0.0
 49
0.0
140
0.0
141
0.0
142
1.0
143
1.0
 70
   688
 72
     1
 73
     0
 74
     5
  7

 75
    16
147
1.0
148
0.0
149
0.0
100
AcDbLayout
  1
Layout2
 70
     1
 71
     2
 10
0.0
 20
0.0
 11
0.0
 21
0.0
 12
0.0
 22
0.0
 32
0.0
 14
0.0
 24
0.0
 34
0.0
 15
0.0
 25
0.0
 35
0.0
146
0.0
 13
0.0
 23
0.0
 33
0.0
 16
1.0
 26
0.0
 36
0.0
 17
0.0
 27
1.0
 37
0.0
 76
     0
330
23
  0
LAYOUT
  5
22
102
{ACAD_REACTORS
330
1A
102
}
330
1A
100
AcDbPlotSettings
  1

  2
none_device
  4
ANSI_A_(11.00_x_8.50_Inches)
  6

 40
6.35
 41
19.05
 42
6.35000508
 43
19.05000254
 44
279.4
 45
215.9
 46
133.34999746
 47
88.89999873
 48
0.0
 49
0.0
140
0.0
141
0.0
142
0.0722627737
143
1.0
 70
  1696
 72
     0
 73
     0
 74
     0
  7

 75
     0
147
0.0179189148
148
-1300.4909072572
149
0.0
100
AcDbLayout
  1
Model
 70
     1
 71
     0
 10
0.0
 20
0.0
 11
420.0
 21
297.0
 12
0.0
 22
0.0
 32
0.0
 14
-75.35
 24
-37.35
 34
0.0
 15
75.35
 25
37.35
 35
0.0
146
0.0
 13
0.0
 23
0.0
 33
0.0
 16
1.0
 26
0.0
 36
0.0
 17
0.0
 27
1.0
 37
0.0
 76
     0
330
1F
331
29
  0
MLINESTYLE
  5
18
102
{ACAD_REACTORS
330
17
102
}
330
17
100
AcDbMlineStyle
  2
Standard
 70
     0
  3

 62
   256
 51
90.0
 52
90.0
 71
     2
 49
0.5
 62
   256
  6
BYLAYER
 49
-0.5
 62
   256
  6
BYLAYER
  0
ACDBPLACEHOLDER
  5
F
102
{ACAD_REACTORS
330
E
102
}
330
E
  0
SCALE
  5
48
102
{ACAD_REACTORS
330
47
102
}
330
47
100
AcDbScale
 70
     0
300
1:1
140
1.0
141
1.0
290
     1
  0
SCALE
  5
49
102
{ACAD_REACTORS
330
47
102
}
330
47
100
AcDbScale
 70
     0
300
1:2
140
1.0
141
2.0
290
     0
  0
SCALE
  5
4A
102
{ACAD_REACTORS
330
47
102
}
330
47
100
AcDbScale
 70
     0
300
1:4
140
1.0
141
4.0
290
     0
  0
SCALE
  5
4B
102
{ACAD_REACTORS
330
47
102
}
330
47
100
AcDbScale
 70
     0
300
1:5
140
1.0
141
5.0
290
     0
  0
SCALE
  5
4C
102
{ACAD_REACTORS
330
47
102
}
330
47
100
AcDbScale
 70
     0
300
1:8
140
1.0
141
8.0
290
     0
  0
SCALE
  5
4D
102
{ACAD_REACTORS
330
47
102
}
330
47
100
AcDbScale
 70
     0
300
1:10
140
1.0
141
10.0
290
     0
  0
SCALE
  5
4E
102
{ACAD_REACTORS
330
47
102
}
330
47
100
AcDbScale
 70
     0
300
1:16
140
1.0
141
16.0
290
     0
  0
SCALE
  5
4F
102
{ACAD_REACTORS
330
47
102
}
330
47
100
AcDbScale
 70
     0
300
1:20
140
1.0
141
20.0
290
     0
  0
SCALE
  5
50
102
{ACAD_REACTORS
330
47
102
}
330
47
100
AcDbScale
 70
     0
300
1:30
140
1.0
141
30.0
290
     0
  0
SCALE
  5
51
102
{ACAD_REACTORS
330
47
102
}
330
47
100
AcDbScale
 70
     0
300
1:40
140
1.0
141
40.0
290
     0
  0
SCALE
  5
52
102
{ACAD_REACTORS
330
47
102
}
330
47
100
AcDbScale
 70
     0
300
1:50
140
1.0
141
50.0
290
     0
  0
SCALE
  5
53
102
{ACAD_REACTORS
330
47
102
}
330
47
100
AcDbScale
 70
     0
300
1:100
140
1.0
141
100.0
290
     0
  0
SCALE
  5
54
102
{ACAD_REACTORS
330
47
102
}
330
47
100
AcDbScale
 70
     0
300
2:1
140
2.0
141
1.0
290
     0
  0
SCALE
  5
55
102
{ACAD_REACTORS
330
47
102
}
330
47
100
AcDbScale
 70
     0
300
4:1
140
4.0
141
1.0
290
     0
  0
SCALE
  5
56
102
{ACAD_REACTORS
330
47
102
}
330
47
100
AcDbScale
 70
     0
300
8:1
140
8.0
141
1.0
290
     0
  0
SCALE
  5
57
102
{ACAD_REACTORS
330
47
102
}
330
47
100
AcDbScale
 70
     0
300
10:1
140
10.0
141
1.0
290
     0
  0
SCALE
  5
58
102
{ACAD_REACTORS
330
47
102
}
330
47
100
AcDbScale
 70
     0
300
100:1
140
100.0
141
1.0
290
     0
  0
SCALE
  5
59
102
{ACAD_REACTORS
330
47
102
}
330
47
100
AcDbScale
 70
     0
300
1/128" = 1'-0"
140
0.0078125
141
12.0
290
     0
  0
SCALE
  5
5A
102
{ACAD_REACTORS
330
47
102
}
330
47
100
AcDbScale
 70
     0
300
1/64" = 1'-0"
140
0.015625
141
12.0
290
     0
  0
SCALE
  5
5B
102
{ACAD_REACTORS
330
47
102
}
330
47
100
AcDbScale
 70
     0
300
1/32" = 1'-0"
140
0.03125
141
12.0
290
     0
  0
SCALE
  5
5C
102
{ACAD_REACTORS
330
47
102
}
330
47
100
AcDbScale
 70
     0
300
1/16" = 1'-0"
140
0.0625
141
12.0
290
     0
  0
SCALE
  5
5D
102
{ACAD_REACTORS
330
47
102
}
330
47
100
AcDbScale
 70
     0
300
3/32" = 1'-0"
140
0.09375
141
12.0
290
     0
  0
SCALE
  5
5E
102
{ACAD_REACTORS
330
47
102
}
330
47
100
AcDbScale
 70
     0
300
1/8" = 1'-0"
140
0.125
141
12.0
290
     0
  0
SCALE
  5
5F
102
{ACAD_REACTORS
330
47
102
}
330
47
100
AcDbScale
 70
     0
300
3/16" = 1'-0"
140
0.1875
141
12.0
290
     0
  0
SCALE
  5
60
102
{ACAD_REACTORS
330
47
102
}
330
47
100
AcDbScale
 70
     0
300
1/4" = 1'-0"
140
0.25
141
12.0
290
     0
  0
SCALE
  5
61
102
{ACAD_REACTORS
330
47
102
}
330
47
100
AcDbScale
 70
     0
300
3/8" = 1'-0"
140
0.375
141
12.0
290
     0
  0
SCALE
  5
62
102
{ACAD_REACTORS
330
47
102
}
330
47
100
AcDbScale
 70
     0
300
1/2" = 1'-0"
140
0.5
141
12.0
290
     0
  0
SCALE
  5
63
102
{ACAD_REACTORS
330
47
102
}
330
47
100
AcDbScale
 70
     0
300
3/4" = 1'-0"
140
0.75
141
12.0
290
     0
  0
SCALE
  5
64
102
{ACAD_REACTORS
330
47
102
}
330
47
100
AcDbScale
 70
     0
300
1" = 1'-0"
140
1.0
141
12.0
290
     0
  0
SCALE
  5
65
102
{ACAD_REACTORS
330
47
102
}
330
47
100
AcDbScale
 70
     0
300
1-1/2" = 1'-0"
140
1.5
141
12.0
290
     0
  0
SCALE
  5
66
102
{ACAD_REACTORS
330
47
102
}
330
47
100
AcDbScale
 70
     0
300
3" = 1'-0"
140
3.0
141
12.0
290
     0
  0
SCALE
  5
67
102
{ACAD_REACTORS
330
47
102
}
330
47
100
AcDbScale
 70
     0
300
6" = 1'-0"
140
6.0
141
12.0
290
     0
  0
SCALE
  5
68
102
{ACAD_REACTORS
330
47
102
}
330
47
100
AcDbScale
 70
     0
300
1'-0" = 1'-0"
140
12.0
141
12.0
290
     0
  0
ENDSEC
  0
EOF
