  0
SECTION
  2
HEADER
  9
$ACADVER
  1
AC1015
  9
$ACADMAINTVER
 70
     6
  9
$DWGCODEPAGE
  3
ANSI_1252
  9
$INSBASE
 10
0.0
 20
0.0
 30
0.0
  9
$EXTMIN
 10
-75.35
 20
-37.35
 30
0.0
  9
$EXTMAX
 10
75.35
 20
37.35
 30
0.0
  9
$LIMMIN
 10
0.0
 20
0.0
  9
$LIMMAX
 10
420.0
 20
297.0
  9
$ORTHOMODE
 70
     0
  9
$REGENMODE
 70
     1
  9
$FILLMODE
 70
     1
  9
$QTEXTMODE
 70
     0
  9
$MIRRTEXT
 70
     1
  9
$LTSCALE
 40
1.0
  9
$ATTMODE
 70
     1
  9
$TEXTSIZE
 40
3.5
  9
$TRACEWID
 40
1.0
  9
$TEXTSTYLE
  7
Standard
  9
$CLAYER
  8
0
  9
$CELTYPE
  6
ByLayer
  9
$CECOLOR
 62
   256
  9
$CELTSCALE
 40
1.0
  9
$DISPSILH
 70
     0
  9
$DIMSCALE
 40
1.0
  9
$DIMASZ
 40
3.302
  9
$DIMEXO
 40
0.0
  9
$DIMDLI
 40
3.75
  9
$DIMRND
 40
0.0
  9
$DIMDLE
 40
0.0
  9
$DIMEXE
 40
1.0
  9
$DIMTP
 40
0.0
  9
$DIMTM
 40
0.0
  9
$DIMTXT
 40
3.5
  9
$DIMCEN
 40
2.5
  9
$DIMTSZ
 40
0.0
  9
$DIMTOL
 70
     0
  9
$DIMLIM
 70
     0
  9
$DIMTIH
 70
     1
  9
$DIMTOH
 70
     1
  9
$DIMSE1
 70
     0
  9
$DIMSE2
 70
     0
  9
$DIMTAD
 70
     1
  9
$DIMZIN
 70
     1
  9
$DIMBLK
  1

  9
$DIMASO
 70
     1
  9
$DIMSHO
 70
     1
  9
$DIMPOST
  1

  9
$DIMAPOST
  1

  9
$DIMALT
 70
     0
  9
$DIMALTD
 70
     3
  9
$DIMALTF
 40
0.0393700787
  9
$DIMLFAC
 40
1.0
  9
$DIMTOFL
 70
     1
  9
$DIMTVP
 40
0.0
  9
$DIMTIX
 70
     0
  9
$DIMSOXD
 70
     0
  9
$DIMSAH
 70
     0
  9
$DIMBLK1
  1

  9
$DIMBLK2
  1

  9
$DIMSTYLE
  2
ISO-25
  9
$DIMCLRD
 70
     0
  9
$DIMCLRE
 70
     0
  9
$DIMCLRT
 70
     0
  9
$DIMTFAC
 40
1.0
  9
$DIMGAP
 40
1.524
  9
$DIMJUST
 70
     0
  9
$DIMSD1
 70
     0
  9
$DIMSD2
 70
     0
  9
$DIMTOLJ
 70
     0
  9
$DIMTZIN
 70
     1
  9
$DIMALTZ
 70
     0
  9
$DIMALTTZ
 70
     0
  9
$DIMUPT
 70
     0
  9
$DIMDEC
 70
     2
  9
$DIMTDEC
 70
     2
  9
$DIMALTU
 70
     2
  9
$DIMALTTD
 70
     3
  9
$DIMTXSTY
  7
Standard
  9
$DIMAUNIT
 70
     0
  9
$DIMADEC
 70
     2
  9
$DIMALTRND
 40
0.0
  9
$DIMAZIN
 70
     0
  9
$DIMDSEP
 70
    44
  9
$DIMATFIT
 70
     3
  9
$DIMFRAC
 70
     0
  9
$DIMLDRBLK
  1

  9
$DIMLUNIT
 70
     2
  9
$DIMLWD
 70
    -2
  9
$DIMLWE
 70
    -2
  9
$DIMTMOVE
 70
     0
  9
$LUNITS
 70
     2
  9
$LUPREC
 70
     2
  9
$SKETCHINC
 40
1.0
  9
$FILLETRAD
 40
10.0
  9
$AUNITS
 70
     0
  9
$AUPREC
 70
     2
  9
$MENU
  1
.
  9
$ELEVATION
 40
0.0
  9
$PELEVATION
 40
0.0
  9
$THICKNESS
 40
0.0
  9
$LIMCHECK
 70
     0
  9
$CHAMFERA
 40
0.0
  9
$CHAMFERB
 40
0.0
  9
$CHAMFERC
 40
0.0
  9
$CHAMFERD
 40
0.0
  9
$SKPOLY
 70
     0
  9
$TDCREATE
 40
2460870.728459722
  9
$TDUCREATE
 40
2460870.853459722
  9
$TDUPDATE
 40
2460870.728487986
  9
$TDUUPDATE
 40
2460870.853487986
  9
$TDINDWG
 40
0.0000000116
  9
$TDUSRTIMER
 40
0.0000000116
  9
$USRTIMER
 70
     1
  9
$ANGBASE
 50
0.0
  9
$ANGDIR
 70
     0
  9
$PDMODE
 70
     0
  9
$PDSIZE
 40
-1.0
  9
$PLINEWID
 40
0.0
  9
$SPLFRAME
 70
     0
  9
$SPLINETYPE
 70
     6
  9
$SPLINESEGS
 70
     8
  9
$HANDSEED
  5
172
  9
$SURFTAB1
 70
     6
  9
$SURFTAB2
 70
     6
  9
$SURFTYPE
 70
     6
  9
$SURFU
 70
     6
  9
$SURFV
 70
     6
  9
$UCSBASE
  2

  9
$UCSNAME
  2

  9
$UCSORG
 10
0.0
 20
0.0
 30
0.0
  9
$UCSXDIR
 10
1.0
 20
0.0
 30
0.0
  9
$UCSYDIR
 10
0.0
 20
1.0
 30
0.0
  9
$UCSORTHOREF
  2

  9
$UCSORTHOVIEW
 70
     0
  9
$UCSORGTOP
 10
0.0
 20
0.0
 30
0.0
  9
$UCSORGBOTTOM
 10
0.0
 20
0.0
 30
0.0
  9
$UCSORGLEFT
 10
0.0
 20
0.0
 30
0.0
  9
$UCSORGRIGHT
 10
0.0
 20
0.0
 30
0.0
  9
$UCSORGFRONT
 10
0.0
 20
0.0
 30
0.0
  9
$UCSORGBACK
 10
0.0
 20
0.0
 30
0.0
  9
$PUCSBASE
  2

  9
$PUCSNAME
  2

  9
$PUCSORG
 10
0.0
 20
0.0
 30
0.0
  9
$PUCSXDIR
 10
1.0
 20
0.0
 30
0.0
  9
$PUCSYDIR
 10
0.0
 20
1.0
 30
0.0
  9
$PUCSORTHOREF
  2

  9
$PUCSORTHOVIEW
 70
     0
  9
$PUCSORGTOP
 10
0.0
 20
0.0
 30
0.0
  9
$PUCSORGBOTTOM
 10
0.0
 20
0.0
 30
0.0
  9
$PUCSORGLEFT
 10
0.0
 20
0.0
 30
0.0
  9
$PUCSORGRIGHT
 10
0.0
 20
0.0
 30
0.0
  9
$PUCSORGFRONT
 10
0.0
 20
0.0
 30
0.0
  9
$PUCSORGBACK
 10
0.0
 20
0.0
 30
0.0
  9
$USERI1
 70
     0
  9
$USERI2
 70
     0
  9
$USERI3
 70
     0
  9
$USERI4
 70
     0
  9
$USERI5
 70
     0
  9
$USERR1
 40
0.0
  9
$USERR2
 40
0.0
  9
$USERR3
 40
0.0
  9
$USERR4
 40
0.0
  9
$USERR5
 40
0.0
  9
$WORLDVIEW
 70
     1
  9
$SHADEDGE
 70
     3
  9
$SHADEDIF
 70
    70
  9
$TILEMODE
 70
     1
  9
$MAXACTVP
 70
    64
  9
$PINSBASE
 10
0.0
 20
0.0
 30
0.0
  9
$PLIMCHECK
 70
     0
  9
$PEXTMIN
 10
1.0000000000E+20
 20
1.0000000000E+20
 30
1.0000000000E+20
  9
$PEXTMAX
 10
-1.0000000000E+20
 20
-1.0000000000E+20
 30
-1.0000000000E+20
  9
$PLIMMIN
 10
0.0
 20
0.0
  9
$PLIMMAX
 10
420.0
 20
297.0
  9
$UNITMODE
 70
     0
  9
$VISRETAIN
 70
     1
  9
$PLINEGEN
 70
     0
  9
$PSLTSCALE
 70
     1
  9
$TREEDEPTH
 70
  3020
  9
$CMLSTYLE
  2
Standard
  9
$CMLJUST
 70
     0
  9
$CMLSCALE
 40
20.0
  9
$PROXYGRAPHICS
 70
     1
  9
$MEASUREMENT
 70
     1
  9
$CELWEIGHT
370
    -1
  9
$ENDCAPS
280
     0
  9
$JOINSTYLE
280
     0
  9
$LWDISPLAY
290
     1
  9
$INSUNITS
 70
     4
  9
$HYPERLINKBASE
  1

  9
$STYLESHEET
  1

  9
$XEDIT
290
     1
  9
$CEPSNTYPE
380
     0
  9
$PSTYLEMODE
290
     1
  9
$FINGERPRINTGUID
  2
{b55ba11c-d2f2-4106-9295-0c4ac3b020b7}
  9
$VERSIONGUID
  2
{FAEB1C32-E019-11D5-929B-00C0DF256EC4}
  9
$EXTNAMES
290
     1
  9
$PSVPSCALE
 40
0.0
  9
$OLESTARTUP
290
     0
  0
ENDSEC
  0
SECTION
  2
CLASSES
  0
CLASS
  1
ACDBDICTIONARYWDFLT
  2
AcDbDictionaryWithDefault
  3
ObjectDBX Classes
 90
        0
280
     0
281
     0
  0
CLASS
  1
VISUALSTYLE
  2
AcDbVisualStyle
  3
ObjectDBX Classes
 90
     4095
280
     0
281
     0
  0
CLASS
  1
MATERIAL
  2
AcDbMaterial
  3
ObjectDBX Classes
 90
     1153
280
     0
281
     0
  0
CLASS
  1
SCALE
  2
AcDbScale
  3
ObjectDBX Classes
 90
     1153
280
     0
281
     0
  0
CLASS
  1
TABLESTYLE
  2
AcDbTableStyle
  3
ObjectDBX Classes
 90
     4095
280
     0
281
     0
  0
CLASS
  1
MLEADERSTYLE
  2
AcDbMLeaderStyle
  3
ACDB_MLEADERSTYLE_CLASS
 90
     4095
280
     0
281
     0
  0
CLASS
  1
SUN
  2
AcDbSun
  3
SCENEOE
 90
     1153
280
     0
281
     0
  0
CLASS
  1
ACDBPLACEHOLDER
  2
AcDbPlaceHolder
  3
ObjectDBX Classes
 90
        0
280
     0
281
     0
  0
CLASS
  1
LAYOUT
  2
AcDbLayout
  3
ObjectDBX Classes
 90
        0
280
     0
281
     0
  0
ENDSEC
  0
SECTION
  2
TABLES
  0
TABLE
  2
VPORT
  5
8
330
0
100
AcDbSymbolTable
 70
     1
  0
VPORT
  5
29
330
8
100
AcDbSymbolTableRecord
100
AcDbViewportTableRecord
  2
*Active
 70
     0
 10
0.0
 20
0.0
 11
1.0
 21
1.0
 12
0.0
 22
0.0
 13
0.0
 23
0.0
 14
10.0
 24
10.0
 15
10.0
 25
10.0
 16
0.0
 26
0.0
 36
1.0
 17
0.0
 27
0.0
 37
0.0
 40
76.194
 41
2.0174029451
 42
50.0
 43
0.0
 44
0.0
 50
0.0
 51
0.0
 71
     0
 72
   100
 73
     1
 74
     3
 75
     0
 76
     0
 77
     0
 78
     0
281
     0
 65
     1
110
0.0
120
0.0
130
0.0
111
1.0
121
0.0
131
0.0
112
0.0
122
1.0
132
0.0
 79
     0
146
0.0
  0
ENDTAB
  0
TABLE
  2
LTYPE
  5
5
330
0
100
AcDbSymbolTable
 70
     6
  0
LTYPE
  5
14
330
5
100
AcDbSymbolTableRecord
100
AcDbLinetypeTableRecord
  2
ByBlock
 70
     0
  3

 72
    65
 73
     0
 40
0.0
  0
LTYPE
  5
15
330
5
100
AcDbSymbolTableRecord
100
AcDbLinetypeTableRecord
  2
ByLayer
 70
     0
  3

 72
    65
 73
     0
 40
0.0
  0
LTYPE
  5
16
330
5
100
AcDbSymbolTableRecord
100
AcDbLinetypeTableRecord
  2
Continuous
 70
     0
  3
Solid line
 72
    65
 73
     0
 40
0.0
  0
LTYPE
  5
6E
330
5
100
AcDbSymbolTableRecord
100
AcDbLinetypeTableRecord
  2
HIDDEN
 70
     0
  3
Hidden __ __ __ __ __ __ __ __ __ __ __ __ __ __
 72
    65
 73
     2
 40
1.905
 49
1.27
 74
     0
 49
-0.635
 74
     0
  0
LTYPE
  5
6F
330
5
100
AcDbSymbolTableRecord
100
AcDbLinetypeTableRecord
  2
PHANTOM
 70
     0
  3
Phantom ______  __  __  ______  __  __  ______
 72
    65
 73
     6
 40
12.7
 49
6.35
 74
     0
 49
-1.27
 74
     0
 49
1.27
 74
     0
 49
-1.27
 74
     0
 49
1.27
 74
     0
 49
-1.27
 74
     0
  0
LTYPE
  5
70
330
5
100
AcDbSymbolTableRecord
100
AcDbLinetypeTableRecord
  2
CENTER
 70
     0
  3
Center ____ _ ____ _ ____ _ ____ _ ____ _ ____
 72
    65
 73
     4
 40
10.16
 49
6.35
 74
     0
 49
-1.27
 74
     0
 49
1.27
 74
     0
 49
-1.27
 74
     0
  0
LTYPE
  5
71
330
5
100
AcDbSymbolTableRecord
100
AcDbLinetypeTableRecord
  2
CENTERX2
 70
     0
  3
Center (2x) ________  __  ________  __  _____
 72
    65
 73
     4
 40
20.32
 49
12.7
 74
     0
 49
-2.54
 74
     0
 49
2.54
 74
     0
 49
-2.54
 74
     0
  0
LTYPE
  5
72
330
5
100
AcDbSymbolTableRecord
100
AcDbLinetypeTableRecord
  2
DOT2
 70
     0
  3
Dot (.5x) ........................................
 72
    65
 73
     2
 40
0.635
 49
0.0
 74
     0
 49
-0.635
 74
     0
  0
ENDTAB
  0
TABLE
  2
LAYER
  5
2
330
0
100
AcDbSymbolTable
 70
     1
  0
LAYER
  5
10
330
2
100
AcDbSymbolTableRecord
100
AcDbLayerTableRecord
  2
0
 70
     0
 62
     7
  6
Continuous
370
    -3
390
F
  0
ENDTAB
  0
TABLE
  2
STYLE
  5
3
330
0
100
AcDbSymbolTable
 70
     1
  0
STYLE
  5
11
330
3
100
AcDbSymbolTableRecord
100
AcDbTextStyleTableRecord
  2
Standard
 70
     0
 40
0.0
 41
1.0
 50
0.0
 71
     0
 42
3.5
  3
txt
  4

  0
ENDTAB
  0
TABLE
  2
VIEW
  5
6
330
0
100
AcDbSymbolTable
 70
     0
  0
ENDTAB
  0
TABLE
  2
UCS
  5
7
330
0
100
AcDbSymbolTable
 70
     0
  0
ENDTAB
  0
TABLE
  2
APPID
  5
9
330
0
100
AcDbSymbolTable
 70
     1
  0
APPID
  5
12
330
9
100
AcDbSymbolTableRecord
100
AcDbRegAppTableRecord
  2
ACAD
 70
     0
  0
ENDTAB
  0
TABLE
  2
DIMSTYLE
  5
A
330
0
100
AcDbSymbolTable
 70
     1
100
AcDbDimStyleTable
  0
DIMSTYLE
105
27
330
A
100
AcDbSymbolTableRecord
100
AcDbDimStyleTableRecord
  2
ISO-25
 70
     0
 41
2.5
 42
0.625
 43
3.75
 44
1.25
 73
     0
 74
     0
 77
     1
 78
     8
140
2.5
141
2.5
143
0.0393700787
147
0.625
171
     3
172
     1
178
     0
271
     2
272
     2
274
     3
278
    44
283
     0
284
     8
340
11
  0
ENDTAB
  0
TABLE
  2
BLOCK_RECORD
  5
1
330
0
100
AcDbSymbolTable
 70
     1
  0
BLOCK_RECORD
  5
1F
330
1
100
AcDbSymbolTableRecord
100
AcDbBlockTableRecord
  2
*Model_Space
340
22
  0
BLOCK_RECORD
  5
1B
330
1
100
AcDbSymbolTableRecord
100
AcDbBlockTableRecord
  2
*Paper_Space
340
1E
  0
BLOCK_RECORD
  5
23
330
1
100
AcDbSymbolTableRecord
100
AcDbBlockTableRecord
  2
*Paper_Space0
340
26
  0
ENDTAB
  0
ENDSEC
  0
SECTION
  2
BLOCKS
  0
BLOCK
  5
20
330
1F
100
AcDbEntity
  8
0
100
AcDbBlockBegin
  2
*Model_Space
 70
     0
 10
0.0
 20
0.0
 30
0.0
  3
*Model_Space
  1

  0
ENDBLK
  5
21
330
1F
100
AcDbEntity
  8
0
100
AcDbBlockEnd
  0
BLOCK
  5
1C
330
1B
100
AcDbEntity
 67
     1
  8
0
100
AcDbBlockBegin
  2
*Paper_Space
 70
     0
 10
0.0
 20
0.0
 30
0.0
  3
*Paper_Space
  1

  0
ENDBLK
  5
1D
330
1B
100
AcDbEntity
 67
     1
  8
0
100
AcDbBlockEnd
  0
BLOCK
  5
24
330
23
100
AcDbEntity
  8
0
100
AcDbBlockBegin
  2
*Paper_Space0
 70
     0
 10
0.0
 20
0.0
 30
0.0
  3
*Paper_Space0
  1

  0
ENDBLK
  5
25
330
23
100
AcDbEntity
  8
0
100
AcDbBlockEnd
  0
ENDSEC
  0
SECTION
  2
ENTITIES
  0
SPLINE
  5
73
330
1F
100
AcDbEntity
  8
0
  6
Continuous
 62
     7
370
    25
100
AcDbSpline
210
0.0
220
0.0
230
1.0
 70
     8
 71
     3
 72
    17
 73
    13
 74
     0
 42
0.00000001
 43
0.00000001
 40
0.0
 40
0.0
 40
0.0
 40
0.0
 40
0.1094934508196526
 40
0.2019460233105727
 40
0.2770064857564039
 40
0.3333870499755137
 40
0.4312410747993527
 40
0.5358619171015461
 40
0.642544973078481
 40
0.7525220658115495
 40
0.8695678177686027
 40
1.0
 40
1.0
 40
1.0
 40
1.0
 10
63.67343749999998
 20
23.0421875
 30
0.0
 10
63.64727833379219
 20
23.00163888209093
 30
0.0
 10
63.59903125098279
 20
22.92685238046751
 30
0.0
 10
63.53449618878944
 20
22.82319959376844
 30
0.0
 10
63.47901429475476
 20
22.74159675323944
 30
0.0
 10
63.42548200966871
 20
22.65581347156264
 30
0.0
 10
63.35513131132434
 20
22.56582350722477
 30
0.0
 10
63.26640037367378
 20
22.46209872279607
 30
0.0
 10
63.15601870670864
 20
22.37188642624181
 30
0.0
 10
63.02572221665639
 20
22.30201488715337
 30
0.0
 10
62.87327271384061
 20
22.25613925268831
 30
0.0
 10
62.76389634526014
 20
22.25211890629706
 30
0.0
 10
62.70624999999999
 20
22.25
 30
0.0
  0
SPLINE
  5
76
330
1F
100
AcDbEntity
  8
0
  6
Continuous
 62
     7
370
    25
100
AcDbSpline
210
0.0
220
0.0
230
1.0
 70
     8
 71
     3
 72
    17
 73
    13
 74
     0
 42
0.00000001
 43
0.00000001
 40
0.0
 40
0.0
 40
0.0
 40
0.0
 40
0.0778086853369787
 40
0.1497354760516973
 40
0.2180142313289404
 40
0.2844233072901144
 40
0.4100730988203714
 40
0.5323601136493626
 40
0.6071330611086675
 40
0.7104249182927652
 40
0.8406337728462824
 40
0.9999999999999999
 40
0.9999999999999999
 40
0.9999999999999999
 40
0.9999999999999999
 10
67.440625
 20
22.25
 30
0.0
 10
67.40512347802743
 20
22.25119180352524
 30
0.0
 10
67.3368041474784
 20
22.25348531699922
 30
0.0
 10
67.23870411643867
 20
22.27124616592881
 30
0.0
 10
67.14818273310448
 20
22.29868446769253
 30
0.0
 10
67.04220157413293
 20
22.3530362703796
 30
0.0
 10
66.92613783724666
 20
22.43946024451193
 30
0.0
 10
66.83126776544563
 20
22.55315699022461
 30
0.0
 10
66.75489530994591
 20
22.66680502335036
 30
0.0
 10
66.67997426114312
 20
22.78576808142903
 30
0.0
 10
66.5795200520074
 20
22.9341016919344
 30
0.0
 10
66.50807140999639
 20
23.04514039429916
 30
0.0
 10
66.46875
 20
23.10625
 30
0.0
  0
SPLINE
  5
77
330
1F
100
AcDbEntity
  8
0
  6
Continuous
 62
     7
370
    25
100
AcDbSpline
210
0.0
220
0.0
230
1.0
 70
     8
 71
     3
 72
    19
 73
    15
 74
     0
 42
0.00000001
 43
0.00000001
 40
0.0
 40
0.0
 40
0.0
 40
0.0
 40
0.0834021153989242
 40
0.1635964571286604
 40
0.2438933820045549
 40
0.3240877237342934
 40
0.4036637895524954
 40
0.48385813128223
 40
0.5652370164247663
 40
0.64963256018154
 40
0.7349979208180862
 40
0.8207481371026374
 40
0.9080090150229833
 40
1.0
 40
1.0
 40
1.0
 40
1.0
 10
68.14999999999999
 20
22.91875
 30
0.0
 10
68.14857157047308
 20
22.88848562962042
 30
0.0
 10
68.14576965101647
 20
22.82912090310663
 30
0.0
 10
68.13032262400527
 20
22.7415829049175
 30
0.0
 10
68.1018399341426
 20
22.65860652658514
 30
0.0
 10
68.06250811337804
 20
22.58064677569822
 30
0.0
 10
68.01443374942372
 20
22.50751341608473
 30
0.0
 10
67.95360273612093
 20
22.44419917514726
 30
0.0
 10
67.88675724752345
 20
22.38457760819261
 30
0.0
 10
67.80819930674875
 20
22.33747741969647
 30
0.0
 10
67.72407093352109
 20
22.29810269241276
 30
0.0
 10
67.63438725404366
 20
22.26943769342745
 30
0.0
 10
67.53905788901305
 20
22.25418980070143
 30
0.0
 10
67.47400814165849
 20
22.25142095504602
 30
0.0
 10
67.440625
 20
22.25
 30
0.0
  0
SPLINE
  5
78
330
1F
100
AcDbEntity
  8
0
  6
Continuous
 62
     7
370
    25
100
AcDbSpline
210
0.0
220
0.0
230
1.0
 70
     8
 71
     3
 72
    15
 73
    11
 74
     0
 42
0.00000001
 43
0.00000001
 40
0.0
 40
0.0
 40
0.0
 40
0.0
 40
0.1778340074530057
 40
0.33673859303475
 40
0.4756421909764592
 40
0.5980571384543301
 40
0.7070561129207641
 40
0.8094046537179885
 40
0.9075970578731901
 40
1.0
 40
1.0
 40
1.0
 40
1.0
 10
67.72968749999998
 20
23.884375
 30
0.0
 10
67.764436344075
 20
23.83148741082381
 30
0.0
 10
67.83023521478029
 20
23.73134181649537
 30
0.0
 10
67.91749581798241
 20
23.5862793232523
 30
0.0
 10
67.9903633741534
 20
23.45568086924483
 30
0.0
 10
68.04938591196286
 20
23.33780127792895
 30
0.0
 10
68.09472620987802
 20
23.22785617914512
 30
0.0
 10
68.12642586686759
 20
23.12222600417815
 30
0.0
 10
68.14604238518092
 20
23.01948187213327
 30
0.0
 10
68.14870778280978
 20
22.95164038037435
 30
0.0
 10
68.15
 20
22.91875
 30
0.0
  0
SPLINE
  5
7B
330
1F
100
AcDbEntity
  8
0
  6
Continuous
 62
     7
370
    25
100
AcDbSpline
210
0.0
220
0.0
230
1.0
 70
     8
 71
     3
 72
    15
 73
    11
 74
     0
 42
0.00000001
 43
0.00000001
 40
0.0
 40
0.0
 40
0.0
 40
0.0
 40
0.0874224483091689
 40
0.1851385586302025
 40
0.2913428531327851
 40
0.4088408836916481
 40
0.5385312384744801
 40
0.6807136955858067
 40
0.8330977828752252
 40
1.0
 40
1.0
 40
1.0
 40
1.0
 10
68.01874999999998
 20
29.653125
 30
0.0
 10
68.01740109762821
 20
29.6223166468763
 30
0.0
 10
68.01454446474186
 20
29.55707237379303
 30
0.0
 10
67.99449923301711
 20
29.456077470759
 30
0.0
 10
67.96323286237174
 20
29.34709412369878
 30
0.0
 10
67.91601971416524
 20
29.23174796030003
 30
0.0
 10
67.8607852730156
 20
29.10612272318857
 30
0.0
 10
67.78949359598046
 20
28.97462094891126
 30
0.0
 10
67.70802962521859
 20
28.83388453786021
 30
0.0
 10
67.6463201960192
 20
28.73980414231594
 30
0.0
 10
67.6140625
 20
28.690625
 30
0.0
  0
SPLINE
  5
7C
330
1F
100
AcDbEntity
  8
0
  6
Continuous
 62
     7
370
    25
100
AcDbSpline
210
0.0
220
0.0
230
1.0
 70
     8
 71
     3
 72
    15
 73
    11
 74
     0
 42
0.00000001
 43
0.00000001
 40
0.0
 40
0.0
 40
0.0
 40
0.0
 40
0.1415125314605062
 40
0.272688353437724
 40
0.3988798944880582
 40
0.5261959176445181
 40
0.6505236646738591
 40
0.7664114929178315
 40
0.8819169922406395
 40
1.0
 40
1.0
 40
1.0
 40
1.0
 10
67.35156249999999
 20
30.25
 30
0.0
 10
67.39863377613928
 20
30.24805396182261
 30
0.0
 10
67.48933803145971
 20
30.24430403281744
 30
0.0
 10
67.61881913059969
 20
30.21112149724063
 30
0.0
 10
67.73398483848247
 20
30.1534764086522
 30
0.0
 10
67.83267533897414
 20
30.07493349067794
 30
0.0
 10
67.91608827678061
 20
29.98462578182949
 30
0.0
 10
67.97503318014893
 20
29.88138503015385
 30
0.0
 10
68.01354535294762
 20
29.77040343089039
 30
0.0
 10
68.01700240216412
 20
29.69250433349841
 30
0.0
 10
68.01875
 20
29.653125
 30
0.0
  0
SPLINE
  5
7D
330
1F
100
AcDbEntity
  8
0
  6
Continuous
 62
     7
370
    25
100
AcDbSpline
210
0.0
220
0.0
230
1.0
 70
     8
 71
     3
 72
    15
 73
    11
 74
     0
 42
0.00000001
 43
0.00000001
 40
0.0
 40
0.0
 40
0.0
 40
0.0
 40
0.1870779935645432
 40
0.3431046265800614
 40
0.4772429344642718
 40
0.5915792528047195
 40
0.6944026954017942
 40
0.7908542769654112
 40
0.8908384868927236
 40
1.0
 40
1.0
 40
1.0
 40
1.0
 10
66.3734375
 20
29.3375
 30
0.0
 10
66.42111000254255
 20
29.41128613523239
 30
0.0
 10
66.50854228611233
 20
29.54661132176727
 30
0.0
 10
66.62627330074078
 20
29.73725946753261
 30
0.0
 10
66.73155392938435
 20
29.89551795466946
 30
0.0
 10
66.83441019498319
 20
30.02470009603593
 30
0.0
 10
66.94104803188658
 20
30.12767080083495
 30
0.0
 10
67.06345173201544
 20
30.1990639453547
 30
0.0
 10
67.20171291074848
 20
30.24311729744349
 30
0.0
 10
67.30017250302893
 20
30.24763961939903
 30
0.0
 10
67.35156249999999
 20
30.25
 30
0.0
  0
SPLINE
  5
80
330
1F
100
AcDbEntity
  8
0
  6
Continuous
 62
     7
370
    25
100
AcDbSpline
210
0.0
220
0.0
230
1.0
 70
     8
 71
     3
 72
    15
 73
    11
 74
     0
 42
0.00000001
 43
0.00000001
 40
0.0
 40
0.0
 40
0.0
 40
0.0
 40
0.1070791872895469
 40
0.2050790870931065
 40
0.2971385106947327
 40
0.3883307119600329
 40
0.4957030022859769
 40
0.632937088381095
 40
0.8008726498407032
 40
1.0
 40
1.0
 40
1.0
 40
1.0
 10
62.97499999999999
 20
30.25
 30
0.0
 10
63.02625900365352
 20
30.24768149712379
 30
0.0
 10
63.12443073936293
 20
30.24324107816551
 30
0.0
 10
63.26320631598279
 20
30.20734064082894
 30
0.0
 10
63.38388527643765
 20
30.14519411451805
 30
0.0
 10
63.48968705069743
 20
30.05346806977516
 30
0.0
 10
63.59151543672186
 20
29.92884396504923
 30
0.0
 10
63.70602403813135
 20
29.76817578594051
 30
0.0
 10
63.84087511003446
 20
29.5681343742471
 30
0.0
 10
63.93289356239128
 20
29.41861339049746
 30
0.0
 10
63.98281249999999
 20
29.3375
 30
0.0
  0
SPLINE
  5
81
330
1F
100
AcDbEntity
  8
0
  6
Continuous
 62
     7
370
    25
100
AcDbSpline
210
0.0
220
0.0
230
1.0
 70
     8
 71
     3
 72
    15
 73
    11
 74
     0
 42
0.00000001
 43
0.00000001
 40
0.0
 40
0.0
 40
0.0
 40
0.0
 40
0.1104641737187595
 40
0.222146467078712
 40
0.3386281542856736
 40
0.4657409391380996
 40
0.5986884803583479
 40
0.7281276537413531
 40
0.8611987831062576
 40
1.0
 40
1.0
 40
1.0
 40
1.0
 10
62.29687499999999
 20
29.6734375
 30
0.0
 10
62.29925585872888
 20
29.70971718384397
 30
0.0
 10
62.3040438305883
 20
29.78267661785186
 30
0.0
 10
62.34436984885519
 20
29.8875635707108
 30
0.0
 10
62.40667386447007
 20
29.98654599523147
 30
0.0
 10
62.49300817549388
 20
30.07567384100437
 30
0.0
 10
62.5953507286372
 20
30.152711720044
 30
0.0
 10
62.7119682888105
 20
30.21093504470807
 30
0.0
 10
62.84038976094018
 20
30.24392401243894
 30
0.0
 10
62.92950385253813
 20
30.24794641159554
 30
0.0
 10
62.97499999999999
 20
30.25
 30
0.0
  0
SPLINE
  5
82
330
1F
100
AcDbEntity
  8
0
  6
Continuous
 62
     7
370
    25
100
AcDbSpline
210
0.0
220
0.0
230
1.0
 70
     8
 71
     3
 72
    15
 73
    11
 74
     0
 42
0.00000001
 43
0.00000001
 40
0.0
 40
0.0
 40
0.0
 40
0.0
 40
0.1664588017895631
 40
0.3193955461216337
 40
0.4563273884476972
 40
0.5793962768208499
 40
0.6923371354783352
 40
0.7994998869874732
 40
0.9010850612182485
 40
1.0
 40
1.0
 40
1.0
 40
1.0
 10
62.70624999999999
 20
28.659375
 30
0.0
 10
62.67429171844054
 20
28.71186343696568
 30
0.0
 10
62.61297124345179
 20
28.81257648313383
 30
0.0
 10
62.52831931702767
 20
28.95829365095062
 30
0.0
 10
62.45792003531986
 20
29.0935229919084
 30
0.0
 10
62.39792513923522
 20
29.21759187465083
 30
0.0
 10
62.35417152808769
 20
29.33664360312503
 30
0.0
 10
62.320110417533
 20
29.45054249807943
 30
0.0
 10
62.30070567755138
 20
29.56287374532295
 30
0.0
 10
62.29814050496782
 20
29.63691159069844
 30
0.0
 10
62.29687499999999
 20
29.6734375
 30
0.0
  0
SPLINE
  5
85
330
1F
100
AcDbEntity
  8
0
  6
Continuous
 62
     7
370
    25
100
AcDbSpline
210
0.0
220
0.0
230
1.0
 70
     8
 71
     3
 72
    15
 73
    11
 74
     0
 42
0.00000001
 43
0.00000001
 40
0.0
 40
0.0
 40
0.0
 40
0.0
 40
0.0961022356682436
 40
0.1993367802791026
 40
0.309486710889426
 40
0.4289489204690485
 40
0.5570745224610624
 40
0.693815619264433
 40
0.8416078971888415
 40
1.0
 40
1.0
 40
1.0
 40
1.0
 10
62.04999999999999
 20
22.9296875
 30
0.0
 10
62.05142732747075
 20
22.96307840373946
 30
0.0
 10
62.05438791273133
 20
23.03233834546458
 30
0.0
 10
62.07213039803503
 20
23.13871641538515
 30
0.0
 10
62.10256512882732
 20
23.25044527701607
 30
0.0
 10
62.14483083206827
 20
23.36752113509759
 30
0.0
 10
62.2002744721007
 20
23.48914287902353
 30
0.0
 10
62.26625273289631
 20
23.61654062290693
 30
0.0
 10
62.34474843620195
 20
23.74904380494968
 30
0.0
 10
62.40278805248475
 20
23.83823535815606
 30
0.0
 10
62.43281249999999
 20
23.884375
 30
0.0
  0
SPLINE
  5
86
330
1F
100
AcDbEntity
  8
0
  6
Continuous
 62
     7
370
    25
100
AcDbSpline
210
0.0
220
0.0
230
1.0
 70
     8
 71
     3
 72
    15
 73
    11
 74
     0
 42
0.00000001
 43
0.00000001
 40
0.0
 40
0.0
 40
0.0
 40
0.0
 40
0.1277659592254508
 40
0.2474256596812258
 40
0.3626609296914848
 40
0.4806525347834067
 40
0.599106338492705
 40
0.7215277801919008
 40
0.8532574374651548
 40
1.0
 40
1.0
 40
1.0
 40
1.0
 10
62.70624999999999
 20
22.25
 30
0.0
 10
62.66070549732942
 20
22.2518960710912
 30
0.0
 10
62.57250611553452
 20
22.2555679148545
 30
0.0
 10
62.44705488651911
 20
22.28980450013215
 30
0.0
 10
62.3328036254313
 20
22.34354132524604
 30
0.0
 10
62.23278771713814
 20
22.42027815379798
 30
0.0
 10
62.14912436824832
 20
22.51845337913792
 30
0.0
 10
62.0919261766805
 20
22.63922173773879
 30
0.0
 10
62.05431526301157
 20
22.77796452136781
 30
0.0
 10
62.05148920681646
 20
22.87732756425828
 30
0.0
 10
62.04999999999999
 20
22.9296875
 30
0.0
  0
SPLINE
  5
88
330
1F
100
AcDbEntity
  8
0
  6
Continuous
 62
     7
370
    25
100
AcDbSpline
210
0.0
220
0.0
230
1.0
 70
     8
 71
     3
 72
    15
 73
    11
 74
     0
 42
0.00000001
 43
0.00000001
 40
0.0
 40
0.0
 40
0.0
 40
0.0
 40
0.1242408282818782
 40
0.2395741674140945
 40
0.349211252973877
 40
0.4615312624092403
 40
0.578701830288586
 40
0.7048654012499926
 40
0.8436535457254414
 40
1.0
 40
1.0
 40
1.0
 40
1.0
 10
55.14999999999998
 20
29.396875
 30
0.0
 10
55.15200333063841
 20
29.44511342118691
 30
0.0
 10
55.15586636243238
 20
29.53813179327155
 30
0.0
 10
55.19667311016839
 20
29.66848672622432
 30
0.0
 10
55.2601814168986
 20
29.78376401209289
 30
0.0
 10
55.35150261910556
 20
29.87988387777712
 30
0.0
 10
55.46622072440918
 20
29.9579855496566
 30
0.0
 10
55.60508767893118
 20
30.0117729477712
 30
0.0
 10
55.76564407846448
 20
30.04480554836346
 30
0.0
 10
55.88002966279924
 20
30.04820117790141
 30
0.0
 10
55.94062499999998
 20
30.05
 30
0.0
  0
SPLINE
  5
89
330
1F
100
AcDbEntity
  8
0
  6
Continuous
 62
     7
370
    25
100
AcDbSpline
210
0.0
220
0.0
230
1.0
 70
     8
 71
     3
 72
    15
 73
    11
 74
     0
 42
0.00000001
 43
0.00000001
 40
0.0
 40
0.0
 40
0.0
 40
0.0
 40
0.16227190742404
 40
0.3044553260389207
 40
0.4310506534175564
 40
0.5482806941707623
 40
0.6601655235069599
 40
0.7683402437021964
 40
0.8807126617632771
 40
1.0
 40
1.0
 40
1.0
 40
1.0
 10
55.94062499999998
 20
28.75
 30
0.0
 10
55.87790561750485
 20
28.75155627947052
 30
0.0
 10
55.76023121316933
 20
28.75447617842979
 30
0.0
 10
55.59690681834933
 20
28.78985228448026
 30
0.0
 10
55.45674042281901
 20
28.84298862555414
 30
0.0
 10
55.34332571053945
 20
28.92292139640287
 30
0.0
 10
55.25653953844332
 20
29.02122120346697
 30
0.0
 10
55.19315204958586
 20
29.1338692662905
 30
0.0
 10
55.15707963386992
 20
29.26137560905895
 30
0.0
 10
55.15240637604124
 20
29.35081859454808
 30
0.0
 10
55.14999999999998
 20
29.396875
 30
0.0
  0
SPLINE
  5
8C
330
1F
100
AcDbEntity
  8
0
  6
Continuous
 62
     7
370
    25
100
AcDbSpline
210
0.0
220
0.0
230
1.0
 70
     8
 71
     3
 72
    15
 73
    11
 74
     0
 42
0.00000001
 43
0.00000001
 40
0.0
 40
0.0
 40
0.0
 40
0.0
 40
0.1170739408899531
 40
0.2273634513310601
 40
0.3358604885361415
 40
0.447534009066605
 40
0.565835342484211
 40
0.6936494833443099
 40
0.8373880369278182
 40
1.0
 40
1.0
 40
1.0
 40
1.0
 10
58.40468749999998
 20
22.25
 30
0.0
 10
58.35114268330455
 20
22.25212462299169
 30
0.0
 10
58.24715597001705
 20
22.25625074715303
 30
0.0
 10
58.10056397928726
 20
22.30518176461262
 30
0.0
 10
57.9669144345358
 20
22.37669795150381
 30
0.0
 10
57.85329525368406
 20
22.48311717948477
 30
0.0
 10
57.7586259929176
 20
22.61765802268073
 30
0.0
 10
57.69691244765588
 20
22.78555492630731
 30
0.0
 10
57.65482743513373
 20
22.97968454033134
 30
0.0
 10
57.65167390513662
 20
23.11952315643062
 30
0.0
 10
57.64999999999998
 20
23.19375
 30
0.0
  0
SPLINE
  5
8D
330
1F
100
AcDbEntity
  8
0
  6
Continuous
 62
     7
370
    25
100
AcDbSpline
210
0.0
220
0.0
230
1.0
 70
     8
 71
     3
 72
    15
 73
    11
 74
     0
 42
0.00000001
 43
0.00000001
 40
0.0
 40
0.0
 40
0.0
 40
0.0
 40
0.1655964407989139
 40
0.3097132875407083
 40
0.439561993036571
 40
0.556768895924424
 40
0.6672951569545891
 40
0.7742509049746189
 40
0.8835718141545696
 40
1.0
 40
1.0
 40
1.0
 40
1.0
 10
59.14999999999998
 20
23.19375
 30
0.0
 10
59.14814868280953
 20
23.11853568141976
 30
0.0
 10
59.14468618367266
 20
22.97786312973184
 30
0.0
 10
59.10528816320599
 20
22.78140494232226
 30
0.0
 10
59.04147777248783
 20
22.61449213244648
 30
0.0
 10
58.94854970716379
 20
22.47973794625162
 30
0.0
 10
58.83590426674601
 20
22.37596867390468
 30
0.0
 10
58.70582586098448
 20
22.30272153751176
 30
0.0
 10
58.56031622008577
 20
22.25684000632001
 30
0.0
 10
58.45764124812412
 20
22.25232735944649
 30
0.0
 10
58.40468749999998
 20
22.25
 30
0.0
  0
SPLINE
  5
90
330
1F
100
AcDbEntity
  8
0
  6
Continuous
 62
     7
370
    25
100
AcDbSpline
210
0.0
220
0.0
230
1.0
 70
     8
 71
     3
 72
    15
 73
    11
 74
     0
 42
0.00000001
 43
0.00000001
 40
0.0
 40
0.0
 40
0.0
 40
0.0
 40
0.1184645462930532
 40
0.230439715942463
 40
0.3385271411479046
 40
0.4505344091696636
 40
0.5680545142844728
 40
0.6950214110918133
 40
0.8388473732983402
 40
1.0
 40
1.0
 40
1.0
 40
1.0
 10
61.65937499999999
 20
29.396875
 30
0.0
 10
61.65710988928127
 20
29.35078420698468
 30
0.0
 10
61.65270374848279
 20
29.26112743133015
 30
0.0
 10
61.61452031812767
 20
29.13371070223128
 30
0.0
 10
61.54963314097726
 20
29.02112434849586
 30
0.0
 10
61.46124806173636
 20
28.92285560065152
 30
0.0
 10
61.34629099443626
 20
28.84299417626251
 30
0.0
 10
61.20414779052123
 20
28.7896159267101
 30
0.0
 10
61.03918252507343
 20
28.75475788460882
 30
0.0
 10
60.92051642320173
 20
28.75164491365645
 30
0.0
 10
60.85781249999998
 20
28.75
 30
0.0
  0
SPLINE
  5
91
330
1F
100
AcDbEntity
  8
0
  6
Continuous
 62
     7
370
    25
100
AcDbSpline
210
0.0
220
0.0
230
1.0
 70
     8
 71
     3
 72
    15
 73
    11
 74
     0
 42
0.00000001
 43
0.00000001
 40
0.0
 40
0.0
 40
0.0
 40
0.0
 40
0.1630620563492698
 40
0.3062143059784063
 40
0.4330856666239282
 40
0.5497351712894406
 40
0.6612177725259609
 40
0.7693107538467227
 40
0.8807614070667562
 40
1.0
 40
1.0
 40
1.0
 40
1.0
 10
60.85781249999998
 20
30.05
 30
0.0
 10
60.92155919106455
 20
30.04838674460175
 30
0.0
 10
61.04126912972094
 20
30.04535721159326
 30
0.0
 10
61.2075097919651
 20
30.01065928997914
 30
0.0
 10
61.34951902095724
 20
29.95589916383096
 30
0.0
 10
61.46231806138437
 20
29.87332355297328
 30
0.0
 10
61.55211365450977
 20
29.77610946987831
 30
0.0
 10
61.6137271108561
 20
29.66136563642968
 30
0.0
 10
61.65305823064465
 20
29.53379908378529
 30
0.0
 10
61.6572225485352
 20
29.44353214831908
 30
0.0
 10
61.65937499999999
 20
29.396875
 30
0.0
  0
SPLINE
  5
94
330
1F
100
AcDbEntity
  8
0
  6
Continuous
 62
     7
370
    25
100
AcDbSpline
210
0.0
220
0.0
230
1.0
 70
     8
 71
     3
 72
    15
 73
    11
 74
     0
 42
0.00000001
 43
0.00000001
 40
0.0
 40
0.0
 40
0.0
 40
0.0
 40
0.0946237582758533
 40
0.1892150462876856
 40
0.2879068394188224
 40
0.3905054964891379
 40
0.507012321341824
 40
0.6474174738050872
 40
0.8118595209149453
 40
1.0
 40
1.0
 40
1.0
 40
1.0
 10
52.02812499999999
 20
29.6109375
 30
0.0
 10
52.02694772644082
 20
29.57647200763672
 30
0.0
 10
52.02459358330541
 20
29.50755284978807
 30
0.0
 10
52.00447346299413
 20
29.40433820526112
 30
0.0
 10
51.97334560595198
 20
29.30108813190625
 30
0.0
 10
51.92755427896556
 20
29.19461405895375
 30
0.0
 10
51.86502693118661
 20
29.07959851815904
 30
0.0
 10
51.78828711947438
 20
28.94683843273436
 30
0.0
 10
51.69486162440875
 20
28.79360853561955
 30
0.0
 10
51.62383682507046
 20
28.68672258427131
 30
0.0
 10
51.58593749999999
 20
28.6296875
 30
0.0
  0
SPLINE
  5
95
330
1F
100
AcDbEntity
  8
0
  6
Continuous
 62
     7
370
    25
100
AcDbSpline
210
0.0
220
0.0
230
1.0
 70
     8
 71
     3
 72
    15
 73
    11
 74
     0
 42
0.00000001
 43
0.00000001
 40
0.0
 40
0.0
 40
0.0
 40
0.0
 40
0.1368246188285169
 40
0.2643832690832216
 40
0.3909975177943089
 40
0.5198858511388362
 40
0.6472597038314102
 40
0.76597318554347
 40
0.8810693967134019
 40
1.0
 40
1.0
 40
1.0
 40
1.0
 10
51.33749999999998
 20
30.25
 30
0.0
 10
51.38514783918504
 20
30.24769063654491
 30
0.0
 10
51.47721673436161
 20
30.2432283031945
 30
0.0
 10
51.60920324067805
 20
30.20586205404186
 30
0.0
 10
51.72828121080443
 20
30.14406660116378
 30
0.0
 10
51.83159280920007
 20
30.05906087146793
 30
0.0
 10
51.91938759835326
 20
29.96149495051319
 30
0.0
 10
51.98079148809195
 20
29.85112842715338
 30
0.0
 10
52.02155632842605
 20
29.73406268025861
 30
0.0
 10
52.0259116563109
 20
29.65242508811065
 30
0.0
 10
52.02812499999999
 20
29.6109375
 30
0.0
  0
SPLINE
  5
96
330
1F
100
AcDbEntity
  8
0
  6
Continuous
 62
     7
370
    25
100
AcDbSpline
210
0.0
220
0.0
230
1.0
 70
     8
 71
     3
 72
    15
 73
    11
 74
     0
 42
0.00000001
 43
0.00000001
 40
0.0
 40
0.0
 40
0.0
 40
0.0
 40
0.1667866440601558
 40
0.3030088375255536
 40
0.4247671950779841
 40
0.544904437087336
 40
0.6600362070641965
 40
0.7662212149659798
 40
0.876191329267454
 40
1.0
 40
1.0
 40
1.0
 40
1.0
 10
50.35624999999998
 20
29.3296875
 30
0.0
 10
50.39691200921847
 20
29.39737363225019
 30
0.0
 10
50.47078451989925
 20
29.52034208913897
 30
0.0
 10
50.57382759237606
 20
29.69303125149045
 30
0.0
 10
50.66969995110993
 20
29.84426325093458
 30
0.0
 10
50.77050102423814
 20
29.98029285514401
 30
0.0
 10
50.88408048124482
 20
30.09640455757939
 30
0.0
 10
51.01401657296621
 20
30.1861901998751
 30
0.0
 10
51.1675141306228
 20
30.24263280586468
 30
0.0
 10
51.27864523820251
 20
30.24744923235361
 30
0.0
 10
51.33749999999999
 20
30.25
 30
0.0
  0
SPLINE
  5
99
330
1F
100
AcDbEntity
  8
0
  6
Continuous
 62
     7
370
    25
100
AcDbSpline
210
0.0
220
0.0
230
1.0
 70
     8
 71
     3
 72
    19
 73
    15
 74
     0
 42
0.00000001
 43
0.00000001
 40
0.0
 40
0.0
 40
0.0
 40
0.0
 40
0.1054584624476721
 40
0.2005943548335205
 40
0.2892852028278733
 40
0.3754497431244016
 40
0.4228660376682606
 40
0.479848650359357
 40
0.5449341963644032
 40
0.6188051046620952
 40
0.7002426855670973
 40
0.7914161824671468
 40
0.8908279466701208
 40
1.0
 40
1.0
 40
1.0
 40
1.0
 10
46.53124999999999
 20
30.25
 30
0.0
 10
46.58148327726725
 20
30.24829118077831
 30
0.0
 10
46.677032857744
 20
30.24504080635269
 30
0.0
 10
46.81117722108232
 20
30.21003282877692
 30
0.0
 10
46.92723986381711
 20
30.15232477945812
 30
0.0
 10
47.00635628937685
 20
30.08055750860093
 30
0.0
 10
47.06403394902448
 20
30.01072587710861
 30
0.0
 10
47.11374963302562
 20
29.94728908247436
 30
0.0
 10
47.1680191917272
 20
29.87157898729491
 30
0.0
 10
47.22934478695532
 20
29.7866103223055
 30
0.0
 10
47.29318145882404
 20
29.68832188483597
 30
0.0
 10
47.36338560402277
 20
29.57973020206235
 30
0.0
 10
47.43853482498511
 20
29.4586482334371
 30
0.0
 10
47.49016463490566
 20
29.37399481060934
 30
0.0
 10
47.51718749999999
 20
29.3296875
 30
0.0
  0
SPLINE
  5
9A
330
1F
100
AcDbEntity
  8
0
  6
Continuous
 62
     7
370
    25
100
AcDbSpline
210
0.0
220
0.0
230
1.0
 70
     8
 71
     3
 72
    15
 73
    11
 74
     0
 42
0.00000001
 43
0.00000001
 40
0.0
 40
0.0
 40
0.0
 40
0.0
 40
0.119790668082194
 40
0.236093446742719
 40
0.3558410355024575
 40
0.4809905441162017
 40
0.6100132011043295
 40
0.7365811352392931
 40
0.8644711117992644
 40
1.0
 40
1.0
 40
1.0
 40
1.0
 10
45.80781249999999
 20
29.590625
 30
0.0
 10
45.80996706033834
 20
29.63417889846921
 30
0.0
 10
45.81421344767921
 20
29.72001855671054
 30
0.0
 10
45.85595358996556
 20
29.84369296861861
 30
0.0
 10
45.9224357393638
 20
29.95743813529439
 30
0.0
 10
46.01398387203768
 20
30.05850855887655
 30
0.0
 10
46.12320105535807
 20
30.1442818460252
 30
0.0
 10
46.24885009409014
 20
30.20588558638367
 30
0.0
 10
46.38643758435259
 20
30.24307001083803
 30
0.0
 10
46.48205492233715
 20
30.2476457726121
 30
0.0
 10
46.53124999999999
 20
30.25
 30
0.0
  0
SPLINE
  5
9B
330
1F
100
AcDbEntity
  8
0
  6
Continuous
 62
     7
370
    25
100
AcDbSpline
210
0.0
220
0.0
230
1.0
 70
     8
 71
     3
 72
    15
 73
    11
 74
     0
 42
0.00000001
 43
0.00000001
 40
0.0
 40
0.0
 40
0.0
 40
0.0
 40
0.197338010628085
 40
0.3686544699593033
 40
0.515764648572122
 40
0.6382848828399984
 40
0.7434398426149647
 40
0.8376442800951766
 40
0.9225241375543797
 40
1.0
 40
1.0
 40
1.0
 40
1.0
 10
46.26093749999999
 20
28.5875
 30
0.0
 10
46.22283337216459
 20
28.64994644338916
 30
0.0
 10
46.15164963515561
 20
28.76660496454887
 30
0.0
 10
46.05328037264792
 20
28.93060011317346
 30
0.0
 10
45.97557403706082
 20
29.07446867149842
 30
0.0
 10
45.91248916115272
 20
29.19824865509379
 30
0.0
 10
45.86500418327341
 20
29.30799061830384
 30
0.0
 10
45.8345321485603
 20
29.40887562099443
 30
0.0
 10
45.8113893415523
 20
29.50156633793748
 30
0.0
 10
45.80896797285883
 20
29.56185524172244
 30
0.0
 10
45.8078125
 20
29.590625
 30
0.0
  0
SPLINE
  5
9E
330
1F
100
AcDbEntity
  8
0
  6
Continuous
 62
     7
370
    25
100
AcDbSpline
210
0.0
220
0.0
230
1.0
 70
     8
 71
     3
 72
    15
 73
    11
 74
     0
 42
0.00000001
 43
0.00000001
 40
0.0
 40
0.0
 40
0.0
 40
0.0
 40
0.1154981534025432
 40
0.2253720254538188
 40
0.3314734071974261
 40
0.4427260735408101
 40
0.559935816927342
 40
0.6893902928145884
 40
0.8345890582071495
 40
1.0
 40
1.0
 40
1.0
 40
1.0
 10
48.89687499999999
 20
22.25
 30
0.0
 10
48.84388776502768
 20
22.2522242532584
 30
0.0
 10
48.74049355380351
 20
22.25656444786067
 30
0.0
 10
48.59485878100056
 20
22.30433148804303
 30
0.0
 10
48.46344852563779
 20
22.3778297829608
 30
0.0
 10
48.34997475845914
 20
22.48254285697037
 30
0.0
 10
48.25668986906437
 20
22.61898700223101
 30
0.0
 10
48.19496935195285
 20
22.78855347609941
 30
0.0
 10
48.15532302720739
 20
22.9867080608566
 30
0.0
 10
48.15184968224688
 20
23.12894249944681
 30
0.0
 10
48.14999999999998
 20
23.2046875
 30
0.0
  0
SPLINE
  5
9F
330
1F
100
AcDbEntity
  8
0
  6
Continuous
 62
     7
370
    25
100
AcDbSpline
210
0.0
220
0.0
230
1.0
 70
     8
 71
     3
 72
    15
 73
    11
 74
     0
 42
0.00000001
 43
0.00000001
 40
0.0
 40
0.0
 40
0.0
 40
0.0
 40
0.16424319488732
 40
0.3085278987643886
 40
0.4373154870708317
 40
0.5567343914873514
 40
0.668808561026887
 40
0.7760333220313195
 40
0.8855498400850845
 40
1.0
 40
1.0
 40
1.0
 40
1.0
 10
49.64999999999998
 20
23.2046875
 30
0.0
 10
49.64830449253785
 20
23.12944143251855
 30
0.0
 10
49.64511951214951
 20
22.98809304297789
 30
0.0
 10
49.60352531238701
 20
22.79143439140547
 30
0.0
 10
49.53954491330615
 20
22.62251180175631
 30
0.0
 10
49.44432735239249
 20
22.48575802137047
 30
0.0
 10
49.32794250393644
 20
22.38209558734582
 30
0.0
 10
49.19866339469632
 20
22.30306972571578
 30
0.0
 10
49.05165853808235
 20
22.25940115878555
 30
0.0
 10
48.94922168817457
 20
22.25317940482253
 30
0.0
 10
48.89687499999999
 20
22.25
 30
0.0
  0
SPLINE
  5
A0
330
1F
100
AcDbEntity
  8
0
  6
Continuous
 62
     7
370
    25
100
AcDbSpline
210
0.0
220
0.0
230
1.0
 70
     8
 71
     3
 72
    17
 73
    13
 74
     0
 42
0.00000001
 43
0.00000001
 40
0.0
 40
0.0
 40
0.0
 40
0.0
 40
0.08119392390526
 40
0.1567358732686792
 40
0.2288822190511364
 40
0.2987519458206586
 40
0.4379962622445688
 40
0.5808282274439674
 40
0.6615771143098198
 40
0.758722562001603
 40
0.8711386221593624
 40
0.9999999999999999
 40
0.9999999999999999
 40
0.9999999999999999
 40
0.9999999999999999
 10
44.23281249999999
 20
22.25
 30
0.0
 10
44.19048512568207
 20
22.25131571804153
 30
0.0
 10
44.10877681971782
 20
22.25385556593034
 30
0.0
 10
43.99174120726897
 20
22.27859851402288
 30
0.0
 10
43.88398743336449
 20
22.31497958241208
 30
0.0
 10
43.75630979689242
 20
22.38802563456725
 30
0.0
 10
43.61554364890161
 20
22.50757026152062
 30
0.0
 10
43.49627186070774
 20
22.65501649121906
 30
0.0
 10
43.4042813088202
 20
22.79437538426604
 30
0.0
 10
43.32411025697501
 20
22.922491172343
 30
0.0
 10
43.22913211170046
 20
23.07088373275018
 30
0.0
 10
43.16430848308577
 20
23.17847512384421
 30
0.0
 10
43.1296875
 20
23.2359375
 30
0.0
  0
SPLINE
  5
A1
330
1F
100
AcDbEntity
  8
0
  6
Continuous
 62
     7
370
    25
100
AcDbSpline
210
0.0
220
0.0
230
1.0
 70
     8
 71
     3
 72
    17
 73
    13
 74
     0
 42
0.00000001
 43
0.00000001
 40
0.0
 40
0.0
 40
0.0
 40
0.0
 40
0.1406975552960037
 40
0.295220797189847
 40
0.3767564478477679
 40
0.4575194754195094
 40
0.5410805361872384
 40
0.6266190621567872
 40
0.7146975176568096
 40
0.804851450765432
 40
0.9001553276350006
 40
1.0
 40
1.0
 40
1.0
 40
1.0
 10
44.98749999999999
 20
22.8703125
 30
0.0
 10
44.98216706025994
 20
22.81952692245279
 30
0.0
 10
44.97097713788983
 20
22.71296530766359
 30
0.0
 10
44.90612194072616
 20
22.59021467298781
 30
0.0
 10
44.83750382808029
 20
22.4991373730697
 30
0.0
 10
44.77585792337754
 20
22.43497042786014
 30
0.0
 10
44.70339177222515
 20
22.3810849693687
 30
0.0
 10
44.62357043897409
 20
22.33372529786895
 30
0.0
 10
44.5359367673024
 20
22.29606994752081
 30
0.0
 10
44.4407299629191
 20
22.27003710589138
 30
0.0
 10
44.3392473054446
 20
22.25165842315655
 30
0.0
 10
44.26883688123908
 20
22.25056131702217
 30
0.0
 10
44.2328125
 20
22.25
 30
0.0
  0
SPLINE
  5
A2
330
1F
100
AcDbEntity
  8
0
  6
Continuous
 62
     7
370
    25
100
AcDbSpline
210
0.0
220
0.0
230
1.0
 70
     8
 71
     3
 72
    23
 73
    19
 74
     0
 42
0.00000001
 43
0.00000001
 40
0.0
 40
0.0
 40
0.0
 40
0.0
 40
0.0646961556516937
 40
0.1319187972708155
 40
0.202970263927856
 40
0.2777605315391683
 40
0.3545394828198532
 40
0.4310151404333173
 40
0.5074009580938761
 40
0.5835154630944474
 40
0.6571324168009883
 40
0.7258868232559358
 40
0.7898770024325938
 40
0.8490169267591765
 40
0.9011454867119976
 40
0.9433440781211606
 40
0.9763194820009077
 40
0.9999999999999999
 40
0.9999999999999999
 40
0.9999999999999999
 40
0.9999999999999999
 10
42.87031249999999
 20
25.83125
 30
0.0
 10
42.94056362680175
 20
25.79216373973122
 30
0.0
 10
43.08380929667592
 20
25.71246483965699
 30
0.0
 10
43.28539402384957
 20
25.56030976204234
 30
0.0
 10
43.48459172254589
 20
25.38596745105578
 30
0.0
 10
43.6736146733173
 20
25.1839374680207
 30
0.0
 10
43.85727211418791
 20
24.96853652966283
 30
0.0
 10
44.03465423475653
 20
24.7452850235915
 30
0.0
 10
44.2000855957587
 20
24.51401554583486
 30
0.0
 10
44.35255308444334
 20
24.2782961909062
 30
0.0
 10
44.49359477435284
 20
24.04662145667305
 30
0.0
 10
44.61910482173791
 20
23.82324704737239
 30
0.0
 10
44.72670385002321
 20
23.61067994384955
 30
0.0
 10
44.81813609683903
 20
23.4132664652074
 30
0.0
 10
44.89096694791328
 20
23.23707307273361
 30
0.0
 10
44.94285486652773
 20
23.0879465219267
 30
0.0
 10
44.97771528039039
 20
22.96972592091529
 30
0.0
 10
44.98461578918379
 20
22.8996162792926
 30
0.0
 10
44.98749999999999
 20
22.8703125
 30
0.0
  0
SPLINE
  5
A3
330
1F
100
AcDbEntity
  8
0
  6
Continuous
 62
     7
370
    25
100
AcDbSpline
210
0.0
220
0.0
230
1.0
 70
     8
 71
     3
 72
    23
 73
    19
 74
     0
 42
0.00000001
 43
0.00000001
 40
0.0
 40
0.0
 40
0.0
 40
0.0
 40
0.0659464370745006
 40
0.1288385829145275
 40
0.1890227607128572
 40
0.2475278068376066
 40
0.3041611961796185
 40
0.3600530396745007
 40
0.4148898749451986
 40
0.4706864358789767
 40
0.527396645226772
 40
0.5855409168148595
 40
0.6466503230744046
 40
0.7102366278532162
 40
0.7769488072639859
 40
0.8475792490671673
 40
0.9216299770853323
 40
1.0
 40
1.0
 40
1.0
 40
1.0
 10
44.84999999999999
 20
27.9328125
 30
0.0
 10
44.84860895779082
 20
27.86294736501258
 30
0.0
 10
44.84589129911275
 20
27.72645287969654
 30
0.0
 10
44.82152415384658
 20
27.5274321636461
 30
0.0
 10
44.78441451826666
 20
27.33861401641965
 30
0.0
 10
44.73237549644021
 20
27.15993506255589
 30
0.0
 10
44.66035284817684
 20
26.99338256928614
 30
0.0
 10
44.57679239217833
 20
26.83679979991408
 30
0.0
 10
44.47695632156525
 20
26.69095917148199
 30
0.0
 10
44.36104260136075
 20
26.55640939510683
 30
0.0
 10
44.22865104235704
 20
26.43295887845498
 30
0.0
 10
44.08184054778746
 20
26.31786391131324
 30
0.0
 10
43.91960645033057
 20
26.21163257470367
 30
0.0
 10
43.74023597447822
 20
26.1167425438592
 30
0.0
 10
43.54561197422696
 20
26.03021444186443
 30
0.0
 10
43.3345254308449
 20
25.95531404564581
 30
0.0
 10
43.10894676137176
 20
25.88460591306273
 30
0.0
 10
42.95134594956192
 20
25.8493681598365
 30
0.0
 10
42.87031249999999
 20
25.83125
 30
0.0
  0
SPLINE
  5
A4
330
1F
100
AcDbEntity
  8
0
  6
Continuous
 62
     7
370
    25
100
AcDbSpline
210
0.0
220
0.0
230
1.0
 70
     8
 71
     3
 72
    19
 73
    15
 74
     0
 42
0.00000001
 43
0.00000001
 40
0.0
 40
0.0
 40
0.0
 40
0.0
 40
0.08259178216996
 40
0.1642255450426337
 40
0.2465938318446978
 40
0.3290869349125286
 40
0.4120645108506698
 40
0.4941904263161435
 40
0.5766211448756318
 40
0.6598540648118928
 40
0.744123517347343
 40
0.8282911644061386
 40
0.9134839720891925
 40
1.0
 40
1.0
 40
1.0
 40
1.0
 10
43.62812499999999
 20
29.81875
 30
0.0
 10
43.68811000744308
 20
29.79182384101399
 30
0.0
 10
43.80738422919865
 20
29.73828385169299
 30
0.0
 10
43.97561674030695
 20
29.63653888419686
 30
0.0
 10
44.13360202961437
 20
29.51986957592842
 30
0.0
 10
44.27876555680569
 20
29.38605594605886
 30
0.0
 10
44.41223207751876
 20
29.24067827245449
 30
0.0
 10
44.5259813055734
 20
29.07944021613619
 30
0.0
 10
44.62531587257322
 20
28.90888429130025
 30
0.0
 10
44.70650212930329
 20
28.72695724845003
 30
0.0
 10
44.76975150880944
 20
28.53677271692801
 30
0.0
 10
44.81791480176194
 20
28.34054538850432
 30
0.0
 10
44.84413030333877
 20
28.13821513697964
 30
0.0
 10
44.8480334084283
 20
28.00163089352221
 30
0.0
 10
44.84999999999999
 20
27.9328125
 30
0.0
  0
SPLINE
  5
A5
330
1F
100
AcDbEntity
  8
0
  6
Continuous
 62
     7
370
    25
100
AcDbSpline
210
0.0
220
0.0
230
1.0
 70
     8
 71
     3
 72
    15
 73
    11
 74
     0
 42
0.00000001
 43
0.00000001
 40
0.0
 40
0.0
 40
0.0
 40
0.0
 40
0.1578912487995379
 40
0.3039390400740292
 40
0.4393445538738178
 40
0.5621574319433246
 40
0.6777367697966613
 40
0.7880389662242735
 40
0.8954335524849489
 40
1.0
 40
1.0
 40
1.0
 40
1.0
 10
42.08437499999999
 20
30.05
 30
0.0
 10
42.16718903954443
 20
30.04924128851496
 30
0.0
 10
42.32660521919444
 20
30.04778077666134
 30
0.0
 10
42.55701691965628
 20
30.04112271277829
 30
0.0
 10
42.76850813479798
 20
30.0248666139406
 30
0.0
 10
42.96355469280888
 20
30.00497796030463
 30
0.0
 10
43.14472184098698
 20
29.97833400945276
 30
0.0
 10
43.31456115055256
 20
29.9363520712071
 30
0.0
 10
43.47637860051134
 20
29.88646906167551
 30
0.0
 10
43.57799481271572
 20
29.84112133306589
 30
0.0
 10
43.628125
 20
29.81875
 30
0.0
  0
SPLINE
  5
A7
330
1F
100
AcDbEntity
  8
0
  6
Continuous
 62
     7
370
    25
100
AcDbSpline
210
0.0
220
0.0
230
1.0
 70
     8
 71
     3
 72
    15
 73
    11
 74
     0
 42
0.00000001
 43
0.00000001
 40
0.0
 40
0.0
 40
0.0
 40
0.0
 40
0.1505673933743028
 40
0.2825196804827795
 40
0.3973543704744774
 40
0.5018539184075435
 40
0.6061585588727318
 40
0.7204604116073314
 40
0.8504394402177273
 40
1.0
 40
1.0
 40
1.0
 40
1.0
 10
38.64999999999999
 20
29.0984375
 30
0.0
 10
38.65228991049698
 20
29.1762677093666
 30
0.0
 10
38.65658662286904
 20
29.32230574183421
 30
0.0
 10
38.69824709732421
 20
29.52434532456209
 30
0.0
 10
38.76598885716439
 20
29.69400392074031
 30
0.0
 10
38.86617733022108
 20
29.83048472183302
 30
0.0
 10
39.00102889986353
 20
29.93234781813235
 30
0.0
 10
39.16853288928648
 20
30.00190879988667
 30
0.0
 10
39.36883204782466
 20
30.04345773744259
 30
0.0
 10
39.51332025372062
 20
30.04771972940468
 30
0.0
 10
39.59062499999999
 20
30.05
 30
0.0
  0
SPLINE
  5
A9
330
1F
100
AcDbEntity
  8
0
  6
Continuous
 62
     7
370
    25
100
AcDbSpline
210
0.0
220
0.0
230
1.0
 70
     8
 71
     3
 72
    15
 73
    11
 74
     0
 42
0.00000001
 43
0.00000001
 40
0.0
 40
0.0
 40
0.0
 40
0.0
 40
0.1234793912899198
 40
0.237649179926515
 40
0.3458206538054334
 40
0.45613364008184
 40
0.5723511778139698
 40
0.6988020282031671
 40
0.8403558882779851
 40
1.0
 40
1.0
 40
1.0
 40
1.0
 10
39.40312499999999
 20
22.25
 30
0.0
 10
39.34655923328803
 20
22.25287058539809
 30
0.0
 10
39.23769241810064
 20
22.25839533133859
 30
0.0
 10
39.08437843519798
 20
22.30423700505626
 30
0.0
 10
38.95197143295329
 20
22.38184203834239
 30
0.0
 10
38.84016165207434
 20
22.48864212849994
 30
0.0
 10
38.75339742634702
 20
22.62668438556192
 30
0.0
 10
38.69364062624052
 20
22.7929431630109
 30
0.0
 10
38.65587598421082
 20
22.98582150604001
 30
0.0
 10
38.65203554821354
 20
23.12376221630673
 30
0.0
 10
38.65
 20
23.196875
 30
0.0
  0
SPLINE
  5
AA
330
1F
100
AcDbEntity
  8
0
  6
Continuous
 62
     7
370
    25
100
AcDbSpline
210
0.0
220
0.0
230
1.0
 70
     8
 71
     3
 72
    15
 73
    11
 74
     0
 42
0.00000001
 43
0.00000001
 40
0.0
 40
0.0
 40
0.0
 40
0.0
 40
0.1664877746693297
 40
0.3115077802889152
 40
0.4400940730803458
 40
0.5571216504119699
 40
0.6667079260682468
 40
0.7735000327110796
 40
0.8837499482804019
 40
1.0
 40
1.0
 40
1.0
 40
1.0
 10
40.14999999999999
 20
23.19375
 30
0.0
 10
40.14809659161403
 20
23.11803671429963
 30
0.0
 10
40.14453520987012
 20
22.97637299386283
 30
0.0
 10
40.10592184999315
 20
22.77908794212905
 30
0.0
 10
40.0409398282975
 20
22.61269798480656
 30
0.0
 10
39.94911469113838
 20
22.47808984064302
 30
0.0
 10
39.83532069861336
 20
22.37611196842057
 30
0.0
 10
39.70549589220904
 20
22.30227927531602
 30
0.0
 10
39.5591772869521
 20
22.25707940296188
 30
0.0
 10
39.45605303916284
 20
22.25240111134887
 30
0.0
 10
39.40312499999999
 20
22.25
 30
0.0
  0
SPLINE
  5
AD
330
1F
100
AcDbEntity
  8
0
  6
Continuous
 62
     7
370
    25
100
AcDbSpline
210
0.0
220
0.0
230
1.0
 70
     8
 71
     3
 72
    19
 73
    15
 74
     0
 42
0.00000001
 43
0.00000001
 40
0.0
 40
0.0
 40
0.0
 40
0.0
 40
0.1291032775032425
 40
0.2441424522164098
 40
0.3456810547104124
 40
0.4341385680012441
 40
0.512613132672332
 40
0.584888302303032
 40
0.6514418008819883
 40
0.7134646218462658
 40
0.776088323783226
 40
0.8440278578261792
 40
0.918681878861795
 40
0.9999999999999999
 40
0.9999999999999999
 40
0.9999999999999999
 40
0.9999999999999999
 10
42.50156249999999
 20
24.26875
 30
0.0
 10
42.4480077622231
 20
24.35818697039918
 30
0.0
 10
42.34673237044746
 20
24.52731793046727
 30
0.0
 10
42.19404127685061
 20
24.76110198035376
 30
0.0
 10
42.0486189021933
 20
24.95999712332544
 30
0.0
 10
41.91193257838136
 20
25.12842601560088
 30
0.0
 10
41.77910958246876
 20
25.26892008045996
 30
0.0
 10
41.64658789476032
 20
25.38458750838349
 30
0.0
 10
41.51089551015135
 20
25.47410641833961
 30
0.0
 10
41.37292842792703
 20
25.54440354681431
 30
0.0
 10
41.2246818601136
 20
25.59300979843153
 30
0.0
 10
41.0622793847046
 20
25.62700181090117
 30
0.0
 10
40.8822776758788
 20
25.64712843864433
 30
0.0
 10
40.75630336073863
 20
25.64901593107565
 30
0.0
 10
40.690625
 20
25.65
 30
0.0
  0
SPLINE
  5
B4
330
1F
100
AcDbEntity
  8
0
  6
Continuous
 62
     7
370
    25
100
AcDbSpline
210
0.0
220
0.0
230
1.0
 70
     8
 71
     3
 72
    15
 73
    11
 74
     0
 42
0.00000001
 43
0.00000001
 40
0.0
 40
0.0
 40
0.0
 40
0.0
 40
0.124240828281878
 40
0.2395741674140944
 40
0.3492112529738767
 40
0.4615312624092387
 40
0.5787018302885829
 40
0.7048654012499934
 40
0.8436535457254416
 40
1.0
 40
1.0
 40
1.0
 40
1.0
 10
-12.85000000000002
 20
29.396875
 30
0.0
 10
-12.84799666936157
 20
29.44511342118692
 30
0.0
 10
-12.8441336375676
 20
29.53813179327155
 30
0.0
 10
-12.80332688983163
 20
29.66848672622432
 30
0.0
 10
-12.73981858310138
 20
29.78376401209288
 30
0.0
 10
-12.64849738089445
 20
29.87988387777712
 30
0.0
 10
-12.53377927559083
 20
29.95798554965659
 30
0.0
 10
-12.39491232106881
 20
30.0117729477712
 30
0.0
 10
-12.23435592153551
 20
30.04480554836347
 30
0.0
 10
-12.11997033720076
 20
30.04820117790141
 30
0.0
 10
-12.05937500000002
 20
30.05
 30
0.0
  0
SPLINE
  5
B5
330
1F
100
AcDbEntity
  8
0
  6
Continuous
 62
     7
370
    25
100
AcDbSpline
210
0.0
220
0.0
230
1.0
 70
     8
 71
     3
 72
    15
 73
    11
 74
     0
 42
0.00000001
 43
0.00000001
 40
0.0
 40
0.0
 40
0.0
 40
0.0
 40
0.1622719074240397
 40
0.3044553260389217
 40
0.4310506534175544
 40
0.5482806941707614
 40
0.6601655235069588
 40
0.7683402437021964
 40
0.880712661763277
 40
0.9999999999999999
 40
0.9999999999999999
 40
0.9999999999999999
 40
0.9999999999999999
 10
-12.05937500000002
 20
28.75
 30
0.0
 10
-12.12209438249514
 20
28.75155627947052
 30
0.0
 10
-12.23976878683066
 20
28.7544761784298
 30
0.0
 10
-12.40309318165068
 20
28.78985228448023
 30
0.0
 10
-12.54325957718098
 20
28.84298862555416
 30
0.0
 10
-12.65667428946056
 20
28.92292139640287
 30
0.0
 10
-12.74346046155669
 20
29.02122120346696
 30
0.0
 10
-12.80684795041415
 20
29.1338692662905
 30
0.0
 10
-12.84292036613009
 20
29.26137560905895
 30
0.0
 10
-12.84759362395877
 20
29.35081859454808
 30
0.0
 10
-12.85000000000002
 20
29.396875
 30
0.0
  0
SPLINE
  5
B8
330
1F
100
AcDbEntity
  8
0
  6
Continuous
 62
     7
370
    25
100
AcDbSpline
210
0.0
220
0.0
230
1.0
 70
     8
 71
     3
 72
    15
 73
    11
 74
     0
 42
0.00000001
 43
0.00000001
 40
0.0
 40
0.0
 40
0.0
 40
0.0
 40
0.1170739408899507
 40
0.227363451331059
 40
0.3358604885361383
 40
0.4475340090666056
 40
0.5658353424842117
 40
0.6936494833443098
 40
0.8373880369278177
 40
1.0
 40
1.0
 40
1.0
 40
1.0
 10
-9.59531250000002
 20
22.25
 30
0.0
 10
-9.648857316695445
 20
22.25212462299169
 30
0.0
 10
-9.752844029982944
 20
22.25625074715303
 30
0.0
 10
-9.899436020712763
 20
22.30518176461262
 30
0.0
 10
-10.03308556546418
 20
22.37669795150381
 30
0.0
 10
-10.14670474631595
 20
22.48311717948478
 30
0.0
 10
-10.24137400708238
 20
22.61765802268073
 30
0.0
 10
-10.30308755234413
 20
22.78555492630731
 30
0.0
 10
-10.34517256486627
 20
22.97968454033134
 30
0.0
 10
-10.34832609486339
 20
23.11952315643062
 30
0.0
 10
-10.35000000000002
 20
23.19375
 30
0.0
  0
SPLINE
  5
B9
330
1F
100
AcDbEntity
  8
0
  6
Continuous
 62
     7
370
    25
100
AcDbSpline
210
0.0
220
0.0
230
1.0
 70
     8
 71
     3
 72
    15
 73
    11
 74
     0
 42
0.00000001
 43
0.00000001
 40
0.0
 40
0.0
 40
0.0
 40
0.0
 40
0.1655964407989138
 40
0.3097132875407084
 40
0.439561993036571
 40
0.5567688959244225
 40
0.6672951569545884
 40
0.7742509049746203
 40
0.8835718141545696
 40
1.0
 40
1.0
 40
1.0
 40
1.0
 10
-8.850000000000021
 20
23.19375
 30
0.0
 10
-8.851851317190468
 20
23.11853568141976
 30
0.0
 10
-8.855313816327333
 20
22.97786312973185
 30
0.0
 10
-8.894711836794007
 20
22.78140494232227
 30
0.0
 10
-8.958522227512182
 20
22.61449213244648
 30
0.0
 10
-9.051450292836211
 20
22.47973794625162
 30
0.0
 10
-9.164095733253985
 20
22.37596867390469
 30
0.0
 10
-9.29417413901555
 20
22.30272153751174
 30
0.0
 10
-9.439683779914224
 20
22.25684000632
 30
0.0
 10
-9.542358751875884
 20
22.25232735944649
 30
0.0
 10
-9.59531250000002
 20
22.25
 30
0.0
  0
SPLINE
  5
BC
330
1F
100
AcDbEntity
  8
0
  6
Continuous
 62
     7
370
    25
100
AcDbSpline
210
0.0
220
0.0
230
1.0
 70
     8
 71
     3
 72
    15
 73
    11
 74
     0
 42
0.00000001
 43
0.00000001
 40
0.0
 40
0.0
 40
0.0
 40
0.0
 40
0.1184645462930533
 40
0.2304397159424622
 40
0.3385271411479037
 40
0.450534409169664
 40
0.568054514284472
 40
0.6950214110918136
 40
0.8388473732983405
 40
1.0
 40
1.0
 40
1.0
 40
1.0
 10
-6.34062500000002
 20
29.396875
 30
0.0
 10
-6.34289011071873
 20
29.35078420698468
 30
0.0
 10
-6.347296251517235
 20
29.26112743133015
 30
0.0
 10
-6.385479681872319
 20
29.13371070223128
 30
0.0
 10
-6.450366859022709
 20
29.02112434849587
 30
0.0
 10
-6.538751938263666
 20
28.92285560065151
 30
0.0
 10
-6.653709005563734
 20
28.84299417626252
 30
0.0
 10
-6.795852209478771
 20
28.78961592671011
 30
0.0
 10
-6.960817474926587
 20
28.75475788460881
 30
0.0
 10
-7.07948357679829
 20
28.75164491365645
 30
0.0
 10
-7.142187500000021
 20
28.75
 30
0.0
  0
SPLINE
  5
BD
330
1F
100
AcDbEntity
  8
0
  6
Continuous
 62
     7
370
    25
100
AcDbSpline
210
0.0
220
0.0
230
1.0
 70
     8
 71
     3
 72
    15
 73
    11
 74
     0
 42
0.00000001
 43
0.00000001
 40
0.0
 40
0.0
 40
0.0
 40
0.0
 40
0.1630620563492697
 40
0.3062143059784068
 40
0.4330856666239291
 40
0.5497351712894426
 40
0.6612177725259608
 40
0.7693107538467235
 40
0.8807614070667562
 40
1.0
 40
1.0
 40
1.0
 40
1.0
 10
-7.14218750000002
 20
30.05
 30
0.0
 10
-7.078440808935456
 20
30.04838674460174
 30
0.0
 10
-6.958730870279071
 20
30.04535721159325
 30
0.0
 10
-6.792490208034878
 20
30.01065928997916
 30
0.0
 10
-6.650480979042771
 20
29.95589916383095
 30
0.0
 10
-6.53768193861563
 20
29.87332355297328
 30
0.0
 10
-6.447886345490227
 20
29.77610946987831
 30
0.0
 10
-6.386272889143897
 20
29.66136563642968
 30
0.0
 10
-6.346941769355351
 20
29.53379908378528
 30
0.0
 10
-6.342777451464813
 20
29.44353214831907
 30
0.0
 10
-6.340625000000021
 20
29.396875
 30
0.0
  0
SPLINE
  5
BF
330
1F
100
AcDbEntity
  8
0
  6
Continuous
 62
     7
370
    25
100
AcDbSpline
210
0.0
220
0.0
230
1.0
 70
     8
 71
     3
 72
    19
 73
    15
 74
     0
 42
0.00000001
 43
0.00000001
 40
0.0
 40
0.0
 40
0.0
 40
0.0
 40
0.104758116804264
 40
0.1989239520811407
 40
0.2854590354873249
 40
0.3645611053490587
 40
0.4386955165803978
 40
0.5094874232314658
 40
0.5801478955948778
 40
0.6521334350927506
 40
0.7283832577003804
 40
0.811204159196715
 40
0.9013348244913646
 40
1.0
 40
1.0
 40
1.0
 40
1.0
 10
-5.25000000000001
 20
29.09375
 30
0.0
 10
-5.248798738052337
 20
29.14744535727574
 30
0.0
 10
-5.246517675912184
 20
29.24940683771792
 30
0.0
 10
-5.229551886503831
 20
29.39495442192349
 30
0.0
 10
-5.200685005226302
 20
29.52526254854049
 30
0.0
 10
-5.158217250691757
 20
29.6409323393501
 30
0.0
 10
-5.103999457631915
 20
29.74274558934102
 30
0.0
 10
-5.033686521464834
 20
29.8289138811917
 30
0.0
 10
-4.949654073096553
 20
29.899741117307
 30
0.0
 10
-4.852602036008323
 20
29.9572052413403
 30
0.0
 10
-4.741118422098168
 20
29.99829188869517
 30
0.0
 10
-4.617205333820507
 20
30.03025814229736
 30
0.0
 10
-4.478533470236863
 20
30.04621142071961
 30
0.0
 10
-4.381802070075041
 20
30.04869964684456
 30
0.0
 10
-4.33125000000001
 20
30.05
 30
0.0
  0
SPLINE
  5
C1
330
1F
100
AcDbEntity
  8
0
  6
Continuous
 62
     7
370
    25
100
AcDbSpline
210
0.0
220
0.0
230
1.0
 70
     8
 71
     3
 72
    15
 73
    11
 74
     0
 42
0.00000001
 43
0.00000001
 40
0.0
 40
0.0
 40
0.0
 40
0.0
 40
0.1486820213629696
 40
0.2766809162915543
 40
0.389999231123065
 40
0.4935016383715979
 40
0.5984266725526192
 40
0.7146969950159779
 40
0.8472597142252055
 40
0.9999999999999999
 40
0.9999999999999999
 40
0.9999999999999999
 40
0.9999999999999999
 10
-4.33125000000001
 20
22.35
 30
0.0
 10
-4.407524962673932
 20
22.35221970624053
 30
0.0
 10
-4.549464293127378
 20
22.35635033582774
 30
0.0
 10
-4.746120457563039
 20
22.39831005728025
 30
0.0
 10
-4.910037239950249
 20
22.46771299361487
 30
0.0
 10
-5.042526380307785
 20
22.5698150241356
 30
0.0
 10
-5.138307766468008
 20
22.70846099695321
 30
0.0
 10
-5.205179076928358
 20
22.87823322821759
 30
0.0
 10
-5.242473276568242
 20
23.08174907076924
 30
0.0
 10
-5.247375524492293
 20
23.22796929850126
 30
0.0
 10
-5.25000000000001
 20
23.30625
 30
0.0
  0
SPLINE
  5
C3
330
1F
100
AcDbEntity
  8
0
  6
Continuous
 62
     7
370
    25
100
AcDbSpline
210
0.0
220
0.0
230
1.0
 70
     8
 71
     3
 72
    15
 73
    11
 74
     0
 42
0.00000001
 43
0.00000001
 40
0.0
 40
0.0
 40
0.0
 40
0.0
 40
0.1180930132284008
 40
0.2278811934031614
 40
0.3365199297434497
 40
0.449574496185943
 40
0.5676228364363012
 40
0.6960131875362396
 40
0.8384494934333631
 40
1.0
 40
1.0
 40
1.0
 40
1.0
 10
0.6437499999999907
 20
22.9453125
 30
0.0
 10
0.6421916458191792
 20
22.90278967044347
 30
0.0
 10
0.6391845279486137
 20
22.8207344083978
 30
0.0
 10
0.6003076900225814
 20
22.70509237257667
 30
0.0
 10
0.5421905835739138
 20
22.60050828987823
 30
0.0
 10
0.4577222687712532
 20
22.51109727738936
 30
0.0
 10
0.3507029362539588
 20
22.43737618652235
 30
0.0
 10
0.219675359716369
 20
22.38687756894588
 30
0.0
 10
0.0670959073088657
 20
22.35549324001587
 30
0.0
 10
-0.0420144693723389
 20
22.35190626115454
 30
0.0
 10
-0.1000000000000089
 20
22.35
 30
0.0
  0
SPLINE
  5
C4
330
1F
100
AcDbEntity
  8
0
  6
Continuous
 62
     7
370
    25
100
AcDbSpline
210
0.0
220
0.0
230
1.0
 70
     8
 71
     3
 72
    15
 73
    11
 74
     0
 42
0.00000001
 43
0.00000001
 40
0.0
 40
0.0
 40
0.0
 40
0.0
 40
0.1601765059084947
 40
0.3011147023523753
 40
0.4289577380566885
 40
0.5460020672355637
 40
0.6580950950732002
 40
0.7670637804294648
 40
0.8800414759407686
 40
1.0
 40
1.0
 40
1.0
 40
1.0
 10
-0.1000000000000089
 20
23.55
 30
0.0
 10
-0.0420789439289553
 20
23.54783271394619
 30
0.0
 10
0.0668064475949062
 20
23.54375844792756
 30
0.0
 10
0.2202813154936821
 20
23.51562353474571
 30
0.0
 10
0.3503412068316765
 20
23.46217970009566
 30
0.0
 10
0.4577393285586541
 20
23.38901547557289
 30
0.0
 10
0.5426125916472492
 20
23.29921559290005
 30
0.0
 10
0.6009919625630796
 20
23.19243421180922
 30
0.0
 10
0.6389132401206691
 20
23.07337180428957
 30
0.0
 10
0.6421058537302434
 20
22.98884334145324
 30
0.0
 10
0.6437499999999908
 20
22.9453125
 30
0.0
  0
SPLINE
  5
C8
330
1F
100
AcDbEntity
  8
0
  6
Continuous
 62
     7
370
    25
100
AcDbSpline
210
0.0
220
0.0
230
1.0
 70
     8
 71
     3
 72
    15
 73
    11
 74
     0
 42
0.00000001
 43
0.00000001
 40
0.0
 40
0.0
 40
0.0
 40
0.0
 40
0.1214000302501862
 40
0.2334511404134537
 40
0.3436518189027427
 40
0.4556543695360339
 40
0.5715994187197498
 40
0.6971149706786477
 40
0.8388803614285781
 40
1.0
 40
1.0
 40
1.0
 40
1.0
 10
0.2109374999999906
 20
26.3546875
 30
0.0
 10
0.2090768080056633
 20
26.31173329352196
 30
0.0
 10
0.2054987144323856
 20
26.22913274995383
 30
0.0
 10
0.1710794086808952
 20
26.11155581642401
 30
0.0
 10
0.1156701168192218
 20
26.00652670838067
 30
0.0
 10
0.0381533423834081
 20
25.91439374723518
 30
0.0
 10
-0.0629108246337625
 20
25.83916805542092
 30
0.0
 10
-0.188492943922647
 20
25.78588198193031
 30
0.0
 10
-0.3376519044584059
 20
25.75572173402876
 30
0.0
 10
-0.4446466589770638
 20
25.75198679837188
 30
0.0
 10
-0.5015625000000089
 20
25.75
 30
0.0
  0
SPLINE
  5
C9
330
1F
100
AcDbEntity
  8
0
  6
Continuous
 62
     7
370
    25
100
AcDbSpline
210
0.0
220
0.0
230
1.0
 70
     8
 71
     3
 72
    15
 73
    11
 74
     0
 42
0.00000001
 43
0.00000001
 40
0.0
 40
0.0
 40
0.0
 40
0.0
 40
0.1606616540137145
 40
0.3015712460615742
 40
0.42729825318686
 40
0.5443004148535054
 40
0.6547630562283033
 40
0.7650659828745288
 40
0.8778288393223632
 40
1.0
 40
1.0
 40
1.0
 40
1.0
 10
-0.5015625000000089
 20
26.95
 30
0.0
 10
-0.4451917167586909
 20
26.94786660637535
 30
0.0
 10
-0.3393804860209567
 20
26.94386210276388
 30
0.0
 10
-0.1912648088409231
 20
26.91553665094588
 30
0.0
 10
-0.066000264217014
 20
26.86354666802097
 30
0.0
 10
0.0359076924292041
 20
26.79099638218106
 30
0.0
 10
0.1141734647011868
 20
26.70076129109654
 30
0.0
 10
0.1717065334558073
 20
26.59789355054421
 30
0.0
 10
0.2053414958743158
 20
26.48016536599584
 30
0.0
 10
0.2090230211246172
 20
26.39761540326472
 30
0.0
 10
0.2109374999999906
 20
26.3546875
 30
0.0
  0
SPLINE
  5
CD
330
1F
100
AcDbEntity
  8
0
  6
Continuous
 62
     7
370
    25
100
AcDbSpline
210
0.0
220
0.0
230
1.0
 70
     8
 71
     3
 72
    15
 73
    11
 74
     0
 42
0.00000001
 43
0.00000001
 40
0.0
 40
0.0
 40
0.0
 40
0.0
 40
0.1202674367482455
 40
0.2331211802607902
 40
0.3423704776858988
 40
0.4528060128971522
 40
0.5689642899254957
 40
0.6952521559714516
 40
0.8379699713073455
 40
1.0
 40
1.0
 40
1.0
 40
1.0
 10
0.5171874999999908
 20
29.453125
 30
0.0
 10
0.5153556016923034
 20
29.40965823739148
 30
0.0
 10
0.5118047295098375
 20
29.32540415103703
 30
0.0
 10
0.4765618891935196
 20
29.20559861637661
 30
0.0
 10
0.4173028132532103
 20
29.10032551198226
 30
0.0
 10
0.3361178961243758
 20
29.00899014501308
 30
0.0
 10
0.2303172985456071
 20
28.93607302765906
 30
0.0
 10
0.1002739971228253
 20
28.88431663001489
 30
0.0
 10
-0.0534997728159234
 20
28.85620871931129
 30
0.0
 10
-0.1634278359715967
 20
28.85215519849364
 30
0.0
 10
-0.2218750000000094
 20
28.85
 30
0.0
  0
SPLINE
  5
CE
330
1F
100
AcDbEntity
  8
0
  6
Continuous
 62
     7
370
    25
100
AcDbSpline
210
0.0
220
0.0
230
1.0
 70
     8
 71
     3
 72
    15
 73
    11
 74
     0
 42
0.00000001
 43
0.00000001
 40
0.0
 40
0.0
 40
0.0
 40
0.0
 40
0.1630441351562416
 40
0.3066551865186236
 40
0.4342887309444172
 40
0.5511740143214237
 40
0.6623007386349138
 40
0.7697084995010952
 40
0.8818751392584866
 40
1.0
 40
1.0
 40
1.0
 40
1.0
 10
-0.2218750000000094
 20
30.05
 30
0.0
 10
-0.1634528682327742
 20
30.047786722846
 30
0.0
 10
-0.0535718860267651
 20
30.04362396705091
 30
0.0
 10
0.1007082895064233
 20
30.01619825586154
 30
0.0
 10
0.2299293025024119
 20
29.96200798247204
 30
0.0
 10
0.3362827821939579
 20
29.8896264284732
 30
0.0
 10
0.4162683092711635
 20
29.79852489394
 30
0.0
 10
0.4770298373392899
 20
29.69581664189784
 30
0.0
 10
0.5115645998189908
 20
29.57819476001511
 30
0.0
 10
0.5152811477882882
 20
29.49552785367817
 30
0.0
 10
0.5171874999999907
 20
29.453125
 30
0.0
  0
SPLINE
  5
D0
330
1F
100
AcDbEntity
  8
0
  6
Continuous
 62
     7
370
    25
100
AcDbSpline
210
0.0
220
0.0
230
1.0
 70
     8
 71
     3
 72
    15
 73
    11
 74
     0
 42
0.00000001
 43
0.00000001
 40
0.0
 40
0.0
 40
0.0
 40
0.0
 40
0.1481179033817803
 40
0.2758520891624328
 40
0.3887404602898659
 40
0.4924796911247316
 40
0.5970066267467219
 40
0.7137747437689288
 40
0.846828451381692
 40
1.0
 40
1.0
 40
1.0
 40
1.0
 10
2.768749999999981
 20
22.35
 30
0.0
 10
2.69241765951877
 20
22.35199718280415
 30
0.0
 10
2.550257697004809
 20
22.35571669973211
 30
0.0
 10
2.354183220739215
 20
22.4004082506261
 30
0.0
 10
2.18934079223904
 20
22.46893266449725
 30
0.0
 10
2.057997310301568
 20
22.57308298455768
 30
0.0
 10
1.9611917700037
 20
22.71181343738772
 30
0.0
 10
1.894949219972594
 20
22.88305338763088
 30
0.0
 10
1.857501621034179
 20
23.08798445303631
 30
0.0
 10
1.852615027916148
 20
23.23525281322063
 30
0.0
 10
1.849999999999981
 20
23.3140625
 30
0.0
  0
SPLINE
  5
D2
330
1F
100
AcDbEntity
  8
0
  6
Continuous
 62
     7
370
    25
100
AcDbSpline
210
0.0
220
0.0
230
1.0
 70
     8
 71
     3
 72
    15
 73
    11
 74
     0
 42
0.00000001
 43
0.00000001
 40
0.0
 40
0.0
 40
0.0
 40
0.0
 40
0.1202231895927875
 40
0.2325581639606083
 40
0.3441076561611479
 40
0.4567717215353767
 40
0.5749214734182957
 40
0.7012487594716067
 40
0.8418877067080093
 40
1.0
 40
1.0
 40
1.0
 40
1.0
 10
7.310937499999982
 20
22.9953125
 30
0.0
 10
7.308733889505967
 20
22.94920293982764
 30
0.0
 10
7.304471254216486
 20
22.86000921030646
 30
0.0
 10
7.26555754917944
 20
22.73262070871855
 30
0.0
 10
7.200443081683473
 20
22.62024159140428
 30
0.0
 10
7.110861827810212
 20
22.52334040469995
 30
0.0
 10
6.99843638414778
 20
22.44324573245228
 30
0.0
 10
6.85984972049296
 20
22.39006344744921
 30
0.0
 10
6.70021660426057
 20
22.35463472829035
 30
0.0
 10
6.585639331160452
 20
22.35160399652089
 30
0.0
 10
6.524999999999982
 20
22.35
 30
0.0
  0
SPLINE
  5
D3
330
1F
100
AcDbEntity
  8
0
  6
Continuous
 62
     7
370
    25
100
AcDbSpline
210
0.0
220
0.0
230
1.0
 70
     8
 71
     3
 72
    15
 73
    11
 74
     0
 42
0.00000001
 43
0.00000001
 40
0.0
 40
0.0
 40
0.0
 40
0.0
 40
0.1550337644472305
 40
0.2956398480582969
 40
0.4227207273063791
 40
0.544076141602428
 40
0.6593982807374366
 40
0.7706876048432455
 40
0.8827605791277281
 40
1.0
 40
1.0
 40
1.0
 40
1.0
 10
6.524999999999982
 20
23.65
 30
0.0
 10
6.584606363191495
 20
23.64843957340784
 30
0.0
 10
6.698272029635692
 20
23.64546393592489
 30
0.0
 10
6.857187979380481
 20
23.60867982698132
 30
0.0
 10
6.996410248522063
 20
23.55176514737533
 30
0.0
 10
7.108976147205031
 20
23.46712830008168
 30
0.0
 10
7.199707500069597
 20
23.36813382295094
 30
0.0
 10
7.265603626453681
 20
23.25490564840401
 30
0.0
 10
7.3041473700286
 20
23.12848946740475
 30
0.0
 10
7.308640380583284
 20
23.04036662988732
 30
0.0
 10
7.310937499999982
 20
22.9953125
 30
0.0
  0
SPLINE
  5
D6
330
1F
100
AcDbEntity
  8
0
  6
Continuous
 62
     7
370
    25
100
AcDbSpline
210
0.0
220
0.0
230
1.0
 70
     8
 71
     3
 72
    15
 73
    11
 74
     0
 42
0.00000001
 43
0.00000001
 40
0.0
 40
0.0
 40
0.0
 40
0.0
 40
0.1172064969144935
 40
0.2276387516711794
 40
0.335766161461945
 40
0.4464889514609288
 40
0.5637831285798782
 40
0.6919810922994323
 40
0.8353768806301279
 40
1.0
 40
1.0
 40
1.0
 40
1.0
 10
2.592187499999982
 20
30.25
 30
0.0
 10
2.646217371556177
 20
30.24781589155139
 30
0.0
 10
2.751154323327541
 20
30.24357391065575
 30
0.0
 10
2.899525610272467
 20
30.19553110494479
 30
0.0
 10
3.032600196835854
 20
30.12140984803718
 30
0.0
 10
3.146888947672642
 20
30.0155001920946
 30
0.0
 10
3.241303829065025
 20
29.88002432709175
 30
0.0
 10
3.305510340928997
 20
29.71185104346742
 30
0.0
 10
3.344632880909471
 20
29.51430200223605
 30
0.0
 10
3.348130610829946
 20
29.37260569954273
 30
0.0
 10
3.349999999999981
 20
29.296875
 30
0.0
  0
SPLINE
  5
D7
330
1F
100
AcDbEntity
  8
0
  6
Continuous
 62
     7
370
    25
100
AcDbSpline
210
0.0
220
0.0
230
1.0
 70
     8
 71
     3
 72
    15
 73
    11
 74
     0
 42
0.00000001
 43
0.00000001
 40
0.0
 40
0.0
 40
0.0
 40
0.0
 40
0.1640284378042458
 40
0.30889832478789
 40
0.4369270566033842
 40
0.5550889364537721
 40
0.6668913062363379
 40
0.7747223797062
 40
0.8837630375467719
 40
1.0
 40
1.0
 40
1.0
 40
1.0
 10
1.849999999999982
 20
29.296875
 30
0.0
 10
1.851932691239221
 20
29.3715495140544
 30
0.0
 10
1.855572335035901
 20
29.51217654558951
 30
0.0
 10
1.89433957907879
 20
29.70814931889032
 30
0.0
 10
1.958167302076906
 20
29.87520787899484
 30
0.0
 10
2.048037914445199
 20
30.01275996046278
 30
0.0
 10
2.16095170491506
 20
30.11881706998269
 30
0.0
 10
2.29013913890335
 20
30.19637498228792
 30
0.0
 10
2.436749950682207
 20
30.24102808298601
 30
0.0
 10
2.539283203970974
 20
30.24694634304427
 30
0.0
 10
2.592187499999982
 20
30.25
 30
0.0
  0
SPLINE
  5
D9
330
1F
100
AcDbEntity
  8
0
  6
Continuous
 62
     7
370
    25
100
AcDbSpline
210
0.0
220
0.0
230
1.0
 70
     8
 71
     3
 72
    19
 73
    15
 74
     0
 42
0.00000001
 43
0.00000001
 40
0.0
 40
0.0
 40
0.0
 40
0.0
 40
0.1047581168042641
 40
0.1989239520811408
 40
0.2854590354873251
 40
0.3645611053490587
 40
0.438695516580398
 40
0.5094874232314659
 40
0.5801478955948776
 40
0.6521334350927503
 40
0.7283832577003801
 40
0.8112041591967154
 40
0.901334824491365
 40
1.0
 40
1.0
 40
1.0
 40
1.0
 10
8.44999999999997
 20
29.09375
 30
0.0
 10
8.451201261947647
 20
29.14744535727574
 30
0.0
 10
8.4534823240878
 20
29.24940683771792
 30
0.0
 10
8.470448113496152
 20
29.3949544219235
 30
0.0
 10
8.499314994773679
 20
29.52526254854049
 30
0.0
 10
8.541782749308224
 20
29.64093233935009
 30
0.0
 10
8.596000542368067
 20
29.74274558934103
 30
0.0
 10
8.666313478535148
 20
29.82891388119171
 30
0.0
 10
8.750345926903426
 20
29.899741117307
 30
0.0
 10
8.847397963991655
 20
29.9572052413403
 30
0.0
 10
8.958881577901817
 20
29.99829188869517
 30
0.0
 10
9.082794666179474
 20
30.03025814229735
 30
0.0
 10
9.22146652976312
 20
30.04621142071962
 30
0.0
 10
9.318197929924942
 20
30.04869964684456
 30
0.0
 10
9.368749999999972
 20
30.05
 30
0.0
  0
SPLINE
  5
DB
330
1F
100
AcDbEntity
  8
0
  6
Continuous
 62
     7
370
    25
100
AcDbSpline
210
0.0
220
0.0
230
1.0
 70
     8
 71
     3
 72
    15
 73
    11
 74
     0
 42
0.00000001
 43
0.00000001
 40
0.0
 40
0.0
 40
0.0
 40
0.0
 40
0.1486820213629691
 40
0.2766809162915539
 40
0.3899992311230646
 40
0.4935016383715977
 40
0.598426672552619
 40
0.7146969950159777
 40
0.8472597142252054
 40
0.9999999999999999
 40
0.9999999999999999
 40
0.9999999999999999
 40
0.9999999999999999
 10
9.36874999999997
 20
22.35
 30
0.0
 10
9.29247503732605
 20
22.35221970624053
 30
0.0
 10
9.150535706872601
 20
22.35635033582773
 30
0.0
 10
8.953879542436942
 20
22.39831005728025
 30
0.0
 10
8.789962760049736
 20
22.46771299361487
 30
0.0
 10
8.657473619692196
 20
22.56981502413559
 30
0.0
 10
8.561692233531973
 20
22.7084609969532
 30
0.0
 10
8.494820923071629
 20
22.8782332282176
 30
0.0
 10
8.457526723431739
 20
23.08174907076923
 30
0.0
 10
8.452624475507687
 20
23.22796929850126
 30
0.0
 10
8.44999999999997
 20
23.30625
 30
0.0
  0
SPLINE
  5
DD
330
1F
100
AcDbEntity
  8
0
  6
Continuous
 62
     7
370
    25
100
AcDbSpline
210
0.0
220
0.0
230
1.0
 70
     8
 71
     3
 72
    15
 73
    11
 74
     0
 42
0.00000001
 43
0.00000001
 40
0.0
 40
0.0
 40
0.0
 40
0.0
 40
0.1180930132284009
 40
0.2278811934031613
 40
0.3365199297434501
 40
0.449574496185944
 40
0.5676228364363015
 40
0.6960131875362401
 40
0.8384494934333645
 40
1.0
 40
1.0
 40
1.0
 40
1.0
 10
14.34374999999997
 20
22.9453125
 30
0.0
 10
14.34219164581916
 20
22.90278967044348
 30
0.0
 10
14.33918452794859
 20
22.8207344083978
 30
0.0
 10
14.30030769002257
 20
22.70509237257667
 30
0.0
 10
14.24219058357389
 20
22.60050828987823
 30
0.0
 10
14.15772226877123
 20
22.51109727738935
 30
0.0
 10
14.05070293625394
 20
22.43737618652236
 30
0.0
 10
13.91967535971635
 20
22.38687756894587
 30
0.0
 10
13.76709590730885
 20
22.35549324001586
 30
0.0
 10
13.65798553062764
 20
22.35190626115454
 30
0.0
 10
13.59999999999997
 20
22.35
 30
0.0
  0
SPLINE
  5
DE
330
1F
100
AcDbEntity
  8
0
  6
Continuous
 62
     7
370
    25
100
AcDbSpline
210
0.0
220
0.0
230
1.0
 70
     8
 71
     3
 72
    15
 73
    11
 74
     0
 42
0.00000001
 43
0.00000001
 40
0.0
 40
0.0
 40
0.0
 40
0.0
 40
0.1601765059084932
 40
0.3011147023523748
 40
0.428957738056688
 40
0.5460020672355628
 40
0.6580950950731999
 40
0.767063780429465
 40
0.8800414759407686
 40
1.0
 40
1.0
 40
1.0
 40
1.0
 10
13.59999999999997
 20
23.55
 30
0.0
 10
13.65792105607103
 20
23.54783271394619
 30
0.0
 10
13.76680644759489
 20
23.54375844792756
 30
0.0
 10
13.92028131549366
 20
23.5156235347457
 30
0.0
 10
14.05034120683166
 20
23.46217970009566
 30
0.0
 10
14.15773932855863
 20
23.38901547557289
 30
0.0
 10
14.24261259164723
 20
23.29921559290006
 30
0.0
 10
14.30099196256306
 20
23.19243421180921
 30
0.0
 10
14.33891324012065
 20
23.07337180428958
 30
0.0
 10
14.34210585373023
 20
22.98884334145325
 30
0.0
 10
14.34374999999997
 20
22.9453125
 30
0.0
  0
SPLINE
  5
E2
330
1F
100
AcDbEntity
  8
0
  6
Continuous
 62
     7
370
    25
100
AcDbSpline
210
0.0
220
0.0
230
1.0
 70
     8
 71
     3
 72
    15
 73
    11
 74
     0
 42
0.00000001
 43
0.00000001
 40
0.0
 40
0.0
 40
0.0
 40
0.0
 40
0.1214000302501862
 40
0.2334511404134536
 40
0.3436518189027425
 40
0.4556543695360338
 40
0.5715994187197491
 40
0.6971149706786477
 40
0.838880361428579
 40
1.0
 40
1.0
 40
1.0
 40
1.0
 10
13.91093749999997
 20
26.3546875
 30
0.0
 10
13.90907680800564
 20
26.31173329352197
 30
0.0
 10
13.90549871443236
 20
26.22913274995383
 30
0.0
 10
13.87107940868088
 20
26.111555816424
 30
0.0
 10
13.8156701168192
 20
26.00652670838068
 30
0.0
 10
13.73815334238339
 20
25.91439374723517
 30
0.0
 10
13.63708917536622
 20
25.83916805542092
 30
0.0
 10
13.51150705607733
 20
25.78588198193031
 30
0.0
 10
13.36234809554158
 20
25.75572173402876
 30
0.0
 10
13.25535334102292
 20
25.75198679837188
 30
0.0
 10
13.19843749999997
 20
25.75
 30
0.0
  0
SPLINE
  5
E3
330
1F
100
AcDbEntity
  8
0
  6
Continuous
 62
     7
370
    25
100
AcDbSpline
210
0.0
220
0.0
230
1.0
 70
     8
 71
     3
 72
    15
 73
    11
 74
     0
 42
0.00000001
 43
0.00000001
 40
0.0
 40
0.0
 40
0.0
 40
0.0
 40
0.1606616540137138
 40
0.3015712460615751
 40
0.4272982531868609
 40
0.5443004148535058
 40
0.6547630562283031
 40
0.7650659828745289
 40
0.8778288393223632
 40
1.0
 40
1.0
 40
1.0
 40
1.0
 10
13.19843749999997
 20
26.95
 30
0.0
 10
13.25480828324129
 20
26.94786660637536
 30
0.0
 10
13.36061951397903
 20
26.94386210276389
 30
0.0
 10
13.50873519115906
 20
26.91553665094588
 30
0.0
 10
13.63399973578297
 20
26.86354666802096
 30
0.0
 10
13.73590769242918
 20
26.79099638218107
 30
0.0
 10
13.81417346470117
 20
26.70076129109654
 30
0.0
 10
13.87170653345578
 20
26.59789355054422
 30
0.0
 10
13.9053414958743
 20
26.48016536599582
 30
0.0
 10
13.9090230211246
 20
26.39761540326473
 30
0.0
 10
13.91093749999997
 20
26.3546875
 30
0.0
  0
SPLINE
  5
E7
330
1F
100
AcDbEntity
  8
0
  6
Continuous
 62
     7
370
    25
100
AcDbSpline
210
0.0
220
0.0
230
1.0
 70
     8
 71
     3
 72
    15
 73
    11
 74
     0
 42
0.00000001
 43
0.00000001
 40
0.0
 40
0.0
 40
0.0
 40
0.0
 40
0.1202674367482456
 40
0.2331211802607902
 40
0.3423704776858992
 40
0.4528060128971528
 40
0.5689642899254971
 40
0.6952521559714531
 40
0.8379699713073471
 40
1.0
 40
1.0
 40
1.0
 40
1.0
 10
14.21718749999997
 20
29.453125
 30
0.0
 10
14.21535560169228
 20
29.40965823739148
 30
0.0
 10
14.21180472950982
 20
29.32540415103704
 30
0.0
 10
14.17656188919351
 20
29.20559861637662
 30
0.0
 10
14.11730281325319
 20
29.10032551198225
 30
0.0
 10
14.03611789612435
 20
29.00899014501309
 30
0.0
 10
13.93031729854559
 20
28.93607302765905
 30
0.0
 10
13.8002739971228
 20
28.88431663001488
 30
0.0
 10
13.64650022718406
 20
28.85620871931129
 30
0.0
 10
13.53657216402839
 20
28.85215519849364
 30
0.0
 10
13.47812499999997
 20
28.85
 30
0.0
  0
SPLINE
  5
E8
330
1F
100
AcDbEntity
  8
0
  6
Continuous
 62
     7
370
    25
100
AcDbSpline
210
0.0
220
0.0
230
1.0
 70
     8
 71
     3
 72
    15
 73
    11
 74
     0
 42
0.00000001
 43
0.00000001
 40
0.0
 40
0.0
 40
0.0
 40
0.0
 40
0.1630441351562401
 40
0.3066551865186222
 40
0.4342887309444159
 40
0.5511740143214232
 40
0.6623007386349135
 40
0.7697084995010953
 40
0.8818751392584866
 40
1.0
 40
1.0
 40
1.0
 40
1.0
 10
13.47812499999997
 20
30.05
 30
0.0
 10
13.53654713176721
 20
30.047786722846
 30
0.0
 10
13.64642811397321
 20
30.0436239670509
 30
0.0
 10
13.8007082895064
 20
30.01619825586153
 30
0.0
 10
13.92992930250239
 20
29.96200798247204
 30
0.0
 10
14.03628278219394
 20
29.8896264284732
 30
0.0
 10
14.11626830927115
 20
29.79852489393999
 30
0.0
 10
14.17702983733928
 20
29.69581664189785
 30
0.0
 10
14.21156459981897
 20
29.57819476001509
 30
0.0
 10
14.21528114778827
 20
29.49552785367817
 30
0.0
 10
14.21718749999997
 20
29.453125
 30
0.0
  0
SPLINE
  5
EB
330
1F
100
AcDbEntity
  8
0
  6
Continuous
 62
     7
370
    25
100
AcDbSpline
210
0.0
220
0.0
230
1.0
 70
     8
 71
     3
 72
    15
 73
    11
 74
     0
 42
0.00000001
 43
0.00000001
 40
0.0
 40
0.0
 40
0.0
 40
0.0
 40
0.1153070256082531
 40
0.2238232238572765
 40
0.3311327474160131
 40
0.4437874534234419
 40
0.5618807523410387
 40
0.6920470815115795
 40
0.8355686871990624
 40
1.0
 40
1.0
 40
1.0
 40
1.0
 10
22.24218749999997
 20
22.25
 30
0.0
 10
22.19345782265844
 20
22.25263965255547
 30
0.0
 10
22.09886832628931
 20
22.25776349944783
 30
0.0
 10
21.96381507457568
 20
22.29959029104704
 30
0.0
 10
21.84370290549496
 20
22.37085154027264
 30
0.0
 10
21.7380411778937
 20
22.46837748434189
 30
0.0
 10
21.65154266256774
 20
22.59549093870667
 30
0.0
 10
21.59209138017676
 20
22.75098921592688
 30
0.0
 10
21.55617774887499
 20
22.93327600247217
 30
0.0
 10
21.55215040064925
 20
23.06335622676529
 30
0.0
 10
21.54999999999997
 20
23.1328125
 30
0.0
  0
SPLINE
  5
EC
330
1F
100
AcDbEntity
  8
0
  6
Continuous
 62
     7
370
    25
100
AcDbSpline
210
0.0
220
0.0
230
1.0
 70
     8
 71
     3
 72
    15
 73
    11
 74
     0
 42
0.00000001
 43
0.00000001
 40
0.0
 40
0.0
 40
0.0
 40
0.0
 40
0.161689789287123
 40
0.303883752718159
 40
0.4312596992494125
 40
0.5482605796903939
 40
0.6590463805013518
 40
0.7674794835536686
 40
0.8796732088186647
 40
1.0
 40
1.0
 40
1.0
 40
1.0
 10
22.94999999999997
 20
23.128125
 30
0.0
 10
22.94784785691786
 20
23.05918197105261
 30
0.0
 10
22.94380306646412
 20
22.92960875277667
 30
0.0
 10
22.90776759469748
 20
22.74862646216336
 30
0.0
 10
22.8498671245304
 20
22.59331518782718
 30
0.0
 10
22.76390185372738
 20
22.46688869448109
 30
0.0
 10
22.65686996016394
 20
22.36999604894045
 30
0.0
 10
22.53363377501935
 20
22.29887352214364
 30
0.0
 10
22.39264880244712
 20
22.25773675387953
 30
0.0
 10
22.29349730265131
 20
22.25263836154722
 30
0.0
 10
22.24218749999997
 20
22.25
 30
0.0
  0
SPLINE
  5
EE
330
1F
100
AcDbEntity
  8
0
  6
Continuous
 62
     7
370
    25
100
AcDbSpline
210
0.0
220
0.0
230
1.0
 70
     8
 71
     3
 72
    19
 73
    15
 74
     0
 42
0.00000001
 43
0.00000001
 40
0.0
 40
0.0
 40
0.0
 40
0.0
 40
0.1413125891666998
 40
0.2696914482260824
 40
0.3853911095767267
 40
0.4934325411997956
 40
0.5455118164715452
 40
0.5995173586347835
 40
0.6549212045834799
 40
0.7128984008003638
 40
0.7763817015877009
 40
0.8448664555856874
 40
0.9194465509936913
 40
1.0
 40
1.0
 40
1.0
 40
1.0
 10
21.98124999999997
 20
30.05
 30
0.0
 10
22.05168678816847
 20
30.04808092335776
 30
0.0
 10
22.18611358992462
 20
30.04441841485834
 30
0.0
 10
22.37626980241838
 20
30.01222219964441
 30
0.0
 10
22.54335638406261
 20
29.95718568168265
 30
0.0
 10
22.66650263155496
 20
29.89366973030485
 30
0.0
 10
22.75038990554791
 20
29.82737546757065
 30
0.0
 10
22.80609012819869
 20
29.76847608052769
 30
0.0
 10
22.84823467080842
 20
29.69613206014742
 30
0.0
 10
22.88811576098911
 20
29.61727950072603
 30
0.0
 10
22.91379312789497
 20
29.52583904567173
 30
0.0
 10
22.9375417368129
 20
29.42558231628695
 30
0.0
 10
22.94643294923477
 20
29.31420270088659
 30
0.0
 10
22.94878084811658
 20
29.23697543504407
 30
0.0
 10
22.94999999999997
 20
29.196875
 30
0.0
  0
SPLINE
  5
F0
330
1F
100
AcDbEntity
  8
0
  6
Continuous
 62
     7
370
    25
100
AcDbSpline
210
0.0
220
0.0
230
1.0
 70
     8
 71
     3
 72
    19
 73
    15
 74
     0
 42
0.00000001
 43
0.00000001
 40
0.0
 40
0.0
 40
0.0
 40
0.0
 40
0.1259565825899404
 40
0.2344996364153847
 40
0.3252191227155819
 40
0.3977440742896453
 40
0.4598202913637469
 40
0.5181762465777836
 40
0.576099497042813
 40
0.6344554522568494
 40
0.7025914697567163
 40
0.7851627893102701
 40
0.8846855576258955
 40
1.0
 40
1.0
 40
1.0
 40
1.0
 10
20.36406249999997
 20
29.0296875
 30
0.0
 10
20.38273847792577
 20
29.10068878095353
 30
0.0
 10
20.41750847519982
 20
29.23287539816936
 30
0.0
 10
20.4743081925022
 20
29.41377828360863
 30
0.0
 10
20.52501174533966
 20
29.56378709975262
 30
0.0
 10
20.57277383738642
 20
29.68639827470141
 30
0.0
 10
20.62916219255064
 20
29.78419369667683
 30
0.0
 10
20.69557069289635
 20
29.86508906232185
 30
0.0
 10
20.77672800272706
 20
29.92768824119421
 30
0.0
 10
20.87264428657281
 20
29.9776029833649
 30
0.0
 10
20.99064009305428
 20
30.01026459972517
 30
0.0
 10
21.13446769328877
 20
30.03506593363238
 30
0.0
 10
21.30760235815503
 20
30.04757836457067
 30
0.0
 10
21.43279989187526
 20
30.04915417797677
 30
0.0
 10
21.49999999999997
 20
30.05
 30
0.0
  0
SPLINE
  5
F3
330
1F
100
AcDbEntity
  8
0
  6
Continuous
 62
     7
370
    25
100
AcDbSpline
210
0.0
220
0.0
230
1.0
 70
     8
 71
     3
 72
    19
 73
    15
 74
     0
 42
0.00000001
 43
0.00000001
 40
0.0
 40
0.0
 40
0.0
 40
0.0
 40
0.1156697058500148
 40
0.2146056229416644
 40
0.2965485980575541
 40
0.3640367340256645
 40
0.422572473654061
 40
0.4806741754463697
 40
0.5392099150747648
 40
0.6010305463090851
 40
0.6737789344783904
 40
0.7647779115290271
 40
0.873655367375535
 40
0.9999999999999999
 40
0.9999999999999999
 40
0.9999999999999999
 40
0.9999999999999999
 10
16.99218749999997
 20
30.05
 30
0.0
 10
17.0593893366208
 20
30.04916959543025
 30
0.0
 10
17.18407100590368
 20
30.04762891986033
 30
0.0
 10
17.35615535971954
 20
30.03505308604005
 30
0.0
 10
17.49848493889353
 20
30.01037327368144
 30
0.0
 10
17.61526324174089
 20
29.9772723647098
 30
0.0
 10
17.71080724522146
 20
29.92772793686249
 30
0.0
 10
17.79182232652217
 20
29.86502220251165
 30
0.0
 10
17.85857752844349
 20
29.78463094995841
 30
0.0
 10
17.91276032017109
 20
29.68586838091437
 30
0.0
 10
17.96110711748976
 20
29.56389184776998
 30
0.0
 10
18.01156515085045
 20
29.4137412292595
 30
0.0
 10
18.06844947633233
 20
29.23288721016775
 30
0.0
 10
18.10320616858731
 20
29.10069290849766
 30
0.0
 10
18.12187499999997
 20
29.0296875
 30
0.0
  0
SPLINE
  5
F5
330
1F
100
AcDbEntity
  8
0
  6
Continuous
 62
     7
370
    25
100
AcDbSpline
210
0.0
220
0.0
230
1.0
 70
     8
 71
     3
 72
    19
 73
    15
 74
     0
 42
0.00000001
 43
0.00000001
 40
0.0
 40
0.0
 40
0.0
 40
0.0
 40
0.0808054949395797
 40
0.155618946088181
 40
0.224101557989859
 40
0.2881021419463152
 40
0.3458147146589941
 40
0.4013919152465198
 40
0.4548615813421165
 40
0.5071038089107806
 40
0.6154832943825812
 40
0.7315449716305458
 40
0.8592924630405542
 40
1.0
 40
1.0
 40
1.0
 40
1.0
 10
15.54999999999997
 20
29.196875
 30
0.0
 10
15.55114005027591
 20
29.23699524650303
 30
0.0
 10
15.5533356116367
 20
29.31426066616623
 30
0.0
 10
15.56326632331842
 20
29.42527032338359
 30
0.0
 10
15.58348147496311
 20
29.52646250851666
 30
0.0
 10
15.61287638868487
 20
29.61648390737676
 30
0.0
 10
15.64963710500444
 20
29.6966562743473
 30
0.0
 10
15.69262382220487
 20
29.76782994993323
 30
0.0
 10
15.7464165511868
 20
29.8278888158864
 30
0.0
 10
15.83057707236332
 20
29.89349228553896
 30
0.0
 10
15.95344096890152
 20
29.95726540593916
 30
0.0
 10
16.12014924552013
 20
30.0119798550679
 30
0.0
 10
16.30916993639762
 20
30.04447378520408
 30
0.0
 10
16.44257651514672
 20
30.04809958158803
 30
0.0
 10
16.51249999999997
 20
30.05
 30
0.0
  0
SPLINE
  5
F7
330
1F
100
AcDbEntity
  8
0
  6
Continuous
 62
     7
370
    25
100
AcDbSpline
210
0.0
220
0.0
230
1.0
 70
     8
 71
     3
 72
    15
 73
    11
 74
     0
 42
0.00000001
 43
0.00000001
 40
0.0
 40
0.0
 40
0.0
 40
0.0
 40
0.1164252417126367
 40
0.2260172273707992
 40
0.3336780487688072
 40
0.4453924966538358
 40
0.5633741212379318
 40
0.6911295140056816
 40
0.8357241808420741
 40
1.0
 40
1.0
 40
1.0
 40
1.0
 10
16.24687499999997
 20
22.25
 30
0.0
 10
16.1976080694921
 20
22.25260453076208
 30
0.0
 10
16.10196579406574
 20
22.25766072659031
 30
0.0
 10
15.96591633113363
 20
22.2998933285235
 30
0.0
 10
15.84403722122033
 20
22.36860342438479
 30
0.0
 10
15.73755648004527
 20
22.46536085664951
 30
0.0
 10
15.65246582954006
 20
22.59172436284104
 30
0.0
 10
15.59112593007977
 20
22.74594489908906
 30
0.0
 10
15.55650158954342
 20
22.9281706533322
 30
0.0
 10
15.55225734394718
 20
23.05870109509922
 30
0.0
 10
15.54999999999997
 20
23.128125
 30
0.0
  0
SPLINE
  5
F8
330
1F
100
AcDbEntity
  8
0
  6
Continuous
 62
     7
370
    25
100
AcDbSpline
210
0.0
220
0.0
230
1.0
 70
     8
 71
     3
 72
    15
 73
    11
 74
     0
 42
0.00000001
 43
0.00000001
 40
0.0
 40
0.0
 40
0.0
 40
0.0
 40
0.1629530925065096
 40
0.3051844539783248
 40
0.4337334127065712
 40
0.5507650652253033
 40
0.6624070172149845
 40
0.7698084909759094
 40
0.8808593852829993
 40
1.0
 40
1.0
 40
1.0
 40
1.0
 10
16.94999999999997
 20
23.1328125
 30
0.0
 10
16.94790746124892
 20
23.06333315731446
 30
0.0
 10
16.94398847888201
 20
22.93320972771823
 30
0.0
 10
16.90740053407566
 20
22.75139428479014
 30
0.0
 10
16.85037269221365
 20
22.5951417688783
 30
0.0
 10
16.76338062762179
 20
22.46846035396254
 30
0.0
 10
16.65765995060599
 20
22.37039564697023
 30
0.0
 10
16.53525119243088
 20
22.29890032891137
 30
0.0
 10
16.39580765773836
 20
22.25772687396607
 30
0.0
 10
16.29766886402932
 20
22.25263527013863
 30
0.0
 10
16.24687499999997
 20
22.25
 30
0.0
  0
SPLINE
  5
FB
330
1F
100
AcDbEntity
  8
0
  6
Continuous
 62
     7
370
    25
100
AcDbSpline
210
0.0
220
0.0
230
1.0
 70
     8
 71
     3
 72
    19
 73
    15
 74
     0
 42
0.00000001
 43
0.00000001
 40
0.0
 40
0.0
 40
0.0
 40
0.0
 40
0.0724110846052929
 40
0.1398042524682972
 40
0.2032735434599125
 40
0.2652671388278003
 40
0.3256712689690667
 40
0.3834501263859065
 40
0.4412915353609778
 40
0.4983714673470009
 40
0.6155204132332702
 40
0.7384208111749049
 40
0.8669363304160089
 40
0.9999999999999999
 40
0.9999999999999999
 40
0.9999999999999999
 40
0.9999999999999999
 10
19.24999999999997
 20
22.25
 30
0.0
 10
19.20562789122537
 20
22.25149155119493
 30
0.0
 10
19.11995855577086
 20
22.25437129261797
 30
0.0
 10
18.99704317707324
 20
22.27664918673703
 30
0.0
 10
18.88399450475873
 20
22.31227875129193
 30
0.0
 10
18.78225277835763
 20
22.36440974739038
 30
0.0
 10
18.69183033940406
 20
22.42832597666236
 30
0.0
 10
18.61303991983297
 20
22.50213093362591
 30
0.0
 10
18.54168624551468
 20
22.58064468109182
 30
0.0
 10
18.46476221382269
 20
22.70067075500377
 30
0.0
 10
18.38636155780631
 20
22.86561468874919
 30
0.0
 10
18.31688660671782
 20
23.08079069076605
 30
0.0
 10
18.25956258309678
 20
23.30917809484201
 30
0.0
 10
18.21697601587456
 20
23.46362257518952
 30
0.0
 10
18.19531249999997
 20
23.5421875
 30
0.0
  0
SPLINE
  5
FC
330
1F
100
AcDbEntity
  8
0
  6
Continuous
 62
     7
370
    25
100
AcDbSpline
210
0.0
220
0.0
230
1.0
 70
     8
 71
     3
 72
    19
 73
    15
 74
     0
 42
0.00000001
 43
0.00000001
 40
0.0
 40
0.0
 40
0.0
 40
0.0
 40
0.1250913797230332
 40
0.23234750310405
 40
0.3223876071969584
 40
0.3952386501894725
 40
0.4597348179968161
 40
0.5258182973670209
 40
0.5944622999157055
 40
0.6675197898375662
 40
0.7422419162602832
 40
0.8207505805721493
 40
0.90581000717838
 40
1.0
 40
1.0
 40
1.0
 40
1.0
 10
20.30468749999998
 20
23.5421875
 30
0.0
 10
20.28572881643731
 20
23.46762720776164
 30
0.0
 10
20.25051453710266
 20
23.32913726728255
 30
0.0
 10
20.19717113521996
 20
23.13814426780412
 30
0.0
 10
20.14981908187002
 20
22.97893443379999
 30
0.0
 10
20.11027668326022
 20
22.84467753783349
 30
0.0
 10
20.06135041241089
 20
22.72920064333548
 30
0.0
 10
19.99869453363463
 20
22.62329332502045
 30
0.0
 10
19.91652000294311
 20
22.52506583625082
 30
0.0
 10
19.82391339157841
 20
22.42908557552898
 30
0.0
 10
19.7098516875836
 20
22.3474557419524
 30
0.0
 10
19.57414127938766
 20
22.28963860366234
 30
0.0
 10
19.4183858437286
 20
22.25503690326887
 30
0.0
 10
19.30800283610025
 20
22.25173503109458
 30
0.0
 10
19.24999999999997
 20
22.25
 30
0.0
  0
SPLINE
  5
FE
330
1F
100
AcDbEntity
  8
0
  6
Continuous
 62
     7
370
    25
100
AcDbSpline
210
0.0
220
0.0
230
1.0
 70
     8
 71
     3
 72
    19
 73
    15
 74
     0
 42
0.00000001
 43
0.00000001
 40
0.0
 40
0.0
 40
0.0
 40
0.0
 40
0.1047581168042639
 40
0.1989239520811405
 40
0.2854590354873246
 40
0.3645611053490589
 40
0.438695516580397
 40
0.5094874232314662
 40
0.5801478955948769
 40
0.6521334350927497
 40
0.7283832577003805
 40
0.8112041591967155
 40
0.9013348244913639
 40
0.9999999999999999
 40
0.9999999999999999
 40
0.9999999999999999
 40
0.9999999999999999
 10
24.64999999999998
 20
29.09375
 30
0.0
 10
24.65120126194765
 20
29.14744535727573
 30
0.0
 10
24.6534823240878
 20
29.24940683771791
 30
0.0
 10
24.67044811349616
 20
29.3949544219235
 30
0.0
 10
24.69931499477369
 20
29.5252625485405
 30
0.0
 10
24.74178274930824
 20
29.64093233935009
 30
0.0
 10
24.79600054236808
 20
29.74274558934104
 30
0.0
 10
24.86631347853515
 20
29.8289138811917
 30
0.0
 10
24.95034592690345
 20
29.89974111730701
 30
0.0
 10
25.04739796399166
 20
29.9572052413403
 30
0.0
 10
25.15888157790182
 20
29.99829188869516
 30
0.0
 10
25.28279466617948
 20
30.03025814229735
 30
0.0
 10
25.42146652976313
 20
30.04621142071962
 30
0.0
 10
25.51819792992495
 20
30.04869964684455
 30
0.0
 10
25.56874999999998
 20
30.05
 30
0.0
  0
SPLINE
  5
100
330
1F
100
AcDbEntity
  8
0
  6
Continuous
 62
     7
370
    25
100
AcDbSpline
210
0.0
220
0.0
230
1.0
 70
     8
 71
     3
 72
    15
 73
    11
 74
     0
 42
0.00000001
 43
0.00000001
 40
0.0
 40
0.0
 40
0.0
 40
0.0
 40
0.148682021362971
 40
0.2766809162915556
 40
0.3899992311230661
 40
0.4935016383715989
 40
0.59842667255262
 40
0.7146969950159785
 40
0.8472597142252059
 40
0.9999999999999999
 40
0.9999999999999999
 40
0.9999999999999999
 40
0.9999999999999999
 10
25.56874999999998
 20
22.35
 30
0.0
 10
25.49247503732606
 20
22.35221970624054
 30
0.0
 10
25.35053570687262
 20
22.35635033582774
 30
0.0
 10
25.15387954243695
 20
22.39831005728024
 30
0.0
 10
24.98996276004974
 20
22.46771299361487
 30
0.0
 10
24.8574736196922
 20
22.56981502413559
 30
0.0
 10
24.76169223353199
 20
22.70846099695321
 30
0.0
 10
24.69482092307162
 20
22.87823322821759
 30
0.0
 10
24.65752672343175
 20
23.08174907076924
 30
0.0
 10
24.6526244755077
 20
23.22796929850127
 30
0.0
 10
24.64999999999998
 20
23.30625
 30
0.0
  0
SPLINE
  5
102
330
1F
100
AcDbEntity
  8
0
  6
Continuous
 62
     7
370
    25
100
AcDbSpline
210
0.0
220
0.0
230
1.0
 70
     8
 71
     3
 72
    15
 73
    11
 74
     0
 42
0.00000001
 43
0.00000001
 40
0.0
 40
0.0
 40
0.0
 40
0.0
 40
0.1180930132284009
 40
0.2278811934031612
 40
0.3365199297434482
 40
0.4495744961859418
 40
0.5676228364362992
 40
0.6960131875362374
 40
0.8384494934333615
 40
1.0
 40
1.0
 40
1.0
 40
1.0
 10
30.54374999999998
 20
22.9453125
 30
0.0
 10
30.54219164581917
 20
22.90278967044348
 30
0.0
 10
30.5391845279486
 20
22.8207344083978
 30
0.0
 10
30.50030769002258
 20
22.70509237257667
 30
0.0
 10
30.44219058357389
 20
22.60050828987822
 30
0.0
 10
30.35772226877125
 20
22.51109727738936
 30
0.0
 10
30.25070293625395
 20
22.43737618652236
 30
0.0
 10
30.11967535971636
 20
22.38687756894587
 30
0.0
 10
29.96709590730886
 20
22.35549324001588
 30
0.0
 10
29.85798553062765
 20
22.35190626115454
 30
0.0
 10
29.79999999999998
 20
22.35
 30
0.0
  0
SPLINE
  5
103
330
1F
100
AcDbEntity
  8
0
  6
Continuous
 62
     7
370
    25
100
AcDbSpline
210
0.0
220
0.0
230
1.0
 70
     8
 71
     3
 72
    15
 73
    11
 74
     0
 42
0.00000001
 43
0.00000001
 40
0.0
 40
0.0
 40
0.0
 40
0.0
 40
0.1601765059084961
 40
0.3011147023523773
 40
0.4289577380566904
 40
0.5460020672355649
 40
0.6580950950732017
 40
0.7670637804294651
 40
0.8800414759407686
 40
1.0
 40
1.0
 40
1.0
 40
1.0
 10
29.79999999999998
 20
23.55
 30
0.0
 10
29.85792105607103
 20
23.54783271394619
 30
0.0
 10
29.96680644759489
 20
23.54375844792756
 30
0.0
 10
30.12028131549368
 20
23.51562353474571
 30
0.0
 10
30.25034120683166
 20
23.46217970009566
 30
0.0
 10
30.35773932855865
 20
23.3890154755729
 30
0.0
 10
30.44261259164724
 20
23.29921559290006
 30
0.0
 10
30.50099196256306
 20
23.19243421180921
 30
0.0
 10
30.53891324012066
 20
23.07337180428957
 30
0.0
 10
30.54210585373023
 20
22.98884334145325
 30
0.0
 10
30.54374999999999
 20
22.9453125
 30
0.0
  0
SPLINE
  5
107
330
1F
100
AcDbEntity
  8
0
  6
Continuous
 62
     7
370
    25
100
AcDbSpline
210
0.0
220
0.0
230
1.0
 70
     8
 71
     3
 72
    15
 73
    11
 74
     0
 42
0.00000001
 43
0.00000001
 40
0.0
 40
0.0
 40
0.0
 40
0.0
 40
0.1214000302501858
 40
0.2334511404134529
 40
0.3436518189027424
 40
0.4556543695360323
 40
0.5715994187197498
 40
0.6971149706786451
 40
0.8388803614285761
 40
1.0
 40
1.0
 40
1.0
 40
1.0
 10
30.11093749999998
 20
26.3546875
 30
0.0
 10
30.10907680800565
 20
26.31173329352196
 30
0.0
 10
30.10549871443237
 20
26.22913274995383
 30
0.0
 10
30.07107940868089
 20
26.111555816424
 30
0.0
 10
30.01567011681921
 20
26.00652670838067
 30
0.0
 10
29.9381533423834
 20
25.91439374723518
 30
0.0
 10
29.83708917536622
 20
25.83916805542092
 30
0.0
 10
29.71150705607734
 20
25.78588198193031
 30
0.0
 10
29.56234809554159
 20
25.75572173402877
 30
0.0
 10
29.45535334102292
 20
25.75198679837188
 30
0.0
 10
29.39843749999998
 20
25.75
 30
0.0
  0
SPLINE
  5
108
330
1F
100
AcDbEntity
  8
0
  6
Continuous
 62
     7
370
    25
100
AcDbSpline
210
0.0
220
0.0
230
1.0
 70
     8
 71
     3
 72
    15
 73
    11
 74
     0
 42
0.00000001
 43
0.00000001
 40
0.0
 40
0.0
 40
0.0
 40
0.0
 40
0.1606616540137167
 40
0.3015712460615745
 40
0.42729825318686
 40
0.5443004148535047
 40
0.6547630562283039
 40
0.7650659828745295
 40
0.8778288393223637
 40
1.0
 40
1.0
 40
1.0
 40
1.0
 10
29.39843749999998
 20
26.95
 30
0.0
 10
29.4548082832413
 20
26.94786660637536
 30
0.0
 10
29.56061951397903
 20
26.94386210276389
 30
0.0
 10
29.70873519115908
 20
26.9155366509459
 30
0.0
 10
29.83399973578296
 20
26.86354666802095
 30
0.0
 10
29.9359076924292
 20
26.79099638218108
 30
0.0
 10
30.01417346470117
 20
26.70076129109653
 30
0.0
 10
30.07170653345581
 20
26.59789355054422
 30
0.0
 10
30.1053414958743
 20
26.48016536599583
 30
0.0
 10
30.10902302112461
 20
26.39761540326471
 30
0.0
 10
30.11093749999998
 20
26.3546875
 30
0.0
  0
SPLINE
  5
10C
330
1F
100
AcDbEntity
  8
0
  6
Continuous
 62
     7
370
    25
100
AcDbSpline
210
0.0
220
0.0
230
1.0
 70
     8
 71
     3
 72
    15
 73
    11
 74
     0
 42
0.00000001
 43
0.00000001
 40
0.0
 40
0.0
 40
0.0
 40
0.0
 40
0.1202674367482453
 40
0.2331211802607905
 40
0.3423704776858977
 40
0.4528060128971519
 40
0.5689642899254947
 40
0.6952521559714504
 40
0.8379699713073441
 40
1.0
 40
1.0
 40
1.0
 40
1.0
 10
30.41718749999998
 20
29.453125
 30
0.0
 10
30.41535560169229
 20
29.40965823739147
 30
0.0
 10
30.41180472950983
 20
29.32540415103703
 30
0.0
 10
30.37656188919351
 20
29.20559861637662
 30
0.0
 10
30.31730281325321
 20
29.10032551198225
 30
0.0
 10
30.23611789612436
 20
29.00899014501308
 30
0.0
 10
30.1303172985456
 20
28.93607302765905
 30
0.0
 10
30.00027399712281
 20
28.8843166300149
 30
0.0
 10
29.84650022718408
 20
28.85620871931129
 30
0.0
 10
29.73657216402838
 20
28.85215519849363
 30
0.0
 10
29.67812499999998
 20
28.85
 30
0.0
  0
SPLINE
  5
10D
330
1F
100
AcDbEntity
  8
0
  6
Continuous
 62
     7
370
    25
100
AcDbSpline
210
0.0
220
0.0
230
1.0
 70
     8
 71
     3
 72
    15
 73
    11
 74
     0
 42
0.00000001
 43
0.00000001
 40
0.0
 40
0.0
 40
0.0
 40
0.0
 40
0.1630441351562429
 40
0.3066551865186247
 40
0.4342887309444182
 40
0.5511740143214239
 40
0.6623007386349148
 40
0.7697084995010949
 40
0.8818751392584868
 40
0.9999999999999999
 40
0.9999999999999999
 40
0.9999999999999999
 40
0.9999999999999999
 10
29.67812499999998
 20
30.05
 30
0.0
 10
29.73654713176722
 20
30.04778672284599
 30
0.0
 10
29.84642811397323
 20
30.04362396705091
 30
0.0
 10
30.0007082895064
 20
30.01619825586151
 30
0.0
 10
30.12992930250241
 20
29.96200798247206
 30
0.0
 10
30.23628278219395
 20
29.8896264284732
 30
0.0
 10
30.31626830927117
 20
29.79852489394001
 30
0.0
 10
30.37702983733927
 20
29.69581664189784
 30
0.0
 10
30.41156459981899
 20
29.5781947600151
 30
0.0
 10
30.41528114778828
 20
29.49552785367817
 30
0.0
 10
30.41718749999998
 20
29.453125
 30
0.0
  0
SPLINE
  5
10F
330
1F
100
AcDbEntity
  8
0
  6
Continuous
 62
     7
370
    25
100
AcDbSpline
210
0.0
220
0.0
230
1.0
 70
     8
 71
     3
 72
    15
 73
    11
 74
     0
 42
0.00000001
 43
0.00000001
 40
0.0
 40
0.0
 40
0.0
 40
0.0
 40
0.1242408282818784
 40
0.2395741674140947
 40
0.3492112529738772
 40
0.4615312624092405
 40
0.5787018302885861
 40
0.7048654012499928
 40
0.8436535457254413
 40
1.0
 40
1.0
 40
1.0
 40
1.0
 10
31.04999999999997
 20
29.396875
 30
0.0
 10
31.05200333063843
 20
29.44511342118692
 30
0.0
 10
31.05586636243241
 20
29.53813179327156
 30
0.0
 10
31.09667311016836
 20
29.66848672622431
 30
0.0
 10
31.1601814168986
 20
29.78376401209289
 30
0.0
 10
31.25150261910553
 20
29.8798838777771
 30
0.0
 10
31.36622072440918
 20
29.95798554965661
 30
0.0
 10
31.50508767893118
 20
30.0117729477712
 30
0.0
 10
31.66564407846449
 20
30.04480554836347
 30
0.0
 10
31.78002966279924
 20
30.04820117790142
 30
0.0
 10
31.84062499999997
 20
30.05
 30
0.0
  0
SPLINE
  5
110
330
1F
100
AcDbEntity
  8
0
  6
Continuous
 62
     7
370
    25
100
AcDbSpline
210
0.0
220
0.0
230
1.0
 70
     8
 71
     3
 72
    15
 73
    11
 74
     0
 42
0.00000001
 43
0.00000001
 40
0.0
 40
0.0
 40
0.0
 40
0.0
 40
0.16227190742404
 40
0.3044553260389207
 40
0.4310506534175565
 40
0.5482806941707624
 40
0.660165523506958
 40
0.7683402437021959
 40
0.8807126617632767
 40
1.0
 40
1.0
 40
1.0
 40
1.0
 10
31.84062499999997
 20
28.75
 30
0.0
 10
31.77790561750484
 20
28.75155627947052
 30
0.0
 10
31.66023121316933
 20
28.75447617842979
 30
0.0
 10
31.4969068183493
 20
28.78985228448024
 30
0.0
 10
31.35674042281901
 20
28.84298862555415
 30
0.0
 10
31.24332571053944
 20
28.92292139640287
 30
0.0
 10
31.15653953844329
 20
29.02122120346696
 30
0.0
 10
31.09315204958585
 20
29.1338692662905
 30
0.0
 10
31.05707963386991
 20
29.26137560905895
 30
0.0
 10
31.05240637604122
 20
29.35081859454808
 30
0.0
 10
31.04999999999997
 20
29.396875
 30
0.0
  0
SPLINE
  5
113
330
1F
100
AcDbEntity
  8
0
  6
Continuous
 62
     7
370
    25
100
AcDbSpline
210
0.0
220
0.0
230
1.0
 70
     8
 71
     3
 72
    15
 73
    11
 74
     0
 42
0.00000001
 43
0.00000001
 40
0.0
 40
0.0
 40
0.0
 40
0.0
 40
0.1170739408899531
 40
0.2273634513310601
 40
0.3358604885361415
 40
0.447534009066605
 40
0.565835342484211
 40
0.6936494833443099
 40
0.8373880369278182
 40
1.0
 40
1.0
 40
1.0
 40
1.0
 10
34.30468749999997
 20
22.25
 30
0.0
 10
34.25114268330454
 20
22.25212462299169
 30
0.0
 10
34.14715597001705
 20
22.25625074715303
 30
0.0
 10
34.00056397928723
 20
22.30518176461262
 30
0.0
 10
33.86691443453581
 20
22.37669795150381
 30
0.0
 10
33.75329525368404
 20
22.48311717948477
 30
0.0
 10
33.65862599291761
 20
22.61765802268073
 30
0.0
 10
33.59691244765585
 20
22.78555492630731
 30
0.0
 10
33.55482743513371
 20
22.97968454033134
 30
0.0
 10
33.5516739051366
 20
23.11952315643062
 30
0.0
 10
33.54999999999997
 20
23.19375
 30
0.0
  0
SPLINE
  5
114
330
1F
100
AcDbEntity
  8
0
  6
Continuous
 62
     7
370
    25
100
AcDbSpline
210
0.0
220
0.0
230
1.0
 70
     8
 71
     3
 72
    15
 73
    11
 74
     0
 42
0.00000001
 43
0.00000001
 40
0.0
 40
0.0
 40
0.0
 40
0.0
 40
0.1655964407989139
 40
0.3097132875407083
 40
0.439561993036571
 40
0.556768895924424
 40
0.6672951569545891
 40
0.7742509049746189
 40
0.8835718141545696
 40
1.0
 40
1.0
 40
1.0
 40
1.0
 10
35.04999999999997
 20
23.19375
 30
0.0
 10
35.04814868280952
 20
23.11853568141976
 30
0.0
 10
35.04468618367265
 20
22.97786312973184
 30
0.0
 10
35.00528816320599
 20
22.78140494232226
 30
0.0
 10
34.94147777248781
 20
22.61449213244648
 30
0.0
 10
34.84854970716378
 20
22.47973794625162
 30
0.0
 10
34.735904266746
 20
22.37596867390468
 30
0.0
 10
34.60582586098445
 20
22.30272153751176
 30
0.0
 10
34.46031622008577
 20
22.25684000632001
 30
0.0
 10
34.3576412481241
 20
22.25232735944649
 30
0.0
 10
34.30468749999997
 20
22.25
 30
0.0
  0
SPLINE
  5
117
330
1F
100
AcDbEntity
  8
0
  6
Continuous
 62
     7
370
    25
100
AcDbSpline
210
0.0
220
0.0
230
1.0
 70
     8
 71
     3
 72
    15
 73
    11
 74
     0
 42
0.00000001
 43
0.00000001
 40
0.0
 40
0.0
 40
0.0
 40
0.0
 40
0.1184645462930532
 40
0.230439715942463
 40
0.3385271411479046
 40
0.4505344091696636
 40
0.5680545142844728
 40
0.6950214110918133
 40
0.8388473732983402
 40
1.0
 40
1.0
 40
1.0
 40
1.0
 10
37.55937499999998
 20
29.396875
 30
0.0
 10
37.55710988928126
 20
29.35078420698468
 30
0.0
 10
37.55270374848276
 20
29.26112743133015
 30
0.0
 10
37.51452031812767
 20
29.13371070223128
 30
0.0
 10
37.44963314097727
 20
29.02112434849586
 30
0.0
 10
37.36124806173634
 20
28.92285560065152
 30
0.0
 10
37.24629099443627
 20
28.84299417626251
 30
0.0
 10
37.10414779052122
 20
28.7896159267101
 30
0.0
 10
36.93918252507341
 20
28.75475788460882
 30
0.0
 10
36.82051642320171
 20
28.75164491365645
 30
0.0
 10
36.75781249999997
 20
28.75
 30
0.0
  0
SPLINE
  5
118
330
1F
100
AcDbEntity
  8
0
  6
Continuous
 62
     7
370
    25
100
AcDbSpline
210
0.0
220
0.0
230
1.0
 70
     8
 71
     3
 72
    15
 73
    11
 74
     0
 42
0.00000001
 43
0.00000001
 40
0.0
 40
0.0
 40
0.0
 40
0.0
 40
0.1630620563492698
 40
0.3062143059784063
 40
0.4330856666239282
 40
0.5497351712894406
 40
0.6612177725259609
 40
0.7693107538467227
 40
0.8807614070667562
 40
1.0
 40
1.0
 40
1.0
 40
1.0
 10
36.75781249999997
 20
30.05
 30
0.0
 10
36.82155919106453
 20
30.04838674460175
 30
0.0
 10
36.94126912972092
 20
30.04535721159326
 30
0.0
 10
37.10750979196511
 20
30.01065928997914
 30
0.0
 10
37.24951902095722
 20
29.95589916383096
 30
0.0
 10
37.36231806138436
 20
29.87332355297328
 30
0.0
 10
37.45211365450977
 20
29.77610946987831
 30
0.0
 10
37.5137271108561
 20
29.66136563642968
 30
0.0
 10
37.55305823064464
 20
29.53379908378529
 30
0.0
 10
37.55722254853519
 20
29.44353214831908
 30
0.0
 10
37.55937499999998
 20
29.396875
 30
0.0
  0
SPLINE
  5
119
330
1F
100
AcDbEntity
  8
0
  6
Continuous
 62
     7
370
    25
100
AcDbSpline
210
0.0
220
0.0
230
1.0
 70
     8
 71
     3
 72
    19
 73
    15
 74
     0
 42
0.00000001
 43
0.00000001
 40
0.0
 40
0.0
 40
0.0
 40
0.0
 40
0.1160043110260766
 40
0.2234196456922102
 40
0.3205826234320535
 40
0.4099664910251645
 40
0.4910449969200149
 40
0.5662734955398279
 40
0.6362467488150381
 40
0.7033921978152508
 40
0.7701770441446828
 40
0.8407100792725418
 40
0.9164048652587844
 40
1.0
 40
1.0
 40
1.0
 40
1.0
 10
41.5328125
 20
26.75
 30
0.0
 10
41.62189971373282
 20
26.75127688955076
 30
0.0
 10
41.79347811070652
 20
26.75373612756091
 30
0.0
 10
42.03927962872824
 20
26.77014167795534
 30
0.0
 10
42.26328674840997
 20
26.79962873525612
 30
0.0
 10
42.46476734987687
 20
26.8408366441909
 30
0.0
 10
42.64602590724199
 20
26.89542607814665
 30
0.0
 10
42.80271865449124
 20
26.97172563006144
 30
0.0
 10
42.94066320085656
 20
27.06002503152026
 30
0.0
 10
43.0534924114157
 20
27.17007616451513
 30
0.0
 10
43.14420718115084
 20
27.29966341664445
 30
0.0
 10
43.2056347107877
 20
27.45245570522501
 30
0.0
 10
43.24390155533893
 20
27.62572811236461
 30
0.0
 10
43.24790106352087
 20
27.74821765425162
 30
0.0
 10
43.24999999999999
 20
27.8125
 30
0.0
  0
SPLINE
  5
11D
330
1F
100
AcDbEntity
  8
0
  6
Continuous
 62
     7
370
    25
100
AcDbSpline
210
0.0
220
0.0
230
1.0
 70
     8
 71
     3
 72
    15
 73
    11
 74
     0
 42
0.00000001
 43
0.00000001
 40
0.0
 40
0.0
 40
0.0
 40
0.0
 40
0.1318197481159214
 40
0.2582495437293145
 40
0.3802061098165428
 40
0.50335899302254
 40
0.6256410182784522
 40
0.747872473468881
 40
0.8710181847397934
 40
1.0
 40
1.0
 40
1.0
 40
1.0
 10
43.24999999999999
 20
27.8125
 30
0.0
 10
43.24857156637005
 20
27.86424570505788
 30
0.0
 10
43.24577310606002
 20
27.96562129492317
 30
0.0
 10
43.21289303080517
 20
28.11176513008195
 30
0.0
 10
43.16268478378669
 20
28.24889335021416
 30
0.0
 10
43.09201913802909
 20
28.37494388794422
 30
0.0
 10
43.00470588224543
 20
28.49034833621927
 30
0.0
 10
42.89856834168992
 20
28.58853074752039
 30
0.0
 10
42.7784627329527
 20
28.67405931536465
 30
0.0
 10
42.6883081929188
 20
28.71499558201458
 30
0.0
 10
42.64218749999999
 20
28.7359375
 30
0.0
  0
SPLINE
  5
11E
330
1F
100
AcDbEntity
  8
0
  6
Continuous
 62
     7
370
    25
100
AcDbSpline
210
0.0
220
0.0
230
1.0
 70
     8
 71
     3
 72
    15
 73
    11
 74
     0
 42
0.00000001
 43
0.00000001
 40
0.0
 40
0.0
 40
0.0
 40
0.0
 40
0.0751593444880825
 40
0.1633778205362415
 40
0.266296542049839
 40
0.3833175794359109
 40
0.5142533600420568
 40
0.6607945581205585
 40
0.8232004060776953
 40
1.0
 40
1.0
 40
1.0
 40
1.0
 10
42.64218749999999
 20
28.7359375
 30
0.0
 10
42.61680369185375
 20
28.74521542024034
 30
0.0
 10
42.56162557288412
 20
28.76538332349043
 30
0.0
 10
42.46852235688618
 20
28.78846485177837
 30
0.0
 10
42.35908509499693
 20
28.80569021271335
 30
0.0
 10
42.23425311475754
 20
28.82374115451801
 30
0.0
 10
42.09289352138221
 20
28.83581941388194
 30
0.0
 10
41.93493044023806
 20
28.84240534966543
 30
0.0
 10
41.76048022742259
 20
28.84981546385964
 30
0.0
 10
41.6385513737535
 20
28.84993677210024
 30
0.0
 10
41.575
 20
28.85
 30
0.0
  0
LINE
  5
11F
330
1F
100
AcDbEntity
  8
0
  6
Continuous
 62
     7
370
    25
100
AcDbLine
 10
65.1125
 20
25.25
 30
0.0
 11
63.6734375
 21
23.0421875
 31
0.0
  0
LINE
  5
120
330
1F
100
AcDbEntity
  8
0
  6
Continuous
 62
     7
370
    25
100
AcDbLine
 10
66.46875
 20
23.10625
 30
0.0
 11
65.1125
 21
25.25
 31
0.0
  0
LINE
  5
121
330
1F
100
AcDbEntity
  8
0
  6
Continuous
 62
     7
370
    25
100
AcDbLine
 10
66.0953125
 20
26.4078125
 30
0.0
 11
67.7296875
 21
23.884375
 31
0.0
  0
LINE
  5
122
330
1F
100
AcDbEntity
  8
0
  6
Continuous
 62
     7
370
    25
100
AcDbLine
 10
67.6140625
 20
28.690625
 30
0.0
 11
66.0953125
 21
26.4078125
 31
0.0
  0
LINE
  5
123
330
1F
100
AcDbEntity
  8
0
  6
Continuous
 62
     7
370
    25
100
AcDbLine
 10
65.1390625
 20
27.45
 30
0.0
 11
66.3734375
 21
29.3375
 31
0.0
  0
LINE
  5
124
330
1F
100
AcDbEntity
  8
0
  6
Continuous
 62
     7
370
    25
100
AcDbLine
 10
63.9828125
 20
29.3375
 30
0.0
 11
65.1390625
 21
27.45
 31
0.0
  0
LINE
  5
125
330
1F
100
AcDbEntity
  8
0
  6
Continuous
 62
     7
370
    25
100
AcDbLine
 10
64.15625
 20
26.4078125
 30
0.0
 11
62.70625
 21
28.659375
 31
0.0
  0
LINE
  5
126
330
1F
100
AcDbEntity
  8
0
  6
Continuous
 62
     7
370
    25
100
AcDbLine
 10
62.4328125
 20
23.884375
 30
0.0
 11
64.15625
 21
26.4078125
 31
0.0
  0
LINE
  5
127
330
1F
100
AcDbEntity
  8
0
  6
Continuous
 62
     7
370
    25
100
AcDbLine
 10
55.940625
 20
30.05
 30
0.0
 11
60.8578125
 21
30.05
 31
0.0
  0
LINE
  5
128
330
1F
100
AcDbEntity
  8
0
  6
Continuous
 62
     7
370
    25
100
AcDbLine
 10
57.65
 20
28.75
 30
0.0
 11
55.940625
 21
28.75
 31
0.0
  0
LINE
  5
129
330
1F
100
AcDbEntity
  8
0
  6
Continuous
 62
     7
370
    25
100
AcDbLine
 10
57.65
 20
23.19375
 30
0.0
 11
57.65
 21
28.75
 31
0.0
  0
LINE
  5
12A
330
1F
100
AcDbEntity
  8
0
  6
Continuous
 62
     7
370
    25
100
AcDbLine
 10
59.15
 20
28.75
 30
0.0
 11
59.15
 21
23.19375
 31
0.0
  0
LINE
  5
12B
330
1F
100
AcDbEntity
  8
0
  6
Continuous
 62
     7
370
    25
100
AcDbLine
 10
60.8578125
 20
28.75
 30
0.0
 11
59.15
 21
28.75
 31
0.0
  0
LINE
  5
12C
330
1F
100
AcDbEntity
  8
0
  6
Continuous
 62
     7
370
    25
100
AcDbLine
 10
49.65
 20
25.659375
 30
0.0
 11
49.65
 21
23.2046875
 31
0.0
  0
LINE
  5
12D
330
1F
100
AcDbEntity
  8
0
  6
Continuous
 62
     7
370
    25
100
AcDbLine
 10
51.5859375
 20
28.6296875
 30
0.0
 11
49.65
 21
25.659375
 31
0.0
  0
LINE
  5
12E
330
1F
100
AcDbEntity
  8
0
  6
Continuous
 62
     7
370
    25
100
AcDbLine
 10
48.928125
 20
26.95
 30
0.0
 11
50.35625
 21
29.3296875
 31
0.0
  0
LINE
  5
12F
330
1F
100
AcDbEntity
  8
0
  6
Continuous
 62
     7
370
    25
100
AcDbLine
 10
47.5171875
 20
29.3296875
 30
0.0
 11
48.928125
 21
26.95
 31
0.0
  0
LINE
  5
130
330
1F
100
AcDbEntity
  8
0
  6
Continuous
 62
     7
370
    25
100
AcDbLine
 10
48.15
 20
25.659375
 30
0.0
 11
46.2609375
 21
28.5875
 31
0.0
  0
LINE
  5
131
330
1F
100
AcDbEntity
  8
0
  6
Continuous
 62
     7
370
    25
100
AcDbLine
 10
48.15
 20
23.2046875
 30
0.0
 11
48.15
 21
25.659375
 31
0.0
  0
LINE
  5
132
330
1F
100
AcDbEntity
  8
0
  6
Continuous
 62
     7
370
    25
100
AcDbLine
 10
39.590625
 20
30.05
 30
0.0
 11
42.084375
 21
30.05
 31
0.0
  0
LINE
  5
133
330
1F
100
AcDbEntity
  8
0
  6
Continuous
 62
     7
370
    25
100
AcDbLine
 10
38.65
 20
23.196875
 30
0.0
 11
38.65
 21
29.0984375
 31
0.0
  0
LINE
  5
134
330
1F
100
AcDbEntity
  8
0
  6
Continuous
 62
     7
370
    25
100
AcDbLine
 10
40.15
 20
25.65
 30
0.0
 11
40.15
 21
23.19375
 31
0.0
  0
LINE
  5
135
330
1F
100
AcDbEntity
  8
0
  6
Continuous
 62
     7
370
    25
100
AcDbLine
 10
40.690625
 20
25.65
 30
0.0
 11
40.15
 21
25.65
 31
0.0
  0
LINE
  5
136
330
1F
100
AcDbEntity
  8
0
  6
Continuous
 62
     7
370
    25
100
AcDbLine
 10
43.1296875
 20
23.2359375
 30
0.0
 11
42.5015625
 21
24.26875
 31
0.0
  0
LINE
  5
137
330
1F
100
AcDbEntity
  8
0
  6
Continuous
 62
     7
370
    25
100
AcDbLine
 10
-75.35
 20
-37.35
 30
0.0
 11
75.35
 21
-37.35
 31
0.0
  0
LINE
  5
138
330
1F
100
AcDbEntity
  8
0
  6
Continuous
 62
     7
370
    25
100
AcDbLine
 10
-75.35
 20
37.35
 30
0.0
 11
-75.35
 21
-37.35
 31
0.0
  0
LINE
  5
139
330
1F
100
AcDbEntity
  8
0
  6
Continuous
 62
     7
370
    25
100
AcDbLine
 10
75.35
 20
37.35
 30
0.0
 11
-75.35
 21
37.35
 31
0.0
  0
LINE
  5
13A
330
1F
100
AcDbEntity
  8
0
  6
Continuous
 62
     7
370
    25
100
AcDbLine
 10
75.35
 20
-37.35
 30
0.0
 11
75.35
 21
37.35
 31
0.0
  0
LINE
  5
13B
330
1F
100
AcDbEntity
  8
0
  6
Continuous
 62
     7
370
    25
100
AcDbLine
 10
-12.059375
 20
30.05
 30
0.0
 11
-7.1421875
 21
30.05
 31
0.0
  0
LINE
  5
13C
330
1F
100
AcDbEntity
  8
0
  6
Continuous
 62
     7
370
    25
100
AcDbLine
 10
-10.35
 20
28.75
 30
0.0
 11
-12.059375
 21
28.75
 31
0.0
  0
LINE
  5
13D
330
1F
100
AcDbEntity
  8
0
  6
Continuous
 62
     7
370
    25
100
AcDbLine
 10
-10.35
 20
23.19375
 30
0.0
 11
-10.35
 21
28.75
 31
0.0
  0
LINE
  5
13E
330
1F
100
AcDbEntity
  8
0
  6
Continuous
 62
     7
370
    25
100
AcDbLine
 10
-8.85
 20
28.75
 30
0.0
 11
-8.85
 21
23.19375
 31
0.0
  0
LINE
  5
13F
330
1F
100
AcDbEntity
  8
0
  6
Continuous
 62
     7
370
    25
100
AcDbLine
 10
-7.1421875
 20
28.75
 30
0.0
 11
-8.85
 21
28.75
 31
0.0
  0
LINE
  5
140
330
1F
100
AcDbEntity
  8
0
  6
Continuous
 62
     7
370
    25
100
AcDbLine
 10
-4.33125
 20
30.05
 30
0.0
 11
-0.221875
 21
30.05
 31
0.0
  0
LINE
  5
141
330
1F
100
AcDbEntity
  8
0
  6
Continuous
 62
     7
370
    25
100
AcDbLine
 10
-5.25
 20
23.30625
 30
0.0
 11
-5.25
 21
29.09375
 31
0.0
  0
LINE
  5
142
330
1F
100
AcDbEntity
  8
0
  6
Continuous
 62
     7
370
    25
100
AcDbLine
 10
-0.1
 20
22.35
 30
0.0
 11
-4.33125
 21
22.35
 31
0.0
  0
LINE
  5
143
330
1F
100
AcDbEntity
  8
0
  6
Continuous
 62
     7
370
    25
100
AcDbLine
 10
-3.75
 20
23.55
 30
0.0
 11
-0.1
 21
23.55
 31
0.0
  0
LINE
  5
144
330
1F
100
AcDbEntity
  8
0
  6
Continuous
 62
     7
370
    25
100
AcDbLine
 10
-3.75
 20
25.75
 30
0.0
 11
-3.75
 21
23.55
 31
0.0
  0
LINE
  5
145
330
1F
100
AcDbEntity
  8
0
  6
Continuous
 62
     7
370
    25
100
AcDbLine
 10
-0.5015625
 20
25.75
 30
0.0
 11
-3.75
 21
25.75
 31
0.0
  0
LINE
  5
146
330
1F
100
AcDbEntity
  8
0
  6
Continuous
 62
     7
370
    25
100
AcDbLine
 10
-3.75
 20
26.95
 30
0.0
 11
-0.5015625
 21
26.95
 31
0.0
  0
LINE
  5
147
330
1F
100
AcDbEntity
  8
0
  6
Continuous
 62
     7
370
    25
100
AcDbLine
 10
-3.75
 20
28.85
 30
0.0
 11
-3.75
 21
26.95
 31
0.0
  0
LINE
  5
148
330
1F
100
AcDbEntity
  8
0
  6
Continuous
 62
     7
370
    25
100
AcDbLine
 10
-0.221875
 20
28.85
 30
0.0
 11
-3.75
 21
28.85
 31
0.0
  0
LINE
  5
149
330
1F
100
AcDbEntity
  8
0
  6
Continuous
 62
     7
370
    25
100
AcDbLine
 10
1.85
 20
23.3140625
 30
0.0
 11
1.85
 21
29.296875
 31
0.0
  0
LINE
  5
14A
330
1F
100
AcDbEntity
  8
0
  6
Continuous
 62
     7
370
    25
100
AcDbLine
 10
6.525
 20
22.35
 30
0.0
 11
2.76875
 21
22.35
 31
0.0
  0
LINE
  5
14B
330
1F
100
AcDbEntity
  8
0
  6
Continuous
 62
     7
370
    25
100
AcDbLine
 10
3.35
 20
23.65
 30
0.0
 11
6.525
 21
23.65
 31
0.0
  0
LINE
  5
14C
330
1F
100
AcDbEntity
  8
0
  6
Continuous
 62
     7
370
    25
100
AcDbLine
 10
3.35
 20
29.296875
 30
0.0
 11
3.35
 21
23.65
 31
0.0
  0
LINE
  5
14D
330
1F
100
AcDbEntity
  8
0
  6
Continuous
 62
     7
370
    25
100
AcDbLine
 10
9.36875
 20
30.05
 30
0.0
 11
13.478125
 21
30.05
 31
0.0
  0
LINE
  5
14E
330
1F
100
AcDbEntity
  8
0
  6
Continuous
 62
     7
370
    25
100
AcDbLine
 10
8.45
 20
23.30625
 30
0.0
 11
8.45
 21
29.09375
 31
0.0
  0
LINE
  5
14F
330
1F
100
AcDbEntity
  8
0
  6
Continuous
 62
     7
370
    25
100
AcDbLine
 10
13.6
 20
22.35
 30
0.0
 11
9.36875
 21
22.35
 31
0.0
  0
LINE
  5
150
330
1F
100
AcDbEntity
  8
0
  6
Continuous
 62
     7
370
    25
100
AcDbLine
 10
9.95
 20
23.55
 30
0.0
 11
13.6
 21
23.55
 31
0.0
  0
LINE
  5
151
330
1F
100
AcDbEntity
  8
0
  6
Continuous
 62
     7
370
    25
100
AcDbLine
 10
9.95
 20
25.75
 30
0.0
 11
9.95
 21
23.55
 31
0.0
  0
LINE
  5
152
330
1F
100
AcDbEntity
  8
0
  6
Continuous
 62
     7
370
    25
100
AcDbLine
 10
13.1984375
 20
25.75
 30
0.0
 11
9.95
 21
25.75
 31
0.0
  0
LINE
  5
153
330
1F
100
AcDbEntity
  8
0
  6
Continuous
 62
     7
370
    25
100
AcDbLine
 10
9.95
 20
26.95
 30
0.0
 11
13.1984375
 21
26.95
 31
0.0
  0
LINE
  5
154
330
1F
100
AcDbEntity
  8
0
  6
Continuous
 62
     7
370
    25
100
AcDbLine
 10
9.95
 20
28.85
 30
0.0
 11
9.95
 21
26.95
 31
0.0
  0
LINE
  5
155
330
1F
100
AcDbEntity
  8
0
  6
Continuous
 62
     7
370
    25
100
AcDbLine
 10
13.478125
 20
28.85
 30
0.0
 11
9.95
 21
28.85
 31
0.0
  0
LINE
  5
156
330
1F
100
AcDbEntity
  8
0
  6
Continuous
 62
     7
370
    25
100
AcDbLine
 10
21.55
 20
28.45
 30
0.0
 11
20.3046875
 21
23.5421875
 31
0.0
  0
LINE
  5
157
330
1F
100
AcDbEntity
  8
0
  6
Continuous
 62
     7
370
    25
100
AcDbLine
 10
21.55
 20
23.1328125
 30
0.0
 11
21.55
 21
28.45
 31
0.0
  0
LINE
  5
158
330
1F
100
AcDbEntity
  8
0
  6
Continuous
 62
     7
370
    25
100
AcDbLine
 10
22.95
 20
29.196875
 30
0.0
 11
22.95
 21
23.128125
 31
0.0
  0
LINE
  5
159
330
1F
100
AcDbEntity
  8
0
  6
Continuous
 62
     7
370
    25
100
AcDbLine
 10
21.5
 20
30.05
 30
0.0
 11
21.98125
 21
30.05
 31
0.0
  0
LINE
  5
15A
330
1F
100
AcDbEntity
  8
0
  6
Continuous
 62
     7
370
    25
100
AcDbLine
 10
19.25
 20
24.85
 30
0.0
 11
20.3640625
 21
29.0296875
 31
0.0
  0
LINE
  5
15B
330
1F
100
AcDbEntity
  8
0
  6
Continuous
 62
     7
370
    25
100
AcDbLine
 10
18.121875
 20
29.0296875
 30
0.0
 11
19.25
 21
24.85
 31
0.0
  0
LINE
  5
15C
330
1F
100
AcDbEntity
  8
0
  6
Continuous
 62
     7
370
    25
100
AcDbLine
 10
16.5125
 20
30.05
 30
0.0
 11
16.9921875
 21
30.05
 31
0.0
  0
LINE
  5
15D
330
1F
100
AcDbEntity
  8
0
  6
Continuous
 62
     7
370
    25
100
AcDbLine
 10
15.55
 20
23.128125
 30
0.0
 11
15.55
 21
29.196875
 31
0.0
  0
LINE
  5
15E
330
1F
100
AcDbEntity
  8
0
  6
Continuous
 62
     7
370
    25
100
AcDbLine
 10
16.95
 20
28.45
 30
0.0
 11
16.95
 21
23.1328125
 31
0.0
  0
LINE
  5
15F
330
1F
100
AcDbEntity
  8
0
  6
Continuous
 62
     7
370
    25
100
AcDbLine
 10
18.1953125
 20
23.5421875
 30
0.0
 11
16.95
 21
28.45
 31
0.0
  0
LINE
  5
160
330
1F
100
AcDbEntity
  8
0
  6
Continuous
 62
     7
370
    25
100
AcDbLine
 10
25.56875
 20
30.05
 30
0.0
 11
29.678125
 21
30.05
 31
0.0
  0
LINE
  5
161
330
1F
100
AcDbEntity
  8
0
  6
Continuous
 62
     7
370
    25
100
AcDbLine
 10
24.65
 20
23.30625
 30
0.0
 11
24.65
 21
29.09375
 31
0.0
  0
LINE
  5
162
330
1F
100
AcDbEntity
  8
0
  6
Continuous
 62
     7
370
    25
100
AcDbLine
 10
29.8
 20
22.35
 30
0.0
 11
25.56875
 21
22.35
 31
0.0
  0
LINE
  5
163
330
1F
100
AcDbEntity
  8
0
  6
Continuous
 62
     7
370
    25
100
AcDbLine
 10
26.15
 20
23.55
 30
0.0
 11
29.8
 21
23.55
 31
0.0
  0
LINE
  5
164
330
1F
100
AcDbEntity
  8
0
  6
Continuous
 62
     7
370
    25
100
AcDbLine
 10
26.15
 20
25.75
 30
0.0
 11
26.15
 21
23.55
 31
0.0
  0
LINE
  5
165
330
1F
100
AcDbEntity
  8
0
  6
Continuous
 62
     7
370
    25
100
AcDbLine
 10
29.3984375
 20
25.75
 30
0.0
 11
26.15
 21
25.75
 31
0.0
  0
LINE
  5
166
330
1F
100
AcDbEntity
  8
0
  6
Continuous
 62
     7
370
    25
100
AcDbLine
 10
26.15
 20
26.95
 30
0.0
 11
29.3984375
 21
26.95
 31
0.0
  0
LINE
  5
167
330
1F
100
AcDbEntity
  8
0
  6
Continuous
 62
     7
370
    25
100
AcDbLine
 10
26.15
 20
28.85
 30
0.0
 11
26.15
 21
26.95
 31
0.0
  0
LINE
  5
168
330
1F
100
AcDbEntity
  8
0
  6
Continuous
 62
     7
370
    25
100
AcDbLine
 10
29.678125
 20
28.85
 30
0.0
 11
26.15
 21
28.85
 31
0.0
  0
LINE
  5
169
330
1F
100
AcDbEntity
  8
0
  6
Continuous
 62
     7
370
    25
100
AcDbLine
 10
31.840625
 20
30.05
 30
0.0
 11
36.7578125
 21
30.05
 31
0.0
  0
LINE
  5
16A
330
1F
100
AcDbEntity
  8
0
  6
Continuous
 62
     7
370
    25
100
AcDbLine
 10
33.55
 20
28.75
 30
0.0
 11
31.840625
 21
28.75
 31
0.0
  0
LINE
  5
16B
330
1F
100
AcDbEntity
  8
0
  6
Continuous
 62
     7
370
    25
100
AcDbLine
 10
33.55
 20
23.19375
 30
0.0
 11
33.55
 21
28.75
 31
0.0
  0
LINE
  5
16C
330
1F
100
AcDbEntity
  8
0
  6
Continuous
 62
     7
370
    25
100
AcDbLine
 10
35.05
 20
28.75
 30
0.0
 11
35.05
 21
23.19375
 31
0.0
  0
LINE
  5
16D
330
1F
100
AcDbEntity
  8
0
  6
Continuous
 62
     7
370
    25
100
AcDbLine
 10
36.7578125
 20
28.75
 30
0.0
 11
35.05
 21
28.75
 31
0.0
  0
LINE
  5
16E
330
1F
100
AcDbEntity
  8
0
  6
Continuous
 62
     7
370
    25
100
AcDbLine
 10
40.15
 20
26.75
 30
0.0
 11
41.5328125
 21
26.75
 31
0.0
  0
LINE
  5
16F
330
1F
100
AcDbEntity
  8
0
  6
Continuous
 62
     7
370
    25
100
AcDbLine
 10
40.15
 20
28.85
 30
0.0
 11
40.15
 21
26.75
 31
0.0
  0
LINE
  5
170
330
1F
100
AcDbEntity
  8
0
  6
Continuous
 62
     7
370
    25
100
AcDbLine
 10
41.575
 20
28.85
 30
0.0
 11
40.15
 21
28.85
 31
0.0
  0
ENDSEC
  0
SECTION
  2
OBJECTS
  0
DICTIONARY
  5
C
330
0
100
AcDbDictionary
281
     1
  3
ACAD_GROUP
350
D
  3
ACAD_LAYOUT
350
1A
  3
ACAD_MLINESTYLE
350
17
  3
ACAD_PLOTSETTINGS
350
19
  3
ACAD_PLOTSTYLENAME
350
E
  3
ACAD_SCALELIST
350
47
  3
DWGPROPS
350
171
  0
DICTIONARY
  5
D
102
{ACAD_REACTORS
330
C
102
}
330
C
100
AcDbDictionary
281
     1
  0
DICTIONARY
  5
1A
102
{ACAD_REACTORS
330
C
102
}
330
C
100
AcDbDictionary
281
     1
  3
Layout1
350
1E
  3
Layout2
350
26
  3
Model
350
22
  0
DICTIONARY
  5
17
102
{ACAD_REACTORS
330
C
102
}
330
C
100
AcDbDictionary
281
     1
  3
Standard
350
18
  0
DICTIONARY
  5
19
102
{ACAD_REACTORS
330
C
102
}
330
C
100
AcDbDictionary
281
     1
  0
ACDBDICTIONARYWDFLT
  5
E
102
{ACAD_REACTORS
330
C
102
}
330
C
100
AcDbDictionary
281
     1
  3
Normal
350
F
100
AcDbDictionaryWithDefault
340
F
  0
DICTIONARY
  5
47
102
{ACAD_REACTORS
330
C
102
}
330
C
100
AcDbDictionary
281
     1
  3
A0
350
48
  3
A1
350
49
  3
A2
350
4A
  3
A3
350
4B
  3
A4
350
4C
  3
A5
350
4D
  3
A6
350
4E
  3
A7
350
4F
  3
A8
350
50
  3
A9
350
51
  3
B0
350
52
  3
B1
350
53
  3
B2
350
54
  3
B3
350
55
  3
B4
350
56
  3
B5
350
57
  3
B6
350
58
  3
B7
350
59
  3
B8
350
5A
  3
B9
350
5B
  3
C0
350
5C
  3
C1
350
5D
  3
C2
350
5E
  3
C3
350
5F
  3
C4
350
60
  3
C5
350
61
  3
C6
350
62
  3
C7
350
63
  3
C8
350
64
  3
C9
350
65
  3
D0
350
66
  3
D1
350
67
  3
D2
350
68
  0
XRECORD
  5
171
102
{ACAD_REACTORS
330
C
102
}
330
C
100
AcDbXrecord
280
     1
  1
DWGPROPS COOKIE
  2

  3

  4

  6

  7

  8
rfranca
  9

300
=
301
=
302
=
303
=
304
=
305
=
306
=
307
=
308
=
309
=
 40
0.0
 41
2460870.853459722
 42
2460870.853487986
  1

 90
        0
  0
LAYOUT
  5
1E
102
{ACAD_REACTORS
330
1A
102
}
330
1A
100
AcDbPlotSettings
  1

  2
none_device
  4

  6

 40
0.0
 41
0.0
 42
0.0
 43
0.0
 44
0.0
 45
0.0
 46
0.0
 47
0.0
 48
0.0
 49
0.0
140
0.0
141
0.0
142
1.0
143
1.0
 70
   688
 72
     1
 73
     0
 74
     5
  7

 75
    16
147
1.0
148
0.0
149
0.0
100
AcDbLayout
  1
Layout1
 70
     1
 71
     1
 10
0.0
 20
0.0
 11
420.0
 21
297.0
 12
0.0
 22
0.0
 32
0.0
 14
1.0000000000E+20
 24
1.0000000000E+20
 34
1.0000000000E+20
 15
-1.0000000000E+20
 25
-1.0000000000E+20
 35
-1.0000000000E+20
146
0.0
 13
0.0
 23
0.0
 33
0.0
 16
1.0
 26
0.0
 36
0.0
 17
0.0
 27
1.0
 37
0.0
 76
     0
330
1B
  0
LAYOUT
  5
26
102
{ACAD_REACTORS
330
1A
102
}
330
1A
100
AcDbPlotSettings
  1

  2
none_device
  4

  6

 40
0.0
 41
0.0
 42
0.0
 43
0.0
 44
0.0
 45
0.0
 46
0.0
 47
0.0
 48
0.0
 49
0.0
140
0.0
141
0.0
142
1.0
143
1.0
 70
   688
 72
     1
 73
     0
 74
     5
  7

 75
    16
147
1.0
148
0.0
149
0.0
100
AcDbLayout
  1
Layout2
 70
     1
 71
     2
 10
0.0
 20
0.0
 11
0.0
 21
0.0
 12
0.0
 22
0.0
 32
0.0
 14
0.0
 24
0.0
 34
0.0
 15
0.0
 25
0.0
 35
0.0
146
0.0
 13
0.0
 23
0.0
 33
0.0
 16
1.0
 26
0.0
 36
0.0
 17
0.0
 27
1.0
 37
0.0
 76
     0
330
23
  0
LAYOUT
  5
22
102
{ACAD_REACTORS
330
1A
102
}
330
1A
100
AcDbPlotSettings
  1

  2
none_device
  4
ANSI_A_(11.00_x_8.50_Inches)
  6

 40
6.35
 41
19.05
 42
6.35000508
 43
19.05000254
 44
279.4
 45
215.9
 46
133.34999746
 47
88.89999873
 48
0.0
 49
0.0
140
0.0
141
0.0
142
0.0722627737
143
1.0
 70
  1696
 72
     0
 73
     0
 74
     0
  7

 75
     0
147
0.0179189148
148
-1300.4909072572
149
0.0
100
AcDbLayout
  1
Model
 70
     1
 71
     0
 10
0.0
 20
0.0
 11
420.0
 21
297.0
 12
0.0
 22
0.0
 32
0.0
 14
-75.35
 24
-37.35
 34
0.0
 15
75.35
 25
37.35
 35
0.0
146
0.0
 13
0.0
 23
0.0
 33
0.0
 16
1.0
 26
0.0
 36
0.0
 17
0.0
 27
1.0
 37
0.0
 76
     0
330
1F
331
29
  0
MLINESTYLE
  5
18
102
{ACAD_REACTORS
330
17
102
}
330
17
100
AcDbMlineStyle
  2
Standard
 70
     0
  3

 62
   256
 51
90.0
 52
90.0
 71
     2
 49
0.5
 62
   256
  6
BYLAYER
 49
-0.5
 62
   256
  6
BYLAYER
  0
ACDBPLACEHOLDER
  5
F
102
{ACAD_REACTORS
330
E
102
}
330
E
  0
SCALE
  5
48
102
{ACAD_REACTORS
330
47
102
}
330
47
100
AcDbScale
 70
     0
300
1:1
140
1.0
141
1.0
290
     1
  0
SCALE
  5
49
102
{ACAD_REACTORS
330
47
102
}
330
47
100
AcDbScale
 70
     0
300
1:2
140
1.0
141
2.0
290
     0
  0
SCALE
  5
4A
102
{ACAD_REACTORS
330
47
102
}
330
47
100
AcDbScale
 70
     0
300
1:4
140
1.0
141
4.0
290
     0
  0
SCALE
  5
4B
102
{ACAD_REACTORS
330
47
102
}
330
47
100
AcDbScale
 70
     0
300
1:5
140
1.0
141
5.0
290
     0
  0
SCALE
  5
4C
102
{ACAD_REACTORS
330
47
102
}
330
47
100
AcDbScale
 70
     0
300
1:8
140
1.0
141
8.0
290
     0
  0
SCALE
  5
4D
102
{ACAD_REACTORS
330
47
102
}
330
47
100
AcDbScale
 70
     0
300
1:10
140
1.0
141
10.0
290
     0
  0
SCALE
  5
4E
102
{ACAD_REACTORS
330
47
102
}
330
47
100
AcDbScale
 70
     0
300
1:16
140
1.0
141
16.0
290
     0
  0
SCALE
  5
4F
102
{ACAD_REACTORS
330
47
102
}
330
47
100
AcDbScale
 70
     0
300
1:20
140
1.0
141
20.0
290
     0
  0
SCALE
  5
50
102
{ACAD_REACTORS
330
47
102
}
330
47
100
AcDbScale
 70
     0
300
1:30
140
1.0
141
30.0
290
     0
  0
SCALE
  5
51
102
{ACAD_REACTORS
330
47
102
}
330
47
100
AcDbScale
 70
     0
300
1:40
140
1.0
141
40.0
290
     0
  0
SCALE
  5
52
102
{ACAD_REACTORS
330
47
102
}
330
47
100
AcDbScale
 70
     0
300
1:50
140
1.0
141
50.0
290
     0
  0
SCALE
  5
53
102
{ACAD_REACTORS
330
47
102
}
330
47
100
AcDbScale
 70
     0
300
1:100
140
1.0
141
100.0
290
     0
  0
SCALE
  5
54
102
{ACAD_REACTORS
330
47
102
}
330
47
100
AcDbScale
 70
     0
300
2:1
140
2.0
141
1.0
290
     0
  0
SCALE
  5
55
102
{ACAD_REACTORS
330
47
102
}
330
47
100
AcDbScale
 70
     0
300
4:1
140
4.0
141
1.0
290
     0
  0
SCALE
  5
56
102
{ACAD_REACTORS
330
47
102
}
330
47
100
AcDbScale
 70
     0
300
8:1
140
8.0
141
1.0
290
     0
  0
SCALE
  5
57
102
{ACAD_REACTORS
330
47
102
}
330
47
100
AcDbScale
 70
     0
300
10:1
140
10.0
141
1.0
290
     0
  0
SCALE
  5
58
102
{ACAD_REACTORS
330
47
102
}
330
47
100
AcDbScale
 70
     0
300
100:1
140
100.0
141
1.0
290
     0
  0
SCALE
  5
59
102
{ACAD_REACTORS
330
47
102
}
330
47
100
AcDbScale
 70
     0
300
1/128" = 1'-0"
140
0.0078125
141
12.0
290
     0
  0
SCALE
  5
5A
102
{ACAD_REACTORS
330
47
102
}
330
47
100
AcDbScale
 70
     0
300
1/64" = 1'-0"
140
0.015625
141
12.0
290
     0
  0
SCALE
  5
5B
102
{ACAD_REACTORS
330
47
102
}
330
47
100
AcDbScale
 70
     0
300
1/32" = 1'-0"
140
0.03125
141
12.0
290
     0
  0
SCALE
  5
5C
102
{ACAD_REACTORS
330
47
102
}
330
47
100
AcDbScale
 70
     0
300
1/16" = 1'-0"
140
0.0625
141
12.0
290
     0
  0
SCALE
  5
5D
102
{ACAD_REACTORS
330
47
102
}
330
47
100
AcDbScale
 70
     0
300
3/32" = 1'-0"
140
0.09375
141
12.0
290
     0
  0
SCALE
  5
5E
102
{ACAD_REACTORS
330
47
102
}
330
47
100
AcDbScale
 70
     0
300
1/8" = 1'-0"
140
0.125
141
12.0
290
     0
  0
SCALE
  5
5F
102
{ACAD_REACTORS
330
47
102
}
330
47
100
AcDbScale
 70
     0
300
3/16" = 1'-0"
140
0.1875
141
12.0
290
     0
  0
SCALE
  5
60
102
{ACAD_REACTORS
330
47
102
}
330
47
100
AcDbScale
 70
     0
300
1/4" = 1'-0"
140
0.25
141
12.0
290
     0
  0
SCALE
  5
61
102
{ACAD_REACTORS
330
47
102
}
330
47
100
AcDbScale
 70
     0
300
3/8" = 1'-0"
140
0.375
141
12.0
290
     0
  0
SCALE
  5
62
102
{ACAD_REACTORS
330
47
102
}
330
47
100
AcDbScale
 70
     0
300
1/2" = 1'-0"
140
0.5
141
12.0
290
     0
  0
SCALE
  5
63
102
{ACAD_REACTORS
330
47
102
}
330
47
100
AcDbScale
 70
     0
300
3/4" = 1'-0"
140
0.75
141
12.0
290
     0
  0
SCALE
  5
64
102
{ACAD_REACTORS
330
47
102
}
330
47
100
AcDbScale
 70
     0
300
1" = 1'-0"
140
1.0
141
12.0
290
     0
  0
SCALE
  5
65
102
{ACAD_REACTORS
330
47
102
}
330
47
100
AcDbScale
 70
     0
300
1-1/2" = 1'-0"
140
1.5
141
12.0
290
     0
  0
SCALE
  5
66
102
{ACAD_REACTORS
330
47
102
}
330
47
100
AcDbScale
 70
     0
300
3" = 1'-0"
140
3.0
141
12.0
290
     0
  0
SCALE
  5
67
102
{ACAD_REACTORS
330
47
102
}
330
47
100
AcDbScale
 70
     0
300
6" = 1'-0"
140
6.0
141
12.0
290
     0
  0
SCALE
  5
68
102
{ACAD_REACTORS
330
47
102
}
330
47
100
AcDbScale
 70
     0
300
1'-0" = 1'-0"
140
12.0
141
12.0
290
     0
  0
ENDSEC
  0
EOF
