<?xml version="1.0" encoding="UTF-8" standalone="no"?>
<!-- Created with Inkscape (http://www.inkscape.org/) -->

<svg
   width="319.117mm"
   height="351.21301mm"
   viewBox="0 0 319.11701 351.21301"
   version="1.1"
   id="svg5"
   inkscape:version="1.1.2 (b8e25be833, 2022-02-05)"
   sodipodi:docname="traseira_veiculo.svg"
   xmlns:inkscape="http://www.inkscape.org/namespaces/inkscape"
   xmlns:sodipodi="http://sodipodi.sourceforge.net/DTD/sodipodi-0.dtd"
   xmlns="http://www.w3.org/2000/svg"
   xmlns:svg="http://www.w3.org/2000/svg">
  <sodipodi:namedview
     id="namedview7"
     pagecolor="#ffffff"
     bordercolor="#666666"
     borderopacity="1.0"
     inkscape:pageshadow="2"
     inkscape:pageopacity="0.0"
     inkscape:pagecheckerboard="0"
     inkscape:document-units="mm"
     showgrid="false"
     fit-margin-top="0"
     fit-margin-left="0"
     fit-margin-right="0"
     fit-margin-bottom="0"
     inkscape:zoom="0.26740451"
     inkscape:cx="1237.825"
     inkscape:cy="1335.056"
     inkscape:window-width="2560"
     inkscape:window-height="1009"
     inkscape:window-x="-8"
     inkscape:window-y="-8"
     inkscape:window-maximized="1"
     inkscape:current-layer="layer1" />
  <defs
     id="defs2" />
  <g
     inkscape:label="Camada 1"
     inkscape:groupmode="layer"
     id="layer1"
     transform="translate(265.88034,208.61188)">
    <g
       id="g5602"
       transform="translate(-319.11746)">
      <path
         id="path5390"
         style="fill:#ff0000;fill-opacity:1;stroke:none;stroke-width:0.264583px;stroke-linecap:butt;stroke-linejoin:miter;stroke-opacity:1"
         d="M 372.35412,-208.61188 -265.88034,9.8586315 V 75.126435 h 246.041201 c 10.1061392,-1.430809 46.109294,16.892218 49.58924,39.729375 2.114931,15.03263 4.821633,45.1355 3.034598,59.70902 -3.324962,24.92893 -11.15751,44.07896 -50.459215,53.96848 -30.861598,3.02499 -205.427244,0.81582 -248.205824,0.22779 v 63.48 l 638.23446,201.57303 z" />
      <g
         id="g2388"
         style="stroke-width:1.70597"
         transform="matrix(0.58617561,0,0,0.58617561,289.00625,109.70838)">
        <path
           id="path5546"
           style="fill:#ffff00;fill-rule:evenodd;stroke-width:0.852985"
           d="m -411.98353,-135.21695 a 9.85882,9.85882 0 0 1 -9.85882,9.85882 9.85882,9.85882 0 0 1 -9.85882,-9.85882 9.85882,9.85882 0 0 1 9.85882,-9.85882 9.85882,9.85882 0 0 1 9.85882,9.85882 z" />
        <path
           id="path5543"
           style="fill:#00ff00;fill-rule:evenodd;stroke-width:0.852985"
           d="m -415.81764,-135.21695 a 6.0247021,6.0247021 0 0 1 -6.02471,6.0247 6.0247021,6.0247021 0 0 1 -6.0247,-6.0247 6.0247021,6.0247021 0 0 1 6.0247,-6.0247 6.0247021,6.0247021 0 0 1 6.02471,6.0247 z" />
        <path
           id="path5540"
           style="fill:#ffff00;fill-rule:evenodd;stroke-width:0.852985"
           d="m -402.24701,-113.23016 a 9.85882,9.85882 0 0 1 -9.85882,9.85882 9.85882,9.85882 0 0 1 -9.85882,-9.85882 9.85882,9.85882 0 0 1 9.85882,-9.85882 9.85882,9.85882 0 0 1 9.85882,9.85882 z" />
        <path
           id="path5537"
           style="fill:#00ff00;fill-rule:evenodd;stroke-width:0.852985"
           d="m -406.08113,-113.23016 a 6.0247021,6.0247021 0 0 1 -6.0247,6.0247 6.0247021,6.0247021 0 0 1 -6.02471,-6.0247 6.0247021,6.0247021 0 0 1 6.02471,-6.02471 6.0247021,6.0247021 0 0 1 6.0247,6.02471 z" />
        <path
           id="path5534"
           style="fill:#ffff00;fill-rule:evenodd;stroke-width:0.852985"
           d="m -319.15,-141.06625 a 9.85882,9.85882 0 0 1 -9.85882,9.85882 9.85882,9.85882 0 0 1 -9.85882,-9.85882 9.85882,9.85882 0 0 1 9.85882,-9.85882 9.85882,9.85882 0 0 1 9.85882,9.85882 z" />
        <path
           id="path5531"
           style="fill:#00ff00;fill-rule:evenodd;stroke-width:0.852985"
           d="m -322.98412,-141.06625 a 6.0247021,6.0247021 0 0 1 -6.0247,6.0247 6.0247021,6.0247021 0 0 1 -6.0247,-6.0247 6.0247021,6.0247021 0 0 1 6.0247,-6.02471 6.0247021,6.0247021 0 0 1 6.0247,6.02471 z" />
        <path
           id="path5528"
           style="fill:#ffff00;fill-rule:evenodd;stroke-width:0.852985"
           d="m -309.35496,-115.70406 a 9.85882,9.85882 0 0 1 -9.85882,9.85882 9.85882,9.85882 0 0 1 -9.85882,-9.85882 9.85882,9.85882 0 0 1 9.85882,-9.85882 9.85882,9.85882 0 0 1 9.85882,9.85882 z" />
        <path
           id="path5525"
           style="fill:#00ff00;fill-rule:evenodd;stroke-width:0.852985"
           d="m -313.18907,-115.70406 a 6.0247021,6.0247021 0 0 1 -6.02471,6.0247 6.0247021,6.0247021 0 0 1 -6.0247,-6.0247 6.0247021,6.0247021 0 0 1 6.0247,-6.02471 6.0247021,6.0247021 0 0 1 6.02471,6.02471 z" />
        <path
           id="path5522"
           style="fill:#ffff00;fill-rule:evenodd;stroke-width:0.852985"
           d="m -313.99012,67.778267 a 9.85882,9.85882 0 0 1 -9.85882,9.85882 9.85882,9.85882 0 0 1 -9.85882,-9.85882 9.85882,9.85882 0 0 1 9.85882,-9.85882 9.85882,9.85882 0 0 1 9.85882,9.85882 z" />
        <path
           id="path5519"
           style="fill:#00ff00;fill-rule:evenodd;stroke-width:0.852985"
           d="m -317.82424,67.778267 a 6.0247021,6.0247021 0 0 1 -6.0247,6.024702 6.0247021,6.0247021 0 0 1 -6.0247,-6.024702 6.0247021,6.0247021 0 0 1 6.0247,-6.024702 6.0247021,6.0247021 0 0 1 6.0247,6.024702 z" />
        <path
           id="path5516"
           style="fill:#ffff00;fill-rule:evenodd;stroke-width:0.852985"
           d="m -403.19507,63.580391 a 9.85882,9.85882 0 0 1 -9.85882,9.85882 9.85882,9.85882 0 0 1 -9.85882,-9.85882 9.85882,9.85882 0 0 1 9.85882,-9.85882 9.85882,9.85882 0 0 1 9.85882,9.85882 z" />
        <path
           id="path5513"
           style="fill:#00ff00;fill-rule:evenodd;stroke-width:0.852985"
           d="m -407.02919,63.580391 a 6.0247021,6.0247021 0 0 1 -6.0247,6.024702 6.0247021,6.0247021 0 0 1 -6.02471,-6.024702 6.0247021,6.0247021 0 0 1 6.02471,-6.024702 6.0247021,6.0247021 0 0 1 6.0247,6.024702 z" />
        <path
           id="path5510"
           style="fill:#ffff00;fill-rule:evenodd;stroke-width:0.852985"
           d="m -401.79578,91.041519 a 9.85882,9.85882 0 0 1 -9.85882,9.858821 9.85882,9.85882 0 0 1 -9.85882,-9.858821 9.85882,9.85882 0 0 1 9.85882,-9.85882 9.85882,9.85882 0 0 1 9.85882,9.85882 z" />
        <path
           id="path5507"
           style="fill:#00ff00;fill-rule:evenodd;stroke-width:0.852985"
           d="m -405.6299,91.041519 a 6.0247021,6.0247021 0 0 1 -6.0247,6.024702 6.0247021,6.0247021 0 0 1 -6.0247,-6.024702 6.0247021,6.0247021 0 0 1 6.0247,-6.024702 6.0247021,6.0247021 0 0 1 6.0247,6.024702 z" />
        <path
           id="path5504"
           style="fill:#ffff00;fill-rule:evenodd;stroke-width:0.852985"
           d="m -312.241,90.429329 a 9.85882,9.85882 0 0 1 -9.85882,9.858821 9.85882,9.85882 0 0 1 -9.85882,-9.858821 9.85882,9.85882 0 0 1 9.85882,-9.85882 9.85882,9.85882 0 0 1 9.85882,9.85882 z" />
        <path
           id="path5501"
           style="fill:#00ff00;fill-rule:evenodd;stroke-width:0.852985"
           d="m -316.07512,90.429329 a 6.0247021,6.0247021 0 0 1 -6.0247,6.024702 6.0247021,6.0247021 0 0 1 -6.02471,-6.024702 6.0247021,6.0247021 0 0 1 6.02471,-6.024702 6.0247021,6.0247021 0 0 1 6.0247,6.024702 z" />
        <path
           id="path5498"
           style="fill:#ffff00;fill-rule:evenodd;stroke-width:0.852985"
           d="m -318.63849,150.39636 a 9.85882,9.85882 0 0 1 -9.85882,9.85882 9.85882,9.85882 0 0 1 -9.85882,-9.85882 9.85882,9.85882 0 0 1 9.85882,-9.85882 9.85882,9.85882 0 0 1 9.85882,9.85882 z" />
        <path
           id="path5495"
           style="fill:#00ff00;fill-rule:evenodd;stroke-width:0.852985"
           d="m -322.47261,150.39636 a 6.0247021,6.0247021 0 0 1 -6.0247,6.0247 6.0247021,6.0247021 0 0 1 -6.02471,-6.0247 6.0247021,6.0247021 0 0 1 6.02471,-6.0247 6.0247021,6.0247021 0 0 1 6.0247,6.0247 z" />
        <path
           id="path5492"
           style="fill:#ffff00;fill-rule:evenodd;stroke-width:0.852985"
           d="m -330.14084,199.62149 a 9.85882,9.85882 0 0 1 -9.85882,9.85882 9.85882,9.85882 0 0 1 -9.85882,-9.85882 9.85882,9.85882 0 0 1 9.85882,-9.85882 9.85882,9.85882 0 0 1 9.85882,9.85882 z" />
        <path
           id="path5489"
           style="fill:#00ff00;fill-rule:evenodd;stroke-width:0.852985"
           d="m -333.97496,199.62149 a 6.0247021,6.0247021 0 0 1 -6.0247,6.0247 6.0247021,6.0247021 0 0 1 -6.02471,-6.0247 6.0247021,6.0247021 0 0 1 6.02471,-6.0247 6.0247021,6.0247021 0 0 1 6.0247,6.0247 z" />
        <path
           id="path5486"
           style="fill:#ffff00;fill-rule:evenodd;stroke-width:0.852985"
           d="m -105.78312,153.24103 a 9.85882,9.85882 0 0 1 -9.85882,9.85882 9.85882,9.85882 0 0 1 -9.85882,-9.85882 9.85882,9.85882 0 0 1 9.85882,-9.85882 9.85882,9.85882 0 0 1 9.85882,9.85882 z" />
        <path
           id="path5483"
           style="fill:#00ff00;fill-rule:evenodd;stroke-width:0.852985"
           d="m -109.61724,153.24103 a 6.0247021,6.0247021 0 0 1 -6.0247,6.0247 6.0247021,6.0247021 0 0 1 -6.0247,-6.0247 6.0247021,6.0247021 0 0 1 6.0247,-6.0247 6.0247021,6.0247021 0 0 1 6.0247,6.0247 z" />
        <path
           id="path5480"
           style="fill:#ffff00;fill-rule:evenodd;stroke-width:0.852985"
           d="m -115.1829,205.31084 a 9.85882,9.85882 0 0 1 -9.85882,9.85882 9.85882,9.85882 0 0 1 -9.85882,-9.85882 9.85882,9.85882 0 0 1 9.85882,-9.85882 9.85882,9.85882 0 0 1 9.85882,9.85882 z" />
        <path
           id="path5477"
           style="fill:#00ff00;fill-rule:evenodd;stroke-width:0.852985"
           d="m -119.01702,205.31084 a 6.0247021,6.0247021 0 0 1 -6.0247,6.0247 6.0247021,6.0247021 0 0 1 -6.0247,-6.0247 6.0247021,6.0247021 0 0 1 6.0247,-6.02471 6.0247021,6.0247021 0 0 1 6.0247,6.02471 z" />
        <path
           id="path5474"
           style="fill:#ffff00;fill-rule:evenodd;stroke-width:0.852985"
           d="m 93.641504,292.97702 a 9.85882,9.85882 0 0 1 -9.85882,9.85882 9.85882,9.85882 0 0 1 -9.85882,-9.85882 9.85882,9.85882 0 0 1 9.85882,-9.85882 9.85882,9.85882 0 0 1 9.85882,9.85882 z" />
        <path
           id="path5471"
           style="fill:#00ff00;fill-rule:evenodd;stroke-width:0.852985"
           d="m 89.807386,292.97702 a 6.0247021,6.0247021 0 0 1 -6.024702,6.0247 6.0247021,6.0247021 0 0 1 -6.024702,-6.0247 6.0247021,6.0247021 0 0 1 6.024702,-6.0247 6.0247021,6.0247021 0 0 1 6.024702,6.0247 z" />
        <path
           id="path5468"
           style="fill:#ffff00;fill-rule:evenodd;stroke-width:0.852985"
           d="m -19.176516,294.20142 a 9.85882,9.85882 0 0 1 -9.85882,9.85882 9.85882,9.85882 0 0 1 -9.85882,-9.85882 9.85882,9.85882 0 0 1 9.85882,-9.85882 9.85882,9.85882 0 0 1 9.85882,9.85882 z" />
        <path
           id="path5465"
           style="fill:#00ff00;fill-rule:evenodd;stroke-width:0.852985"
           d="m -23.010633,294.20142 a 6.0247021,6.0247021 0 0 1 -6.024703,6.0247 6.0247021,6.0247021 0 0 1 -6.024702,-6.0247 6.0247021,6.0247021 0 0 1 6.024702,-6.02471 6.0247021,6.0247021 0 0 1 6.024703,6.02471 z" />
        <path
           id="path5462"
           style="fill:#ffff00;fill-rule:evenodd;stroke-width:0.852985"
           d="m -108.55636,347.19965 a 9.85882,9.85882 0 0 1 -9.85882,9.85882 9.85882,9.85882 0 0 1 -9.85882,-9.85882 9.85882,9.85882 0 0 1 9.85882,-9.85882 9.85882,9.85882 0 0 1 9.85882,9.85882 z" />
        <path
           id="path5459"
           style="fill:#00ff00;fill-rule:evenodd;stroke-width:0.852985"
           d="m -112.39047,347.19965 a 6.0247021,6.0247021 0 0 1 -6.02471,6.0247 6.0247021,6.0247021 0 0 1 -6.0247,-6.0247 6.0247021,6.0247021 0 0 1 6.0247,-6.02471 6.0247021,6.0247021 0 0 1 6.02471,6.02471 z" />
        <path
           id="path5456"
           style="fill:#ffff00;fill-rule:evenodd;stroke-width:0.852985"
           d="m -115.90267,403.69611 a 9.85882,9.85882 0 0 1 -9.85882,9.85882 9.85882,9.85882 0 0 1 -9.85882,-9.85882 9.85882,9.85882 0 0 1 9.85882,-9.85882 9.85882,9.85882 0 0 1 9.85882,9.85882 z" />
        <path
           id="path5453"
           style="fill:#00ff00;fill-rule:evenodd;stroke-width:0.852985"
           d="m -119.73679,403.69611 a 6.0247021,6.0247021 0 0 1 -6.0247,6.0247 6.0247021,6.0247021 0 0 1 -6.0247,-6.0247 6.0247021,6.0247021 0 0 1 6.0247,-6.02471 6.0247021,6.0247021 0 0 1 6.0247,6.02471 z" />
        <path
           id="path5450"
           style="fill:#ffff00;fill-rule:evenodd;stroke-width:0.852985"
           d="m -67.976873,456.51944 a 9.85882,9.85882 0 0 1 -9.85882,9.85882 9.85882,9.85882 0 0 1 -9.85882,-9.85882 9.85882,9.85882 0 0 1 9.85882,-9.85882 9.85882,9.85882 0 0 1 9.85882,9.85882 z" />
        <path
           id="path5447"
           style="fill:#00ff00;fill-rule:evenodd;stroke-width:0.852985"
           d="m -71.810991,456.51944 a 6.0247021,6.0247021 0 0 1 -6.024702,6.0247 6.0247021,6.0247021 0 0 1 -6.024702,-6.0247 6.0247021,6.0247021 0 0 1 6.024702,-6.0247 6.0247021,6.0247021 0 0 1 6.024702,6.0247 z" />
        <path
           id="path5444"
           style="fill:#ffff00;fill-rule:evenodd;stroke-width:0.852985"
           d="m 72.127375,464.7403 a 9.85882,9.85882 0 0 1 -9.85882,9.85882 9.85882,9.85882 0 0 1 -9.85882,-9.85882 9.85882,9.85882 0 0 1 9.85882,-9.85882 9.85882,9.85882 0 0 1 9.85882,9.85882 z" />
        <path
           id="path5441"
           style="fill:#00ff00;fill-rule:evenodd;stroke-width:0.852985"
           d="m 68.293257,464.7403 a 6.0247021,6.0247021 0 0 1 -6.024702,6.0247 6.0247021,6.0247021 0 0 1 -6.024702,-6.0247 6.0247021,6.0247021 0 0 1 6.024702,-6.02471 6.0247021,6.0247021 0 0 1 6.024702,6.02471 z" />
        <path
           id="path5438"
           style="fill:#ffff00;fill-rule:evenodd;stroke-width:0.852985"
           d="m -328.68271,387.95407 a 9.85882,9.85882 0 0 1 -9.85882,9.85882 9.85882,9.85882 0 0 1 -9.85882,-9.85882 9.85882,9.85882 0 0 1 9.85882,-9.85882 9.85882,9.85882 0 0 1 9.85882,9.85882 z" />
        <path
           id="path5435"
           style="fill:#00ff00;fill-rule:evenodd;stroke-width:0.852985"
           d="m -332.51683,387.95407 a 6.0247021,6.0247021 0 0 1 -6.0247,6.0247 6.0247021,6.0247021 0 0 1 -6.02471,-6.0247 6.0247021,6.0247021 0 0 1 6.02471,-6.0247 6.0247021,6.0247021 0 0 1 6.0247,6.0247 z" />
        <path
           id="path5432"
           style="fill:#ffff00;fill-rule:evenodd;stroke-width:0.852985"
           d="m -319.15,342.73941 a 9.85882,9.85882 0 0 1 -9.85882,9.85882 9.85882,9.85882 0 0 1 -9.85882,-9.85882 9.85882,9.85882 0 0 1 9.85882,-9.85882 9.85882,9.85882 0 0 1 9.85882,9.85882 z" />
        <path
           id="path5429"
           style="fill:#00ff00;fill-rule:evenodd;stroke-width:0.852985"
           d="m -322.98412,342.73941 a 6.0247021,6.0247021 0 0 1 -6.0247,6.0247 6.0247021,6.0247021 0 0 1 -6.0247,-6.0247 6.0247021,6.0247021 0 0 1 6.0247,-6.0247 6.0247021,6.0247021 0 0 1 6.0247,6.0247 z" />
        <path
           id="path5426"
           style="fill:#ffff00;fill-rule:evenodd;stroke-width:0.852986"
           d="m -916.82317,-101.44877 a 11.782848,11.782848 0 0 1 -11.78285,11.78285 11.782848,11.782848 0 0 1 -11.78285,-11.78285 11.782848,11.782848 0 0 1 11.78285,-11.78285 11.782848,11.782848 0 0 1 11.78285,11.78285 z" />
        <path
           id="path5423"
           style="fill:#00ff00;fill-rule:evenodd;stroke-width:0.852986"
           d="m -921.40555,-101.44877 a 7.2004714,7.2004714 0 0 1 -7.20047,7.200473 7.2004714,7.2004714 0 0 1 -7.20047,-7.200473 7.2004714,7.2004714 0 0 1 7.20047,-7.20047 7.2004714,7.2004714 0 0 1 7.20047,7.20047 z" />
        <path
           id="path5420"
           style="fill:#ffff00;fill-rule:evenodd;stroke-width:0.852986"
           d="m -797.7083,-101.27385 a 11.782848,11.782848 0 0 1 -11.78285,11.782849 11.782848,11.782848 0 0 1 -11.78285,-11.782849 11.782848,11.782848 0 0 1 11.78285,-11.78285 11.782848,11.782848 0 0 1 11.78285,11.78285 z" />
        <path
           id="path5417"
           style="fill:#00ff00;fill-rule:evenodd;stroke-width:0.852986"
           d="m -802.29068,-101.27385 a 7.2004714,7.2004714 0 0 1 -7.20047,7.200472 7.2004714,7.2004714 0 0 1 -7.20047,-7.200472 7.2004714,7.2004714 0 0 1 7.20047,-7.20047 7.2004714,7.2004714 0 0 1 7.20047,7.20047 z" />
        <path
           id="path5414"
           style="fill:#ffff00;fill-rule:evenodd;stroke-width:0.852986"
           d="m -898.45745,249.77386 a 11.782848,11.782848 0 0 1 -11.78285,11.78285 11.782848,11.782848 0 0 1 -11.78284,-11.78285 11.782848,11.782848 0 0 1 11.78284,-11.78284 11.782848,11.782848 0 0 1 11.78285,11.78284 z" />
        <path
           id="path5411"
           style="fill:#00ff00;fill-rule:evenodd;stroke-width:0.852986"
           d="m -903.03982,249.77386 a 7.2004714,7.2004714 0 0 1 -7.20048,7.20048 7.2004714,7.2004714 0 0 1 -7.20047,-7.20048 7.2004714,7.2004714 0 0 1 7.20047,-7.20047 7.2004714,7.2004714 0 0 1 7.20048,7.20047 z" />
        <path
           id="path5408"
           style="fill:#ffff00;fill-rule:evenodd;stroke-width:0.852986"
           d="m -784.06524,250.12367 a 11.782848,11.782848 0 0 1 -11.78284,11.78285 11.782848,11.782848 0 0 1 -11.78285,-11.78285 11.782848,11.782848 0 0 1 11.78285,-11.78285 11.782848,11.782848 0 0 1 11.78284,11.78285 z" />
        <path
           id="path5405"
           style="fill:#00ff00;fill-rule:evenodd;stroke-width:0.852986"
           d="m -788.64761,250.12367 a 7.2004714,7.2004714 0 0 1 -7.20047,7.20047 7.2004714,7.2004714 0 0 1 -7.20047,-7.20047 7.2004714,7.2004714 0 0 1 7.20047,-7.20047 7.2004714,7.2004714 0 0 1 7.20047,7.20047 z" />
        <path
           id="path5402"
           style="fill:#ffff00;fill-rule:evenodd;stroke-width:0.852984"
           d="m -276.31935,-344.73578 a 13.182141,13.182141 0 0 1 -13.18215,13.18214 13.182141,13.182141 0 0 1 -13.18214,-13.18214 13.182141,13.182141 0 0 1 13.18214,-13.18214 13.182141,13.182141 0 0 1 13.18215,13.18214 z" />
        <path
           id="path5399"
           style="fill:#00ff00;fill-rule:evenodd;stroke-width:0.852984"
           d="m -281.44592,-344.73578 a 8.0555763,8.0555763 0 0 1 -8.05558,8.05558 8.0555763,8.0555763 0 0 1 -8.05557,-8.05558 8.0555763,8.0555763 0 0 1 8.05557,-8.05558 8.0555763,8.0555763 0 0 1 8.05558,8.05558 z" />
        <path
           id="path5396"
           style="fill:#ffff00;fill-rule:evenodd;stroke-width:0.852984"
           d="m -30.521979,-421.0351 a 13.182141,13.182141 0 0 1 -13.182142,13.18215 13.182141,13.182141 0 0 1 -13.182141,-13.18215 13.182141,13.182141 0 0 1 13.182141,-13.18214 13.182141,13.182141 0 0 1 13.182142,13.18214 z" />
        <path
           id="path5393"
           style="fill:#00ff00;fill-rule:evenodd;stroke-width:0.852984"
           d="m -35.648544,-421.0351 a 8.0555763,8.0555763 0 0 1 -8.055577,8.05558 8.0555763,8.0555763 0 0 1 -8.055576,-8.05558 8.0555763,8.0555763 0 0 1 8.055576,-8.05557 8.0555763,8.0555763 0 0 1 8.055577,8.05557 z" />
      </g>
    </g>
  </g>
</svg>
