  0
SECTION
  2
HEADER
  9
$ACADVER
  1
AC1014
  9
$HANDSEED
  5
FFFF
  9
$MEASUREMENT
 70
     1
  0
ENDSEC
  0
SECTION
  2
TABLES
  0
TABLE
  2
VPORT
  5
8
330
0
100
AcDbSymbolTable
 70
     4
  0
VPORT
  5
2E
330
8
100
AcDbSymbolTableRecord
100
AcDbViewportTableRecord
  2
*ACTIVE
 70
     0
 10
0.0
 20
0.0
 11
1.0
 21
1.0
 12
210.0
 22
148.5
 13
0.0
 23
0.0
 14
10.0
 24
10.0
 15
10.0
 25
10.0
 16
0.0
 26
0.0
 36
1.0
 17
0.0
 27
0.0
 37
0.0
 40
341.0
 41
1.24
 42
50.0
 43
0.0
 44
0.0
 50
0.0
 51
0.0
 71
     0
 72
   100
 73
     1
 74
     3
 75
     0
 76
     0
 77
     0
 78
     0
  0
ENDTAB
  0
TABLE
  2
LTYPE
  5
5
330
0
100
AcDbSymbolTable
 70
     1
  0
LTYPE
  5
14
330
5
100
AcDbSymbolTableRecord
100
AcDbLinetypeTableRecord
  2
BYBLOCK
 70
     0
  3

 72
    65
 73
     0
 40
0.0
  0
LTYPE
  5
15
330
5
100
AcDbSymbolTableRecord
100
AcDbLinetypeTableRecord
  2
BYLAYER
 70
     0
  3

 72
    65
 73
     0
 40
0.0
  0
LTYPE
  5
16
330
5
100
AcDbSymbolTableRecord
100
AcDbLinetypeTableRecord
  2
CONTINUOUS
 70
     0
  3
Solid line
 72
    65
 73
     0
 40
0.0
  0
ENDTAB
  0
TABLE
  2
LAYER
  5
2
100
AcDbSymbolTable
 70
2
  0
LAYER
  5
50
100
AcDbSymbolTableRecord
100
AcDbLayerTableRecord
  2
0
 70
0
  6
CONTINUOUS
  0
LAYER
  5
51
100
AcDbSymbolTableRecord
100
AcDbLayerTableRecord
  2
Camada_1
 70
0
  6
CONTINUOUS
  0
ENDTAB
  0
TABLE
  2
STYLE
  5
3
330
0
100
AcDbSymbolTable
 70
     1
  0
STYLE
  5
11
330
3
100
AcDbSymbolTableRecord
100
AcDbTextStyleTableRecord
  2
STANDARD
 70
     0
 40
0.0
 41
1.0
 50
0.0
 71
     0
 42
2.5
  3
txt
  4

  0
ENDTAB
  0
TABLE
  2
VIEW
  5
6
330
0
100
AcDbSymbolTable
 70
     0
  0
ENDTAB
  0
TABLE
  2
UCS
  5
7
330
0
100
AcDbSymbolTable
 70
     0
  0
ENDTAB
  0
TABLE
  2
APPID
  5
9
330
0
100
AcDbSymbolTable
 70
     2
  0
APPID
  5
12
330
9
100
AcDbSymbolTableRecord
100
AcDbRegAppTableRecord
  2
ACAD
 70
     0
  0
ENDTAB
  0
TABLE
  2
DIMSTYLE
  5
A
330
0
100
AcDbSymbolTable
 70
     1
  0
DIMSTYLE
105
27
330
A
100
AcDbSymbolTableRecord
100
AcDbDimStyleTableRecord
  2
ISO-25
 70
     0
  3

  4

  5

  6

  7

 40
1.0
 41
2.5
 42
0.625
 43
3.75
 44
1.25
 45
0.0
 46
0.0
 47
0.0
 48
0.0
140
2.5
141
2.5
142
0.0
143
0.03937007874016
144
1.0
145
0.0
146
1.0
147
0.625
 71
     0
 72
     0
 73
     0
 74
     0
 75
     0
 76
     0
 77
     1
 78
     8
170
     0
171
     3
172
     1
173
     0
174
     0
175
     0
176
     0
177
     0
178
     0
270
     2
271
     2
272
     2
273
     2
274
     3
340
11
275
     0
280
     0
281
     0
282
     0
283
     0
284
     8
285
     0
286
     0
287
     3
288
     0
  0
ENDTAB
  0
TABLE
  2
BLOCK_RECORD
  5
1
330
0
100
AcDbSymbolTable
 70
     1
  0
BLOCK_RECORD
  5
1F
330
1
100
AcDbSymbolTableRecord
100
AcDbBlockTableRecord
  2
*MODEL_SPACE
  0
BLOCK_RECORD
  5
1B
330
1
100
AcDbSymbolTableRecord
100
AcDbBlockTableRecord
  2
*PAPER_SPACE
  0
ENDTAB
  0
ENDSEC
  0
SECTION
  2
BLOCKS
  0
BLOCK
  5
20
330
1F
100
AcDbEntity
  8
0
100
AcDbBlockBegin
  2
*MODEL_SPACE
 70
     0
 10
0.0
 20
0.0
 30
0.0
  3
*MODEL_SPACE
  1

  0
ENDBLK
  5
21
330
1F
100
AcDbEntity
  8
0
100
AcDbBlockEnd
  0
BLOCK
  5
1C
330
1B
100
AcDbEntity
 67
     1
  8
0
100
AcDbBlockBegin
  2
*PAPER_SPACE
  1

  0
ENDBLK
  5
1D
330
1B
100
AcDbEntity
 67
     1
  8
0
100
AcDbBlockEnd
  0
ENDSEC
  0
SECTION
  2
ENTITIES
  0
SPLINE
  5
100
100
AcDbEntity
  8
Camada_1
 62
7
100
AcDbSpline
 70
8
 71
3
 72
8
 73
4
 74
0
 40
0
 40
0
 40
0
 40
0
 40
1
 40
1
 40
1
 40
1
 10
-73.076141
 20
67.474577
 30
0.0
 10
-62.970002
 20
68.905386
 30
0.0
 10
-26.966846
 20
50.582358
 30
0.0
 10
-23.486900
 20
27.745201
 30
0.0
  0
SPLINE
  5
101
100
AcDbEntity
  8
Camada_1
 62
7
100
AcDbSpline
 70
8
 71
3
 72
8
 73
4
 74
0
 40
0
 40
0
 40
0
 40
0
 40
1
 40
1
 40
1
 40
1
 10
-23.486900
 20
27.745201
 30
0.0
 10
-21.371969
 20
12.712570
 30
0.0
 10
-18.665267
 20
-17.390300
 30
0.0
 10
-20.452302
 20
-31.963821
 30
0.0
  0
SPLINE
  5
102
100
AcDbEntity
  8
Camada_1
 62
7
100
AcDbSpline
 70
8
 71
3
 72
8
 73
4
 74
0
 40
0
 40
0
 40
0
 40
0
 40
1
 40
1
 40
1
 40
1
 10
-20.452302
 20
-31.963821
 30
0.0
 10
-23.777264
 20
-56.892752
 30
0.0
 10
-31.609812
 20
-76.042782
 30
0.0
 10
-70.911518
 20
-85.932302
 30
0.0
  0
SPLINE
  5
103
100
AcDbEntity
  8
Camada_1
 62
7
100
AcDbSpline
 70
8
 71
3
 72
8
 73
4
 74
0
 40
0
 40
0
 40
0
 40
0
 40
1
 40
1
 40
1
 40
1
 10
-70.911518
 20
-85.932302
 30
0.0
 10
-101.773117
 20
-88.957293
 30
0.0
 10
-276.338768
 20
-86.748122
 30
0.0
 10
-319.117349
 20
-86.160092
 30
0.0
  0
LWPOLYLINE
  5
104
100
AcDbEntity
  8
Camada_1
 62
7
100
AcDbPolyline
 90
4
 70
0
 10
319.117129
 20
351.212900
 30
0.0
 10
-319.117349
 20
132.742382
 30
0.0
 10
-319.117349
 20
67.474577
 30
0.0
 10
-73.076141
 20
67.474577
 30
0.0
  0
SPLINE
  5
105
100
AcDbEntity
  8
Camada_1
 62
7
100
AcDbSpline
 70
8
 71
3
 72
8
 73
4
 74
0
 40
0
 40
0
 40
0
 40
0
 40
1
 40
1
 40
1
 40
1
 10
-5.725858
 20
112.153944
 30
0.0
 10
-5.725858
 20
110.621257
 30
0.0
 10
-6.334715
 20
109.151345
 30
0.0
 10
-7.418489
 20
108.067571
 30
0.0
  0
SPLINE
  5
106
100
AcDbEntity
  8
Camada_1
 62
7
100
AcDbSpline
 70
8
 71
3
 72
8
 73
4
 74
0
 40
0
 40
0
 40
0
 40
0
 40
1
 40
1
 40
1
 40
1
 10
-7.418489
 20
108.067571
 30
0.0
 10
-8.502262
 20
106.983798
 30
0.0
 10
-9.972175
 20
106.374940
 30
0.0
 10
-11.504862
 20
106.374940
 30
0.0
  0
SPLINE
  5
107
100
AcDbEntity
  8
Camada_1
 62
7
100
AcDbSpline
 70
8
 71
3
 72
8
 73
4
 74
0
 40
0
 40
0
 40
0
 40
0
 40
1
 40
1
 40
1
 40
1
 10
-11.504862
 20
106.374940
 30
0.0
 10
-14.696517
 20
106.374940
 30
0.0
 10
-17.283866
 20
108.962288
 30
0.0
 10
-17.283866
 20
112.153944
 30
0.0
  0
SPLINE
  5
108
100
AcDbEntity
  8
Camada_1
 62
7
100
AcDbSpline
 70
8
 71
3
 72
8
 73
4
 74
0
 40
0
 40
0
 40
0
 40
0
 40
1
 40
1
 40
1
 40
1
 10
-17.283866
 20
112.153944
 30
0.0
 10
-17.283866
 20
113.686631
 30
0.0
 10
-16.675008
 20
115.156543
 30
0.0
 10
-15.591234
 20
116.240317
 30
0.0
  0
SPLINE
  5
109
100
AcDbEntity
  8
Camada_1
 62
7
100
AcDbSpline
 70
8
 71
3
 72
8
 73
4
 74
0
 40
0
 40
0
 40
0
 40
0
 40
1
 40
1
 40
1
 40
1
 10
-15.591234
 20
116.240317
 30
0.0
 10
-14.507461
 20
117.324090
 30
0.0
 10
-13.037549
 20
117.932948
 30
0.0
 10
-11.504862
 20
117.932948
 30
0.0
  0
SPLINE
  5
10a
100
AcDbEntity
  8
Camada_1
 62
7
100
AcDbSpline
 70
8
 71
3
 72
8
 73
4
 74
0
 40
0
 40
0
 40
0
 40
0
 40
1
 40
1
 40
1
 40
1
 10
-11.504862
 20
117.932948
 30
0.0
 10
-9.972175
 20
117.932948
 30
0.0
 10
-8.502262
 20
117.324090
 30
0.0
 10
-7.418489
 20
116.240317
 30
0.0
  0
SPLINE
  5
10b
100
AcDbEntity
  8
Camada_1
 62
7
100
AcDbSpline
 70
8
 71
3
 72
8
 73
4
 74
0
 40
0
 40
0
 40
0
 40
0
 40
1
 40
1
 40
1
 40
1
 10
-7.418489
 20
116.240317
 30
0.0
 10
-6.334715
 20
115.156543
 30
0.0
 10
-5.725858
 20
113.686631
 30
0.0
 10
-5.725858
 20
112.153944
 30
0.0
  0
LWPOLYLINE
  5
10c
100
AcDbEntity
  8
Camada_1
 62
7
100
AcDbPolyline
 90
4
 70
0
 10
-319.117349
 20
-86.160092
 30
0.0
 10
-319.117349
 20
-149.640094
 30
0.0
 10
319.117129
 20
-351.213130
 30
0.0
 10
319.117129
 20
351.212900
 30
0.0
  0
SPLINE
  5
10d
100
AcDbEntity
  8
Camada_1
 62
7
100
AcDbSpline
 70
8
 71
3
 72
8
 73
4
 74
0
 40
0
 40
0
 40
0
 40
0
 40
1
 40
1
 40
1
 40
1
 10
-7.973321
 20
112.153944
 30
0.0
 10
-7.973321
 20
111.217322
 30
0.0
 10
-8.345394
 20
110.319062
 30
0.0
 10
-9.007686
 20
109.656770
 30
0.0
  0
SPLINE
  5
10e
100
AcDbEntity
  8
Camada_1
 62
7
100
AcDbSpline
 70
8
 71
3
 72
8
 73
4
 74
0
 40
0
 40
0
 40
0
 40
0
 40
1
 40
1
 40
1
 40
1
 10
-9.007686
 20
109.656770
 30
0.0
 10
-9.669979
 20
108.994479
 30
0.0
 10
-10.568240
 20
108.622408
 30
0.0
 10
-11.504862
 20
108.622409
 30
0.0
  0
SPLINE
  5
10f
100
AcDbEntity
  8
Camada_1
 62
7
100
AcDbSpline
 70
8
 71
3
 72
8
 73
4
 74
0
 40
0
 40
0
 40
0
 40
0
 40
1
 40
1
 40
1
 40
1
 10
-11.504862
 20
108.622409
 30
0.0
 10
-13.455274
 20
108.622410
 30
0.0
 10
-15.036396
 20
110.203532
 30
0.0
 10
-15.036396
 20
112.153944
 30
0.0
  0
SPLINE
  5
110
100
AcDbEntity
  8
Camada_1
 62
7
100
AcDbSpline
 70
8
 71
3
 72
8
 73
4
 74
0
 40
0
 40
0
 40
0
 40
0
 40
1
 40
1
 40
1
 40
1
 10
-15.036396
 20
112.153944
 30
0.0
 10
-15.036396
 20
114.104357
 30
0.0
 10
-13.455274
 20
115.685478
 30
0.0
 10
-11.504862
 20
115.685479
 30
0.0
  0
SPLINE
  5
111
100
AcDbEntity
  8
Camada_1
 62
7
100
AcDbSpline
 70
8
 71
3
 72
8
 73
4
 74
0
 40
0
 40
0
 40
0
 40
0
 40
1
 40
1
 40
1
 40
1
 10
-11.504862
 20
115.685479
 30
0.0
 10
-10.568240
 20
115.685480
 30
0.0
 10
-9.669979
 20
115.313409
 30
0.0
 10
-9.007686
 20
114.651118
 30
0.0
  0
SPLINE
  5
112
100
AcDbEntity
  8
Camada_1
 62
7
100
AcDbSpline
 70
8
 71
3
 72
8
 73
4
 74
0
 40
0
 40
0
 40
0
 40
0
 40
1
 40
1
 40
1
 40
1
 10
-9.007686
 20
114.651118
 30
0.0
 10
-8.345394
 20
113.988827
 30
0.0
 10
-7.973321
 20
113.090566
 30
0.0
 10
-7.973321
 20
112.153944
 30
0.0
  0
LWPOLYLINE
  5
113
100
AcDbEntity
  8
Camada_1
 62
7
100
AcDbPolyline
 90
1
 70
1
 10
-5.725858
 20
112.153944
 30
0.0
  0
SPLINE
  5
114
100
AcDbEntity
  8
Camada_1
 62
7
100
AcDbSpline
 70
8
 71
3
 72
8
 73
4
 74
0
 40
0
 40
0
 40
0
 40
0
 40
1
 40
1
 40
1
 40
1
 10
-0.018543
 20
99.265815
 30
0.0
 10
-0.018543
 20
97.733128
 30
0.0
 10
-0.627401
 20
96.263216
 30
0.0
 10
-1.711174
 20
95.179442
 30
0.0
  0
SPLINE
  5
115
100
AcDbEntity
  8
Camada_1
 62
7
100
AcDbSpline
 70
8
 71
3
 72
8
 73
4
 74
0
 40
0
 40
0
 40
0
 40
0
 40
1
 40
1
 40
1
 40
1
 10
-1.711174
 20
95.179442
 30
0.0
 10
-2.794948
 20
94.095669
 30
0.0
 10
-4.264860
 20
93.486811
 30
0.0
 10
-5.797547
 20
93.486811
 30
0.0
  0
SPLINE
  5
116
100
AcDbEntity
  8
Camada_1
 62
7
100
AcDbSpline
 70
8
 71
3
 72
8
 73
4
 74
0
 40
0
 40
0
 40
0
 40
0
 40
1
 40
1
 40
1
 40
1
 10
-5.797547
 20
93.486811
 30
0.0
 10
-7.330234
 20
93.486811
 30
0.0
 10
-8.800147
 20
94.095669
 30
0.0
 10
-9.883920
 20
95.179442
 30
0.0
  0
SPLINE
  5
117
100
AcDbEntity
  8
Camada_1
 62
7
100
AcDbSpline
 70
8
 71
3
 72
8
 73
4
 74
0
 40
0
 40
0
 40
0
 40
0
 40
1
 40
1
 40
1
 40
1
 10
-9.883920
 20
95.179442
 30
0.0
 10
-10.967693
 20
96.263216
 30
0.0
 10
-11.576551
 20
97.733128
 30
0.0
 10
-11.576551
 20
99.265815
 30
0.0
  0
SPLINE
  5
118
100
AcDbEntity
  8
Camada_1
 62
7
100
AcDbSpline
 70
8
 71
3
 72
8
 73
4
 74
0
 40
0
 40
0
 40
0
 40
0
 40
1
 40
1
 40
1
 40
1
 10
-11.576551
 20
99.265815
 30
0.0
 10
-11.576551
 20
100.798502
 30
0.0
 10
-10.967693
 20
102.268414
 30
0.0
 10
-9.883920
 20
103.352188
 30
0.0
  0
SPLINE
  5
119
100
AcDbEntity
  8
Camada_1
 62
7
100
AcDbSpline
 70
8
 71
3
 72
8
 73
4
 74
0
 40
0
 40
0
 40
0
 40
0
 40
1
 40
1
 40
1
 40
1
 10
-9.883920
 20
103.352188
 30
0.0
 10
-8.800147
 20
104.435961
 30
0.0
 10
-7.330234
 20
105.044819
 30
0.0
 10
-5.797547
 20
105.044819
 30
0.0
  0
SPLINE
  5
11a
100
AcDbEntity
  8
Camada_1
 62
7
100
AcDbSpline
 70
8
 71
3
 72
8
 73
4
 74
0
 40
0
 40
0
 40
0
 40
0
 40
1
 40
1
 40
1
 40
1
 10
-5.797547
 20
105.044819
 30
0.0
 10
-4.264860
 20
105.044819
 30
0.0
 10
-2.794948
 20
104.435961
 30
0.0
 10
-1.711174
 20
103.352188
 30
0.0
  0
SPLINE
  5
11b
100
AcDbEntity
  8
Camada_1
 62
7
100
AcDbSpline
 70
8
 71
3
 72
8
 73
4
 74
0
 40
0
 40
0
 40
0
 40
0
 40
1
 40
1
 40
1
 40
1
 10
-1.711174
 20
103.352188
 30
0.0
 10
-0.627401
 20
102.268414
 30
0.0
 10
-0.018543
 20
100.798502
 30
0.0
 10
-0.018543
 20
99.265815
 30
0.0
  0
LWPOLYLINE
  5
11c
100
AcDbEntity
  8
Camada_1
 62
7
100
AcDbPolyline
 90
1
 70
1
 10
-7.973321
 20
112.153944
 30
0.0
  0
SPLINE
  5
11d
100
AcDbEntity
  8
Camada_1
 62
7
100
AcDbSpline
 70
8
 71
3
 72
8
 73
4
 74
0
 40
0
 40
0
 40
0
 40
0
 40
1
 40
1
 40
1
 40
1
 10
-2.266013
 20
99.265815
 30
0.0
 10
-2.266013
 20
97.315403
 30
0.0
 10
-3.847135
 20
95.734281
 30
0.0
 10
-5.797547
 20
95.734280
 30
0.0
  0
SPLINE
  5
11e
100
AcDbEntity
  8
Camada_1
 62
7
100
AcDbSpline
 70
8
 71
3
 72
8
 73
4
 74
0
 40
0
 40
0
 40
0
 40
0
 40
1
 40
1
 40
1
 40
1
 10
-5.797547
 20
95.734280
 30
0.0
 10
-6.734169
 20
95.734279
 30
0.0
 10
-7.632430
 20
96.106350
 30
0.0
 10
-8.294723
 20
96.768641
 30
0.0
  0
SPLINE
  5
11f
100
AcDbEntity
  8
Camada_1
 62
7
100
AcDbSpline
 70
8
 71
3
 72
8
 73
4
 74
0
 40
0
 40
0
 40
0
 40
0
 40
1
 40
1
 40
1
 40
1
 10
-8.294723
 20
96.768641
 30
0.0
 10
-8.957015
 20
97.430933
 30
0.0
 10
-9.329087
 20
98.329193
 30
0.0
 10
-9.329088
 20
99.265815
 30
0.0
  0
SPLINE
  5
120
100
AcDbEntity
  8
Camada_1
 62
7
100
AcDbSpline
 70
8
 71
3
 72
8
 73
4
 74
0
 40
0
 40
0
 40
0
 40
0
 40
1
 40
1
 40
1
 40
1
 10
-9.329088
 20
99.265815
 30
0.0
 10
-9.329089
 20
100.202438
 30
0.0
 10
-8.957017
 20
101.100700
 30
0.0
 10
-8.294725
 20
101.762993
 30
0.0
  0
SPLINE
  5
121
100
AcDbEntity
  8
Camada_1
 62
7
100
AcDbSpline
 70
8
 71
3
 72
8
 73
4
 74
0
 40
0
 40
0
 40
0
 40
0
 40
1
 40
1
 40
1
 40
1
 10
-8.294725
 20
101.762993
 30
0.0
 10
-7.632432
 20
102.425285
 30
0.0
 10
-6.734170
 20
102.797357
 30
0.0
 10
-5.797547
 20
102.797356
 30
0.0
  0
SPLINE
  5
122
100
AcDbEntity
  8
Camada_1
 62
7
100
AcDbSpline
 70
8
 71
3
 72
8
 73
4
 74
0
 40
0
 40
0
 40
0
 40
0
 40
1
 40
1
 40
1
 40
1
 10
-5.797547
 20
102.797356
 30
0.0
 10
-4.860925
 20
102.797355
 30
0.0
 10
-3.962665
 20
102.425283
 30
0.0
 10
-3.300373
 20
101.762991
 30
0.0
  0
SPLINE
  5
123
100
AcDbEntity
  8
Camada_1
 62
7
100
AcDbSpline
 70
8
 71
3
 72
8
 73
4
 74
0
 40
0
 40
0
 40
0
 40
0
 40
1
 40
1
 40
1
 40
1
 10
-3.300373
 20
101.762991
 30
0.0
 10
-2.638082
 20
101.100698
 30
0.0
 10
-2.266011
 20
100.202437
 30
0.0
 10
-2.266013
 20
99.265815
 30
0.0
  0
LWPOLYLINE
  5
124
100
AcDbEntity
  8
Camada_1
 62
7
100
AcDbPolyline
 90
1
 70
1
 10
-0.018543
 20
99.265815
 30
0.0
  0
SPLINE
  5
125
100
AcDbEntity
  8
Camada_1
 62
7
100
AcDbSpline
 70
8
 71
3
 72
8
 73
4
 74
0
 40
0
 40
0
 40
0
 40
0
 40
1
 40
1
 40
1
 40
1
 10
48.690931
 20
115.582663
 30
0.0
 10
48.690931
 20
114.049976
 30
0.0
 10
48.082073
 20
112.580064
 30
0.0
 10
46.998300
 20
111.496291
 30
0.0
  0
SPLINE
  5
126
100
AcDbEntity
  8
Camada_1
 62
7
100
AcDbSpline
 70
8
 71
3
 72
8
 73
4
 74
0
 40
0
 40
0
 40
0
 40
0
 40
1
 40
1
 40
1
 40
1
 10
46.998300
 20
111.496291
 30
0.0
 10
45.914527
 20
110.412517
 30
0.0
 10
44.444614
 20
109.803660
 30
0.0
 10
42.911927
 20
109.803660
 30
0.0
  0
SPLINE
  5
127
100
AcDbEntity
  8
Camada_1
 62
7
100
AcDbSpline
 70
8
 71
3
 72
8
 73
4
 74
0
 40
0
 40
0
 40
0
 40
0
 40
1
 40
1
 40
1
 40
1
 10
42.911927
 20
109.803660
 30
0.0
 10
41.379240
 20
109.803660
 30
0.0
 10
39.909328
 20
110.412517
 30
0.0
 10
38.825554
 20
111.496291
 30
0.0
  0
SPLINE
  5
128
100
AcDbEntity
  8
Camada_1
 62
7
100
AcDbSpline
 70
8
 71
3
 72
8
 73
4
 74
0
 40
0
 40
0
 40
0
 40
0
 40
1
 40
1
 40
1
 40
1
 10
38.825554
 20
111.496291
 30
0.0
 10
37.741781
 20
112.580064
 30
0.0
 10
37.132923
 20
114.049976
 30
0.0
 10
37.132923
 20
115.582663
 30
0.0
  0
SPLINE
  5
129
100
AcDbEntity
  8
Camada_1
 62
7
100
AcDbSpline
 70
8
 71
3
 72
8
 73
4
 74
0
 40
0
 40
0
 40
0
 40
0
 40
1
 40
1
 40
1
 40
1
 10
37.132923
 20
115.582663
 30
0.0
 10
37.132923
 20
117.115351
 30
0.0
 10
37.741781
 20
118.585263
 30
0.0
 10
38.825554
 20
119.669036
 30
0.0
  0
SPLINE
  5
12a
100
AcDbEntity
  8
Camada_1
 62
7
100
AcDbSpline
 70
8
 71
3
 72
8
 73
4
 74
0
 40
0
 40
0
 40
0
 40
0
 40
1
 40
1
 40
1
 40
1
 10
38.825554
 20
119.669036
 30
0.0
 10
39.909328
 20
120.752810
 30
0.0
 10
41.379240
 20
121.361667
 30
0.0
 10
42.911927
 20
121.361667
 30
0.0
  0
SPLINE
  5
12b
100
AcDbEntity
  8
Camada_1
 62
7
100
AcDbSpline
 70
8
 71
3
 72
8
 73
4
 74
0
 40
0
 40
0
 40
0
 40
0
 40
1
 40
1
 40
1
 40
1
 10
42.911927
 20
121.361667
 30
0.0
 10
44.444614
 20
121.361667
 30
0.0
 10
45.914527
 20
120.752810
 30
0.0
 10
46.998300
 20
119.669036
 30
0.0
  0
SPLINE
  5
12c
100
AcDbEntity
  8
Camada_1
 62
7
100
AcDbSpline
 70
8
 71
3
 72
8
 73
4
 74
0
 40
0
 40
0
 40
0
 40
0
 40
1
 40
1
 40
1
 40
1
 10
46.998300
 20
119.669036
 30
0.0
 10
48.082073
 20
118.585263
 30
0.0
 10
48.690931
 20
117.115351
 30
0.0
 10
48.690931
 20
115.582663
 30
0.0
  0
LWPOLYLINE
  5
12d
100
AcDbEntity
  8
Camada_1
 62
7
100
AcDbPolyline
 90
1
 70
1
 10
-2.266013
 20
99.265815
 30
0.0
  0
SPLINE
  5
12e
100
AcDbEntity
  8
Camada_1
 62
7
100
AcDbSpline
 70
8
 71
3
 72
8
 73
4
 74
0
 40
0
 40
0
 40
0
 40
0
 40
1
 40
1
 40
1
 40
1
 10
46.443462
 20
115.582663
 30
0.0
 10
46.443461
 20
113.632251
 30
0.0
 10
44.862340
 20
112.051129
 30
0.0
 10
42.911927
 20
112.051129
 30
0.0
  0
SPLINE
  5
12f
100
AcDbEntity
  8
Camada_1
 62
7
100
AcDbSpline
 70
8
 71
3
 72
8
 73
4
 74
0
 40
0
 40
0
 40
0
 40
0
 40
1
 40
1
 40
1
 40
1
 10
42.911927
 20
112.051129
 30
0.0
 10
40.961515
 20
112.051129
 30
0.0
 10
39.380393
 20
113.632251
 30
0.0
 10
39.380393
 20
115.582663
 30
0.0
  0
SPLINE
  5
130
100
AcDbEntity
  8
Camada_1
 62
7
100
AcDbSpline
 70
8
 71
3
 72
8
 73
4
 74
0
 40
0
 40
0
 40
0
 40
0
 40
1
 40
1
 40
1
 40
1
 10
39.380393
 20
115.582663
 30
0.0
 10
39.380391
 20
116.519286
 30
0.0
 10
39.752462
 20
117.417547
 30
0.0
 10
40.414753
 20
118.079839
 30
0.0
  0
SPLINE
  5
131
100
AcDbEntity
  8
Camada_1
 62
7
100
AcDbSpline
 70
8
 71
3
 72
8
 73
4
 74
0
 40
0
 40
0
 40
0
 40
0
 40
1
 40
1
 40
1
 40
1
 10
40.414753
 20
118.079839
 30
0.0
 10
41.077045
 20
118.742131
 30
0.0
 10
41.975305
 20
119.114204
 30
0.0
 10
42.911927
 20
119.114204
 30
0.0
  0
SPLINE
  5
132
100
AcDbEntity
  8
Camada_1
 62
7
100
AcDbSpline
 70
8
 71
3
 72
8
 73
4
 74
0
 40
0
 40
0
 40
0
 40
0
 40
1
 40
1
 40
1
 40
1
 10
42.911927
 20
119.114204
 30
0.0
 10
43.848549
 20
119.114204
 30
0.0
 10
44.746810
 20
118.742131
 30
0.0
 10
45.409101
 20
118.079839
 30
0.0
  0
SPLINE
  5
133
100
AcDbEntity
  8
Camada_1
 62
7
100
AcDbSpline
 70
8
 71
3
 72
8
 73
4
 74
0
 40
0
 40
0
 40
0
 40
0
 40
1
 40
1
 40
1
 40
1
 10
45.409101
 20
118.079839
 30
0.0
 10
46.071392
 20
117.417547
 30
0.0
 10
46.443463
 20
116.519286
 30
0.0
 10
46.443462
 20
115.582663
 30
0.0
  0
LWPOLYLINE
  5
134
100
AcDbEntity
  8
Camada_1
 62
7
100
AcDbPolyline
 90
1
 70
1
 10
48.690931
 20
115.582663
 30
0.0
  0
SPLINE
  5
135
100
AcDbEntity
  8
Camada_1
 62
7
100
AcDbSpline
 70
8
 71
3
 72
8
 73
4
 74
0
 40
0
 40
0
 40
0
 40
0
 40
1
 40
1
 40
1
 40
1
 10
54.432549
 20
100.715956
 30
0.0
 10
54.432549
 20
99.183269
 30
0.0
 10
53.823691
 20
97.713357
 30
0.0
 10
52.739917
 20
96.629583
 30
0.0
  0
SPLINE
  5
136
100
AcDbEntity
  8
Camada_1
 62
7
100
AcDbSpline
 70
8
 71
3
 72
8
 73
4
 74
0
 40
0
 40
0
 40
0
 40
0
 40
1
 40
1
 40
1
 40
1
 10
52.739917
 20
96.629583
 30
0.0
 10
51.656144
 20
95.545810
 30
0.0
 10
50.186232
 20
94.936952
 30
0.0
 10
48.653545
 20
94.936952
 30
0.0
  0
SPLINE
  5
137
100
AcDbEntity
  8
Camada_1
 62
7
100
AcDbSpline
 70
8
 71
3
 72
8
 73
4
 74
0
 40
0
 40
0
 40
0
 40
0
 40
1
 40
1
 40
1
 40
1
 10
48.653545
 20
94.936952
 30
0.0
 10
45.461889
 20
94.936952
 30
0.0
 10
42.874541
 20
97.524300
 30
0.0
 10
42.874541
 20
100.715956
 30
0.0
  0
SPLINE
  5
138
100
AcDbEntity
  8
Camada_1
 62
7
100
AcDbSpline
 70
8
 71
3
 72
8
 73
4
 74
0
 40
0
 40
0
 40
0
 40
0
 40
1
 40
1
 40
1
 40
1
 10
42.874541
 20
100.715956
 30
0.0
 10
42.874541
 20
103.907612
 30
0.0
 10
45.461889
 20
106.494960
 30
0.0
 10
48.653545
 20
106.494960
 30
0.0
  0
SPLINE
  5
139
100
AcDbEntity
  8
Camada_1
 62
7
100
AcDbSpline
 70
8
 71
3
 72
8
 73
4
 74
0
 40
0
 40
0
 40
0
 40
0
 40
1
 40
1
 40
1
 40
1
 10
48.653545
 20
106.494960
 30
0.0
 10
50.186232
 20
106.494960
 30
0.0
 10
51.656144
 20
105.886102
 30
0.0
 10
52.739917
 20
104.802329
 30
0.0
  0
SPLINE
  5
13a
100
AcDbEntity
  8
Camada_1
 62
7
100
AcDbSpline
 70
8
 71
3
 72
8
 73
4
 74
0
 40
0
 40
0
 40
0
 40
0
 40
1
 40
1
 40
1
 40
1
 10
52.739917
 20
104.802329
 30
0.0
 10
53.823691
 20
103.718555
 30
0.0
 10
54.432549
 20
102.248643
 30
0.0
 10
54.432549
 20
100.715956
 30
0.0
  0
LWPOLYLINE
  5
13b
100
AcDbEntity
  8
Camada_1
 62
7
100
AcDbPolyline
 90
1
 70
1
 10
46.443462
 20
115.582663
 30
0.0
  0
SPLINE
  5
13c
100
AcDbEntity
  8
Camada_1
 62
7
100
AcDbSpline
 70
8
 71
3
 72
8
 73
4
 74
0
 40
0
 40
0
 40
0
 40
0
 40
1
 40
1
 40
1
 40
1
 10
52.185085
 20
100.715956
 30
0.0
 10
52.185085
 20
99.779334
 30
0.0
 10
51.813013
 20
98.881073
 30
0.0
 10
51.150720
 20
98.218782
 30
0.0
  0
SPLINE
  5
13d
100
AcDbEntity
  8
Camada_1
 62
7
100
AcDbSpline
 70
8
 71
3
 72
8
 73
4
 74
0
 40
0
 40
0
 40
0
 40
0
 40
1
 40
1
 40
1
 40
1
 10
51.150720
 20
98.218782
 30
0.0
 10
50.488428
 20
97.556491
 30
0.0
 10
49.590167
 20
97.184420
 30
0.0
 10
48.653545
 20
97.184421
 30
0.0
  0
SPLINE
  5
13e
100
AcDbEntity
  8
Camada_1
 62
7
100
AcDbSpline
 70
8
 71
3
 72
8
 73
4
 74
0
 40
0
 40
0
 40
0
 40
0
 40
1
 40
1
 40
1
 40
1
 10
48.653545
 20
97.184421
 30
0.0
 10
46.703132
 20
97.184422
 30
0.0
 10
45.122011
 20
98.765543
 30
0.0
 10
45.122010
 20
100.715956
 30
0.0
  0
SPLINE
  5
13f
100
AcDbEntity
  8
Camada_1
 62
7
100
AcDbSpline
 70
8
 71
3
 72
8
 73
4
 74
0
 40
0
 40
0
 40
0
 40
0
 40
1
 40
1
 40
1
 40
1
 10
45.122010
 20
100.715956
 30
0.0
 10
45.122009
 20
101.652578
 30
0.0
 10
45.494080
 20
102.550839
 30
0.0
 10
46.156371
 20
103.213131
 30
0.0
  0
SPLINE
  5
140
100
AcDbEntity
  8
Camada_1
 62
7
100
AcDbSpline
 70
8
 71
3
 72
8
 73
4
 74
0
 40
0
 40
0
 40
0
 40
0
 40
1
 40
1
 40
1
 40
1
 10
46.156371
 20
103.213131
 30
0.0
 10
46.818662
 20
103.875424
 30
0.0
 10
47.716923
 20
104.247496
 30
0.0
 10
48.653545
 20
104.247496
 30
0.0
  0
SPLINE
  5
141
100
AcDbEntity
  8
Camada_1
 62
7
100
AcDbSpline
 70
8
 71
3
 72
8
 73
4
 74
0
 40
0
 40
0
 40
0
 40
0
 40
1
 40
1
 40
1
 40
1
 10
48.653545
 20
104.247496
 30
0.0
 10
49.590168
 20
104.247498
 30
0.0
 10
50.488430
 20
103.875426
 30
0.0
 10
51.150722
 20
103.213134
 30
0.0
  0
SPLINE
  5
142
100
AcDbEntity
  8
Camada_1
 62
7
100
AcDbSpline
 70
8
 71
3
 72
8
 73
4
 74
0
 40
0
 40
0
 40
0
 40
0
 40
1
 40
1
 40
1
 40
1
 10
51.150722
 20
103.213134
 30
0.0
 10
51.813015
 20
102.550841
 30
0.0
 10
52.185086
 20
101.652579
 30
0.0
 10
52.185085
 20
100.715956
 30
0.0
  0
LWPOLYLINE
  5
143
100
AcDbEntity
  8
Camada_1
 62
7
100
AcDbPolyline
 90
1
 70
1
 10
54.432549
 20
100.715956
 30
0.0
  0
SPLINE
  5
144
100
AcDbEntity
  8
Camada_1
 62
7
100
AcDbSpline
 70
8
 71
3
 72
8
 73
4
 74
0
 40
0
 40
0
 40
0
 40
0
 40
1
 40
1
 40
1
 40
1
 10
51.715529
 20
-6.836984
 30
0.0
 10
51.715529
 20
-8.369671
 30
0.0
 10
51.106671
 20
-9.839583
 30
0.0
 10
50.022898
 20
-10.923356
 30
0.0
  0
SPLINE
  5
145
100
AcDbEntity
  8
Camada_1
 62
7
100
AcDbSpline
 70
8
 71
3
 72
8
 73
4
 74
0
 40
0
 40
0
 40
0
 40
0
 40
1
 40
1
 40
1
 40
1
 10
50.022898
 20
-10.923356
 30
0.0
 10
48.939124
 20
-12.007130
 30
0.0
 10
47.469212
 20
-12.615987
 30
0.0
 10
45.936525
 20
-12.615987
 30
0.0
  0
SPLINE
  5
146
100
AcDbEntity
  8
Camada_1
 62
7
100
AcDbSpline
 70
8
 71
3
 72
8
 73
4
 74
0
 40
0
 40
0
 40
0
 40
0
 40
1
 40
1
 40
1
 40
1
 10
45.936525
 20
-12.615987
 30
0.0
 10
44.403838
 20
-12.615987
 30
0.0
 10
42.933926
 20
-12.007130
 30
0.0
 10
41.850152
 20
-10.923356
 30
0.0
  0
SPLINE
  5
147
100
AcDbEntity
  8
Camada_1
 62
7
100
AcDbSpline
 70
8
 71
3
 72
8
 73
4
 74
0
 40
0
 40
0
 40
0
 40
0
 40
1
 40
1
 40
1
 40
1
 10
41.850152
 20
-10.923356
 30
0.0
 10
40.766379
 20
-9.839583
 30
0.0
 10
40.157521
 20
-8.369671
 30
0.0
 10
40.157521
 20
-6.836984
 30
0.0
  0
SPLINE
  5
148
100
AcDbEntity
  8
Camada_1
 62
7
100
AcDbSpline
 70
8
 71
3
 72
8
 73
4
 74
0
 40
0
 40
0
 40
0
 40
0
 40
1
 40
1
 40
1
 40
1
 10
40.157521
 20
-6.836984
 30
0.0
 10
40.157521
 20
-5.304297
 30
0.0
 10
40.766379
 20
-3.834384
 30
0.0
 10
41.850152
 20
-2.750611
 30
0.0
  0
SPLINE
  5
149
100
AcDbEntity
  8
Camada_1
 62
7
100
AcDbSpline
 70
8
 71
3
 72
8
 73
4
 74
0
 40
0
 40
0
 40
0
 40
0
 40
1
 40
1
 40
1
 40
1
 10
41.850152
 20
-2.750611
 30
0.0
 10
42.933926
 20
-1.666837
 30
0.0
 10
44.403838
 20
-1.057980
 30
0.0
 10
45.936525
 20
-1.057980
 30
0.0
  0
SPLINE
  5
14a
100
AcDbEntity
  8
Camada_1
 62
7
100
AcDbSpline
 70
8
 71
3
 72
8
 73
4
 74
0
 40
0
 40
0
 40
0
 40
0
 40
1
 40
1
 40
1
 40
1
 10
45.936525
 20
-1.057980
 30
0.0
 10
47.469212
 20
-1.057980
 30
0.0
 10
48.939124
 20
-1.666837
 30
0.0
 10
50.022898
 20
-2.750611
 30
0.0
  0
SPLINE
  5
14b
100
AcDbEntity
  8
Camada_1
 62
7
100
AcDbSpline
 70
8
 71
3
 72
8
 73
4
 74
0
 40
0
 40
0
 40
0
 40
0
 40
1
 40
1
 40
1
 40
1
 10
50.022898
 20
-2.750611
 30
0.0
 10
51.106671
 20
-3.834384
 30
0.0
 10
51.715529
 20
-5.304297
 30
0.0
 10
51.715529
 20
-6.836984
 30
0.0
  0
LWPOLYLINE
  5
14c
100
AcDbEntity
  8
Camada_1
 62
7
100
AcDbPolyline
 90
1
 70
1
 10
52.185085
 20
100.715956
 30
0.0
  0
SPLINE
  5
14d
100
AcDbEntity
  8
Camada_1
 62
7
100
AcDbSpline
 70
8
 71
3
 72
8
 73
4
 74
0
 40
0
 40
0
 40
0
 40
0
 40
1
 40
1
 40
1
 40
1
 10
49.468060
 20
-6.836984
 30
0.0
 10
49.468060
 20
-8.787397
 30
0.0
 10
47.886938
 20
-10.368519
 30
0.0
 10
45.936525
 20
-10.368519
 30
0.0
  0
SPLINE
  5
14e
100
AcDbEntity
  8
Camada_1
 62
7
100
AcDbSpline
 70
8
 71
3
 72
8
 73
4
 74
0
 40
0
 40
0
 40
0
 40
0
 40
1
 40
1
 40
1
 40
1
 10
45.936525
 20
-10.368519
 30
0.0
 10
43.986112
 20
-10.368519
 30
0.0
 10
42.404990
 20
-8.787397
 30
0.0
 10
42.404990
 20
-6.836984
 30
0.0
  0
SPLINE
  5
14f
100
AcDbEntity
  8
Camada_1
 62
7
100
AcDbSpline
 70
8
 71
3
 72
8
 73
4
 74
0
 40
0
 40
0
 40
0
 40
0
 40
1
 40
1
 40
1
 40
1
 10
42.404990
 20
-6.836984
 30
0.0
 10
42.404990
 20
-4.886571
 30
0.0
 10
43.986112
 20
-3.305448
 30
0.0
 10
45.936525
 20
-3.305448
 30
0.0
  0
SPLINE
  5
150
100
AcDbEntity
  8
Camada_1
 62
7
100
AcDbSpline
 70
8
 71
3
 72
8
 73
4
 74
0
 40
0
 40
0
 40
0
 40
0
 40
1
 40
1
 40
1
 40
1
 10
45.936525
 20
-3.305448
 30
0.0
 10
47.886938
 20
-3.305448
 30
0.0
 10
49.468060
 20
-4.886571
 30
0.0
 10
49.468060
 20
-6.836984
 30
0.0
  0
LWPOLYLINE
  5
151
100
AcDbEntity
  8
Camada_1
 62
7
100
AcDbPolyline
 90
1
 70
1
 10
51.715529
 20
-6.836984
 30
0.0
  0
SPLINE
  5
152
100
AcDbEntity
  8
Camada_1
 62
7
100
AcDbSpline
 70
8
 71
3
 72
8
 73
4
 74
0
 40
0
 40
0
 40
0
 40
0
 40
1
 40
1
 40
1
 40
1
 10
-0.574273
 20
-4.376289
 30
0.0
 10
-0.574273
 20
-5.908977
 30
0.0
 10
-1.183131
 20
-7.378889
 30
0.0
 10
-2.266904
 20
-8.462662
 30
0.0
  0
SPLINE
  5
153
100
AcDbEntity
  8
Camada_1
 62
7
100
AcDbSpline
 70
8
 71
3
 72
8
 73
4
 74
0
 40
0
 40
0
 40
0
 40
0
 40
1
 40
1
 40
1
 40
1
 10
-2.266904
 20
-8.462662
 30
0.0
 10
-3.350678
 20
-9.546436
 30
0.0
 10
-4.820590
 20
-10.155293
 30
0.0
 10
-6.353277
 20
-10.155293
 30
0.0
  0
SPLINE
  5
154
100
AcDbEntity
  8
Camada_1
 62
7
100
AcDbSpline
 70
8
 71
3
 72
8
 73
4
 74
0
 40
0
 40
0
 40
0
 40
0
 40
1
 40
1
 40
1
 40
1
 10
-6.353277
 20
-10.155293
 30
0.0
 10
-9.544933
 20
-10.155293
 30
0.0
 10
-12.132281
 20
-7.567945
 30
0.0
 10
-12.132281
 20
-4.376289
 30
0.0
  0
SPLINE
  5
155
100
AcDbEntity
  8
Camada_1
 62
7
100
AcDbSpline
 70
8
 71
3
 72
8
 73
4
 74
0
 40
0
 40
0
 40
0
 40
0
 40
1
 40
1
 40
1
 40
1
 10
-12.132281
 20
-4.376289
 30
0.0
 10
-12.132281
 20
-2.843602
 30
0.0
 10
-11.523423
 20
-1.373690
 30
0.0
 10
-10.439650
 20
-0.289917
 30
0.0
  0
SPLINE
  5
156
100
AcDbEntity
  8
Camada_1
 62
7
100
AcDbSpline
 70
8
 71
3
 72
8
 73
4
 74
0
 40
0
 40
0
 40
0
 40
0
 40
1
 40
1
 40
1
 40
1
 10
-10.439650
 20
-0.289917
 30
0.0
 10
-9.355877
 20
0.793857
 30
0.0
 10
-7.885964
 20
1.402714
 30
0.0
 10
-6.353277
 20
1.402714
 30
0.0
  0
SPLINE
  5
157
100
AcDbEntity
  8
Camada_1
 62
7
100
AcDbSpline
 70
8
 71
3
 72
8
 73
4
 74
0
 40
0
 40
0
 40
0
 40
0
 40
1
 40
1
 40
1
 40
1
 10
-6.353277
 20
1.402714
 30
0.0
 10
-4.820590
 20
1.402714
 30
0.0
 10
-3.350678
 20
0.793857
 30
0.0
 10
-2.266904
 20
-0.289917
 30
0.0
  0
SPLINE
  5
158
100
AcDbEntity
  8
Camada_1
 62
7
100
AcDbSpline
 70
8
 71
3
 72
8
 73
4
 74
0
 40
0
 40
0
 40
0
 40
0
 40
1
 40
1
 40
1
 40
1
 10
-2.266904
 20
-0.289917
 30
0.0
 10
-1.183131
 20
-1.373690
 30
0.0
 10
-0.574273
 20
-2.843602
 30
0.0
 10
-0.574273
 20
-4.376289
 30
0.0
  0
LWPOLYLINE
  5
159
100
AcDbEntity
  8
Camada_1
 62
7
100
AcDbPolyline
 90
1
 70
1
 10
49.468060
 20
-6.836984
 30
0.0
  0
SPLINE
  5
15a
100
AcDbEntity
  8
Camada_1
 62
7
100
AcDbSpline
 70
8
 71
3
 72
8
 73
4
 74
0
 40
0
 40
0
 40
0
 40
0
 40
1
 40
1
 40
1
 40
1
 10
-2.821743
 20
-4.376289
 30
0.0
 10
-2.821743
 20
-6.326702
 30
0.0
 10
-4.402864
 20
-7.907825
 30
0.0
 10
-6.353277
 20
-7.907825
 30
0.0
  0
SPLINE
  5
15b
100
AcDbEntity
  8
Camada_1
 62
7
100
AcDbSpline
 70
8
 71
3
 72
8
 73
4
 74
0
 40
0
 40
0
 40
0
 40
0
 40
1
 40
1
 40
1
 40
1
 10
-6.353277
 20
-7.907825
 30
0.0
 10
-7.289900
 20
-7.907826
 30
0.0
 10
-8.188161
 20
-7.535756
 30
0.0
 10
-8.850453
 20
-6.873464
 30
0.0
  0
SPLINE
  5
15c
100
AcDbEntity
  8
Camada_1
 62
7
100
AcDbSpline
 70
8
 71
3
 72
8
 73
4
 74
0
 40
0
 40
0
 40
0
 40
0
 40
1
 40
1
 40
1
 40
1
 10
-8.850453
 20
-6.873464
 30
0.0
 10
-9.512746
 20
-6.211172
 30
0.0
 10
-9.884818
 20
-5.312912
 30
0.0
 10
-9.884818
 20
-4.376289
 30
0.0
  0
SPLINE
  5
15d
100
AcDbEntity
  8
Camada_1
 62
7
100
AcDbSpline
 70
8
 71
3
 72
8
 73
4
 74
0
 40
0
 40
0
 40
0
 40
0
 40
1
 40
1
 40
1
 40
1
 10
-9.884818
 20
-4.376289
 30
0.0
 10
-9.884818
 20
-3.439667
 30
0.0
 10
-9.512746
 20
-2.541406
 30
0.0
 10
-8.850453
 20
-1.879115
 30
0.0
  0
SPLINE
  5
15e
100
AcDbEntity
  8
Camada_1
 62
7
100
AcDbSpline
 70
8
 71
3
 72
8
 73
4
 74
0
 40
0
 40
0
 40
0
 40
0
 40
1
 40
1
 40
1
 40
1
 10
-8.850453
 20
-1.879115
 30
0.0
 10
-8.188161
 20
-1.216823
 30
0.0
 10
-7.289900
 20
-0.844752
 30
0.0
 10
-6.353277
 20
-0.844754
 30
0.0
  0
SPLINE
  5
15f
100
AcDbEntity
  8
Camada_1
 62
7
100
AcDbSpline
 70
8
 71
3
 72
8
 73
4
 74
0
 40
0
 40
0
 40
0
 40
0
 40
1
 40
1
 40
1
 40
1
 10
-6.353277
 20
-0.844754
 30
0.0
 10
-4.402864
 20
-0.844754
 30
0.0
 10
-2.821743
 20
-2.425877
 30
0.0
 10
-2.821743
 20
-4.376289
 30
0.0
  0
LWPOLYLINE
  5
160
100
AcDbEntity
  8
Camada_1
 62
7
100
AcDbPolyline
 90
1
 70
1
 10
-0.574273
 20
-4.376289
 30
0.0
  0
SPLINE
  5
161
100
AcDbEntity
  8
Camada_1
 62
7
100
AcDbSpline
 70
8
 71
3
 72
8
 73
4
 74
0
 40
0
 40
0
 40
0
 40
0
 40
1
 40
1
 40
1
 40
1
 10
0.245957
 20
-20.473344
 30
0.0
 10
0.245957
 20
-22.006031
 30
0.0
 10
-0.362900
 20
-23.475944
 30
0.0
 10
-1.446674
 20
-24.559717
 30
0.0
  0
SPLINE
  5
162
100
AcDbEntity
  8
Camada_1
 62
7
100
AcDbSpline
 70
8
 71
3
 72
8
 73
4
 74
0
 40
0
 40
0
 40
0
 40
0
 40
1
 40
1
 40
1
 40
1
 10
-1.446674
 20
-24.559717
 30
0.0
 10
-2.530447
 20
-25.643491
 30
0.0
 10
-4.000360
 20
-26.252348
 30
0.0
 10
-5.533047
 20
-26.252348
 30
0.0
  0
SPLINE
  5
163
100
AcDbEntity
  8
Camada_1
 62
7
100
AcDbSpline
 70
8
 71
3
 72
8
 73
4
 74
0
 40
0
 40
0
 40
0
 40
0
 40
1
 40
1
 40
1
 40
1
 10
-5.533047
 20
-26.252348
 30
0.0
 10
-7.065734
 20
-26.252348
 30
0.0
 10
-8.535647
 20
-25.643491
 30
0.0
 10
-9.619420
 20
-24.559717
 30
0.0
  0
SPLINE
  5
164
100
AcDbEntity
  8
Camada_1
 62
7
100
AcDbSpline
 70
8
 71
3
 72
8
 73
4
 74
0
 40
0
 40
0
 40
0
 40
0
 40
1
 40
1
 40
1
 40
1
 10
-9.619420
 20
-24.559717
 30
0.0
 10
-10.703193
 20
-23.475944
 30
0.0
 10
-11.312051
 20
-22.006031
 30
0.0
 10
-11.312051
 20
-20.473344
 30
0.0
  0
SPLINE
  5
165
100
AcDbEntity
  8
Camada_1
 62
7
100
AcDbSpline
 70
8
 71
3
 72
8
 73
4
 74
0
 40
0
 40
0
 40
0
 40
0
 40
1
 40
1
 40
1
 40
1
 10
-11.312051
 20
-20.473344
 30
0.0
 10
-11.312051
 20
-18.940657
 30
0.0
 10
-10.703193
 20
-17.470745
 30
0.0
 10
-9.619420
 20
-16.386971
 30
0.0
  0
SPLINE
  5
166
100
AcDbEntity
  8
Camada_1
 62
7
100
AcDbSpline
 70
8
 71
3
 72
8
 73
4
 74
0
 40
0
 40
0
 40
0
 40
0
 40
1
 40
1
 40
1
 40
1
 10
-9.619420
 20
-16.386971
 30
0.0
 10
-8.535646
 20
-15.303198
 30
0.0
 10
-7.065734
 20
-14.694340
 30
0.0
 10
-5.533047
 20
-14.694340
 30
0.0
  0
SPLINE
  5
167
100
AcDbEntity
  8
Camada_1
 62
7
100
AcDbSpline
 70
8
 71
3
 72
8
 73
4
 74
0
 40
0
 40
0
 40
0
 40
0
 40
1
 40
1
 40
1
 40
1
 10
-5.533047
 20
-14.694340
 30
0.0
 10
-4.000360
 20
-14.694340
 30
0.0
 10
-2.530448
 20
-15.303198
 30
0.0
 10
-1.446674
 20
-16.386971
 30
0.0
  0
SPLINE
  5
168
100
AcDbEntity
  8
Camada_1
 62
7
100
AcDbSpline
 70
8
 71
3
 72
8
 73
4
 74
0
 40
0
 40
0
 40
0
 40
0
 40
1
 40
1
 40
1
 40
1
 10
-1.446674
 20
-16.386971
 30
0.0
 10
-0.362901
 20
-17.470745
 30
0.0
 10
0.245957
 20
-18.940657
 30
0.0
 10
0.245957
 20
-20.473344
 30
0.0
  0
LWPOLYLINE
  5
169
100
AcDbEntity
  8
Camada_1
 62
7
100
AcDbPolyline
 90
1
 70
1
 10
-2.821743
 20
-4.376289
 30
0.0
  0
SPLINE
  5
16a
100
AcDbEntity
  8
Camada_1
 62
7
100
AcDbSpline
 70
8
 71
3
 72
8
 73
4
 74
0
 40
0
 40
0
 40
0
 40
0
 40
1
 40
1
 40
1
 40
1
 10
-2.001512
 20
-20.473344
 30
0.0
 10
-2.001512
 20
-22.423757
 30
0.0
 10
-3.582634
 20
-24.004879
 30
0.0
 10
-5.533047
 20
-24.004880
 30
0.0
  0
SPLINE
  5
16b
100
AcDbEntity
  8
Camada_1
 62
7
100
AcDbSpline
 70
8
 71
3
 72
8
 73
4
 74
0
 40
0
 40
0
 40
0
 40
0
 40
1
 40
1
 40
1
 40
1
 10
-5.533047
 20
-24.004880
 30
0.0
 10
-7.483460
 20
-24.004879
 30
0.0
 10
-9.064582
 20
-22.423757
 30
0.0
 10
-9.064582
 20
-20.473344
 30
0.0
  0
SPLINE
  5
16c
100
AcDbEntity
  8
Camada_1
 62
7
100
AcDbSpline
 70
8
 71
3
 72
8
 73
4
 74
0
 40
0
 40
0
 40
0
 40
0
 40
1
 40
1
 40
1
 40
1
 10
-9.064582
 20
-20.473344
 30
0.0
 10
-9.064582
 20
-18.522931
 30
0.0
 10
-7.483460
 20
-16.941809
 30
0.0
 10
-5.533047
 20
-16.941808
 30
0.0
  0
SPLINE
  5
16d
100
AcDbEntity
  8
Camada_1
 62
7
100
AcDbSpline
 70
8
 71
3
 72
8
 73
4
 74
0
 40
0
 40
0
 40
0
 40
0
 40
1
 40
1
 40
1
 40
1
 10
-5.533047
 20
-16.941808
 30
0.0
 10
-3.582634
 20
-16.941809
 30
0.0
 10
-2.001512
 20
-18.522931
 30
0.0
 10
-2.001512
 20
-20.473344
 30
0.0
  0
LWPOLYLINE
  5
16e
100
AcDbEntity
  8
Camada_1
 62
7
100
AcDbPolyline
 90
1
 70
1
 10
0.245957
 20
-20.473344
 30
0.0
  0
SPLINE
  5
16f
100
AcDbEntity
  8
Camada_1
 62
7
100
AcDbSpline
 70
8
 71
3
 72
8
 73
4
 74
0
 40
0
 40
0
 40
0
 40
0
 40
1
 40
1
 40
1
 40
1
 10
52.740821
 20
-20.114493
 30
0.0
 10
52.740821
 20
-21.647180
 30
0.0
 10
52.131964
 20
-23.117093
 30
0.0
 10
51.048190
 20
-24.200866
 30
0.0
  0
SPLINE
  5
170
100
AcDbEntity
  8
Camada_1
 62
7
100
AcDbSpline
 70
8
 71
3
 72
8
 73
4
 74
0
 40
0
 40
0
 40
0
 40
0
 40
1
 40
1
 40
1
 40
1
 10
51.048190
 20
-24.200866
 30
0.0
 10
49.964417
 20
-25.284640
 30
0.0
 10
48.494504
 20
-25.893497
 30
0.0
 10
46.961817
 20
-25.893497
 30
0.0
  0
SPLINE
  5
171
100
AcDbEntity
  8
Camada_1
 62
7
100
AcDbSpline
 70
8
 71
3
 72
8
 73
4
 74
0
 40
0
 40
0
 40
0
 40
0
 40
1
 40
1
 40
1
 40
1
 10
46.961817
 20
-25.893497
 30
0.0
 10
45.429130
 20
-25.893497
 30
0.0
 10
43.959218
 20
-25.284640
 30
0.0
 10
42.875444
 20
-24.200866
 30
0.0
  0
SPLINE
  5
172
100
AcDbEntity
  8
Camada_1
 62
7
100
AcDbSpline
 70
8
 71
3
 72
8
 73
4
 74
0
 40
0
 40
0
 40
0
 40
0
 40
1
 40
1
 40
1
 40
1
 10
42.875444
 20
-24.200866
 30
0.0
 10
41.791671
 20
-23.117093
 30
0.0
 10
41.182813
 20
-21.647180
 30
0.0
 10
41.182813
 20
-20.114493
 30
0.0
  0
SPLINE
  5
173
100
AcDbEntity
  8
Camada_1
 62
7
100
AcDbSpline
 70
8
 71
3
 72
8
 73
4
 74
0
 40
0
 40
0
 40
0
 40
0
 40
1
 40
1
 40
1
 40
1
 10
41.182813
 20
-20.114493
 30
0.0
 10
41.182813
 20
-18.581806
 30
0.0
 10
41.791671
 20
-17.111894
 30
0.0
 10
42.875444
 20
-16.028120
 30
0.0
  0
SPLINE
  5
174
100
AcDbEntity
  8
Camada_1
 62
7
100
AcDbSpline
 70
8
 71
3
 72
8
 73
4
 74
0
 40
0
 40
0
 40
0
 40
0
 40
1
 40
1
 40
1
 40
1
 10
42.875444
 20
-16.028120
 30
0.0
 10
43.959218
 20
-14.944347
 30
0.0
 10
45.429130
 20
-14.335489
 30
0.0
 10
46.961817
 20
-14.335489
 30
0.0
  0
SPLINE
  5
175
100
AcDbEntity
  8
Camada_1
 62
7
100
AcDbSpline
 70
8
 71
3
 72
8
 73
4
 74
0
 40
0
 40
0
 40
0
 40
0
 40
1
 40
1
 40
1
 40
1
 10
46.961817
 20
-14.335489
 30
0.0
 10
48.494504
 20
-14.335489
 30
0.0
 10
49.964417
 20
-14.944347
 30
0.0
 10
51.048190
 20
-16.028120
 30
0.0
  0
SPLINE
  5
176
100
AcDbEntity
  8
Camada_1
 62
7
100
AcDbSpline
 70
8
 71
3
 72
8
 73
4
 74
0
 40
0
 40
0
 40
0
 40
0
 40
1
 40
1
 40
1
 40
1
 10
51.048190
 20
-16.028120
 30
0.0
 10
52.131964
 20
-17.111894
 30
0.0
 10
52.740821
 20
-18.581806
 30
0.0
 10
52.740821
 20
-20.114493
 30
0.0
  0
LWPOLYLINE
  5
177
100
AcDbEntity
  8
Camada_1
 62
7
100
AcDbPolyline
 90
1
 70
1
 10
-2.001512
 20
-20.473344
 30
0.0
  0
SPLINE
  5
178
100
AcDbEntity
  8
Camada_1
 62
7
100
AcDbSpline
 70
8
 71
3
 72
8
 73
4
 74
0
 40
0
 40
0
 40
0
 40
0
 40
1
 40
1
 40
1
 40
1
 10
50.493352
 20
-20.114493
 30
0.0
 10
50.493352
 20
-22.064906
 30
0.0
 10
48.912230
 20
-23.646028
 30
0.0
 10
46.961817
 20
-23.646029
 30
0.0
  0
SPLINE
  5
179
100
AcDbEntity
  8
Camada_1
 62
7
100
AcDbSpline
 70
8
 71
3
 72
8
 73
4
 74
0
 40
0
 40
0
 40
0
 40
0
 40
1
 40
1
 40
1
 40
1
 10
46.961817
 20
-23.646029
 30
0.0
 10
46.025195
 20
-23.646030
 30
0.0
 10
45.126934
 20
-23.273959
 30
0.0
 10
44.464641
 20
-22.611667
 30
0.0
  0
SPLINE
  5
17a
100
AcDbEntity
  8
Camada_1
 62
7
100
AcDbSpline
 70
8
 71
3
 72
8
 73
4
 74
0
 40
0
 40
0
 40
0
 40
0
 40
1
 40
1
 40
1
 40
1
 10
44.464641
 20
-22.611667
 30
0.0
 10
43.802349
 20
-21.949376
 30
0.0
 10
43.430277
 20
-21.051115
 30
0.0
 10
43.430277
 20
-20.114493
 30
0.0
  0
SPLINE
  5
17b
100
AcDbEntity
  8
Camada_1
 62
7
100
AcDbSpline
 70
8
 71
3
 72
8
 73
4
 74
0
 40
0
 40
0
 40
0
 40
0
 40
1
 40
1
 40
1
 40
1
 10
43.430277
 20
-20.114493
 30
0.0
 10
43.430277
 20
-19.177871
 30
0.0
 10
43.802349
 20
-18.279610
 30
0.0
 10
44.464641
 20
-17.617318
 30
0.0
  0
SPLINE
  5
17c
100
AcDbEntity
  8
Camada_1
 62
7
100
AcDbSpline
 70
8
 71
3
 72
8
 73
4
 74
0
 40
0
 40
0
 40
0
 40
0
 40
1
 40
1
 40
1
 40
1
 10
44.464641
 20
-17.617318
 30
0.0
 10
45.126934
 20
-16.955027
 30
0.0
 10
46.025195
 20
-16.582956
 30
0.0
 10
46.961817
 20
-16.582957
 30
0.0
  0
SPLINE
  5
17d
100
AcDbEntity
  8
Camada_1
 62
7
100
AcDbSpline
 70
8
 71
3
 72
8
 73
4
 74
0
 40
0
 40
0
 40
0
 40
0
 40
1
 40
1
 40
1
 40
1
 10
46.961817
 20
-16.582957
 30
0.0
 10
48.912230
 20
-16.582958
 30
0.0
 10
50.493352
 20
-18.164080
 30
0.0
 10
50.493352
 20
-20.114493
 30
0.0
  0
LWPOLYLINE
  5
17e
100
AcDbEntity
  8
Camada_1
 62
7
100
AcDbPolyline
 90
1
 70
1
 10
52.740821
 20
-20.114493
 30
0.0
  0
SPLINE
  5
17f
100
AcDbEntity
  8
Camada_1
 62
7
100
AcDbSpline
 70
8
 71
3
 72
8
 73
4
 74
0
 40
0
 40
0
 40
0
 40
0
 40
1
 40
1
 40
1
 40
1
 10
48.990766
 20
-55.265728
 30
0.0
 10
48.990766
 20
-56.798415
 30
0.0
 10
48.381908
 20
-58.268328
 30
0.0
 10
47.298135
 20
-59.352101
 30
0.0
  0
SPLINE
  5
180
100
AcDbEntity
  8
Camada_1
 62
7
100
AcDbSpline
 70
8
 71
3
 72
8
 73
4
 74
0
 40
0
 40
0
 40
0
 40
0
 40
1
 40
1
 40
1
 40
1
 10
47.298135
 20
-59.352101
 30
0.0
 10
46.214361
 20
-60.435875
 30
0.0
 10
44.744449
 20
-61.044732
 30
0.0
 10
43.211762
 20
-61.044732
 30
0.0
  0
SPLINE
  5
181
100
AcDbEntity
  8
Camada_1
 62
7
100
AcDbSpline
 70
8
 71
3
 72
8
 73
4
 74
0
 40
0
 40
0
 40
0
 40
0
 40
1
 40
1
 40
1
 40
1
 10
43.211762
 20
-61.044732
 30
0.0
 10
40.020106
 20
-61.044732
 30
0.0
 10
37.432758
 20
-58.457384
 30
0.0
 10
37.432758
 20
-55.265728
 30
0.0
  0
SPLINE
  5
182
100
AcDbEntity
  8
Camada_1
 62
7
100
AcDbSpline
 70
8
 71
3
 72
8
 73
4
 74
0
 40
0
 40
0
 40
0
 40
0
 40
1
 40
1
 40
1
 40
1
 10
37.432758
 20
-55.265728
 30
0.0
 10
37.432758
 20
-52.074073
 30
0.0
 10
40.020106
 20
-49.486724
 30
0.0
 10
43.211762
 20
-49.486724
 30
0.0
  0
SPLINE
  5
183
100
AcDbEntity
  8
Camada_1
 62
7
100
AcDbSpline
 70
8
 71
3
 72
8
 73
4
 74
0
 40
0
 40
0
 40
0
 40
0
 40
1
 40
1
 40
1
 40
1
 10
43.211762
 20
-49.486724
 30
0.0
 10
44.744449
 20
-49.486724
 30
0.0
 10
46.214361
 20
-50.095582
 30
0.0
 10
47.298135
 20
-51.179355
 30
0.0
  0
SPLINE
  5
184
100
AcDbEntity
  8
Camada_1
 62
7
100
AcDbSpline
 70
8
 71
3
 72
8
 73
4
 74
0
 40
0
 40
0
 40
0
 40
0
 40
1
 40
1
 40
1
 40
1
 10
47.298135
 20
-51.179355
 30
0.0
 10
48.381908
 20
-52.263129
 30
0.0
 10
48.990766
 20
-53.733041
 30
0.0
 10
48.990766
 20
-55.265728
 30
0.0
  0
LWPOLYLINE
  5
185
100
AcDbEntity
  8
Camada_1
 62
7
100
AcDbPolyline
 90
1
 70
1
 10
50.493352
 20
-20.114493
 30
0.0
  0
SPLINE
  5
186
100
AcDbEntity
  8
Camada_1
 62
7
100
AcDbSpline
 70
8
 71
3
 72
8
 73
4
 74
0
 40
0
 40
0
 40
0
 40
0
 40
1
 40
1
 40
1
 40
1
 10
46.743297
 20
-55.265728
 30
0.0
 10
46.743296
 20
-57.216141
 30
0.0
 10
45.162174
 20
-58.797262
 30
0.0
 10
43.211762
 20
-58.797263
 30
0.0
  0
SPLINE
  5
187
100
AcDbEntity
  8
Camada_1
 62
7
100
AcDbSpline
 70
8
 71
3
 72
8
 73
4
 74
0
 40
0
 40
0
 40
0
 40
0
 40
1
 40
1
 40
1
 40
1
 10
43.211762
 20
-58.797263
 30
0.0
 10
42.275140
 20
-58.797264
 30
0.0
 10
41.376879
 20
-58.425193
 30
0.0
 10
40.714587
 20
-57.762902
 30
0.0
  0
SPLINE
  5
188
100
AcDbEntity
  8
Camada_1
 62
7
100
AcDbSpline
 70
8
 71
3
 72
8
 73
4
 74
0
 40
0
 40
0
 40
0
 40
0
 40
1
 40
1
 40
1
 40
1
 10
40.714587
 20
-57.762902
 30
0.0
 10
40.052294
 20
-57.100611
 30
0.0
 10
39.680222
 20
-56.202350
 30
0.0
 10
39.680222
 20
-55.265728
 30
0.0
  0
SPLINE
  5
189
100
AcDbEntity
  8
Camada_1
 62
7
100
AcDbSpline
 70
8
 71
3
 72
8
 73
4
 74
0
 40
0
 40
0
 40
0
 40
0
 40
1
 40
1
 40
1
 40
1
 10
39.680222
 20
-55.265728
 30
0.0
 10
39.680222
 20
-54.329106
 30
0.0
 10
40.052294
 20
-53.430846
 30
0.0
 10
40.714587
 20
-52.768554
 30
0.0
  0
SPLINE
  5
18a
100
AcDbEntity
  8
Camada_1
 62
7
100
AcDbSpline
 70
8
 71
3
 72
8
 73
4
 74
0
 40
0
 40
0
 40
0
 40
0
 40
1
 40
1
 40
1
 40
1
 10
40.714587
 20
-52.768554
 30
0.0
 10
41.376879
 20
-52.106263
 30
0.0
 10
42.275140
 20
-51.734192
 30
0.0
 10
43.211762
 20
-51.734194
 30
0.0
  0
SPLINE
  5
18b
100
AcDbEntity
  8
Camada_1
 62
7
100
AcDbSpline
 70
8
 71
3
 72
8
 73
4
 74
0
 40
0
 40
0
 40
0
 40
0
 40
1
 40
1
 40
1
 40
1
 10
43.211762
 20
-51.734194
 30
0.0
 10
45.162174
 20
-51.734194
 30
0.0
 10
46.743296
 20
-53.315316
 30
0.0
 10
46.743297
 20
-55.265728
 30
0.0
  0
LWPOLYLINE
  5
18c
100
AcDbEntity
  8
Camada_1
 62
7
100
AcDbPolyline
 90
1
 70
1
 10
48.990766
 20
-55.265728
 30
0.0
  0
SPLINE
  5
18d
100
AcDbEntity
  8
Camada_1
 62
7
100
AcDbSpline
 70
8
 71
3
 72
8
 73
4
 74
0
 40
0
 40
0
 40
0
 40
0
 40
1
 40
1
 40
1
 40
1
 10
42.248364
 20
-84.120319
 30
0.0
 10
42.248364
 20
-85.653006
 30
0.0
 10
41.639507
 20
-87.122918
 30
0.0
 10
40.555733
 20
-88.206692
 30
0.0
  0
SPLINE
  5
18e
100
AcDbEntity
  8
Camada_1
 62
7
100
AcDbSpline
 70
8
 71
3
 72
8
 73
4
 74
0
 40
0
 40
0
 40
0
 40
0
 40
1
 40
1
 40
1
 40
1
 10
40.555733
 20
-88.206692
 30
0.0
 10
39.471960
 20
-89.290465
 30
0.0
 10
38.002047
 20
-89.899323
 30
0.0
 10
36.469360
 20
-89.899323
 30
0.0
  0
SPLINE
  5
18f
100
AcDbEntity
  8
Camada_1
 62
7
100
AcDbSpline
 70
8
 71
3
 72
8
 73
4
 74
0
 40
0
 40
0
 40
0
 40
0
 40
1
 40
1
 40
1
 40
1
 10
36.469360
 20
-89.899323
 30
0.0
 10
34.936673
 20
-89.899323
 30
0.0
 10
33.466761
 20
-89.290465
 30
0.0
 10
32.382988
 20
-88.206692
 30
0.0
  0
SPLINE
  5
190
100
AcDbEntity
  8
Camada_1
 62
7
100
AcDbSpline
 70
8
 71
3
 72
8
 73
4
 74
0
 40
0
 40
0
 40
0
 40
0
 40
1
 40
1
 40
1
 40
1
 10
32.382988
 20
-88.206692
 30
0.0
 10
31.299214
 20
-87.122918
 30
0.0
 10
30.690357
 20
-85.653006
 30
0.0
 10
30.690357
 20
-84.120319
 30
0.0
  0
SPLINE
  5
191
100
AcDbEntity
  8
Camada_1
 62
7
100
AcDbSpline
 70
8
 71
3
 72
8
 73
4
 74
0
 40
0
 40
0
 40
0
 40
0
 40
1
 40
1
 40
1
 40
1
 10
30.690357
 20
-84.120319
 30
0.0
 10
30.690357
 20
-82.587632
 30
0.0
 10
31.299214
 20
-81.117720
 30
0.0
 10
32.382988
 20
-80.033946
 30
0.0
  0
SPLINE
  5
192
100
AcDbEntity
  8
Camada_1
 62
7
100
AcDbSpline
 70
8
 71
3
 72
8
 73
4
 74
0
 40
0
 40
0
 40
0
 40
0
 40
1
 40
1
 40
1
 40
1
 10
32.382988
 20
-80.033946
 30
0.0
 10
33.466761
 20
-78.950173
 30
0.0
 10
34.936673
 20
-78.341315
 30
0.0
 10
36.469360
 20
-78.341315
 30
0.0
  0
SPLINE
  5
193
100
AcDbEntity
  8
Camada_1
 62
7
100
AcDbSpline
 70
8
 71
3
 72
8
 73
4
 74
0
 40
0
 40
0
 40
0
 40
0
 40
1
 40
1
 40
1
 40
1
 10
36.469360
 20
-78.341315
 30
0.0
 10
38.002047
 20
-78.341315
 30
0.0
 10
39.471960
 20
-78.950173
 30
0.0
 10
40.555733
 20
-80.033946
 30
0.0
  0
SPLINE
  5
194
100
AcDbEntity
  8
Camada_1
 62
7
100
AcDbSpline
 70
8
 71
3
 72
8
 73
4
 74
0
 40
0
 40
0
 40
0
 40
0
 40
1
 40
1
 40
1
 40
1
 10
40.555733
 20
-80.033946
 30
0.0
 10
41.639507
 20
-81.117720
 30
0.0
 10
42.248364
 20
-82.587632
 30
0.0
 10
42.248364
 20
-84.120319
 30
0.0
  0
LWPOLYLINE
  5
195
100
AcDbEntity
  8
Camada_1
 62
7
100
AcDbPolyline
 90
1
 70
1
 10
46.743297
 20
-55.265728
 30
0.0
  0
SPLINE
  5
196
100
AcDbEntity
  8
Camada_1
 62
7
100
AcDbSpline
 70
8
 71
3
 72
8
 73
4
 74
0
 40
0
 40
0
 40
0
 40
0
 40
1
 40
1
 40
1
 40
1
 10
40.000895
 20
-84.120319
 30
0.0
 10
40.000894
 20
-86.070731
 30
0.0
 10
38.419773
 20
-87.651853
 30
0.0
 10
36.469360
 20
-87.651854
 30
0.0
  0
SPLINE
  5
197
100
AcDbEntity
  8
Camada_1
 62
7
100
AcDbSpline
 70
8
 71
3
 72
8
 73
4
 74
0
 40
0
 40
0
 40
0
 40
0
 40
1
 40
1
 40
1
 40
1
 10
36.469360
 20
-87.651854
 30
0.0
 10
35.532738
 20
-87.651855
 30
0.0
 10
34.634477
 20
-87.279784
 30
0.0
 10
33.972185
 20
-86.617493
 30
0.0
  0
SPLINE
  5
198
100
AcDbEntity
  8
Camada_1
 62
7
100
AcDbSpline
 70
8
 71
3
 72
8
 73
4
 74
0
 40
0
 40
0
 40
0
 40
0
 40
1
 40
1
 40
1
 40
1
 10
33.972185
 20
-86.617493
 30
0.0
 10
33.309892
 20
-85.955201
 30
0.0
 10
32.937820
 20
-85.056941
 30
0.0
 10
32.937820
 20
-84.120319
 30
0.0
  0
SPLINE
  5
199
100
AcDbEntity
  8
Camada_1
 62
7
100
AcDbSpline
 70
8
 71
3
 72
8
 73
4
 74
0
 40
0
 40
0
 40
0
 40
0
 40
1
 40
1
 40
1
 40
1
 10
32.937820
 20
-84.120319
 30
0.0
 10
32.937820
 20
-83.183697
 30
0.0
 10
33.309892
 20
-82.285436
 30
0.0
 10
33.972185
 20
-81.623145
 30
0.0
  0
SPLINE
  5
19a
100
AcDbEntity
  8
Camada_1
 62
7
100
AcDbSpline
 70
8
 71
3
 72
8
 73
4
 74
0
 40
0
 40
0
 40
0
 40
0
 40
1
 40
1
 40
1
 40
1
 10
33.972185
 20
-81.623145
 30
0.0
 10
34.634477
 20
-80.960854
 30
0.0
 10
35.532738
 20
-80.588783
 30
0.0
 10
36.469360
 20
-80.588784
 30
0.0
  0
SPLINE
  5
19b
100
AcDbEntity
  8
Camada_1
 62
7
100
AcDbSpline
 70
8
 71
3
 72
8
 73
4
 74
0
 40
0
 40
0
 40
0
 40
0
 40
1
 40
1
 40
1
 40
1
 10
36.469360
 20
-80.588784
 30
0.0
 10
38.419773
 20
-80.588785
 30
0.0
 10
40.000894
 20
-82.169906
 30
0.0
 10
40.000895
 20
-84.120319
 30
0.0
  0
LWPOLYLINE
  5
19c
100
AcDbEntity
  8
Camada_1
 62
7
100
AcDbPolyline
 90
1
 70
1
 10
42.248364
 20
-84.120319
 30
0.0
  0
SPLINE
  5
19d
100
AcDbEntity
  8
Camada_1
 62
7
100
AcDbSpline
 70
8
 71
3
 72
8
 73
4
 74
0
 40
0
 40
0
 40
0
 40
0
 40
1
 40
1
 40
1
 40
1
 10
173.761479
 20
-56.933206
 30
0.0
 10
173.761479
 20
-58.465893
 30
0.0
 10
173.152621
 20
-59.935805
 30
0.0
 10
172.068848
 20
-61.019578
 30
0.0
  0
SPLINE
  5
19e
100
AcDbEntity
  8
Camada_1
 62
7
100
AcDbSpline
 70
8
 71
3
 72
8
 73
4
 74
0
 40
0
 40
0
 40
0
 40
0
 40
1
 40
1
 40
1
 40
1
 10
172.068848
 20
-61.019578
 30
0.0
 10
170.985074
 20
-62.103352
 30
0.0
 10
169.515162
 20
-62.712209
 30
0.0
 10
167.982475
 20
-62.712209
 30
0.0
  0
SPLINE
  5
19f
100
AcDbEntity
  8
Camada_1
 62
7
100
AcDbSpline
 70
8
 71
3
 72
8
 73
4
 74
0
 40
0
 40
0
 40
0
 40
0
 40
1
 40
1
 40
1
 40
1
 10
167.982475
 20
-62.712209
 30
0.0
 10
164.790819
 20
-62.712209
 30
0.0
 10
162.203471
 20
-60.124861
 30
0.0
 10
162.203471
 20
-56.933206
 30
0.0
  0
SPLINE
  5
1a0
100
AcDbEntity
  8
Camada_1
 62
7
100
AcDbSpline
 70
8
 71
3
 72
8
 73
4
 74
0
 40
0
 40
0
 40
0
 40
0
 40
1
 40
1
 40
1
 40
1
 10
162.203471
 20
-56.933206
 30
0.0
 10
162.203471
 20
-55.400519
 30
0.0
 10
162.812329
 20
-53.930606
 30
0.0
 10
163.896102
 20
-52.846833
 30
0.0
  0
SPLINE
  5
1a1
100
AcDbEntity
  8
Camada_1
 62
7
100
AcDbSpline
 70
8
 71
3
 72
8
 73
4
 74
0
 40
0
 40
0
 40
0
 40
0
 40
1
 40
1
 40
1
 40
1
 10
163.896102
 20
-52.846833
 30
0.0
 10
164.979876
 20
-51.763059
 30
0.0
 10
166.449788
 20
-51.154202
 30
0.0
 10
167.982475
 20
-51.154202
 30
0.0
  0
SPLINE
  5
1a2
100
AcDbEntity
  8
Camada_1
 62
7
100
AcDbSpline
 70
8
 71
3
 72
8
 73
4
 74
0
 40
0
 40
0
 40
0
 40
0
 40
1
 40
1
 40
1
 40
1
 10
167.982475
 20
-51.154202
 30
0.0
 10
169.515162
 20
-51.154202
 30
0.0
 10
170.985074
 20
-51.763059
 30
0.0
 10
172.068848
 20
-52.846833
 30
0.0
  0
SPLINE
  5
1a3
100
AcDbEntity
  8
Camada_1
 62
7
100
AcDbSpline
 70
8
 71
3
 72
8
 73
4
 74
0
 40
0
 40
0
 40
0
 40
0
 40
1
 40
1
 40
1
 40
1
 10
172.068848
 20
-52.846833
 30
0.0
 10
173.152621
 20
-53.930606
 30
0.0
 10
173.761479
 20
-55.400519
 30
0.0
 10
173.761479
 20
-56.933206
 30
0.0
  0
LWPOLYLINE
  5
1a4
100
AcDbEntity
  8
Camada_1
 62
7
100
AcDbPolyline
 90
1
 70
1
 10
40.000895
 20
-84.120319
 30
0.0
  0
SPLINE
  5
1a5
100
AcDbEntity
  8
Camada_1
 62
7
100
AcDbSpline
 70
8
 71
3
 72
8
 73
4
 74
0
 40
0
 40
0
 40
0
 40
0
 40
1
 40
1
 40
1
 40
1
 10
171.514010
 20
-56.933206
 30
0.0
 10
171.514009
 20
-58.883618
 30
0.0
 10
169.932887
 20
-60.464740
 30
0.0
 10
167.982475
 20
-60.464740
 30
0.0
  0
SPLINE
  5
1a6
100
AcDbEntity
  8
Camada_1
 62
7
100
AcDbSpline
 70
8
 71
3
 72
8
 73
4
 74
0
 40
0
 40
0
 40
0
 40
0
 40
1
 40
1
 40
1
 40
1
 10
167.982475
 20
-60.464740
 30
0.0
 10
166.032063
 20
-60.464740
 30
0.0
 10
164.450941
 20
-58.883618
 30
0.0
 10
164.450940
 20
-56.933206
 30
0.0
  0
SPLINE
  5
1a7
100
AcDbEntity
  8
Camada_1
 62
7
100
AcDbSpline
 70
8
 71
3
 72
8
 73
4
 74
0
 40
0
 40
0
 40
0
 40
0
 40
1
 40
1
 40
1
 40
1
 10
164.450940
 20
-56.933206
 30
0.0
 10
164.450941
 20
-54.982793
 30
0.0
 10
166.032063
 20
-53.401672
 30
0.0
 10
167.982475
 20
-53.401671
 30
0.0
  0
SPLINE
  5
1a8
100
AcDbEntity
  8
Camada_1
 62
7
100
AcDbSpline
 70
8
 71
3
 72
8
 73
4
 74
0
 40
0
 40
0
 40
0
 40
0
 40
1
 40
1
 40
1
 40
1
 10
167.982475
 20
-53.401671
 30
0.0
 10
169.932887
 20
-53.401672
 30
0.0
 10
171.514009
 20
-54.982793
 30
0.0
 10
171.514010
 20
-56.933206
 30
0.0
  0
LWPOLYLINE
  5
1a9
100
AcDbEntity
  8
Camada_1
 62
7
100
AcDbPolyline
 90
1
 70
1
 10
173.761479
 20
-56.933206
 30
0.0
  0
SPLINE
  5
1aa
100
AcDbEntity
  8
Camada_1
 62
7
100
AcDbSpline
 70
8
 71
3
 72
8
 73
4
 74
0
 40
0
 40
0
 40
0
 40
0
 40
1
 40
1
 40
1
 40
1
 10
168.251553
 20
-87.455279
 30
0.0
 10
168.251553
 20
-88.987967
 30
0.0
 10
167.642696
 20
-90.457879
 30
0.0
 10
166.558922
 20
-91.541652
 30
0.0
  0
SPLINE
  5
1ab
100
AcDbEntity
  8
Camada_1
 62
7
100
AcDbSpline
 70
8
 71
3
 72
8
 73
4
 74
0
 40
0
 40
0
 40
0
 40
0
 40
1
 40
1
 40
1
 40
1
 10
166.558922
 20
-91.541652
 30
0.0
 10
165.475149
 20
-92.625426
 30
0.0
 10
164.005236
 20
-93.234283
 30
0.0
 10
162.472549
 20
-93.234283
 30
0.0
  0
SPLINE
  5
1ac
100
AcDbEntity
  8
Camada_1
 62
7
100
AcDbSpline
 70
8
 71
3
 72
8
 73
4
 74
0
 40
0
 40
0
 40
0
 40
0
 40
1
 40
1
 40
1
 40
1
 10
162.472549
 20
-93.234283
 30
0.0
 10
160.939862
 20
-93.234283
 30
0.0
 10
159.469950
 20
-92.625426
 30
0.0
 10
158.386177
 20
-91.541652
 30
0.0
  0
SPLINE
  5
1ad
100
AcDbEntity
  8
Camada_1
 62
7
100
AcDbSpline
 70
8
 71
3
 72
8
 73
4
 74
0
 40
0
 40
0
 40
0
 40
0
 40
1
 40
1
 40
1
 40
1
 10
158.386177
 20
-91.541652
 30
0.0
 10
157.302403
 20
-90.457879
 30
0.0
 10
156.693546
 20
-88.987967
 30
0.0
 10
156.693546
 20
-87.455279
 30
0.0
  0
SPLINE
  5
1ae
100
AcDbEntity
  8
Camada_1
 62
7
100
AcDbSpline
 70
8
 71
3
 72
8
 73
4
 74
0
 40
0
 40
0
 40
0
 40
0
 40
1
 40
1
 40
1
 40
1
 10
156.693546
 20
-87.455279
 30
0.0
 10
156.693546
 20
-85.922592
 30
0.0
 10
157.302403
 20
-84.452680
 30
0.0
 10
158.386177
 20
-83.368907
 30
0.0
  0
SPLINE
  5
1af
100
AcDbEntity
  8
Camada_1
 62
7
100
AcDbSpline
 70
8
 71
3
 72
8
 73
4
 74
0
 40
0
 40
0
 40
0
 40
0
 40
1
 40
1
 40
1
 40
1
 10
158.386177
 20
-83.368907
 30
0.0
 10
159.469950
 20
-82.285133
 30
0.0
 10
160.939862
 20
-81.676276
 30
0.0
 10
162.472549
 20
-81.676276
 30
0.0
  0
SPLINE
  5
1b0
100
AcDbEntity
  8
Camada_1
 62
7
100
AcDbSpline
 70
8
 71
3
 72
8
 73
4
 74
0
 40
0
 40
0
 40
0
 40
0
 40
1
 40
1
 40
1
 40
1
 10
162.472549
 20
-81.676276
 30
0.0
 10
164.005236
 20
-81.676276
 30
0.0
 10
165.475149
 20
-82.285133
 30
0.0
 10
166.558922
 20
-83.368907
 30
0.0
  0
SPLINE
  5
1b1
100
AcDbEntity
  8
Camada_1
 62
7
100
AcDbSpline
 70
8
 71
3
 72
8
 73
4
 74
0
 40
0
 40
0
 40
0
 40
0
 40
1
 40
1
 40
1
 40
1
 10
166.558922
 20
-83.368907
 30
0.0
 10
167.642696
 20
-84.452680
 30
0.0
 10
168.251553
 20
-85.922592
 30
0.0
 10
168.251553
 20
-87.455279
 30
0.0
  0
LWPOLYLINE
  5
1b2
100
AcDbEntity
  8
Camada_1
 62
7
100
AcDbPolyline
 90
1
 70
1
 10
171.514010
 20
-56.933206
 30
0.0
  0
SPLINE
  5
1b3
100
AcDbEntity
  8
Camada_1
 62
7
100
AcDbSpline
 70
8
 71
3
 72
8
 73
4
 74
0
 40
0
 40
0
 40
0
 40
0
 40
1
 40
1
 40
1
 40
1
 10
166.004084
 20
-87.455279
 30
0.0
 10
166.004083
 20
-89.405692
 30
0.0
 10
164.422962
 20
-90.986813
 30
0.0
 10
162.472549
 20
-90.986814
 30
0.0
  0
SPLINE
  5
1b4
100
AcDbEntity
  8
Camada_1
 62
7
100
AcDbSpline
 70
8
 71
3
 72
8
 73
4
 74
0
 40
0
 40
0
 40
0
 40
0
 40
1
 40
1
 40
1
 40
1
 10
162.472549
 20
-90.986814
 30
0.0
 10
160.522137
 20
-90.986813
 30
0.0
 10
158.941015
 20
-89.405692
 30
0.0
 10
158.941015
 20
-87.455279
 30
0.0
  0
SPLINE
  5
1b5
100
AcDbEntity
  8
Camada_1
 62
7
100
AcDbSpline
 70
8
 71
3
 72
8
 73
4
 74
0
 40
0
 40
0
 40
0
 40
0
 40
1
 40
1
 40
1
 40
1
 10
158.941015
 20
-87.455279
 30
0.0
 10
158.941013
 20
-86.518657
 30
0.0
 10
159.313084
 20
-85.620396
 30
0.0
 10
159.975376
 20
-84.958104
 30
0.0
  0
SPLINE
  5
1b6
100
AcDbEntity
  8
Camada_1
 62
7
100
AcDbSpline
 70
8
 71
3
 72
8
 73
4
 74
0
 40
0
 40
0
 40
0
 40
0
 40
1
 40
1
 40
1
 40
1
 10
159.975376
 20
-84.958104
 30
0.0
 10
160.637667
 20
-84.295811
 30
0.0
 10
161.535927
 20
-83.923739
 30
0.0
 10
162.472549
 20
-83.923739
 30
0.0
  0
SPLINE
  5
1b7
100
AcDbEntity
  8
Camada_1
 62
7
100
AcDbSpline
 70
8
 71
3
 72
8
 73
4
 74
0
 40
0
 40
0
 40
0
 40
0
 40
1
 40
1
 40
1
 40
1
 10
162.472549
 20
-83.923739
 30
0.0
 10
163.409172
 20
-83.923739
 30
0.0
 10
164.307432
 20
-84.295811
 30
0.0
 10
164.969723
 20
-84.958104
 30
0.0
  0
SPLINE
  5
1b8
100
AcDbEntity
  8
Camada_1
 62
7
100
AcDbSpline
 70
8
 71
3
 72
8
 73
4
 74
0
 40
0
 40
0
 40
0
 40
0
 40
1
 40
1
 40
1
 40
1
 10
164.969723
 20
-84.958104
 30
0.0
 10
165.632014
 20
-85.620396
 30
0.0
 10
166.004085
 20
-86.518657
 30
0.0
 10
166.004084
 20
-87.455279
 30
0.0
  0
LWPOLYLINE
  5
1b9
100
AcDbEntity
  8
Camada_1
 62
7
100
AcDbPolyline
 90
1
 70
1
 10
168.251553
 20
-87.455279
 30
0.0
  0
SPLINE
  5
1ba
100
AcDbEntity
  8
Camada_1
 62
7
100
AcDbSpline
 70
8
 71
3
 72
8
 73
4
 74
0
 40
0
 40
0
 40
0
 40
0
 40
1
 40
1
 40
1
 40
1
 10
290.659411
 20
-138.843092
 30
0.0
 10
290.659411
 20
-140.375779
 30
0.0
 10
290.050553
 20
-141.845691
 30
0.0
 10
288.966779
 20
-142.929464
 30
0.0
  0
SPLINE
  5
1bb
100
AcDbEntity
  8
Camada_1
 62
7
100
AcDbSpline
 70
8
 71
3
 72
8
 73
4
 74
0
 40
0
 40
0
 40
0
 40
0
 40
1
 40
1
 40
1
 40
1
 10
288.966779
 20
-142.929464
 30
0.0
 10
287.883006
 20
-144.013238
 30
0.0
 10
286.413094
 20
-144.622095
 30
0.0
 10
284.880407
 20
-144.622095
 30
0.0
  0
SPLINE
  5
1bc
100
AcDbEntity
  8
Camada_1
 62
7
100
AcDbSpline
 70
8
 71
3
 72
8
 73
4
 74
0
 40
0
 40
0
 40
0
 40
0
 40
1
 40
1
 40
1
 40
1
 10
284.880407
 20
-144.622095
 30
0.0
 10
283.347720
 20
-144.622095
 30
0.0
 10
281.877807
 20
-144.013238
 30
0.0
 10
280.794034
 20
-142.929464
 30
0.0
  0
SPLINE
  5
1bd
100
AcDbEntity
  8
Camada_1
 62
7
100
AcDbSpline
 70
8
 71
3
 72
8
 73
4
 74
0
 40
0
 40
0
 40
0
 40
0
 40
1
 40
1
 40
1
 40
1
 10
280.794034
 20
-142.929464
 30
0.0
 10
279.710260
 20
-141.845691
 30
0.0
 10
279.101403
 20
-140.375779
 30
0.0
 10
279.101403
 20
-138.843092
 30
0.0
  0
SPLINE
  5
1be
100
AcDbEntity
  8
Camada_1
 62
7
100
AcDbSpline
 70
8
 71
3
 72
8
 73
4
 74
0
 40
0
 40
0
 40
0
 40
0
 40
1
 40
1
 40
1
 40
1
 10
279.101403
 20
-138.843092
 30
0.0
 10
279.101403
 20
-137.310405
 30
0.0
 10
279.710260
 20
-135.840492
 30
0.0
 10
280.794034
 20
-134.756719
 30
0.0
  0
SPLINE
  5
1bf
100
AcDbEntity
  8
Camada_1
 62
7
100
AcDbSpline
 70
8
 71
3
 72
8
 73
4
 74
0
 40
0
 40
0
 40
0
 40
0
 40
1
 40
1
 40
1
 40
1
 10
280.794034
 20
-134.756719
 30
0.0
 10
281.877807
 20
-133.672945
 30
0.0
 10
283.347720
 20
-133.064088
 30
0.0
 10
284.880407
 20
-133.064088
 30
0.0
  0
SPLINE
  5
1c0
100
AcDbEntity
  8
Camada_1
 62
7
100
AcDbSpline
 70
8
 71
3
 72
8
 73
4
 74
0
 40
0
 40
0
 40
0
 40
0
 40
1
 40
1
 40
1
 40
1
 10
284.880407
 20
-133.064088
 30
0.0
 10
286.413094
 20
-133.064088
 30
0.0
 10
287.883006
 20
-133.672945
 30
0.0
 10
288.966779
 20
-134.756719
 30
0.0
  0
SPLINE
  5
1c1
100
AcDbEntity
  8
Camada_1
 62
7
100
AcDbSpline
 70
8
 71
3
 72
8
 73
4
 74
0
 40
0
 40
0
 40
0
 40
0
 40
1
 40
1
 40
1
 40
1
 10
288.966779
 20
-134.756719
 30
0.0
 10
290.050553
 20
-135.840492
 30
0.0
 10
290.659411
 20
-137.310405
 30
0.0
 10
290.659411
 20
-138.843092
 30
0.0
  0
LWPOLYLINE
  5
1c2
100
AcDbEntity
  8
Camada_1
 62
7
100
AcDbPolyline
 90
1
 70
1
 10
166.004084
 20
-87.455279
 30
0.0
  0
SPLINE
  5
1c3
100
AcDbEntity
  8
Camada_1
 62
7
100
AcDbSpline
 70
8
 71
3
 72
8
 73
4
 74
0
 40
0
 40
0
 40
0
 40
0
 40
1
 40
1
 40
1
 40
1
 10
288.411943
 20
-138.843092
 30
0.0
 10
288.411942
 20
-140.793505
 30
0.0
 10
286.830820
 20
-142.374626
 30
0.0
 10
284.880407
 20
-142.374626
 30
0.0
  0
SPLINE
  5
1c4
100
AcDbEntity
  8
Camada_1
 62
7
100
AcDbSpline
 70
8
 71
3
 72
8
 73
4
 74
0
 40
0
 40
0
 40
0
 40
0
 40
1
 40
1
 40
1
 40
1
 10
284.880407
 20
-142.374626
 30
0.0
 10
282.929994
 20
-142.374626
 30
0.0
 10
281.348872
 20
-140.793505
 30
0.0
 10
281.348871
 20
-138.843092
 30
0.0
  0
SPLINE
  5
1c5
100
AcDbEntity
  8
Camada_1
 62
7
100
AcDbSpline
 70
8
 71
3
 72
8
 73
4
 74
0
 40
0
 40
0
 40
0
 40
0
 40
1
 40
1
 40
1
 40
1
 10
281.348871
 20
-138.843092
 30
0.0
 10
281.348872
 20
-136.892679
 30
0.0
 10
282.929994
 20
-135.311557
 30
0.0
 10
284.880407
 20
-135.311557
 30
0.0
  0
SPLINE
  5
1c6
100
AcDbEntity
  8
Camada_1
 62
7
100
AcDbSpline
 70
8
 71
3
 72
8
 73
4
 74
0
 40
0
 40
0
 40
0
 40
0
 40
1
 40
1
 40
1
 40
1
 10
284.880407
 20
-135.311557
 30
0.0
 10
286.830820
 20
-135.311557
 30
0.0
 10
288.411942
 20
-136.892679
 30
0.0
 10
288.411943
 20
-138.843092
 30
0.0
  0
LWPOLYLINE
  5
1c7
100
AcDbEntity
  8
Camada_1
 62
7
100
AcDbPolyline
 90
1
 70
1
 10
290.659411
 20
-138.843092
 30
0.0
  0
SPLINE
  5
1c8
100
AcDbEntity
  8
Camada_1
 62
7
100
AcDbSpline
 70
8
 71
3
 72
8
 73
4
 74
0
 40
0
 40
0
 40
0
 40
0
 40
1
 40
1
 40
1
 40
1
 10
224.528193
 20
-139.560806
 30
0.0
 10
224.528193
 20
-141.093493
 30
0.0
 10
223.919335
 20
-142.563405
 30
0.0
 10
222.835562
 20
-143.647178
 30
0.0
  0
SPLINE
  5
1c9
100
AcDbEntity
  8
Camada_1
 62
7
100
AcDbSpline
 70
8
 71
3
 72
8
 73
4
 74
0
 40
0
 40
0
 40
0
 40
0
 40
1
 40
1
 40
1
 40
1
 10
222.835562
 20
-143.647178
 30
0.0
 10
221.751788
 20
-144.730952
 30
0.0
 10
220.281876
 20
-145.339809
 30
0.0
 10
218.749189
 20
-145.339809
 30
0.0
  0
SPLINE
  5
1ca
100
AcDbEntity
  8
Camada_1
 62
7
100
AcDbSpline
 70
8
 71
3
 72
8
 73
4
 74
0
 40
0
 40
0
 40
0
 40
0
 40
1
 40
1
 40
1
 40
1
 10
218.749189
 20
-145.339809
 30
0.0
 10
217.216502
 20
-145.339809
 30
0.0
 10
215.746590
 20
-144.730952
 30
0.0
 10
214.662816
 20
-143.647178
 30
0.0
  0
SPLINE
  5
1cb
100
AcDbEntity
  8
Camada_1
 62
7
100
AcDbSpline
 70
8
 71
3
 72
8
 73
4
 74
0
 40
0
 40
0
 40
0
 40
0
 40
1
 40
1
 40
1
 40
1
 10
214.662816
 20
-143.647178
 30
0.0
 10
213.579043
 20
-142.563405
 30
0.0
 10
212.970185
 20
-141.093493
 30
0.0
 10
212.970185
 20
-139.560806
 30
0.0
  0
SPLINE
  5
1cc
100
AcDbEntity
  8
Camada_1
 62
7
100
AcDbSpline
 70
8
 71
3
 72
8
 73
4
 74
0
 40
0
 40
0
 40
0
 40
0
 40
1
 40
1
 40
1
 40
1
 10
212.970185
 20
-139.560806
 30
0.0
 10
212.970185
 20
-138.028118
 30
0.0
 10
213.579043
 20
-136.558206
 30
0.0
 10
214.662816
 20
-135.474433
 30
0.0
  0
SPLINE
  5
1cd
100
AcDbEntity
  8
Camada_1
 62
7
100
AcDbSpline
 70
8
 71
3
 72
8
 73
4
 74
0
 40
0
 40
0
 40
0
 40
0
 40
1
 40
1
 40
1
 40
1
 10
214.662816
 20
-135.474433
 30
0.0
 10
215.746590
 20
-134.390659
 30
0.0
 10
217.216502
 20
-133.781802
 30
0.0
 10
218.749189
 20
-133.781802
 30
0.0
  0
SPLINE
  5
1ce
100
AcDbEntity
  8
Camada_1
 62
7
100
AcDbSpline
 70
8
 71
3
 72
8
 73
4
 74
0
 40
0
 40
0
 40
0
 40
0
 40
1
 40
1
 40
1
 40
1
 10
218.749189
 20
-133.781802
 30
0.0
 10
220.281876
 20
-133.781802
 30
0.0
 10
221.751788
 20
-134.390659
 30
0.0
 10
222.835562
 20
-135.474433
 30
0.0
  0
SPLINE
  5
1cf
100
AcDbEntity
  8
Camada_1
 62
7
100
AcDbSpline
 70
8
 71
3
 72
8
 73
4
 74
0
 40
0
 40
0
 40
0
 40
0
 40
1
 40
1
 40
1
 40
1
 10
222.835562
 20
-135.474433
 30
0.0
 10
223.919335
 20
-136.558206
 30
0.0
 10
224.528193
 20
-138.028118
 30
0.0
 10
224.528193
 20
-139.560806
 30
0.0
  0
LWPOLYLINE
  5
1d0
100
AcDbEntity
  8
Camada_1
 62
7
100
AcDbPolyline
 90
1
 70
1
 10
288.411943
 20
-138.843092
 30
0.0
  0
SPLINE
  5
1d1
100
AcDbEntity
  8
Camada_1
 62
7
100
AcDbSpline
 70
8
 71
3
 72
8
 73
4
 74
0
 40
0
 40
0
 40
0
 40
0
 40
1
 40
1
 40
1
 40
1
 10
222.280726
 20
-139.560806
 30
0.0
 10
222.280725
 20
-141.511219
 30
0.0
 10
220.699602
 20
-143.092340
 30
0.0
 10
218.749189
 20
-143.092340
 30
0.0
  0
SPLINE
  5
1d2
100
AcDbEntity
  8
Camada_1
 62
7
100
AcDbSpline
 70
8
 71
3
 72
8
 73
4
 74
0
 40
0
 40
0
 40
0
 40
0
 40
1
 40
1
 40
1
 40
1
 10
218.749189
 20
-143.092340
 30
0.0
 10
216.798776
 20
-143.092340
 30
0.0
 10
215.217654
 20
-141.511218
 30
0.0
 10
215.217653
 20
-139.560806
 30
0.0
  0
SPLINE
  5
1d3
100
AcDbEntity
  8
Camada_1
 62
7
100
AcDbSpline
 70
8
 71
3
 72
8
 73
4
 74
0
 40
0
 40
0
 40
0
 40
0
 40
1
 40
1
 40
1
 40
1
 10
215.217653
 20
-139.560806
 30
0.0
 10
215.217652
 20
-138.624183
 30
0.0
 10
215.589723
 20
-137.725922
 30
0.0
 10
216.252015
 20
-137.063630
 30
0.0
  0
SPLINE
  5
1d4
100
AcDbEntity
  8
Camada_1
 62
7
100
AcDbSpline
 70
8
 71
3
 72
8
 73
4
 74
0
 40
0
 40
0
 40
0
 40
0
 40
1
 40
1
 40
1
 40
1
 10
216.252015
 20
-137.063630
 30
0.0
 10
216.914306
 20
-136.401337
 30
0.0
 10
217.812567
 20
-136.029265
 30
0.0
 10
218.749189
 20
-136.029265
 30
0.0
  0
SPLINE
  5
1d5
100
AcDbEntity
  8
Camada_1
 62
7
100
AcDbSpline
 70
8
 71
3
 72
8
 73
4
 74
0
 40
0
 40
0
 40
0
 40
0
 40
1
 40
1
 40
1
 40
1
 10
218.749189
 20
-136.029265
 30
0.0
 10
219.685812
 20
-136.029265
 30
0.0
 10
220.584072
 20
-136.401337
 30
0.0
 10
221.246364
 20
-137.063629
 30
0.0
  0
SPLINE
  5
1d6
100
AcDbEntity
  8
Camada_1
 62
7
100
AcDbSpline
 70
8
 71
3
 72
8
 73
4
 74
0
 40
0
 40
0
 40
0
 40
0
 40
1
 40
1
 40
1
 40
1
 10
221.246364
 20
-137.063629
 30
0.0
 10
221.908656
 20
-137.725922
 30
0.0
 10
222.280727
 20
-138.624183
 30
0.0
 10
222.280726
 20
-139.560806
 30
0.0
  0
LWPOLYLINE
  5
1d7
100
AcDbEntity
  8
Camada_1
 62
7
100
AcDbPolyline
 90
1
 70
1
 10
224.528193
 20
-139.560806
 30
0.0
  0
SPLINE
  5
1d8
100
AcDbEntity
  8
Camada_1
 62
7
100
AcDbSpline
 70
8
 71
3
 72
8
 73
4
 74
0
 40
0
 40
0
 40
0
 40
0
 40
1
 40
1
 40
1
 40
1
 10
172.135872
 20
-170.627097
 30
0.0
 10
172.135872
 20
-172.159784
 30
0.0
 10
171.527014
 20
-173.629696
 30
0.0
 10
170.443241
 20
-174.713470
 30
0.0
  0
SPLINE
  5
1d9
100
AcDbEntity
  8
Camada_1
 62
7
100
AcDbSpline
 70
8
 71
3
 72
8
 73
4
 74
0
 40
0
 40
0
 40
0
 40
0
 40
1
 40
1
 40
1
 40
1
 10
170.443241
 20
-174.713470
 30
0.0
 10
169.359468
 20
-175.797243
 30
0.0
 10
167.889555
 20
-176.406101
 30
0.0
 10
166.356868
 20
-176.406101
 30
0.0
  0
SPLINE
  5
1da
100
AcDbEntity
  8
Camada_1
 62
7
100
AcDbSpline
 70
8
 71
3
 72
8
 73
4
 74
0
 40
0
 40
0
 40
0
 40
0
 40
1
 40
1
 40
1
 40
1
 10
166.356868
 20
-176.406101
 30
0.0
 10
164.824181
 20
-176.406101
 30
0.0
 10
163.354269
 20
-175.797243
 30
0.0
 10
162.270495
 20
-174.713470
 30
0.0
  0
SPLINE
  5
1db
100
AcDbEntity
  8
Camada_1
 62
7
100
AcDbSpline
 70
8
 71
3
 72
8
 73
4
 74
0
 40
0
 40
0
 40
0
 40
0
 40
1
 40
1
 40
1
 40
1
 10
162.270495
 20
-174.713470
 30
0.0
 10
161.186722
 20
-173.629696
 30
0.0
 10
160.577864
 20
-172.159784
 30
0.0
 10
160.577864
 20
-170.627097
 30
0.0
  0
SPLINE
  5
1dc
100
AcDbEntity
  8
Camada_1
 62
7
100
AcDbSpline
 70
8
 71
3
 72
8
 73
4
 74
0
 40
0
 40
0
 40
0
 40
0
 40
1
 40
1
 40
1
 40
1
 10
160.577864
 20
-170.627097
 30
0.0
 10
160.577864
 20
-169.094410
 30
0.0
 10
161.186722
 20
-167.624498
 30
0.0
 10
162.270495
 20
-166.540724
 30
0.0
  0
SPLINE
  5
1dd
100
AcDbEntity
  8
Camada_1
 62
7
100
AcDbSpline
 70
8
 71
3
 72
8
 73
4
 74
0
 40
0
 40
0
 40
0
 40
0
 40
1
 40
1
 40
1
 40
1
 10
162.270495
 20
-166.540724
 30
0.0
 10
163.354269
 20
-165.456951
 30
0.0
 10
164.824181
 20
-164.848093
 30
0.0
 10
166.356868
 20
-164.848093
 30
0.0
  0
SPLINE
  5
1de
100
AcDbEntity
  8
Camada_1
 62
7
100
AcDbSpline
 70
8
 71
3
 72
8
 73
4
 74
0
 40
0
 40
0
 40
0
 40
0
 40
1
 40
1
 40
1
 40
1
 10
166.356868
 20
-164.848093
 30
0.0
 10
167.889555
 20
-164.848093
 30
0.0
 10
169.359468
 20
-165.456951
 30
0.0
 10
170.443241
 20
-166.540724
 30
0.0
  0
SPLINE
  5
1df
100
AcDbEntity
  8
Camada_1
 62
7
100
AcDbSpline
 70
8
 71
3
 72
8
 73
4
 74
0
 40
0
 40
0
 40
0
 40
0
 40
1
 40
1
 40
1
 40
1
 10
170.443241
 20
-166.540724
 30
0.0
 10
171.527014
 20
-167.624498
 30
0.0
 10
172.135872
 20
-169.094410
 30
0.0
 10
172.135872
 20
-170.627097
 30
0.0
  0
LWPOLYLINE
  5
1e0
100
AcDbEntity
  8
Camada_1
 62
7
100
AcDbPolyline
 90
1
 70
1
 10
222.280726
 20
-139.560806
 30
0.0
  0
SPLINE
  5
1e1
100
AcDbEntity
  8
Camada_1
 62
7
100
AcDbSpline
 70
8
 71
3
 72
8
 73
4
 74
0
 40
0
 40
0
 40
0
 40
0
 40
1
 40
1
 40
1
 40
1
 10
169.888409
 20
-170.627097
 30
0.0
 10
169.888408
 20
-171.563719
 30
0.0
 10
169.516336
 20
-172.461979
 30
0.0
 10
168.854044
 20
-173.124271
 30
0.0
  0
SPLINE
  5
1e2
100
AcDbEntity
  8
Camada_1
 62
7
100
AcDbSpline
 70
8
 71
3
 72
8
 73
4
 74
0
 40
0
 40
0
 40
0
 40
0
 40
1
 40
1
 40
1
 40
1
 10
168.854044
 20
-173.124271
 30
0.0
 10
168.191751
 20
-173.786562
 30
0.0
 10
167.293490
 20
-174.158633
 30
0.0
 10
166.356868
 20
-174.158632
 30
0.0
  0
SPLINE
  5
1e3
100
AcDbEntity
  8
Camada_1
 62
7
100
AcDbSpline
 70
8
 71
3
 72
8
 73
4
 74
0
 40
0
 40
0
 40
0
 40
0
 40
1
 40
1
 40
1
 40
1
 10
166.356868
 20
-174.158632
 30
0.0
 10
164.406456
 20
-174.158631
 30
0.0
 10
162.825334
 20
-172.577509
 30
0.0
 10
162.825334
 20
-170.627097
 30
0.0
  0
SPLINE
  5
1e4
100
AcDbEntity
  8
Camada_1
 62
7
100
AcDbSpline
 70
8
 71
3
 72
8
 73
4
 74
0
 40
0
 40
0
 40
0
 40
0
 40
1
 40
1
 40
1
 40
1
 10
162.825334
 20
-170.627097
 30
0.0
 10
162.825332
 20
-169.690475
 30
0.0
 10
163.197403
 20
-168.792214
 30
0.0
 10
163.859694
 20
-168.129921
 30
0.0
  0
SPLINE
  5
1e5
100
AcDbEntity
  8
Camada_1
 62
7
100
AcDbSpline
 70
8
 71
3
 72
8
 73
4
 74
0
 40
0
 40
0
 40
0
 40
0
 40
1
 40
1
 40
1
 40
1
 10
163.859694
 20
-168.129921
 30
0.0
 10
164.521986
 20
-167.467629
 30
0.0
 10
165.420246
 20
-167.095557
 30
0.0
 10
166.356868
 20
-167.095556
 30
0.0
  0
SPLINE
  5
1e6
100
AcDbEntity
  8
Camada_1
 62
7
100
AcDbSpline
 70
8
 71
3
 72
8
 73
4
 74
0
 40
0
 40
0
 40
0
 40
0
 40
1
 40
1
 40
1
 40
1
 10
166.356868
 20
-167.095556
 30
0.0
 10
167.293491
 20
-167.095555
 30
0.0
 10
168.191753
 20
-167.467627
 30
0.0
 10
168.854046
 20
-168.129919
 30
0.0
  0
SPLINE
  5
1e7
100
AcDbEntity
  8
Camada_1
 62
7
100
AcDbSpline
 70
8
 71
3
 72
8
 73
4
 74
0
 40
0
 40
0
 40
0
 40
0
 40
1
 40
1
 40
1
 40
1
 10
168.854046
 20
-168.129919
 30
0.0
 10
169.516338
 20
-168.792212
 30
0.0
 10
169.888410
 20
-169.690474
 30
0.0
 10
169.888409
 20
-170.627097
 30
0.0
  0
LWPOLYLINE
  5
1e8
100
AcDbEntity
  8
Camada_1
 62
7
100
AcDbPolyline
 90
1
 70
1
 10
172.135872
 20
-170.627097
 30
0.0
  0
SPLINE
  5
1e9
100
AcDbEntity
  8
Camada_1
 62
7
100
AcDbSpline
 70
8
 71
3
 72
8
 73
4
 74
0
 40
0
 40
0
 40
0
 40
0
 40
1
 40
1
 40
1
 40
1
 10
167.829641
 20
-203.743967
 30
0.0
 10
167.829641
 20
-205.276654
 30
0.0
 10
167.220784
 20
-206.746566
 30
0.0
 10
166.137010
 20
-207.830340
 30
0.0
  0
SPLINE
  5
1ea
100
AcDbEntity
  8
Camada_1
 62
7
100
AcDbSpline
 70
8
 71
3
 72
8
 73
4
 74
0
 40
0
 40
0
 40
0
 40
0
 40
1
 40
1
 40
1
 40
1
 10
166.137010
 20
-207.830340
 30
0.0
 10
165.053237
 20
-208.914113
 30
0.0
 10
163.583325
 20
-209.522971
 30
0.0
 10
162.050637
 20
-209.522971
 30
0.0
  0
SPLINE
  5
1eb
100
AcDbEntity
  8
Camada_1
 62
7
100
AcDbSpline
 70
8
 71
3
 72
8
 73
4
 74
0
 40
0
 40
0
 40
0
 40
0
 40
1
 40
1
 40
1
 40
1
 10
162.050637
 20
-209.522971
 30
0.0
 10
160.517950
 20
-209.522971
 30
0.0
 10
159.048038
 20
-208.914113
 30
0.0
 10
157.964265
 20
-207.830340
 30
0.0
  0
SPLINE
  5
1ec
100
AcDbEntity
  8
Camada_1
 62
7
100
AcDbSpline
 70
8
 71
3
 72
8
 73
4
 74
0
 40
0
 40
0
 40
0
 40
0
 40
1
 40
1
 40
1
 40
1
 10
157.964265
 20
-207.830340
 30
0.0
 10
156.880491
 20
-206.746566
 30
0.0
 10
156.271634
 20
-205.276654
 30
0.0
 10
156.271634
 20
-203.743967
 30
0.0
  0
SPLINE
  5
1ed
100
AcDbEntity
  8
Camada_1
 62
7
100
AcDbSpline
 70
8
 71
3
 72
8
 73
4
 74
0
 40
0
 40
0
 40
0
 40
0
 40
1
 40
1
 40
1
 40
1
 10
156.271634
 20
-203.743967
 30
0.0
 10
156.271634
 20
-202.211280
 30
0.0
 10
156.880491
 20
-200.741367
 30
0.0
 10
157.964265
 20
-199.657594
 30
0.0
  0
SPLINE
  5
1ee
100
AcDbEntity
  8
Camada_1
 62
7
100
AcDbSpline
 70
8
 71
3
 72
8
 73
4
 74
0
 40
0
 40
0
 40
0
 40
0
 40
1
 40
1
 40
1
 40
1
 10
157.964265
 20
-199.657594
 30
0.0
 10
159.048038
 20
-198.573821
 30
0.0
 10
160.517950
 20
-197.964963
 30
0.0
 10
162.050637
 20
-197.964963
 30
0.0
  0
SPLINE
  5
1ef
100
AcDbEntity
  8
Camada_1
 62
7
100
AcDbSpline
 70
8
 71
3
 72
8
 73
4
 74
0
 40
0
 40
0
 40
0
 40
0
 40
1
 40
1
 40
1
 40
1
 10
162.050637
 20
-197.964963
 30
0.0
 10
163.583325
 20
-197.964963
 30
0.0
 10
165.053237
 20
-198.573821
 30
0.0
 10
166.137010
 20
-199.657594
 30
0.0
  0
SPLINE
  5
1f0
100
AcDbEntity
  8
Camada_1
 62
7
100
AcDbSpline
 70
8
 71
3
 72
8
 73
4
 74
0
 40
0
 40
0
 40
0
 40
0
 40
1
 40
1
 40
1
 40
1
 10
166.137010
 20
-199.657594
 30
0.0
 10
167.220784
 20
-200.741367
 30
0.0
 10
167.829641
 20
-202.211280
 30
0.0
 10
167.829641
 20
-203.743967
 30
0.0
  0
LWPOLYLINE
  5
1f1
100
AcDbEntity
  8
Camada_1
 62
7
100
AcDbPolyline
 90
1
 70
1
 10
169.888409
 20
-170.627097
 30
0.0
  0
SPLINE
  5
1f2
100
AcDbEntity
  8
Camada_1
 62
7
100
AcDbSpline
 70
8
 71
3
 72
8
 73
4
 74
0
 40
0
 40
0
 40
0
 40
0
 40
1
 40
1
 40
1
 40
1
 10
165.582172
 20
-203.743967
 30
0.0
 10
165.582171
 20
-205.694379
 30
0.0
 10
164.001050
 20
-207.275501
 30
0.0
 10
162.050637
 20
-207.275501
 30
0.0
  0
SPLINE
  5
1f3
100
AcDbEntity
  8
Camada_1
 62
7
100
AcDbSpline
 70
8
 71
3
 72
8
 73
4
 74
0
 40
0
 40
0
 40
0
 40
0
 40
1
 40
1
 40
1
 40
1
 10
162.050637
 20
-207.275501
 30
0.0
 10
160.100225
 20
-207.275501
 30
0.0
 10
158.519103
 20
-205.694379
 30
0.0
 10
158.519103
 20
-203.743967
 30
0.0
  0
SPLINE
  5
1f4
100
AcDbEntity
  8
Camada_1
 62
7
100
AcDbSpline
 70
8
 71
3
 72
8
 73
4
 74
0
 40
0
 40
0
 40
0
 40
0
 40
1
 40
1
 40
1
 40
1
 10
158.519103
 20
-203.743967
 30
0.0
 10
158.519102
 20
-202.807345
 30
0.0
 10
158.891172
 20
-201.909084
 30
0.0
 10
159.553464
 20
-201.246791
 30
0.0
  0
SPLINE
  5
1f5
100
AcDbEntity
  8
Camada_1
 62
7
100
AcDbSpline
 70
8
 71
3
 72
8
 73
4
 74
0
 40
0
 40
0
 40
0
 40
0
 40
1
 40
1
 40
1
 40
1
 10
159.553464
 20
-201.246791
 30
0.0
 10
160.215755
 20
-200.584499
 30
0.0
 10
161.114015
 20
-200.212427
 30
0.0
 10
162.050637
 20
-200.212426
 30
0.0
  0
SPLINE
  5
1f6
100
AcDbEntity
  8
Camada_1
 62
7
100
AcDbSpline
 70
8
 71
3
 72
8
 73
4
 74
0
 40
0
 40
0
 40
0
 40
0
 40
1
 40
1
 40
1
 40
1
 10
162.050637
 20
-200.212426
 30
0.0
 10
162.987260
 20
-200.212427
 30
0.0
 10
163.885520
 20
-200.584499
 30
0.0
 10
164.547811
 20
-201.246791
 30
0.0
  0
SPLINE
  5
1f7
100
AcDbEntity
  8
Camada_1
 62
7
100
AcDbSpline
 70
8
 71
3
 72
8
 73
4
 74
0
 40
0
 40
0
 40
0
 40
0
 40
1
 40
1
 40
1
 40
1
 10
164.547811
 20
-201.246791
 30
0.0
 10
165.210103
 20
-201.909084
 30
0.0
 10
165.582173
 20
-202.807345
 30
0.0
 10
165.582172
 20
-203.743967
 30
0.0
  0
LWPOLYLINE
  5
1f8
100
AcDbEntity
  8
Camada_1
 62
7
100
AcDbPolyline
 90
1
 70
1
 10
167.829641
 20
-203.743967
 30
0.0
  0
SPLINE
  5
1f9
100
AcDbEntity
  8
Camada_1
 62
7
100
AcDbSpline
 70
8
 71
3
 72
8
 73
4
 74
0
 40
0
 40
0
 40
0
 40
0
 40
1
 40
1
 40
1
 40
1
 10
195.922594
 20
-234.707736
 30
0.0
 10
195.922594
 20
-236.240423
 30
0.0
 10
195.313736
 20
-237.710335
 30
0.0
 10
194.229963
 20
-238.794109
 30
0.0
  0
SPLINE
  5
1fa
100
AcDbEntity
  8
Camada_1
 62
7
100
AcDbSpline
 70
8
 71
3
 72
8
 73
4
 74
0
 40
0
 40
0
 40
0
 40
0
 40
1
 40
1
 40
1
 40
1
 10
194.229963
 20
-238.794109
 30
0.0
 10
193.146190
 20
-239.877882
 30
0.0
 10
191.676277
 20
-240.486740
 30
0.0
 10
190.143590
 20
-240.486740
 30
0.0
  0
SPLINE
  5
1fb
100
AcDbEntity
  8
Camada_1
 62
7
100
AcDbSpline
 70
8
 71
3
 72
8
 73
4
 74
0
 40
0
 40
0
 40
0
 40
0
 40
1
 40
1
 40
1
 40
1
 10
190.143590
 20
-240.486740
 30
0.0
 10
188.610903
 20
-240.486740
 30
0.0
 10
187.140991
 20
-239.877882
 30
0.0
 10
186.057217
 20
-238.794109
 30
0.0
  0
SPLINE
  5
1fc
100
AcDbEntity
  8
Camada_1
 62
7
100
AcDbSpline
 70
8
 71
3
 72
8
 73
4
 74
0
 40
0
 40
0
 40
0
 40
0
 40
1
 40
1
 40
1
 40
1
 10
186.057217
 20
-238.794109
 30
0.0
 10
184.973444
 20
-237.710335
 30
0.0
 10
184.364586
 20
-236.240423
 30
0.0
 10
184.364586
 20
-234.707736
 30
0.0
  0
SPLINE
  5
1fd
100
AcDbEntity
  8
Camada_1
 62
7
100
AcDbSpline
 70
8
 71
3
 72
8
 73
4
 74
0
 40
0
 40
0
 40
0
 40
0
 40
1
 40
1
 40
1
 40
1
 10
184.364586
 20
-234.707736
 30
0.0
 10
184.364586
 20
-233.175049
 30
0.0
 10
184.973444
 20
-231.705137
 30
0.0
 10
186.057217
 20
-230.621363
 30
0.0
  0
SPLINE
  5
1fe
100
AcDbEntity
  8
Camada_1
 62
7
100
AcDbSpline
 70
8
 71
3
 72
8
 73
4
 74
0
 40
0
 40
0
 40
0
 40
0
 40
1
 40
1
 40
1
 40
1
 10
186.057217
 20
-230.621363
 30
0.0
 10
187.140991
 20
-229.537590
 30
0.0
 10
188.610903
 20
-228.928732
 30
0.0
 10
190.143590
 20
-228.928732
 30
0.0
  0
SPLINE
  5
1ff
100
AcDbEntity
  8
Camada_1
 62
7
100
AcDbSpline
 70
8
 71
3
 72
8
 73
4
 74
0
 40
0
 40
0
 40
0
 40
0
 40
1
 40
1
 40
1
 40
1
 10
190.143590
 20
-228.928732
 30
0.0
 10
191.676277
 20
-228.928732
 30
0.0
 10
193.146190
 20
-229.537590
 30
0.0
 10
194.229963
 20
-230.621363
 30
0.0
  0
SPLINE
  5
200
100
AcDbEntity
  8
Camada_1
 62
7
100
AcDbSpline
 70
8
 71
3
 72
8
 73
4
 74
0
 40
0
 40
0
 40
0
 40
0
 40
1
 40
1
 40
1
 40
1
 10
194.229963
 20
-230.621363
 30
0.0
 10
195.313736
 20
-231.705137
 30
0.0
 10
195.922594
 20
-233.175049
 30
0.0
 10
195.922594
 20
-234.707736
 30
0.0
  0
LWPOLYLINE
  5
201
100
AcDbEntity
  8
Camada_1
 62
7
100
AcDbPolyline
 90
1
 70
1
 10
165.582172
 20
-203.743967
 30
0.0
  0
SPLINE
  5
202
100
AcDbEntity
  8
Camada_1
 62
7
100
AcDbSpline
 70
8
 71
3
 72
8
 73
4
 74
0
 40
0
 40
0
 40
0
 40
0
 40
1
 40
1
 40
1
 40
1
 10
193.675126
 20
-234.707736
 30
0.0
 10
193.675125
 20
-236.658149
 30
0.0
 10
192.094003
 20
-238.239271
 30
0.0
 10
190.143590
 20
-238.239271
 30
0.0
  0
SPLINE
  5
203
100
AcDbEntity
  8
Camada_1
 62
7
100
AcDbSpline
 70
8
 71
3
 72
8
 73
4
 74
0
 40
0
 40
0
 40
0
 40
0
 40
1
 40
1
 40
1
 40
1
 10
190.143590
 20
-238.239271
 30
0.0
 10
188.193177
 20
-238.239271
 30
0.0
 10
186.612055
 20
-236.658149
 30
0.0
 10
186.612054
 20
-234.707736
 30
0.0
  0
SPLINE
  5
204
100
AcDbEntity
  8
Camada_1
 62
7
100
AcDbSpline
 70
8
 71
3
 72
8
 73
4
 74
0
 40
0
 40
0
 40
0
 40
0
 40
1
 40
1
 40
1
 40
1
 10
186.612054
 20
-234.707736
 30
0.0
 10
186.612055
 20
-232.757323
 30
0.0
 10
188.193177
 20
-231.176201
 30
0.0
 10
190.143590
 20
-231.176201
 30
0.0
  0
SPLINE
  5
205
100
AcDbEntity
  8
Camada_1
 62
7
100
AcDbSpline
 70
8
 71
3
 72
8
 73
4
 74
0
 40
0
 40
0
 40
0
 40
0
 40
1
 40
1
 40
1
 40
1
 10
190.143590
 20
-231.176201
 30
0.0
 10
192.094003
 20
-231.176201
 30
0.0
 10
193.675125
 20
-232.757323
 30
0.0
 10
193.675126
 20
-234.707736
 30
0.0
  0
LWPOLYLINE
  5
206
100
AcDbEntity
  8
Camada_1
 62
7
100
AcDbPolyline
 90
1
 70
1
 10
195.922594
 20
-234.707736
 30
0.0
  0
SPLINE
  5
207
100
AcDbEntity
  8
Camada_1
 62
7
100
AcDbSpline
 70
8
 71
3
 72
8
 73
4
 74
0
 40
0
 40
0
 40
0
 40
0
 40
1
 40
1
 40
1
 40
1
 10
278.048344
 20
-239.526607
 30
0.0
 10
278.048344
 20
-241.059294
 30
0.0
 10
277.439487
 20
-242.529206
 30
0.0
 10
276.355713
 20
-243.612980
 30
0.0
  0
SPLINE
  5
208
100
AcDbEntity
  8
Camada_1
 62
7
100
AcDbSpline
 70
8
 71
3
 72
8
 73
4
 74
0
 40
0
 40
0
 40
0
 40
0
 40
1
 40
1
 40
1
 40
1
 10
276.355713
 20
-243.612980
 30
0.0
 10
275.271940
 20
-244.696753
 30
0.0
 10
273.802027
 20
-245.305611
 30
0.0
 10
272.269340
 20
-245.305611
 30
0.0
  0
SPLINE
  5
209
100
AcDbEntity
  8
Camada_1
 62
7
100
AcDbSpline
 70
8
 71
3
 72
8
 73
4
 74
0
 40
0
 40
0
 40
0
 40
0
 40
1
 40
1
 40
1
 40
1
 10
272.269340
 20
-245.305611
 30
0.0
 10
270.736653
 20
-245.305611
 30
0.0
 10
269.266741
 20
-244.696753
 30
0.0
 10
268.182967
 20
-243.612980
 30
0.0
  0
SPLINE
  5
20a
100
AcDbEntity
  8
Camada_1
 62
7
100
AcDbSpline
 70
8
 71
3
 72
8
 73
4
 74
0
 40
0
 40
0
 40
0
 40
0
 40
1
 40
1
 40
1
 40
1
 10
268.182967
 20
-243.612980
 30
0.0
 10
267.099194
 20
-242.529206
 30
0.0
 10
266.490336
 20
-241.059294
 30
0.0
 10
266.490336
 20
-239.526607
 30
0.0
  0
SPLINE
  5
20b
100
AcDbEntity
  8
Camada_1
 62
7
100
AcDbSpline
 70
8
 71
3
 72
8
 73
4
 74
0
 40
0
 40
0
 40
0
 40
0
 40
1
 40
1
 40
1
 40
1
 10
266.490336
 20
-239.526607
 30
0.0
 10
266.490336
 20
-236.334951
 30
0.0
 10
269.077685
 20
-233.747603
 30
0.0
 10
272.269340
 20
-233.747603
 30
0.0
  0
SPLINE
  5
20c
100
AcDbEntity
  8
Camada_1
 62
7
100
AcDbSpline
 70
8
 71
3
 72
8
 73
4
 74
0
 40
0
 40
0
 40
0
 40
0
 40
1
 40
1
 40
1
 40
1
 10
272.269340
 20
-233.747603
 30
0.0
 10
273.802027
 20
-233.747603
 30
0.0
 10
275.271940
 20
-234.356461
 30
0.0
 10
276.355713
 20
-235.440234
 30
0.0
  0
SPLINE
  5
20d
100
AcDbEntity
  8
Camada_1
 62
7
100
AcDbSpline
 70
8
 71
3
 72
8
 73
4
 74
0
 40
0
 40
0
 40
0
 40
0
 40
1
 40
1
 40
1
 40
1
 10
276.355713
 20
-235.440234
 30
0.0
 10
277.439487
 20
-236.524008
 30
0.0
 10
278.048344
 20
-237.993920
 30
0.0
 10
278.048344
 20
-239.526607
 30
0.0
  0
LWPOLYLINE
  5
20e
100
AcDbEntity
  8
Camada_1
 62
7
100
AcDbPolyline
 90
1
 70
1
 10
193.675126
 20
-234.707736
 30
0.0
  0
SPLINE
  5
20f
100
AcDbEntity
  8
Camada_1
 62
7
100
AcDbSpline
 70
8
 71
3
 72
8
 73
4
 74
0
 40
0
 40
0
 40
0
 40
0
 40
1
 40
1
 40
1
 40
1
 10
275.800876
 20
-239.526607
 30
0.0
 10
275.800875
 20
-241.477020
 30
0.0
 10
274.219753
 20
-243.058142
 30
0.0
 10
272.269340
 20
-243.058142
 30
0.0
  0
SPLINE
  5
210
100
AcDbEntity
  8
Camada_1
 62
7
100
AcDbSpline
 70
8
 71
3
 72
8
 73
4
 74
0
 40
0
 40
0
 40
0
 40
0
 40
1
 40
1
 40
1
 40
1
 10
272.269340
 20
-243.058142
 30
0.0
 10
270.318927
 20
-243.058142
 30
0.0
 10
268.737805
 20
-241.477020
 30
0.0
 10
268.737804
 20
-239.526607
 30
0.0
  0
SPLINE
  5
211
100
AcDbEntity
  8
Camada_1
 62
7
100
AcDbSpline
 70
8
 71
3
 72
8
 73
4
 74
0
 40
0
 40
0
 40
0
 40
0
 40
1
 40
1
 40
1
 40
1
 10
268.737804
 20
-239.526607
 30
0.0
 10
268.737803
 20
-238.589985
 30
0.0
 10
269.109874
 20
-237.691723
 30
0.0
 10
269.772166
 20
-237.029431
 30
0.0
  0
SPLINE
  5
212
100
AcDbEntity
  8
Camada_1
 62
7
100
AcDbSpline
 70
8
 71
3
 72
8
 73
4
 74
0
 40
0
 40
0
 40
0
 40
0
 40
1
 40
1
 40
1
 40
1
 10
269.772166
 20
-237.029431
 30
0.0
 10
270.434457
 20
-236.367139
 30
0.0
 10
271.332718
 20
-235.995066
 30
0.0
 10
272.269340
 20
-235.995066
 30
0.0
  0
SPLINE
  5
213
100
AcDbEntity
  8
Camada_1
 62
7
100
AcDbSpline
 70
8
 71
3
 72
8
 73
4
 74
0
 40
0
 40
0
 40
0
 40
0
 40
1
 40
1
 40
1
 40
1
 10
272.269340
 20
-235.995066
 30
0.0
 10
273.205963
 20
-235.995066
 30
0.0
 10
274.104223
 20
-236.367139
 30
0.0
 10
274.766515
 20
-237.029431
 30
0.0
  0
SPLINE
  5
214
100
AcDbEntity
  8
Camada_1
 62
7
100
AcDbSpline
 70
8
 71
3
 72
8
 73
4
 74
0
 40
0
 40
0
 40
0
 40
0
 40
1
 40
1
 40
1
 40
1
 10
274.766515
 20
-237.029431
 30
0.0
 10
275.428806
 20
-237.691723
 30
0.0
 10
275.800877
 20
-238.589985
 30
0.0
 10
275.800876
 20
-239.526607
 30
0.0
  0
LWPOLYLINE
  5
215
100
AcDbEntity
  8
Camada_1
 62
7
100
AcDbPolyline
 90
1
 70
1
 10
278.048344
 20
-239.526607
 30
0.0
  0
SPLINE
  5
216
100
AcDbEntity
  8
Camada_1
 62
7
100
AcDbSpline
 70
8
 71
3
 72
8
 73
4
 74
0
 40
0
 40
0
 40
0
 40
0
 40
1
 40
1
 40
1
 40
1
 10
43.103085
 20
-194.516360
 30
0.0
 10
43.103085
 20
-196.049048
 30
0.0
 10
42.494227
 20
-197.518960
 30
0.0
 10
41.410454
 20
-198.602733
 30
0.0
  0
SPLINE
  5
217
100
AcDbEntity
  8
Camada_1
 62
7
100
AcDbSpline
 70
8
 71
3
 72
8
 73
4
 74
0
 40
0
 40
0
 40
0
 40
0
 40
1
 40
1
 40
1
 40
1
 10
41.410454
 20
-198.602733
 30
0.0
 10
40.326681
 20
-199.686507
 30
0.0
 10
38.856768
 20
-200.295364
 30
0.0
 10
37.324081
 20
-200.295364
 30
0.0
  0
SPLINE
  5
218
100
AcDbEntity
  8
Camada_1
 62
7
100
AcDbSpline
 70
8
 71
3
 72
8
 73
4
 74
0
 40
0
 40
0
 40
0
 40
0
 40
1
 40
1
 40
1
 40
1
 10
37.324081
 20
-200.295364
 30
0.0
 10
35.791394
 20
-200.295364
 30
0.0
 10
34.321482
 20
-199.686507
 30
0.0
 10
33.237708
 20
-198.602733
 30
0.0
  0
SPLINE
  5
219
100
AcDbEntity
  8
Camada_1
 62
7
100
AcDbSpline
 70
8
 71
3
 72
8
 73
4
 74
0
 40
0
 40
0
 40
0
 40
0
 40
1
 40
1
 40
1
 40
1
 10
33.237708
 20
-198.602733
 30
0.0
 10
32.153935
 20
-197.518960
 30
0.0
 10
31.545077
 20
-196.049048
 30
0.0
 10
31.545077
 20
-194.516360
 30
0.0
  0
SPLINE
  5
21a
100
AcDbEntity
  8
Camada_1
 62
7
100
AcDbSpline
 70
8
 71
3
 72
8
 73
4
 74
0
 40
0
 40
0
 40
0
 40
0
 40
1
 40
1
 40
1
 40
1
 10
31.545077
 20
-194.516360
 30
0.0
 10
31.545077
 20
-192.983673
 30
0.0
 10
32.153935
 20
-191.513761
 30
0.0
 10
33.237708
 20
-190.429988
 30
0.0
  0
SPLINE
  5
21b
100
AcDbEntity
  8
Camada_1
 62
7
100
AcDbSpline
 70
8
 71
3
 72
8
 73
4
 74
0
 40
0
 40
0
 40
0
 40
0
 40
1
 40
1
 40
1
 40
1
 10
33.237708
 20
-190.429988
 30
0.0
 10
34.321482
 20
-189.346214
 30
0.0
 10
35.791394
 20
-188.737357
 30
0.0
 10
37.324081
 20
-188.737357
 30
0.0
  0
SPLINE
  5
21c
100
AcDbEntity
  8
Camada_1
 62
7
100
AcDbSpline
 70
8
 71
3
 72
8
 73
4
 74
0
 40
0
 40
0
 40
0
 40
0
 40
1
 40
1
 40
1
 40
1
 10
37.324081
 20
-188.737357
 30
0.0
 10
38.856768
 20
-188.737357
 30
0.0
 10
40.326681
 20
-189.346214
 30
0.0
 10
41.410454
 20
-190.429988
 30
0.0
  0
SPLINE
  5
21d
100
AcDbEntity
  8
Camada_1
 62
7
100
AcDbSpline
 70
8
 71
3
 72
8
 73
4
 74
0
 40
0
 40
0
 40
0
 40
0
 40
1
 40
1
 40
1
 40
1
 10
41.410454
 20
-190.429988
 30
0.0
 10
42.494227
 20
-191.513761
 30
0.0
 10
43.103085
 20
-192.983673
 30
0.0
 10
43.103085
 20
-194.516360
 30
0.0
  0
LWPOLYLINE
  5
21e
100
AcDbEntity
  8
Camada_1
 62
7
100
AcDbPolyline
 90
1
 70
1
 10
275.800876
 20
-239.526607
 30
0.0
  0
SPLINE
  5
21f
100
AcDbEntity
  8
Camada_1
 62
7
100
AcDbSpline
 70
8
 71
3
 72
8
 73
4
 74
0
 40
0
 40
0
 40
0
 40
0
 40
1
 40
1
 40
1
 40
1
 10
40.855616
 20
-194.516360
 30
0.0
 10
40.855615
 20
-196.466773
 30
0.0
 10
39.274494
 20
-198.047894
 30
0.0
 10
37.324081
 20
-198.047895
 30
0.0
  0
SPLINE
  5
220
100
AcDbEntity
  8
Camada_1
 62
7
100
AcDbSpline
 70
8
 71
3
 72
8
 73
4
 74
0
 40
0
 40
0
 40
0
 40
0
 40
1
 40
1
 40
1
 40
1
 10
37.324081
 20
-198.047895
 30
0.0
 10
36.387459
 20
-198.047896
 30
0.0
 10
35.489198
 20
-197.675826
 30
0.0
 10
34.826906
 20
-197.013534
 30
0.0
  0
SPLINE
  5
221
100
AcDbEntity
  8
Camada_1
 62
7
100
AcDbSpline
 70
8
 71
3
 72
8
 73
4
 74
0
 40
0
 40
0
 40
0
 40
0
 40
1
 40
1
 40
1
 40
1
 10
34.826906
 20
-197.013534
 30
0.0
 10
34.164613
 20
-196.351243
 30
0.0
 10
33.792541
 20
-195.452983
 30
0.0
 10
33.792541
 20
-194.516360
 30
0.0
  0
SPLINE
  5
222
100
AcDbEntity
  8
Camada_1
 62
7
100
AcDbSpline
 70
8
 71
3
 72
8
 73
4
 74
0
 40
0
 40
0
 40
0
 40
0
 40
1
 40
1
 40
1
 40
1
 10
33.792541
 20
-194.516360
 30
0.0
 10
33.792541
 20
-193.579738
 30
0.0
 10
34.164613
 20
-192.681478
 30
0.0
 10
34.826906
 20
-192.019187
 30
0.0
  0
SPLINE
  5
223
100
AcDbEntity
  8
Camada_1
 62
7
100
AcDbSpline
 70
8
 71
3
 72
8
 73
4
 74
0
 40
0
 40
0
 40
0
 40
0
 40
1
 40
1
 40
1
 40
1
 10
34.826906
 20
-192.019187
 30
0.0
 10
35.489198
 20
-191.356895
 30
0.0
 10
36.387459
 20
-190.984825
 30
0.0
 10
37.324081
 20
-190.984826
 30
0.0
  0
SPLINE
  5
224
100
AcDbEntity
  8
Camada_1
 62
7
100
AcDbSpline
 70
8
 71
3
 72
8
 73
4
 74
0
 40
0
 40
0
 40
0
 40
0
 40
1
 40
1
 40
1
 40
1
 10
37.324081
 20
-190.984826
 30
0.0
 10
39.274494
 20
-190.984827
 30
0.0
 10
40.855615
 20
-192.565948
 30
0.0
 10
40.855616
 20
-194.516360
 30
0.0
  0
LWPOLYLINE
  5
225
100
AcDbEntity
  8
Camada_1
 62
7
100
AcDbPolyline
 90
1
 70
1
 10
43.103085
 20
-194.516360
 30
0.0
  0
SPLINE
  5
226
100
AcDbEntity
  8
Camada_1
 62
7
100
AcDbSpline
 70
8
 71
3
 72
8
 73
4
 74
0
 40
0
 40
0
 40
0
 40
0
 40
1
 40
1
 40
1
 40
1
 10
48.690931
 20
-168.012611
 30
0.0
 10
48.690931
 20
-169.545298
 30
0.0
 10
48.082073
 20
-171.015211
 30
0.0
 10
46.998300
 20
-172.098984
 30
0.0
  0
SPLINE
  5
227
100
AcDbEntity
  8
Camada_1
 62
7
100
AcDbSpline
 70
8
 71
3
 72
8
 73
4
 74
0
 40
0
 40
0
 40
0
 40
0
 40
1
 40
1
 40
1
 40
1
 10
46.998300
 20
-172.098984
 30
0.0
 10
45.914527
 20
-173.182757
 30
0.0
 10
44.444614
 20
-173.791615
 30
0.0
 10
42.911927
 20
-173.791615
 30
0.0
  0
SPLINE
  5
228
100
AcDbEntity
  8
Camada_1
 62
7
100
AcDbSpline
 70
8
 71
3
 72
8
 73
4
 74
0
 40
0
 40
0
 40
0
 40
0
 40
1
 40
1
 40
1
 40
1
 10
42.911927
 20
-173.791615
 30
0.0
 10
41.379240
 20
-173.791615
 30
0.0
 10
39.909328
 20
-173.182757
 30
0.0
 10
38.825554
 20
-172.098984
 30
0.0
  0
SPLINE
  5
229
100
AcDbEntity
  8
Camada_1
 62
7
100
AcDbSpline
 70
8
 71
3
 72
8
 73
4
 74
0
 40
0
 40
0
 40
0
 40
0
 40
1
 40
1
 40
1
 40
1
 10
38.825554
 20
-172.098984
 30
0.0
 10
37.741781
 20
-171.015211
 30
0.0
 10
37.132923
 20
-169.545298
 30
0.0
 10
37.132923
 20
-168.012611
 30
0.0
  0
SPLINE
  5
22a
100
AcDbEntity
  8
Camada_1
 62
7
100
AcDbSpline
 70
8
 71
3
 72
8
 73
4
 74
0
 40
0
 40
0
 40
0
 40
0
 40
1
 40
1
 40
1
 40
1
 10
37.132923
 20
-168.012611
 30
0.0
 10
37.132923
 20
-166.479924
 30
0.0
 10
37.741781
 20
-165.010012
 30
0.0
 10
38.825554
 20
-163.926238
 30
0.0
  0
SPLINE
  5
22b
100
AcDbEntity
  8
Camada_1
 62
7
100
AcDbSpline
 70
8
 71
3
 72
8
 73
4
 74
0
 40
0
 40
0
 40
0
 40
0
 40
1
 40
1
 40
1
 40
1
 10
38.825554
 20
-163.926238
 30
0.0
 10
39.909328
 20
-162.842465
 30
0.0
 10
41.379240
 20
-162.233607
 30
0.0
 10
42.911927
 20
-162.233607
 30
0.0
  0
SPLINE
  5
22c
100
AcDbEntity
  8
Camada_1
 62
7
100
AcDbSpline
 70
8
 71
3
 72
8
 73
4
 74
0
 40
0
 40
0
 40
0
 40
0
 40
1
 40
1
 40
1
 40
1
 10
42.911927
 20
-162.233607
 30
0.0
 10
44.444614
 20
-162.233607
 30
0.0
 10
45.914527
 20
-162.842465
 30
0.0
 10
46.998300
 20
-163.926238
 30
0.0
  0
SPLINE
  5
22d
100
AcDbEntity
  8
Camada_1
 62
7
100
AcDbSpline
 70
8
 71
3
 72
8
 73
4
 74
0
 40
0
 40
0
 40
0
 40
0
 40
1
 40
1
 40
1
 40
1
 10
46.998300
 20
-163.926238
 30
0.0
 10
48.082073
 20
-165.010012
 30
0.0
 10
48.690931
 20
-166.479924
 30
0.0
 10
48.690931
 20
-168.012611
 30
0.0
  0
LWPOLYLINE
  5
22e
100
AcDbEntity
  8
Camada_1
 62
7
100
AcDbPolyline
 90
1
 70
1
 10
40.855616
 20
-194.516360
 30
0.0
  0
SPLINE
  5
22f
100
AcDbEntity
  8
Camada_1
 62
7
100
AcDbSpline
 70
8
 71
3
 72
8
 73
4
 74
0
 40
0
 40
0
 40
0
 40
0
 40
1
 40
1
 40
1
 40
1
 10
46.443462
 20
-168.012611
 30
0.0
 10
46.443461
 20
-169.963024
 30
0.0
 10
44.862340
 20
-171.544145
 30
0.0
 10
42.911927
 20
-171.544146
 30
0.0
  0
SPLINE
  5
230
100
AcDbEntity
  8
Camada_1
 62
7
100
AcDbSpline
 70
8
 71
3
 72
8
 73
4
 74
0
 40
0
 40
0
 40
0
 40
0
 40
1
 40
1
 40
1
 40
1
 10
42.911927
 20
-171.544146
 30
0.0
 10
40.961515
 20
-171.544145
 30
0.0
 10
39.380393
 20
-169.963024
 30
0.0
 10
39.380393
 20
-168.012611
 30
0.0
  0
SPLINE
  5
231
100
AcDbEntity
  8
Camada_1
 62
7
100
AcDbSpline
 70
8
 71
3
 72
8
 73
4
 74
0
 40
0
 40
0
 40
0
 40
0
 40
1
 40
1
 40
1
 40
1
 10
39.380393
 20
-168.012611
 30
0.0
 10
39.380393
 20
-166.062199
 30
0.0
 10
40.961515
 20
-164.481077
 30
0.0
 10
42.911927
 20
-164.481077
 30
0.0
  0
SPLINE
  5
232
100
AcDbEntity
  8
Camada_1
 62
7
100
AcDbSpline
 70
8
 71
3
 72
8
 73
4
 74
0
 40
0
 40
0
 40
0
 40
0
 40
1
 40
1
 40
1
 40
1
 10
42.911927
 20
-164.481077
 30
0.0
 10
44.862340
 20
-164.481077
 30
0.0
 10
46.443461
 20
-166.062199
 30
0.0
 10
46.443462
 20
-168.012611
 30
0.0
  0
LWPOLYLINE
  5
233
100
AcDbEntity
  8
Camada_1
 62
7
100
AcDbPolyline
 90
1
 70
1
 10
48.690931
 20
-168.012611
 30
0.0
  0
SPLINE
  5
234
100
AcDbEntity
  8
Camada_1
 62
7
100
AcDbSpline
 70
8
 71
3
 72
8
 73
4
 74
0
 40
0
 40
0
 40
0
 40
0
 40
1
 40
1
 40
1
 40
1
 10
-301.650747
 20
92.359847
 30
0.0
 10
-301.650747
 20
90.528043
 30
0.0
 10
-302.378428
 20
88.771265
 30
0.0
 10
-303.673709
 20
87.475984
 30
0.0
  0
SPLINE
  5
235
100
AcDbEntity
  8
Camada_1
 62
7
100
AcDbSpline
 70
8
 71
3
 72
8
 73
4
 74
0
 40
0
 40
0
 40
0
 40
0
 40
1
 40
1
 40
1
 40
1
 10
-303.673709
 20
87.475984
 30
0.0
 10
-304.968990
 20
86.180704
 30
0.0
 10
-306.725767
 20
85.453022
 30
0.0
 10
-308.557571
 20
85.453023
 30
0.0
  0
SPLINE
  5
236
100
AcDbEntity
  8
Camada_1
 62
7
100
AcDbSpline
 70
8
 71
3
 72
8
 73
4
 74
0
 40
0
 40
0
 40
0
 40
0
 40
1
 40
1
 40
1
 40
1
 10
-308.557571
 20
85.453023
 30
0.0
 10
-310.389375
 20
85.453022
 30
0.0
 10
-312.146153
 20
86.180704
 30
0.0
 10
-313.441434
 20
87.475984
 30
0.0
  0
SPLINE
  5
237
100
AcDbEntity
  8
Camada_1
 62
7
100
AcDbSpline
 70
8
 71
3
 72
8
 73
4
 74
0
 40
0
 40
0
 40
0
 40
0
 40
1
 40
1
 40
1
 40
1
 10
-313.441434
 20
87.475984
 30
0.0
 10
-314.736714
 20
88.771265
 30
0.0
 10
-315.464396
 20
90.528043
 30
0.0
 10
-315.464395
 20
92.359847
 30
0.0
  0
SPLINE
  5
238
100
AcDbEntity
  8
Camada_1
 62
7
100
AcDbSpline
 70
8
 71
3
 72
8
 73
4
 74
0
 40
0
 40
0
 40
0
 40
0
 40
1
 40
1
 40
1
 40
1
 10
-315.464395
 20
92.359847
 30
0.0
 10
-315.464396
 20
94.191651
 30
0.0
 10
-314.736714
 20
95.948428
 30
0.0
 10
-313.441434
 20
97.243709
 30
0.0
  0
SPLINE
  5
239
100
AcDbEntity
  8
Camada_1
 62
7
100
AcDbSpline
 70
8
 71
3
 72
8
 73
4
 74
0
 40
0
 40
0
 40
0
 40
0
 40
1
 40
1
 40
1
 40
1
 10
-313.441434
 20
97.243709
 30
0.0
 10
-312.146153
 20
98.538990
 30
0.0
 10
-310.389375
 20
99.266671
 30
0.0
 10
-308.557571
 20
99.266671
 30
0.0
  0
SPLINE
  5
23a
100
AcDbEntity
  8
Camada_1
 62
7
100
AcDbSpline
 70
8
 71
3
 72
8
 73
4
 74
0
 40
0
 40
0
 40
0
 40
0
 40
1
 40
1
 40
1
 40
1
 10
-308.557571
 20
99.266671
 30
0.0
 10
-306.725767
 20
99.266671
 30
0.0
 10
-304.968990
 20
98.538990
 30
0.0
 10
-303.673709
 20
97.243709
 30
0.0
  0
SPLINE
  5
23b
100
AcDbEntity
  8
Camada_1
 62
7
100
AcDbSpline
 70
8
 71
3
 72
8
 73
4
 74
0
 40
0
 40
0
 40
0
 40
0
 40
1
 40
1
 40
1
 40
1
 10
-303.673709
 20
97.243709
 30
0.0
 10
-302.378428
 20
95.948428
 30
0.0
 10
-301.650747
 20
94.191651
 30
0.0
 10
-301.650747
 20
92.359847
 30
0.0
  0
LWPOLYLINE
  5
23c
100
AcDbEntity
  8
Camada_1
 62
7
100
AcDbPolyline
 90
1
 70
1
 10
46.443462
 20
-168.012611
 30
0.0
  0
SPLINE
  5
23d
100
AcDbEntity
  8
Camada_1
 62
7
100
AcDbSpline
 70
8
 71
3
 72
8
 73
4
 74
0
 40
0
 40
0
 40
0
 40
0
 40
1
 40
1
 40
1
 40
1
 10
-304.336828
 20
92.359847
 30
0.0
 10
-304.336828
 20
91.240436
 30
0.0
 10
-304.781512
 20
90.166873
 30
0.0
 10
-305.573055
 20
89.375330
 30
0.0
  0
SPLINE
  5
23e
100
AcDbEntity
  8
Camada_1
 62
7
100
AcDbSpline
 70
8
 71
3
 72
8
 73
4
 74
0
 40
0
 40
0
 40
0
 40
0
 40
1
 40
1
 40
1
 40
1
 10
-305.573055
 20
89.375330
 30
0.0
 10
-306.364598
 20
88.583787
 30
0.0
 10
-307.438160
 20
88.139102
 30
0.0
 10
-308.557571
 20
88.139102
 30
0.0
  0
SPLINE
  5
23f
100
AcDbEntity
  8
Camada_1
 62
7
100
AcDbSpline
 70
8
 71
3
 72
8
 73
4
 74
0
 40
0
 40
0
 40
0
 40
0
 40
1
 40
1
 40
1
 40
1
 10
-308.557571
 20
88.139102
 30
0.0
 10
-309.676982
 20
88.139102
 30
0.0
 10
-310.750545
 20
88.583787
 30
0.0
 10
-311.542087
 20
89.375330
 30
0.0
  0
SPLINE
  5
240
100
AcDbEntity
  8
Camada_1
 62
7
100
AcDbSpline
 70
8
 71
3
 72
8
 73
4
 74
0
 40
0
 40
0
 40
0
 40
0
 40
1
 40
1
 40
1
 40
1
 10
-311.542087
 20
89.375330
 30
0.0
 10
-312.333630
 20
90.166873
 30
0.0
 10
-312.778314
 20
91.240436
 30
0.0
 10
-312.778314
 20
92.359847
 30
0.0
  0
SPLINE
  5
241
100
AcDbEntity
  8
Camada_1
 62
7
100
AcDbSpline
 70
8
 71
3
 72
8
 73
4
 74
0
 40
0
 40
0
 40
0
 40
0
 40
1
 40
1
 40
1
 40
1
 10
-312.778314
 20
92.359847
 30
0.0
 10
-312.778314
 20
94.690899
 30
0.0
 10
-310.888623
 20
96.580589
 30
0.0
 10
-308.557571
 20
96.580590
 30
0.0
  0
SPLINE
  5
242
100
AcDbEntity
  8
Camada_1
 62
7
100
AcDbSpline
 70
8
 71
3
 72
8
 73
4
 74
0
 40
0
 40
0
 40
0
 40
0
 40
1
 40
1
 40
1
 40
1
 10
-308.557571
 20
96.580590
 30
0.0
 10
-306.226519
 20
96.580589
 30
0.0
 10
-304.336829
 20
94.690899
 30
0.0
 10
-304.336828
 20
92.359847
 30
0.0
  0
LWPOLYLINE
  5
243
100
AcDbEntity
  8
Camada_1
 62
7
100
AcDbPolyline
 90
1
 70
1
 10
-301.650747
 20
92.359847
 30
0.0
  0
SPLINE
  5
244
100
AcDbEntity
  8
Camada_1
 62
7
100
AcDbSpline
 70
8
 71
3
 72
8
 73
4
 74
0
 40
0
 40
0
 40
0
 40
0
 40
1
 40
1
 40
1
 40
1
 10
-231.828467
 20
92.257313
 30
0.0
 10
-231.828467
 20
90.425509
 30
0.0
 10
-232.556148
 20
88.668732
 30
0.0
 10
-233.851429
 20
87.373451
 30
0.0
  0
SPLINE
  5
245
100
AcDbEntity
  8
Camada_1
 62
7
100
AcDbSpline
 70
8
 71
3
 72
8
 73
4
 74
0
 40
0
 40
0
 40
0
 40
0
 40
1
 40
1
 40
1
 40
1
 10
-233.851429
 20
87.373451
 30
0.0
 10
-235.146710
 20
86.078170
 30
0.0
 10
-236.903488
 20
85.350489
 30
0.0
 10
-238.735291
 20
85.350489
 30
0.0
  0
SPLINE
  5
246
100
AcDbEntity
  8
Camada_1
 62
7
100
AcDbSpline
 70
8
 71
3
 72
8
 73
4
 74
0
 40
0
 40
0
 40
0
 40
0
 40
1
 40
1
 40
1
 40
1
 10
-238.735291
 20
85.350489
 30
0.0
 10
-240.567095
 20
85.350489
 30
0.0
 10
-242.323873
 20
86.078170
 30
0.0
 10
-243.619153
 20
87.373451
 30
0.0
  0
SPLINE
  5
247
100
AcDbEntity
  8
Camada_1
 62
7
100
AcDbSpline
 70
8
 71
3
 72
8
 73
4
 74
0
 40
0
 40
0
 40
0
 40
0
 40
1
 40
1
 40
1
 40
1
 10
-243.619153
 20
87.373451
 30
0.0
 10
-244.914434
 20
88.668732
 30
0.0
 10
-245.642115
 20
90.425509
 30
0.0
 10
-245.642115
 20
92.257313
 30
0.0
  0
SPLINE
  5
248
100
AcDbEntity
  8
Camada_1
 62
7
100
AcDbSpline
 70
8
 71
3
 72
8
 73
4
 74
0
 40
0
 40
0
 40
0
 40
0
 40
1
 40
1
 40
1
 40
1
 10
-245.642115
 20
92.257313
 30
0.0
 10
-245.642116
 20
94.089117
 30
0.0
 10
-244.914434
 20
95.845895
 30
0.0
 10
-243.619154
 20
97.141175
 30
0.0
  0
SPLINE
  5
249
100
AcDbEntity
  8
Camada_1
 62
7
100
AcDbSpline
 70
8
 71
3
 72
8
 73
4
 74
0
 40
0
 40
0
 40
0
 40
0
 40
1
 40
1
 40
1
 40
1
 10
-243.619154
 20
97.141175
 30
0.0
 10
-242.323873
 20
98.436456
 30
0.0
 10
-240.567095
 20
99.164137
 30
0.0
 10
-238.735291
 20
99.164137
 30
0.0
  0
SPLINE
  5
24a
100
AcDbEntity
  8
Camada_1
 62
7
100
AcDbSpline
 70
8
 71
3
 72
8
 73
4
 74
0
 40
0
 40
0
 40
0
 40
0
 40
1
 40
1
 40
1
 40
1
 10
-238.735291
 20
99.164137
 30
0.0
 10
-236.903487
 20
99.164137
 30
0.0
 10
-235.146709
 20
98.436456
 30
0.0
 10
-233.851429
 20
97.141175
 30
0.0
  0
SPLINE
  5
24b
100
AcDbEntity
  8
Camada_1
 62
7
100
AcDbSpline
 70
8
 71
3
 72
8
 73
4
 74
0
 40
0
 40
0
 40
0
 40
0
 40
1
 40
1
 40
1
 40
1
 10
-233.851429
 20
97.141175
 30
0.0
 10
-232.556148
 20
95.845895
 30
0.0
 10
-231.828467
 20
94.089117
 30
0.0
 10
-231.828467
 20
92.257313
 30
0.0
  0
LWPOLYLINE
  5
24c
100
AcDbEntity
  8
Camada_1
 62
7
100
AcDbPolyline
 90
1
 70
1
 10
-304.336828
 20
92.359847
 30
0.0
  0
SPLINE
  5
24d
100
AcDbEntity
  8
Camada_1
 62
7
100
AcDbSpline
 70
8
 71
3
 72
8
 73
4
 74
0
 40
0
 40
0
 40
0
 40
0
 40
1
 40
1
 40
1
 40
1
 10
-234.514548
 20
92.257313
 30
0.0
 10
-234.514548
 20
89.926261
 30
0.0
 10
-236.404239
 20
88.036569
 30
0.0
 10
-238.735291
 20
88.036569
 30
0.0
  0
SPLINE
  5
24e
100
AcDbEntity
  8
Camada_1
 62
7
100
AcDbSpline
 70
8
 71
3
 72
8
 73
4
 74
0
 40
0
 40
0
 40
0
 40
0
 40
1
 40
1
 40
1
 40
1
 10
-238.735291
 20
88.036569
 30
0.0
 10
-241.066343
 20
88.036569
 30
0.0
 10
-242.956034
 20
89.926261
 30
0.0
 10
-242.956034
 20
92.257313
 30
0.0
  0
SPLINE
  5
24f
100
AcDbEntity
  8
Camada_1
 62
7
100
AcDbSpline
 70
8
 71
3
 72
8
 73
4
 74
0
 40
0
 40
0
 40
0
 40
0
 40
1
 40
1
 40
1
 40
1
 10
-242.956034
 20
92.257313
 30
0.0
 10
-242.956034
 20
94.588365
 30
0.0
 10
-241.066343
 20
96.478055
 30
0.0
 10
-238.735291
 20
96.478056
 30
0.0
  0
SPLINE
  5
250
100
AcDbEntity
  8
Camada_1
 62
7
100
AcDbSpline
 70
8
 71
3
 72
8
 73
4
 74
0
 40
0
 40
0
 40
0
 40
0
 40
1
 40
1
 40
1
 40
1
 10
-238.735291
 20
96.478056
 30
0.0
 10
-236.404239
 20
96.478055
 30
0.0
 10
-234.514549
 20
94.588365
 30
0.0
 10
-234.514548
 20
92.257313
 30
0.0
  0
LWPOLYLINE
  5
251
100
AcDbEntity
  8
Camada_1
 62
7
100
AcDbPolyline
 90
1
 70
1
 10
-231.828467
 20
92.257313
 30
0.0
  0
SPLINE
  5
252
100
AcDbEntity
  8
Camada_1
 62
7
100
AcDbSpline
 70
8
 71
3
 72
8
 73
4
 74
0
 40
0
 40
0
 40
0
 40
0
 40
1
 40
1
 40
1
 40
1
 10
-290.885202
 20
-113.518435
 30
0.0
 10
-290.885202
 20
-115.350239
 30
0.0
 10
-291.612883
 20
-117.107017
 30
0.0
 10
-292.908164
 20
-118.402298
 30
0.0
  0
SPLINE
  5
253
100
AcDbEntity
  8
Camada_1
 62
7
100
AcDbSpline
 70
8
 71
3
 72
8
 73
4
 74
0
 40
0
 40
0
 40
0
 40
0
 40
1
 40
1
 40
1
 40
1
 10
-292.908164
 20
-118.402298
 30
0.0
 10
-294.203445
 20
-119.697579
 30
0.0
 10
-295.960223
 20
-120.425260
 30
0.0
 10
-297.792027
 20
-120.425259
 30
0.0
  0
SPLINE
  5
254
100
AcDbEntity
  8
Camada_1
 62
7
100
AcDbSpline
 70
8
 71
3
 72
8
 73
4
 74
0
 40
0
 40
0
 40
0
 40
0
 40
1
 40
1
 40
1
 40
1
 10
-297.792027
 20
-120.425259
 30
0.0
 10
-301.606558
 20
-120.425257
 30
0.0
 10
-304.698845
 20
-117.332967
 30
0.0
 10
-304.698845
 20
-113.518435
 30
0.0
  0
SPLINE
  5
255
100
AcDbEntity
  8
Camada_1
 62
7
100
AcDbSpline
 70
8
 71
3
 72
8
 73
4
 74
0
 40
0
 40
0
 40
0
 40
0
 40
1
 40
1
 40
1
 40
1
 10
-304.698845
 20
-113.518435
 30
0.0
 10
-304.698842
 20
-109.703906
 30
0.0
 10
-301.606556
 20
-106.611620
 30
0.0
 10
-297.792027
 20
-106.611617
 30
0.0
  0
SPLINE
  5
256
100
AcDbEntity
  8
Camada_1
 62
7
100
AcDbSpline
 70
8
 71
3
 72
8
 73
4
 74
0
 40
0
 40
0
 40
0
 40
0
 40
1
 40
1
 40
1
 40
1
 10
-297.792027
 20
-106.611617
 30
0.0
 10
-293.977495
 20
-106.611617
 30
0.0
 10
-290.885205
 20
-109.703904
 30
0.0
 10
-290.885202
 20
-113.518435
 30
0.0
  0
LWPOLYLINE
  5
257
100
AcDbEntity
  8
Camada_1
 62
7
100
AcDbPolyline
 90
1
 70
1
 10
-234.514548
 20
92.257313
 30
0.0
  0
SPLINE
  5
258
100
AcDbEntity
  8
Camada_1
 62
7
100
AcDbSpline
 70
8
 71
3
 72
8
 73
4
 74
0
 40
0
 40
0
 40
0
 40
0
 40
1
 40
1
 40
1
 40
1
 10
-293.571278
 20
-113.518435
 30
0.0
 10
-293.571277
 20
-114.637848
 30
0.0
 10
-294.015961
 20
-115.711413
 30
0.0
 10
-294.807505
 20
-116.502957
 30
0.0
  0
SPLINE
  5
259
100
AcDbEntity
  8
Camada_1
 62
7
100
AcDbSpline
 70
8
 71
3
 72
8
 73
4
 74
0
 40
0
 40
0
 40
0
 40
0
 40
1
 40
1
 40
1
 40
1
 10
-294.807505
 20
-116.502957
 30
0.0
 10
-295.599049
 20
-117.294501
 30
0.0
 10
-296.672614
 20
-117.739185
 30
0.0
 10
-297.792027
 20
-117.739184
 30
0.0
  0
SPLINE
  5
25a
100
AcDbEntity
  8
Camada_1
 62
7
100
AcDbSpline
 70
8
 71
3
 72
8
 73
4
 74
0
 40
0
 40
0
 40
0
 40
0
 40
1
 40
1
 40
1
 40
1
 10
-297.792027
 20
-117.739184
 30
0.0
 10
-298.911438
 20
-117.739184
 30
0.0
 10
-299.985001
 20
-117.294499
 30
0.0
 10
-300.776544
 20
-116.502955
 30
0.0
  0
SPLINE
  5
25b
100
AcDbEntity
  8
Camada_1
 62
7
100
AcDbSpline
 70
8
 71
3
 72
8
 73
4
 74
0
 40
0
 40
0
 40
0
 40
0
 40
1
 40
1
 40
1
 40
1
 10
-300.776544
 20
-116.502955
 30
0.0
 10
-301.568087
 20
-115.711411
 30
0.0
 10
-302.012771
 20
-114.637847
 30
0.0
 10
-302.012769
 20
-113.518435
 30
0.0
  0
SPLINE
  5
25c
100
AcDbEntity
  8
Camada_1
 62
7
100
AcDbSpline
 70
8
 71
3
 72
8
 73
4
 74
0
 40
0
 40
0
 40
0
 40
0
 40
1
 40
1
 40
1
 40
1
 10
-302.012769
 20
-113.518435
 30
0.0
 10
-302.012769
 20
-111.187384
 30
0.0
 10
-300.123078
 20
-109.297693
 30
0.0
 10
-297.792027
 20
-109.297693
 30
0.0
  0
SPLINE
  5
25d
100
AcDbEntity
  8
Camada_1
 62
7
100
AcDbSpline
 70
8
 71
3
 72
8
 73
4
 74
0
 40
0
 40
0
 40
0
 40
0
 40
1
 40
1
 40
1
 40
1
 10
-297.792027
 20
-109.297693
 30
0.0
 10
-296.672615
 20
-109.297691
 30
0.0
 10
-295.599051
 20
-109.742375
 30
0.0
 10
-294.807507
 20
-110.533918
 30
0.0
  0
SPLINE
  5
25e
100
AcDbEntity
  8
Camada_1
 62
7
100
AcDbSpline
 70
8
 71
3
 72
8
 73
4
 74
0
 40
0
 40
0
 40
0
 40
0
 40
1
 40
1
 40
1
 40
1
 10
-294.807507
 20
-110.533918
 30
0.0
 10
-294.015963
 20
-111.325461
 30
0.0
 10
-293.571278
 20
-112.399024
 30
0.0
 10
-293.571278
 20
-113.518435
 30
0.0
  0
LWPOLYLINE
  5
25f
100
AcDbEntity
  8
Camada_1
 62
7
100
AcDbPolyline
 90
1
 70
1
 10
-290.885202
 20
-113.518435
 30
0.0
  0
SPLINE
  5
260
100
AcDbEntity
  8
Camada_1
 62
7
100
AcDbSpline
 70
8
 71
3
 72
8
 73
4
 74
0
 40
0
 40
0
 40
0
 40
0
 40
1
 40
1
 40
1
 40
1
 10
-223.831232
 20
-113.723486
 30
0.0
 10
-223.831232
 20
-117.538017
 30
0.0
 10
-226.923519
 20
-120.630307
 30
0.0
 10
-230.738051
 20
-120.630310
 30
0.0
  0
SPLINE
  5
261
100
AcDbEntity
  8
Camada_1
 62
7
100
AcDbSpline
 70
8
 71
3
 72
8
 73
4
 74
0
 40
0
 40
0
 40
0
 40
0
 40
1
 40
1
 40
1
 40
1
 10
-230.738051
 20
-120.630310
 30
0.0
 10
-232.569854
 20
-120.630310
 30
0.0
 10
-234.326632
 20
-119.902629
 30
0.0
 10
-235.621913
 20
-118.607348
 30
0.0
  0
SPLINE
  5
262
100
AcDbEntity
  8
Camada_1
 62
7
100
AcDbSpline
 70
8
 71
3
 72
8
 73
4
 74
0
 40
0
 40
0
 40
0
 40
0
 40
1
 40
1
 40
1
 40
1
 10
-235.621913
 20
-118.607348
 30
0.0
 10
-236.917194
 20
-117.312067
 30
0.0
 10
-237.644875
 20
-115.555289
 30
0.0
 10
-237.644875
 20
-113.723486
 30
0.0
  0
SPLINE
  5
263
100
AcDbEntity
  8
Camada_1
 62
7
100
AcDbSpline
 70
8
 71
3
 72
8
 73
4
 74
0
 40
0
 40
0
 40
0
 40
0
 40
1
 40
1
 40
1
 40
1
 10
-237.644875
 20
-113.723486
 30
0.0
 10
-237.644875
 20
-111.891682
 30
0.0
 10
-236.917194
 20
-110.134904
 30
0.0
 10
-235.621913
 20
-108.839623
 30
0.0
  0
SPLINE
  5
264
100
AcDbEntity
  8
Camada_1
 62
7
100
AcDbSpline
 70
8
 71
3
 72
8
 73
4
 74
0
 40
0
 40
0
 40
0
 40
0
 40
1
 40
1
 40
1
 40
1
 10
-235.621913
 20
-108.839623
 30
0.0
 10
-234.326632
 20
-107.544342
 30
0.0
 10
-232.569854
 20
-106.816661
 30
0.0
 10
-230.738051
 20
-106.816662
 30
0.0
  0
SPLINE
  5
265
100
AcDbEntity
  8
Camada_1
 62
7
100
AcDbSpline
 70
8
 71
3
 72
8
 73
4
 74
0
 40
0
 40
0
 40
0
 40
0
 40
1
 40
1
 40
1
 40
1
 10
-230.738051
 20
-106.816662
 30
0.0
 10
-226.923519
 20
-106.816664
 30
0.0
 10
-223.831232
 20
-109.908954
 30
0.0
 10
-223.831232
 20
-113.723486
 30
0.0
  0
LWPOLYLINE
  5
266
100
AcDbEntity
  8
Camada_1
 62
7
100
AcDbPolyline
 90
1
 70
1
 10
-293.571278
 20
-113.518435
 30
0.0
  0
SPLINE
  5
267
100
AcDbEntity
  8
Camada_1
 62
7
100
AcDbSpline
 70
8
 71
3
 72
8
 73
4
 74
0
 40
0
 40
0
 40
0
 40
0
 40
1
 40
1
 40
1
 40
1
 10
-226.517308
 20
-113.723486
 30
0.0
 10
-226.517308
 20
-116.054537
 30
0.0
 10
-228.406999
 20
-117.944228
 30
0.0
 10
-230.738051
 20
-117.944228
 30
0.0
  0
SPLINE
  5
268
100
AcDbEntity
  8
Camada_1
 62
7
100
AcDbSpline
 70
8
 71
3
 72
8
 73
4
 74
0
 40
0
 40
0
 40
0
 40
0
 40
1
 40
1
 40
1
 40
1
 10
-230.738051
 20
-117.944228
 30
0.0
 10
-233.069102
 20
-117.944228
 30
0.0
 10
-234.958793
 20
-116.054537
 30
0.0
 10
-234.958794
 20
-113.723486
 30
0.0
  0
SPLINE
  5
269
100
AcDbEntity
  8
Camada_1
 62
7
100
AcDbSpline
 70
8
 71
3
 72
8
 73
4
 74
0
 40
0
 40
0
 40
0
 40
0
 40
1
 40
1
 40
1
 40
1
 10
-234.958794
 20
-113.723486
 30
0.0
 10
-234.958793
 20
-111.392434
 30
0.0
 10
-233.069102
 20
-109.502743
 30
0.0
 10
-230.738051
 20
-109.502743
 30
0.0
  0
SPLINE
  5
26a
100
AcDbEntity
  8
Camada_1
 62
7
100
AcDbSpline
 70
8
 71
3
 72
8
 73
4
 74
0
 40
0
 40
0
 40
0
 40
0
 40
1
 40
1
 40
1
 40
1
 10
-230.738051
 20
-109.502743
 30
0.0
 10
-228.406999
 20
-109.502743
 30
0.0
 10
-226.517308
 20
-111.392434
 30
0.0
 10
-226.517308
 20
-113.723486
 30
0.0
  0
LWPOLYLINE
  5
26b
100
AcDbEntity
  8
Camada_1
 62
7
100
AcDbPolyline
 90
1
 70
1
 10
-223.831232
 20
-113.723486
 30
0.0
  0
SPLINE
  5
26c
100
AcDbEntity
  8
Camada_1
 62
7
100
AcDbSpline
 70
8
 71
3
 72
8
 73
4
 74
0
 40
0
 40
0
 40
0
 40
0
 40
1
 40
1
 40
1
 40
1
 10
73.797231
 20
234.968857
 30
0.0
 10
73.797231
 20
232.919514
 30
0.0
 10
72.983132
 20
230.954107
 30
0.0
 10
71.534027
 20
229.505003
 30
0.0
  0
SPLINE
  5
26d
100
AcDbEntity
  8
Camada_1
 62
7
100
AcDbSpline
 70
8
 71
3
 72
8
 73
4
 74
0
 40
0
 40
0
 40
0
 40
0
 40
1
 40
1
 40
1
 40
1
 10
71.534027
 20
229.505003
 30
0.0
 10
70.084922
 20
228.055899
 30
0.0
 10
68.119514
 20
227.241802
 30
0.0
 10
66.070171
 20
227.241803
 30
0.0
  0
SPLINE
  5
26e
100
AcDbEntity
  8
Camada_1
 62
7
100
AcDbSpline
 70
8
 71
3
 72
8
 73
4
 74
0
 40
0
 40
0
 40
0
 40
0
 40
1
 40
1
 40
1
 40
1
 10
66.070171
 20
227.241803
 30
0.0
 10
61.802636
 20
227.241803
 30
0.0
 10
58.343117
 20
230.701323
 30
0.0
 10
58.343116
 20
234.968857
 30
0.0
  0
SPLINE
  5
26f
100
AcDbEntity
  8
Camada_1
 62
7
100
AcDbSpline
 70
8
 71
3
 72
8
 73
4
 74
0
 40
0
 40
0
 40
0
 40
0
 40
1
 40
1
 40
1
 40
1
 10
58.343116
 20
234.968857
 30
0.0
 10
58.343117
 20
239.236391
 30
0.0
 10
61.802636
 20
242.695911
 30
0.0
 10
66.070171
 20
242.695912
 30
0.0
  0
SPLINE
  5
270
100
AcDbEntity
  8
Camada_1
 62
7
100
AcDbSpline
 70
8
 71
3
 72
8
 73
4
 74
0
 40
0
 40
0
 40
0
 40
0
 40
1
 40
1
 40
1
 40
1
 10
66.070171
 20
242.695912
 30
0.0
 10
68.119514
 20
242.695913
 30
0.0
 10
70.084922
 20
241.881816
 30
0.0
 10
71.534027
 20
240.432712
 30
0.0
  0
SPLINE
  5
271
100
AcDbEntity
  8
Camada_1
 62
7
100
AcDbSpline
 70
8
 71
3
 72
8
 73
4
 74
0
 40
0
 40
0
 40
0
 40
0
 40
1
 40
1
 40
1
 40
1
 10
71.534027
 20
240.432712
 30
0.0
 10
72.983132
 20
238.983608
 30
0.0
 10
73.797231
 20
237.018200
 30
0.0
 10
73.797231
 20
234.968857
 30
0.0
  0
LWPOLYLINE
  5
272
100
AcDbEntity
  8
Camada_1
 62
7
100
AcDbPolyline
 90
1
 70
1
 10
-226.517308
 20
-113.723486
 30
0.0
  0
SPLINE
  5
273
100
AcDbEntity
  8
Camada_1
 62
7
100
AcDbSpline
 70
8
 71
3
 72
8
 73
4
 74
0
 40
0
 40
0
 40
0
 40
0
 40
1
 40
1
 40
1
 40
1
 10
70.792158
 20
234.968857
 30
0.0
 10
70.792159
 20
233.716508
 30
0.0
 10
70.294665
 20
232.515452
 30
0.0
 10
69.409121
 20
231.629907
 30
0.0
  0
SPLINE
  5
274
100
AcDbEntity
  8
Camada_1
 62
7
100
AcDbSpline
 70
8
 71
3
 72
8
 73
4
 74
0
 40
0
 40
0
 40
0
 40
0
 40
1
 40
1
 40
1
 40
1
 10
69.409121
 20
231.629907
 30
0.0
 10
68.523576
 20
230.744362
 30
0.0
 10
67.322520
 20
230.246869
 30
0.0
 10
66.070171
 20
230.246869
 30
0.0
  0
SPLINE
  5
275
100
AcDbEntity
  8
Camada_1
 62
7
100
AcDbSpline
 70
8
 71
3
 72
8
 73
4
 74
0
 40
0
 40
0
 40
0
 40
0
 40
1
 40
1
 40
1
 40
1
 10
66.070171
 20
230.246869
 30
0.0
 10
63.462291
 20
230.246872
 30
0.0
 10
61.348187
 20
232.360977
 30
0.0
 10
61.348189
 20
234.968857
 30
0.0
  0
SPLINE
  5
276
100
AcDbEntity
  8
Camada_1
 62
7
100
AcDbSpline
 70
8
 71
3
 72
8
 73
4
 74
0
 40
0
 40
0
 40
0
 40
0
 40
1
 40
1
 40
1
 40
1
 10
61.348189
 20
234.968857
 30
0.0
 10
61.348187
 20
237.576737
 30
0.0
 10
63.462291
 20
239.690843
 30
0.0
 10
66.070171
 20
239.690845
 30
0.0
  0
SPLINE
  5
277
100
AcDbEntity
  8
Camada_1
 62
7
100
AcDbSpline
 70
8
 71
3
 72
8
 73
4
 74
0
 40
0
 40
0
 40
0
 40
0
 40
1
 40
1
 40
1
 40
1
 10
66.070171
 20
239.690845
 30
0.0
 10
67.322520
 20
239.690846
 30
0.0
 10
68.523576
 20
239.193352
 30
0.0
 10
69.409121
 20
238.307807
 30
0.0
  0
SPLINE
  5
278
100
AcDbEntity
  8
Camada_1
 62
7
100
AcDbSpline
 70
8
 71
3
 72
8
 73
4
 74
0
 40
0
 40
0
 40
0
 40
0
 40
1
 40
1
 40
1
 40
1
 10
69.409121
 20
238.307807
 30
0.0
 10
70.294665
 20
237.422263
 30
0.0
 10
70.792159
 20
236.221206
 30
0.0
 10
70.792158
 20
234.968857
 30
0.0
  0
LWPOLYLINE
  5
279
100
AcDbEntity
  8
Camada_1
 62
7
100
AcDbPolyline
 90
1
 70
1
 10
73.797231
 20
234.968857
 30
0.0
  0
SPLINE
  5
27a
100
AcDbEntity
  8
Camada_1
 62
7
100
AcDbSpline
 70
8
 71
3
 72
8
 73
4
 74
0
 40
0
 40
0
 40
0
 40
0
 40
1
 40
1
 40
1
 40
1
 10
217.877755
 20
279.693689
 30
0.0
 10
217.877756
 20
277.644345
 30
0.0
 10
217.063658
 20
275.678937
 30
0.0
 10
215.614554
 20
274.229832
 30
0.0
  0
SPLINE
  5
27b
100
AcDbEntity
  8
Camada_1
 62
7
100
AcDbSpline
 70
8
 71
3
 72
8
 73
4
 74
0
 40
0
 40
0
 40
0
 40
0
 40
1
 40
1
 40
1
 40
1
 10
215.614554
 20
274.229832
 30
0.0
 10
214.165450
 20
272.780727
 30
0.0
 10
212.200043
 20
271.966628
 30
0.0
 10
210.150699
 20
271.966629
 30
0.0
  0
SPLINE
  5
27c
100
AcDbEntity
  8
Camada_1
 62
7
100
AcDbSpline
 70
8
 71
3
 72
8
 73
4
 74
0
 40
0
 40
0
 40
0
 40
0
 40
1
 40
1
 40
1
 40
1
 10
210.150699
 20
271.966629
 30
0.0
 10
208.101356
 20
271.966629
 30
0.0
 10
206.135948
 20
272.780727
 30
0.0
 10
204.686844
 20
274.229832
 30
0.0
  0
SPLINE
  5
27d
100
AcDbEntity
  8
Camada_1
 62
7
100
AcDbSpline
 70
8
 71
3
 72
8
 73
4
 74
0
 40
0
 40
0
 40
0
 40
0
 40
1
 40
1
 40
1
 40
1
 10
204.686844
 20
274.229832
 30
0.0
 10
203.237740
 20
275.678937
 30
0.0
 10
202.423643
 20
277.644345
 30
0.0
 10
202.423644
 20
279.693689
 30
0.0
  0
SPLINE
  5
27e
100
AcDbEntity
  8
Camada_1
 62
7
100
AcDbSpline
 70
8
 71
3
 72
8
 73
4
 74
0
 40
0
 40
0
 40
0
 40
0
 40
1
 40
1
 40
1
 40
1
 10
202.423644
 20
279.693689
 30
0.0
 10
202.423645
 20
283.961223
 30
0.0
 10
205.883165
 20
287.420743
 30
0.0
 10
210.150699
 20
287.420743
 30
0.0
  0
SPLINE
  5
27f
100
AcDbEntity
  8
Camada_1
 62
7
100
AcDbSpline
 70
8
 71
3
 72
8
 73
4
 74
0
 40
0
 40
0
 40
0
 40
0
 40
1
 40
1
 40
1
 40
1
 10
210.150699
 20
287.420743
 30
0.0
 10
214.418234
 20
287.420743
 30
0.0
 10
217.877754
 20
283.961223
 30
0.0
 10
217.877755
 20
279.693689
 30
0.0
  0
LWPOLYLINE
  5
280
100
AcDbEntity
  8
Camada_1
 62
7
100
AcDbPolyline
 90
1
 70
1
 10
70.792158
 20
234.968857
 30
0.0
  0
SPLINE
  5
281
100
AcDbEntity
  8
Camada_1
 62
7
100
AcDbSpline
 70
8
 71
3
 72
8
 73
4
 74
0
 40
0
 40
0
 40
0
 40
0
 40
1
 40
1
 40
1
 40
1
 10
214.872685
 20
279.693689
 30
0.0
 10
214.872686
 20
278.441340
 30
0.0
 10
214.375192
 20
277.240284
 30
0.0
 10
213.489648
 20
276.354739
 30
0.0
  0
SPLINE
  5
282
100
AcDbEntity
  8
Camada_1
 62
7
100
AcDbSpline
 70
8
 71
3
 72
8
 73
4
 74
0
 40
0
 40
0
 40
0
 40
0
 40
1
 40
1
 40
1
 40
1
 10
213.489648
 20
276.354739
 30
0.0
 10
212.604104
 20
275.469195
 30
0.0
 10
211.403048
 20
274.971701
 30
0.0
 10
210.150699
 20
274.971701
 30
0.0
  0
SPLINE
  5
283
100
AcDbEntity
  8
Camada_1
 62
7
100
AcDbSpline
 70
8
 71
3
 72
8
 73
4
 74
0
 40
0
 40
0
 40
0
 40
0
 40
1
 40
1
 40
1
 40
1
 10
210.150699
 20
274.971701
 30
0.0
 10
208.898350
 20
274.971701
 30
0.0
 10
207.697295
 20
275.469195
 30
0.0
 10
206.811750
 20
276.354739
 30
0.0
  0
SPLINE
  5
284
100
AcDbEntity
  8
Camada_1
 62
7
100
AcDbSpline
 70
8
 71
3
 72
8
 73
4
 74
0
 40
0
 40
0
 40
0
 40
0
 40
1
 40
1
 40
1
 40
1
 10
206.811750
 20
276.354739
 30
0.0
 10
205.926206
 20
277.240284
 30
0.0
 10
205.428713
 20
278.441340
 30
0.0
 10
205.428714
 20
279.693689
 30
0.0
  0
SPLINE
  5
285
100
AcDbEntity
  8
Camada_1
 62
7
100
AcDbSpline
 70
8
 71
3
 72
8
 73
4
 74
0
 40
0
 40
0
 40
0
 40
0
 40
1
 40
1
 40
1
 40
1
 10
205.428714
 20
279.693689
 30
0.0
 10
205.428716
 20
282.301568
 30
0.0
 10
207.542820
 20
284.415671
 30
0.0
 10
210.150699
 20
284.415671
 30
0.0
  0
SPLINE
  5
286
100
AcDbEntity
  8
Camada_1
 62
7
100
AcDbSpline
 70
8
 71
3
 72
8
 73
4
 74
0
 40
0
 40
0
 40
0
 40
0
 40
1
 40
1
 40
1
 40
1
 10
210.150699
 20
284.415671
 30
0.0
 10
212.758579
 20
284.415671
 30
0.0
 10
214.872683
 20
282.301568
 30
0.0
 10
214.872685
 20
279.693689
 30
0.0
  0
LWPOLYLINE
  5
287
100
AcDbEntity
  8
Camada_1
 62
7
100
AcDbPolyline
 90
1
 70
1
 10
217.877755
 20
279.693689
 30
0.0
  0
LWPOLYLINE
  5
288
100
AcDbEntity
  8
Camada_1
 62
7
100
AcDbPolyline
 90
1
 70
1
 10
214.872685
 20
279.693689
 30
0.0
  0
ENDSEC
  0
SECTION
  2
OBJECTS
  0
DICTIONARY
  5
C
330
0
100
AcDbDictionary
  3
ACAD_GROUP
350
D
  3
ACAD_MLINESTYLE
350
17
  0
DICTIONARY
  5
D
330
C
100
AcDbDictionary
  0
DICTIONARY
  5
1A
330
C
100
AcDbDictionary
  0
DICTIONARY
  5
17
330
C
100
AcDbDictionary
  3
STANDARD
350
18
  0
DICTIONARY
  5
19
330
C
100
AcDbDictionary
  0
ENDSEC
  0
EOF
