%TF.GenerationSoftware,KiCad,Pcbnew,9.0.0*%
%TF.CreationDate,2025-05-13T00:13:43-03:00*%
%TF.ProjectId,EcoMaua_Rx_Telemetry_Module,45636f4d-6175-4615-9f52-785f54656c65,rev?*%
%TF.SameCoordinates,Original*%
%TF.FileFunction,Copper,L2,Bot*%
%TF.FilePolarity,Positive*%
%FSLAX46Y46*%
G04 Gerber Fmt 4.6, Leading zero omitted, Abs format (unit mm)*
G04 Created by KiCad (PCBNEW 9.0.0) date 2025-05-13 00:13:43*
%MOMM*%
%LPD*%
G01*
G04 APERTURE LIST*
G04 Aperture macros list*
%AMRoundRect*
0 Rectangle with rounded corners*
0 $1 Rounding radius*
0 $2 $3 $4 $5 $6 $7 $8 $9 X,Y pos of 4 corners*
0 Add a 4 corners polygon primitive as box body*
4,1,4,$2,$3,$4,$5,$6,$7,$8,$9,$2,$3,0*
0 Add four circle primitives for the rounded corners*
1,1,$1+$1,$2,$3*
1,1,$1+$1,$4,$5*
1,1,$1+$1,$6,$7*
1,1,$1+$1,$8,$9*
0 Add four rect primitives between the rounded corners*
20,1,$1+$1,$2,$3,$4,$5,0*
20,1,$1+$1,$4,$5,$6,$7,0*
20,1,$1+$1,$6,$7,$8,$9,0*
20,1,$1+$1,$8,$9,$2,$3,0*%
G04 Aperture macros list end*
%TA.AperFunction,ComponentPad*%
%ADD10RoundRect,0.425000X-0.425000X-0.425000X0.425000X-0.425000X0.425000X0.425000X-0.425000X0.425000X0*%
%TD*%
%TA.AperFunction,ComponentPad*%
%ADD11R,1.700000X1.700000*%
%TD*%
%TA.AperFunction,ComponentPad*%
%ADD12R,3.500000X3.500000*%
%TD*%
%TA.AperFunction,ComponentPad*%
%ADD13RoundRect,0.750000X-0.750000X-1.000000X0.750000X-1.000000X0.750000X1.000000X-0.750000X1.000000X0*%
%TD*%
%TA.AperFunction,ComponentPad*%
%ADD14RoundRect,0.875000X-0.875000X-0.875000X0.875000X-0.875000X0.875000X0.875000X-0.875000X0.875000X0*%
%TD*%
%TA.AperFunction,ComponentPad*%
%ADD15R,3.400000X1.700000*%
%TD*%
%TA.AperFunction,ComponentPad*%
%ADD16O,3.400000X1.700000*%
%TD*%
%TA.AperFunction,ComponentPad*%
%ADD17O,1.700000X1.700000*%
%TD*%
%TA.AperFunction,ComponentPad*%
%ADD18C,1.600000*%
%TD*%
%TA.AperFunction,ComponentPad*%
%ADD19O,1.600000X1.600000*%
%TD*%
%TA.AperFunction,ComponentPad*%
%ADD20R,1.700000X3.400000*%
%TD*%
%TA.AperFunction,ComponentPad*%
%ADD21O,1.700000X3.400000*%
%TD*%
%TA.AperFunction,ComponentPad*%
%ADD22R,6.000000X7.000000*%
%TD*%
%TA.AperFunction,ComponentPad*%
%ADD23R,7.000000X6.000000*%
%TD*%
%TA.AperFunction,ViaPad*%
%ADD24C,2.000000*%
%TD*%
%TA.AperFunction,Conductor*%
%ADD25C,1.000000*%
%TD*%
%TA.AperFunction,Conductor*%
%ADD26C,2.000000*%
%TD*%
G04 APERTURE END LIST*
D10*
%TO.P,U1,1,IN+*%
%TO.N,PWR*%
X74345800Y-103174800D03*
D11*
%TO.P,U1,2,IN-*%
%TO.N,GND*%
X74345800Y-120954800D03*
%TO.P,U1,3,OUT-*%
X113715800Y-120954800D03*
%TO.P,U1,4,OUT+*%
%TO.N,+5V*%
X113715800Y-103174800D03*
%TD*%
D12*
%TO.P,J1,1*%
%TO.N,PWR*%
X86975200Y-91244500D03*
D13*
%TO.P,J1,2*%
%TO.N,GND*%
X80975200Y-91244500D03*
D14*
%TO.P,J1,3,MountPin*%
X83975200Y-95944500D03*
%TD*%
D15*
%TO.P,M1,1,M0*%
%TO.N,E32_433T30D_M0*%
X123634500Y-104444800D03*
D16*
%TO.P,M1,2,M1*%
%TO.N,E32_433T30D_M1*%
X123634500Y-106984800D03*
%TO.P,M1,3,RXD*%
%TO.N,ESP32_UART_2_TX*%
X123634500Y-109524800D03*
%TO.P,M1,4,TXD*%
%TO.N,ESP32_UART_2_RX*%
X123634500Y-112064800D03*
%TO.P,M1,5,AUX*%
%TO.N,E32_433T30D_AUX*%
X123634500Y-114604800D03*
%TO.P,M1,6,VCC*%
%TO.N,+3.3V*%
X123634500Y-117144800D03*
%TO.P,M1,7,GND*%
%TO.N,GND*%
X123634500Y-119684800D03*
%TD*%
D11*
%TO.P,J2,1,Pin_1*%
%TO.N,GND*%
X170434000Y-95656400D03*
D17*
%TO.P,J2,2,Pin_2*%
%TO.N,+3.3V*%
X170434000Y-93116400D03*
%TO.P,J2,3,Pin_3*%
%TO.N,ESP32_I2C_SDA*%
X170434000Y-90576400D03*
%TO.P,J2,4,Pin_4*%
%TO.N,ESP32_I2C_SCL*%
X170434000Y-88036400D03*
%TD*%
D18*
%TO.P,R1,1*%
%TO.N,BATT_SENS*%
X172974000Y-69018800D03*
D19*
%TO.P,R1,2*%
%TO.N,B+*%
X172974000Y-79178800D03*
%TD*%
D20*
%TO.P,ESP1,1,VIN_3.3V*%
%TO.N,+3.3V*%
X146304000Y-54381400D03*
D21*
%TO.P,ESP1,2,EN*%
%TO.N,unconnected-(ESP1-EN-Pad2)*%
X143764000Y-54381400D03*
%TO.P,ESP1,3,SVP*%
%TO.N,unconnected-(ESP1-SVP-Pad3)*%
X141224000Y-54381400D03*
%TO.P,ESP1,4,SVN*%
%TO.N,unconnected-(ESP1-SVN-Pad4)*%
X138684000Y-54381400D03*
%TO.P,ESP1,5,P34*%
%TO.N,BATT_SENS*%
X136144000Y-54381400D03*
%TO.P,ESP1,6,P35*%
%TO.N,unconnected-(ESP1-P35-Pad6)*%
X133604000Y-54381400D03*
%TO.P,ESP1,7,P32*%
%TO.N,E32_433T30D_M0*%
X131064000Y-54381400D03*
%TO.P,ESP1,8,P33*%
%TO.N,E32_433T30D_M1*%
X128524000Y-54381400D03*
%TO.P,ESP1,9,P25*%
%TO.N,unconnected-(ESP1-P25-Pad9)*%
X125984000Y-54381400D03*
%TO.P,ESP1,10,P26*%
%TO.N,unconnected-(ESP1-P26-Pad10)*%
X123444000Y-54381400D03*
%TO.P,ESP1,11,P27*%
%TO.N,E32_433T30D_AUX*%
X120904000Y-54381400D03*
%TO.P,ESP1,12,P14*%
%TO.N,unconnected-(ESP1-P14-Pad12)*%
X118364000Y-54381400D03*
%TO.P,ESP1,13,P12*%
%TO.N,unconnected-(ESP1-P12-Pad13)*%
X115824000Y-54381400D03*
%TO.P,ESP1,14,GND*%
%TO.N,GND*%
X113284000Y-54381400D03*
%TO.P,ESP1,15,P13*%
%TO.N,unconnected-(ESP1-P13-Pad15)*%
X110744000Y-54381400D03*
%TO.P,ESP1,16,SD2*%
%TO.N,unconnected-(ESP1-SD2-Pad16)*%
X108204000Y-54381400D03*
%TO.P,ESP1,17,SD3*%
%TO.N,unconnected-(ESP1-SD3-Pad17)*%
X105664000Y-54381400D03*
%TO.P,ESP1,18,CMD*%
%TO.N,unconnected-(ESP1-CMD-Pad18)*%
X103124000Y-54381400D03*
%TO.P,ESP1,19,VIN_5V*%
%TO.N,+5V*%
X100584000Y-54381400D03*
%TO.P,ESP1,20*%
%TO.N,N/C*%
X98044000Y-54381400D03*
%TO.P,ESP1,21*%
X98044000Y-81051400D03*
%TO.P,ESP1,22,CLK*%
%TO.N,unconnected-(ESP1-CLK-Pad22)*%
X100584000Y-81051400D03*
%TO.P,ESP1,23,SD0*%
%TO.N,unconnected-(ESP1-SD0-Pad23)*%
X103124000Y-81051400D03*
%TO.P,ESP1,24,SD1*%
%TO.N,unconnected-(ESP1-SD1-Pad24)*%
X105664000Y-81051400D03*
%TO.P,ESP1,25,P15*%
%TO.N,unconnected-(ESP1-P15-Pad25)*%
X108204000Y-81051400D03*
%TO.P,ESP1,26,P2*%
%TO.N,unconnected-(ESP1-P2-Pad26)*%
X110744000Y-81051400D03*
%TO.P,ESP1,27,P0*%
%TO.N,unconnected-(ESP1-P0-Pad27)*%
X113284000Y-81051400D03*
%TO.P,ESP1,28,P4*%
%TO.N,unconnected-(ESP1-P4-Pad28)*%
X115824000Y-81051400D03*
%TO.P,ESP1,29,P16*%
%TO.N,ESP32_UART_2_RX*%
X118364000Y-81051400D03*
%TO.P,ESP1,30,P17*%
%TO.N,ESP32_UART_2_TX*%
X120904000Y-81051400D03*
%TO.P,ESP1,31,P5*%
%TO.N,unconnected-(ESP1-P5-Pad31)*%
X123444000Y-81051400D03*
%TO.P,ESP1,32,P18*%
%TO.N,unconnected-(ESP1-P18-Pad32)*%
X125984000Y-81051400D03*
%TO.P,ESP1,33,P19*%
%TO.N,unconnected-(ESP1-P19-Pad33)*%
X128524000Y-81051400D03*
%TO.P,ESP1,34,GND*%
%TO.N,GND*%
X131064000Y-81051400D03*
%TO.P,ESP1,35,P21*%
%TO.N,ESP32_I2C_SDA*%
X133604000Y-81051400D03*
%TO.P,ESP1,36,RX*%
%TO.N,unconnected-(ESP1-RX-Pad36)*%
X136144000Y-81051400D03*
%TO.P,ESP1,37,TX*%
%TO.N,unconnected-(ESP1-TX-Pad37)*%
X138684000Y-81051400D03*
%TO.P,ESP1,38,P22*%
%TO.N,ESP32_I2C_SCL*%
X141224000Y-81051400D03*
%TO.P,ESP1,39,P23*%
%TO.N,unconnected-(ESP1-P23-Pad39)*%
X143764000Y-81051400D03*
%TO.P,ESP1,40,GND*%
%TO.N,GND*%
X146304000Y-81051400D03*
D22*
%TO.P,ESP1,41,B-*%
%TO.N,B-*%
X163449000Y-67716400D03*
%TO.P,ESP1,42,B+*%
%TO.N,B+*%
X80899000Y-67716400D03*
%TD*%
D18*
%TO.P,R2,1*%
%TO.N,GND*%
X172974000Y-56438800D03*
D19*
%TO.P,R2,2*%
%TO.N,BATT_SENS*%
X172974000Y-66598800D03*
%TD*%
D23*
%TO.P,BAT1,1,B+*%
%TO.N,B+*%
X84481350Y-129463800D03*
%TO.P,BAT1,2,B-*%
%TO.N,B-*%
X84481350Y-46913800D03*
%TD*%
%TO.P,BAT2,1,B1a*%
%TO.N,B+*%
X107769600Y-129463800D03*
%TO.P,BAT2,2,B1b*%
%TO.N,B-*%
X107769600Y-46913800D03*
%TO.P,BAT2,3,B2a*%
%TO.N,B+*%
X127769600Y-129463800D03*
%TO.P,BAT2,4,B2b*%
%TO.N,B-*%
X127769600Y-46913800D03*
%TO.P,BAT2,5,B3a*%
%TO.N,B+*%
X147769600Y-129463800D03*
%TO.P,BAT2,6,B3b*%
%TO.N,B-*%
X147769600Y-46913800D03*
%TO.P,BAT2,7,B4a*%
%TO.N,B+*%
X167769600Y-129463800D03*
%TO.P,BAT2,8,B4b*%
%TO.N,B-*%
X167769600Y-46913800D03*
%TD*%
D24*
%TO.N,B+*%
X80899000Y-74650600D03*
%TO.N,B-*%
X163449000Y-61264800D03*
%TO.N,GND*%
X139903200Y-86207600D03*
%TO.N,B+*%
X175641000Y-123774200D03*
%TO.N,GND*%
X113284000Y-58420000D03*
X153416000Y-58420000D03*
X113157000Y-67691000D03*
%TO.N,E32_433T30D_M1*%
X156083000Y-96139000D03*
X156083000Y-80518000D03*
%TO.N,E32_433T30D_M0*%
X153162000Y-94488000D03*
X153162000Y-77470000D03*
%TO.N,+3.3V*%
X156337000Y-69215000D03*
X162179000Y-93218000D03*
%TD*%
D25*
%TO.N,B+*%
X175641000Y-123774200D02*
X175641000Y-83312000D01*
X175641000Y-83312000D02*
X172974000Y-80645000D01*
X172974000Y-80645000D02*
X172974000Y-79178800D01*
D26*
X80899000Y-67716400D02*
X80899000Y-74650600D01*
%TO.N,B-*%
X163449000Y-67716400D02*
X163449000Y-61264800D01*
D25*
%TO.N,+3.3V*%
X165735000Y-93218000D02*
X165836600Y-93116400D01*
X162179000Y-93218000D02*
X165735000Y-93218000D01*
D26*
%TO.N,+5V*%
X100584000Y-57658000D02*
X100584000Y-54381400D01*
X90297000Y-67945000D02*
X100584000Y-57658000D01*
X109016800Y-103174800D02*
X90297000Y-84455000D01*
X113715800Y-103174800D02*
X109016800Y-103174800D01*
X90297000Y-84455000D02*
X90297000Y-67945000D01*
D25*
%TO.N,E32_433T30D_AUX*%
X119303800Y-114604800D02*
X123634500Y-114604800D01*
X117424200Y-112725200D02*
X119303800Y-114604800D01*
X117424200Y-100914200D02*
X117424200Y-112725200D01*
X102539800Y-86029800D02*
X117424200Y-100914200D01*
X115316000Y-63754000D02*
X105156000Y-63754000D01*
X120904000Y-58166000D02*
X115316000Y-63754000D01*
X94615000Y-74295000D02*
X94615000Y-82804000D01*
X105156000Y-63754000D02*
X94615000Y-74295000D01*
X120904000Y-54381400D02*
X120904000Y-58166000D01*
X94615000Y-82804000D02*
X97840800Y-86029800D01*
X97840800Y-86029800D02*
X102539800Y-86029800D01*
%TO.N,ESP32_UART_2_TX*%
X120523000Y-84531200D02*
X120904000Y-84150200D01*
X121589800Y-109524800D02*
X120523000Y-108458000D01*
X120523000Y-108458000D02*
X120523000Y-84531200D01*
X120904000Y-84150200D02*
X120904000Y-81051400D01*
X123634500Y-109524800D02*
X121589800Y-109524800D01*
%TO.N,ESP32_UART_2_RX*%
X118364000Y-84023200D02*
X118364000Y-81051400D01*
X118973600Y-84632800D02*
X118364000Y-84023200D01*
X120192800Y-112064800D02*
X118973600Y-110845600D01*
X118973600Y-110845600D02*
X118973600Y-84632800D01*
X123634500Y-112064800D02*
X120192800Y-112064800D01*
%TO.N,GND*%
X172212000Y-84201000D02*
X173482000Y-85471000D01*
X72136000Y-100584000D02*
X76775500Y-95944500D01*
X146304000Y-81051400D02*
X146304000Y-82296000D01*
X168986200Y-56438800D02*
X172974000Y-56438800D01*
X74345800Y-120954800D02*
X113715800Y-120954800D01*
X173482000Y-94996000D02*
X172821600Y-95656400D01*
X155575000Y-85471000D02*
X156845000Y-84201000D01*
X114985800Y-119684800D02*
X113715800Y-120954800D01*
X156845000Y-84201000D02*
X172212000Y-84201000D01*
X153416000Y-58420000D02*
X167005000Y-58420000D01*
X126492000Y-73533000D02*
X131064000Y-78105000D01*
X173482000Y-85471000D02*
X173482000Y-94996000D01*
X80975200Y-91244500D02*
X80975200Y-92944500D01*
X80975200Y-92944500D02*
X83975200Y-95944500D01*
X146304000Y-81051400D02*
X146304000Y-78359000D01*
X167005000Y-58420000D02*
X168986200Y-56438800D01*
X74345800Y-120954800D02*
X74345800Y-115366800D01*
X146304000Y-78359000D02*
X144780000Y-76835000D01*
X72136000Y-113157000D02*
X72136000Y-100584000D01*
X76775500Y-95944500D02*
X83975200Y-95944500D01*
X131064000Y-78105000D02*
X131064000Y-81051400D01*
X132334000Y-76835000D02*
X131064000Y-78105000D01*
X149479000Y-85471000D02*
X155575000Y-85471000D01*
X123634500Y-119684800D02*
X158191200Y-119684800D01*
X118999000Y-73533000D02*
X126492000Y-73533000D01*
X144780000Y-76835000D02*
X132334000Y-76835000D01*
X172821600Y-95656400D02*
X170434000Y-95656400D01*
X74345800Y-115366800D02*
X72136000Y-113157000D01*
X146304000Y-82296000D02*
X149479000Y-85471000D01*
X123634500Y-119684800D02*
X114985800Y-119684800D01*
X113284000Y-54381400D02*
X113284000Y-58420000D01*
X170434000Y-107442000D02*
X170434000Y-95656400D01*
X113157000Y-67691000D02*
X118999000Y-73533000D01*
X158191200Y-119684800D02*
X170434000Y-107442000D01*
%TO.N,E32_433T30D_M1*%
X128524000Y-58166000D02*
X128524000Y-54381400D01*
X156083000Y-80518000D02*
X150876000Y-80518000D01*
X123634500Y-106984800D02*
X145237200Y-106984800D01*
X150876000Y-80518000D02*
X128524000Y-58166000D01*
X145237200Y-106984800D02*
X156083000Y-96139000D01*
%TO.N,ESP32_UART_2_TX*%
X120523000Y-81432400D02*
X120904000Y-81051400D01*
%TO.N,E32_433T30D_M0*%
X123634500Y-104444800D02*
X143205200Y-104444800D01*
X131064000Y-57150000D02*
X131064000Y-54381400D01*
X143205200Y-104444800D02*
X153162000Y-94488000D01*
X153162000Y-77470000D02*
X151384000Y-77470000D01*
X151384000Y-77470000D02*
X131064000Y-57150000D01*
%TO.N,BATT_SENS*%
X170383200Y-66598800D02*
X168656000Y-68326000D01*
X136144000Y-56388000D02*
X136144000Y-54381400D01*
X168656000Y-68326000D02*
X168656000Y-72390000D01*
X153416000Y-73660000D02*
X136144000Y-56388000D01*
X167386000Y-73660000D02*
X153416000Y-73660000D01*
X172974000Y-66598800D02*
X170383200Y-66598800D01*
X172974000Y-66598800D02*
X172974000Y-69018800D01*
X168656000Y-72390000D02*
X167386000Y-73660000D01*
%TO.N,+3.3V*%
X146507200Y-117144800D02*
X161036000Y-102616000D01*
X162179000Y-96774000D02*
X161036000Y-97917000D01*
X165836600Y-93116400D02*
X170434000Y-93116400D01*
X151003000Y-64008000D02*
X156210000Y-69215000D01*
X161036000Y-102616000D02*
X161036000Y-97917000D01*
X146304000Y-54381400D02*
X146304000Y-59309000D01*
X162179000Y-93218000D02*
X162179000Y-96774000D01*
X123634500Y-117144800D02*
X146507200Y-117144800D01*
X146304000Y-59309000D02*
X151003000Y-64008000D01*
X156210000Y-69215000D02*
X156337000Y-69215000D01*
%TO.N,ESP32_I2C_SCL*%
X146075400Y-88036400D02*
X141224000Y-83185000D01*
X141224000Y-83185000D02*
X141224000Y-81051400D01*
X170434000Y-88036400D02*
X146075400Y-88036400D01*
%TO.N,ESP32_I2C_SDA*%
X170434000Y-90576400D02*
X139725400Y-90576400D01*
X133604000Y-84455000D02*
X133604000Y-81051400D01*
X139725400Y-90576400D02*
X133604000Y-84455000D01*
D26*
%TO.N,PWR*%
X90424000Y-92710000D02*
X90424000Y-100457000D01*
X87706200Y-103174800D02*
X74345800Y-103174800D01*
X88958500Y-91244500D02*
X90424000Y-92710000D01*
X86975200Y-91244500D02*
X88958500Y-91244500D01*
X90424000Y-100457000D02*
X87706200Y-103174800D01*
%TD*%
%TA.AperFunction,Conductor*%
%TO.N,GND*%
G36*
X131314000Y-83228630D02*
G01*
X131380126Y-83218157D01*
X131380129Y-83218157D01*
X131582217Y-83152495D01*
X131771557Y-83056020D01*
X131943459Y-82931127D01*
X131943464Y-82931123D01*
X132093723Y-82780864D01*
X132093727Y-82780859D01*
X132218620Y-82608958D01*
X132223232Y-82599907D01*
X132271205Y-82549109D01*
X132339025Y-82532312D01*
X132405161Y-82554847D01*
X132444204Y-82599904D01*
X132448949Y-82609217D01*
X132576759Y-82785134D01*
X132575888Y-82785766D01*
X132602357Y-82844801D01*
X132603500Y-82861599D01*
X132603500Y-84553544D01*
X132641947Y-84746833D01*
X132641949Y-84746836D01*
X132664038Y-84800165D01*
X132667039Y-84807409D01*
X132717366Y-84928911D01*
X132717371Y-84928920D01*
X132826860Y-85092781D01*
X132826863Y-85092785D01*
X132970537Y-85236459D01*
X132970559Y-85236479D01*
X138945135Y-91211055D01*
X138945164Y-91211086D01*
X139087614Y-91353536D01*
X139087618Y-91353539D01*
X139251479Y-91463028D01*
X139251492Y-91463035D01*
X139380233Y-91516361D01*
X139423144Y-91534135D01*
X139433564Y-91538451D01*
X139530212Y-91557675D01*
X139578535Y-91567287D01*
X139626858Y-91576900D01*
X139626859Y-91576900D01*
X139626860Y-91576900D01*
X139823940Y-91576900D01*
X161591162Y-91576900D01*
X161658201Y-91596585D01*
X161703956Y-91649389D01*
X161713900Y-91718547D01*
X161684875Y-91782103D01*
X161629480Y-91818830D01*
X161603008Y-91827432D01*
X161603005Y-91827433D01*
X161392566Y-91934657D01*
X161283550Y-92013862D01*
X161201490Y-92073483D01*
X161201488Y-92073485D01*
X161201487Y-92073485D01*
X161034485Y-92240487D01*
X161034485Y-92240488D01*
X161034483Y-92240490D01*
X160984937Y-92308684D01*
X160895657Y-92431566D01*
X160788433Y-92642003D01*
X160715446Y-92866631D01*
X160678500Y-93099902D01*
X160678500Y-93336097D01*
X160715446Y-93569368D01*
X160788433Y-93793996D01*
X160848564Y-93912008D01*
X160895657Y-94004433D01*
X161034483Y-94195510D01*
X161034485Y-94195512D01*
X161142181Y-94303208D01*
X161175666Y-94364531D01*
X161178500Y-94390889D01*
X161178500Y-96308217D01*
X161158815Y-96375256D01*
X161142181Y-96395898D01*
X160674492Y-96863587D01*
X160398221Y-97139858D01*
X160398218Y-97139861D01*
X160342592Y-97195487D01*
X160258859Y-97279219D01*
X160149371Y-97443079D01*
X160149366Y-97443088D01*
X160104611Y-97551139D01*
X160073950Y-97625159D01*
X160073949Y-97625162D01*
X160073949Y-97625164D01*
X160066894Y-97660632D01*
X160066894Y-97660633D01*
X160035500Y-97818456D01*
X160035500Y-102150218D01*
X160015815Y-102217257D01*
X159999181Y-102237899D01*
X146129099Y-116107981D01*
X146067776Y-116141466D01*
X146041418Y-116144300D01*
X125444700Y-116144300D01*
X125377661Y-116124615D01*
X125365134Y-116115306D01*
X125192320Y-115989751D01*
X125191615Y-115989391D01*
X125183554Y-115985285D01*
X125132759Y-115937312D01*
X125115963Y-115869492D01*
X125138499Y-115803356D01*
X125183554Y-115764315D01*
X125192316Y-115759851D01*
X125214289Y-115743886D01*
X125364286Y-115634909D01*
X125364288Y-115634906D01*
X125364292Y-115634904D01*
X125514604Y-115484592D01*
X125514606Y-115484588D01*
X125514609Y-115484586D01*
X125639548Y-115312620D01*
X125639547Y-115312620D01*
X125639551Y-115312616D01*
X125736057Y-115123212D01*
X125801746Y-114921043D01*
X125835000Y-114711087D01*
X125835000Y-114498513D01*
X125801746Y-114288557D01*
X125736057Y-114086388D01*
X125639551Y-113896984D01*
X125639549Y-113896981D01*
X125639548Y-113896979D01*
X125514609Y-113725013D01*
X125364286Y-113574690D01*
X125192320Y-113449751D01*
X125191615Y-113449391D01*
X125183554Y-113445285D01*
X125132759Y-113397312D01*
X125115963Y-113329492D01*
X125138499Y-113263356D01*
X125183554Y-113224315D01*
X125192316Y-113219851D01*
X125220868Y-113199107D01*
X125364286Y-113094909D01*
X125364288Y-113094906D01*
X125364292Y-113094904D01*
X125514604Y-112944592D01*
X125514606Y-112944588D01*
X125514609Y-112944586D01*
X125639548Y-112772620D01*
X125639547Y-112772620D01*
X125639551Y-112772616D01*
X125736057Y-112583212D01*
X125801746Y-112381043D01*
X125835000Y-112171087D01*
X125835000Y-111958513D01*
X125801746Y-111748557D01*
X125736057Y-111546388D01*
X125639551Y-111356984D01*
X125639549Y-111356981D01*
X125639548Y-111356979D01*
X125514609Y-111185013D01*
X125364286Y-111034690D01*
X125192320Y-110909751D01*
X125191615Y-110909391D01*
X125183554Y-110905285D01*
X125132759Y-110857312D01*
X125115963Y-110789492D01*
X125138499Y-110723356D01*
X125183554Y-110684315D01*
X125192316Y-110679851D01*
X125214289Y-110663886D01*
X125364286Y-110554909D01*
X125364288Y-110554906D01*
X125364292Y-110554904D01*
X125514604Y-110404592D01*
X125514606Y-110404588D01*
X125514609Y-110404586D01*
X125639548Y-110232620D01*
X125639547Y-110232620D01*
X125639551Y-110232616D01*
X125736057Y-110043212D01*
X125801746Y-109841043D01*
X125835000Y-109631087D01*
X125835000Y-109418513D01*
X125801746Y-109208557D01*
X125736057Y-109006388D01*
X125639551Y-108816984D01*
X125639549Y-108816981D01*
X125639548Y-108816979D01*
X125514609Y-108645013D01*
X125364286Y-108494690D01*
X125192320Y-108369751D01*
X125191615Y-108369391D01*
X125183554Y-108365285D01*
X125132759Y-108317312D01*
X125115963Y-108249492D01*
X125138499Y-108183356D01*
X125183554Y-108144315D01*
X125192316Y-108139851D01*
X125207269Y-108128986D01*
X125368234Y-108012041D01*
X125368864Y-108012908D01*
X125427919Y-107986441D01*
X125444700Y-107985300D01*
X145335742Y-107985300D01*
X145366766Y-107979128D01*
X145432388Y-107966075D01*
X145529036Y-107946851D01*
X145582365Y-107924761D01*
X145711114Y-107871432D01*
X145874982Y-107761939D01*
X146014339Y-107622582D01*
X146014339Y-107622580D01*
X146024547Y-107612373D01*
X146024548Y-107612370D01*
X155961102Y-97675819D01*
X156022425Y-97642334D01*
X156048783Y-97639500D01*
X156201097Y-97639500D01*
X156434368Y-97602553D01*
X156658992Y-97529568D01*
X156869433Y-97422343D01*
X157060510Y-97283517D01*
X157227517Y-97116510D01*
X157366343Y-96925433D01*
X157473568Y-96714992D01*
X157546553Y-96490368D01*
X157559215Y-96410425D01*
X157583500Y-96257097D01*
X157583500Y-96020902D01*
X157546553Y-95787631D01*
X157496152Y-95632514D01*
X157473568Y-95563008D01*
X157473566Y-95563005D01*
X157473566Y-95563003D01*
X157366342Y-95352566D01*
X157364037Y-95349393D01*
X157227517Y-95161490D01*
X157060510Y-94994483D01*
X156869433Y-94855657D01*
X156837464Y-94839368D01*
X156658996Y-94748433D01*
X156434368Y-94675446D01*
X156201097Y-94638500D01*
X156201092Y-94638500D01*
X155964908Y-94638500D01*
X155964903Y-94638500D01*
X155731631Y-94675446D01*
X155507003Y-94748433D01*
X155296566Y-94855657D01*
X155203454Y-94923308D01*
X155105490Y-94994483D01*
X155105488Y-94994485D01*
X155105487Y-94994485D01*
X154938485Y-95161487D01*
X154938485Y-95161488D01*
X154938483Y-95161490D01*
X154917424Y-95190475D01*
X154799657Y-95352566D01*
X154692433Y-95563003D01*
X154619446Y-95787631D01*
X154582500Y-96020902D01*
X154582500Y-96173217D01*
X154562815Y-96240256D01*
X154546181Y-96260898D01*
X144859099Y-105947981D01*
X144797776Y-105981466D01*
X144771418Y-105984300D01*
X125605360Y-105984300D01*
X125538321Y-105964615D01*
X125492566Y-105911811D01*
X125482622Y-105842653D01*
X125511647Y-105779097D01*
X125562027Y-105744118D01*
X125576828Y-105738597D01*
X125576827Y-105738597D01*
X125576831Y-105738596D01*
X125692046Y-105652346D01*
X125778296Y-105537131D01*
X125782460Y-105525965D01*
X125824329Y-105470034D01*
X125889793Y-105445616D01*
X125898641Y-105445300D01*
X143303742Y-105445300D01*
X143334766Y-105439128D01*
X143400388Y-105426075D01*
X143497036Y-105406851D01*
X143550365Y-105384761D01*
X143679114Y-105331432D01*
X143842982Y-105221939D01*
X143982339Y-105082582D01*
X143982339Y-105082580D01*
X143992547Y-105072373D01*
X143992548Y-105072370D01*
X153040102Y-96024819D01*
X153101425Y-95991334D01*
X153127783Y-95988500D01*
X153280097Y-95988500D01*
X153513368Y-95951553D01*
X153737992Y-95878568D01*
X153948433Y-95771343D01*
X154139510Y-95632517D01*
X154306517Y-95465510D01*
X154445343Y-95274433D01*
X154552568Y-95063992D01*
X154625553Y-94839368D01*
X154638350Y-94758572D01*
X154662500Y-94606097D01*
X154662500Y-94369902D01*
X154625553Y-94136631D01*
X154579921Y-93996192D01*
X154552568Y-93912008D01*
X154552566Y-93912005D01*
X154552566Y-93912003D01*
X154492436Y-93793992D01*
X154445343Y-93701567D01*
X154306517Y-93510490D01*
X154139510Y-93343483D01*
X153948433Y-93204657D01*
X153737996Y-93097433D01*
X153513368Y-93024446D01*
X153280097Y-92987500D01*
X153280092Y-92987500D01*
X153043908Y-92987500D01*
X153043903Y-92987500D01*
X152810631Y-93024446D01*
X152586003Y-93097433D01*
X152375566Y-93204657D01*
X152266550Y-93283862D01*
X152184490Y-93343483D01*
X152184488Y-93343485D01*
X152184487Y-93343485D01*
X152017485Y-93510487D01*
X152017485Y-93510488D01*
X152017483Y-93510490D01*
X151968174Y-93578358D01*
X151878657Y-93701566D01*
X151771433Y-93912003D01*
X151698446Y-94136631D01*
X151661500Y-94369902D01*
X151661500Y-94522217D01*
X151641815Y-94589256D01*
X151625181Y-94609898D01*
X142827099Y-103407981D01*
X142765776Y-103441466D01*
X142739418Y-103444300D01*
X125898641Y-103444300D01*
X125831602Y-103424615D01*
X125785847Y-103371811D01*
X125782469Y-103363659D01*
X125778296Y-103352469D01*
X125778293Y-103352465D01*
X125778293Y-103352464D01*
X125692047Y-103237255D01*
X125692044Y-103237252D01*
X125576835Y-103151006D01*
X125576828Y-103151002D01*
X125441982Y-103100708D01*
X125441983Y-103100708D01*
X125382383Y-103094301D01*
X125382381Y-103094300D01*
X125382373Y-103094300D01*
X125382364Y-103094300D01*
X121886629Y-103094300D01*
X121886623Y-103094301D01*
X121827015Y-103100709D01*
X121690832Y-103151501D01*
X121621141Y-103156485D01*
X121559818Y-103122999D01*
X121526333Y-103061676D01*
X121523500Y-103035319D01*
X121523500Y-84996983D01*
X121531317Y-84970360D01*
X121535875Y-84942984D01*
X121541805Y-84934640D01*
X121543185Y-84929944D01*
X121555610Y-84913723D01*
X121557662Y-84911457D01*
X121681139Y-84787982D01*
X121708632Y-84746836D01*
X121790632Y-84624114D01*
X121866051Y-84442035D01*
X121886962Y-84336908D01*
X121904500Y-84248743D01*
X121904500Y-82861599D01*
X121924185Y-82794560D01*
X121933471Y-82782064D01*
X122059048Y-82609220D01*
X122059047Y-82609220D01*
X122059051Y-82609216D01*
X122063514Y-82600454D01*
X122111488Y-82549659D01*
X122179308Y-82532863D01*
X122245444Y-82555399D01*
X122284486Y-82600456D01*
X122288951Y-82609220D01*
X122413890Y-82781186D01*
X122564213Y-82931509D01*
X122736179Y-83056448D01*
X122736181Y-83056449D01*
X122736184Y-83056451D01*
X122925588Y-83152957D01*
X123127757Y-83218646D01*
X123337713Y-83251900D01*
X123337714Y-83251900D01*
X123550286Y-83251900D01*
X123550287Y-83251900D01*
X123760243Y-83218646D01*
X123962412Y-83152957D01*
X124151816Y-83056451D01*
X124201761Y-83020164D01*
X124323786Y-82931509D01*
X124323788Y-82931506D01*
X124323792Y-82931504D01*
X124474104Y-82781192D01*
X124474106Y-82781188D01*
X124474109Y-82781186D01*
X124599048Y-82609220D01*
X124599047Y-82609220D01*
X124599051Y-82609216D01*
X124603514Y-82600454D01*
X124651488Y-82549659D01*
X124719308Y-82532863D01*
X124785444Y-82555399D01*
X124824486Y-82600456D01*
X124828951Y-82609220D01*
X124953890Y-82781186D01*
X125104213Y-82931509D01*
X125276179Y-83056448D01*
X125276181Y-83056449D01*
X125276184Y-83056451D01*
X125465588Y-83152957D01*
X125667757Y-83218646D01*
X125877713Y-83251900D01*
X125877714Y-83251900D01*
X126090286Y-83251900D01*
X126090287Y-83251900D01*
X126300243Y-83218646D01*
X126502412Y-83152957D01*
X126691816Y-83056451D01*
X126741761Y-83020164D01*
X126863786Y-82931509D01*
X126863788Y-82931506D01*
X126863792Y-82931504D01*
X127014104Y-82781192D01*
X127014106Y-82781188D01*
X127014109Y-82781186D01*
X127139048Y-82609220D01*
X127139047Y-82609220D01*
X127139051Y-82609216D01*
X127143514Y-82600454D01*
X127191488Y-82549659D01*
X127259308Y-82532863D01*
X127325444Y-82555399D01*
X127364486Y-82600456D01*
X127368951Y-82609220D01*
X127493890Y-82781186D01*
X127644213Y-82931509D01*
X127816179Y-83056448D01*
X127816181Y-83056449D01*
X127816184Y-83056451D01*
X128005588Y-83152957D01*
X128207757Y-83218646D01*
X128417713Y-83251900D01*
X128417714Y-83251900D01*
X128630286Y-83251900D01*
X128630287Y-83251900D01*
X128840243Y-83218646D01*
X129042412Y-83152957D01*
X129231816Y-83056451D01*
X129281761Y-83020164D01*
X129403786Y-82931509D01*
X129403788Y-82931506D01*
X129403792Y-82931504D01*
X129554104Y-82781192D01*
X129554106Y-82781188D01*
X129554109Y-82781186D01*
X129679048Y-82609220D01*
X129679051Y-82609216D01*
X129683793Y-82599908D01*
X129731763Y-82549111D01*
X129799583Y-82532311D01*
X129865719Y-82554845D01*
X129904763Y-82599900D01*
X129909377Y-82608955D01*
X130034272Y-82780859D01*
X130034276Y-82780864D01*
X130184535Y-82931123D01*
X130184540Y-82931127D01*
X130356442Y-83056020D01*
X130545782Y-83152495D01*
X130747871Y-83218157D01*
X130814000Y-83228631D01*
X130814000Y-81484412D01*
X130871007Y-81517325D01*
X130998174Y-81551400D01*
X131129826Y-81551400D01*
X131256993Y-81517325D01*
X131314000Y-81484412D01*
X131314000Y-83228630D01*
G37*
%TD.AperFunction*%
%TA.AperFunction,Conductor*%
G36*
X140025444Y-82555399D02*
G01*
X140064486Y-82600456D01*
X140068951Y-82609220D01*
X140196759Y-82785134D01*
X140195888Y-82785766D01*
X140222357Y-82844801D01*
X140223500Y-82861599D01*
X140223500Y-83283543D01*
X140261947Y-83476828D01*
X140261950Y-83476840D01*
X140276688Y-83512420D01*
X140337364Y-83658907D01*
X140337371Y-83658920D01*
X140446859Y-83822780D01*
X140446860Y-83822781D01*
X140446861Y-83822782D01*
X140586218Y-83962139D01*
X140586219Y-83962139D01*
X140593286Y-83969206D01*
X140593285Y-83969206D01*
X140593289Y-83969209D01*
X145437615Y-88813537D01*
X145437619Y-88813540D01*
X145601479Y-88923028D01*
X145601485Y-88923031D01*
X145601486Y-88923032D01*
X145783565Y-88998452D01*
X145944789Y-89030521D01*
X145976857Y-89036899D01*
X145976858Y-89036900D01*
X145976859Y-89036900D01*
X145976860Y-89036900D01*
X146173941Y-89036900D01*
X169473800Y-89036900D01*
X169540839Y-89056585D01*
X169553365Y-89065893D01*
X169726182Y-89191450D01*
X169734946Y-89195916D01*
X169785742Y-89243891D01*
X169802536Y-89311712D01*
X169779998Y-89377847D01*
X169734946Y-89416884D01*
X169726182Y-89421349D01*
X169550266Y-89549159D01*
X169549635Y-89548291D01*
X169490581Y-89574759D01*
X169473800Y-89575900D01*
X140191182Y-89575900D01*
X140124143Y-89556215D01*
X140103501Y-89539581D01*
X134640819Y-84076899D01*
X134607334Y-84015576D01*
X134604500Y-83989218D01*
X134604500Y-82861599D01*
X134624185Y-82794560D01*
X134633471Y-82782064D01*
X134759048Y-82609220D01*
X134759047Y-82609220D01*
X134759051Y-82609216D01*
X134763514Y-82600454D01*
X134811488Y-82549659D01*
X134879308Y-82532863D01*
X134945444Y-82555399D01*
X134984486Y-82600456D01*
X134988951Y-82609220D01*
X135113890Y-82781186D01*
X135264213Y-82931509D01*
X135436179Y-83056448D01*
X135436181Y-83056449D01*
X135436184Y-83056451D01*
X135625588Y-83152957D01*
X135827757Y-83218646D01*
X136037713Y-83251900D01*
X136037714Y-83251900D01*
X136250286Y-83251900D01*
X136250287Y-83251900D01*
X136460243Y-83218646D01*
X136662412Y-83152957D01*
X136851816Y-83056451D01*
X136901761Y-83020164D01*
X137023786Y-82931509D01*
X137023788Y-82931506D01*
X137023792Y-82931504D01*
X137174104Y-82781192D01*
X137174106Y-82781188D01*
X137174109Y-82781186D01*
X137299048Y-82609220D01*
X137299047Y-82609220D01*
X137299051Y-82609216D01*
X137303514Y-82600454D01*
X137351488Y-82549659D01*
X137419308Y-82532863D01*
X137485444Y-82555399D01*
X137524486Y-82600456D01*
X137528951Y-82609220D01*
X137653890Y-82781186D01*
X137804213Y-82931509D01*
X137976179Y-83056448D01*
X137976181Y-83056449D01*
X137976184Y-83056451D01*
X138165588Y-83152957D01*
X138367757Y-83218646D01*
X138577713Y-83251900D01*
X138577714Y-83251900D01*
X138790286Y-83251900D01*
X138790287Y-83251900D01*
X139000243Y-83218646D01*
X139202412Y-83152957D01*
X139391816Y-83056451D01*
X139441761Y-83020164D01*
X139563786Y-82931509D01*
X139563788Y-82931506D01*
X139563792Y-82931504D01*
X139714104Y-82781192D01*
X139714106Y-82781188D01*
X139714109Y-82781186D01*
X139839048Y-82609220D01*
X139839047Y-82609220D01*
X139839051Y-82609216D01*
X139843514Y-82600454D01*
X139891488Y-82549659D01*
X139959308Y-82532863D01*
X140025444Y-82555399D01*
G37*
%TD.AperFunction*%
%TA.AperFunction,Conductor*%
G36*
X180791039Y-40710985D02*
G01*
X180836794Y-40763789D01*
X180848000Y-40815300D01*
X180848000Y-135562800D01*
X180828315Y-135629839D01*
X180775511Y-135675594D01*
X180724000Y-135686800D01*
X70990500Y-135686800D01*
X70923461Y-135667115D01*
X70877706Y-135614311D01*
X70866500Y-135562800D01*
X70866500Y-131127058D01*
X73052500Y-131127058D01*
X73052500Y-131356541D01*
X73077446Y-131546015D01*
X73082452Y-131584038D01*
X73082453Y-131584040D01*
X73141842Y-131805687D01*
X73229650Y-132017676D01*
X73229657Y-132017690D01*
X73344392Y-132216417D01*
X73484081Y-132398461D01*
X73484089Y-132398470D01*
X73646330Y-132560711D01*
X73646338Y-132560718D01*
X73828382Y-132700407D01*
X73828385Y-132700408D01*
X73828388Y-132700411D01*
X74027112Y-132815144D01*
X74027117Y-132815146D01*
X74027123Y-132815149D01*
X74118480Y-132852990D01*
X74239113Y-132902958D01*
X74460762Y-132962348D01*
X74688266Y-132992300D01*
X74688273Y-132992300D01*
X74917727Y-132992300D01*
X74917734Y-132992300D01*
X75145238Y-132962348D01*
X75366887Y-132902958D01*
X75578888Y-132815144D01*
X75777612Y-132700411D01*
X75959661Y-132560719D01*
X75959665Y-132560714D01*
X75959670Y-132560711D01*
X76121911Y-132398470D01*
X76121914Y-132398465D01*
X76121919Y-132398461D01*
X76261611Y-132216412D01*
X76376344Y-132017688D01*
X76464158Y-131805687D01*
X76523548Y-131584038D01*
X76553500Y-131356534D01*
X76553500Y-131127066D01*
X76523548Y-130899562D01*
X76464158Y-130677913D01*
X76376344Y-130465912D01*
X76261611Y-130267188D01*
X76261608Y-130267185D01*
X76261607Y-130267182D01*
X76121918Y-130085138D01*
X76121911Y-130085130D01*
X75959670Y-129922889D01*
X75959661Y-129922881D01*
X75777617Y-129783192D01*
X75578890Y-129668457D01*
X75578876Y-129668450D01*
X75366887Y-129580642D01*
X75145238Y-129521252D01*
X75107215Y-129516246D01*
X74917741Y-129491300D01*
X74917734Y-129491300D01*
X74688266Y-129491300D01*
X74688258Y-129491300D01*
X74471715Y-129519809D01*
X74460762Y-129521252D01*
X74367076Y-129546354D01*
X74239112Y-129580642D01*
X74027123Y-129668450D01*
X74027109Y-129668457D01*
X73828382Y-129783192D01*
X73646338Y-129922881D01*
X73484081Y-130085138D01*
X73344392Y-130267182D01*
X73229657Y-130465909D01*
X73229650Y-130465923D01*
X73141842Y-130677912D01*
X73082453Y-130899559D01*
X73082451Y-130899570D01*
X73052500Y-131127058D01*
X70866500Y-131127058D01*
X70866500Y-126415935D01*
X80480850Y-126415935D01*
X80480850Y-132511670D01*
X80480851Y-132511676D01*
X80487258Y-132571283D01*
X80537552Y-132706128D01*
X80537556Y-132706135D01*
X80623802Y-132821344D01*
X80623805Y-132821347D01*
X80739014Y-132907593D01*
X80739021Y-132907597D01*
X80873867Y-132957891D01*
X80873866Y-132957891D01*
X80880794Y-132958635D01*
X80933477Y-132964300D01*
X88029222Y-132964299D01*
X88088833Y-132957891D01*
X88223681Y-132907596D01*
X88338896Y-132821346D01*
X88425146Y-132706131D01*
X88475441Y-132571283D01*
X88481850Y-132511673D01*
X88481849Y-126415935D01*
X103769100Y-126415935D01*
X103769100Y-132511670D01*
X103769101Y-132511676D01*
X103775508Y-132571283D01*
X103825802Y-132706128D01*
X103825806Y-132706135D01*
X103912052Y-132821344D01*
X103912055Y-132821347D01*
X104027264Y-132907593D01*
X104027271Y-132907597D01*
X104162117Y-132957891D01*
X104162116Y-132957891D01*
X104169044Y-132958635D01*
X104221727Y-132964300D01*
X111317472Y-132964299D01*
X111377083Y-132957891D01*
X111511931Y-132907596D01*
X111627146Y-132821346D01*
X111713396Y-132706131D01*
X111763691Y-132571283D01*
X111770100Y-132511673D01*
X111770099Y-126415935D01*
X123769100Y-126415935D01*
X123769100Y-132511670D01*
X123769101Y-132511676D01*
X123775508Y-132571283D01*
X123825802Y-132706128D01*
X123825806Y-132706135D01*
X123912052Y-132821344D01*
X123912055Y-132821347D01*
X124027264Y-132907593D01*
X124027271Y-132907597D01*
X124162117Y-132957891D01*
X124162116Y-132957891D01*
X124169044Y-132958635D01*
X124221727Y-132964300D01*
X131317472Y-132964299D01*
X131377083Y-132957891D01*
X131511931Y-132907596D01*
X131627146Y-132821346D01*
X131713396Y-132706131D01*
X131763691Y-132571283D01*
X131770100Y-132511673D01*
X131770099Y-126415935D01*
X143769100Y-126415935D01*
X143769100Y-132511670D01*
X143769101Y-132511676D01*
X143775508Y-132571283D01*
X143825802Y-132706128D01*
X143825806Y-132706135D01*
X143912052Y-132821344D01*
X143912055Y-132821347D01*
X144027264Y-132907593D01*
X144027271Y-132907597D01*
X144162117Y-132957891D01*
X144162116Y-132957891D01*
X144169044Y-132958635D01*
X144221727Y-132964300D01*
X151317472Y-132964299D01*
X151377083Y-132957891D01*
X151511931Y-132907596D01*
X151627146Y-132821346D01*
X151713396Y-132706131D01*
X151763691Y-132571283D01*
X151770100Y-132511673D01*
X151770099Y-126415935D01*
X163769100Y-126415935D01*
X163769100Y-132511670D01*
X163769101Y-132511676D01*
X163775508Y-132571283D01*
X163825802Y-132706128D01*
X163825806Y-132706135D01*
X163912052Y-132821344D01*
X163912055Y-132821347D01*
X164027264Y-132907593D01*
X164027271Y-132907597D01*
X164162117Y-132957891D01*
X164162116Y-132957891D01*
X164169044Y-132958635D01*
X164221727Y-132964300D01*
X171317472Y-132964299D01*
X171377083Y-132957891D01*
X171511931Y-132907596D01*
X171627146Y-132821346D01*
X171713396Y-132706131D01*
X171763691Y-132571283D01*
X171770100Y-132511673D01*
X171770100Y-131127058D01*
X175084300Y-131127058D01*
X175084300Y-131356541D01*
X175109246Y-131546015D01*
X175114252Y-131584038D01*
X175114253Y-131584040D01*
X175173642Y-131805687D01*
X175261450Y-132017676D01*
X175261457Y-132017690D01*
X175376192Y-132216417D01*
X175515881Y-132398461D01*
X175515889Y-132398470D01*
X175678130Y-132560711D01*
X175678138Y-132560718D01*
X175860182Y-132700407D01*
X175860185Y-132700408D01*
X175860188Y-132700411D01*
X176058912Y-132815144D01*
X176058917Y-132815146D01*
X176058923Y-132815149D01*
X176150280Y-132852990D01*
X176270913Y-132902958D01*
X176492562Y-132962348D01*
X176720066Y-132992300D01*
X176720073Y-132992300D01*
X176949527Y-132992300D01*
X176949534Y-132992300D01*
X177177038Y-132962348D01*
X177398687Y-132902958D01*
X177610688Y-132815144D01*
X177809412Y-132700411D01*
X177991461Y-132560719D01*
X177991465Y-132560714D01*
X177991470Y-132560711D01*
X178153711Y-132398470D01*
X178153714Y-132398465D01*
X178153719Y-132398461D01*
X178293411Y-132216412D01*
X178408144Y-132017688D01*
X178495958Y-131805687D01*
X178555348Y-131584038D01*
X178585300Y-131356534D01*
X178585300Y-131127066D01*
X178555348Y-130899562D01*
X178495958Y-130677913D01*
X178408144Y-130465912D01*
X178293411Y-130267188D01*
X178293408Y-130267185D01*
X178293407Y-130267182D01*
X178153718Y-130085138D01*
X178153711Y-130085130D01*
X177991470Y-129922889D01*
X177991461Y-129922881D01*
X177809417Y-129783192D01*
X177610690Y-129668457D01*
X177610676Y-129668450D01*
X177398687Y-129580642D01*
X177177038Y-129521252D01*
X177139015Y-129516246D01*
X176949541Y-129491300D01*
X176949534Y-129491300D01*
X176720066Y-129491300D01*
X176720058Y-129491300D01*
X176503515Y-129519809D01*
X176492562Y-129521252D01*
X176398876Y-129546354D01*
X176270912Y-129580642D01*
X176058923Y-129668450D01*
X176058909Y-129668457D01*
X175860182Y-129783192D01*
X175678138Y-129922881D01*
X175515881Y-130085138D01*
X175376192Y-130267182D01*
X175261457Y-130465909D01*
X175261450Y-130465923D01*
X175173642Y-130677912D01*
X175114253Y-130899559D01*
X175114251Y-130899570D01*
X175084300Y-131127058D01*
X171770100Y-131127058D01*
X171770099Y-126415928D01*
X171763691Y-126356317D01*
X171713396Y-126221469D01*
X171713395Y-126221468D01*
X171713393Y-126221464D01*
X171627147Y-126106255D01*
X171627144Y-126106252D01*
X171511935Y-126020006D01*
X171511928Y-126020002D01*
X171377082Y-125969708D01*
X171377083Y-125969708D01*
X171317483Y-125963301D01*
X171317481Y-125963300D01*
X171317473Y-125963300D01*
X171317464Y-125963300D01*
X164221729Y-125963300D01*
X164221723Y-125963301D01*
X164162116Y-125969708D01*
X164027271Y-126020002D01*
X164027264Y-126020006D01*
X163912055Y-126106252D01*
X163912052Y-126106255D01*
X163825806Y-126221464D01*
X163825802Y-126221471D01*
X163775508Y-126356317D01*
X163769101Y-126415916D01*
X163769101Y-126415923D01*
X163769100Y-126415935D01*
X151770099Y-126415935D01*
X151770099Y-126415928D01*
X151763691Y-126356317D01*
X151713396Y-126221469D01*
X151713395Y-126221468D01*
X151713393Y-126221464D01*
X151627147Y-126106255D01*
X151627144Y-126106252D01*
X151511935Y-126020006D01*
X151511928Y-126020002D01*
X151377082Y-125969708D01*
X151377083Y-125969708D01*
X151317483Y-125963301D01*
X151317481Y-125963300D01*
X151317473Y-125963300D01*
X151317464Y-125963300D01*
X144221729Y-125963300D01*
X144221723Y-125963301D01*
X144162116Y-125969708D01*
X144027271Y-126020002D01*
X144027264Y-126020006D01*
X143912055Y-126106252D01*
X143912052Y-126106255D01*
X143825806Y-126221464D01*
X143825802Y-126221471D01*
X143775508Y-126356317D01*
X143769101Y-126415916D01*
X143769101Y-126415923D01*
X143769100Y-126415935D01*
X131770099Y-126415935D01*
X131770099Y-126415928D01*
X131763691Y-126356317D01*
X131713396Y-126221469D01*
X131713395Y-126221468D01*
X131713393Y-126221464D01*
X131627147Y-126106255D01*
X131627144Y-126106252D01*
X131511935Y-126020006D01*
X131511928Y-126020002D01*
X131377082Y-125969708D01*
X131377083Y-125969708D01*
X131317483Y-125963301D01*
X131317481Y-125963300D01*
X131317473Y-125963300D01*
X131317464Y-125963300D01*
X124221729Y-125963300D01*
X124221723Y-125963301D01*
X124162116Y-125969708D01*
X124027271Y-126020002D01*
X124027264Y-126020006D01*
X123912055Y-126106252D01*
X123912052Y-126106255D01*
X123825806Y-126221464D01*
X123825802Y-126221471D01*
X123775508Y-126356317D01*
X123769101Y-126415916D01*
X123769101Y-126415923D01*
X123769100Y-126415935D01*
X111770099Y-126415935D01*
X111770099Y-126415928D01*
X111763691Y-126356317D01*
X111713396Y-126221469D01*
X111713395Y-126221468D01*
X111713393Y-126221464D01*
X111627147Y-126106255D01*
X111627144Y-126106252D01*
X111511935Y-126020006D01*
X111511928Y-126020002D01*
X111377082Y-125969708D01*
X111377083Y-125969708D01*
X111317483Y-125963301D01*
X111317481Y-125963300D01*
X111317473Y-125963300D01*
X111317464Y-125963300D01*
X104221729Y-125963300D01*
X104221723Y-125963301D01*
X104162116Y-125969708D01*
X104027271Y-126020002D01*
X104027264Y-126020006D01*
X103912055Y-126106252D01*
X103912052Y-126106255D01*
X103825806Y-126221464D01*
X103825802Y-126221471D01*
X103775508Y-126356317D01*
X103769101Y-126415916D01*
X103769101Y-126415923D01*
X103769100Y-126415935D01*
X88481849Y-126415935D01*
X88481849Y-126415928D01*
X88475441Y-126356317D01*
X88425146Y-126221469D01*
X88425145Y-126221468D01*
X88425143Y-126221464D01*
X88338897Y-126106255D01*
X88338894Y-126106252D01*
X88223685Y-126020006D01*
X88223678Y-126020002D01*
X88088832Y-125969708D01*
X88088833Y-125969708D01*
X88029233Y-125963301D01*
X88029231Y-125963300D01*
X88029223Y-125963300D01*
X88029214Y-125963300D01*
X80933479Y-125963300D01*
X80933473Y-125963301D01*
X80873866Y-125969708D01*
X80739021Y-126020002D01*
X80739014Y-126020006D01*
X80623805Y-126106252D01*
X80623802Y-126106255D01*
X80537556Y-126221464D01*
X80537552Y-126221471D01*
X80487258Y-126356317D01*
X80480851Y-126415916D01*
X80480851Y-126415923D01*
X80480850Y-126415935D01*
X70866500Y-126415935D01*
X70866500Y-120056955D01*
X72995800Y-120056955D01*
X72995800Y-120704800D01*
X73912788Y-120704800D01*
X73879875Y-120761807D01*
X73845800Y-120888974D01*
X73845800Y-121020626D01*
X73879875Y-121147793D01*
X73912788Y-121204800D01*
X72995800Y-121204800D01*
X72995800Y-121852644D01*
X73002201Y-121912172D01*
X73002203Y-121912179D01*
X73052445Y-122046886D01*
X73052449Y-122046893D01*
X73138609Y-122161987D01*
X73138612Y-122161990D01*
X73253706Y-122248150D01*
X73253713Y-122248154D01*
X73388420Y-122298396D01*
X73388427Y-122298398D01*
X73447955Y-122304799D01*
X73447972Y-122304800D01*
X74095800Y-122304800D01*
X74095800Y-121387812D01*
X74152807Y-121420725D01*
X74279974Y-121454800D01*
X74411626Y-121454800D01*
X74538793Y-121420725D01*
X74595800Y-121387812D01*
X74595800Y-122304800D01*
X75243628Y-122304800D01*
X75243644Y-122304799D01*
X75303172Y-122298398D01*
X75303179Y-122298396D01*
X75437886Y-122248154D01*
X75437893Y-122248150D01*
X75552987Y-122161990D01*
X75552990Y-122161987D01*
X75639150Y-122046893D01*
X75639154Y-122046886D01*
X75689396Y-121912179D01*
X75689398Y-121912172D01*
X75695799Y-121852644D01*
X75695800Y-121852627D01*
X75695800Y-121204800D01*
X74778812Y-121204800D01*
X74811725Y-121147793D01*
X74845800Y-121020626D01*
X74845800Y-120888974D01*
X74811725Y-120761807D01*
X74778812Y-120704800D01*
X75695800Y-120704800D01*
X75695800Y-120056972D01*
X75695799Y-120056955D01*
X112365800Y-120056955D01*
X112365800Y-120704800D01*
X113282788Y-120704800D01*
X113249875Y-120761807D01*
X113215800Y-120888974D01*
X113215800Y-121020626D01*
X113249875Y-121147793D01*
X113282788Y-121204800D01*
X112365800Y-121204800D01*
X112365800Y-121852644D01*
X112372201Y-121912172D01*
X112372203Y-121912179D01*
X112422445Y-122046886D01*
X112422449Y-122046893D01*
X112508609Y-122161987D01*
X112508612Y-122161990D01*
X112623706Y-122248150D01*
X112623713Y-122248154D01*
X112758420Y-122298396D01*
X112758427Y-122298398D01*
X112817955Y-122304799D01*
X112817972Y-122304800D01*
X113465800Y-122304800D01*
X113465800Y-121387812D01*
X113522807Y-121420725D01*
X113649974Y-121454800D01*
X113781626Y-121454800D01*
X113908793Y-121420725D01*
X113965800Y-121387812D01*
X113965800Y-122304800D01*
X114613628Y-122304800D01*
X114613644Y-122304799D01*
X114673172Y-122298398D01*
X114673179Y-122298396D01*
X114807886Y-122248154D01*
X114807893Y-122248150D01*
X114922987Y-122161990D01*
X114922990Y-122161987D01*
X115009150Y-122046893D01*
X115009154Y-122046886D01*
X115059396Y-121912179D01*
X115059398Y-121912172D01*
X115065799Y-121852644D01*
X115065800Y-121852627D01*
X115065800Y-121204800D01*
X114148812Y-121204800D01*
X114181725Y-121147793D01*
X114215800Y-121020626D01*
X114215800Y-120888974D01*
X114181725Y-120761807D01*
X114148812Y-120704800D01*
X115065800Y-120704800D01*
X115065800Y-120056972D01*
X115065799Y-120056955D01*
X115059398Y-119997427D01*
X115059396Y-119997420D01*
X115038379Y-119941069D01*
X115009154Y-119862713D01*
X115009150Y-119862706D01*
X114922990Y-119747612D01*
X114922987Y-119747609D01*
X114807893Y-119661449D01*
X114807886Y-119661445D01*
X114673179Y-119611203D01*
X114673172Y-119611201D01*
X114613644Y-119604800D01*
X113965800Y-119604800D01*
X113965800Y-120521788D01*
X113908793Y-120488875D01*
X113781626Y-120454800D01*
X113649974Y-120454800D01*
X113522807Y-120488875D01*
X113465800Y-120521788D01*
X113465800Y-119604800D01*
X112817955Y-119604800D01*
X112758427Y-119611201D01*
X112758420Y-119611203D01*
X112623713Y-119661445D01*
X112623706Y-119661449D01*
X112508612Y-119747609D01*
X112508609Y-119747612D01*
X112422449Y-119862706D01*
X112422445Y-119862713D01*
X112372203Y-119997420D01*
X112372201Y-119997427D01*
X112365800Y-120056955D01*
X75695799Y-120056955D01*
X75689398Y-119997427D01*
X75689396Y-119997420D01*
X75639154Y-119862713D01*
X75639150Y-119862706D01*
X75552990Y-119747612D01*
X75552987Y-119747609D01*
X75437893Y-119661449D01*
X75437886Y-119661445D01*
X75303179Y-119611203D01*
X75303172Y-119611201D01*
X75243644Y-119604800D01*
X74595800Y-119604800D01*
X74595800Y-120521788D01*
X74538793Y-120488875D01*
X74411626Y-120454800D01*
X74279974Y-120454800D01*
X74152807Y-120488875D01*
X74095800Y-120521788D01*
X74095800Y-119604800D01*
X73447955Y-119604800D01*
X73388427Y-119611201D01*
X73388420Y-119611203D01*
X73253713Y-119661445D01*
X73253706Y-119661449D01*
X73138612Y-119747609D01*
X73138609Y-119747612D01*
X73052449Y-119862706D01*
X73052445Y-119862713D01*
X73002203Y-119997420D01*
X73002201Y-119997427D01*
X72995800Y-120056955D01*
X70866500Y-120056955D01*
X70866500Y-103056702D01*
X72845300Y-103056702D01*
X72845300Y-103292897D01*
X72882246Y-103526168D01*
X72955233Y-103750796D01*
X73062456Y-103961231D01*
X73062458Y-103961234D01*
X73069410Y-103970804D01*
X73079572Y-103987388D01*
X73123023Y-104072664D01*
X73140335Y-104106640D01*
X73262768Y-104257832D01*
X73338692Y-104319314D01*
X73413962Y-104380267D01*
X73533208Y-104441025D01*
X73549799Y-104451191D01*
X73559367Y-104458143D01*
X73658791Y-104508802D01*
X73769803Y-104565366D01*
X73769805Y-104565366D01*
X73769808Y-104565368D01*
X73890212Y-104604489D01*
X73994431Y-104638353D01*
X74227703Y-104675300D01*
X74227708Y-104675300D01*
X87824297Y-104675300D01*
X88057568Y-104638353D01*
X88282192Y-104565368D01*
X88492634Y-104458143D01*
X88683710Y-104319317D01*
X91568518Y-101434510D01*
X91707343Y-101243433D01*
X91814568Y-101032992D01*
X91887553Y-100808368D01*
X91924500Y-100575097D01*
X91924500Y-92591902D01*
X91887553Y-92358631D01*
X91828354Y-92176437D01*
X91814568Y-92134008D01*
X91814566Y-92134005D01*
X91814566Y-92134003D01*
X91712994Y-91934657D01*
X91712994Y-91934656D01*
X91712992Y-91934654D01*
X91707343Y-91923566D01*
X91568517Y-91732490D01*
X89936010Y-90099983D01*
X89744934Y-89961157D01*
X89698491Y-89937493D01*
X89534496Y-89853933D01*
X89311380Y-89781437D01*
X89253705Y-89741999D01*
X89226507Y-89677640D01*
X89225699Y-89663506D01*
X89225699Y-89446629D01*
X89225698Y-89446623D01*
X89225697Y-89446616D01*
X89219291Y-89387017D01*
X89212538Y-89368912D01*
X89168997Y-89252171D01*
X89168993Y-89252164D01*
X89082747Y-89136955D01*
X89082744Y-89136952D01*
X88967535Y-89050706D01*
X88967528Y-89050702D01*
X88832682Y-89000408D01*
X88832683Y-89000408D01*
X88773083Y-88994001D01*
X88773081Y-88994000D01*
X88773073Y-88994000D01*
X88773064Y-88994000D01*
X85177329Y-88994000D01*
X85177323Y-88994001D01*
X85117716Y-89000408D01*
X84982871Y-89050702D01*
X84982864Y-89050706D01*
X84867655Y-89136952D01*
X84867652Y-89136955D01*
X84781406Y-89252164D01*
X84781402Y-89252171D01*
X84731108Y-89387017D01*
X84724701Y-89446616D01*
X84724701Y-89446623D01*
X84724700Y-89446635D01*
X84724700Y-93042370D01*
X84724701Y-93042376D01*
X84731108Y-93101983D01*
X84781402Y-93236828D01*
X84781406Y-93236835D01*
X84867652Y-93352044D01*
X84867655Y-93352047D01*
X84982864Y-93438293D01*
X84982873Y-93438298D01*
X85031706Y-93456511D01*
X85087640Y-93498381D01*
X85112058Y-93563845D01*
X85097207Y-93632118D01*
X85047803Y-93681524D01*
X84981798Y-93696518D01*
X84943825Y-93694501D01*
X84943779Y-93694500D01*
X84225200Y-93694500D01*
X84225200Y-95444500D01*
X83725200Y-95444500D01*
X83725200Y-93694500D01*
X83006623Y-93694500D01*
X83006611Y-93694501D01*
X82954008Y-93697294D01*
X82724212Y-93741737D01*
X82505224Y-93824379D01*
X82303358Y-93942839D01*
X82303351Y-93942844D01*
X82124413Y-94093711D01*
X82124411Y-94093713D01*
X81973544Y-94272651D01*
X81973539Y-94272658D01*
X81855079Y-94474524D01*
X81772437Y-94693512D01*
X81727994Y-94923308D01*
X81727994Y-94923309D01*
X81725201Y-94975882D01*
X81725200Y-94975921D01*
X81725200Y-95694500D01*
X82542188Y-95694500D01*
X82509275Y-95751507D01*
X82475200Y-95878674D01*
X82475200Y-96010326D01*
X82509275Y-96137493D01*
X82542188Y-96194500D01*
X81725201Y-96194500D01*
X81725201Y-96913088D01*
X81727994Y-96965691D01*
X81772437Y-97195487D01*
X81855079Y-97414475D01*
X81973539Y-97616341D01*
X81973544Y-97616348D01*
X82124411Y-97795286D01*
X82124413Y-97795288D01*
X82303351Y-97946155D01*
X82303358Y-97946160D01*
X82505224Y-98064620D01*
X82724212Y-98147262D01*
X82954009Y-98191705D01*
X83006582Y-98194498D01*
X83006621Y-98194499D01*
X83725199Y-98194499D01*
X83725200Y-98194498D01*
X83725200Y-96444500D01*
X84225200Y-96444500D01*
X84225200Y-98194499D01*
X84943776Y-98194499D01*
X84943788Y-98194498D01*
X84996391Y-98191705D01*
X85226187Y-98147262D01*
X85445175Y-98064620D01*
X85647041Y-97946160D01*
X85647048Y-97946155D01*
X85825986Y-97795288D01*
X85825988Y-97795286D01*
X85976855Y-97616348D01*
X85976860Y-97616341D01*
X86095320Y-97414475D01*
X86177962Y-97195487D01*
X86222405Y-96965691D01*
X86222405Y-96965690D01*
X86225198Y-96913117D01*
X86225200Y-96913078D01*
X86225200Y-96194500D01*
X85408212Y-96194500D01*
X85441125Y-96137493D01*
X85475200Y-96010326D01*
X85475200Y-95878674D01*
X85441125Y-95751507D01*
X85408212Y-95694500D01*
X86225199Y-95694500D01*
X86225199Y-94975923D01*
X86225198Y-94975911D01*
X86222405Y-94923308D01*
X86177962Y-94693512D01*
X86095320Y-94474524D01*
X85976860Y-94272658D01*
X85976855Y-94272651D01*
X85825988Y-94093713D01*
X85825986Y-94093711D01*
X85647048Y-93942844D01*
X85647041Y-93942839D01*
X85445175Y-93824379D01*
X85226184Y-93741736D01*
X85221040Y-93740741D01*
X85158960Y-93708680D01*
X85124069Y-93648146D01*
X85127444Y-93578358D01*
X85168014Y-93521473D01*
X85232897Y-93495552D01*
X85244574Y-93494999D01*
X88773072Y-93494999D01*
X88786241Y-93493583D01*
X88855000Y-93505986D01*
X88906139Y-93553594D01*
X88923500Y-93616872D01*
X88923500Y-99784110D01*
X88903815Y-99851149D01*
X88887181Y-99871791D01*
X87120992Y-101637981D01*
X87059669Y-101671466D01*
X87033311Y-101674300D01*
X74227703Y-101674300D01*
X73994431Y-101711246D01*
X73769803Y-101784233D01*
X73559368Y-101891456D01*
X73559363Y-101891460D01*
X73549793Y-101898412D01*
X73533213Y-101908571D01*
X73413957Y-101969336D01*
X73262768Y-102091768D01*
X73140336Y-102242957D01*
X73079571Y-102362213D01*
X73069412Y-102378793D01*
X73062460Y-102388363D01*
X73062456Y-102388368D01*
X72955233Y-102598803D01*
X72882246Y-102823431D01*
X72845300Y-103056702D01*
X70866500Y-103056702D01*
X70866500Y-90180303D01*
X78975200Y-90180303D01*
X78975200Y-90994500D01*
X80475200Y-90994500D01*
X80475200Y-91494500D01*
X78975201Y-91494500D01*
X78975201Y-92308697D01*
X78985600Y-92440832D01*
X79040577Y-92659019D01*
X79133628Y-92863874D01*
X79133631Y-92863880D01*
X79261759Y-93048823D01*
X79261769Y-93048835D01*
X79420864Y-93207930D01*
X79420876Y-93207940D01*
X79605819Y-93336068D01*
X79605825Y-93336071D01*
X79810680Y-93429122D01*
X80028867Y-93484099D01*
X80161010Y-93494499D01*
X80725199Y-93494499D01*
X80725200Y-93494498D01*
X80725200Y-92677512D01*
X80782207Y-92710425D01*
X80909374Y-92744500D01*
X81041026Y-92744500D01*
X81168193Y-92710425D01*
X81225200Y-92677512D01*
X81225200Y-93494499D01*
X81789382Y-93494499D01*
X81789397Y-93494498D01*
X81921532Y-93484099D01*
X82139719Y-93429122D01*
X82344574Y-93336071D01*
X82344580Y-93336068D01*
X82529523Y-93207940D01*
X82529535Y-93207930D01*
X82688630Y-93048835D01*
X82688640Y-93048823D01*
X82816768Y-92863880D01*
X82816771Y-92863874D01*
X82909822Y-92659019D01*
X82964799Y-92440832D01*
X82975199Y-92308696D01*
X82975200Y-92308684D01*
X82975200Y-91494500D01*
X81475200Y-91494500D01*
X81475200Y-90994500D01*
X82975199Y-90994500D01*
X82975199Y-90180317D01*
X82975198Y-90180302D01*
X82964799Y-90048167D01*
X82909822Y-89829980D01*
X82816771Y-89625125D01*
X82816768Y-89625119D01*
X82688640Y-89440176D01*
X82688630Y-89440164D01*
X82529535Y-89281069D01*
X82529523Y-89281059D01*
X82344580Y-89152931D01*
X82344574Y-89152928D01*
X82139719Y-89059877D01*
X81921532Y-89004900D01*
X81789396Y-88994500D01*
X81225200Y-88994500D01*
X81225200Y-89811488D01*
X81168193Y-89778575D01*
X81041026Y-89744500D01*
X80909374Y-89744500D01*
X80782207Y-89778575D01*
X80725200Y-89811488D01*
X80725200Y-88994500D01*
X80161017Y-88994500D01*
X80161002Y-88994501D01*
X80028867Y-89004900D01*
X79810680Y-89059877D01*
X79605825Y-89152928D01*
X79605819Y-89152931D01*
X79420876Y-89281059D01*
X79420864Y-89281069D01*
X79261769Y-89440164D01*
X79261759Y-89440176D01*
X79133631Y-89625119D01*
X79133628Y-89625125D01*
X79040577Y-89829980D01*
X78985600Y-90048167D01*
X78975200Y-90180303D01*
X70866500Y-90180303D01*
X70866500Y-64168535D01*
X77398500Y-64168535D01*
X77398500Y-71264270D01*
X77398501Y-71264276D01*
X77404908Y-71323883D01*
X77455202Y-71458728D01*
X77455206Y-71458735D01*
X77541452Y-71573944D01*
X77541455Y-71573947D01*
X77656664Y-71660193D01*
X77656671Y-71660197D01*
X77791517Y-71710491D01*
X77791516Y-71710491D01*
X77798444Y-71711235D01*
X77851127Y-71716900D01*
X79274500Y-71716899D01*
X79341539Y-71736584D01*
X79387294Y-71789387D01*
X79398500Y-71840899D01*
X79398500Y-74768697D01*
X79435446Y-75001968D01*
X79508433Y-75226596D01*
X79615657Y-75437033D01*
X79754483Y-75628110D01*
X79921490Y-75795117D01*
X80112567Y-75933943D01*
X80182352Y-75969500D01*
X80323003Y-76041166D01*
X80323005Y-76041166D01*
X80323008Y-76041168D01*
X80440772Y-76079432D01*
X80547631Y-76114153D01*
X80780903Y-76151100D01*
X80780908Y-76151100D01*
X81017097Y-76151100D01*
X81250368Y-76114153D01*
X81474992Y-76041168D01*
X81685433Y-75933943D01*
X81876510Y-75795117D01*
X82043517Y-75628110D01*
X82182343Y-75437033D01*
X82289568Y-75226592D01*
X82362553Y-75001968D01*
X82399500Y-74768697D01*
X82399500Y-71840899D01*
X82419185Y-71773860D01*
X82471989Y-71728105D01*
X82523500Y-71716899D01*
X83946871Y-71716899D01*
X83946872Y-71716899D01*
X84006483Y-71710491D01*
X84141331Y-71660196D01*
X84256546Y-71573946D01*
X84342796Y-71458731D01*
X84393091Y-71323883D01*
X84399500Y-71264273D01*
X84399499Y-67826902D01*
X88796500Y-67826902D01*
X88796500Y-84573097D01*
X88833446Y-84806368D01*
X88906433Y-85030996D01*
X89008921Y-85232139D01*
X89013657Y-85241434D01*
X89152483Y-85432510D01*
X108039290Y-104319317D01*
X108230366Y-104458143D01*
X108329792Y-104508803D01*
X108440803Y-104565366D01*
X108440805Y-104565366D01*
X108440808Y-104565368D01*
X108561212Y-104604489D01*
X108665431Y-104638353D01*
X108898703Y-104675300D01*
X108898708Y-104675300D01*
X113833897Y-104675300D01*
X114067168Y-104638353D01*
X114291792Y-104565368D01*
X114343907Y-104538814D01*
X114400201Y-104525299D01*
X114613671Y-104525299D01*
X114613672Y-104525299D01*
X114673283Y-104518891D01*
X114808131Y-104468596D01*
X114923346Y-104382346D01*
X115009596Y-104267131D01*
X115059891Y-104132283D01*
X115066300Y-104072673D01*
X115066299Y-103859199D01*
X115079814Y-103802905D01*
X115106368Y-103750792D01*
X115179353Y-103526168D01*
X115192320Y-103444300D01*
X115216300Y-103292897D01*
X115216300Y-103056702D01*
X115179353Y-102823431D01*
X115106365Y-102598800D01*
X115079814Y-102546691D01*
X115066299Y-102490397D01*
X115066299Y-102276929D01*
X115066298Y-102276923D01*
X115062647Y-102242960D01*
X115059891Y-102217317D01*
X115054021Y-102201580D01*
X115009597Y-102082471D01*
X115009593Y-102082464D01*
X114923347Y-101967255D01*
X114923344Y-101967252D01*
X114808135Y-101881006D01*
X114808128Y-101881002D01*
X114673282Y-101830708D01*
X114673283Y-101830708D01*
X114613683Y-101824301D01*
X114613681Y-101824300D01*
X114613673Y-101824300D01*
X114613665Y-101824300D01*
X114400200Y-101824300D01*
X114343905Y-101810785D01*
X114291796Y-101784233D01*
X114067168Y-101711246D01*
X113833897Y-101674300D01*
X113833892Y-101674300D01*
X109689689Y-101674300D01*
X109622650Y-101654615D01*
X109602008Y-101637981D01*
X91833819Y-83869792D01*
X91800334Y-83808469D01*
X91797500Y-83782111D01*
X91797500Y-68617889D01*
X91817185Y-68550850D01*
X91833819Y-68530208D01*
X96772127Y-63591900D01*
X101728517Y-58635510D01*
X101867343Y-58444433D01*
X101974568Y-58233992D01*
X102047553Y-58009368D01*
X102059457Y-57934209D01*
X102084500Y-57776097D01*
X102084500Y-56388833D01*
X102104185Y-56321794D01*
X102156989Y-56276039D01*
X102226147Y-56266095D01*
X102281385Y-56288515D01*
X102329862Y-56323735D01*
X102416184Y-56386451D01*
X102605588Y-56482957D01*
X102807757Y-56548646D01*
X103017713Y-56581900D01*
X103017714Y-56581900D01*
X103230286Y-56581900D01*
X103230287Y-56581900D01*
X103440243Y-56548646D01*
X103642412Y-56482957D01*
X103831816Y-56386451D01*
X103918138Y-56323735D01*
X104003786Y-56261509D01*
X104003788Y-56261506D01*
X104003792Y-56261504D01*
X104154104Y-56111192D01*
X104154106Y-56111188D01*
X104154109Y-56111186D01*
X104279048Y-55939220D01*
X104279047Y-55939220D01*
X104279051Y-55939216D01*
X104283514Y-55930454D01*
X104331488Y-55879659D01*
X104399308Y-55862863D01*
X104465444Y-55885399D01*
X104504486Y-55930456D01*
X104508951Y-55939220D01*
X104633890Y-56111186D01*
X104784213Y-56261509D01*
X104956179Y-56386448D01*
X104956181Y-56386449D01*
X104956184Y-56386451D01*
X105145588Y-56482957D01*
X105347757Y-56548646D01*
X105557713Y-56581900D01*
X105557714Y-56581900D01*
X105770286Y-56581900D01*
X105770287Y-56581900D01*
X105980243Y-56548646D01*
X106182412Y-56482957D01*
X106371816Y-56386451D01*
X106458138Y-56323735D01*
X106543786Y-56261509D01*
X106543788Y-56261506D01*
X106543792Y-56261504D01*
X106694104Y-56111192D01*
X106694106Y-56111188D01*
X106694109Y-56111186D01*
X106819048Y-55939220D01*
X106819047Y-55939220D01*
X106819051Y-55939216D01*
X106823514Y-55930454D01*
X106871488Y-55879659D01*
X106939308Y-55862863D01*
X107005444Y-55885399D01*
X107044486Y-55930456D01*
X107048951Y-55939220D01*
X107173890Y-56111186D01*
X107324213Y-56261509D01*
X107496179Y-56386448D01*
X107496181Y-56386449D01*
X107496184Y-56386451D01*
X107685588Y-56482957D01*
X107887757Y-56548646D01*
X108097713Y-56581900D01*
X108097714Y-56581900D01*
X108310286Y-56581900D01*
X108310287Y-56581900D01*
X108520243Y-56548646D01*
X108722412Y-56482957D01*
X108911816Y-56386451D01*
X108998138Y-56323735D01*
X109083786Y-56261509D01*
X109083788Y-56261506D01*
X109083792Y-56261504D01*
X109234104Y-56111192D01*
X109234106Y-56111188D01*
X109234109Y-56111186D01*
X109359048Y-55939220D01*
X109359047Y-55939220D01*
X109359051Y-55939216D01*
X109363514Y-55930454D01*
X109411488Y-55879659D01*
X109479308Y-55862863D01*
X109545444Y-55885399D01*
X109584486Y-55930456D01*
X109588951Y-55939220D01*
X109713890Y-56111186D01*
X109864213Y-56261509D01*
X110036179Y-56386448D01*
X110036181Y-56386449D01*
X110036184Y-56386451D01*
X110225588Y-56482957D01*
X110427757Y-56548646D01*
X110637713Y-56581900D01*
X110637714Y-56581900D01*
X110850286Y-56581900D01*
X110850287Y-56581900D01*
X111060243Y-56548646D01*
X111262412Y-56482957D01*
X111451816Y-56386451D01*
X111538138Y-56323735D01*
X111623786Y-56261509D01*
X111623788Y-56261506D01*
X111623792Y-56261504D01*
X111774104Y-56111192D01*
X111774106Y-56111188D01*
X111774109Y-56111186D01*
X111881804Y-55962954D01*
X111899051Y-55939216D01*
X111903793Y-55929908D01*
X111951763Y-55879111D01*
X112019583Y-55862311D01*
X112085719Y-55884845D01*
X112124763Y-55929900D01*
X112129377Y-55938955D01*
X112254272Y-56110859D01*
X112254276Y-56110864D01*
X112404535Y-56261123D01*
X112404540Y-56261127D01*
X112576442Y-56386020D01*
X112765782Y-56482495D01*
X112967871Y-56548157D01*
X113034000Y-56558631D01*
X113034000Y-54814412D01*
X113091007Y-54847325D01*
X113218174Y-54881400D01*
X113349826Y-54881400D01*
X113476993Y-54847325D01*
X113534000Y-54814412D01*
X113534000Y-56558630D01*
X113600126Y-56548157D01*
X113600129Y-56548157D01*
X113802217Y-56482495D01*
X113991557Y-56386020D01*
X114163459Y-56261127D01*
X114163464Y-56261123D01*
X114313723Y-56110864D01*
X114313727Y-56110859D01*
X114438620Y-55938958D01*
X114443232Y-55929907D01*
X114491205Y-55879109D01*
X114559025Y-55862312D01*
X114625161Y-55884847D01*
X114664204Y-55929904D01*
X114668949Y-55939217D01*
X114793890Y-56111186D01*
X114944213Y-56261509D01*
X115116179Y-56386448D01*
X115116181Y-56386449D01*
X115116184Y-56386451D01*
X115305588Y-56482957D01*
X115507757Y-56548646D01*
X115717713Y-56581900D01*
X115717714Y-56581900D01*
X115930286Y-56581900D01*
X115930287Y-56581900D01*
X116140243Y-56548646D01*
X116342412Y-56482957D01*
X116531816Y-56386451D01*
X116618138Y-56323735D01*
X116703786Y-56261509D01*
X116703788Y-56261506D01*
X116703792Y-56261504D01*
X116854104Y-56111192D01*
X116854106Y-56111188D01*
X116854109Y-56111186D01*
X116979048Y-55939220D01*
X116979047Y-55939220D01*
X116979051Y-55939216D01*
X116983514Y-55930454D01*
X117031488Y-55879659D01*
X117099308Y-55862863D01*
X117165444Y-55885399D01*
X117204486Y-55930456D01*
X117208951Y-55939220D01*
X117333890Y-56111186D01*
X117484213Y-56261509D01*
X117656179Y-56386448D01*
X117656181Y-56386449D01*
X117656184Y-56386451D01*
X117845588Y-56482957D01*
X118047757Y-56548646D01*
X118257713Y-56581900D01*
X118257714Y-56581900D01*
X118470286Y-56581900D01*
X118470287Y-56581900D01*
X118680243Y-56548646D01*
X118882412Y-56482957D01*
X119071816Y-56386451D01*
X119158138Y-56323735D01*
X119243786Y-56261509D01*
X119243788Y-56261506D01*
X119243792Y-56261504D01*
X119394104Y-56111192D01*
X119394106Y-56111188D01*
X119394109Y-56111186D01*
X119519048Y-55939220D01*
X119519047Y-55939220D01*
X119519051Y-55939216D01*
X119523514Y-55930454D01*
X119571488Y-55879659D01*
X119639308Y-55862863D01*
X119705444Y-55885399D01*
X119744486Y-55930456D01*
X119748951Y-55939220D01*
X119876759Y-56115134D01*
X119875888Y-56115766D01*
X119902357Y-56174801D01*
X119903500Y-56191599D01*
X119903500Y-57700217D01*
X119883815Y-57767256D01*
X119867181Y-57787898D01*
X114937899Y-62717181D01*
X114876576Y-62750666D01*
X114850218Y-62753500D01*
X105057458Y-62753500D01*
X105037685Y-62757433D01*
X104998137Y-62765300D01*
X104864167Y-62791947D01*
X104864159Y-62791950D01*
X104810834Y-62814037D01*
X104810834Y-62814038D01*
X104765315Y-62832892D01*
X104682089Y-62867366D01*
X104682079Y-62867371D01*
X104518219Y-62976859D01*
X104448540Y-63046538D01*
X104378861Y-63116218D01*
X104378858Y-63116221D01*
X93977221Y-73517858D01*
X93977218Y-73517861D01*
X93907538Y-73587540D01*
X93837859Y-73657219D01*
X93728371Y-73821079D01*
X93728364Y-73821092D01*
X93652950Y-74003160D01*
X93652947Y-74003170D01*
X93614500Y-74196456D01*
X93614500Y-74196459D01*
X93614500Y-82902541D01*
X93614500Y-82902543D01*
X93614499Y-82902543D01*
X93652947Y-83095829D01*
X93652950Y-83095839D01*
X93728364Y-83277907D01*
X93728371Y-83277920D01*
X93837860Y-83441781D01*
X93837863Y-83441785D01*
X93981537Y-83585459D01*
X93981559Y-83585479D01*
X97060535Y-86664455D01*
X97060564Y-86664486D01*
X97203014Y-86806936D01*
X97203018Y-86806939D01*
X97366879Y-86916428D01*
X97366892Y-86916435D01*
X97495633Y-86969761D01*
X97548959Y-86991849D01*
X97548964Y-86991851D01*
X97621584Y-87006296D01*
X97651752Y-87012297D01*
X97742256Y-87030300D01*
X97742259Y-87030300D01*
X97742260Y-87030300D01*
X97939340Y-87030300D01*
X102074018Y-87030300D01*
X102141057Y-87049985D01*
X102161699Y-87066619D01*
X116387381Y-101292301D01*
X116420866Y-101353624D01*
X116423700Y-101379982D01*
X116423700Y-112823741D01*
X116423700Y-112823743D01*
X116423699Y-112823743D01*
X116462147Y-113017029D01*
X116462150Y-113017039D01*
X116537564Y-113199107D01*
X116537571Y-113199120D01*
X116647060Y-113362981D01*
X116647063Y-113362985D01*
X116790737Y-113506659D01*
X116790759Y-113506679D01*
X118523535Y-115239455D01*
X118523564Y-115239486D01*
X118666014Y-115381936D01*
X118666018Y-115381939D01*
X118829879Y-115491428D01*
X118829892Y-115491435D01*
X118958633Y-115544761D01*
X119001544Y-115562535D01*
X119011964Y-115566851D01*
X119108612Y-115586075D01*
X119156935Y-115595687D01*
X119205258Y-115605300D01*
X119205259Y-115605300D01*
X119205260Y-115605300D01*
X119402340Y-115605300D01*
X121824300Y-115605300D01*
X121891339Y-115624985D01*
X121903865Y-115634293D01*
X122076682Y-115759850D01*
X122085446Y-115764316D01*
X122136242Y-115812291D01*
X122153036Y-115880112D01*
X122130498Y-115946247D01*
X122085446Y-115985284D01*
X122076682Y-115989749D01*
X121904713Y-116114690D01*
X121754390Y-116265013D01*
X121629451Y-116436979D01*
X121532944Y-116626385D01*
X121467253Y-116828560D01*
X121434000Y-117038513D01*
X121434000Y-117251086D01*
X121467253Y-117461039D01*
X121532944Y-117663214D01*
X121629451Y-117852620D01*
X121754390Y-118024586D01*
X121904713Y-118174909D01*
X122076679Y-118299848D01*
X122076681Y-118299849D01*
X122076684Y-118299851D01*
X122085993Y-118304594D01*
X122136790Y-118352566D01*
X122153587Y-118420387D01*
X122131052Y-118486522D01*
X122086002Y-118525562D01*
X122076943Y-118530178D01*
X121905040Y-118655072D01*
X121905035Y-118655076D01*
X121754776Y-118805335D01*
X121754772Y-118805340D01*
X121629879Y-118977242D01*
X121533404Y-119166582D01*
X121467742Y-119368670D01*
X121467742Y-119368673D01*
X121457269Y-119434800D01*
X123201488Y-119434800D01*
X123168575Y-119491807D01*
X123134500Y-119618974D01*
X123134500Y-119750626D01*
X123168575Y-119877793D01*
X123201488Y-119934800D01*
X121457269Y-119934800D01*
X121467742Y-120000926D01*
X121467742Y-120000929D01*
X121533404Y-120203017D01*
X121629879Y-120392357D01*
X121754772Y-120564259D01*
X121754776Y-120564264D01*
X121905035Y-120714523D01*
X121905040Y-120714527D01*
X122076942Y-120839420D01*
X122266282Y-120935895D01*
X122468370Y-121001557D01*
X122678254Y-121034800D01*
X123384500Y-121034800D01*
X123384500Y-120117812D01*
X123441507Y-120150725D01*
X123568674Y-120184800D01*
X123700326Y-120184800D01*
X123827493Y-120150725D01*
X123884500Y-120117812D01*
X123884500Y-121034800D01*
X124590746Y-121034800D01*
X124800627Y-121001557D01*
X124800630Y-121001557D01*
X125002717Y-120935895D01*
X125192057Y-120839420D01*
X125363959Y-120714527D01*
X125363964Y-120714523D01*
X125514223Y-120564264D01*
X125514227Y-120564259D01*
X125639120Y-120392357D01*
X125735595Y-120203017D01*
X125801257Y-120000929D01*
X125801257Y-120000926D01*
X125811731Y-119934800D01*
X124067512Y-119934800D01*
X124100425Y-119877793D01*
X124134500Y-119750626D01*
X124134500Y-119618974D01*
X124100425Y-119491807D01*
X124067512Y-119434800D01*
X125811731Y-119434800D01*
X125801257Y-119368673D01*
X125801257Y-119368670D01*
X125735595Y-119166582D01*
X125639120Y-118977242D01*
X125514227Y-118805340D01*
X125514223Y-118805335D01*
X125363964Y-118655076D01*
X125363959Y-118655072D01*
X125192055Y-118530177D01*
X125183000Y-118525563D01*
X125132206Y-118477588D01*
X125115412Y-118409766D01*
X125137951Y-118343632D01*
X125183008Y-118304593D01*
X125192316Y-118299851D01*
X125254093Y-118254967D01*
X125368234Y-118172041D01*
X125368864Y-118172908D01*
X125427919Y-118146441D01*
X125444700Y-118145300D01*
X146605742Y-118145300D01*
X146636766Y-118139128D01*
X146702388Y-118126075D01*
X146799036Y-118106851D01*
X146852365Y-118084761D01*
X146981114Y-118031432D01*
X147144982Y-117921939D01*
X147284339Y-117782582D01*
X147284340Y-117782579D01*
X147291406Y-117775514D01*
X147291409Y-117775510D01*
X161673778Y-103393141D01*
X161673782Y-103393139D01*
X161813139Y-103253782D01*
X161922632Y-103089914D01*
X161934329Y-103061676D01*
X161998049Y-102907839D01*
X161998051Y-102907835D01*
X162036500Y-102714541D01*
X162036500Y-98382781D01*
X162056185Y-98315742D01*
X162072815Y-98295104D01*
X162816778Y-97551141D01*
X162816782Y-97551139D01*
X162956139Y-97411782D01*
X163065632Y-97247914D01*
X163141051Y-97065835D01*
X163179500Y-96872541D01*
X163179500Y-94390889D01*
X163188144Y-94361448D01*
X163194668Y-94331462D01*
X163198422Y-94326446D01*
X163199185Y-94323850D01*
X163215819Y-94303208D01*
X163264208Y-94254819D01*
X163325531Y-94221334D01*
X163351889Y-94218500D01*
X165833542Y-94218500D01*
X165847817Y-94215660D01*
X165930188Y-94199275D01*
X166026836Y-94180051D01*
X166107825Y-94146504D01*
X166156510Y-94126337D01*
X166203960Y-94116900D01*
X169314570Y-94116900D01*
X169381609Y-94136585D01*
X169427364Y-94189389D01*
X169437308Y-94258547D01*
X169408283Y-94322103D01*
X169357903Y-94357082D01*
X169341913Y-94363045D01*
X169341906Y-94363049D01*
X169226812Y-94449209D01*
X169226809Y-94449212D01*
X169140649Y-94564306D01*
X169140645Y-94564313D01*
X169090403Y-94699020D01*
X169090401Y-94699027D01*
X169084000Y-94758555D01*
X169084000Y-95406400D01*
X170000988Y-95406400D01*
X169968075Y-95463407D01*
X169934000Y-95590574D01*
X169934000Y-95722226D01*
X169968075Y-95849393D01*
X170000988Y-95906400D01*
X169084000Y-95906400D01*
X169084000Y-96554244D01*
X169090401Y-96613772D01*
X169090403Y-96613779D01*
X169140645Y-96748486D01*
X169140649Y-96748493D01*
X169226809Y-96863587D01*
X169226812Y-96863590D01*
X169341906Y-96949750D01*
X169341913Y-96949754D01*
X169476620Y-96999996D01*
X169476627Y-96999998D01*
X169536155Y-97006399D01*
X169536172Y-97006400D01*
X170184000Y-97006400D01*
X170184000Y-96089412D01*
X170241007Y-96122325D01*
X170368174Y-96156400D01*
X170499826Y-96156400D01*
X170626993Y-96122325D01*
X170684000Y-96089412D01*
X170684000Y-97006400D01*
X171331828Y-97006400D01*
X171331844Y-97006399D01*
X171391372Y-96999998D01*
X171391379Y-96999996D01*
X171526086Y-96949754D01*
X171526093Y-96949750D01*
X171641187Y-96863590D01*
X171641190Y-96863587D01*
X171727350Y-96748493D01*
X171727354Y-96748486D01*
X171777596Y-96613779D01*
X171777598Y-96613772D01*
X171783999Y-96554244D01*
X171784000Y-96554227D01*
X171784000Y-95906400D01*
X170867012Y-95906400D01*
X170899925Y-95849393D01*
X170934000Y-95722226D01*
X170934000Y-95590574D01*
X170899925Y-95463407D01*
X170867012Y-95406400D01*
X171784000Y-95406400D01*
X171784000Y-94758572D01*
X171783999Y-94758555D01*
X171777598Y-94699027D01*
X171777596Y-94699020D01*
X171727354Y-94564313D01*
X171727350Y-94564306D01*
X171641190Y-94449212D01*
X171641187Y-94449209D01*
X171526093Y-94363049D01*
X171526088Y-94363046D01*
X171394528Y-94313977D01*
X171338595Y-94272105D01*
X171314178Y-94206641D01*
X171329030Y-94138368D01*
X171350175Y-94110120D01*
X171464104Y-93996192D01*
X171525271Y-93912003D01*
X171547402Y-93881541D01*
X171589051Y-93824216D01*
X171685557Y-93634812D01*
X171751246Y-93432643D01*
X171784500Y-93222687D01*
X171784500Y-93010113D01*
X171751246Y-92800157D01*
X171685557Y-92597988D01*
X171589051Y-92408584D01*
X171589049Y-92408581D01*
X171589048Y-92408579D01*
X171464109Y-92236613D01*
X171313786Y-92086290D01*
X171141820Y-91961351D01*
X171141115Y-91960991D01*
X171133054Y-91956885D01*
X171082259Y-91908912D01*
X171065463Y-91841092D01*
X171087999Y-91774956D01*
X171133054Y-91735915D01*
X171141816Y-91731451D01*
X171164411Y-91715035D01*
X171313786Y-91606509D01*
X171313788Y-91606506D01*
X171313792Y-91606504D01*
X171464104Y-91456192D01*
X171464106Y-91456188D01*
X171464109Y-91456186D01*
X171589048Y-91284220D01*
X171589047Y-91284220D01*
X171589051Y-91284216D01*
X171685557Y-91094812D01*
X171751246Y-90892643D01*
X171784500Y-90682687D01*
X171784500Y-90470113D01*
X171751246Y-90260157D01*
X171685557Y-90057988D01*
X171589051Y-89868584D01*
X171589049Y-89868581D01*
X171589048Y-89868579D01*
X171464109Y-89696613D01*
X171313786Y-89546290D01*
X171141820Y-89421351D01*
X171141115Y-89420991D01*
X171133054Y-89416885D01*
X171082259Y-89368912D01*
X171065463Y-89301092D01*
X171087999Y-89234956D01*
X171133054Y-89195915D01*
X171141816Y-89191451D01*
X171216824Y-89136955D01*
X171313786Y-89066509D01*
X171313788Y-89066506D01*
X171313792Y-89066504D01*
X171464104Y-88916192D01*
X171464106Y-88916188D01*
X171464109Y-88916186D01*
X171589048Y-88744220D01*
X171589047Y-88744220D01*
X171589051Y-88744216D01*
X171685557Y-88554812D01*
X171751246Y-88352643D01*
X171784500Y-88142687D01*
X171784500Y-87930113D01*
X171751246Y-87720157D01*
X171685557Y-87517988D01*
X171589051Y-87328584D01*
X171589049Y-87328581D01*
X171589048Y-87328579D01*
X171464109Y-87156613D01*
X171313786Y-87006290D01*
X171141820Y-86881351D01*
X170952414Y-86784844D01*
X170952413Y-86784843D01*
X170952412Y-86784843D01*
X170750243Y-86719154D01*
X170750241Y-86719153D01*
X170750240Y-86719153D01*
X170588957Y-86693608D01*
X170540287Y-86685900D01*
X170327713Y-86685900D01*
X170279042Y-86693608D01*
X170117760Y-86719153D01*
X169915585Y-86784844D01*
X169726179Y-86881351D01*
X169550266Y-87009159D01*
X169549635Y-87008291D01*
X169490581Y-87034759D01*
X169473800Y-87035900D01*
X146541183Y-87035900D01*
X146474144Y-87016215D01*
X146453502Y-86999581D01*
X142320999Y-82867078D01*
X142287514Y-82805755D01*
X142292498Y-82736063D01*
X142308362Y-82706512D01*
X142379048Y-82609220D01*
X142379047Y-82609220D01*
X142379051Y-82609216D01*
X142383514Y-82600454D01*
X142431488Y-82549659D01*
X142499308Y-82532863D01*
X142565444Y-82555399D01*
X142604486Y-82600456D01*
X142608951Y-82609220D01*
X142733890Y-82781186D01*
X142884213Y-82931509D01*
X143056179Y-83056448D01*
X143056181Y-83056449D01*
X143056184Y-83056451D01*
X143245588Y-83152957D01*
X143447757Y-83218646D01*
X143657713Y-83251900D01*
X143657714Y-83251900D01*
X143870286Y-83251900D01*
X143870287Y-83251900D01*
X144080243Y-83218646D01*
X144282412Y-83152957D01*
X144471816Y-83056451D01*
X144521761Y-83020164D01*
X144643786Y-82931509D01*
X144643788Y-82931506D01*
X144643792Y-82931504D01*
X144794104Y-82781192D01*
X144794106Y-82781188D01*
X144794109Y-82781186D01*
X144919048Y-82609220D01*
X144919051Y-82609216D01*
X144923793Y-82599908D01*
X144971763Y-82549111D01*
X145039583Y-82532311D01*
X145105719Y-82554845D01*
X145144763Y-82599900D01*
X145149377Y-82608955D01*
X145274272Y-82780859D01*
X145274276Y-82780864D01*
X145424535Y-82931123D01*
X145424540Y-82931127D01*
X145596442Y-83056020D01*
X145785782Y-83152495D01*
X145987871Y-83218157D01*
X146054000Y-83228631D01*
X146054000Y-81484412D01*
X146111007Y-81517325D01*
X146238174Y-81551400D01*
X146369826Y-81551400D01*
X146496993Y-81517325D01*
X146554000Y-81484412D01*
X146554000Y-83228630D01*
X146620126Y-83218157D01*
X146620129Y-83218157D01*
X146822217Y-83152495D01*
X147011557Y-83056020D01*
X147183459Y-82931127D01*
X147183464Y-82931123D01*
X147333723Y-82780864D01*
X147333727Y-82780859D01*
X147458620Y-82608957D01*
X147555095Y-82419617D01*
X147620757Y-82217530D01*
X147620757Y-82217527D01*
X147654000Y-82007646D01*
X147654000Y-81301400D01*
X146737012Y-81301400D01*
X146769925Y-81244393D01*
X146804000Y-81117226D01*
X146804000Y-80985574D01*
X146769925Y-80858407D01*
X146737012Y-80801400D01*
X147654000Y-80801400D01*
X147654000Y-80095153D01*
X147620757Y-79885272D01*
X147620757Y-79885269D01*
X147555095Y-79683182D01*
X147458620Y-79493842D01*
X147333727Y-79321940D01*
X147333723Y-79321935D01*
X147183464Y-79171676D01*
X147183459Y-79171672D01*
X147011557Y-79046779D01*
X146822215Y-78950303D01*
X146620124Y-78884641D01*
X146554000Y-78874168D01*
X146554000Y-80618388D01*
X146496993Y-80585475D01*
X146369826Y-80551400D01*
X146238174Y-80551400D01*
X146111007Y-80585475D01*
X146054000Y-80618388D01*
X146054000Y-78874168D01*
X146053999Y-78874168D01*
X145987875Y-78884641D01*
X145785784Y-78950303D01*
X145596442Y-79046779D01*
X145424540Y-79171672D01*
X145424535Y-79171676D01*
X145274276Y-79321935D01*
X145274272Y-79321940D01*
X145149378Y-79493843D01*
X145144762Y-79502902D01*
X145096784Y-79553695D01*
X145028963Y-79570487D01*
X144962829Y-79547946D01*
X144923794Y-79502893D01*
X144919051Y-79493584D01*
X144919049Y-79493581D01*
X144919048Y-79493579D01*
X144794109Y-79321613D01*
X144643786Y-79171290D01*
X144471820Y-79046351D01*
X144282414Y-78949844D01*
X144282413Y-78949843D01*
X144282412Y-78949843D01*
X144080243Y-78884154D01*
X144080241Y-78884153D01*
X144080240Y-78884153D01*
X143918957Y-78858608D01*
X143870287Y-78850900D01*
X143657713Y-78850900D01*
X143609042Y-78858608D01*
X143447760Y-78884153D01*
X143245585Y-78949844D01*
X143056179Y-79046351D01*
X142884213Y-79171290D01*
X142733890Y-79321613D01*
X142608949Y-79493582D01*
X142604484Y-79502346D01*
X142556509Y-79553142D01*
X142488688Y-79569936D01*
X142422553Y-79547398D01*
X142383516Y-79502346D01*
X142379050Y-79493582D01*
X142254109Y-79321613D01*
X142103786Y-79171290D01*
X141931820Y-79046351D01*
X141742414Y-78949844D01*
X141742413Y-78949843D01*
X141742412Y-78949843D01*
X141540243Y-78884154D01*
X141540241Y-78884153D01*
X141540240Y-78884153D01*
X141378957Y-78858608D01*
X141330287Y-78850900D01*
X141117713Y-78850900D01*
X141069042Y-78858608D01*
X140907760Y-78884153D01*
X140705585Y-78949844D01*
X140516179Y-79046351D01*
X140344213Y-79171290D01*
X140193890Y-79321613D01*
X140068949Y-79493582D01*
X140064484Y-79502346D01*
X140016509Y-79553142D01*
X139948688Y-79569936D01*
X139882553Y-79547398D01*
X139843516Y-79502346D01*
X139839050Y-79493582D01*
X139714109Y-79321613D01*
X139563786Y-79171290D01*
X139391820Y-79046351D01*
X139202414Y-78949844D01*
X139202413Y-78949843D01*
X139202412Y-78949843D01*
X139000243Y-78884154D01*
X139000241Y-78884153D01*
X139000240Y-78884153D01*
X138838957Y-78858608D01*
X138790287Y-78850900D01*
X138577713Y-78850900D01*
X138529042Y-78858608D01*
X138367760Y-78884153D01*
X138165585Y-78949844D01*
X137976179Y-79046351D01*
X137804213Y-79171290D01*
X137653890Y-79321613D01*
X137528949Y-79493582D01*
X137524484Y-79502346D01*
X137476509Y-79553142D01*
X137408688Y-79569936D01*
X137342553Y-79547398D01*
X137303516Y-79502346D01*
X137299050Y-79493582D01*
X137174109Y-79321613D01*
X137023786Y-79171290D01*
X136851820Y-79046351D01*
X136662414Y-78949844D01*
X136662413Y-78949843D01*
X136662412Y-78949843D01*
X136460243Y-78884154D01*
X136460241Y-78884153D01*
X136460240Y-78884153D01*
X136298957Y-78858608D01*
X136250287Y-78850900D01*
X136037713Y-78850900D01*
X135989042Y-78858608D01*
X135827760Y-78884153D01*
X135625585Y-78949844D01*
X135436179Y-79046351D01*
X135264213Y-79171290D01*
X135113890Y-79321613D01*
X134988949Y-79493582D01*
X134984484Y-79502346D01*
X134936509Y-79553142D01*
X134868688Y-79569936D01*
X134802553Y-79547398D01*
X134763516Y-79502346D01*
X134759050Y-79493582D01*
X134634109Y-79321613D01*
X134483786Y-79171290D01*
X134311820Y-79046351D01*
X134122414Y-78949844D01*
X134122413Y-78949843D01*
X134122412Y-78949843D01*
X133920243Y-78884154D01*
X133920241Y-78884153D01*
X133920240Y-78884153D01*
X133758957Y-78858608D01*
X133710287Y-78850900D01*
X133497713Y-78850900D01*
X133449042Y-78858608D01*
X133287760Y-78884153D01*
X133085585Y-78949844D01*
X132896179Y-79046351D01*
X132724213Y-79171290D01*
X132573890Y-79321613D01*
X132448949Y-79493582D01*
X132444202Y-79502899D01*
X132396227Y-79553693D01*
X132328405Y-79570487D01*
X132262271Y-79547948D01*
X132223234Y-79502895D01*
X132218622Y-79493844D01*
X132093727Y-79321940D01*
X132093723Y-79321935D01*
X131943464Y-79171676D01*
X131943459Y-79171672D01*
X131771557Y-79046779D01*
X131582215Y-78950303D01*
X131380124Y-78884641D01*
X131314000Y-78874168D01*
X131314000Y-80618388D01*
X131256993Y-80585475D01*
X131129826Y-80551400D01*
X130998174Y-80551400D01*
X130871007Y-80585475D01*
X130814000Y-80618388D01*
X130814000Y-78874168D01*
X130813999Y-78874168D01*
X130747875Y-78884641D01*
X130545784Y-78950303D01*
X130356442Y-79046779D01*
X130184540Y-79171672D01*
X130184535Y-79171676D01*
X130034276Y-79321935D01*
X130034272Y-79321940D01*
X129909378Y-79493843D01*
X129904762Y-79502902D01*
X129856784Y-79553695D01*
X129788963Y-79570487D01*
X129722829Y-79547946D01*
X129683794Y-79502893D01*
X129679051Y-79493584D01*
X129679049Y-79493581D01*
X129679048Y-79493579D01*
X129554109Y-79321613D01*
X129403786Y-79171290D01*
X129231820Y-79046351D01*
X129042414Y-78949844D01*
X129042413Y-78949843D01*
X129042412Y-78949843D01*
X128840243Y-78884154D01*
X128840241Y-78884153D01*
X128840240Y-78884153D01*
X128678957Y-78858608D01*
X128630287Y-78850900D01*
X128417713Y-78850900D01*
X128369042Y-78858608D01*
X128207760Y-78884153D01*
X128005585Y-78949844D01*
X127816179Y-79046351D01*
X127644213Y-79171290D01*
X127493890Y-79321613D01*
X127368949Y-79493582D01*
X127364484Y-79502346D01*
X127316509Y-79553142D01*
X127248688Y-79569936D01*
X127182553Y-79547398D01*
X127143516Y-79502346D01*
X127139050Y-79493582D01*
X127014109Y-79321613D01*
X126863786Y-79171290D01*
X126691820Y-79046351D01*
X126502414Y-78949844D01*
X126502413Y-78949843D01*
X126502412Y-78949843D01*
X126300243Y-78884154D01*
X126300241Y-78884153D01*
X126300240Y-78884153D01*
X126138957Y-78858608D01*
X126090287Y-78850900D01*
X125877713Y-78850900D01*
X125829042Y-78858608D01*
X125667760Y-78884153D01*
X125465585Y-78949844D01*
X125276179Y-79046351D01*
X125104213Y-79171290D01*
X124953890Y-79321613D01*
X124828949Y-79493582D01*
X124824484Y-79502346D01*
X124776509Y-79553142D01*
X124708688Y-79569936D01*
X124642553Y-79547398D01*
X124603516Y-79502346D01*
X124599050Y-79493582D01*
X124474109Y-79321613D01*
X124323786Y-79171290D01*
X124151820Y-79046351D01*
X123962414Y-78949844D01*
X123962413Y-78949843D01*
X123962412Y-78949843D01*
X123760243Y-78884154D01*
X123760241Y-78884153D01*
X123760240Y-78884153D01*
X123598957Y-78858608D01*
X123550287Y-78850900D01*
X123337713Y-78850900D01*
X123289042Y-78858608D01*
X123127760Y-78884153D01*
X122925585Y-78949844D01*
X122736179Y-79046351D01*
X122564213Y-79171290D01*
X122413890Y-79321613D01*
X122288949Y-79493582D01*
X122284484Y-79502346D01*
X122236509Y-79553142D01*
X122168688Y-79569936D01*
X122102553Y-79547398D01*
X122063516Y-79502346D01*
X122059050Y-79493582D01*
X121934109Y-79321613D01*
X121783786Y-79171290D01*
X121611820Y-79046351D01*
X121422414Y-78949844D01*
X121422413Y-78949843D01*
X121422412Y-78949843D01*
X121220243Y-78884154D01*
X121220241Y-78884153D01*
X121220240Y-78884153D01*
X121058957Y-78858608D01*
X121010287Y-78850900D01*
X120797713Y-78850900D01*
X120749042Y-78858608D01*
X120587760Y-78884153D01*
X120385585Y-78949844D01*
X120196179Y-79046351D01*
X120024213Y-79171290D01*
X119873890Y-79321613D01*
X119748949Y-79493582D01*
X119744484Y-79502346D01*
X119696509Y-79553142D01*
X119628688Y-79569936D01*
X119562553Y-79547398D01*
X119523516Y-79502346D01*
X119519050Y-79493582D01*
X119394109Y-79321613D01*
X119243786Y-79171290D01*
X119071820Y-79046351D01*
X118882414Y-78949844D01*
X118882413Y-78949843D01*
X118882412Y-78949843D01*
X118680243Y-78884154D01*
X118680241Y-78884153D01*
X118680240Y-78884153D01*
X118518957Y-78858608D01*
X118470287Y-78850900D01*
X118257713Y-78850900D01*
X118209042Y-78858608D01*
X118047760Y-78884153D01*
X117845585Y-78949844D01*
X117656179Y-79046351D01*
X117484213Y-79171290D01*
X117333890Y-79321613D01*
X117208949Y-79493582D01*
X117204484Y-79502346D01*
X117156509Y-79553142D01*
X117088688Y-79569936D01*
X117022553Y-79547398D01*
X116983516Y-79502346D01*
X116979050Y-79493582D01*
X116854109Y-79321613D01*
X116703786Y-79171290D01*
X116531820Y-79046351D01*
X116342414Y-78949844D01*
X116342413Y-78949843D01*
X116342412Y-78949843D01*
X116140243Y-78884154D01*
X116140241Y-78884153D01*
X116140240Y-78884153D01*
X115978957Y-78858608D01*
X115930287Y-78850900D01*
X115717713Y-78850900D01*
X115669042Y-78858608D01*
X115507760Y-78884153D01*
X115305585Y-78949844D01*
X115116179Y-79046351D01*
X114944213Y-79171290D01*
X114793890Y-79321613D01*
X114668949Y-79493582D01*
X114664484Y-79502346D01*
X114616509Y-79553142D01*
X114548688Y-79569936D01*
X114482553Y-79547398D01*
X114443516Y-79502346D01*
X114439050Y-79493582D01*
X114314109Y-79321613D01*
X114163786Y-79171290D01*
X113991820Y-79046351D01*
X113802414Y-78949844D01*
X113802413Y-78949843D01*
X113802412Y-78949843D01*
X113600243Y-78884154D01*
X113600241Y-78884153D01*
X113600240Y-78884153D01*
X113438957Y-78858608D01*
X113390287Y-78850900D01*
X113177713Y-78850900D01*
X113129042Y-78858608D01*
X112967760Y-78884153D01*
X112765585Y-78949844D01*
X112576179Y-79046351D01*
X112404213Y-79171290D01*
X112253890Y-79321613D01*
X112128949Y-79493582D01*
X112124484Y-79502346D01*
X112076509Y-79553142D01*
X112008688Y-79569936D01*
X111942553Y-79547398D01*
X111903516Y-79502346D01*
X111899050Y-79493582D01*
X111774109Y-79321613D01*
X111623786Y-79171290D01*
X111451820Y-79046351D01*
X111262414Y-78949844D01*
X111262413Y-78949843D01*
X111262412Y-78949843D01*
X111060243Y-78884154D01*
X111060241Y-78884153D01*
X111060240Y-78884153D01*
X110898957Y-78858608D01*
X110850287Y-78850900D01*
X110637713Y-78850900D01*
X110589042Y-78858608D01*
X110427760Y-78884153D01*
X110225585Y-78949844D01*
X110036179Y-79046351D01*
X109864213Y-79171290D01*
X109713890Y-79321613D01*
X109588949Y-79493582D01*
X109584484Y-79502346D01*
X109536509Y-79553142D01*
X109468688Y-79569936D01*
X109402553Y-79547398D01*
X109363516Y-79502346D01*
X109359050Y-79493582D01*
X109234109Y-79321613D01*
X109083786Y-79171290D01*
X108911820Y-79046351D01*
X108722414Y-78949844D01*
X108722413Y-78949843D01*
X108722412Y-78949843D01*
X108520243Y-78884154D01*
X108520241Y-78884153D01*
X108520240Y-78884153D01*
X108358957Y-78858608D01*
X108310287Y-78850900D01*
X108097713Y-78850900D01*
X108049042Y-78858608D01*
X107887760Y-78884153D01*
X107685585Y-78949844D01*
X107496179Y-79046351D01*
X107324213Y-79171290D01*
X107173890Y-79321613D01*
X107048949Y-79493582D01*
X107044484Y-79502346D01*
X106996509Y-79553142D01*
X106928688Y-79569936D01*
X106862553Y-79547398D01*
X106823516Y-79502346D01*
X106819050Y-79493582D01*
X106694109Y-79321613D01*
X106543786Y-79171290D01*
X106371820Y-79046351D01*
X106182414Y-78949844D01*
X106182413Y-78949843D01*
X106182412Y-78949843D01*
X105980243Y-78884154D01*
X105980241Y-78884153D01*
X105980240Y-78884153D01*
X105818957Y-78858608D01*
X105770287Y-78850900D01*
X105557713Y-78850900D01*
X105509042Y-78858608D01*
X105347760Y-78884153D01*
X105145585Y-78949844D01*
X104956179Y-79046351D01*
X104784213Y-79171290D01*
X104633890Y-79321613D01*
X104508949Y-79493582D01*
X104504484Y-79502346D01*
X104456509Y-79553142D01*
X104388688Y-79569936D01*
X104322553Y-79547398D01*
X104283516Y-79502346D01*
X104279050Y-79493582D01*
X104154109Y-79321613D01*
X104003786Y-79171290D01*
X103831820Y-79046351D01*
X103642414Y-78949844D01*
X103642413Y-78949843D01*
X103642412Y-78949843D01*
X103440243Y-78884154D01*
X103440241Y-78884153D01*
X103440240Y-78884153D01*
X103278957Y-78858608D01*
X103230287Y-78850900D01*
X103017713Y-78850900D01*
X102969042Y-78858608D01*
X102807760Y-78884153D01*
X102605585Y-78949844D01*
X102416179Y-79046351D01*
X102244213Y-79171290D01*
X102093890Y-79321613D01*
X101968949Y-79493582D01*
X101964484Y-79502346D01*
X101916509Y-79553142D01*
X101848688Y-79569936D01*
X101782553Y-79547398D01*
X101743516Y-79502346D01*
X101739050Y-79493582D01*
X101614109Y-79321613D01*
X101463786Y-79171290D01*
X101291820Y-79046351D01*
X101102414Y-78949844D01*
X101102413Y-78949843D01*
X101102412Y-78949843D01*
X100900243Y-78884154D01*
X100900241Y-78884153D01*
X100900240Y-78884153D01*
X100738957Y-78858608D01*
X100690287Y-78850900D01*
X100477713Y-78850900D01*
X100429042Y-78858608D01*
X100267760Y-78884153D01*
X100065585Y-78949844D01*
X99876179Y-79046351D01*
X99704213Y-79171290D01*
X99553890Y-79321613D01*
X99428949Y-79493582D01*
X99424484Y-79502346D01*
X99376509Y-79553142D01*
X99308688Y-79569936D01*
X99242553Y-79547398D01*
X99203516Y-79502346D01*
X99199050Y-79493582D01*
X99074109Y-79321613D01*
X98923786Y-79171290D01*
X98751820Y-79046351D01*
X98562414Y-78949844D01*
X98562413Y-78949843D01*
X98562412Y-78949843D01*
X98360243Y-78884154D01*
X98360241Y-78884153D01*
X98360240Y-78884153D01*
X98198957Y-78858608D01*
X98150287Y-78850900D01*
X97937713Y-78850900D01*
X97889042Y-78858608D01*
X97727760Y-78884153D01*
X97525585Y-78949844D01*
X97336179Y-79046351D01*
X97164213Y-79171290D01*
X97013890Y-79321613D01*
X96888951Y-79493579D01*
X96792444Y-79682985D01*
X96726753Y-79885160D01*
X96693500Y-80095113D01*
X96693500Y-82007686D01*
X96726735Y-82217527D01*
X96726754Y-82217643D01*
X96765931Y-82338218D01*
X96792444Y-82419814D01*
X96888951Y-82609220D01*
X97013890Y-82781186D01*
X97164213Y-82931509D01*
X97336179Y-83056448D01*
X97336181Y-83056449D01*
X97336184Y-83056451D01*
X97525588Y-83152957D01*
X97727757Y-83218646D01*
X97937713Y-83251900D01*
X97937714Y-83251900D01*
X98150286Y-83251900D01*
X98150287Y-83251900D01*
X98360243Y-83218646D01*
X98562412Y-83152957D01*
X98751816Y-83056451D01*
X98801761Y-83020164D01*
X98923786Y-82931509D01*
X98923788Y-82931506D01*
X98923792Y-82931504D01*
X99074104Y-82781192D01*
X99074106Y-82781188D01*
X99074109Y-82781186D01*
X99199048Y-82609220D01*
X99199047Y-82609220D01*
X99199051Y-82609216D01*
X99203514Y-82600454D01*
X99251488Y-82549659D01*
X99319308Y-82532863D01*
X99385444Y-82555399D01*
X99424486Y-82600456D01*
X99428951Y-82609220D01*
X99553890Y-82781186D01*
X99704213Y-82931509D01*
X99876179Y-83056448D01*
X99876181Y-83056449D01*
X99876184Y-83056451D01*
X100065588Y-83152957D01*
X100267757Y-83218646D01*
X100477713Y-83251900D01*
X100477714Y-83251900D01*
X100690286Y-83251900D01*
X100690287Y-83251900D01*
X100900243Y-83218646D01*
X101102412Y-83152957D01*
X101291816Y-83056451D01*
X101341761Y-83020164D01*
X101463786Y-82931509D01*
X101463788Y-82931506D01*
X101463792Y-82931504D01*
X101614104Y-82781192D01*
X101614106Y-82781188D01*
X101614109Y-82781186D01*
X101739048Y-82609220D01*
X101739047Y-82609220D01*
X101739051Y-82609216D01*
X101743514Y-82600454D01*
X101791488Y-82549659D01*
X101859308Y-82532863D01*
X101925444Y-82555399D01*
X101964486Y-82600456D01*
X101968951Y-82609220D01*
X102093890Y-82781186D01*
X102244213Y-82931509D01*
X102416179Y-83056448D01*
X102416181Y-83056449D01*
X102416184Y-83056451D01*
X102605588Y-83152957D01*
X102807757Y-83218646D01*
X103017713Y-83251900D01*
X103017714Y-83251900D01*
X103230286Y-83251900D01*
X103230287Y-83251900D01*
X103440243Y-83218646D01*
X103642412Y-83152957D01*
X103831816Y-83056451D01*
X103881761Y-83020164D01*
X104003786Y-82931509D01*
X104003788Y-82931506D01*
X104003792Y-82931504D01*
X104154104Y-82781192D01*
X104154106Y-82781188D01*
X104154109Y-82781186D01*
X104279048Y-82609220D01*
X104279047Y-82609220D01*
X104279051Y-82609216D01*
X104283514Y-82600454D01*
X104331488Y-82549659D01*
X104399308Y-82532863D01*
X104465444Y-82555399D01*
X104504486Y-82600456D01*
X104508951Y-82609220D01*
X104633890Y-82781186D01*
X104784213Y-82931509D01*
X104956179Y-83056448D01*
X104956181Y-83056449D01*
X104956184Y-83056451D01*
X105145588Y-83152957D01*
X105347757Y-83218646D01*
X105557713Y-83251900D01*
X105557714Y-83251900D01*
X105770286Y-83251900D01*
X105770287Y-83251900D01*
X105980243Y-83218646D01*
X106182412Y-83152957D01*
X106371816Y-83056451D01*
X106421761Y-83020164D01*
X106543786Y-82931509D01*
X106543788Y-82931506D01*
X106543792Y-82931504D01*
X106694104Y-82781192D01*
X106694106Y-82781188D01*
X106694109Y-82781186D01*
X106819048Y-82609220D01*
X106819047Y-82609220D01*
X106819051Y-82609216D01*
X106823514Y-82600454D01*
X106871488Y-82549659D01*
X106939308Y-82532863D01*
X107005444Y-82555399D01*
X107044486Y-82600456D01*
X107048951Y-82609220D01*
X107173890Y-82781186D01*
X107324213Y-82931509D01*
X107496179Y-83056448D01*
X107496181Y-83056449D01*
X107496184Y-83056451D01*
X107685588Y-83152957D01*
X107887757Y-83218646D01*
X108097713Y-83251900D01*
X108097714Y-83251900D01*
X108310286Y-83251900D01*
X108310287Y-83251900D01*
X108520243Y-83218646D01*
X108722412Y-83152957D01*
X108911816Y-83056451D01*
X108961761Y-83020164D01*
X109083786Y-82931509D01*
X109083788Y-82931506D01*
X109083792Y-82931504D01*
X109234104Y-82781192D01*
X109234106Y-82781188D01*
X109234109Y-82781186D01*
X109359048Y-82609220D01*
X109359047Y-82609220D01*
X109359051Y-82609216D01*
X109363514Y-82600454D01*
X109411488Y-82549659D01*
X109479308Y-82532863D01*
X109545444Y-82555399D01*
X109584486Y-82600456D01*
X109588951Y-82609220D01*
X109713890Y-82781186D01*
X109864213Y-82931509D01*
X110036179Y-83056448D01*
X110036181Y-83056449D01*
X110036184Y-83056451D01*
X110225588Y-83152957D01*
X110427757Y-83218646D01*
X110637713Y-83251900D01*
X110637714Y-83251900D01*
X110850286Y-83251900D01*
X110850287Y-83251900D01*
X111060243Y-83218646D01*
X111262412Y-83152957D01*
X111451816Y-83056451D01*
X111501761Y-83020164D01*
X111623786Y-82931509D01*
X111623788Y-82931506D01*
X111623792Y-82931504D01*
X111774104Y-82781192D01*
X111774106Y-82781188D01*
X111774109Y-82781186D01*
X111899048Y-82609220D01*
X111899047Y-82609220D01*
X111899051Y-82609216D01*
X111903514Y-82600454D01*
X111951488Y-82549659D01*
X112019308Y-82532863D01*
X112085444Y-82555399D01*
X112124486Y-82600456D01*
X112128951Y-82609220D01*
X112253890Y-82781186D01*
X112404213Y-82931509D01*
X112576179Y-83056448D01*
X112576181Y-83056449D01*
X112576184Y-83056451D01*
X112765588Y-83152957D01*
X112967757Y-83218646D01*
X113177713Y-83251900D01*
X113177714Y-83251900D01*
X113390286Y-83251900D01*
X113390287Y-83251900D01*
X113600243Y-83218646D01*
X113802412Y-83152957D01*
X113991816Y-83056451D01*
X114041761Y-83020164D01*
X114163786Y-82931509D01*
X114163788Y-82931506D01*
X114163792Y-82931504D01*
X114314104Y-82781192D01*
X114314106Y-82781188D01*
X114314109Y-82781186D01*
X114439048Y-82609220D01*
X114439047Y-82609220D01*
X114439051Y-82609216D01*
X114443514Y-82600454D01*
X114491488Y-82549659D01*
X114559308Y-82532863D01*
X114625444Y-82555399D01*
X114664486Y-82600456D01*
X114668951Y-82609220D01*
X114793890Y-82781186D01*
X114944213Y-82931509D01*
X115116179Y-83056448D01*
X115116181Y-83056449D01*
X115116184Y-83056451D01*
X115305588Y-83152957D01*
X115507757Y-83218646D01*
X115717713Y-83251900D01*
X115717714Y-83251900D01*
X115930286Y-83251900D01*
X115930287Y-83251900D01*
X116140243Y-83218646D01*
X116342412Y-83152957D01*
X116531816Y-83056451D01*
X116581761Y-83020164D01*
X116703786Y-82931509D01*
X116703788Y-82931506D01*
X116703792Y-82931504D01*
X116854104Y-82781192D01*
X116854106Y-82781188D01*
X116854109Y-82781186D01*
X116979048Y-82609220D01*
X116979047Y-82609220D01*
X116979051Y-82609216D01*
X116983514Y-82600454D01*
X117031488Y-82549659D01*
X117099308Y-82532863D01*
X117165444Y-82555399D01*
X117204486Y-82600456D01*
X117208951Y-82609220D01*
X117336759Y-82785134D01*
X117335888Y-82785766D01*
X117362357Y-82844801D01*
X117363500Y-82861599D01*
X117363500Y-84121741D01*
X117363500Y-84121743D01*
X117363499Y-84121743D01*
X117401947Y-84315029D01*
X117401950Y-84315039D01*
X117477364Y-84497107D01*
X117477371Y-84497120D01*
X117586859Y-84660980D01*
X117586860Y-84660981D01*
X117586861Y-84660982D01*
X117726218Y-84800339D01*
X117726219Y-84800339D01*
X117733286Y-84807406D01*
X117733285Y-84807406D01*
X117733289Y-84807409D01*
X117936781Y-85010901D01*
X117970266Y-85072224D01*
X117973100Y-85098582D01*
X117973100Y-99748817D01*
X117953415Y-99815856D01*
X117900611Y-99861611D01*
X117831453Y-99871555D01*
X117767897Y-99842530D01*
X117761419Y-99836498D01*
X103324009Y-85399089D01*
X103324006Y-85399085D01*
X103324006Y-85399086D01*
X103316939Y-85392019D01*
X103316939Y-85392018D01*
X103177582Y-85252661D01*
X103177581Y-85252660D01*
X103177580Y-85252659D01*
X103013720Y-85143171D01*
X103013711Y-85143166D01*
X102930114Y-85108539D01*
X102884965Y-85089838D01*
X102831636Y-85067749D01*
X102676206Y-85036832D01*
X102672740Y-85036142D01*
X102672738Y-85036142D01*
X102638342Y-85029300D01*
X102638341Y-85029300D01*
X98306582Y-85029300D01*
X98239543Y-85009615D01*
X98218901Y-84992981D01*
X95651819Y-82425899D01*
X95618334Y-82364576D01*
X95615500Y-82338218D01*
X95615500Y-74760782D01*
X95635185Y-74693743D01*
X95651819Y-74673101D01*
X105534101Y-64790819D01*
X105595424Y-64757334D01*
X105621782Y-64754500D01*
X115414542Y-64754500D01*
X115445566Y-64748328D01*
X115511188Y-64735275D01*
X115607836Y-64716051D01*
X115661165Y-64693961D01*
X115789914Y-64640632D01*
X115953782Y-64531139D01*
X116093139Y-64391782D01*
X116093139Y-64391780D01*
X116103347Y-64381573D01*
X116103348Y-64381570D01*
X121681139Y-58803782D01*
X121681984Y-58802517D01*
X121790632Y-58639914D01*
X121866051Y-58457835D01*
X121904500Y-58264541D01*
X121904500Y-56191599D01*
X121924185Y-56124560D01*
X121933471Y-56112064D01*
X122059048Y-55939220D01*
X122059047Y-55939220D01*
X122059051Y-55939216D01*
X122063514Y-55930454D01*
X122111488Y-55879659D01*
X122179308Y-55862863D01*
X122245444Y-55885399D01*
X122284486Y-55930456D01*
X122288951Y-55939220D01*
X122413890Y-56111186D01*
X122564213Y-56261509D01*
X122736179Y-56386448D01*
X122736181Y-56386449D01*
X122736184Y-56386451D01*
X122925588Y-56482957D01*
X123127757Y-56548646D01*
X123337713Y-56581900D01*
X123337714Y-56581900D01*
X123550286Y-56581900D01*
X123550287Y-56581900D01*
X123760243Y-56548646D01*
X123962412Y-56482957D01*
X124151816Y-56386451D01*
X124238138Y-56323735D01*
X124323786Y-56261509D01*
X124323788Y-56261506D01*
X124323792Y-56261504D01*
X124474104Y-56111192D01*
X124474106Y-56111188D01*
X124474109Y-56111186D01*
X124599048Y-55939220D01*
X124599047Y-55939220D01*
X124599051Y-55939216D01*
X124603514Y-55930454D01*
X124651488Y-55879659D01*
X124719308Y-55862863D01*
X124785444Y-55885399D01*
X124824486Y-55930456D01*
X124828951Y-55939220D01*
X124953890Y-56111186D01*
X125104213Y-56261509D01*
X125276179Y-56386448D01*
X125276181Y-56386449D01*
X125276184Y-56386451D01*
X125465588Y-56482957D01*
X125667757Y-56548646D01*
X125877713Y-56581900D01*
X125877714Y-56581900D01*
X126090286Y-56581900D01*
X126090287Y-56581900D01*
X126300243Y-56548646D01*
X126502412Y-56482957D01*
X126691816Y-56386451D01*
X126778138Y-56323735D01*
X126863786Y-56261509D01*
X126863788Y-56261506D01*
X126863792Y-56261504D01*
X127014104Y-56111192D01*
X127014106Y-56111188D01*
X127014109Y-56111186D01*
X127139048Y-55939220D01*
X127139047Y-55939220D01*
X127139051Y-55939216D01*
X127143514Y-55930454D01*
X127191488Y-55879659D01*
X127259308Y-55862863D01*
X127325444Y-55885399D01*
X127364486Y-55930456D01*
X127368951Y-55939220D01*
X127496759Y-56115134D01*
X127495888Y-56115766D01*
X127522357Y-56174801D01*
X127523500Y-56191599D01*
X127523500Y-58264541D01*
X127523500Y-58264543D01*
X127523499Y-58264543D01*
X127561947Y-58457829D01*
X127561950Y-58457839D01*
X127637364Y-58639907D01*
X127637371Y-58639920D01*
X127746859Y-58803780D01*
X127746860Y-58803781D01*
X127746861Y-58803782D01*
X127886218Y-58943139D01*
X127886220Y-58943141D01*
X150238215Y-81295137D01*
X150238219Y-81295140D01*
X150402079Y-81404628D01*
X150402085Y-81404631D01*
X150402086Y-81404632D01*
X150584165Y-81480052D01*
X150771548Y-81517325D01*
X150777455Y-81518500D01*
X150777458Y-81518501D01*
X150777460Y-81518501D01*
X150980655Y-81518501D01*
X150980675Y-81518500D01*
X154910111Y-81518500D01*
X154977150Y-81538185D01*
X154997792Y-81554819D01*
X155105490Y-81662517D01*
X155296567Y-81801343D01*
X155395991Y-81852002D01*
X155507003Y-81908566D01*
X155507005Y-81908566D01*
X155507008Y-81908568D01*
X155627412Y-81947689D01*
X155731631Y-81981553D01*
X155964903Y-82018500D01*
X155964908Y-82018500D01*
X156201097Y-82018500D01*
X156434368Y-81981553D01*
X156658992Y-81908568D01*
X156869433Y-81801343D01*
X157060510Y-81662517D01*
X157227517Y-81495510D01*
X157366343Y-81304433D01*
X157473568Y-81093992D01*
X157546553Y-80869368D01*
X157566482Y-80743541D01*
X157583500Y-80636097D01*
X157583500Y-80399902D01*
X157546553Y-80166631D01*
X157488356Y-79987522D01*
X157473568Y-79942008D01*
X157473566Y-79942005D01*
X157473566Y-79942003D01*
X157417002Y-79830991D01*
X157366343Y-79731567D01*
X157227517Y-79540490D01*
X157060510Y-79373483D01*
X156869433Y-79234657D01*
X156745068Y-79171290D01*
X156658996Y-79127433D01*
X156502082Y-79076448D01*
X171673500Y-79076448D01*
X171673500Y-79281151D01*
X171705522Y-79483334D01*
X171768781Y-79678023D01*
X171861713Y-79860410D01*
X171949819Y-79981677D01*
X171973298Y-80047481D01*
X171973500Y-80054561D01*
X171973500Y-80743541D01*
X171983660Y-80794619D01*
X172011949Y-80936836D01*
X172020917Y-80958486D01*
X172024724Y-80967678D01*
X172024726Y-80967684D01*
X172087364Y-81118907D01*
X172087371Y-81118920D01*
X172196859Y-81282780D01*
X172196860Y-81282781D01*
X172196861Y-81282782D01*
X172336218Y-81422139D01*
X172336219Y-81422139D01*
X172343286Y-81429206D01*
X172343285Y-81429206D01*
X172343289Y-81429209D01*
X174604181Y-83690101D01*
X174637666Y-83751424D01*
X174640500Y-83777782D01*
X174640500Y-122601311D01*
X174620815Y-122668350D01*
X174604181Y-122688992D01*
X174496485Y-122796687D01*
X174496485Y-122796688D01*
X174496483Y-122796690D01*
X174436862Y-122878750D01*
X174357657Y-122987766D01*
X174250433Y-123198203D01*
X174177446Y-123422831D01*
X174140500Y-123656102D01*
X174140500Y-123892297D01*
X174177446Y-124125568D01*
X174250433Y-124350196D01*
X174357657Y-124560633D01*
X174496483Y-124751710D01*
X174663490Y-124918717D01*
X174854567Y-125057543D01*
X174953991Y-125108202D01*
X175065003Y-125164766D01*
X175065005Y-125164766D01*
X175065008Y-125164768D01*
X175185412Y-125203889D01*
X175289631Y-125237753D01*
X175522903Y-125274700D01*
X175522908Y-125274700D01*
X175759097Y-125274700D01*
X175992368Y-125237753D01*
X176216992Y-125164768D01*
X176427433Y-125057543D01*
X176618510Y-124918717D01*
X176785517Y-124751710D01*
X176924343Y-124560633D01*
X177031568Y-124350192D01*
X177104553Y-124125568D01*
X177141500Y-123892297D01*
X177141500Y-123656102D01*
X177104553Y-123422831D01*
X177031566Y-123198203D01*
X176924342Y-122987766D01*
X176785517Y-122796690D01*
X176677819Y-122688992D01*
X176644334Y-122627669D01*
X176641500Y-122601311D01*
X176641500Y-83416675D01*
X176641501Y-83416654D01*
X176641501Y-83213457D01*
X176641500Y-83213455D01*
X176629374Y-83152495D01*
X176603052Y-83020165D01*
X176539641Y-82867078D01*
X176527633Y-82838088D01*
X176527628Y-82838079D01*
X176418140Y-82674219D01*
X176418137Y-82674215D01*
X174010819Y-80266897D01*
X173996115Y-80239969D01*
X173979523Y-80214151D01*
X173978631Y-80207950D01*
X173977334Y-80205574D01*
X173974500Y-80179216D01*
X173974500Y-80054561D01*
X173994185Y-79987522D01*
X173998165Y-79981699D01*
X174086287Y-79860410D01*
X174179220Y-79678019D01*
X174242477Y-79483334D01*
X174274500Y-79281152D01*
X174274500Y-79076448D01*
X174254448Y-78949844D01*
X174242477Y-78874265D01*
X174179218Y-78679576D01*
X174145503Y-78613407D01*
X174086287Y-78497190D01*
X174078556Y-78486549D01*
X173965971Y-78331586D01*
X173821213Y-78186828D01*
X173655613Y-78066515D01*
X173655612Y-78066514D01*
X173655610Y-78066513D01*
X173598653Y-78037491D01*
X173473223Y-77973581D01*
X173278534Y-77910322D01*
X173103995Y-77882678D01*
X173076352Y-77878300D01*
X172871648Y-77878300D01*
X172847329Y-77882151D01*
X172669465Y-77910322D01*
X172474776Y-77973581D01*
X172292386Y-78066515D01*
X172126786Y-78186828D01*
X171982028Y-78331586D01*
X171861715Y-78497186D01*
X171768781Y-78679576D01*
X171705522Y-78874265D01*
X171673500Y-79076448D01*
X156502082Y-79076448D01*
X156434368Y-79054446D01*
X156201097Y-79017500D01*
X156201092Y-79017500D01*
X155964908Y-79017500D01*
X155964903Y-79017500D01*
X155731631Y-79054446D01*
X155507003Y-79127433D01*
X155296566Y-79234657D01*
X155232572Y-79281152D01*
X155105490Y-79373483D01*
X155105488Y-79373485D01*
X155105487Y-79373485D01*
X154997792Y-79481181D01*
X154936469Y-79514666D01*
X154910111Y-79517500D01*
X151341783Y-79517500D01*
X151274744Y-79497815D01*
X151254102Y-79481181D01*
X129560819Y-57787898D01*
X129527334Y-57726575D01*
X129524500Y-57700217D01*
X129524500Y-56191599D01*
X129544185Y-56124560D01*
X129553471Y-56112064D01*
X129679048Y-55939220D01*
X129679047Y-55939220D01*
X129679051Y-55939216D01*
X129683514Y-55930454D01*
X129731488Y-55879659D01*
X129799308Y-55862863D01*
X129865444Y-55885399D01*
X129904486Y-55930456D01*
X129908951Y-55939220D01*
X130036759Y-56115134D01*
X130035888Y-56115766D01*
X130062357Y-56174801D01*
X130063500Y-56191599D01*
X130063500Y-57248541D01*
X130063500Y-57248543D01*
X130063499Y-57248543D01*
X130101947Y-57441829D01*
X130101950Y-57441839D01*
X130177364Y-57623907D01*
X130177371Y-57623920D01*
X130286859Y-57787780D01*
X130286860Y-57787781D01*
X130286861Y-57787782D01*
X130426218Y-57927139D01*
X130426219Y-57927139D01*
X130433286Y-57934206D01*
X130433285Y-57934206D01*
X130433289Y-57934209D01*
X150746215Y-78247137D01*
X150746219Y-78247140D01*
X150910079Y-78356628D01*
X150910085Y-78356631D01*
X150910086Y-78356632D01*
X151092165Y-78432052D01*
X151285455Y-78470500D01*
X151285458Y-78470501D01*
X151285460Y-78470501D01*
X151488655Y-78470501D01*
X151488675Y-78470500D01*
X151989111Y-78470500D01*
X152056150Y-78490185D01*
X152076792Y-78506819D01*
X152184490Y-78614517D01*
X152375567Y-78753343D01*
X152474991Y-78804002D01*
X152586003Y-78860566D01*
X152586005Y-78860566D01*
X152586008Y-78860568D01*
X152658595Y-78884153D01*
X152810631Y-78933553D01*
X153043903Y-78970500D01*
X153043908Y-78970500D01*
X153280097Y-78970500D01*
X153513368Y-78933553D01*
X153737992Y-78860568D01*
X153948433Y-78753343D01*
X154139510Y-78614517D01*
X154306517Y-78447510D01*
X154445343Y-78256433D01*
X154552568Y-78045992D01*
X154625553Y-77821368D01*
X154662500Y-77588097D01*
X154662500Y-77351902D01*
X154625553Y-77118631D01*
X154552566Y-76894003D01*
X154445342Y-76683566D01*
X154306517Y-76492490D01*
X154139510Y-76325483D01*
X153948433Y-76186657D01*
X153737996Y-76079433D01*
X153513368Y-76006446D01*
X153280097Y-75969500D01*
X153280092Y-75969500D01*
X153043908Y-75969500D01*
X153043903Y-75969500D01*
X152810631Y-76006446D01*
X152586003Y-76079433D01*
X152375566Y-76186657D01*
X152266550Y-76265862D01*
X152184490Y-76325483D01*
X152184488Y-76325485D01*
X152184487Y-76325485D01*
X152076792Y-76433181D01*
X152049864Y-76447884D01*
X152024046Y-76464477D01*
X152017845Y-76465368D01*
X152015469Y-76466666D01*
X151989111Y-76469500D01*
X151849783Y-76469500D01*
X151782744Y-76449815D01*
X151762102Y-76433181D01*
X132100819Y-56771898D01*
X132067334Y-56710575D01*
X132064500Y-56684217D01*
X132064500Y-56191599D01*
X132084185Y-56124560D01*
X132093471Y-56112064D01*
X132219048Y-55939220D01*
X132219047Y-55939220D01*
X132219051Y-55939216D01*
X132223514Y-55930454D01*
X132271488Y-55879659D01*
X132339308Y-55862863D01*
X132405444Y-55885399D01*
X132444486Y-55930456D01*
X132448951Y-55939220D01*
X132573890Y-56111186D01*
X132724213Y-56261509D01*
X132896179Y-56386448D01*
X132896181Y-56386449D01*
X132896184Y-56386451D01*
X133085588Y-56482957D01*
X133287757Y-56548646D01*
X133497713Y-56581900D01*
X133497714Y-56581900D01*
X133710286Y-56581900D01*
X133710287Y-56581900D01*
X133920243Y-56548646D01*
X134122412Y-56482957D01*
X134311816Y-56386451D01*
X134398138Y-56323735D01*
X134483786Y-56261509D01*
X134483788Y-56261506D01*
X134483792Y-56261504D01*
X134634104Y-56111192D01*
X134634106Y-56111188D01*
X134634109Y-56111186D01*
X134759048Y-55939220D01*
X134759047Y-55939220D01*
X134759051Y-55939216D01*
X134763514Y-55930454D01*
X134811488Y-55879659D01*
X134879308Y-55862863D01*
X134945444Y-55885399D01*
X134984486Y-55930456D01*
X134988951Y-55939220D01*
X135116759Y-56115134D01*
X135115888Y-56115766D01*
X135142357Y-56174801D01*
X135143500Y-56191599D01*
X135143500Y-56486541D01*
X135143500Y-56486543D01*
X135143499Y-56486543D01*
X135181947Y-56679829D01*
X135181950Y-56679839D01*
X135257364Y-56861907D01*
X135257371Y-56861920D01*
X135366859Y-57025780D01*
X135366860Y-57025781D01*
X135366861Y-57025782D01*
X135506218Y-57165139D01*
X135506219Y-57165139D01*
X135513286Y-57172206D01*
X135513285Y-57172206D01*
X135513289Y-57172209D01*
X152778215Y-74437137D01*
X152778219Y-74437140D01*
X152942079Y-74546628D01*
X152942085Y-74546631D01*
X152942086Y-74546632D01*
X153124165Y-74622052D01*
X153285389Y-74654121D01*
X153317457Y-74660499D01*
X153317458Y-74660500D01*
X153317459Y-74660500D01*
X167484542Y-74660500D01*
X167518959Y-74653653D01*
X167581188Y-74641275D01*
X167677836Y-74622051D01*
X167762852Y-74586836D01*
X167859914Y-74546632D01*
X168023782Y-74437139D01*
X168163139Y-74297782D01*
X168163140Y-74297779D01*
X168170206Y-74290714D01*
X168170209Y-74290710D01*
X169293778Y-73167141D01*
X169293782Y-73167139D01*
X169433139Y-73027782D01*
X169542632Y-72863914D01*
X169595961Y-72735165D01*
X169618051Y-72681836D01*
X169656500Y-72488540D01*
X169656500Y-72291460D01*
X169656500Y-68791782D01*
X169676185Y-68724743D01*
X169692819Y-68704101D01*
X170761302Y-67635619D01*
X170822625Y-67602134D01*
X170848983Y-67599300D01*
X171849500Y-67599300D01*
X171916539Y-67618985D01*
X171962294Y-67671789D01*
X171973500Y-67723300D01*
X171973500Y-68143037D01*
X171953815Y-68210076D01*
X171949818Y-68215922D01*
X171861715Y-68337186D01*
X171768781Y-68519576D01*
X171705522Y-68714265D01*
X171673500Y-68916448D01*
X171673500Y-69121151D01*
X171705522Y-69323334D01*
X171768781Y-69518023D01*
X171861715Y-69700413D01*
X171982028Y-69866013D01*
X172126786Y-70010771D01*
X172281749Y-70123356D01*
X172292390Y-70131087D01*
X172408607Y-70190303D01*
X172474776Y-70224018D01*
X172474778Y-70224018D01*
X172474781Y-70224020D01*
X172579137Y-70257927D01*
X172669465Y-70287277D01*
X172770557Y-70303288D01*
X172871648Y-70319300D01*
X172871649Y-70319300D01*
X173076351Y-70319300D01*
X173076352Y-70319300D01*
X173278534Y-70287277D01*
X173473219Y-70224020D01*
X173655610Y-70131087D01*
X173748590Y-70063532D01*
X173821213Y-70010771D01*
X173821215Y-70010768D01*
X173821219Y-70010766D01*
X173965966Y-69866019D01*
X173965968Y-69866015D01*
X173965971Y-69866013D01*
X174020476Y-69790992D01*
X174086287Y-69700410D01*
X174179220Y-69518019D01*
X174242477Y-69323334D01*
X174274500Y-69121152D01*
X174274500Y-68916448D01*
X174266135Y-68863632D01*
X174242477Y-68714265D01*
X174211162Y-68617889D01*
X174179220Y-68519581D01*
X174179218Y-68519578D01*
X174179218Y-68519576D01*
X174132845Y-68428566D01*
X174086287Y-68337190D01*
X174073654Y-68319803D01*
X173998182Y-68215922D01*
X173974702Y-68150116D01*
X173974500Y-68143037D01*
X173974500Y-67474561D01*
X173994185Y-67407522D01*
X173998165Y-67401699D01*
X174086287Y-67280410D01*
X174179220Y-67098019D01*
X174242477Y-66903334D01*
X174274500Y-66701152D01*
X174274500Y-66496448D01*
X174242477Y-66294266D01*
X174179220Y-66099581D01*
X174179218Y-66099578D01*
X174179218Y-66099576D01*
X174145503Y-66033407D01*
X174086287Y-65917190D01*
X174078556Y-65906549D01*
X173965971Y-65751586D01*
X173821213Y-65606828D01*
X173655613Y-65486515D01*
X173655612Y-65486514D01*
X173655610Y-65486513D01*
X173598653Y-65457491D01*
X173473223Y-65393581D01*
X173278534Y-65330322D01*
X173103995Y-65302678D01*
X173076352Y-65298300D01*
X172871648Y-65298300D01*
X172847329Y-65302151D01*
X172669465Y-65330322D01*
X172474776Y-65393581D01*
X172292386Y-65486515D01*
X172171123Y-65574618D01*
X172105317Y-65598098D01*
X172098238Y-65598300D01*
X170284654Y-65598300D01*
X170252591Y-65604676D01*
X170252592Y-65604677D01*
X170091370Y-65636746D01*
X170091364Y-65636748D01*
X169909288Y-65712166D01*
X169909279Y-65712171D01*
X169745419Y-65821659D01*
X169745415Y-65821662D01*
X168408514Y-67158565D01*
X168018220Y-67548859D01*
X168018218Y-67548861D01*
X167973448Y-67593631D01*
X167878859Y-67688219D01*
X167769371Y-67852080D01*
X167769364Y-67852092D01*
X167746824Y-67906511D01*
X167746824Y-67906514D01*
X167696988Y-68026829D01*
X167696986Y-68026835D01*
X167693949Y-68034165D01*
X167693946Y-68034174D01*
X167655500Y-68227454D01*
X167655500Y-71924218D01*
X167635815Y-71991257D01*
X167619181Y-72011899D01*
X167007899Y-72623181D01*
X166946576Y-72656666D01*
X166920218Y-72659500D01*
X153881783Y-72659500D01*
X153814744Y-72639815D01*
X153794102Y-72623181D01*
X137294441Y-56123521D01*
X137260956Y-56062198D01*
X137265940Y-55992506D01*
X137281804Y-55962954D01*
X137299051Y-55939216D01*
X137303514Y-55930454D01*
X137351488Y-55879659D01*
X137419308Y-55862863D01*
X137485444Y-55885399D01*
X137524486Y-55930456D01*
X137528951Y-55939220D01*
X137653890Y-56111186D01*
X137804213Y-56261509D01*
X137976179Y-56386448D01*
X137976181Y-56386449D01*
X137976184Y-56386451D01*
X138165588Y-56482957D01*
X138367757Y-56548646D01*
X138577713Y-56581900D01*
X138577714Y-56581900D01*
X138790286Y-56581900D01*
X138790287Y-56581900D01*
X139000243Y-56548646D01*
X139202412Y-56482957D01*
X139391816Y-56386451D01*
X139478138Y-56323735D01*
X139563786Y-56261509D01*
X139563788Y-56261506D01*
X139563792Y-56261504D01*
X139714104Y-56111192D01*
X139714106Y-56111188D01*
X139714109Y-56111186D01*
X139839048Y-55939220D01*
X139839047Y-55939220D01*
X139839051Y-55939216D01*
X139843514Y-55930454D01*
X139891488Y-55879659D01*
X139959308Y-55862863D01*
X140025444Y-55885399D01*
X140064486Y-55930456D01*
X140068951Y-55939220D01*
X140193890Y-56111186D01*
X140344213Y-56261509D01*
X140516179Y-56386448D01*
X140516181Y-56386449D01*
X140516184Y-56386451D01*
X140705588Y-56482957D01*
X140907757Y-56548646D01*
X141117713Y-56581900D01*
X141117714Y-56581900D01*
X141330286Y-56581900D01*
X141330287Y-56581900D01*
X141540243Y-56548646D01*
X141742412Y-56482957D01*
X141931816Y-56386451D01*
X142018138Y-56323735D01*
X142103786Y-56261509D01*
X142103788Y-56261506D01*
X142103792Y-56261504D01*
X142254104Y-56111192D01*
X142254106Y-56111188D01*
X142254109Y-56111186D01*
X142379048Y-55939220D01*
X142379047Y-55939220D01*
X142379051Y-55939216D01*
X142383514Y-55930454D01*
X142431488Y-55879659D01*
X142499308Y-55862863D01*
X142565444Y-55885399D01*
X142604486Y-55930456D01*
X142608951Y-55939220D01*
X142733890Y-56111186D01*
X142884213Y-56261509D01*
X143056179Y-56386448D01*
X143056181Y-56386449D01*
X143056184Y-56386451D01*
X143245588Y-56482957D01*
X143447757Y-56548646D01*
X143657713Y-56581900D01*
X143657714Y-56581900D01*
X143870286Y-56581900D01*
X143870287Y-56581900D01*
X144080243Y-56548646D01*
X144282412Y-56482957D01*
X144471816Y-56386451D01*
X144643792Y-56261504D01*
X144757329Y-56147966D01*
X144818648Y-56114484D01*
X144888340Y-56119468D01*
X144944274Y-56161339D01*
X144961189Y-56192317D01*
X145010202Y-56323728D01*
X145010206Y-56323735D01*
X145096452Y-56438944D01*
X145096455Y-56438947D01*
X145211665Y-56525194D01*
X145211667Y-56525194D01*
X145211669Y-56525196D01*
X145222830Y-56529358D01*
X145278764Y-56571226D01*
X145303184Y-56636689D01*
X145303500Y-56645541D01*
X145303500Y-59407541D01*
X145303500Y-59407543D01*
X145303499Y-59407543D01*
X145341947Y-59600829D01*
X145341950Y-59600839D01*
X145417364Y-59782907D01*
X145417371Y-59782920D01*
X145526859Y-59946780D01*
X145526860Y-59946781D01*
X145526861Y-59946782D01*
X145666218Y-60086139D01*
X145666219Y-60086139D01*
X145673286Y-60093206D01*
X145673285Y-60093206D01*
X145673289Y-60093209D01*
X150369538Y-64789460D01*
X150369560Y-64789480D01*
X154800181Y-69220101D01*
X154833666Y-69281424D01*
X154836500Y-69307782D01*
X154836500Y-69333097D01*
X154873446Y-69566368D01*
X154946433Y-69790996D01*
X155053657Y-70001433D01*
X155192483Y-70192510D01*
X155359490Y-70359517D01*
X155550567Y-70498343D01*
X155649991Y-70549002D01*
X155761003Y-70605566D01*
X155761005Y-70605566D01*
X155761008Y-70605568D01*
X155881412Y-70644689D01*
X155985631Y-70678553D01*
X156218903Y-70715500D01*
X156218908Y-70715500D01*
X156455097Y-70715500D01*
X156688368Y-70678553D01*
X156912992Y-70605568D01*
X157123433Y-70498343D01*
X157314510Y-70359517D01*
X157481517Y-70192510D01*
X157620343Y-70001433D01*
X157727568Y-69790992D01*
X157800553Y-69566368D01*
X157808211Y-69518019D01*
X157837500Y-69333097D01*
X157837500Y-69096902D01*
X157800553Y-68863631D01*
X157752021Y-68714266D01*
X157727568Y-68639008D01*
X157727566Y-68639005D01*
X157727566Y-68639003D01*
X157620342Y-68428566D01*
X157481517Y-68237490D01*
X157314510Y-68070483D01*
X157123433Y-67931657D01*
X156912996Y-67824433D01*
X156688368Y-67751446D01*
X156455097Y-67714500D01*
X156455092Y-67714500D01*
X156218908Y-67714500D01*
X156218903Y-67714500D01*
X156199736Y-67717535D01*
X156130443Y-67708578D01*
X156092662Y-67682742D01*
X152578455Y-64168535D01*
X159948500Y-64168535D01*
X159948500Y-71264270D01*
X159948501Y-71264276D01*
X159954908Y-71323883D01*
X160005202Y-71458728D01*
X160005206Y-71458735D01*
X160091452Y-71573944D01*
X160091455Y-71573947D01*
X160206664Y-71660193D01*
X160206671Y-71660197D01*
X160341517Y-71710491D01*
X160341516Y-71710491D01*
X160348444Y-71711235D01*
X160401127Y-71716900D01*
X166496872Y-71716899D01*
X166556483Y-71710491D01*
X166691331Y-71660196D01*
X166806546Y-71573946D01*
X166892796Y-71458731D01*
X166943091Y-71323883D01*
X166949500Y-71264273D01*
X166949499Y-64168528D01*
X166943091Y-64108917D01*
X166892796Y-63974069D01*
X166892795Y-63974068D01*
X166892793Y-63974064D01*
X166806547Y-63858855D01*
X166806544Y-63858852D01*
X166691335Y-63772606D01*
X166691328Y-63772602D01*
X166556482Y-63722308D01*
X166556483Y-63722308D01*
X166496883Y-63715901D01*
X166496881Y-63715900D01*
X166496873Y-63715900D01*
X166496865Y-63715900D01*
X165073500Y-63715900D01*
X165006461Y-63696215D01*
X164960706Y-63643411D01*
X164949500Y-63591900D01*
X164949500Y-61146702D01*
X164912553Y-60913431D01*
X164839566Y-60688803D01*
X164732342Y-60478366D01*
X164593517Y-60287290D01*
X164426510Y-60120283D01*
X164235433Y-59981457D01*
X164024996Y-59874233D01*
X163800368Y-59801246D01*
X163567097Y-59764300D01*
X163567092Y-59764300D01*
X163330908Y-59764300D01*
X163330903Y-59764300D01*
X163097631Y-59801246D01*
X162873003Y-59874233D01*
X162662566Y-59981457D01*
X162553550Y-60060662D01*
X162471490Y-60120283D01*
X162471488Y-60120285D01*
X162471487Y-60120285D01*
X162304485Y-60287287D01*
X162304485Y-60287288D01*
X162304483Y-60287290D01*
X162244862Y-60369350D01*
X162165657Y-60478366D01*
X162058433Y-60688803D01*
X161985446Y-60913431D01*
X161948500Y-61146702D01*
X161948500Y-63591900D01*
X161928815Y-63658939D01*
X161876011Y-63704694D01*
X161824500Y-63715900D01*
X160401129Y-63715900D01*
X160401123Y-63715901D01*
X160341516Y-63722308D01*
X160206671Y-63772602D01*
X160206664Y-63772606D01*
X160091455Y-63858852D01*
X160091452Y-63858855D01*
X160005206Y-63974064D01*
X160005202Y-63974071D01*
X159954908Y-64108917D01*
X159948501Y-64168516D01*
X159948501Y-64168523D01*
X159948500Y-64168535D01*
X152578455Y-64168535D01*
X151784480Y-63374560D01*
X151784460Y-63374538D01*
X147340819Y-58930897D01*
X147307334Y-58869574D01*
X147304500Y-58843216D01*
X147304500Y-56645541D01*
X147324185Y-56578502D01*
X147376989Y-56532747D01*
X147385149Y-56529366D01*
X147396331Y-56525196D01*
X147511546Y-56438946D01*
X147588251Y-56336482D01*
X171674000Y-56336482D01*
X171674000Y-56541117D01*
X171706009Y-56743217D01*
X171769244Y-56937831D01*
X171862141Y-57120150D01*
X171862147Y-57120159D01*
X171894523Y-57164721D01*
X171894524Y-57164722D01*
X172574000Y-56485246D01*
X172574000Y-56491461D01*
X172601259Y-56593194D01*
X172653920Y-56684406D01*
X172728394Y-56758880D01*
X172819606Y-56811541D01*
X172921339Y-56838800D01*
X172927553Y-56838800D01*
X172248076Y-57518274D01*
X172292650Y-57550659D01*
X172474968Y-57643555D01*
X172669582Y-57706790D01*
X172871683Y-57738800D01*
X173076317Y-57738800D01*
X173278417Y-57706790D01*
X173473031Y-57643555D01*
X173655349Y-57550659D01*
X173699921Y-57518274D01*
X173020447Y-56838800D01*
X173026661Y-56838800D01*
X173128394Y-56811541D01*
X173219606Y-56758880D01*
X173294080Y-56684406D01*
X173346741Y-56593194D01*
X173374000Y-56491461D01*
X173374000Y-56485247D01*
X174053474Y-57164721D01*
X174085859Y-57120149D01*
X174178755Y-56937831D01*
X174241990Y-56743217D01*
X174274000Y-56541117D01*
X174274000Y-56336482D01*
X174241990Y-56134382D01*
X174178755Y-55939768D01*
X174085859Y-55757450D01*
X174053474Y-55712877D01*
X174053474Y-55712876D01*
X173374000Y-56392351D01*
X173374000Y-56386139D01*
X173346741Y-56284406D01*
X173294080Y-56193194D01*
X173219606Y-56118720D01*
X173128394Y-56066059D01*
X173026661Y-56038800D01*
X173020446Y-56038800D01*
X173699922Y-55359324D01*
X173699921Y-55359323D01*
X173655359Y-55326947D01*
X173655350Y-55326941D01*
X173473031Y-55234044D01*
X173278417Y-55170809D01*
X173076317Y-55138800D01*
X172871683Y-55138800D01*
X172669582Y-55170809D01*
X172474968Y-55234044D01*
X172292644Y-55326943D01*
X172248077Y-55359323D01*
X172248077Y-55359324D01*
X172927554Y-56038800D01*
X172921339Y-56038800D01*
X172819606Y-56066059D01*
X172728394Y-56118720D01*
X172653920Y-56193194D01*
X172601259Y-56284406D01*
X172574000Y-56386139D01*
X172574000Y-56392353D01*
X171894524Y-55712877D01*
X171894523Y-55712877D01*
X171862143Y-55757444D01*
X171769244Y-55939768D01*
X171706009Y-56134382D01*
X171674000Y-56336482D01*
X147588251Y-56336482D01*
X147597796Y-56323731D01*
X147611018Y-56288282D01*
X147611019Y-56288280D01*
X147648090Y-56188885D01*
X147648091Y-56188883D01*
X147651052Y-56161339D01*
X147654500Y-56129273D01*
X147654499Y-54315574D01*
X147654499Y-52633529D01*
X147654498Y-52633523D01*
X147648091Y-52573916D01*
X147597797Y-52439071D01*
X147597793Y-52439064D01*
X147511547Y-52323855D01*
X147511544Y-52323852D01*
X147396335Y-52237606D01*
X147396328Y-52237602D01*
X147261482Y-52187308D01*
X147261483Y-52187308D01*
X147201883Y-52180901D01*
X147201881Y-52180900D01*
X147201873Y-52180900D01*
X147201864Y-52180900D01*
X145406129Y-52180900D01*
X145406123Y-52180901D01*
X145346516Y-52187308D01*
X145211671Y-52237602D01*
X145211664Y-52237606D01*
X145096455Y-52323852D01*
X145096452Y-52323855D01*
X145010206Y-52439064D01*
X145010203Y-52439069D01*
X144961189Y-52570483D01*
X144919317Y-52626416D01*
X144853853Y-52650833D01*
X144785580Y-52635981D01*
X144757326Y-52614830D01*
X144643786Y-52501290D01*
X144471820Y-52376351D01*
X144282414Y-52279844D01*
X144282413Y-52279843D01*
X144282412Y-52279843D01*
X144080243Y-52214154D01*
X144080241Y-52214153D01*
X144080240Y-52214153D01*
X143918957Y-52188608D01*
X143870287Y-52180900D01*
X143657713Y-52180900D01*
X143609042Y-52188608D01*
X143447760Y-52214153D01*
X143245585Y-52279844D01*
X143056179Y-52376351D01*
X142884213Y-52501290D01*
X142733890Y-52651613D01*
X142608949Y-52823582D01*
X142604484Y-52832346D01*
X142556509Y-52883142D01*
X142488688Y-52899936D01*
X142422553Y-52877398D01*
X142383516Y-52832346D01*
X142379050Y-52823582D01*
X142254109Y-52651613D01*
X142103786Y-52501290D01*
X141931820Y-52376351D01*
X141742414Y-52279844D01*
X141742413Y-52279843D01*
X141742412Y-52279843D01*
X141540243Y-52214154D01*
X141540241Y-52214153D01*
X141540240Y-52214153D01*
X141378957Y-52188608D01*
X141330287Y-52180900D01*
X141117713Y-52180900D01*
X141069042Y-52188608D01*
X140907760Y-52214153D01*
X140705585Y-52279844D01*
X140516179Y-52376351D01*
X140344213Y-52501290D01*
X140193890Y-52651613D01*
X140068949Y-52823582D01*
X140064484Y-52832346D01*
X140016509Y-52883142D01*
X139948688Y-52899936D01*
X139882553Y-52877398D01*
X139843516Y-52832346D01*
X139839050Y-52823582D01*
X139714109Y-52651613D01*
X139563786Y-52501290D01*
X139391820Y-52376351D01*
X139202414Y-52279844D01*
X139202413Y-52279843D01*
X139202412Y-52279843D01*
X139000243Y-52214154D01*
X139000241Y-52214153D01*
X139000240Y-52214153D01*
X138838957Y-52188608D01*
X138790287Y-52180900D01*
X138577713Y-52180900D01*
X138529042Y-52188608D01*
X138367760Y-52214153D01*
X138165585Y-52279844D01*
X137976179Y-52376351D01*
X137804213Y-52501290D01*
X137653890Y-52651613D01*
X137528949Y-52823582D01*
X137524484Y-52832346D01*
X137476509Y-52883142D01*
X137408688Y-52899936D01*
X137342553Y-52877398D01*
X137303516Y-52832346D01*
X137299050Y-52823582D01*
X137174109Y-52651613D01*
X137023786Y-52501290D01*
X136851820Y-52376351D01*
X136662414Y-52279844D01*
X136662413Y-52279843D01*
X136662412Y-52279843D01*
X136460243Y-52214154D01*
X136460241Y-52214153D01*
X136460240Y-52214153D01*
X136298957Y-52188608D01*
X136250287Y-52180900D01*
X136037713Y-52180900D01*
X135989042Y-52188608D01*
X135827760Y-52214153D01*
X135625585Y-52279844D01*
X135436179Y-52376351D01*
X135264213Y-52501290D01*
X135113890Y-52651613D01*
X134988949Y-52823582D01*
X134984484Y-52832346D01*
X134936509Y-52883142D01*
X134868688Y-52899936D01*
X134802553Y-52877398D01*
X134763516Y-52832346D01*
X134759050Y-52823582D01*
X134634109Y-52651613D01*
X134483786Y-52501290D01*
X134311820Y-52376351D01*
X134122414Y-52279844D01*
X134122413Y-52279843D01*
X134122412Y-52279843D01*
X133920243Y-52214154D01*
X133920241Y-52214153D01*
X133920240Y-52214153D01*
X133758957Y-52188608D01*
X133710287Y-52180900D01*
X133497713Y-52180900D01*
X133449042Y-52188608D01*
X133287760Y-52214153D01*
X133085585Y-52279844D01*
X132896179Y-52376351D01*
X132724213Y-52501290D01*
X132573890Y-52651613D01*
X132448949Y-52823582D01*
X132444484Y-52832346D01*
X132396509Y-52883142D01*
X132328688Y-52899936D01*
X132262553Y-52877398D01*
X132223516Y-52832346D01*
X132219050Y-52823582D01*
X132094109Y-52651613D01*
X131943786Y-52501290D01*
X131771820Y-52376351D01*
X131582414Y-52279844D01*
X131582413Y-52279843D01*
X131582412Y-52279843D01*
X131380243Y-52214154D01*
X131380241Y-52214153D01*
X131380240Y-52214153D01*
X131218957Y-52188608D01*
X131170287Y-52180900D01*
X130957713Y-52180900D01*
X130909042Y-52188608D01*
X130747760Y-52214153D01*
X130545585Y-52279844D01*
X130356179Y-52376351D01*
X130184213Y-52501290D01*
X130033890Y-52651613D01*
X129908949Y-52823582D01*
X129904484Y-52832346D01*
X129856509Y-52883142D01*
X129788688Y-52899936D01*
X129722553Y-52877398D01*
X129683516Y-52832346D01*
X129679050Y-52823582D01*
X129554109Y-52651613D01*
X129403786Y-52501290D01*
X129231820Y-52376351D01*
X129042414Y-52279844D01*
X129042413Y-52279843D01*
X129042412Y-52279843D01*
X128840243Y-52214154D01*
X128840241Y-52214153D01*
X128840240Y-52214153D01*
X128678957Y-52188608D01*
X128630287Y-52180900D01*
X128417713Y-52180900D01*
X128369042Y-52188608D01*
X128207760Y-52214153D01*
X128005585Y-52279844D01*
X127816179Y-52376351D01*
X127644213Y-52501290D01*
X127493890Y-52651613D01*
X127368949Y-52823582D01*
X127364484Y-52832346D01*
X127316509Y-52883142D01*
X127248688Y-52899936D01*
X127182553Y-52877398D01*
X127143516Y-52832346D01*
X127139050Y-52823582D01*
X127014109Y-52651613D01*
X126863786Y-52501290D01*
X126691820Y-52376351D01*
X126502414Y-52279844D01*
X126502413Y-52279843D01*
X126502412Y-52279843D01*
X126300243Y-52214154D01*
X126300241Y-52214153D01*
X126300240Y-52214153D01*
X126138957Y-52188608D01*
X126090287Y-52180900D01*
X125877713Y-52180900D01*
X125829042Y-52188608D01*
X125667760Y-52214153D01*
X125465585Y-52279844D01*
X125276179Y-52376351D01*
X125104213Y-52501290D01*
X124953890Y-52651613D01*
X124828949Y-52823582D01*
X124824484Y-52832346D01*
X124776509Y-52883142D01*
X124708688Y-52899936D01*
X124642553Y-52877398D01*
X124603516Y-52832346D01*
X124599050Y-52823582D01*
X124474109Y-52651613D01*
X124323786Y-52501290D01*
X124151820Y-52376351D01*
X123962414Y-52279844D01*
X123962413Y-52279843D01*
X123962412Y-52279843D01*
X123760243Y-52214154D01*
X123760241Y-52214153D01*
X123760240Y-52214153D01*
X123598957Y-52188608D01*
X123550287Y-52180900D01*
X123337713Y-52180900D01*
X123289042Y-52188608D01*
X123127760Y-52214153D01*
X122925585Y-52279844D01*
X122736179Y-52376351D01*
X122564213Y-52501290D01*
X122413890Y-52651613D01*
X122288949Y-52823582D01*
X122284484Y-52832346D01*
X122236509Y-52883142D01*
X122168688Y-52899936D01*
X122102553Y-52877398D01*
X122063516Y-52832346D01*
X122059050Y-52823582D01*
X121934109Y-52651613D01*
X121783786Y-52501290D01*
X121611820Y-52376351D01*
X121422414Y-52279844D01*
X121422413Y-52279843D01*
X121422412Y-52279843D01*
X121220243Y-52214154D01*
X121220241Y-52214153D01*
X121220240Y-52214153D01*
X121058957Y-52188608D01*
X121010287Y-52180900D01*
X120797713Y-52180900D01*
X120749042Y-52188608D01*
X120587760Y-52214153D01*
X120385585Y-52279844D01*
X120196179Y-52376351D01*
X120024213Y-52501290D01*
X119873890Y-52651613D01*
X119748949Y-52823582D01*
X119744484Y-52832346D01*
X119696509Y-52883142D01*
X119628688Y-52899936D01*
X119562553Y-52877398D01*
X119523516Y-52832346D01*
X119519050Y-52823582D01*
X119394109Y-52651613D01*
X119243786Y-52501290D01*
X119071820Y-52376351D01*
X118882414Y-52279844D01*
X118882413Y-52279843D01*
X118882412Y-52279843D01*
X118680243Y-52214154D01*
X118680241Y-52214153D01*
X118680240Y-52214153D01*
X118518957Y-52188608D01*
X118470287Y-52180900D01*
X118257713Y-52180900D01*
X118209042Y-52188608D01*
X118047760Y-52214153D01*
X117845585Y-52279844D01*
X117656179Y-52376351D01*
X117484213Y-52501290D01*
X117333890Y-52651613D01*
X117208949Y-52823582D01*
X117204484Y-52832346D01*
X117156509Y-52883142D01*
X117088688Y-52899936D01*
X117022553Y-52877398D01*
X116983516Y-52832346D01*
X116979050Y-52823582D01*
X116854109Y-52651613D01*
X116703786Y-52501290D01*
X116531820Y-52376351D01*
X116342414Y-52279844D01*
X116342413Y-52279843D01*
X116342412Y-52279843D01*
X116140243Y-52214154D01*
X116140241Y-52214153D01*
X116140240Y-52214153D01*
X115978957Y-52188608D01*
X115930287Y-52180900D01*
X115717713Y-52180900D01*
X115669042Y-52188608D01*
X115507760Y-52214153D01*
X115305585Y-52279844D01*
X115116179Y-52376351D01*
X114944213Y-52501290D01*
X114793890Y-52651613D01*
X114668949Y-52823582D01*
X114664202Y-52832899D01*
X114616227Y-52883693D01*
X114548405Y-52900487D01*
X114482271Y-52877948D01*
X114443234Y-52832895D01*
X114438622Y-52823844D01*
X114313727Y-52651940D01*
X114313723Y-52651935D01*
X114163464Y-52501676D01*
X114163459Y-52501672D01*
X113991557Y-52376779D01*
X113802215Y-52280303D01*
X113600124Y-52214641D01*
X113534000Y-52204168D01*
X113534000Y-53948388D01*
X113476993Y-53915475D01*
X113349826Y-53881400D01*
X113218174Y-53881400D01*
X113091007Y-53915475D01*
X113034000Y-53948388D01*
X113034000Y-52204168D01*
X113033999Y-52204168D01*
X112967875Y-52214641D01*
X112765784Y-52280303D01*
X112576442Y-52376779D01*
X112404540Y-52501672D01*
X112404535Y-52501676D01*
X112254276Y-52651935D01*
X112254272Y-52651940D01*
X112129378Y-52823843D01*
X112124762Y-52832902D01*
X112076784Y-52883695D01*
X112008963Y-52900487D01*
X111942829Y-52877946D01*
X111903794Y-52832893D01*
X111899051Y-52823584D01*
X111899049Y-52823581D01*
X111899048Y-52823579D01*
X111774109Y-52651613D01*
X111623786Y-52501290D01*
X111451820Y-52376351D01*
X111262414Y-52279844D01*
X111262413Y-52279843D01*
X111262412Y-52279843D01*
X111060243Y-52214154D01*
X111060241Y-52214153D01*
X111060240Y-52214153D01*
X110898957Y-52188608D01*
X110850287Y-52180900D01*
X110637713Y-52180900D01*
X110589042Y-52188608D01*
X110427760Y-52214153D01*
X110225585Y-52279844D01*
X110036179Y-52376351D01*
X109864213Y-52501290D01*
X109713890Y-52651613D01*
X109588949Y-52823582D01*
X109584484Y-52832346D01*
X109536509Y-52883142D01*
X109468688Y-52899936D01*
X109402553Y-52877398D01*
X109363516Y-52832346D01*
X109359050Y-52823582D01*
X109234109Y-52651613D01*
X109083786Y-52501290D01*
X108911820Y-52376351D01*
X108722414Y-52279844D01*
X108722413Y-52279843D01*
X108722412Y-52279843D01*
X108520243Y-52214154D01*
X108520241Y-52214153D01*
X108520240Y-52214153D01*
X108358957Y-52188608D01*
X108310287Y-52180900D01*
X108097713Y-52180900D01*
X108049042Y-52188608D01*
X107887760Y-52214153D01*
X107685585Y-52279844D01*
X107496179Y-52376351D01*
X107324213Y-52501290D01*
X107173890Y-52651613D01*
X107048949Y-52823582D01*
X107044484Y-52832346D01*
X106996509Y-52883142D01*
X106928688Y-52899936D01*
X106862553Y-52877398D01*
X106823516Y-52832346D01*
X106819050Y-52823582D01*
X106694109Y-52651613D01*
X106543786Y-52501290D01*
X106371820Y-52376351D01*
X106182414Y-52279844D01*
X106182413Y-52279843D01*
X106182412Y-52279843D01*
X105980243Y-52214154D01*
X105980241Y-52214153D01*
X105980240Y-52214153D01*
X105818957Y-52188608D01*
X105770287Y-52180900D01*
X105557713Y-52180900D01*
X105509042Y-52188608D01*
X105347760Y-52214153D01*
X105145585Y-52279844D01*
X104956179Y-52376351D01*
X104784213Y-52501290D01*
X104633890Y-52651613D01*
X104508949Y-52823582D01*
X104504484Y-52832346D01*
X104456509Y-52883142D01*
X104388688Y-52899936D01*
X104322553Y-52877398D01*
X104283516Y-52832346D01*
X104279050Y-52823582D01*
X104154109Y-52651613D01*
X104003786Y-52501290D01*
X103831820Y-52376351D01*
X103642414Y-52279844D01*
X103642413Y-52279843D01*
X103642412Y-52279843D01*
X103440243Y-52214154D01*
X103440241Y-52214153D01*
X103440240Y-52214153D01*
X103278957Y-52188608D01*
X103230287Y-52180900D01*
X103017713Y-52180900D01*
X102969042Y-52188608D01*
X102807760Y-52214153D01*
X102605585Y-52279844D01*
X102416179Y-52376351D01*
X102244213Y-52501290D01*
X102093890Y-52651613D01*
X101968949Y-52823582D01*
X101964484Y-52832346D01*
X101916509Y-52883142D01*
X101848688Y-52899936D01*
X101782553Y-52877398D01*
X101743516Y-52832346D01*
X101739050Y-52823582D01*
X101614109Y-52651613D01*
X101463786Y-52501290D01*
X101291820Y-52376351D01*
X101102414Y-52279844D01*
X101102413Y-52279843D01*
X101102412Y-52279843D01*
X100900243Y-52214154D01*
X100900241Y-52214153D01*
X100900240Y-52214153D01*
X100738957Y-52188608D01*
X100690287Y-52180900D01*
X100477713Y-52180900D01*
X100429042Y-52188608D01*
X100267760Y-52214153D01*
X100065585Y-52279844D01*
X99876179Y-52376351D01*
X99704213Y-52501290D01*
X99553890Y-52651613D01*
X99428949Y-52823582D01*
X99424484Y-52832346D01*
X99376509Y-52883142D01*
X99308688Y-52899936D01*
X99242553Y-52877398D01*
X99203516Y-52832346D01*
X99199050Y-52823582D01*
X99074109Y-52651613D01*
X98923786Y-52501290D01*
X98751820Y-52376351D01*
X98562414Y-52279844D01*
X98562413Y-52279843D01*
X98562412Y-52279843D01*
X98360243Y-52214154D01*
X98360241Y-52214153D01*
X98360240Y-52214153D01*
X98198957Y-52188608D01*
X98150287Y-52180900D01*
X97937713Y-52180900D01*
X97889042Y-52188608D01*
X97727760Y-52214153D01*
X97525585Y-52279844D01*
X97336179Y-52376351D01*
X97164213Y-52501290D01*
X97013890Y-52651613D01*
X96888951Y-52823579D01*
X96792444Y-53012985D01*
X96726753Y-53215160D01*
X96693500Y-53425113D01*
X96693500Y-55337686D01*
X96726753Y-55547639D01*
X96792444Y-55749814D01*
X96888951Y-55939220D01*
X97013890Y-56111186D01*
X97164213Y-56261509D01*
X97336179Y-56386448D01*
X97336181Y-56386449D01*
X97336184Y-56386451D01*
X97525588Y-56482957D01*
X97727757Y-56548646D01*
X97937713Y-56581900D01*
X97937714Y-56581900D01*
X98150286Y-56581900D01*
X98150287Y-56581900D01*
X98360243Y-56548646D01*
X98562412Y-56482957D01*
X98751816Y-56386451D01*
X98840809Y-56321794D01*
X98886615Y-56288515D01*
X98952421Y-56265035D01*
X99020475Y-56280861D01*
X99069170Y-56330967D01*
X99083500Y-56388833D01*
X99083500Y-56985111D01*
X99063815Y-57052150D01*
X99047181Y-57072792D01*
X89152485Y-66967487D01*
X89152484Y-66967488D01*
X89013657Y-67158565D01*
X89013654Y-67158570D01*
X89006387Y-67172834D01*
X89006387Y-67172835D01*
X88906433Y-67369003D01*
X88833446Y-67593631D01*
X88796500Y-67826902D01*
X84399499Y-67826902D01*
X84399499Y-67714500D01*
X84399499Y-64168529D01*
X84399498Y-64168523D01*
X84399497Y-64168516D01*
X84393091Y-64108917D01*
X84342796Y-63974069D01*
X84342795Y-63974068D01*
X84342793Y-63974064D01*
X84256547Y-63858855D01*
X84256544Y-63858852D01*
X84141335Y-63772606D01*
X84141328Y-63772602D01*
X84006482Y-63722308D01*
X84006483Y-63722308D01*
X83946883Y-63715901D01*
X83946881Y-63715900D01*
X83946873Y-63715900D01*
X83946864Y-63715900D01*
X77851129Y-63715900D01*
X77851123Y-63715901D01*
X77791516Y-63722308D01*
X77656671Y-63772602D01*
X77656664Y-63772606D01*
X77541455Y-63858852D01*
X77541452Y-63858855D01*
X77455206Y-63974064D01*
X77455202Y-63974071D01*
X77404908Y-64108917D01*
X77398501Y-64168516D01*
X77398501Y-64168523D01*
X77398500Y-64168535D01*
X70866500Y-64168535D01*
X70866500Y-44995658D01*
X73052500Y-44995658D01*
X73052500Y-45225141D01*
X73077446Y-45414615D01*
X73082452Y-45452638D01*
X73082453Y-45452640D01*
X73141842Y-45674287D01*
X73229650Y-45886276D01*
X73229657Y-45886290D01*
X73344392Y-46085017D01*
X73484081Y-46267061D01*
X73484089Y-46267070D01*
X73646330Y-46429311D01*
X73646338Y-46429318D01*
X73828382Y-46569007D01*
X73828385Y-46569008D01*
X73828388Y-46569011D01*
X74027112Y-46683744D01*
X74027117Y-46683746D01*
X74027123Y-46683749D01*
X74118480Y-46721590D01*
X74239113Y-46771558D01*
X74460762Y-46830948D01*
X74688266Y-46860900D01*
X74688273Y-46860900D01*
X74917727Y-46860900D01*
X74917734Y-46860900D01*
X75145238Y-46830948D01*
X75366887Y-46771558D01*
X75578888Y-46683744D01*
X75777612Y-46569011D01*
X75959661Y-46429319D01*
X75959665Y-46429314D01*
X75959670Y-46429311D01*
X76121911Y-46267070D01*
X76121914Y-46267065D01*
X76121919Y-46267061D01*
X76261611Y-46085012D01*
X76376344Y-45886288D01*
X76464158Y-45674287D01*
X76523548Y-45452638D01*
X76553500Y-45225134D01*
X76553500Y-44995666D01*
X76523548Y-44768162D01*
X76464158Y-44546513D01*
X76376344Y-44334512D01*
X76261611Y-44135788D01*
X76261608Y-44135785D01*
X76261607Y-44135782D01*
X76121918Y-43953738D01*
X76121911Y-43953730D01*
X76034116Y-43865935D01*
X80480850Y-43865935D01*
X80480850Y-49961670D01*
X80480851Y-49961676D01*
X80487258Y-50021283D01*
X80537552Y-50156128D01*
X80537556Y-50156135D01*
X80623802Y-50271344D01*
X80623805Y-50271347D01*
X80739014Y-50357593D01*
X80739021Y-50357597D01*
X80873867Y-50407891D01*
X80873866Y-50407891D01*
X80880794Y-50408635D01*
X80933477Y-50414300D01*
X88029222Y-50414299D01*
X88088833Y-50407891D01*
X88223681Y-50357596D01*
X88338896Y-50271346D01*
X88425146Y-50156131D01*
X88475441Y-50021283D01*
X88481850Y-49961673D01*
X88481849Y-43865935D01*
X103769100Y-43865935D01*
X103769100Y-49961670D01*
X103769101Y-49961676D01*
X103775508Y-50021283D01*
X103825802Y-50156128D01*
X103825806Y-50156135D01*
X103912052Y-50271344D01*
X103912055Y-50271347D01*
X104027264Y-50357593D01*
X104027271Y-50357597D01*
X104162117Y-50407891D01*
X104162116Y-50407891D01*
X104169044Y-50408635D01*
X104221727Y-50414300D01*
X111317472Y-50414299D01*
X111377083Y-50407891D01*
X111511931Y-50357596D01*
X111627146Y-50271346D01*
X111713396Y-50156131D01*
X111763691Y-50021283D01*
X111770100Y-49961673D01*
X111770099Y-43865935D01*
X123769100Y-43865935D01*
X123769100Y-49961670D01*
X123769101Y-49961676D01*
X123775508Y-50021283D01*
X123825802Y-50156128D01*
X123825806Y-50156135D01*
X123912052Y-50271344D01*
X123912055Y-50271347D01*
X124027264Y-50357593D01*
X124027271Y-50357597D01*
X124162117Y-50407891D01*
X124162116Y-50407891D01*
X124169044Y-50408635D01*
X124221727Y-50414300D01*
X131317472Y-50414299D01*
X131377083Y-50407891D01*
X131511931Y-50357596D01*
X131627146Y-50271346D01*
X131713396Y-50156131D01*
X131763691Y-50021283D01*
X131770100Y-49961673D01*
X131770099Y-43865935D01*
X143769100Y-43865935D01*
X143769100Y-49961670D01*
X143769101Y-49961676D01*
X143775508Y-50021283D01*
X143825802Y-50156128D01*
X143825806Y-50156135D01*
X143912052Y-50271344D01*
X143912055Y-50271347D01*
X144027264Y-50357593D01*
X144027271Y-50357597D01*
X144162117Y-50407891D01*
X144162116Y-50407891D01*
X144169044Y-50408635D01*
X144221727Y-50414300D01*
X151317472Y-50414299D01*
X151377083Y-50407891D01*
X151511931Y-50357596D01*
X151627146Y-50271346D01*
X151713396Y-50156131D01*
X151763691Y-50021283D01*
X151770100Y-49961673D01*
X151770099Y-43865935D01*
X163769100Y-43865935D01*
X163769100Y-49961670D01*
X163769101Y-49961676D01*
X163775508Y-50021283D01*
X163825802Y-50156128D01*
X163825806Y-50156135D01*
X163912052Y-50271344D01*
X163912055Y-50271347D01*
X164027264Y-50357593D01*
X164027271Y-50357597D01*
X164162117Y-50407891D01*
X164162116Y-50407891D01*
X164169044Y-50408635D01*
X164221727Y-50414300D01*
X171317472Y-50414299D01*
X171377083Y-50407891D01*
X171511931Y-50357596D01*
X171627146Y-50271346D01*
X171713396Y-50156131D01*
X171763691Y-50021283D01*
X171770100Y-49961673D01*
X171770099Y-44995658D01*
X175084300Y-44995658D01*
X175084300Y-45225141D01*
X175109246Y-45414615D01*
X175114252Y-45452638D01*
X175114253Y-45452640D01*
X175173642Y-45674287D01*
X175261450Y-45886276D01*
X175261457Y-45886290D01*
X175376192Y-46085017D01*
X175515881Y-46267061D01*
X175515889Y-46267070D01*
X175678130Y-46429311D01*
X175678138Y-46429318D01*
X175860182Y-46569007D01*
X175860185Y-46569008D01*
X175860188Y-46569011D01*
X176058912Y-46683744D01*
X176058917Y-46683746D01*
X176058923Y-46683749D01*
X176150280Y-46721590D01*
X176270913Y-46771558D01*
X176492562Y-46830948D01*
X176720066Y-46860900D01*
X176720073Y-46860900D01*
X176949527Y-46860900D01*
X176949534Y-46860900D01*
X177177038Y-46830948D01*
X177398687Y-46771558D01*
X177610688Y-46683744D01*
X177809412Y-46569011D01*
X177991461Y-46429319D01*
X177991465Y-46429314D01*
X177991470Y-46429311D01*
X178153711Y-46267070D01*
X178153714Y-46267065D01*
X178153719Y-46267061D01*
X178293411Y-46085012D01*
X178408144Y-45886288D01*
X178495958Y-45674287D01*
X178555348Y-45452638D01*
X178585300Y-45225134D01*
X178585300Y-44995666D01*
X178555348Y-44768162D01*
X178495958Y-44546513D01*
X178408144Y-44334512D01*
X178293411Y-44135788D01*
X178293408Y-44135785D01*
X178293407Y-44135782D01*
X178153718Y-43953738D01*
X178153711Y-43953730D01*
X177991470Y-43791489D01*
X177991461Y-43791481D01*
X177809417Y-43651792D01*
X177610690Y-43537057D01*
X177610676Y-43537050D01*
X177398687Y-43449242D01*
X177177038Y-43389852D01*
X177139015Y-43384846D01*
X176949541Y-43359900D01*
X176949534Y-43359900D01*
X176720066Y-43359900D01*
X176720058Y-43359900D01*
X176503515Y-43388409D01*
X176492562Y-43389852D01*
X176405052Y-43413300D01*
X176270912Y-43449242D01*
X176058923Y-43537050D01*
X176058909Y-43537057D01*
X175860182Y-43651792D01*
X175678138Y-43791481D01*
X175515881Y-43953738D01*
X175376192Y-44135782D01*
X175261457Y-44334509D01*
X175261450Y-44334523D01*
X175173642Y-44546512D01*
X175114253Y-44768159D01*
X175114251Y-44768170D01*
X175084300Y-44995658D01*
X171770099Y-44995658D01*
X171770099Y-43865928D01*
X171763691Y-43806317D01*
X171713396Y-43671469D01*
X171713395Y-43671468D01*
X171713393Y-43671464D01*
X171627147Y-43556255D01*
X171627144Y-43556252D01*
X171511935Y-43470006D01*
X171511928Y-43470002D01*
X171377082Y-43419708D01*
X171377083Y-43419708D01*
X171317483Y-43413301D01*
X171317481Y-43413300D01*
X171317473Y-43413300D01*
X171317464Y-43413300D01*
X164221729Y-43413300D01*
X164221723Y-43413301D01*
X164162116Y-43419708D01*
X164027271Y-43470002D01*
X164027264Y-43470006D01*
X163912055Y-43556252D01*
X163912052Y-43556255D01*
X163825806Y-43671464D01*
X163825802Y-43671471D01*
X163775508Y-43806317D01*
X163769101Y-43865916D01*
X163769101Y-43865923D01*
X163769100Y-43865935D01*
X151770099Y-43865935D01*
X151770099Y-43865928D01*
X151763691Y-43806317D01*
X151713396Y-43671469D01*
X151713395Y-43671468D01*
X151713393Y-43671464D01*
X151627147Y-43556255D01*
X151627144Y-43556252D01*
X151511935Y-43470006D01*
X151511928Y-43470002D01*
X151377082Y-43419708D01*
X151377083Y-43419708D01*
X151317483Y-43413301D01*
X151317481Y-43413300D01*
X151317473Y-43413300D01*
X151317464Y-43413300D01*
X144221729Y-43413300D01*
X144221723Y-43413301D01*
X144162116Y-43419708D01*
X144027271Y-43470002D01*
X144027264Y-43470006D01*
X143912055Y-43556252D01*
X143912052Y-43556255D01*
X143825806Y-43671464D01*
X143825802Y-43671471D01*
X143775508Y-43806317D01*
X143769101Y-43865916D01*
X143769101Y-43865923D01*
X143769100Y-43865935D01*
X131770099Y-43865935D01*
X131770099Y-43865928D01*
X131763691Y-43806317D01*
X131713396Y-43671469D01*
X131713395Y-43671468D01*
X131713393Y-43671464D01*
X131627147Y-43556255D01*
X131627144Y-43556252D01*
X131511935Y-43470006D01*
X131511928Y-43470002D01*
X131377082Y-43419708D01*
X131377083Y-43419708D01*
X131317483Y-43413301D01*
X131317481Y-43413300D01*
X131317473Y-43413300D01*
X131317464Y-43413300D01*
X124221729Y-43413300D01*
X124221723Y-43413301D01*
X124162116Y-43419708D01*
X124027271Y-43470002D01*
X124027264Y-43470006D01*
X123912055Y-43556252D01*
X123912052Y-43556255D01*
X123825806Y-43671464D01*
X123825802Y-43671471D01*
X123775508Y-43806317D01*
X123769101Y-43865916D01*
X123769101Y-43865923D01*
X123769100Y-43865935D01*
X111770099Y-43865935D01*
X111770099Y-43865928D01*
X111763691Y-43806317D01*
X111713396Y-43671469D01*
X111713395Y-43671468D01*
X111713393Y-43671464D01*
X111627147Y-43556255D01*
X111627144Y-43556252D01*
X111511935Y-43470006D01*
X111511928Y-43470002D01*
X111377082Y-43419708D01*
X111377083Y-43419708D01*
X111317483Y-43413301D01*
X111317481Y-43413300D01*
X111317473Y-43413300D01*
X111317464Y-43413300D01*
X104221729Y-43413300D01*
X104221723Y-43413301D01*
X104162116Y-43419708D01*
X104027271Y-43470002D01*
X104027264Y-43470006D01*
X103912055Y-43556252D01*
X103912052Y-43556255D01*
X103825806Y-43671464D01*
X103825802Y-43671471D01*
X103775508Y-43806317D01*
X103769101Y-43865916D01*
X103769101Y-43865923D01*
X103769100Y-43865935D01*
X88481849Y-43865935D01*
X88481849Y-43865928D01*
X88475441Y-43806317D01*
X88425146Y-43671469D01*
X88425145Y-43671468D01*
X88425143Y-43671464D01*
X88338897Y-43556255D01*
X88338894Y-43556252D01*
X88223685Y-43470006D01*
X88223678Y-43470002D01*
X88088832Y-43419708D01*
X88088833Y-43419708D01*
X88029233Y-43413301D01*
X88029231Y-43413300D01*
X88029223Y-43413300D01*
X88029214Y-43413300D01*
X80933479Y-43413300D01*
X80933473Y-43413301D01*
X80873866Y-43419708D01*
X80739021Y-43470002D01*
X80739014Y-43470006D01*
X80623805Y-43556252D01*
X80623802Y-43556255D01*
X80537556Y-43671464D01*
X80537552Y-43671471D01*
X80487258Y-43806317D01*
X80480851Y-43865916D01*
X80480851Y-43865923D01*
X80480850Y-43865935D01*
X76034116Y-43865935D01*
X75959670Y-43791489D01*
X75959661Y-43791481D01*
X75777617Y-43651792D01*
X75578890Y-43537057D01*
X75578876Y-43537050D01*
X75366887Y-43449242D01*
X75145238Y-43389852D01*
X75107215Y-43384846D01*
X74917741Y-43359900D01*
X74917734Y-43359900D01*
X74688266Y-43359900D01*
X74688258Y-43359900D01*
X74471715Y-43388409D01*
X74460762Y-43389852D01*
X74373252Y-43413300D01*
X74239112Y-43449242D01*
X74027123Y-43537050D01*
X74027109Y-43537057D01*
X73828382Y-43651792D01*
X73646338Y-43791481D01*
X73484081Y-43953738D01*
X73344392Y-44135782D01*
X73229657Y-44334509D01*
X73229650Y-44334523D01*
X73141842Y-44546512D01*
X73082453Y-44768159D01*
X73082451Y-44768170D01*
X73052500Y-44995658D01*
X70866500Y-44995658D01*
X70866500Y-40815300D01*
X70886185Y-40748261D01*
X70938989Y-40702506D01*
X70990500Y-40691300D01*
X180724000Y-40691300D01*
X180791039Y-40710985D01*
G37*
%TD.AperFunction*%
%TD*%
M02*
