M48
; DRILL file {KiCad 9.0.0} date 2025-05-13T00:13:45-0300
; FORMAT={-:-/ absolute / inch / decimal}
; #@! TF.CreationDate,2025-05-13T00:13:45-03:00
; #@! TF.GenerationSoftware,Kicad,Pcbnew,9.0.0
; #@! TF.FileFunction,Plated,1,2,PTH
FMAT,2
INCH
; #@! TA.AperFunction,Plated,PTH,ComponentDrill
T1C0.0315
; #@! TA.AperFunction,Plated,PTH,ViaDrill
T2C0.0394
; #@! TA.AperFunction,Plated,PTH,ComponentDrill
T3C0.0394
; #@! TA.AperFunction,Plated,PTH,ComponentDrill
T4C0.0787
%
G90
G05
T1
X6.81Y-2.222
X6.81Y-2.622
X6.81Y-2.7173
X6.81Y-3.1173
T2
X3.185Y-2.939
X4.455Y-2.665
X4.46Y-2.3
X5.508Y-3.394
X6.03Y-3.05
X6.03Y-3.72
X6.04Y-2.3
X6.145Y-3.17
X6.145Y-3.785
X6.155Y-2.725
X6.385Y-3.67
X6.435Y-2.412
X6.915Y-4.873
T3
X2.927Y-4.062
X2.927Y-4.762
X3.86Y-2.141
X3.86Y-3.191
X3.96Y-2.141
X3.96Y-3.191
X4.06Y-2.141
X4.06Y-3.191
X4.16Y-2.141
X4.16Y-3.191
X4.26Y-2.141
X4.26Y-3.191
X4.36Y-2.141
X4.36Y-3.191
X4.46Y-2.141
X4.46Y-3.191
X4.477Y-4.062
X4.477Y-4.762
X4.56Y-2.141
X4.56Y-3.191
X4.66Y-2.141
X4.66Y-3.191
X4.76Y-2.141
X4.76Y-3.191
X4.86Y-2.141
X4.86Y-3.191
X4.8675Y-4.112
X4.8675Y-4.212
X4.8675Y-4.312
X4.8675Y-4.412
X4.8675Y-4.512
X4.8675Y-4.612
X4.8675Y-4.712
X4.96Y-2.141
X4.96Y-3.191
X5.06Y-2.141
X5.06Y-3.191
X5.16Y-2.141
X5.16Y-3.191
X5.26Y-2.141
X5.26Y-3.191
X5.36Y-2.141
X5.36Y-3.191
X5.46Y-2.141
X5.46Y-3.191
X5.56Y-2.141
X5.56Y-3.191
X5.66Y-2.141
X5.66Y-3.191
X5.76Y-2.141
X5.76Y-3.191
X6.71Y-3.466
X6.71Y-3.566
X6.71Y-3.666
X6.71Y-3.766
T4
X3.185Y-2.666
X3.326Y-1.847
X3.326Y-5.097
X4.2429Y-1.847
X4.2429Y-5.097
X5.0303Y-1.847
X5.0303Y-5.097
X5.8177Y-1.847
X5.8177Y-5.097
X6.435Y-2.666
X6.6051Y-1.847
X6.6051Y-5.097
T3
G00X3.188Y-3.5529
M15
G01X3.188Y-3.6317
M16
G05
G00X3.2667Y-3.7773
M15
G01X3.3455Y-3.7773
M16
G05
G00X3.4242Y-3.5529
M15
G01X3.4242Y-3.6317
M16
G05
M30
