  0
SECTION
  2
HEADER
  9
$ACADVER
  1
AC1014
  9
$HANDSEED
  5
FFFF
  9
$MEASUREMENT
 70
     1
  0
ENDSEC
  0
SECTION
  2
TABLES
  0
TABLE
  2
VPORT
  5
8
330
0
100
AcDbSymbolTable
 70
     4
  0
VPORT
  5
2E
330
8
100
AcDbSymbolTableRecord
100
AcDbViewportTableRecord
  2
*ACTIVE
 70
     0
 10
0.0
 20
0.0
 11
1.0
 21
1.0
 12
210.0
 22
148.5
 13
0.0
 23
0.0
 14
10.0
 24
10.0
 15
10.0
 25
10.0
 16
0.0
 26
0.0
 36
1.0
 17
0.0
 27
0.0
 37
0.0
 40
341.0
 41
1.24
 42
50.0
 43
0.0
 44
0.0
 50
0.0
 51
0.0
 71
     0
 72
   100
 73
     1
 74
     3
 75
     0
 76
     0
 77
     0
 78
     0
  0
ENDTAB
  0
TABLE
  2
LTYPE
  5
5
330
0
100
AcDbSymbolTable
 70
     1
  0
LTYPE
  5
14
330
5
100
AcDbSymbolTableRecord
100
AcDbLinetypeTableRecord
  2
BYBLOCK
 70
     0
  3

 72
    65
 73
     0
 40
0.0
  0
LTYPE
  5
15
330
5
100
AcDbSymbolTableRecord
100
AcDbLinetypeTableRecord
  2
BYLAYER
 70
     0
  3

 72
    65
 73
     0
 40
0.0
  0
LTYPE
  5
16
330
5
100
AcDbSymbolTableRecord
100
AcDbLinetypeTableRecord
  2
CONTINUOUS
 70
     0
  3
Solid line
 72
    65
 73
     0
 40
0.0
  0
ENDTAB
  0
TABLE
  2
LAYER
  5
2
100
AcDbSymbolTable
 70
2
  0
LAYER
  5
50
100
AcDbSymbolTableRecord
100
AcDbLayerTableRecord
  2
0
 70
0
  6
CONTINUOUS
  0
LAYER
  5
51
100
AcDbSymbolTableRecord
100
AcDbLayerTableRecord
  2
Camada_1
 70
0
  6
CONTINUOUS
  0
ENDTAB
  0
TABLE
  2
STYLE
  5
3
330
0
100
AcDbSymbolTable
 70
     1
  0
STYLE
  5
11
330
3
100
AcDbSymbolTableRecord
100
AcDbTextStyleTableRecord
  2
STANDARD
 70
     0
 40
0.0
 41
1.0
 50
0.0
 71
     0
 42
2.5
  3
txt
  4

  0
ENDTAB
  0
TABLE
  2
VIEW
  5
6
330
0
100
AcDbSymbolTable
 70
     0
  0
ENDTAB
  0
TABLE
  2
UCS
  5
7
330
0
100
AcDbSymbolTable
 70
     0
  0
ENDTAB
  0
TABLE
  2
APPID
  5
9
330
0
100
AcDbSymbolTable
 70
     2
  0
APPID
  5
12
330
9
100
AcDbSymbolTableRecord
100
AcDbRegAppTableRecord
  2
ACAD
 70
     0
  0
ENDTAB
  0
TABLE
  2
DIMSTYLE
  5
A
330
0
100
AcDbSymbolTable
 70
     1
  0
DIMSTYLE
105
27
330
A
100
AcDbSymbolTableRecord
100
AcDbDimStyleTableRecord
  2
ISO-25
 70
     0
  3

  4

  5

  6

  7

 40
1.0
 41
2.5
 42
0.625
 43
3.75
 44
1.25
 45
0.0
 46
0.0
 47
0.0
 48
0.0
140
2.5
141
2.5
142
0.0
143
0.03937007874016
144
1.0
145
0.0
146
1.0
147
0.625
 71
     0
 72
     0
 73
     0
 74
     0
 75
     0
 76
     0
 77
     1
 78
     8
170
     0
171
     3
172
     1
173
     0
174
     0
175
     0
176
     0
177
     0
178
     0
270
     2
271
     2
272
     2
273
     2
274
     3
340
11
275
     0
280
     0
281
     0
282
     0
283
     0
284
     8
285
     0
286
     0
287
     3
288
     0
  0
ENDTAB
  0
TABLE
  2
BLOCK_RECORD
  5
1
330
0
100
AcDbSymbolTable
 70
     1
  0
BLOCK_RECORD
  5
1F
330
1
100
AcDbSymbolTableRecord
100
AcDbBlockTableRecord
  2
*MODEL_SPACE
  0
BLOCK_RECORD
  5
1B
330
1
100
AcDbSymbolTableRecord
100
AcDbBlockTableRecord
  2
*PAPER_SPACE
  0
ENDTAB
  0
ENDSEC
  0
SECTION
  2
BLOCKS
  0
BLOCK
  5
20
330
1F
100
AcDbEntity
  8
0
100
AcDbBlockBegin
  2
*MODEL_SPACE
 70
     0
 10
0.0
 20
0.0
 30
0.0
  3
*MODEL_SPACE
  1

  0
ENDBLK
  5
21
330
1F
100
AcDbEntity
  8
0
100
AcDbBlockEnd
  0
BLOCK
  5
1C
330
1B
100
AcDbEntity
 67
     1
  8
0
100
AcDbBlockBegin
  2
*PAPER_SPACE
  1

  0
ENDBLK
  5
1D
330
1B
100
AcDbEntity
 67
     1
  8
0
100
AcDbBlockEnd
  0
ENDSEC
  0
SECTION
  2
ENTITIES
  0
SPLINE
  5
100
100
AcDbEntity
  8
Camada_1
 62
7
100
AcDbSpline
 70
8
 71
3
 72
8
 73
4
 74
0
 40
0
 40
0
 40
0
 40
0
 40
1
 40
1
 40
1
 40
1
 10
121.280845
 20
104.469667
 30
0.0
 10
121.280845
 20
103.806634
 30
0.0
 10
121.017457
 20
103.170758
 30
0.0
 10
120.548622
 20
102.701924
 30
0.0
  0
SPLINE
  5
101
100
AcDbEntity
  8
Camada_1
 62
7
100
AcDbSpline
 70
8
 71
3
 72
8
 73
4
 74
0
 40
0
 40
0
 40
0
 40
0
 40
1
 40
1
 40
1
 40
1
 10
120.548622
 20
102.701924
 30
0.0
 10
120.079787
 20
102.233089
 30
0.0
 10
119.443911
 20
101.969701
 30
0.0
 10
118.780878
 20
101.969701
 30
0.0
  0
SPLINE
  5
102
100
AcDbEntity
  8
Camada_1
 62
7
100
AcDbSpline
 70
8
 71
3
 72
8
 73
4
 74
0
 40
0
 40
0
 40
0
 40
0
 40
1
 40
1
 40
1
 40
1
 10
118.780878
 20
101.969701
 30
0.0
 10
117.400185
 20
101.969701
 30
0.0
 10
116.280912
 20
103.088974
 30
0.0
 10
116.280912
 20
104.469667
 30
0.0
  0
SPLINE
  5
103
100
AcDbEntity
  8
Camada_1
 62
7
100
AcDbSpline
 70
8
 71
3
 72
8
 73
4
 74
0
 40
0
 40
0
 40
0
 40
0
 40
1
 40
1
 40
1
 40
1
 10
116.280912
 20
104.469667
 30
0.0
 10
116.280912
 20
105.850360
 30
0.0
 10
117.400185
 20
106.969633
 30
0.0
 10
118.780878
 20
106.969633
 30
0.0
  0
SPLINE
  5
104
100
AcDbEntity
  8
Camada_1
 62
7
100
AcDbSpline
 70
8
 71
3
 72
8
 73
4
 74
0
 40
0
 40
0
 40
0
 40
0
 40
1
 40
1
 40
1
 40
1
 10
118.780878
 20
106.969633
 30
0.0
 10
119.443911
 20
106.969633
 30
0.0
 10
120.079787
 20
106.706245
 30
0.0
 10
120.548622
 20
106.237410
 30
0.0
  0
SPLINE
  5
105
100
AcDbEntity
  8
Camada_1
 62
7
100
AcDbSpline
 70
8
 71
3
 72
8
 73
4
 74
0
 40
0
 40
0
 40
0
 40
0
 40
1
 40
1
 40
1
 40
1
 10
120.548622
 20
106.237410
 30
0.0
 10
121.017457
 20
105.768576
 30
0.0
 10
121.280845
 20
105.132699
 30
0.0
 10
121.280845
 20
104.469667
 30
0.0
  0
LWPOLYLINE
  5
106
100
AcDbEntity
  8
Camada_1
 62
7
100
AcDbPolyline
 90
4
 70
1
 10
-211.705860
 20
139.558464
 30
0.0
 10
211.705830
 20
139.558464
 30
0.0
 10
122.983766
 20
-139.558450
 30
0.0
 10
-211.705860
 20
-139.558450
 30
0.0
  0
SPLINE
  5
107
100
AcDbEntity
  8
Camada_1
 62
7
100
AcDbSpline
 70
8
 71
3
 72
8
 73
4
 74
0
 40
0
 40
0
 40
0
 40
0
 40
1
 40
1
 40
1
 40
1
 10
117.276626
 20
36.093630
 30
0.0
 10
117.276625
 20
34.712937
 30
0.0
 10
116.157353
 20
33.593665
 30
0.0
 10
114.776660
 20
33.593665
 30
0.0
  0
SPLINE
  5
108
100
AcDbEntity
  8
Camada_1
 62
7
100
AcDbSpline
 70
8
 71
3
 72
8
 73
4
 74
0
 40
0
 40
0
 40
0
 40
0
 40
1
 40
1
 40
1
 40
1
 10
114.776660
 20
33.593665
 30
0.0
 10
113.395967
 20
33.593665
 30
0.0
 10
112.276694
 20
34.712937
 30
0.0
 10
112.276694
 20
36.093630
 30
0.0
  0
SPLINE
  5
109
100
AcDbEntity
  8
Camada_1
 62
7
100
AcDbSpline
 70
8
 71
3
 72
8
 73
4
 74
0
 40
0
 40
0
 40
0
 40
0
 40
1
 40
1
 40
1
 40
1
 10
112.276694
 20
36.093630
 30
0.0
 10
112.276694
 20
37.474323
 30
0.0
 10
113.395967
 20
38.593595
 30
0.0
 10
114.776660
 20
38.593595
 30
0.0
  0
SPLINE
  5
10a
100
AcDbEntity
  8
Camada_1
 62
7
100
AcDbSpline
 70
8
 71
3
 72
8
 73
4
 74
0
 40
0
 40
0
 40
0
 40
0
 40
1
 40
1
 40
1
 40
1
 10
114.776660
 20
38.593595
 30
0.0
 10
116.157353
 20
38.593595
 30
0.0
 10
117.276625
 20
37.474323
 30
0.0
 10
117.276626
 20
36.093630
 30
0.0
  0
LWPOLYLINE
  5
10b
100
AcDbEntity
  8
Camada_1
 62
7
100
AcDbPolyline
 90
1
 70
1
 10
121.280845
 20
104.469667
 30
0.0
  0
SPLINE
  5
10c
100
AcDbEntity
  8
Camada_1
 62
7
100
AcDbSpline
 70
8
 71
3
 72
8
 73
4
 74
0
 40
0
 40
0
 40
0
 40
0
 40
1
 40
1
 40
1
 40
1
 10
61.927467
 20
17.097677
 30
0.0
 10
61.927466
 20
15.716984
 30
0.0
 10
60.808194
 20
14.597712
 30
0.0
 10
59.427501
 20
14.597712
 30
0.0
  0
SPLINE
  5
10d
100
AcDbEntity
  8
Camada_1
 62
7
100
AcDbSpline
 70
8
 71
3
 72
8
 73
4
 74
0
 40
0
 40
0
 40
0
 40
0
 40
1
 40
1
 40
1
 40
1
 10
59.427501
 20
14.597712
 30
0.0
 10
58.046808
 20
14.597712
 30
0.0
 10
56.927536
 20
15.716984
 30
0.0
 10
56.927535
 20
17.097677
 30
0.0
  0
SPLINE
  5
10e
100
AcDbEntity
  8
Camada_1
 62
7
100
AcDbSpline
 70
8
 71
3
 72
8
 73
4
 74
0
 40
0
 40
0
 40
0
 40
0
 40
1
 40
1
 40
1
 40
1
 10
56.927535
 20
17.097677
 30
0.0
 10
56.927536
 20
18.478370
 30
0.0
 10
58.046808
 20
19.597642
 30
0.0
 10
59.427501
 20
19.597642
 30
0.0
  0
SPLINE
  5
10f
100
AcDbEntity
  8
Camada_1
 62
7
100
AcDbSpline
 70
8
 71
3
 72
8
 73
4
 74
0
 40
0
 40
0
 40
0
 40
0
 40
1
 40
1
 40
1
 40
1
 10
59.427501
 20
19.597642
 30
0.0
 10
60.808194
 20
19.597642
 30
0.0
 10
61.927466
 20
18.478370
 30
0.0
 10
61.927467
 20
17.097677
 30
0.0
  0
LWPOLYLINE
  5
110
100
AcDbEntity
  8
Camada_1
 62
7
100
AcDbPolyline
 90
1
 70
1
 10
117.276626
 20
36.093630
 30
0.0
  0
SPLINE
  5
111
100
AcDbEntity
  8
Camada_1
 62
7
100
AcDbSpline
 70
8
 71
3
 72
8
 73
4
 74
0
 40
0
 40
0
 40
0
 40
0
 40
1
 40
1
 40
1
 40
1
 10
35.126627
 20
62.749598
 30
0.0
 10
35.126627
 20
61.368904
 30
0.0
 10
34.007354
 20
60.249632
 30
0.0
 10
32.626661
 20
60.249631
 30
0.0
  0
SPLINE
  5
112
100
AcDbEntity
  8
Camada_1
 62
7
100
AcDbSpline
 70
8
 71
3
 72
8
 73
4
 74
0
 40
0
 40
0
 40
0
 40
0
 40
1
 40
1
 40
1
 40
1
 10
32.626661
 20
60.249631
 30
0.0
 10
31.245968
 20
60.249632
 30
0.0
 10
30.126695
 20
61.368904
 30
0.0
 10
30.126695
 20
62.749598
 30
0.0
  0
SPLINE
  5
113
100
AcDbEntity
  8
Camada_1
 62
7
100
AcDbSpline
 70
8
 71
3
 72
8
 73
4
 74
0
 40
0
 40
0
 40
0
 40
0
 40
1
 40
1
 40
1
 40
1
 10
30.126695
 20
62.749598
 30
0.0
 10
30.126695
 20
64.130291
 30
0.0
 10
31.245968
 20
65.249564
 30
0.0
 10
32.626661
 20
65.249564
 30
0.0
  0
SPLINE
  5
114
100
AcDbEntity
  8
Camada_1
 62
7
100
AcDbSpline
 70
8
 71
3
 72
8
 73
4
 74
0
 40
0
 40
0
 40
0
 40
0
 40
1
 40
1
 40
1
 40
1
 10
32.626661
 20
65.249564
 30
0.0
 10
34.007354
 20
65.249564
 30
0.0
 10
35.126627
 20
64.130291
 30
0.0
 10
35.126627
 20
62.749598
 30
0.0
  0
LWPOLYLINE
  5
115
100
AcDbEntity
  8
Camada_1
 62
7
100
AcDbPolyline
 90
1
 70
1
 10
61.927467
 20
17.097677
 30
0.0
  0
SPLINE
  5
116
100
AcDbEntity
  8
Camada_1
 62
7
100
AcDbSpline
 70
8
 71
3
 72
8
 73
4
 74
0
 40
0
 40
0
 40
0
 40
0
 40
1
 40
1
 40
1
 40
1
 10
35.279768
 20
116.866400
 30
0.0
 10
35.279768
 20
115.485707
 30
0.0
 10
34.160495
 20
114.366434
 30
0.0
 10
32.779802
 20
114.366434
 30
0.0
  0
SPLINE
  5
117
100
AcDbEntity
  8
Camada_1
 62
7
100
AcDbSpline
 70
8
 71
3
 72
8
 73
4
 74
0
 40
0
 40
0
 40
0
 40
0
 40
1
 40
1
 40
1
 40
1
 10
32.779802
 20
114.366434
 30
0.0
 10
31.399108
 20
114.366434
 30
0.0
 10
30.279836
 20
115.485707
 30
0.0
 10
30.279835
 20
116.866400
 30
0.0
  0
SPLINE
  5
118
100
AcDbEntity
  8
Camada_1
 62
7
100
AcDbSpline
 70
8
 71
3
 72
8
 73
4
 74
0
 40
0
 40
0
 40
0
 40
0
 40
1
 40
1
 40
1
 40
1
 10
30.279835
 20
116.866400
 30
0.0
 10
30.279835
 20
117.529432
 30
0.0
 10
30.543224
 20
118.165309
 30
0.0
 10
31.012058
 20
118.634144
 30
0.0
  0
SPLINE
  5
119
100
AcDbEntity
  8
Camada_1
 62
7
100
AcDbSpline
 70
8
 71
3
 72
8
 73
4
 74
0
 40
0
 40
0
 40
0
 40
0
 40
1
 40
1
 40
1
 40
1
 10
31.012058
 20
118.634144
 30
0.0
 10
31.480893
 20
119.102978
 30
0.0
 10
32.116769
 20
119.366367
 30
0.0
 10
32.779802
 20
119.366367
 30
0.0
  0
SPLINE
  5
11a
100
AcDbEntity
  8
Camada_1
 62
7
100
AcDbSpline
 70
8
 71
3
 72
8
 73
4
 74
0
 40
0
 40
0
 40
0
 40
0
 40
1
 40
1
 40
1
 40
1
 10
32.779802
 20
119.366367
 30
0.0
 10
33.442834
 20
119.366367
 30
0.0
 10
34.078710
 20
119.102978
 30
0.0
 10
34.547545
 20
118.634144
 30
0.0
  0
SPLINE
  5
11b
100
AcDbEntity
  8
Camada_1
 62
7
100
AcDbSpline
 70
8
 71
3
 72
8
 73
4
 74
0
 40
0
 40
0
 40
0
 40
0
 40
1
 40
1
 40
1
 40
1
 10
34.547545
 20
118.634144
 30
0.0
 10
35.016380
 20
118.165309
 30
0.0
 10
35.279768
 20
117.529432
 30
0.0
 10
35.279768
 20
116.866400
 30
0.0
  0
LWPOLYLINE
  5
11c
100
AcDbEntity
  8
Camada_1
 62
7
100
AcDbPolyline
 90
1
 70
1
 10
35.126627
 20
62.749598
 30
0.0
  0
SPLINE
  5
11d
100
AcDbEntity
  8
Camada_1
 62
7
100
AcDbSpline
 70
8
 71
3
 72
8
 73
4
 74
0
 40
0
 40
0
 40
0
 40
0
 40
1
 40
1
 40
1
 40
1
 10
56.803977
 20
-89.994306
 30
0.0
 10
56.803976
 20
-91.374999
 30
0.0
 10
55.684704
 20
-92.494271
 30
0.0
 10
54.304011
 20
-92.494271
 30
0.0
  0
SPLINE
  5
11e
100
AcDbEntity
  8
Camada_1
 62
7
100
AcDbSpline
 70
8
 71
3
 72
8
 73
4
 74
0
 40
0
 40
0
 40
0
 40
0
 40
1
 40
1
 40
1
 40
1
 10
54.304011
 20
-92.494271
 30
0.0
 10
52.923318
 20
-92.494271
 30
0.0
 10
51.804045
 20
-91.374999
 30
0.0
 10
51.804045
 20
-89.994306
 30
0.0
  0
SPLINE
  5
11f
100
AcDbEntity
  8
Camada_1
 62
7
100
AcDbSpline
 70
8
 71
3
 72
8
 73
4
 74
0
 40
0
 40
0
 40
0
 40
0
 40
1
 40
1
 40
1
 40
1
 10
51.804045
 20
-89.994306
 30
0.0
 10
51.804045
 20
-88.613613
 30
0.0
 10
52.923318
 20
-87.494341
 30
0.0
 10
54.304011
 20
-87.494341
 30
0.0
  0
SPLINE
  5
120
100
AcDbEntity
  8
Camada_1
 62
7
100
AcDbSpline
 70
8
 71
3
 72
8
 73
4
 74
0
 40
0
 40
0
 40
0
 40
0
 40
1
 40
1
 40
1
 40
1
 10
54.304011
 20
-87.494341
 30
0.0
 10
55.684704
 20
-87.494341
 30
0.0
 10
56.803976
 20
-88.613613
 30
0.0
 10
56.803977
 20
-89.994306
 30
0.0
  0
LWPOLYLINE
  5
121
100
AcDbEntity
  8
Camada_1
 62
7
100
AcDbPolyline
 90
1
 70
1
 10
35.279768
 20
116.866400
 30
0.0
  0
SPLINE
  5
122
100
AcDbEntity
  8
Camada_1
 62
7
100
AcDbSpline
 70
8
 71
3
 72
8
 73
4
 74
0
 40
0
 40
0
 40
0
 40
0
 40
1
 40
1
 40
1
 40
1
 10
80.611470
 20
-95.730385
 30
0.0
 10
80.611469
 20
-97.111078
 30
0.0
 10
79.492197
 20
-98.230350
 30
0.0
 10
78.111504
 20
-98.230350
 30
0.0
  0
SPLINE
  5
123
100
AcDbEntity
  8
Camada_1
 62
7
100
AcDbSpline
 70
8
 71
3
 72
8
 73
4
 74
0
 40
0
 40
0
 40
0
 40
0
 40
1
 40
1
 40
1
 40
1
 10
78.111504
 20
-98.230350
 30
0.0
 10
76.730811
 20
-98.230350
 30
0.0
 10
75.611538
 20
-97.111078
 30
0.0
 10
75.611537
 20
-95.730385
 30
0.0
  0
SPLINE
  5
124
100
AcDbEntity
  8
Camada_1
 62
7
100
AcDbSpline
 70
8
 71
3
 72
8
 73
4
 74
0
 40
0
 40
0
 40
0
 40
0
 40
1
 40
1
 40
1
 40
1
 10
75.611537
 20
-95.730385
 30
0.0
 10
75.611538
 20
-94.349692
 30
0.0
 10
76.730811
 20
-93.230420
 30
0.0
 10
78.111504
 20
-93.230420
 30
0.0
  0
SPLINE
  5
125
100
AcDbEntity
  8
Camada_1
 62
7
100
AcDbSpline
 70
8
 71
3
 72
8
 73
4
 74
0
 40
0
 40
0
 40
0
 40
0
 40
1
 40
1
 40
1
 40
1
 10
78.111504
 20
-93.230420
 30
0.0
 10
79.492197
 20
-93.230420
 30
0.0
 10
80.611469
 20
-94.349692
 30
0.0
 10
80.611470
 20
-95.730385
 30
0.0
  0
LWPOLYLINE
  5
126
100
AcDbEntity
  8
Camada_1
 62
7
100
AcDbPolyline
 90
1
 70
1
 10
56.803977
 20
-89.994306
 30
0.0
  0
SPLINE
  5
127
100
AcDbEntity
  8
Camada_1
 62
7
100
AcDbSpline
 70
8
 71
3
 72
8
 73
4
 74
0
 40
0
 40
0
 40
0
 40
0
 40
1
 40
1
 40
1
 40
1
 10
-189.541003
 20
-80.304235
 30
0.0
 10
-189.541004
 20
-81.684927
 30
0.0
 10
-190.660276
 20
-82.804199
 30
0.0
 10
-192.040968
 20
-82.804200
 30
0.0
  0
SPLINE
  5
128
100
AcDbEntity
  8
Camada_1
 62
7
100
AcDbSpline
 70
8
 71
3
 72
8
 73
4
 74
0
 40
0
 40
0
 40
0
 40
0
 40
1
 40
1
 40
1
 40
1
 10
-192.040968
 20
-82.804200
 30
0.0
 10
-193.421661
 20
-82.804199
 30
0.0
 10
-194.540933
 20
-81.684927
 30
0.0
 10
-194.540934
 20
-80.304235
 30
0.0
  0
SPLINE
  5
129
100
AcDbEntity
  8
Camada_1
 62
7
100
AcDbSpline
 70
8
 71
3
 72
8
 73
4
 74
0
 40
0
 40
0
 40
0
 40
0
 40
1
 40
1
 40
1
 40
1
 10
-194.540934
 20
-80.304235
 30
0.0
 10
-194.540933
 20
-78.923542
 30
0.0
 10
-193.421661
 20
-77.804270
 30
0.0
 10
-192.040968
 20
-77.804269
 30
0.0
  0
SPLINE
  5
12a
100
AcDbEntity
  8
Camada_1
 62
7
100
AcDbSpline
 70
8
 71
3
 72
8
 73
4
 74
0
 40
0
 40
0
 40
0
 40
0
 40
1
 40
1
 40
1
 40
1
 10
-192.040968
 20
-77.804269
 30
0.0
 10
-190.660276
 20
-77.804270
 30
0.0
 10
-189.541004
 20
-78.923542
 30
0.0
 10
-189.541003
 20
-80.304235
 30
0.0
  0
LWPOLYLINE
  5
12b
100
AcDbEntity
  8
Camada_1
 62
7
100
AcDbPolyline
 90
1
 70
1
 10
80.611470
 20
-95.730385
 30
0.0
  0
SPLINE
  5
12c
100
AcDbEntity
  8
Camada_1
 62
7
100
AcDbSpline
 70
8
 71
3
 72
8
 73
4
 74
0
 40
0
 40
0
 40
0
 40
0
 40
1
 40
1
 40
1
 40
1
 10
-85.428425
 20
-81.863552
 30
0.0
 10
-85.428422
 20
-82.526585
 30
0.0
 10
-85.691810
 20
-83.162464
 30
0.0
 10
-86.160644
 20
-83.631300
 30
0.0
  0
SPLINE
  5
12d
100
AcDbEntity
  8
Camada_1
 62
7
100
AcDbSpline
 70
8
 71
3
 72
8
 73
4
 74
0
 40
0
 40
0
 40
0
 40
0
 40
1
 40
1
 40
1
 40
1
 10
-86.160644
 20
-83.631300
 30
0.0
 10
-86.629479
 20
-84.100137
 30
0.0
 10
-87.265356
 20
-84.363526
 30
0.0
 10
-87.928390
 20
-84.363527
 30
0.0
  0
SPLINE
  5
12e
100
AcDbEntity
  8
Camada_1
 62
7
100
AcDbSpline
 70
8
 71
3
 72
8
 73
4
 74
0
 40
0
 40
0
 40
0
 40
0
 40
1
 40
1
 40
1
 40
1
 10
-87.928390
 20
-84.363527
 30
0.0
 10
-88.591424
 20
-84.363526
 30
0.0
 10
-89.227301
 20
-84.100137
 30
0.0
 10
-89.696135
 20
-83.631300
 30
0.0
  0
SPLINE
  5
12f
100
AcDbEntity
  8
Camada_1
 62
7
100
AcDbSpline
 70
8
 71
3
 72
8
 73
4
 74
0
 40
0
 40
0
 40
0
 40
0
 40
1
 40
1
 40
1
 40
1
 10
-89.696135
 20
-83.631300
 30
0.0
 10
-90.164970
 20
-83.162464
 30
0.0
 10
-90.428357
 20
-82.526585
 30
0.0
 10
-90.428355
 20
-81.863552
 30
0.0
  0
SPLINE
  5
130
100
AcDbEntity
  8
Camada_1
 62
7
100
AcDbSpline
 70
8
 71
3
 72
8
 73
4
 74
0
 40
0
 40
0
 40
0
 40
0
 40
1
 40
1
 40
1
 40
1
 10
-90.428355
 20
-81.863552
 30
0.0
 10
-90.428354
 20
-80.482859
 30
0.0
 10
-89.309082
 20
-79.363587
 30
0.0
 10
-87.928390
 20
-79.363586
 30
0.0
  0
SPLINE
  5
131
100
AcDbEntity
  8
Camada_1
 62
7
100
AcDbSpline
 70
8
 71
3
 72
8
 73
4
 74
0
 40
0
 40
0
 40
0
 40
0
 40
1
 40
1
 40
1
 40
1
 10
-87.928390
 20
-79.363586
 30
0.0
 10
-86.547698
 20
-79.363587
 30
0.0
 10
-85.428425
 20
-80.482859
 30
0.0
 10
-85.428425
 20
-81.863552
 30
0.0
  0
LWPOLYLINE
  5
132
100
AcDbEntity
  8
Camada_1
 62
7
100
AcDbPolyline
 90
1
 70
1
 10
-189.541003
 20
-80.304235
 30
0.0
  0
SPLINE
  5
133
100
AcDbEntity
  8
Camada_1
 62
7
100
AcDbSpline
 70
8
 71
3
 72
8
 73
4
 74
0
 40
0
 40
0
 40
0
 40
0
 40
1
 40
1
 40
1
 40
1
 10
-73.218378
 20
-81.250963
 30
0.0
 10
-73.218379
 20
-82.631655
 30
0.0
 10
-74.337651
 20
-83.750927
 30
0.0
 10
-75.718344
 20
-83.750928
 30
0.0
  0
SPLINE
  5
134
100
AcDbEntity
  8
Camada_1
 62
7
100
AcDbSpline
 70
8
 71
3
 72
8
 73
4
 74
0
 40
0
 40
0
 40
0
 40
0
 40
1
 40
1
 40
1
 40
1
 10
-75.718344
 20
-83.750928
 30
0.0
 10
-76.381377
 20
-83.750930
 30
0.0
 10
-77.017255
 20
-83.487543
 30
0.0
 10
-77.486092
 20
-83.018708
 30
0.0
  0
SPLINE
  5
135
100
AcDbEntity
  8
Camada_1
 62
7
100
AcDbSpline
 70
8
 71
3
 72
8
 73
4
 74
0
 40
0
 40
0
 40
0
 40
0
 40
1
 40
1
 40
1
 40
1
 10
-77.486092
 20
-83.018708
 30
0.0
 10
-77.954928
 20
-82.549874
 30
0.0
 10
-78.218318
 20
-81.913996
 30
0.0
 10
-78.218319
 20
-81.250963
 30
0.0
  0
SPLINE
  5
136
100
AcDbEntity
  8
Camada_1
 62
7
100
AcDbSpline
 70
8
 71
3
 72
8
 73
4
 74
0
 40
0
 40
0
 40
0
 40
0
 40
1
 40
1
 40
1
 40
1
 10
-78.218319
 20
-81.250963
 30
0.0
 10
-78.218318
 20
-80.587929
 30
0.0
 10
-77.954928
 20
-79.952052
 30
0.0
 10
-77.486092
 20
-79.483217
 30
0.0
  0
SPLINE
  5
137
100
AcDbEntity
  8
Camada_1
 62
7
100
AcDbSpline
 70
8
 71
3
 72
8
 73
4
 74
0
 40
0
 40
0
 40
0
 40
0
 40
1
 40
1
 40
1
 40
1
 10
-77.486092
 20
-79.483217
 30
0.0
 10
-77.017255
 20
-79.014383
 30
0.0
 10
-76.381377
 20
-78.750995
 30
0.0
 10
-75.718344
 20
-78.750998
 30
0.0
  0
SPLINE
  5
138
100
AcDbEntity
  8
Camada_1
 62
7
100
AcDbSpline
 70
8
 71
3
 72
8
 73
4
 74
0
 40
0
 40
0
 40
0
 40
0
 40
1
 40
1
 40
1
 40
1
 10
-75.718344
 20
-78.750998
 30
0.0
 10
-74.337651
 20
-78.750998
 30
0.0
 10
-73.218379
 20
-79.870270
 30
0.0
 10
-73.218378
 20
-81.250963
 30
0.0
  0
LWPOLYLINE
  5
139
100
AcDbEntity
  8
Camada_1
 62
7
100
AcDbPolyline
 90
1
 70
1
 10
-85.428425
 20
-81.863552
 30
0.0
  0
SPLINE
  5
13a
100
AcDbEntity
  8
Camada_1
 62
7
100
AcDbSpline
 70
8
 71
3
 72
8
 73
4
 74
0
 40
0
 40
0
 40
0
 40
0
 40
1
 40
1
 40
1
 40
1
 10
-42.825537
 20
-86.123843
 30
0.0
 10
-42.825535
 20
-86.786877
 30
0.0
 10
-43.088922
 20
-87.422755
 30
0.0
 10
-43.557757
 20
-87.891592
 30
0.0
  0
SPLINE
  5
13b
100
AcDbEntity
  8
Camada_1
 62
7
100
AcDbSpline
 70
8
 71
3
 72
8
 73
4
 74
0
 40
0
 40
0
 40
0
 40
0
 40
1
 40
1
 40
1
 40
1
 10
-43.557757
 20
-87.891592
 30
0.0
 10
-44.026591
 20
-88.360428
 30
0.0
 10
-44.662469
 20
-88.623818
 30
0.0
 10
-45.325502
 20
-88.623819
 30
0.0
  0
SPLINE
  5
13c
100
AcDbEntity
  8
Camada_1
 62
7
100
AcDbSpline
 70
8
 71
3
 72
8
 73
4
 74
0
 40
0
 40
0
 40
0
 40
0
 40
1
 40
1
 40
1
 40
1
 10
-45.325502
 20
-88.623819
 30
0.0
 10
-45.988536
 20
-88.623818
 30
0.0
 10
-46.624413
 20
-88.360428
 30
0.0
 10
-47.093248
 20
-87.891592
 30
0.0
  0
SPLINE
  5
13d
100
AcDbEntity
  8
Camada_1
 62
7
100
AcDbSpline
 70
8
 71
3
 72
8
 73
4
 74
0
 40
0
 40
0
 40
0
 40
0
 40
1
 40
1
 40
1
 40
1
 10
-47.093248
 20
-87.891592
 30
0.0
 10
-47.562082
 20
-87.422755
 30
0.0
 10
-47.825470
 20
-86.786877
 30
0.0
 10
-47.825467
 20
-86.123843
 30
0.0
  0
SPLINE
  5
13e
100
AcDbEntity
  8
Camada_1
 62
7
100
AcDbSpline
 70
8
 71
3
 72
8
 73
4
 74
0
 40
0
 40
0
 40
0
 40
0
 40
1
 40
1
 40
1
 40
1
 10
-47.825467
 20
-86.123843
 30
0.0
 10
-47.825467
 20
-84.743151
 30
0.0
 10
-46.706195
 20
-83.623879
 30
0.0
 10
-45.325502
 20
-83.623878
 30
0.0
  0
SPLINE
  5
13f
100
AcDbEntity
  8
Camada_1
 62
7
100
AcDbSpline
 70
8
 71
3
 72
8
 73
4
 74
0
 40
0
 40
0
 40
0
 40
0
 40
1
 40
1
 40
1
 40
1
 10
-45.325502
 20
-83.623878
 30
0.0
 10
-43.944810
 20
-83.623879
 30
0.0
 10
-42.825538
 20
-84.743151
 30
0.0
 10
-42.825537
 20
-86.123843
 30
0.0
  0
LWPOLYLINE
  5
140
100
AcDbEntity
  8
Camada_1
 62
7
100
AcDbPolyline
 90
1
 70
1
 10
-73.218378
 20
-81.250963
 30
0.0
  0
SPLINE
  5
141
100
AcDbEntity
  8
Camada_1
 62
7
100
AcDbSpline
 70
8
 71
3
 72
8
 73
4
 74
0
 40
0
 40
0
 40
0
 40
0
 40
1
 40
1
 40
1
 40
1
 10
-18.823117
 20
-93.781229
 30
0.0
 10
-18.823117
 20
-95.161921
 30
0.0
 10
-19.942390
 20
-96.281194
 30
0.0
 10
-21.323083
 20
-96.281194
 30
0.0
  0
SPLINE
  5
142
100
AcDbEntity
  8
Camada_1
 62
7
100
AcDbSpline
 70
8
 71
3
 72
8
 73
4
 74
0
 40
0
 40
0
 40
0
 40
0
 40
1
 40
1
 40
1
 40
1
 10
-21.323083
 20
-96.281194
 30
0.0
 10
-22.703775
 20
-96.281194
 30
0.0
 10
-23.823048
 20
-95.161921
 30
0.0
 10
-23.823049
 20
-93.781229
 30
0.0
  0
SPLINE
  5
143
100
AcDbEntity
  8
Camada_1
 62
7
100
AcDbSpline
 70
8
 71
3
 72
8
 73
4
 74
0
 40
0
 40
0
 40
0
 40
0
 40
1
 40
1
 40
1
 40
1
 10
-23.823049
 20
-93.781229
 30
0.0
 10
-23.823048
 20
-92.400536
 30
0.0
 10
-22.703775
 20
-91.281264
 30
0.0
 10
-21.323083
 20
-91.281263
 30
0.0
  0
SPLINE
  5
144
100
AcDbEntity
  8
Camada_1
 62
7
100
AcDbSpline
 70
8
 71
3
 72
8
 73
4
 74
0
 40
0
 40
0
 40
0
 40
0
 40
1
 40
1
 40
1
 40
1
 10
-21.323083
 20
-91.281263
 30
0.0
 10
-19.942390
 20
-91.281264
 30
0.0
 10
-18.823117
 20
-92.400536
 30
0.0
 10
-18.823117
 20
-93.781229
 30
0.0
  0
LWPOLYLINE
  5
145
100
AcDbEntity
  8
Camada_1
 62
7
100
AcDbPolyline
 90
1
 70
1
 10
-42.825537
 20
-86.123843
 30
0.0
  0
SPLINE
  5
146
100
AcDbEntity
  8
Camada_1
 62
7
100
AcDbSpline
 70
8
 71
3
 72
8
 73
4
 74
0
 40
0
 40
0
 40
0
 40
0
 40
1
 40
1
 40
1
 40
1
 10
-38.342486
 20
21.163049
 30
0.0
 10
-38.342486
 20
19.782357
 30
0.0
 10
-39.461759
 20
18.663085
 30
0.0
 10
-40.842451
 20
18.663084
 30
0.0
  0
SPLINE
  5
147
100
AcDbEntity
  8
Camada_1
 62
7
100
AcDbSpline
 70
8
 71
3
 72
8
 73
4
 74
0
 40
0
 40
0
 40
0
 40
0
 40
1
 40
1
 40
1
 40
1
 10
-40.842451
 20
18.663084
 30
0.0
 10
-42.223143
 20
18.663085
 30
0.0
 10
-43.342415
 20
19.782357
 30
0.0
 10
-43.342416
 20
21.163049
 30
0.0
  0
SPLINE
  5
148
100
AcDbEntity
  8
Camada_1
 62
7
100
AcDbSpline
 70
8
 71
3
 72
8
 73
4
 74
0
 40
0
 40
0
 40
0
 40
0
 40
1
 40
1
 40
1
 40
1
 10
-43.342416
 20
21.163049
 30
0.0
 10
-43.342415
 20
22.543741
 30
0.0
 10
-42.223143
 20
23.663014
 30
0.0
 10
-40.842451
 20
23.663014
 30
0.0
  0
SPLINE
  5
149
100
AcDbEntity
  8
Camada_1
 62
7
100
AcDbSpline
 70
8
 71
3
 72
8
 73
4
 74
0
 40
0
 40
0
 40
0
 40
0
 40
1
 40
1
 40
1
 40
1
 10
-40.842451
 20
23.663014
 30
0.0
 10
-39.461759
 20
23.663014
 30
0.0
 10
-38.342486
 20
22.543741
 30
0.0
 10
-38.342486
 20
21.163049
 30
0.0
  0
LWPOLYLINE
  5
14a
100
AcDbEntity
  8
Camada_1
 62
7
100
AcDbPolyline
 90
1
 70
1
 10
-18.823117
 20
-93.781229
 30
0.0
  0
SPLINE
  5
14b
100
AcDbEntity
  8
Camada_1
 62
7
100
AcDbSpline
 70
8
 71
3
 72
8
 73
4
 74
0
 40
0
 40
0
 40
0
 40
0
 40
1
 40
1
 40
1
 40
1
 10
-12.780747
 20
15.983869
 30
0.0
 10
-12.780748
 20
14.603176
 30
0.0
 10
-13.900021
 20
13.483904
 30
0.0
 10
-15.280713
 20
13.483904
 30
0.0
  0
SPLINE
  5
14c
100
AcDbEntity
  8
Camada_1
 62
7
100
AcDbSpline
 70
8
 71
3
 72
8
 73
4
 74
0
 40
0
 40
0
 40
0
 40
0
 40
1
 40
1
 40
1
 40
1
 10
-15.280713
 20
13.483904
 30
0.0
 10
-16.661406
 20
13.483904
 30
0.0
 10
-17.780679
 20
14.603176
 30
0.0
 10
-17.780680
 20
15.983869
 30
0.0
  0
SPLINE
  5
14d
100
AcDbEntity
  8
Camada_1
 62
7
100
AcDbSpline
 70
8
 71
3
 72
8
 73
4
 74
0
 40
0
 40
0
 40
0
 40
0
 40
1
 40
1
 40
1
 40
1
 10
-17.780680
 20
15.983869
 30
0.0
 10
-17.780679
 20
17.364562
 30
0.0
 10
-16.661406
 20
18.483834
 30
0.0
 10
-15.280713
 20
18.483834
 30
0.0
  0
SPLINE
  5
14e
100
AcDbEntity
  8
Camada_1
 62
7
100
AcDbSpline
 70
8
 71
3
 72
8
 73
4
 74
0
 40
0
 40
0
 40
0
 40
0
 40
1
 40
1
 40
1
 40
1
 10
-15.280713
 20
18.483834
 30
0.0
 10
-13.900021
 20
18.483834
 30
0.0
 10
-12.780748
 20
17.364562
 30
0.0
 10
-12.780747
 20
15.983869
 30
0.0
  0
LWPOLYLINE
  5
14f
100
AcDbEntity
  8
Camada_1
 62
7
100
AcDbPolyline
 90
1
 70
1
 10
-38.342486
 20
21.163049
 30
0.0
  0
SPLINE
  5
150
100
AcDbEntity
  8
Camada_1
 62
7
100
AcDbSpline
 70
8
 71
3
 72
8
 73
4
 74
0
 40
0
 40
0
 40
0
 40
0
 40
1
 40
1
 40
1
 40
1
 10
-176.528198
 20
-75.623284
 30
0.0
 10
-176.528196
 20
-76.286317
 30
0.0
 10
-176.791584
 20
-76.922196
 30
0.0
 10
-177.260418
 20
-77.391032
 30
0.0
  0
SPLINE
  5
151
100
AcDbEntity
  8
Camada_1
 62
7
100
AcDbSpline
 70
8
 71
3
 72
8
 73
4
 74
0
 40
0
 40
0
 40
0
 40
0
 40
1
 40
1
 40
1
 40
1
 10
-177.260418
 20
-77.391032
 30
0.0
 10
-177.729253
 20
-77.859869
 30
0.0
 10
-178.365130
 20
-78.123259
 30
0.0
 10
-179.028164
 20
-78.123259
 30
0.0
  0
SPLINE
  5
152
100
AcDbEntity
  8
Camada_1
 62
7
100
AcDbSpline
 70
8
 71
3
 72
8
 73
4
 74
0
 40
0
 40
0
 40
0
 40
0
 40
1
 40
1
 40
1
 40
1
 10
-179.028164
 20
-78.123259
 30
0.0
 10
-179.691197
 20
-78.123259
 30
0.0
 10
-180.327075
 20
-77.859869
 30
0.0
 10
-180.795909
 20
-77.391032
 30
0.0
  0
SPLINE
  5
153
100
AcDbEntity
  8
Camada_1
 62
7
100
AcDbSpline
 70
8
 71
3
 72
8
 73
4
 74
0
 40
0
 40
0
 40
0
 40
0
 40
1
 40
1
 40
1
 40
1
 10
-180.795909
 20
-77.391032
 30
0.0
 10
-181.264744
 20
-76.922196
 30
0.0
 10
-181.528131
 20
-76.286317
 30
0.0
 10
-181.528129
 20
-75.623284
 30
0.0
  0
SPLINE
  5
154
100
AcDbEntity
  8
Camada_1
 62
7
100
AcDbSpline
 70
8
 71
3
 72
8
 73
4
 74
0
 40
0
 40
0
 40
0
 40
0
 40
1
 40
1
 40
1
 40
1
 10
-181.528129
 20
-75.623284
 30
0.0
 10
-181.528128
 20
-74.242591
 30
0.0
 10
-180.408856
 20
-73.123319
 30
0.0
 10
-179.028164
 20
-73.123319
 30
0.0
  0
SPLINE
  5
155
100
AcDbEntity
  8
Camada_1
 62
7
100
AcDbSpline
 70
8
 71
3
 72
8
 73
4
 74
0
 40
0
 40
0
 40
0
 40
0
 40
1
 40
1
 40
1
 40
1
 10
-179.028164
 20
-73.123319
 30
0.0
 10
-177.647471
 20
-73.123319
 30
0.0
 10
-176.528199
 20
-74.242591
 30
0.0
 10
-176.528198
 20
-75.623284
 30
0.0
  0
LWPOLYLINE
  5
156
100
AcDbEntity
  8
Camada_1
 62
7
100
AcDbPolyline
 90
1
 70
1
 10
-12.780747
 20
15.983869
 30
0.0
  0
SPLINE
  5
157
100
AcDbEntity
  8
Camada_1
 62
7
100
AcDbSpline
 70
8
 71
3
 72
8
 73
4
 74
0
 40
0
 40
0
 40
0
 40
0
 40
1
 40
1
 40
1
 40
1
 10
-189.944753
 20
-125.900476
 30
0.0
 10
-189.944753
 20
-127.281169
 30
0.0
 10
-191.064025
 20
-128.400441
 30
0.0
 10
-192.444718
 20
-128.400442
 30
0.0
  0
SPLINE
  5
158
100
AcDbEntity
  8
Camada_1
 62
7
100
AcDbSpline
 70
8
 71
3
 72
8
 73
4
 74
0
 40
0
 40
0
 40
0
 40
0
 40
1
 40
1
 40
1
 40
1
 10
-192.444718
 20
-128.400442
 30
0.0
 10
-193.825410
 20
-128.400441
 30
0.0
 10
-194.944682
 20
-127.281169
 30
0.0
 10
-194.944683
 20
-125.900476
 30
0.0
  0
SPLINE
  5
159
100
AcDbEntity
  8
Camada_1
 62
7
100
AcDbSpline
 70
8
 71
3
 72
8
 73
4
 74
0
 40
0
 40
0
 40
0
 40
0
 40
1
 40
1
 40
1
 40
1
 10
-194.944683
 20
-125.900476
 30
0.0
 10
-194.944682
 20
-124.519784
 30
0.0
 10
-193.825410
 20
-123.400512
 30
0.0
 10
-192.444718
 20
-123.400511
 30
0.0
  0
SPLINE
  5
15a
100
AcDbEntity
  8
Camada_1
 62
7
100
AcDbSpline
 70
8
 71
3
 72
8
 73
4
 74
0
 40
0
 40
0
 40
0
 40
0
 40
1
 40
1
 40
1
 40
1
 10
-192.444718
 20
-123.400511
 30
0.0
 10
-191.064025
 20
-123.400512
 30
0.0
 10
-189.944753
 20
-124.519784
 30
0.0
 10
-189.944753
 20
-125.900476
 30
0.0
  0
LWPOLYLINE
  5
15b
100
AcDbEntity
  8
Camada_1
 62
7
100
AcDbPolyline
 90
1
 70
1
 10
-176.528198
 20
-75.623284
 30
0.0
  0
SPLINE
  5
15c
100
AcDbEntity
  8
Camada_1
 62
7
100
AcDbSpline
 70
8
 71
3
 72
8
 73
4
 74
0
 40
0
 40
0
 40
0
 40
0
 40
1
 40
1
 40
1
 40
1
 10
-178.528265
 20
-121.988224
 30
0.0
 10
-178.528265
 20
-123.368916
 30
0.0
 10
-179.647537
 20
-124.488188
 30
0.0
 10
-181.028230
 20
-124.488189
 30
0.0
  0
SPLINE
  5
15d
100
AcDbEntity
  8
Camada_1
 62
7
100
AcDbSpline
 70
8
 71
3
 72
8
 73
4
 74
0
 40
0
 40
0
 40
0
 40
0
 40
1
 40
1
 40
1
 40
1
 10
-181.028230
 20
-124.488189
 30
0.0
 10
-181.691263
 20
-124.488191
 30
0.0
 10
-182.327142
 20
-124.224804
 30
0.0
 10
-182.795978
 20
-123.755969
 30
0.0
  0
SPLINE
  5
15e
100
AcDbEntity
  8
Camada_1
 62
7
100
AcDbSpline
 70
8
 71
3
 72
8
 73
4
 74
0
 40
0
 40
0
 40
0
 40
0
 40
1
 40
1
 40
1
 40
1
 10
-182.795978
 20
-123.755969
 30
0.0
 10
-183.264815
 20
-123.287135
 30
0.0
 10
-183.528205
 20
-122.651258
 30
0.0
 10
-183.528205
 20
-121.988224
 30
0.0
  0
SPLINE
  5
15f
100
AcDbEntity
  8
Camada_1
 62
7
100
AcDbSpline
 70
8
 71
3
 72
8
 73
4
 74
0
 40
0
 40
0
 40
0
 40
0
 40
1
 40
1
 40
1
 40
1
 10
-183.528205
 20
-121.988224
 30
0.0
 10
-183.528207
 20
-121.325189
 30
0.0
 10
-183.264819
 20
-120.689309
 30
0.0
 10
-182.795982
 20
-120.220472
 30
0.0
  0
SPLINE
  5
160
100
AcDbEntity
  8
Camada_1
 62
7
100
AcDbSpline
 70
8
 71
3
 72
8
 73
4
 74
0
 40
0
 40
0
 40
0
 40
0
 40
1
 40
1
 40
1
 40
1
 10
-182.795982
 20
-120.220472
 30
0.0
 10
-182.327145
 20
-119.751635
 30
0.0
 10
-181.691265
 20
-119.488246
 30
0.0
 10
-181.028230
 20
-119.488249
 30
0.0
  0
SPLINE
  5
161
100
AcDbEntity
  8
Camada_1
 62
7
100
AcDbSpline
 70
8
 71
3
 72
8
 73
4
 74
0
 40
0
 40
0
 40
0
 40
0
 40
1
 40
1
 40
1
 40
1
 10
-181.028230
 20
-119.488249
 30
0.0
 10
-180.365196
 20
-119.488249
 30
0.0
 10
-179.729319
 20
-119.751639
 30
0.0
 10
-179.260484
 20
-120.220476
 30
0.0
  0
SPLINE
  5
162
100
AcDbEntity
  8
Camada_1
 62
7
100
AcDbSpline
 70
8
 71
3
 72
8
 73
4
 74
0
 40
0
 40
0
 40
0
 40
0
 40
1
 40
1
 40
1
 40
1
 10
-179.260484
 20
-120.220476
 30
0.0
 10
-178.791650
 20
-120.689312
 30
0.0
 10
-178.528262
 20
-121.325190
 30
0.0
 10
-178.528265
 20
-121.988224
 30
0.0
  0
LWPOLYLINE
  5
163
100
AcDbEntity
  8
Camada_1
 62
7
100
AcDbPolyline
 90
1
 70
1
 10
-189.944753
 20
-125.900476
 30
0.0
  0
SPLINE
  5
164
100
AcDbEntity
  8
Camada_1
 62
7
100
AcDbSpline
 70
8
 71
3
 72
8
 73
4
 74
0
 40
0
 40
0
 40
0
 40
0
 40
1
 40
1
 40
1
 40
1
 10
-74.332176
 20
-128.336902
 30
0.0
 10
-74.332177
 20
-129.717594
 30
0.0
 10
-75.451449
 20
-130.836866
 30
0.0
 10
-76.832141
 20
-130.836867
 30
0.0
  0
SPLINE
  5
165
100
AcDbEntity
  8
Camada_1
 62
7
100
AcDbSpline
 70
8
 71
3
 72
8
 73
4
 74
0
 40
0
 40
0
 40
0
 40
0
 40
1
 40
1
 40
1
 40
1
 10
-76.832141
 20
-130.836867
 30
0.0
 10
-77.495175
 20
-130.836869
 30
0.0
 10
-78.131053
 20
-130.573482
 30
0.0
 10
-78.599890
 20
-130.104647
 30
0.0
  0
SPLINE
  5
166
100
AcDbEntity
  8
Camada_1
 62
7
100
AcDbSpline
 70
8
 71
3
 72
8
 73
4
 74
0
 40
0
 40
0
 40
0
 40
0
 40
1
 40
1
 40
1
 40
1
 10
-78.599890
 20
-130.104647
 30
0.0
 10
-79.068726
 20
-129.635813
 30
0.0
 10
-79.332116
 20
-128.999935
 30
0.0
 10
-79.332117
 20
-128.336902
 30
0.0
  0
SPLINE
  5
167
100
AcDbEntity
  8
Camada_1
 62
7
100
AcDbSpline
 70
8
 71
3
 72
8
 73
4
 74
0
 40
0
 40
0
 40
0
 40
0
 40
1
 40
1
 40
1
 40
1
 10
-79.332117
 20
-128.336902
 30
0.0
 10
-79.332116
 20
-127.673868
 30
0.0
 10
-79.068726
 20
-127.037991
 30
0.0
 10
-78.599890
 20
-126.569156
 30
0.0
  0
SPLINE
  5
168
100
AcDbEntity
  8
Camada_1
 62
7
100
AcDbSpline
 70
8
 71
3
 72
8
 73
4
 74
0
 40
0
 40
0
 40
0
 40
0
 40
1
 40
1
 40
1
 40
1
 10
-78.599890
 20
-126.569156
 30
0.0
 10
-78.131053
 20
-126.100322
 30
0.0
 10
-77.495175
 20
-125.836934
 30
0.0
 10
-76.832141
 20
-125.836937
 30
0.0
  0
SPLINE
  5
169
100
AcDbEntity
  8
Camada_1
 62
7
100
AcDbSpline
 70
8
 71
3
 72
8
 73
4
 74
0
 40
0
 40
0
 40
0
 40
0
 40
1
 40
1
 40
1
 40
1
 10
-76.832141
 20
-125.836937
 30
0.0
 10
-75.451449
 20
-125.836937
 30
0.0
 10
-74.332177
 20
-126.956209
 30
0.0
 10
-74.332176
 20
-128.336902
 30
0.0
  0
LWPOLYLINE
  5
16a
100
AcDbEntity
  8
Camada_1
 62
7
100
AcDbPolyline
 90
1
 70
1
 10
-178.528265
 20
-121.988224
 30
0.0
  0
SPLINE
  5
16b
100
AcDbEntity
  8
Camada_1
 62
7
100
AcDbSpline
 70
8
 71
3
 72
8
 73
4
 74
0
 40
0
 40
0
 40
0
 40
0
 40
1
 40
1
 40
1
 40
1
 10
-89.800086
 20
-128.949481
 30
0.0
 10
-89.800087
 20
-129.612514
 30
0.0
 10
-90.063476
 20
-130.248391
 30
0.0
 10
-90.532313
 20
-130.717226
 30
0.0
  0
SPLINE
  5
16c
100
AcDbEntity
  8
Camada_1
 62
7
100
AcDbSpline
 70
8
 71
3
 72
8
 73
4
 74
0
 40
0
 40
0
 40
0
 40
0
 40
1
 40
1
 40
1
 40
1
 10
-90.532313
 20
-130.717226
 30
0.0
 10
-91.001150
 20
-131.186061
 30
0.0
 10
-91.637028
 20
-131.449448
 30
0.0
 10
-92.300061
 20
-131.449446
 30
0.0
  0
SPLINE
  5
16d
100
AcDbEntity
  8
Camada_1
 62
7
100
AcDbSpline
 70
8
 71
3
 72
8
 73
4
 74
0
 40
0
 40
0
 40
0
 40
0
 40
1
 40
1
 40
1
 40
1
 10
-92.300061
 20
-131.449446
 30
0.0
 10
-93.680754
 20
-131.449445
 30
0.0
 10
-94.800026
 20
-130.330173
 30
0.0
 10
-94.800027
 20
-128.949481
 30
0.0
  0
SPLINE
  5
16e
100
AcDbEntity
  8
Camada_1
 62
7
100
AcDbSpline
 70
8
 71
3
 72
8
 73
4
 74
0
 40
0
 40
0
 40
0
 40
0
 40
1
 40
1
 40
1
 40
1
 10
-94.800027
 20
-128.949481
 30
0.0
 10
-94.800026
 20
-127.568788
 30
0.0
 10
-93.680754
 20
-126.449516
 30
0.0
 10
-92.300061
 20
-126.449515
 30
0.0
  0
SPLINE
  5
16f
100
AcDbEntity
  8
Camada_1
 62
7
100
AcDbSpline
 70
8
 71
3
 72
8
 73
4
 74
0
 40
0
 40
0
 40
0
 40
0
 40
1
 40
1
 40
1
 40
1
 10
-92.300061
 20
-126.449515
 30
0.0
 10
-91.637028
 20
-126.449513
 30
0.0
 10
-91.001150
 20
-126.712900
 30
0.0
 10
-90.532313
 20
-127.181735
 30
0.0
  0
SPLINE
  5
170
100
AcDbEntity
  8
Camada_1
 62
7
100
AcDbSpline
 70
8
 71
3
 72
8
 73
4
 74
0
 40
0
 40
0
 40
0
 40
0
 40
1
 40
1
 40
1
 40
1
 10
-90.532313
 20
-127.181735
 30
0.0
 10
-90.063476
 20
-127.650570
 30
0.0
 10
-89.800087
 20
-128.286447
 30
0.0
 10
-89.800086
 20
-128.949481
 30
0.0
  0
LWPOLYLINE
  5
171
100
AcDbEntity
  8
Camada_1
 62
7
100
AcDbPolyline
 90
1
 70
1
 10
-74.332176
 20
-128.336902
 30
0.0
  0
SPLINE
  5
172
100
AcDbEntity
  8
Camada_1
 62
7
100
AcDbSpline
 70
8
 71
3
 72
8
 73
4
 74
0
 40
0
 40
0
 40
0
 40
0
 40
1
 40
1
 40
1
 40
1
 10
89.466196
 20
12.266556
 30
0.0
 10
89.466195
 20
10.885864
 30
0.0
 10
88.346922
 20
9.766591
 30
0.0
 10
86.966230
 20
9.766591
 30
0.0
  0
SPLINE
  5
173
100
AcDbEntity
  8
Camada_1
 62
7
100
AcDbSpline
 70
8
 71
3
 72
8
 73
4
 74
0
 40
0
 40
0
 40
0
 40
0
 40
1
 40
1
 40
1
 40
1
 10
86.966230
 20
9.766591
 30
0.0
 10
85.585537
 20
9.766591
 30
0.0
 10
84.466264
 20
10.885864
 30
0.0
 10
84.466264
 20
12.266556
 30
0.0
  0
SPLINE
  5
174
100
AcDbEntity
  8
Camada_1
 62
7
100
AcDbSpline
 70
8
 71
3
 72
8
 73
4
 74
0
 40
0
 40
0
 40
0
 40
0
 40
1
 40
1
 40
1
 40
1
 10
84.466264
 20
12.266556
 30
0.0
 10
84.466264
 20
13.647249
 30
0.0
 10
85.585537
 20
14.766521
 30
0.0
 10
86.966230
 20
14.766521
 30
0.0
  0
SPLINE
  5
175
100
AcDbEntity
  8
Camada_1
 62
7
100
AcDbSpline
 70
8
 71
3
 72
8
 73
4
 74
0
 40
0
 40
0
 40
0
 40
0
 40
1
 40
1
 40
1
 40
1
 10
86.966230
 20
14.766521
 30
0.0
 10
88.346922
 20
14.766521
 30
0.0
 10
89.466195
 20
13.647249
 30
0.0
 10
89.466196
 20
12.266556
 30
0.0
  0
LWPOLYLINE
  5
176
100
AcDbEntity
  8
Camada_1
 62
7
100
AcDbPolyline
 90
1
 70
1
 10
-89.800086
 20
-128.949481
 30
0.0
  0
LWPOLYLINE
  5
177
100
AcDbEntity
  8
Camada_1
 62
7
100
AcDbPolyline
 90
1
 70
1
 10
89.466196
 20
12.266556
 30
0.0
  0
LWPOLYLINE
  5
178
100
AcDbEntity
  8
Camada_1
 62
7
100
AcDbPolyline
 90
4
 70
1
 10
-183.988904
 20
-135.009769
 30
0.0
 10
-175.738270
 20
-135.009769
 30
0.0
 10
-175.738270
 20
-139.558440
 30
0.0
 10
-183.988904
 20
-139.558440
 30
0.0
  0
LWPOLYLINE
  5
179
100
AcDbEntity
  8
Camada_1
 62
7
100
AcDbPolyline
 90
4
 70
1
 10
5.113702
 20
-131.325266
 30
0.0
 10
16.727108
 20
-131.325266
 30
0.0
 10
16.727108
 20
-139.558450
 30
0.0
 10
5.113702
 20
-139.558450
 30
0.0
  0
LWPOLYLINE
  5
17a
100
AcDbEntity
  8
Camada_1
 62
7
100
AcDbPolyline
 90
4
 70
1
 10
-120.785646
 20
-123.554221
 30
0.0
 10
-97.292552
 20
-123.554221
 30
0.0
 10
-97.292552
 20
-126.794175
 30
0.0
 10
-120.785646
 20
-126.794175
 30
0.0
  0
LWPOLYLINE
  5
17b
100
AcDbEntity
  8
Camada_1
 62
7
100
AcDbPolyline
 90
4
 70
1
 10
-130.413598
 20
-13.163085
 30
0.0
 10
-127.754753
 20
-13.163085
 30
0.0
 10
-127.754753
 20
-110.939665
 30
0.0
 10
-130.413598
 20
-110.939665
 30
0.0
  0
ENDSEC
  0
SECTION
  2
OBJECTS
  0
DICTIONARY
  5
C
330
0
100
AcDbDictionary
  3
ACAD_GROUP
350
D
  3
ACAD_MLINESTYLE
350
17
  0
DICTIONARY
  5
D
330
C
100
AcDbDictionary
  0
DICTIONARY
  5
1A
330
C
100
AcDbDictionary
  0
DICTIONARY
  5
17
330
C
100
AcDbDictionary
  3
STANDARD
350
18
  0
DICTIONARY
  5
19
330
C
100
AcDbDictionary
  0
ENDSEC
  0
EOF
