<?xml version="1.0" encoding="UTF-8" standalone="no"?>
<!-- Created with Inkscape (http://www.inkscape.org/) -->

<svg
   sodipodi:docname="IMTLogo_140mm.svg"
   inkscape:version="1.1.2 (b8e25be833, 2022-02-05)"
   id="svg8"
   version="1.1"
   viewBox="0 0 70 24.37359"
   height="24.37359mm"
   width="70mm"
   xmlns:inkscape="http://www.inkscape.org/namespaces/inkscape"
   xmlns:sodipodi="http://sodipodi.sourceforge.net/DTD/sodipodi-0.dtd"
   xmlns="http://www.w3.org/2000/svg"
   xmlns:svg="http://www.w3.org/2000/svg"
   xmlns:rdf="http://www.w3.org/1999/02/22-rdf-syntax-ns#"
   xmlns:cc="http://creativecommons.org/ns#"
   xmlns:dc="http://purl.org/dc/elements/1.1/">
  <defs
     id="defs2" />
  <sodipodi:namedview
     inkscape:window-maximized="1"
     inkscape:window-y="-8"
     inkscape:window-x="1912"
     inkscape:window-height="1009"
     inkscape:window-width="1920"
     showgrid="false"
     inkscape:current-layer="layer1-9"
     inkscape:document-units="mm"
     inkscape:cy="97.580733"
     inkscape:cx="255.26554"
     inkscape:zoom="1.4142136"
     inkscape:pageshadow="2"
     inkscape:pageopacity="0.0"
     borderopacity="1.0"
     bordercolor="#666666"
     pagecolor="#ffffff"
     id="base"
     fit-margin-top="0"
     fit-margin-left="0"
     fit-margin-bottom="0"
     fit-margin-right="0"
     inkscape:pagecheckerboard="0" />
  <metadata
     id="metadata5">
    <rdf:RDF>
      <cc:Work
         rdf:about="">
        <dc:format>image/svg+xml</dc:format>
        <dc:type
           rdf:resource="http://purl.org/dc/dcmitype/StillImage" />
      </cc:Work>
    </rdf:RDF>
  </metadata>
  <g
     inkscape:label="Camada 1"
     inkscape:groupmode="layer"
     id="layer1"
     transform="translate(-196.72996,-180.43865)">
    <g
       transform="matrix(0.25317013,0,0,0.25317013,143.75154,162.2016)"
       id="layer1-9"
       inkscape:label="Layer 1"
       style="fill:#014685;fill-opacity:1;stroke-width:3.94991">
      <path
         inkscape:connector-curvature="0"
         id="path4496"
         d="M -67.233747,168.30833 V 72.034766 h 96.11755 96.117507 v 96.273564 96.27358 h -96.117507 -96.11755 z m 104.90045,94.70594 c 18.5835,-1.83618 35.67291,-8.79292 50.3973,-20.51567 4.21634,-3.35679 11.34127,-10.45503 14.633957,-14.57907 19.59701,-24.54512 25.87261,-56.24474 17.10716,-86.41237 -4.07899,-14.03843 -12.36071,-28.12745 -22.990237,-39.11134 -15.60831,-16.12864 -35.91713,-26.016379 -58.56899,-28.515358 -4.81023,-0.53069 -15.26574,-0.442895 -20.44059,0.171393 -28.7762,3.417055 -54.24775,19.596527 -69.7816,44.325095 -5.57192,8.87005 -9.86812,19.30392 -12.14285,29.49062 -2.53171,11.33738 -2.86248,24.97076 -0.88583,36.51217 2.68452,15.67462 9.3249,30.46385 19.37818,43.1586 3.15399,3.98273 10.98807,11.83849 14.90523,14.94651 14.12796,11.20968 30.8229004,18.27249 47.74668,20.19925 1.63061,0.18576 3.38599,0.38663 3.90091,0.44668 2.20352,0.25691 13.77636,0.17618 16.74068,-0.11692 z m -75.56586,-94.54991 V 101.6814 h 66.6269 66.62694 v 66.78296 66.78297 h -66.62694 -66.6269 z m 73.0693,65.52159 c 30.06492,-3.02509 54.5992,-26.59307 58.76339,-56.44894 0.62173,-4.45751 0.63018,-13.74381 0.0184,-18.06137 -3.10406,-21.83687 -16.66794,-40.47452 -36.51178,-50.16955 -13.42476,-6.55886 -28.33121,-8.33175 -43.06564,-5.12203 -9.4848396,2.06615 -20.0646696,7.26127 -27.58682,13.5462 -29.59855,24.73033 -32.10963,68.58865 -5.51136,96.26053 14.0025604,14.56773 34.02186,21.99481 53.89573,19.99516 z m 135.705437,17.48902 v -13.10693 h 157.43926 157.43923 v 13.10693 13.10694 H 328.31484 170.87558 Z m 197.54024,-46.67956 c -0.42911,-0.0712 -2.04407,-0.28602 -3.5888,-0.47765 -3.46776,-0.43018 -7.38288,-1.53855 -9.87095,-2.79455 -3.72902,-1.88241 -5.84466,-4.68507 -7.21327,-9.55564 -0.6781,-2.41325 -0.68627,-2.7237 -0.78671,-29.97865 l -0.10139,-27.54018 h 9.37627 9.37633 v 24.45091 c 0,17.64166 0.10023,24.74634 0.35974,25.51172 0.58023,1.71071 1.41877,2.67553 2.99713,3.44849 1.3596,0.66581 1.96633,0.73415 7.452,0.83938 4.80806,0.0922 6.30681,0.0184 7.6906,-0.38506 1.98539,-0.57717 3.43438,-1.98838 3.95073,-3.8477 0.21563,-0.77608 0.32805,-9.52112 0.32916,-25.59827 l 10e-4,-24.41947 h 9.36208 9.36209 v 25.54886 c 0,21.32504 -0.0774,25.99327 -0.46877,28.23696 -1.58686,9.10003 -6.21311,13.6973 -15.92005,15.8205 -2.73454,0.59815 -4.24129,0.69295 -12.32158,0.77551 -5.06335,0.0516 -9.55716,0.0369 -9.98624,-0.0369 z M 176.18075,169.55663 v -35.10789 h 14.8086 14.80856 l 0.63016,2.10646 c 7.80946,26.10539 12.70388,41.89542 12.9863,41.89542 0.19976,0 3.12105,-9.56761 6.71745,-22.00093 l 6.36397,-22.00095 h 15.22152 15.22156 l -0.0793,35.02986 -0.0792,35.02982 -9.3101,0.0825 -9.31008,0.0825 0.24216,-7.7284 c 0.13343,-4.25065 0.54916,-16.29473 0.9242,-26.76469 0.37495,-10.46996 0.65209,-19.07135 0.61582,-19.11429 -0.41937,-0.49608 -1.8925,3.64106 -9.52844,26.75998 l -8.86428,26.83805 -7.97444,-0.004 -7.97444,-0.004 -9.00965,-26.83468 c -4.95536,-14.75905 -9.14206,-26.83463 -9.30386,-26.83463 -0.31515,0 -0.27276,1.63452 0.87572,33.85429 0.38525,10.81034 0.66305,19.69261 0.61724,19.73843 -0.0457,0.0457 -4.24937,0.0833 -9.34132,0.0833 h -9.25808 z m 93.41523,34.24964 c 0.28271,-1.31626 20.70365,-69.05076 20.86696,-69.21408 0.0789,-0.0788 6.46333,-0.14338 14.18765,-0.14338 h 14.04417 l 10.65506,35.01017 c 5.86026,19.25555 10.61104,35.0541 10.55728,35.10788 -0.0538,0.0538 -4.31398,0.0976 -9.46722,0.0976 h -9.36958 l -1.83896,-6.08589 -1.83894,-6.08583 -12.60728,0.0785 -12.60728,0.0785 -1.71361,6.00732 -1.71355,6.00738 h -9.66953 -9.66951 z m 43.89551,-25.27737 c 0,-0.86013 -8.606,-29.94639 -8.76999,-29.64061 -0.19425,0.36232 -8.39382,29.39547 -8.39382,29.72129 0,0.0841 3.86186,0.15297 8.58191,0.15297 4.72005,0 8.5819,-0.10505 8.5819,-0.23369 z m 100.48653,25.99321 c 0,-0.27976 20.8743,-69.83095 20.99428,-69.95093 0.0674,-0.0675 6.46043,-0.12239 14.20686,-0.12239 h 14.08443 l 1.08691,3.51079 c 5.39847,17.43664 20.18369,66.46852 20.0757,66.57652 -0.076,0.076 -4.33605,0.10062 -9.46714,0.0553 l -9.32925,-0.0829 -1.84877,-6.00733 -1.84871,-6.00731 h -12.5734 -12.57337 l -0.61835,2.10646 c -0.3402,1.15853 -1.11548,3.84719 -1.7231,5.97478 -0.60758,2.12759 -1.15446,3.91811 -1.21527,3.97889 -0.16513,0.16513 -19.25082,0.1338 -19.25082,-0.0331 z m 39.92512,-40.7741 c -2.37368,-8.25808 -4.38049,-15.07941 -4.45962,-15.15853 -0.16698,-0.16696 -0.004,-0.72568 -4.74415,16.2861 -2.00859,7.20882 -3.71905,13.28246 -3.80106,13.49701 -0.11718,0.3063 1.72643,0.39008 8.58578,0.39008 h 8.73485 z m -15.18877,-36.7919 -1.28423,-2.81162 5.2037,-3.07198 c 12.45575,-7.35311 13.86979,-8.17474 13.92339,-8.09001 0.64116,1.01374 4.45544,10.1253 4.29758,10.26595 -0.22484,0.20015 -20.2259,6.51924 -20.63499,6.51924 -0.12161,0 -0.79913,-1.26522 -1.50545,-2.81158 z M 170.87558,85.297723 V 72.034766 H 328.31484 485.75407 V 85.297723 98.560719 H 328.31484 170.87558 Z"
         style="fill:#014685;fill-opacity:1;stroke-width:11.17"
         sodipodi:nodetypes="ccccccccccscssscsssssccccccccccccccscssssccccccccccccsssscccscsscsccccscscccccccsssccccccccccsccccscssccssscssscccccccccssssssscsscsscccccccssccsscsscsscsscssccccccccc" />
    </g>
  </g>
</svg>
