  0
SECTION
  2
HEADER
  9
$ACADVER
  1
AC1014
  9
$HANDSEED
  5
FFFF
  9
$MEASUREMENT
 70
     1
  0
ENDSEC
  0
SECTION
  2
TABLES
  0
TABLE
  2
VPORT
  5
8
330
0
100
AcDbSymbolTable
 70
     4
  0
VPORT
  5
2E
330
8
100
AcDbSymbolTableRecord
100
AcDbViewportTableRecord
  2
*ACTIVE
 70
     0
 10
0.0
 20
0.0
 11
1.0
 21
1.0
 12
210.0
 22
148.5
 13
0.0
 23
0.0
 14
10.0
 24
10.0
 15
10.0
 25
10.0
 16
0.0
 26
0.0
 36
1.0
 17
0.0
 27
0.0
 37
0.0
 40
341.0
 41
1.24
 42
50.0
 43
0.0
 44
0.0
 50
0.0
 51
0.0
 71
     0
 72
   100
 73
     1
 74
     3
 75
     0
 76
     0
 77
     0
 78
     0
  0
ENDTAB
  0
TABLE
  2
LTYPE
  5
5
330
0
100
AcDbSymbolTable
 70
     1
  0
LTYPE
  5
14
330
5
100
AcDbSymbolTableRecord
100
AcDbLinetypeTableRecord
  2
BYBLOCK
 70
     0
  3

 72
    65
 73
     0
 40
0.0
  0
LTYPE
  5
15
330
5
100
AcDbSymbolTableRecord
100
AcDbLinetypeTableRecord
  2
BYLAYER
 70
     0
  3

 72
    65
 73
     0
 40
0.0
  0
LTYPE
  5
16
330
5
100
AcDbSymbolTableRecord
100
AcDbLinetypeTableRecord
  2
CONTINUOUS
 70
     0
  3
Solid line
 72
    65
 73
     0
 40
0.0
  0
ENDTAB
  0
TABLE
  2
LAYER
  5
2
100
AcDbSymbolTable
 70
2
  0
LAYER
  5
50
100
AcDbSymbolTableRecord
100
AcDbLayerTableRecord
  2
0
 70
0
  6
CONTINUOUS
  0
LAYER
  5
51
100
AcDbSymbolTableRecord
100
AcDbLayerTableRecord
  2
Camada_1
 70
0
  6
CONTINUOUS
  0
ENDTAB
  0
TABLE
  2
STYLE
  5
3
330
0
100
AcDbSymbolTable
 70
     1
  0
STYLE
  5
11
330
3
100
AcDbSymbolTableRecord
100
AcDbTextStyleTableRecord
  2
STANDARD
 70
     0
 40
0.0
 41
1.0
 50
0.0
 71
     0
 42
2.5
  3
txt
  4

  0
ENDTAB
  0
TABLE
  2
VIEW
  5
6
330
0
100
AcDbSymbolTable
 70
     0
  0
ENDTAB
  0
TABLE
  2
UCS
  5
7
330
0
100
AcDbSymbolTable
 70
     0
  0
ENDTAB
  0
TABLE
  2
APPID
  5
9
330
0
100
AcDbSymbolTable
 70
     2
  0
APPID
  5
12
330
9
100
AcDbSymbolTableRecord
100
AcDbRegAppTableRecord
  2
ACAD
 70
     0
  0
ENDTAB
  0
TABLE
  2
DIMSTYLE
  5
A
330
0
100
AcDbSymbolTable
 70
     1
  0
DIMSTYLE
105
27
330
A
100
AcDbSymbolTableRecord
100
AcDbDimStyleTableRecord
  2
ISO-25
 70
     0
  3

  4

  5

  6

  7

 40
1.0
 41
2.5
 42
0.625
 43
3.75
 44
1.25
 45
0.0
 46
0.0
 47
0.0
 48
0.0
140
2.5
141
2.5
142
0.0
143
0.03937007874016
144
1.0
145
0.0
146
1.0
147
0.625
 71
     0
 72
     0
 73
     0
 74
     0
 75
     0
 76
     0
 77
     1
 78
     8
170
     0
171
     3
172
     1
173
     0
174
     0
175
     0
176
     0
177
     0
178
     0
270
     2
271
     2
272
     2
273
     2
274
     3
340
11
275
     0
280
     0
281
     0
282
     0
283
     0
284
     8
285
     0
286
     0
287
     3
288
     0
  0
ENDTAB
  0
TABLE
  2
BLOCK_RECORD
  5
1
330
0
100
AcDbSymbolTable
 70
     1
  0
BLOCK_RECORD
  5
1F
330
1
100
AcDbSymbolTableRecord
100
AcDbBlockTableRecord
  2
*MODEL_SPACE
  0
BLOCK_RECORD
  5
1B
330
1
100
AcDbSymbolTableRecord
100
AcDbBlockTableRecord
  2
*PAPER_SPACE
  0
ENDTAB
  0
ENDSEC
  0
SECTION
  2
BLOCKS
  0
BLOCK
  5
20
330
1F
100
AcDbEntity
  8
0
100
AcDbBlockBegin
  2
*MODEL_SPACE
 70
     0
 10
0.0
 20
0.0
 30
0.0
  3
*MODEL_SPACE
  1

  0
ENDBLK
  5
21
330
1F
100
AcDbEntity
  8
0
100
AcDbBlockEnd
  0
BLOCK
  5
1C
330
1B
100
AcDbEntity
 67
     1
  8
0
100
AcDbBlockBegin
  2
*PAPER_SPACE
  1

  0
ENDBLK
  5
1D
330
1B
100
AcDbEntity
 67
     1
  8
0
100
AcDbBlockEnd
  0
ENDSEC
  0
SECTION
  2
ENTITIES
  0
SPLINE
  5
100
100
AcDbEntity
  8
Camada_1
 62
7
100
AcDbSpline
 70
8
 71
3
 72
8
 73
4
 74
0
 40
0
 40
0
 40
0
 40
0
 40
1
 40
1
 40
1
 40
1
 10
-43.441903
 20
-23.976723
 30
0.0
 10
-38.737120
 20
-23.511857
 30
0.0
 10
-34.410596
 20
-21.750620
 30
0.0
 10
-30.682824
 20
-18.782773
 30
0.0
  0
SPLINE
  5
101
100
AcDbEntity
  8
Camada_1
 62
7
100
AcDbSpline
 70
8
 71
3
 72
8
 73
4
 74
0
 40
0
 40
0
 40
0
 40
0
 40
1
 40
1
 40
1
 40
1
 10
-30.682824
 20
-18.782773
 30
0.0
 10
-29.615373
 20
-17.932935
 30
0.0
 10
-27.811556
 20
-16.135874
 30
0.0
 10
-26.977946
 20
-15.091791
 30
0.0
  0
SPLINE
  5
102
100
AcDbEntity
  8
Camada_1
 62
7
100
AcDbSpline
 70
8
 71
3
 72
8
 73
4
 74
0
 40
0
 40
0
 40
0
 40
0
 40
1
 40
1
 40
1
 40
1
 10
-26.977946
 20
-15.091791
 30
0.0
 10
-22.016573
 20
-8.877706
 30
0.0
 10
-20.427780
 20
-0.852316
 30
0.0
 10
-22.646928
 20
6.785220
 30
0.0
  0
SPLINE
  5
103
100
AcDbEntity
  8
Camada_1
 62
7
100
AcDbSpline
 70
8
 71
3
 72
8
 73
4
 74
0
 40
0
 40
0
 40
0
 40
0
 40
1
 40
1
 40
1
 40
1
 10
-22.646928
 20
6.785220
 30
0.0
 10
-23.679606
 20
10.339327
 30
0.0
 10
-25.776288
 20
13.906243
 30
0.0
 10
-28.467364
 20
16.687033
 30
0.0
  0
SPLINE
  5
104
100
AcDbEntity
  8
Camada_1
 62
7
100
AcDbSpline
 70
8
 71
3
 72
8
 73
4
 74
0
 40
0
 40
0
 40
0
 40
0
 40
1
 40
1
 40
1
 40
1
 10
-28.467364
 20
16.687033
 30
0.0
 10
-32.418919
 20
20.770320
 30
0.0
 10
-37.560500
 20
23.273597
 30
0.0
 10
-43.295270
 20
23.906264
 30
0.0
  0
SPLINE
  5
105
100
AcDbEntity
  8
Camada_1
 62
7
100
AcDbSpline
 70
8
 71
3
 72
8
 73
4
 74
0
 40
0
 40
0
 40
0
 40
0
 40
1
 40
1
 40
1
 40
1
 10
-43.295270
 20
23.906264
 30
0.0
 10
-44.513075
 20
24.040618
 30
0.0
 10
-47.160095
 20
24.018391
 30
0.0
 10
-48.470212
 20
23.862872
 30
0.0
  0
SPLINE
  5
106
100
AcDbEntity
  8
Camada_1
 62
7
100
AcDbSpline
 70
8
 71
3
 72
8
 73
4
 74
0
 40
0
 40
0
 40
0
 40
0
 40
1
 40
1
 40
1
 40
1
 10
-48.470212
 20
23.862872
 30
0.0
 10
-55.755479
 20
22.997777
 30
0.0
 10
-62.204109
 20
18.901621
 30
0.0
 10
-66.136812
 20
12.641092
 30
0.0
  0
SPLINE
  5
107
100
AcDbEntity
  8
Camada_1
 62
7
100
AcDbSpline
 70
8
 71
3
 72
8
 73
4
 74
0
 40
0
 40
0
 40
0
 40
0
 40
1
 40
1
 40
1
 40
1
 10
-66.136812
 20
12.641092
 30
0.0
 10
-67.547454
 20
10.395463
 30
0.0
 10
-68.635123
 20
7.753921
 30
0.0
 10
-69.211016
 20
5.174955
 30
0.0
  0
SPLINE
  5
108
100
AcDbEntity
  8
Camada_1
 62
7
100
AcDbSpline
 70
8
 71
3
 72
8
 73
4
 74
0
 40
0
 40
0
 40
0
 40
0
 40
1
 40
1
 40
1
 40
1
 10
-69.211016
 20
5.174955
 30
0.0
 10
-69.851969
 20
2.304672
 30
0.0
 10
-69.935710
 20
-1.146890
 30
0.0
 10
-69.435282
 20
-4.068827
 30
0.0
  0
SPLINE
  5
109
100
AcDbEntity
  8
Camada_1
 62
7
100
AcDbSpline
 70
8
 71
3
 72
8
 73
4
 74
0
 40
0
 40
0
 40
0
 40
0
 40
1
 40
1
 40
1
 40
1
 10
-69.435282
 20
-4.068827
 30
0.0
 10
-68.755642
 20
-8.037169
 30
0.0
 10
-67.074498
 20
-11.781357
 30
0.0
 10
-64.529310
 20
-14.995285
 30
0.0
  0
SPLINE
  5
10a
100
AcDbEntity
  8
Camada_1
 62
7
100
AcDbSpline
 70
8
 71
3
 72
8
 73
4
 74
0
 40
0
 40
0
 40
0
 40
0
 40
1
 40
1
 40
1
 40
1
 10
-64.529310
 20
-14.995285
 30
0.0
 10
-63.730814
 20
-16.003593
 30
0.0
 10
-61.747461
 20
-17.992435
 30
0.0
 10
-60.755754
 20
-18.779292
 30
0.0
  0
SPLINE
  5
10b
100
AcDbEntity
  8
Camada_1
 62
7
100
AcDbSpline
 70
8
 71
3
 72
8
 73
4
 74
0
 40
0
 40
0
 40
0
 40
0
 40
1
 40
1
 40
1
 40
1
 10
-60.755754
 20
-18.779292
 30
0.0
 10
-57.178980
 20
-21.617245
 30
0.0
 10
-52.952324
 20
-23.405336
 30
0.0
 10
-48.667732
 20
-23.893134
 30
0.0
  0
SPLINE
  5
10c
100
AcDbEntity
  8
Camada_1
 62
7
100
AcDbSpline
 70
8
 71
3
 72
8
 73
4
 74
0
 40
0
 40
0
 40
0
 40
0
 40
1
 40
1
 40
1
 40
1
 10
-48.667732
 20
-23.893134
 30
0.0
 10
-48.254911
 20
-23.940163
 30
0.0
 10
-47.810501
 20
-23.991017
 30
0.0
 10
-47.680139
 20
-24.006220
 30
0.0
  0
SPLINE
  5
10d
100
AcDbEntity
  8
Camada_1
 62
7
100
AcDbSpline
 70
8
 71
3
 72
8
 73
4
 74
0
 40
0
 40
0
 40
0
 40
0
 40
1
 40
1
 40
1
 40
1
 10
-47.680139
 20
-24.006220
 30
0.0
 10
-47.122274
 20
-24.071262
 30
0.0
 10
-44.192380
 20
-24.050823
 30
0.0
 10
-43.441903
 20
-23.976619
 30
0.0
  0
LWPOLYLINE
  5
10e
100
AcDbEntity
  8
Camada_1
 62
7
100
AcDbPolyline
 90
8
 70
1
 10
-69.999539
 20
-0.000030
 30
0.0
 10
-69.999539
 20
24.373538
 30
0.0
 10
-45.665469
 20
24.373538
 30
0.0
 10
-21.331410
 20
24.373538
 30
0.0
 10
-21.331410
 20
-0.000030
 30
0.0
 10
-21.331410
 20
-24.373602
 30
0.0
 10
-45.665469
 20
-24.373602
 30
0.0
 10
-69.999539
 20
-24.373602
 30
0.0
  0
LWPOLYLINE
  5
10f
100
AcDbEntity
  8
Camada_1
 62
7
100
AcDbPolyline
 90
2
 70
0
 10
-43.441903
 20
-23.976619
 30
0.0
 10
-43.441903
 20
-23.976723
 30
0.0
  0
SPLINE
  5
110
100
AcDbEntity
  8
Camada_1
 62
7
100
AcDbSpline
 70
8
 71
3
 72
8
 73
4
 74
0
 40
0
 40
0
 40
0
 40
0
 40
1
 40
1
 40
1
 40
1
 10
-44.073957
 20
-16.627626
 30
0.0
 10
-36.462424
 20
-15.861764
 30
0.0
 10
-30.251083
 20
-9.895061
 30
0.0
 10
-29.196835
 20
-2.336454
 30
0.0
  0
SPLINE
  5
111
100
AcDbEntity
  8
Camada_1
 62
7
100
AcDbSpline
 70
8
 71
3
 72
8
 73
4
 74
0
 40
0
 40
0
 40
0
 40
0
 40
1
 40
1
 40
1
 40
1
 10
-29.196835
 20
-2.336454
 30
0.0
 10
-29.039432
 20
-1.207947
 30
0.0
 10
-29.037293
 20
1.143065
 30
0.0
 10
-29.192177
 20
2.236141
 30
0.0
  0
SPLINE
  5
112
100
AcDbEntity
  8
Camada_1
 62
7
100
AcDbSpline
 70
8
 71
3
 72
8
 73
4
 74
0
 40
0
 40
0
 40
0
 40
0
 40
1
 40
1
 40
1
 40
1
 10
-29.192177
 20
2.236141
 30
0.0
 10
-29.978032
 20
7.764579
 30
0.0
 10
-33.411998
 20
12.483071
 30
0.0
 10
-38.435861
 20
14.937561
 30
0.0
  0
SPLINE
  5
113
100
AcDbEntity
  8
Camada_1
 62
7
100
AcDbSpline
 70
8
 71
3
 72
8
 73
4
 74
0
 40
0
 40
0
 40
0
 40
0
 40
1
 40
1
 40
1
 40
1
 10
-38.435861
 20
14.937561
 30
0.0
 10
-41.834606
 20
16.598067
 30
0.0
 10
-45.608470
 20
17.046909
 30
0.0
 10
-49.338784
 20
16.234305
 30
0.0
  0
SPLINE
  5
114
100
AcDbEntity
  8
Camada_1
 62
7
100
AcDbSpline
 70
8
 71
3
 72
8
 73
4
 74
0
 40
0
 40
0
 40
0
 40
0
 40
1
 40
1
 40
1
 40
1
 10
-49.338784
 20
16.234305
 30
0.0
 10
-51.740060
 20
15.711218
 30
0.0
 10
-54.418555
 20
14.395970
 30
0.0
 10
-56.322937
 20
12.804815
 30
0.0
  0
SPLINE
  5
115
100
AcDbEntity
  8
Camada_1
 62
7
100
AcDbSpline
 70
8
 71
3
 72
8
 73
4
 74
0
 40
0
 40
0
 40
0
 40
0
 40
1
 40
1
 40
1
 40
1
 10
-56.322937
 20
12.804815
 30
0.0
 10
-63.816398
 20
6.543840
 30
0.0
 10
-64.452128
 20
-4.559767
 30
0.0
 10
-57.718247
 20
-11.565454
 30
0.0
  0
SPLINE
  5
116
100
AcDbEntity
  8
Camada_1
 62
7
100
AcDbSpline
 70
8
 71
3
 72
8
 73
4
 74
0
 40
0
 40
0
 40
0
 40
0
 40
1
 40
1
 40
1
 40
1
 10
-57.718247
 20
-11.565454
 30
0.0
 10
-54.173220
 20
-15.253564
 30
0.0
 10
-49.104936
 20
-17.133877
 30
0.0
 10
-44.073471
 20
-16.627626
 30
0.0
  0
LWPOLYLINE
  5
117
100
AcDbEntity
  8
Camada_1
 62
7
100
AcDbPolyline
 90
8
 70
1
 10
-62.572904
 20
-0.039532
 30
0.0
 10
-62.572904
 20
16.867903
 30
0.0
 10
-45.704979
 20
16.867903
 30
0.0
 10
-28.837043
 20
16.867903
 30
0.0
 10
-28.837043
 20
-0.039532
 30
0.0
 10
-28.837043
 20
-16.946970
 30
0.0
 10
-45.704979
 20
-16.946970
 30
0.0
 10
-62.572904
 20
-16.946970
 30
0.0
  0
LWPOLYLINE
  5
118
100
AcDbEntity
  8
Camada_1
 62
7
100
AcDbPolyline
 90
2
 70
0
 10
-44.073471
 20
-16.627626
 30
0.0
 10
-44.073957
 20
-16.627626
 30
0.0
  0
SPLINE
  5
119
100
AcDbEntity
  8
Camada_1
 62
7
100
AcDbSpline
 70
8
 71
3
 72
8
 73
4
 74
0
 40
0
 40
0
 40
0
 40
0
 40
1
 40
1
 40
1
 40
1
 10
40.293817
 20
-9.237460
 30
0.0
 10
40.185179
 20
-9.219434
 30
0.0
 10
39.776320
 20
-9.165049
 30
0.0
 10
39.385240
 20
-9.116534
 30
0.0
  0
SPLINE
  5
11a
100
AcDbEntity
  8
Camada_1
 62
7
100
AcDbSpline
 70
8
 71
3
 72
8
 73
4
 74
0
 40
0
 40
0
 40
0
 40
0
 40
1
 40
1
 40
1
 40
1
 10
39.385240
 20
-9.116534
 30
0.0
 10
38.507308
 20
-9.007625
 30
0.0
 10
37.516118
 20
-8.727019
 30
0.0
 10
36.886213
 20
-8.409038
 30
0.0
  0
SPLINE
  5
11b
100
AcDbEntity
  8
Camada_1
 62
7
100
AcDbSpline
 70
8
 71
3
 72
8
 73
4
 74
0
 40
0
 40
0
 40
0
 40
0
 40
1
 40
1
 40
1
 40
1
 10
36.886213
 20
-8.409038
 30
0.0
 10
35.942138
 20
-7.932468
 30
0.0
 10
35.406521
 20
-7.222919
 30
0.0
 10
35.060030
 20
-5.989837
 30
0.0
  0
SPLINE
  5
11c
100
AcDbEntity
  8
Camada_1
 62
7
100
AcDbSpline
 70
8
 71
3
 72
8
 73
4
 74
0
 40
0
 40
0
 40
0
 40
0
 40
1
 40
1
 40
1
 40
1
 10
35.060030
 20
-5.989837
 30
0.0
 10
34.888356
 20
-5.378875
 30
0.0
 10
34.886287
 20
-5.300278
 30
0.0
 10
34.860859
 20
1.599854
 30
0.0
  0
LWPOLYLINE
  5
11d
100
AcDbEntity
  8
Camada_1
 62
7
100
AcDbPolyline
 90
8
 70
1
 10
-9.717425
 20
-21.055320
 30
0.0
 10
-9.717425
 20
-17.737039
 30
0.0
 10
30.141456
 20
-17.737039
 30
0.0
 10
70.000329
 20
-17.737039
 30
0.0
 10
70.000329
 20
-21.055320
 30
0.0
 10
70.000329
 20
-24.373602
 30
0.0
 10
30.141456
 20
-24.373602
 30
0.0
 10
-9.717425
 20
-24.373602
 30
0.0
  0
SPLINE
  5
11e
100
AcDbEntity
  8
Camada_1
 62
7
100
AcDbSpline
 70
8
 71
3
 72
8
 73
4
 74
0
 40
0
 40
0
 40
0
 40
0
 40
1
 40
1
 40
1
 40
1
 10
39.582784
 20
2.381965
 30
0.0
 10
39.582784
 20
-2.084373
 30
0.0
 10
39.608159
 20
-3.883064
 30
0.0
 10
39.673859
 20
-4.076835
 30
0.0
  0
SPLINE
  5
11f
100
AcDbEntity
  8
Camada_1
 62
7
100
AcDbSpline
 70
8
 71
3
 72
8
 73
4
 74
0
 40
0
 40
0
 40
0
 40
0
 40
1
 40
1
 40
1
 40
1
 10
39.673859
 20
-4.076835
 30
0.0
 10
39.820756
 20
-4.509935
 30
0.0
 10
40.033049
 20
-4.754199
 30
0.0
 10
40.432642
 20
-4.949889
 30
0.0
  0
SPLINE
  5
120
100
AcDbEntity
  8
Camada_1
 62
7
100
AcDbSpline
 70
8
 71
3
 72
8
 73
4
 74
0
 40
0
 40
0
 40
0
 40
0
 40
1
 40
1
 40
1
 40
1
 10
40.432642
 20
-4.949889
 30
0.0
 10
40.776852
 20
-5.118452
 30
0.0
 10
40.930458
 20
-5.135753
 30
0.0
 10
42.319264
 20
-5.162394
 30
0.0
  0
SPLINE
  5
121
100
AcDbEntity
  8
Camada_1
 62
7
100
AcDbSpline
 70
8
 71
3
 72
8
 73
4
 74
0
 40
0
 40
0
 40
0
 40
0
 40
1
 40
1
 40
1
 40
1
 10
42.319264
 20
-5.162394
 30
0.0
 10
43.536520
 20
-5.185737
 30
0.0
 10
43.915959
 20
-5.167053
 30
0.0
 10
44.266293
 20
-5.064909
 30
0.0
  0
SPLINE
  5
122
100
AcDbEntity
  8
Camada_1
 62
7
100
AcDbSpline
 70
8
 71
3
 72
8
 73
4
 74
0
 40
0
 40
0
 40
0
 40
0
 40
1
 40
1
 40
1
 40
1
 10
44.266293
 20
-5.064909
 30
0.0
 10
44.768934
 20
-4.918787
 30
0.0
 10
45.135774
 20
-4.561511
 30
0.0
 10
45.266499
 20
-4.090787
 30
0.0
  0
SPLINE
  5
123
100
AcDbEntity
  8
Camada_1
 62
7
100
AcDbSpline
 70
8
 71
3
 72
8
 73
4
 74
0
 40
0
 40
0
 40
0
 40
0
 40
1
 40
1
 40
1
 40
1
 10
45.266499
 20
-4.090787
 30
0.0
 10
45.321090
 20
-3.894307
 30
0.0
 10
45.349551
 20
-1.680326
 30
0.0
 10
45.349832
 20
2.389924
 30
0.0
  0
LWPOLYLINE
  5
124
100
AcDbEntity
  8
Camada_1
 62
7
100
AcDbPolyline
 90
5
 70
0
 10
34.860859
 20
1.599854
 30
0.0
 10
34.835190
 20
8.572199
 30
0.0
 10
37.208979
 20
8.572199
 30
0.0
 10
39.582784
 20
8.572199
 30
0.0
 10
39.582784
 20
2.381965
 30
0.0
  0
SPLINE
  5
125
100
AcDbEntity
  8
Camada_1
 62
7
100
AcDbSpline
 70
8
 71
3
 72
8
 73
4
 74
0
 40
0
 40
0
 40
0
 40
0
 40
1
 40
1
 40
1
 40
1
 10
50.090481
 20
2.103997
 30
0.0
 10
50.090481
 20
-3.294861
 30
0.0
 10
50.070886
 20
-4.476717
 30
0.0
 10
49.971803
 20
-5.044751
 30
0.0
  0
SPLINE
  5
126
100
AcDbEntity
  8
Camada_1
 62
7
100
AcDbSpline
 70
8
 71
3
 72
8
 73
4
 74
0
 40
0
 40
0
 40
0
 40
0
 40
1
 40
1
 40
1
 40
1
 10
49.971803
 20
-5.044751
 30
0.0
 10
49.570058
 20
-7.348605
 30
0.0
 10
48.398831
 20
-8.512496
 30
0.0
 10
45.941326
 20
-9.050026
 30
0.0
  0
SPLINE
  5
127
100
AcDbEntity
  8
Camada_1
 62
7
100
AcDbSpline
 70
8
 71
3
 72
8
 73
4
 74
0
 40
0
 40
0
 40
0
 40
0
 40
1
 40
1
 40
1
 40
1
 10
45.941326
 20
-9.050026
 30
0.0
 10
45.249022
 20
-9.201459
 30
0.0
 10
44.867559
 20
-9.225460
 30
0.0
 10
42.821872
 20
-9.246362
 30
0.0
  0
SPLINE
  5
128
100
AcDbEntity
  8
Camada_1
 62
7
100
AcDbSpline
 70
8
 71
3
 72
8
 73
4
 74
0
 40
0
 40
0
 40
0
 40
0
 40
1
 40
1
 40
1
 40
1
 10
42.821872
 20
-9.246362
 30
0.0
 10
41.539985
 20
-9.259425
 30
0.0
 10
40.402287
 20
-9.255704
 30
0.0
 10
40.293657
 20
-9.237020
 30
0.0
  0
LWPOLYLINE
  5
129
100
AcDbEntity
  8
Camada_1
 62
7
100
AcDbPolyline
 90
5
 70
0
 10
45.349832
 20
2.389924
 30
0.0
 10
45.350085
 20
8.572199
 30
0.0
 10
47.720282
 20
8.572199
 30
0.0
 10
50.090481
 20
8.572199
 30
0.0
 10
50.090481
 20
2.103997
 30
0.0
  0
LWPOLYLINE
  5
12a
100
AcDbEntity
  8
Camada_1
 62
7
100
AcDbPolyline
 90
2
 70
0
 10
40.293657
 20
-9.237020
 30
0.0
 10
40.293817
 20
-9.237460
 30
0.0
  0
SPLINE
  5
12b
100
AcDbEntity
  8
Camada_1
 62
7
100
AcDbSpline
 70
8
 71
3
 72
8
 73
4
 74
0
 40
0
 40
0
 40
0
 40
0
 40
1
 40
1
 40
1
 40
1
 10
-0.716605
 20
8.038907
 30
0.0
 10
1.260515
 20
1.429808
 30
0.0
 10
2.499635
 20
-2.567752
 30
0.0
 10
2.571135
 20
-2.567752
 30
0.0
  0
SPLINE
  5
12c
100
AcDbEntity
  8
Camada_1
 62
7
100
AcDbSpline
 70
8
 71
3
 72
8
 73
4
 74
0
 40
0
 40
0
 40
0
 40
0
 40
1
 40
1
 40
1
 40
1
 10
2.571135
 20
-2.567752
 30
0.0
 10
2.621708
 20
-2.567752
 30
0.0
 10
3.361291
 20
-0.145522
 30
0.0
 10
4.271791
 20
3.002221
 30
0.0
  0
LWPOLYLINE
  5
12d
100
AcDbEntity
  8
Camada_1
 62
7
100
AcDbPolyline
 90
5
 70
0
 10
-8.374316
 20
-0.316062
 30
0.0
 10
-8.374316
 20
8.572199
 30
0.0
 10
-4.625224
 20
8.572199
 30
0.0
 10
-0.876143
 20
8.572199
 30
0.0
 10
-0.716605
 20
8.038907
 30
0.0
  0
SPLINE
  5
12e
100
AcDbEntity
  8
Camada_1
 62
7
100
AcDbSpline
 70
8
 71
3
 72
8
 73
4
 74
0
 40
0
 40
0
 40
0
 40
0
 40
1
 40
1
 40
1
 40
1
 10
8.897339
 20
-7.249978
 30
0.0
 10
8.931120
 20
-6.173841
 30
0.0
 10
9.036370
 20
-3.124643
 30
0.0
 10
9.131319
 20
-0.473964
 30
0.0
  0
SPLINE
  5
12f
100
AcDbEntity
  8
Camada_1
 62
7
100
AcDbSpline
 70
8
 71
3
 72
8
 73
4
 74
0
 40
0
 40
0
 40
0
 40
0
 40
1
 40
1
 40
1
 40
1
 10
9.131319
 20
-0.473964
 30
0.0
 10
9.226245
 20
2.176715
 30
0.0
 10
9.296408
 20
4.354328
 30
0.0
 10
9.287226
 20
4.365199
 30
0.0
  0
SPLINE
  5
130
100
AcDbEntity
  8
Camada_1
 62
7
100
AcDbSpline
 70
8
 71
3
 72
8
 73
4
 74
0
 40
0
 40
0
 40
0
 40
0
 40
1
 40
1
 40
1
 40
1
 10
9.287226
 20
4.365199
 30
0.0
 10
9.181054
 20
4.490791
 30
0.0
 10
8.808102
 20
3.443392
 30
0.0
 10
6.874912
 20
-2.409622
 30
0.0
  0
LWPOLYLINE
  5
131
100
AcDbEntity
  8
Camada_1
 62
7
100
AcDbPolyline
 90
9
 70
0
 10
4.271791
 20
3.002221
 30
0.0
 10
5.882957
 20
8.572199
 30
0.0
 10
9.736587
 20
8.572199
 30
0.0
 10
13.590228
 20
8.572199
 30
0.0
 10
13.570152
 20
-0.296307
 30
0.0
 10
13.550101
 20
-9.164803
 30
0.0
 10
11.193064
 20
-9.185689
 30
0.0
 10
8.836032
 20
-9.206576
 30
0.0
 10
8.897339
 20
-7.249978
 30
0.0
  0
SPLINE
  5
132
100
AcDbEntity
  8
Camada_1
 62
7
100
AcDbSpline
 70
8
 71
3
 72
8
 73
4
 74
0
 40
0
 40
0
 40
0
 40
0
 40
1
 40
1
 40
1
 40
1
 10
-1.688005
 20
-2.408450
 30
0.0
 10
-2.942553
 20
1.328097
 30
0.0
 10
-4.002500
 20
4.385270
 30
0.0
 10
-4.043463
 20
4.385270
 30
0.0
  0
SPLINE
  5
133
100
AcDbEntity
  8
Camada_1
 62
7
100
AcDbSpline
 70
8
 71
3
 72
8
 73
4
 74
0
 40
0
 40
0
 40
0
 40
0
 40
1
 40
1
 40
1
 40
1
 10
-4.043463
 20
4.385270
 30
0.0
 10
-4.123249
 20
4.385270
 30
0.0
 10
-4.112517
 20
3.971459
 30
0.0
 10
-3.821757
 20
-4.185617
 30
0.0
  0
SPLINE
  5
134
100
AcDbEntity
  8
Camada_1
 62
7
100
AcDbSpline
 70
8
 71
3
 72
8
 73
4
 74
0
 40
0
 40
0
 40
0
 40
0
 40
1
 40
1
 40
1
 40
1
 10
-3.821757
 20
-4.185617
 30
0.0
 10
-3.724223
 20
-6.922470
 30
0.0
 10
-3.653892
 20
-9.171193
 30
0.0
 10
-3.665490
 20
-9.182793
 30
0.0
  0
SPLINE
  5
135
100
AcDbEntity
  8
Camada_1
 62
7
100
AcDbSpline
 70
8
 71
3
 72
8
 73
4
 74
0
 40
0
 40
0
 40
0
 40
0
 40
1
 40
1
 40
1
 40
1
 10
-3.665490
 20
-9.182793
 30
0.0
 10
-3.677060
 20
-9.194363
 30
0.0
 10
-4.741303
 20
-9.203882
 30
0.0
 10
-6.030431
 20
-9.203882
 30
0.0
  0
LWPOLYLINE
  5
136
100
AcDbEntity
  8
Camada_1
 62
7
100
AcDbPolyline
 90
5
 70
0
 10
6.874912
 20
-2.409622
 30
0.0
 10
4.630743
 20
-9.204209
 30
0.0
 10
2.611855
 20
-9.203196
 30
0.0
 10
0.592967
 20
-9.202183
 30
0.0
 10
-1.688005
 20
-2.408450
 30
0.0
  0
SPLINE
  5
137
100
AcDbEntity
  8
Camada_1
 62
7
100
AcDbSpline
 70
8
 71
3
 72
8
 73
4
 74
0
 40
0
 40
0
 40
0
 40
0
 40
1
 40
1
 40
1
 40
1
 10
15.275608
 20
-8.987040
 30
0.0
 10
15.347182
 20
-8.653802
 30
0.0
 10
20.517149
 20
8.494534
 30
0.0
 10
20.558494
 20
8.535882
 30
0.0
  0
SPLINE
  5
138
100
AcDbEntity
  8
Camada_1
 62
7
100
AcDbSpline
 70
8
 71
3
 72
8
 73
4
 74
0
 40
0
 40
0
 40
0
 40
0
 40
1
 40
1
 40
1
 40
1
 10
20.558494
 20
8.535882
 30
0.0
 10
20.578469
 20
8.555832
 30
0.0
 10
22.194815
 20
8.572181
 30
0.0
 10
24.150380
 20
8.572181
 30
0.0
  0
LWPOLYLINE
  5
139
100
AcDbEntity
  8
Camada_1
 62
7
100
AcDbPolyline
 90
3
 70
0
 10
-6.030431
 20
-9.203882
 30
0.0
 10
-8.374298
 20
-9.203882
 30
0.0
 10
-8.374316
 20
-0.316062
 30
0.0
  0
SPLINE
  5
13a
100
AcDbEntity
  8
Camada_1
 62
7
100
AcDbSpline
 70
8
 71
3
 72
8
 73
4
 74
0
 40
0
 40
0
 40
0
 40
0
 40
1
 40
1
 40
1
 40
1
 10
30.403481
 20
-0.291340
 30
0.0
 10
31.887123
 20
-5.166265
 30
0.0
 10
33.089877
 20
-9.165983
 30
0.0
 10
33.076267
 20
-9.179598
 30
0.0
  0
SPLINE
  5
13b
100
AcDbEntity
  8
Camada_1
 62
7
100
AcDbSpline
 70
8
 71
3
 72
8
 73
4
 74
0
 40
0
 40
0
 40
0
 40
0
 40
1
 40
1
 40
1
 40
1
 10
33.076267
 20
-9.179598
 30
0.0
 10
33.062646
 20
-9.193219
 30
0.0
 10
31.984097
 20
-9.204308
 30
0.0
 10
30.679452
 20
-9.204308
 30
0.0
  0
LWPOLYLINE
  5
13c
100
AcDbEntity
  8
Camada_1
 62
7
100
AcDbPolyline
 90
3
 70
0
 10
24.150380
 20
8.572181
 30
0.0
 10
27.705941
 20
8.572181
 30
0.0
 10
30.403481
 20
-0.291340
 30
0.0
  0
SPLINE
  5
13d
100
AcDbEntity
  8
Camada_1
 62
7
100
AcDbSpline
 70
8
 71
3
 72
8
 73
4
 74
0
 40
0
 40
0
 40
0
 40
0
 40
1
 40
1
 40
1
 40
1
 10
26.388630
 20
-2.587571
 30
0.0
 10
26.388630
 20
-2.369812
 30
0.0
 10
24.209850
 20
4.993954
 30
0.0
 10
24.168332
 20
4.916540
 30
0.0
  0
SPLINE
  5
13e
100
AcDbEntity
  8
Camada_1
 62
7
100
AcDbSpline
 70
8
 71
3
 72
8
 73
4
 74
0
 40
0
 40
0
 40
0
 40
0
 40
1
 40
1
 40
1
 40
1
 10
24.168332
 20
4.916540
 30
0.0
 10
24.119154
 20
4.824811
 30
0.0
 10
22.043270
 20
-2.525508
 30
0.0
 10
22.043270
 20
-2.607996
 30
0.0
  0
SPLINE
  5
13f
100
AcDbEntity
  8
Camada_1
 62
7
100
AcDbSpline
 70
8
 71
3
 72
8
 73
4
 74
0
 40
0
 40
0
 40
0
 40
0
 40
1
 40
1
 40
1
 40
1
 10
22.043270
 20
-2.607996
 30
0.0
 10
22.043270
 20
-2.629288
 30
0.0
 10
23.020976
 20
-2.646724
 30
0.0
 10
24.215951
 20
-2.646724
 30
0.0
  0
SPLINE
  5
140
100
AcDbEntity
  8
Camada_1
 62
7
100
AcDbSpline
 70
8
 71
3
 72
8
 73
4
 74
0
 40
0
 40
0
 40
0
 40
0
 40
1
 40
1
 40
1
 40
1
 10
24.215951
 20
-2.646724
 30
0.0
 10
25.410926
 20
-2.646724
 30
0.0
 10
26.388630
 20
-2.620128
 30
0.0
 10
26.388630
 20
-2.587560
 30
0.0
  0
LWPOLYLINE
  5
141
100
AcDbEntity
  8
Camada_1
 62
7
100
AcDbPolyline
 90
11
 70
0
 10
30.679452
 20
-9.204308
 30
0.0
 10
28.307356
 20
-9.204308
 30
0.0
 10
27.841787
 20
-7.663543
 30
0.0
 10
27.376223
 20
-6.122794
 30
0.0
 10
24.184439
 20
-6.142668
 30
0.0
 10
20.992655
 20
-6.162542
 30
0.0
 10
20.558821
 20
-7.683415
 30
0.0
 10
20.125001
 20
-9.204302
 30
0.0
 10
17.676967
 20
-9.204302
 30
0.0
 10
15.228939
 20
-9.204302
 30
0.0
 10
15.275608
 20
-8.987040
 30
0.0
  0
SPLINE
  5
142
100
AcDbEntity
  8
Camada_1
 62
7
100
AcDbSpline
 70
8
 71
3
 72
8
 73
4
 74
0
 40
0
 40
0
 40
0
 40
0
 40
1
 40
1
 40
1
 40
1
 10
51.828794
 20
-9.168269
 30
0.0
 10
51.828794
 20
-9.097442
 30
0.0
 10
57.113538
 20
8.510826
 30
0.0
 10
57.143914
 20
8.541201
 30
0.0
  0
SPLINE
  5
143
100
AcDbEntity
  8
Camada_1
 62
7
100
AcDbSpline
 70
8
 71
3
 72
8
 73
4
 74
0
 40
0
 40
0
 40
0
 40
0
 40
1
 40
1
 40
1
 40
1
 10
57.143914
 20
8.541201
 30
0.0
 10
57.160977
 20
8.558290
 30
0.0
 10
58.779500
 20
8.572186
 30
0.0
 10
60.740663
 20
8.572186
 30
0.0
  0
LWPOLYLINE
  5
144
100
AcDbEntity
  8
Camada_1
 62
7
100
AcDbPolyline
 90
1
 70
1
 10
26.388630
 20
-2.587560
 30
0.0
  0
SPLINE
  5
145
100
AcDbEntity
  8
Camada_1
 62
7
100
AcDbSpline
 70
8
 71
3
 72
8
 73
4
 74
0
 40
0
 40
0
 40
0
 40
0
 40
1
 40
1
 40
1
 40
1
 10
64.581590
 20
7.683360
 30
0.0
 10
65.948320
 20
3.268928
 30
0.0
 10
69.691492
 20
-9.144468
 30
0.0
 10
69.664152
 20
-9.171811
 30
0.0
  0
SPLINE
  5
146
100
AcDbEntity
  8
Camada_1
 62
7
100
AcDbSpline
 70
8
 71
3
 72
8
 73
4
 74
0
 40
0
 40
0
 40
0
 40
0
 40
1
 40
1
 40
1
 40
1
 10
69.664152
 20
-9.171811
 30
0.0
 10
69.644912
 20
-9.191052
 30
0.0
 10
68.566395
 20
-9.197285
 30
0.0
 10
67.267358
 20
-9.185811
 30
0.0
  0
LWPOLYLINE
  5
147
100
AcDbEntity
  8
Camada_1
 62
7
100
AcDbPolyline
 90
3
 70
0
 10
60.740663
 20
8.572186
 30
0.0
 10
64.306417
 20
8.572186
 30
0.0
 10
64.581590
 20
7.683360
 30
0.0
  0
SPLINE
  5
148
100
AcDbEntity
  8
Camada_1
 62
7
100
AcDbSpline
 70
8
 71
3
 72
8
 73
4
 74
0
 40
0
 40
0
 40
0
 40
0
 40
1
 40
1
 40
1
 40
1
 10
57.446429
 20
-6.656370
 30
0.0
 10
57.360301
 20
-6.949675
 30
0.0
 10
57.164023
 20
-7.630363
 30
0.0
 10
57.010192
 20
-8.169005
 30
0.0
  0
SPLINE
  5
149
100
AcDbEntity
  8
Camada_1
 62
7
100
AcDbSpline
 70
8
 71
3
 72
8
 73
4
 74
0
 40
0
 40
0
 40
0
 40
0
 40
1
 40
1
 40
1
 40
1
 10
57.010192
 20
-8.169005
 30
0.0
 10
56.856371
 20
-8.707646
 30
0.0
 10
56.717917
 20
-9.160952
 30
0.0
 10
56.702522
 20
-9.176340
 30
0.0
  0
SPLINE
  5
14a
100
AcDbEntity
  8
Camada_1
 62
7
100
AcDbSpline
 70
8
 71
3
 72
8
 73
4
 74
0
 40
0
 40
0
 40
0
 40
0
 40
1
 40
1
 40
1
 40
1
 10
56.702522
 20
-9.176340
 30
0.0
 10
56.660716
 20
-9.218146
 30
0.0
 10
51.828794
 20
-9.210214
 30
0.0
 10
51.828794
 20
-9.167960
 30
0.0
  0
LWPOLYLINE
  5
14b
100
AcDbEntity
  8
Camada_1
 62
7
100
AcDbPolyline
 90
7
 70
0
 10
67.267358
 20
-9.185811
 30
0.0
 10
64.905472
 20
-9.164823
 30
0.0
 10
64.437419
 20
-7.643948
 30
0.0
 10
63.969382
 20
-6.123078
 30
0.0
 10
60.786175
 20
-6.123078
 30
0.0
 10
57.602977
 20
-6.123078
 30
0.0
 10
57.446429
 20
-6.656370
 30
0.0
  0
SPLINE
  5
14c
100
AcDbEntity
  8
Camada_1
 62
7
100
AcDbSpline
 70
8
 71
3
 72
8
 73
4
 74
0
 40
0
 40
0
 40
0
 40
0
 40
1
 40
1
 40
1
 40
1
 10
61.936633
 20
1.154506
 30
0.0
 10
61.335688
 20
3.245203
 30
0.0
 10
60.827624
 20
4.972158
 30
0.0
 10
60.807591
 20
4.992189
 30
0.0
  0
SPLINE
  5
14d
100
AcDbEntity
  8
Camada_1
 62
7
100
AcDbSpline
 70
8
 71
3
 72
8
 73
4
 74
0
 40
0
 40
0
 40
0
 40
0
 40
1
 40
1
 40
1
 40
1
 10
60.807591
 20
4.992189
 30
0.0
 10
60.765317
 20
5.034459
 30
0.0
 10
60.806578
 20
5.175910
 30
0.0
 10
59.606515
 20
0.869039
 30
0.0
  0
SPLINE
  5
14e
100
AcDbEntity
  8
Camada_1
 62
7
100
AcDbSpline
 70
8
 71
3
 72
8
 73
4
 74
0
 40
0
 40
0
 40
0
 40
0
 40
1
 40
1
 40
1
 40
1
 10
59.606515
 20
0.869039
 30
0.0
 10
59.098001
 20
-0.956017
 30
0.0
 10
58.664964
 20
-2.493680
 30
0.0
 10
58.644201
 20
-2.547998
 30
0.0
  0
SPLINE
  5
14f
100
AcDbEntity
  8
Camada_1
 62
7
100
AcDbSpline
 70
8
 71
3
 72
8
 73
4
 74
0
 40
0
 40
0
 40
0
 40
0
 40
1
 40
1
 40
1
 40
1
 10
58.644201
 20
-2.547998
 30
0.0
 10
58.614535
 20
-2.625544
 30
0.0
 10
59.081281
 20
-2.646754
 30
0.0
 10
60.817862
 20
-2.646754
 30
0.0
  0
LWPOLYLINE
  5
150
100
AcDbEntity
  8
Camada_1
 62
7
100
AcDbPolyline
 90
2
 70
0
 10
51.828794
 20
-9.167960
 30
0.0
 10
51.828794
 20
-9.168269
 30
0.0
  0
LWPOLYLINE
  5
151
100
AcDbEntity
  8
Camada_1
 62
7
100
AcDbPolyline
 90
3
 70
0
 10
60.817862
 20
-2.646754
 30
0.0
 10
63.029263
 20
-2.646754
 30
0.0
 10
61.936633
 20
1.154506
 30
0.0
  0
SPLINE
  5
152
100
AcDbEntity
  8
Camada_1
 62
7
100
AcDbSpline
 70
8
 71
3
 72
8
 73
4
 74
0
 40
0
 40
0
 40
0
 40
0
 40
1
 40
1
 40
1
 40
1
 10
59.083585
 20
11.958658
 30
0.0
 10
62.237006
 20
13.820244
 30
0.0
 10
62.594998
 20
14.028256
 30
0.0
 10
62.608568
 20
14.006805
 30
0.0
  0
SPLINE
  5
153
100
AcDbEntity
  8
Camada_1
 62
7
100
AcDbSpline
 70
8
 71
3
 72
8
 73
4
 74
0
 40
0
 40
0
 40
0
 40
0
 40
1
 40
1
 40
1
 40
1
 10
62.608568
 20
14.006805
 30
0.0
 10
62.770891
 20
13.750156
 30
0.0
 10
63.736552
 20
11.443384
 30
0.0
 10
63.696586
 20
11.407775
 30
0.0
  0
SPLINE
  5
154
100
AcDbEntity
  8
Camada_1
 62
7
100
AcDbSpline
 70
8
 71
3
 72
8
 73
4
 74
0
 40
0
 40
0
 40
0
 40
0
 40
1
 40
1
 40
1
 40
1
 10
63.696586
 20
11.407775
 30
0.0
 10
63.639663
 20
11.357103
 30
0.0
 10
58.575997
 20
9.757300
 30
0.0
 10
58.472428
 20
9.757300
 30
0.0
  0
SPLINE
  5
155
100
AcDbEntity
  8
Camada_1
 62
7
100
AcDbSpline
 70
8
 71
3
 72
8
 73
4
 74
0
 40
0
 40
0
 40
0
 40
0
 40
1
 40
1
 40
1
 40
1
 10
58.472428
 20
9.757300
 30
0.0
 10
58.441640
 20
9.757300
 30
0.0
 10
58.270112
 20
10.077616
 30
0.0
 10
58.091293
 20
10.469107
 30
0.0
  0
LWPOLYLINE
  5
156
100
AcDbEntity
  8
Camada_1
 62
7
100
AcDbPolyline
 90
3
 70
0
 10
58.091293
 20
10.469107
 30
0.0
 10
57.766165
 20
11.180925
 30
0.0
 10
59.083585
 20
11.958658
 30
0.0
  0
LWPOLYLINE
  5
157
100
AcDbEntity
  8
Camada_1
 62
7
100
AcDbPolyline
 90
1
 70
1
 10
58.091293
 20
10.469107
 30
0.0
  0
LWPOLYLINE
  5
158
100
AcDbEntity
  8
Camada_1
 62
7
100
AcDbPolyline
 90
8
 70
1
 10
-9.717425
 20
21.015757
 30
0.0
 10
-9.717425
 20
24.373538
 30
0.0
 10
30.141456
 20
24.373538
 30
0.0
 10
70.000329
 20
24.373538
 30
0.0
 10
70.000329
 20
21.015757
 30
0.0
 10
70.000329
 20
17.657966
 30
0.0
 10
30.141456
 20
17.657966
 30
0.0
 10
-9.717425
 20
17.657966
 30
0.0
  0
ENDSEC
  0
SECTION
  2
OBJECTS
  0
DICTIONARY
  5
C
330
0
100
AcDbDictionary
  3
ACAD_GROUP
350
D
  3
ACAD_MLINESTYLE
350
17
  0
DICTIONARY
  5
D
330
C
100
AcDbDictionary
  0
DICTIONARY
  5
1A
330
C
100
AcDbDictionary
  0
DICTIONARY
  5
17
330
C
100
AcDbDictionary
  3
STANDARD
350
18
  0
DICTIONARY
  5
19
330
C
100
AcDbDictionary
  0
ENDSEC
  0
EOF
