<?xml version="1.0" encoding="UTF-8" standalone="no"?>
<!-- Created with Inkscape (http://www.inkscape.org/) -->

<svg
   width="47.027302mm"
   height="10.14098mm"
   viewBox="0 0 47.027302 10.14098"
   version="1.1"
   id="svg5"
   inkscape:version="1.1.2 (b8e25be833, 2022-02-05)"
   sodipodi:docname="shimano_lever.svg"
   xmlns:inkscape="http://www.inkscape.org/namespaces/inkscape"
   xmlns:sodipodi="http://sodipodi.sourceforge.net/DTD/sodipodi-0.dtd"
   xmlns="http://www.w3.org/2000/svg"
   xmlns:svg="http://www.w3.org/2000/svg">
  <sodipodi:namedview
     id="namedview7"
     pagecolor="#ffffff"
     bordercolor="#666666"
     borderopacity="1.0"
     inkscape:pageshadow="2"
     inkscape:pageopacity="0.0"
     inkscape:pagecheckerboard="0"
     inkscape:document-units="mm"
     showgrid="false"
     fit-margin-top="0"
     fit-margin-left="0"
     fit-margin-right="0"
     fit-margin-bottom="0"
     inkscape:zoom="1.0368618"
     inkscape:cx="166.84963"
     inkscape:cy="85.835934"
     inkscape:window-width="1920"
     inkscape:window-height="1009"
     inkscape:window-x="-8"
     inkscape:window-y="-8"
     inkscape:window-maximized="1"
     inkscape:current-layer="layer1" />
  <defs
     id="defs2" />
  <g
     inkscape:label="Camada 1"
     inkscape:groupmode="layer"
     id="layer1"
     transform="translate(-65.211902,-128.93531)">
    <path
       style="fill:#000000;stroke-width:1"
       d="m 108.78977,149.1619 c -3.1553,-0.0674 -5.54276,-0.21143 -8.05733,-0.48602 -1.570246,-0.17146 -5.225736,-0.88064 -6.898916,-1.33841 -2.93893,-0.80407 -5.67623,-1.85157 -7.90287,-3.02423 -3.40299,-1.79217 -5.49492,-3.21203 -8.39826,-5.70014 -0.4987,-0.42739 -1.8373,-1.38947 -2.43381,-1.74925 -0.52279,-0.31531 -1.37362,-0.70276 -2.09656,-0.95472 -1.08174,-0.37702 -2.47575,-0.60314 -4.2672,-0.69219 -2.81273,-0.13982 -22.43079,-0.31666 -31.46563,-0.28364 -6.07338,0.0222 -6.56579,0.0797 -8.15626,0.95279 -1.02977,0.56528 -1.24329,0.70446 -1.61037,1.04967 -0.66249,0.62304 -1.51844,1.80766 -1.69971,2.35238 -0.0697,0.20954 -0.20306,0.44871 -0.35493,0.63671 -0.31935,0.3953 -1.49453,1.33779 -2.34554,1.88111 -0.61947,0.3955 -0.73332,0.4481 -1.32143,0.61049 -0.61858,0.17079 -0.67853,0.17775 -1.54454,0.17939 -1.07682,0.002 -1.39926,-0.0686 -1.70416,-0.37352 -0.45542,-0.45543 -0.46327,-1.49661 -0.0244,-3.23254 0.43566,-1.72309 0.87991,-2.53186 2.00502,-3.65021 1.76898,-1.75837 3.95382,-3.29537 6.15908,-4.33282 0.71843,-0.33799 1.17809,-0.50341 2.41977,-0.87083 1.52202,-0.45038 2.41041,-0.57408 4.96691,-0.69161 0.67885,-0.0312 1.25187,-0.0676 1.27336,-0.0809 0.13585,-0.084 4.7494,-0.1358 15.33174,-0.17227 11.59134,-0.0399 12.12345,-0.0459 13.33449,-0.14865 2.59076,-0.21987 5.7812,-0.097 8.51044,0.32769 1.8722,0.29134 3.22306,0.60577 4.8783,1.13546 0.96272,0.30808 3.94262,1.44037 4.83677,1.83786 0.38227,0.16993 1.19851,0.52365 1.81386,0.78603 0.61535,0.26238 1.56524,0.71672 2.11086,1.00965 2.19111,1.17634 3.72376,1.79691 7.4791,3.02829 2.77588,0.91021 4.0426,1.1975 6.692986,1.51795 3.82962,0.46303 5.49415,0.56397 9.07414,0.55023 l 2.84452,-0.0109 v 4.99626 4.99626 l -0.81088,-0.008 c -0.44598,-0.004 -1.63335,-0.0257 -2.63858,-0.0472 z"
       id="path4251" />
  </g>
</svg>
