  0
SECTION
  2
HEADER
  9
$ACADVER
  1
AC1014
  9
$HANDSEED
  5
FFFF
  9
$MEASUREMENT
 70
     1
  0
ENDSEC
  0
SECTION
  2
TABLES
  0
TABLE
  2
VPORT
  5
8
330
0
100
AcDbSymbolTable
 70
     4
  0
VPORT
  5
2E
330
8
100
AcDbSymbolTableRecord
100
AcDbViewportTableRecord
  2
*ACTIVE
 70
     0
 10
0.0
 20
0.0
 11
1.0
 21
1.0
 12
210.0
 22
148.5
 13
0.0
 23
0.0
 14
10.0
 24
10.0
 15
10.0
 25
10.0
 16
0.0
 26
0.0
 36
1.0
 17
0.0
 27
0.0
 37
0.0
 40
341.0
 41
1.24
 42
50.0
 43
0.0
 44
0.0
 50
0.0
 51
0.0
 71
     0
 72
   100
 73
     1
 74
     3
 75
     0
 76
     0
 77
     0
 78
     0
  0
ENDTAB
  0
TABLE
  2
LTYPE
  5
5
330
0
100
AcDbSymbolTable
 70
     1
  0
LTYPE
  5
14
330
5
100
AcDbSymbolTableRecord
100
AcDbLinetypeTableRecord
  2
BYBLOCK
 70
     0
  3

 72
    65
 73
     0
 40
0.0
  0
LTYPE
  5
15
330
5
100
AcDbSymbolTableRecord
100
AcDbLinetypeTableRecord
  2
BYLAYER
 70
     0
  3

 72
    65
 73
     0
 40
0.0
  0
LTYPE
  5
16
330
5
100
AcDbSymbolTableRecord
100
AcDbLinetypeTableRecord
  2
CONTINUOUS
 70
     0
  3
Solid line
 72
    65
 73
     0
 40
0.0
  0
ENDTAB
  0
TABLE
  2
LAYER
  5
2
100
AcDbSymbolTable
 70
2
  0
LAYER
  5
50
100
AcDbSymbolTableRecord
100
AcDbLayerTableRecord
  2
0
 70
0
  6
CONTINUOUS
  0
LAYER
  5
51
100
AcDbSymbolTableRecord
100
AcDbLayerTableRecord
  2
Camada_1
 70
0
  6
CONTINUOUS
  0
ENDTAB
  0
TABLE
  2
STYLE
  5
3
330
0
100
AcDbSymbolTable
 70
     1
  0
STYLE
  5
11
330
3
100
AcDbSymbolTableRecord
100
AcDbTextStyleTableRecord
  2
STANDARD
 70
     0
 40
0.0
 41
1.0
 50
0.0
 71
     0
 42
2.5
  3
txt
  4

  0
ENDTAB
  0
TABLE
  2
VIEW
  5
6
330
0
100
AcDbSymbolTable
 70
     0
  0
ENDTAB
  0
TABLE
  2
UCS
  5
7
330
0
100
AcDbSymbolTable
 70
     0
  0
ENDTAB
  0
TABLE
  2
APPID
  5
9
330
0
100
AcDbSymbolTable
 70
     2
  0
APPID
  5
12
330
9
100
AcDbSymbolTableRecord
100
AcDbRegAppTableRecord
  2
ACAD
 70
     0
  0
ENDTAB
  0
TABLE
  2
DIMSTYLE
  5
A
330
0
100
AcDbSymbolTable
 70
     1
  0
DIMSTYLE
105
27
330
A
100
AcDbSymbolTableRecord
100
AcDbDimStyleTableRecord
  2
ISO-25
 70
     0
  3

  4

  5

  6

  7

 40
1.0
 41
2.5
 42
0.625
 43
3.75
 44
1.25
 45
0.0
 46
0.0
 47
0.0
 48
0.0
140
2.5
141
2.5
142
0.0
143
0.03937007874016
144
1.0
145
0.0
146
1.0
147
0.625
 71
     0
 72
     0
 73
     0
 74
     0
 75
     0
 76
     0
 77
     1
 78
     8
170
     0
171
     3
172
     1
173
     0
174
     0
175
     0
176
     0
177
     0
178
     0
270
     2
271
     2
272
     2
273
     2
274
     3
340
11
275
     0
280
     0
281
     0
282
     0
283
     0
284
     8
285
     0
286
     0
287
     3
288
     0
  0
ENDTAB
  0
TABLE
  2
BLOCK_RECORD
  5
1
330
0
100
AcDbSymbolTable
 70
     1
  0
BLOCK_RECORD
  5
1F
330
1
100
AcDbSymbolTableRecord
100
AcDbBlockTableRecord
  2
*MODEL_SPACE
  0
BLOCK_RECORD
  5
1B
330
1
100
AcDbSymbolTableRecord
100
AcDbBlockTableRecord
  2
*PAPER_SPACE
  0
ENDTAB
  0
ENDSEC
  0
SECTION
  2
BLOCKS
  0
BLOCK
  5
20
330
1F
100
AcDbEntity
  8
0
100
AcDbBlockBegin
  2
*MODEL_SPACE
 70
     0
 10
0.0
 20
0.0
 30
0.0
  3
*MODEL_SPACE
  1

  0
ENDBLK
  5
21
330
1F
100
AcDbEntity
  8
0
100
AcDbBlockEnd
  0
BLOCK
  5
1C
330
1B
100
AcDbEntity
 67
     1
  8
0
100
AcDbBlockBegin
  2
*PAPER_SPACE
  1

  0
ENDBLK
  5
1D
330
1B
100
AcDbEntity
 67
     1
  8
0
100
AcDbBlockEnd
  0
ENDSEC
  0
SECTION
  2
ENTITIES
  0
SPLINE
  5
100
100
AcDbEntity
  8
Camada_1
 62
7
100
AcDbSpline
 70
8
 71
3
 72
8
 73
4
 74
0
 40
0
 40
0
 40
0
 40
0
 40
1
 40
1
 40
1
 40
1
 10
43.577784
 20
-10.085900
 30
0.0
 10
40.422490
 20
-10.018500
 30
0.0
 10
38.035035
 20
-9.874471
 30
0.0
 10
35.520470
 20
-9.599881
 30
0.0
  0
SPLINE
  5
101
100
AcDbEntity
  8
Camada_1
 62
7
100
AcDbSpline
 70
8
 71
3
 72
8
 73
4
 74
0
 40
0
 40
0
 40
0
 40
0
 40
1
 40
1
 40
1
 40
1
 10
35.520470
 20
-9.599881
 30
0.0
 10
33.950227
 20
-9.428421
 30
0.0
 10
30.294744
 20
-8.719243
 30
0.0
 10
28.621568
 20
-8.261474
 30
0.0
  0
SPLINE
  5
102
100
AcDbEntity
  8
Camada_1
 62
7
100
AcDbSpline
 70
8
 71
3
 72
8
 73
4
 74
0
 40
0
 40
0
 40
0
 40
0
 40
1
 40
1
 40
1
 40
1
 10
28.621568
 20
-8.261474
 30
0.0
 10
25.682643
 20
-7.457405
 30
0.0
 10
22.945349
 20
-6.409907
 30
0.0
 10
20.718713
 20
-5.237250
 30
0.0
  0
SPLINE
  5
103
100
AcDbEntity
  8
Camada_1
 62
7
100
AcDbSpline
 70
8
 71
3
 72
8
 73
4
 74
0
 40
0
 40
0
 40
0
 40
0
 40
1
 40
1
 40
1
 40
1
 10
20.718713
 20
-5.237250
 30
0.0
 10
17.315730
 20
-3.445083
 30
0.0
 10
15.223804
 20
-2.025226
 30
0.0
 10
12.320470
 20
0.462879
 30
0.0
  0
SPLINE
  5
104
100
AcDbEntity
  8
Camada_1
 62
7
100
AcDbSpline
 70
8
 71
3
 72
8
 73
4
 74
0
 40
0
 40
0
 40
0
 40
0
 40
1
 40
1
 40
1
 40
1
 10
12.320470
 20
0.462879
 30
0.0
 10
11.821771
 20
0.890268
 30
0.0
 10
10.483173
 20
1.852346
 30
0.0
 10
9.886665
 20
2.212126
 30
0.0
  0
SPLINE
  5
105
100
AcDbEntity
  8
Camada_1
 62
7
100
AcDbSpline
 70
8
 71
3
 72
8
 73
4
 74
0
 40
0
 40
0
 40
0
 40
0
 40
1
 40
1
 40
1
 40
1
 10
9.886665
 20
2.212126
 30
0.0
 10
9.363876
 20
2.527435
 30
0.0
 10
8.513047
 20
2.914884
 30
0.0
 10
7.790109
 20
3.166844
 30
0.0
  0
SPLINE
  5
106
100
AcDbEntity
  8
Camada_1
 62
7
100
AcDbSpline
 70
8
 71
3
 72
8
 73
4
 74
0
 40
0
 40
0
 40
0
 40
0
 40
1
 40
1
 40
1
 40
1
 10
7.790109
 20
3.166844
 30
0.0
 10
6.708371
 20
3.543863
 30
0.0
 10
5.314364
 20
3.769983
 30
0.0
 10
3.522917
 20
3.859032
 30
0.0
  0
SPLINE
  5
107
100
AcDbEntity
  8
Camada_1
 62
7
100
AcDbSpline
 70
8
 71
3
 72
8
 73
4
 74
0
 40
0
 40
0
 40
0
 40
0
 40
1
 40
1
 40
1
 40
1
 10
3.522917
 20
3.859032
 30
0.0
 10
0.710193
 20
3.998852
 30
0.0
 10
-18.907829
 20
4.175692
 30
0.0
 10
-27.942651
 20
4.142672
 30
0.0
  0
SPLINE
  5
108
100
AcDbEntity
  8
Camada_1
 62
7
100
AcDbSpline
 70
8
 71
3
 72
8
 73
4
 74
0
 40
0
 40
0
 40
0
 40
0
 40
1
 40
1
 40
1
 40
1
 10
-27.942651
 20
4.142672
 30
0.0
 10
-34.016019
 20
4.120472
 30
0.0
 10
-34.508428
 20
4.062972
 30
0.0
 10
-36.098895
 20
3.189884
 30
0.0
  0
SPLINE
  5
109
100
AcDbEntity
  8
Camada_1
 62
7
100
AcDbSpline
 70
8
 71
3
 72
8
 73
4
 74
0
 40
0
 40
0
 40
0
 40
0
 40
1
 40
1
 40
1
 40
1
 10
-36.098895
 20
3.189884
 30
0.0
 10
-37.128663
 20
2.624605
 30
0.0
 10
-37.342182
 20
2.485425
 30
0.0
 10
-37.709262
 20
2.140216
 30
0.0
  0
SPLINE
  5
10a
100
AcDbEntity
  8
Camada_1
 62
7
100
AcDbSpline
 70
8
 71
3
 72
8
 73
4
 74
0
 40
0
 40
0
 40
0
 40
0
 40
1
 40
1
 40
1
 40
1
 10
-37.709262
 20
2.140216
 30
0.0
 10
-38.371750
 20
1.517177
 30
0.0
 10
-39.227699
 20
0.332559
 30
0.0
 10
-39.408968
 20
-0.212160
 30
0.0
  0
SPLINE
  5
10b
100
AcDbEntity
  8
Camada_1
 62
7
100
AcDbSpline
 70
8
 71
3
 72
8
 73
4
 74
0
 40
0
 40
0
 40
0
 40
0
 40
1
 40
1
 40
1
 40
1
 10
-39.408968
 20
-0.212160
 30
0.0
 10
-39.478668
 20
-0.421699
 30
0.0
 10
-39.612028
 20
-0.660869
 30
0.0
 10
-39.763898
 20
-0.848868
 30
0.0
  0
SPLINE
  5
10c
100
AcDbEntity
  8
Camada_1
 62
7
100
AcDbSpline
 70
8
 71
3
 72
8
 73
4
 74
0
 40
0
 40
0
 40
0
 40
0
 40
1
 40
1
 40
1
 40
1
 10
-39.763898
 20
-0.848868
 30
0.0
 10
-40.083247
 20
-1.244168
 30
0.0
 10
-41.258425
 20
-2.186656
 30
0.0
 10
-42.109433
 20
-2.729975
 30
0.0
  0
SPLINE
  5
10d
100
AcDbEntity
  8
Camada_1
 62
7
100
AcDbSpline
 70
8
 71
3
 72
8
 73
4
 74
0
 40
0
 40
0
 40
0
 40
0
 40
1
 40
1
 40
1
 40
1
 10
-42.109433
 20
-2.729975
 30
0.0
 10
-42.728902
 20
-3.125474
 30
0.0
 10
-42.842752
 20
-3.178074
 30
0.0
 10
-43.430860
 20
-3.340463
 30
0.0
  0
SPLINE
  5
10e
100
AcDbEntity
  8
Camada_1
 62
7
100
AcDbSpline
 70
8
 71
3
 72
8
 73
4
 74
0
 40
0
 40
0
 40
0
 40
0
 40
1
 40
1
 40
1
 40
1
 10
-43.430860
 20
-3.340463
 30
0.0
 10
-44.049439
 20
-3.511253
 30
0.0
 10
-44.109389
 20
-3.518213
 30
0.0
 10
-44.975397
 20
-3.519853
 30
0.0
  0
SPLINE
  5
10f
100
AcDbEntity
  8
Camada_1
 62
7
100
AcDbSpline
 70
8
 71
3
 72
8
 73
4
 74
0
 40
0
 40
0
 40
0
 40
0
 40
1
 40
1
 40
1
 40
1
 10
-44.975397
 20
-3.519853
 30
0.0
 10
-46.052215
 20
-3.521853
 30
0.0
 10
-46.374655
 20
-3.451253
 30
0.0
 10
-46.679554
 20
-3.146334
 30
0.0
  0
SPLINE
  5
110
100
AcDbEntity
  8
Camada_1
 62
7
100
AcDbSpline
 70
8
 71
3
 72
8
 73
4
 74
0
 40
0
 40
0
 40
0
 40
0
 40
1
 40
1
 40
1
 40
1
 10
-46.679554
 20
-3.146334
 30
0.0
 10
-47.134973
 20
-2.690905
 30
0.0
 10
-47.142823
 20
-1.649727
 30
0.0
 10
-46.703954
 20
0.086200
 30
0.0
  0
SPLINE
  5
111
100
AcDbEntity
  8
Camada_1
 62
7
100
AcDbSpline
 70
8
 71
3
 72
8
 73
4
 74
0
 40
0
 40
0
 40
0
 40
0
 40
1
 40
1
 40
1
 40
1
 10
-46.703954
 20
0.086200
 30
0.0
 10
-46.268295
 20
1.809286
 30
0.0
 10
-45.824046
 20
2.618055
 30
0.0
 10
-44.698938
 20
3.736403
 30
0.0
  0
SPLINE
  5
112
100
AcDbEntity
  8
Camada_1
 62
7
100
AcDbSpline
 70
8
 71
3
 72
8
 73
4
 74
0
 40
0
 40
0
 40
0
 40
0
 40
1
 40
1
 40
1
 40
1
 10
-44.698938
 20
3.736403
 30
0.0
 10
-42.929961
 20
5.494769
 30
0.0
 10
-40.745126
 20
7.031766
 30
0.0
 10
-38.539870
 20
8.069214
 30
0.0
  0
SPLINE
  5
113
100
AcDbEntity
  8
Camada_1
 62
7
100
AcDbSpline
 70
8
 71
3
 72
8
 73
4
 74
0
 40
0
 40
0
 40
0
 40
0
 40
1
 40
1
 40
1
 40
1
 10
-38.539870
 20
8.069214
 30
0.0
 10
-37.821441
 20
8.407203
 30
0.0
 10
-37.361782
 20
8.572623
 30
0.0
 10
-36.120105
 20
8.940042
 30
0.0
  0
SPLINE
  5
114
100
AcDbEntity
  8
Camada_1
 62
7
100
AcDbSpline
 70
8
 71
3
 72
8
 73
4
 74
0
 40
0
 40
0
 40
0
 40
0
 40
1
 40
1
 40
1
 40
1
 10
-36.120105
 20
8.940042
 30
0.0
 10
-34.598088
 20
9.390421
 30
0.0
 10
-33.709700
 20
9.514121
 30
0.0
 10
-31.153205
 20
9.631651
 30
0.0
  0
SPLINE
  5
115
100
AcDbEntity
  8
Camada_1
 62
7
100
AcDbSpline
 70
8
 71
3
 72
8
 73
4
 74
0
 40
0
 40
0
 40
0
 40
0
 40
1
 40
1
 40
1
 40
1
 10
-31.153205
 20
9.631651
 30
0.0
 10
-30.474356
 20
9.662851
 30
0.0
 10
-29.901337
 20
9.699251
 30
0.0
 10
-29.879847
 20
9.712551
 30
0.0
  0
SPLINE
  5
116
100
AcDbEntity
  8
Camada_1
 62
7
100
AcDbSpline
 70
8
 71
3
 72
8
 73
4
 74
0
 40
0
 40
0
 40
0
 40
0
 40
1
 40
1
 40
1
 40
1
 10
-29.879847
 20
9.712551
 30
0.0
 10
-29.743997
 20
9.796551
 30
0.0
 10
-25.130456
 20
9.848351
 30
0.0
 10
-14.548137
 20
9.884821
 30
0.0
  0
SPLINE
  5
117
100
AcDbEntity
  8
Camada_1
 62
7
100
AcDbSpline
 70
8
 71
3
 72
8
 73
4
 74
0
 40
0
 40
0
 40
0
 40
0
 40
1
 40
1
 40
1
 40
1
 10
-14.548137
 20
9.884821
 30
0.0
 10
-2.956820
 20
9.924720
 30
0.0
 10
-2.424711
 20
9.930720
 30
0.0
 10
-1.213674
 20
10.033470
 30
0.0
  0
SPLINE
  5
118
100
AcDbEntity
  8
Camada_1
 62
7
100
AcDbSpline
 70
8
 71
3
 72
8
 73
4
 74
0
 40
0
 40
0
 40
0
 40
0
 40
1
 40
1
 40
1
 40
1
 10
-1.213674
 20
10.033470
 30
0.0
 10
1.377081
 20
10.253340
 30
0.0
 10
4.567515
 20
10.130470
 30
0.0
 10
7.296750
 20
9.705781
 30
0.0
  0
SPLINE
  5
119
100
AcDbEntity
  8
Camada_1
 62
7
100
AcDbSpline
 70
8
 71
3
 72
8
 73
4
 74
0
 40
0
 40
0
 40
0
 40
0
 40
1
 40
1
 40
1
 40
1
 10
7.296750
 20
9.705781
 30
0.0
 10
9.168946
 20
9.414441
 30
0.0
 10
10.519803
 20
9.100012
 30
0.0
 10
12.175040
 20
8.570323
 30
0.0
  0
SPLINE
  5
11a
100
AcDbEntity
  8
Camada_1
 62
7
100
AcDbSpline
 70
8
 71
3
 72
8
 73
4
 74
0
 40
0
 40
0
 40
0
 40
0
 40
1
 40
1
 40
1
 40
1
 10
12.175040
 20
8.570323
 30
0.0
 10
13.137758
 20
8.262244
 30
0.0
 10
16.117652
 20
7.129956
 30
0.0
 10
17.011800
 20
6.732467
 30
0.0
  0
SPLINE
  5
11b
100
AcDbEntity
  8
Camada_1
 62
7
100
AcDbSpline
 70
8
 71
3
 72
8
 73
4
 74
0
 40
0
 40
0
 40
0
 40
0
 40
1
 40
1
 40
1
 40
1
 10
17.011800
 20
6.732467
 30
0.0
 10
17.394070
 20
6.562537
 30
0.0
 10
18.210308
 20
6.208818
 30
0.0
 10
18.825657
 20
5.946438
 30
0.0
  0
SPLINE
  5
11c
100
AcDbEntity
  8
Camada_1
 62
7
100
AcDbSpline
 70
8
 71
3
 72
8
 73
4
 74
0
 40
0
 40
0
 40
0
 40
0
 40
1
 40
1
 40
1
 40
1
 10
18.825657
 20
5.946438
 30
0.0
 10
19.441006
 20
5.684059
 30
0.0
 10
20.390894
 20
5.229720
 30
0.0
 10
20.936513
 20
4.936790
 30
0.0
  0
SPLINE
  5
11d
100
AcDbEntity
  8
Camada_1
 62
7
100
AcDbSpline
 70
8
 71
3
 72
8
 73
4
 74
0
 40
0
 40
0
 40
0
 40
0
 40
1
 40
1
 40
1
 40
1
 10
20.936513
 20
4.936790
 30
0.0
 10
23.127618
 20
3.760453
 30
0.0
 10
24.660265
 20
3.139884
 30
0.0
 10
28.415598
 20
1.908506
 30
0.0
  0
SPLINE
  5
11e
100
AcDbEntity
  8
Camada_1
 62
7
100
AcDbSpline
 70
8
 71
3
 72
8
 73
4
 74
0
 40
0
 40
0
 40
0
 40
0
 40
1
 40
1
 40
1
 40
1
 10
28.415598
 20
1.908506
 30
0.0
 10
31.191472
 20
0.998298
 30
0.0
 10
32.458190
 20
0.711009
 30
0.0
 10
35.108571
 20
0.390559
 30
0.0
  0
SPLINE
  5
11f
100
AcDbEntity
  8
Camada_1
 62
7
100
AcDbSpline
 70
8
 71
3
 72
8
 73
4
 74
0
 40
0
 40
0
 40
0
 40
0
 40
1
 40
1
 40
1
 40
1
 10
35.108571
 20
0.390559
 30
0.0
 10
38.938183
 20
-0.072470
 30
0.0
 10
40.602710
 20
-0.173410
 30
0.0
 10
44.182693
 20
-0.159670
 30
0.0
  0
SPLINE
  5
120
100
AcDbEntity
  8
Camada_1
 62
7
100
AcDbSpline
 70
8
 71
3
 72
8
 73
4
 74
0
 40
0
 40
0
 40
0
 40
0
 40
1
 40
1
 40
1
 40
1
 10
46.216329
 20
-10.133270
 30
0.0
 10
45.770350
 20
-10.129270
 30
0.0
 10
44.582982
 20
-10.107570
 30
0.0
 10
43.577754
 20
-10.086070
 30
0.0
  0
LWPOLYLINE
  5
121
100
AcDbEntity
  8
Camada_1
 62
7
100
AcDbPolyline
 90
5
 70
0
 10
44.182693
 20
-0.159670
 30
0.0
 10
47.027207
 20
-0.148770
 30
0.0
 10
47.027207
 20
-5.145020
 30
0.0
 10
47.027207
 20
-10.141270
 30
0.0
 10
46.216329
 20
-10.133270
 30
0.0
  0
LWPOLYLINE
  5
122
100
AcDbEntity
  8
Camada_1
 62
7
100
AcDbPolyline
 90
2
 70
0
 10
43.577754
 20
-10.086070
 30
0.0
 10
43.577784
 20
-10.085900
 30
0.0
  0
ENDSEC
  0
SECTION
  2
OBJECTS
  0
DICTIONARY
  5
C
330
0
100
AcDbDictionary
  3
ACAD_GROUP
350
D
  3
ACAD_MLINESTYLE
350
17
  0
DICTIONARY
  5
D
330
C
100
AcDbDictionary
  0
DICTIONARY
  5
1A
330
C
100
AcDbDictionary
  0
DICTIONARY
  5
17
330
C
100
AcDbDictionary
  3
STANDARD
350
18
  0
DICTIONARY
  5
19
330
C
100
AcDbDictionary
  0
ENDSEC
  0
EOF
