M48
; DRILL file {KiCad 7.0.2} date Fri May 24 01:33:45 2024
; FORMAT={-:-/ absolute / metric / decimal}
; #@! TF.CreationDate,2024-05-24T01:33:45-03:00
; #@! TF.GenerationSoftware,Kicad,Pcbnew,7.0.2
; #@! TF.FileFunction,Plated,1,2,PTH
FMAT,2
METRIC
; #@! TA.AperFunction,Plated,PTH,ViaDrill
T1C1.000
; #@! TA.AperFunction,Plated,PTH,ComponentDrill
T2C1.000
%
G90
G05
T1
X114.3Y-65.278
X121.412Y-96.774
X121.666Y-88.9
X124.714Y-96.012
X129.032Y-95.25
X129.794Y-104.14
X130.048Y-109.22
X131.064Y-76.708
X133.604Y-76.708
X134.62Y-111.76
X136.144Y-82.042
X136.177Y-76.832
X136.361Y-68.823
X136.906Y-94.234
X143.51Y-68.426
X145.796Y-96.012
X146.05Y-86.36
X146.05Y-88.9
X146.05Y-91.445
X146.05Y-99.06
X149.352Y-61.976
X149.86Y-79.048
X151.892Y-93.98
X152.146Y-101.092
X153.67Y-79.048
X154.94Y-60.198
X154.94Y-88.138
X155.321Y-91.821
X157.226Y-96.266
X157.48Y-76.708
X158.496Y-104.648
X162.306Y-86.36
X163.068Y-104.013
X164.455Y-70.735
X165.1Y-84.074
X167.386Y-103.886
X170.434Y-72.136
X170.688Y-75.946
X170.72Y-89.408
X173.736Y-104.14
X173.736Y-106.68
X182.88Y-96.338
X188.468Y-93.218
X188.468Y-99.06
T2
X109.22Y-91.44
X109.22Y-93.98
X109.22Y-101.6
X109.22Y-104.14
X109.22Y-111.76
X109.22Y-114.3
X116.84Y-78.74
X116.84Y-81.28
X116.84Y-83.82
X116.84Y-86.36
X116.84Y-88.9
X116.84Y-91.44
X116.84Y-93.98
X116.84Y-96.52
X116.84Y-99.06
X116.84Y-101.6
X116.84Y-104.14
X116.84Y-106.68
X116.84Y-109.22
X116.84Y-111.76
X116.84Y-114.3
X121.94Y-66.015
X124.48Y-66.015
X127.02Y-66.015
X129.56Y-66.015
X132.1Y-66.015
X134.64Y-66.015
X137.18Y-66.015
X142.24Y-78.745
X142.24Y-81.285
X142.24Y-83.825
X142.24Y-86.365
X142.24Y-88.905
X142.24Y-91.445
X142.24Y-93.985
X142.24Y-96.525
X142.24Y-99.065
X142.24Y-101.605
X142.24Y-104.145
X142.24Y-106.685
X142.24Y-109.225
X142.24Y-111.765
X142.24Y-114.305
X149.88Y-81.255
X152.4Y-63.5
X152.4Y-73.66
X152.42Y-81.255
X154.94Y-63.5
X154.94Y-73.66
X154.96Y-81.255
X157.48Y-63.5
X157.48Y-73.66
X157.5Y-81.255
X160.02Y-63.5
X160.02Y-73.66
X160.04Y-81.255
X162.56Y-63.5
X162.56Y-73.66
X162.58Y-81.255
X165.1Y-63.5
X165.1Y-73.66
X165.12Y-81.255
X172.72Y-99.06
X175.26Y-99.06
X177.8Y-99.06
X177.8Y-104.14
X180.34Y-99.06
X180.34Y-104.14
X182.88Y-99.06
X182.88Y-104.14
X185.42Y-99.06
X185.42Y-104.14
X187.96Y-104.14
X190.5Y-104.14
T0
M30
