%TF.GenerationSoftware,KiCad,Pcbnew,7.0.2*%
%TF.CreationDate,2024-05-24T01:33:13-03:00*%
%TF.ProjectId,EcoMaua_Tx_Telemetry_Module,45636f4d-6175-4615-9f54-785f54656c65,rev?*%
%TF.SameCoordinates,Original*%
%TF.FileFunction,Copper,L1,Top*%
%TF.FilePolarity,Positive*%
%FSLAX46Y46*%
G04 Gerber Fmt 4.6, Leading zero omitted, Abs format (unit mm)*
G04 Created by KiCad (PCBNEW 7.0.2) date 2024-05-24 01:33:13*
%MOMM*%
%LPD*%
G01*
G04 APERTURE LIST*
%TA.AperFunction,ComponentPad*%
%ADD10R,1.700000X1.700000*%
%TD*%
%TA.AperFunction,ComponentPad*%
%ADD11O,1.700000X1.700000*%
%TD*%
%TA.AperFunction,ViaPad*%
%ADD12C,2.000000*%
%TD*%
%TA.AperFunction,Conductor*%
%ADD13C,1.000000*%
%TD*%
G04 APERTURE END LIST*
D10*
%TO.P,J10,1,Pin_1*%
%TO.N,GND*%
X149880000Y-81255000D03*
D11*
%TO.P,J10,2,Pin_2*%
%TO.N,+5V*%
X152420000Y-81255000D03*
%TO.P,J10,3,Pin_3*%
%TO.N,E32_433T30D_AUX*%
X154960000Y-81255000D03*
%TO.P,J10,4,Pin_4*%
%TO.N,ESP32_UART_2_RX*%
X157500000Y-81255000D03*
%TO.P,J10,5,Pin_5*%
%TO.N,ESP32_UART_2_TX*%
X160040000Y-81255000D03*
%TO.P,J10,6,Pin_6*%
%TO.N,E32_433T30D_M1*%
X162580000Y-81255000D03*
%TO.P,J10,7,Pin_7*%
%TO.N,E32_433T30D_M0*%
X165120000Y-81255000D03*
%TD*%
D10*
%TO.P,J9,1,Pin_1*%
%TO.N,GND*%
X190500000Y-104140000D03*
D11*
%TO.P,J9,2,Pin_2*%
%TO.N,ESP32_VSPI_MISO*%
X187960000Y-104140000D03*
%TO.P,J9,3,Pin_3*%
%TO.N,ESP32_VSPI_CLK*%
X185420000Y-104140000D03*
%TO.P,J9,4,Pin_4*%
%TO.N,ESP32_VSPI_MOSI*%
X182880000Y-104140000D03*
%TO.P,J9,5,Pin_5*%
%TO.N,SD_CARD_SPI_CS*%
X180340000Y-104140000D03*
%TO.P,J9,6,Pin_6*%
%TO.N,+3.3V*%
X177800000Y-104140000D03*
%TD*%
D10*
%TO.P,J8,1,Pin_1*%
%TO.N,ESP32_HSPI_CLK*%
X152400000Y-73660000D03*
D11*
%TO.P,J8,2,Pin_2*%
%TO.N,ESP32_HSPI_MOSI*%
X154940000Y-73660000D03*
%TO.P,J8,3,Pin_3*%
%TO.N,GND*%
X157480000Y-73660000D03*
%TO.P,J8,4,Pin_4*%
%TO.N,+3.3V*%
X160020000Y-73660000D03*
%TO.P,J8,5,Pin_5*%
%TO.N,ESP32_HSPI_MISO*%
X162560000Y-73660000D03*
%TO.P,J8,6,Pin_6*%
%TO.N,MCP2515_SPI_CS*%
X165100000Y-73660000D03*
%TD*%
D10*
%TO.P,J7,1,Pin_1*%
%TO.N,Net-(J5-Pin_5)*%
X165100000Y-63500000D03*
D11*
%TO.P,J7,2,Pin_2*%
%TO.N,Net-(J5-Pin_4)*%
X162560000Y-63500000D03*
%TO.P,J7,3,Pin_3*%
%TO.N,+5V*%
X160020000Y-63500000D03*
%TO.P,J7,4,Pin_4*%
%TO.N,GND*%
X157480000Y-63500000D03*
%TO.P,J7,5,Pin_5*%
%TO.N,Net-(J5-Pin_3)*%
X154940000Y-63500000D03*
%TO.P,J7,6,Pin_6*%
%TO.N,Net-(J5-Pin_2)*%
X152400000Y-63500000D03*
%TD*%
%TO.P,J6,6,Pin_6*%
%TO.N,unconnected-(J6-Pin_6-Pad6)*%
X172720000Y-99060000D03*
%TO.P,J6,5,Pin_5*%
%TO.N,unconnected-(J6-Pin_5-Pad5)*%
X175260000Y-99060000D03*
%TO.P,J6,4,Pin_4*%
%TO.N,ESP32_I2C_SCL*%
X177800000Y-99060000D03*
%TO.P,J6,3,Pin_3*%
%TO.N,ESP32_I2C_SDA*%
X180340000Y-99060000D03*
%TO.P,J6,2,Pin_2*%
%TO.N,+3.3V*%
X182880000Y-99060000D03*
D10*
%TO.P,J6,1,Pin_1*%
%TO.N,GND*%
X185420000Y-99060000D03*
%TD*%
%TO.P,J5,1,Pin_1*%
%TO.N,unconnected-(J5-Pin_1-Pad1)*%
X121940000Y-66015000D03*
D11*
%TO.P,J5,2,Pin_2*%
%TO.N,Net-(J5-Pin_2)*%
X124480000Y-66015000D03*
%TO.P,J5,3,Pin_3*%
%TO.N,Net-(J5-Pin_3)*%
X127020000Y-66015000D03*
%TO.P,J5,4,Pin_4*%
%TO.N,Net-(J5-Pin_4)*%
X129560000Y-66015000D03*
%TO.P,J5,5,Pin_5*%
%TO.N,Net-(J5-Pin_5)*%
X132100000Y-66015000D03*
%TO.P,J5,6,Pin_6*%
%TO.N,GND*%
X134640000Y-66015000D03*
%TO.P,J5,7,Pin_7*%
%TO.N,+5V*%
X137180000Y-66015000D03*
%TD*%
D10*
%TO.P,J4,1,Pin_1*%
%TO.N,+5V*%
X109220000Y-114300000D03*
D11*
%TO.P,J4,2,Pin_2*%
%TO.N,GND*%
X109220000Y-111760000D03*
%TD*%
D10*
%TO.P,J3,1,Pin_1*%
%TO.N,ESP32_VSPI_MOSI*%
X142240000Y-78745000D03*
D11*
%TO.P,J3,2,Pin_2*%
%TO.N,ESP32_I2C_SCL*%
X142240000Y-81285000D03*
%TO.P,J3,3,Pin_3*%
%TO.N,unconnected-(J3-Pin_3-Pad3)*%
X142240000Y-83825000D03*
%TO.P,J3,4,Pin_4*%
%TO.N,unconnected-(J3-Pin_4-Pad4)*%
X142240000Y-86365000D03*
%TO.P,J3,5,Pin_5*%
%TO.N,ESP32_I2C_SDA*%
X142240000Y-88905000D03*
%TO.P,J3,6,Pin_6*%
%TO.N,ESP32_VSPI_MISO*%
X142240000Y-91445000D03*
%TO.P,J3,7,Pin_7*%
%TO.N,ESP32_VSPI_CLK*%
X142240000Y-93985000D03*
%TO.P,J3,8,Pin_8*%
%TO.N,unconnected-(J3-Pin_8-Pad8)*%
X142240000Y-96525000D03*
%TO.P,J3,9,Pin_9*%
%TO.N,ESP32_UART_2_TX*%
X142240000Y-99065000D03*
%TO.P,J3,10,Pin_10*%
%TO.N,ESP32_UART_2_RX*%
X142240000Y-101605000D03*
%TO.P,J3,11,Pin_11*%
%TO.N,unconnected-(J3-Pin_11-Pad11)*%
X142240000Y-104145000D03*
%TO.P,J3,12,Pin_12*%
%TO.N,unconnected-(J3-Pin_12-Pad12)*%
X142240000Y-106685000D03*
%TO.P,J3,13,Pin_13*%
%TO.N,unconnected-(J3-Pin_13-Pad13)*%
X142240000Y-109225000D03*
%TO.P,J3,14,Pin_14*%
%TO.N,GND*%
X142240000Y-111765000D03*
%TO.P,J3,15,Pin_15*%
%TO.N,+3.3V*%
X142240000Y-114305000D03*
%TD*%
D10*
%TO.P,J2,1,Pin_1*%
%TO.N,GND*%
X109220000Y-104140000D03*
D11*
%TO.P,J2,2,Pin_2*%
%TO.N,+24V*%
X109220000Y-101600000D03*
%TD*%
D10*
%TO.P,J1,1,Pin_1*%
%TO.N,+5V*%
X116840000Y-114300000D03*
D11*
%TO.P,J1,2,Pin_2*%
%TO.N,GND*%
X116840000Y-111760000D03*
%TO.P,J1,3,Pin_3*%
%TO.N,ESP32_HSPI_MOSI*%
X116840000Y-109220000D03*
%TO.P,J1,4,Pin_4*%
%TO.N,unconnected-(J1-Pin_4-Pad4)*%
X116840000Y-106680000D03*
%TO.P,J1,5,Pin_5*%
%TO.N,ESP32_HSPI_CLK*%
X116840000Y-104140000D03*
%TO.P,J1,6,Pin_6*%
%TO.N,E32_433T30D_AUX*%
X116840000Y-101600000D03*
%TO.P,J1,7,Pin_7*%
%TO.N,MCP2515_SPI_CS*%
X116840000Y-99060000D03*
%TO.P,J1,8,Pin_8*%
%TO.N,SD_CARD_SPI_CS*%
X116840000Y-96520000D03*
%TO.P,J1,9,Pin_9*%
%TO.N,E32_433T30D_M1*%
X116840000Y-93980000D03*
%TO.P,J1,10,Pin_10*%
%TO.N,E32_433T30D_M0*%
X116840000Y-91440000D03*
%TO.P,J1,11,Pin_11*%
%TO.N,unconnected-(J1-Pin_11-Pad11)*%
X116840000Y-88900000D03*
%TO.P,J1,12,Pin_12*%
%TO.N,ESP32_HSPI_MISO*%
X116840000Y-86360000D03*
%TO.P,J1,13,Pin_13*%
%TO.N,unconnected-(J1-Pin_13-Pad13)*%
X116840000Y-83820000D03*
%TO.P,J1,14,Pin_14*%
%TO.N,unconnected-(J1-Pin_14-Pad14)*%
X116840000Y-81280000D03*
%TO.P,J1,15,Pin_15*%
%TO.N,unconnected-(J1-Pin_15-Pad15)*%
X116840000Y-78740000D03*
%TD*%
D10*
%TO.P,BT1,1,+*%
%TO.N,+24V*%
X109220000Y-93980000D03*
D11*
%TO.P,BT1,2,-*%
%TO.N,GND*%
X109220000Y-91440000D03*
%TD*%
D12*
%TO.N,GND*%
X154940000Y-88138000D03*
X157226000Y-96266000D03*
X145796000Y-96012000D03*
X149352000Y-61976000D03*
X143510000Y-68426500D03*
X124714000Y-96012000D03*
X136144000Y-82042000D03*
X136906000Y-94234000D03*
X121666000Y-88900000D03*
X134620000Y-111760000D03*
X114300000Y-65278000D03*
X154940000Y-60198000D03*
X157480000Y-76708000D03*
%TO.N,MCP2515_SPI_CS*%
X164454509Y-70734593D03*
%TO.N,E32_433T30D_M0*%
X165100000Y-84074000D03*
X136176500Y-76832298D03*
%TO.N,+5V*%
X153670000Y-79048500D03*
%TO.N,MCP2515_SPI_CS*%
X129032000Y-95250000D03*
%TO.N,ESP32_I2C_SDA*%
X146050000Y-88900000D03*
X170720500Y-89408000D03*
%TO.N,ESP32_I2C_SCL*%
X146050000Y-86360000D03*
X162306000Y-86360000D03*
%TO.N,GND*%
X149860000Y-79048500D03*
%TO.N,+3.3V*%
X170688000Y-75946000D03*
%TO.N,+5V*%
X170434000Y-72136000D03*
%TO.N,GND*%
X188468000Y-99060000D03*
X188468000Y-93218000D03*
%TO.N,+5V*%
X136361088Y-68823230D03*
%TO.N,ESP32_HSPI_MOSI*%
X133604000Y-76708000D03*
%TO.N,ESP32_HSPI_CLK*%
X131064000Y-76708000D03*
%TO.N,SD_CARD_SPI_CS*%
X121412000Y-96774000D03*
%TO.N,ESP32_HSPI_CLK*%
X129794000Y-104140000D03*
%TO.N,ESP32_HSPI_MOSI*%
X130048000Y-109220000D03*
%TO.N,ESP32_VSPI_MOSI*%
X155321000Y-91821000D03*
X167386000Y-103886000D03*
%TO.N,ESP32_UART_2_TX*%
X152146000Y-101092000D03*
X146050000Y-99060000D03*
%TO.N,ESP32_VSPI_MISO*%
X146050000Y-91445000D03*
X158496000Y-104648000D03*
%TO.N,ESP32_VSPI_CLK*%
X163068000Y-104013000D03*
X151892000Y-93980000D03*
%TO.N,SD_CARD_SPI_CS*%
X173736000Y-106680000D03*
%TO.N,+3.3V*%
X173736000Y-104140000D03*
X182880000Y-96338000D03*
%TD*%
D13*
%TO.N,GND*%
X151946500Y-76962000D02*
X149860000Y-79048500D01*
X157226000Y-76962000D02*
X151946500Y-76962000D01*
X157480000Y-76708000D02*
X157226000Y-76962000D01*
%TO.N,ESP32_I2C_SDA*%
X147574000Y-88900000D02*
X146050000Y-88900000D01*
X148590000Y-89916000D02*
X147574000Y-88900000D01*
X170212500Y-89916000D02*
X148590000Y-89916000D01*
X170720500Y-89408000D02*
X170212500Y-89916000D01*
%TO.N,ESP32_VSPI_MISO*%
X146050000Y-92202000D02*
X146050000Y-91445000D01*
X158496000Y-104648000D02*
X146050000Y-92202000D01*
%TO.N,ESP32_VSPI_MOSI*%
X155321000Y-91821000D02*
X167386000Y-103886000D01*
%TO.N,ESP32_VSPI_CLK*%
X152400000Y-93980000D02*
X162433000Y-104013000D01*
X151892000Y-93980000D02*
X152400000Y-93980000D01*
X162433000Y-104013000D02*
X163068000Y-104013000D01*
%TO.N,GND*%
X154940000Y-60198000D02*
X119380000Y-60198000D01*
X119380000Y-60198000D02*
X114300000Y-65278000D01*
%TO.N,MCP2515_SPI_CS*%
X129032000Y-75438000D02*
X129032000Y-95250000D01*
X133646770Y-70823230D02*
X129032000Y-75438000D01*
X137189516Y-70823230D02*
X133646770Y-70823230D01*
X164331916Y-70612000D02*
X137400746Y-70612000D01*
X137400746Y-70612000D02*
X137189516Y-70823230D01*
X164454509Y-70734593D02*
X164331916Y-70612000D01*
%TO.N,SD_CARD_SPI_CS*%
X125222000Y-100584000D02*
X121412000Y-96774000D01*
X163322000Y-117094000D02*
X130810000Y-117094000D01*
X130810000Y-117094000D02*
X125222000Y-111506000D01*
X125222000Y-111506000D02*
X125222000Y-100584000D01*
X173736000Y-106680000D02*
X163322000Y-117094000D01*
%TO.N,ESP32_HSPI_CLK*%
X131064000Y-102870000D02*
X129794000Y-104140000D01*
X131064000Y-76708000D02*
X131064000Y-102870000D01*
%TO.N,+5V*%
X139954000Y-66294000D02*
X164592000Y-66294000D01*
X164592000Y-66294000D02*
X170434000Y-72136000D01*
X137424770Y-68823230D02*
X139954000Y-66294000D01*
X136361088Y-68823230D02*
X137424770Y-68823230D01*
%TO.N,ESP32_HSPI_MOSI*%
X133604000Y-105664000D02*
X130048000Y-109220000D01*
X133604000Y-76708000D02*
X133604000Y-105664000D01*
%TO.N,+5V*%
X165354000Y-77216000D02*
X170434000Y-72136000D01*
X160782000Y-77216000D02*
X165354000Y-77216000D01*
X158949500Y-79048500D02*
X160782000Y-77216000D01*
X153670000Y-79048500D02*
X158949500Y-79048500D01*
%TO.N,E32_433T30D_M0*%
X137062798Y-75946000D02*
X136176500Y-76832298D01*
X145288000Y-75946000D02*
X137062798Y-75946000D01*
X146050000Y-76708000D02*
X145288000Y-75946000D01*
X146050000Y-81534000D02*
X146050000Y-76708000D01*
X148590000Y-84074000D02*
X146050000Y-81534000D01*
X165100000Y-84074000D02*
X148590000Y-84074000D01*
%TO.N,GND*%
X188468000Y-93218000D02*
X188468000Y-99060000D01*
%TO.N,+3.3V*%
X172212000Y-104140000D02*
X173736000Y-104140000D01*
X169545000Y-101473000D02*
X172212000Y-104140000D01*
X169545000Y-97155000D02*
X169545000Y-101473000D01*
X172720000Y-93980000D02*
X169545000Y-97155000D01*
X179396000Y-96338000D02*
X177038000Y-93980000D01*
X177038000Y-93980000D02*
X172720000Y-93980000D01*
X182880000Y-96338000D02*
X179396000Y-96338000D01*
%TO.N,ESP32_I2C_SCL*%
X162306000Y-86360000D02*
X146050000Y-86360000D01*
%TO.N,+3.3V*%
X170688000Y-75946000D02*
X172720000Y-77978000D01*
X172720000Y-77978000D02*
X172720000Y-93980000D01*
%TO.N,ESP32_UART_2_TX*%
X150114000Y-99060000D02*
X146050000Y-99060000D01*
X152146000Y-101092000D02*
X150114000Y-99060000D01*
%TD*%
%TA.AperFunction,Conductor*%
%TO.N,GND*%
G36*
X164193256Y-67314185D02*
G01*
X164213898Y-67330819D01*
X168894657Y-72011578D01*
X168928142Y-72072901D01*
X168930553Y-72109497D01*
X168928357Y-72136000D01*
X168930254Y-72158899D01*
X168930553Y-72162500D01*
X168916471Y-72230936D01*
X168894657Y-72260420D01*
X164975899Y-76179181D01*
X164914576Y-76212666D01*
X164888218Y-76215500D01*
X160796238Y-76215500D01*
X160793096Y-76215460D01*
X160705635Y-76213243D01*
X160647581Y-76223648D01*
X160638253Y-76224957D01*
X160579561Y-76230926D01*
X160550527Y-76240035D01*
X160535288Y-76243775D01*
X160505345Y-76249142D01*
X160450568Y-76271021D01*
X160441698Y-76274179D01*
X160385410Y-76291841D01*
X160358809Y-76306605D01*
X160344639Y-76313335D01*
X160316385Y-76324622D01*
X160267121Y-76357087D01*
X160259070Y-76361964D01*
X160207498Y-76390590D01*
X160184414Y-76410407D01*
X160171887Y-76419853D01*
X160146481Y-76436598D01*
X160104775Y-76478303D01*
X160097868Y-76484704D01*
X160053103Y-76523135D01*
X160034480Y-76547193D01*
X160024108Y-76558969D01*
X158571399Y-78011681D01*
X158510076Y-78045166D01*
X158483718Y-78048000D01*
X154842855Y-78048000D01*
X154775816Y-78028315D01*
X154751625Y-78007983D01*
X154740042Y-77995401D01*
X154689744Y-77940762D01*
X154609867Y-77878591D01*
X154493514Y-77788029D01*
X154493510Y-77788026D01*
X154493509Y-77788026D01*
X154274810Y-77669672D01*
X154274806Y-77669670D01*
X154274805Y-77669670D01*
X154039615Y-77588929D01*
X153794335Y-77548000D01*
X153545665Y-77548000D01*
X153300384Y-77588929D01*
X153065194Y-77669670D01*
X153065190Y-77669671D01*
X153065190Y-77669672D01*
X153006660Y-77701347D01*
X152846485Y-77788029D01*
X152650259Y-77940759D01*
X152650256Y-77940761D01*
X152650256Y-77940762D01*
X152481836Y-78123715D01*
X152437245Y-78191967D01*
X152345825Y-78331895D01*
X152245938Y-78559617D01*
X152184891Y-78800683D01*
X152164356Y-79048500D01*
X152184891Y-79296316D01*
X152184891Y-79296319D01*
X152184892Y-79296321D01*
X152245937Y-79537381D01*
X152278405Y-79611401D01*
X152335846Y-79742354D01*
X152344749Y-79811654D01*
X152314772Y-79874766D01*
X152255432Y-79911653D01*
X152233099Y-79915692D01*
X152184592Y-79919936D01*
X151956336Y-79981097D01*
X151742170Y-80080965D01*
X151548601Y-80216503D01*
X151426285Y-80338819D01*
X151364962Y-80372303D01*
X151295270Y-80367319D01*
X151239337Y-80325447D01*
X151222422Y-80294471D01*
X151173352Y-80162911D01*
X151087188Y-80047811D01*
X150972089Y-79961647D01*
X150837371Y-79911400D01*
X150781132Y-79905354D01*
X150774518Y-79905000D01*
X150130000Y-79905000D01*
X150130000Y-80819498D01*
X150022315Y-80770320D01*
X149915763Y-80755000D01*
X149844237Y-80755000D01*
X149737685Y-80770320D01*
X149630000Y-80819498D01*
X149630000Y-79905000D01*
X148985482Y-79905000D01*
X148978867Y-79905354D01*
X148922628Y-79911400D01*
X148787910Y-79961647D01*
X148672811Y-80047811D01*
X148586647Y-80162910D01*
X148536400Y-80297628D01*
X148530354Y-80353867D01*
X148530000Y-80360481D01*
X148530000Y-81005000D01*
X149446314Y-81005000D01*
X149420507Y-81045156D01*
X149380000Y-81183111D01*
X149380000Y-81326889D01*
X149420507Y-81464844D01*
X149446314Y-81505000D01*
X148530000Y-81505000D01*
X148530000Y-82149518D01*
X148530354Y-82156132D01*
X148536400Y-82212373D01*
X148571038Y-82305240D01*
X148576022Y-82374931D01*
X148542537Y-82436255D01*
X148481214Y-82469739D01*
X148411522Y-82464755D01*
X148367175Y-82436254D01*
X147086819Y-81155898D01*
X147053334Y-81094575D01*
X147050500Y-81068217D01*
X147050500Y-76722277D01*
X147050540Y-76719135D01*
X147052757Y-76631638D01*
X147042350Y-76573574D01*
X147041041Y-76564242D01*
X147039307Y-76547193D01*
X147035074Y-76505562D01*
X147025964Y-76476528D01*
X147022227Y-76461305D01*
X147016858Y-76431347D01*
X146994969Y-76376549D01*
X146991816Y-76367689D01*
X146974160Y-76311415D01*
X146974159Y-76311414D01*
X146974159Y-76311412D01*
X146959396Y-76284816D01*
X146952663Y-76270636D01*
X146941379Y-76242385D01*
X146941378Y-76242383D01*
X146908901Y-76193106D01*
X146904040Y-76185082D01*
X146875409Y-76133498D01*
X146875408Y-76133496D01*
X146855593Y-76110415D01*
X146846144Y-76097883D01*
X146829402Y-76072481D01*
X146787699Y-76030779D01*
X146781292Y-76023866D01*
X146742865Y-75979103D01*
X146718802Y-75960477D01*
X146707022Y-75950102D01*
X146005567Y-75248647D01*
X146003412Y-75246438D01*
X145943059Y-75182947D01*
X145894640Y-75149246D01*
X145887118Y-75143575D01*
X145878983Y-75136942D01*
X145841407Y-75106302D01*
X145841408Y-75106302D01*
X145841405Y-75106300D01*
X145814440Y-75092215D01*
X145801019Y-75084084D01*
X145776049Y-75066705D01*
X145776048Y-75066704D01*
X145776046Y-75066703D01*
X145721845Y-75043443D01*
X145713336Y-75039402D01*
X145661053Y-75012092D01*
X145654248Y-75010145D01*
X145631798Y-75003721D01*
X145617020Y-74998459D01*
X145589058Y-74986460D01*
X145531272Y-74974583D01*
X145522128Y-74972338D01*
X145465421Y-74956113D01*
X145435075Y-74953802D01*
X145419534Y-74951622D01*
X145389742Y-74945500D01*
X145389741Y-74945500D01*
X145330758Y-74945500D01*
X145321344Y-74945142D01*
X145296392Y-74943242D01*
X145262524Y-74940663D01*
X145262523Y-74940663D01*
X145262522Y-74940663D01*
X145232349Y-74944506D01*
X145216683Y-74945500D01*
X137077077Y-74945500D01*
X137073935Y-74945460D01*
X136986435Y-74943242D01*
X136928378Y-74953648D01*
X136919049Y-74954957D01*
X136860356Y-74960926D01*
X136831326Y-74970034D01*
X136816086Y-74973775D01*
X136786144Y-74979141D01*
X136731370Y-75001020D01*
X136722500Y-75004178D01*
X136666207Y-75021841D01*
X136639616Y-75036600D01*
X136625446Y-75043330D01*
X136597181Y-75054621D01*
X136547919Y-75087087D01*
X136539864Y-75091967D01*
X136488293Y-75120591D01*
X136465204Y-75140412D01*
X136452681Y-75149855D01*
X136427282Y-75166596D01*
X136385580Y-75208297D01*
X136378673Y-75214698D01*
X136333902Y-75253134D01*
X136315278Y-75277194D01*
X136304911Y-75288965D01*
X136298403Y-75295473D01*
X136237084Y-75328962D01*
X136210717Y-75331798D01*
X136052165Y-75331798D01*
X135806884Y-75372727D01*
X135571694Y-75453468D01*
X135571690Y-75453469D01*
X135571690Y-75453470D01*
X135553201Y-75463476D01*
X135352985Y-75571827D01*
X135156755Y-75724559D01*
X135028994Y-75863345D01*
X134969107Y-75899336D01*
X134899269Y-75897235D01*
X134841653Y-75857711D01*
X134833956Y-75847183D01*
X134792164Y-75783215D01*
X134623744Y-75600262D01*
X134587207Y-75571824D01*
X134427514Y-75447529D01*
X134427510Y-75447526D01*
X134427509Y-75447526D01*
X134208810Y-75329172D01*
X134208806Y-75329170D01*
X134208805Y-75329170D01*
X133973615Y-75248429D01*
X133728335Y-75207500D01*
X133479665Y-75207500D01*
X133234384Y-75248429D01*
X132999194Y-75329170D01*
X132999190Y-75329171D01*
X132999190Y-75329172D01*
X132918707Y-75372727D01*
X132780485Y-75447529D01*
X132584259Y-75600259D01*
X132425230Y-75773010D01*
X132365343Y-75809001D01*
X132295504Y-75806900D01*
X132242770Y-75773010D01*
X132198167Y-75724559D01*
X132083744Y-75600262D01*
X132047207Y-75571824D01*
X131887514Y-75447529D01*
X131887510Y-75447526D01*
X131887509Y-75447526D01*
X131668810Y-75329172D01*
X131668806Y-75329170D01*
X131668805Y-75329170D01*
X131433615Y-75248429D01*
X131188335Y-75207500D01*
X130976782Y-75207500D01*
X130909743Y-75187815D01*
X130863988Y-75135011D01*
X130854044Y-75065853D01*
X130883069Y-75002297D01*
X130889101Y-74995819D01*
X132370092Y-73514829D01*
X134024871Y-71860049D01*
X134086195Y-71826564D01*
X134112553Y-71823730D01*
X137175237Y-71823730D01*
X137178378Y-71823769D01*
X137265879Y-71825987D01*
X137323948Y-71815578D01*
X137333252Y-71814273D01*
X137391954Y-71808304D01*
X137420983Y-71799195D01*
X137436216Y-71795456D01*
X137466169Y-71790088D01*
X137520942Y-71768208D01*
X137529817Y-71765049D01*
X137547191Y-71759597D01*
X137586104Y-71747389D01*
X137612710Y-71732620D01*
X137626878Y-71725892D01*
X137655133Y-71714607D01*
X137704395Y-71682139D01*
X137712426Y-71677273D01*
X137764018Y-71648639D01*
X137771265Y-71642416D01*
X137834953Y-71613683D01*
X137852039Y-71612500D01*
X163168799Y-71612500D01*
X163235838Y-71632185D01*
X163260029Y-71652517D01*
X163266344Y-71659377D01*
X163266345Y-71659378D01*
X163434765Y-71842331D01*
X163434768Y-71842333D01*
X163630994Y-71995063D01*
X163630996Y-71995064D01*
X163631000Y-71995067D01*
X163849699Y-72113421D01*
X164084895Y-72194164D01*
X164330174Y-72235093D01*
X164400840Y-72235093D01*
X164467879Y-72254778D01*
X164513634Y-72307582D01*
X164523578Y-72376740D01*
X164494553Y-72440296D01*
X164453245Y-72471475D01*
X164422170Y-72485965D01*
X164228598Y-72621505D01*
X164061505Y-72788598D01*
X163931575Y-72974159D01*
X163876998Y-73017784D01*
X163807500Y-73024978D01*
X163745145Y-72993455D01*
X163728425Y-72974159D01*
X163643314Y-72852607D01*
X163598495Y-72788599D01*
X163431401Y-72621505D01*
X163237830Y-72485965D01*
X163023663Y-72386097D01*
X162962502Y-72369709D01*
X162795407Y-72324936D01*
X162560000Y-72304340D01*
X162324592Y-72324936D01*
X162096336Y-72386097D01*
X161882170Y-72485965D01*
X161688598Y-72621505D01*
X161521505Y-72788598D01*
X161391575Y-72974159D01*
X161336998Y-73017784D01*
X161267500Y-73024978D01*
X161205145Y-72993455D01*
X161188425Y-72974159D01*
X161103314Y-72852607D01*
X161058495Y-72788599D01*
X160891401Y-72621505D01*
X160697830Y-72485965D01*
X160483663Y-72386097D01*
X160422502Y-72369709D01*
X160255407Y-72324936D01*
X160020000Y-72304340D01*
X159784592Y-72324936D01*
X159556336Y-72386097D01*
X159342170Y-72485965D01*
X159148598Y-72621505D01*
X158981508Y-72788595D01*
X158981505Y-72788598D01*
X158981505Y-72788599D01*
X158936686Y-72852607D01*
X158851269Y-72974596D01*
X158796692Y-73018220D01*
X158727193Y-73025413D01*
X158664839Y-72993891D01*
X158648119Y-72974595D01*
X158518109Y-72788921D01*
X158351081Y-72621893D01*
X158157576Y-72486399D01*
X157943492Y-72386569D01*
X157730000Y-72329364D01*
X157730000Y-73224498D01*
X157622315Y-73175320D01*
X157515763Y-73160000D01*
X157444237Y-73160000D01*
X157337685Y-73175320D01*
X157230000Y-73224498D01*
X157230000Y-72329364D01*
X157229999Y-72329364D01*
X157016507Y-72386569D01*
X156802421Y-72486400D01*
X156608921Y-72621890D01*
X156441893Y-72788918D01*
X156311880Y-72974596D01*
X156257303Y-73018220D01*
X156187804Y-73025413D01*
X156125450Y-72993891D01*
X156108730Y-72974595D01*
X156108425Y-72974159D01*
X155978495Y-72788599D01*
X155811401Y-72621505D01*
X155617830Y-72485965D01*
X155403663Y-72386097D01*
X155342502Y-72369709D01*
X155175407Y-72324936D01*
X154940000Y-72304340D01*
X154704592Y-72324936D01*
X154476336Y-72386097D01*
X154262170Y-72485965D01*
X154068601Y-72621503D01*
X153946673Y-72743431D01*
X153885350Y-72776915D01*
X153815658Y-72771931D01*
X153759725Y-72730059D01*
X153742810Y-72699082D01*
X153715135Y-72624882D01*
X153693796Y-72567669D01*
X153607546Y-72452454D01*
X153492331Y-72366204D01*
X153357483Y-72315909D01*
X153297873Y-72309500D01*
X153294550Y-72309500D01*
X151505439Y-72309500D01*
X151505420Y-72309500D01*
X151502128Y-72309501D01*
X151498848Y-72309853D01*
X151498840Y-72309854D01*
X151442515Y-72315909D01*
X151307669Y-72366204D01*
X151192454Y-72452454D01*
X151106204Y-72567668D01*
X151085980Y-72621893D01*
X151055909Y-72702517D01*
X151049500Y-72762127D01*
X151049500Y-72765448D01*
X151049500Y-72765449D01*
X151049500Y-74554560D01*
X151049500Y-74554578D01*
X151049501Y-74557872D01*
X151049853Y-74561152D01*
X151049854Y-74561159D01*
X151055909Y-74617484D01*
X151081056Y-74684906D01*
X151106204Y-74752331D01*
X151192454Y-74867546D01*
X151307669Y-74953796D01*
X151442517Y-75004091D01*
X151502127Y-75010500D01*
X153297872Y-75010499D01*
X153357483Y-75004091D01*
X153492331Y-74953796D01*
X153607546Y-74867546D01*
X153693796Y-74752331D01*
X153742810Y-74620916D01*
X153784681Y-74564983D01*
X153850146Y-74540566D01*
X153918419Y-74555418D01*
X153946673Y-74576569D01*
X154068599Y-74698495D01*
X154262170Y-74834035D01*
X154476337Y-74933903D01*
X154672485Y-74986460D01*
X154704592Y-74995063D01*
X154939999Y-75015659D01*
X154939999Y-75015658D01*
X154940000Y-75015659D01*
X155175408Y-74995063D01*
X155403663Y-74933903D01*
X155617830Y-74834035D01*
X155811401Y-74698495D01*
X155978495Y-74531401D01*
X156108732Y-74345403D01*
X156163307Y-74301780D01*
X156232805Y-74294586D01*
X156295160Y-74326109D01*
X156311880Y-74345404D01*
X156441893Y-74531081D01*
X156608918Y-74698106D01*
X156802423Y-74833600D01*
X157016509Y-74933430D01*
X157230000Y-74990634D01*
X157230000Y-74095501D01*
X157337685Y-74144680D01*
X157444237Y-74160000D01*
X157515763Y-74160000D01*
X157622315Y-74144680D01*
X157730000Y-74095501D01*
X157730000Y-74990633D01*
X157943490Y-74933430D01*
X158157576Y-74833600D01*
X158351081Y-74698106D01*
X158518109Y-74531078D01*
X158648119Y-74345405D01*
X158702696Y-74301780D01*
X158772194Y-74294586D01*
X158834549Y-74326109D01*
X158851265Y-74345400D01*
X158981505Y-74531401D01*
X159148599Y-74698495D01*
X159342170Y-74834035D01*
X159556337Y-74933903D01*
X159752485Y-74986460D01*
X159784592Y-74995063D01*
X160019999Y-75015659D01*
X160019999Y-75015658D01*
X160020000Y-75015659D01*
X160255408Y-74995063D01*
X160483663Y-74933903D01*
X160697830Y-74834035D01*
X160891401Y-74698495D01*
X161058495Y-74531401D01*
X161188426Y-74345839D01*
X161243002Y-74302216D01*
X161312500Y-74295022D01*
X161374855Y-74326545D01*
X161391571Y-74345837D01*
X161521505Y-74531401D01*
X161688599Y-74698495D01*
X161882170Y-74834035D01*
X162096337Y-74933903D01*
X162324592Y-74995063D01*
X162560000Y-75015659D01*
X162795408Y-74995063D01*
X163023663Y-74933903D01*
X163237830Y-74834035D01*
X163431401Y-74698495D01*
X163598495Y-74531401D01*
X163728426Y-74345839D01*
X163783002Y-74302216D01*
X163852500Y-74295022D01*
X163914855Y-74326545D01*
X163931571Y-74345837D01*
X164061505Y-74531401D01*
X164228599Y-74698495D01*
X164422170Y-74834035D01*
X164636337Y-74933903D01*
X164864592Y-74995063D01*
X165100000Y-75015659D01*
X165335408Y-74995063D01*
X165563663Y-74933903D01*
X165777830Y-74834035D01*
X165971401Y-74698495D01*
X166138495Y-74531401D01*
X166274035Y-74337830D01*
X166373903Y-74123663D01*
X166435063Y-73895408D01*
X166455659Y-73660000D01*
X166435063Y-73424592D01*
X166373903Y-73196337D01*
X166274035Y-72982171D01*
X166138495Y-72788599D01*
X165971401Y-72621505D01*
X165777830Y-72485965D01*
X165563663Y-72386097D01*
X165502502Y-72369709D01*
X165335407Y-72324936D01*
X165172753Y-72310705D01*
X165107684Y-72285252D01*
X165066706Y-72228661D01*
X165062828Y-72158899D01*
X165097282Y-72098115D01*
X165124538Y-72078125D01*
X165278018Y-71995067D01*
X165474253Y-71842331D01*
X165642673Y-71659378D01*
X165778682Y-71451200D01*
X165878572Y-71223474D01*
X165939617Y-70982414D01*
X165960152Y-70734593D01*
X165939617Y-70486772D01*
X165878572Y-70245712D01*
X165778682Y-70017986D01*
X165642673Y-69809808D01*
X165474253Y-69626855D01*
X165362454Y-69539838D01*
X165278023Y-69474122D01*
X165278019Y-69474119D01*
X165278018Y-69474119D01*
X165059319Y-69355765D01*
X165059315Y-69355763D01*
X165059314Y-69355763D01*
X164824124Y-69275022D01*
X164578844Y-69234093D01*
X164330174Y-69234093D01*
X164084893Y-69275022D01*
X163849703Y-69355763D01*
X163630998Y-69474120D01*
X163581628Y-69512546D01*
X163488085Y-69585354D01*
X163423094Y-69610996D01*
X163411925Y-69611500D01*
X138350782Y-69611500D01*
X138283743Y-69591815D01*
X138237988Y-69539011D01*
X138228044Y-69469853D01*
X138257069Y-69406297D01*
X138263101Y-69399819D01*
X140332102Y-67330819D01*
X140393425Y-67297334D01*
X140419783Y-67294500D01*
X164126217Y-67294500D01*
X164193256Y-67314185D01*
G37*
%TD.AperFunction*%
%TA.AperFunction,Conductor*%
G36*
X150130000Y-82605000D02*
G01*
X150774518Y-82605000D01*
X150781132Y-82604645D01*
X150837371Y-82598599D01*
X150972089Y-82548352D01*
X151087188Y-82462188D01*
X151173352Y-82347089D01*
X151222422Y-82215528D01*
X151264294Y-82159595D01*
X151329758Y-82135178D01*
X151398031Y-82150030D01*
X151426285Y-82171181D01*
X151548599Y-82293495D01*
X151742170Y-82429035D01*
X151956337Y-82528903D01*
X152184592Y-82590063D01*
X152420000Y-82610659D01*
X152655408Y-82590063D01*
X152883663Y-82528903D01*
X153097830Y-82429035D01*
X153291401Y-82293495D01*
X153458495Y-82126401D01*
X153588426Y-81940839D01*
X153643002Y-81897216D01*
X153712500Y-81890022D01*
X153774855Y-81921545D01*
X153791571Y-81940837D01*
X153921505Y-82126401D01*
X154088599Y-82293495D01*
X154282170Y-82429035D01*
X154496337Y-82528903D01*
X154724592Y-82590063D01*
X154960000Y-82610659D01*
X155195408Y-82590063D01*
X155423663Y-82528903D01*
X155637830Y-82429035D01*
X155831401Y-82293495D01*
X155998495Y-82126401D01*
X156128426Y-81940839D01*
X156183002Y-81897216D01*
X156252500Y-81890022D01*
X156314855Y-81921545D01*
X156331571Y-81940837D01*
X156461505Y-82126401D01*
X156628599Y-82293495D01*
X156822170Y-82429035D01*
X157036337Y-82528903D01*
X157261450Y-82589221D01*
X157264592Y-82590063D01*
X157499999Y-82610659D01*
X157499999Y-82610658D01*
X157500000Y-82610659D01*
X157735408Y-82590063D01*
X157963663Y-82528903D01*
X158177830Y-82429035D01*
X158371401Y-82293495D01*
X158538495Y-82126401D01*
X158668426Y-81940839D01*
X158723002Y-81897216D01*
X158792500Y-81890022D01*
X158854855Y-81921545D01*
X158871571Y-81940837D01*
X159001505Y-82126401D01*
X159168599Y-82293495D01*
X159362170Y-82429035D01*
X159576337Y-82528903D01*
X159804592Y-82590063D01*
X160040000Y-82610659D01*
X160275408Y-82590063D01*
X160503663Y-82528903D01*
X160717830Y-82429035D01*
X160911401Y-82293495D01*
X161078495Y-82126401D01*
X161208426Y-81940839D01*
X161263002Y-81897216D01*
X161332500Y-81890022D01*
X161394855Y-81921545D01*
X161411571Y-81940837D01*
X161541505Y-82126401D01*
X161708599Y-82293495D01*
X161902170Y-82429035D01*
X162116337Y-82528903D01*
X162341450Y-82589221D01*
X162344592Y-82590063D01*
X162579999Y-82610659D01*
X162579999Y-82610658D01*
X162580000Y-82610659D01*
X162815408Y-82590063D01*
X163043663Y-82528903D01*
X163257830Y-82429035D01*
X163451401Y-82293495D01*
X163618495Y-82126401D01*
X163748426Y-81940839D01*
X163803002Y-81897216D01*
X163872500Y-81890022D01*
X163934855Y-81921545D01*
X163951571Y-81940837D01*
X164081505Y-82126401D01*
X164248599Y-82293495D01*
X164442170Y-82429035D01*
X164514852Y-82462927D01*
X164567291Y-82509099D01*
X164586443Y-82576293D01*
X164566227Y-82643174D01*
X164513062Y-82688509D01*
X164502711Y-82692590D01*
X164495192Y-82695171D01*
X164276485Y-82813529D01*
X164080259Y-82966259D01*
X164018375Y-83033483D01*
X163958488Y-83069473D01*
X163927145Y-83073500D01*
X149055783Y-83073500D01*
X148988744Y-83053815D01*
X148968102Y-83037181D01*
X148698745Y-82767824D01*
X148665260Y-82706501D01*
X148670244Y-82636809D01*
X148712116Y-82580876D01*
X148777580Y-82556459D01*
X148829760Y-82563961D01*
X148922628Y-82598599D01*
X148978867Y-82604645D01*
X148985482Y-82605000D01*
X149630000Y-82605000D01*
X149630000Y-81690501D01*
X149737685Y-81739680D01*
X149844237Y-81755000D01*
X149915763Y-81755000D01*
X150022315Y-81739680D01*
X150130000Y-81690501D01*
X150130000Y-82605000D01*
G37*
%TD.AperFunction*%
%TA.AperFunction,Conductor*%
G36*
X195522539Y-58440185D02*
G01*
X195568294Y-58492989D01*
X195579500Y-58544500D01*
X195579500Y-119255500D01*
X195559815Y-119322539D01*
X195507011Y-119368294D01*
X195455500Y-119379500D01*
X104264500Y-119379500D01*
X104197461Y-119359815D01*
X104151706Y-119307011D01*
X104140500Y-119255500D01*
X104140500Y-115194578D01*
X107869500Y-115194578D01*
X107869501Y-115197872D01*
X107875909Y-115257483D01*
X107926204Y-115392331D01*
X108012454Y-115507546D01*
X108127669Y-115593796D01*
X108262517Y-115644091D01*
X108322127Y-115650500D01*
X110117872Y-115650499D01*
X110177483Y-115644091D01*
X110312331Y-115593796D01*
X110427546Y-115507546D01*
X110513796Y-115392331D01*
X110564091Y-115257483D01*
X110570500Y-115197873D01*
X110570499Y-113402128D01*
X110564091Y-113342517D01*
X110513796Y-113207669D01*
X110427546Y-113092454D01*
X110312331Y-113006204D01*
X110180399Y-112956996D01*
X110124467Y-112915125D01*
X110100050Y-112849661D01*
X110114902Y-112781388D01*
X110136053Y-112753133D01*
X110258109Y-112631077D01*
X110393600Y-112437576D01*
X110493430Y-112223492D01*
X110550636Y-112010000D01*
X109653686Y-112010000D01*
X109679493Y-111969844D01*
X109720000Y-111831889D01*
X109720000Y-111688111D01*
X109679493Y-111550156D01*
X109653686Y-111510000D01*
X110550636Y-111510000D01*
X110550635Y-111509999D01*
X110493430Y-111296507D01*
X110393599Y-111082421D01*
X110258109Y-110888921D01*
X110091081Y-110721893D01*
X109897576Y-110586399D01*
X109683492Y-110486569D01*
X109469999Y-110429364D01*
X109469999Y-111324498D01*
X109362315Y-111275320D01*
X109255763Y-111260000D01*
X109184237Y-111260000D01*
X109077685Y-111275320D01*
X108970000Y-111324498D01*
X108970000Y-110429364D01*
X108969999Y-110429364D01*
X108756507Y-110486569D01*
X108542421Y-110586400D01*
X108348921Y-110721890D01*
X108181890Y-110888921D01*
X108046400Y-111082421D01*
X107946569Y-111296507D01*
X107889364Y-111509999D01*
X107889364Y-111510000D01*
X108786314Y-111510000D01*
X108760507Y-111550156D01*
X108720000Y-111688111D01*
X108720000Y-111831889D01*
X108760507Y-111969844D01*
X108786314Y-112010000D01*
X107889364Y-112010000D01*
X107946569Y-112223492D01*
X108046399Y-112437576D01*
X108181893Y-112631081D01*
X108303946Y-112753134D01*
X108337431Y-112814457D01*
X108332447Y-112884149D01*
X108290575Y-112940082D01*
X108259599Y-112956997D01*
X108127669Y-113006204D01*
X108012454Y-113092454D01*
X107926204Y-113207668D01*
X107875910Y-113342515D01*
X107875909Y-113342517D01*
X107869500Y-113402127D01*
X107869500Y-113405448D01*
X107869500Y-113405449D01*
X107869500Y-115194560D01*
X107869500Y-115194578D01*
X104140500Y-115194578D01*
X104140500Y-106680000D01*
X115484340Y-106680000D01*
X115504936Y-106915407D01*
X115549709Y-107082501D01*
X115566097Y-107143663D01*
X115665965Y-107357830D01*
X115801505Y-107551401D01*
X115968599Y-107718495D01*
X116154160Y-107848426D01*
X116197783Y-107903002D01*
X116204976Y-107972501D01*
X116173454Y-108034855D01*
X116154158Y-108051575D01*
X115970035Y-108180500D01*
X115968595Y-108181508D01*
X115801505Y-108348598D01*
X115665965Y-108542170D01*
X115566097Y-108756336D01*
X115504936Y-108984592D01*
X115484341Y-109219999D01*
X115484341Y-109220000D01*
X115486142Y-109240595D01*
X115504936Y-109455407D01*
X115549709Y-109622502D01*
X115566097Y-109683663D01*
X115665965Y-109897830D01*
X115801505Y-110091401D01*
X115968599Y-110258495D01*
X116154596Y-110388732D01*
X116198219Y-110443307D01*
X116205412Y-110512806D01*
X116173890Y-110575160D01*
X116154595Y-110591880D01*
X115968919Y-110721892D01*
X115801890Y-110888921D01*
X115666400Y-111082421D01*
X115566569Y-111296507D01*
X115509364Y-111509999D01*
X115509364Y-111510000D01*
X116406314Y-111510000D01*
X116380507Y-111550156D01*
X116340000Y-111688111D01*
X116340000Y-111831889D01*
X116380507Y-111969844D01*
X116406314Y-112010000D01*
X115509364Y-112010000D01*
X115566569Y-112223492D01*
X115666399Y-112437576D01*
X115801893Y-112631081D01*
X115923946Y-112753134D01*
X115957431Y-112814457D01*
X115952447Y-112884149D01*
X115910575Y-112940082D01*
X115879599Y-112956997D01*
X115747669Y-113006204D01*
X115632454Y-113092454D01*
X115546204Y-113207668D01*
X115495910Y-113342515D01*
X115495909Y-113342517D01*
X115489500Y-113402127D01*
X115489500Y-113405448D01*
X115489500Y-113405449D01*
X115489500Y-115194560D01*
X115489500Y-115194578D01*
X115489501Y-115197872D01*
X115495909Y-115257483D01*
X115546204Y-115392331D01*
X115632454Y-115507546D01*
X115747669Y-115593796D01*
X115882517Y-115644091D01*
X115942127Y-115650500D01*
X117737872Y-115650499D01*
X117797483Y-115644091D01*
X117932331Y-115593796D01*
X118047546Y-115507546D01*
X118133796Y-115392331D01*
X118184091Y-115257483D01*
X118190500Y-115197873D01*
X118190499Y-113402128D01*
X118184091Y-113342517D01*
X118133796Y-113207669D01*
X118047546Y-113092454D01*
X117932331Y-113006204D01*
X117800399Y-112956996D01*
X117744467Y-112915125D01*
X117720050Y-112849661D01*
X117734902Y-112781388D01*
X117756053Y-112753133D01*
X117878109Y-112631077D01*
X118013600Y-112437576D01*
X118113430Y-112223492D01*
X118170636Y-112010000D01*
X117273686Y-112010000D01*
X117299493Y-111969844D01*
X117340000Y-111831889D01*
X117340000Y-111688111D01*
X117299493Y-111550156D01*
X117273686Y-111510000D01*
X118170636Y-111510000D01*
X118170635Y-111509999D01*
X118113430Y-111296507D01*
X118013599Y-111082421D01*
X117878109Y-110888921D01*
X117711081Y-110721893D01*
X117525404Y-110591880D01*
X117481780Y-110537303D01*
X117474587Y-110467804D01*
X117506109Y-110405450D01*
X117525399Y-110388734D01*
X117711401Y-110258495D01*
X117878495Y-110091401D01*
X118014035Y-109897830D01*
X118113903Y-109683663D01*
X118175063Y-109455408D01*
X118195659Y-109220000D01*
X118193340Y-109193500D01*
X118175063Y-108984592D01*
X118171737Y-108972179D01*
X118113903Y-108756337D01*
X118014035Y-108542171D01*
X117878495Y-108348599D01*
X117711401Y-108181505D01*
X117525839Y-108051573D01*
X117482216Y-107996998D01*
X117475022Y-107927500D01*
X117506545Y-107865145D01*
X117525837Y-107848428D01*
X117711401Y-107718495D01*
X117878495Y-107551401D01*
X118014035Y-107357830D01*
X118113903Y-107143663D01*
X118175063Y-106915408D01*
X118195659Y-106680000D01*
X118175063Y-106444592D01*
X118113903Y-106216337D01*
X118014035Y-106002171D01*
X117878495Y-105808599D01*
X117711401Y-105641505D01*
X117525839Y-105511573D01*
X117482215Y-105456997D01*
X117475023Y-105387498D01*
X117506545Y-105325144D01*
X117525831Y-105308432D01*
X117711401Y-105178495D01*
X117878495Y-105011401D01*
X118014035Y-104817830D01*
X118113903Y-104603663D01*
X118175063Y-104375408D01*
X118195659Y-104140000D01*
X118175063Y-103904592D01*
X118113903Y-103676337D01*
X118014035Y-103462171D01*
X117878495Y-103268599D01*
X117711401Y-103101505D01*
X117525839Y-102971573D01*
X117482216Y-102916998D01*
X117475022Y-102847500D01*
X117506545Y-102785145D01*
X117525837Y-102768428D01*
X117711401Y-102638495D01*
X117878495Y-102471401D01*
X118014035Y-102277830D01*
X118113903Y-102063663D01*
X118175063Y-101835408D01*
X118195659Y-101600000D01*
X118193986Y-101580883D01*
X118175063Y-101364592D01*
X118133340Y-101208878D01*
X118113903Y-101136337D01*
X118014035Y-100922171D01*
X117878495Y-100728599D01*
X117711401Y-100561505D01*
X117525839Y-100431573D01*
X117482215Y-100376997D01*
X117475023Y-100307498D01*
X117506545Y-100245144D01*
X117525831Y-100228432D01*
X117711401Y-100098495D01*
X117878495Y-99931401D01*
X118014035Y-99737830D01*
X118113903Y-99523663D01*
X118175063Y-99295408D01*
X118195659Y-99060000D01*
X118175063Y-98824592D01*
X118113903Y-98596337D01*
X118014035Y-98382171D01*
X117878495Y-98188599D01*
X117711401Y-98021505D01*
X117525839Y-97891573D01*
X117482216Y-97836998D01*
X117475022Y-97767500D01*
X117506545Y-97705145D01*
X117525837Y-97688428D01*
X117711401Y-97558495D01*
X117878495Y-97391401D01*
X118014035Y-97197830D01*
X118113903Y-96983663D01*
X118170082Y-96773999D01*
X119906356Y-96773999D01*
X119926891Y-97021816D01*
X119926891Y-97021819D01*
X119926892Y-97021821D01*
X119987937Y-97262881D01*
X120021107Y-97338500D01*
X120087825Y-97490604D01*
X120087827Y-97490607D01*
X120223836Y-97698785D01*
X120392256Y-97881738D01*
X120392259Y-97881740D01*
X120588485Y-98034470D01*
X120588487Y-98034471D01*
X120588491Y-98034474D01*
X120807190Y-98152828D01*
X121042386Y-98233571D01*
X121287665Y-98274500D01*
X121446217Y-98274500D01*
X121513256Y-98294185D01*
X121533898Y-98310819D01*
X124185181Y-100962102D01*
X124218666Y-101023425D01*
X124221500Y-101049783D01*
X124221500Y-111491721D01*
X124221460Y-111494863D01*
X124219242Y-111582362D01*
X124229648Y-111640420D01*
X124230957Y-111649749D01*
X124236926Y-111708438D01*
X124246033Y-111737467D01*
X124249772Y-111752702D01*
X124255141Y-111782652D01*
X124277020Y-111837425D01*
X124280180Y-111846300D01*
X124297841Y-111902588D01*
X124312607Y-111929191D01*
X124319337Y-111943364D01*
X124330622Y-111971617D01*
X124363080Y-112020867D01*
X124367961Y-112028923D01*
X124396590Y-112080501D01*
X124416404Y-112103581D01*
X124425856Y-112116116D01*
X124442599Y-112141520D01*
X124484300Y-112183221D01*
X124490705Y-112190132D01*
X124529130Y-112234891D01*
X124529131Y-112234892D01*
X124529134Y-112234895D01*
X124553198Y-112253522D01*
X124564968Y-112263889D01*
X130092450Y-117791371D01*
X130094643Y-117793620D01*
X130154941Y-117857053D01*
X130180583Y-117874900D01*
X130203352Y-117890748D01*
X130210876Y-117896421D01*
X130256594Y-117933699D01*
X130283555Y-117947782D01*
X130296980Y-117955915D01*
X130321951Y-117973295D01*
X130376163Y-117996559D01*
X130384673Y-118000601D01*
X130436951Y-118027909D01*
X130466200Y-118036277D01*
X130480970Y-118041535D01*
X130508942Y-118053540D01*
X130508945Y-118053540D01*
X130508946Y-118053541D01*
X130566726Y-118065414D01*
X130575869Y-118067657D01*
X130632582Y-118083886D01*
X130662920Y-118086196D01*
X130678448Y-118088373D01*
X130708259Y-118094500D01*
X130767244Y-118094500D01*
X130776659Y-118094858D01*
X130780806Y-118095173D01*
X130835476Y-118099337D01*
X130862278Y-118095923D01*
X130865652Y-118095494D01*
X130881317Y-118094500D01*
X163307721Y-118094500D01*
X163310862Y-118094539D01*
X163398363Y-118096757D01*
X163456432Y-118086348D01*
X163465736Y-118085043D01*
X163524438Y-118079074D01*
X163553467Y-118069965D01*
X163568700Y-118066226D01*
X163598653Y-118060858D01*
X163653426Y-118038978D01*
X163662301Y-118035819D01*
X163679675Y-118030367D01*
X163718588Y-118018159D01*
X163745194Y-118003390D01*
X163759362Y-117996662D01*
X163787617Y-117985377D01*
X163836879Y-117952909D01*
X163844910Y-117948043D01*
X163896502Y-117919409D01*
X163919587Y-117899589D01*
X163932114Y-117890144D01*
X163957519Y-117873402D01*
X163999251Y-117831668D01*
X164006123Y-117825300D01*
X164050895Y-117786866D01*
X164069524Y-117762798D01*
X164079883Y-117751036D01*
X173614101Y-108216819D01*
X173675424Y-108183334D01*
X173701782Y-108180500D01*
X173860335Y-108180500D01*
X174105614Y-108139571D01*
X174340810Y-108058828D01*
X174559509Y-107940474D01*
X174755744Y-107787738D01*
X174924164Y-107604785D01*
X175060173Y-107396607D01*
X175160063Y-107168881D01*
X175221108Y-106927821D01*
X175241643Y-106680000D01*
X175221108Y-106432179D01*
X175160063Y-106191119D01*
X175060903Y-105965058D01*
X175060174Y-105963395D01*
X175060173Y-105963393D01*
X174924164Y-105755215D01*
X174755744Y-105572262D01*
X174739437Y-105559570D01*
X174672992Y-105507853D01*
X174632179Y-105451143D01*
X174628504Y-105381370D01*
X174663136Y-105320687D01*
X174672992Y-105312147D01*
X174722678Y-105273474D01*
X174755744Y-105247738D01*
X174924164Y-105064785D01*
X175060173Y-104856607D01*
X175160063Y-104628881D01*
X175221108Y-104387821D01*
X175241643Y-104140000D01*
X176444341Y-104140000D01*
X176446014Y-104159117D01*
X176464936Y-104375407D01*
X176471574Y-104400179D01*
X176526097Y-104603663D01*
X176625965Y-104817830D01*
X176761505Y-105011401D01*
X176928599Y-105178495D01*
X177122170Y-105314035D01*
X177336337Y-105413903D01*
X177564592Y-105475063D01*
X177800000Y-105495659D01*
X178035408Y-105475063D01*
X178263663Y-105413903D01*
X178477830Y-105314035D01*
X178671401Y-105178495D01*
X178838495Y-105011401D01*
X178968427Y-104825838D01*
X179023001Y-104782216D01*
X179092499Y-104775022D01*
X179154854Y-104806545D01*
X179171572Y-104825838D01*
X179301505Y-105011401D01*
X179468599Y-105178495D01*
X179662170Y-105314035D01*
X179876337Y-105413903D01*
X180104592Y-105475063D01*
X180340000Y-105495659D01*
X180575408Y-105475063D01*
X180803663Y-105413903D01*
X181017830Y-105314035D01*
X181211401Y-105178495D01*
X181378495Y-105011401D01*
X181508426Y-104825839D01*
X181563002Y-104782216D01*
X181632500Y-104775022D01*
X181694855Y-104806545D01*
X181711571Y-104825837D01*
X181841505Y-105011401D01*
X182008599Y-105178495D01*
X182202170Y-105314035D01*
X182416337Y-105413903D01*
X182635288Y-105472570D01*
X182644592Y-105475063D01*
X182879999Y-105495659D01*
X182879999Y-105495658D01*
X182880000Y-105495659D01*
X183115408Y-105475063D01*
X183343663Y-105413903D01*
X183557830Y-105314035D01*
X183751401Y-105178495D01*
X183918495Y-105011401D01*
X184048426Y-104825839D01*
X184103002Y-104782216D01*
X184172500Y-104775022D01*
X184234855Y-104806545D01*
X184251571Y-104825837D01*
X184381505Y-105011401D01*
X184548599Y-105178495D01*
X184742170Y-105314035D01*
X184956337Y-105413903D01*
X185184592Y-105475063D01*
X185420000Y-105495659D01*
X185655408Y-105475063D01*
X185883663Y-105413903D01*
X186097830Y-105314035D01*
X186291401Y-105178495D01*
X186458495Y-105011401D01*
X186588426Y-104825839D01*
X186643002Y-104782216D01*
X186712500Y-104775022D01*
X186774855Y-104806545D01*
X186791571Y-104825837D01*
X186921505Y-105011401D01*
X187088599Y-105178495D01*
X187282170Y-105314035D01*
X187496337Y-105413903D01*
X187715288Y-105472570D01*
X187724592Y-105475063D01*
X187959999Y-105495659D01*
X187959999Y-105495658D01*
X187960000Y-105495659D01*
X188195408Y-105475063D01*
X188423663Y-105413903D01*
X188637830Y-105314035D01*
X188831401Y-105178495D01*
X188953717Y-105056178D01*
X189015036Y-105022696D01*
X189084728Y-105027680D01*
X189140662Y-105069551D01*
X189157577Y-105100528D01*
X189206647Y-105232088D01*
X189292811Y-105347188D01*
X189407910Y-105433352D01*
X189542628Y-105483599D01*
X189598867Y-105489645D01*
X189605482Y-105490000D01*
X190250000Y-105490000D01*
X190250000Y-104575501D01*
X190357685Y-104624680D01*
X190464237Y-104640000D01*
X190535763Y-104640000D01*
X190642315Y-104624680D01*
X190750000Y-104575501D01*
X190750000Y-105490000D01*
X191394518Y-105490000D01*
X191401132Y-105489645D01*
X191457371Y-105483599D01*
X191592089Y-105433352D01*
X191707188Y-105347188D01*
X191793352Y-105232089D01*
X191843599Y-105097371D01*
X191849645Y-105041132D01*
X191850000Y-105034518D01*
X191850000Y-104390000D01*
X190933686Y-104390000D01*
X190959493Y-104349844D01*
X191000000Y-104211889D01*
X191000000Y-104068111D01*
X190959493Y-103930156D01*
X190933686Y-103890000D01*
X191850000Y-103890000D01*
X191850000Y-103245481D01*
X191849645Y-103238867D01*
X191843599Y-103182628D01*
X191793352Y-103047910D01*
X191707188Y-102932811D01*
X191592089Y-102846647D01*
X191457371Y-102796400D01*
X191401132Y-102790354D01*
X191394518Y-102790000D01*
X190750000Y-102790000D01*
X190750000Y-103704498D01*
X190642315Y-103655320D01*
X190535763Y-103640000D01*
X190464237Y-103640000D01*
X190357685Y-103655320D01*
X190250000Y-103704498D01*
X190250000Y-102790000D01*
X189605482Y-102790000D01*
X189598867Y-102790354D01*
X189542628Y-102796400D01*
X189407910Y-102846647D01*
X189292811Y-102932811D01*
X189206646Y-103047913D01*
X189157576Y-103179472D01*
X189115705Y-103235405D01*
X189050240Y-103259821D01*
X188981967Y-103244969D01*
X188953714Y-103223818D01*
X188831404Y-103101508D01*
X188831404Y-103101507D01*
X188831401Y-103101505D01*
X188637830Y-102965965D01*
X188423663Y-102866097D01*
X188351070Y-102846646D01*
X188195407Y-102804936D01*
X187959999Y-102784340D01*
X187724592Y-102804936D01*
X187496336Y-102866097D01*
X187282170Y-102965965D01*
X187088598Y-103101505D01*
X186921505Y-103268598D01*
X186791575Y-103454159D01*
X186736998Y-103497784D01*
X186667500Y-103504978D01*
X186605145Y-103473455D01*
X186588425Y-103454159D01*
X186458494Y-103268598D01*
X186291404Y-103101508D01*
X186291404Y-103101507D01*
X186291401Y-103101505D01*
X186097830Y-102965965D01*
X185883663Y-102866097D01*
X185811070Y-102846646D01*
X185655407Y-102804936D01*
X185420000Y-102784340D01*
X185184592Y-102804936D01*
X184956336Y-102866097D01*
X184742170Y-102965965D01*
X184548598Y-103101505D01*
X184381505Y-103268598D01*
X184251575Y-103454159D01*
X184196998Y-103497784D01*
X184127500Y-103504978D01*
X184065145Y-103473455D01*
X184048425Y-103454159D01*
X183918494Y-103268598D01*
X183751404Y-103101508D01*
X183751403Y-103101507D01*
X183751401Y-103101505D01*
X183557830Y-102965965D01*
X183343663Y-102866097D01*
X183271070Y-102846646D01*
X183115407Y-102804936D01*
X182880000Y-102784340D01*
X182644592Y-102804936D01*
X182416336Y-102866097D01*
X182202170Y-102965965D01*
X182008598Y-103101505D01*
X181841505Y-103268598D01*
X181711575Y-103454159D01*
X181656998Y-103497784D01*
X181587500Y-103504978D01*
X181525145Y-103473455D01*
X181508425Y-103454159D01*
X181378494Y-103268598D01*
X181211404Y-103101508D01*
X181211404Y-103101507D01*
X181211401Y-103101505D01*
X181017830Y-102965965D01*
X180803663Y-102866097D01*
X180731070Y-102846646D01*
X180575407Y-102804936D01*
X180340000Y-102784340D01*
X180104592Y-102804936D01*
X179876336Y-102866097D01*
X179662170Y-102965965D01*
X179468598Y-103101505D01*
X179301508Y-103268595D01*
X179171574Y-103454160D01*
X179116997Y-103497785D01*
X179047498Y-103504977D01*
X178985144Y-103473455D01*
X178968429Y-103454164D01*
X178838495Y-103268599D01*
X178671401Y-103101505D01*
X178477830Y-102965965D01*
X178263663Y-102866097D01*
X178191070Y-102846646D01*
X178035407Y-102804936D01*
X177799999Y-102784340D01*
X177564592Y-102804936D01*
X177336336Y-102866097D01*
X177122170Y-102965965D01*
X176928598Y-103101505D01*
X176761505Y-103268598D01*
X176625965Y-103462170D01*
X176526097Y-103676336D01*
X176464936Y-103904592D01*
X176444341Y-104139999D01*
X176444341Y-104140000D01*
X175241643Y-104140000D01*
X175221108Y-103892179D01*
X175160063Y-103651119D01*
X175060173Y-103423393D01*
X174924164Y-103215215D01*
X174755744Y-103032262D01*
X174726169Y-103009243D01*
X174559514Y-102879529D01*
X174559510Y-102879526D01*
X174559509Y-102879526D01*
X174340810Y-102761172D01*
X174340806Y-102761170D01*
X174340805Y-102761170D01*
X174105615Y-102680429D01*
X173860335Y-102639500D01*
X173611665Y-102639500D01*
X173366384Y-102680429D01*
X173131194Y-102761170D01*
X173131190Y-102761171D01*
X173131190Y-102761172D01*
X173016938Y-102823002D01*
X172912489Y-102879527D01*
X172716250Y-103032265D01*
X172709319Y-103039795D01*
X172649432Y-103075784D01*
X172579593Y-103073682D01*
X172530411Y-103043491D01*
X170581819Y-101094899D01*
X170548334Y-101033576D01*
X170545500Y-101007218D01*
X170545500Y-97620781D01*
X170565185Y-97553742D01*
X170581814Y-97533105D01*
X173098101Y-95016819D01*
X173159424Y-94983334D01*
X173185782Y-94980500D01*
X176572217Y-94980500D01*
X176639256Y-95000185D01*
X176659898Y-95016819D01*
X178678449Y-97035370D01*
X178680642Y-97037619D01*
X178740941Y-97101053D01*
X178789358Y-97134752D01*
X178796865Y-97140413D01*
X178842593Y-97177698D01*
X178869556Y-97191782D01*
X178882980Y-97199915D01*
X178907951Y-97217295D01*
X178962163Y-97240559D01*
X178970663Y-97244595D01*
X179005668Y-97262881D01*
X179022951Y-97271909D01*
X179052196Y-97280277D01*
X179066986Y-97285543D01*
X179074464Y-97288752D01*
X179094942Y-97297540D01*
X179152737Y-97309416D01*
X179161854Y-97311654D01*
X179218582Y-97327887D01*
X179248916Y-97330196D01*
X179264453Y-97332374D01*
X179294259Y-97338500D01*
X179353243Y-97338500D01*
X179362657Y-97338858D01*
X179421477Y-97343337D01*
X179451652Y-97339493D01*
X179467318Y-97338500D01*
X181707145Y-97338500D01*
X181774184Y-97358185D01*
X181798375Y-97378517D01*
X181860256Y-97445738D01*
X182056491Y-97598474D01*
X182193751Y-97672755D01*
X182243341Y-97721973D01*
X182258449Y-97790190D01*
X182234279Y-97855746D01*
X182205857Y-97883384D01*
X182008595Y-98021508D01*
X181841505Y-98188598D01*
X181711575Y-98374159D01*
X181656998Y-98417784D01*
X181587500Y-98424978D01*
X181525145Y-98393455D01*
X181508425Y-98374159D01*
X181438643Y-98274500D01*
X181378495Y-98188599D01*
X181211401Y-98021505D01*
X181017830Y-97885965D01*
X180803663Y-97786097D01*
X180731074Y-97766647D01*
X180575407Y-97724936D01*
X180340000Y-97704340D01*
X180104592Y-97724936D01*
X179876336Y-97786097D01*
X179662170Y-97885965D01*
X179468598Y-98021505D01*
X179301508Y-98188595D01*
X179171574Y-98374160D01*
X179116997Y-98417785D01*
X179047498Y-98424977D01*
X178985144Y-98393455D01*
X178968429Y-98374164D01*
X178838495Y-98188599D01*
X178671401Y-98021505D01*
X178477830Y-97885965D01*
X178263663Y-97786097D01*
X178191074Y-97766647D01*
X178035407Y-97724936D01*
X177800000Y-97704340D01*
X177564592Y-97724936D01*
X177336336Y-97786097D01*
X177122170Y-97885965D01*
X176928598Y-98021505D01*
X176761505Y-98188598D01*
X176631575Y-98374159D01*
X176576998Y-98417784D01*
X176507500Y-98424978D01*
X176445145Y-98393455D01*
X176428425Y-98374159D01*
X176358643Y-98274500D01*
X176298495Y-98188599D01*
X176131401Y-98021505D01*
X175937830Y-97885965D01*
X175723663Y-97786097D01*
X175651074Y-97766647D01*
X175495407Y-97724936D01*
X175259999Y-97704340D01*
X175024592Y-97724936D01*
X174796336Y-97786097D01*
X174582170Y-97885965D01*
X174388598Y-98021505D01*
X174221505Y-98188598D01*
X174091575Y-98374159D01*
X174036998Y-98417784D01*
X173967500Y-98424978D01*
X173905145Y-98393455D01*
X173888425Y-98374159D01*
X173818643Y-98274500D01*
X173758495Y-98188599D01*
X173591401Y-98021505D01*
X173397830Y-97885965D01*
X173183663Y-97786097D01*
X173111074Y-97766647D01*
X172955407Y-97724936D01*
X172720000Y-97704340D01*
X172484592Y-97724936D01*
X172256336Y-97786097D01*
X172042170Y-97885965D01*
X171848598Y-98021505D01*
X171681505Y-98188598D01*
X171545965Y-98382170D01*
X171446097Y-98596336D01*
X171384936Y-98824592D01*
X171364340Y-99060000D01*
X171384936Y-99295407D01*
X171410496Y-99390798D01*
X171446097Y-99523663D01*
X171545965Y-99737830D01*
X171681505Y-99931401D01*
X171848599Y-100098495D01*
X172042170Y-100234035D01*
X172256337Y-100333903D01*
X172484592Y-100395063D01*
X172720000Y-100415659D01*
X172955408Y-100395063D01*
X173183663Y-100333903D01*
X173397830Y-100234035D01*
X173591401Y-100098495D01*
X173758495Y-99931401D01*
X173888426Y-99745839D01*
X173943002Y-99702216D01*
X174012500Y-99695022D01*
X174074855Y-99726545D01*
X174091571Y-99745837D01*
X174221505Y-99931401D01*
X174388599Y-100098495D01*
X174582170Y-100234035D01*
X174796337Y-100333903D01*
X175024591Y-100395063D01*
X175024592Y-100395063D01*
X175259999Y-100415659D01*
X175259999Y-100415658D01*
X175260000Y-100415659D01*
X175495408Y-100395063D01*
X175723663Y-100333903D01*
X175937830Y-100234035D01*
X176131401Y-100098495D01*
X176298495Y-99931401D01*
X176428426Y-99745839D01*
X176483002Y-99702217D01*
X176552501Y-99695024D01*
X176614855Y-99726546D01*
X176631571Y-99745837D01*
X176761505Y-99931401D01*
X176928599Y-100098495D01*
X177122170Y-100234035D01*
X177336337Y-100333903D01*
X177564592Y-100395063D01*
X177800000Y-100415659D01*
X178035408Y-100395063D01*
X178263663Y-100333903D01*
X178477830Y-100234035D01*
X178671401Y-100098495D01*
X178838495Y-99931401D01*
X178968427Y-99745838D01*
X179023001Y-99702216D01*
X179092499Y-99695022D01*
X179154854Y-99726545D01*
X179171572Y-99745838D01*
X179301505Y-99931401D01*
X179468599Y-100098495D01*
X179662170Y-100234035D01*
X179876337Y-100333903D01*
X180104592Y-100395063D01*
X180340000Y-100415659D01*
X180575408Y-100395063D01*
X180803663Y-100333903D01*
X181017830Y-100234035D01*
X181211401Y-100098495D01*
X181378495Y-99931401D01*
X181508426Y-99745839D01*
X181563002Y-99702216D01*
X181632500Y-99695022D01*
X181694855Y-99726545D01*
X181711571Y-99745837D01*
X181841505Y-99931401D01*
X182008599Y-100098495D01*
X182202170Y-100234035D01*
X182416337Y-100333903D01*
X182644591Y-100395063D01*
X182644592Y-100395063D01*
X182879999Y-100415659D01*
X182879999Y-100415658D01*
X182880000Y-100415659D01*
X183115408Y-100395063D01*
X183343663Y-100333903D01*
X183557830Y-100234035D01*
X183751401Y-100098495D01*
X183873717Y-99976178D01*
X183935036Y-99942696D01*
X184004728Y-99947680D01*
X184060662Y-99989551D01*
X184077577Y-100020528D01*
X184126647Y-100152088D01*
X184212811Y-100267188D01*
X184327910Y-100353352D01*
X184462628Y-100403599D01*
X184518867Y-100409645D01*
X184525482Y-100410000D01*
X185170000Y-100410000D01*
X185170000Y-99495501D01*
X185277685Y-99544680D01*
X185384237Y-99560000D01*
X185455763Y-99560000D01*
X185562315Y-99544680D01*
X185670000Y-99495501D01*
X185670000Y-100410000D01*
X186314518Y-100410000D01*
X186321132Y-100409645D01*
X186377371Y-100403599D01*
X186512089Y-100353352D01*
X186627188Y-100267188D01*
X186713352Y-100152089D01*
X186763599Y-100017371D01*
X186769645Y-99961132D01*
X186770000Y-99954518D01*
X186770000Y-99310000D01*
X185853686Y-99310000D01*
X185879493Y-99269844D01*
X185920000Y-99131889D01*
X185920000Y-98988111D01*
X185879493Y-98850156D01*
X185853686Y-98810000D01*
X186770000Y-98810000D01*
X186770000Y-98165481D01*
X186769645Y-98158867D01*
X186763599Y-98102628D01*
X186713352Y-97967910D01*
X186627188Y-97852811D01*
X186512089Y-97766647D01*
X186377371Y-97716400D01*
X186321132Y-97710354D01*
X186314518Y-97710000D01*
X185670000Y-97710000D01*
X185670000Y-98624498D01*
X185562315Y-98575320D01*
X185455763Y-98560000D01*
X185384237Y-98560000D01*
X185277685Y-98575320D01*
X185170000Y-98624498D01*
X185170000Y-97710000D01*
X184525482Y-97710000D01*
X184518867Y-97710354D01*
X184462628Y-97716400D01*
X184327910Y-97766647D01*
X184212811Y-97852811D01*
X184126646Y-97967913D01*
X184077576Y-98099472D01*
X184035705Y-98155405D01*
X183970240Y-98179821D01*
X183901967Y-98164969D01*
X183873714Y-98143818D01*
X183751404Y-98021508D01*
X183751404Y-98021507D01*
X183751401Y-98021505D01*
X183557830Y-97885965D01*
X183557827Y-97885963D01*
X183554143Y-97883384D01*
X183510519Y-97828807D01*
X183503326Y-97759308D01*
X183534848Y-97696954D01*
X183566246Y-97672756D01*
X183703509Y-97598474D01*
X183899744Y-97445738D01*
X184068164Y-97262785D01*
X184204173Y-97054607D01*
X184304063Y-96826881D01*
X184365108Y-96585821D01*
X184385643Y-96338000D01*
X184365108Y-96090179D01*
X184304063Y-95849119D01*
X184204173Y-95621393D01*
X184068164Y-95413215D01*
X183899744Y-95230262D01*
X183822506Y-95170145D01*
X183703514Y-95077529D01*
X183703510Y-95077526D01*
X183703509Y-95077526D01*
X183484810Y-94959172D01*
X183484806Y-94959170D01*
X183484805Y-94959170D01*
X183249615Y-94878429D01*
X183004335Y-94837500D01*
X182755665Y-94837500D01*
X182510384Y-94878429D01*
X182275194Y-94959170D01*
X182056485Y-95077529D01*
X181860259Y-95230259D01*
X181860256Y-95230261D01*
X181860256Y-95230262D01*
X181820453Y-95273500D01*
X181798375Y-95297483D01*
X181738488Y-95333473D01*
X181707145Y-95337500D01*
X179861782Y-95337500D01*
X179794743Y-95317815D01*
X179774101Y-95301181D01*
X177755567Y-93282647D01*
X177753412Y-93280438D01*
X177693059Y-93216947D01*
X177644640Y-93183246D01*
X177637118Y-93177575D01*
X177591405Y-93140300D01*
X177564440Y-93126215D01*
X177551019Y-93118084D01*
X177526049Y-93100705D01*
X177526048Y-93100704D01*
X177526046Y-93100703D01*
X177471845Y-93077443D01*
X177463336Y-93073402D01*
X177411053Y-93046092D01*
X177405126Y-93044396D01*
X177381798Y-93037721D01*
X177367020Y-93032459D01*
X177339058Y-93020460D01*
X177281272Y-93008583D01*
X177272128Y-93006338D01*
X177215421Y-92990113D01*
X177185075Y-92987802D01*
X177169534Y-92985622D01*
X177139742Y-92979500D01*
X177139741Y-92979500D01*
X177080758Y-92979500D01*
X177071344Y-92979142D01*
X177062198Y-92978445D01*
X177012524Y-92974663D01*
X177012523Y-92974663D01*
X177012522Y-92974663D01*
X176982349Y-92978506D01*
X176966683Y-92979500D01*
X173844500Y-92979500D01*
X173777461Y-92959815D01*
X173731706Y-92907011D01*
X173720500Y-92855500D01*
X173720500Y-77992277D01*
X173720540Y-77989135D01*
X173722757Y-77901638D01*
X173712350Y-77843574D01*
X173711041Y-77834242D01*
X173705074Y-77775562D01*
X173695962Y-77746520D01*
X173692226Y-77731297D01*
X173686858Y-77701347D01*
X173664976Y-77646566D01*
X173661816Y-77637689D01*
X173644159Y-77581412D01*
X173629395Y-77554812D01*
X173622660Y-77540631D01*
X173621391Y-77537454D01*
X173611377Y-77512383D01*
X173578917Y-77463131D01*
X173574036Y-77455074D01*
X173569277Y-77446500D01*
X173545409Y-77403498D01*
X173525582Y-77380403D01*
X173516146Y-77367888D01*
X173499402Y-77342481D01*
X173499400Y-77342479D01*
X173499399Y-77342477D01*
X173457693Y-77300772D01*
X173451287Y-77293860D01*
X173412864Y-77249102D01*
X173388804Y-77230478D01*
X173377026Y-77220105D01*
X172819525Y-76662604D01*
X172227341Y-76070421D01*
X172193857Y-76009099D01*
X172191447Y-75972499D01*
X172193643Y-75945998D01*
X172180154Y-75783215D01*
X172173108Y-75698179D01*
X172112063Y-75457119D01*
X172012173Y-75229393D01*
X171876164Y-75021215D01*
X171707744Y-74838262D01*
X171636665Y-74782939D01*
X171511514Y-74685529D01*
X171511510Y-74685526D01*
X171511509Y-74685526D01*
X171292810Y-74567172D01*
X171292806Y-74567170D01*
X171292805Y-74567170D01*
X171057615Y-74486429D01*
X170812335Y-74445500D01*
X170563665Y-74445500D01*
X170318384Y-74486429D01*
X170083194Y-74567170D01*
X169864485Y-74685529D01*
X169668259Y-74838259D01*
X169668256Y-74838261D01*
X169668256Y-74838262D01*
X169543635Y-74973637D01*
X169499837Y-75021214D01*
X169363825Y-75229395D01*
X169291079Y-75395241D01*
X169263937Y-75457119D01*
X169250719Y-75509317D01*
X169202891Y-75698183D01*
X169182356Y-75946000D01*
X169202891Y-76193816D01*
X169202891Y-76193819D01*
X169202892Y-76193821D01*
X169263937Y-76434881D01*
X169294940Y-76505560D01*
X169363825Y-76662604D01*
X169363827Y-76662607D01*
X169499836Y-76870785D01*
X169668256Y-77053738D01*
X169702150Y-77080119D01*
X169864485Y-77206470D01*
X169864487Y-77206471D01*
X169864491Y-77206474D01*
X170083190Y-77324828D01*
X170318386Y-77405571D01*
X170563665Y-77446500D01*
X170722217Y-77446500D01*
X170789256Y-77466185D01*
X170809898Y-77482819D01*
X171683181Y-78356101D01*
X171716666Y-78417424D01*
X171719500Y-78443782D01*
X171719500Y-88034398D01*
X171699815Y-88101437D01*
X171647011Y-88147192D01*
X171577853Y-88157136D01*
X171536483Y-88143453D01*
X171356803Y-88046215D01*
X171325310Y-88029172D01*
X171325309Y-88029171D01*
X171325308Y-88029171D01*
X171090115Y-87948429D01*
X170844835Y-87907500D01*
X170596165Y-87907500D01*
X170350884Y-87948429D01*
X170115694Y-88029170D01*
X170115690Y-88029171D01*
X170115690Y-88029172D01*
X170084197Y-88046215D01*
X169896985Y-88147529D01*
X169700759Y-88300259D01*
X169532335Y-88483216D01*
X169396328Y-88691390D01*
X169396327Y-88691393D01*
X169330565Y-88841312D01*
X169285610Y-88894796D01*
X169218874Y-88915486D01*
X169217011Y-88915500D01*
X149055783Y-88915500D01*
X148988744Y-88895815D01*
X148968102Y-88879181D01*
X148291567Y-88202647D01*
X148289374Y-88200398D01*
X148229059Y-88136946D01*
X148180642Y-88103247D01*
X148173119Y-88097575D01*
X148127405Y-88060300D01*
X148100440Y-88046215D01*
X148087019Y-88038084D01*
X148062049Y-88020705D01*
X148062048Y-88020704D01*
X148062046Y-88020703D01*
X148007845Y-87997443D01*
X147999336Y-87993402D01*
X147947053Y-87966092D01*
X147941126Y-87964396D01*
X147917798Y-87957721D01*
X147903020Y-87952459D01*
X147875058Y-87940460D01*
X147817272Y-87928583D01*
X147808128Y-87926338D01*
X147751421Y-87910113D01*
X147721075Y-87907802D01*
X147705534Y-87905622D01*
X147675742Y-87899500D01*
X147675741Y-87899500D01*
X147616758Y-87899500D01*
X147607344Y-87899142D01*
X147598198Y-87898445D01*
X147548524Y-87894663D01*
X147548523Y-87894663D01*
X147548522Y-87894663D01*
X147518349Y-87898506D01*
X147502683Y-87899500D01*
X147222855Y-87899500D01*
X147155816Y-87879815D01*
X147131625Y-87859483D01*
X147129475Y-87857147D01*
X147069744Y-87792262D01*
X147053437Y-87779570D01*
X146986992Y-87727853D01*
X146946179Y-87671143D01*
X146942504Y-87601370D01*
X146977136Y-87540687D01*
X146986992Y-87532147D01*
X147011256Y-87513260D01*
X147069744Y-87467738D01*
X147131624Y-87400517D01*
X147191512Y-87364527D01*
X147222855Y-87360500D01*
X161133145Y-87360500D01*
X161200184Y-87380185D01*
X161224375Y-87400517D01*
X161286256Y-87467738D01*
X161286259Y-87467740D01*
X161482485Y-87620470D01*
X161482487Y-87620471D01*
X161482491Y-87620474D01*
X161701190Y-87738828D01*
X161936386Y-87819571D01*
X162181665Y-87860500D01*
X162430335Y-87860500D01*
X162675614Y-87819571D01*
X162910810Y-87738828D01*
X163129509Y-87620474D01*
X163325744Y-87467738D01*
X163494164Y-87284785D01*
X163630173Y-87076607D01*
X163730063Y-86848881D01*
X163791108Y-86607821D01*
X163811643Y-86360000D01*
X163791108Y-86112179D01*
X163730063Y-85871119D01*
X163630173Y-85643393D01*
X163494164Y-85435215D01*
X163353563Y-85282482D01*
X163322642Y-85219828D01*
X163330502Y-85150402D01*
X163374649Y-85096247D01*
X163441067Y-85074556D01*
X163444794Y-85074500D01*
X163927145Y-85074500D01*
X163994184Y-85094185D01*
X164018375Y-85114517D01*
X164080256Y-85181738D01*
X164092895Y-85191575D01*
X164276485Y-85334470D01*
X164276487Y-85334471D01*
X164276491Y-85334474D01*
X164495190Y-85452828D01*
X164730386Y-85533571D01*
X164975665Y-85574500D01*
X165224335Y-85574500D01*
X165469614Y-85533571D01*
X165704810Y-85452828D01*
X165923509Y-85334474D01*
X166119744Y-85181738D01*
X166288164Y-84998785D01*
X166424173Y-84790607D01*
X166524063Y-84562881D01*
X166585108Y-84321821D01*
X166605643Y-84074000D01*
X166585108Y-83826179D01*
X166524063Y-83585119D01*
X166424173Y-83357393D01*
X166288164Y-83149215D01*
X166119744Y-82966262D01*
X166097049Y-82948598D01*
X165923514Y-82813529D01*
X165923510Y-82813526D01*
X165923509Y-82813526D01*
X165704810Y-82695172D01*
X165704809Y-82695171D01*
X165700434Y-82692804D01*
X165650844Y-82643584D01*
X165635736Y-82575367D01*
X165659907Y-82509812D01*
X165707046Y-82471368D01*
X165797830Y-82429035D01*
X165991401Y-82293495D01*
X166158495Y-82126401D01*
X166294035Y-81932830D01*
X166393903Y-81718663D01*
X166455063Y-81490408D01*
X166475659Y-81255000D01*
X166455063Y-81019592D01*
X166393903Y-80791337D01*
X166294035Y-80577171D01*
X166158495Y-80383599D01*
X165991401Y-80216505D01*
X165797830Y-80080965D01*
X165583663Y-79981097D01*
X165511074Y-79961647D01*
X165355407Y-79919936D01*
X165120000Y-79899340D01*
X164884592Y-79919936D01*
X164656336Y-79981097D01*
X164442170Y-80080965D01*
X164248598Y-80216505D01*
X164081505Y-80383598D01*
X163951575Y-80569159D01*
X163896998Y-80612784D01*
X163827500Y-80619978D01*
X163765145Y-80588455D01*
X163748425Y-80569159D01*
X163732807Y-80546854D01*
X163618495Y-80383599D01*
X163451401Y-80216505D01*
X163257830Y-80080965D01*
X163043663Y-79981097D01*
X162971074Y-79961647D01*
X162815407Y-79919936D01*
X162580000Y-79899340D01*
X162344592Y-79919936D01*
X162116336Y-79981097D01*
X161902170Y-80080965D01*
X161708598Y-80216505D01*
X161541505Y-80383598D01*
X161411575Y-80569159D01*
X161356998Y-80612784D01*
X161287500Y-80619978D01*
X161225145Y-80588455D01*
X161208425Y-80569159D01*
X161192807Y-80546854D01*
X161078495Y-80383599D01*
X160911401Y-80216505D01*
X160717830Y-80080965D01*
X160503663Y-79981097D01*
X160431074Y-79961647D01*
X160275407Y-79919936D01*
X160039999Y-79899340D01*
X159803316Y-79920048D01*
X159734816Y-79906281D01*
X159684633Y-79857666D01*
X159668700Y-79789638D01*
X159692075Y-79723794D01*
X159694405Y-79720681D01*
X159697018Y-79717305D01*
X159707380Y-79705539D01*
X161160101Y-78252819D01*
X161221425Y-78219334D01*
X161247783Y-78216500D01*
X165339721Y-78216500D01*
X165342862Y-78216539D01*
X165430363Y-78218757D01*
X165488432Y-78208348D01*
X165497736Y-78207043D01*
X165556438Y-78201074D01*
X165585467Y-78191965D01*
X165600700Y-78188226D01*
X165630653Y-78182858D01*
X165685426Y-78160978D01*
X165694301Y-78157819D01*
X165711675Y-78152367D01*
X165750588Y-78140159D01*
X165777194Y-78125390D01*
X165791362Y-78118662D01*
X165819617Y-78107377D01*
X165868879Y-78074909D01*
X165876910Y-78070043D01*
X165928502Y-78041409D01*
X165951587Y-78021589D01*
X165964114Y-78012144D01*
X165989519Y-77995402D01*
X166031251Y-77953668D01*
X166038123Y-77947300D01*
X166082895Y-77908866D01*
X166101524Y-77884798D01*
X166111883Y-77873036D01*
X170312101Y-73672818D01*
X170373424Y-73639334D01*
X170399782Y-73636500D01*
X170558335Y-73636500D01*
X170803614Y-73595571D01*
X171038810Y-73514828D01*
X171257509Y-73396474D01*
X171453744Y-73243738D01*
X171622164Y-73060785D01*
X171758173Y-72852607D01*
X171858063Y-72624881D01*
X171919108Y-72383821D01*
X171939643Y-72136000D01*
X171919108Y-71888179D01*
X171858063Y-71647119D01*
X171758173Y-71419393D01*
X171622164Y-71211215D01*
X171453744Y-71028262D01*
X171394832Y-70982409D01*
X171257514Y-70875529D01*
X171257510Y-70875526D01*
X171257509Y-70875526D01*
X171038810Y-70757172D01*
X171038806Y-70757170D01*
X171038805Y-70757170D01*
X170803615Y-70676429D01*
X170558335Y-70635500D01*
X170399782Y-70635500D01*
X170332743Y-70615815D01*
X170312101Y-70599181D01*
X165309567Y-65596647D01*
X165307412Y-65594438D01*
X165247059Y-65530947D01*
X165198640Y-65497246D01*
X165191118Y-65491575D01*
X165145405Y-65454300D01*
X165118440Y-65440215D01*
X165105019Y-65432084D01*
X165080049Y-65414705D01*
X165080048Y-65414704D01*
X165080046Y-65414703D01*
X165025845Y-65391443D01*
X165017336Y-65387402D01*
X164965053Y-65360092D01*
X164959126Y-65358396D01*
X164935798Y-65351721D01*
X164921020Y-65346459D01*
X164893058Y-65334460D01*
X164835272Y-65322583D01*
X164826128Y-65320338D01*
X164769421Y-65304113D01*
X164739075Y-65301802D01*
X164723534Y-65299622D01*
X164693742Y-65293500D01*
X164693741Y-65293500D01*
X164634758Y-65293500D01*
X164625344Y-65293142D01*
X164616198Y-65292445D01*
X164566524Y-65288663D01*
X164566523Y-65288663D01*
X164566522Y-65288663D01*
X164536349Y-65292506D01*
X164520683Y-65293500D01*
X139968238Y-65293500D01*
X139965096Y-65293460D01*
X139877635Y-65291243D01*
X139819581Y-65301648D01*
X139810253Y-65302957D01*
X139751561Y-65308926D01*
X139722527Y-65318035D01*
X139707288Y-65321775D01*
X139677345Y-65327142D01*
X139622568Y-65349021D01*
X139613698Y-65352179D01*
X139557410Y-65369841D01*
X139530809Y-65384605D01*
X139516639Y-65391335D01*
X139488385Y-65402622D01*
X139439121Y-65435087D01*
X139431070Y-65439964D01*
X139379498Y-65468590D01*
X139356414Y-65488407D01*
X139343887Y-65497853D01*
X139318481Y-65514598D01*
X139276775Y-65556303D01*
X139269868Y-65562704D01*
X139225103Y-65601135D01*
X139206480Y-65625193D01*
X139196108Y-65636969D01*
X138746412Y-66086665D01*
X138685089Y-66120150D01*
X138615397Y-66115166D01*
X138559464Y-66073294D01*
X138535203Y-66009791D01*
X138515063Y-65779592D01*
X138515062Y-65779591D01*
X138453903Y-65551337D01*
X138354035Y-65337171D01*
X138218495Y-65143599D01*
X138051401Y-64976505D01*
X137857830Y-64840965D01*
X137643663Y-64741097D01*
X137582501Y-64724709D01*
X137415407Y-64679936D01*
X137179999Y-64659340D01*
X136944592Y-64679936D01*
X136716336Y-64741097D01*
X136502170Y-64840965D01*
X136308598Y-64976505D01*
X136141508Y-65143595D01*
X136011269Y-65329596D01*
X135956692Y-65373220D01*
X135887193Y-65380413D01*
X135824839Y-65348891D01*
X135808119Y-65329595D01*
X135678109Y-65143921D01*
X135511081Y-64976893D01*
X135317576Y-64841399D01*
X135103492Y-64741569D01*
X134890000Y-64684364D01*
X134890000Y-65579498D01*
X134782315Y-65530320D01*
X134675763Y-65515000D01*
X134604237Y-65515000D01*
X134497685Y-65530320D01*
X134390000Y-65579498D01*
X134390000Y-64684364D01*
X134389999Y-64684364D01*
X134176507Y-64741569D01*
X133962421Y-64841400D01*
X133768921Y-64976890D01*
X133601893Y-65143918D01*
X133471880Y-65329596D01*
X133417303Y-65373220D01*
X133347804Y-65380413D01*
X133285450Y-65348891D01*
X133268730Y-65329595D01*
X133138495Y-65143599D01*
X132971401Y-64976505D01*
X132777830Y-64840965D01*
X132563663Y-64741097D01*
X132502502Y-64724709D01*
X132335407Y-64679936D01*
X132100000Y-64659340D01*
X131864592Y-64679936D01*
X131636336Y-64741097D01*
X131422170Y-64840965D01*
X131228598Y-64976505D01*
X131061505Y-65143598D01*
X130931575Y-65329159D01*
X130876998Y-65372784D01*
X130807500Y-65379978D01*
X130745145Y-65348455D01*
X130728425Y-65329159D01*
X130598494Y-65143598D01*
X130431404Y-64976508D01*
X130431404Y-64976507D01*
X130431401Y-64976505D01*
X130237830Y-64840965D01*
X130023663Y-64741097D01*
X129962501Y-64724709D01*
X129795407Y-64679936D01*
X129560000Y-64659340D01*
X129324592Y-64679936D01*
X129096336Y-64741097D01*
X128882170Y-64840965D01*
X128688598Y-64976505D01*
X128521505Y-65143598D01*
X128391575Y-65329159D01*
X128336998Y-65372784D01*
X128267500Y-65379978D01*
X128205145Y-65348455D01*
X128188425Y-65329159D01*
X128058494Y-65143598D01*
X127891404Y-64976508D01*
X127891403Y-64976507D01*
X127891401Y-64976505D01*
X127697830Y-64840965D01*
X127483663Y-64741097D01*
X127422501Y-64724709D01*
X127255407Y-64679936D01*
X127019999Y-64659340D01*
X126784592Y-64679936D01*
X126556336Y-64741097D01*
X126342170Y-64840965D01*
X126148598Y-64976505D01*
X125981508Y-65143595D01*
X125851574Y-65329160D01*
X125796997Y-65372785D01*
X125727498Y-65379977D01*
X125665144Y-65348455D01*
X125648429Y-65329164D01*
X125518495Y-65143599D01*
X125351401Y-64976505D01*
X125157830Y-64840965D01*
X124943663Y-64741097D01*
X124882501Y-64724709D01*
X124715407Y-64679936D01*
X124480000Y-64659340D01*
X124244592Y-64679936D01*
X124016336Y-64741097D01*
X123802170Y-64840965D01*
X123608601Y-64976503D01*
X123486673Y-65098431D01*
X123425350Y-65131915D01*
X123355658Y-65126931D01*
X123299725Y-65085059D01*
X123282810Y-65054082D01*
X123254019Y-64976890D01*
X123233796Y-64922669D01*
X123147546Y-64807454D01*
X123032331Y-64721204D01*
X122897483Y-64670909D01*
X122837873Y-64664500D01*
X122834550Y-64664500D01*
X121045439Y-64664500D01*
X121045420Y-64664500D01*
X121042128Y-64664501D01*
X121038848Y-64664853D01*
X121038840Y-64664854D01*
X120982515Y-64670909D01*
X120847669Y-64721204D01*
X120732454Y-64807454D01*
X120646204Y-64922668D01*
X120625980Y-64976893D01*
X120595909Y-65057517D01*
X120589500Y-65117127D01*
X120589500Y-65120448D01*
X120589500Y-65120449D01*
X120589500Y-66909560D01*
X120589500Y-66909578D01*
X120589501Y-66912872D01*
X120589853Y-66916152D01*
X120589854Y-66916159D01*
X120595909Y-66972484D01*
X120621056Y-67039906D01*
X120646204Y-67107331D01*
X120732454Y-67222546D01*
X120847669Y-67308796D01*
X120982517Y-67359091D01*
X121042127Y-67365500D01*
X122837872Y-67365499D01*
X122897483Y-67359091D01*
X123032331Y-67308796D01*
X123147546Y-67222546D01*
X123233796Y-67107331D01*
X123282810Y-66975916D01*
X123324681Y-66919983D01*
X123390146Y-66895566D01*
X123458419Y-66910418D01*
X123486673Y-66931569D01*
X123608599Y-67053495D01*
X123802170Y-67189035D01*
X124016337Y-67288903D01*
X124228059Y-67345633D01*
X124244592Y-67350063D01*
X124479999Y-67370659D01*
X124479999Y-67370658D01*
X124480000Y-67370659D01*
X124715408Y-67350063D01*
X124943663Y-67288903D01*
X125157830Y-67189035D01*
X125351401Y-67053495D01*
X125518495Y-66886401D01*
X125648426Y-66700839D01*
X125703002Y-66657216D01*
X125772500Y-66650022D01*
X125834855Y-66681545D01*
X125851571Y-66700837D01*
X125981505Y-66886401D01*
X126148599Y-67053495D01*
X126342170Y-67189035D01*
X126556337Y-67288903D01*
X126784592Y-67350063D01*
X127020000Y-67370659D01*
X127255408Y-67350063D01*
X127483663Y-67288903D01*
X127697830Y-67189035D01*
X127891401Y-67053495D01*
X128058495Y-66886401D01*
X128188427Y-66700838D01*
X128243001Y-66657216D01*
X128312499Y-66650022D01*
X128374854Y-66681545D01*
X128391572Y-66700838D01*
X128521505Y-66886401D01*
X128688599Y-67053495D01*
X128882170Y-67189035D01*
X129096337Y-67288903D01*
X129324592Y-67350063D01*
X129560000Y-67370659D01*
X129795408Y-67350063D01*
X130023663Y-67288903D01*
X130237830Y-67189035D01*
X130431401Y-67053495D01*
X130598495Y-66886401D01*
X130728426Y-66700839D01*
X130783002Y-66657217D01*
X130852501Y-66650024D01*
X130914855Y-66681546D01*
X130931571Y-66700837D01*
X131061505Y-66886401D01*
X131228599Y-67053495D01*
X131422170Y-67189035D01*
X131636337Y-67288903D01*
X131864592Y-67350063D01*
X132100000Y-67370659D01*
X132335408Y-67350063D01*
X132563663Y-67288903D01*
X132777830Y-67189035D01*
X132971401Y-67053495D01*
X133138495Y-66886401D01*
X133268732Y-66700403D01*
X133323307Y-66656780D01*
X133392805Y-66649586D01*
X133455160Y-66681109D01*
X133471880Y-66700404D01*
X133601893Y-66886081D01*
X133768918Y-67053106D01*
X133962423Y-67188600D01*
X134176509Y-67288430D01*
X134390000Y-67345634D01*
X134390000Y-66450501D01*
X134497685Y-66499680D01*
X134604237Y-66515000D01*
X134675763Y-66515000D01*
X134782315Y-66499680D01*
X134890000Y-66450501D01*
X134890000Y-67345633D01*
X135103490Y-67288430D01*
X135317576Y-67188600D01*
X135511081Y-67053106D01*
X135678109Y-66886078D01*
X135808119Y-66700405D01*
X135862696Y-66656780D01*
X135932194Y-66649586D01*
X135994549Y-66681109D01*
X136011265Y-66700400D01*
X136141505Y-66886401D01*
X136308599Y-67053495D01*
X136370954Y-67097156D01*
X136414577Y-67151732D01*
X136421770Y-67221231D01*
X136390248Y-67283585D01*
X136330018Y-67318999D01*
X136299829Y-67322730D01*
X136236753Y-67322730D01*
X135991472Y-67363659D01*
X135756282Y-67444400D01*
X135537573Y-67562759D01*
X135341347Y-67715489D01*
X135172925Y-67898444D01*
X135036913Y-68106625D01*
X134937026Y-68334347D01*
X134875979Y-68575413D01*
X134855444Y-68823230D01*
X134875979Y-69071046D01*
X134875979Y-69071049D01*
X134875980Y-69071051D01*
X134937025Y-69312111D01*
X134978339Y-69406297D01*
X135036915Y-69539838D01*
X135096414Y-69630908D01*
X135116602Y-69697798D01*
X135097423Y-69764983D01*
X135044964Y-69811134D01*
X134992606Y-69822730D01*
X133661008Y-69822730D01*
X133657866Y-69822690D01*
X133570405Y-69820473D01*
X133512351Y-69830878D01*
X133503023Y-69832187D01*
X133444331Y-69838156D01*
X133415297Y-69847265D01*
X133400058Y-69851005D01*
X133370115Y-69856372D01*
X133315338Y-69878251D01*
X133306468Y-69881409D01*
X133250180Y-69899071D01*
X133223579Y-69913835D01*
X133209409Y-69920565D01*
X133181155Y-69931852D01*
X133131891Y-69964317D01*
X133123840Y-69969194D01*
X133072268Y-69997820D01*
X133049184Y-70017637D01*
X133036657Y-70027083D01*
X133011251Y-70043828D01*
X132969545Y-70085533D01*
X132962638Y-70091934D01*
X132917873Y-70130365D01*
X132899250Y-70154423D01*
X132888878Y-70166199D01*
X128334646Y-74720432D01*
X128332399Y-74722623D01*
X128268948Y-74782939D01*
X128235244Y-74831362D01*
X128229573Y-74838882D01*
X128192301Y-74884593D01*
X128178210Y-74911566D01*
X128170082Y-74924983D01*
X128152705Y-74949950D01*
X128129439Y-75004165D01*
X128125399Y-75012671D01*
X128098090Y-75064952D01*
X128089720Y-75094201D01*
X128084459Y-75108978D01*
X128072460Y-75136942D01*
X128060587Y-75194713D01*
X128058342Y-75203860D01*
X128042113Y-75260580D01*
X128039802Y-75290925D01*
X128037622Y-75306466D01*
X128031500Y-75336258D01*
X128031500Y-75395241D01*
X128031142Y-75404655D01*
X128026663Y-75463477D01*
X128030506Y-75493651D01*
X128031500Y-75509317D01*
X128031500Y-94072972D01*
X128011815Y-94140011D01*
X127998730Y-94156955D01*
X127843837Y-94325214D01*
X127707825Y-94533395D01*
X127617780Y-94738678D01*
X127607937Y-94761119D01*
X127557783Y-94959172D01*
X127546891Y-95002183D01*
X127526356Y-95250000D01*
X127546891Y-95497816D01*
X127546891Y-95497819D01*
X127546892Y-95497821D01*
X127607937Y-95738881D01*
X127652960Y-95841523D01*
X127707825Y-95966604D01*
X127707827Y-95966607D01*
X127843836Y-96174785D01*
X128012256Y-96357738D01*
X128012259Y-96357740D01*
X128208485Y-96510470D01*
X128208487Y-96510471D01*
X128208491Y-96510474D01*
X128427190Y-96628828D01*
X128662386Y-96709571D01*
X128907665Y-96750500D01*
X129156335Y-96750500D01*
X129401614Y-96709571D01*
X129636810Y-96628828D01*
X129855509Y-96510474D01*
X129863335Y-96504382D01*
X129928323Y-96478738D01*
X129996864Y-96492300D01*
X130047192Y-96540765D01*
X130063499Y-96602233D01*
X130063500Y-102404217D01*
X130043815Y-102471256D01*
X130027181Y-102491898D01*
X129915898Y-102603181D01*
X129854575Y-102636666D01*
X129828217Y-102639500D01*
X129669665Y-102639500D01*
X129424384Y-102680429D01*
X129189194Y-102761170D01*
X129189190Y-102761171D01*
X129189190Y-102761172D01*
X129119889Y-102798676D01*
X128970485Y-102879529D01*
X128774259Y-103032259D01*
X128774256Y-103032261D01*
X128774256Y-103032262D01*
X128605836Y-103215215D01*
X128587653Y-103243046D01*
X128469825Y-103423395D01*
X128418563Y-103540262D01*
X128369937Y-103651119D01*
X128363551Y-103676337D01*
X128308891Y-103892183D01*
X128288356Y-104139999D01*
X128308891Y-104387816D01*
X128308891Y-104387819D01*
X128308892Y-104387821D01*
X128369937Y-104628881D01*
X128406668Y-104712619D01*
X128469825Y-104856604D01*
X128469827Y-104856607D01*
X128605836Y-105064785D01*
X128774256Y-105247738D01*
X128807322Y-105273474D01*
X128970485Y-105400470D01*
X128970487Y-105400471D01*
X128970491Y-105400474D01*
X129189190Y-105518828D01*
X129424386Y-105599571D01*
X129669665Y-105640500D01*
X129918335Y-105640500D01*
X130163614Y-105599571D01*
X130398810Y-105518828D01*
X130617509Y-105400474D01*
X130813744Y-105247738D01*
X130982164Y-105064785D01*
X131118173Y-104856607D01*
X131218063Y-104628881D01*
X131279108Y-104387821D01*
X131299643Y-104140000D01*
X131297446Y-104113498D01*
X131311527Y-104045062D01*
X131333339Y-104015579D01*
X131761390Y-103587528D01*
X131763560Y-103585412D01*
X131827053Y-103525059D01*
X131860759Y-103476630D01*
X131866428Y-103469113D01*
X131868012Y-103467171D01*
X131903698Y-103423407D01*
X131917783Y-103396439D01*
X131925918Y-103383015D01*
X131932373Y-103373740D01*
X131943295Y-103358049D01*
X131966568Y-103303815D01*
X131970588Y-103295350D01*
X131997909Y-103243049D01*
X131999106Y-103238867D01*
X132006275Y-103213808D01*
X132011539Y-103199019D01*
X132023540Y-103171058D01*
X132035417Y-103113256D01*
X132037652Y-103104148D01*
X132053886Y-103047418D01*
X132056196Y-103017078D01*
X132058376Y-103001540D01*
X132064500Y-102971742D01*
X132064500Y-102912754D01*
X132064858Y-102903339D01*
X132069337Y-102844524D01*
X132065492Y-102814338D01*
X132064500Y-102798691D01*
X132064500Y-77885027D01*
X132084185Y-77817988D01*
X132097265Y-77801049D01*
X132242772Y-77642986D01*
X132302656Y-77606999D01*
X132372494Y-77609099D01*
X132425228Y-77642989D01*
X132570729Y-77801044D01*
X132601652Y-77863698D01*
X132603500Y-77885027D01*
X132603500Y-105198217D01*
X132583815Y-105265256D01*
X132567181Y-105285898D01*
X130169899Y-107683181D01*
X130108576Y-107716666D01*
X130082218Y-107719500D01*
X129923665Y-107719500D01*
X129678384Y-107760429D01*
X129443194Y-107841170D01*
X129443190Y-107841171D01*
X129443190Y-107841172D01*
X129419421Y-107854035D01*
X129224485Y-107959529D01*
X129028259Y-108112259D01*
X129028256Y-108112261D01*
X129028256Y-108112262D01*
X128964511Y-108181508D01*
X128859837Y-108295214D01*
X128723825Y-108503395D01*
X128633780Y-108708678D01*
X128623937Y-108731119D01*
X128617551Y-108756337D01*
X128562891Y-108972183D01*
X128542356Y-109219999D01*
X128562891Y-109467816D01*
X128562891Y-109467819D01*
X128562892Y-109467821D01*
X128623937Y-109708881D01*
X128668960Y-109811523D01*
X128723825Y-109936604D01*
X128723827Y-109936607D01*
X128859836Y-110144785D01*
X129028256Y-110327738D01*
X129028259Y-110327740D01*
X129224485Y-110480470D01*
X129224487Y-110480471D01*
X129224491Y-110480474D01*
X129443190Y-110598828D01*
X129678386Y-110679571D01*
X129923665Y-110720500D01*
X130172335Y-110720500D01*
X130417614Y-110679571D01*
X130652810Y-110598828D01*
X130871509Y-110480474D01*
X131067744Y-110327738D01*
X131236164Y-110144785D01*
X131372173Y-109936607D01*
X131472063Y-109708881D01*
X131533108Y-109467821D01*
X131553643Y-109220000D01*
X131551446Y-109193500D01*
X131565527Y-109125063D01*
X131587339Y-109095580D01*
X134301409Y-106381510D01*
X134303579Y-106379394D01*
X134367053Y-106319059D01*
X134400763Y-106270624D01*
X134406405Y-106263141D01*
X134443697Y-106217408D01*
X134457786Y-106190433D01*
X134465908Y-106177027D01*
X134483295Y-106152049D01*
X134506568Y-106097815D01*
X134510590Y-106089346D01*
X134537909Y-106037049D01*
X134546275Y-106007808D01*
X134551539Y-105993019D01*
X134563540Y-105965058D01*
X134575417Y-105907256D01*
X134577652Y-105898148D01*
X134593886Y-105841418D01*
X134596196Y-105811078D01*
X134598376Y-105795540D01*
X134604500Y-105765742D01*
X134604500Y-105706754D01*
X134604858Y-105697339D01*
X134609337Y-105638524D01*
X134605493Y-105608339D01*
X134604500Y-105592676D01*
X134604500Y-77885027D01*
X134624185Y-77817988D01*
X134637265Y-77801049D01*
X134751507Y-77676950D01*
X134811391Y-77640962D01*
X134881229Y-77643062D01*
X134938845Y-77682586D01*
X134946537Y-77693106D01*
X134988336Y-77757083D01*
X135156756Y-77940036D01*
X135174305Y-77953695D01*
X135352985Y-78092768D01*
X135352987Y-78092769D01*
X135352991Y-78092772D01*
X135571690Y-78211126D01*
X135806886Y-78291869D01*
X136052165Y-78332798D01*
X136300835Y-78332798D01*
X136546114Y-78291869D01*
X136781310Y-78211126D01*
X137000009Y-78092772D01*
X137196244Y-77940036D01*
X137364664Y-77757083D01*
X137500673Y-77548905D01*
X137600563Y-77321179D01*
X137661608Y-77080119D01*
X137663253Y-77060258D01*
X137688407Y-76995075D01*
X137744809Y-76953837D01*
X137786830Y-76946500D01*
X144822217Y-76946500D01*
X144889256Y-76966185D01*
X144909898Y-76982819D01*
X145013181Y-77086102D01*
X145046666Y-77147425D01*
X145049500Y-77173783D01*
X145049500Y-81519721D01*
X145049460Y-81522863D01*
X145047242Y-81610362D01*
X145057648Y-81668420D01*
X145058957Y-81677749D01*
X145064926Y-81736438D01*
X145074033Y-81765467D01*
X145077772Y-81780702D01*
X145083141Y-81810652D01*
X145105020Y-81865425D01*
X145108180Y-81874300D01*
X145123003Y-81921545D01*
X145125841Y-81930588D01*
X145140607Y-81957191D01*
X145147337Y-81971364D01*
X145158622Y-81999617D01*
X145191080Y-82048867D01*
X145195961Y-82056923D01*
X145224590Y-82108501D01*
X145244404Y-82131581D01*
X145253856Y-82144116D01*
X145261954Y-82156404D01*
X145270599Y-82169520D01*
X145312300Y-82211221D01*
X145318705Y-82218132D01*
X145357130Y-82262891D01*
X145357131Y-82262892D01*
X145357134Y-82262895D01*
X145381198Y-82281522D01*
X145392968Y-82291889D01*
X147872449Y-84771370D01*
X147874642Y-84773619D01*
X147934941Y-84837053D01*
X147983370Y-84870760D01*
X147990862Y-84876409D01*
X148036592Y-84913697D01*
X148056939Y-84924325D01*
X148063557Y-84927782D01*
X148076981Y-84935915D01*
X148101951Y-84953295D01*
X148156165Y-84976560D01*
X148164675Y-84980602D01*
X148216951Y-85007909D01*
X148246200Y-85016277D01*
X148260970Y-85021535D01*
X148288942Y-85033540D01*
X148288945Y-85033540D01*
X148288946Y-85033541D01*
X148346726Y-85045414D01*
X148355869Y-85047657D01*
X148412582Y-85063886D01*
X148442920Y-85066196D01*
X148458448Y-85068373D01*
X148488259Y-85074500D01*
X148547244Y-85074500D01*
X148556659Y-85074858D01*
X148560806Y-85075173D01*
X148615476Y-85079337D01*
X148642278Y-85075923D01*
X148645652Y-85075494D01*
X148661317Y-85074500D01*
X161167206Y-85074500D01*
X161234245Y-85094185D01*
X161280000Y-85146989D01*
X161289944Y-85216147D01*
X161260919Y-85279703D01*
X161258436Y-85282483D01*
X161224375Y-85319483D01*
X161164488Y-85355474D01*
X161133145Y-85359500D01*
X147222855Y-85359500D01*
X147155816Y-85339815D01*
X147131625Y-85319483D01*
X147097564Y-85282483D01*
X147069744Y-85252262D01*
X147028073Y-85219828D01*
X146873514Y-85099529D01*
X146873510Y-85099526D01*
X146873509Y-85099526D01*
X146654810Y-84981172D01*
X146654806Y-84981170D01*
X146654805Y-84981170D01*
X146419615Y-84900429D01*
X146174335Y-84859500D01*
X145925665Y-84859500D01*
X145680384Y-84900429D01*
X145445194Y-84981170D01*
X145445190Y-84981171D01*
X145445190Y-84981172D01*
X145421421Y-84994035D01*
X145226485Y-85099529D01*
X145030259Y-85252259D01*
X145030256Y-85252261D01*
X145030256Y-85252262D01*
X144966511Y-85321508D01*
X144861837Y-85435214D01*
X144725825Y-85643395D01*
X144635780Y-85848678D01*
X144625937Y-85871119D01*
X144619551Y-85896337D01*
X144564891Y-86112183D01*
X144544356Y-86360000D01*
X144564891Y-86607816D01*
X144564891Y-86607819D01*
X144564892Y-86607821D01*
X144625937Y-86848881D01*
X144670960Y-86951523D01*
X144725825Y-87076604D01*
X144725827Y-87076607D01*
X144861836Y-87284785D01*
X145030256Y-87467738D01*
X145113008Y-87532147D01*
X145153821Y-87588858D01*
X145157494Y-87658631D01*
X145122863Y-87719314D01*
X145113008Y-87727853D01*
X145030256Y-87792261D01*
X144861837Y-87975214D01*
X144725825Y-88183395D01*
X144674563Y-88300262D01*
X144625937Y-88411119D01*
X144564892Y-88652179D01*
X144564891Y-88652183D01*
X144544356Y-88900000D01*
X144564891Y-89147816D01*
X144564891Y-89147819D01*
X144564892Y-89147821D01*
X144625937Y-89388881D01*
X144670960Y-89491523D01*
X144725825Y-89616604D01*
X144725827Y-89616607D01*
X144861836Y-89824785D01*
X145030256Y-90007738D01*
X145030259Y-90007740D01*
X145116220Y-90074647D01*
X145157033Y-90131357D01*
X145160708Y-90201130D01*
X145126076Y-90261813D01*
X145116220Y-90270353D01*
X145030259Y-90337259D01*
X145030256Y-90337261D01*
X145030256Y-90337262D01*
X144966511Y-90406508D01*
X144861837Y-90520214D01*
X144725825Y-90728395D01*
X144641194Y-90921336D01*
X144625937Y-90956119D01*
X144611014Y-91015048D01*
X144564891Y-91197183D01*
X144544356Y-91444999D01*
X144564891Y-91692816D01*
X144564891Y-91692819D01*
X144564892Y-91692821D01*
X144625937Y-91933881D01*
X144670960Y-92036523D01*
X144725825Y-92161604D01*
X144725827Y-92161607D01*
X144861836Y-92369785D01*
X145030256Y-92552738D01*
X145123424Y-92625253D01*
X145148794Y-92658993D01*
X145151684Y-92657089D01*
X145191080Y-92716867D01*
X145195961Y-92724923D01*
X145224590Y-92776501D01*
X145244404Y-92799581D01*
X145253856Y-92812116D01*
X145270599Y-92837520D01*
X145312300Y-92879221D01*
X145318705Y-92886132D01*
X145357134Y-92930896D01*
X145381193Y-92949519D01*
X145392972Y-92959893D01*
X150280898Y-97847819D01*
X150314383Y-97909142D01*
X150309399Y-97978834D01*
X150267527Y-98034767D01*
X150202063Y-98059184D01*
X150193217Y-98059500D01*
X150156758Y-98059500D01*
X150147344Y-98059142D01*
X150138198Y-98058445D01*
X150088524Y-98054663D01*
X150088523Y-98054663D01*
X150088522Y-98054663D01*
X150058349Y-98058506D01*
X150042683Y-98059500D01*
X147222855Y-98059500D01*
X147155816Y-98039815D01*
X147131625Y-98019483D01*
X147129475Y-98017147D01*
X147069744Y-97952262D01*
X147047612Y-97935036D01*
X146873514Y-97799529D01*
X146873510Y-97799526D01*
X146873509Y-97799526D01*
X146654810Y-97681172D01*
X146654806Y-97681170D01*
X146654805Y-97681170D01*
X146419615Y-97600429D01*
X146174335Y-97559500D01*
X145925665Y-97559500D01*
X145680384Y-97600429D01*
X145445194Y-97681170D01*
X145445190Y-97681171D01*
X145445190Y-97681172D01*
X145369796Y-97721973D01*
X145226485Y-97799529D01*
X145030259Y-97952259D01*
X145030256Y-97952261D01*
X145030256Y-97952262D01*
X144861836Y-98135215D01*
X144842397Y-98164969D01*
X144725825Y-98343395D01*
X144690040Y-98424978D01*
X144625937Y-98571119D01*
X144619551Y-98596337D01*
X144564891Y-98812183D01*
X144544356Y-99059999D01*
X144564891Y-99307816D01*
X144564891Y-99307819D01*
X144564892Y-99307821D01*
X144625937Y-99548881D01*
X144670960Y-99651523D01*
X144725825Y-99776604D01*
X144725827Y-99776607D01*
X144861836Y-99984785D01*
X145030256Y-100167738D01*
X145030259Y-100167740D01*
X145226485Y-100320470D01*
X145226487Y-100320471D01*
X145226491Y-100320474D01*
X145445190Y-100438828D01*
X145680386Y-100519571D01*
X145925665Y-100560500D01*
X146174335Y-100560500D01*
X146419614Y-100519571D01*
X146654810Y-100438828D01*
X146873509Y-100320474D01*
X147069744Y-100167738D01*
X147131624Y-100100517D01*
X147191512Y-100064527D01*
X147222855Y-100060500D01*
X149648217Y-100060500D01*
X149715256Y-100080185D01*
X149735898Y-100096819D01*
X150606657Y-100967577D01*
X150640142Y-101028900D01*
X150642553Y-101065496D01*
X150640357Y-101092000D01*
X150660891Y-101339816D01*
X150660891Y-101339819D01*
X150660892Y-101339821D01*
X150721937Y-101580881D01*
X150763414Y-101675438D01*
X150821825Y-101808604D01*
X150821827Y-101808607D01*
X150957836Y-102016785D01*
X151126256Y-102199738D01*
X151152948Y-102220513D01*
X151322485Y-102352470D01*
X151322487Y-102352471D01*
X151322491Y-102352474D01*
X151541190Y-102470828D01*
X151776386Y-102551571D01*
X152021665Y-102592500D01*
X152270335Y-102592500D01*
X152515614Y-102551571D01*
X152750810Y-102470828D01*
X152969509Y-102352474D01*
X153165744Y-102199738D01*
X153334164Y-102016785D01*
X153470173Y-101808607D01*
X153570063Y-101580881D01*
X153606187Y-101438228D01*
X153641724Y-101378077D01*
X153704145Y-101346685D01*
X153773628Y-101354023D01*
X153814072Y-101380992D01*
X156956657Y-104523577D01*
X156990142Y-104584900D01*
X156992553Y-104621496D01*
X156990357Y-104648000D01*
X157010891Y-104895816D01*
X157010891Y-104895819D01*
X157010892Y-104895821D01*
X157071937Y-105136881D01*
X157113699Y-105232088D01*
X157171825Y-105364604D01*
X157171827Y-105364607D01*
X157307836Y-105572785D01*
X157476256Y-105755738D01*
X157476259Y-105755740D01*
X157672485Y-105908470D01*
X157672487Y-105908471D01*
X157672491Y-105908474D01*
X157891190Y-106026828D01*
X158126386Y-106107571D01*
X158371665Y-106148500D01*
X158620335Y-106148500D01*
X158865614Y-106107571D01*
X159100810Y-106026828D01*
X159319509Y-105908474D01*
X159515744Y-105755738D01*
X159684164Y-105572785D01*
X159820173Y-105364607D01*
X159920063Y-105136881D01*
X159981108Y-104895821D01*
X160001643Y-104648000D01*
X159981108Y-104400179D01*
X159920063Y-104159119D01*
X159820173Y-103931393D01*
X159684164Y-103723215D01*
X159515744Y-103540262D01*
X159461170Y-103497785D01*
X159319514Y-103387529D01*
X159319510Y-103387526D01*
X159319509Y-103387526D01*
X159100810Y-103269172D01*
X159100806Y-103269170D01*
X159100805Y-103269170D01*
X158865615Y-103188429D01*
X158620335Y-103147500D01*
X158461783Y-103147500D01*
X158394744Y-103127815D01*
X158374102Y-103111181D01*
X149242919Y-93979999D01*
X150386356Y-93979999D01*
X150406891Y-94227816D01*
X150406891Y-94227819D01*
X150406892Y-94227821D01*
X150467937Y-94468881D01*
X150512960Y-94571523D01*
X150567825Y-94696604D01*
X150567827Y-94696607D01*
X150703836Y-94904785D01*
X150872256Y-95087738D01*
X150872259Y-95087740D01*
X151068485Y-95240470D01*
X151068487Y-95240471D01*
X151068491Y-95240474D01*
X151287190Y-95358828D01*
X151522386Y-95439571D01*
X151767665Y-95480500D01*
X152016335Y-95480500D01*
X152261614Y-95439571D01*
X152324660Y-95417926D01*
X152394457Y-95414775D01*
X152452605Y-95447526D01*
X161715450Y-104710371D01*
X161717606Y-104712581D01*
X161758122Y-104755203D01*
X161772049Y-104772804D01*
X161879836Y-104937785D01*
X162048256Y-105120738D01*
X162113667Y-105171650D01*
X162244485Y-105273470D01*
X162244487Y-105273471D01*
X162244491Y-105273474D01*
X162463190Y-105391828D01*
X162698386Y-105472571D01*
X162943665Y-105513500D01*
X163192335Y-105513500D01*
X163437614Y-105472571D01*
X163672810Y-105391828D01*
X163891509Y-105273474D01*
X164087744Y-105120738D01*
X164256164Y-104937785D01*
X164392173Y-104729607D01*
X164492063Y-104501881D01*
X164553108Y-104260821D01*
X164573643Y-104013000D01*
X164553108Y-103765179D01*
X164492063Y-103524119D01*
X164392173Y-103296393D01*
X164256164Y-103088215D01*
X164087744Y-102905262D01*
X164054678Y-102879526D01*
X163891514Y-102752529D01*
X163891510Y-102752526D01*
X163891509Y-102752526D01*
X163672810Y-102634172D01*
X163672806Y-102634170D01*
X163672805Y-102634170D01*
X163437615Y-102553429D01*
X163192335Y-102512500D01*
X162943665Y-102512500D01*
X162698387Y-102553428D01*
X162540792Y-102607530D01*
X162470993Y-102610679D01*
X162412849Y-102577929D01*
X153324768Y-93489848D01*
X153298893Y-93451977D01*
X153216174Y-93263395D01*
X153185827Y-93216945D01*
X153080164Y-93055215D01*
X152911744Y-92872262D01*
X152867106Y-92837519D01*
X152715514Y-92719529D01*
X152715510Y-92719526D01*
X152715509Y-92719526D01*
X152496810Y-92601172D01*
X152496806Y-92601170D01*
X152496805Y-92601170D01*
X152261615Y-92520429D01*
X152016335Y-92479500D01*
X151767665Y-92479500D01*
X151522384Y-92520429D01*
X151287194Y-92601170D01*
X151287190Y-92601171D01*
X151287190Y-92601172D01*
X151234843Y-92629501D01*
X151068485Y-92719529D01*
X150872259Y-92872259D01*
X150872256Y-92872261D01*
X150872256Y-92872262D01*
X150733938Y-93022516D01*
X150703837Y-93055214D01*
X150567825Y-93263395D01*
X150485106Y-93451977D01*
X150467937Y-93491119D01*
X150461551Y-93516337D01*
X150406891Y-93732183D01*
X150386356Y-93979999D01*
X149242919Y-93979999D01*
X147449432Y-92186512D01*
X147415947Y-92125189D01*
X147420931Y-92055497D01*
X147423550Y-92049035D01*
X147474063Y-91933881D01*
X147535108Y-91692821D01*
X147555643Y-91445000D01*
X147535108Y-91197179D01*
X147474063Y-90956119D01*
X147374173Y-90728393D01*
X147238164Y-90520215D01*
X147069744Y-90337262D01*
X147052724Y-90324015D01*
X146983780Y-90270353D01*
X146942967Y-90213643D01*
X146939292Y-90143870D01*
X146973924Y-90083187D01*
X146983780Y-90074647D01*
X147069740Y-90007741D01*
X147069741Y-90007740D01*
X147069744Y-90007738D01*
X147076677Y-90000206D01*
X147136563Y-89964216D01*
X147206401Y-89966315D01*
X147255588Y-89996508D01*
X147872431Y-90613351D01*
X147874624Y-90615600D01*
X147934942Y-90679054D01*
X147983362Y-90712755D01*
X147990871Y-90718416D01*
X148036593Y-90755698D01*
X148063562Y-90769785D01*
X148076982Y-90777916D01*
X148101949Y-90795294D01*
X148156163Y-90818559D01*
X148164663Y-90822595D01*
X148216951Y-90849909D01*
X148246196Y-90858277D01*
X148260986Y-90863543D01*
X148268464Y-90866752D01*
X148288942Y-90875540D01*
X148346737Y-90887416D01*
X148355854Y-90889654D01*
X148412582Y-90905887D01*
X148442916Y-90908196D01*
X148458453Y-90910374D01*
X148488259Y-90916500D01*
X148547242Y-90916500D01*
X148556656Y-90916858D01*
X148615476Y-90921337D01*
X148645651Y-90917493D01*
X148661317Y-90916500D01*
X153890451Y-90916500D01*
X153957490Y-90936185D01*
X154003245Y-90988989D01*
X154013189Y-91058147D01*
X153999527Y-91094357D01*
X154000954Y-91094983D01*
X153950682Y-91209592D01*
X153896937Y-91332119D01*
X153851413Y-91511889D01*
X153835891Y-91573183D01*
X153815356Y-91820999D01*
X153835891Y-92068816D01*
X153835891Y-92068819D01*
X153835892Y-92068821D01*
X153896937Y-92309881D01*
X153941960Y-92412523D01*
X153996825Y-92537604D01*
X153996827Y-92537607D01*
X154132836Y-92745785D01*
X154301256Y-92928738D01*
X154334135Y-92954329D01*
X154497485Y-93081470D01*
X154497487Y-93081471D01*
X154497491Y-93081474D01*
X154716190Y-93199828D01*
X154951386Y-93280571D01*
X155196665Y-93321500D01*
X155355217Y-93321500D01*
X155422256Y-93341185D01*
X155442898Y-93357819D01*
X165846657Y-103761578D01*
X165880142Y-103822901D01*
X165882553Y-103859497D01*
X165880357Y-103886000D01*
X165900891Y-104133816D01*
X165900891Y-104133819D01*
X165900892Y-104133821D01*
X165961937Y-104374881D01*
X166004010Y-104470798D01*
X166061825Y-104602604D01*
X166061827Y-104602607D01*
X166197836Y-104810785D01*
X166366256Y-104993738D01*
X166399092Y-105019295D01*
X166562485Y-105146470D01*
X166562487Y-105146471D01*
X166562491Y-105146474D01*
X166781190Y-105264828D01*
X167016386Y-105345571D01*
X167261665Y-105386500D01*
X167510335Y-105386500D01*
X167755614Y-105345571D01*
X167990810Y-105264828D01*
X168209509Y-105146474D01*
X168405744Y-104993738D01*
X168574164Y-104810785D01*
X168710173Y-104602607D01*
X168810063Y-104374881D01*
X168871108Y-104133821D01*
X168891643Y-103886000D01*
X168871108Y-103638179D01*
X168810063Y-103397119D01*
X168710903Y-103171058D01*
X168710174Y-103169395D01*
X168710173Y-103169393D01*
X168574164Y-102961215D01*
X168405744Y-102778262D01*
X168336965Y-102724729D01*
X168209514Y-102625529D01*
X168209510Y-102625526D01*
X168209509Y-102625526D01*
X167990810Y-102507172D01*
X167990806Y-102507170D01*
X167990805Y-102507170D01*
X167755615Y-102426429D01*
X167510335Y-102385500D01*
X167351782Y-102385500D01*
X167284743Y-102365815D01*
X167264101Y-102349181D01*
X156860342Y-91945422D01*
X156826857Y-91884099D01*
X156824447Y-91847499D01*
X156826643Y-91820998D01*
X156814579Y-91675407D01*
X156806108Y-91573179D01*
X156745063Y-91332119D01*
X156677798Y-91178770D01*
X156641046Y-91094983D01*
X156643402Y-91093949D01*
X156627552Y-91041432D01*
X156646733Y-90974246D01*
X156699192Y-90928096D01*
X156751549Y-90916500D01*
X170198221Y-90916500D01*
X170201362Y-90916539D01*
X170288863Y-90918757D01*
X170346932Y-90908348D01*
X170356236Y-90907043D01*
X170414938Y-90901074D01*
X170434118Y-90895055D01*
X170491648Y-90891059D01*
X170596165Y-90908500D01*
X170596167Y-90908500D01*
X170844835Y-90908500D01*
X171090114Y-90867571D01*
X171325310Y-90786828D01*
X171536486Y-90672545D01*
X171604810Y-90657951D01*
X171670183Y-90682614D01*
X171711844Y-90738704D01*
X171719500Y-90781601D01*
X171719500Y-93514217D01*
X171699815Y-93581256D01*
X171683181Y-93601898D01*
X168847646Y-96437432D01*
X168845399Y-96439623D01*
X168781948Y-96499939D01*
X168748244Y-96548362D01*
X168742573Y-96555882D01*
X168705301Y-96601593D01*
X168691210Y-96628566D01*
X168683082Y-96641983D01*
X168665705Y-96666950D01*
X168642439Y-96721165D01*
X168638399Y-96729671D01*
X168611090Y-96781952D01*
X168602720Y-96811201D01*
X168597459Y-96825978D01*
X168585460Y-96853942D01*
X168573587Y-96911713D01*
X168571342Y-96920860D01*
X168555113Y-96977580D01*
X168552802Y-97007925D01*
X168550622Y-97023466D01*
X168544500Y-97053258D01*
X168544500Y-97112241D01*
X168544142Y-97121655D01*
X168539663Y-97180477D01*
X168543506Y-97210651D01*
X168544500Y-97226317D01*
X168544500Y-101458721D01*
X168544460Y-101461863D01*
X168542242Y-101549362D01*
X168552648Y-101607420D01*
X168553957Y-101616749D01*
X168559926Y-101675438D01*
X168569033Y-101704467D01*
X168572772Y-101719702D01*
X168578141Y-101749652D01*
X168600020Y-101804425D01*
X168603180Y-101813300D01*
X168610116Y-101835408D01*
X168620841Y-101869588D01*
X168635607Y-101896191D01*
X168642337Y-101910364D01*
X168653622Y-101938617D01*
X168686080Y-101987867D01*
X168690961Y-101995923D01*
X168719590Y-102047501D01*
X168739404Y-102070581D01*
X168748856Y-102083116D01*
X168765599Y-102108520D01*
X168807300Y-102150221D01*
X168813705Y-102157132D01*
X168852130Y-102201891D01*
X168852131Y-102201892D01*
X168852134Y-102201895D01*
X168876198Y-102220522D01*
X168887968Y-102230889D01*
X171494449Y-104837370D01*
X171496642Y-104839619D01*
X171556941Y-104903053D01*
X171605358Y-104936752D01*
X171612865Y-104942413D01*
X171658593Y-104979698D01*
X171685556Y-104993782D01*
X171698980Y-105001915D01*
X171723951Y-105019295D01*
X171778163Y-105042559D01*
X171786663Y-105046595D01*
X171830608Y-105069551D01*
X171838951Y-105073909D01*
X171868196Y-105082277D01*
X171882986Y-105087543D01*
X171890464Y-105090752D01*
X171910942Y-105099540D01*
X171968737Y-105111416D01*
X171977854Y-105113654D01*
X172034582Y-105129887D01*
X172064916Y-105132196D01*
X172080453Y-105134374D01*
X172110259Y-105140500D01*
X172169243Y-105140500D01*
X172178657Y-105140858D01*
X172237477Y-105145337D01*
X172267652Y-105141493D01*
X172283318Y-105140500D01*
X172563145Y-105140500D01*
X172630184Y-105160185D01*
X172654375Y-105180517D01*
X172716256Y-105247738D01*
X172799008Y-105312147D01*
X172839821Y-105368858D01*
X172843494Y-105438631D01*
X172808863Y-105499314D01*
X172799008Y-105507853D01*
X172716256Y-105572261D01*
X172596787Y-105702040D01*
X172547836Y-105755215D01*
X172509693Y-105813598D01*
X172411825Y-105963395D01*
X172329075Y-106152049D01*
X172311937Y-106191119D01*
X172279538Y-106319059D01*
X172250891Y-106432183D01*
X172230356Y-106679994D01*
X172232553Y-106706500D01*
X172218471Y-106774936D01*
X172196657Y-106804420D01*
X162943899Y-116057181D01*
X162882576Y-116090666D01*
X162856218Y-116093500D01*
X131275783Y-116093500D01*
X131208744Y-116073815D01*
X131188102Y-116057181D01*
X129435921Y-114305000D01*
X140884340Y-114305000D01*
X140904936Y-114540407D01*
X140949709Y-114707501D01*
X140966097Y-114768663D01*
X141065965Y-114982830D01*
X141201505Y-115176401D01*
X141368599Y-115343495D01*
X141562170Y-115479035D01*
X141776337Y-115578903D01*
X142004591Y-115640063D01*
X142004592Y-115640063D01*
X142239999Y-115660659D01*
X142239999Y-115660658D01*
X142240000Y-115660659D01*
X142475408Y-115640063D01*
X142703663Y-115578903D01*
X142917830Y-115479035D01*
X143111401Y-115343495D01*
X143278495Y-115176401D01*
X143414035Y-114982830D01*
X143513903Y-114768663D01*
X143575063Y-114540408D01*
X143595659Y-114305000D01*
X143575063Y-114069592D01*
X143513903Y-113841337D01*
X143414035Y-113627171D01*
X143278495Y-113433599D01*
X143111401Y-113266505D01*
X142925402Y-113136267D01*
X142881780Y-113081692D01*
X142874587Y-113012193D01*
X142906109Y-112949839D01*
X142925405Y-112933119D01*
X143111078Y-112803109D01*
X143278106Y-112636081D01*
X143413600Y-112442576D01*
X143513430Y-112228492D01*
X143570636Y-112015000D01*
X142673686Y-112015000D01*
X142699493Y-111974844D01*
X142740000Y-111836889D01*
X142740000Y-111693111D01*
X142699493Y-111555156D01*
X142673686Y-111515000D01*
X143570636Y-111515000D01*
X143570635Y-111514999D01*
X143513430Y-111301507D01*
X143413599Y-111087421D01*
X143278109Y-110893921D01*
X143111081Y-110726893D01*
X142925404Y-110596880D01*
X142881780Y-110542303D01*
X142874587Y-110472804D01*
X142906109Y-110410450D01*
X142925399Y-110393734D01*
X143111401Y-110263495D01*
X143278495Y-110096401D01*
X143414035Y-109902830D01*
X143513903Y-109688663D01*
X143575063Y-109460408D01*
X143595659Y-109225000D01*
X143595221Y-109219999D01*
X143575063Y-108989592D01*
X143570397Y-108972179D01*
X143513903Y-108761337D01*
X143414035Y-108547171D01*
X143278495Y-108353599D01*
X143111401Y-108186505D01*
X142925839Y-108056573D01*
X142882216Y-108001998D01*
X142875022Y-107932500D01*
X142906545Y-107870145D01*
X142925837Y-107853428D01*
X143111401Y-107723495D01*
X143278495Y-107556401D01*
X143414035Y-107362830D01*
X143513903Y-107148663D01*
X143575063Y-106920408D01*
X143595659Y-106685000D01*
X143575063Y-106449592D01*
X143513903Y-106221337D01*
X143414035Y-106007171D01*
X143278495Y-105813599D01*
X143111401Y-105646505D01*
X142925839Y-105516573D01*
X142882216Y-105461998D01*
X142875022Y-105392500D01*
X142906545Y-105330145D01*
X142925837Y-105313428D01*
X143111401Y-105183495D01*
X143278495Y-105016401D01*
X143414035Y-104822830D01*
X143513903Y-104608663D01*
X143575063Y-104380408D01*
X143595659Y-104145000D01*
X143595221Y-104139999D01*
X143575063Y-103909592D01*
X143535403Y-103761578D01*
X143513903Y-103681337D01*
X143414035Y-103467171D01*
X143278495Y-103273599D01*
X143111401Y-103106505D01*
X142925839Y-102976573D01*
X142882216Y-102921998D01*
X142875022Y-102852500D01*
X142906545Y-102790145D01*
X142925837Y-102773428D01*
X143111401Y-102643495D01*
X143278495Y-102476401D01*
X143414035Y-102282830D01*
X143513903Y-102068663D01*
X143575063Y-101840408D01*
X143595659Y-101605000D01*
X143575063Y-101369592D01*
X143513903Y-101141337D01*
X143414035Y-100927171D01*
X143278495Y-100733599D01*
X143111401Y-100566505D01*
X142925839Y-100436573D01*
X142882216Y-100381998D01*
X142875022Y-100312500D01*
X142906545Y-100250145D01*
X142925837Y-100233428D01*
X143111401Y-100103495D01*
X143278495Y-99936401D01*
X143414035Y-99742830D01*
X143513903Y-99528663D01*
X143575063Y-99300408D01*
X143595659Y-99065000D01*
X143595221Y-99059999D01*
X143575063Y-98829592D01*
X143548164Y-98729202D01*
X143513903Y-98601337D01*
X143414035Y-98387171D01*
X143278495Y-98193599D01*
X143111401Y-98026505D01*
X142925839Y-97896573D01*
X142882216Y-97841998D01*
X142875022Y-97772500D01*
X142906545Y-97710145D01*
X142925837Y-97693428D01*
X143111401Y-97563495D01*
X143278495Y-97396401D01*
X143414035Y-97202830D01*
X143513903Y-96988663D01*
X143575063Y-96760408D01*
X143595659Y-96525000D01*
X143575063Y-96289592D01*
X143513903Y-96061337D01*
X143414035Y-95847171D01*
X143278495Y-95653599D01*
X143111401Y-95486505D01*
X142925839Y-95356573D01*
X142882216Y-95301998D01*
X142875022Y-95232500D01*
X142906545Y-95170145D01*
X142925837Y-95153428D01*
X143111401Y-95023495D01*
X143278495Y-94856401D01*
X143414035Y-94662830D01*
X143513903Y-94448663D01*
X143575063Y-94220408D01*
X143595659Y-93985000D01*
X143575063Y-93749592D01*
X143513903Y-93521337D01*
X143414035Y-93307171D01*
X143278495Y-93113599D01*
X143111401Y-92946505D01*
X142925839Y-92816573D01*
X142882216Y-92761998D01*
X142875022Y-92692500D01*
X142906545Y-92630145D01*
X142925837Y-92613428D01*
X143111401Y-92483495D01*
X143278495Y-92316401D01*
X143414035Y-92122830D01*
X143513903Y-91908663D01*
X143575063Y-91680408D01*
X143595659Y-91445000D01*
X143595221Y-91439999D01*
X143575063Y-91209592D01*
X143544077Y-91093949D01*
X143513903Y-90981337D01*
X143414035Y-90767171D01*
X143278495Y-90573599D01*
X143111401Y-90406505D01*
X142925839Y-90276573D01*
X142882216Y-90221998D01*
X142875022Y-90152500D01*
X142906545Y-90090145D01*
X142925837Y-90073428D01*
X143111401Y-89943495D01*
X143278495Y-89776401D01*
X143414035Y-89582830D01*
X143513903Y-89368663D01*
X143575063Y-89140408D01*
X143595659Y-88905000D01*
X143575063Y-88669592D01*
X143513903Y-88441337D01*
X143414035Y-88227171D01*
X143278495Y-88033599D01*
X143111401Y-87866505D01*
X142925839Y-87736573D01*
X142882216Y-87681998D01*
X142875022Y-87612500D01*
X142906545Y-87550145D01*
X142925837Y-87533428D01*
X143111401Y-87403495D01*
X143278495Y-87236401D01*
X143414035Y-87042830D01*
X143513903Y-86828663D01*
X143575063Y-86600408D01*
X143595659Y-86365000D01*
X143595221Y-86359999D01*
X143575063Y-86129592D01*
X143570397Y-86112179D01*
X143513903Y-85901337D01*
X143414035Y-85687171D01*
X143278495Y-85493599D01*
X143111401Y-85326505D01*
X142925839Y-85196573D01*
X142882216Y-85141998D01*
X142875022Y-85072500D01*
X142906545Y-85010145D01*
X142925837Y-84993428D01*
X143111401Y-84863495D01*
X143278495Y-84696401D01*
X143414035Y-84502830D01*
X143513903Y-84288663D01*
X143575063Y-84060408D01*
X143595659Y-83825000D01*
X143575063Y-83589592D01*
X143513903Y-83361337D01*
X143414035Y-83147171D01*
X143278495Y-82953599D01*
X143111401Y-82786505D01*
X142925839Y-82656573D01*
X142882216Y-82601998D01*
X142875022Y-82532500D01*
X142906545Y-82470145D01*
X142925837Y-82453428D01*
X143111401Y-82323495D01*
X143278495Y-82156401D01*
X143414035Y-81962830D01*
X143513903Y-81748663D01*
X143575063Y-81520408D01*
X143595659Y-81285000D01*
X143575063Y-81049592D01*
X143513903Y-80821337D01*
X143414035Y-80607171D01*
X143278495Y-80413599D01*
X143156569Y-80291673D01*
X143123084Y-80230350D01*
X143128068Y-80160658D01*
X143169940Y-80104725D01*
X143200915Y-80087810D01*
X143332331Y-80038796D01*
X143447546Y-79952546D01*
X143533796Y-79837331D01*
X143584091Y-79702483D01*
X143590500Y-79642873D01*
X143590499Y-77847128D01*
X143584091Y-77787517D01*
X143533796Y-77652669D01*
X143447546Y-77537454D01*
X143332331Y-77451204D01*
X143197483Y-77400909D01*
X143137873Y-77394500D01*
X143134550Y-77394500D01*
X141345439Y-77394500D01*
X141345420Y-77394500D01*
X141342128Y-77394501D01*
X141338848Y-77394853D01*
X141338840Y-77394854D01*
X141282515Y-77400909D01*
X141147669Y-77451204D01*
X141032454Y-77537454D01*
X140946204Y-77652668D01*
X140895910Y-77787515D01*
X140895909Y-77787517D01*
X140889500Y-77847127D01*
X140889500Y-77850448D01*
X140889500Y-77850449D01*
X140889500Y-79639560D01*
X140889500Y-79639578D01*
X140889501Y-79642872D01*
X140889853Y-79646152D01*
X140889854Y-79646159D01*
X140895909Y-79702484D01*
X140902677Y-79720630D01*
X140946204Y-79837331D01*
X141032454Y-79952546D01*
X141147669Y-80038796D01*
X141227806Y-80068685D01*
X141279082Y-80087810D01*
X141335016Y-80129681D01*
X141359433Y-80195146D01*
X141344581Y-80263419D01*
X141323431Y-80291673D01*
X141201503Y-80413601D01*
X141065965Y-80607170D01*
X140966097Y-80821336D01*
X140904936Y-81049592D01*
X140884340Y-81285000D01*
X140904936Y-81520407D01*
X140929040Y-81610363D01*
X140966097Y-81748663D01*
X141065965Y-81962830D01*
X141201505Y-82156401D01*
X141368599Y-82323495D01*
X141554160Y-82453426D01*
X141597783Y-82508002D01*
X141604976Y-82577501D01*
X141573454Y-82639855D01*
X141554158Y-82656575D01*
X141375736Y-82781508D01*
X141368595Y-82786508D01*
X141201505Y-82953598D01*
X141065965Y-83147170D01*
X140966097Y-83361336D01*
X140904936Y-83589592D01*
X140884340Y-83824999D01*
X140904936Y-84060407D01*
X140949709Y-84227501D01*
X140966097Y-84288663D01*
X141065965Y-84502830D01*
X141201505Y-84696401D01*
X141368599Y-84863495D01*
X141554160Y-84993426D01*
X141597783Y-85048002D01*
X141604976Y-85117501D01*
X141573454Y-85179855D01*
X141554158Y-85196575D01*
X141375736Y-85321508D01*
X141368595Y-85326508D01*
X141201505Y-85493598D01*
X141065965Y-85687170D01*
X140966097Y-85901336D01*
X140904936Y-86129592D01*
X140884340Y-86364999D01*
X140904936Y-86600407D01*
X140906923Y-86607821D01*
X140966097Y-86828663D01*
X141065965Y-87042830D01*
X141201505Y-87236401D01*
X141368599Y-87403495D01*
X141554160Y-87533426D01*
X141597783Y-87588002D01*
X141604976Y-87657501D01*
X141573454Y-87719855D01*
X141554158Y-87736575D01*
X141375736Y-87861508D01*
X141368595Y-87866508D01*
X141201505Y-88033598D01*
X141065965Y-88227170D01*
X140966097Y-88441336D01*
X140904936Y-88669592D01*
X140884340Y-88905000D01*
X140904936Y-89140407D01*
X140906923Y-89147821D01*
X140966097Y-89368663D01*
X141065965Y-89582830D01*
X141201505Y-89776401D01*
X141368599Y-89943495D01*
X141554160Y-90073426D01*
X141597783Y-90128002D01*
X141604976Y-90197501D01*
X141573454Y-90259855D01*
X141554158Y-90276575D01*
X141375736Y-90401508D01*
X141368595Y-90406508D01*
X141201505Y-90573598D01*
X141065965Y-90767170D01*
X140966097Y-90981336D01*
X140904936Y-91209592D01*
X140884340Y-91444999D01*
X140904936Y-91680407D01*
X140942608Y-91820999D01*
X140966097Y-91908663D01*
X141065965Y-92122830D01*
X141201505Y-92316401D01*
X141368599Y-92483495D01*
X141554160Y-92613426D01*
X141597783Y-92668002D01*
X141604976Y-92737501D01*
X141573454Y-92799855D01*
X141554158Y-92816575D01*
X141375736Y-92941508D01*
X141368595Y-92946508D01*
X141201505Y-93113598D01*
X141065965Y-93307170D01*
X140966097Y-93521336D01*
X140904936Y-93749592D01*
X140884340Y-93985000D01*
X140904936Y-94220407D01*
X140949709Y-94387501D01*
X140966097Y-94448663D01*
X141065965Y-94662830D01*
X141201505Y-94856401D01*
X141368599Y-95023495D01*
X141554160Y-95153426D01*
X141597783Y-95208002D01*
X141604976Y-95277501D01*
X141573454Y-95339855D01*
X141554158Y-95356575D01*
X141375736Y-95481508D01*
X141368595Y-95486508D01*
X141201505Y-95653598D01*
X141065965Y-95847170D01*
X140966097Y-96061336D01*
X140904936Y-96289592D01*
X140884340Y-96524999D01*
X140904936Y-96760407D01*
X140946717Y-96916336D01*
X140966097Y-96988663D01*
X141065965Y-97202830D01*
X141201505Y-97396401D01*
X141368599Y-97563495D01*
X141554160Y-97693426D01*
X141597783Y-97748002D01*
X141604976Y-97817501D01*
X141573454Y-97879855D01*
X141554158Y-97896575D01*
X141375736Y-98021508D01*
X141368595Y-98026508D01*
X141201505Y-98193598D01*
X141065965Y-98387170D01*
X140966097Y-98601336D01*
X140904936Y-98829592D01*
X140884340Y-99065000D01*
X140904936Y-99300407D01*
X140949709Y-99467502D01*
X140966097Y-99528663D01*
X141065965Y-99742830D01*
X141201505Y-99936401D01*
X141368599Y-100103495D01*
X141554160Y-100233426D01*
X141597783Y-100288002D01*
X141604976Y-100357501D01*
X141573454Y-100419855D01*
X141554158Y-100436575D01*
X141375736Y-100561508D01*
X141368595Y-100566508D01*
X141201505Y-100733598D01*
X141065965Y-100927170D01*
X140966097Y-101141336D01*
X140904936Y-101369592D01*
X140884340Y-101605000D01*
X140904936Y-101840407D01*
X140944448Y-101987867D01*
X140966097Y-102068663D01*
X141065965Y-102282830D01*
X141201505Y-102476401D01*
X141368599Y-102643495D01*
X141554160Y-102773426D01*
X141597783Y-102828002D01*
X141604976Y-102897501D01*
X141573454Y-102959855D01*
X141554158Y-102976575D01*
X141375736Y-103101508D01*
X141368595Y-103106508D01*
X141201505Y-103273598D01*
X141065965Y-103467170D01*
X140966097Y-103681336D01*
X140904936Y-103909592D01*
X140884340Y-104144999D01*
X140904936Y-104380407D01*
X140949709Y-104547501D01*
X140966097Y-104608663D01*
X141065965Y-104822830D01*
X141201505Y-105016401D01*
X141368599Y-105183495D01*
X141554160Y-105313426D01*
X141597783Y-105368002D01*
X141604976Y-105437501D01*
X141573454Y-105499855D01*
X141554158Y-105516575D01*
X141375736Y-105641508D01*
X141368595Y-105646508D01*
X141201505Y-105813598D01*
X141065965Y-106007170D01*
X140966097Y-106221336D01*
X140904936Y-106449592D01*
X140884340Y-106685000D01*
X140904936Y-106920407D01*
X140906923Y-106927821D01*
X140966097Y-107148663D01*
X141065965Y-107362830D01*
X141201505Y-107556401D01*
X141368599Y-107723495D01*
X141554160Y-107853426D01*
X141597783Y-107908002D01*
X141604976Y-107977501D01*
X141573454Y-108039855D01*
X141554158Y-108056575D01*
X141375736Y-108181508D01*
X141368595Y-108186508D01*
X141201505Y-108353598D01*
X141065965Y-108547170D01*
X140966097Y-108761336D01*
X140904936Y-108989592D01*
X140884340Y-109224999D01*
X140904936Y-109460407D01*
X140906923Y-109467821D01*
X140966097Y-109688663D01*
X141065965Y-109902830D01*
X141201505Y-110096401D01*
X141368599Y-110263495D01*
X141554596Y-110393732D01*
X141598219Y-110448307D01*
X141605412Y-110517806D01*
X141573890Y-110580160D01*
X141554595Y-110596880D01*
X141368919Y-110726892D01*
X141201890Y-110893921D01*
X141066400Y-111087421D01*
X140966569Y-111301507D01*
X140909364Y-111514999D01*
X140909364Y-111515000D01*
X141806314Y-111515000D01*
X141780507Y-111555156D01*
X141740000Y-111693111D01*
X141740000Y-111836889D01*
X141780507Y-111974844D01*
X141806314Y-112015000D01*
X140909364Y-112015000D01*
X140966569Y-112228492D01*
X141066399Y-112442576D01*
X141201893Y-112636081D01*
X141368918Y-112803106D01*
X141554595Y-112933119D01*
X141598219Y-112987696D01*
X141605412Y-113057195D01*
X141573890Y-113119549D01*
X141554595Y-113136269D01*
X141368595Y-113266508D01*
X141201505Y-113433598D01*
X141065965Y-113627170D01*
X140966097Y-113841336D01*
X140904936Y-114069592D01*
X140884340Y-114305000D01*
X129435921Y-114305000D01*
X128758091Y-113627170D01*
X126258816Y-111127895D01*
X126225333Y-111066575D01*
X126222500Y-111040226D01*
X126222500Y-100598276D01*
X126222540Y-100595135D01*
X126224757Y-100507640D01*
X126224756Y-100507639D01*
X126224757Y-100507637D01*
X126214344Y-100449545D01*
X126213042Y-100440260D01*
X126207074Y-100381562D01*
X126197962Y-100352524D01*
X126194224Y-100337291D01*
X126188858Y-100307348D01*
X126166975Y-100252563D01*
X126163815Y-100243686D01*
X126146159Y-100187412D01*
X126131398Y-100160817D01*
X126124663Y-100146636D01*
X126113378Y-100118384D01*
X126113378Y-100118383D01*
X126080901Y-100069106D01*
X126076040Y-100061082D01*
X126047409Y-100009498D01*
X126047408Y-100009496D01*
X126027593Y-99986415D01*
X126018144Y-99973883D01*
X126001402Y-99948481D01*
X125959699Y-99906779D01*
X125953292Y-99899866D01*
X125914865Y-99855103D01*
X125890802Y-99836477D01*
X125879022Y-99826102D01*
X122951342Y-96898422D01*
X122917857Y-96837099D01*
X122915447Y-96800499D01*
X122917643Y-96773998D01*
X122902050Y-96585821D01*
X122897108Y-96526179D01*
X122836063Y-96285119D01*
X122736173Y-96057393D01*
X122600164Y-95849215D01*
X122431744Y-95666262D01*
X122374099Y-95621395D01*
X122235514Y-95513529D01*
X122235510Y-95513526D01*
X122235509Y-95513526D01*
X122016810Y-95395172D01*
X122016806Y-95395170D01*
X122016805Y-95395170D01*
X121781615Y-95314429D01*
X121536335Y-95273500D01*
X121287665Y-95273500D01*
X121042384Y-95314429D01*
X120807194Y-95395170D01*
X120807190Y-95395171D01*
X120807190Y-95395172D01*
X120725150Y-95439570D01*
X120588485Y-95513529D01*
X120392259Y-95666259D01*
X120392256Y-95666261D01*
X120392256Y-95666262D01*
X120225719Y-95847170D01*
X120223837Y-95849214D01*
X120087825Y-96057395D01*
X120036334Y-96174785D01*
X119987937Y-96285119D01*
X119969547Y-96357740D01*
X119926891Y-96526183D01*
X119906356Y-96773999D01*
X118170082Y-96773999D01*
X118175063Y-96755408D01*
X118195659Y-96520000D01*
X118175063Y-96284592D01*
X118113903Y-96056337D01*
X118014035Y-95842171D01*
X117878495Y-95648599D01*
X117711401Y-95481505D01*
X117525839Y-95351573D01*
X117482215Y-95296997D01*
X117475023Y-95227498D01*
X117506545Y-95165144D01*
X117525831Y-95148432D01*
X117711401Y-95018495D01*
X117878495Y-94851401D01*
X118014035Y-94657830D01*
X118113903Y-94443663D01*
X118175063Y-94215408D01*
X118195659Y-93980000D01*
X118175063Y-93744592D01*
X118113903Y-93516337D01*
X118014035Y-93302171D01*
X117878495Y-93108599D01*
X117711401Y-92941505D01*
X117525839Y-92811573D01*
X117482216Y-92756998D01*
X117475022Y-92687500D01*
X117506545Y-92625145D01*
X117525837Y-92608428D01*
X117711401Y-92478495D01*
X117878495Y-92311401D01*
X118014035Y-92117830D01*
X118113903Y-91903663D01*
X118175063Y-91675408D01*
X118195659Y-91440000D01*
X118175063Y-91204592D01*
X118113903Y-90976337D01*
X118014035Y-90762171D01*
X117878495Y-90568599D01*
X117711401Y-90401505D01*
X117525839Y-90271573D01*
X117482215Y-90216997D01*
X117475023Y-90147498D01*
X117506545Y-90085144D01*
X117525831Y-90068432D01*
X117711401Y-89938495D01*
X117878495Y-89771401D01*
X118014035Y-89577830D01*
X118113903Y-89363663D01*
X118175063Y-89135408D01*
X118195659Y-88900000D01*
X118175063Y-88664592D01*
X118113903Y-88436337D01*
X118014035Y-88222171D01*
X117878495Y-88028599D01*
X117711401Y-87861505D01*
X117525839Y-87731573D01*
X117482216Y-87676998D01*
X117475022Y-87607500D01*
X117506545Y-87545145D01*
X117525837Y-87528428D01*
X117711401Y-87398495D01*
X117878495Y-87231401D01*
X118014035Y-87037830D01*
X118113903Y-86823663D01*
X118175063Y-86595408D01*
X118195659Y-86360000D01*
X118175063Y-86124592D01*
X118113903Y-85896337D01*
X118014035Y-85682171D01*
X117878495Y-85488599D01*
X117711401Y-85321505D01*
X117525839Y-85191573D01*
X117482215Y-85136997D01*
X117475023Y-85067498D01*
X117506545Y-85005144D01*
X117525831Y-84988432D01*
X117711401Y-84858495D01*
X117878495Y-84691401D01*
X118014035Y-84497830D01*
X118113903Y-84283663D01*
X118175063Y-84055408D01*
X118195659Y-83820000D01*
X118175063Y-83584592D01*
X118113903Y-83356337D01*
X118014035Y-83142171D01*
X117878495Y-82948599D01*
X117711401Y-82781505D01*
X117525839Y-82651573D01*
X117482216Y-82596998D01*
X117475022Y-82527500D01*
X117506545Y-82465145D01*
X117525837Y-82448428D01*
X117711401Y-82318495D01*
X117878495Y-82151401D01*
X118014035Y-81957830D01*
X118113903Y-81743663D01*
X118175063Y-81515408D01*
X118195659Y-81280000D01*
X118175063Y-81044592D01*
X118113903Y-80816337D01*
X118014035Y-80602171D01*
X117878495Y-80408599D01*
X117711401Y-80241505D01*
X117525839Y-80111573D01*
X117482215Y-80056997D01*
X117475023Y-79987498D01*
X117506545Y-79925144D01*
X117525831Y-79908432D01*
X117711401Y-79778495D01*
X117878495Y-79611401D01*
X118014035Y-79417830D01*
X118113903Y-79203663D01*
X118175063Y-78975408D01*
X118195659Y-78740000D01*
X118175063Y-78504592D01*
X118113903Y-78276337D01*
X118014035Y-78062171D01*
X117878495Y-77868599D01*
X117711401Y-77701505D01*
X117517830Y-77565965D01*
X117303663Y-77466097D01*
X117230525Y-77446500D01*
X117075407Y-77404936D01*
X116840000Y-77384340D01*
X116604592Y-77404936D01*
X116376336Y-77466097D01*
X116162170Y-77565965D01*
X115968598Y-77701505D01*
X115801505Y-77868598D01*
X115665965Y-78062170D01*
X115566097Y-78276336D01*
X115504936Y-78504592D01*
X115484340Y-78739999D01*
X115504936Y-78975407D01*
X115549709Y-79142501D01*
X115566097Y-79203663D01*
X115665965Y-79417830D01*
X115801505Y-79611401D01*
X115968599Y-79778495D01*
X116154160Y-79908426D01*
X116197783Y-79963002D01*
X116204976Y-80032501D01*
X116173454Y-80094855D01*
X116154160Y-80111574D01*
X116028792Y-80199358D01*
X115968595Y-80241508D01*
X115801505Y-80408598D01*
X115665965Y-80602170D01*
X115566097Y-80816336D01*
X115504936Y-81044592D01*
X115484340Y-81280000D01*
X115504936Y-81515407D01*
X115545936Y-81668420D01*
X115566097Y-81743663D01*
X115665965Y-81957830D01*
X115801505Y-82151401D01*
X115968599Y-82318495D01*
X116154160Y-82448426D01*
X116197783Y-82503002D01*
X116204976Y-82572501D01*
X116173454Y-82634855D01*
X116154159Y-82651575D01*
X115968595Y-82781508D01*
X115801505Y-82948598D01*
X115665965Y-83142170D01*
X115566097Y-83356336D01*
X115504936Y-83584592D01*
X115484340Y-83820000D01*
X115504936Y-84055407D01*
X115549709Y-84222502D01*
X115566097Y-84283663D01*
X115665965Y-84497830D01*
X115801505Y-84691401D01*
X115968599Y-84858495D01*
X116154160Y-84988426D01*
X116197783Y-85043002D01*
X116204976Y-85112501D01*
X116173454Y-85174855D01*
X116154160Y-85191574D01*
X116024329Y-85282483D01*
X115968595Y-85321508D01*
X115801505Y-85488598D01*
X115665965Y-85682170D01*
X115566097Y-85896336D01*
X115504936Y-86124592D01*
X115484340Y-86360000D01*
X115504936Y-86595407D01*
X115549709Y-86762502D01*
X115566097Y-86823663D01*
X115665965Y-87037830D01*
X115801505Y-87231401D01*
X115968599Y-87398495D01*
X116154160Y-87528426D01*
X116197783Y-87583002D01*
X116204976Y-87652501D01*
X116173454Y-87714855D01*
X116154158Y-87731575D01*
X115970035Y-87860500D01*
X115968595Y-87861508D01*
X115801505Y-88028598D01*
X115665965Y-88222170D01*
X115566097Y-88436336D01*
X115504936Y-88664592D01*
X115484340Y-88899999D01*
X115504936Y-89135407D01*
X115549709Y-89302502D01*
X115566097Y-89363663D01*
X115665965Y-89577830D01*
X115801505Y-89771401D01*
X115968599Y-89938495D01*
X116154160Y-90068426D01*
X116197783Y-90123002D01*
X116204976Y-90192501D01*
X116173454Y-90254855D01*
X116154159Y-90271575D01*
X115968595Y-90401508D01*
X115801505Y-90568598D01*
X115665965Y-90762170D01*
X115566097Y-90976336D01*
X115504936Y-91204592D01*
X115484340Y-91439999D01*
X115504936Y-91675407D01*
X115543948Y-91821000D01*
X115566097Y-91903663D01*
X115665965Y-92117830D01*
X115801505Y-92311401D01*
X115968599Y-92478495D01*
X116154160Y-92608426D01*
X116197783Y-92663002D01*
X116204976Y-92732501D01*
X116173454Y-92794855D01*
X116154158Y-92811575D01*
X115983751Y-92930896D01*
X115968595Y-92941508D01*
X115801505Y-93108598D01*
X115665965Y-93302170D01*
X115566097Y-93516336D01*
X115504936Y-93744592D01*
X115484340Y-93980000D01*
X115504936Y-94215407D01*
X115534359Y-94325214D01*
X115566097Y-94443663D01*
X115665965Y-94657830D01*
X115801505Y-94851401D01*
X115968599Y-95018495D01*
X116154160Y-95148426D01*
X116197783Y-95203002D01*
X116204976Y-95272501D01*
X116173454Y-95334855D01*
X116154160Y-95351574D01*
X115970035Y-95480500D01*
X115968595Y-95481508D01*
X115801505Y-95648598D01*
X115665965Y-95842170D01*
X115566097Y-96056336D01*
X115504936Y-96284592D01*
X115484340Y-96520000D01*
X115504936Y-96755407D01*
X115532367Y-96857780D01*
X115566097Y-96983663D01*
X115665965Y-97197830D01*
X115801505Y-97391401D01*
X115968599Y-97558495D01*
X116154160Y-97688426D01*
X116197783Y-97743002D01*
X116204976Y-97812501D01*
X116173454Y-97874855D01*
X116154159Y-97891575D01*
X115968595Y-98021508D01*
X115801505Y-98188598D01*
X115665965Y-98382170D01*
X115566097Y-98596336D01*
X115504936Y-98824592D01*
X115484340Y-99060000D01*
X115504936Y-99295407D01*
X115530496Y-99390798D01*
X115566097Y-99523663D01*
X115665965Y-99737830D01*
X115801505Y-99931401D01*
X115968599Y-100098495D01*
X116154160Y-100228426D01*
X116197783Y-100283002D01*
X116204976Y-100352501D01*
X116173454Y-100414855D01*
X116154160Y-100431574D01*
X115970035Y-100560500D01*
X115968595Y-100561508D01*
X115801505Y-100728598D01*
X115665965Y-100922170D01*
X115566097Y-101136336D01*
X115504936Y-101364592D01*
X115484340Y-101599999D01*
X115504936Y-101835407D01*
X115525021Y-101910364D01*
X115566097Y-102063663D01*
X115665965Y-102277830D01*
X115801505Y-102471401D01*
X115968599Y-102638495D01*
X116154160Y-102768426D01*
X116197783Y-102823002D01*
X116204976Y-102892501D01*
X116173454Y-102954855D01*
X116154159Y-102971575D01*
X116147018Y-102976575D01*
X116045847Y-103047416D01*
X115968595Y-103101508D01*
X115801505Y-103268598D01*
X115665965Y-103462170D01*
X115566097Y-103676336D01*
X115504936Y-103904592D01*
X115484340Y-104139999D01*
X115504936Y-104375407D01*
X115511574Y-104400179D01*
X115566097Y-104603663D01*
X115665965Y-104817830D01*
X115801505Y-105011401D01*
X115968599Y-105178495D01*
X116154160Y-105308426D01*
X116197783Y-105363002D01*
X116204976Y-105432501D01*
X116173454Y-105494855D01*
X116154160Y-105511574D01*
X115970035Y-105640500D01*
X115968595Y-105641508D01*
X115801505Y-105808598D01*
X115665965Y-106002170D01*
X115566097Y-106216336D01*
X115504936Y-106444592D01*
X115484340Y-106680000D01*
X104140500Y-106680000D01*
X104140500Y-101600000D01*
X107864340Y-101600000D01*
X107884936Y-101835407D01*
X107905021Y-101910364D01*
X107946097Y-102063663D01*
X108045965Y-102277830D01*
X108181505Y-102471401D01*
X108181508Y-102471404D01*
X108303818Y-102593714D01*
X108337303Y-102655037D01*
X108332319Y-102724729D01*
X108290447Y-102780662D01*
X108259472Y-102797576D01*
X108127913Y-102846646D01*
X108012811Y-102932811D01*
X107926647Y-103047910D01*
X107876400Y-103182628D01*
X107870354Y-103238867D01*
X107870000Y-103245481D01*
X107870000Y-103890000D01*
X108786314Y-103890000D01*
X108760507Y-103930156D01*
X108720000Y-104068111D01*
X108720000Y-104211889D01*
X108760507Y-104349844D01*
X108786314Y-104390000D01*
X107870000Y-104390000D01*
X107870000Y-105034518D01*
X107870354Y-105041132D01*
X107876400Y-105097371D01*
X107926647Y-105232089D01*
X108012811Y-105347188D01*
X108127910Y-105433352D01*
X108262628Y-105483599D01*
X108318867Y-105489645D01*
X108325482Y-105490000D01*
X108969999Y-105490000D01*
X108969999Y-104575501D01*
X109077685Y-104624680D01*
X109184237Y-104640000D01*
X109255763Y-104640000D01*
X109362315Y-104624680D01*
X109470000Y-104575501D01*
X109470000Y-105490000D01*
X110114518Y-105490000D01*
X110121132Y-105489645D01*
X110177371Y-105483599D01*
X110312089Y-105433352D01*
X110427188Y-105347188D01*
X110513352Y-105232089D01*
X110563599Y-105097371D01*
X110569645Y-105041132D01*
X110570000Y-105034518D01*
X110570000Y-104390000D01*
X109653686Y-104390000D01*
X109679493Y-104349844D01*
X109720000Y-104211889D01*
X109720000Y-104068111D01*
X109679493Y-103930156D01*
X109653686Y-103890000D01*
X110570000Y-103890000D01*
X110570000Y-103245481D01*
X110569645Y-103238867D01*
X110563599Y-103182628D01*
X110513352Y-103047910D01*
X110427188Y-102932811D01*
X110312088Y-102846647D01*
X110180528Y-102797577D01*
X110124594Y-102755705D01*
X110100178Y-102690240D01*
X110115030Y-102621967D01*
X110136175Y-102593720D01*
X110258495Y-102471401D01*
X110394035Y-102277830D01*
X110493903Y-102063663D01*
X110555063Y-101835408D01*
X110575659Y-101600000D01*
X110555063Y-101364592D01*
X110493903Y-101136337D01*
X110394035Y-100922171D01*
X110258495Y-100728599D01*
X110091401Y-100561505D01*
X109897830Y-100425965D01*
X109683663Y-100326097D01*
X109613679Y-100307345D01*
X109455407Y-100264936D01*
X109220000Y-100244340D01*
X108984592Y-100264936D01*
X108756336Y-100326097D01*
X108542170Y-100425965D01*
X108348598Y-100561505D01*
X108181505Y-100728598D01*
X108045965Y-100922170D01*
X107946097Y-101136336D01*
X107884936Y-101364592D01*
X107864340Y-101600000D01*
X104140500Y-101600000D01*
X104140500Y-94874578D01*
X107869500Y-94874578D01*
X107869501Y-94877872D01*
X107869853Y-94881152D01*
X107869854Y-94881159D01*
X107875909Y-94937484D01*
X107901056Y-95004906D01*
X107926204Y-95072331D01*
X108012454Y-95187546D01*
X108127669Y-95273796D01*
X108262517Y-95324091D01*
X108322127Y-95330500D01*
X110117872Y-95330499D01*
X110177483Y-95324091D01*
X110312331Y-95273796D01*
X110427546Y-95187546D01*
X110513796Y-95072331D01*
X110564091Y-94937483D01*
X110570500Y-94877873D01*
X110570499Y-93082128D01*
X110564091Y-93022517D01*
X110513796Y-92887669D01*
X110427546Y-92772454D01*
X110312331Y-92686204D01*
X110180399Y-92636996D01*
X110124467Y-92595125D01*
X110100050Y-92529661D01*
X110114902Y-92461388D01*
X110136053Y-92433133D01*
X110258109Y-92311077D01*
X110393600Y-92117576D01*
X110493430Y-91903492D01*
X110550636Y-91690000D01*
X109653686Y-91690000D01*
X109679493Y-91649844D01*
X109720000Y-91511889D01*
X109720000Y-91368111D01*
X109679493Y-91230156D01*
X109653686Y-91190000D01*
X110550636Y-91190000D01*
X110550635Y-91189999D01*
X110493430Y-90976507D01*
X110393599Y-90762421D01*
X110258109Y-90568921D01*
X110091081Y-90401893D01*
X109897576Y-90266399D01*
X109683492Y-90166569D01*
X109469999Y-90109364D01*
X109469999Y-91004498D01*
X109362315Y-90955320D01*
X109255763Y-90940000D01*
X109184237Y-90940000D01*
X109077685Y-90955320D01*
X108970000Y-91004498D01*
X108970000Y-90109364D01*
X108969999Y-90109364D01*
X108756507Y-90166569D01*
X108542421Y-90266400D01*
X108348921Y-90401890D01*
X108181890Y-90568921D01*
X108046400Y-90762421D01*
X107946569Y-90976507D01*
X107889364Y-91189999D01*
X107889364Y-91190000D01*
X108786314Y-91190000D01*
X108760507Y-91230156D01*
X108720000Y-91368111D01*
X108720000Y-91511889D01*
X108760507Y-91649844D01*
X108786314Y-91690000D01*
X107889364Y-91690000D01*
X107946569Y-91903492D01*
X108046399Y-92117576D01*
X108181893Y-92311081D01*
X108303946Y-92433134D01*
X108337431Y-92494457D01*
X108332447Y-92564149D01*
X108290575Y-92620082D01*
X108259599Y-92636997D01*
X108127669Y-92686204D01*
X108012454Y-92772454D01*
X107926204Y-92887668D01*
X107875909Y-93022516D01*
X107870004Y-93077443D01*
X107869500Y-93082127D01*
X107869500Y-93085448D01*
X107869500Y-93085449D01*
X107869500Y-94874560D01*
X107869500Y-94874578D01*
X104140500Y-94874578D01*
X104140500Y-63499999D01*
X151044340Y-63499999D01*
X151064936Y-63735407D01*
X151090496Y-63830798D01*
X151126097Y-63963663D01*
X151225965Y-64177830D01*
X151361505Y-64371401D01*
X151528599Y-64538495D01*
X151722170Y-64674035D01*
X151936337Y-64773903D01*
X152164592Y-64835063D01*
X152400000Y-64855659D01*
X152635408Y-64835063D01*
X152863663Y-64773903D01*
X153077830Y-64674035D01*
X153271401Y-64538495D01*
X153438495Y-64371401D01*
X153568426Y-64185839D01*
X153623002Y-64142216D01*
X153692500Y-64135022D01*
X153754855Y-64166545D01*
X153771571Y-64185837D01*
X153901505Y-64371401D01*
X154068599Y-64538495D01*
X154262170Y-64674035D01*
X154476337Y-64773903D01*
X154688059Y-64830633D01*
X154704592Y-64835063D01*
X154939999Y-64855659D01*
X154939999Y-64855658D01*
X154940000Y-64855659D01*
X155175408Y-64835063D01*
X155403663Y-64773903D01*
X155617830Y-64674035D01*
X155811401Y-64538495D01*
X155978495Y-64371401D01*
X156108732Y-64185403D01*
X156163307Y-64141780D01*
X156232805Y-64134586D01*
X156295160Y-64166109D01*
X156311880Y-64185404D01*
X156441893Y-64371081D01*
X156608918Y-64538106D01*
X156802423Y-64673600D01*
X157016509Y-64773430D01*
X157230000Y-64830634D01*
X157230000Y-63935501D01*
X157337685Y-63984680D01*
X157444237Y-64000000D01*
X157515763Y-64000000D01*
X157622315Y-63984680D01*
X157730000Y-63935501D01*
X157730000Y-64830633D01*
X157943490Y-64773430D01*
X158157576Y-64673600D01*
X158351081Y-64538106D01*
X158518109Y-64371078D01*
X158648119Y-64185405D01*
X158702696Y-64141780D01*
X158772194Y-64134586D01*
X158834549Y-64166109D01*
X158851265Y-64185400D01*
X158981505Y-64371401D01*
X159148599Y-64538495D01*
X159342170Y-64674035D01*
X159556337Y-64773903D01*
X159784592Y-64835063D01*
X160020000Y-64855659D01*
X160255408Y-64835063D01*
X160483663Y-64773903D01*
X160697830Y-64674035D01*
X160891401Y-64538495D01*
X161058495Y-64371401D01*
X161188426Y-64185839D01*
X161243002Y-64142216D01*
X161312500Y-64135022D01*
X161374855Y-64166545D01*
X161391571Y-64185837D01*
X161521505Y-64371401D01*
X161688599Y-64538495D01*
X161882170Y-64674035D01*
X162096337Y-64773903D01*
X162324592Y-64835063D01*
X162560000Y-64855659D01*
X162795408Y-64835063D01*
X163023663Y-64773903D01*
X163237830Y-64674035D01*
X163431401Y-64538495D01*
X163553329Y-64416566D01*
X163614648Y-64383084D01*
X163684340Y-64388068D01*
X163740274Y-64429939D01*
X163757189Y-64460916D01*
X163806204Y-64592331D01*
X163892454Y-64707546D01*
X164007669Y-64793796D01*
X164142517Y-64844091D01*
X164202127Y-64850500D01*
X165997872Y-64850499D01*
X166057483Y-64844091D01*
X166192331Y-64793796D01*
X166307546Y-64707546D01*
X166393796Y-64592331D01*
X166444091Y-64457483D01*
X166450500Y-64397873D01*
X166450499Y-62602128D01*
X166444091Y-62542517D01*
X166393796Y-62407669D01*
X166307546Y-62292454D01*
X166192331Y-62206204D01*
X166057483Y-62155909D01*
X165997873Y-62149500D01*
X165994550Y-62149500D01*
X164205439Y-62149500D01*
X164205420Y-62149500D01*
X164202128Y-62149501D01*
X164198848Y-62149853D01*
X164198840Y-62149854D01*
X164142515Y-62155909D01*
X164007669Y-62206204D01*
X163892454Y-62292454D01*
X163806204Y-62407669D01*
X163757189Y-62539083D01*
X163715317Y-62595016D01*
X163649852Y-62619433D01*
X163581580Y-62604581D01*
X163553326Y-62583430D01*
X163431404Y-62461508D01*
X163431403Y-62461507D01*
X163431401Y-62461505D01*
X163237830Y-62325965D01*
X163023663Y-62226097D01*
X162962502Y-62209709D01*
X162795407Y-62164936D01*
X162560000Y-62144340D01*
X162324592Y-62164936D01*
X162096336Y-62226097D01*
X161882170Y-62325965D01*
X161688598Y-62461505D01*
X161521505Y-62628598D01*
X161391575Y-62814159D01*
X161336998Y-62857784D01*
X161267500Y-62864978D01*
X161205145Y-62833455D01*
X161188425Y-62814159D01*
X161058494Y-62628598D01*
X160891404Y-62461508D01*
X160891404Y-62461507D01*
X160891401Y-62461505D01*
X160697830Y-62325965D01*
X160483663Y-62226097D01*
X160422502Y-62209709D01*
X160255407Y-62164936D01*
X160019999Y-62144340D01*
X159784592Y-62164936D01*
X159556336Y-62226097D01*
X159342170Y-62325965D01*
X159148598Y-62461505D01*
X158981508Y-62628595D01*
X158851269Y-62814596D01*
X158796692Y-62858220D01*
X158727193Y-62865413D01*
X158664839Y-62833891D01*
X158648119Y-62814595D01*
X158518109Y-62628921D01*
X158351081Y-62461893D01*
X158157576Y-62326399D01*
X157943492Y-62226569D01*
X157730000Y-62169364D01*
X157730000Y-63064498D01*
X157622315Y-63015320D01*
X157515763Y-63000000D01*
X157444237Y-63000000D01*
X157337685Y-63015320D01*
X157230000Y-63064498D01*
X157230000Y-62169364D01*
X157229999Y-62169364D01*
X157016507Y-62226569D01*
X156802421Y-62326400D01*
X156608921Y-62461890D01*
X156441893Y-62628918D01*
X156311880Y-62814596D01*
X156257303Y-62858220D01*
X156187804Y-62865413D01*
X156125450Y-62833891D01*
X156108730Y-62814595D01*
X155978494Y-62628598D01*
X155811404Y-62461508D01*
X155811404Y-62461507D01*
X155811401Y-62461505D01*
X155617830Y-62325965D01*
X155403663Y-62226097D01*
X155342501Y-62209709D01*
X155175407Y-62164936D01*
X154939999Y-62144340D01*
X154704592Y-62164936D01*
X154476336Y-62226097D01*
X154262170Y-62325965D01*
X154068598Y-62461505D01*
X153901505Y-62628598D01*
X153771575Y-62814159D01*
X153716998Y-62857784D01*
X153647500Y-62864978D01*
X153585145Y-62833455D01*
X153568425Y-62814159D01*
X153438494Y-62628598D01*
X153271404Y-62461508D01*
X153271404Y-62461507D01*
X153271401Y-62461505D01*
X153077830Y-62325965D01*
X152863663Y-62226097D01*
X152802502Y-62209709D01*
X152635407Y-62164936D01*
X152400000Y-62144340D01*
X152164592Y-62164936D01*
X151936336Y-62226097D01*
X151722170Y-62325965D01*
X151528598Y-62461505D01*
X151361505Y-62628598D01*
X151225965Y-62822170D01*
X151126097Y-63036336D01*
X151064936Y-63264592D01*
X151044340Y-63499999D01*
X104140500Y-63499999D01*
X104140500Y-58544500D01*
X104160185Y-58477461D01*
X104212989Y-58431706D01*
X104264500Y-58420500D01*
X195455500Y-58420500D01*
X195522539Y-58440185D01*
G37*
%TD.AperFunction*%
%TD*%
M02*
