%TF.GenerationSoftware,KiCad,Pcbnew,7.0.2*%
%TF.CreationDate,2024-05-24T01:33:13-03:00*%
%TF.ProjectId,EcoMaua_Tx_Telemetry_Module,45636f4d-6175-4615-9f54-785f54656c65,rev?*%
%TF.SameCoordinates,Original*%
%TF.FileFunction,Copper,L2,Bot*%
%TF.FilePolarity,Positive*%
%FSLAX46Y46*%
G04 Gerber Fmt 4.6, Leading zero omitted, Abs format (unit mm)*
G04 Created by KiCad (PCBNEW 7.0.2) date 2024-05-24 01:33:13*
%MOMM*%
%LPD*%
G01*
G04 APERTURE LIST*
%TA.AperFunction,ComponentPad*%
%ADD10R,1.700000X1.700000*%
%TD*%
%TA.AperFunction,ComponentPad*%
%ADD11O,1.700000X1.700000*%
%TD*%
%TA.AperFunction,ViaPad*%
%ADD12C,2.000000*%
%TD*%
%TA.AperFunction,Conductor*%
%ADD13C,1.000000*%
%TD*%
%TA.AperFunction,Conductor*%
%ADD14C,0.250000*%
%TD*%
G04 APERTURE END LIST*
D10*
%TO.P,J10,1,Pin_1*%
%TO.N,GND*%
X149880000Y-81255000D03*
D11*
%TO.P,J10,2,Pin_2*%
%TO.N,+5V*%
X152420000Y-81255000D03*
%TO.P,J10,3,Pin_3*%
%TO.N,E32_433T30D_AUX*%
X154960000Y-81255000D03*
%TO.P,J10,4,Pin_4*%
%TO.N,ESP32_UART_2_RX*%
X157500000Y-81255000D03*
%TO.P,J10,5,Pin_5*%
%TO.N,ESP32_UART_2_TX*%
X160040000Y-81255000D03*
%TO.P,J10,6,Pin_6*%
%TO.N,E32_433T30D_M1*%
X162580000Y-81255000D03*
%TO.P,J10,7,Pin_7*%
%TO.N,E32_433T30D_M0*%
X165120000Y-81255000D03*
%TD*%
D10*
%TO.P,J9,1,Pin_1*%
%TO.N,GND*%
X190500000Y-104140000D03*
D11*
%TO.P,J9,2,Pin_2*%
%TO.N,ESP32_VSPI_MISO*%
X187960000Y-104140000D03*
%TO.P,J9,3,Pin_3*%
%TO.N,ESP32_VSPI_CLK*%
X185420000Y-104140000D03*
%TO.P,J9,4,Pin_4*%
%TO.N,ESP32_VSPI_MOSI*%
X182880000Y-104140000D03*
%TO.P,J9,5,Pin_5*%
%TO.N,SD_CARD_SPI_CS*%
X180340000Y-104140000D03*
%TO.P,J9,6,Pin_6*%
%TO.N,+3.3V*%
X177800000Y-104140000D03*
%TD*%
D10*
%TO.P,J8,1,Pin_1*%
%TO.N,ESP32_HSPI_CLK*%
X152400000Y-73660000D03*
D11*
%TO.P,J8,2,Pin_2*%
%TO.N,ESP32_HSPI_MOSI*%
X154940000Y-73660000D03*
%TO.P,J8,3,Pin_3*%
%TO.N,GND*%
X157480000Y-73660000D03*
%TO.P,J8,4,Pin_4*%
%TO.N,+3.3V*%
X160020000Y-73660000D03*
%TO.P,J8,5,Pin_5*%
%TO.N,ESP32_HSPI_MISO*%
X162560000Y-73660000D03*
%TO.P,J8,6,Pin_6*%
%TO.N,MCP2515_SPI_CS*%
X165100000Y-73660000D03*
%TD*%
D10*
%TO.P,J7,1,Pin_1*%
%TO.N,Net-(J5-Pin_5)*%
X165100000Y-63500000D03*
D11*
%TO.P,J7,2,Pin_2*%
%TO.N,Net-(J5-Pin_4)*%
X162560000Y-63500000D03*
%TO.P,J7,3,Pin_3*%
%TO.N,+5V*%
X160020000Y-63500000D03*
%TO.P,J7,4,Pin_4*%
%TO.N,GND*%
X157480000Y-63500000D03*
%TO.P,J7,5,Pin_5*%
%TO.N,Net-(J5-Pin_3)*%
X154940000Y-63500000D03*
%TO.P,J7,6,Pin_6*%
%TO.N,Net-(J5-Pin_2)*%
X152400000Y-63500000D03*
%TD*%
%TO.P,J6,6,Pin_6*%
%TO.N,unconnected-(J6-Pin_6-Pad6)*%
X172720000Y-99060000D03*
%TO.P,J6,5,Pin_5*%
%TO.N,unconnected-(J6-Pin_5-Pad5)*%
X175260000Y-99060000D03*
%TO.P,J6,4,Pin_4*%
%TO.N,ESP32_I2C_SCL*%
X177800000Y-99060000D03*
%TO.P,J6,3,Pin_3*%
%TO.N,ESP32_I2C_SDA*%
X180340000Y-99060000D03*
%TO.P,J6,2,Pin_2*%
%TO.N,+3.3V*%
X182880000Y-99060000D03*
D10*
%TO.P,J6,1,Pin_1*%
%TO.N,GND*%
X185420000Y-99060000D03*
%TD*%
%TO.P,J5,1,Pin_1*%
%TO.N,unconnected-(J5-Pin_1-Pad1)*%
X121940000Y-66015000D03*
D11*
%TO.P,J5,2,Pin_2*%
%TO.N,Net-(J5-Pin_2)*%
X124480000Y-66015000D03*
%TO.P,J5,3,Pin_3*%
%TO.N,Net-(J5-Pin_3)*%
X127020000Y-66015000D03*
%TO.P,J5,4,Pin_4*%
%TO.N,Net-(J5-Pin_4)*%
X129560000Y-66015000D03*
%TO.P,J5,5,Pin_5*%
%TO.N,Net-(J5-Pin_5)*%
X132100000Y-66015000D03*
%TO.P,J5,6,Pin_6*%
%TO.N,GND*%
X134640000Y-66015000D03*
%TO.P,J5,7,Pin_7*%
%TO.N,+5V*%
X137180000Y-66015000D03*
%TD*%
D10*
%TO.P,J4,1,Pin_1*%
%TO.N,+5V*%
X109220000Y-114300000D03*
D11*
%TO.P,J4,2,Pin_2*%
%TO.N,GND*%
X109220000Y-111760000D03*
%TD*%
D10*
%TO.P,J3,1,Pin_1*%
%TO.N,ESP32_VSPI_MOSI*%
X142240000Y-78745000D03*
D11*
%TO.P,J3,2,Pin_2*%
%TO.N,ESP32_I2C_SCL*%
X142240000Y-81285000D03*
%TO.P,J3,3,Pin_3*%
%TO.N,unconnected-(J3-Pin_3-Pad3)*%
X142240000Y-83825000D03*
%TO.P,J3,4,Pin_4*%
%TO.N,unconnected-(J3-Pin_4-Pad4)*%
X142240000Y-86365000D03*
%TO.P,J3,5,Pin_5*%
%TO.N,ESP32_I2C_SDA*%
X142240000Y-88905000D03*
%TO.P,J3,6,Pin_6*%
%TO.N,ESP32_VSPI_MISO*%
X142240000Y-91445000D03*
%TO.P,J3,7,Pin_7*%
%TO.N,ESP32_VSPI_CLK*%
X142240000Y-93985000D03*
%TO.P,J3,8,Pin_8*%
%TO.N,unconnected-(J3-Pin_8-Pad8)*%
X142240000Y-96525000D03*
%TO.P,J3,9,Pin_9*%
%TO.N,ESP32_UART_2_TX*%
X142240000Y-99065000D03*
%TO.P,J3,10,Pin_10*%
%TO.N,ESP32_UART_2_RX*%
X142240000Y-101605000D03*
%TO.P,J3,11,Pin_11*%
%TO.N,unconnected-(J3-Pin_11-Pad11)*%
X142240000Y-104145000D03*
%TO.P,J3,12,Pin_12*%
%TO.N,unconnected-(J3-Pin_12-Pad12)*%
X142240000Y-106685000D03*
%TO.P,J3,13,Pin_13*%
%TO.N,unconnected-(J3-Pin_13-Pad13)*%
X142240000Y-109225000D03*
%TO.P,J3,14,Pin_14*%
%TO.N,GND*%
X142240000Y-111765000D03*
%TO.P,J3,15,Pin_15*%
%TO.N,+3.3V*%
X142240000Y-114305000D03*
%TD*%
D10*
%TO.P,J2,1,Pin_1*%
%TO.N,GND*%
X109220000Y-104140000D03*
D11*
%TO.P,J2,2,Pin_2*%
%TO.N,+24V*%
X109220000Y-101600000D03*
%TD*%
D10*
%TO.P,J1,1,Pin_1*%
%TO.N,+5V*%
X116840000Y-114300000D03*
D11*
%TO.P,J1,2,Pin_2*%
%TO.N,GND*%
X116840000Y-111760000D03*
%TO.P,J1,3,Pin_3*%
%TO.N,ESP32_HSPI_MOSI*%
X116840000Y-109220000D03*
%TO.P,J1,4,Pin_4*%
%TO.N,unconnected-(J1-Pin_4-Pad4)*%
X116840000Y-106680000D03*
%TO.P,J1,5,Pin_5*%
%TO.N,ESP32_HSPI_CLK*%
X116840000Y-104140000D03*
%TO.P,J1,6,Pin_6*%
%TO.N,E32_433T30D_AUX*%
X116840000Y-101600000D03*
%TO.P,J1,7,Pin_7*%
%TO.N,MCP2515_SPI_CS*%
X116840000Y-99060000D03*
%TO.P,J1,8,Pin_8*%
%TO.N,SD_CARD_SPI_CS*%
X116840000Y-96520000D03*
%TO.P,J1,9,Pin_9*%
%TO.N,E32_433T30D_M1*%
X116840000Y-93980000D03*
%TO.P,J1,10,Pin_10*%
%TO.N,E32_433T30D_M0*%
X116840000Y-91440000D03*
%TO.P,J1,11,Pin_11*%
%TO.N,unconnected-(J1-Pin_11-Pad11)*%
X116840000Y-88900000D03*
%TO.P,J1,12,Pin_12*%
%TO.N,ESP32_HSPI_MISO*%
X116840000Y-86360000D03*
%TO.P,J1,13,Pin_13*%
%TO.N,unconnected-(J1-Pin_13-Pad13)*%
X116840000Y-83820000D03*
%TO.P,J1,14,Pin_14*%
%TO.N,unconnected-(J1-Pin_14-Pad14)*%
X116840000Y-81280000D03*
%TO.P,J1,15,Pin_15*%
%TO.N,unconnected-(J1-Pin_15-Pad15)*%
X116840000Y-78740000D03*
%TD*%
D10*
%TO.P,BT1,1,+*%
%TO.N,+24V*%
X109220000Y-93980000D03*
D11*
%TO.P,BT1,2,-*%
%TO.N,GND*%
X109220000Y-91440000D03*
%TD*%
D12*
%TO.N,GND*%
X154940000Y-88138000D03*
X157226000Y-96266000D03*
X145796000Y-96012000D03*
X149352000Y-61976000D03*
X143510000Y-68426500D03*
X124714000Y-96012000D03*
X136144000Y-82042000D03*
X136906000Y-94234000D03*
X121666000Y-88900000D03*
X134620000Y-111760000D03*
X114300000Y-65278000D03*
X154940000Y-60198000D03*
X157480000Y-76708000D03*
%TO.N,MCP2515_SPI_CS*%
X164454509Y-70734593D03*
%TO.N,E32_433T30D_M0*%
X165100000Y-84074000D03*
X136176500Y-76832298D03*
%TO.N,+5V*%
X153670000Y-79048500D03*
%TO.N,MCP2515_SPI_CS*%
X129032000Y-95250000D03*
%TO.N,ESP32_I2C_SDA*%
X146050000Y-88900000D03*
X170720500Y-89408000D03*
%TO.N,ESP32_I2C_SCL*%
X146050000Y-86360000D03*
X162306000Y-86360000D03*
%TO.N,GND*%
X149860000Y-79048500D03*
%TO.N,+3.3V*%
X170688000Y-75946000D03*
%TO.N,+5V*%
X170434000Y-72136000D03*
%TO.N,GND*%
X188468000Y-99060000D03*
X188468000Y-93218000D03*
%TO.N,+5V*%
X136361088Y-68823230D03*
%TO.N,ESP32_HSPI_MOSI*%
X133604000Y-76708000D03*
%TO.N,ESP32_HSPI_CLK*%
X131064000Y-76708000D03*
%TO.N,SD_CARD_SPI_CS*%
X121412000Y-96774000D03*
%TO.N,ESP32_HSPI_CLK*%
X129794000Y-104140000D03*
%TO.N,ESP32_HSPI_MOSI*%
X130048000Y-109220000D03*
%TO.N,ESP32_VSPI_MOSI*%
X155321000Y-91821000D03*
X167386000Y-103886000D03*
%TO.N,ESP32_UART_2_TX*%
X152146000Y-101092000D03*
X146050000Y-99060000D03*
%TO.N,ESP32_VSPI_MISO*%
X146050000Y-91445000D03*
X158496000Y-104648000D03*
%TO.N,ESP32_VSPI_CLK*%
X163068000Y-104013000D03*
X151892000Y-93980000D03*
%TO.N,SD_CARD_SPI_CS*%
X173736000Y-106680000D03*
%TO.N,+3.3V*%
X173736000Y-104140000D03*
X182880000Y-96338000D03*
%TD*%
D13*
%TO.N,MCP2515_SPI_CS*%
X118364000Y-99060000D02*
X116840000Y-99060000D01*
X124206000Y-100076000D02*
X119380000Y-100076000D01*
X119380000Y-100076000D02*
X118364000Y-99060000D01*
X129032000Y-95250000D02*
X124206000Y-100076000D01*
%TO.N,ESP32_HSPI_CLK*%
X118364000Y-104140000D02*
X116840000Y-104140000D01*
X119380000Y-103124000D02*
X118364000Y-104140000D01*
X128778000Y-104140000D02*
X127762000Y-103124000D01*
X129794000Y-104140000D02*
X128778000Y-104140000D01*
X127762000Y-103124000D02*
X119380000Y-103124000D01*
%TO.N,+5V*%
X117348000Y-71882000D02*
X113093000Y-76137000D01*
X131214720Y-71882000D02*
X117348000Y-71882000D01*
X113093000Y-76137000D02*
X113093000Y-114237000D01*
X132992720Y-70104000D02*
X131214720Y-71882000D01*
X113093000Y-114237000D02*
X113030000Y-114300000D01*
X135080318Y-70104000D02*
X132992720Y-70104000D01*
X136361088Y-68823230D02*
X135080318Y-70104000D01*
%TO.N,ESP32_HSPI_MISO*%
X161362000Y-70176000D02*
X162560000Y-71374000D01*
X137836040Y-70176000D02*
X161362000Y-70176000D01*
X136384040Y-71628000D02*
X137836040Y-70176000D01*
X133315572Y-71628000D02*
X136384040Y-71628000D01*
X129032000Y-75911572D02*
X133315572Y-71628000D01*
X162560000Y-71374000D02*
X162560000Y-73660000D01*
X122936000Y-86360000D02*
X129032000Y-80264000D01*
X116840000Y-86360000D02*
X122936000Y-86360000D01*
X129032000Y-80264000D02*
X129032000Y-75911572D01*
%TO.N,ESP32_HSPI_CLK*%
X138457360Y-71676000D02*
X150416000Y-71676000D01*
X134187360Y-73152000D02*
X136981360Y-73152000D01*
X131064000Y-76275360D02*
X134187360Y-73152000D01*
X136981360Y-73152000D02*
X138457360Y-71676000D01*
X131064000Y-76708000D02*
X131064000Y-76275360D01*
X150416000Y-71676000D02*
X152400000Y-73660000D01*
%TO.N,ESP32_HSPI_MOSI*%
X154940000Y-74422000D02*
X154940000Y-73660000D01*
X153852000Y-75510000D02*
X154940000Y-74422000D01*
X137578680Y-74676000D02*
X139078680Y-73176000D01*
X134784680Y-74676000D02*
X137578680Y-74676000D01*
X139078680Y-73176000D02*
X147852000Y-73176000D01*
X147852000Y-73176000D02*
X150186000Y-75510000D01*
X150186000Y-75510000D02*
X153852000Y-75510000D01*
X133604000Y-75856680D02*
X134784680Y-74676000D01*
X133604000Y-76708000D02*
X133604000Y-75856680D01*
%TO.N,E32_433T30D_M1*%
X162580000Y-80030000D02*
X162580000Y-81255000D01*
X161290000Y-78740000D02*
X162580000Y-80030000D01*
X156655000Y-78740000D02*
X161290000Y-78740000D01*
X139700000Y-74676000D02*
X147066000Y-74676000D01*
X147066000Y-74676000D02*
X149352000Y-76962000D01*
X154877000Y-76962000D02*
X156655000Y-78740000D01*
X138176000Y-76200000D02*
X139700000Y-74676000D01*
X138176000Y-82804000D02*
X138176000Y-76200000D01*
X149352000Y-76962000D02*
X154877000Y-76962000D01*
X127000000Y-93980000D02*
X138176000Y-82804000D01*
X116840000Y-93980000D02*
X127000000Y-93980000D01*
%TO.N,ESP32_I2C_SDA*%
X180340000Y-96774000D02*
X180340000Y-99060000D01*
X172974000Y-89408000D02*
X180340000Y-96774000D01*
X170720500Y-89408000D02*
X172974000Y-89408000D01*
%TO.N,ESP32_VSPI_MISO*%
X181610000Y-112776000D02*
X187960000Y-106426000D01*
X166624000Y-112776000D02*
X181610000Y-112776000D01*
X187960000Y-106426000D02*
X187960000Y-104140000D01*
X158496000Y-104648000D02*
X166624000Y-112776000D01*
%TO.N,ESP32_VSPI_MOSI*%
X143515000Y-78745000D02*
X142240000Y-78745000D01*
X154977680Y-91821000D02*
X145058000Y-81901320D01*
X155321000Y-91821000D02*
X154977680Y-91821000D01*
X145058000Y-80288000D02*
X143515000Y-78745000D01*
X145058000Y-81901320D02*
X145058000Y-80288000D01*
X182880000Y-105664000D02*
X182880000Y-104140000D01*
X179832000Y-108712000D02*
X182880000Y-105664000D01*
X172339000Y-108712000D02*
X179832000Y-108712000D01*
X167513000Y-103886000D02*
X172339000Y-108712000D01*
X167386000Y-103886000D02*
X167513000Y-103886000D01*
%TO.N,ESP32_UART_2_RX*%
X148839000Y-101605000D02*
X142240000Y-101605000D01*
X157500000Y-81255000D02*
X157500000Y-92944000D01*
X157500000Y-92944000D02*
X148839000Y-101605000D01*
%TO.N,ESP32_VSPI_MISO*%
X146050000Y-91445000D02*
X142240000Y-91445000D01*
%TO.N,GND*%
X140457000Y-111760000D02*
X140462000Y-111765000D01*
X134620000Y-111760000D02*
X140457000Y-111760000D01*
%TO.N,+3.3V*%
X161108000Y-75510000D02*
X170252000Y-75510000D01*
X160020000Y-74422000D02*
X161108000Y-75510000D01*
X160020000Y-73660000D02*
X160020000Y-74422000D01*
X170252000Y-75510000D02*
X170688000Y-75946000D01*
%TO.N,GND*%
X158496000Y-59182000D02*
X175768000Y-59182000D01*
X157480000Y-60198000D02*
X158496000Y-59182000D01*
X175768000Y-59182000D02*
X176911000Y-60325000D01*
X157480000Y-63500000D02*
X157480000Y-60198000D01*
X154940000Y-60198000D02*
X157480000Y-60198000D01*
X114300000Y-65278000D02*
X114300000Y-70358000D01*
%TO.N,Net-(J5-Pin_5)*%
X162536000Y-68350000D02*
X165100000Y-65786000D01*
X165100000Y-65786000D02*
X165100000Y-63500000D01*
X133096000Y-64008000D02*
X144347360Y-64008000D01*
X132100000Y-65004000D02*
X133096000Y-64008000D01*
X144347360Y-64008000D02*
X148689360Y-68350000D01*
X148689360Y-68350000D02*
X162536000Y-68350000D01*
X132100000Y-66015000D02*
X132100000Y-65004000D01*
%TO.N,Net-(J5-Pin_4)*%
X162433000Y-63627000D02*
X162433000Y-64643000D01*
X162560000Y-63500000D02*
X162433000Y-63627000D01*
X162433000Y-64643000D02*
X160226000Y-66850000D01*
X160226000Y-66850000D02*
X149310680Y-66850000D01*
X129560000Y-64242000D02*
X129560000Y-66015000D01*
X149310680Y-66850000D02*
X144968680Y-62508000D01*
X131294000Y-62508000D02*
X129560000Y-64242000D01*
X144968680Y-62508000D02*
X131294000Y-62508000D01*
%TO.N,Net-(J5-Pin_3)*%
X154940000Y-64770000D02*
X154940000Y-63500000D01*
X127020000Y-66015000D02*
X127020000Y-63480000D01*
X145590000Y-61008000D02*
X149932000Y-65350000D01*
X127020000Y-63480000D02*
X129492000Y-61008000D01*
X149932000Y-65350000D02*
X154360000Y-65350000D01*
X129492000Y-61008000D02*
X145590000Y-61008000D01*
X154360000Y-65350000D02*
X154940000Y-64770000D01*
%TO.N,Net-(J5-Pin_2)*%
X152400000Y-63500000D02*
X152400000Y-61468000D01*
X152400000Y-61468000D02*
X150440000Y-59508000D01*
X150440000Y-59508000D02*
X127944000Y-59508000D01*
X127944000Y-59508000D02*
X124480000Y-62972000D01*
X124480000Y-62972000D02*
X124480000Y-66015000D01*
%TO.N,GND*%
X140462000Y-111765000D02*
X142240000Y-111765000D01*
X139192000Y-113035000D02*
X140462000Y-111765000D01*
X133774000Y-118448000D02*
X139187000Y-113035000D01*
X121158000Y-118448000D02*
X133774000Y-118448000D01*
X139187000Y-113035000D02*
X139192000Y-113035000D01*
X109812000Y-118448000D02*
X121158000Y-118448000D01*
X106426000Y-111760000D02*
X106426000Y-115062000D01*
X106426000Y-115062000D02*
X109812000Y-118448000D01*
X109220000Y-111760000D02*
X106426000Y-111760000D01*
X106680000Y-102616000D02*
X106680000Y-93980000D01*
X108204000Y-104140000D02*
X106680000Y-102616000D01*
X109220000Y-104140000D02*
X108204000Y-104140000D01*
X106680000Y-92456000D02*
X106680000Y-94488000D01*
X107696000Y-91440000D02*
X106680000Y-92456000D01*
X109220000Y-91440000D02*
X107696000Y-91440000D01*
%TO.N,E32_433T30D_M0*%
X124206000Y-91440000D02*
X116840000Y-91440000D01*
X136176500Y-76832298D02*
X136176500Y-79469500D01*
X136176500Y-79469500D02*
X124206000Y-91440000D01*
%TO.N,GND*%
X114300000Y-70358000D02*
X109220000Y-75438000D01*
X109220000Y-75438000D02*
X109220000Y-91440000D01*
X130617400Y-70358000D02*
X114300000Y-70358000D01*
X134640000Y-67290000D02*
X134040000Y-67890000D01*
X134040000Y-67890000D02*
X133085400Y-67890000D01*
X134640000Y-66015000D02*
X134640000Y-67290000D01*
X133085400Y-67890000D02*
X130617400Y-70358000D01*
%TO.N,MCP2515_SPI_CS*%
X165100000Y-71380084D02*
X164454509Y-70734593D01*
X165100000Y-73660000D02*
X165100000Y-71380084D01*
%TO.N,+5V*%
X137180000Y-66359473D02*
X137180000Y-66015000D01*
X136361088Y-68823230D02*
X136361088Y-67178385D01*
X136361088Y-67178385D02*
X137180000Y-66359473D01*
%TO.N,GND*%
X166116000Y-78232000D02*
X172466000Y-78232000D01*
X172466000Y-78232000D02*
X176911000Y-73787000D01*
X165100000Y-77216000D02*
X166116000Y-78232000D01*
X160020000Y-76708000D02*
X160528000Y-77216000D01*
X160528000Y-77216000D02*
X165100000Y-77216000D01*
X176911000Y-73787000D02*
X176911000Y-60325000D01*
X157480000Y-76708000D02*
X160020000Y-76708000D01*
%TO.N,E32_433T30D_M0*%
X165120000Y-84054000D02*
X165100000Y-84074000D01*
X165120000Y-81255000D02*
X165120000Y-84054000D01*
%TO.N,GND*%
X157480000Y-73660000D02*
X157480000Y-76708000D01*
%TO.N,ESP32_HSPI_MOSI*%
X130048000Y-109220000D02*
X116840000Y-109220000D01*
%TO.N,E32_433T30D_AUX*%
X154960000Y-82530000D02*
X154960000Y-81255000D01*
X154178000Y-83312000D02*
X154960000Y-82530000D01*
X148590000Y-83312000D02*
X154178000Y-83312000D01*
X146558000Y-81280000D02*
X148590000Y-83312000D01*
X146558000Y-78232000D02*
X146558000Y-81280000D01*
X140462000Y-76200000D02*
X144526000Y-76200000D01*
X139700000Y-76962000D02*
X140462000Y-76200000D01*
X144526000Y-76200000D02*
X146558000Y-78232000D01*
X139700000Y-98044000D02*
X139700000Y-76962000D01*
X136144000Y-101600000D02*
X139700000Y-98044000D01*
X116840000Y-101600000D02*
X136144000Y-101600000D01*
%TO.N,GND*%
X182626000Y-114808000D02*
X190500000Y-106934000D01*
X146563000Y-111765000D02*
X149606000Y-114808000D01*
X142240000Y-111765000D02*
X146563000Y-111765000D01*
X149606000Y-114808000D02*
X182626000Y-114808000D01*
X190500000Y-106934000D02*
X190500000Y-104140000D01*
X188468000Y-93218000D02*
X188468000Y-71882000D01*
X188468000Y-71882000D02*
X176911000Y-60325000D01*
%TO.N,ESP32_I2C_SCL*%
X177800000Y-97061960D02*
X177800000Y-99060000D01*
X172178040Y-91440000D02*
X177800000Y-97061960D01*
X167386000Y-91440000D02*
X172178040Y-91440000D01*
X162306000Y-86360000D02*
X167386000Y-91440000D01*
X143558000Y-81836000D02*
X143007000Y-81285000D01*
X143558000Y-82526704D02*
X143558000Y-81836000D01*
X145034000Y-84002704D02*
X143558000Y-82526704D01*
X145034000Y-85344000D02*
X145034000Y-84002704D01*
X146050000Y-86360000D02*
X145034000Y-85344000D01*
X143007000Y-81285000D02*
X142240000Y-81285000D01*
%TO.N,GND*%
X121158000Y-113792000D02*
X121158000Y-118448000D01*
X119126000Y-111760000D02*
X121158000Y-113792000D01*
X116840000Y-111760000D02*
X119126000Y-111760000D01*
%TO.N,+5V*%
X160020000Y-62230000D02*
X160020000Y-63500000D01*
X168148000Y-60960000D02*
X161290000Y-60960000D01*
X170434000Y-72136000D02*
X170434000Y-63246000D01*
X170434000Y-63246000D02*
X168148000Y-60960000D01*
X161290000Y-60960000D02*
X160020000Y-62230000D01*
%TO.N,ESP32_VSPI_CLK*%
X146314000Y-93980000D02*
X146309000Y-93985000D01*
X151892000Y-93980000D02*
X146314000Y-93980000D01*
X146309000Y-93985000D02*
X142240000Y-93985000D01*
X185420000Y-105918000D02*
X185420000Y-104140000D01*
X180594000Y-110744000D02*
X185420000Y-105918000D01*
X169672000Y-110744000D02*
X180594000Y-110744000D01*
X163068000Y-104140000D02*
X169672000Y-110744000D01*
X163068000Y-104013000D02*
X163068000Y-104140000D01*
%TO.N,ESP32_UART_2_TX*%
X160040000Y-96500000D02*
X160040000Y-81255000D01*
X155448000Y-101092000D02*
X160040000Y-96500000D01*
X152146000Y-101092000D02*
X155448000Y-101092000D01*
X146050000Y-99060000D02*
X146045000Y-99065000D01*
X146045000Y-99065000D02*
X142240000Y-99065000D01*
%TO.N,+3.3V*%
X145835428Y-114305000D02*
X142240000Y-114305000D01*
X148370428Y-116840000D02*
X145835428Y-114305000D01*
X183896000Y-116840000D02*
X148370428Y-116840000D01*
X192350000Y-108386000D02*
X183896000Y-116840000D01*
X192350000Y-99894000D02*
X192350000Y-108386000D01*
X188794000Y-96338000D02*
X192350000Y-99894000D01*
X182880000Y-96338000D02*
X188794000Y-96338000D01*
%TO.N,SD_CARD_SPI_CS*%
X180340000Y-105410000D02*
X180340000Y-104140000D01*
X179070000Y-106680000D02*
X180340000Y-105410000D01*
X173736000Y-106680000D02*
X179070000Y-106680000D01*
%TO.N,+3.3V*%
X182880000Y-96338000D02*
X182880000Y-99060000D01*
%TO.N,GND*%
X149880000Y-79068500D02*
X149880000Y-81255000D01*
X149860000Y-79048500D02*
X149880000Y-79068500D01*
%TO.N,+5V*%
X111506000Y-114300000D02*
X116840000Y-114300000D01*
X111506000Y-114300000D02*
X109220000Y-114300000D01*
D14*
X111506000Y-114300000D02*
X113030000Y-114300000D01*
D13*
%TO.N,+24V*%
X109220000Y-93980000D02*
X109220000Y-101600000D01*
%TO.N,GND*%
X109220000Y-111760000D02*
X109220000Y-104140000D01*
X190500000Y-104140000D02*
X190500000Y-102108000D01*
X190500000Y-101092000D02*
X190500000Y-102108000D01*
X188468000Y-99060000D02*
X190500000Y-101092000D01*
X188468000Y-99060000D02*
X185420000Y-99060000D01*
%TO.N,+5V*%
X152420000Y-80298500D02*
X153670000Y-79048500D01*
X152420000Y-81255000D02*
X152420000Y-80298500D01*
%TO.N,ESP32_I2C_SDA*%
X142245000Y-88900000D02*
X142240000Y-88905000D01*
X146050000Y-88900000D02*
X142245000Y-88900000D01*
%TO.N,SD_CARD_SPI_CS*%
X121158000Y-96520000D02*
X121412000Y-96774000D01*
X116840000Y-96520000D02*
X121158000Y-96520000D01*
%TO.N,+3.3V*%
X177800000Y-104140000D02*
X173736000Y-104140000D01*
D14*
%TO.N,+5V*%
X113030000Y-114300000D02*
X116840000Y-114300000D01*
%TD*%
%TA.AperFunction,Conductor*%
%TO.N,GND*%
G36*
X127429519Y-58440185D02*
G01*
X127475274Y-58492989D01*
X127485218Y-58562147D01*
X127456193Y-58625703D01*
X127430679Y-58648060D01*
X127429698Y-58648707D01*
X127429084Y-58649112D01*
X127421066Y-58653967D01*
X127369495Y-58682591D01*
X127346406Y-58702412D01*
X127333883Y-58711855D01*
X127308484Y-58728596D01*
X127266782Y-58770297D01*
X127259875Y-58776698D01*
X127215104Y-58815134D01*
X127196480Y-58839194D01*
X127186107Y-58850971D01*
X123782646Y-62254432D01*
X123780399Y-62256623D01*
X123716948Y-62316939D01*
X123683244Y-62365362D01*
X123677573Y-62372882D01*
X123640301Y-62418593D01*
X123626210Y-62445566D01*
X123618082Y-62458983D01*
X123600705Y-62483950D01*
X123577439Y-62538165D01*
X123573399Y-62546671D01*
X123546090Y-62598952D01*
X123537720Y-62628201D01*
X123532459Y-62642978D01*
X123520460Y-62670942D01*
X123508587Y-62728713D01*
X123506342Y-62737860D01*
X123490113Y-62794580D01*
X123487802Y-62824925D01*
X123485622Y-62840466D01*
X123479500Y-62870258D01*
X123479500Y-62929241D01*
X123479142Y-62938655D01*
X123474663Y-62997477D01*
X123478506Y-63027651D01*
X123479500Y-63043317D01*
X123479500Y-64894142D01*
X123459815Y-64961181D01*
X123407011Y-65006936D01*
X123337853Y-65016880D01*
X123274297Y-64987855D01*
X123239319Y-64937478D01*
X123233796Y-64922669D01*
X123147546Y-64807454D01*
X123032331Y-64721204D01*
X122897483Y-64670909D01*
X122837873Y-64664500D01*
X122834550Y-64664500D01*
X121045439Y-64664500D01*
X121045420Y-64664500D01*
X121042128Y-64664501D01*
X121038848Y-64664853D01*
X121038840Y-64664854D01*
X120982515Y-64670909D01*
X120847669Y-64721204D01*
X120732454Y-64807454D01*
X120646204Y-64922668D01*
X120595909Y-65057516D01*
X120594605Y-65069650D01*
X120589500Y-65117127D01*
X120589500Y-65120448D01*
X120589500Y-65120449D01*
X120589500Y-66909560D01*
X120589500Y-66909578D01*
X120589501Y-66912872D01*
X120589853Y-66916152D01*
X120589854Y-66916159D01*
X120595909Y-66972484D01*
X120606533Y-67000967D01*
X120646204Y-67107331D01*
X120732454Y-67222546D01*
X120847669Y-67308796D01*
X120982517Y-67359091D01*
X121042127Y-67365500D01*
X122837872Y-67365499D01*
X122897483Y-67359091D01*
X123032331Y-67308796D01*
X123147546Y-67222546D01*
X123233796Y-67107331D01*
X123282810Y-66975916D01*
X123324681Y-66919983D01*
X123390146Y-66895566D01*
X123458419Y-66910418D01*
X123486673Y-66931569D01*
X123608599Y-67053495D01*
X123802170Y-67189035D01*
X124016337Y-67288903D01*
X124228059Y-67345633D01*
X124244592Y-67350063D01*
X124479999Y-67370659D01*
X124479999Y-67370658D01*
X124480000Y-67370659D01*
X124715408Y-67350063D01*
X124943663Y-67288903D01*
X125157830Y-67189035D01*
X125351401Y-67053495D01*
X125518495Y-66886401D01*
X125648426Y-66700839D01*
X125703002Y-66657216D01*
X125772500Y-66650022D01*
X125834855Y-66681545D01*
X125851571Y-66700837D01*
X125981505Y-66886401D01*
X126148599Y-67053495D01*
X126342170Y-67189035D01*
X126556337Y-67288903D01*
X126784592Y-67350063D01*
X127020000Y-67370659D01*
X127255408Y-67350063D01*
X127483663Y-67288903D01*
X127697830Y-67189035D01*
X127891401Y-67053495D01*
X128058495Y-66886401D01*
X128188427Y-66700838D01*
X128243001Y-66657216D01*
X128312499Y-66650022D01*
X128374854Y-66681545D01*
X128391572Y-66700838D01*
X128521505Y-66886401D01*
X128688599Y-67053495D01*
X128882170Y-67189035D01*
X129096337Y-67288903D01*
X129324592Y-67350063D01*
X129560000Y-67370659D01*
X129795408Y-67350063D01*
X130023663Y-67288903D01*
X130237830Y-67189035D01*
X130431401Y-67053495D01*
X130598495Y-66886401D01*
X130728426Y-66700839D01*
X130783002Y-66657217D01*
X130852501Y-66650024D01*
X130914855Y-66681546D01*
X130931571Y-66700837D01*
X131061505Y-66886401D01*
X131228599Y-67053495D01*
X131422170Y-67189035D01*
X131636337Y-67288903D01*
X131864592Y-67350063D01*
X132100000Y-67370659D01*
X132335408Y-67350063D01*
X132563663Y-67288903D01*
X132777830Y-67189035D01*
X132971401Y-67053495D01*
X133138495Y-66886401D01*
X133268732Y-66700403D01*
X133323307Y-66656780D01*
X133392805Y-66649586D01*
X133455160Y-66681109D01*
X133471880Y-66700404D01*
X133601893Y-66886081D01*
X133768918Y-67053106D01*
X133962423Y-67188600D01*
X134176509Y-67288430D01*
X134390000Y-67345634D01*
X134390000Y-66450501D01*
X134497685Y-66499680D01*
X134604237Y-66515000D01*
X134675763Y-66515000D01*
X134782315Y-66499680D01*
X134890000Y-66450501D01*
X134890000Y-67345633D01*
X135103490Y-67288430D01*
X135184183Y-67250803D01*
X135253260Y-67240311D01*
X135317044Y-67268830D01*
X135355284Y-67327307D01*
X135360588Y-67363185D01*
X135360588Y-67646202D01*
X135340903Y-67713241D01*
X135327818Y-67730185D01*
X135172925Y-67898444D01*
X135036913Y-68106625D01*
X134937026Y-68334347D01*
X134875979Y-68575413D01*
X134855444Y-68823225D01*
X134857641Y-68849733D01*
X134843559Y-68918169D01*
X134821748Y-68947648D01*
X134702215Y-69067182D01*
X134640895Y-69100666D01*
X134614536Y-69103500D01*
X133006999Y-69103500D01*
X133003857Y-69103460D01*
X132916357Y-69101242D01*
X132858300Y-69111648D01*
X132848971Y-69112957D01*
X132790278Y-69118926D01*
X132761248Y-69128034D01*
X132746008Y-69131775D01*
X132716066Y-69137141D01*
X132661292Y-69159020D01*
X132652422Y-69162178D01*
X132596129Y-69179841D01*
X132569538Y-69194600D01*
X132555368Y-69201330D01*
X132527103Y-69212621D01*
X132477841Y-69245087D01*
X132469786Y-69249967D01*
X132418215Y-69278591D01*
X132395126Y-69298412D01*
X132382603Y-69307855D01*
X132357204Y-69324596D01*
X132315502Y-69366297D01*
X132308595Y-69372698D01*
X132263824Y-69411134D01*
X132245200Y-69435194D01*
X132234827Y-69446971D01*
X130836619Y-70845181D01*
X130775296Y-70878666D01*
X130748938Y-70881500D01*
X117362279Y-70881500D01*
X117359137Y-70881460D01*
X117271637Y-70879242D01*
X117213580Y-70889648D01*
X117204251Y-70890957D01*
X117145558Y-70896926D01*
X117116528Y-70906034D01*
X117101288Y-70909775D01*
X117071346Y-70915141D01*
X117016572Y-70937020D01*
X117007702Y-70940178D01*
X116951409Y-70957841D01*
X116924818Y-70972600D01*
X116910648Y-70979330D01*
X116882383Y-70990621D01*
X116833121Y-71023087D01*
X116825066Y-71027967D01*
X116773495Y-71056591D01*
X116750406Y-71076412D01*
X116737883Y-71085855D01*
X116712484Y-71102596D01*
X116670782Y-71144297D01*
X116663875Y-71150698D01*
X116619104Y-71189134D01*
X116600480Y-71213194D01*
X116590107Y-71224971D01*
X112395646Y-75419432D01*
X112393399Y-75421623D01*
X112329948Y-75481939D01*
X112296244Y-75530362D01*
X112290573Y-75537882D01*
X112253301Y-75583593D01*
X112239210Y-75610566D01*
X112231082Y-75623983D01*
X112213705Y-75648950D01*
X112190439Y-75703165D01*
X112186399Y-75711671D01*
X112159090Y-75763952D01*
X112150720Y-75793201D01*
X112145459Y-75807978D01*
X112133460Y-75835942D01*
X112121587Y-75893713D01*
X112119342Y-75902860D01*
X112103113Y-75959580D01*
X112100802Y-75989925D01*
X112098622Y-76005466D01*
X112092500Y-76035258D01*
X112092500Y-76094241D01*
X112092142Y-76103655D01*
X112087663Y-76162477D01*
X112091506Y-76192651D01*
X112092500Y-76208317D01*
X112092500Y-113175500D01*
X112072815Y-113242539D01*
X112020011Y-113288294D01*
X111968500Y-113299500D01*
X110634142Y-113299500D01*
X110567103Y-113279815D01*
X110521348Y-113227011D01*
X110517961Y-113218835D01*
X110516708Y-113215478D01*
X110513796Y-113207669D01*
X110427546Y-113092454D01*
X110312331Y-113006204D01*
X110180399Y-112956996D01*
X110124467Y-112915125D01*
X110100050Y-112849661D01*
X110114902Y-112781388D01*
X110136053Y-112753133D01*
X110258109Y-112631077D01*
X110393600Y-112437576D01*
X110493430Y-112223492D01*
X110550636Y-112010000D01*
X109653686Y-112010000D01*
X109679493Y-111969844D01*
X109720000Y-111831889D01*
X109720000Y-111688111D01*
X109679493Y-111550156D01*
X109653686Y-111510000D01*
X110550636Y-111510000D01*
X110550635Y-111509999D01*
X110493430Y-111296507D01*
X110393599Y-111082421D01*
X110258109Y-110888921D01*
X110091081Y-110721893D01*
X109897576Y-110586399D01*
X109683492Y-110486569D01*
X109469999Y-110429364D01*
X109469999Y-111324498D01*
X109362315Y-111275320D01*
X109255763Y-111260000D01*
X109184237Y-111260000D01*
X109077685Y-111275320D01*
X108970000Y-111324498D01*
X108970000Y-110429364D01*
X108969999Y-110429364D01*
X108756507Y-110486569D01*
X108542421Y-110586400D01*
X108348921Y-110721890D01*
X108181890Y-110888921D01*
X108046400Y-111082421D01*
X107946569Y-111296507D01*
X107889364Y-111509999D01*
X107889364Y-111510000D01*
X108786314Y-111510000D01*
X108760507Y-111550156D01*
X108720000Y-111688111D01*
X108720000Y-111831889D01*
X108760507Y-111969844D01*
X108786314Y-112010000D01*
X107889364Y-112010000D01*
X107946569Y-112223492D01*
X108046399Y-112437576D01*
X108181893Y-112631081D01*
X108303946Y-112753134D01*
X108337431Y-112814457D01*
X108332447Y-112884149D01*
X108290575Y-112940082D01*
X108259599Y-112956997D01*
X108127669Y-113006204D01*
X108012454Y-113092454D01*
X107926204Y-113207668D01*
X107875909Y-113342516D01*
X107874303Y-113357459D01*
X107869500Y-113402127D01*
X107869500Y-113405448D01*
X107869500Y-113405449D01*
X107869500Y-115194560D01*
X107869500Y-115194578D01*
X107869501Y-115197872D01*
X107875909Y-115257483D01*
X107926204Y-115392331D01*
X108012454Y-115507546D01*
X108127669Y-115593796D01*
X108262517Y-115644091D01*
X108322127Y-115650500D01*
X110117872Y-115650499D01*
X110177483Y-115644091D01*
X110312331Y-115593796D01*
X110427546Y-115507546D01*
X110513796Y-115392331D01*
X110517960Y-115381165D01*
X110559833Y-115325232D01*
X110625298Y-115300816D01*
X110634142Y-115300500D01*
X111404259Y-115300500D01*
X113015721Y-115300500D01*
X113018863Y-115300540D01*
X113106359Y-115302757D01*
X113106359Y-115302756D01*
X113106363Y-115302757D01*
X113108105Y-115302444D01*
X113129981Y-115300500D01*
X115425858Y-115300500D01*
X115492897Y-115320185D01*
X115538652Y-115372989D01*
X115542039Y-115381165D01*
X115546204Y-115392331D01*
X115632454Y-115507546D01*
X115747669Y-115593796D01*
X115882517Y-115644091D01*
X115942127Y-115650500D01*
X117737872Y-115650499D01*
X117797483Y-115644091D01*
X117932331Y-115593796D01*
X118047546Y-115507546D01*
X118133796Y-115392331D01*
X118184091Y-115257483D01*
X118190500Y-115197873D01*
X118190499Y-113402128D01*
X118184091Y-113342517D01*
X118133796Y-113207669D01*
X118047546Y-113092454D01*
X117932331Y-113006204D01*
X117800399Y-112956996D01*
X117744467Y-112915125D01*
X117720050Y-112849661D01*
X117734902Y-112781388D01*
X117756053Y-112753133D01*
X117878109Y-112631077D01*
X118013600Y-112437576D01*
X118113430Y-112223492D01*
X118170636Y-112010000D01*
X117273686Y-112010000D01*
X117299493Y-111969844D01*
X117340000Y-111831889D01*
X117340000Y-111688111D01*
X117299493Y-111550156D01*
X117273686Y-111510000D01*
X118170636Y-111510000D01*
X118170635Y-111509999D01*
X118113430Y-111296507D01*
X118013599Y-111082421D01*
X117878109Y-110888921D01*
X117711081Y-110721893D01*
X117525404Y-110591880D01*
X117481780Y-110537303D01*
X117474587Y-110467804D01*
X117506109Y-110405450D01*
X117525399Y-110388734D01*
X117711401Y-110258495D01*
X117713076Y-110256819D01*
X117716334Y-110255040D01*
X117720288Y-110252272D01*
X117720596Y-110252712D01*
X117774400Y-110223334D01*
X117800758Y-110220500D01*
X128875145Y-110220500D01*
X128942184Y-110240185D01*
X128966375Y-110260517D01*
X129028256Y-110327738D01*
X129028259Y-110327740D01*
X129224485Y-110480470D01*
X129224487Y-110480471D01*
X129224491Y-110480474D01*
X129443190Y-110598828D01*
X129678386Y-110679571D01*
X129923665Y-110720500D01*
X130172335Y-110720500D01*
X130417614Y-110679571D01*
X130652810Y-110598828D01*
X130871509Y-110480474D01*
X131067744Y-110327738D01*
X131236164Y-110144785D01*
X131372173Y-109936607D01*
X131472063Y-109708881D01*
X131533108Y-109467821D01*
X131553643Y-109220000D01*
X131533108Y-108972179D01*
X131472063Y-108731119D01*
X131381757Y-108525243D01*
X131372174Y-108503395D01*
X131372173Y-108503393D01*
X131236164Y-108295215D01*
X131067744Y-108112262D01*
X131045612Y-108095036D01*
X130871514Y-107959529D01*
X130871510Y-107959526D01*
X130871509Y-107959526D01*
X130652810Y-107841172D01*
X130652806Y-107841170D01*
X130652805Y-107841170D01*
X130417615Y-107760429D01*
X130172335Y-107719500D01*
X129923665Y-107719500D01*
X129678384Y-107760429D01*
X129443194Y-107841170D01*
X129443190Y-107841171D01*
X129443190Y-107841172D01*
X129419421Y-107854035D01*
X129224485Y-107959529D01*
X129028259Y-108112259D01*
X128966375Y-108179483D01*
X128906488Y-108215473D01*
X128875145Y-108219500D01*
X117800758Y-108219500D01*
X117733719Y-108199815D01*
X117713077Y-108183181D01*
X117711401Y-108181505D01*
X117708513Y-108179483D01*
X117525839Y-108051573D01*
X117482216Y-107996998D01*
X117475022Y-107927500D01*
X117506545Y-107865145D01*
X117525837Y-107848428D01*
X117711401Y-107718495D01*
X117878495Y-107551401D01*
X118014035Y-107357830D01*
X118113903Y-107143663D01*
X118175063Y-106915408D01*
X118195659Y-106680000D01*
X118175063Y-106444592D01*
X118113903Y-106216337D01*
X118014035Y-106002171D01*
X117878495Y-105808599D01*
X117711401Y-105641505D01*
X117525839Y-105511573D01*
X117482215Y-105456997D01*
X117475023Y-105387498D01*
X117506545Y-105325144D01*
X117525831Y-105308432D01*
X117711401Y-105178495D01*
X117713076Y-105176819D01*
X117716334Y-105175040D01*
X117720288Y-105172272D01*
X117720596Y-105172712D01*
X117774400Y-105143334D01*
X117800758Y-105140500D01*
X118349721Y-105140500D01*
X118352862Y-105140539D01*
X118440363Y-105142757D01*
X118498432Y-105132348D01*
X118507736Y-105131043D01*
X118566438Y-105125074D01*
X118595467Y-105115965D01*
X118610700Y-105112226D01*
X118640653Y-105106858D01*
X118695426Y-105084978D01*
X118704301Y-105081819D01*
X118727972Y-105074392D01*
X118760588Y-105064159D01*
X118787194Y-105049390D01*
X118801362Y-105042662D01*
X118829617Y-105031377D01*
X118878879Y-104998909D01*
X118886910Y-104994043D01*
X118938502Y-104965409D01*
X118961587Y-104945589D01*
X118974114Y-104936144D01*
X118999519Y-104919402D01*
X119041256Y-104877662D01*
X119048126Y-104871297D01*
X119092895Y-104832866D01*
X119111524Y-104808798D01*
X119121884Y-104797035D01*
X119758100Y-104160819D01*
X119819424Y-104127334D01*
X119845782Y-104124500D01*
X127296217Y-104124500D01*
X127363256Y-104144185D01*
X127383898Y-104160819D01*
X128060432Y-104837352D01*
X128062625Y-104839601D01*
X128122942Y-104903054D01*
X128171362Y-104936755D01*
X128178871Y-104942416D01*
X128224593Y-104979698D01*
X128251562Y-104993785D01*
X128264982Y-105001916D01*
X128289949Y-105019294D01*
X128289950Y-105019294D01*
X128289951Y-105019295D01*
X128340837Y-105041132D01*
X128344163Y-105042559D01*
X128352663Y-105046595D01*
X128403563Y-105073184D01*
X128404951Y-105073909D01*
X128434196Y-105082277D01*
X128448986Y-105087543D01*
X128456464Y-105090752D01*
X128476942Y-105099540D01*
X128534737Y-105111416D01*
X128543854Y-105113654D01*
X128600582Y-105129887D01*
X128621954Y-105131514D01*
X128687306Y-105156229D01*
X128703772Y-105171172D01*
X128774256Y-105247738D01*
X128807322Y-105273474D01*
X128970485Y-105400470D01*
X128970487Y-105400471D01*
X128970491Y-105400474D01*
X129189190Y-105518828D01*
X129424386Y-105599571D01*
X129669665Y-105640500D01*
X129918335Y-105640500D01*
X130163614Y-105599571D01*
X130398810Y-105518828D01*
X130617509Y-105400474D01*
X130813744Y-105247738D01*
X130982164Y-105064785D01*
X131118173Y-104856607D01*
X131218063Y-104628881D01*
X131279108Y-104387821D01*
X131299643Y-104140000D01*
X131298593Y-104127334D01*
X131289119Y-104012998D01*
X131279108Y-103892179D01*
X131218063Y-103651119D01*
X131118173Y-103423393D01*
X130982164Y-103215215D01*
X130813744Y-103032262D01*
X130791612Y-103015036D01*
X130617514Y-102879529D01*
X130617510Y-102879526D01*
X130617509Y-102879526D01*
X130532559Y-102833553D01*
X130482971Y-102784335D01*
X130467863Y-102716118D01*
X130492034Y-102650563D01*
X130547810Y-102608482D01*
X130591579Y-102600500D01*
X136129721Y-102600500D01*
X136132862Y-102600539D01*
X136220363Y-102602757D01*
X136278432Y-102592348D01*
X136287736Y-102591043D01*
X136346438Y-102585074D01*
X136375467Y-102575965D01*
X136390700Y-102572226D01*
X136420653Y-102566858D01*
X136475426Y-102544978D01*
X136484301Y-102541819D01*
X136501675Y-102536367D01*
X136540588Y-102524159D01*
X136567194Y-102509390D01*
X136581362Y-102502662D01*
X136609617Y-102491377D01*
X136658879Y-102458909D01*
X136666910Y-102454043D01*
X136718502Y-102425409D01*
X136741587Y-102405589D01*
X136754114Y-102396144D01*
X136779519Y-102379402D01*
X136821251Y-102337668D01*
X136828123Y-102331300D01*
X136872895Y-102292866D01*
X136891519Y-102268803D01*
X136901880Y-102257039D01*
X140397409Y-98761510D01*
X140399579Y-98759394D01*
X140463053Y-98699059D01*
X140496763Y-98650624D01*
X140502405Y-98643141D01*
X140539697Y-98597408D01*
X140553786Y-98570433D01*
X140561908Y-98557027D01*
X140579295Y-98532049D01*
X140602568Y-98477815D01*
X140606590Y-98469346D01*
X140633909Y-98417049D01*
X140642275Y-98387808D01*
X140647539Y-98373019D01*
X140659540Y-98345058D01*
X140671417Y-98287256D01*
X140673652Y-98278148D01*
X140689886Y-98221418D01*
X140692196Y-98191078D01*
X140694376Y-98175540D01*
X140700500Y-98145742D01*
X140700500Y-98086754D01*
X140700858Y-98077339D01*
X140702142Y-98060474D01*
X140705337Y-98018524D01*
X140701493Y-97988339D01*
X140700500Y-97972676D01*
X140700500Y-96939314D01*
X140720185Y-96872275D01*
X140772989Y-96826520D01*
X140842147Y-96816576D01*
X140905703Y-96845601D01*
X140943477Y-96904379D01*
X140944273Y-96907216D01*
X140966097Y-96988663D01*
X141065965Y-97202830D01*
X141201505Y-97396401D01*
X141368599Y-97563495D01*
X141554160Y-97693426D01*
X141597783Y-97748002D01*
X141604976Y-97817501D01*
X141573454Y-97879855D01*
X141554158Y-97896575D01*
X141375736Y-98021508D01*
X141368595Y-98026508D01*
X141201505Y-98193598D01*
X141065965Y-98387170D01*
X140966097Y-98601336D01*
X140904936Y-98829592D01*
X140884340Y-99065000D01*
X140904936Y-99300407D01*
X140937180Y-99420742D01*
X140966097Y-99528663D01*
X141065965Y-99742830D01*
X141201505Y-99936401D01*
X141368599Y-100103495D01*
X141554160Y-100233426D01*
X141597783Y-100288002D01*
X141604976Y-100357501D01*
X141573454Y-100419855D01*
X141554158Y-100436575D01*
X141375736Y-100561508D01*
X141368595Y-100566508D01*
X141201505Y-100733598D01*
X141065965Y-100927170D01*
X140966097Y-101141336D01*
X140904936Y-101369592D01*
X140884340Y-101605000D01*
X140904936Y-101840407D01*
X140943245Y-101983376D01*
X140966097Y-102068663D01*
X141065965Y-102282830D01*
X141201505Y-102476401D01*
X141368599Y-102643495D01*
X141554160Y-102773426D01*
X141597783Y-102828002D01*
X141604976Y-102897501D01*
X141573454Y-102959855D01*
X141554158Y-102976575D01*
X141375736Y-103101508D01*
X141368595Y-103106508D01*
X141201505Y-103273598D01*
X141065965Y-103467170D01*
X140966097Y-103681336D01*
X140904936Y-103909592D01*
X140884340Y-104144999D01*
X140904936Y-104380407D01*
X140937485Y-104501881D01*
X140966097Y-104608663D01*
X141065965Y-104822830D01*
X141201505Y-105016401D01*
X141368599Y-105183495D01*
X141554160Y-105313426D01*
X141597783Y-105368002D01*
X141604976Y-105437501D01*
X141573454Y-105499855D01*
X141554158Y-105516575D01*
X141375736Y-105641508D01*
X141368595Y-105646508D01*
X141201505Y-105813598D01*
X141065965Y-106007170D01*
X140966097Y-106221336D01*
X140904936Y-106449592D01*
X140884340Y-106685000D01*
X140904936Y-106920407D01*
X140924972Y-106995182D01*
X140966097Y-107148663D01*
X141065965Y-107362830D01*
X141201505Y-107556401D01*
X141368599Y-107723495D01*
X141554160Y-107853426D01*
X141597783Y-107908002D01*
X141604976Y-107977501D01*
X141573454Y-108039855D01*
X141554158Y-108056575D01*
X141375736Y-108181508D01*
X141368595Y-108186508D01*
X141201505Y-108353598D01*
X141065965Y-108547170D01*
X140966097Y-108761336D01*
X140904936Y-108989592D01*
X140884340Y-109224999D01*
X140904936Y-109460407D01*
X140943245Y-109603377D01*
X140966097Y-109688663D01*
X141065965Y-109902830D01*
X141201505Y-110096401D01*
X141368599Y-110263495D01*
X141554596Y-110393732D01*
X141598219Y-110448307D01*
X141605412Y-110517806D01*
X141573890Y-110580160D01*
X141554595Y-110596880D01*
X141368919Y-110726892D01*
X141201890Y-110893921D01*
X141066400Y-111087421D01*
X140966569Y-111301507D01*
X140909364Y-111514999D01*
X140909364Y-111515000D01*
X141806314Y-111515000D01*
X141780507Y-111555156D01*
X141740000Y-111693111D01*
X141740000Y-111836889D01*
X141780507Y-111974844D01*
X141806314Y-112015000D01*
X140909364Y-112015000D01*
X140966569Y-112228492D01*
X141066399Y-112442576D01*
X141201893Y-112636081D01*
X141368918Y-112803106D01*
X141554595Y-112933119D01*
X141598219Y-112987696D01*
X141605412Y-113057195D01*
X141573890Y-113119549D01*
X141554595Y-113136269D01*
X141368595Y-113266508D01*
X141201505Y-113433598D01*
X141065965Y-113627170D01*
X140966097Y-113841336D01*
X140904936Y-114069592D01*
X140884340Y-114305000D01*
X140904936Y-114540407D01*
X140949709Y-114707501D01*
X140966097Y-114768663D01*
X141065965Y-114982830D01*
X141201505Y-115176401D01*
X141368599Y-115343495D01*
X141562170Y-115479035D01*
X141776337Y-115578903D01*
X142004591Y-115640063D01*
X142004592Y-115640063D01*
X142239999Y-115660659D01*
X142239999Y-115660658D01*
X142240000Y-115660659D01*
X142475408Y-115640063D01*
X142703663Y-115578903D01*
X142917830Y-115479035D01*
X143111401Y-115343495D01*
X143113077Y-115341819D01*
X143116330Y-115340042D01*
X143120287Y-115337272D01*
X143120596Y-115337713D01*
X143174400Y-115308334D01*
X143200758Y-115305500D01*
X145369645Y-115305500D01*
X145436684Y-115325185D01*
X145457326Y-115341819D01*
X147652878Y-117537371D01*
X147655071Y-117539620D01*
X147715369Y-117603053D01*
X147741011Y-117620900D01*
X147763780Y-117636748D01*
X147771304Y-117642421D01*
X147817022Y-117679699D01*
X147843983Y-117693782D01*
X147857408Y-117701915D01*
X147882379Y-117719295D01*
X147936591Y-117742559D01*
X147945101Y-117746601D01*
X147997379Y-117773909D01*
X148026628Y-117782277D01*
X148041398Y-117787535D01*
X148069370Y-117799540D01*
X148069373Y-117799540D01*
X148069374Y-117799541D01*
X148127154Y-117811414D01*
X148136297Y-117813657D01*
X148193010Y-117829886D01*
X148223348Y-117832196D01*
X148238876Y-117834373D01*
X148268687Y-117840500D01*
X148327672Y-117840500D01*
X148337087Y-117840858D01*
X148341234Y-117841173D01*
X148395904Y-117845337D01*
X148422706Y-117841923D01*
X148426080Y-117841494D01*
X148441745Y-117840500D01*
X183881721Y-117840500D01*
X183884862Y-117840539D01*
X183972363Y-117842757D01*
X184030432Y-117832348D01*
X184039736Y-117831043D01*
X184098438Y-117825074D01*
X184127467Y-117815965D01*
X184142700Y-117812226D01*
X184172653Y-117806858D01*
X184227426Y-117784978D01*
X184236301Y-117781819D01*
X184253675Y-117776367D01*
X184292588Y-117764159D01*
X184319194Y-117749390D01*
X184333362Y-117742662D01*
X184361617Y-117731377D01*
X184410879Y-117698909D01*
X184418910Y-117694043D01*
X184470502Y-117665409D01*
X184493587Y-117645589D01*
X184506114Y-117636144D01*
X184531519Y-117619402D01*
X184573251Y-117577668D01*
X184580123Y-117571300D01*
X184624895Y-117532866D01*
X184643519Y-117508803D01*
X184653880Y-117497039D01*
X193047409Y-109103510D01*
X193049579Y-109101394D01*
X193113053Y-109041059D01*
X193146763Y-108992624D01*
X193152405Y-108985141D01*
X193189697Y-108939408D01*
X193203786Y-108912433D01*
X193211908Y-108899027D01*
X193229295Y-108874049D01*
X193252568Y-108819815D01*
X193256590Y-108811346D01*
X193283909Y-108759049D01*
X193292275Y-108729808D01*
X193297539Y-108715019D01*
X193309540Y-108687058D01*
X193321417Y-108629256D01*
X193323652Y-108620148D01*
X193339886Y-108563418D01*
X193342196Y-108533078D01*
X193344376Y-108517540D01*
X193350500Y-108487742D01*
X193350500Y-108428754D01*
X193350858Y-108419339D01*
X193355337Y-108360524D01*
X193351493Y-108330339D01*
X193350500Y-108314676D01*
X193350500Y-99908237D01*
X193350540Y-99905095D01*
X193352756Y-99817639D01*
X193352755Y-99817638D01*
X193352756Y-99817636D01*
X193342345Y-99759554D01*
X193341042Y-99750263D01*
X193335074Y-99691562D01*
X193325964Y-99662528D01*
X193322223Y-99647286D01*
X193319256Y-99630731D01*
X193316858Y-99617347D01*
X193316857Y-99617345D01*
X193316857Y-99617343D01*
X193294976Y-99562565D01*
X193291816Y-99553689D01*
X193283964Y-99528663D01*
X193274159Y-99497412D01*
X193259395Y-99470812D01*
X193252660Y-99456631D01*
X193241377Y-99428383D01*
X193208917Y-99379131D01*
X193204036Y-99371074D01*
X193175409Y-99319498D01*
X193155582Y-99296403D01*
X193146146Y-99283888D01*
X193129402Y-99258481D01*
X193129400Y-99258479D01*
X193129399Y-99258477D01*
X193087693Y-99216772D01*
X193081287Y-99209860D01*
X193042864Y-99165102D01*
X193018804Y-99146478D01*
X193007026Y-99136105D01*
X189511567Y-95640647D01*
X189509412Y-95638438D01*
X189449059Y-95574947D01*
X189400640Y-95541246D01*
X189393118Y-95535575D01*
X189347405Y-95498300D01*
X189320440Y-95484215D01*
X189307019Y-95476084D01*
X189282049Y-95458705D01*
X189282048Y-95458704D01*
X189282046Y-95458703D01*
X189227845Y-95435443D01*
X189219336Y-95431402D01*
X189167053Y-95404092D01*
X189161126Y-95402396D01*
X189137798Y-95395721D01*
X189123020Y-95390459D01*
X189095058Y-95378460D01*
X189037272Y-95366583D01*
X189028128Y-95364338D01*
X188971421Y-95348113D01*
X188944617Y-95346071D01*
X188941074Y-95345801D01*
X188925534Y-95343622D01*
X188895742Y-95337500D01*
X188895741Y-95337500D01*
X188836758Y-95337500D01*
X188827344Y-95337142D01*
X188818198Y-95336445D01*
X188768524Y-95332663D01*
X188768523Y-95332663D01*
X188768522Y-95332663D01*
X188738349Y-95336506D01*
X188722683Y-95337500D01*
X184052855Y-95337500D01*
X183985816Y-95317815D01*
X183961625Y-95297483D01*
X183959475Y-95295147D01*
X183899744Y-95230262D01*
X183822506Y-95170145D01*
X183703514Y-95077529D01*
X183703510Y-95077526D01*
X183703509Y-95077526D01*
X183484810Y-94959172D01*
X183484806Y-94959170D01*
X183484805Y-94959170D01*
X183249615Y-94878429D01*
X183004335Y-94837500D01*
X182755665Y-94837500D01*
X182510384Y-94878429D01*
X182275194Y-94959170D01*
X182275190Y-94959171D01*
X182275190Y-94959172D01*
X182232185Y-94982445D01*
X182056485Y-95077529D01*
X181860259Y-95230259D01*
X181860256Y-95230261D01*
X181860256Y-95230262D01*
X181691836Y-95413215D01*
X181674617Y-95439571D01*
X181555825Y-95621395D01*
X181504291Y-95738882D01*
X181455937Y-95849119D01*
X181409063Y-96034218D01*
X181394891Y-96090183D01*
X181390919Y-96138112D01*
X181365765Y-96203296D01*
X181309362Y-96244533D01*
X181239619Y-96248731D01*
X181178678Y-96214556D01*
X181173258Y-96208642D01*
X181165411Y-96199501D01*
X181165409Y-96199498D01*
X181145582Y-96176403D01*
X181136146Y-96163888D01*
X181119402Y-96138481D01*
X181119400Y-96138479D01*
X181119399Y-96138477D01*
X181077693Y-96096772D01*
X181071287Y-96089860D01*
X181032864Y-96045102D01*
X181008804Y-96026478D01*
X180997026Y-96016105D01*
X173691567Y-88710647D01*
X173689412Y-88708438D01*
X173629059Y-88644947D01*
X173580640Y-88611246D01*
X173573118Y-88605575D01*
X173527405Y-88568300D01*
X173500440Y-88554215D01*
X173487019Y-88546084D01*
X173462049Y-88528705D01*
X173462048Y-88528704D01*
X173462046Y-88528703D01*
X173407845Y-88505443D01*
X173399336Y-88501402D01*
X173347053Y-88474092D01*
X173341126Y-88472396D01*
X173317798Y-88465721D01*
X173303020Y-88460459D01*
X173275058Y-88448460D01*
X173217272Y-88436583D01*
X173208128Y-88434338D01*
X173151421Y-88418113D01*
X173121075Y-88415802D01*
X173105534Y-88413622D01*
X173075742Y-88407500D01*
X173075741Y-88407500D01*
X173016758Y-88407500D01*
X173007344Y-88407142D01*
X172998198Y-88406445D01*
X172948524Y-88402663D01*
X172948523Y-88402663D01*
X172948522Y-88402663D01*
X172918349Y-88406506D01*
X172902683Y-88407500D01*
X171893355Y-88407500D01*
X171826316Y-88387815D01*
X171802125Y-88367483D01*
X171799975Y-88365147D01*
X171740244Y-88300262D01*
X171639912Y-88222170D01*
X171544014Y-88147529D01*
X171544010Y-88147526D01*
X171544009Y-88147526D01*
X171325310Y-88029172D01*
X171325306Y-88029170D01*
X171325305Y-88029170D01*
X171090115Y-87948429D01*
X170844835Y-87907500D01*
X170596165Y-87907500D01*
X170350884Y-87948429D01*
X170115694Y-88029170D01*
X170115690Y-88029171D01*
X170115690Y-88029172D01*
X170107510Y-88033599D01*
X169896985Y-88147529D01*
X169700759Y-88300259D01*
X169700756Y-88300261D01*
X169700756Y-88300262D01*
X169532336Y-88483215D01*
X169520454Y-88501402D01*
X169396325Y-88691395D01*
X169306280Y-88896678D01*
X169296437Y-88919119D01*
X169235392Y-89160179D01*
X169235391Y-89160183D01*
X169214856Y-89408000D01*
X169235391Y-89655816D01*
X169235391Y-89655819D01*
X169235392Y-89655821D01*
X169296437Y-89896881D01*
X169316884Y-89943495D01*
X169396326Y-90124607D01*
X169476733Y-90247679D01*
X169496920Y-90314568D01*
X169477740Y-90381754D01*
X169425282Y-90427904D01*
X169372924Y-90439500D01*
X167851783Y-90439500D01*
X167784744Y-90419815D01*
X167764102Y-90403181D01*
X163845342Y-86484422D01*
X163811857Y-86423099D01*
X163809447Y-86386499D01*
X163811643Y-86359998D01*
X163792551Y-86129592D01*
X163791108Y-86112179D01*
X163730063Y-85871119D01*
X163630173Y-85643393D01*
X163494164Y-85435215D01*
X163325744Y-85252262D01*
X163303612Y-85235036D01*
X163129514Y-85099529D01*
X163129510Y-85099526D01*
X163129509Y-85099526D01*
X162910810Y-84981172D01*
X162910806Y-84981170D01*
X162910805Y-84981170D01*
X162675615Y-84900429D01*
X162430335Y-84859500D01*
X162181665Y-84859500D01*
X161936384Y-84900429D01*
X161701194Y-84981170D01*
X161701190Y-84981171D01*
X161701190Y-84981172D01*
X161677421Y-84994035D01*
X161482485Y-85099529D01*
X161286258Y-85252259D01*
X161255729Y-85285423D01*
X161195842Y-85321413D01*
X161126004Y-85319312D01*
X161068388Y-85279787D01*
X161041287Y-85215388D01*
X161040500Y-85201439D01*
X161040500Y-82215758D01*
X161060185Y-82148719D01*
X161076819Y-82128077D01*
X161076825Y-82128071D01*
X161078495Y-82126401D01*
X161208426Y-81940839D01*
X161263002Y-81897216D01*
X161332500Y-81890022D01*
X161394855Y-81921545D01*
X161411571Y-81940837D01*
X161541505Y-82126401D01*
X161708599Y-82293495D01*
X161902170Y-82429035D01*
X162116337Y-82528903D01*
X162344591Y-82590062D01*
X162344592Y-82590063D01*
X162579999Y-82610659D01*
X162579999Y-82610658D01*
X162580000Y-82610659D01*
X162815408Y-82590063D01*
X163043663Y-82528903D01*
X163257830Y-82429035D01*
X163451401Y-82293495D01*
X163618495Y-82126401D01*
X163748426Y-81940839D01*
X163803002Y-81897216D01*
X163872500Y-81890022D01*
X163934855Y-81921545D01*
X163951571Y-81940837D01*
X164033016Y-82057151D01*
X164081505Y-82126401D01*
X164083181Y-82128077D01*
X164084959Y-82131334D01*
X164087728Y-82135288D01*
X164087287Y-82135596D01*
X164116666Y-82189400D01*
X164119500Y-82215758D01*
X164119500Y-82875246D01*
X164099815Y-82942285D01*
X164086730Y-82959229D01*
X163972416Y-83083407D01*
X163911836Y-83149215D01*
X163866499Y-83218607D01*
X163775825Y-83357395D01*
X163698813Y-83532967D01*
X163675937Y-83585119D01*
X163648005Y-83695421D01*
X163614891Y-83826183D01*
X163594356Y-84074000D01*
X163614891Y-84321816D01*
X163614891Y-84321819D01*
X163614892Y-84321821D01*
X163675937Y-84562881D01*
X163688755Y-84592102D01*
X163775825Y-84790604D01*
X163775827Y-84790607D01*
X163911836Y-84998785D01*
X164080256Y-85181738D01*
X164145667Y-85232650D01*
X164276485Y-85334470D01*
X164276487Y-85334471D01*
X164276491Y-85334474D01*
X164495190Y-85452828D01*
X164730386Y-85533571D01*
X164975665Y-85574500D01*
X165224335Y-85574500D01*
X165469614Y-85533571D01*
X165704810Y-85452828D01*
X165923509Y-85334474D01*
X166119744Y-85181738D01*
X166288164Y-84998785D01*
X166424173Y-84790607D01*
X166524063Y-84562881D01*
X166585108Y-84321821D01*
X166605643Y-84074000D01*
X166585108Y-83826179D01*
X166524063Y-83585119D01*
X166424173Y-83357393D01*
X166288164Y-83149215D01*
X166288161Y-83149212D01*
X166288160Y-83149210D01*
X166153270Y-83002679D01*
X166122348Y-82940025D01*
X166120500Y-82918697D01*
X166120500Y-82215758D01*
X166140185Y-82148719D01*
X166156819Y-82128076D01*
X166158495Y-82126401D01*
X166294035Y-81932830D01*
X166393903Y-81718663D01*
X166455063Y-81490408D01*
X166475659Y-81255000D01*
X166455063Y-81019592D01*
X166393903Y-80791337D01*
X166294035Y-80577171D01*
X166158495Y-80383599D01*
X165991401Y-80216505D01*
X165797830Y-80080965D01*
X165583663Y-79981097D01*
X165485151Y-79954701D01*
X165355407Y-79919936D01*
X165120000Y-79899340D01*
X164884592Y-79919936D01*
X164656336Y-79981097D01*
X164442170Y-80080965D01*
X164248598Y-80216505D01*
X164081505Y-80383598D01*
X163951575Y-80569159D01*
X163896998Y-80612784D01*
X163827500Y-80619978D01*
X163765145Y-80588455D01*
X163748425Y-80569159D01*
X163701864Y-80502663D01*
X163618495Y-80383599D01*
X163616814Y-80381918D01*
X163615030Y-80378652D01*
X163612272Y-80374712D01*
X163612711Y-80374404D01*
X163583332Y-80320593D01*
X163580500Y-80294241D01*
X163580500Y-80044237D01*
X163580540Y-80041095D01*
X163582756Y-79953639D01*
X163582755Y-79953638D01*
X163582756Y-79953636D01*
X163572345Y-79895554D01*
X163571042Y-79886263D01*
X163565074Y-79827562D01*
X163555964Y-79798528D01*
X163552223Y-79783286D01*
X163551364Y-79778495D01*
X163546858Y-79753347D01*
X163546857Y-79753345D01*
X163546857Y-79753343D01*
X163524976Y-79698565D01*
X163521816Y-79689689D01*
X163507611Y-79644416D01*
X163504159Y-79633412D01*
X163496323Y-79619294D01*
X163489395Y-79606812D01*
X163482660Y-79592631D01*
X163471377Y-79564383D01*
X163438917Y-79515131D01*
X163434036Y-79507074D01*
X163431803Y-79503051D01*
X163405409Y-79455498D01*
X163385582Y-79432403D01*
X163376146Y-79419888D01*
X163359402Y-79394481D01*
X163359400Y-79394479D01*
X163359399Y-79394477D01*
X163317693Y-79352772D01*
X163311287Y-79345860D01*
X163272864Y-79301102D01*
X163248804Y-79282478D01*
X163237026Y-79272105D01*
X162007567Y-78042647D01*
X162005374Y-78040398D01*
X161945059Y-77976946D01*
X161896642Y-77943247D01*
X161889119Y-77937575D01*
X161843405Y-77900300D01*
X161816440Y-77886215D01*
X161803019Y-77878084D01*
X161778049Y-77860705D01*
X161778048Y-77860704D01*
X161778046Y-77860703D01*
X161723845Y-77837443D01*
X161715336Y-77833402D01*
X161663053Y-77806092D01*
X161657126Y-77804396D01*
X161633798Y-77797721D01*
X161619020Y-77792459D01*
X161591058Y-77780460D01*
X161533272Y-77768583D01*
X161524128Y-77766338D01*
X161467421Y-77750113D01*
X161437075Y-77747802D01*
X161421534Y-77745622D01*
X161391742Y-77739500D01*
X161391741Y-77739500D01*
X161332758Y-77739500D01*
X161323344Y-77739142D01*
X161314198Y-77738445D01*
X161264524Y-77734663D01*
X161264523Y-77734663D01*
X161264522Y-77734663D01*
X161234349Y-77738506D01*
X161218683Y-77739500D01*
X157120782Y-77739500D01*
X157053743Y-77719815D01*
X157033101Y-77703181D01*
X155594567Y-76264647D01*
X155592412Y-76262438D01*
X155532059Y-76198947D01*
X155483640Y-76165246D01*
X155476118Y-76159575D01*
X155430405Y-76122300D01*
X155403440Y-76108215D01*
X155390019Y-76100084D01*
X155365049Y-76082705D01*
X155365048Y-76082704D01*
X155365046Y-76082703D01*
X155310845Y-76059443D01*
X155302336Y-76055402D01*
X155250053Y-76028092D01*
X155244126Y-76026396D01*
X155220798Y-76019721D01*
X155206020Y-76014459D01*
X155178058Y-76002460D01*
X155120272Y-75990583D01*
X155111128Y-75988338D01*
X155062860Y-75974528D01*
X155003821Y-75937162D01*
X154974356Y-75873810D01*
X154983820Y-75804584D01*
X155009285Y-75767634D01*
X155637409Y-75139510D01*
X155639579Y-75137394D01*
X155703053Y-75077059D01*
X155736757Y-75028633D01*
X155742426Y-75021116D01*
X155743678Y-75019581D01*
X155779698Y-74975407D01*
X155793783Y-74948439D01*
X155801918Y-74935015D01*
X155808373Y-74925740D01*
X155819295Y-74910049D01*
X155842568Y-74855815D01*
X155846588Y-74847350D01*
X155873909Y-74795049D01*
X155882275Y-74765808D01*
X155887539Y-74751019D01*
X155899540Y-74723058D01*
X155911417Y-74665256D01*
X155913653Y-74656142D01*
X155928834Y-74603092D01*
X155960367Y-74549527D01*
X155978495Y-74531401D01*
X156108732Y-74345403D01*
X156163307Y-74301780D01*
X156232805Y-74294586D01*
X156295160Y-74326109D01*
X156311880Y-74345404D01*
X156441893Y-74531081D01*
X156608918Y-74698106D01*
X156802423Y-74833600D01*
X157016509Y-74933430D01*
X157230000Y-74990634D01*
X157230000Y-74095501D01*
X157337685Y-74144680D01*
X157444237Y-74160000D01*
X157515763Y-74160000D01*
X157622315Y-74144680D01*
X157730000Y-74095501D01*
X157730000Y-74990633D01*
X157943490Y-74933430D01*
X158157576Y-74833600D01*
X158351081Y-74698106D01*
X158518109Y-74531078D01*
X158648119Y-74345405D01*
X158702696Y-74301780D01*
X158772194Y-74294586D01*
X158834549Y-74326109D01*
X158851265Y-74345400D01*
X158981505Y-74531401D01*
X158981508Y-74531404D01*
X158999224Y-74549120D01*
X159032709Y-74610443D01*
X159034906Y-74624248D01*
X159034924Y-74624433D01*
X159044033Y-74653467D01*
X159047772Y-74668702D01*
X159053141Y-74698652D01*
X159075020Y-74753425D01*
X159078180Y-74762300D01*
X159095841Y-74818588D01*
X159110607Y-74845191D01*
X159117337Y-74859364D01*
X159128622Y-74887617D01*
X159161080Y-74936867D01*
X159165961Y-74944923D01*
X159194590Y-74996501D01*
X159214404Y-75019581D01*
X159223856Y-75032116D01*
X159240599Y-75057520D01*
X159282300Y-75099221D01*
X159288705Y-75106132D01*
X159327130Y-75150891D01*
X159327131Y-75150892D01*
X159327134Y-75150895D01*
X159351198Y-75169522D01*
X159362968Y-75179889D01*
X160390450Y-76207371D01*
X160392643Y-76209620D01*
X160452940Y-76273052D01*
X160501352Y-76306748D01*
X160508876Y-76312421D01*
X160554594Y-76349699D01*
X160581555Y-76363782D01*
X160594980Y-76371915D01*
X160619951Y-76389295D01*
X160674163Y-76412559D01*
X160682673Y-76416601D01*
X160734951Y-76443909D01*
X160764200Y-76452277D01*
X160778970Y-76457535D01*
X160806942Y-76469540D01*
X160806945Y-76469540D01*
X160806946Y-76469541D01*
X160864726Y-76481414D01*
X160873869Y-76483657D01*
X160930582Y-76499886D01*
X160960920Y-76502196D01*
X160976448Y-76504373D01*
X161006259Y-76510500D01*
X161065244Y-76510500D01*
X161074659Y-76510858D01*
X161078806Y-76511173D01*
X161133476Y-76515337D01*
X161160278Y-76511923D01*
X161163652Y-76511494D01*
X161179317Y-76510500D01*
X169216093Y-76510500D01*
X169283132Y-76530185D01*
X169328887Y-76582989D01*
X169329649Y-76584690D01*
X169363825Y-76662604D01*
X169363827Y-76662607D01*
X169499836Y-76870785D01*
X169668256Y-77053738D01*
X169668259Y-77053740D01*
X169864485Y-77206470D01*
X169864487Y-77206471D01*
X169864491Y-77206474D01*
X170083190Y-77324828D01*
X170318386Y-77405571D01*
X170563665Y-77446500D01*
X170812335Y-77446500D01*
X171057614Y-77405571D01*
X171292810Y-77324828D01*
X171511509Y-77206474D01*
X171707744Y-77053738D01*
X171876164Y-76870785D01*
X172012173Y-76662607D01*
X172112063Y-76434881D01*
X172173108Y-76193821D01*
X172193643Y-75946000D01*
X172173108Y-75698179D01*
X172112063Y-75457119D01*
X172012173Y-75229393D01*
X171876164Y-75021215D01*
X171707744Y-74838262D01*
X171652220Y-74795046D01*
X171511514Y-74685529D01*
X171511510Y-74685526D01*
X171511509Y-74685526D01*
X171292810Y-74567172D01*
X171292806Y-74567170D01*
X171292805Y-74567170D01*
X171057615Y-74486429D01*
X170812335Y-74445500D01*
X170563665Y-74445500D01*
X170318383Y-74486429D01*
X170282416Y-74498776D01*
X170232747Y-74505136D01*
X170226526Y-74504662D01*
X170196349Y-74508506D01*
X170180683Y-74509500D01*
X166388625Y-74509500D01*
X166321586Y-74489815D01*
X166275831Y-74437011D01*
X166265887Y-74367853D01*
X166276243Y-74333095D01*
X166294200Y-74294586D01*
X166373903Y-74123663D01*
X166435063Y-73895408D01*
X166455659Y-73660000D01*
X166435063Y-73424592D01*
X166373903Y-73196337D01*
X166274035Y-72982171D01*
X166138495Y-72788599D01*
X166136819Y-72786923D01*
X166135040Y-72783665D01*
X166132272Y-72779712D01*
X166132712Y-72779403D01*
X166103334Y-72725600D01*
X166100500Y-72699242D01*
X166100500Y-71394344D01*
X166100540Y-71391202D01*
X166102757Y-71303722D01*
X166092350Y-71245658D01*
X166091041Y-71236326D01*
X166089321Y-71219412D01*
X166085074Y-71177646D01*
X166075962Y-71148604D01*
X166072226Y-71133381D01*
X166066858Y-71103431D01*
X166044976Y-71048650D01*
X166041816Y-71039773D01*
X166024159Y-70983496D01*
X166009395Y-70956896D01*
X166002660Y-70942715D01*
X166000385Y-70937020D01*
X165991377Y-70914467D01*
X165973975Y-70888063D01*
X165953521Y-70821255D01*
X165953937Y-70809586D01*
X165960152Y-70734591D01*
X165939617Y-70486776D01*
X165939617Y-70486772D01*
X165878572Y-70245712D01*
X165778682Y-70017986D01*
X165642673Y-69809808D01*
X165474253Y-69626855D01*
X165391160Y-69562181D01*
X165278023Y-69474122D01*
X165278019Y-69474119D01*
X165278018Y-69474119D01*
X165059319Y-69355765D01*
X165059315Y-69355763D01*
X165059314Y-69355763D01*
X164824124Y-69275022D01*
X164578844Y-69234093D01*
X164330174Y-69234093D01*
X164084893Y-69275022D01*
X163849703Y-69355763D01*
X163849699Y-69355764D01*
X163849699Y-69355765D01*
X163762219Y-69403106D01*
X163630994Y-69474122D01*
X163434768Y-69626852D01*
X163266346Y-69809807D01*
X163130334Y-70017988D01*
X163047305Y-70207277D01*
X163002349Y-70260763D01*
X162935613Y-70281453D01*
X162868285Y-70262778D01*
X162846068Y-70245148D01*
X162163101Y-69562181D01*
X162129616Y-69500858D01*
X162134600Y-69431166D01*
X162176472Y-69375233D01*
X162241936Y-69350816D01*
X162250782Y-69350500D01*
X162521721Y-69350500D01*
X162524862Y-69350539D01*
X162612363Y-69352757D01*
X162670432Y-69342348D01*
X162679736Y-69341043D01*
X162738438Y-69335074D01*
X162767467Y-69325965D01*
X162782700Y-69322226D01*
X162812653Y-69316858D01*
X162867426Y-69294978D01*
X162876301Y-69291819D01*
X162893675Y-69286367D01*
X162932588Y-69274159D01*
X162959194Y-69259390D01*
X162973362Y-69252662D01*
X163001617Y-69241377D01*
X163050879Y-69208909D01*
X163058910Y-69204043D01*
X163110502Y-69175409D01*
X163133587Y-69155589D01*
X163146114Y-69146144D01*
X163171519Y-69129402D01*
X163213251Y-69087668D01*
X163220123Y-69081300D01*
X163264895Y-69042866D01*
X163283519Y-69018803D01*
X163293880Y-69007039D01*
X165797409Y-66503510D01*
X165799579Y-66501394D01*
X165863053Y-66441059D01*
X165896765Y-66392622D01*
X165902408Y-66385138D01*
X165939698Y-66339407D01*
X165953786Y-66312435D01*
X165961911Y-66299024D01*
X165979295Y-66274049D01*
X166002568Y-66219815D01*
X166006598Y-66211331D01*
X166033908Y-66159051D01*
X166033909Y-66159049D01*
X166042278Y-66129797D01*
X166047534Y-66115032D01*
X166059540Y-66087058D01*
X166071418Y-66029256D01*
X166073651Y-66020156D01*
X166089887Y-65963418D01*
X166092197Y-65933077D01*
X166094376Y-65917535D01*
X166100500Y-65887741D01*
X166100500Y-65828757D01*
X166100858Y-65819342D01*
X166103497Y-65784685D01*
X166105337Y-65760523D01*
X166101493Y-65730338D01*
X166100500Y-65714675D01*
X166100500Y-64914142D01*
X166120185Y-64847103D01*
X166172989Y-64801348D01*
X166181169Y-64797959D01*
X166192331Y-64793796D01*
X166307546Y-64707546D01*
X166393796Y-64592331D01*
X166444091Y-64457483D01*
X166450500Y-64397873D01*
X166450499Y-62602128D01*
X166444091Y-62542517D01*
X166393796Y-62407669D01*
X166307546Y-62292454D01*
X166192331Y-62206204D01*
X166177522Y-62200680D01*
X166121591Y-62158810D01*
X166097174Y-62093346D01*
X166112026Y-62025073D01*
X166161431Y-61975668D01*
X166220858Y-61960500D01*
X167682217Y-61960500D01*
X167749256Y-61980185D01*
X167769898Y-61996819D01*
X169397181Y-63624101D01*
X169430666Y-63685424D01*
X169433500Y-63711782D01*
X169433500Y-70958972D01*
X169413815Y-71026011D01*
X169400730Y-71042955D01*
X169388177Y-71056591D01*
X169245836Y-71211215D01*
X169215815Y-71257166D01*
X169109825Y-71419395D01*
X169009938Y-71647117D01*
X168948891Y-71888183D01*
X168928356Y-72136000D01*
X168948891Y-72383816D01*
X168948891Y-72383819D01*
X168948892Y-72383821D01*
X169009937Y-72624881D01*
X169042555Y-72699242D01*
X169109825Y-72852604D01*
X169109827Y-72852607D01*
X169245836Y-73060785D01*
X169414256Y-73243738D01*
X169414259Y-73243740D01*
X169610485Y-73396470D01*
X169610487Y-73396471D01*
X169610491Y-73396474D01*
X169829190Y-73514828D01*
X170064386Y-73595571D01*
X170309665Y-73636500D01*
X170558335Y-73636500D01*
X170803614Y-73595571D01*
X171038810Y-73514828D01*
X171257509Y-73396474D01*
X171453744Y-73243738D01*
X171622164Y-73060785D01*
X171758173Y-72852607D01*
X171858063Y-72624881D01*
X171919108Y-72383821D01*
X171939643Y-72136000D01*
X171919108Y-71888179D01*
X171858063Y-71647119D01*
X171758173Y-71419393D01*
X171622164Y-71211215D01*
X171479823Y-71056591D01*
X171467270Y-71042955D01*
X171436348Y-70980300D01*
X171434500Y-70958972D01*
X171434500Y-63260238D01*
X171434540Y-63257096D01*
X171436756Y-63169638D01*
X171426351Y-63111585D01*
X171425042Y-63102253D01*
X171419074Y-63043562D01*
X171414082Y-63027651D01*
X171409967Y-63014537D01*
X171406223Y-62999286D01*
X171400857Y-62969343D01*
X171378976Y-62914565D01*
X171375816Y-62905689D01*
X171373056Y-62896892D01*
X171358159Y-62849412D01*
X171348917Y-62832762D01*
X171343395Y-62822812D01*
X171336660Y-62808631D01*
X171325377Y-62780383D01*
X171292917Y-62731131D01*
X171288036Y-62723074D01*
X171275667Y-62700789D01*
X171259409Y-62671498D01*
X171239582Y-62648403D01*
X171230146Y-62635888D01*
X171213402Y-62610481D01*
X171213400Y-62610479D01*
X171213399Y-62610477D01*
X171171693Y-62568772D01*
X171165287Y-62561860D01*
X171126864Y-62517102D01*
X171102804Y-62498478D01*
X171091026Y-62488105D01*
X168865567Y-60262647D01*
X168863374Y-60260398D01*
X168803059Y-60196946D01*
X168754642Y-60163247D01*
X168747119Y-60157575D01*
X168701405Y-60120300D01*
X168674440Y-60106215D01*
X168661019Y-60098084D01*
X168636049Y-60080705D01*
X168636048Y-60080704D01*
X168636046Y-60080703D01*
X168581845Y-60057443D01*
X168573336Y-60053402D01*
X168521053Y-60026092D01*
X168515126Y-60024396D01*
X168491798Y-60017721D01*
X168477020Y-60012459D01*
X168449058Y-60000460D01*
X168391272Y-59988583D01*
X168382128Y-59986338D01*
X168325421Y-59970113D01*
X168295075Y-59967802D01*
X168279534Y-59965622D01*
X168249742Y-59959500D01*
X168249741Y-59959500D01*
X168190758Y-59959500D01*
X168181344Y-59959142D01*
X168172198Y-59958445D01*
X168122524Y-59954663D01*
X168122523Y-59954663D01*
X168122522Y-59954663D01*
X168092349Y-59958506D01*
X168076683Y-59959500D01*
X161304239Y-59959500D01*
X161301097Y-59959460D01*
X161213635Y-59957243D01*
X161155589Y-59967646D01*
X161146264Y-59968954D01*
X161087562Y-59974925D01*
X161058528Y-59984034D01*
X161043288Y-59987775D01*
X161013345Y-59993142D01*
X160958568Y-60015021D01*
X160949698Y-60018179D01*
X160893410Y-60035841D01*
X160866809Y-60050605D01*
X160852639Y-60057335D01*
X160824385Y-60068622D01*
X160775121Y-60101087D01*
X160767070Y-60105964D01*
X160715498Y-60134590D01*
X160692414Y-60154407D01*
X160679887Y-60163853D01*
X160654481Y-60180598D01*
X160612775Y-60222303D01*
X160605868Y-60228704D01*
X160561103Y-60267135D01*
X160542480Y-60291193D01*
X160532108Y-60302969D01*
X159322645Y-61512433D01*
X159320398Y-61514624D01*
X159256948Y-61574940D01*
X159223244Y-61623362D01*
X159217573Y-61630882D01*
X159180301Y-61676593D01*
X159166210Y-61703566D01*
X159158082Y-61716983D01*
X159140705Y-61741950D01*
X159117439Y-61796165D01*
X159113399Y-61804671D01*
X159086090Y-61856952D01*
X159077720Y-61886201D01*
X159072459Y-61900978D01*
X159060460Y-61928942D01*
X159048587Y-61986713D01*
X159046342Y-61995860D01*
X159030113Y-62052580D01*
X159027802Y-62082925D01*
X159025622Y-62098466D01*
X159019500Y-62128258D01*
X159019500Y-62187241D01*
X159019142Y-62196655D01*
X159014743Y-62254432D01*
X159014663Y-62255477D01*
X159018506Y-62285651D01*
X159019500Y-62301317D01*
X159019500Y-62539241D01*
X158999815Y-62606280D01*
X158983186Y-62626918D01*
X158981507Y-62628596D01*
X158851269Y-62814596D01*
X158796692Y-62858220D01*
X158727193Y-62865413D01*
X158664839Y-62833891D01*
X158648119Y-62814595D01*
X158518109Y-62628921D01*
X158351081Y-62461893D01*
X158157576Y-62326399D01*
X157943492Y-62226569D01*
X157730000Y-62169364D01*
X157730000Y-63064498D01*
X157622315Y-63015320D01*
X157515763Y-63000000D01*
X157444237Y-63000000D01*
X157337685Y-63015320D01*
X157230000Y-63064498D01*
X157230000Y-62169364D01*
X157229999Y-62169364D01*
X157016507Y-62226569D01*
X156802421Y-62326400D01*
X156608921Y-62461890D01*
X156441893Y-62628918D01*
X156311880Y-62814596D01*
X156257303Y-62858220D01*
X156187804Y-62865413D01*
X156125450Y-62833891D01*
X156108730Y-62814595D01*
X155978495Y-62628599D01*
X155811401Y-62461505D01*
X155617830Y-62325965D01*
X155403663Y-62226097D01*
X155342501Y-62209709D01*
X155175407Y-62164936D01*
X154939999Y-62144340D01*
X154704592Y-62164936D01*
X154476336Y-62226097D01*
X154262170Y-62325965D01*
X154068598Y-62461505D01*
X153901505Y-62628598D01*
X153771575Y-62814159D01*
X153716998Y-62857784D01*
X153647500Y-62864978D01*
X153585145Y-62833455D01*
X153568425Y-62814159D01*
X153438495Y-62628599D01*
X153436814Y-62626918D01*
X153435029Y-62623650D01*
X153432273Y-62619713D01*
X153432712Y-62619405D01*
X153403332Y-62565593D01*
X153400500Y-62539241D01*
X153400500Y-61482277D01*
X153400540Y-61479135D01*
X153402757Y-61391639D01*
X153392348Y-61333567D01*
X153391039Y-61324232D01*
X153385074Y-61265562D01*
X153375963Y-61236527D01*
X153372226Y-61221297D01*
X153366859Y-61191348D01*
X153344972Y-61136555D01*
X153341816Y-61127690D01*
X153324159Y-61071412D01*
X153309395Y-61044813D01*
X153302665Y-61030640D01*
X153291378Y-61002383D01*
X153258909Y-60953118D01*
X153254040Y-60945082D01*
X153225409Y-60893498D01*
X153225408Y-60893496D01*
X153205593Y-60870415D01*
X153196144Y-60857883D01*
X153179402Y-60832481D01*
X153137699Y-60790779D01*
X153131292Y-60783866D01*
X153092865Y-60739103D01*
X153068802Y-60720477D01*
X153057022Y-60710102D01*
X151157567Y-58810647D01*
X151155412Y-58808438D01*
X151095059Y-58744947D01*
X151046640Y-58711246D01*
X151039118Y-58705575D01*
X150993407Y-58668302D01*
X150993406Y-58668301D01*
X150966809Y-58654408D01*
X150916502Y-58605922D01*
X150900395Y-58537934D01*
X150923602Y-58472031D01*
X150978754Y-58429136D01*
X151024221Y-58420500D01*
X195455500Y-58420500D01*
X195522539Y-58440185D01*
X195568294Y-58492989D01*
X195579500Y-58544500D01*
X195579500Y-119255500D01*
X195559815Y-119322539D01*
X195507011Y-119368294D01*
X195455500Y-119379500D01*
X104264500Y-119379500D01*
X104197461Y-119359815D01*
X104151706Y-119307011D01*
X104140500Y-119255500D01*
X104140500Y-101600000D01*
X107864340Y-101600000D01*
X107884936Y-101835407D01*
X107915192Y-101948324D01*
X107946097Y-102063663D01*
X108045965Y-102277830D01*
X108181505Y-102471401D01*
X108181508Y-102471404D01*
X108303818Y-102593714D01*
X108337303Y-102655037D01*
X108332319Y-102724729D01*
X108290447Y-102780662D01*
X108259472Y-102797576D01*
X108127913Y-102846646D01*
X108012811Y-102932811D01*
X107926647Y-103047910D01*
X107876400Y-103182628D01*
X107870354Y-103238867D01*
X107870000Y-103245481D01*
X107870000Y-103890000D01*
X108786314Y-103890000D01*
X108760507Y-103930156D01*
X108720000Y-104068111D01*
X108720000Y-104211889D01*
X108760507Y-104349844D01*
X108786314Y-104390000D01*
X107870000Y-104390000D01*
X107870000Y-105034518D01*
X107870354Y-105041132D01*
X107876400Y-105097371D01*
X107926647Y-105232089D01*
X108012811Y-105347188D01*
X108127910Y-105433352D01*
X108262628Y-105483599D01*
X108318867Y-105489645D01*
X108325482Y-105490000D01*
X108969999Y-105490000D01*
X108969999Y-104575501D01*
X109077685Y-104624680D01*
X109184237Y-104640000D01*
X109255763Y-104640000D01*
X109362315Y-104624680D01*
X109470000Y-104575501D01*
X109470000Y-105490000D01*
X110114518Y-105490000D01*
X110121132Y-105489645D01*
X110177371Y-105483599D01*
X110312089Y-105433352D01*
X110427188Y-105347188D01*
X110513352Y-105232089D01*
X110563599Y-105097371D01*
X110569645Y-105041132D01*
X110570000Y-105034518D01*
X110570000Y-104390000D01*
X109653686Y-104390000D01*
X109679493Y-104349844D01*
X109720000Y-104211889D01*
X109720000Y-104068111D01*
X109679493Y-103930156D01*
X109653686Y-103890000D01*
X110570000Y-103890000D01*
X110570000Y-103245481D01*
X110569645Y-103238867D01*
X110563599Y-103182628D01*
X110513352Y-103047910D01*
X110427188Y-102932811D01*
X110312088Y-102846647D01*
X110180528Y-102797577D01*
X110124594Y-102755705D01*
X110100178Y-102690240D01*
X110115030Y-102621967D01*
X110136175Y-102593720D01*
X110258495Y-102471401D01*
X110394035Y-102277830D01*
X110493903Y-102063663D01*
X110555063Y-101835408D01*
X110575659Y-101600000D01*
X110555063Y-101364592D01*
X110493903Y-101136337D01*
X110394035Y-100922171D01*
X110258495Y-100728599D01*
X110256819Y-100726923D01*
X110255040Y-100723665D01*
X110252272Y-100719712D01*
X110252712Y-100719403D01*
X110223334Y-100665600D01*
X110220500Y-100639242D01*
X110220500Y-95394142D01*
X110240185Y-95327103D01*
X110292989Y-95281348D01*
X110301169Y-95277959D01*
X110302397Y-95277501D01*
X110312331Y-95273796D01*
X110427546Y-95187546D01*
X110513796Y-95072331D01*
X110564091Y-94937483D01*
X110570500Y-94877873D01*
X110570499Y-93082128D01*
X110564091Y-93022517D01*
X110513796Y-92887669D01*
X110427546Y-92772454D01*
X110312331Y-92686204D01*
X110180399Y-92636996D01*
X110124467Y-92595125D01*
X110100050Y-92529661D01*
X110114902Y-92461388D01*
X110136053Y-92433133D01*
X110258109Y-92311077D01*
X110393600Y-92117576D01*
X110493430Y-91903492D01*
X110550636Y-91690000D01*
X109653686Y-91690000D01*
X109679493Y-91649844D01*
X109720000Y-91511889D01*
X109720000Y-91368111D01*
X109679493Y-91230156D01*
X109653686Y-91190000D01*
X110550636Y-91190000D01*
X110550635Y-91189999D01*
X110493430Y-90976507D01*
X110393599Y-90762421D01*
X110258109Y-90568921D01*
X110091081Y-90401893D01*
X109897576Y-90266399D01*
X109683492Y-90166569D01*
X109469999Y-90109364D01*
X109469999Y-91004498D01*
X109362315Y-90955320D01*
X109255763Y-90940000D01*
X109184237Y-90940000D01*
X109077685Y-90955320D01*
X108970000Y-91004498D01*
X108970000Y-90109364D01*
X108969999Y-90109364D01*
X108756507Y-90166569D01*
X108542421Y-90266400D01*
X108348921Y-90401890D01*
X108181890Y-90568921D01*
X108046400Y-90762421D01*
X107946569Y-90976507D01*
X107889364Y-91189999D01*
X107889364Y-91190000D01*
X108786314Y-91190000D01*
X108760507Y-91230156D01*
X108720000Y-91368111D01*
X108720000Y-91511889D01*
X108760507Y-91649844D01*
X108786314Y-91690000D01*
X107889364Y-91690000D01*
X107946569Y-91903492D01*
X108046399Y-92117576D01*
X108181893Y-92311081D01*
X108303946Y-92433134D01*
X108337431Y-92494457D01*
X108332447Y-92564149D01*
X108290575Y-92620082D01*
X108259599Y-92636997D01*
X108127669Y-92686204D01*
X108012454Y-92772454D01*
X107926204Y-92887668D01*
X107875909Y-93022516D01*
X107870210Y-93075527D01*
X107869500Y-93082127D01*
X107869500Y-93085448D01*
X107869500Y-93085449D01*
X107869500Y-94874560D01*
X107869500Y-94874578D01*
X107869501Y-94877872D01*
X107869853Y-94881152D01*
X107869854Y-94881159D01*
X107875909Y-94937484D01*
X107901056Y-95004906D01*
X107926204Y-95072331D01*
X108012454Y-95187546D01*
X108127669Y-95273796D01*
X108134922Y-95276501D01*
X108138831Y-95277959D01*
X108194766Y-95319830D01*
X108219184Y-95385294D01*
X108219500Y-95394142D01*
X108219500Y-100639241D01*
X108199815Y-100706280D01*
X108183186Y-100726918D01*
X108181504Y-100728599D01*
X108045965Y-100922170D01*
X107946097Y-101136336D01*
X107884936Y-101364592D01*
X107864340Y-101600000D01*
X104140500Y-101600000D01*
X104140500Y-58544500D01*
X104160185Y-58477461D01*
X104212989Y-58431706D01*
X104264500Y-58420500D01*
X127362480Y-58420500D01*
X127429519Y-58440185D01*
G37*
%TD.AperFunction*%
%TA.AperFunction,Conductor*%
G36*
X130413829Y-72902185D02*
G01*
X130459584Y-72954989D01*
X130469528Y-73024147D01*
X130440503Y-73087703D01*
X130434471Y-73094181D01*
X128334646Y-75194004D01*
X128332399Y-75196195D01*
X128268948Y-75256511D01*
X128235244Y-75304934D01*
X128229573Y-75312454D01*
X128192301Y-75358165D01*
X128178210Y-75385138D01*
X128170082Y-75398555D01*
X128152705Y-75423522D01*
X128129439Y-75477737D01*
X128125399Y-75486243D01*
X128098090Y-75538524D01*
X128089720Y-75567773D01*
X128084459Y-75582550D01*
X128072460Y-75610514D01*
X128060587Y-75668285D01*
X128058342Y-75677432D01*
X128042113Y-75734152D01*
X128042112Y-75734154D01*
X128042113Y-75734154D01*
X128039844Y-75763952D01*
X128039802Y-75764497D01*
X128037622Y-75780038D01*
X128031500Y-75809830D01*
X128031500Y-75868813D01*
X128031142Y-75878227D01*
X128026663Y-75937047D01*
X128030506Y-75967226D01*
X128031499Y-75982889D01*
X128031500Y-79798218D01*
X128011815Y-79865257D01*
X127995181Y-79885899D01*
X122557899Y-85323181D01*
X122496576Y-85356666D01*
X122470218Y-85359500D01*
X117800758Y-85359500D01*
X117733719Y-85339815D01*
X117713077Y-85323181D01*
X117711404Y-85321508D01*
X117711401Y-85321505D01*
X117525839Y-85191573D01*
X117482215Y-85136997D01*
X117475023Y-85067498D01*
X117506545Y-85005144D01*
X117525831Y-84988432D01*
X117711401Y-84858495D01*
X117878495Y-84691401D01*
X118014035Y-84497830D01*
X118113903Y-84283663D01*
X118175063Y-84055408D01*
X118195659Y-83820000D01*
X118175063Y-83584592D01*
X118113903Y-83356337D01*
X118014035Y-83142171D01*
X117878495Y-82948599D01*
X117711401Y-82781505D01*
X117525839Y-82651573D01*
X117482216Y-82596998D01*
X117475022Y-82527500D01*
X117506545Y-82465145D01*
X117525837Y-82448428D01*
X117711401Y-82318495D01*
X117878495Y-82151401D01*
X118014035Y-81957830D01*
X118113903Y-81743663D01*
X118175063Y-81515408D01*
X118195659Y-81280000D01*
X118175063Y-81044592D01*
X118113903Y-80816337D01*
X118014035Y-80602171D01*
X117878495Y-80408599D01*
X117711401Y-80241505D01*
X117525839Y-80111573D01*
X117482215Y-80056997D01*
X117475023Y-79987498D01*
X117506545Y-79925144D01*
X117525831Y-79908432D01*
X117711401Y-79778495D01*
X117878495Y-79611401D01*
X118014035Y-79417830D01*
X118113903Y-79203663D01*
X118175063Y-78975408D01*
X118195659Y-78740000D01*
X118183903Y-78605637D01*
X118175063Y-78504592D01*
X118175063Y-78504591D01*
X118113903Y-78276337D01*
X118014035Y-78062171D01*
X117878495Y-77868599D01*
X117711401Y-77701505D01*
X117517830Y-77565965D01*
X117303663Y-77466097D01*
X117208812Y-77440682D01*
X117075407Y-77404936D01*
X116840000Y-77384340D01*
X116604592Y-77404936D01*
X116376336Y-77466097D01*
X116162170Y-77565965D01*
X115968598Y-77701505D01*
X115801505Y-77868598D01*
X115665965Y-78062170D01*
X115566097Y-78276336D01*
X115504936Y-78504592D01*
X115484340Y-78739999D01*
X115504936Y-78975407D01*
X115536016Y-79091398D01*
X115566097Y-79203663D01*
X115665965Y-79417830D01*
X115801505Y-79611401D01*
X115968599Y-79778495D01*
X116154160Y-79908426D01*
X116197783Y-79963002D01*
X116204976Y-80032501D01*
X116173454Y-80094855D01*
X116154160Y-80111574D01*
X115972857Y-80238524D01*
X115968595Y-80241508D01*
X115801505Y-80408598D01*
X115665965Y-80602170D01*
X115566097Y-80816336D01*
X115504936Y-81044592D01*
X115484340Y-81280000D01*
X115504936Y-81515407D01*
X115536251Y-81632275D01*
X115566097Y-81743663D01*
X115665965Y-81957830D01*
X115801505Y-82151401D01*
X115968599Y-82318495D01*
X116154160Y-82448426D01*
X116197783Y-82503002D01*
X116204976Y-82572501D01*
X116173454Y-82634855D01*
X116154158Y-82651575D01*
X115986940Y-82768663D01*
X115968595Y-82781508D01*
X115801505Y-82948598D01*
X115665965Y-83142170D01*
X115566097Y-83356336D01*
X115504936Y-83584592D01*
X115484340Y-83820000D01*
X115504936Y-84055407D01*
X115535192Y-84168324D01*
X115566097Y-84283663D01*
X115665965Y-84497830D01*
X115801505Y-84691401D01*
X115968599Y-84858495D01*
X116154160Y-84988426D01*
X116197783Y-85043002D01*
X116204976Y-85112501D01*
X116173454Y-85174855D01*
X116154160Y-85191574D01*
X115968731Y-85321413D01*
X115968595Y-85321508D01*
X115801505Y-85488598D01*
X115665965Y-85682170D01*
X115566097Y-85896336D01*
X115504936Y-86124592D01*
X115484340Y-86360000D01*
X115504936Y-86595407D01*
X115523991Y-86666520D01*
X115566097Y-86823663D01*
X115665965Y-87037830D01*
X115801505Y-87231401D01*
X115968599Y-87398495D01*
X116154160Y-87528426D01*
X116197783Y-87583002D01*
X116204976Y-87652501D01*
X116173454Y-87714855D01*
X116154158Y-87731575D01*
X115970035Y-87860500D01*
X115968595Y-87861508D01*
X115801505Y-88028598D01*
X115665965Y-88222170D01*
X115566097Y-88436336D01*
X115504936Y-88664592D01*
X115484340Y-88899999D01*
X115504936Y-89135407D01*
X115523991Y-89206520D01*
X115566097Y-89363663D01*
X115665965Y-89577830D01*
X115801505Y-89771401D01*
X115968599Y-89938495D01*
X116154160Y-90068426D01*
X116197783Y-90123002D01*
X116204976Y-90192501D01*
X116173454Y-90254855D01*
X116154160Y-90271574D01*
X115996807Y-90381754D01*
X115968595Y-90401508D01*
X115801505Y-90568598D01*
X115665965Y-90762170D01*
X115566097Y-90976336D01*
X115504936Y-91204592D01*
X115484340Y-91439999D01*
X115504936Y-91675407D01*
X115523991Y-91746520D01*
X115566097Y-91903663D01*
X115665965Y-92117830D01*
X115801505Y-92311401D01*
X115968599Y-92478495D01*
X116154160Y-92608426D01*
X116197783Y-92663002D01*
X116204976Y-92732501D01*
X116173454Y-92794855D01*
X116154158Y-92811575D01*
X115986830Y-92928740D01*
X115968595Y-92941508D01*
X115801505Y-93108598D01*
X115665965Y-93302170D01*
X115566097Y-93516336D01*
X115504936Y-93744592D01*
X115484340Y-93980000D01*
X115504936Y-94215407D01*
X115523991Y-94286520D01*
X115566097Y-94443663D01*
X115665965Y-94657830D01*
X115801505Y-94851401D01*
X115968599Y-95018495D01*
X116154160Y-95148426D01*
X116197783Y-95203002D01*
X116204976Y-95272501D01*
X116173454Y-95334855D01*
X116154160Y-95351574D01*
X115970035Y-95480500D01*
X115968595Y-95481508D01*
X115801505Y-95648598D01*
X115665965Y-95842170D01*
X115566097Y-96056336D01*
X115504936Y-96284592D01*
X115484340Y-96520000D01*
X115504936Y-96755407D01*
X115528665Y-96843963D01*
X115566097Y-96983663D01*
X115665965Y-97197830D01*
X115801505Y-97391401D01*
X115968599Y-97558495D01*
X116154160Y-97688426D01*
X116197783Y-97743002D01*
X116204976Y-97812501D01*
X116173454Y-97874855D01*
X116154158Y-97891575D01*
X115972857Y-98018524D01*
X115968595Y-98021508D01*
X115801505Y-98188598D01*
X115665965Y-98382170D01*
X115566097Y-98596336D01*
X115504936Y-98824592D01*
X115484340Y-99060000D01*
X115504936Y-99295407D01*
X115530496Y-99390798D01*
X115566097Y-99523663D01*
X115665965Y-99737830D01*
X115801505Y-99931401D01*
X115968599Y-100098495D01*
X116154160Y-100228426D01*
X116197783Y-100283002D01*
X116204976Y-100352501D01*
X116173454Y-100414855D01*
X116154160Y-100431574D01*
X115970035Y-100560500D01*
X115968595Y-100561508D01*
X115801505Y-100728598D01*
X115665965Y-100922170D01*
X115566097Y-101136336D01*
X115504936Y-101364592D01*
X115484340Y-101599999D01*
X115504936Y-101835407D01*
X115535192Y-101948324D01*
X115566097Y-102063663D01*
X115665965Y-102277830D01*
X115801505Y-102471401D01*
X115968599Y-102638495D01*
X116154160Y-102768426D01*
X116197783Y-102823002D01*
X116204976Y-102892501D01*
X116173454Y-102954855D01*
X116154159Y-102971575D01*
X115968595Y-103101508D01*
X115801505Y-103268598D01*
X115665965Y-103462170D01*
X115566097Y-103676336D01*
X115504936Y-103904592D01*
X115484340Y-104139999D01*
X115504936Y-104375407D01*
X115511574Y-104400179D01*
X115566097Y-104603663D01*
X115665965Y-104817830D01*
X115801505Y-105011401D01*
X115968599Y-105178495D01*
X116154160Y-105308426D01*
X116197783Y-105363002D01*
X116204976Y-105432501D01*
X116173454Y-105494855D01*
X116154160Y-105511574D01*
X115970035Y-105640500D01*
X115968595Y-105641508D01*
X115801505Y-105808598D01*
X115665965Y-106002170D01*
X115566097Y-106216336D01*
X115504936Y-106444592D01*
X115484340Y-106680000D01*
X115504936Y-106915407D01*
X115536349Y-107032640D01*
X115566097Y-107143663D01*
X115665965Y-107357830D01*
X115801505Y-107551401D01*
X115968599Y-107718495D01*
X116154160Y-107848426D01*
X116197783Y-107903002D01*
X116204976Y-107972501D01*
X116173454Y-108034855D01*
X116154159Y-108051575D01*
X115968595Y-108181508D01*
X115801505Y-108348598D01*
X115665965Y-108542170D01*
X115566097Y-108756336D01*
X115504936Y-108984592D01*
X115484340Y-109220000D01*
X115504936Y-109455407D01*
X115533871Y-109563393D01*
X115566097Y-109683663D01*
X115665965Y-109897830D01*
X115801505Y-110091401D01*
X115968599Y-110258495D01*
X116154596Y-110388732D01*
X116198219Y-110443307D01*
X116205412Y-110512806D01*
X116173890Y-110575160D01*
X116154595Y-110591880D01*
X115968919Y-110721892D01*
X115801890Y-110888921D01*
X115666400Y-111082421D01*
X115566569Y-111296507D01*
X115509364Y-111509999D01*
X115509364Y-111510000D01*
X116406314Y-111510000D01*
X116380507Y-111550156D01*
X116340000Y-111688111D01*
X116340000Y-111831889D01*
X116380507Y-111969844D01*
X116406314Y-112010000D01*
X115509364Y-112010000D01*
X115566569Y-112223492D01*
X115666399Y-112437576D01*
X115801893Y-112631081D01*
X115923946Y-112753134D01*
X115957431Y-112814457D01*
X115952447Y-112884149D01*
X115910575Y-112940082D01*
X115879599Y-112956997D01*
X115747669Y-113006204D01*
X115632454Y-113092454D01*
X115546203Y-113207671D01*
X115542039Y-113218835D01*
X115500167Y-113274768D01*
X115434702Y-113299184D01*
X115425858Y-113299500D01*
X114217500Y-113299500D01*
X114150461Y-113279815D01*
X114104706Y-113227011D01*
X114093500Y-113175500D01*
X114093500Y-76602783D01*
X114113185Y-76535744D01*
X114129819Y-76515102D01*
X117726102Y-72918819D01*
X117787425Y-72885334D01*
X117813783Y-72882500D01*
X130346790Y-72882500D01*
X130413829Y-72902185D01*
G37*
%TD.AperFunction*%
%TA.AperFunction,Conductor*%
G36*
X132372494Y-77609099D02*
G01*
X132425229Y-77642989D01*
X132461680Y-77682585D01*
X132584256Y-77815738D01*
X132617092Y-77841295D01*
X132780485Y-77968470D01*
X132780487Y-77968471D01*
X132780491Y-77968474D01*
X132999190Y-78086828D01*
X133234386Y-78167571D01*
X133479665Y-78208500D01*
X133728335Y-78208500D01*
X133973614Y-78167571D01*
X134208810Y-78086828D01*
X134427509Y-77968474D01*
X134623744Y-77815738D01*
X134751507Y-77676950D01*
X134811391Y-77640962D01*
X134881229Y-77643062D01*
X134938845Y-77682585D01*
X134946537Y-77693106D01*
X134988336Y-77757083D01*
X135143230Y-77925343D01*
X135174152Y-77987997D01*
X135176000Y-78009325D01*
X135176000Y-79003717D01*
X135156315Y-79070756D01*
X135139681Y-79091398D01*
X123827899Y-90403181D01*
X123766576Y-90436666D01*
X123740218Y-90439500D01*
X117800758Y-90439500D01*
X117733719Y-90419815D01*
X117713077Y-90403181D01*
X117711404Y-90401508D01*
X117711401Y-90401505D01*
X117525839Y-90271573D01*
X117482215Y-90216997D01*
X117475023Y-90147498D01*
X117506545Y-90085144D01*
X117525831Y-90068432D01*
X117711401Y-89938495D01*
X117878495Y-89771401D01*
X118014035Y-89577830D01*
X118113903Y-89363663D01*
X118175063Y-89135408D01*
X118195659Y-88900000D01*
X118175063Y-88664592D01*
X118113903Y-88436337D01*
X118014035Y-88222171D01*
X117878495Y-88028599D01*
X117711401Y-87861505D01*
X117525839Y-87731573D01*
X117482216Y-87676998D01*
X117475022Y-87607500D01*
X117506545Y-87545145D01*
X117525837Y-87528428D01*
X117711401Y-87398495D01*
X117713076Y-87396819D01*
X117716334Y-87395040D01*
X117720288Y-87392272D01*
X117720596Y-87392712D01*
X117774400Y-87363334D01*
X117800758Y-87360500D01*
X122921721Y-87360500D01*
X122924862Y-87360539D01*
X123012363Y-87362757D01*
X123070432Y-87352348D01*
X123079736Y-87351043D01*
X123138438Y-87345074D01*
X123167467Y-87335965D01*
X123182700Y-87332226D01*
X123212653Y-87326858D01*
X123267426Y-87304978D01*
X123276301Y-87301819D01*
X123293675Y-87296367D01*
X123332588Y-87284159D01*
X123359194Y-87269390D01*
X123373362Y-87262662D01*
X123401617Y-87251377D01*
X123450879Y-87218909D01*
X123458910Y-87214043D01*
X123510502Y-87185409D01*
X123533587Y-87165589D01*
X123546114Y-87156144D01*
X123571519Y-87139402D01*
X123613251Y-87097668D01*
X123620123Y-87091300D01*
X123664895Y-87052866D01*
X123683524Y-87028798D01*
X123693883Y-87017036D01*
X129729389Y-80981529D01*
X129731559Y-80979413D01*
X129795053Y-80919059D01*
X129828759Y-80870630D01*
X129834428Y-80863113D01*
X129871698Y-80817407D01*
X129885783Y-80790439D01*
X129893918Y-80777015D01*
X129900373Y-80767740D01*
X129911295Y-80752049D01*
X129934568Y-80697815D01*
X129938598Y-80689331D01*
X129965908Y-80637051D01*
X129970793Y-80619978D01*
X129974278Y-80607797D01*
X129979534Y-80593032D01*
X129991540Y-80565058D01*
X130003418Y-80507256D01*
X130005651Y-80498156D01*
X130021887Y-80441418D01*
X130024197Y-80411077D01*
X130026376Y-80395535D01*
X130032500Y-80365741D01*
X130032500Y-80306757D01*
X130032858Y-80297342D01*
X130034109Y-80280916D01*
X130037337Y-80238524D01*
X130033493Y-80208339D01*
X130032500Y-80192676D01*
X130032500Y-78060233D01*
X130052185Y-77993194D01*
X130104989Y-77947439D01*
X130174147Y-77937495D01*
X130232662Y-77962381D01*
X130240491Y-77968474D01*
X130459190Y-78086828D01*
X130694386Y-78167571D01*
X130939665Y-78208500D01*
X131188335Y-78208500D01*
X131433614Y-78167571D01*
X131668810Y-78086828D01*
X131887509Y-77968474D01*
X132083744Y-77815738D01*
X132242772Y-77642986D01*
X132302656Y-77606999D01*
X132372494Y-77609099D01*
G37*
%TD.AperFunction*%
%TA.AperFunction,Conductor*%
G36*
X137136098Y-80090121D02*
G01*
X137171683Y-80150250D01*
X137175500Y-80180780D01*
X137175500Y-82338217D01*
X137155815Y-82405256D01*
X137139181Y-82425898D01*
X126621899Y-92943181D01*
X126560576Y-92976666D01*
X126534218Y-92979500D01*
X117800758Y-92979500D01*
X117733719Y-92959815D01*
X117713077Y-92943181D01*
X117711401Y-92941505D01*
X117678579Y-92918523D01*
X117525839Y-92811573D01*
X117482216Y-92756998D01*
X117475022Y-92687500D01*
X117506545Y-92625145D01*
X117525837Y-92608428D01*
X117711401Y-92478495D01*
X117713076Y-92476819D01*
X117716334Y-92475040D01*
X117720288Y-92472272D01*
X117720596Y-92472712D01*
X117774400Y-92443334D01*
X117800758Y-92440500D01*
X124191721Y-92440500D01*
X124194862Y-92440539D01*
X124282363Y-92442757D01*
X124340432Y-92432348D01*
X124349736Y-92431043D01*
X124408438Y-92425074D01*
X124437467Y-92415965D01*
X124452700Y-92412226D01*
X124482653Y-92406858D01*
X124537426Y-92384978D01*
X124546301Y-92381819D01*
X124563675Y-92376367D01*
X124602588Y-92364159D01*
X124629194Y-92349390D01*
X124643362Y-92342662D01*
X124671617Y-92331377D01*
X124720879Y-92298909D01*
X124728910Y-92294043D01*
X124780502Y-92265409D01*
X124803587Y-92245589D01*
X124816114Y-92236144D01*
X124841519Y-92219402D01*
X124883251Y-92177668D01*
X124890123Y-92171300D01*
X124934895Y-92132866D01*
X124953519Y-92108803D01*
X124963880Y-92097039D01*
X136873909Y-80187010D01*
X136876079Y-80184894D01*
X136939553Y-80124559D01*
X136949724Y-80109944D01*
X137004177Y-80066165D01*
X137073654Y-80058775D01*
X137136098Y-80090121D01*
G37*
%TD.AperFunction*%
%TA.AperFunction,Conductor*%
G36*
X158854855Y-81921545D02*
G01*
X158871571Y-81940837D01*
X158953016Y-82057151D01*
X159001505Y-82126401D01*
X159003181Y-82128077D01*
X159004959Y-82131334D01*
X159007728Y-82135288D01*
X159007287Y-82135596D01*
X159036666Y-82189400D01*
X159039500Y-82215758D01*
X159039500Y-96034218D01*
X159019815Y-96101257D01*
X159003181Y-96121899D01*
X155069899Y-100055181D01*
X155008576Y-100088666D01*
X154982218Y-100091500D01*
X153318855Y-100091500D01*
X153251816Y-100071815D01*
X153227625Y-100051483D01*
X153225475Y-100049147D01*
X153165744Y-99984262D01*
X153127529Y-99954518D01*
X152969514Y-99831529D01*
X152969510Y-99831526D01*
X152969509Y-99831526D01*
X152750810Y-99713172D01*
X152750806Y-99713170D01*
X152750805Y-99713170D01*
X152515612Y-99632427D01*
X152505445Y-99630731D01*
X152442561Y-99600279D01*
X152406123Y-99540663D01*
X152407701Y-99470811D01*
X152438176Y-99420744D01*
X158197409Y-93661510D01*
X158199579Y-93659394D01*
X158263053Y-93599059D01*
X158296765Y-93550622D01*
X158302408Y-93543138D01*
X158339698Y-93497407D01*
X158353786Y-93470435D01*
X158361911Y-93457024D01*
X158379295Y-93432049D01*
X158402568Y-93377815D01*
X158406598Y-93369331D01*
X158433908Y-93317051D01*
X158436735Y-93307171D01*
X158442278Y-93287797D01*
X158447534Y-93273032D01*
X158459540Y-93245058D01*
X158471418Y-93187256D01*
X158473651Y-93178156D01*
X158489887Y-93121418D01*
X158492197Y-93091077D01*
X158494376Y-93075535D01*
X158500500Y-93045741D01*
X158500500Y-92986757D01*
X158500858Y-92977342D01*
X158500866Y-92977243D01*
X158505337Y-92918523D01*
X158501493Y-92888338D01*
X158500500Y-92872675D01*
X158500500Y-82215758D01*
X158520185Y-82148719D01*
X158536819Y-82128076D01*
X158538495Y-82126401D01*
X158668426Y-81940839D01*
X158723002Y-81897216D01*
X158792500Y-81890022D01*
X158854855Y-81921545D01*
G37*
%TD.AperFunction*%
%TA.AperFunction,Conductor*%
G36*
X161245703Y-87424847D02*
G01*
X161255730Y-87434578D01*
X161286256Y-87467738D01*
X161482485Y-87620470D01*
X161482487Y-87620471D01*
X161482491Y-87620474D01*
X161701190Y-87738828D01*
X161936386Y-87819571D01*
X162181665Y-87860500D01*
X162340217Y-87860500D01*
X162407256Y-87880185D01*
X162427898Y-87896819D01*
X166668431Y-92137351D01*
X166670624Y-92139600D01*
X166730942Y-92203054D01*
X166779362Y-92236755D01*
X166786871Y-92242416D01*
X166832593Y-92279698D01*
X166859562Y-92293785D01*
X166872982Y-92301916D01*
X166897949Y-92319294D01*
X166897950Y-92319294D01*
X166897951Y-92319295D01*
X166926105Y-92331377D01*
X166952163Y-92342559D01*
X166960663Y-92346595D01*
X166994286Y-92364159D01*
X167012951Y-92373909D01*
X167042196Y-92382277D01*
X167056986Y-92387543D01*
X167064464Y-92390752D01*
X167084942Y-92399540D01*
X167142737Y-92411416D01*
X167151854Y-92413654D01*
X167208582Y-92429887D01*
X167238916Y-92432196D01*
X167254453Y-92434374D01*
X167284259Y-92440500D01*
X167343242Y-92440500D01*
X167352656Y-92440858D01*
X167411476Y-92445337D01*
X167441651Y-92441493D01*
X167457317Y-92440500D01*
X171712257Y-92440500D01*
X171779296Y-92460185D01*
X171799938Y-92476819D01*
X176763181Y-97440061D01*
X176796666Y-97501384D01*
X176799500Y-97527742D01*
X176799500Y-98099241D01*
X176779815Y-98166280D01*
X176763186Y-98186918D01*
X176761506Y-98188597D01*
X176631574Y-98374160D01*
X176576997Y-98417784D01*
X176507498Y-98424977D01*
X176445144Y-98393455D01*
X176428429Y-98374164D01*
X176298495Y-98188599D01*
X176131401Y-98021505D01*
X175937830Y-97885965D01*
X175723663Y-97786097D01*
X175651074Y-97766647D01*
X175495407Y-97724936D01*
X175259999Y-97704340D01*
X175024592Y-97724936D01*
X174796336Y-97786097D01*
X174582170Y-97885965D01*
X174388598Y-98021505D01*
X174221505Y-98188598D01*
X174091575Y-98374159D01*
X174036998Y-98417784D01*
X173967500Y-98424978D01*
X173905145Y-98393455D01*
X173888425Y-98374159D01*
X173806792Y-98257575D01*
X173758495Y-98188599D01*
X173591401Y-98021505D01*
X173397830Y-97885965D01*
X173183663Y-97786097D01*
X173111074Y-97766647D01*
X172955407Y-97724936D01*
X172720000Y-97704340D01*
X172484592Y-97724936D01*
X172256336Y-97786097D01*
X172042170Y-97885965D01*
X171848598Y-98021505D01*
X171681505Y-98188598D01*
X171545965Y-98382170D01*
X171446097Y-98596336D01*
X171384936Y-98824592D01*
X171364340Y-99060000D01*
X171384936Y-99295407D01*
X171410496Y-99390798D01*
X171446097Y-99523663D01*
X171545965Y-99737830D01*
X171681505Y-99931401D01*
X171848599Y-100098495D01*
X172042170Y-100234035D01*
X172256337Y-100333903D01*
X172484592Y-100395063D01*
X172720000Y-100415659D01*
X172955408Y-100395063D01*
X173183663Y-100333903D01*
X173397830Y-100234035D01*
X173591401Y-100098495D01*
X173758495Y-99931401D01*
X173888426Y-99745839D01*
X173943002Y-99702216D01*
X174012500Y-99695022D01*
X174074855Y-99726545D01*
X174091571Y-99745837D01*
X174221505Y-99931401D01*
X174388599Y-100098495D01*
X174582170Y-100234035D01*
X174796337Y-100333903D01*
X174997557Y-100387819D01*
X175024592Y-100395063D01*
X175259999Y-100415659D01*
X175259999Y-100415658D01*
X175260000Y-100415659D01*
X175495408Y-100395063D01*
X175723663Y-100333903D01*
X175937830Y-100234035D01*
X176131401Y-100098495D01*
X176298495Y-99931401D01*
X176428426Y-99745839D01*
X176483002Y-99702217D01*
X176552501Y-99695024D01*
X176614855Y-99726546D01*
X176631571Y-99745837D01*
X176761505Y-99931401D01*
X176928599Y-100098495D01*
X177122170Y-100234035D01*
X177336337Y-100333903D01*
X177564592Y-100395063D01*
X177800000Y-100415659D01*
X178035408Y-100395063D01*
X178263663Y-100333903D01*
X178477830Y-100234035D01*
X178671401Y-100098495D01*
X178838495Y-99931401D01*
X178968427Y-99745838D01*
X179023001Y-99702216D01*
X179092499Y-99695022D01*
X179154854Y-99726545D01*
X179171572Y-99745838D01*
X179301505Y-99931401D01*
X179468599Y-100098495D01*
X179662170Y-100234035D01*
X179876337Y-100333903D01*
X180104592Y-100395063D01*
X180340000Y-100415659D01*
X180575408Y-100395063D01*
X180803663Y-100333903D01*
X181017830Y-100234035D01*
X181211401Y-100098495D01*
X181378495Y-99931401D01*
X181508426Y-99745839D01*
X181563002Y-99702216D01*
X181632500Y-99695022D01*
X181694855Y-99726545D01*
X181711571Y-99745837D01*
X181841505Y-99931401D01*
X182008599Y-100098495D01*
X182202170Y-100234035D01*
X182416337Y-100333903D01*
X182617557Y-100387819D01*
X182644592Y-100395063D01*
X182879999Y-100415659D01*
X182879999Y-100415658D01*
X182880000Y-100415659D01*
X183115408Y-100395063D01*
X183343663Y-100333903D01*
X183557830Y-100234035D01*
X183751401Y-100098495D01*
X183873717Y-99976178D01*
X183935036Y-99942696D01*
X184004728Y-99947680D01*
X184060662Y-99989551D01*
X184077577Y-100020528D01*
X184126647Y-100152088D01*
X184212811Y-100267188D01*
X184327910Y-100353352D01*
X184462628Y-100403599D01*
X184518867Y-100409645D01*
X184525482Y-100410000D01*
X185170000Y-100410000D01*
X185170000Y-99495501D01*
X185277685Y-99544680D01*
X185384237Y-99560000D01*
X185455763Y-99560000D01*
X185562315Y-99544680D01*
X185670000Y-99495501D01*
X185670000Y-100410000D01*
X186314518Y-100410000D01*
X186321132Y-100409645D01*
X186377371Y-100403599D01*
X186512089Y-100353352D01*
X186627188Y-100267188D01*
X186713352Y-100152089D01*
X186763599Y-100017371D01*
X186769645Y-99961132D01*
X186770000Y-99954518D01*
X186770000Y-99310000D01*
X185853686Y-99310000D01*
X185879493Y-99269844D01*
X185920000Y-99131889D01*
X185920000Y-98988111D01*
X185879493Y-98850156D01*
X185853686Y-98810000D01*
X186770000Y-98810000D01*
X186770000Y-98165481D01*
X186769645Y-98158867D01*
X186763599Y-98102628D01*
X186713352Y-97967910D01*
X186627188Y-97852811D01*
X186512089Y-97766647D01*
X186377371Y-97716400D01*
X186321132Y-97710354D01*
X186314518Y-97710000D01*
X185670000Y-97710000D01*
X185670000Y-98624498D01*
X185562315Y-98575320D01*
X185455763Y-98560000D01*
X185384237Y-98560000D01*
X185277685Y-98575320D01*
X185170000Y-98624498D01*
X185170000Y-97710000D01*
X184525482Y-97710000D01*
X184518867Y-97710354D01*
X184462628Y-97716400D01*
X184327910Y-97766647D01*
X184212811Y-97852811D01*
X184126645Y-97967913D01*
X184120681Y-97983905D01*
X184078810Y-98039839D01*
X184013345Y-98064255D01*
X183945072Y-98049403D01*
X183895667Y-97999997D01*
X183880500Y-97940571D01*
X183880500Y-97515028D01*
X183900185Y-97447989D01*
X183913270Y-97431045D01*
X183961625Y-97378517D01*
X184021512Y-97342527D01*
X184052855Y-97338500D01*
X188328217Y-97338500D01*
X188395256Y-97358185D01*
X188415898Y-97374819D01*
X191313181Y-100272101D01*
X191346666Y-100333424D01*
X191349500Y-100359782D01*
X191349500Y-102666000D01*
X191329815Y-102733039D01*
X191277011Y-102778794D01*
X191225500Y-102790000D01*
X190750000Y-102790000D01*
X190750000Y-103704498D01*
X190642315Y-103655320D01*
X190535763Y-103640000D01*
X190464237Y-103640000D01*
X190357685Y-103655320D01*
X190250000Y-103704498D01*
X190250000Y-102790000D01*
X189605482Y-102790000D01*
X189598867Y-102790354D01*
X189542628Y-102796400D01*
X189407910Y-102846647D01*
X189292811Y-102932811D01*
X189206646Y-103047913D01*
X189157576Y-103179472D01*
X189115705Y-103235405D01*
X189050240Y-103259821D01*
X188981967Y-103244969D01*
X188953714Y-103223818D01*
X188831404Y-103101508D01*
X188831404Y-103101507D01*
X188831401Y-103101505D01*
X188637830Y-102965965D01*
X188423663Y-102866097D01*
X188351070Y-102846646D01*
X188195407Y-102804936D01*
X187959999Y-102784340D01*
X187724592Y-102804936D01*
X187496336Y-102866097D01*
X187282170Y-102965965D01*
X187088598Y-103101505D01*
X186921505Y-103268598D01*
X186791575Y-103454159D01*
X186736998Y-103497784D01*
X186667500Y-103504978D01*
X186605145Y-103473455D01*
X186588425Y-103454159D01*
X186458494Y-103268598D01*
X186291404Y-103101508D01*
X186291404Y-103101507D01*
X186291401Y-103101505D01*
X186097830Y-102965965D01*
X185883663Y-102866097D01*
X185811070Y-102846646D01*
X185655407Y-102804936D01*
X185420000Y-102784340D01*
X185184592Y-102804936D01*
X184956336Y-102866097D01*
X184742170Y-102965965D01*
X184548598Y-103101505D01*
X184381505Y-103268598D01*
X184251575Y-103454159D01*
X184196998Y-103497784D01*
X184127500Y-103504978D01*
X184065145Y-103473455D01*
X184048425Y-103454159D01*
X183918494Y-103268598D01*
X183751404Y-103101508D01*
X183751403Y-103101507D01*
X183751401Y-103101505D01*
X183557830Y-102965965D01*
X183343663Y-102866097D01*
X183271070Y-102846646D01*
X183115407Y-102804936D01*
X182880000Y-102784340D01*
X182644592Y-102804936D01*
X182416336Y-102866097D01*
X182202170Y-102965965D01*
X182008598Y-103101505D01*
X181841505Y-103268598D01*
X181711575Y-103454159D01*
X181656998Y-103497784D01*
X181587500Y-103504978D01*
X181525145Y-103473455D01*
X181508425Y-103454159D01*
X181378494Y-103268598D01*
X181211404Y-103101508D01*
X181211404Y-103101507D01*
X181211401Y-103101505D01*
X181017830Y-102965965D01*
X180803663Y-102866097D01*
X180731070Y-102846646D01*
X180575407Y-102804936D01*
X180340000Y-102784340D01*
X180104592Y-102804936D01*
X179876336Y-102866097D01*
X179662170Y-102965965D01*
X179468598Y-103101505D01*
X179301508Y-103268595D01*
X179171574Y-103454160D01*
X179116997Y-103497785D01*
X179047498Y-103504977D01*
X178985144Y-103473455D01*
X178968429Y-103454164D01*
X178838495Y-103268599D01*
X178671401Y-103101505D01*
X178477830Y-102965965D01*
X178263663Y-102866097D01*
X178191070Y-102846646D01*
X178035407Y-102804936D01*
X177799999Y-102784340D01*
X177564592Y-102804936D01*
X177336336Y-102866097D01*
X177122170Y-102965965D01*
X176928598Y-103101505D01*
X176926923Y-103103181D01*
X176923665Y-103104959D01*
X176919712Y-103107728D01*
X176919403Y-103107287D01*
X176865600Y-103136666D01*
X176839242Y-103139500D01*
X174908855Y-103139500D01*
X174841816Y-103119815D01*
X174817625Y-103099483D01*
X174807251Y-103088214D01*
X174755744Y-103032262D01*
X174733612Y-103015036D01*
X174559514Y-102879529D01*
X174559510Y-102879526D01*
X174559509Y-102879526D01*
X174340810Y-102761172D01*
X174340806Y-102761170D01*
X174340805Y-102761170D01*
X174105615Y-102680429D01*
X173860335Y-102639500D01*
X173611665Y-102639500D01*
X173366384Y-102680429D01*
X173131194Y-102761170D01*
X173131190Y-102761171D01*
X173131190Y-102761172D01*
X173050321Y-102804936D01*
X172912485Y-102879529D01*
X172716259Y-103032259D01*
X172716256Y-103032261D01*
X172716256Y-103032262D01*
X172547836Y-103215215D01*
X172528397Y-103244969D01*
X172411825Y-103423395D01*
X172360563Y-103540262D01*
X172311937Y-103651119D01*
X172254334Y-103878586D01*
X172250891Y-103892183D01*
X172230356Y-104139999D01*
X172250891Y-104387816D01*
X172250891Y-104387819D01*
X172250892Y-104387821D01*
X172311937Y-104628881D01*
X172331947Y-104674499D01*
X172411825Y-104856604D01*
X172411827Y-104856607D01*
X172547836Y-105064785D01*
X172665304Y-105192389D01*
X172716256Y-105247738D01*
X172799008Y-105312147D01*
X172839821Y-105368858D01*
X172843494Y-105438631D01*
X172808863Y-105499314D01*
X172799008Y-105507853D01*
X172716256Y-105572261D01*
X172601112Y-105697342D01*
X172547836Y-105755215D01*
X172547493Y-105755740D01*
X172411825Y-105963395D01*
X172330631Y-106148500D01*
X172311937Y-106191119D01*
X172270519Y-106354676D01*
X172250891Y-106432183D01*
X172230356Y-106680000D01*
X172248359Y-106897261D01*
X172234278Y-106965697D01*
X172185433Y-107015656D01*
X172117332Y-107031277D01*
X172051596Y-107007599D01*
X172037102Y-106995182D01*
X168920506Y-103878586D01*
X168887021Y-103817263D01*
X168884613Y-103801164D01*
X168871108Y-103638179D01*
X168810063Y-103397119D01*
X168710173Y-103169393D01*
X168574164Y-102961215D01*
X168405744Y-102778262D01*
X168372678Y-102752526D01*
X168209514Y-102625529D01*
X168209510Y-102625526D01*
X168209509Y-102625526D01*
X167990810Y-102507172D01*
X167990806Y-102507170D01*
X167990805Y-102507170D01*
X167755615Y-102426429D01*
X167510335Y-102385500D01*
X167261665Y-102385500D01*
X167016384Y-102426429D01*
X166781194Y-102507170D01*
X166781190Y-102507171D01*
X166781190Y-102507172D01*
X166771345Y-102512500D01*
X166562485Y-102625529D01*
X166366259Y-102778259D01*
X166366256Y-102778261D01*
X166366256Y-102778262D01*
X166197836Y-102961215D01*
X166187801Y-102976575D01*
X166061825Y-103169395D01*
X165971780Y-103374678D01*
X165961937Y-103397119D01*
X165929777Y-103524117D01*
X165900891Y-103638183D01*
X165880356Y-103886000D01*
X165900891Y-104133816D01*
X165900891Y-104133819D01*
X165900892Y-104133821D01*
X165961937Y-104374881D01*
X166004010Y-104470798D01*
X166061825Y-104602604D01*
X166061827Y-104602607D01*
X166197836Y-104810785D01*
X166366256Y-104993738D01*
X166403193Y-105022487D01*
X166562485Y-105146470D01*
X166562487Y-105146471D01*
X166562491Y-105146474D01*
X166781190Y-105264828D01*
X167016386Y-105345571D01*
X167261665Y-105386500D01*
X167510330Y-105386500D01*
X167510335Y-105386500D01*
X167522999Y-105384386D01*
X167592361Y-105392764D01*
X167631092Y-105419013D01*
X171621449Y-109409370D01*
X171623642Y-109411619D01*
X171683941Y-109475053D01*
X171732358Y-109508752D01*
X171739872Y-109514418D01*
X171750885Y-109523398D01*
X171790402Y-109581019D01*
X171792494Y-109650858D01*
X171756495Y-109710740D01*
X171693837Y-109741655D01*
X171672524Y-109743500D01*
X170137783Y-109743500D01*
X170070744Y-109723815D01*
X170050102Y-109707181D01*
X167338103Y-106995182D01*
X164597622Y-104254702D01*
X164564138Y-104193380D01*
X164561728Y-104156784D01*
X164573643Y-104013000D01*
X164553108Y-103765179D01*
X164492063Y-103524119D01*
X164392173Y-103296393D01*
X164256164Y-103088215D01*
X164087744Y-102905262D01*
X164054678Y-102879526D01*
X163891514Y-102752529D01*
X163891510Y-102752526D01*
X163891509Y-102752526D01*
X163672810Y-102634172D01*
X163672806Y-102634170D01*
X163672805Y-102634170D01*
X163437615Y-102553429D01*
X163192335Y-102512500D01*
X162943665Y-102512500D01*
X162698384Y-102553429D01*
X162463194Y-102634170D01*
X162463190Y-102634171D01*
X162463190Y-102634172D01*
X162377715Y-102680429D01*
X162244485Y-102752529D01*
X162048259Y-102905259D01*
X162048256Y-102905261D01*
X162048256Y-102905262D01*
X161879836Y-103088215D01*
X161846330Y-103139500D01*
X161743825Y-103296395D01*
X161674624Y-103454159D01*
X161643937Y-103524119D01*
X161615053Y-103638179D01*
X161582891Y-103765183D01*
X161562356Y-104012999D01*
X161582891Y-104260816D01*
X161582891Y-104260819D01*
X161582892Y-104260821D01*
X161643937Y-104501881D01*
X161671603Y-104564952D01*
X161743825Y-104729604D01*
X161743827Y-104729607D01*
X161879836Y-104937785D01*
X162048256Y-105120738D01*
X162106042Y-105165715D01*
X162244485Y-105273470D01*
X162244487Y-105273471D01*
X162244491Y-105273474D01*
X162463190Y-105391828D01*
X162698386Y-105472571D01*
X162943665Y-105513500D01*
X162975217Y-105513500D01*
X163042256Y-105533185D01*
X163062898Y-105549819D01*
X168954450Y-111441371D01*
X168956643Y-111443620D01*
X169016941Y-111507053D01*
X169042583Y-111524900D01*
X169065352Y-111540748D01*
X169072873Y-111546419D01*
X169083883Y-111555396D01*
X169123402Y-111613016D01*
X169125495Y-111682854D01*
X169089499Y-111742738D01*
X169026842Y-111773654D01*
X169005525Y-111775500D01*
X167089782Y-111775500D01*
X167022743Y-111755815D01*
X167002101Y-111739181D01*
X160035342Y-104772422D01*
X160001857Y-104711099D01*
X159999447Y-104674499D01*
X160001643Y-104647998D01*
X159989535Y-104501881D01*
X159981108Y-104400179D01*
X159920063Y-104159119D01*
X159820173Y-103931393D01*
X159684164Y-103723215D01*
X159515744Y-103540262D01*
X159461170Y-103497785D01*
X159319514Y-103387529D01*
X159319510Y-103387526D01*
X159319509Y-103387526D01*
X159100810Y-103269172D01*
X159100806Y-103269170D01*
X159100805Y-103269170D01*
X158865615Y-103188429D01*
X158620335Y-103147500D01*
X158371665Y-103147500D01*
X158126384Y-103188429D01*
X157891194Y-103269170D01*
X157891190Y-103269171D01*
X157891190Y-103269172D01*
X157883010Y-103273599D01*
X157672485Y-103387529D01*
X157476259Y-103540259D01*
X157476256Y-103540261D01*
X157476256Y-103540262D01*
X157315354Y-103715048D01*
X157307837Y-103723214D01*
X157171825Y-103931395D01*
X157087122Y-104124500D01*
X157071937Y-104159119D01*
X157013470Y-104390000D01*
X157010891Y-104400183D01*
X156990356Y-104647999D01*
X157010891Y-104895816D01*
X157010891Y-104895819D01*
X157010892Y-104895821D01*
X157071937Y-105136881D01*
X157092384Y-105183495D01*
X157171825Y-105364604D01*
X157171827Y-105364607D01*
X157307836Y-105572785D01*
X157476256Y-105755738D01*
X157476259Y-105755740D01*
X157672485Y-105908470D01*
X157672487Y-105908471D01*
X157672491Y-105908474D01*
X157891190Y-106026828D01*
X158126386Y-106107571D01*
X158371665Y-106148500D01*
X158530217Y-106148500D01*
X158597256Y-106168185D01*
X158617898Y-106184819D01*
X165906431Y-113473351D01*
X165908624Y-113475600D01*
X165968942Y-113539054D01*
X166017362Y-113572755D01*
X166024871Y-113578416D01*
X166070593Y-113615698D01*
X166097562Y-113629785D01*
X166110982Y-113637916D01*
X166135949Y-113655294D01*
X166135950Y-113655294D01*
X166135951Y-113655295D01*
X166164105Y-113667377D01*
X166190163Y-113678559D01*
X166198663Y-113682595D01*
X166232286Y-113700159D01*
X166250951Y-113709909D01*
X166280196Y-113718277D01*
X166294986Y-113723543D01*
X166302464Y-113726752D01*
X166322942Y-113735540D01*
X166380737Y-113747416D01*
X166389854Y-113749654D01*
X166446582Y-113765887D01*
X166476916Y-113768196D01*
X166492453Y-113770374D01*
X166522259Y-113776500D01*
X166581242Y-113776500D01*
X166590656Y-113776858D01*
X166649476Y-113781337D01*
X166679651Y-113777493D01*
X166695317Y-113776500D01*
X181595721Y-113776500D01*
X181598862Y-113776539D01*
X181686363Y-113778757D01*
X181744432Y-113768348D01*
X181753736Y-113767043D01*
X181812438Y-113761074D01*
X181841467Y-113751965D01*
X181856700Y-113748226D01*
X181886653Y-113742858D01*
X181941426Y-113720978D01*
X181950301Y-113717819D01*
X181967675Y-113712367D01*
X182006588Y-113700159D01*
X182033194Y-113685390D01*
X182047362Y-113678662D01*
X182075617Y-113667377D01*
X182124879Y-113634909D01*
X182132910Y-113630043D01*
X182184502Y-113601409D01*
X182207587Y-113581589D01*
X182220114Y-113572144D01*
X182245519Y-113555402D01*
X182287251Y-113513668D01*
X182294123Y-113507300D01*
X182338895Y-113468866D01*
X182357524Y-113444798D01*
X182367883Y-113433036D01*
X188657389Y-107143529D01*
X188659559Y-107141413D01*
X188723053Y-107081059D01*
X188756759Y-107032630D01*
X188762428Y-107025113D01*
X188799698Y-106979407D01*
X188813783Y-106952439D01*
X188821918Y-106939015D01*
X188834869Y-106920408D01*
X188839295Y-106914049D01*
X188862568Y-106859815D01*
X188866588Y-106851350D01*
X188893909Y-106799049D01*
X188902275Y-106769808D01*
X188907539Y-106755019D01*
X188919540Y-106727058D01*
X188931417Y-106669256D01*
X188933652Y-106660148D01*
X188949886Y-106603418D01*
X188952196Y-106573078D01*
X188954376Y-106557540D01*
X188960500Y-106527742D01*
X188960500Y-106468754D01*
X188960858Y-106459339D01*
X188962926Y-106432179D01*
X188965337Y-106400524D01*
X188961493Y-106370339D01*
X188960500Y-106354676D01*
X188960500Y-105259428D01*
X188980185Y-105192389D01*
X189032989Y-105146634D01*
X189102147Y-105136690D01*
X189165703Y-105165715D01*
X189200682Y-105216095D01*
X189206647Y-105232088D01*
X189292811Y-105347188D01*
X189407910Y-105433352D01*
X189542628Y-105483599D01*
X189598867Y-105489645D01*
X189605482Y-105490000D01*
X190250000Y-105490000D01*
X190250000Y-104575501D01*
X190357685Y-104624680D01*
X190464237Y-104640000D01*
X190535763Y-104640000D01*
X190642315Y-104624680D01*
X190750000Y-104575501D01*
X190750000Y-105490000D01*
X191225500Y-105490000D01*
X191292539Y-105509685D01*
X191338294Y-105562489D01*
X191349500Y-105614000D01*
X191349500Y-107920217D01*
X191329815Y-107987256D01*
X191313181Y-108007898D01*
X183517899Y-115803181D01*
X183456576Y-115836666D01*
X183430218Y-115839500D01*
X148836211Y-115839500D01*
X148769172Y-115819815D01*
X148748530Y-115803181D01*
X146552994Y-113607645D01*
X146550841Y-113605438D01*
X146490487Y-113541947D01*
X146490483Y-113541944D01*
X146442070Y-113508247D01*
X146434547Y-113502575D01*
X146388833Y-113465300D01*
X146361868Y-113451215D01*
X146348447Y-113443084D01*
X146323477Y-113425705D01*
X146323476Y-113425704D01*
X146323474Y-113425703D01*
X146269273Y-113402443D01*
X146260764Y-113398402D01*
X146208481Y-113371092D01*
X146202554Y-113369396D01*
X146179226Y-113362721D01*
X146164448Y-113357459D01*
X146136486Y-113345460D01*
X146078700Y-113333583D01*
X146069556Y-113331338D01*
X146012849Y-113315113D01*
X145982503Y-113312802D01*
X145966962Y-113310622D01*
X145937170Y-113304500D01*
X145937169Y-113304500D01*
X145878186Y-113304500D01*
X145868772Y-113304142D01*
X145859626Y-113303445D01*
X145809952Y-113299663D01*
X145809951Y-113299663D01*
X145809950Y-113299663D01*
X145779777Y-113303506D01*
X145764111Y-113304500D01*
X143200758Y-113304500D01*
X143133719Y-113284815D01*
X143113077Y-113268181D01*
X143111404Y-113266508D01*
X143111401Y-113266505D01*
X142925402Y-113136267D01*
X142881780Y-113081692D01*
X142874587Y-113012193D01*
X142906109Y-112949839D01*
X142925405Y-112933119D01*
X143111078Y-112803109D01*
X143278106Y-112636081D01*
X143413600Y-112442576D01*
X143513430Y-112228492D01*
X143570636Y-112015000D01*
X142673686Y-112015000D01*
X142699493Y-111974844D01*
X142740000Y-111836889D01*
X142740000Y-111693111D01*
X142699493Y-111555156D01*
X142673686Y-111515000D01*
X143570636Y-111515000D01*
X143570635Y-111514999D01*
X143513430Y-111301507D01*
X143413599Y-111087421D01*
X143278109Y-110893921D01*
X143111081Y-110726893D01*
X142925404Y-110596880D01*
X142881780Y-110542303D01*
X142874587Y-110472804D01*
X142906109Y-110410450D01*
X142925399Y-110393734D01*
X143111401Y-110263495D01*
X143278495Y-110096401D01*
X143414035Y-109902830D01*
X143513903Y-109688663D01*
X143575063Y-109460408D01*
X143595659Y-109225000D01*
X143595221Y-109219999D01*
X143575063Y-108989592D01*
X143554393Y-108912449D01*
X143513903Y-108761337D01*
X143414035Y-108547171D01*
X143278495Y-108353599D01*
X143111401Y-108186505D01*
X142925839Y-108056573D01*
X142882216Y-108001998D01*
X142875022Y-107932500D01*
X142906545Y-107870145D01*
X142925837Y-107853428D01*
X143111401Y-107723495D01*
X143278495Y-107556401D01*
X143414035Y-107362830D01*
X143513903Y-107148663D01*
X143575063Y-106920408D01*
X143595659Y-106685000D01*
X143575063Y-106449592D01*
X143513903Y-106221337D01*
X143414035Y-106007171D01*
X143278495Y-105813599D01*
X143111401Y-105646505D01*
X142925839Y-105516573D01*
X142882216Y-105461998D01*
X142875022Y-105392500D01*
X142906545Y-105330145D01*
X142925837Y-105313428D01*
X143111401Y-105183495D01*
X143278495Y-105016401D01*
X143414035Y-104822830D01*
X143513903Y-104608663D01*
X143575063Y-104380408D01*
X143595659Y-104145000D01*
X143595221Y-104139999D01*
X143575063Y-103909592D01*
X143548164Y-103809202D01*
X143513903Y-103681337D01*
X143414035Y-103467171D01*
X143278495Y-103273599D01*
X143111401Y-103106505D01*
X142925839Y-102976573D01*
X142882216Y-102921998D01*
X142875022Y-102852500D01*
X142906545Y-102790145D01*
X142925837Y-102773428D01*
X143111401Y-102643495D01*
X143113076Y-102641819D01*
X143116334Y-102640040D01*
X143120288Y-102637272D01*
X143120596Y-102637712D01*
X143174400Y-102608334D01*
X143200758Y-102605500D01*
X148824721Y-102605500D01*
X148827862Y-102605539D01*
X148915363Y-102607757D01*
X148973432Y-102597348D01*
X148982736Y-102596043D01*
X149041438Y-102590074D01*
X149070467Y-102580965D01*
X149085700Y-102577226D01*
X149115653Y-102571858D01*
X149170426Y-102549978D01*
X149179301Y-102546819D01*
X149196675Y-102541367D01*
X149235588Y-102529159D01*
X149262194Y-102514390D01*
X149276362Y-102507662D01*
X149304617Y-102496377D01*
X149353879Y-102463909D01*
X149361910Y-102459043D01*
X149413502Y-102430409D01*
X149436587Y-102410589D01*
X149449114Y-102401144D01*
X149474519Y-102384402D01*
X149516251Y-102342668D01*
X149523123Y-102336300D01*
X149567895Y-102297866D01*
X149586519Y-102273803D01*
X149596880Y-102262039D01*
X150477929Y-101380990D01*
X150539250Y-101347507D01*
X150608942Y-101352491D01*
X150664875Y-101394363D01*
X150685812Y-101438230D01*
X150721937Y-101580881D01*
X150721938Y-101580883D01*
X150821825Y-101808604D01*
X150821827Y-101808607D01*
X150957836Y-102016785D01*
X151126256Y-102199738D01*
X151126259Y-102199740D01*
X151322485Y-102352470D01*
X151322487Y-102352471D01*
X151322491Y-102352474D01*
X151541190Y-102470828D01*
X151776386Y-102551571D01*
X152021665Y-102592500D01*
X152270335Y-102592500D01*
X152515614Y-102551571D01*
X152750810Y-102470828D01*
X152969509Y-102352474D01*
X153165744Y-102199738D01*
X153227624Y-102132517D01*
X153287512Y-102096527D01*
X153318855Y-102092500D01*
X155433721Y-102092500D01*
X155436862Y-102092539D01*
X155524363Y-102094757D01*
X155582432Y-102084348D01*
X155591736Y-102083043D01*
X155650438Y-102077074D01*
X155679467Y-102067965D01*
X155694700Y-102064226D01*
X155724653Y-102058858D01*
X155779426Y-102036978D01*
X155788301Y-102033819D01*
X155805675Y-102028367D01*
X155844588Y-102016159D01*
X155871194Y-102001390D01*
X155885362Y-101994662D01*
X155913617Y-101983377D01*
X155962879Y-101950909D01*
X155970910Y-101946043D01*
X156022502Y-101917409D01*
X156045587Y-101897589D01*
X156058114Y-101888144D01*
X156083519Y-101871402D01*
X156125251Y-101829668D01*
X156132123Y-101823300D01*
X156176895Y-101784866D01*
X156195519Y-101760803D01*
X156205880Y-101749039D01*
X160737409Y-97217510D01*
X160739579Y-97215394D01*
X160803053Y-97155059D01*
X160836765Y-97106622D01*
X160842408Y-97099138D01*
X160879698Y-97053407D01*
X160893786Y-97026435D01*
X160901911Y-97013024D01*
X160919295Y-96988049D01*
X160942568Y-96933815D01*
X160946598Y-96925331D01*
X160947873Y-96922892D01*
X160973909Y-96873049D01*
X160982278Y-96843797D01*
X160987534Y-96829032D01*
X160999540Y-96801058D01*
X161011418Y-96743256D01*
X161013651Y-96734156D01*
X161029887Y-96677418D01*
X161032197Y-96647077D01*
X161034376Y-96631535D01*
X161040500Y-96601741D01*
X161040500Y-96542757D01*
X161040858Y-96533342D01*
X161042599Y-96510474D01*
X161045337Y-96474523D01*
X161041493Y-96444338D01*
X161040500Y-96428675D01*
X161040500Y-87518560D01*
X161060185Y-87451521D01*
X161112989Y-87405766D01*
X161182147Y-87395822D01*
X161245703Y-87424847D01*
G37*
%TD.AperFunction*%
%TA.AperFunction,Conductor*%
G36*
X138618834Y-83878600D02*
G01*
X138674767Y-83920472D01*
X138699184Y-83985936D01*
X138699500Y-83994782D01*
X138699500Y-97578217D01*
X138679815Y-97645256D01*
X138663181Y-97665898D01*
X135765899Y-100563181D01*
X135704576Y-100596666D01*
X135678218Y-100599500D01*
X125396783Y-100599500D01*
X125329744Y-100579815D01*
X125283989Y-100527011D01*
X125274045Y-100457853D01*
X125303070Y-100394297D01*
X125309102Y-100387819D01*
X128910102Y-96786819D01*
X128971425Y-96753334D01*
X128997783Y-96750500D01*
X129156335Y-96750500D01*
X129401614Y-96709571D01*
X129636810Y-96628828D01*
X129855509Y-96510474D01*
X130051744Y-96357738D01*
X130220164Y-96174785D01*
X130356173Y-95966607D01*
X130456063Y-95738881D01*
X130517108Y-95497821D01*
X130537643Y-95250000D01*
X130517108Y-95002179D01*
X130456063Y-94761119D01*
X130356173Y-94533393D01*
X130220164Y-94325215D01*
X130051744Y-94142262D01*
X130029612Y-94125036D01*
X129855514Y-93989529D01*
X129855510Y-93989526D01*
X129855509Y-93989526D01*
X129636810Y-93871172D01*
X129636806Y-93871170D01*
X129636805Y-93871170D01*
X129401615Y-93790429D01*
X129156335Y-93749500D01*
X128944782Y-93749500D01*
X128877743Y-93729815D01*
X128831988Y-93677011D01*
X128822044Y-93607853D01*
X128851069Y-93544297D01*
X128857101Y-93537819D01*
X133494921Y-88899999D01*
X138487821Y-83907099D01*
X138549142Y-83873616D01*
X138618834Y-83878600D01*
G37*
%TD.AperFunction*%
%TA.AperFunction,Conductor*%
G36*
X147713274Y-85980478D02*
G01*
X147745428Y-86003669D01*
X153820331Y-92078571D01*
X153852855Y-92135811D01*
X153894920Y-92301916D01*
X153896937Y-92309881D01*
X153920746Y-92364159D01*
X153996825Y-92537604D01*
X153996827Y-92537607D01*
X154132836Y-92745785D01*
X154301256Y-92928738D01*
X154341184Y-92959815D01*
X154497485Y-93081470D01*
X154497487Y-93081471D01*
X154497491Y-93081474D01*
X154716190Y-93199828D01*
X154951386Y-93280571D01*
X155196665Y-93321500D01*
X155408217Y-93321500D01*
X155475256Y-93341185D01*
X155521011Y-93393989D01*
X155530955Y-93463147D01*
X155501930Y-93526703D01*
X155495898Y-93533181D01*
X148460899Y-100568181D01*
X148399576Y-100601666D01*
X148373218Y-100604500D01*
X146838339Y-100604500D01*
X146771300Y-100584815D01*
X146725545Y-100532011D01*
X146715601Y-100462853D01*
X146744626Y-100399297D01*
X146779320Y-100371446D01*
X146873509Y-100320474D01*
X147069744Y-100167738D01*
X147238164Y-99984785D01*
X147374173Y-99776607D01*
X147474063Y-99548881D01*
X147535108Y-99307821D01*
X147555643Y-99060000D01*
X147535108Y-98812179D01*
X147474063Y-98571119D01*
X147374903Y-98345058D01*
X147374174Y-98343395D01*
X147343828Y-98296947D01*
X147238164Y-98135215D01*
X147069744Y-97952262D01*
X147047612Y-97935036D01*
X146873514Y-97799529D01*
X146873510Y-97799526D01*
X146873509Y-97799526D01*
X146654810Y-97681172D01*
X146654806Y-97681170D01*
X146654805Y-97681170D01*
X146419615Y-97600429D01*
X146174335Y-97559500D01*
X145925665Y-97559500D01*
X145680384Y-97600429D01*
X145445194Y-97681170D01*
X145445190Y-97681171D01*
X145445190Y-97681172D01*
X145380094Y-97716400D01*
X145226485Y-97799529D01*
X145030259Y-97952259D01*
X144963772Y-98024483D01*
X144903884Y-98060474D01*
X144872542Y-98064500D01*
X143200758Y-98064500D01*
X143133719Y-98044815D01*
X143113077Y-98028181D01*
X143111401Y-98026505D01*
X143050562Y-97983905D01*
X142925839Y-97896573D01*
X142882216Y-97841998D01*
X142875022Y-97772500D01*
X142906545Y-97710145D01*
X142925837Y-97693428D01*
X143111401Y-97563495D01*
X143278495Y-97396401D01*
X143414035Y-97202830D01*
X143513903Y-96988663D01*
X143575063Y-96760408D01*
X143595659Y-96525000D01*
X143587231Y-96428675D01*
X143575063Y-96289592D01*
X143564114Y-96248731D01*
X143513903Y-96061337D01*
X143414035Y-95847171D01*
X143278495Y-95653599D01*
X143111401Y-95486505D01*
X142925839Y-95356573D01*
X142882216Y-95301998D01*
X142875022Y-95232500D01*
X142906545Y-95170145D01*
X142925837Y-95153428D01*
X143111401Y-95023495D01*
X143113076Y-95021819D01*
X143116334Y-95020040D01*
X143120288Y-95017272D01*
X143120596Y-95017712D01*
X143174400Y-94988334D01*
X143200758Y-94985500D01*
X146294721Y-94985500D01*
X146297863Y-94985540D01*
X146385360Y-94987757D01*
X146385360Y-94987756D01*
X146385363Y-94987757D01*
X146415001Y-94982444D01*
X146436877Y-94980500D01*
X150719145Y-94980500D01*
X150786184Y-95000185D01*
X150810375Y-95020517D01*
X150872256Y-95087738D01*
X150872259Y-95087740D01*
X151068485Y-95240470D01*
X151068487Y-95240471D01*
X151068491Y-95240474D01*
X151287190Y-95358828D01*
X151522386Y-95439571D01*
X151767665Y-95480500D01*
X152016335Y-95480500D01*
X152261614Y-95439571D01*
X152496810Y-95358828D01*
X152715509Y-95240474D01*
X152911744Y-95087738D01*
X153080164Y-94904785D01*
X153216173Y-94696607D01*
X153316063Y-94468881D01*
X153377108Y-94227821D01*
X153397643Y-93980000D01*
X153377108Y-93732179D01*
X153316063Y-93491119D01*
X153223564Y-93280243D01*
X153216174Y-93263395D01*
X153204192Y-93245055D01*
X153080164Y-93055215D01*
X152911744Y-92872262D01*
X152889612Y-92855036D01*
X152715514Y-92719529D01*
X152715510Y-92719526D01*
X152715509Y-92719526D01*
X152496810Y-92601172D01*
X152496806Y-92601170D01*
X152496805Y-92601170D01*
X152261615Y-92520429D01*
X152016335Y-92479500D01*
X151767665Y-92479500D01*
X151522384Y-92520429D01*
X151287194Y-92601170D01*
X151287190Y-92601171D01*
X151287190Y-92601172D01*
X151234843Y-92629501D01*
X151068485Y-92719529D01*
X150872259Y-92872259D01*
X150872256Y-92872261D01*
X150872256Y-92872262D01*
X150829670Y-92918523D01*
X150810375Y-92939483D01*
X150750488Y-92975473D01*
X150719145Y-92979500D01*
X146856818Y-92979500D01*
X146789779Y-92959815D01*
X146744024Y-92907011D01*
X146734080Y-92837853D01*
X146763105Y-92774297D01*
X146797797Y-92746447D01*
X146873509Y-92705474D01*
X147069744Y-92552738D01*
X147238164Y-92369785D01*
X147374173Y-92161607D01*
X147474063Y-91933881D01*
X147535108Y-91692821D01*
X147555643Y-91445000D01*
X147535108Y-91197179D01*
X147474063Y-90956119D01*
X147374173Y-90728393D01*
X147238164Y-90520215D01*
X147069744Y-90337262D01*
X147040587Y-90314568D01*
X146983780Y-90270353D01*
X146942967Y-90213643D01*
X146939292Y-90143870D01*
X146973924Y-90083187D01*
X146983780Y-90074647D01*
X147008881Y-90055109D01*
X147069744Y-90007738D01*
X147238164Y-89824785D01*
X147374173Y-89616607D01*
X147474063Y-89388881D01*
X147535108Y-89147821D01*
X147555643Y-88900000D01*
X147535108Y-88652179D01*
X147474063Y-88411119D01*
X147374173Y-88183393D01*
X147238164Y-87975215D01*
X147069744Y-87792262D01*
X147053437Y-87779570D01*
X146986992Y-87727853D01*
X146946179Y-87671143D01*
X146942504Y-87601370D01*
X146977136Y-87540687D01*
X146986992Y-87532147D01*
X147011256Y-87513260D01*
X147069744Y-87467738D01*
X147238164Y-87284785D01*
X147374173Y-87076607D01*
X147474063Y-86848881D01*
X147535108Y-86607821D01*
X147555643Y-86360000D01*
X147536137Y-86124592D01*
X147534260Y-86101939D01*
X147538324Y-86101602D01*
X147540101Y-86052166D01*
X147579961Y-85994782D01*
X147644518Y-85968058D01*
X147713274Y-85980478D01*
G37*
%TD.AperFunction*%
%TA.AperFunction,Conductor*%
G36*
X127512641Y-94943719D02*
G01*
X127542832Y-95006730D01*
X127544017Y-95036875D01*
X127526357Y-95250000D01*
X127528221Y-95272501D01*
X127528553Y-95276501D01*
X127514471Y-95344937D01*
X127492657Y-95374421D01*
X123827899Y-99039181D01*
X123766576Y-99072666D01*
X123740218Y-99075500D01*
X119845783Y-99075500D01*
X119778744Y-99055815D01*
X119758102Y-99039181D01*
X119081567Y-98362647D01*
X119079374Y-98360398D01*
X119019059Y-98296946D01*
X118970642Y-98263247D01*
X118963119Y-98257575D01*
X118917405Y-98220300D01*
X118890440Y-98206215D01*
X118877019Y-98198084D01*
X118852049Y-98180705D01*
X118852048Y-98180704D01*
X118852046Y-98180703D01*
X118797845Y-98157443D01*
X118789336Y-98153402D01*
X118737053Y-98126092D01*
X118731126Y-98124396D01*
X118707798Y-98117721D01*
X118693020Y-98112459D01*
X118665058Y-98100460D01*
X118607272Y-98088583D01*
X118598128Y-98086338D01*
X118541421Y-98070113D01*
X118511075Y-98067802D01*
X118495534Y-98065622D01*
X118465742Y-98059500D01*
X118465741Y-98059500D01*
X118406758Y-98059500D01*
X118397344Y-98059142D01*
X118388198Y-98058445D01*
X118338524Y-98054663D01*
X118338523Y-98054663D01*
X118338522Y-98054663D01*
X118308349Y-98058506D01*
X118292683Y-98059500D01*
X117800758Y-98059500D01*
X117733719Y-98039815D01*
X117713077Y-98023181D01*
X117711401Y-98021505D01*
X117664035Y-97988339D01*
X117525839Y-97891573D01*
X117482216Y-97836998D01*
X117475022Y-97767500D01*
X117506545Y-97705145D01*
X117525837Y-97688428D01*
X117711401Y-97558495D01*
X117713076Y-97556819D01*
X117716334Y-97555040D01*
X117720288Y-97552272D01*
X117720596Y-97552712D01*
X117774400Y-97523334D01*
X117800758Y-97520500D01*
X120040251Y-97520500D01*
X120107290Y-97540185D01*
X120144059Y-97576677D01*
X120223836Y-97698785D01*
X120392256Y-97881738D01*
X120392259Y-97881740D01*
X120588485Y-98034470D01*
X120588487Y-98034471D01*
X120588491Y-98034474D01*
X120807190Y-98152828D01*
X121042386Y-98233571D01*
X121287665Y-98274500D01*
X121536335Y-98274500D01*
X121781614Y-98233571D01*
X122016810Y-98152828D01*
X122235509Y-98034474D01*
X122431744Y-97881738D01*
X122600164Y-97698785D01*
X122736173Y-97490607D01*
X122836063Y-97262881D01*
X122897108Y-97021821D01*
X122917643Y-96774000D01*
X122897108Y-96526179D01*
X122836063Y-96285119D01*
X122736173Y-96057393D01*
X122600164Y-95849215D01*
X122431744Y-95666262D01*
X122374099Y-95621395D01*
X122235514Y-95513529D01*
X122235510Y-95513526D01*
X122235509Y-95513526D01*
X122016810Y-95395172D01*
X122016806Y-95395170D01*
X122016805Y-95395170D01*
X121781615Y-95314429D01*
X121536335Y-95273500D01*
X121287665Y-95273500D01*
X121042384Y-95314429D01*
X120807191Y-95395171D01*
X120605068Y-95504555D01*
X120546051Y-95519500D01*
X117800758Y-95519500D01*
X117733719Y-95499815D01*
X117713077Y-95483181D01*
X117711404Y-95481508D01*
X117711401Y-95481505D01*
X117525839Y-95351573D01*
X117482215Y-95296997D01*
X117475023Y-95227498D01*
X117506545Y-95165144D01*
X117525831Y-95148432D01*
X117711401Y-95018495D01*
X117713076Y-95016819D01*
X117716334Y-95015040D01*
X117720288Y-95012272D01*
X117720596Y-95012712D01*
X117774400Y-94983334D01*
X117800758Y-94980500D01*
X126985721Y-94980500D01*
X126988862Y-94980539D01*
X127076363Y-94982757D01*
X127134432Y-94972348D01*
X127143736Y-94971043D01*
X127202438Y-94965074D01*
X127231467Y-94955965D01*
X127246700Y-94952226D01*
X127276653Y-94946858D01*
X127331426Y-94924978D01*
X127340301Y-94921819D01*
X127383319Y-94908322D01*
X127453177Y-94907034D01*
X127512641Y-94943719D01*
G37*
%TD.AperFunction*%
%TA.AperFunction,Conductor*%
G36*
X156314855Y-81921545D02*
G01*
X156331571Y-81940837D01*
X156461505Y-82126401D01*
X156463179Y-82128075D01*
X156464957Y-82131331D01*
X156467728Y-82135288D01*
X156467286Y-82135596D01*
X156496665Y-82189392D01*
X156499500Y-82215757D01*
X156499500Y-90583180D01*
X156479815Y-90650219D01*
X156427011Y-90695974D01*
X156357853Y-90705918D01*
X156299338Y-90681034D01*
X156173615Y-90583180D01*
X156144509Y-90560526D01*
X155925810Y-90442172D01*
X155925806Y-90442170D01*
X155925805Y-90442170D01*
X155690615Y-90361429D01*
X155445335Y-90320500D01*
X155196665Y-90320500D01*
X154998611Y-90353548D01*
X154929246Y-90345166D01*
X154890521Y-90318920D01*
X151996448Y-87424847D01*
X149095780Y-84524180D01*
X149062296Y-84462858D01*
X149067280Y-84393166D01*
X149109152Y-84337233D01*
X149174616Y-84312816D01*
X149183462Y-84312500D01*
X154163721Y-84312500D01*
X154166862Y-84312539D01*
X154254363Y-84314757D01*
X154312432Y-84304348D01*
X154321736Y-84303043D01*
X154380438Y-84297074D01*
X154409467Y-84287965D01*
X154424700Y-84284226D01*
X154454653Y-84278858D01*
X154509426Y-84256978D01*
X154518301Y-84253819D01*
X154535675Y-84248367D01*
X154574588Y-84236159D01*
X154601194Y-84221390D01*
X154615362Y-84214662D01*
X154643617Y-84203377D01*
X154692879Y-84170909D01*
X154700910Y-84166043D01*
X154752502Y-84137409D01*
X154775587Y-84117589D01*
X154788114Y-84108144D01*
X154813519Y-84091402D01*
X154855245Y-84049674D01*
X154862131Y-84043294D01*
X154906895Y-84004866D01*
X154925524Y-83980798D01*
X154935883Y-83969036D01*
X155657390Y-83247528D01*
X155659560Y-83245412D01*
X155723053Y-83185059D01*
X155756759Y-83136630D01*
X155762428Y-83129113D01*
X155799698Y-83083407D01*
X155813783Y-83056439D01*
X155821918Y-83043015D01*
X155828373Y-83033740D01*
X155839295Y-83018049D01*
X155862568Y-82963815D01*
X155866598Y-82955331D01*
X155867504Y-82953598D01*
X155893909Y-82903049D01*
X155902278Y-82873797D01*
X155907534Y-82859032D01*
X155919540Y-82831058D01*
X155931418Y-82773256D01*
X155933651Y-82764156D01*
X155949887Y-82707418D01*
X155952197Y-82677077D01*
X155954376Y-82661535D01*
X155960500Y-82631741D01*
X155960500Y-82572757D01*
X155960858Y-82563342D01*
X155961874Y-82550000D01*
X155965337Y-82504524D01*
X155961493Y-82474339D01*
X155960500Y-82458676D01*
X155960500Y-82215758D01*
X155980185Y-82148719D01*
X155996819Y-82128076D01*
X155998495Y-82126401D01*
X156128426Y-81940839D01*
X156183002Y-81897216D01*
X156252500Y-81890022D01*
X156314855Y-81921545D01*
G37*
%TD.AperFunction*%
%TA.AperFunction,Conductor*%
G36*
X146667256Y-75696185D02*
G01*
X146687898Y-75712819D01*
X148634431Y-77659351D01*
X148636624Y-77661600D01*
X148689411Y-77717132D01*
X148696942Y-77725054D01*
X148745362Y-77758755D01*
X148752871Y-77764416D01*
X148798593Y-77801698D01*
X148825562Y-77815785D01*
X148838982Y-77823916D01*
X148863949Y-77841294D01*
X148863950Y-77841294D01*
X148863951Y-77841295D01*
X148877541Y-77847127D01*
X148918163Y-77864559D01*
X148926667Y-77868598D01*
X148978951Y-77895909D01*
X149008200Y-77904277D01*
X149022970Y-77909535D01*
X149050942Y-77921540D01*
X149050945Y-77921540D01*
X149050946Y-77921541D01*
X149108726Y-77933414D01*
X149117869Y-77935657D01*
X149174582Y-77951886D01*
X149204920Y-77954196D01*
X149220448Y-77956373D01*
X149250259Y-77962500D01*
X149309244Y-77962500D01*
X149318659Y-77962858D01*
X149322806Y-77963173D01*
X149377476Y-77967337D01*
X149404278Y-77963923D01*
X149407652Y-77963494D01*
X149423317Y-77962500D01*
X152358031Y-77962500D01*
X152425070Y-77982185D01*
X152470825Y-78034989D01*
X152480769Y-78104147D01*
X152461840Y-78154320D01*
X152414309Y-78227072D01*
X152345825Y-78331895D01*
X152270074Y-78504592D01*
X152245937Y-78559619D01*
X152223956Y-78646420D01*
X152184891Y-78800683D01*
X152164356Y-79048495D01*
X152166553Y-79075001D01*
X152152471Y-79143437D01*
X152130657Y-79172921D01*
X151722645Y-79580933D01*
X151720398Y-79583124D01*
X151693448Y-79608743D01*
X151656947Y-79643441D01*
X151654747Y-79646602D01*
X151623244Y-79691862D01*
X151617573Y-79699382D01*
X151580301Y-79745093D01*
X151566210Y-79772066D01*
X151558082Y-79785483D01*
X151540705Y-79810450D01*
X151517439Y-79864665D01*
X151513399Y-79873171D01*
X151486090Y-79925452D01*
X151477720Y-79954701D01*
X151472459Y-79969478D01*
X151460460Y-79997442D01*
X151448587Y-80055213D01*
X151446342Y-80064360D01*
X151430113Y-80121080D01*
X151427802Y-80151425D01*
X151425621Y-80166970D01*
X151423397Y-80177791D01*
X151390619Y-80239495D01*
X151329685Y-80273683D01*
X151259941Y-80269500D01*
X151203530Y-80228275D01*
X151185754Y-80196161D01*
X151173352Y-80162911D01*
X151087188Y-80047811D01*
X150972089Y-79961647D01*
X150837371Y-79911400D01*
X150781132Y-79905354D01*
X150774518Y-79905000D01*
X150130000Y-79905000D01*
X150130000Y-80819498D01*
X150022315Y-80770320D01*
X149915763Y-80755000D01*
X149844237Y-80755000D01*
X149737685Y-80770320D01*
X149630000Y-80819498D01*
X149630000Y-79905000D01*
X148985482Y-79905000D01*
X148978867Y-79905354D01*
X148922628Y-79911400D01*
X148787910Y-79961647D01*
X148672811Y-80047811D01*
X148586647Y-80162910D01*
X148536400Y-80297628D01*
X148530354Y-80353867D01*
X148530000Y-80360481D01*
X148530000Y-81005000D01*
X149446314Y-81005000D01*
X149420507Y-81045156D01*
X149380000Y-81183111D01*
X149380000Y-81326889D01*
X149420507Y-81464844D01*
X149446314Y-81505000D01*
X148530000Y-81505000D01*
X148530000Y-81537717D01*
X148510315Y-81604756D01*
X148457511Y-81650511D01*
X148388353Y-81660455D01*
X148324797Y-81631430D01*
X148318319Y-81625398D01*
X147594819Y-80901897D01*
X147561334Y-80840574D01*
X147558500Y-80814216D01*
X147558500Y-78246277D01*
X147558540Y-78243135D01*
X147560757Y-78155638D01*
X147550350Y-78097574D01*
X147549041Y-78088242D01*
X147548897Y-78086828D01*
X147543074Y-78029562D01*
X147533962Y-78000520D01*
X147530226Y-77985297D01*
X147524858Y-77955347D01*
X147502976Y-77900566D01*
X147499816Y-77891689D01*
X147482159Y-77835412D01*
X147467395Y-77808812D01*
X147460660Y-77794631D01*
X147449377Y-77766383D01*
X147416917Y-77717131D01*
X147412036Y-77709074D01*
X147408765Y-77703181D01*
X147383409Y-77657498D01*
X147363582Y-77634403D01*
X147354146Y-77621888D01*
X147337402Y-77596481D01*
X147337400Y-77596479D01*
X147337399Y-77596477D01*
X147295693Y-77554772D01*
X147289287Y-77547860D01*
X147250864Y-77503102D01*
X147226804Y-77484478D01*
X147215026Y-77474105D01*
X146611706Y-76870785D01*
X145629100Y-75888180D01*
X145595616Y-75826858D01*
X145600600Y-75757166D01*
X145642472Y-75701233D01*
X145707936Y-75676816D01*
X145716782Y-75676500D01*
X146600217Y-75676500D01*
X146667256Y-75696185D01*
G37*
%TD.AperFunction*%
%TA.AperFunction,Conductor*%
G36*
X160963256Y-71196185D02*
G01*
X160983898Y-71212819D01*
X161523181Y-71752101D01*
X161556666Y-71813424D01*
X161559500Y-71839782D01*
X161559500Y-72699242D01*
X161539815Y-72766281D01*
X161523181Y-72786923D01*
X161521505Y-72788598D01*
X161391575Y-72974159D01*
X161336998Y-73017784D01*
X161267500Y-73024978D01*
X161205145Y-72993455D01*
X161188425Y-72974159D01*
X161103314Y-72852607D01*
X161058495Y-72788599D01*
X160891401Y-72621505D01*
X160697830Y-72485965D01*
X160483663Y-72386097D01*
X160422502Y-72369709D01*
X160255407Y-72324936D01*
X160020000Y-72304340D01*
X159784592Y-72324936D01*
X159556336Y-72386097D01*
X159342170Y-72485965D01*
X159148598Y-72621505D01*
X158981508Y-72788595D01*
X158981507Y-72788597D01*
X158981505Y-72788599D01*
X158936686Y-72852607D01*
X158851269Y-72974596D01*
X158796692Y-73018220D01*
X158727193Y-73025413D01*
X158664839Y-72993891D01*
X158648119Y-72974595D01*
X158518109Y-72788921D01*
X158351081Y-72621893D01*
X158157576Y-72486399D01*
X157943492Y-72386569D01*
X157730000Y-72329364D01*
X157730000Y-73224498D01*
X157622315Y-73175320D01*
X157515763Y-73160000D01*
X157444237Y-73160000D01*
X157337685Y-73175320D01*
X157230000Y-73224498D01*
X157230000Y-72329364D01*
X157229999Y-72329364D01*
X157016507Y-72386569D01*
X156802421Y-72486400D01*
X156608921Y-72621890D01*
X156441893Y-72788918D01*
X156311880Y-72974596D01*
X156257303Y-73018220D01*
X156187804Y-73025413D01*
X156125450Y-72993891D01*
X156108730Y-72974595D01*
X155978495Y-72788599D01*
X155811401Y-72621505D01*
X155617830Y-72485965D01*
X155403663Y-72386097D01*
X155342502Y-72369709D01*
X155175407Y-72324936D01*
X154940000Y-72304340D01*
X154704592Y-72324936D01*
X154476336Y-72386097D01*
X154262170Y-72485965D01*
X154068601Y-72621503D01*
X153946673Y-72743431D01*
X153885350Y-72776915D01*
X153815658Y-72771931D01*
X153759725Y-72730059D01*
X153742810Y-72699082D01*
X153715135Y-72624882D01*
X153693796Y-72567669D01*
X153607546Y-72452454D01*
X153492331Y-72366204D01*
X153357483Y-72315909D01*
X153297873Y-72309500D01*
X153294551Y-72309500D01*
X152515782Y-72309500D01*
X152448743Y-72289815D01*
X152428101Y-72273181D01*
X151543101Y-71388181D01*
X151509616Y-71326858D01*
X151514600Y-71257166D01*
X151556472Y-71201233D01*
X151621936Y-71176816D01*
X151630782Y-71176500D01*
X160896217Y-71176500D01*
X160963256Y-71196185D01*
G37*
%TD.AperFunction*%
%TA.AperFunction,Conductor*%
G36*
X143948616Y-65028185D02*
G01*
X143969258Y-65044819D01*
X147888258Y-68963819D01*
X147921743Y-69025142D01*
X147916759Y-69094834D01*
X147874887Y-69150767D01*
X147809423Y-69175184D01*
X147800577Y-69175500D01*
X137972241Y-69175500D01*
X137905202Y-69155815D01*
X137859447Y-69103011D01*
X137848665Y-69041260D01*
X137866731Y-68823229D01*
X137846196Y-68575413D01*
X137846196Y-68575409D01*
X137785151Y-68334349D01*
X137685261Y-68106623D01*
X137549252Y-67898445D01*
X137394358Y-67730185D01*
X137363436Y-67667530D01*
X137361588Y-67646202D01*
X137361588Y-67644166D01*
X137381273Y-67577127D01*
X137397902Y-67556490D01*
X137669105Y-67285287D01*
X137704371Y-67260593D01*
X137857830Y-67189035D01*
X138051401Y-67053495D01*
X138218495Y-66886401D01*
X138354035Y-66692830D01*
X138453903Y-66478663D01*
X138515063Y-66250408D01*
X138535659Y-66015000D01*
X138515063Y-65779592D01*
X138453903Y-65551337D01*
X138354035Y-65337171D01*
X138260523Y-65203622D01*
X138238197Y-65137417D01*
X138255207Y-65069650D01*
X138306155Y-65021837D01*
X138362099Y-65008500D01*
X143881577Y-65008500D01*
X143948616Y-65028185D01*
G37*
%TD.AperFunction*%
%TA.AperFunction,Conductor*%
G36*
X150041256Y-60528185D02*
G01*
X150061898Y-60544819D01*
X151363181Y-61846102D01*
X151396666Y-61907425D01*
X151399500Y-61933783D01*
X151399499Y-62539242D01*
X151379814Y-62606282D01*
X151363185Y-62626919D01*
X151361505Y-62628598D01*
X151225965Y-62822170D01*
X151126097Y-63036336D01*
X151064936Y-63264592D01*
X151044340Y-63499999D01*
X151064936Y-63735407D01*
X151103343Y-63878742D01*
X151126097Y-63963663D01*
X151187306Y-64094925D01*
X151223757Y-64173095D01*
X151234249Y-64242173D01*
X151205729Y-64305957D01*
X151147253Y-64344196D01*
X151111375Y-64349500D01*
X150397783Y-64349500D01*
X150330744Y-64329815D01*
X150310102Y-64313181D01*
X148514023Y-62517102D01*
X146717100Y-60720180D01*
X146683616Y-60658858D01*
X146688600Y-60589166D01*
X146730472Y-60533233D01*
X146795936Y-60508816D01*
X146804782Y-60508500D01*
X149974217Y-60508500D01*
X150041256Y-60528185D01*
G37*
%TD.AperFunction*%
%TA.AperFunction,Conductor*%
G36*
X157730000Y-64830633D02*
G01*
X157943490Y-64773430D01*
X158157576Y-64673600D01*
X158351081Y-64538106D01*
X158518109Y-64371078D01*
X158648119Y-64185405D01*
X158702696Y-64141780D01*
X158772194Y-64134586D01*
X158834549Y-64166109D01*
X158851265Y-64185400D01*
X158981505Y-64371401D01*
X159148599Y-64538495D01*
X159342170Y-64674035D01*
X159556337Y-64773903D01*
X159784592Y-64835063D01*
X160020000Y-64855659D01*
X160255408Y-64835063D01*
X160483663Y-64773903D01*
X160602394Y-64718537D01*
X160671468Y-64708046D01*
X160735252Y-64736565D01*
X160773492Y-64795042D01*
X160774047Y-64864909D01*
X160742477Y-64918601D01*
X159847899Y-65813181D01*
X159786576Y-65846666D01*
X159760218Y-65849500D01*
X155574782Y-65849500D01*
X155507743Y-65829815D01*
X155461988Y-65777011D01*
X155452044Y-65707853D01*
X155481069Y-65644297D01*
X155487088Y-65637831D01*
X155637428Y-65487490D01*
X155639560Y-65485412D01*
X155703053Y-65425059D01*
X155736759Y-65376630D01*
X155742428Y-65369113D01*
X155779698Y-65323407D01*
X155793783Y-65296439D01*
X155801918Y-65283015D01*
X155808373Y-65273740D01*
X155819295Y-65258049D01*
X155842568Y-65203815D01*
X155846598Y-65195331D01*
X155860122Y-65169443D01*
X155873909Y-65143049D01*
X155882278Y-65113797D01*
X155887534Y-65099032D01*
X155899540Y-65071058D01*
X155911418Y-65013256D01*
X155913651Y-65004156D01*
X155929887Y-64947418D01*
X155932197Y-64917077D01*
X155934376Y-64901535D01*
X155940500Y-64871741D01*
X155940500Y-64812757D01*
X155940858Y-64803342D01*
X155941867Y-64790088D01*
X155945337Y-64744524D01*
X155941493Y-64714339D01*
X155940500Y-64698676D01*
X155940500Y-64460758D01*
X155960185Y-64393719D01*
X155976819Y-64373076D01*
X155978495Y-64371401D01*
X156108732Y-64185403D01*
X156163307Y-64141780D01*
X156232805Y-64134586D01*
X156295160Y-64166109D01*
X156311880Y-64185404D01*
X156441893Y-64371081D01*
X156608918Y-64538106D01*
X156802423Y-64673600D01*
X157016509Y-64773430D01*
X157230000Y-64830634D01*
X157230000Y-63935501D01*
X157337685Y-63984680D01*
X157444237Y-64000000D01*
X157515763Y-64000000D01*
X157622315Y-63984680D01*
X157730000Y-63935501D01*
X157730000Y-64830633D01*
G37*
%TD.AperFunction*%
%TD*%
M02*
