  0
SECTION
  2
HEADER
  9
$ACADVER
  1
AC1015
  9
$ACADMAINTVER
 70
     6
  9
$DWGCODEPAGE
  3
ANSI_1252
  9
$INSBASE
 10
0.0
 20
0.0
 30
0.0
  9
$EXTMIN
 10
-540.8189777247
 20
-446.9439677542
 30
0.0
  9
$EXTMAX
 10
540.8036201103
 20
397.2343526963
 30
0.0
  9
$LIMMIN
 10
0.0
 20
0.0
  9
$LIMMAX
 10
420.0
 20
297.0
  9
$ORTHOMODE
 70
     0
  9
$REGENMODE
 70
     1
  9
$FILLMODE
 70
     1
  9
$QTEXTMODE
 70
     0
  9
$MIRRTEXT
 70
     1
  9
$LTSCALE
 40
1.0
  9
$ATTMODE
 70
     1
  9
$TEXTSIZE
 40
3.5
  9
$TRACEWID
 40
1.0
  9
$TEXTSTYLE
  7
Standard
  9
$CLAYER
  8
0
  9
$CELTYPE
  6
ByLayer
  9
$CECOLOR
 62
   256
  9
$CELTSCALE
 40
1.0
  9
$DISPSILH
 70
     0
  9
$DIMSCALE
 40
1.0
  9
$DIMASZ
 40
3.302
  9
$DIMEXO
 40
0.0
  9
$DIMDLI
 40
3.75
  9
$DIMRND
 40
0.0
  9
$DIMDLE
 40
0.0
  9
$DIMEXE
 40
1.0
  9
$DIMTP
 40
0.0
  9
$DIMTM
 40
0.0
  9
$DIMTXT
 40
3.5
  9
$DIMCEN
 40
2.5
  9
$DIMTSZ
 40
0.0
  9
$DIMTOL
 70
     0
  9
$DIMLIM
 70
     0
  9
$DIMTIH
 70
     1
  9
$DIMTOH
 70
     1
  9
$DIMSE1
 70
     0
  9
$DIMSE2
 70
     0
  9
$DIMTAD
 70
     1
  9
$DIMZIN
 70
     1
  9
$DIMBLK
  1

  9
$DIMASO
 70
     1
  9
$DIMSHO
 70
     1
  9
$DIMPOST
  1

  9
$DIMAPOST
  1

  9
$DIMALT
 70
     0
  9
$DIMALTD
 70
     3
  9
$DIMALTF
 40
0.0393700787
  9
$DIMLFAC
 40
1.0
  9
$DIMTOFL
 70
     1
  9
$DIMTVP
 40
0.0
  9
$DIMTIX
 70
     0
  9
$DIMSOXD
 70
     0
  9
$DIMSAH
 70
     0
  9
$DIMBLK1
  1

  9
$DIMBLK2
  1

  9
$DIMSTYLE
  2
ISO-25
  9
$DIMCLRD
 70
     0
  9
$DIMCLRE
 70
     0
  9
$DIMCLRT
 70
     0
  9
$DIMTFAC
 40
1.0
  9
$DIMGAP
 40
1.524
  9
$DIMJUST
 70
     0
  9
$DIMSD1
 70
     0
  9
$DIMSD2
 70
     0
  9
$DIMTOLJ
 70
     0
  9
$DIMTZIN
 70
     1
  9
$DIMALTZ
 70
     0
  9
$DIMALTTZ
 70
     0
  9
$DIMUPT
 70
     0
  9
$DIMDEC
 70
     2
  9
$DIMTDEC
 70
     2
  9
$DIMALTU
 70
     2
  9
$DIMALTTD
 70
     3
  9
$DIMTXSTY
  7
Standard
  9
$DIMAUNIT
 70
     0
  9
$DIMADEC
 70
     2
  9
$DIMALTRND
 40
0.0
  9
$DIMAZIN
 70
     0
  9
$DIMDSEP
 70
    44
  9
$DIMATFIT
 70
     3
  9
$DIMFRAC
 70
     0
  9
$DIMLDRBLK
  1

  9
$DIMLUNIT
 70
     2
  9
$DIMLWD
 70
    -2
  9
$DIMLWE
 70
    -2
  9
$DIMTMOVE
 70
     0
  9
$LUNITS
 70
     2
  9
$LUPREC
 70
     2
  9
$SKETCHINC
 40
1.0
  9
$FILLETRAD
 40
10.0
  9
$AUNITS
 70
     0
  9
$AUPREC
 70
     2
  9
$MENU
  1
.
  9
$ELEVATION
 40
0.0
  9
$PELEVATION
 40
0.0
  9
$THICKNESS
 40
0.0
  9
$LIMCHECK
 70
     0
  9
$CHAMFERA
 40
0.0
  9
$CHAMFERB
 40
0.0
  9
$CHAMFERC
 40
0.0
  9
$CHAMFERD
 40
0.0
  9
$SKPOLY
 70
     0
  9
$TDCREATE
 40
2460482.040856331
  9
$TDUCREATE
 40
2460482.165856331
  9
$TDUPDATE
 40
2460482.040885312
  9
$TDUUPDATE
 40
2460482.165885312
  9
$TDINDWG
 40
0.0000000116
  9
$TDUSRTIMER
 40
0.0000000116
  9
$USRTIMER
 70
     1
  9
$ANGBASE
 50
0.0
  9
$ANGDIR
 70
     0
  9
$PDMODE
 70
     0
  9
$PDSIZE
 40
-1.0
  9
$PLINEWID
 40
0.0
  9
$SPLFRAME
 70
     0
  9
$SPLINETYPE
 70
     6
  9
$SPLINESEGS
 70
     8
  9
$HANDSEED
  5
A0
  9
$SURFTAB1
 70
     6
  9
$SURFTAB2
 70
     6
  9
$SURFTYPE
 70
     6
  9
$SURFU
 70
     6
  9
$SURFV
 70
     6
  9
$UCSBASE
  2

  9
$UCSNAME
  2

  9
$UCSORG
 10
0.0
 20
0.0
 30
0.0
  9
$UCSXDIR
 10
1.0
 20
0.0
 30
0.0
  9
$UCSYDIR
 10
0.0
 20
1.0
 30
0.0
  9
$UCSORTHOREF
  2

  9
$UCSORTHOVIEW
 70
     0
  9
$UCSORGTOP
 10
0.0
 20
0.0
 30
0.0
  9
$UCSORGBOTTOM
 10
0.0
 20
0.0
 30
0.0
  9
$UCSORGLEFT
 10
0.0
 20
0.0
 30
0.0
  9
$UCSORGRIGHT
 10
0.0
 20
0.0
 30
0.0
  9
$UCSORGFRONT
 10
0.0
 20
0.0
 30
0.0
  9
$UCSORGBACK
 10
0.0
 20
0.0
 30
0.0
  9
$PUCSBASE
  2

  9
$PUCSNAME
  2

  9
$PUCSORG
 10
0.0
 20
0.0
 30
0.0
  9
$PUCSXDIR
 10
1.0
 20
0.0
 30
0.0
  9
$PUCSYDIR
 10
0.0
 20
1.0
 30
0.0
  9
$PUCSORTHOREF
  2

  9
$PUCSORTHOVIEW
 70
     0
  9
$PUCSORGTOP
 10
0.0
 20
0.0
 30
0.0
  9
$PUCSORGBOTTOM
 10
0.0
 20
0.0
 30
0.0
  9
$PUCSORGLEFT
 10
0.0
 20
0.0
 30
0.0
  9
$PUCSORGRIGHT
 10
0.0
 20
0.0
 30
0.0
  9
$PUCSORGFRONT
 10
0.0
 20
0.0
 30
0.0
  9
$PUCSORGBACK
 10
0.0
 20
0.0
 30
0.0
  9
$USERI1
 70
     0
  9
$USERI2
 70
     0
  9
$USERI3
 70
     0
  9
$USERI4
 70
     0
  9
$USERI5
 70
     0
  9
$USERR1
 40
0.0
  9
$USERR2
 40
0.0
  9
$USERR3
 40
0.0
  9
$USERR4
 40
0.0
  9
$USERR5
 40
0.0
  9
$WORLDVIEW
 70
     1
  9
$SHADEDGE
 70
     3
  9
$SHADEDIF
 70
    70
  9
$TILEMODE
 70
     1
  9
$MAXACTVP
 70
    64
  9
$PINSBASE
 10
0.0
 20
0.0
 30
0.0
  9
$PLIMCHECK
 70
     0
  9
$PEXTMIN
 10
1.0000000000E+20
 20
1.0000000000E+20
 30
1.0000000000E+20
  9
$PEXTMAX
 10
-1.0000000000E+20
 20
-1.0000000000E+20
 30
-1.0000000000E+20
  9
$PLIMMIN
 10
0.0
 20
0.0
  9
$PLIMMAX
 10
420.0
 20
297.0
  9
$UNITMODE
 70
     0
  9
$VISRETAIN
 70
     1
  9
$PLINEGEN
 70
     0
  9
$PSLTSCALE
 70
     1
  9
$TREEDEPTH
 70
  3020
  9
$CMLSTYLE
  2
Standard
  9
$CMLJUST
 70
     0
  9
$CMLSCALE
 40
20.0
  9
$PROXYGRAPHICS
 70
     1
  9
$MEASUREMENT
 70
     1
  9
$CELWEIGHT
370
    -1
  9
$ENDCAPS
280
     0
  9
$JOINSTYLE
280
     0
  9
$LWDISPLAY
290
     1
  9
$INSUNITS
 70
     4
  9
$HYPERLINKBASE
  1

  9
$STYLESHEET
  1

  9
$XEDIT
290
     1
  9
$CEPSNTYPE
380
     0
  9
$PSTYLEMODE
290
     1
  9
$FINGERPRINTGUID
  2
{bff3a0eb-2a74-4a84-97f2-a5ddd04c27bf}
  9
$VERSIONGUID
  2
{FAEB1C32-E019-11D5-929B-00C0DF256EC4}
  9
$EXTNAMES
290
     1
  9
$PSVPSCALE
 40
0.0
  9
$OLESTARTUP
290
     0
  0
ENDSEC
  0
SECTION
  2
CLASSES
  0
CLASS
  1
ACDBDICTIONARYWDFLT
  2
AcDbDictionaryWithDefault
  3
ObjectDBX Classes
 90
        0
280
     0
281
     0
  0
CLASS
  1
VISUALSTYLE
  2
AcDbVisualStyle
  3
ObjectDBX Classes
 90
     4095
280
     0
281
     0
  0
CLASS
  1
MATERIAL
  2
AcDbMaterial
  3
ObjectDBX Classes
 90
     1153
280
     0
281
     0
  0
CLASS
  1
SCALE
  2
AcDbScale
  3
ObjectDBX Classes
 90
     1153
280
     0
281
     0
  0
CLASS
  1
TABLESTYLE
  2
AcDbTableStyle
  3
ObjectDBX Classes
 90
     4095
280
     0
281
     0
  0
CLASS
  1
MLEADERSTYLE
  2
AcDbMLeaderStyle
  3
ACDB_MLEADERSTYLE_CLASS
 90
     4095
280
     0
281
     0
  0
CLASS
  1
SUN
  2
AcDbSun
  3
SCENEOE
 90
     1153
280
     0
281
     0
  0
CLASS
  1
ACDBPLACEHOLDER
  2
AcDbPlaceHolder
  3
ObjectDBX Classes
 90
        0
280
     0
281
     0
  0
CLASS
  1
LAYOUT
  2
AcDbLayout
  3
ObjectDBX Classes
 90
        0
280
     0
281
     0
  0
ENDSEC
  0
SECTION
  2
TABLES
  0
TABLE
  2
VPORT
  5
8
330
0
100
AcDbSymbolTable
 70
     1
  0
VPORT
  5
29
330
8
100
AcDbSymbolTableRecord
100
AcDbViewportTableRecord
  2
*Active
 70
     0
 10
0.0
 20
0.0
 11
1.0
 21
1.0
 12
-0.0076788072
 22
-24.8548075289
 13
0.0
 23
0.0
 14
10.0
 24
10.0
 15
10.0
 25
10.0
 16
0.0
 26
0.0
 36
1.0
 17
0.0
 27
0.0
 37
0.0
 40
861.0618868595
 41
1.2812726549
 42
50.0
 43
0.0
 44
0.0
 50
0.0
 51
0.0
 71
     0
 72
   100
 73
     1
 74
     3
 75
     0
 76
     0
 77
     0
 78
     0
281
     0
 65
     1
110
0.0
120
0.0
130
0.0
111
1.0
121
0.0
131
0.0
112
0.0
122
1.0
132
0.0
 79
     0
146
0.0
  0
ENDTAB
  0
TABLE
  2
LTYPE
  5
5
330
0
100
AcDbSymbolTable
 70
     6
  0
LTYPE
  5
14
330
5
100
AcDbSymbolTableRecord
100
AcDbLinetypeTableRecord
  2
ByBlock
 70
     0
  3

 72
    65
 73
     0
 40
0.0
  0
LTYPE
  5
15
330
5
100
AcDbSymbolTableRecord
100
AcDbLinetypeTableRecord
  2
ByLayer
 70
     0
  3

 72
    65
 73
     0
 40
0.0
  0
LTYPE
  5
16
330
5
100
AcDbSymbolTableRecord
100
AcDbLinetypeTableRecord
  2
Continuous
 70
     0
  3
Solid line
 72
    65
 73
     0
 40
0.0
  0
LTYPE
  5
6E
330
5
100
AcDbSymbolTableRecord
100
AcDbLinetypeTableRecord
  2
HIDDEN
 70
     0
  3
Hidden __ __ __ __ __ __ __ __ __ __ __ __ __ __
 72
    65
 73
     2
 40
1.905
 49
1.27
 74
     0
 49
-0.635
 74
     0
  0
LTYPE
  5
6F
330
5
100
AcDbSymbolTableRecord
100
AcDbLinetypeTableRecord
  2
PHANTOM
 70
     0
  3
Phantom ______  __  __  ______  __  __  ______
 72
    65
 73
     6
 40
12.7
 49
6.35
 74
     0
 49
-1.27
 74
     0
 49
1.27
 74
     0
 49
-1.27
 74
     0
 49
1.27
 74
     0
 49
-1.27
 74
     0
  0
LTYPE
  5
70
330
5
100
AcDbSymbolTableRecord
100
AcDbLinetypeTableRecord
  2
CENTER
 70
     0
  3
Center ____ _ ____ _ ____ _ ____ _ ____ _ ____
 72
    65
 73
     4
 40
10.16
 49
6.35
 74
     0
 49
-1.27
 74
     0
 49
1.27
 74
     0
 49
-1.27
 74
     0
  0
LTYPE
  5
71
330
5
100
AcDbSymbolTableRecord
100
AcDbLinetypeTableRecord
  2
CENTERX2
 70
     0
  3
Center (2x) ________  __  ________  __  _____
 72
    65
 73
     4
 40
20.32
 49
12.7
 74
     0
 49
-2.54
 74
     0
 49
2.54
 74
     0
 49
-2.54
 74
     0
  0
LTYPE
  5
72
330
5
100
AcDbSymbolTableRecord
100
AcDbLinetypeTableRecord
  2
DOT2
 70
     0
  3
Dot (.5x) ........................................
 72
    65
 73
     2
 40
0.635
 49
0.0
 74
     0
 49
-0.635
 74
     0
  0
ENDTAB
  0
TABLE
  2
LAYER
  5
2
330
0
100
AcDbSymbolTable
 70
     1
  0
LAYER
  5
10
330
2
100
AcDbSymbolTableRecord
100
AcDbLayerTableRecord
  2
0
 70
     0
 62
     7
  6
Continuous
370
    -3
390
F
  0
ENDTAB
  0
TABLE
  2
STYLE
  5
3
330
0
100
AcDbSymbolTable
 70
     1
  0
STYLE
  5
11
330
3
100
AcDbSymbolTableRecord
100
AcDbTextStyleTableRecord
  2
Standard
 70
     0
 40
0.0
 41
1.0
 50
0.0
 71
     0
 42
3.5
  3
txt
  4

  0
ENDTAB
  0
TABLE
  2
VIEW
  5
6
330
0
100
AcDbSymbolTable
 70
     0
  0
ENDTAB
  0
TABLE
  2
UCS
  5
7
330
0
100
AcDbSymbolTable
 70
     0
  0
ENDTAB
  0
TABLE
  2
APPID
  5
9
330
0
100
AcDbSymbolTable
 70
     1
  0
APPID
  5
12
330
9
100
AcDbSymbolTableRecord
100
AcDbRegAppTableRecord
  2
ACAD
 70
     0
  0
ENDTAB
  0
TABLE
  2
DIMSTYLE
  5
A
330
0
100
AcDbSymbolTable
 70
     1
100
AcDbDimStyleTable
  0
DIMSTYLE
105
27
330
A
100
AcDbSymbolTableRecord
100
AcDbDimStyleTableRecord
  2
ISO-25
 70
     0
 41
2.5
 42
0.625
 43
3.75
 44
1.25
 73
     0
 74
     0
 77
     1
 78
     8
140
2.5
141
2.5
143
0.0393700787
147
0.625
171
     3
172
     1
178
     0
271
     2
272
     2
274
     3
278
    44
283
     0
284
     8
340
11
  0
ENDTAB
  0
TABLE
  2
BLOCK_RECORD
  5
1
330
0
100
AcDbSymbolTable
 70
     1
  0
BLOCK_RECORD
  5
1F
330
1
100
AcDbSymbolTableRecord
100
AcDbBlockTableRecord
  2
*Model_Space
340
22
  0
BLOCK_RECORD
  5
1B
330
1
100
AcDbSymbolTableRecord
100
AcDbBlockTableRecord
  2
*Paper_Space
340
1E
  0
BLOCK_RECORD
  5
23
330
1
100
AcDbSymbolTableRecord
100
AcDbBlockTableRecord
  2
*Paper_Space0
340
26
  0
ENDTAB
  0
ENDSEC
  0
SECTION
  2
BLOCKS
  0
BLOCK
  5
20
330
1F
100
AcDbEntity
  8
0
100
AcDbBlockBegin
  2
*Model_Space
 70
     0
 10
0.0
 20
0.0
 30
0.0
  3
*Model_Space
  1

  0
ENDBLK
  5
21
330
1F
100
AcDbEntity
  8
0
100
AcDbBlockEnd
  0
BLOCK
  5
1C
330
1B
100
AcDbEntity
 67
     1
  8
0
100
AcDbBlockBegin
  2
*Paper_Space
 70
     0
 10
0.0
 20
0.0
 30
0.0
  3
*Paper_Space
  1

  0
ENDBLK
  5
1D
330
1B
100
AcDbEntity
 67
     1
  8
0
100
AcDbBlockEnd
  0
BLOCK
  5
24
330
23
100
AcDbEntity
  8
0
100
AcDbBlockBegin
  2
*Paper_Space0
 70
     0
 10
0.0
 20
0.0
 30
0.0
  3
*Paper_Space0
  1

  0
ENDBLK
  5
25
330
23
100
AcDbEntity
  8
0
100
AcDbBlockEnd
  0
ENDSEC
  0
SECTION
  2
ENTITIES
  0
SPLINE
  5
75
330
1F
100
AcDbEntity
  8
0
  6
Continuous
 62
   144
370
    18
100
AcDbSpline
210
0.0
220
0.0
230
1.0
 70
     8
 71
     3
 72
   101
 73
    97
 74
     0
 42
0.00000001
 43
0.00000001
 40
0.0
 40
0.0
 40
0.0
 40
0.0
 40
0.0006521843040738
 40
0.0009782118530021
 40
0.0019557682201486
 40
0.002932300351791
 40
0.0039080109432895
 40
0.0048838722967904
 40
0.00586065327488
 40
0.0078163834936693
 40
0.0087944532488726
 40
0.0097718974820969
 40
0.0117254240572367
 40
0.0136786747891984
 40
0.0156325635297913
 40
0.0195392867294807
 40
0.0234456421307689
 40
0.0273520676206408
 40
0.0312584271905917
 40
0.0332117221269984
 40
0.0351649803069372
 40
0.0390713195695947
 40
0.0429776579770306
 40
0.0468839951217654
 40
0.050790324920074
 40
0.0546966537407611
 40
0.0586029779850239
 40
0.0625093019332631
 40
0.0687593540294327
 40
0.078134343456551
 40
0.0859469214720332
 40
0.0937595250439819
 40
0.1015721426810301
 40
0.1093847661479618
 40
0.1171973944827303
 40
0.1250100266714881
 40
0.1328226617369831
 40
0.1406352987640784
 40
0.148447936141607
 40
0.1562605740140262
 40
0.1640732121525749
 40
0.1718858503358228
 40
0.1796984883560648
 40
0.1875111260213048
 40
0.2031363927155166
 40
0.218761652648011
 40
0.2343869041923081
 40
0.2500121457261271
 40
0.2812623030615914
 40
0.2968875150393609
 40
0.3125127138314525
 40
0.3281378984565095
 40
0.3437630680776105
 40
0.3593882220198538
 40
0.375013359746187
 40
0.3906384805358837
 40
0.4062635756052259
 40
0.4375122555351424
 40
0.4687604342078688
 40
0.4812604973910569
 40
0.5000102066626112
 40
0.5156350924816537
 40
0.5312599506957472
 40
0.562506395744484
 40
0.5781311090903739
 40
0.5937557494915022
 40
0.6249999967855518
 40
0.6406243930055376
 40
0.6484369396118407
 40
0.6562494812464931
 40
0.6651780416118396
 40
0.6741066046183358
 40
0.6808030973109965
 40
0.6874995901475418
 40
0.7031239608292115
 40
0.7187484481403791
 40
0.7343730547662555
 40
0.749997777256536
 40
0.7656225909063205
 40
0.7812474864796878
 40
0.7968724568271873
 40
0.8124974939540943
 40
0.8281225817489777
 40
0.843747701619061
 40
0.8593728495471286
 40
0.874998021946472
 40
0.8906232171413587
 40
0.9062484335560733
 40
0.921873668046443
 40
0.9374989173887558
 40
0.953124178332468
 40
0.9687494476427606
 40
0.9765620855564688
 40
0.9843747236390246
 40
0.9921873618126914
 40
1.0
 40
1.0
 40
1.0
 40
1.0
 10
41.70241631787287
 20
-41.1453387073655
 30
0.0
 10
41.71257771665179
 20
-41.2505899968332
 30
0.0
 10
41.72781880826736
 20
-41.40845650520811
 30
0.0
 10
41.75932710468122
 20
-41.72398113761496
 30
0.0
 10
41.79846702767433
 20
-42.09159880177402
 30
0.0
 10
41.85810853267544
 20
-42.56290060518985
 30
0.0
 10
41.93152888346022
 20
-43.03203348103884
 30
0.0
 10
42.02400300305355
 20
-43.4978692353462
 30
0.0
 10
42.17224135891407
 20
-44.1140992121885
 30
0.0
 10
42.35322903453803
 20
-44.72227838716984
 30
0.0
 10
42.55919084776183
 20
-45.32208215950556
 30
0.0
 10
42.78025379403194
 20
-45.91613132255596
 30
0.0
 10
43.08512905687224
 20
-46.64740274514676
 30
0.0
 10
43.49632464802949
 20
-47.50449850211026
 30
0.0
 10
44.1002983521273
 20
-48.618614338359
 30
0.0
 10
44.94513007622042
 20
-49.96018080191485
 30
0.0
 10
46.07276399193275
 20
-51.49120161883934
 30
0.0
 10
47.29299876942517
 20
-52.94900512729909
 30
0.0
 10
48.37165696490438
 20
-54.10900127956822
 30
0.0
 10
49.26318227440807
 20
-55.00896364099064
 30
0.0
 10
50.17116707142429
 20
-55.892321381131
 30
0.0
 10
51.33427924870297
 20
-56.96713194527987
 30
0.0
 10
52.76850165449294
 20
-58.21377290100693
 30
0.0
 10
54.23619574505815
 20
-59.42075103468184
 30
0.0
 10
55.73172276328923
 20
-60.5929653629999
 30
0.0
 10
57.25014248910087
 20
-61.73528802937177
 30
0.0
 10
58.78684318536362
 20
-62.85285661274213
 30
0.0
 10
60.65109261434193
 20
-64.16565856222778
 30
0.0
 10
63.27245551843232
 20
-65.94263917886583
 30
0.0
 10
66.465283412489
 20
-68.0039260775028
 30
0.0
 10
69.91291859165943
 20
-70.13575143869842
 30
0.0
 10
73.17314906460928
 20
-72.08816407091922
 30
0.0
 10
76.45323087649787
 20
-74.0069639624912
 30
0.0
 10
79.74985594616557
 20
-75.89718806593741
 30
0.0
 10
83.0600996414478
 20
-77.76343435754217
 30
0.0
 10
86.3810844936229
 20
-79.61048219713715
 30
0.0
 10
89.71013795928816
 20
-81.44293366005988
 30
0.0
 10
93.0445158098135
 20
-83.26566979215436
 30
0.0
 10
96.38224404312352
 20
-85.08226204503231
 30
0.0
 10
99.72295805376699
 20
-86.89335629506344
 30
0.0
 10
103.0651404468888
 20
-88.70173746780469
 30
0.0
 10
106.40759720726
 20
-90.50961133621709
 30
0.0
 10
109.7491055158456
 20
-92.31923884977462
 30
0.0
 10
114.2015350062307
 20
-94.7374475554151
 30
0.0
 10
119.7591286341374
 20
-97.77481912529373
 30
0.0
 10
126.4114596853652
 20
-101.4502153273809
 30
0.0
 10
133.0423587159939
 20
-105.1641934222038
 30
0.0
 10
141.8482665708644
 20
-110.1784743981201
 30
0.0
 10
150.5944379955515
 20
-115.2973795643473
 30
0.0
 10
159.2643407638528
 20
-120.5434863007431
 30
0.0
 10
165.7237817874535
 20
-124.5483953657682
 30
0.0
 10
172.1354244497666
 20
-128.6294203313039
 30
0.0
 10
178.4942666224918
 20
-132.7922835741235
 30
0.0
 10
184.7952495838388
 20
-137.0422663052987
 30
0.0
 10
191.0329828558381
 20
-141.3845755631856
 30
0.0
 10
197.2027615395466
 20
-145.8230027248327
 30
0.0
 10
205.3290757675811
 20
-151.8770305327955
 30
0.0
 10
215.2815411611078
 20
-159.7166088875151
 30
0.0
 10
224.522684148451
 20
-167.6258925551683
 30
0.0
 10
232.0080069138227
 20
-174.4563648687668
 30
0.0
 10
237.5010933873454
 20
-179.7101792018122
 30
0.0
 10
243.2042034573479
 20
-185.4725960011033
 30
0.0
 10
250.1442620566176
 20
-192.8565623619253
 30
0.0
 10
256.785159194249
 20
-200.5181268312612
 30
0.0
 10
263.0742021283061
 20
-208.4646348587194
 30
0.0
 10
269.1100566159975
 20
-216.6044591196918
 30
0.0
 10
274.7358285931827
 20
-225.043243166608
 30
0.0
 10
279.2387837305793
 20
-232.6823922060241
 30
0.0
 10
281.6819376058373
 20
-237.1213541688344
 30
0.0
 10
283.5314920915113
 20
-240.6468806377112
 30
0.0
 10
285.3813120374554
 20
-244.3755505615281
 30
0.0
 10
287.0645174692904
 20
-247.9835773106379
 30
0.0
 10
288.5259340501801
 20
-251.2946563813278
 30
0.0
 10
290.3474772450405
 20
-255.6326022762657
 30
0.0
 10
292.5662245517868
 20
-261.3726153447553
 30
0.0
 10
295.039586790423
 20
-268.5602833317907
 30
0.0
 10
297.2614524933376
 20
-275.8295097838567
 30
0.0
 10
299.2512246894863
 20
-283.1654397524362
 30
0.0
 10
301.0284679649504
 20
-290.5555916943059
 30
0.0
 10
302.6098529329029
 20
-297.9899861417324
 30
0.0
 10
304.013909732582
 20
-305.4597783297055
 30
0.0
 10
305.259119715106
 20
-312.9575691175272
 30
0.0
 10
306.365290595277
 20
-320.4770482200788
 30
0.0
 10
307.344600944971
 20
-328.0140552932768
 30
0.0
 10
308.2082900117147
 20
-335.5651386973058
 30
0.0
 10
308.9674275919323
 20
-343.1274104742834
 30
0.0
 10
309.6327307745358
 20
-350.6984776824618
 30
0.0
 10
310.2164076692371
 20
-358.2762393791813
 30
0.0
 10
310.730782205311
 20
-365.8589915523319
 30
0.0
 10
311.1882276296908
 20
-373.4453669495131
 30
0.0
 10
311.6011407257654
 20
-381.0342776083484
 30
0.0
 10
311.918465768278
 20
-387.3597582815802
 30
0.0
 10
312.162451818311
 20
-392.4206208257095
 30
0.0
 10
312.342081583306
 20
-396.2164292673106
 30
0.0
 10
312.5197832130143
 20
-400.0123280718574
 30
0.0
 10
312.6382864197143
 20
-402.5429256307949
 30
0.0
 10
312.6975380231162
 20
-403.8082244113683
 30
0.0
  0
SPLINE
  5
76
330
1F
100
AcDbEntity
  8
0
  6
Continuous
 62
   144
370
    18
100
AcDbSpline
210
0.0
220
0.0
230
1.0
 70
     8
 71
     3
 72
    18
 73
    14
 74
     0
 42
0.00000001
 43
0.00000001
 40
0.0
 40
0.0
 40
0.0
 40
0.0
 40
0.0625000304124916
 40
0.1250000605016291
 40
0.2500001070537369
 40
0.3750001366776611
 40
0.5000001429869247
 40
0.6250001192968624
 40
0.7500000594275524
 40
0.8749999529946413
 40
0.9374999819167247
 40
0.9687499866246195
 40
1.0
 40
1.0
 40
1.0
 40
1.0
 10
312.6975380231162
 20
-403.8082244113683
 30
0.0
 10
312.740174750541
 20
-404.7071302985163
 30
0.0
 10
312.8254482051702
 20
-406.5049420681618
 30
0.0
 10
312.9976899718901
 20
-410.100484641898
 30
0.0
 10
313.2176222027738
 20
-414.5946905678886
 30
0.0
 10
313.4935249475924
 20
-419.987140524504
 30
0.0
 10
313.7860089603055
 20
-425.3787203721774
 30
0.0
 10
314.0997114355062
 20
-430.7691118311431
 30
0.0
 10
314.4390830600836
 20
-436.1579540088638
 30
0.0
 10
314.7475691848164
 20
-440.6469740711839
 30
0.0
 10
314.9781407136514
 20
-443.788234725212
 30
0.0
 10
315.115294262299
 20
-445.5828353088582
 30
0.0
 10
315.1853594114253
 20
-446.4800199984122
 30
0.0
 10
315.2203919908468
 20
-446.9286124053997
 30
0.0
  0
LWPOLYLINE
  5
77
330
1F
100
AcDbEntity
  8
0
  6
Continuous
 62
   144
370
    18
100
AcDbPolyline
 90
        3
 70
   128
 43
0.0
 10
315.2203920299
 20
-446.9286129054
 10
116.8874978312
 20
-446.9381016662
 10
-0.0000001557
 20
-446.9437373745
  0
LWPOLYLINE
  5
78
330
1F
100
AcDbEntity
  8
0
  6
Continuous
 62
   144
370
    18
100
AcDbPolyline
 90
        3
 70
   128
 43
0.0
 10
-0.0000001557
 20
-446.9437373745
 10
-111.6604997403
 20
-446.9437950053
 10
-315.2202807946
 20
-446.9439677542
  0
SPLINE
  5
79
330
1F
100
AcDbEntity
  8
0
  6
Continuous
 62
   144
370
    18
100
AcDbSpline
210
0.0
220
0.0
230
1.0
 70
     8
 71
     3
 72
    18
 73
    14
 74
     0
 42
0.00000001
 43
0.00000001
 40
0.0
 40
0.0
 40
0.0
 40
0.0
 40
0.0312500246401681
 40
0.0625000289783105
 40
0.1250000571927458
 40
0.2499999492365361
 40
0.3749998878875483
 40
0.4999998627495258
 40
0.6249998676334703
 40
0.7499998958473012
 40
0.8749999409207754
 40
0.9374999704122332
 40
1.0
 40
1.0
 40
1.0
 40
1.0
 10
-315.2202812962558
 20
-446.9439677541974
 30
0.0
 10
-315.1852583727463
 20
-446.4952151395262
 30
0.0
 10
-315.1152125484806
 20
-445.5977102017224
 30
0.0
 10
-314.9780990931245
 20
-443.8024693238042
 30
0.0
 10
-314.7476050698779
 20
-440.6600883706595
 30
0.0
 10
-314.4392428634397
 20
-436.1694680025136
 30
0.0
 10
-314.1000394462264
 20
-430.7787058192299
 30
0.0
 10
-313.7865175954702
 20
-425.3863949827165
 30
0.0
 10
-313.4942270346356
 20
-419.9928962332127
 30
0.0
 10
-313.2185055563577
 20
-414.5985288443445
 30
0.0
 10
-312.9987714723544
 20
-410.1027233501959
 30
0.0
 10
-312.8265822523725
 20
-406.5059063630773
 30
0.0
 10
-312.7414745688299
 20
-404.7074508062242
 30
0.0
 10
-312.6989207270257
 20
-403.8082230271049
 30
0.0
  0
SPLINE
  5
7A
330
1F
100
AcDbEntity
  8
0
  6
Continuous
 62
   144
370
    18
100
AcDbSpline
210
0.0
220
0.0
230
1.0
 70
     8
 71
     3
 72
    94
 73
    90
 74
     0
 42
0.00000001
 43
0.00000001
 40
0.0
 40
0.0
 40
0.0
 40
0.0
 40
0.0078127417499277
 40
0.0156254834854901
 40
0.023438225129745
 40
0.0312509666053957
 40
0.046876443047317
 40
0.0625019111455349
 40
0.078127367664212
 40
0.0937528093368549
 40
0.1093782329053816
 40
0.1250036351593724
 40
0.1406290152878399
 40
0.1562543698625473
 40
0.1718796964279782
 40
0.1875049929032908
 40
0.203130236185176
 40
0.2187554149340756
 40
0.2500028345283538
 40
0.2656277615844183
 40
0.2812525785921193
 40
0.2968772778633548
 40
0.3046899356758426
 40
0.3085963083180187
 40
0.3125026828942158
 40
0.343744747137264
 40
0.3593692607569774
 40
0.3749938377775633
 40
0.3906185351546682
 40
0.4062433139489363
 40
0.4218681659463416
 40
0.4374930831569651
 40
0.4687399338918929
 40
0.4999874735535167
 40
0.5156125984324208
 40
0.5312377607099457
 40
0.5624863558585113
 40
0.57811160396365
 40
0.5937368791453116
 40
0.6093621812376275
 40
0.6249875094950331
 40
0.6406128543821406
 40
0.6562382152685733
 40
0.6718635916945722
 40
0.6874889830889734
 40
0.7031143886935812
 40
0.7187398075846916
 40
0.7499903790283402
 40
0.7656158276920236
 40
0.7812412862835351
 40
0.7968667531962141
 40
0.8124922268100894
 40
0.8203049680334465
 40
0.8281177096106339
 40
0.8359304513543909
 40
0.8437431930594864
 40
0.8515559345019622
 40
0.8593686754417004
 40
0.8749941376920215
 40
0.8828068742326383
 40
0.890619606688293
 40
0.8984323337531935
 40
0.9062450541347943
 40
0.9140577622203151
 40
0.9218704457265388
 40
0.9296830975302365
 40
0.9374957107293942
 40
0.9414020861333287
 40
0.9453084634863085
 40
0.9531208500043234
 40
0.9570272391759479
 40
0.9609336315326232
 40
0.9648400250358877
 40
0.9687464349701059
 40
0.9726528770886306
 40
0.9765593338045657
 40
0.9843673758128633
 40
0.9863212635927562
 40
0.9882745373300131
 40
0.9902280794951248
 40
0.9912055149489789
 40
0.9921835681112767
 40
0.9941392833556991
 40
0.9951160768901864
 40
0.9960919649746134
 40
0.9970677033173978
 40
0.9980442492165631
 40
0.9990218025766934
 40
0.9999999999999999
 40
0.9999999999999999
 40
0.9999999999999999
 40
0.9999999999999999
 10
-312.6989207270258
 20
-403.8082230271047
 30
0.0
 10
-312.6397528898761
 20
-402.5434097899241
 30
0.0
 10
-312.5214172156859
 20
-400.0137833178885
 30
0.0
 10
-312.3439463306353
 20
-396.2193421065006
 30
0.0
 10
-312.1645395378221
 20
-392.4249915425825
 30
0.0
 10
-311.9208450955234
 20
-387.3660729267498
 30
0.0
 10
-311.6038880649118
 20
-381.0430215174296
 30
0.0
 10
-311.1914558862555
 20
-373.4570226865751
 30
0.0
 10
-310.7345569251249
 20
-365.8735533019399
 30
0.0
 10
-310.2207938361231
 20
-358.293700269872
 30
0.0
 10
-309.6378187086841
 20
-350.7188265150173
 30
0.0
 10
-308.9731460624481
 20
-343.1506492319916
 30
0.0
 10
-308.21499200429
 20
-335.5912282213205
 30
0.0
 10
-307.3523708806057
 20
-328.0429753260881
 30
0.0
 10
-306.3737509579087
 20
-320.5088306905837
 30
0.0
 10
-305.268618261471
 20
-312.9921870429475
 30
0.0
 10
-304.0245423176976
 20
-305.4971019932357
 30
0.0
 10
-302.1540036469951
 20
-295.5419334759242
 30
0.0
 10
-299.929582300988
 20
-285.6545801685829
 30
0.0
 10
-297.2788541415892
 20
-275.8773802871662
 30
0.0
 10
-295.0587945338947
 20
-268.6106973796865
 30
0.0
 10
-292.9999784135294
 20
-262.6225064804534
 30
0.0
 10
-291.4421583573857
 20
-258.4735379238027
 30
0.0
 10
-290.5175314596167
 20
-256.1159359556108
 30
0.0
 10
-288.1495777730974
 20
-250.24609668258
 30
0.0
 10
-284.7045059868647
 20
-242.759789160418
 30
0.0
 10
-279.9155916756722
 20
-233.8337009028521
 30
0.0
 10
-276.06140569709
 20
-227.2848440944629
 30
0.0
 10
-271.9643123581569
 20
-220.8856660770128
 30
0.0
 10
-267.6464433630003
 20
-214.6334571769823
 30
0.0
 10
-263.1231700307459
 20
-208.5282747377722
 30
0.0
 10
-256.8393313014682
 20
-200.5827232993147
 30
0.0
 10
-248.5477279070257
 20
-191.0052130384407
 30
0.0
 10
-239.7501308933067
 20
-181.8923908886594
 30
0.0
 10
-232.4486008138836
 20
-174.8710468574302
 30
0.0
 10
-224.9825244468675
 20
-168.0247611471835
 30
0.0
 10
-217.2877020954861
 20
-161.4320450252008
 30
0.0
 10
-209.3960578166475
 20
-155.0814603211168
 30
0.0
 10
-203.3871036417015
 20
-150.4322329737911
 30
0.0
 10
-197.2955882165496
 20
-145.8918778308361
 30
0.0
 10
-191.1293477803488
 20
-141.4535905096633
 30
0.0
 10
-184.8951349671736
 20
-137.1113499376795
 30
0.0
 10
-178.5976716316451
 20
-132.8613979077074
 30
0.0
 10
-172.2422759777417
 20
-128.6986246753862
 30
0.0
 10
-165.8339877202337
 20
-124.6177925413691
 30
0.0
 10
-159.3778071711398
 20
-120.6131910005438
 30
0.0
 10
-150.7121375363427
 20
-115.3676436996047
 30
0.0
 10
-141.9701614355726
 20
-110.2493127346267
 30
0.0
 10
-133.1683866369701
 20
-105.2356782058354
 30
0.0
 10
-126.5405849577677
 20
-101.5221733399878
 30
0.0
 10
-119.8912943999083
 20
-97.84733977843882
 30
0.0
 10
-114.3361432472045
 20
-94.81059598558907
 30
0.0
 10
-109.8855764504141
 20
-92.39305538549591
 30
0.0
 10
-106.5454533732715
 20
-90.58395015202703
 30
0.0
 10
-103.2043537190268
 20
-88.77665026105022
 30
0.0
 10
-99.86347971415911
 20
-86.96893346466227
 30
0.0
 10
-96.52406995757022
 20
-85.15851016779352
 30
0.0
 10
-92.07521890320155
 20
-82.73782084523464
 30
0.0
 10
-87.63432511132774
 20
-80.30249028478539
 30
0.0
 10
-83.20740660555123
 20
-77.84188845817583
 30
0.0
 10
-79.89752389665216
 20
-75.9779913407679
 30
0.0
 10
-76.60100274584826
 20
-74.0905375077228
 30
0.0
 10
-73.321249430962
 20
-72.17407385144651
 30
0.0
 10
-70.06144884486416
 20
-70.22381554184878
 30
0.0
 10
-66.82908714343758
 20
-68.2282909964552
 30
0.0
 10
-63.63265567925617
 20
-66.17560314679966
 30
0.0
 10
-61.00626270592517
 20
-64.40806014038225
 30
0.0
 10
-58.93301094005791
 20
-62.9537615224702
 30
0.0
 10
-56.88230754317762
 20
-61.46794047195305
 30
0.0
 10
-54.87056175726568
 20
-59.92861548370905
 30
0.0
 10
-52.91037694110753
 20
-58.32503584400259
 30
0.0
 10
-51.47193274718008
 20
-57.08438086932031
 30
0.0
 10
-50.07255799472163
 20
-55.7996690737664
 30
0.0
 10
-48.71905978364068
 20
-54.46666548100349
 30
0.0
 10
-47.41982592223052
 20
-53.08012885901748
 30
0.0
 10
-45.7827033788207
 20
-51.14855427613511
 30
0.0
 10
-44.50543352381425
 20
-49.32651200340236
 30
0.0
 10
-43.58558588473632
 20
-47.66498906034054
 30
0.0
 10
-43.16631153661667
 20
-46.81223181179392
 30
0.0
 10
-42.85392202895276
 20
-46.08449256602601
 30
0.0
 10
-42.62650043978749
 20
-45.49312183969776
 30
0.0
 10
-42.41398425593704
 20
-44.8958854053764
 30
0.0
 10
-42.22615250855168
 20
-44.2900613403658
 30
0.0
 10
-42.07070733049742
 20
-43.67586884113333
 30
0.0
 10
-41.97262947822676
 20
-43.21136557094181
 30
0.0
 10
-41.89340598748382
 20
-42.74336045884692
 30
0.0
 10
-41.82782025906617
 20
-42.27303474789738
 30
0.0
 10
-41.77144421800669
 20
-41.80114187834313
 30
0.0
 10
-41.73691342653512
 20
-41.48606326919859
 30
0.0
 10
-41.71964234500044
 20
-41.32847208415885
 30
0.0
  0
SPLINE
  5
7D
330
1F
100
AcDbEntity
  8
0
  6
Continuous
 62
   144
370
    18
100
AcDbSpline
210
0.0
220
0.0
230
1.0
 70
     8
 71
     3
 72
    76
 73
    72
 74
     0
 42
0.00000001
 43
0.00000001
 40
0.0
 40
0.0
 40
0.0
 40
0.0
 40
0.0004892139545124
 40
0.0009783325690612
 40
0.0019559530346258
 40
0.0029324600422962
 40
0.0039080721230145
 40
0.0048838434827853
 40
0.0058606127768671
 40
0.0078165119658644
 40
0.008794676611058
 40
0.0097721573649756
 40
0.0117256496789807
 40
0.0136788365884634
 40
0.0156327065982143
 40
0.0178657016522062
 40
0.0200982196379761
 40
0.0234466085750188
 40
0.0273529428012228
 40
0.0293062581277812
 40
0.0312595128808499
 40
0.0390707027094796
 40
0.0429769608636342
 40
0.0468832178613139
 40
0.0546952559099206
 40
0.0586014993453428
 40
0.0625077406240498
 40
0.0703200309663902
 40
0.0781323664386199
 40
0.0859447409863745
 40
0.093757148271013
 40
0.1015695707928644
 40
0.1093820032941761
 40
0.1171944445807023
 40
0.1250068934864119
 40
0.1406316751067857
 40
0.1562565001053586
 40
0.171881361809426
 40
0.1875062533511463
 40
0.2031311564281952
 40
0.2187560664440483
 40
0.2500057553759247
 40
0.265630677110983
 40
0.2812556007762865
 40
0.3125053544935075
 40
0.3437551356446403
 40
0.3750049404646469
 40
0.3906298749206068
 40
0.4062548114698641
 40
0.4218797497071112
 40
0.4375046892633513
 40
0.5000042532182678
 40
0.5625036099020865
 40
0.5937534294949719
 40
0.6250032481911858
 40
0.6562530607985585
 40
0.6875028329706937
 40
0.7031277543302075
 40
0.718752671719075
 40
0.7500023077914337
 40
0.7812519238116704
 40
0.8125015480923415
 40
0.8437511954887474
 40
0.8750008763951805
 40
0.9062505933574678
 40
0.9375003471472931
 40
0.9687501341940797
 40
0.9843750671226855
 40
0.9921875372725968
 40
0.9960937726763861
 40
1.0
 40
1.0
 40
1.0
 40
1.0
 10
-42.17913754791967
 20
-41.29849075766764
 30
0.0
 10
-42.18806699859738
 20
-41.37722320046353
 30
0.0
 10
-42.20592415974588
 20
-41.53467274236332
 30
0.0
 10
-42.24243293950897
 20
-41.84936401114343
 30
0.0
 10
-42.29104979576095
 20
-42.24211024521794
 30
0.0
 10
-42.35905143358997
 20
-42.71178535476371
 30
0.0
 10
-42.44134243442297
 20
-43.17892793551389
 30
0.0
 10
-42.54338965027734
 20
-43.64224604363265
 30
0.0
 10
-42.70526345731026
 20
-44.25439256368729
 30
0.0
 10
-42.90090847475375
 20
-44.85742088282133
 30
0.0
 10
-43.12210392635706
 20
-45.45114257991342
 30
0.0
 10
-43.35867948048822
 20
-46.03851365536893
 30
0.0
 10
-43.68339400222645
 20
-46.76032623694667
 30
0.0
 10
-44.11879850079542
 20
-47.60428467234735
 30
0.0
 10
-44.61883187884601
 20
-48.4643478723771
 30
0.0
 10
-45.1835087970374
 20
-49.33786371953769
 30
0.0
 10
-45.91816816870124
 20
-50.36887226747255
 30
0.0
 10
-46.87445814934513
 20
-51.57285245832075
 30
0.0
 10
-47.86936966535604
 20
-52.68507482829828
 30
0.0
 10
-48.74876532951621
 20
-53.59514785480822
 30
0.0
 10
-50.09830466282688
 20
-54.92976897279456
 30
0.0
 10
-51.754085456209
 20
-56.40374209237775
 30
0.0
 10
-53.72410216272622
 20
-57.99230282961341
 30
0.0
 10
-55.73749177376552
 20
-59.52594704264742
 30
0.0
 10
-57.804222304517
 20
-60.98798528608449
 30
0.0
 10
-59.91207331646106
 20
-62.38860377972866
 30
0.0
 10
-62.043745682801
 20
-63.7528072777583
 30
0.0
 10
-64.74605712288731
 20
-65.39820327886298
 30
0.0
 10
-68.03891178000048
 20
-67.28759401505849
 30
0.0
 10
-71.37298509600137
 20
-69.10311218538918
 30
0.0
 10
-74.73988842634493
 20
-70.8568201700929
 30
0.0
 10
-78.13265271542393
 20
-72.55988547067099
 30
0.0
 10
-81.54841118063366
 20
-74.21631408001412
 30
0.0
 10
-84.98387192345767
 20
-75.83143833392306
 30
0.0
 10
-89.58687670389293
 20
-77.93652011922602
 30
0.0
 10
-95.37504656826242
 20
-80.49182515350591
 30
0.0
 10
-102.3660792914229
 20
-83.45326465854782
 30
0.0
 10
-109.3941901850612
 20
-86.32548248911922
 30
0.0
 10
-116.4513031939884
 20
-89.12552997595479
 30
0.0
 10
-123.5309548258099
 20
-91.86805701290056
 30
0.0
 10
-132.9982882109946
 20
-95.45205016703204
 30
0.0
 10
-142.501950794972
 20
-98.939243356575
 30
0.0
 10
-152.0343405315574
 20
-102.346318071359
 30
0.0
 10
-161.58596755469
 20
-105.6991645966854
 30
0.0
 10
-173.5586334489722
 20
-109.7951261361656
 30
0.0
 10
-187.9718528274111
 20
-114.573352848038
 30
0.0
 10
-200.0157485228721
 20
-118.4545972446271
 30
0.0
 10
-209.6677697992212
 20
-121.5063471703206
 30
0.0
 10
-216.9140884216159
 20
-123.7719632956397
 30
0.0
 10
-224.1663979967387
 20
-126.0183195117881
 30
0.0
 10
-238.6804653566929
 20
-130.4802528658177
 30
0.0
 10
-260.480221900749
 20
-137.0800561687322
 30
0.0
 10
-284.7814542167688
 20
-144.1475748789148
 30
0.0
 10
-304.2806521989337
 20
-149.5957971246869
 30
0.0
 10
-318.9342160989136
 20
-153.5762437596432
 30
0.0
 10
-333.6146020432486
 20
-157.4565634526008
 30
0.0
 10
-345.8746597710717
 20
-160.5889855357726
 30
0.0
 10
-355.7020208176409
 20
-163.0176191304597
 30
0.0
 10
-365.5441245299616
 20
-165.3857005328572
 30
0.0
 10
-377.8757986580781
 20
-168.2239243743003
 30
0.0
 10
-392.7216626914403
 20
-171.414659670002
 30
0.0
 10
-407.6120980579643
 20
-174.3903926994634
 30
0.0
 10
-422.5427312997261
 20
-177.1571724441548
 30
0.0
 10
-437.5083526045503
 20
-179.7276729533378
 30
0.0
 10
-452.5037996991018
 20
-182.1176960160077
 30
0.0
 10
-467.5240266399732
 20
-184.3462810687007
 30
0.0
 10
-480.0577241011387
 20
-186.0859389605889
 30
0.0
 10
-488.8383476313389
 20
-187.2511946962495
 30
0.0
 10
-493.2302401788407
 20
-187.8217938248238
 30
0.0
 10
-495.7403016674729
 20
-188.1446779445109
 30
0.0
 10
-496.9954980793116
 20
-188.304821205202
 30
0.0
 10
-497.6230956361268
 20
-188.3848927527321
 30
0.0
  0
SPLINE
  5
80
330
1F
100
AcDbEntity
  8
0
  6
Continuous
 62
   144
370
    18
100
AcDbSpline
210
0.0
220
0.0
230
1.0
 70
     8
 71
     3
 72
    87
 73
    83
 74
     0
 42
0.00000001
 43
0.00000001
 40
0.0
 40
0.0
 40
0.0
 40
0.0
 40
0.0039062419283655
 40
0.0078124839342358
 40
0.0156249658936407
 40
0.0312499143507596
 40
0.0624996796121441
 40
0.1249980140257866
 40
0.1562477347931636
 40
0.1874974422146503
 40
0.2187471367931984
 40
0.2499968234455474
 40
0.2812465224215536
 40
0.2968714645773759
 40
0.3124964094145819
 40
0.3281213573466191
 40
0.3437463096321353
 40
0.3593712669246944
 40
0.3749962292935337
 40
0.3906211959776636
 40
0.4062461634965589
 40
0.4218711313719862
 40
0.4374960992543342
 40
0.4531210671280429
 40
0.4687460348837925
 40
0.4999959678629212
 40
0.5312458971972491
 40
0.5624958235714532
 40
0.5781207901622746
 40
0.5937457570696341
 40
0.6093707243077929
 40
0.6249956918507622
 40
0.6562456267004132
 40
0.6718705945676203
 40
0.6874955624681144
 40
0.7031205303527036
 40
0.7187454980697634
 40
0.7343704654505585
 40
0.7499954323054655
 40
0.7656203971243517
 40
0.7812453590525928
 40
0.7968703170794256
 40
0.8031203036545462
 40
0.8124952813199102
 40
0.8281202298314762
 40
0.8437451623106833
 40
0.8515576410314346
 40
0.8593701185224623
 40
0.8671825957300779
 40
0.8749950693652312
 40
0.8828075387820944
 40
0.8906200032707093
 40
0.8984324621518264
 40
0.9062449149223544
 40
0.9140573596358635
 40
0.9218697750889011
 40
0.9296821544898203
 40
0.9374944913806008
 40
0.9453067807969052
 40
0.949213017098687
 40
0.9531192517089377
 40
0.9570254852974488
 40
0.9609317108811967
 40
0.9648379367068024
 40
0.966791110002984
 40
0.9687443149702601
 40
0.9706975050995196
 40
0.9726507424214286
 40
0.9765569487771917
 40
0.9804630880458769
 40
0.9824164788781129
 40
0.9843698881779848
 40
0.9882761826602849
 40
0.9902292782750256
 40
0.9921831799365743
 40
0.9941392512529353
 40
0.9960926757412254
 40
0.9970682166912271
 40
0.9980443552617728
 40
0.9990217391279287
 40
0.9995108099518374
 40
1.0
 40
1.0
 40
1.0
 40
1.0
 10
-540.8147220949259
 20
188.3866002456598
 30
0.0
 10
-540.1229048104242
 20
188.1865908645621
 30
0.0
 10
-538.7392702276945
 20
187.7865720983984
 30
0.0
 10
-535.973417133714
 20
186.9816508907849
 30
0.0
 10
-531.1359490718834
 20
185.5635410839277
 30
0.0
 10
-521.4730716396355
 20
182.6864259278876
 30
0.0
 10
-502.1968695047022
 20
176.7684706180403
 30
0.0
 10
-480.2869707627927
 20
169.6181463964059
 30
0.0
 10
-458.5186771198387
 20
162.0544333363763
 30
0.0
 10
-442.2683821328015
 20
156.1667940356082
 30
0.0
 10
-426.0991514752276
 20
150.0600727492527
 30
0.0
 10
-410.0162059802865
 20
143.7295466877185
 30
0.0
 10
-396.6885652076328
 20
138.2677583442827
 30
0.0
 10
-386.0706294448433
 20
133.7928225401463
 30
0.0
 10
-378.1285000749633
 20
130.3863744874213
 30
0.0
 10
-370.2067944933083
 20
126.9327222316318
 30
0.0
 10
-362.303913267208
 20
123.4362258116781
 30
0.0
 10
-354.4174469923305
 20
119.9028824355417
 30
0.0
 10
-346.5440245606999
 20
116.3405946704751
 30
0.0
 10
-338.6781804109119
 20
112.7616227301555
 30
0.0
 10
-330.815872665985
 20
109.1748906579069
 30
0.0
 10
-322.955487563637
 20
105.5839479478472
 30
0.0
 10
-315.094892624849
 20
101.9934645882939
 30
0.0
 10
-307.2333058678204
 20
98.40515306295664
 30
0.0
 10
-296.7495219822225
 20
93.62439558243439
 30
0.0
 10
-283.6392838683934
 20
87.66053271548472
 30
0.0
 10
-267.8941408636032
 20
80.5322156267699
 30
0.0
 10
-254.7578974132408
 20
74.6258191299035
 30
0.0
 10
-244.2385948530749
 20
69.92372597206143
 30
0.0
 10
-236.3441621579728
 20
66.40826152623478
 30
0.0
 10
-228.445652228261
 20
62.90196930173829
 30
0.0
 10
-217.909927008935
 20
58.23679142489098
 30
0.0
 10
-207.3702411234469
 20
53.58056650909036
 30
0.0
 10
-196.828318463351
 20
48.92941209108549
 30
0.0
 10
-188.9210895135031
 20
45.442830028961
 30
0.0
 10
-181.0138197017069
 20
41.95634078718884
 30
0.0
 10
-173.1079192408573
 20
38.46674669288801
 30
0.0
 10
-165.2046383083999
 20
34.97122256457592
 30
0.0
 10
-157.3051170780836
 20
31.46720911844884
 30
0.0
 10
-149.4114330221945
 20
27.9500564729349
 30
0.0
 10
-141.5273149712642
 20
24.4115011589406
 30
0.0
 10
-135.23011685536
 20
21.55824345911396
 30
0.0
 10
-129.9898739470587
 20
19.16424993771737
 30
0.0
 10
-124.7555963037851
 20
16.75723616603177
 30
0.0
 10
-117.9632362652156
 20
13.60166869550991
 30
0.0
 10
-111.4520768854859
 20
10.52478276036502
 30
0.0
 10
-106.2590995958705
 20
8.029897335194505
 30
0.0
 10
-102.3735584347378
 20
6.139706583728518
 30
0.0
 10
-98.49723516065689
 20
4.230682361962653
 30
0.0
 10
-94.6318767087467
 20
2.299534206729612
 30
0.0
 10
-90.78011047322435
 20
0.3413926108284254
 30
0.0
 10
-86.94448216430763
 20
-1.648194400484013
 30
0.0
 10
-83.12754295053884
 20
-3.673443352133099
 30
0.0
 10
-79.33253559254854
 20
-5.739503135437751
 30
0.0
 10
-75.56044396319872
 20
-7.847147914073774
 30
0.0
 10
-71.8190130871068
 20
-10.00889233039223
 30
0.0
 10
-68.11794165550832
 20
-12.23920641659838
 30
0.0
 10
-64.46732322999294
 20
-14.55131257823389
 30
0.0
 10
-61.47576685432705
 20
-16.55610600212415
 30
0.0
 10
-59.11944040823406
 20
-18.21321931922029
 30
0.0
 10
-57.37573854630443
 20
-19.48902173386506
 30
0.0
 10
-55.66028984112081
 20
-20.80264704167448
 30
0.0
 10
-53.9785758155389
 20
-22.15926682942478
 30
0.0
 10
-52.60938630096102
 20
-23.32875476202832
 30
0.0
 10
-51.53585169951088
 20
-24.28906340142647
 30
0.0
 10
-50.74262210610419
 20
-25.02246047682504
 30
0.0
 10
-49.96354260855367
 20
-25.77093017423104
 30
0.0
 10
-48.9470629351791
 20
-26.79150435286215
 30
0.0
 10
-47.72328294190955
 20
-28.11321547293583
 30
0.0
 10
-46.58019359879436
 20
-29.50591208996752
 30
0.0
 10
-45.72418958688938
 20
-30.66472322419662
 30
0.0
 10
-44.91164947915274
 20
-31.85430593113127
 30
0.0
 10
-44.17496113631933
 20
-33.09513797591221
 30
0.0
 10
-43.54209846497384
 20
-34.38987652389998
 30
0.0
 10
-43.12411767597066
 20
-35.38735717859424
 30
0.0
 10
-42.76377897483061
 20
-36.40716051197952
 30
0.0
 10
-42.52649857803057
 20
-37.27727863141818
 30
0.0
 10
-42.38900103093675
 20
-37.98422038227719
 30
0.0
 10
-42.30742148377706
 20
-38.51812133087925
 30
0.0
 10
-42.25104124495881
 20
-38.96491664083458
 30
0.0
 10
-42.20944927964937
 20
-39.32304926825881
 30
0.0
 10
-42.18923036609776
 20
-39.502263258983
 30
0.0
 10
-42.17911967724523
 20
-39.59188117507949
 30
0.0
  0
SPLINE
  5
83
330
1F
100
AcDbEntity
  8
0
  6
Continuous
 62
   144
370
    18
100
AcDbSpline
210
0.0
220
0.0
230
1.0
 70
     8
 71
     3
 72
   106
 73
   102
 74
     0
 42
0.00000001
 43
0.00000001
 40
0.0
 40
0.0
 40
0.0
 40
0.0
 40
0.0004891173941188
 40
0.0009781260330755
 40
0.0019554575259294
 40
0.0029316635439662
 40
0.0039073345021083
 40
0.0058608031464712
 40
0.0078166568191519
 40
0.0093799684471535
 40
0.0117236778074438
 40
0.0156300511150586
 40
0.0175835015865543
 40
0.0195369386619398
 40
0.0234431852652064
 40
0.0273494982124973
 40
0.0312558027888919
 40
0.0351621428885348
 40
0.037115360914636
 40
0.0390685720114232
 40
0.0429749010376657
 40
0.0468812431028035
 40
0.0507875842820027
 40
0.0546939274825591
 40
0.0586002728187823
 40
0.0625066181169267
 40
0.070319213872423
 40
0.0781318445033707
 40
0.0859445025976093
 40
0.0937571806791206
 40
0.1015698654770894
 40
0.1093825537368033
 40
0.1171952449495511
 40
0.1250079383074869
 40
0.1328206329940354
 40
0.1367269806242014
 40
0.1406333282538917
 40
0.1450977255483546
 40
0.1495621228398204
 40
0.1562587187039467
 40
0.1640714135497712
 40
0.1718841079308405
 40
0.187509480300257
 40
0.1964382708190903
 40
0.2031348649971045
 40
0.218760216187249
 40
0.2343855533395067
 40
0.2500108750265247
 40
0.2656361761200904
 40
0.2812614623928653
 40
0.3125111567962168
 40
0.3437605479056779
 40
0.3750096231088452
 40
0.390634767877266
 40
0.4062598777410669
 40
0.4218849518598399
 40
0.4375099900762546
 40
0.4732200237270626
 40
0.4866129273815941
 40
0.5000058072068083
 40
0.531251707098154
 40
0.5624964330240939
 40
0.5781209568057454
 40
0.5937453894131166
 40
0.6093697393164756
 40
0.6171823217310289
 40
0.6210886673540377
 40
0.6249950128348284
 40
0.6328076066243893
 40
0.6406202090714496
 40
0.6562447964370992
 40
0.6718695108848544
 40
0.687494339403812
 40
0.7031192701256966
 40
0.7187442861842399
 40
0.7343693802313522
 40
0.7499945436595671
 40
0.7656197537010961
 40
0.7812449960894577
 40
0.7968702670433403
 40
0.8124955630068675
 40
0.8281208835340116
 40
0.8437462253967969
 40
0.8593715847914298
 40
0.8749969578379799
 40
0.8828096520834198
 40
0.890622346758078
 40
0.8984350417456692
 40
0.9062477369290416
 40
0.9101540845606009
 40
0.9140604321923101
 40
0.9218731274147924
 40
0.9296858224808267
 40
0.9374985172737205
 40
0.9531238971060347
 40
0.9687492648203441
 40
0.9843746158531449
 40
0.9921873053304597
 40
0.996093653076122
 40
0.9980468264150671
 40
1.0
 40
1.0
 40
1.0
 40
1.0
 10
-41.71964133679938
 20
-39.56194720510557
 30
0.0
 10
-41.72942096512686
 20
-39.47225423211671
 30
0.0
 10
-41.74897804728326
 20
-39.29288822935494
 30
0.0
 10
-41.78919472142582
 20
-38.93442608207619
 30
0.0
 10
-41.84365764092604
 20
-38.48714499671667
 30
0.0
 10
-41.92230185094223
 20
-37.95247427360401
 30
0.0
 10
-42.05456970978377
 20
-37.24409502117093
 30
0.0
 10
-42.28236680714901
 20
-36.37104545027435
 30
0.0
 10
-42.60558737140313
 20
-35.4140816060267
 30
0.0
 10
-43.00214229680913
 20
-34.40757530173782
 30
0.0
 10
-43.60523383799017
 20
-33.0974008894976
 30
0.0
 10
-44.35228686330358
 20
-31.77841671569189
 30
0.0
 10
-45.13915933001008
 20
-30.57067669866499
 30
0.0
 10
-45.96878672901205
 20
-29.39181847484466
 30
0.0
 10
-47.07778815088241
 20
-27.97055410685808
 30
0.0
 10
-48.5044954284388
 20
-26.3452319371248
 30
0.0
 10
-50.00656264625222
 20
-24.78972597382521
 30
0.0
 10
-51.30532940245001
 20
-23.5408896139875
 30
0.0
 10
-52.36522368111568
 20
-22.56431838449326
 30
0.0
 10
-53.43788326799356
 20
-21.6017744481834
 30
0.0
 10
-54.80231570470579
 20
-20.42521175918623
 30
0.0
 10
-56.47213953160284
 20
-19.05208245334529
 30
0.0
 10
-58.16906763404931
 20
-17.71264966505646
 30
0.0
 10
-59.88844634845844
 20
-16.40223212360527
 30
0.0
 10
-61.62517247256865
 20
-15.11493676145984
 30
0.0
 10
-63.96062722286378
 20
-13.42567006002131
 30
0.0
 10
-66.91417377111905
 20
-11.36189978338682
 30
0.0
 10
-70.50202435503321
 20
-8.94923234150817
 30
0.0
 10
-74.12337027457254
 20
-6.587227907596152
 30
0.0
 10
-77.76846850028258
 20
-4.262144535641388
 30
0.0
 10
-81.42865909347776
 20
-1.960916016420025
 30
0.0
 10
-85.10274321712915
 20
0.3180608683321096
 30
0.0
 10
-88.78726459103164
 20
2.58010608479689
 30
0.0
 10
-92.4794055228643
 20
4.829685333902351
 30
0.0
 10
-95.56014339358178
 20
6.697824684792019
 30
0.0
 10
-98.02574948619161
 20
8.190658348350393
 30
0.0
 10
-99.96316465949029
 20
9.363346206300651
 30
0.0
 10
-101.9884921687768
 20
10.58958908902916
 30
0.0
 10
-104.4540578675828
 20
12.0824897715537
 30
0.0
 10
-107.4473281721678
 20
13.89633923669743
 30
0.0
 10
-110.966864636886
 20
16.03351022695783
 30
0.0
 10
-115.8895057699253
 20
19.0332831451554
 30
0.0
 10
-120.9778093063359
 20
22.15684325889479
 30
0.0
 10
-125.875394661233
 20
25.19737583405836
 30
0.0
 10
-130.7629110988231
 20
28.25404240118128
 30
0.0
 10
-136.6782692426166
 20
31.99680687608912
 30
0.0
 10
-143.9451121509923
 20
36.68343766246164
 30
0.0
 10
-151.1651377753307
 20
41.44192299717685
 30
0.0
 10
-158.3307137122598
 20
46.28212050427764
 30
0.0
 10
-167.8025913531811
 20
52.85538123099713
 30
0.0
 10
-179.4750920214621
 20
61.310936612842
 30
0.0
 10
-193.159304227664
 20
71.88912303010495
 30
0.0
 10
-204.25130862957
 20
81.09487716797871
 30
0.0
 10
-212.9081736911961
 20
88.70991481062272
 30
0.0
 10
-219.2813077319556
 20
94.55471602324826
 30
0.0
 10
-225.524274941036
 20
100.5385829436126
 30
0.0
 10
-234.240067415954
 20
109.2916490301492
 30
0.0
 10
-242.3227420957155
 20
118.091602427023
 30
0.0
 10
-249.7522168619563
 20
126.9075827208335
 30
0.0
 10
-256.452046286012
 20
135.257544607451
 30
0.0
 10
-264.7560189600645
 20
146.5375544969045
 30
0.0
 10
-272.5315184313809
 20
158.6837549884116
 30
0.0
 10
-278.2120130989686
 20
168.7175751476001
 30
0.0
 10
-282.1789757780116
 20
176.4028314198171
 30
0.0
 10
-285.2239388453635
 20
182.9356610526096
 30
0.0
 10
-287.2102037056625
 20
187.5723149384187
 30
0.0
 10
-288.30292088905
 20
190.2395092661835
 30
0.0
 10
-289.3667519125245
 20
192.918348931377
 30
0.0
 10
-290.6445437902397
 20
196.2873022216464
 30
0.0
 10
-292.5834760565787
 20
201.7161891644431
 30
0.0
 10
-294.815674874202
 20
208.5690511746835
 30
0.0
 10
-297.2072528822887
 20
216.8799037198349
 30
0.0
 10
-299.3341131887686
 20
225.2622572242504
 30
0.0
 10
-301.2195698260586
 20
233.7019844762513
 30
0.0
 10
-302.8848532465884
 20
242.1877549037609
 30
0.0
 10
-304.3517160650379
 20
250.7099226971368
 30
0.0
 10
-305.6429576219135
 20
259.2603278599991
 30
0.0
 10
-306.7809516278587
 20
267.8323921542971
 30
0.0
 10
-307.7788206160208
 20
276.4218478153925
 30
0.0
 10
-308.6501769921445
 20
285.0250045093452
 30
0.0
 10
-309.4080929619123
 20
293.6388532143363
 30
0.0
 10
-310.0661357071415
 20
302.2608621010942
 30
0.0
 10
-310.6398987508593
 20
310.8888497887873
 30
0.0
 10
-311.1445511920325
 20
319.5211239312865
 30
0.0
 10
-311.5203821109708
 20
326.7171410238358
 30
0.0
 10
-311.8018109569218
 20
332.474905176769
 30
0.0
 10
-312.0052513935069
 20
336.7935972407876
 30
0.0
 10
-312.203159027405
 20
341.1125452230425
 30
0.0
 10
-312.3651957934796
 20
344.7117993609384
 30
0.0
 10
-312.4941322517664
 20
347.5912336572716
 30
0.0
 10
-312.6229524984706
 20
350.4706731786909
 30
0.0
 10
-312.7844087878362
 20
354.0699532428313
 30
0.0
 10
-312.9809211759711
 20
358.3889651121159
 30
0.0
 10
-313.249394468535
 20
364.1473476659016
 30
0.0
 10
-313.6022636188241
 20
371.3445170658058
 30
0.0
 10
-314.0700379489484
 20
379.9788488075654
 30
0.0
 10
-314.5103471967903
 20
387.1712589536191
 30
0.0
 10
-314.8528150272692
 20
392.2036879144777
 30
0.0
 10
-315.0328846495147
 20
394.7192832669679
 30
0.0
 10
-315.1393176811735
 20
396.1565079526657
 30
0.0
 10
-315.1931944793644
 20
396.875070766692
 30
0.0
 10
-315.2201328801563
 20
397.2343521963296
 30
0.0
  0
SPLINE
  5
87
330
1F
100
AcDbEntity
  8
0
  6
Continuous
 62
   144
370
    18
100
AcDbSpline
210
0.0
220
0.0
230
1.0
 70
     8
 71
     3
 72
    87
 73
    83
 74
     0
 42
0.00000001
 43
0.00000001
 40
0.0
 40
0.0
 40
0.0
 40
0.0
 40
0.0019532036476878
 40
0.0039064061132779
 40
0.0078128121466007
 40
0.0156256183294354
 40
0.0312512028706418
 40
0.046876804288216
 40
0.0546896148649127
 40
0.0585960207454424
 40
0.0625024266499036
 40
0.0669668903888073
 40
0.0714313542925456
 40
0.0781280501228542
 40
0.0859408619332678
 40
0.093753673757201
 40
0.1026826013332968
 40
0.1093792970485237
 40
0.1250049134172845
 40
0.1454138432177375
 40
0.1607205457897332
 40
0.1714352448259196
 40
0.1875072339150644
 40
0.2031327607415241
 40
0.2187582661472188
 40
0.2500081421885855
 40
0.2824647259090929
 40
0.3125050445393061
 40
0.3437511208125002
 40
0.359375945059594
 40
0.367188663111994
 40
0.3750013725603013
 40
0.3828140693619949
 40
0.3906267690868287
 40
0.4062513520166919
 40
0.4218760124589661
 40
0.4375007796732493
 40
0.4687459757829577
 40
0.4999923544950043
 40
0.5312395834417519
 40
0.5624874473978091
 40
0.5874869973849741
 40
0.606237238343796
 40
0.6249875461217975
 40
0.6562370892614354
 40
0.6874869452157063
 40
0.7187371021141962
 40
0.7343626225272353
 40
0.7499881559395682
 40
0.7812388956837679
 40
0.8124898651042822
 40
0.8271556484468379
 40
0.8437410892989181
 40
0.8515539008896237
 40
0.8554603068040243
 40
0.8593667127146531
 40
0.8671795244619168
 40
0.8749923357130689
 40
0.8906179338472455
 40
0.8989129774384059
 40
0.9062435391084117
 40
0.9231719368397725
 40
0.9374938645628483
 40
0.9453065103865173
 40
0.9531190343133579
 40
0.9593690634525611
 40
0.9642180871016728
 40
0.968744249329718
 40
0.9726506201952055
 40
0.9765569778014573
 40
0.980463339549729
 40
0.9843695680521622
 40
0.988276027980678
 40
0.990508205698845
 40
0.992183170376248
 40
0.9941390738745477
 40
0.9960925971925325
 40
0.9970682871603527
 40
0.9980445072258232
 40
0.999021855285562
 40
0.9995108734974281
 40
1.0
 40
1.0
 40
1.0
 40
1.0
 10
315.3415665067553
 20
397.0158214389328
 30
0.0
 10
315.3147007145473
 20
396.6565048480562
 30
0.0
 10
315.2609691463906
 20
395.9378718837648
 30
0.0
 10
315.154839541018
 20
394.5005063787222
 30
0.0
 10
314.9753515271004
 20
391.9846625230676
 30
0.0
 10
314.6339122515578
 20
386.951751163308
 30
0.0
 10
314.193982660014
 20
379.7587265719846
 30
0.0
 10
313.805976028963
 20
372.5627609532746
 30
0.0
 10
313.5524903543271
 20
367.5246637689239
 30
0.0
 10
313.4121574051565
 20
364.6455261352127
 30
0.0
 10
313.3037509179483
 20
362.3832566071123
 30
0.0
 10
313.1937416592026
 20
360.0179995545817
 30
0.0
 10
313.0617574781759
 20
357.1384673350265
 30
0.0
 10
312.902795373227
 20
353.6418328359969
 30
0.0
 10
312.7167935789634
 20
349.5280993045232
 30
0.0
 10
312.5134477700518
 20
345.0029360531473
 30
0.0
 10
312.3181099344983
 20
340.6835169124604
 30
0.0
 10
312.0520512842211
 20
334.9245502659977
 30
0.0
 10
311.6772809468355
 20
327.0505536600394
 30
0.0
 10
311.1710902895166
 20
317.592752148173
 30
0.0
 10
310.6491345205805
 20
309.0433024958969
 30
0.0
 10
310.1239186012853
 20
301.2958201859049
 30
0.0
 10
309.5306780549702
 20
293.4941289525775
 30
0.0
 10
308.7607557399225
 20
284.7979171064543
 30
0.0
 10
307.5935125222977
 20
273.3269706175626
 30
0.0
 10
305.7952463840604
 20
258.8003735826364
 30
0.0
 10
303.0310419607541
 20
241.7232234815128
 30
0.0
 10
299.4803051280431
 20
224.7914419998027
 30
0.0
 10
295.7763545940911
 20
211.0840432852657
 30
0.0
 10
292.6453654830196
 20
201.4921799653612
 30
0.0
 10
290.7021737008978
 20
196.064269984433
 30
0.0
 10
289.1654749661772
 20
192.0224685143049
 30
0.0
 10
287.5442893102945
 20
188.0137628697163
 30
0.0
 10
285.2695144353244
 20
182.7162802326694
 30
0.0
 10
282.219651340134
 20
176.1850675369455
 30
0.0
 10
278.2451034656359
 20
168.5029215805047
 30
0.0
 10
272.5562401743308
 20
158.4728115454109
 30
0.0
 10
264.7712903051511
 20
146.3310557648286
 30
0.0
 10
254.5051542455793
 20
132.4026354117561
 30
0.0
 10
243.4468879282561
 20
119.0956762869896
 30
0.0
 10
232.4758576660966
 20
107.2469292248893
 30
0.0
 10
222.6333094932141
 20
97.51928397430441
 30
0.0
 10
214.1814820128908
 20
89.67508742387786
 30
0.0
 10
204.6707476518928
 20
81.28300056694137
 30
0.0
 10
193.1288675490589
 20
71.71469906523686
 30
0.0
 10
179.4391118748346
 20
61.1413413763023
 30
0.0
 10
167.7607399871878
 20
52.69186600832106
 30
0.0
 10
158.2846063496828
 20
46.12309750288669
 30
0.0
 10
148.7271937633285
 20
39.67285209271697
 30
0.0
 10
136.6404756261315
 20
31.82010158682418
 30
0.0
 10
124.5751062039809
 20
24.2642201005404
 30
0.0
 10
114.7464656610905
 20
18.23568158131737
 30
0.0
 10
108.5879205039809
 20
14.49341034104316
 30
0.0
 10
104.1190346890299
 20
11.79276406033213
 30
0.0
 10
101.6516824601085
 20
10.30236182169124
 30
0.0
 10
99.18398623273404
 20
8.812529381677786
 30
0.0
 10
96.0997638526654
 20
6.949578812797286
 30
0.0
 10
91.16728364379347
 20
3.965107600582232
 30
0.0
 10
86.16941496071209
 20
0.9168385887330516
 30
0.0
 10
81.2663980296396
 20
-2.115846127694401
 30
0.0
 10
76.17770360827424
 20
-5.305011869814025
 30
0.0
 10
70.19601975595175
 20
-9.162735454705695
 30
0.0
 10
64.24120699409973
 20
-13.22344810422968
 30
0.0
 10
59.77746441159972
 20
-16.479456062883
 30
0.0
 10
56.58631191315314
 20
-18.95083744018027
 30
0.0
 10
53.90462562774348
 20
-21.18359273574125
 30
0.0
 10
51.75606350479163
 20
-23.10596344519464
 30
0.0
 10
49.99040951836889
 20
-24.80560200834286
 30
0.0
 10
48.41604396295152
 20
-26.45046995954081
 30
0.0
 10
46.99411754218742
 20
-28.08012651853978
 30
0.0
 10
45.66403087386264
 20
-29.78613569926444
 30
0.0
 10
44.45312247317891
 20
-31.57939922787277
 30
0.0
 10
43.54768573821368
 20
-33.19970820975586
 30
0.0
 10
42.95162193506848
 20
-34.51317450646485
 30
0.0
 10
42.56135264416216
 20
-35.52232613485793
 30
0.0
 10
42.24025831769164
 20
-36.50182537349984
 30
0.0
 10
42.02096822151784
 20
-37.37715394776851
 30
0.0
 10
41.89581716935376
 20
-38.08689133220612
 30
0.0
 10
41.82262203499837
 20
-38.62238181033757
 30
0.0
 10
41.772760974535
 20
-39.07023716579894
 30
0.0
 10
41.73624514220407
 20
-39.42912598407838
 30
0.0
 10
41.71854200824862
 20
-39.60870003568233
 30
0.0
 10
41.70968946131116
 20
-39.69849700183389
 30
0.0
  0
SPLINE
  5
8A
330
1F
100
AcDbEntity
  8
0
  6
Continuous
 62
   144
370
    18
100
AcDbSpline
210
0.0
220
0.0
230
1.0
 70
     8
 71
     3
 72
   105
 73
   101
 74
     0
 42
0.00000001
 43
0.00000001
 40
0.0
 40
0.0
 40
0.0
 40
0.0
 40
0.0004892108141104
 40
0.0009782993664603
 40
0.0019557057761249
 40
0.0029318491888383
 40
0.0039073991730217
 40
0.0058608999911121
 40
0.007817058868626
 40
0.009380456249791
 40
0.0117241259560398
 40
0.0156304743888601
 40
0.0229268715674163
 40
0.0312483120764297
 40
0.0386489380719375
 40
0.0468717124452474
 40
0.0543831804716979
 40
0.0624962570193383
 40
0.0710687222600674
 40
0.0803531937195148
 40
0.0937458470187101
 40
0.1015583777144805
 40
0.1093709175300214
 40
0.1171834641149324
 40
0.1249960152934495
 40
0.1339246464524939
 40
0.1406211268607764
 40
0.1562462007359252
 40
0.1718712962621892
 40
0.1796838595075199
 40
0.1874964232864941
 40
0.1964250666391448
 40
0.2031215506228383
 40
0.2187466727046471
 40
0.2499968967180098
 40
0.2640320334598802
 40
0.2812471573783555
 40
0.2968722883421788
 40
0.312497419385568
 40
0.316579086287366
 40
0.3227015865965419
 40
0.3265281495159318
 40
0.3284414307852079
 40
0.329398071494458
 40
0.3303547122052041
 40
0.3325868734312825
 40
0.3348190352918281
 40
0.3370511969523
 40
0.3392833585612819
 40
0.3437476817347263
 40
0.3482120049038335
 40
0.354334505222551
 40
0.3566304428038328
 40
0.3589263807683398
 40
0.3612223183380547
 40
0.3623702871504786
 40
0.3635182560371078
 40
0.3663881773749459
 40
0.3678231388145169
 40
0.369258099962507
 40
0.3721280220490311
 40
0.3749979440834194
 40
0.3789042268610132
 40
0.3828105096363857
 40
0.390623075143716
 40
0.4062482056433612
 40
0.4374984583949975
 40
0.4687487106850421
 40
0.4843738411465154
 40
0.4921864066318756
 40
0.4960926893940116
 40
0.499998972174036
 40
0.5039052549483177
 40
0.5078115377144804
 40
0.5156241032726933
 40
0.5312492343594916
 40
0.5351555171182965
 40
0.5390617998136568
 40
0.5468743653774787
 40
0.5624994962801921
 40
0.5781246273837697
 40
0.5937497584835215
 40
0.6093748893803892
 40
0.6250000189287114
 40
0.6406251438663719
 40
0.6562502652012477
 40
0.6718753818799174
 40
0.687500491732515
 40
0.718750549204554
 40
0.750000574420022
 40
0.781250588242524
 40
0.8125006073736911
 40
0.8437506387871453
 40
0.8750006866188681
 40
0.9374996692326932
 40
0.9687497606972661
 40
0.9843748722870218
 40
0.9921874358344979
 40
0.9960937186387262
 40
1.0
 40
1.0
 40
1.0
 40
1.0
 10
42.1007703056987
 20
-39.91402733125929
 30
0.0
 10
42.10858845870207
 20
-39.82413718122861
 30
0.0
 10
42.12422281082488
 20
-39.64437934618172
 30
0.0
 10
42.15666726272421
 20
-39.28513374041474
 30
0.0
 10
42.20168863687005
 20
-38.83684556659074
 30
0.0
 10
42.26986596403444
 20
-38.300822272525
 30
0.0
 10
42.3899678264526
 20
-37.59037810289548
 30
0.0
 10
42.6066663162095
 20
-36.7144325063048
 30
0.0
 10
42.92240027497884
 20
-35.7549364646411
 30
0.0
 10
43.31498066016098
 20
-34.74691572320915
 30
0.0
 10
43.91828467613158
 20
-33.43682422687682
 30
0.0
 10
45.16397533142735
 20
-31.26603369818558
 30
0.0
 10
47.33991171900645
 20
-28.38161344209283
 30
0.0
 10
50.28085392345442
 20
-25.31005196715412
 30
0.0
 10
53.58282867851776
 20
-22.37311727285801
 30
0.0
 10
56.93076302693981
 20
-19.72446646315797
 30
0.0
 10
60.49477301835672
 20
-17.14547828283347
 30
0.0
 10
64.19717727731646
 20
-14.65227245081414
 30
0.0
 10
68.24554544813824
 20
-12.09128251729792
 30
0.0
 10
73.18861359955338
 20
-9.126377199797489
 30
0.0
 10
78.0795664642752
 20
-6.349822371232536
 30
0.0
 10
82.77798120845866
 20
-3.786709946454983
 30
0.0
 10
86.59535887849319
 20
-1.758170752189259
 30
0.0
 10
90.4313020969145
 20
0.2349794724567505
 30
0.0
 10
94.46671686445329
 20
2.290349554697493
 30
0.0
 10
98.33281539997367
 20
4.224339574342998
 30
0.0
 10
103.5021689231802
 20
6.773596414481761
 30
0.0
 10
109.8025138050285
 20
9.821719967628525
 30
0.0
 10
116.3154412467124
 20
12.90233143250372
 30
0.0
 10
121.5376166606165
 20
15.34154573830132
 30
0.0
 10
125.646019640193
 20
17.24677322822583
 30
0.0
 10
129.5730093618194
 20
19.05386033799374
 30
0.0
 10
134.8150976469992
 20
21.44998792329235
 30
0.0
 10
143.8141538030393
 20
25.52995217341496
 30
0.0
 10
154.069248269568
 20
30.11720792111676
 30
0.0
 10
164.6061259813414
 20
34.7924215066621
 30
0.0
 10
172.5123012413286
 20
38.29091554442417
 30
0.0
 10
180.6889162957818
 20
41.90294777296936
 30
0.0
 10
186.6508226213006
 20
44.53380859854776
 30
0.0
 10
191.0095265889921
 20
46.45647757968523
 30
0.0
 10
193.3769947262297
 20
47.50139578341704
 30
0.0
 10
195.3788212664912
 20
48.38428276796257
 30
0.0
 10
196.5087349372099
 20
48.88302638422236
 30
0.0
 10
197.1541715704934
 20
49.1685392867852
 30
0.0
 10
197.8533666829767
 20
49.47790784337018
 30
0.0
 10
198.7680435628995
 20
49.88168721064178
 30
0.0
 10
199.8983293611621
 20
50.37958657552004
 30
0.0
 10
201.0283526504062
 20
50.87808180200896
 30
0.0
 10
202.5346962199448
 20
51.54354393486953
 30
0.0
 10
204.4178338580263
 20
52.37490013156791
 30
0.0
 10
206.9571489473276
 20
53.49656532946166
 30
0.0
 10
209.1306356171744
 20
54.4566230737847
 30
0.0
 10
210.9380762455258
 20
55.25556621050625
 30
0.0
 10
212.1001979177643
 20
55.76872967708725
 30
0.0
 10
213.0685656968862
 20
56.19651824015386
 30
0.0
 10
213.8428232880451
 20
56.53973537615849
 30
0.0
 10
214.7137346530272
 20
56.92614391173493
 30
0.0
 10
215.6337194894674
 20
57.33246355096718
 30
0.0
 10
216.6023461517331
 20
57.75966460219436
 30
0.0
 10
217.5707566257952
 20
58.18735633995605
 30
0.0
 10
218.7807472898526
 20
58.72315205703786
 30
0.0
 10
220.4077448098064
 20
59.44297428076555
 30
0.0
 10
222.2092976932537
 20
60.24068875016923
 30
0.0
 10
224.8442274075515
 20
61.40789557216144
 30
0.0
 10
229.4546941152288
 20
63.45199784607762
 30
0.0
 10
238.6728526176175
 20
67.54645098574423
 30
0.0
 10
251.8322053662775
 20
73.41693651513641
 30
0.0
 10
264.9722486581813
 20
79.33052007500206
 30
0.0
 10
274.1630905103585
 20
83.48592830706119
 30
0.0
 10
278.7570977009011
 20
85.56675910548354
 30
0.0
 10
281.3816234502139
 20
86.75717526200475
 30
0.0
 10
283.3499450669845
 20
87.65014837305827
 30
0.0
 10
285.3172036695053
 20
88.54546112486415
 30
0.0
 10
287.9397696761936
 20
89.7401885305758
 30
0.0
 10
292.529703701455
 20
91.8299881380243
 30
0.0
 10
297.1190545726276
 20
93.92106799073775
 30
0.0
 10
301.0532303499714
 20
95.712441864767
 30
0.0
 10
303.6757674528248
 20
96.90723292530289
 30
0.0
 10
308.2644504848761
 20
98.99977793404962
 30
0.0
 10
314.8186092519911
 20
101.9915452543093
 30
0.0
 10
322.6820903663478
 20
105.5849702033873
 30
0.0
 10
330.5456908989954
 20
109.1781339459201
 30
0.0
 10
338.4103002083537
 20
112.7690879041411
 30
0.0
 10
346.2778870158986
 20
116.3535198049652
 30
0.0
 10
354.1545652427787
 20
119.9179518957462
 30
0.0
 10
362.0441713557796
 20
123.4536891339337
 30
0.0
 10
369.9491251559978
 20
126.9550065799639
 30
0.0
 10
380.5139610052248
 20
131.5667367701942
 30
0.0
 10
393.7733968108818
 20
137.2083324776599
 30
0.0
 10
409.7715957789363
 20
143.7703058981698
 30
0.0
 10
425.8604354324298
 20
150.1069203167831
 30
0.0
 10
442.0354780086709
 20
156.220025969455
 30
0.0
 10
458.2923628317261
 20
162.1120875378772
 30
0.0
 10
480.069513491716
 20
169.6815601376611
 30
0.0
 10
501.988486326504
 20
176.8371691404711
 30
0.0
 10
521.2727898017512
 20
182.7593236583837
 30
0.0
 10
530.9397553617425
 20
185.6384390541515
 30
0.0
 10
535.7792855259631
 20
187.0574929808913
 30
0.0
 10
538.5463225279616
 20
187.8629349667746
 30
0.0
 10
539.9305516912001
 20
188.2632051206997
 30
0.0
 10
540.6226661449883
 20
188.463340160698
 30
0.0
  0
SPLINE
  5
8E
330
1F
100
AcDbEntity
  8
0
  6
Continuous
 62
   144
370
    18
100
AcDbSpline
210
0.0
220
0.0
230
1.0
 70
     8
 71
     3
 72
    78
 73
    74
 74
     0
 42
0.00000001
 43
0.00000001
 40
0.0
 40
0.0
 40
0.0
 40
0.0
 40
0.0039062344448807
 40
0.0078124688404275
 40
0.0156249369739416
 40
0.03124986586378
 40
0.0624996446884446
 40
0.0937493902032176
 40
0.1249990990467924
 40
0.1874970744278097
 40
0.2187466902193591
 40
0.2499962977413824
 40
0.2656212047285982
 40
0.281246114561261
 40
0.2968710279341084
 40
0.3124959453954794
 40
0.3437457105150177
 40
0.3749955141284358
 40
0.3928525739206157
 40
0.4062453729885036
 40
0.4374951848212215
 40
0.4687450026911131
 40
0.4999948340200874
 40
0.5312446785209997
 40
0.5624945338153101
 40
0.5937443855450957
 40
0.609369318047948
 40
0.6249942484712456
 40
0.6562440450328016
 40
0.6874938176704669
 40
0.7187435628630402
 40
0.7499932772361094
 40
0.7812429581921613
 40
0.7968678640140746
 40
0.8124927626884094
 40
0.8281176500505377
 40
0.8437425072633744
 40
0.8515549657571849
 40
0.8593674221971691
 40
0.8749922023393183
 40
0.8828046472846771
 40
0.8906170853728334
 40
0.9062415795694406
 40
0.914053983838465
 40
0.921866354389657
 40
0.9296786902452427
 40
0.9374909675872654
 40
0.9413972083521555
 40
0.9453034495814159
 40
0.9531154918289657
 40
0.9570217444922635
 40
0.9609280054153525
 40
0.9648342560000889
 40
0.9667874842292903
 40
0.9687407460449271
 40
0.9726470192369291
 40
0.9765533770034897
 40
0.9804596296099273
 40
0.9824131601676755
 40
0.9843671407249776
 40
0.9863210399763191
 40
0.9882742257320963
 40
0.9902277289182597
 40
0.991205234994147
 40
0.9921834332818943
 40
0.9941393767608699
 40
0.9951161451769772
 40
0.9960919001863371
 40
0.9970674953541543
 40
0.9980440012143834
 40
0.9990216391867801
 40
0.9995107716532886
 40
1.0
 40
1.0
 40
1.0
 40
1.0
 10
497.6174408975866
 20
-188.396779578159
 30
0.0
 10
496.9896103562859
 20
-188.3166619913455
 30
0.0
 10
495.7339492816133
 20
-188.1564268187303
 30
0.0
 10
493.2229597690523
 20
-187.8333595182793
 30
0.0
 10
488.8294457477127
 20
-187.2624398578585
 30
0.0
 10
480.0455801221793
 20
-186.0965318043812
 30
0.0
 10
467.5072710754058
 20
-184.3558825558179
 30
0.0
 10
452.481503446744
 20
-182.1258632264036
 30
0.0
 10
432.4806407312979
 20
-178.9373463981063
 30
0.0
 10
412.5383947713211
 20
-175.3863193749671
 30
0.0
 10
392.6777314524199
 20
-171.415684521571
 30
0.0
 10
380.3016634219815
 20
-168.7549682777043
 30
0.0
 10
370.4248264318697
 20
-166.5190288612227
 30
0.0
 10
363.029064425993
 20
-164.7903309260018
 30
0.0
 10
355.6448478820357
 20
-163.0130015571869
 30
0.0
 10
345.8139328043145
 20
-160.5830405750606
 30
0.0
 10
333.5499752610332
 20
-157.4468580013593
 30
0.0
 10
320.9618514087026
 20
-154.1205494681608
 30
0.0
 10
311.185525469219
 20
-151.4795765454544
 30
0.0
 10
301.4187956400569
 20
-148.803387508775
 30
0.0
 10
289.5755152145647
 20
-145.4943812792297
 30
0.0
 10
274.9752062452399
 20
-141.3023175107969
 30
0.0
 10
260.4012258195873
 20
-137.0196913442493
 30
0.0
 10
245.851085979086
 20
-132.6568073553281
 30
0.0
 10
231.3203326547671
 20
-128.2298921811081
 30
0.0
 10
219.2240545334404
 20
-124.4993585218045
 30
0.0
 10
209.5588934736283
 20
-121.4767949837913
 30
0.0
 10
199.9035001968188
 20
-118.4232046467621
 30
0.0
 10
187.8554154785444
 20
-114.5395959011565
 30
0.0
 10
173.4373107711373
 20
-109.7581242686416
 30
0.0
 10
159.0652117366857
 20
-104.839910078928
 30
0.0
 10
144.7468783186125
 20
-99.76727827973006
 30
0.0
 10
132.8636477318722
 20
-95.40467967439052
 30
0.0
 10
123.3932681376675
 20
-91.81807651467213
 30
0.0
 10
116.3114495569717
 20
-89.07331275306181
 30
0.0
 10
109.2522986452828
 20
-86.27074431296633
 30
0.0
 10
103.393903404314
 20
-83.87494229880397
 30
0.0
 10
98.7257543630402
 20
-81.91372194534169
 30
0.0
 10
94.07171075671096
 20
-79.91933736260852
 30
0.0
 10
89.43865794418359
 20
-77.87607363623718
 30
0.0
 10
84.83487375637957
 20
-75.76811526537149
 30
0.0
 10
80.25430750182841
 20
-73.61033504145028
 30
0.0
 10
75.71340020351138
 20
-71.36880083180765
 30
0.0
 10
71.22410524703457
 20
-69.02679741361759
 30
0.0
 10
67.89034207466747
 20
-67.20772255789072
 30
0.0
 10
64.59819875836517
 20
-65.3142875824279
 30
0.0
 10
61.89600107905189
 20
-63.66640529646919
 30
0.0
 10
59.76618033948036
 20
-62.29753910871496
 30
0.0
 10
57.66059980753229
 20
-60.8918630717444
 30
0.0
 10
55.59317191311061
 20
-59.42912339837186
 30
0.0
 10
53.58276201459047
 20
-57.89002404246632
 30
0.0
 10
52.108997072332
 20
-56.69232365381613
 30
0.0
 10
50.91391872726121
 20
-55.65471496649696
 30
0.0
 10
49.9808066771734
 20
-54.79917527679161
 30
0.0
 10
49.06422105725385
 20
-53.92596180330443
 30
0.0
 10
47.9542143810938
 20
-52.79732773784697
 30
0.0
 10
46.69615864616666
 20
-51.37375937069193
 30
0.0
 10
45.72506128491568
 20
-50.12257076615732
 30
0.0
 10
45.00638294723543
 20
-49.07992000055176
 30
0.0
 10
44.49949161925927
 20
-48.27644399031833
 30
0.0
 10
44.02920325052668
 20
-47.45098594213595
 30
0.0
 10
43.60183030097447
 20
-46.60251245338586
 30
0.0
 10
43.28466160663631
 20
-45.87701141962709
 30
0.0
 10
43.05449191567492
 20
-45.28683425014724
 30
0.0
 10
42.83990498449162
 20
-44.69042275517899
 30
0.0
 10
42.65116726538236
 20
-44.08492802772584
 30
0.0
 10
42.49658060972316
 20
-43.47065057831809
 30
0.0
 10
42.40020763224663
 20
-43.00594162876497
 30
0.0
 10
42.32380078312139
 20
-42.53762539977819
 30
0.0
 10
42.26183197370792
 20
-42.06693726694928
 30
0.0
 10
42.21832516653916
 20
-41.67343862284693
 30
0.0
 10
42.18593004261788
 20
-41.35817118671491
 30
0.0
 10
42.17013425690405
 20
-41.20043755156798
 30
0.0
 10
42.16223559004683
 20
-41.12156300497841
 30
0.0
  0
LINE
  5
8F
330
1F
100
AcDbEntity
  8
0
  6
Continuous
 62
   144
370
    18
100
AcDbLine
 10
42.1622355402
 20
-41.1215625069
 30
0.0
 11
41.9308774488
 21
-41.1336364776
 31
0.0
  0
LINE
  5
90
330
1F
100
AcDbEntity
  8
0
  6
Continuous
 62
   144
370
    18
100
AcDbLine
 10
41.9303600242
 20
-41.1336634807
 30
0.0
 11
41.7024168177
 21
-41.1453386818
 31
0.0
  0
LINE
  5
91
330
1F
100
AcDbEntity
  8
0
  6
Continuous
 62
   144
370
    18
100
AcDbLine
 10
-41.719642345
 20
-41.3284720842
 30
0.0
 11
-41.9493975225
 21
-41.0833891097
 31
0.0
  0
LINE
  5
92
330
1F
100
AcDbEntity
  8
0
  6
Continuous
 62
   144
370
    18
100
AcDbLine
 10
-41.9493978644
 20
-41.083388745
 30
0.0
 11
-42.1791366912
 21
-41.2984899556
 31
0.0
  0
LINE
  5
93
330
1F
100
AcDbEntity
  8
0
  6
Continuous
 62
   144
370
    18
100
AcDbLine
 10
-497.6230995546
 20
-188.3848932527
 30
0.0
 11
-540.8189777247
 21
-188.3844132602
 31
0.0
  0
LINE
  5
94
330
1F
100
AcDbEntity
  8
0
  6
Continuous
 62
   144
370
    18
100
AcDbLine
 10
-540.8189777247
 20
-188.3844132602
 30
0.0
 11
-540.8147220949
 21
188.3865997252
 31
0.0
  0
LINE
  5
95
330
1F
100
AcDbEntity
  8
0
  6
Continuous
 62
   144
370
    18
100
AcDbLine
 10
-42.1791196211
 20
-39.5918816725
 30
0.0
 11
-41.9488372989
 21
-39.5767385842
 31
0.0
  0
LINE
  5
96
330
1F
100
AcDbEntity
  8
0
  6
Continuous
 62
   144
370
    18
100
AcDbLine
 10
-41.9484282974
 20
-39.5767116888
 30
0.0
 11
-41.7196418362
 21
-39.5619472373
 31
0.0
  0
LINE
  5
97
330
1F
100
AcDbEntity
  8
0
  6
Continuous
 62
   144
370
    18
100
AcDbLine
 10
-315.2201329176
 20
397.2343526963
 30
0.0
 11
0.0000252274
 21
397.2342180025
 31
0.0
  0
LINE
  5
98
330
1F
100
AcDbEntity
  8
0
  6
Continuous
 62
   144
370
    18
100
AcDbLine
 10
0.0000252274
 20
397.2342180025
 30
0.0
 11
315.2208592007
 21
397.2183466611
 31
0.0
  0
LINE
  5
99
330
1F
100
AcDbEntity
  8
0
  6
Continuous
 62
   144
370
    18
100
AcDbLine
 10
315.2208597828
 20
397.2183466611
 30
0.0
 11
315.3415665068
 21
397.0158214389
 31
0.0
  0
LINE
  5
9A
330
1F
100
AcDbEntity
  8
0
  6
Continuous
 62
   144
370
    18
100
AcDbLine
 10
41.7096894116
 20
-39.6984975059
 30
0.0
 11
41.9313837351
 21
-39.7570630426
 31
0.0
  0
LINE
  5
9B
330
1F
100
AcDbEntity
  8
0
  6
Continuous
 62
   144
370
    18
100
AcDbLine
 10
41.9313837351
 20
-39.7570630426
 30
0.0
 11
42.1007698412
 21
-39.9140269009
 31
0.0
  0
LINE
  5
9C
330
1F
100
AcDbEntity
  8
0
  6
Continuous
 62
   144
370
    18
100
AcDbLine
 10
540.6226668715
 20
188.4633403708
 30
0.0
 11
540.8036196103
 21
188.377969975
 31
0.0
  0
LINE
  5
9D
330
1F
100
AcDbEntity
  8
0
  6
Continuous
 62
   144
370
    18
100
AcDbLine
 10
540.8036201103
 20
188.3779697391
 30
0.0
 11
540.7980619391
 21
-188.3974245528
 31
0.0
  0
LINE
  5
9E
330
1F
100
AcDbEntity
  8
0
  6
Continuous
 62
   144
370
    18
100
AcDbLine
 10
540.7980619391
 20
-188.3974250528
 30
0.0
 11
497.6174408976
 21
-188.3967795782
 31
0.0
  0
ENDSEC
  0
SECTION
  2
OBJECTS
  0
DICTIONARY
  5
C
330
0
100
AcDbDictionary
281
     1
  3
ACAD_GROUP
350
D
  3
ACAD_LAYOUT
350
1A
  3
ACAD_MLINESTYLE
350
17
  3
ACAD_PLOTSETTINGS
350
19
  3
ACAD_PLOTSTYLENAME
350
E
  3
ACAD_SCALELIST
350
47
  3
DWGPROPS
350
9F
  0
DICTIONARY
  5
D
102
{ACAD_REACTORS
330
C
102
}
330
C
100
AcDbDictionary
281
     1
  0
DICTIONARY
  5
1A
102
{ACAD_REACTORS
330
C
102
}
330
C
100
AcDbDictionary
281
     1
  3
Layout1
350
1E
  3
Layout2
350
26
  3
Model
350
22
  0
DICTIONARY
  5
17
102
{ACAD_REACTORS
330
C
102
}
330
C
100
AcDbDictionary
281
     1
  3
Standard
350
18
  0
DICTIONARY
  5
19
102
{ACAD_REACTORS
330
C
102
}
330
C
100
AcDbDictionary
281
     1
  0
ACDBDICTIONARYWDFLT
  5
E
102
{ACAD_REACTORS
330
C
102
}
330
C
100
AcDbDictionary
281
     1
  3
Normal
350
F
100
AcDbDictionaryWithDefault
340
F
  0
DICTIONARY
  5
47
102
{ACAD_REACTORS
330
C
102
}
330
C
100
AcDbDictionary
281
     1
  3
A0
350
48
  3
A1
350
49
  3
A2
350
4A
  3
A3
350
4B
  3
A4
350
4C
  3
A5
350
4D
  3
A6
350
4E
  3
A7
350
4F
  3
A8
350
50
  3
A9
350
51
  3
B0
350
52
  3
B1
350
53
  3
B2
350
54
  3
B3
350
55
  3
B4
350
56
  3
B5
350
57
  3
B6
350
58
  3
B7
350
59
  3
B8
350
5A
  3
B9
350
5B
  3
C0
350
5C
  3
C1
350
5D
  3
C2
350
5E
  3
C3
350
5F
  3
C4
350
60
  3
C5
350
61
  3
C6
350
62
  3
C7
350
63
  3
C8
350
64
  3
C9
350
65
  3
D0
350
66
  3
D1
350
67
  3
D2
350
68
  0
XRECORD
  5
9F
102
{ACAD_REACTORS
330
C
102
}
330
C
100
AcDbXrecord
280
     1
  1
DWGPROPS COOKIE
  2

  3

  4

  6

  7

  8
rfranca
  9

300
=
301
=
302
=
303
=
304
=
305
=
306
=
307
=
308
=
309
=
 40
0.0
 41
2460482.165856331
 42
2460482.165885312
  1

 90
        0
  0
LAYOUT
  5
1E
102
{ACAD_REACTORS
330
1A
102
}
330
1A
100
AcDbPlotSettings
  1

  2
none_device
  4

  6

 40
0.0
 41
0.0
 42
0.0
 43
0.0
 44
0.0
 45
0.0
 46
0.0
 47
0.0
 48
0.0
 49
0.0
140
0.0
141
0.0
142
1.0
143
1.0
 70
   688
 72
     1
 73
     0
 74
     5
  7

 75
    16
147
1.0
148
0.0
149
0.0
100
AcDbLayout
  1
Layout1
 70
     1
 71
     1
 10
0.0
 20
0.0
 11
420.0
 21
297.0
 12
0.0
 22
0.0
 32
0.0
 14
1.0000000000E+20
 24
1.0000000000E+20
 34
1.0000000000E+20
 15
-1.0000000000E+20
 25
-1.0000000000E+20
 35
-1.0000000000E+20
146
0.0
 13
0.0
 23
0.0
 33
0.0
 16
1.0
 26
0.0
 36
0.0
 17
0.0
 27
1.0
 37
0.0
 76
     0
330
1B
  0
LAYOUT
  5
26
102
{ACAD_REACTORS
330
1A
102
}
330
1A
100
AcDbPlotSettings
  1

  2
none_device
  4

  6

 40
0.0
 41
0.0
 42
0.0
 43
0.0
 44
0.0
 45
0.0
 46
0.0
 47
0.0
 48
0.0
 49
0.0
140
0.0
141
0.0
142
1.0
143
1.0
 70
   688
 72
     1
 73
     0
 74
     5
  7

 75
    16
147
1.0
148
0.0
149
0.0
100
AcDbLayout
  1
Layout2
 70
     1
 71
     2
 10
0.0
 20
0.0
 11
0.0
 21
0.0
 12
0.0
 22
0.0
 32
0.0
 14
0.0
 24
0.0
 34
0.0
 15
0.0
 25
0.0
 35
0.0
146
0.0
 13
0.0
 23
0.0
 33
0.0
 16
1.0
 26
0.0
 36
0.0
 17
0.0
 27
1.0
 37
0.0
 76
     0
330
23
  0
LAYOUT
  5
22
102
{ACAD_REACTORS
330
1A
102
}
330
1A
100
AcDbPlotSettings
  1

  2
none_device
  4
ANSI_A_(11.00_x_8.50_Inches)
  6

 40
6.35
 41
19.05
 42
6.35000508
 43
19.05000254
 44
279.4
 45
215.9
 46
133.351941689
 47
95.1930902337
 48
0.0
 49
0.0
140
0.0
141
0.0
142
0.009968273
143
1.0
 70
  1696
 72
     0
 73
     0
 74
     0
  7

 75
     0
147
0.0179189148
148
-1300.4909072572
149
0.0
100
AcDbLayout
  1
Model
 70
     1
 71
     0
 10
0.0
 20
0.0
 11
420.0
 21
297.0
 12
0.0
 22
0.0
 32
0.0
 14
-540.8189777247
 24
-446.9439677542
 34
0.0
 15
540.8036201103
 25
397.2343526963
 35
0.0
146
0.0
 13
0.0
 23
0.0
 33
0.0
 16
1.0
 26
0.0
 36
0.0
 17
0.0
 27
1.0
 37
0.0
 76
     0
330
1F
331
29
  0
MLINESTYLE
  5
18
102
{ACAD_REACTORS
330
17
102
}
330
17
100
AcDbMlineStyle
  2
Standard
 70
     0
  3

 62
   256
 51
90.0
 52
90.0
 71
     2
 49
0.5
 62
   256
  6
BYLAYER
 49
-0.5
 62
   256
  6
BYLAYER
  0
ACDBPLACEHOLDER
  5
F
102
{ACAD_REACTORS
330
E
102
}
330
E
  0
SCALE
  5
48
102
{ACAD_REACTORS
330
47
102
}
330
47
100
AcDbScale
 70
     0
300
1:1
140
1.0
141
1.0
290
     1
  0
SCALE
  5
49
102
{ACAD_REACTORS
330
47
102
}
330
47
100
AcDbScale
 70
     0
300
1:2
140
1.0
141
2.0
290
     0
  0
SCALE
  5
4A
102
{ACAD_REACTORS
330
47
102
}
330
47
100
AcDbScale
 70
     0
300
1:4
140
1.0
141
4.0
290
     0
  0
SCALE
  5
4B
102
{ACAD_REACTORS
330
47
102
}
330
47
100
AcDbScale
 70
     0
300
1:5
140
1.0
141
5.0
290
     0
  0
SCALE
  5
4C
102
{ACAD_REACTORS
330
47
102
}
330
47
100
AcDbScale
 70
     0
300
1:8
140
1.0
141
8.0
290
     0
  0
SCALE
  5
4D
102
{ACAD_REACTORS
330
47
102
}
330
47
100
AcDbScale
 70
     0
300
1:10
140
1.0
141
10.0
290
     0
  0
SCALE
  5
4E
102
{ACAD_REACTORS
330
47
102
}
330
47
100
AcDbScale
 70
     0
300
1:16
140
1.0
141
16.0
290
     0
  0
SCALE
  5
4F
102
{ACAD_REACTORS
330
47
102
}
330
47
100
AcDbScale
 70
     0
300
1:20
140
1.0
141
20.0
290
     0
  0
SCALE
  5
50
102
{ACAD_REACTORS
330
47
102
}
330
47
100
AcDbScale
 70
     0
300
1:30
140
1.0
141
30.0
290
     0
  0
SCALE
  5
51
102
{ACAD_REACTORS
330
47
102
}
330
47
100
AcDbScale
 70
     0
300
1:40
140
1.0
141
40.0
290
     0
  0
SCALE
  5
52
102
{ACAD_REACTORS
330
47
102
}
330
47
100
AcDbScale
 70
     0
300
1:50
140
1.0
141
50.0
290
     0
  0
SCALE
  5
53
102
{ACAD_REACTORS
330
47
102
}
330
47
100
AcDbScale
 70
     0
300
1:100
140
1.0
141
100.0
290
     0
  0
SCALE
  5
54
102
{ACAD_REACTORS
330
47
102
}
330
47
100
AcDbScale
 70
     0
300
2:1
140
2.0
141
1.0
290
     0
  0
SCALE
  5
55
102
{ACAD_REACTORS
330
47
102
}
330
47
100
AcDbScale
 70
     0
300
4:1
140
4.0
141
1.0
290
     0
  0
SCALE
  5
56
102
{ACAD_REACTORS
330
47
102
}
330
47
100
AcDbScale
 70
     0
300
8:1
140
8.0
141
1.0
290
     0
  0
SCALE
  5
57
102
{ACAD_REACTORS
330
47
102
}
330
47
100
AcDbScale
 70
     0
300
10:1
140
10.0
141
1.0
290
     0
  0
SCALE
  5
58
102
{ACAD_REACTORS
330
47
102
}
330
47
100
AcDbScale
 70
     0
300
100:1
140
100.0
141
1.0
290
     0
  0
SCALE
  5
59
102
{ACAD_REACTORS
330
47
102
}
330
47
100
AcDbScale
 70
     0
300
1/128" = 1'-0"
140
0.0078125
141
12.0
290
     0
  0
SCALE
  5
5A
102
{ACAD_REACTORS
330
47
102
}
330
47
100
AcDbScale
 70
     0
300
1/64" = 1'-0"
140
0.015625
141
12.0
290
     0
  0
SCALE
  5
5B
102
{ACAD_REACTORS
330
47
102
}
330
47
100
AcDbScale
 70
     0
300
1/32" = 1'-0"
140
0.03125
141
12.0
290
     0
  0
SCALE
  5
5C
102
{ACAD_REACTORS
330
47
102
}
330
47
100
AcDbScale
 70
     0
300
1/16" = 1'-0"
140
0.0625
141
12.0
290
     0
  0
SCALE
  5
5D
102
{ACAD_REACTORS
330
47
102
}
330
47
100
AcDbScale
 70
     0
300
3/32" = 1'-0"
140
0.09375
141
12.0
290
     0
  0
SCALE
  5
5E
102
{ACAD_REACTORS
330
47
102
}
330
47
100
AcDbScale
 70
     0
300
1/8" = 1'-0"
140
0.125
141
12.0
290
     0
  0
SCALE
  5
5F
102
{ACAD_REACTORS
330
47
102
}
330
47
100
AcDbScale
 70
     0
300
3/16" = 1'-0"
140
0.1875
141
12.0
290
     0
  0
SCALE
  5
60
102
{ACAD_REACTORS
330
47
102
}
330
47
100
AcDbScale
 70
     0
300
1/4" = 1'-0"
140
0.25
141
12.0
290
     0
  0
SCALE
  5
61
102
{ACAD_REACTORS
330
47
102
}
330
47
100
AcDbScale
 70
     0
300
3/8" = 1'-0"
140
0.375
141
12.0
290
     0
  0
SCALE
  5
62
102
{ACAD_REACTORS
330
47
102
}
330
47
100
AcDbScale
 70
     0
300
1/2" = 1'-0"
140
0.5
141
12.0
290
     0
  0
SCALE
  5
63
102
{ACAD_REACTORS
330
47
102
}
330
47
100
AcDbScale
 70
     0
300
3/4" = 1'-0"
140
0.75
141
12.0
290
     0
  0
SCALE
  5
64
102
{ACAD_REACTORS
330
47
102
}
330
47
100
AcDbScale
 70
     0
300
1" = 1'-0"
140
1.0
141
12.0
290
     0
  0
SCALE
  5
65
102
{ACAD_REACTORS
330
47
102
}
330
47
100
AcDbScale
 70
     0
300
1-1/2" = 1'-0"
140
1.5
141
12.0
290
     0
  0
SCALE
  5
66
102
{ACAD_REACTORS
330
47
102
}
330
47
100
AcDbScale
 70
     0
300
3" = 1'-0"
140
3.0
141
12.0
290
     0
  0
SCALE
  5
67
102
{ACAD_REACTORS
330
47
102
}
330
47
100
AcDbScale
 70
     0
300
6" = 1'-0"
140
6.0
141
12.0
290
     0
  0
SCALE
  5
68
102
{ACAD_REACTORS
330
47
102
}
330
47
100
AcDbScale
 70
     0
300
1'-0" = 1'-0"
140
12.0
141
12.0
290
     0
  0
ENDSEC
  0
EOF
