<?xml version="1.0" encoding="UTF-8" standalone="no"?>
<!-- Created with Inkscape (http://www.inkscape.org/) -->

<svg
   width="210mm"
   height="297mm"
   viewBox="0 0 210 297"
   version="1.1"
   id="svg5"
   inkscape:version="1.1.2 (b8e25be833, 2022-02-05)"
   sodipodi:docname="red_arrows.svg"
   xmlns:inkscape="http://www.inkscape.org/namespaces/inkscape"
   xmlns:sodipodi="http://sodipodi.sourceforge.net/DTD/sodipodi-0.dtd"
   xmlns="http://www.w3.org/2000/svg"
   xmlns:svg="http://www.w3.org/2000/svg">
  <sodipodi:namedview
     id="namedview7"
     pagecolor="#ffffff"
     bordercolor="#666666"
     borderopacity="1.0"
     inkscape:pageshadow="2"
     inkscape:pageopacity="0.0"
     inkscape:pagecheckerboard="0"
     inkscape:document-units="mm"
     showgrid="false"
     inkscape:zoom="0.73584456"
     inkscape:cx="396.82294"
     inkscape:cy="561.25984"
     inkscape:window-width="2560"
     inkscape:window-height="1009"
     inkscape:window-x="-8"
     inkscape:window-y="-8"
     inkscape:window-maximized="1"
     inkscape:current-layer="layer1" />
  <defs
     id="defs2" />
  <g
     inkscape:label="Camada 1"
     inkscape:groupmode="layer"
     id="layer1">
    <g
       id="g2724"
       transform="translate(0.17214883,-7.649203)"
       style="stroke:#000000;stroke-opacity:1;stroke-width:2.5;stroke-miterlimit:4;stroke-dasharray:none">
      <path
         style="fill:#ff0000;fill-opacity:1;stroke-width:2.5;stroke:#000000;stroke-opacity:1;stroke-miterlimit:4;stroke-dasharray:none"
         d="m 166.75016,109.26927 c 0.41724,0.0947 -0.62567,-0.61734 10.80187,7.37451 12.62305,8.82793 13.54415,9.46757 19.19739,13.33119 4.52111,3.08988 4.88613,3.35821 5.01854,3.68914 0.17884,0.44696 0.17884,0.6134 -9e-5,1.06054 -0.13284,0.332 -0.52574,0.61892 -5.59335,4.08448 -2.99777,2.05006 -7.08206,4.86814 -9.07622,6.26238 -1.99415,1.39426 -7.28132,5.09118 -11.74927,8.21538 -4.46795,3.12421 -8.22855,5.72041 -8.35688,5.76935 -0.41763,0.15921 -1.38828,0.18307 -1.72509,0.0423 -0.64777,-0.27065 -0.62218,0.0275 -0.59491,-6.93039 l 0.0243,-6.21238 -0.91436,-2.8e-4 c -0.84676,-1.7e-4 -10.99772,0.19021 -25.51143,0.47856 -3.31444,0.0658 -6.12894,0.1001 -6.25444,0.0761 -0.3175,-0.0607 -0.65738,-0.42707 -0.76421,-0.82378 -0.0594,-0.22054 -0.082,-4.19204 -0.0665,-11.68337 0.0229,-11.07068 0.0276,-11.35624 0.19572,-11.63407 0.33862,-0.55976 0.15561,-0.54867 6.85809,-0.41549 15.06746,0.2994 24.70169,0.48034 25.54709,0.47981 l 0.91864,-6.7e-4 -0.0343,-6.21239 c -0.0324,-5.87307 -0.0255,-6.22846 0.12632,-6.50675 0.0883,-0.16191 0.28732,-0.34716 0.44216,-0.41168 0.32028,-0.13344 1.00178,-0.14817 1.51093,-0.0327 z"
         id="path854" />
      <path
         style="fill:#ff0000;fill-opacity:1;stroke-width:2.5;stroke:#000000;stroke-opacity:1;stroke-miterlimit:4;stroke-dasharray:none"
         d="m 43.169322,202.28239 c -0.41724,-0.0947 0.62567,0.61734 -10.80187,-7.37451 -12.62304,-8.82793 -13.54415,-9.46757 -19.19738,-13.33119 -4.5211203,-3.08989 -4.8861403,-3.35822 -5.0185503,-3.68914 -0.17884,-0.44696 -0.17883,-0.61341 8e-5,-1.06054 0.13284,-0.33201 0.52575,-0.61893 5.5933603,-4.08448 2.99776,-2.05007 7.08206,-4.86815 9.07621,-6.26239 1.99416,-1.39425 7.28133,-5.09117 11.74928,-8.21537 4.46795,-3.12421 8.22854,-5.72041 8.35688,-5.76935 0.41763,-0.15925 1.38828,-0.18307 1.72509,-0.0423 0.64777,0.27066 0.62218,-0.0275 0.59491,6.93039 l -0.0243,6.21239 0.91436,2.7e-4 c 0.84676,1.7e-4 10.997719,-0.19021 25.511433,-0.47856 3.31444,-0.0659 6.12894,-0.10009 6.25444,-0.0761 0.3175,0.0607 0.65739,0.42708 0.76421,0.82379 0.0594,0.22054 0.082,4.19204 0.0665,11.68337 -0.0229,11.07067 -0.0276,11.35624 -0.19572,11.63407 -0.33861,0.55975 -0.15561,0.54867 -6.85809,0.41549 -15.067464,-0.2994 -24.701693,-0.48034 -25.547103,-0.47981 l -0.91863,6.7e-4 0.0343,6.21239 c 0.0324,5.87308 0.0255,6.22846 -0.12632,6.50675 -0.0883,0.16191 -0.28732,0.34716 -0.44216,0.41168 -0.32028,0.13344 -1.00178,0.14818 -1.51094,0.0327 z"
         id="path854-6"
         inkscape:transform-center-x="10.4947"
         inkscape:transform-center-y="-6.2968198" />
      <path
         style="fill:#ff0000;fill-opacity:1;stroke-width:2.5;stroke:#000000;stroke-opacity:1;stroke-miterlimit:4;stroke-dasharray:none"
         d="m 58.985949,56.473225 c -0.0947,0.41724 0.61734,-0.62567 -7.37452,10.80187 -8.82792,12.62304 -9.46757,13.54415 -13.33119,19.19738 -3.08989,4.52112 -3.35821,4.88614 -3.68914,5.01855 -0.44696,0.17884 -0.6134,0.17882 -1.06054,-9e-5 -0.33201,-0.13284 -0.61892,-0.52575 -4.08448,-5.59335 -2.05007,-2.99777 -4.86814,-7.08207 -6.26239,-9.07622 -1.39425,-1.99415 -5.091162,-7.28133 -8.215366,-11.74928 -3.124205,-4.46794 -5.7204099,-8.22854 -5.7693449,-8.35687 -0.159248,-0.41763 -0.183076,-1.38828 -0.04235,-1.72509 0.270656,-0.64777 -0.02749,-0.62218 6.9303909,-0.59491 l 6.21238,0.0243 2.7e-4,-0.91436 c 1.8e-4,-0.84676 -0.1902,-10.997719 -0.47855,-25.511437 -0.0658,-3.314437 -0.1001,-6.128935 -0.0761,-6.25444 0.0607,-0.317498 0.42708,-0.657383 0.82379,-0.764207 0.22054,-0.05938 4.19204,-0.082 11.68336,-0.06654 11.07068,0.02286 11.35625,0.02764 11.63407,0.195721 0.55976,0.338611 0.54867,0.155609 0.4155,6.858088 -0.2994,15.067458 -0.48034,24.701695 -0.47981,25.547095 l 6.6e-4,0.91864 6.21239,-0.0343 c 5.87308,-0.0324 6.22846,-0.0255 6.50676,0.12632 0.16191,0.0883 0.34716,0.28732 0.41168,0.44216 0.13344,0.32028 0.14817,1.00178 0.0327,1.51093 z"
         id="path854-97" />
      <path
         style="fill:#ff0000;fill-opacity:1;stroke-width:2.5;stroke:#000000;stroke-opacity:1;stroke-miterlimit:4;stroke-dasharray:none"
         d="m 152.34979,255.71408 c 0.0947,-0.41724 -0.61734,0.62567 7.37451,-10.80187 8.82793,-12.62304 9.46757,-13.54415 13.33119,-19.19738 3.08989,-4.52112 3.35822,-4.88614 3.68914,-5.01855 0.44696,-0.17884 0.61341,-0.17883 1.06054,8e-5 0.33201,0.13284 0.61893,0.52575 4.08448,5.59336 2.05007,2.99776 4.86815,7.08206 6.26239,9.07621 1.39425,1.99416 5.09117,7.28133 8.21537,11.74928 3.12421,4.46795 5.72041,8.22854 5.76935,8.35688 0.15925,0.41763 0.18307,1.38828 0.0423,1.72509 -0.27066,0.64777 0.0275,0.62218 -6.93039,0.59491 l -6.21239,-0.0243 -2.7e-4,0.91436 c -1.7e-4,0.84676 0.19021,10.99772 0.47856,25.51143 0.0659,3.31444 0.10009,6.12894 0.0761,6.25444 -0.0607,0.3175 -0.42708,0.65739 -0.82379,0.76421 -0.22054,0.0594 -4.19204,0.082 -11.68337,0.0665 -11.07067,-0.0229 -11.35624,-0.0276 -11.63407,-0.19572 -0.55975,-0.33861 -0.54867,-0.15561 -0.41549,-6.85809 0.2994,-15.06746 0.48034,-24.70169 0.47981,-25.5471 l -6.7e-4,-0.91863 -6.21239,0.0343 c -5.87308,0.0324 -6.22846,0.0255 -6.50675,-0.12632 -0.16191,-0.0883 -0.34716,-0.28732 -0.41168,-0.44216 -0.13344,-0.32028 -0.14818,-1.00178 -0.0327,-1.51094 z"
         id="path854-6-9" />
      <path
         style="fill:#ff0000;fill-opacity:1;stroke-width:2.5;stroke:#000000;stroke-opacity:1;stroke-miterlimit:4;stroke-dasharray:none"
         d="m 152.32555,158.77426 c 0.62586,0.14205 -0.93851,-0.92601 16.2028,11.06178 18.93454,13.24187 20.3162,14.20134 28.79605,19.99675 6.78167,4.63483 7.3292,5.03733 7.52781,5.53372 0.26826,0.67044 0.26824,0.9201 -1.2e-4,1.59081 -0.19926,0.49802 -0.78863,0.92838 -8.39003,6.12672 -4.49665,3.07509 -10.62309,7.3022 -13.61432,9.39358 -2.99123,2.09137 -10.92198,7.63673 -17.6239,12.32304 -6.70191,4.6863 -12.3428,8.58061 -12.5353,8.65401 -0.62645,0.23887 -2.08243,0.27462 -2.58764,0.0635 -0.97165,-0.40599 -0.93326,0.0412 -0.89237,-10.39558 l 0.0365,-9.31858 -1.37153,-3.9e-4 c -1.27014,-2.7e-4 -16.49657,0.2853 -38.26713,0.71783 -4.97166,0.0987 -9.1934,0.15013 -9.38166,0.11415 -0.476243,-0.0911 -0.986073,-0.64062 -1.146313,-1.23569 -0.0891,-0.33081 -0.123,-6.28805 -0.0998,-17.52503 0.0343,-16.60601 0.0415,-17.03436 0.29358,-17.45109 0.50792,-0.83964 0.23342,-0.82301 10.287133,-0.62325 22.60117,0.4491 37.05252,0.72051 38.32062,0.71971 l 1.37795,-0.001 -0.0515,-9.31856 c -0.0486,-8.80962 -0.0383,-9.3427 0.18949,-9.76014 0.13251,-0.24286 0.43098,-0.52074 0.66324,-0.61752 0.48041,-0.20016 1.50266,-0.22225 2.2664,-0.0489 z"
         id="path854-9" />
      <path
         style="fill:#ff0000;fill-opacity:1;stroke-width:2.5;stroke:#000000;stroke-opacity:1;stroke-miterlimit:4;stroke-dasharray:none"
         d="m 57.330161,154.22396 c -0.62586,-0.14205 0.9385,0.92601 -16.20281,-11.06178 -18.93454,-13.24187 -20.3162,-14.20134 -28.79605,-19.99675 -6.7816699,-4.63483 -7.3291999,-5.03733 -7.5278099,-5.53372 -0.26826,-0.67044 -0.26824,-0.9201 1.3e-4,-1.59081 0.19926,-0.49802 0.78862,-0.92838 8.3900299,-6.12672 4.49664,-3.07509 10.62308,-7.3022 13.61431,-9.39358 2.99123,-2.09137 10.92198,-7.63673 17.6239,-12.32304 6.70192,-4.6863 12.3428,-8.58061 12.5353,-8.65401 0.62646,-0.23887 2.08243,-0.27462 2.58764,-0.0635 0.97166,0.40599 0.93327,-0.0412 0.89237,10.39558 l -0.0365,9.31858 1.37153,3.9e-4 c 1.27014,2.7e-4 16.49657,-0.2853 38.267129,-0.71783 4.97167,-0.0987 9.19341,-0.15013 9.38167,-0.11415 0.47624,0.0911 0.98607,0.64062 1.14631,1.23569 0.0891,0.33081 0.123,6.28805 0.0998,17.52503 -0.0343,16.60601 -0.0415,17.03436 -0.29358,17.45109 -0.50792,0.83964 -0.23342,0.82301 -10.28714,0.62325 -22.601169,-0.4491 -37.052509,-0.72051 -38.320619,-0.71971 l -1.37795,0.001 0.0515,9.31856 c 0.0486,8.80962 0.0383,9.3427 -0.18949,9.76014 -0.13251,0.24286 -0.43098,0.52074 -0.66324,0.61752 -0.48041,0.20016 -1.50266,0.22225 -2.26639,0.0489 z"
         id="path854-9-9" />
      <path
         style="fill:#ff0000;fill-opacity:1;stroke-width:2.5;stroke:#000000;stroke-opacity:1;stroke-miterlimit:4;stroke-dasharray:none"
         d="m 75.333556,293.92704 c -0.834479,-0.1894 1.251337,1.23468 -21.603744,-14.74905 C 28.483737,261.52215 26.641523,260.24286 15.335057,252.51564 6.2928176,246.33587 5.5627799,245.7992 5.2979664,245.13735 c -0.3576828,-0.89392 -0.3576562,-1.22681 1.68e-4,-2.12109 0.2656815,-0.66402 1.0514979,-1.23784 11.1867126,-8.16896 5.995527,-4.10012 14.164119,-9.73627 18.152425,-12.52478 3.988309,-2.78849 14.562651,-10.18231 23.498549,-16.43073 8.935893,-6.2484 16.457082,-11.44082 16.713746,-11.53868 0.83527,-0.3185 2.776569,-0.36616 3.450183,-0.0847 1.295542,0.54132 1.244357,-0.0549 1.189825,13.86078 l -0.04867,12.42478 1.828711,5.2e-4 c 1.693525,3.6e-4 21.995444,-0.3804 51.022874,-0.95711 6.62888,-0.1316 12.25787,-0.20017 12.50888,-0.1522 0.63499,0.12147 1.31476,0.85416 1.52841,1.64759 0.1188,0.44108 0.164,8.38407 0.13307,23.36672 -0.0457,22.14136 -0.0553,22.71249 -0.39144,23.26813 -0.67723,1.11952 -0.31123,1.09735 -13.71617,0.831 -30.13492,-0.5988 -49.403388,-0.96068 -51.094201,-0.95961 l -1.837266,10e-4 0.06863,12.42475 c 0.06484,11.74617 0.05105,12.45694 -0.252649,13.01353 -0.17668,0.32381 -0.574639,0.69432 -0.884319,0.82336 -0.640552,0.26688 -2.003555,0.29633 -3.021864,0.0652 z"
         id="path854-9-3" />
      <path
         style="fill:#ff0000;fill-opacity:1;stroke-width:2.5;stroke:#000000;stroke-opacity:1;stroke-miterlimit:4;stroke-dasharray:none"
         d="m 134.39976,18.371366 c 0.83448,0.1894 -1.25134,-1.23468 21.60375,14.74905 25.24607,17.655841 27.08829,18.935131 38.39475,26.662351 9.04224,6.17977 9.77228,6.71644 10.03709,7.37829 0.35769,0.89392 0.35766,1.22681 -1.6e-4,2.12109 -0.26568,0.66402 -1.0515,1.23784 -11.18672,8.16896 -5.99552,4.10012 -14.16411,9.73627 -18.15242,12.52478 -3.98831,2.78849 -14.56265,10.182313 -23.49855,16.430733 -8.93589,6.24839 -16.45708,11.44081 -16.71375,11.53867 -0.83527,0.3185 -2.77657,0.36616 -3.45018,0.0847 -1.29554,-0.54132 -1.24436,0.0549 -1.18983,-13.86077 l 0.0487,-12.424783 -1.82871,-5.2e-4 c -1.69351,-3.6e-4 -21.99543,0.3804 -51.022862,0.95711 -6.62888,0.1316 -12.25787,0.20017 -12.50888,0.1522 -0.63499,-0.12147 -1.31476,-0.85416 -1.52841,-1.64759 -0.1188,-0.44108 -0.164,-8.38407 -0.13307,-23.36672 0.0457,-22.14136 0.0553,-22.71249 0.39144,-23.26813 0.67723,-1.11952 0.31123,-1.09735 13.71617,-0.831 30.134922,0.5988 49.403392,0.96068 51.094192,0.95961 l 1.83727,-10e-4 -0.0686,-12.424751 c -0.0649,-11.74617 -0.0511,-12.45694 0.25264,-13.01353 0.17668,-0.32381 0.57464,-0.69432 0.88432,-0.82336 0.64056,-0.26688 2.00356,-0.29633 3.02187,-0.0652 z"
         id="path854-9-3-0" />
    </g>
  </g>
</svg>
