  0
SECTION
  2
HEADER
  9
$ACADVER
  1
AC1014
  9
$HANDSEED
  5
FFFF
  9
$MEASUREMENT
 70
     1
  0
ENDSEC
  0
SECTION
  2
TABLES
  0
TABLE
  2
VPORT
  5
8
330
0
100
AcDbSymbolTable
 70
     4
  0
VPORT
  5
2E
330
8
100
AcDbSymbolTableRecord
100
AcDbViewportTableRecord
  2
*ACTIVE
 70
     0
 10
0.0
 20
0.0
 11
1.0
 21
1.0
 12
210.0
 22
148.5
 13
0.0
 23
0.0
 14
10.0
 24
10.0
 15
10.0
 25
10.0
 16
0.0
 26
0.0
 36
1.0
 17
0.0
 27
0.0
 37
0.0
 40
341.0
 41
1.24
 42
50.0
 43
0.0
 44
0.0
 50
0.0
 51
0.0
 71
     0
 72
   100
 73
     1
 74
     3
 75
     0
 76
     0
 77
     0
 78
     0
  0
ENDTAB
  0
TABLE
  2
LTYPE
  5
5
330
0
100
AcDbSymbolTable
 70
     1
  0
LTYPE
  5
14
330
5
100
AcDbSymbolTableRecord
100
AcDbLinetypeTableRecord
  2
BYBLOCK
 70
     0
  3

 72
    65
 73
     0
 40
0.0
  0
LTYPE
  5
15
330
5
100
AcDbSymbolTableRecord
100
AcDbLinetypeTableRecord
  2
BYLAYER
 70
     0
  3

 72
    65
 73
     0
 40
0.0
  0
LTYPE
  5
16
330
5
100
AcDbSymbolTableRecord
100
AcDbLinetypeTableRecord
  2
CONTINUOUS
 70
     0
  3
Solid line
 72
    65
 73
     0
 40
0.0
  0
ENDTAB
  0
TABLE
  2
LAYER
  5
2
100
AcDbSymbolTable
 70
2
  0
LAYER
  5
50
100
AcDbSymbolTableRecord
100
AcDbLayerTableRecord
  2
0
 70
0
  6
CONTINUOUS
  0
LAYER
  5
51
100
AcDbSymbolTableRecord
100
AcDbLayerTableRecord
  2
Camada_1
 70
0
  6
CONTINUOUS
  0
ENDTAB
  0
TABLE
  2
STYLE
  5
3
330
0
100
AcDbSymbolTable
 70
     1
  0
STYLE
  5
11
330
3
100
AcDbSymbolTableRecord
100
AcDbTextStyleTableRecord
  2
STANDARD
 70
     0
 40
0.0
 41
1.0
 50
0.0
 71
     0
 42
2.5
  3
txt
  4

  0
ENDTAB
  0
TABLE
  2
VIEW
  5
6
330
0
100
AcDbSymbolTable
 70
     0
  0
ENDTAB
  0
TABLE
  2
UCS
  5
7
330
0
100
AcDbSymbolTable
 70
     0
  0
ENDTAB
  0
TABLE
  2
APPID
  5
9
330
0
100
AcDbSymbolTable
 70
     2
  0
APPID
  5
12
330
9
100
AcDbSymbolTableRecord
100
AcDbRegAppTableRecord
  2
ACAD
 70
     0
  0
ENDTAB
  0
TABLE
  2
DIMSTYLE
  5
A
330
0
100
AcDbSymbolTable
 70
     1
  0
DIMSTYLE
105
27
330
A
100
AcDbSymbolTableRecord
100
AcDbDimStyleTableRecord
  2
ISO-25
 70
     0
  3

  4

  5

  6

  7

 40
1.0
 41
2.5
 42
0.625
 43
3.75
 44
1.25
 45
0.0
 46
0.0
 47
0.0
 48
0.0
140
2.5
141
2.5
142
0.0
143
0.03937007874016
144
1.0
145
0.0
146
1.0
147
0.625
 71
     0
 72
     0
 73
     0
 74
     0
 75
     0
 76
     0
 77
     1
 78
     8
170
     0
171
     3
172
     1
173
     0
174
     0
175
     0
176
     0
177
     0
178
     0
270
     2
271
     2
272
     2
273
     2
274
     3
340
11
275
     0
280
     0
281
     0
282
     0
283
     0
284
     8
285
     0
286
     0
287
     3
288
     0
  0
ENDTAB
  0
TABLE
  2
BLOCK_RECORD
  5
1
330
0
100
AcDbSymbolTable
 70
     1
  0
BLOCK_RECORD
  5
1F
330
1
100
AcDbSymbolTableRecord
100
AcDbBlockTableRecord
  2
*MODEL_SPACE
  0
BLOCK_RECORD
  5
1B
330
1
100
AcDbSymbolTableRecord
100
AcDbBlockTableRecord
  2
*PAPER_SPACE
  0
ENDTAB
  0
ENDSEC
  0
SECTION
  2
BLOCKS
  0
BLOCK
  5
20
330
1F
100
AcDbEntity
  8
0
100
AcDbBlockBegin
  2
*MODEL_SPACE
 70
     0
 10
0.0
 20
0.0
 30
0.0
  3
*MODEL_SPACE
  1

  0
ENDBLK
  5
21
330
1F
100
AcDbEntity
  8
0
100
AcDbBlockEnd
  0
BLOCK
  5
1C
330
1B
100
AcDbEntity
 67
     1
  8
0
100
AcDbBlockBegin
  2
*PAPER_SPACE
  1

  0
ENDBLK
  5
1D
330
1B
100
AcDbEntity
 67
     1
  8
0
100
AcDbBlockEnd
  0
ENDSEC
  0
SECTION
  2
ENTITIES
  0
SPLINE
  5
100
100
AcDbEntity
  8
Camada_1
 62
7
100
AcDbSpline
 70
8
 71
3
 72
8
 73
4
 74
0
 40
0
 40
0
 40
0
 40
0
 40
1
 40
1
 40
1
 40
1
 10
-40.338884
 20
-22.264102
 30
0.0
 10
-35.970156
 20
-21.832442
 30
0.0
 10
-31.952669
 20
-20.197008
 30
0.0
 10
-28.491166
 20
-17.441147
 30
0.0
  0
SPLINE
  5
101
100
AcDbEntity
  8
Camada_1
 62
7
100
AcDbSpline
 70
8
 71
3
 72
8
 73
4
 74
0
 40
0
 40
0
 40
0
 40
0
 40
1
 40
1
 40
1
 40
1
 10
-28.491166
 20
-17.441147
 30
0.0
 10
-27.499962
 20
-16.652014
 30
0.0
 10
-25.824988
 20
-14.983313
 30
0.0
 10
-25.050923
 20
-14.013809
 30
0.0
  0
SPLINE
  5
102
100
AcDbEntity
  8
Camada_1
 62
7
100
AcDbSpline
 70
8
 71
3
 72
8
 73
4
 74
0
 40
0
 40
0
 40
0
 40
0
 40
1
 40
1
 40
1
 40
1
 10
-25.050923
 20
-14.013809
 30
0.0
 10
-20.443933
 20
-8.243586
 30
0.0
 10
-18.968626
 20
-0.791439
 30
0.0
 10
-21.029261
 20
6.300559
 30
0.0
  0
SPLINE
  5
103
100
AcDbEntity
  8
Camada_1
 62
7
100
AcDbSpline
 70
8
 71
3
 72
8
 73
4
 74
0
 40
0
 40
0
 40
0
 40
0
 40
1
 40
1
 40
1
 40
1
 10
-21.029261
 20
6.300559
 30
0.0
 10
-21.988178
 20
9.600803
 30
0.0
 10
-23.935097
 20
12.912939
 30
0.0
 10
-26.433955
 20
15.495102
 30
0.0
  0
SPLINE
  5
104
100
AcDbEntity
  8
Camada_1
 62
7
100
AcDbSpline
 70
8
 71
3
 72
8
 73
4
 74
0
 40
0
 40
0
 40
0
 40
0
 40
1
 40
1
 40
1
 40
1
 10
-26.433955
 20
15.495102
 30
0.0
 10
-30.103255
 20
19.286724
 30
0.0
 10
-34.877581
 20
21.611195
 30
0.0
 10
-40.202724
 20
22.198674
 30
0.0
  0
SPLINE
  5
105
100
AcDbEntity
  8
Camada_1
 62
7
100
AcDbSpline
 70
8
 71
3
 72
8
 73
4
 74
0
 40
0
 40
0
 40
0
 40
0
 40
1
 40
1
 40
1
 40
1
 10
-40.202724
 20
22.198674
 30
0.0
 10
-41.333543
 20
22.323431
 30
0.0
 10
-43.791491
 20
22.302790
 30
0.0
 10
-45.008028
 20
22.158382
 30
0.0
  0
SPLINE
  5
106
100
AcDbEntity
  8
Camada_1
 62
7
100
AcDbSpline
 70
8
 71
3
 72
8
 73
4
 74
0
 40
0
 40
0
 40
0
 40
0
 40
1
 40
1
 40
1
 40
1
 10
-45.008028
 20
22.158382
 30
0.0
 10
-51.772917
 20
21.355076
 30
0.0
 10
-57.760931
 20
17.551505
 30
0.0
 10
-61.412727
 20
11.738154
 30
0.0
  0
SPLINE
  5
107
100
AcDbEntity
  8
Camada_1
 62
7
100
AcDbSpline
 70
8
 71
3
 72
8
 73
4
 74
0
 40
0
 40
0
 40
0
 40
0
 40
1
 40
1
 40
1
 40
1
 10
-61.412727
 20
11.738154
 30
0.0
 10
-62.722609
 20
9.652928
 30
0.0
 10
-63.732587
 20
7.200069
 30
0.0
 10
-64.267345
 20
4.805314
 30
0.0
  0
SPLINE
  5
108
100
AcDbEntity
  8
Camada_1
 62
7
100
AcDbSpline
 70
8
 71
3
 72
8
 73
4
 74
0
 40
0
 40
0
 40
0
 40
0
 40
1
 40
1
 40
1
 40
1
 10
-64.267345
 20
4.805314
 30
0.0
 10
-64.862515
 20
2.140051
 30
0.0
 10
-64.940275
 20
-1.064971
 30
0.0
 10
-64.475592
 20
-3.778198
 30
0.0
  0
SPLINE
  5
109
100
AcDbEntity
  8
Camada_1
 62
7
100
AcDbSpline
 70
8
 71
3
 72
8
 73
4
 74
0
 40
0
 40
0
 40
0
 40
0
 40
1
 40
1
 40
1
 40
1
 10
-64.475592
 20
-3.778198
 30
0.0
 10
-63.844498
 20
-7.463089
 30
0.0
 10
-62.283435
 20
-10.939833
 30
0.0
 10
-59.920046
 20
-13.924194
 30
0.0
  0
SPLINE
  5
10a
100
AcDbEntity
  8
Camada_1
 62
7
100
AcDbSpline
 70
8
 71
3
 72
8
 73
4
 74
0
 40
0
 40
0
 40
0
 40
0
 40
1
 40
1
 40
1
 40
1
 10
-59.920046
 20
-13.924194
 30
0.0
 10
-59.178586
 20
-14.860480
 30
0.0
 10
-57.336901
 20
-16.707263
 30
0.0
 10
-56.416030
 20
-17.437917
 30
0.0
  0
SPLINE
  5
10b
100
AcDbEntity
  8
Camada_1
 62
7
100
AcDbSpline
 70
8
 71
3
 72
8
 73
4
 74
0
 40
0
 40
0
 40
0
 40
0
 40
1
 40
1
 40
1
 40
1
 10
-56.416030
 20
-17.437917
 30
0.0
 10
-53.094740
 20
-20.073160
 30
0.0
 10
-49.169989
 20
-21.733529
 30
0.0
 10
-45.191439
 20
-22.186483
 30
0.0
  0
SPLINE
  5
10c
100
AcDbEntity
  8
Camada_1
 62
7
100
AcDbSpline
 70
8
 71
3
 72
8
 73
4
 74
0
 40
0
 40
0
 40
0
 40
0
 40
1
 40
1
 40
1
 40
1
 10
-45.191439
 20
-22.186483
 30
0.0
 10
-44.808105
 20
-22.230154
 30
0.0
 10
-44.395438
 20
-22.277376
 30
0.0
 10
-44.274387
 20
-22.291492
 30
0.0
  0
SPLINE
  5
10d
100
AcDbEntity
  8
Camada_1
 62
7
100
AcDbSpline
 70
8
 71
3
 72
8
 73
4
 74
0
 40
0
 40
0
 40
0
 40
0
 40
1
 40
1
 40
1
 40
1
 10
-44.274387
 20
-22.291492
 30
0.0
 10
-43.756371
 20
-22.351889
 30
0.0
 10
-41.035754
 20
-22.332908
 30
0.0
 10
-40.338884
 20
-22.264006
 30
0.0
  0
LWPOLYLINE
  5
10e
100
AcDbEntity
  8
Camada_1
 62
7
100
AcDbPolyline
 90
8
 70
1
 10
-64.999545
 20
-0.000030
 30
0.0
 10
-64.999545
 20
22.632569
 30
0.0
 10
-42.403624
 20
22.632569
 30
0.0
 10
-19.807709
 20
22.632569
 30
0.0
 10
-19.807709
 20
-0.000030
 30
0.0
 10
-19.807709
 20
-22.632634
 30
0.0
 10
-42.403624
 20
-22.632634
 30
0.0
 10
-64.999545
 20
-22.632634
 30
0.0
  0
LWPOLYLINE
  5
10f
100
AcDbEntity
  8
Camada_1
 62
7
100
AcDbPolyline
 90
1
 70
1
 10
-40.338884
 20
-22.264006
 30
0.0
  0
SPLINE
  5
110
100
AcDbEntity
  8
Camada_1
 62
7
100
AcDbSpline
 70
8
 71
3
 72
8
 73
4
 74
0
 40
0
 40
0
 40
0
 40
0
 40
1
 40
1
 40
1
 40
1
 10
-40.925790
 20
-15.439940
 30
0.0
 10
-33.857937
 20
-14.728784
 30
0.0
 10
-28.090264
 20
-9.188274
 30
0.0
 10
-27.111319
 20
-2.169567
 30
0.0
  0
SPLINE
  5
111
100
AcDbEntity
  8
Camada_1
 62
7
100
AcDbSpline
 70
8
 71
3
 72
8
 73
4
 74
0
 40
0
 40
0
 40
0
 40
0
 40
1
 40
1
 40
1
 40
1
 10
-27.111319
 20
-2.169567
 30
0.0
 10
-26.965159
 20
-1.121666
 30
0.0
 10
-26.963174
 20
1.061415
 30
0.0
 10
-27.106990
 20
2.076416
 30
0.0
  0
SPLINE
  5
112
100
AcDbEntity
  8
Camada_1
 62
7
100
AcDbSpline
 70
8
 71
3
 72
8
 73
4
 74
0
 40
0
 40
0
 40
0
 40
0
 40
1
 40
1
 40
1
 40
1
 10
-27.106990
 20
2.076416
 30
0.0
 10
-27.836711
 20
7.209965
 30
0.0
 10
-31.025394
 20
11.591422
 30
0.0
 10
-35.690411
 20
13.870592
 30
0.0
  0
SPLINE
  5
113
100
AcDbEntity
  8
Camada_1
 62
7
100
AcDbSpline
 70
8
 71
3
 72
8
 73
4
 74
0
 40
0
 40
0
 40
0
 40
0
 40
1
 40
1
 40
1
 40
1
 10
-35.690411
 20
13.870592
 30
0.0
 10
-38.846387
 20
15.412490
 30
0.0
 10
-42.350691
 20
15.829271
 30
0.0
 10
-45.814554
 20
15.074711
 30
0.0
  0
SPLINE
  5
114
100
AcDbEntity
  8
Camada_1
 62
7
100
AcDbSpline
 70
8
 71
3
 72
8
 73
4
 74
0
 40
0
 40
0
 40
0
 40
0
 40
1
 40
1
 40
1
 40
1
 10
-45.814554
 20
15.074711
 30
0.0
 10
-48.044310
 20
14.588987
 30
0.0
 10
-50.531484
 20
13.367685
 30
0.0
 10
-52.299837
 20
11.890183
 30
0.0
  0
SPLINE
  5
115
100
AcDbEntity
  8
Camada_1
 62
7
100
AcDbSpline
 70
8
 71
3
 72
8
 73
4
 74
0
 40
0
 40
0
 40
0
 40
0
 40
1
 40
1
 40
1
 40
1
 10
-52.299837
 20
11.890183
 30
0.0
 10
-59.258052
 20
6.076420
 30
0.0
 10
-59.848373
 20
-4.234071
 30
0.0
 10
-53.595482
 20
-10.739353
 30
0.0
  0
SPLINE
  5
116
100
AcDbEntity
  8
Camada_1
 62
7
100
AcDbSpline
 70
8
 71
3
 72
8
 73
4
 74
0
 40
0
 40
0
 40
0
 40
0
 40
1
 40
1
 40
1
 40
1
 10
-53.595482
 20
-10.739353
 30
0.0
 10
-50.303674
 20
-14.164027
 30
0.0
 10
-45.597410
 20
-15.910031
 30
0.0
 10
-40.925334
 20
-15.439940
 30
0.0
  0
LWPOLYLINE
  5
117
100
AcDbEntity
  8
Camada_1
 62
7
100
AcDbPolyline
 90
8
 70
1
 10
-58.103384
 20
-0.036709
 30
0.0
 10
-58.103384
 20
15.663052
 30
0.0
 10
-42.440310
 20
15.663052
 30
0.0
 10
-26.777228
 20
15.663052
 30
0.0
 10
-26.777228
 20
-0.036709
 30
0.0
 10
-26.777228
 20
-15.736473
 30
0.0
 10
-42.440310
 20
-15.736473
 30
0.0
 10
-58.103384
 20
-15.736473
 30
0.0
  0
LWPOLYLINE
  5
118
100
AcDbEntity
  8
Camada_1
 62
7
100
AcDbPolyline
 90
2
 70
0
 10
-40.925334
 20
-15.439940
 30
0.0
 10
-40.925790
 20
-15.439940
 30
0.0
  0
SPLINE
  5
119
100
AcDbEntity
  8
Camada_1
 62
7
100
AcDbSpline
 70
8
 71
3
 72
8
 73
4
 74
0
 40
0
 40
0
 40
0
 40
0
 40
1
 40
1
 40
1
 40
1
 10
37.415715
 20
-8.577644
 30
0.0
 10
37.314837
 20
-8.560909
 30
0.0
 10
36.935184
 20
-8.510404
 30
0.0
 10
36.572039
 20
-8.465355
 30
0.0
  0
SPLINE
  5
11a
100
AcDbEntity
  8
Camada_1
 62
7
100
AcDbSpline
 70
8
 71
3
 72
8
 73
4
 74
0
 40
0
 40
0
 40
0
 40
0
 40
1
 40
1
 40
1
 40
1
 10
36.572039
 20
-8.465355
 30
0.0
 10
35.756815
 20
-8.364224
 30
0.0
 10
34.836423
 20
-8.103662
 30
0.0
 10
34.251512
 20
-7.808395
 30
0.0
  0
SPLINE
  5
11b
100
AcDbEntity
  8
Camada_1
 62
7
100
AcDbSpline
 70
8
 71
3
 72
8
 73
4
 74
0
 40
0
 40
0
 40
0
 40
0
 40
1
 40
1
 40
1
 40
1
 10
34.251512
 20
-7.808395
 30
0.0
 10
33.374871
 20
-7.365866
 30
0.0
 10
32.877513
 20
-6.706999
 30
0.0
 10
32.555772
 20
-5.561993
 30
0.0
  0
SPLINE
  5
11c
100
AcDbEntity
  8
Camada_1
 62
7
100
AcDbSpline
 70
8
 71
3
 72
8
 73
4
 74
0
 40
0
 40
0
 40
0
 40
0
 40
1
 40
1
 40
1
 40
1
 10
32.555772
 20
-5.561993
 30
0.0
 10
32.396359
 20
-4.994672
 30
0.0
 10
32.394440
 20
-4.921688
 30
0.0
 10
32.370827
 20
1.485576
 30
0.0
  0
LWPOLYLINE
  5
11d
100
AcDbEntity
  8
Camada_1
 62
7
100
AcDbPolyline
 90
8
 70
1
 10
-9.023294
 20
-19.551371
 30
0.0
 10
-9.023294
 20
-16.470109
 30
0.0
 10
27.988524
 20
-16.470109
 30
0.0
 10
65.000335
 20
-16.470109
 30
0.0
 10
65.000335
 20
-19.551371
 30
0.0
 10
65.000335
 20
-22.632634
 30
0.0
 10
27.988524
 20
-22.632634
 30
0.0
 10
-9.023294
 20
-22.632634
 30
0.0
  0
SPLINE
  5
11e
100
AcDbEntity
  8
Camada_1
 62
7
100
AcDbSpline
 70
8
 71
3
 72
8
 73
4
 74
0
 40
0
 40
0
 40
0
 40
0
 40
1
 40
1
 40
1
 40
1
 10
36.755458
 20
2.211822
 30
0.0
 10
36.755458
 20
-1.935491
 30
0.0
 10
36.779029
 20
-3.605703
 30
0.0
 10
36.840030
 20
-3.785634
 30
0.0
  0
SPLINE
  5
11f
100
AcDbEntity
  8
Camada_1
 62
7
100
AcDbSpline
 70
8
 71
3
 72
8
 73
4
 74
0
 40
0
 40
0
 40
0
 40
0
 40
1
 40
1
 40
1
 40
1
 10
36.840030
 20
-3.785634
 30
0.0
 10
36.976433
 20
-4.187799
 30
0.0
 10
37.173563
 20
-4.414614
 30
0.0
 10
37.544614
 20
-4.596327
 30
0.0
  0
SPLINE
  5
120
100
AcDbEntity
  8
Camada_1
 62
7
100
AcDbSpline
 70
8
 71
3
 72
8
 73
4
 74
0
 40
0
 40
0
 40
0
 40
0
 40
1
 40
1
 40
1
 40
1
 10
37.544614
 20
-4.596327
 30
0.0
 10
37.864236
 20
-4.752849
 30
0.0
 10
38.006870
 20
-4.768915
 30
0.0
 10
39.296477
 20
-4.793655
 30
0.0
  0
SPLINE
  5
121
100
AcDbEntity
  8
Camada_1
 62
7
100
AcDbSpline
 70
8
 71
3
 72
8
 73
4
 74
0
 40
0
 40
0
 40
0
 40
0
 40
1
 40
1
 40
1
 40
1
 10
39.296477
 20
-4.793655
 30
0.0
 10
40.426787
 20
-4.815326
 30
0.0
 10
40.779121
 20
-4.797984
 30
0.0
 10
41.104431
 20
-4.703132
 30
0.0
  0
SPLINE
  5
122
100
AcDbEntity
  8
Camada_1
 62
7
100
AcDbSpline
 70
8
 71
3
 72
8
 73
4
 74
0
 40
0
 40
0
 40
0
 40
0
 40
1
 40
1
 40
1
 40
1
 10
41.104431
 20
-4.703132
 30
0.0
 10
41.571170
 20
-4.567448
 30
0.0
 10
41.911808
 20
-4.235691
 30
0.0
 10
42.033195
 20
-3.798591
 30
0.0
  0
SPLINE
  5
123
100
AcDbEntity
  8
Camada_1
 62
7
100
AcDbSpline
 70
8
 71
3
 72
8
 73
4
 74
0
 40
0
 40
0
 40
0
 40
0
 40
1
 40
1
 40
1
 40
1
 10
42.033195
 20
-3.798591
 30
0.0
 10
42.083885
 20
-3.616144
 30
0.0
 10
42.110313
 20
-1.560306
 30
0.0
 10
42.110576
 20
2.219214
 30
0.0
  0
LWPOLYLINE
  5
124
100
AcDbEntity
  8
Camada_1
 62
7
100
AcDbPolyline
 90
5
 70
0
 10
32.370827
 20
1.485576
 30
0.0
 10
32.346978
 20
7.959897
 30
0.0
 10
34.551212
 20
7.959897
 30
0.0
 10
36.755458
 20
7.959897
 30
0.0
 10
36.755458
 20
2.211822
 30
0.0
  0
SPLINE
  5
125
100
AcDbEntity
  8
Camada_1
 62
7
100
AcDbSpline
 70
8
 71
3
 72
8
 73
4
 74
0
 40
0
 40
0
 40
0
 40
0
 40
1
 40
1
 40
1
 40
1
 10
46.512606
 20
1.953710
 30
0.0
 10
46.512606
 20
-3.059515
 30
0.0
 10
46.494403
 20
-4.156953
 30
0.0
 10
46.402406
 20
-4.684415
 30
0.0
  0
SPLINE
  5
126
100
AcDbEntity
  8
Camada_1
 62
7
100
AcDbSpline
 70
8
 71
3
 72
8
 73
4
 74
0
 40
0
 40
0
 40
0
 40
0
 40
1
 40
1
 40
1
 40
1
 10
46.402406
 20
-4.684415
 30
0.0
 10
46.029355
 20
-6.823708
 30
0.0
 10
44.941788
 20
-7.904462
 30
0.0
 10
42.659818
 20
-8.403597
 30
0.0
  0
SPLINE
  5
127
100
AcDbEntity
  8
Camada_1
 62
7
100
AcDbSpline
 70
8
 71
3
 72
8
 73
4
 74
0
 40
0
 40
0
 40
0
 40
0
 40
1
 40
1
 40
1
 40
1
 10
42.659818
 20
-8.403597
 30
0.0
 10
42.016967
 20
-8.544215
 30
0.0
 10
41.662749
 20
-8.566502
 30
0.0
 10
39.763185
 20
-8.585910
 30
0.0
  0
SPLINE
  5
128
100
AcDbEntity
  8
Camada_1
 62
7
100
AcDbSpline
 70
8
 71
3
 72
8
 73
4
 74
0
 40
0
 40
0
 40
0
 40
0
 40
1
 40
1
 40
1
 40
1
 10
39.763185
 20
-8.585910
 30
0.0
 10
38.572859
 20
-8.598037
 30
0.0
 10
37.516426
 20
-8.594593
 30
0.0
 10
37.415556
 20
-8.577226
 30
0.0
  0
LWPOLYLINE
  5
129
100
AcDbEntity
  8
Camada_1
 62
7
100
AcDbPolyline
 90
5
 70
0
 10
42.110576
 20
2.219214
 30
0.0
 10
42.110809
 20
7.959897
 30
0.0
 10
44.311706
 20
7.959897
 30
0.0
 10
46.512606
 20
7.959897
 30
0.0
 10
46.512606
 20
1.953710
 30
0.0
  0
LWPOLYLINE
  5
12a
100
AcDbEntity
  8
Camada_1
 62
7
100
AcDbPolyline
 90
2
 70
0
 10
37.415556
 20
-8.577226
 30
0.0
 10
37.415715
 20
-8.577644
 30
0.0
  0
SPLINE
  5
12b
100
AcDbEntity
  8
Camada_1
 62
7
100
AcDbSpline
 70
8
 71
3
 72
8
 73
4
 74
0
 40
0
 40
0
 40
0
 40
0
 40
1
 40
1
 40
1
 40
1
 10
-0.665391
 20
7.464697
 30
0.0
 10
1.170508
 20
1.327677
 30
0.0
 10
2.321117
 20
-2.384343
 30
0.0
 10
2.387511
 20
-2.384343
 30
0.0
  0
SPLINE
  5
12c
100
AcDbEntity
  8
Camada_1
 62
7
100
AcDbSpline
 70
8
 71
3
 72
8
 73
4
 74
0
 40
0
 40
0
 40
0
 40
0
 40
1
 40
1
 40
1
 40
1
 10
2.387511
 20
-2.384343
 30
0.0
 10
2.434471
 20
-2.384343
 30
0.0
 10
3.121228
 20
-0.135129
 30
0.0
 10
3.966691
 20
2.787776
 30
0.0
  0
LWPOLYLINE
  5
12d
100
AcDbEntity
  8
Camada_1
 62
7
100
AcDbPolyline
 90
5
 70
0
 10
-7.776121
 20
-0.293487
 30
0.0
 10
-7.776121
 20
7.959897
 30
0.0
 10
-4.294822
 20
7.959897
 30
0.0
 10
-0.813534
 20
7.959897
 30
0.0
 10
-0.665391
 20
7.464697
 30
0.0
  0
SPLINE
  5
12e
100
AcDbEntity
  8
Camada_1
 62
7
100
AcDbSpline
 70
8
 71
3
 72
8
 73
4
 74
0
 40
0
 40
0
 40
0
 40
0
 40
1
 40
1
 40
1
 40
1
 10
8.261865
 20
-6.732121
 30
0.0
 10
8.293233
 20
-5.732852
 30
0.0
 10
8.390964
 20
-2.901453
 30
0.0
 10
8.479130
 20
-0.440108
 30
0.0
  0
SPLINE
  5
12f
100
AcDbEntity
  8
Camada_1
 62
7
100
AcDbSpline
 70
8
 71
3
 72
8
 73
4
 74
0
 40
0
 40
0
 40
0
 40
0
 40
1
 40
1
 40
1
 40
1
 10
8.479130
 20
-0.440108
 30
0.0
 10
8.567277
 20
2.021236
 30
0.0
 10
8.632427
 20
4.043306
 30
0.0
 10
8.623901
 20
4.053400
 30
0.0
  0
SPLINE
  5
130
100
AcDbEntity
  8
Camada_1
 62
7
100
AcDbSpline
 70
8
 71
3
 72
8
 73
4
 74
0
 40
0
 40
0
 40
0
 40
0
 40
1
 40
1
 40
1
 40
1
 10
8.623901
 20
4.053400
 30
0.0
 10
8.525314
 20
4.170020
 30
0.0
 10
8.179000
 20
3.197435
 30
0.0
 10
6.383896
 20
-2.237505
 30
0.0
  0
LWPOLYLINE
  5
131
100
AcDbEntity
  8
Camada_1
 62
7
100
AcDbPolyline
 90
9
 70
0
 10
3.966691
 20
2.787776
 30
0.0
 10
5.462773
 20
7.959897
 30
0.0
 10
9.041145
 20
7.959897
 30
0.0
 10
12.619527
 20
7.959897
 30
0.0
 10
12.600893
 20
-0.275145
 30
0.0
 10
12.582285
 20
-8.510176
 30
0.0
 10
10.393609
 20
-8.529569
 30
0.0
 10
8.204935
 20
-8.548962
 30
0.0
 10
8.261865
 20
-6.732121
 30
0.0
  0
SPLINE
  5
132
100
AcDbEntity
  8
Camada_1
 62
7
100
AcDbSpline
 70
8
 71
3
 72
8
 73
4
 74
0
 40
0
 40
0
 40
0
 40
0
 40
1
 40
1
 40
1
 40
1
 10
-1.567385
 20
-2.236272
 30
0.0
 10
-2.732321
 20
1.233378
 30
0.0
 10
-3.716557
 20
4.072183
 30
0.0
 10
-3.754596
 20
4.072183
 30
0.0
  0
SPLINE
  5
133
100
AcDbEntity
  8
Camada_1
 62
7
100
AcDbSpline
 70
8
 71
3
 72
8
 73
4
 74
0
 40
0
 40
0
 40
0
 40
0
 40
1
 40
1
 40
1
 40
1
 10
-3.754596
 20
4.072183
 30
0.0
 10
-3.828684
 20
4.072183
 30
0.0
 10
-3.818716
 20
3.687929
 30
0.0
 10
-3.548726
 20
-3.886499
 30
0.0
  0
SPLINE
  5
134
100
AcDbEntity
  8
Camada_1
 62
7
100
AcDbSpline
 70
8
 71
3
 72
8
 73
4
 74
0
 40
0
 40
0
 40
0
 40
0
 40
1
 40
1
 40
1
 40
1
 10
-3.548726
 20
-3.886499
 30
0.0
 10
-3.458159
 20
-6.427862
 30
0.0
 10
-3.392852
 20
-8.515961
 30
0.0
 10
-3.403621
 20
-8.526734
 30
0.0
  0
SPLINE
  5
135
100
AcDbEntity
  8
Camada_1
 62
7
100
AcDbSpline
 70
8
 71
3
 72
8
 73
4
 74
0
 40
0
 40
0
 40
0
 40
0
 40
1
 40
1
 40
1
 40
1
 10
-3.403621
 20
-8.526734
 30
0.0
 10
-3.414356
 20
-8.537468
 30
0.0
 10
-4.402589
 20
-8.546304
 30
0.0
 10
-5.599637
 20
-8.546304
 30
0.0
  0
LWPOLYLINE
  5
136
100
AcDbEntity
  8
Camada_1
 62
7
100
AcDbPolyline
 90
5
 70
0
 10
6.383896
 20
-2.237505
 30
0.0
 10
4.300025
 20
-8.546765
 30
0.0
 10
2.425342
 20
-8.545752
 30
0.0
 10
0.550662
 20
-8.544739
 30
0.0
 10
-1.567385
 20
-2.236272
 30
0.0
  0
SPLINE
  5
137
100
AcDbEntity
  8
Camada_1
 62
7
100
AcDbSpline
 70
8
 71
3
 72
8
 73
4
 74
0
 40
0
 40
0
 40
0
 40
0
 40
1
 40
1
 40
1
 40
1
 10
14.184522
 20
-8.345110
 30
0.0
 10
14.250984
 20
-8.035675
 30
0.0
 10
19.051667
 20
7.887779
 30
0.0
 10
19.090058
 20
7.926175
 30
0.0
  0
SPLINE
  5
138
100
AcDbEntity
  8
Camada_1
 62
7
100
AcDbSpline
 70
8
 71
3
 72
8
 73
4
 74
0
 40
0
 40
0
 40
0
 40
0
 40
1
 40
1
 40
1
 40
1
 10
19.090058
 20
7.926175
 30
0.0
 10
19.108615
 20
7.944707
 30
0.0
 10
20.609500
 20
7.959882
 30
0.0
 10
22.425382
 20
7.959882
 30
0.0
  0
LWPOLYLINE
  5
139
100
AcDbEntity
  8
Camada_1
 62
7
100
AcDbPolyline
 90
3
 70
0
 10
-5.599637
 20
-8.546304
 30
0.0
 10
-7.776086
 20
-8.546304
 30
0.0
 10
-7.776121
 20
-0.293487
 30
0.0
  0
SPLINE
  5
13a
100
AcDbEntity
  8
Camada_1
 62
7
100
AcDbSpline
 70
8
 71
3
 72
8
 73
4
 74
0
 40
0
 40
0
 40
0
 40
0
 40
1
 40
1
 40
1
 40
1
 10
28.231833
 20
-0.270532
 30
0.0
 10
29.609500
 20
-4.797248
 30
0.0
 10
30.726344
 20
-8.511273
 30
0.0
 10
30.713706
 20
-8.523913
 30
0.0
  0
SPLINE
  5
13b
100
AcDbEntity
  8
Camada_1
 62
7
100
AcDbSpline
 70
8
 71
3
 72
8
 73
4
 74
0
 40
0
 40
0
 40
0
 40
0
 40
1
 40
1
 40
1
 40
1
 10
30.713706
 20
-8.523913
 30
0.0
 10
30.701047
 20
-8.536572
 30
0.0
 10
29.699548
 20
-8.546851
 30
0.0
 10
28.488092
 20
-8.546851
 30
0.0
  0
LWPOLYLINE
  5
13c
100
AcDbEntity
  8
Camada_1
 62
7
100
AcDbPolyline
 90
3
 70
0
 10
22.425382
 20
7.959882
 30
0.0
 10
25.726975
 20
7.959882
 30
0.0
 10
28.231833
 20
-0.270532
 30
0.0
  0
SPLINE
  5
13d
100
AcDbEntity
  8
Camada_1
 62
7
100
AcDbSpline
 70
8
 71
3
 72
8
 73
4
 74
0
 40
0
 40
0
 40
0
 40
0
 40
1
 40
1
 40
1
 40
1
 10
24.503757
 20
-2.402746
 30
0.0
 10
24.503757
 20
-2.200542
 30
0.0
 10
22.480603
 20
4.637240
 30
0.0
 10
22.442053
 20
4.565358
 30
0.0
  0
SPLINE
  5
13e
100
AcDbEntity
  8
Camada_1
 62
7
100
AcDbSpline
 70
8
 71
3
 72
8
 73
4
 74
0
 40
0
 40
0
 40
0
 40
0
 40
1
 40
1
 40
1
 40
1
 10
22.442053
 20
4.565358
 30
0.0
 10
22.396386
 20
4.480181
 30
0.0
 10
20.468778
 20
-2.345117
 30
0.0
 10
20.468778
 20
-2.421714
 30
0.0
  0
SPLINE
  5
13f
100
AcDbEntity
  8
Camada_1
 62
7
100
AcDbSpline
 70
8
 71
3
 72
8
 73
4
 74
0
 40
0
 40
0
 40
0
 40
0
 40
1
 40
1
 40
1
 40
1
 10
20.468778
 20
-2.421714
 30
0.0
 10
20.468778
 20
-2.441486
 30
0.0
 10
21.376651
 20
-2.457674
 30
0.0
 10
22.486269
 20
-2.457674
 30
0.0
  0
SPLINE
  5
140
100
AcDbEntity
  8
Camada_1
 62
7
100
AcDbSpline
 70
8
 71
3
 72
8
 73
4
 74
0
 40
0
 40
0
 40
0
 40
0
 40
1
 40
1
 40
1
 40
1
 10
22.486269
 20
-2.457674
 30
0.0
 10
23.595890
 20
-2.457674
 30
0.0
 10
24.503757
 20
-2.432990
 30
0.0
 10
24.503757
 20
-2.402736
 30
0.0
  0
LWPOLYLINE
  5
141
100
AcDbEntity
  8
Camada_1
 62
7
100
AcDbPolyline
 90
11
 70
0
 10
28.488092
 20
-8.546851
 30
0.0
 10
26.285433
 20
-8.546851
 30
0.0
 10
25.853117
 20
-7.116142
 30
0.0
 10
25.420807
 20
-5.685446
 30
0.0
 10
22.457008
 20
-5.703902
 30
0.0
 10
19.493208
 20
-5.722358
 30
0.0
 10
19.090362
 20
-7.134596
 30
0.0
 10
18.687531
 20
-8.546851
 30
0.0
 10
16.414356
 20
-8.546851
 30
0.0
 10
14.141187
 20
-8.546851
 30
0.0
 10
14.184522
 20
-8.345110
 30
0.0
  0
SPLINE
  5
142
100
AcDbEntity
  8
Camada_1
 62
7
100
AcDbSpline
 70
8
 71
3
 72
8
 73
4
 74
0
 40
0
 40
0
 40
0
 40
0
 40
1
 40
1
 40
1
 40
1
 10
48.126767
 20
-8.513394
 30
0.0
 10
48.126767
 20
-8.447626
 30
0.0
 10
53.034030
 20
7.902909
 30
0.0
 10
53.062235
 20
7.931115
 30
0.0
  0
SPLINE
  5
143
100
AcDbEntity
  8
Camada_1
 62
7
100
AcDbSpline
 70
8
 71
3
 72
8
 73
4
 74
0
 40
0
 40
0
 40
0
 40
0
 40
1
 40
1
 40
1
 40
1
 10
53.062235
 20
7.931115
 30
0.0
 10
53.078084
 20
7.946988
 30
0.0
 10
54.580994
 20
7.959885
 30
0.0
 10
56.402075
 20
7.959885
 30
0.0
  0
LWPOLYLINE
  5
144
100
AcDbEntity
  8
Camada_1
 62
7
100
AcDbPolyline
 90
1
 70
1
 10
24.503757
 20
-2.402736
 30
0.0
  0
SPLINE
  5
145
100
AcDbEntity
  8
Camada_1
 62
7
100
AcDbSpline
 70
8
 71
3
 72
8
 73
4
 74
0
 40
0
 40
0
 40
0
 40
0
 40
1
 40
1
 40
1
 40
1
 10
59.968649
 20
7.134546
 30
0.0
 10
61.237755
 20
3.035432
 30
0.0
 10
64.713559
 20
-8.491295
 30
0.0
 10
64.688172
 20
-8.516683
 30
0.0
  0
SPLINE
  5
146
100
AcDbEntity
  8
Camada_1
 62
7
100
AcDbSpline
 70
8
 71
3
 72
8
 73
4
 74
0
 40
0
 40
0
 40
0
 40
0
 40
1
 40
1
 40
1
 40
1
 10
64.688172
 20
-8.516683
 30
0.0
 10
64.670298
 20
-8.534557
 30
0.0
 10
63.668826
 20
-8.540329
 30
0.0
 10
62.462575
 20
-8.529696
 30
0.0
  0
LWPOLYLINE
  5
147
100
AcDbEntity
  8
Camada_1
 62
7
100
AcDbPolyline
 90
3
 70
0
 10
56.402075
 20
7.959885
 30
0.0
 10
59.713130
 20
7.959885
 30
0.0
 10
59.968649
 20
7.134546
 30
0.0
  0
SPLINE
  5
148
100
AcDbEntity
  8
Camada_1
 62
7
100
AcDbSpline
 70
8
 71
3
 72
8
 73
4
 74
0
 40
0
 40
0
 40
0
 40
0
 40
1
 40
1
 40
1
 40
1
 10
53.343142
 20
-6.180925
 30
0.0
 10
53.263166
 20
-6.453280
 30
0.0
 10
53.080909
 20
-7.085346
 30
0.0
 10
52.938066
 20
-7.585514
 30
0.0
  0
SPLINE
  5
149
100
AcDbEntity
  8
Camada_1
 62
7
100
AcDbSpline
 70
8
 71
3
 72
8
 73
4
 74
0
 40
0
 40
0
 40
0
 40
0
 40
1
 40
1
 40
1
 40
1
 10
52.938066
 20
-7.585514
 30
0.0
 10
52.795232
 20
-8.085681
 30
0.0
 10
52.666667
 20
-8.506609
 30
0.0
 10
52.652371
 20
-8.520896
 30
0.0
  0
SPLINE
  5
14a
100
AcDbEntity
  8
Camada_1
 62
7
100
AcDbSpline
 70
8
 71
3
 72
8
 73
4
 74
0
 40
0
 40
0
 40
0
 40
0
 40
1
 40
1
 40
1
 40
1
 10
52.652371
 20
-8.520896
 30
0.0
 10
52.613552
 20
-8.559717
 30
0.0
 10
48.126767
 20
-8.552352
 30
0.0
 10
48.126767
 20
-8.513123
 30
0.0
  0
LWPOLYLINE
  5
14b
100
AcDbEntity
  8
Camada_1
 62
7
100
AcDbPolyline
 90
7
 70
0
 10
62.462575
 20
-8.529696
 30
0.0
 10
60.269397
 20
-8.510202
 30
0.0
 10
59.834776
 20
-7.097962
 30
0.0
 10
59.400169
 20
-5.685724
 30
0.0
 10
56.444334
 20
-5.685724
 30
0.0
 10
53.488508
 20
-5.685724
 30
0.0
 10
53.343142
 20
-6.180925
 30
0.0
  0
SPLINE
  5
14c
100
AcDbEntity
  8
Camada_1
 62
7
100
AcDbSpline
 70
8
 71
3
 72
8
 73
4
 74
0
 40
0
 40
0
 40
0
 40
0
 40
1
 40
1
 40
1
 40
1
 10
57.512618
 20
1.072038
 30
0.0
 10
56.954598
 20
3.013401
 30
0.0
 10
56.482824
 20
4.617002
 30
0.0
 10
56.464221
 20
4.635602
 30
0.0
  0
SPLINE
  5
14d
100
AcDbEntity
  8
Camada_1
 62
7
100
AcDbSpline
 70
8
 71
3
 72
8
 73
4
 74
0
 40
0
 40
0
 40
0
 40
0
 40
1
 40
1
 40
1
 40
1
 10
56.464221
 20
4.635602
 30
0.0
 10
56.424967
 20
4.674853
 30
0.0
 10
56.463208
 20
4.806201
 30
0.0
 10
55.348937
 20
0.806964
 30
0.0
  0
SPLINE
  5
14e
100
AcDbEntity
  8
Camada_1
 62
7
100
AcDbSpline
 70
8
 71
3
 72
8
 73
4
 74
0
 40
0
 40
0
 40
0
 40
0
 40
1
 40
1
 40
1
 40
1
 10
55.348937
 20
0.806964
 30
0.0
 10
54.876744
 20
-0.887732
 30
0.0
 10
54.474640
 20
-2.315562
 30
0.0
 10
54.455358
 20
-2.365999
 30
0.0
  0
SPLINE
  5
14f
100
AcDbEntity
  8
Camada_1
 62
7
100
AcDbSpline
 70
8
 71
3
 72
8
 73
4
 74
0
 40
0
 40
0
 40
0
 40
0
 40
1
 40
1
 40
1
 40
1
 10
54.455358
 20
-2.365999
 30
0.0
 10
54.427811
 20
-2.438008
 30
0.0
 10
54.861220
 20
-2.457702
 30
0.0
 10
56.473758
 20
-2.457702
 30
0.0
  0
LWPOLYLINE
  5
150
100
AcDbEntity
  8
Camada_1
 62
7
100
AcDbPolyline
 90
2
 70
0
 10
48.126767
 20
-8.513123
 30
0.0
 10
48.126767
 20
-8.513394
 30
0.0
  0
LWPOLYLINE
  5
151
100
AcDbEntity
  8
Camada_1
 62
7
100
AcDbPolyline
 90
3
 70
0
 10
56.473758
 20
-2.457702
 30
0.0
 10
58.527204
 20
-2.457702
 30
0.0
 10
57.512618
 20
1.072038
 30
0.0
  0
SPLINE
  5
152
100
AcDbEntity
  8
Camada_1
 62
7
100
AcDbSpline
 70
8
 71
3
 72
8
 73
4
 74
0
 40
0
 40
0
 40
0
 40
0
 40
1
 40
1
 40
1
 40
1
 10
54.863359
 20
11.104465
 30
0.0
 10
57.791535
 20
12.833081
 30
0.0
 10
58.123957
 20
13.026235
 30
0.0
 10
58.136557
 20
13.006318
 30
0.0
  0
SPLINE
  5
153
100
AcDbEntity
  8
Camada_1
 62
7
100
AcDbSpline
 70
8
 71
3
 72
8
 73
4
 74
0
 40
0
 40
0
 40
0
 40
0
 40
1
 40
1
 40
1
 40
1
 10
58.136557
 20
13.006318
 30
0.0
 10
58.287285
 20
12.768001
 30
0.0
 10
59.183969
 20
10.625997
 30
0.0
 10
59.146860
 20
10.592933
 30
0.0
  0
SPLINE
  5
154
100
AcDbEntity
  8
Camada_1
 62
7
100
AcDbSpline
 70
8
 71
3
 72
8
 73
4
 74
0
 40
0
 40
0
 40
0
 40
0
 40
1
 40
1
 40
1
 40
1
 10
59.146860
 20
10.592933
 30
0.0
 10
59.094003
 20
10.545881
 30
0.0
 10
54.392028
 20
9.060349
 30
0.0
 10
54.295856
 20
9.060349
 30
0.0
  0
SPLINE
  5
155
100
AcDbEntity
  8
Camada_1
 62
7
100
AcDbSpline
 70
8
 71
3
 72
8
 73
4
 74
0
 40
0
 40
0
 40
0
 40
0
 40
1
 40
1
 40
1
 40
1
 10
54.295856
 20
9.060349
 30
0.0
 10
54.267266
 20
9.060349
 30
0.0
 10
54.107991
 20
9.357785
 30
0.0
 10
53.941945
 20
9.721312
 30
0.0
  0
LWPOLYLINE
  5
156
100
AcDbEntity
  8
Camada_1
 62
7
100
AcDbPolyline
 90
3
 70
0
 10
53.941945
 20
9.721312
 30
0.0
 10
53.640040
 20
10.382285
 30
0.0
 10
54.863359
 20
11.104465
 30
0.0
  0
LWPOLYLINE
  5
157
100
AcDbEntity
  8
Camada_1
 62
7
100
AcDbPolyline
 90
1
 70
1
 10
53.941945
 20
9.721312
 30
0.0
  0
LWPOLYLINE
  5
158
100
AcDbEntity
  8
Camada_1
 62
7
100
AcDbPolyline
 90
8
 70
1
 10
-9.023294
 20
19.514630
 30
0.0
 10
-9.023294
 20
22.632569
 30
0.0
 10
27.988524
 20
22.632569
 30
0.0
 10
65.000335
 20
22.632569
 30
0.0
 10
65.000335
 20
19.514630
 30
0.0
 10
65.000335
 20
16.396680
 30
0.0
 10
27.988524
 20
16.396680
 30
0.0
 10
-9.023294
 20
16.396680
 30
0.0
  0
ENDSEC
  0
SECTION
  2
OBJECTS
  0
DICTIONARY
  5
C
330
0
100
AcDbDictionary
  3
ACAD_GROUP
350
D
  3
ACAD_MLINESTYLE
350
17
  0
DICTIONARY
  5
D
330
C
100
AcDbDictionary
  0
DICTIONARY
  5
1A
330
C
100
AcDbDictionary
  0
DICTIONARY
  5
17
330
C
100
AcDbDictionary
  3
STANDARD
350
18
  0
DICTIONARY
  5
19
330
C
100
AcDbDictionary
  0
ENDSEC
  0
EOF
