  0
SECTION
  2
HEADER
  9
$ACADVER
  1
AC1014
  9
$HANDSEED
  5
FFFF
  9
$MEASUREMENT
 70
     1
  0
ENDSEC
  0
SECTION
  2
TABLES
  0
TABLE
  2
VPORT
  5
8
330
0
100
AcDbSymbolTable
 70
     4
  0
VPORT
  5
2E
330
8
100
AcDbSymbolTableRecord
100
AcDbViewportTableRecord
  2
*ACTIVE
 70
     0
 10
0.0
 20
0.0
 11
1.0
 21
1.0
 12
210.0
 22
148.5
 13
0.0
 23
0.0
 14
10.0
 24
10.0
 15
10.0
 25
10.0
 16
0.0
 26
0.0
 36
1.0
 17
0.0
 27
0.0
 37
0.0
 40
341.0
 41
1.24
 42
50.0
 43
0.0
 44
0.0
 50
0.0
 51
0.0
 71
     0
 72
   100
 73
     1
 74
     3
 75
     0
 76
     0
 77
     0
 78
     0
  0
ENDTAB
  0
TABLE
  2
LTYPE
  5
5
330
0
100
AcDbSymbolTable
 70
     1
  0
LTYPE
  5
14
330
5
100
AcDbSymbolTableRecord
100
AcDbLinetypeTableRecord
  2
BYBLOCK
 70
     0
  3

 72
    65
 73
     0
 40
0.0
  0
LTYPE
  5
15
330
5
100
AcDbSymbolTableRecord
100
AcDbLinetypeTableRecord
  2
BYLAYER
 70
     0
  3

 72
    65
 73
     0
 40
0.0
  0
LTYPE
  5
16
330
5
100
AcDbSymbolTableRecord
100
AcDbLinetypeTableRecord
  2
CONTINUOUS
 70
     0
  3
Solid line
 72
    65
 73
     0
 40
0.0
  0
ENDTAB
  0
TABLE
  2
LAYER
  5
2
100
AcDbSymbolTable
 70
2
  0
LAYER
  5
50
100
AcDbSymbolTableRecord
100
AcDbLayerTableRecord
  2
0
 70
0
  6
CONTINUOUS
  0
LAYER
  5
51
100
AcDbSymbolTableRecord
100
AcDbLayerTableRecord
  2
Camada_1
 70
0
  6
CONTINUOUS
  0
ENDTAB
  0
TABLE
  2
STYLE
  5
3
330
0
100
AcDbSymbolTable
 70
     1
  0
STYLE
  5
11
330
3
100
AcDbSymbolTableRecord
100
AcDbTextStyleTableRecord
  2
STANDARD
 70
     0
 40
0.0
 41
1.0
 50
0.0
 71
     0
 42
2.5
  3
txt
  4

  0
ENDTAB
  0
TABLE
  2
VIEW
  5
6
330
0
100
AcDbSymbolTable
 70
     0
  0
ENDTAB
  0
TABLE
  2
UCS
  5
7
330
0
100
AcDbSymbolTable
 70
     0
  0
ENDTAB
  0
TABLE
  2
APPID
  5
9
330
0
100
AcDbSymbolTable
 70
     2
  0
APPID
  5
12
330
9
100
AcDbSymbolTableRecord
100
AcDbRegAppTableRecord
  2
ACAD
 70
     0
  0
ENDTAB
  0
TABLE
  2
DIMSTYLE
  5
A
330
0
100
AcDbSymbolTable
 70
     1
  0
DIMSTYLE
105
27
330
A
100
AcDbSymbolTableRecord
100
AcDbDimStyleTableRecord
  2
ISO-25
 70
     0
  3

  4

  5

  6

  7

 40
1.0
 41
2.5
 42
0.625
 43
3.75
 44
1.25
 45
0.0
 46
0.0
 47
0.0
 48
0.0
140
2.5
141
2.5
142
0.0
143
0.03937007874016
144
1.0
145
0.0
146
1.0
147
0.625
 71
     0
 72
     0
 73
     0
 74
     0
 75
     0
 76
     0
 77
     1
 78
     8
170
     0
171
     3
172
     1
173
     0
174
     0
175
     0
176
     0
177
     0
178
     0
270
     2
271
     2
272
     2
273
     2
274
     3
340
11
275
     0
280
     0
281
     0
282
     0
283
     0
284
     8
285
     0
286
     0
287
     3
288
     0
  0
ENDTAB
  0
TABLE
  2
BLOCK_RECORD
  5
1
330
0
100
AcDbSymbolTable
 70
     1
  0
BLOCK_RECORD
  5
1F
330
1
100
AcDbSymbolTableRecord
100
AcDbBlockTableRecord
  2
*MODEL_SPACE
  0
BLOCK_RECORD
  5
1B
330
1
100
AcDbSymbolTableRecord
100
AcDbBlockTableRecord
  2
*PAPER_SPACE
  0
ENDTAB
  0
ENDSEC
  0
SECTION
  2
BLOCKS
  0
BLOCK
  5
20
330
1F
100
AcDbEntity
  8
0
100
AcDbBlockBegin
  2
*MODEL_SPACE
 70
     0
 10
0.0
 20
0.0
 30
0.0
  3
*MODEL_SPACE
  1

  0
ENDBLK
  5
21
330
1F
100
AcDbEntity
  8
0
100
AcDbBlockEnd
  0
BLOCK
  5
1C
330
1B
100
AcDbEntity
 67
     1
  8
0
100
AcDbBlockBegin
  2
*PAPER_SPACE
  1

  0
ENDBLK
  5
1D
330
1B
100
AcDbEntity
 67
     1
  8
0
100
AcDbBlockEnd
  0
ENDSEC
  0
SECTION
  2
ENTITIES
  0
SPLINE
  5
100
100
AcDbEntity
  8
Camada_1
 62
1
100
AcDbSpline
 70
8
 71
3
 72
8
 73
4
 74
0
 40
0
 40
0
 40
0
 40
0
 40
1
 40
1
 40
1
 40
1
 10
9.162322
 20
0.118997
 30
0.0
 10
8.944228
 20
0.161757
 30
0.0
 10
8.822699
 20
0.263201
 30
0.0
 10
8.423647
 20
0.735598
 30
0.0
  0
SPLINE
  5
101
100
AcDbEntity
  8
Camada_1
 62
1
100
AcDbSpline
 70
8
 71
3
 72
8
 73
4
 74
0
 40
0
 40
0
 40
0
 40
0
 40
1
 40
1
 40
1
 40
1
 10
8.423647
 20
0.735598
 30
0.0
 10
8.197059
 20
1.003832
 30
0.0
 10
7.975819
 20
1.219601
 30
0.0
 10
7.699815
 20
1.441535
 30
0.0
  0
SPLINE
  5
102
100
AcDbEntity
  8
Camada_1
 62
1
100
AcDbSpline
 70
8
 71
3
 72
8
 73
4
 74
0
 40
0
 40
0
 40
0
 40
0
 40
1
 40
1
 40
1
 40
1
 10
7.699815
 20
1.441535
 30
0.0
 10
7.493355
 20
1.607549
 30
0.0
 10
7.200352
 20
1.815973
 30
0.0
 10
7.173429
 20
1.815973
 30
0.0
  0
SPLINE
  5
103
100
AcDbEntity
  8
Camada_1
 62
1
100
AcDbSpline
 70
8
 71
3
 72
8
 73
4
 74
0
 40
0
 40
0
 40
0
 40
0
 40
1
 40
1
 40
1
 40
1
 10
7.173429
 20
1.815973
 30
0.0
 10
7.164029
 20
1.815973
 30
0.0
 10
7.145549
 20
1.765443
 30
0.0
 10
7.132299
 20
1.703699
 30
0.0
  0
SPLINE
  5
104
100
AcDbEntity
  8
Camada_1
 62
1
100
AcDbSpline
 70
8
 71
3
 72
8
 73
4
 74
0
 40
0
 40
0
 40
0
 40
0
 40
1
 40
1
 40
1
 40
1
 10
7.132299
 20
1.703699
 30
0.0
 10
7.097639
 20
1.542096
 30
0.0
 10
6.934082
 20
1.219660
 30
0.0
 10
6.819943
 20
1.087902
 30
0.0
  0
SPLINE
  5
105
100
AcDbEntity
  8
Camada_1
 62
1
100
AcDbSpline
 70
8
 71
3
 72
8
 73
4
 74
0
 40
0
 40
0
 40
0
 40
0
 40
1
 40
1
 40
1
 40
1
 10
6.819943
 20
1.087902
 30
0.0
 10
6.595942
 20
0.829322
 30
0.0
 10
6.317548
 20
0.653097
 30
0.0
 10
5.988371
 20
0.561514
 30
0.0
  0
SPLINE
  5
106
100
AcDbEntity
  8
Camada_1
 62
1
100
AcDbSpline
 70
8
 71
3
 72
8
 73
4
 74
0
 40
0
 40
0
 40
0
 40
0
 40
1
 40
1
 40
1
 40
1
 10
5.988371
 20
0.561514
 30
0.0
 10
5.833735
 20
0.518494
 30
0.0
 10
5.818510
 20
0.518054
 30
0.0
 10
4.475105
 20
0.518234
 30
0.0
  0
SPLINE
  5
107
100
AcDbEntity
  8
Camada_1
 62
1
100
AcDbSpline
 70
8
 71
3
 72
8
 73
4
 74
0
 40
0
 40
0
 40
0
 40
0
 40
1
 40
1
 40
1
 40
1
 10
4.475105
 20
0.518234
 30
0.0
 10
3.135865
 20
0.518382
 30
0.0
 10
3.115998
 20
0.519021
 30
0.0
 10
2.961841
 20
0.561524
 30
0.0
  0
SPLINE
  5
108
100
AcDbEntity
  8
Camada_1
 62
1
100
AcDbSpline
 70
8
 71
3
 72
8
 73
4
 74
0
 40
0
 40
0
 40
0
 40
0
 40
1
 40
1
 40
1
 40
1
 10
2.961841
 20
0.561524
 30
0.0
 10
2.424054
 20
0.709961
 30
0.0
 10
2.011523
 20
1.098001
 30
0.0
 10
1.848105
 20
1.609139
 30
0.0
  0
SPLINE
  5
109
100
AcDbEntity
  8
Camada_1
 62
1
100
AcDbSpline
 70
8
 71
3
 72
8
 73
4
 74
0
 40
0
 40
0
 40
0
 40
0
 40
1
 40
1
 40
1
 40
1
 10
1.848105
 20
1.609139
 30
0.0
 10
1.723643
 20
1.998433
 30
0.0
 10
1.751165
 20
2.607236
 30
0.0
 10
1.906835
 20
2.908270
 30
0.0
  0
SPLINE
  5
10a
100
AcDbEntity
  8
Camada_1
 62
1
100
AcDbSpline
 70
8
 71
3
 72
8
 73
4
 74
0
 40
0
 40
0
 40
0
 40
0
 40
1
 40
1
 40
1
 40
1
 10
1.906835
 20
2.908270
 30
0.0
 10
1.923275
 20
2.940060
 30
0.0
 10
1.936725
 20
2.975290
 30
0.0
 10
1.936725
 20
2.986570
 30
0.0
  0
SPLINE
  5
10b
100
AcDbEntity
  8
Camada_1
 62
1
100
AcDbSpline
 70
8
 71
3
 72
8
 73
4
 74
0
 40
0
 40
0
 40
0
 40
0
 40
1
 40
1
 40
1
 40
1
 10
1.936725
 20
2.986570
 30
0.0
 10
1.936725
 20
3.014920
 30
0.0
 10
1.522914
 20
3.013410
 30
0.0
 10
1.460197
 20
2.984870
 30
0.0
  0
SPLINE
  5
10c
100
AcDbEntity
  8
Camada_1
 62
1
100
AcDbSpline
 70
8
 71
3
 72
8
 73
4
 74
0
 40
0
 40
0
 40
0
 40
0
 40
1
 40
1
 40
1
 40
1
 10
1.460197
 20
2.984870
 30
0.0
 10
1.407657
 20
2.960930
 30
0.0
 10
1.350945
 20
2.861400
 30
0.0
 10
1.350945
 20
2.793129
 30
0.0
  0
SPLINE
  5
10d
100
AcDbEntity
  8
Camada_1
 62
1
100
AcDbSpline
 70
8
 71
3
 72
8
 73
4
 74
0
 40
0
 40
0
 40
0
 40
0
 40
1
 40
1
 40
1
 40
1
 10
1.350945
 20
2.793129
 30
0.0
 10
1.350945
 20
2.639775
 30
0.0
 10
1.242360
 20
2.423270
 30
0.0
 10
1.114764
 20
2.322212
 30
0.0
  0
SPLINE
  5
10e
100
AcDbEntity
  8
Camada_1
 62
1
100
AcDbSpline
 70
8
 71
3
 72
8
 73
4
 74
0
 40
0
 40
0
 40
0
 40
0
 40
1
 40
1
 40
1
 40
1
 10
1.114764
 20
2.322212
 30
0.0
 10
0.760322
 20
2.041489
 30
0.0
 10
0.233910
 20
2.220678
 30
0.0
 10
0.124196
 20
2.659399
 30
0.0
  0
SPLINE
  5
10f
100
AcDbEntity
  8
Camada_1
 62
1
100
AcDbSpline
 70
8
 71
3
 72
8
 73
4
 74
0
 40
0
 40
0
 40
0
 40
0
 40
1
 40
1
 40
1
 40
1
 10
0.124196
 20
2.659399
 30
0.0
 10
0.091926
 20
2.788420
 30
0.0
 10
0.091926
 20
4.905020
 30
0.0
 10
0.124196
 20
5.034041
 30
0.0
  0
SPLINE
  5
110
100
AcDbEntity
  8
Camada_1
 62
1
100
AcDbSpline
 70
8
 71
3
 72
8
 73
4
 74
0
 40
0
 40
0
 40
0
 40
0
 40
1
 40
1
 40
1
 40
1
 10
0.124196
 20
5.034041
 30
0.0
 10
0.233910
 20
5.472762
 30
0.0
 10
0.760322
 20
5.651952
 30
0.0
 10
1.114764
 20
5.371228
 30
0.0
  0
SPLINE
  5
111
100
AcDbEntity
  8
Camada_1
 62
1
100
AcDbSpline
 70
8
 71
3
 72
8
 73
4
 74
0
 40
0
 40
0
 40
0
 40
0
 40
1
 40
1
 40
1
 40
1
 10
1.114764
 20
5.371228
 30
0.0
 10
1.250542
 20
5.263690
 30
0.0
 10
1.317422
 20
5.123936
 30
0.0
 10
1.360195
 20
4.858367
 30
0.0
  0
SPLINE
  5
112
100
AcDbEntity
  8
Camada_1
 62
1
100
AcDbSpline
 70
8
 71
3
 72
8
 73
4
 74
0
 40
0
 40
0
 40
0
 40
0
 40
1
 40
1
 40
1
 40
1
 10
1.360195
 20
4.858367
 30
0.0
 10
1.367795
 20
4.810907
 30
0.0
 10
1.392395
 20
4.768997
 30
0.0
 10
1.432155
 20
4.735537
 30
0.0
  0
SPLINE
  5
113
100
AcDbEntity
  8
Camada_1
 62
1
100
AcDbSpline
 70
8
 71
3
 72
8
 73
4
 74
0
 40
0
 40
0
 40
0
 40
0
 40
1
 40
1
 40
1
 40
1
 10
5.178039
 20
4.752517
 30
0.0
 10
6.099587
 20
4.958586
 30
0.0
 10
7.026852
 20
5.439488
 30
0.0
 10
7.621181
 20
6.019589
 30
0.0
  0
SPLINE
  5
114
100
AcDbEntity
  8
Camada_1
 62
1
100
AcDbSpline
 70
8
 71
3
 72
8
 73
4
 74
0
 40
0
 40
0
 40
0
 40
0
 40
1
 40
1
 40
1
 40
1
 10
7.621181
 20
6.019589
 30
0.0
 10
7.692301
 20
6.089009
 30
0.0
 10
7.969843
 20
6.408325
 30
0.0
 10
8.237939
 20
6.729184
 30
0.0
  0
SPLINE
  5
115
100
AcDbEntity
  8
Camada_1
 62
1
100
AcDbSpline
 70
8
 71
3
 72
8
 73
4
 74
0
 40
0
 40
0
 40
0
 40
0
 40
1
 40
1
 40
1
 40
1
 10
8.237939
 20
6.729184
 30
0.0
 10
8.506036
 20
7.050043
 30
0.0
 10
8.764166
 20
7.348062
 30
0.0
 10
8.811565
 20
7.391449
 30
0.0
  0
SPLINE
  5
116
100
AcDbEntity
  8
Camada_1
 62
1
100
AcDbSpline
 70
8
 71
3
 72
8
 73
4
 74
0
 40
0
 40
0
 40
0
 40
0
 40
1
 40
1
 40
1
 40
1
 10
8.811565
 20
7.391449
 30
0.0
 10
9.245166
 20
7.788346
 30
0.0
 10
9.953518
 20
7.555041
 30
0.0
 10
10.076637
 20
6.974779
 30
0.0
  0
SPLINE
  5
117
100
AcDbEntity
  8
Camada_1
 62
1
100
AcDbSpline
 70
8
 71
3
 72
8
 73
4
 74
0
 40
0
 40
0
 40
0
 40
0
 40
1
 40
1
 40
1
 40
1
 10
10.076637
 20
6.974779
 30
0.0
 10
10.107777
 20
6.828029
 30
0.0
 10
10.107777
 20
0.865367
 30
0.0
 10
10.076637
 20
0.718618
 30
0.0
  0
SPLINE
  5
118
100
AcDbEntity
  8
Camada_1
 62
1
100
AcDbSpline
 70
8
 71
3
 72
8
 73
4
 74
0
 40
0
 40
0
 40
0
 40
0
 40
1
 40
1
 40
1
 40
1
 10
10.076637
 20
0.718618
 30
0.0
 10
10.013247
 20
0.419833
 30
0.0
 10
9.776465
 20
0.183056
 30
0.0
 10
9.477681
 20
0.119660
 30
0.0
  0
SPLINE
  5
119
100
AcDbEntity
  8
Camada_1
 62
1
100
AcDbSpline
 70
8
 71
3
 72
8
 73
4
 74
0
 40
0
 40
0
 40
0
 40
0
 40
1
 40
1
 40
1
 40
1
 10
9.477681
 20
0.119660
 30
0.0
 10
9.360192
 20
0.094730
 30
0.0
 10
9.286963
 20
0.094580
 30
0.0
 10
9.162318
 20
0.119060
 30
0.0
  0
LWPOLYLINE
  5
11a
100
AcDbEntity
  8
Camada_1
 62
1
100
AcDbPolyline
 90
5
 70
0
 10
1.432155
 20
4.735537
 30
0.0
 10
1.492505
 20
4.684747
 30
0.0
 10
3.213234
 20
4.691347
 30
0.0
 10
4.933963
 20
4.697947
 30
0.0
 10
5.178039
 20
4.752517
 30
0.0
  0
SPLINE
  5
11b
100
AcDbEntity
  8
Camada_1
 62
1
100
AcDbSpline
 70
8
 71
3
 72
8
 73
4
 74
0
 40
0
 40
0
 40
0
 40
0
 40
1
 40
1
 40
1
 40
1
 10
3.148927
 20
1.378364
 30
0.0
 10
2.802329
 20
1.471554
 30
0.0
 10
2.600610
 20
1.762996
 30
0.0
 10
2.600610
 20
2.170582
 30
0.0
  0
SPLINE
  5
11c
100
AcDbEntity
  8
Camada_1
 62
1
100
AcDbSpline
 70
8
 71
3
 72
8
 73
4
 74
0
 40
0
 40
0
 40
0
 40
0
 40
1
 40
1
 40
1
 40
1
 10
2.600610
 20
2.170582
 30
0.0
 10
2.600610
 20
2.552856
 30
0.0
 10
2.737871
 20
2.797706
 30
0.0
 10
3.030183
 20
2.936872
 30
0.0
  0
LWPOLYLINE
  5
11d
100
AcDbEntity
  8
Camada_1
 62
1
100
AcDbPolyline
 90
1
 70
1
 10
9.162318
 20
0.119060
 30
0.0
  0
SPLINE
  5
11e
100
AcDbEntity
  8
Camada_1
 62
1
100
AcDbSpline
 70
8
 71
3
 72
8
 73
4
 74
0
 40
0
 40
0
 40
0
 40
0
 40
1
 40
1
 40
1
 40
1
 10
5.920031
 20
2.936872
 30
0.0
 10
6.212343
 20
2.797706
 30
0.0
 10
6.349602
 20
2.552856
 30
0.0
 10
6.349602
 20
2.170582
 30
0.0
  0
SPLINE
  5
11f
100
AcDbEntity
  8
Camada_1
 62
1
100
AcDbSpline
 70
8
 71
3
 72
8
 73
4
 74
0
 40
0
 40
0
 40
0
 40
0
 40
1
 40
1
 40
1
 40
1
 10
6.349602
 20
2.170582
 30
0.0
 10
6.349602
 20
1.757283
 30
0.0
 10
6.147102
 20
1.469660
 30
0.0
 10
5.790776
 20
1.376849
 30
0.0
  0
SPLINE
  5
120
100
AcDbEntity
  8
Camada_1
 62
1
100
AcDbSpline
 70
8
 71
3
 72
8
 73
4
 74
0
 40
0
 40
0
 40
0
 40
0
 40
1
 40
1
 40
1
 40
1
 10
5.790776
 20
1.376849
 30
0.0
 10
5.626086
 20
1.333949
 30
0.0
 10
3.309169
 20
1.335279
 30
0.0
 10
3.148927
 20
1.378449
 30
0.0
  0
LWPOLYLINE
  5
121
100
AcDbEntity
  8
Camada_1
 62
1
100
AcDbPolyline
 90
5
 70
0
 10
3.030183
 20
2.936872
 30
0.0
 10
3.157102
 20
2.997292
 30
0.0
 10
4.475106
 20
2.997292
 30
0.0
 10
5.793112
 20
2.997292
 30
0.0
 10
5.920031
 20
2.936872
 30
0.0
  0
LWPOLYLINE
  5
122
100
AcDbEntity
  8
Camada_1
 62
1
100
AcDbPolyline
 90
1
 70
1
 10
3.148927
 20
1.378449
 30
0.0
  0
ENDSEC
  0
SECTION
  2
OBJECTS
  0
DICTIONARY
  5
C
330
0
100
AcDbDictionary
  3
ACAD_GROUP
350
D
  3
ACAD_MLINESTYLE
350
17
  0
DICTIONARY
  5
D
330
C
100
AcDbDictionary
  0
DICTIONARY
  5
1A
330
C
100
AcDbDictionary
  0
DICTIONARY
  5
17
330
C
100
AcDbDictionary
  3
STANDARD
350
18
  0
DICTIONARY
  5
19
330
C
100
AcDbDictionary
  0
ENDSEC
  0
EOF
