G04 #@! TF.GenerationSoftware,KiCad,Pcbnew,(6.0.8)*
G04 #@! TF.CreationDate,2023-06-08T11:40:43-03:00*
G04 #@! TF.ProjectId,EcoMaua_BLDC_Controller_v0,45636f4d-6175-4615-9f42-4c44435f436f,rev?*
G04 #@! TF.SameCoordinates,Original*
G04 #@! TF.FileFunction,Soldermask,Bot*
G04 #@! TF.FilePolarity,Negative*
%FSLAX46Y46*%
G04 Gerber Fmt 4.6, Leading zero omitted, Abs format (unit mm)*
G04 Created by KiCad (PCBNEW (6.0.8)) date 2023-06-08 11:40:43*
%MOMM*%
%LPD*%
G01*
G04 APERTURE LIST*
G04 Aperture macros list*
%AMRoundRect*
0 Rectangle with rounded corners*
0 $1 Rounding radius*
0 $2 $3 $4 $5 $6 $7 $8 $9 X,Y pos of 4 corners*
0 Add a 4 corners polygon primitive as box body*
4,1,4,$2,$3,$4,$5,$6,$7,$8,$9,$2,$3,0*
0 Add four circle primitives for the rounded corners*
1,1,$1+$1,$2,$3*
1,1,$1+$1,$4,$5*
1,1,$1+$1,$6,$7*
1,1,$1+$1,$8,$9*
0 Add four rect primitives between the rounded corners*
20,1,$1+$1,$2,$3,$4,$5,0*
20,1,$1+$1,$4,$5,$6,$7,0*
20,1,$1+$1,$6,$7,$8,$9,0*
20,1,$1+$1,$8,$9,$2,$3,0*%
G04 Aperture macros list end*
%ADD10C,1.750000*%
%ADD11O,2.200000X3.500000*%
%ADD12R,1.500000X2.500000*%
%ADD13O,1.500000X2.500000*%
%ADD14R,1.700000X1.700000*%
%ADD15O,1.700000X1.700000*%
%ADD16C,3.500000*%
%ADD17R,1.600000X1.600000*%
%ADD18O,1.600000X1.600000*%
%ADD19O,3.500000X3.500000*%
%ADD20R,1.905000X2.000000*%
%ADD21O,1.905000X2.000000*%
%ADD22RoundRect,0.425000X0.425000X-0.425000X0.425000X0.425000X-0.425000X0.425000X-0.425000X-0.425000X0*%
%ADD23RoundRect,0.249999X-1.550001X0.790001X-1.550001X-0.790001X1.550001X-0.790001X1.550001X0.790001X0*%
%ADD24O,3.600000X2.080000*%
%ADD25C,3.000000*%
%ADD26O,3.000000X3.000000*%
%ADD27R,2.000000X1.905000*%
%ADD28O,2.000000X1.905000*%
%ADD29C,1.905000*%
G04 APERTURE END LIST*
D10*
X132440000Y-81960000D02*
X132440000Y-85460000D01*
X109990000Y-95840000D02*
X109990000Y-89830000D01*
X124010000Y-88380000D02*
X129520000Y-88380000D01*
X129780000Y-71030000D02*
X139340000Y-71030000D01*
X142730000Y-64680000D02*
X145690000Y-64680000D01*
X119660000Y-83480000D02*
X115120000Y-88020000D01*
X129320000Y-59600000D02*
X139340000Y-59600000D01*
X127260000Y-83480000D02*
X119660000Y-83480000D01*
X129900000Y-48200000D02*
X138760000Y-48200000D01*
X126070000Y-67320000D02*
X129780000Y-71030000D01*
X109990000Y-89830000D02*
X111800000Y-88020000D01*
X114740000Y-57060000D02*
X121040000Y-57060000D01*
X142400000Y-78140000D02*
X140830000Y-79720000D01*
X114780000Y-97700000D02*
X111850000Y-97700000D01*
X129510000Y-88390000D02*
X132440000Y-85460000D01*
X142760000Y-76110000D02*
X145690000Y-76110000D01*
X119770000Y-92620000D02*
X124010000Y-88380000D01*
X142400000Y-54950000D02*
X142400000Y-78140000D01*
X114740000Y-62140000D02*
X126780000Y-62140000D01*
X111850000Y-97700000D02*
X109990000Y-95840000D01*
X126780000Y-62140000D02*
X129320000Y-59600000D01*
X144100000Y-53250000D02*
X142400000Y-54950000D01*
X111800000Y-88020000D02*
X115130000Y-88020000D01*
X135650000Y-78750000D02*
X132440000Y-81960000D01*
X121030000Y-57070000D02*
X129900000Y-48200000D01*
X114840000Y-67320000D02*
X126070000Y-67320000D01*
X114780000Y-92620000D02*
X119770000Y-92620000D01*
X145690000Y-53250000D02*
X144100000Y-53250000D01*
D11*
X122868000Y-134333500D03*
X111168000Y-134333500D03*
D12*
X114018000Y-134333500D03*
D13*
X117018000Y-134333500D03*
X120018000Y-134333500D03*
D14*
X183500000Y-108626000D03*
D15*
X183500000Y-111166000D03*
D16*
X113852700Y-80153600D03*
D14*
X193218000Y-65451000D03*
D15*
X193218000Y-62911000D03*
X193218000Y-60371000D03*
X193218000Y-57831000D03*
X193218000Y-55291000D03*
D17*
X158674000Y-95174000D03*
D18*
X158674000Y-97714000D03*
X158674000Y-100254000D03*
X158674000Y-102794000D03*
X158674000Y-105334000D03*
X158674000Y-107874000D03*
X158674000Y-110414000D03*
X158674000Y-112954000D03*
X158674000Y-115494000D03*
X158674000Y-118034000D03*
X158674000Y-120574000D03*
X158674000Y-123114000D03*
X158674000Y-125654000D03*
X158674000Y-128194000D03*
X158674000Y-130734000D03*
X173914000Y-130734000D03*
X173914000Y-128194000D03*
X173914000Y-125654000D03*
X173914000Y-123114000D03*
X173914000Y-120574000D03*
X173914000Y-118034000D03*
X173914000Y-115494000D03*
X173914000Y-112954000D03*
X173914000Y-110414000D03*
X173914000Y-107874000D03*
X173914000Y-105334000D03*
X173914000Y-102794000D03*
X173914000Y-100254000D03*
X173914000Y-97714000D03*
X173914000Y-95174000D03*
D16*
X191694000Y-133528000D03*
D19*
X117018000Y-109502000D03*
D20*
X114478000Y-126162000D03*
D21*
X117018000Y-126162000D03*
X119558000Y-126162000D03*
D16*
X171002700Y-43958600D03*
D14*
X193218000Y-83236000D03*
D15*
X193218000Y-80696000D03*
X193218000Y-78156000D03*
X193218000Y-75616000D03*
X193218000Y-73076000D03*
D16*
X113852700Y-43958600D03*
X191694000Y-43104000D03*
D14*
X183500000Y-118791000D03*
D15*
X183500000Y-121331000D03*
D16*
X101270000Y-43104000D03*
D22*
X135814000Y-135941000D03*
D14*
X153594000Y-135941000D03*
X153594000Y-96571000D03*
X135814000Y-96571000D03*
D16*
X101270000Y-133528000D03*
D23*
X114771500Y-92634000D03*
D24*
X114771500Y-97714000D03*
D25*
X127255800Y-83490000D03*
D26*
X137415800Y-83490000D03*
D16*
X171002700Y-80153600D03*
D14*
X183566000Y-128971000D03*
D15*
X183566000Y-131511000D03*
X183566000Y-134051000D03*
D14*
X193218000Y-101011000D03*
D15*
X193218000Y-98471000D03*
X193218000Y-95931000D03*
X193218000Y-93391000D03*
X193218000Y-90851000D03*
D14*
X182819000Y-83241000D03*
D15*
X185359000Y-83241000D03*
X187899000Y-83241000D03*
D14*
X182819000Y-101016000D03*
D15*
X185359000Y-101016000D03*
X187899000Y-101016000D03*
D14*
X193060000Y-118791000D03*
D15*
X193060000Y-121331000D03*
D14*
X127681000Y-134290000D03*
D15*
X130221000Y-134290000D03*
D23*
X114732000Y-57074000D03*
D24*
X114732000Y-62154000D03*
X114732000Y-67234000D03*
D14*
X193136000Y-108626000D03*
D15*
X193136000Y-111166000D03*
D27*
X145680500Y-48184000D03*
D28*
X145680500Y-50724000D03*
D29*
X145680500Y-53264000D03*
D27*
X145680500Y-71044000D03*
D28*
X145680500Y-73584000D03*
D29*
X145680500Y-76124000D03*
D27*
X139330500Y-53264000D03*
D28*
X139330500Y-50724000D03*
D29*
X139330500Y-48184000D03*
D27*
X139330500Y-64694000D03*
D28*
X139330500Y-62154000D03*
D29*
X139330500Y-59614000D03*
D27*
X145680500Y-59614000D03*
D28*
X145680500Y-62154000D03*
D29*
X145680500Y-64694000D03*
D27*
X139330500Y-76124000D03*
D28*
X139330500Y-73584000D03*
D29*
X139330500Y-71044000D03*
M02*
