G04 #@! TF.GenerationSoftware,KiCad,Pcbnew,(6.0.8)*
G04 #@! TF.CreationDate,2023-06-08T11:40:43-03:00*
G04 #@! TF.ProjectId,EcoMaua_BLDC_Controller_v0,45636f4d-6175-4615-9f42-4c44435f436f,rev?*
G04 #@! TF.SameCoordinates,Original*
G04 #@! TF.FileFunction,Paste,Top*
G04 #@! TF.FilePolarity,Positive*
%FSLAX46Y46*%
G04 Gerber Fmt 4.6, Leading zero omitted, Abs format (unit mm)*
G04 Created by KiCad (PCBNEW (6.0.8)) date 2023-06-08 11:40:43*
%MOMM*%
%LPD*%
G01*
G04 APERTURE LIST*
G04 Aperture macros list*
%AMRoundRect*
0 Rectangle with rounded corners*
0 $1 Rounding radius*
0 $2 $3 $4 $5 $6 $7 $8 $9 X,Y pos of 4 corners*
0 Add a 4 corners polygon primitive as box body*
4,1,4,$2,$3,$4,$5,$6,$7,$8,$9,$2,$3,0*
0 Add four circle primitives for the rounded corners*
1,1,$1+$1,$2,$3*
1,1,$1+$1,$4,$5*
1,1,$1+$1,$6,$7*
1,1,$1+$1,$8,$9*
0 Add four rect primitives between the rounded corners*
20,1,$1+$1,$2,$3,$4,$5,0*
20,1,$1+$1,$4,$5,$6,$7,0*
20,1,$1+$1,$6,$7,$8,$9,0*
20,1,$1+$1,$8,$9,$2,$3,0*%
G04 Aperture macros list end*
%ADD10RoundRect,0.150000X0.825000X0.150000X-0.825000X0.150000X-0.825000X-0.150000X0.825000X-0.150000X0*%
%ADD11RoundRect,0.250000X0.250000X0.475000X-0.250000X0.475000X-0.250000X-0.475000X0.250000X-0.475000X0*%
%ADD12RoundRect,0.250000X-0.262500X-0.450000X0.262500X-0.450000X0.262500X0.450000X-0.262500X0.450000X0*%
%ADD13RoundRect,0.150000X0.587500X0.150000X-0.587500X0.150000X-0.587500X-0.150000X0.587500X-0.150000X0*%
%ADD14RoundRect,0.250000X0.312500X0.625000X-0.312500X0.625000X-0.312500X-0.625000X0.312500X-0.625000X0*%
%ADD15RoundRect,0.250000X-0.550000X1.500000X-0.550000X-1.500000X0.550000X-1.500000X0.550000X1.500000X0*%
%ADD16RoundRect,0.250000X-0.475000X0.250000X-0.475000X-0.250000X0.475000X-0.250000X0.475000X0.250000X0*%
%ADD17RoundRect,0.150000X-0.150000X0.850000X-0.150000X-0.850000X0.150000X-0.850000X0.150000X0.850000X0*%
%ADD18RoundRect,0.250000X0.475000X-0.250000X0.475000X0.250000X-0.475000X0.250000X-0.475000X-0.250000X0*%
%ADD19RoundRect,0.250000X0.262500X0.450000X-0.262500X0.450000X-0.262500X-0.450000X0.262500X-0.450000X0*%
%ADD20RoundRect,0.150000X-0.825000X-0.150000X0.825000X-0.150000X0.825000X0.150000X-0.825000X0.150000X0*%
%ADD21RoundRect,0.250000X0.450000X-0.262500X0.450000X0.262500X-0.450000X0.262500X-0.450000X-0.262500X0*%
%ADD22RoundRect,0.250000X1.950000X1.000000X-1.950000X1.000000X-1.950000X-1.000000X1.950000X-1.000000X0*%
%ADD23R,1.300000X1.700000*%
%ADD24RoundRect,0.250000X-0.250000X-0.475000X0.250000X-0.475000X0.250000X0.475000X-0.250000X0.475000X0*%
%ADD25RoundRect,0.250000X-0.550000X1.250000X-0.550000X-1.250000X0.550000X-1.250000X0.550000X1.250000X0*%
%ADD26RoundRect,0.150000X-0.512500X-0.150000X0.512500X-0.150000X0.512500X0.150000X-0.512500X0.150000X0*%
%ADD27RoundRect,0.250000X-0.450000X0.262500X-0.450000X-0.262500X0.450000X-0.262500X0.450000X0.262500X0*%
%ADD28RoundRect,0.243750X-0.243750X-0.456250X0.243750X-0.456250X0.243750X0.456250X-0.243750X0.456250X0*%
G04 APERTURE END LIST*
D10*
X160601500Y-51232000D03*
X160601500Y-49962000D03*
X160601500Y-48692000D03*
X160601500Y-47422000D03*
X155651500Y-47422000D03*
X155651500Y-48692000D03*
X155651500Y-49962000D03*
X155651500Y-51232000D03*
D11*
X189088000Y-58593000D03*
X187188000Y-58593000D03*
D12*
X187225500Y-61133000D03*
X189050500Y-61133000D03*
X178269500Y-108372000D03*
X180094500Y-108372000D03*
D13*
X186296500Y-97648000D03*
X186296500Y-95748000D03*
X184421500Y-96698000D03*
D14*
X152731000Y-74092000D03*
X149806000Y-74092000D03*
D11*
X154504500Y-65329000D03*
X152604500Y-65329000D03*
D15*
X128956000Y-107206000D03*
X128956000Y-112606000D03*
D16*
X179248000Y-130561000D03*
X179248000Y-132461000D03*
D12*
X187397500Y-108372000D03*
X189222500Y-108372000D03*
X187225500Y-66213000D03*
X189050500Y-66213000D03*
D17*
X177851000Y-59654000D03*
X176581000Y-59654000D03*
X175311000Y-59654000D03*
X174041000Y-59654000D03*
X172771000Y-59654000D03*
X171501000Y-59654000D03*
X170231000Y-59654000D03*
X168961000Y-59654000D03*
X168961000Y-64654000D03*
X170231000Y-64654000D03*
X171501000Y-64654000D03*
X172771000Y-64654000D03*
X174041000Y-64654000D03*
X175311000Y-64654000D03*
X176581000Y-64654000D03*
X177851000Y-64654000D03*
D18*
X174930000Y-56754000D03*
X174930000Y-54854000D03*
D19*
X132154300Y-93675200D03*
X130329300Y-93675200D03*
D20*
X141544800Y-81585000D03*
X141544800Y-82855000D03*
X141544800Y-84125000D03*
X141544800Y-85395000D03*
X146494800Y-85395000D03*
X146494800Y-84125000D03*
X146494800Y-82855000D03*
X146494800Y-81585000D03*
D19*
X186256500Y-45136000D03*
X184431500Y-45136000D03*
D21*
X172390000Y-56716500D03*
X172390000Y-54891500D03*
D16*
X163714500Y-63363000D03*
X163714500Y-65263000D03*
D14*
X152731000Y-51105000D03*
X149806000Y-51105000D03*
D13*
X186296500Y-93584000D03*
X186296500Y-91684000D03*
X184421500Y-92634000D03*
D16*
X163714500Y-74920000D03*
X163714500Y-76820000D03*
D12*
X187397500Y-118537000D03*
X189222500Y-118537000D03*
D18*
X178232000Y-56754000D03*
X178232000Y-54854000D03*
D21*
X188915000Y-97610500D03*
X188915000Y-95785500D03*
X188915000Y-75771500D03*
X188915000Y-73946500D03*
X181803000Y-93546500D03*
X181803000Y-91721500D03*
D22*
X132100500Y-73584000D03*
X123700500Y-73584000D03*
D14*
X152731000Y-47549000D03*
X149806000Y-47549000D03*
D23*
X180490000Y-44628000D03*
X176990000Y-44628000D03*
D10*
X160601500Y-62662000D03*
X160601500Y-61392000D03*
X160601500Y-60122000D03*
X160601500Y-58852000D03*
X155651500Y-58852000D03*
X155651500Y-60122000D03*
X155651500Y-61392000D03*
X155651500Y-62662000D03*
D19*
X132154300Y-91135200D03*
X130329300Y-91135200D03*
D23*
X157138500Y-76886000D03*
X160638500Y-76886000D03*
D19*
X123850300Y-81712000D03*
X122025300Y-81712000D03*
D21*
X144450000Y-92022500D03*
X144450000Y-90197500D03*
D11*
X154504500Y-76886000D03*
X152604500Y-76886000D03*
D16*
X163714500Y-51933000D03*
X163714500Y-53833000D03*
D19*
X177620500Y-47422000D03*
X175795500Y-47422000D03*
D24*
X149419800Y-81712000D03*
X151319800Y-81712000D03*
X178232000Y-121585000D03*
X180132000Y-121585000D03*
X172710000Y-52502000D03*
X174610000Y-52502000D03*
X178232000Y-111420000D03*
X180132000Y-111420000D03*
D25*
X128956000Y-122692000D03*
X128956000Y-127092000D03*
D21*
X141656000Y-92022500D03*
X141656000Y-90197500D03*
D26*
X184206500Y-47742000D03*
X184206500Y-48692000D03*
X184206500Y-49642000D03*
X186481500Y-49642000D03*
X186481500Y-48692000D03*
X186481500Y-47742000D03*
D13*
X186296500Y-79873000D03*
X186296500Y-77973000D03*
X184421500Y-78923000D03*
D14*
X152731000Y-62535000D03*
X149806000Y-62535000D03*
D18*
X128956000Y-119238000D03*
X128956000Y-117338000D03*
D22*
X132100500Y-50724000D03*
X123700500Y-50724000D03*
D12*
X179859500Y-47422000D03*
X181684500Y-47422000D03*
D21*
X188915000Y-79835500D03*
X188915000Y-78010500D03*
D27*
X181803000Y-95785500D03*
X181803000Y-97610500D03*
X181803000Y-78010500D03*
X181803000Y-79835500D03*
D21*
X188915000Y-93546500D03*
X188915000Y-91721500D03*
D13*
X186296500Y-75809000D03*
X186296500Y-73909000D03*
X184421500Y-74859000D03*
D23*
X157138500Y-53899000D03*
X160638500Y-53899000D03*
D14*
X152731000Y-70536000D03*
X149806000Y-70536000D03*
D24*
X187360000Y-111420000D03*
X189260000Y-111420000D03*
D10*
X160601500Y-74219000D03*
X160601500Y-72949000D03*
X160601500Y-71679000D03*
X160601500Y-70409000D03*
X155651500Y-70409000D03*
X155651500Y-71679000D03*
X155651500Y-72949000D03*
X155651500Y-74219000D03*
D11*
X189088000Y-53513000D03*
X187188000Y-53513000D03*
D14*
X152731000Y-58979000D03*
X149806000Y-58979000D03*
D28*
X126240300Y-93675200D03*
X128115300Y-93675200D03*
D11*
X177658000Y-49962000D03*
X175758000Y-49962000D03*
D24*
X121987800Y-85268000D03*
X123887800Y-85268000D03*
D21*
X180772000Y-56716500D03*
X180772000Y-54891500D03*
D11*
X181722000Y-49962000D03*
X179822000Y-49962000D03*
D22*
X132100500Y-62154000D03*
X123700500Y-62154000D03*
D11*
X154504500Y-53899000D03*
X152604500Y-53899000D03*
D23*
X157138500Y-65329000D03*
X160638500Y-65329000D03*
D21*
X181803000Y-75771500D03*
X181803000Y-73946500D03*
D18*
X128956000Y-103490000D03*
X128956000Y-101590000D03*
D11*
X189088000Y-63673000D03*
X187188000Y-63673000D03*
D12*
X187225500Y-56053000D03*
X189050500Y-56053000D03*
X178269500Y-118537000D03*
X180094500Y-118537000D03*
D23*
X147018000Y-91110000D03*
X150518000Y-91110000D03*
D28*
X126240300Y-91135200D03*
X128115300Y-91135200D03*
D24*
X187360000Y-121585000D03*
X189260000Y-121585000D03*
X149419800Y-85268000D03*
X151319800Y-85268000D03*
M02*
