G04 #@! TF.GenerationSoftware,KiCad,Pcbnew,(6.0.8)*
G04 #@! TF.CreationDate,2023-06-08T11:40:43-03:00*
G04 #@! TF.ProjectId,EcoMaua_BLDC_Controller_v0,45636f4d-6175-4615-9f42-4c44435f436f,rev?*
G04 #@! TF.SameCoordinates,Original*
G04 #@! TF.FileFunction,Legend,Bot*
G04 #@! TF.FilePolarity,Positive*
%FSLAX46Y46*%
G04 Gerber Fmt 4.6, Leading zero omitted, Abs format (unit mm)*
G04 Created by KiCad (PCBNEW (6.0.8)) date 2023-06-08 11:40:43*
%MOMM*%
%LPD*%
G01*
G04 APERTURE LIST*
%ADD10C,0.150000*%
%ADD11C,0.120000*%
G04 APERTURE END LIST*
D10*
X110728500Y-40936000D02*
X174128500Y-40936000D01*
X174128500Y-40936000D02*
X174128500Y-83236000D01*
X174128500Y-83236000D02*
X110728500Y-83236000D01*
X110728500Y-83236000D02*
X110728500Y-40936000D01*
X166808119Y-50628761D02*
X166760500Y-50533523D01*
X166665261Y-50438285D01*
X166522404Y-50295428D01*
X166474785Y-50200190D01*
X166474785Y-50104952D01*
X166712880Y-50152571D02*
X166665261Y-50057333D01*
X166570023Y-49962095D01*
X166379547Y-49914476D01*
X166046214Y-49914476D01*
X165855738Y-49962095D01*
X165760500Y-50057333D01*
X165712880Y-50152571D01*
X165712880Y-50343047D01*
X165760500Y-50438285D01*
X165855738Y-50533523D01*
X166046214Y-50581142D01*
X166379547Y-50581142D01*
X166570023Y-50533523D01*
X166665261Y-50438285D01*
X166712880Y-50343047D01*
X166712880Y-50152571D01*
X165808119Y-50962095D02*
X165760500Y-51009714D01*
X165712880Y-51104952D01*
X165712880Y-51343047D01*
X165760500Y-51438285D01*
X165808119Y-51485904D01*
X165903357Y-51533523D01*
X165998595Y-51533523D01*
X166141452Y-51485904D01*
X166712880Y-50914476D01*
X166712880Y-51533523D01*
X166808119Y-73488761D02*
X166760500Y-73393523D01*
X166665261Y-73298285D01*
X166522404Y-73155428D01*
X166474785Y-73060190D01*
X166474785Y-72964952D01*
X166712880Y-73012571D02*
X166665261Y-72917333D01*
X166570023Y-72822095D01*
X166379547Y-72774476D01*
X166046214Y-72774476D01*
X165855738Y-72822095D01*
X165760500Y-72917333D01*
X165712880Y-73012571D01*
X165712880Y-73203047D01*
X165760500Y-73298285D01*
X165855738Y-73393523D01*
X166046214Y-73441142D01*
X166379547Y-73441142D01*
X166570023Y-73393523D01*
X166665261Y-73298285D01*
X166712880Y-73203047D01*
X166712880Y-73012571D01*
X165712880Y-74298285D02*
X165712880Y-74107809D01*
X165760500Y-74012571D01*
X165808119Y-73964952D01*
X165950976Y-73869714D01*
X166141452Y-73822095D01*
X166522404Y-73822095D01*
X166617642Y-73869714D01*
X166665261Y-73917333D01*
X166712880Y-74012571D01*
X166712880Y-74203047D01*
X166665261Y-74298285D01*
X166617642Y-74345904D01*
X166522404Y-74393523D01*
X166284309Y-74393523D01*
X166189071Y-74345904D01*
X166141452Y-74298285D01*
X166093833Y-74203047D01*
X166093833Y-74012571D01*
X166141452Y-73917333D01*
X166189071Y-73869714D01*
X166284309Y-73822095D01*
X119298119Y-50628761D02*
X119250500Y-50533523D01*
X119155261Y-50438285D01*
X119012404Y-50295428D01*
X118964785Y-50200190D01*
X118964785Y-50104952D01*
X119202880Y-50152571D02*
X119155261Y-50057333D01*
X119060023Y-49962095D01*
X118869547Y-49914476D01*
X118536214Y-49914476D01*
X118345738Y-49962095D01*
X118250500Y-50057333D01*
X118202880Y-50152571D01*
X118202880Y-50343047D01*
X118250500Y-50438285D01*
X118345738Y-50533523D01*
X118536214Y-50581142D01*
X118869547Y-50581142D01*
X119060023Y-50533523D01*
X119155261Y-50438285D01*
X119202880Y-50343047D01*
X119202880Y-50152571D01*
X119202880Y-51533523D02*
X119202880Y-50962095D01*
X119202880Y-51247809D02*
X118202880Y-51247809D01*
X118345738Y-51152571D01*
X118440976Y-51057333D01*
X118488595Y-50962095D01*
X119298119Y-62058761D02*
X119250500Y-61963523D01*
X119155261Y-61868285D01*
X119012404Y-61725428D01*
X118964785Y-61630190D01*
X118964785Y-61534952D01*
X119202880Y-61582571D02*
X119155261Y-61487333D01*
X119060023Y-61392095D01*
X118869547Y-61344476D01*
X118536214Y-61344476D01*
X118345738Y-61392095D01*
X118250500Y-61487333D01*
X118202880Y-61582571D01*
X118202880Y-61773047D01*
X118250500Y-61868285D01*
X118345738Y-61963523D01*
X118536214Y-62011142D01*
X118869547Y-62011142D01*
X119060023Y-61963523D01*
X119155261Y-61868285D01*
X119202880Y-61773047D01*
X119202880Y-61582571D01*
X118202880Y-62344476D02*
X118202880Y-62963523D01*
X118583833Y-62630190D01*
X118583833Y-62773047D01*
X118631452Y-62868285D01*
X118679071Y-62915904D01*
X118774309Y-62963523D01*
X119012404Y-62963523D01*
X119107642Y-62915904D01*
X119155261Y-62868285D01*
X119202880Y-62773047D01*
X119202880Y-62487333D01*
X119155261Y-62392095D01*
X119107642Y-62344476D01*
X166808119Y-62058761D02*
X166760500Y-61963523D01*
X166665261Y-61868285D01*
X166522404Y-61725428D01*
X166474785Y-61630190D01*
X166474785Y-61534952D01*
X166712880Y-61582571D02*
X166665261Y-61487333D01*
X166570023Y-61392095D01*
X166379547Y-61344476D01*
X166046214Y-61344476D01*
X165855738Y-61392095D01*
X165760500Y-61487333D01*
X165712880Y-61582571D01*
X165712880Y-61773047D01*
X165760500Y-61868285D01*
X165855738Y-61963523D01*
X166046214Y-62011142D01*
X166379547Y-62011142D01*
X166570023Y-61963523D01*
X166665261Y-61868285D01*
X166712880Y-61773047D01*
X166712880Y-61582571D01*
X166046214Y-62868285D02*
X166712880Y-62868285D01*
X165665261Y-62630190D02*
X166379547Y-62392095D01*
X166379547Y-63011142D01*
X119298119Y-73488761D02*
X119250500Y-73393523D01*
X119155261Y-73298285D01*
X119012404Y-73155428D01*
X118964785Y-73060190D01*
X118964785Y-72964952D01*
X119202880Y-73012571D02*
X119155261Y-72917333D01*
X119060023Y-72822095D01*
X118869547Y-72774476D01*
X118536214Y-72774476D01*
X118345738Y-72822095D01*
X118250500Y-72917333D01*
X118202880Y-73012571D01*
X118202880Y-73203047D01*
X118250500Y-73298285D01*
X118345738Y-73393523D01*
X118536214Y-73441142D01*
X118869547Y-73441142D01*
X119060023Y-73393523D01*
X119155261Y-73298285D01*
X119202880Y-73203047D01*
X119202880Y-73012571D01*
X118202880Y-74345904D02*
X118202880Y-73869714D01*
X118679071Y-73822095D01*
X118631452Y-73869714D01*
X118583833Y-73964952D01*
X118583833Y-74203047D01*
X118631452Y-74298285D01*
X118679071Y-74345904D01*
X118774309Y-74393523D01*
X119012404Y-74393523D01*
X119107642Y-74345904D01*
X119155261Y-74298285D01*
X119202880Y-74203047D01*
X119202880Y-73964952D01*
X119155261Y-73869714D01*
X119107642Y-73822095D01*
D11*
X149370500Y-53264000D02*
X146830500Y-53264000D01*
X149370500Y-55844000D02*
X149370500Y-45604000D01*
X165260500Y-55844000D02*
X165260500Y-45604000D01*
X149370500Y-48184000D02*
X146830500Y-48184000D01*
X149370500Y-50724000D02*
X146830500Y-50724000D01*
X165260500Y-55844000D02*
X149370500Y-55844000D01*
X165260500Y-45604000D02*
X149370500Y-45604000D01*
X149370500Y-76124000D02*
X146830500Y-76124000D01*
X149370500Y-71044000D02*
X146830500Y-71044000D01*
X165260500Y-68464000D02*
X149370500Y-68464000D01*
X165260500Y-78704000D02*
X165260500Y-68464000D01*
X149370500Y-73584000D02*
X146830500Y-73584000D01*
X165260500Y-78704000D02*
X149370500Y-78704000D01*
X149370500Y-78704000D02*
X149370500Y-68464000D01*
X119750500Y-55844000D02*
X135640500Y-55844000D01*
X119750500Y-45604000D02*
X119750500Y-55844000D01*
X135640500Y-45604000D02*
X135640500Y-55844000D01*
X135640500Y-48184000D02*
X138180500Y-48184000D01*
X135640500Y-50724000D02*
X138180500Y-50724000D01*
X135640500Y-53264000D02*
X138180500Y-53264000D01*
X119750500Y-45604000D02*
X135640500Y-45604000D01*
X135640500Y-57034000D02*
X135640500Y-67274000D01*
X119750500Y-57034000D02*
X119750500Y-67274000D01*
X135640500Y-64694000D02*
X138180500Y-64694000D01*
X119750500Y-67274000D02*
X135640500Y-67274000D01*
X119750500Y-57034000D02*
X135640500Y-57034000D01*
X135640500Y-62154000D02*
X138180500Y-62154000D01*
X135640500Y-59614000D02*
X138180500Y-59614000D01*
X149370500Y-62154000D02*
X146830500Y-62154000D01*
X149370500Y-67274000D02*
X149370500Y-57034000D01*
X165260500Y-67274000D02*
X149370500Y-67274000D01*
X165260500Y-67274000D02*
X165260500Y-57034000D01*
X149370500Y-59614000D02*
X146830500Y-59614000D01*
X165260500Y-57034000D02*
X149370500Y-57034000D01*
X149370500Y-64694000D02*
X146830500Y-64694000D01*
X135640500Y-73584000D02*
X138180500Y-73584000D01*
X119750500Y-68464000D02*
X119750500Y-78704000D01*
X135640500Y-71044000D02*
X138180500Y-71044000D01*
X119750500Y-78704000D02*
X135640500Y-78704000D01*
X119750500Y-68464000D02*
X135640500Y-68464000D01*
X135640500Y-76124000D02*
X138180500Y-76124000D01*
X135640500Y-68464000D02*
X135640500Y-78704000D01*
G36*
X131022351Y-128596739D02*
G01*
X130993021Y-128626069D01*
X130963691Y-128596739D01*
X130993021Y-128567408D01*
X131022351Y-128596739D01*
G37*
G36*
X123590830Y-126242602D02*
G01*
X123631127Y-126328532D01*
X123625616Y-126388922D01*
X123592020Y-126475184D01*
X123565042Y-126498888D01*
X123508205Y-126503876D01*
X123421626Y-126430490D01*
X123348020Y-126328086D01*
X123364414Y-126249464D01*
X123484476Y-126220988D01*
X123590830Y-126242602D01*
G37*
G36*
X140290712Y-124490503D02*
G01*
X140261381Y-124519833D01*
X140232051Y-124490503D01*
X140261381Y-124461173D01*
X140290712Y-124490503D01*
G37*
G36*
X134190019Y-131823067D02*
G01*
X134160689Y-131852397D01*
X134131358Y-131823067D01*
X134160689Y-131793736D01*
X134190019Y-131823067D01*
G37*
G36*
X132956490Y-131676439D02*
G01*
X132999125Y-131729299D01*
X133016809Y-131853193D01*
X133031829Y-132000842D01*
X133075469Y-132146495D01*
X133114581Y-132224189D01*
X133192790Y-132379545D01*
X133248620Y-132580536D01*
X133197072Y-132777096D01*
X133167287Y-132838139D01*
X133110923Y-132981612D01*
X133110088Y-132984241D01*
X133055237Y-133064292D01*
X132989810Y-133082337D01*
X132958148Y-133025607D01*
X132962382Y-133005545D01*
X133028021Y-132966946D01*
X133054766Y-132952524D01*
X133006190Y-132893621D01*
X132966162Y-132854785D01*
X132876321Y-132706910D01*
X132816451Y-132522998D01*
X132792402Y-132338178D01*
X132810018Y-132187581D01*
X132875149Y-132106337D01*
X132898944Y-132094702D01*
X132942801Y-132021583D01*
X132931152Y-131873536D01*
X132930101Y-131867842D01*
X132920787Y-131727786D01*
X132955490Y-131676415D01*
X132956490Y-131676439D01*
G37*
G36*
X140095177Y-124598047D02*
G01*
X140104354Y-124615691D01*
X140056070Y-124637154D01*
X140025015Y-124632921D01*
X140016963Y-124598047D01*
X140025560Y-124591027D01*
X140095177Y-124598047D01*
G37*
G36*
X135323073Y-113452575D02*
G01*
X135311318Y-113503309D01*
X135392559Y-113574370D01*
X135401637Y-113579649D01*
X135482874Y-113626892D01*
X135573860Y-113642085D01*
X135599942Y-113637008D01*
X135705667Y-113661752D01*
X135723190Y-113676696D01*
X135740276Y-113767543D01*
X135693186Y-113880983D01*
X135604697Y-113977892D01*
X135497589Y-114019145D01*
X135484906Y-114019865D01*
X135354779Y-114070538D01*
X135222488Y-114176505D01*
X135081670Y-114286088D01*
X134824156Y-114374475D01*
X134424578Y-114410916D01*
X133913329Y-114367404D01*
X133444589Y-114218899D01*
X133362358Y-114177743D01*
X133249560Y-114101988D01*
X133205469Y-114043224D01*
X133247989Y-114019602D01*
X133265016Y-114017348D01*
X133310111Y-113960942D01*
X133300184Y-113933956D01*
X133222121Y-113902281D01*
X133181728Y-113896344D01*
X133134130Y-113849415D01*
X133129681Y-113835782D01*
X133059640Y-113764588D01*
X132931529Y-113677011D01*
X132869607Y-113639958D01*
X132791228Y-113579649D01*
X133192790Y-113579649D01*
X133222121Y-113608979D01*
X133251451Y-113579649D01*
X133222121Y-113550318D01*
X133192790Y-113579649D01*
X132791228Y-113579649D01*
X132778429Y-113569801D01*
X132765843Y-113498756D01*
X132803966Y-113410509D01*
X133486093Y-113410509D01*
X133486401Y-113413811D01*
X133535401Y-113434596D01*
X133623850Y-113420031D01*
X133688024Y-113379807D01*
X133682885Y-113353456D01*
X133603495Y-113357319D01*
X133534463Y-113379698D01*
X133486093Y-113410509D01*
X132803966Y-113410509D01*
X132815090Y-113384759D01*
X132854642Y-113323584D01*
X132894001Y-113290505D01*
X133838056Y-113290505D01*
X133838601Y-113293158D01*
X133900110Y-113306603D01*
X134041938Y-113298841D01*
X134233207Y-113274955D01*
X134443045Y-113240026D01*
X134640576Y-113199135D01*
X134794924Y-113157365D01*
X134875216Y-113119798D01*
X134879535Y-113108138D01*
X134821740Y-113095937D01*
X134688633Y-113109235D01*
X134598161Y-113124334D01*
X134289354Y-113179245D01*
X134049184Y-113227492D01*
X133893475Y-113265703D01*
X133838056Y-113290505D01*
X132894001Y-113290505D01*
X133034958Y-113172040D01*
X133322952Y-113031877D01*
X133711799Y-112906731D01*
X133830223Y-112882673D01*
X134090697Y-112858107D01*
X134385483Y-112854944D01*
X134676935Y-112871752D01*
X134927408Y-112907096D01*
X135099257Y-112959545D01*
X135275238Y-113048313D01*
X135099257Y-113082565D01*
X134989865Y-113106824D01*
X134988871Y-113108138D01*
X134973264Y-113128778D01*
X135055261Y-113161539D01*
X135153623Y-113181147D01*
X135296393Y-113171620D01*
X135400285Y-113174798D01*
X135545700Y-113255773D01*
X135562288Y-113270177D01*
X135620155Y-113334093D01*
X135596188Y-113343827D01*
X135514689Y-113343513D01*
X135433331Y-113379807D01*
X135390876Y-113398746D01*
X135323073Y-113452575D01*
G37*
G36*
X132181953Y-129128913D02*
G01*
X132273792Y-129234374D01*
X132295844Y-129260253D01*
X132381956Y-129349523D01*
X132433633Y-129357430D01*
X132483218Y-129293035D01*
X132521301Y-129243480D01*
X132531474Y-129279676D01*
X132514830Y-129417986D01*
X132508435Y-129458995D01*
X132477125Y-129627600D01*
X132448590Y-129740619D01*
X132431219Y-129756170D01*
X132379394Y-129708607D01*
X132310686Y-129586468D01*
X132237403Y-129413246D01*
X132171853Y-129212430D01*
X132161150Y-129173542D01*
X132149720Y-129109780D01*
X132181953Y-129128913D01*
G37*
G36*
X129839879Y-114606207D02*
G01*
X129831702Y-114686902D01*
X129810292Y-114679533D01*
X129802544Y-114652980D01*
X129810292Y-114532882D01*
X129830661Y-114522931D01*
X129839879Y-114606207D01*
G37*
G36*
X142030973Y-123424837D02*
G01*
X142040151Y-123442481D01*
X141991866Y-123463944D01*
X141960812Y-123459711D01*
X141952759Y-123424837D01*
X141961357Y-123417817D01*
X142030973Y-123424837D01*
G37*
G36*
X131563230Y-134066831D02*
G01*
X131622529Y-134151441D01*
X131705911Y-134198817D01*
X131767208Y-134235048D01*
X131782368Y-134322339D01*
X131733854Y-134399446D01*
X131687629Y-134473163D01*
X131647330Y-134608220D01*
X131646845Y-134610624D01*
X131592174Y-134745042D01*
X131493102Y-134785422D01*
X131422508Y-134801765D01*
X131369251Y-134888078D01*
X131362349Y-135018190D01*
X131342211Y-135286863D01*
X131315290Y-135474118D01*
X131276941Y-135605905D01*
X131222522Y-135708174D01*
X131157504Y-135798950D01*
X131115140Y-135822582D01*
X131091928Y-135760350D01*
X131092231Y-135692692D01*
X131146867Y-135602223D01*
X131179031Y-135572749D01*
X131178779Y-135508902D01*
X131145328Y-135498101D01*
X131077822Y-135549708D01*
X131071739Y-135559042D01*
X131019912Y-135606087D01*
X130964589Y-135548009D01*
X130925807Y-135502038D01*
X130905929Y-135533732D01*
X130905737Y-135537211D01*
X130859972Y-135626284D01*
X130758379Y-135734957D01*
X130643865Y-135852711D01*
X130619916Y-135931594D01*
X130698601Y-135958632D01*
X130745600Y-135974509D01*
X130810015Y-136075407D01*
X130838081Y-136242269D01*
X130821730Y-136443332D01*
X130795961Y-136611599D01*
X130785195Y-136765214D01*
X130769326Y-136847168D01*
X130699062Y-136897200D01*
X130659194Y-136890690D01*
X130611728Y-136838540D01*
X130573117Y-136799451D01*
X130460887Y-136779879D01*
X130327320Y-136754141D01*
X130194690Y-136658596D01*
X130142444Y-136520097D01*
X130122139Y-136466444D01*
X130025123Y-136427916D01*
X129957455Y-136423368D01*
X129912405Y-136384410D01*
X129969941Y-136293454D01*
X129978737Y-136282920D01*
X130055097Y-136175200D01*
X130146826Y-136029054D01*
X130170587Y-135991592D01*
X130256143Y-135893043D01*
X130319329Y-135871200D01*
X130330175Y-135874624D01*
X130364467Y-135822896D01*
X130377984Y-135683457D01*
X130380847Y-135589596D01*
X130398377Y-135518900D01*
X130435746Y-135548009D01*
X130443751Y-135560258D01*
X130484156Y-135603240D01*
X130493509Y-135539082D01*
X130493510Y-135538990D01*
X130545078Y-135452400D01*
X130670388Y-135380817D01*
X130674720Y-135379300D01*
X130787007Y-135324845D01*
X130835761Y-135240052D01*
X130846370Y-135081776D01*
X130847984Y-135026470D01*
X130868491Y-134896167D01*
X130905030Y-134844083D01*
X130939125Y-134822083D01*
X130963691Y-134726762D01*
X130982972Y-134650920D01*
X131081012Y-134609441D01*
X131149202Y-134598441D01*
X131198333Y-134550780D01*
X131217270Y-134518040D01*
X131308812Y-134492120D01*
X131391333Y-134460142D01*
X131463919Y-134323188D01*
X131494805Y-134081496D01*
X131499576Y-133934845D01*
X131563230Y-134066831D01*
G37*
G36*
X131432975Y-127553650D02*
G01*
X131436687Y-127592397D01*
X131468581Y-127712033D01*
X131478470Y-127761542D01*
X131445527Y-127804822D01*
X131435359Y-127803992D01*
X131367652Y-127746505D01*
X131340927Y-127641297D01*
X131372391Y-127548639D01*
X131409295Y-127520233D01*
X131432975Y-127553650D01*
G37*
G36*
X131999305Y-129692941D02*
G01*
X132006401Y-129790245D01*
X132005684Y-129966499D01*
X131996987Y-130195237D01*
X131970418Y-130708517D01*
X132322222Y-131431502D01*
X132444123Y-131690013D01*
X132560781Y-131963373D01*
X132625353Y-132154057D01*
X132634297Y-132252749D01*
X132629816Y-132262549D01*
X132592045Y-132278268D01*
X132533018Y-132203616D01*
X132444074Y-132028378D01*
X132384132Y-131901147D01*
X132254418Y-131630933D01*
X132132910Y-131383113D01*
X132067405Y-131243503D01*
X131967369Y-131002343D01*
X131896109Y-130796508D01*
X131871105Y-130715279D01*
X131817923Y-130572559D01*
X131777780Y-130502618D01*
X131736924Y-130430786D01*
X131696853Y-130297306D01*
X131684313Y-130235439D01*
X131682967Y-130173789D01*
X131720635Y-130209903D01*
X131739061Y-130234451D01*
X131774795Y-130251585D01*
X131784040Y-130162994D01*
X131786210Y-130133118D01*
X131819034Y-129999690D01*
X131876956Y-129851596D01*
X131941388Y-129731474D01*
X131993744Y-129681958D01*
X131999305Y-129692941D01*
G37*
G36*
X129203876Y-137601127D02*
G01*
X129199642Y-137632181D01*
X129164769Y-137640234D01*
X129157748Y-137631636D01*
X129164769Y-137562020D01*
X129182413Y-137552842D01*
X129203876Y-137601127D01*
G37*
G36*
X135128587Y-137471739D02*
G01*
X135125645Y-137489380D01*
X135079982Y-137594664D01*
X134996601Y-137736624D01*
X134916354Y-137842985D01*
X134837974Y-137907372D01*
X134799621Y-137891392D01*
X134818510Y-137789895D01*
X134854408Y-137720914D01*
X134933892Y-137614556D01*
X135024070Y-137519120D01*
X135097961Y-137462287D01*
X135128587Y-137471739D01*
G37*
G36*
X138303737Y-137029187D02*
G01*
X138285450Y-137051898D01*
X138207468Y-137127254D01*
X138178933Y-137109695D01*
X138200347Y-137079402D01*
X138281589Y-137007039D01*
X138324092Y-136974270D01*
X138354469Y-136959704D01*
X138303737Y-137029187D01*
G37*
G36*
X139105970Y-128217948D02*
G01*
X139106580Y-128391427D01*
X139102288Y-128522193D01*
X139089895Y-128681026D01*
X139073501Y-128763166D01*
X139027421Y-128799213D01*
X138987953Y-128758339D01*
X138973117Y-128670607D01*
X138997459Y-128572494D01*
X139032320Y-128482138D01*
X139032110Y-128395632D01*
X139024610Y-128329752D01*
X139055855Y-128206198D01*
X139069330Y-128175459D01*
X139094621Y-128149856D01*
X139105970Y-128217948D01*
G37*
G36*
X145452836Y-127599510D02*
G01*
X145423506Y-127628840D01*
X145394176Y-127599510D01*
X145423506Y-127570180D01*
X145452836Y-127599510D01*
G37*
G36*
X139108239Y-126103667D02*
G01*
X139100062Y-126184362D01*
X139078652Y-126176993D01*
X139070904Y-126150440D01*
X139078652Y-126030341D01*
X139099021Y-126020391D01*
X139108239Y-126103667D01*
G37*
G36*
X138016517Y-137016776D02*
G01*
X138061612Y-137073182D01*
X138060940Y-137086457D01*
X138035744Y-137131843D01*
X138026334Y-137129143D01*
X137973622Y-137073182D01*
X137964456Y-137050459D01*
X137999490Y-137014522D01*
X138016517Y-137016776D01*
G37*
G36*
X140728321Y-135909899D02*
G01*
X140759996Y-135987963D01*
X140766443Y-136028419D01*
X140817204Y-136075953D01*
X140843815Y-136111633D01*
X140814455Y-136233656D01*
X140777591Y-136366005D01*
X140763739Y-136512293D01*
X140771353Y-136644978D01*
X140763341Y-136805008D01*
X140722380Y-136877547D01*
X140642675Y-136880204D01*
X140572070Y-136872518D01*
X140525354Y-136902692D01*
X140523689Y-136915254D01*
X140466693Y-136955861D01*
X140413897Y-136925027D01*
X140432759Y-136824670D01*
X140526160Y-136645035D01*
X140544443Y-136612483D01*
X140612028Y-136454877D01*
X140634187Y-136333714D01*
X140630412Y-136283485D01*
X140631636Y-136091231D01*
X140656887Y-135952989D01*
X140701335Y-135899972D01*
X140728321Y-135909899D01*
G37*
G36*
X139352144Y-130239233D02*
G01*
X139322813Y-130268563D01*
X139293483Y-130239233D01*
X139322813Y-130209903D01*
X139352144Y-130239233D01*
G37*
G36*
X139989751Y-122877339D02*
G01*
X139989812Y-122879484D01*
X139983356Y-123062961D01*
X139959828Y-123216964D01*
X139941652Y-123278584D01*
X139912413Y-123336792D01*
X139899738Y-123298671D01*
X139905378Y-123178102D01*
X139931083Y-122988964D01*
X139947120Y-122895307D01*
X139970370Y-122785386D01*
X139983390Y-122781661D01*
X139989751Y-122877339D01*
G37*
G36*
X130346610Y-125708183D02*
G01*
X130431254Y-125819513D01*
X130517586Y-125959418D01*
X130584710Y-126095148D01*
X130611728Y-126193954D01*
X130603109Y-126236804D01*
X130553067Y-126250318D01*
X130529842Y-126228951D01*
X130494407Y-126128739D01*
X130494393Y-126126891D01*
X130459288Y-125995369D01*
X130379921Y-125844538D01*
X130290794Y-125740228D01*
X130272979Y-125723139D01*
X130271894Y-125661361D01*
X130284551Y-125658177D01*
X130346610Y-125708183D01*
G37*
G36*
X134494235Y-116079899D02*
G01*
X134541982Y-116131381D01*
X134540402Y-116145298D01*
X134486783Y-116190041D01*
X134470326Y-116187804D01*
X134395331Y-116131381D01*
X134389812Y-116101158D01*
X134450529Y-116072720D01*
X134494235Y-116079899D01*
G37*
G36*
X130803730Y-126555627D02*
G01*
X130846370Y-126635074D01*
X130844691Y-126648170D01*
X130787709Y-126690272D01*
X130759676Y-126679079D01*
X130729049Y-126598819D01*
X130737490Y-126556919D01*
X130787709Y-126543621D01*
X130803730Y-126555627D01*
G37*
G36*
X131678616Y-129641886D02*
G01*
X131705768Y-129663001D01*
X131643175Y-129677327D01*
X131583678Y-129673179D01*
X131566183Y-129646517D01*
X131586937Y-129634893D01*
X131678616Y-129641886D01*
G37*
G36*
X130131008Y-122202743D02*
G01*
X130131089Y-122216635D01*
X130123224Y-122308466D01*
X130103966Y-122306516D01*
X130093205Y-122258315D01*
X130101793Y-122130534D01*
X130104695Y-122120448D01*
X130122549Y-122111763D01*
X130131008Y-122202743D01*
G37*
G36*
X123924430Y-123375953D02*
G01*
X123895100Y-123405284D01*
X123865769Y-123375953D01*
X123895100Y-123346623D01*
X123924430Y-123375953D01*
G37*
G36*
X129321197Y-128483129D02*
G01*
X129386089Y-128489595D01*
X129649205Y-128523538D01*
X129956313Y-128571441D01*
X130253593Y-128625109D01*
X130392169Y-128651061D01*
X130618646Y-128687737D01*
X130788387Y-128707739D01*
X130872380Y-128707217D01*
X130933358Y-128738841D01*
X131017666Y-128844142D01*
X131103984Y-128988048D01*
X131171233Y-129135393D01*
X131198333Y-129251010D01*
X131186097Y-129302374D01*
X131136308Y-129295708D01*
X131064593Y-129211306D01*
X130988829Y-129065036D01*
X130962788Y-129004590D01*
X130915424Y-128928930D01*
X130843001Y-128889840D01*
X130714766Y-128875242D01*
X130499965Y-128873060D01*
X130397421Y-128871169D01*
X130108671Y-128841284D01*
X129902555Y-128778895D01*
X129901082Y-128778163D01*
X129714939Y-128711421D01*
X129532161Y-128682271D01*
X129510156Y-128681243D01*
X129328837Y-128642077D01*
X129145215Y-128564520D01*
X128939903Y-128449228D01*
X129321197Y-128483129D01*
G37*
G36*
X138651775Y-136553120D02*
G01*
X138654866Y-136566685D01*
X138666238Y-136712256D01*
X138662555Y-136926572D01*
X138644317Y-137168396D01*
X138640736Y-137202916D01*
X138617497Y-137445432D01*
X138600327Y-137655790D01*
X138592720Y-137791773D01*
X138572544Y-137900965D01*
X138501566Y-137953090D01*
X138500583Y-137953085D01*
X138428392Y-137911073D01*
X138419295Y-137827853D01*
X138480228Y-137764667D01*
X138515778Y-137725379D01*
X138475380Y-137627793D01*
X138441362Y-137549345D01*
X138442936Y-137430566D01*
X138495335Y-137249164D01*
X138534473Y-137132294D01*
X138557388Y-137020814D01*
X138532752Y-136951620D01*
X138456188Y-136883840D01*
X138453520Y-136881758D01*
X138385422Y-136810903D01*
X138401962Y-136781184D01*
X138409523Y-136780202D01*
X138479869Y-136718261D01*
X138544569Y-136589892D01*
X138610799Y-136399904D01*
X138651775Y-136553120D01*
G37*
G36*
X139000181Y-131881727D02*
G01*
X138970850Y-131911057D01*
X138941520Y-131881727D01*
X138970850Y-131852397D01*
X139000181Y-131881727D01*
G37*
G36*
X141405261Y-123727916D02*
G01*
X141375931Y-123757247D01*
X141346601Y-123727916D01*
X141375931Y-123698586D01*
X141405261Y-123727916D01*
G37*
G36*
X142519811Y-127012905D02*
G01*
X142490481Y-127042235D01*
X142461151Y-127012905D01*
X142490481Y-126983575D01*
X142519811Y-127012905D01*
G37*
G36*
X129731820Y-124725145D02*
G01*
X129702490Y-124754475D01*
X129673160Y-124725145D01*
X129702490Y-124695815D01*
X129731820Y-124725145D01*
G37*
G36*
X131843599Y-129535307D02*
G01*
X131814268Y-129564637D01*
X131784938Y-129535307D01*
X131814268Y-129505976D01*
X131843599Y-129535307D01*
G37*
G36*
X147496692Y-129388655D02*
G01*
X147488515Y-129469350D01*
X147467105Y-129461981D01*
X147459357Y-129435428D01*
X147467105Y-129315330D01*
X147487473Y-129305379D01*
X147496692Y-129388655D01*
G37*
G36*
X129806809Y-129975293D02*
G01*
X129878653Y-129985214D01*
X129899442Y-130028992D01*
X129868154Y-130130038D01*
X129783766Y-130311765D01*
X129739224Y-130399395D01*
X129672844Y-130511245D01*
X129636923Y-130545182D01*
X129631648Y-130523921D01*
X129633925Y-130414452D01*
X129651611Y-130248818D01*
X129679055Y-130099038D01*
X129725288Y-130001911D01*
X129798454Y-129975261D01*
X129806809Y-129975293D01*
G37*
G36*
X122051098Y-137201459D02*
G01*
X122085156Y-137202860D01*
X122267460Y-137217707D01*
X122394681Y-137256953D01*
X122511063Y-137341780D01*
X122660853Y-137493369D01*
X122909422Y-137712513D01*
X123159954Y-137835260D01*
X123218459Y-137851857D01*
X123345737Y-137895650D01*
X123396485Y-137926020D01*
X123395050Y-137927373D01*
X123322520Y-137935526D01*
X123153143Y-137942588D01*
X122904614Y-137948146D01*
X122594626Y-137951785D01*
X122240873Y-137953090D01*
X122165055Y-137953037D01*
X121758650Y-137950258D01*
X121461075Y-137942946D01*
X121265071Y-137930680D01*
X121163384Y-137913038D01*
X121148754Y-137889597D01*
X121151729Y-137886802D01*
X121255438Y-137840810D01*
X121409793Y-137816272D01*
X121480937Y-137810081D01*
X121586399Y-137769500D01*
X121626119Y-137674190D01*
X121621601Y-137588824D01*
X121552794Y-137506598D01*
X121508548Y-137477122D01*
X121465320Y-137374874D01*
X121474168Y-137321962D01*
X121500910Y-137355934D01*
X121502772Y-137360385D01*
X121545933Y-137387177D01*
X121617891Y-137310561D01*
X121646011Y-137274756D01*
X121722932Y-137221386D01*
X121846292Y-137199893D01*
X122051098Y-137201459D01*
G37*
G36*
X139376823Y-129979866D02*
G01*
X139381474Y-130033921D01*
X139369434Y-130051476D01*
X139319351Y-130092582D01*
X139313497Y-130091056D01*
X139293483Y-130033921D01*
X139295870Y-130017843D01*
X139355606Y-129975261D01*
X139376823Y-129979866D01*
G37*
G36*
X141698564Y-123551935D02*
G01*
X141669234Y-123581265D01*
X141639903Y-123551935D01*
X141669234Y-123522605D01*
X141698564Y-123551935D01*
G37*
G36*
X120287478Y-137689117D02*
G01*
X120258148Y-137718448D01*
X120228818Y-137689117D01*
X120258148Y-137659787D01*
X120287478Y-137689117D01*
G37*
G36*
X139117502Y-136809210D02*
G01*
X139088171Y-136838540D01*
X139058841Y-136809210D01*
X139088171Y-136779879D01*
X139117502Y-136809210D01*
G37*
G36*
X132113724Y-128842031D02*
G01*
X132159493Y-128889864D01*
X132120030Y-128983249D01*
X132055046Y-129076591D01*
X132025732Y-129069475D01*
X132019580Y-128950543D01*
X132038453Y-128848874D01*
X132104810Y-128838438D01*
X132113724Y-128842031D01*
G37*
G36*
X130318425Y-126396970D02*
G01*
X130314192Y-126428024D01*
X130279318Y-126436077D01*
X130272298Y-126427479D01*
X130279318Y-126357863D01*
X130296962Y-126348685D01*
X130318425Y-126396970D01*
G37*
G36*
X138633376Y-133475238D02*
G01*
X138634478Y-133587301D01*
X138616627Y-133753487D01*
X138595496Y-133864375D01*
X138546456Y-133992783D01*
X138490015Y-134016593D01*
X138432743Y-133929513D01*
X138431251Y-133925068D01*
X138434503Y-133830350D01*
X138470940Y-133697867D01*
X138525207Y-133565529D01*
X138581946Y-133471244D01*
X138625802Y-133452922D01*
X138633376Y-133475238D01*
G37*
G36*
X129897166Y-126127607D02*
G01*
X129849141Y-126132997D01*
X129826274Y-126124002D01*
X129790481Y-126161312D01*
X129803822Y-126214313D01*
X129856960Y-126356350D01*
X129938905Y-126553044D01*
X130037009Y-126775186D01*
X130138626Y-126993566D01*
X130231108Y-127178975D01*
X130291848Y-127324350D01*
X130318425Y-127450430D01*
X130329731Y-127512308D01*
X130402929Y-127625946D01*
X130442472Y-127677891D01*
X130451621Y-127789403D01*
X130440929Y-127836362D01*
X130471994Y-127848004D01*
X130513906Y-127867861D01*
X130539147Y-127970367D01*
X130543427Y-128055961D01*
X130530438Y-128083398D01*
X130483279Y-128010134D01*
X130434709Y-127933517D01*
X130375495Y-127863482D01*
X130372569Y-127861127D01*
X130316525Y-127780898D01*
X130234051Y-127629295D01*
X130141477Y-127440822D01*
X130055134Y-127249984D01*
X129991352Y-127091287D01*
X129966462Y-126999236D01*
X129965748Y-126990590D01*
X129931277Y-126885033D01*
X129855350Y-126715036D01*
X129752250Y-126513019D01*
X129667782Y-126358798D01*
X129579278Y-126218383D01*
X129498642Y-126140673D01*
X129398528Y-126101932D01*
X129251591Y-126078422D01*
X129150106Y-126061731D01*
X129028331Y-126028309D01*
X129012798Y-126014497D01*
X129685693Y-126014497D01*
X129692713Y-126084114D01*
X129710357Y-126093291D01*
X129731820Y-126045006D01*
X129727587Y-126013952D01*
X129692713Y-126005899D01*
X129685693Y-126014497D01*
X129012798Y-126014497D01*
X128992384Y-125996345D01*
X129000476Y-125975615D01*
X128980807Y-125863820D01*
X128901502Y-125726274D01*
X128788121Y-125600112D01*
X128666220Y-125522467D01*
X128569423Y-125495375D01*
X128463510Y-125509971D01*
X128349058Y-125603960D01*
X128260533Y-125721951D01*
X128206647Y-125947167D01*
X128200467Y-126038058D01*
X128134491Y-126193912D01*
X127986564Y-126280827D01*
X127744610Y-126308238D01*
X127474799Y-126308979D01*
X127491650Y-126543621D01*
X127499974Y-126636694D01*
X127527469Y-126866805D01*
X127562162Y-127100896D01*
X127579684Y-127209342D01*
X127619642Y-127474141D01*
X127651895Y-127709089D01*
X127687968Y-127994650D01*
X127889246Y-127961987D01*
X128016075Y-127945770D01*
X128047928Y-127961894D01*
X127999833Y-128020016D01*
X127926024Y-128066876D01*
X127793922Y-128080578D01*
X127725350Y-128072909D01*
X127678703Y-128102358D01*
X127642172Y-128120830D01*
X127540926Y-128091495D01*
X127498497Y-128069359D01*
X127436621Y-128005662D01*
X127406120Y-127892807D01*
X127394368Y-127696794D01*
X127381789Y-127451682D01*
X127356486Y-127143805D01*
X127322539Y-126814585D01*
X127283856Y-126498636D01*
X127244343Y-126230572D01*
X127207908Y-126045006D01*
X127207873Y-126044866D01*
X127161146Y-125835845D01*
X127121726Y-125621604D01*
X127121226Y-125618431D01*
X127082776Y-125455102D01*
X127014425Y-125344951D01*
X126894320Y-125275177D01*
X126700611Y-125232983D01*
X126411449Y-125205570D01*
X126153209Y-125191747D01*
X125953625Y-125196023D01*
X125798717Y-125223568D01*
X125651451Y-125277909D01*
X125577239Y-125308087D01*
X125434438Y-125349769D01*
X125354402Y-125349150D01*
X125337738Y-125321313D01*
X125316706Y-125190075D01*
X125312495Y-124976757D01*
X125326104Y-124704121D01*
X125353285Y-124657630D01*
X125466410Y-124658100D01*
X125478865Y-124660918D01*
X125605202Y-124682097D01*
X125816746Y-124711898D01*
X126087212Y-124746764D01*
X126390313Y-124783138D01*
X127028645Y-124861558D01*
X127734067Y-124962127D01*
X128338744Y-125066131D01*
X128851913Y-125175041D01*
X128929379Y-125193366D01*
X129173885Y-125250079D01*
X129380778Y-125296494D01*
X129511843Y-125323988D01*
X129540075Y-125329479D01*
X129649819Y-125363800D01*
X129651820Y-125415813D01*
X129551080Y-125509120D01*
X129492219Y-125562640D01*
X129460577Y-125644855D01*
X129502219Y-125768672D01*
X129514515Y-125794436D01*
X129591111Y-125890660D01*
X129690283Y-125892920D01*
X129761907Y-125884452D01*
X129855567Y-125936073D01*
X129862220Y-125947021D01*
X129899179Y-126045006D01*
X129901958Y-126052374D01*
X129897166Y-126127607D01*
G37*
G36*
X133368772Y-134932073D02*
G01*
X133339442Y-134961404D01*
X133310111Y-134932073D01*
X133339442Y-134902743D01*
X133368772Y-134932073D01*
G37*
G36*
X140584014Y-134814752D02*
G01*
X140554684Y-134844083D01*
X140525354Y-134814752D01*
X140554684Y-134785422D01*
X140584014Y-134814752D01*
G37*
G36*
X131742130Y-128256763D02*
G01*
X131784938Y-128339690D01*
X131780419Y-128359415D01*
X131726278Y-128362097D01*
X131710425Y-128350109D01*
X131667617Y-128267182D01*
X131672137Y-128247457D01*
X131726278Y-128244776D01*
X131742130Y-128256763D01*
G37*
G36*
X135166929Y-120292999D02*
G01*
X135213409Y-120322783D01*
X135231219Y-120345011D01*
X135143252Y-120324455D01*
X135057160Y-120314078D01*
X135011266Y-120360761D01*
X135007569Y-120387343D01*
X134971181Y-120393067D01*
X134948737Y-120352138D01*
X134980905Y-120293945D01*
X135066939Y-120267432D01*
X135166929Y-120292999D01*
G37*
G36*
X130611728Y-125253090D02*
G01*
X130582398Y-125282420D01*
X130553067Y-125253090D01*
X130582398Y-125223759D01*
X130611728Y-125253090D01*
G37*
G36*
X124842484Y-127544376D02*
G01*
X124853640Y-127658964D01*
X124831582Y-127874392D01*
X124827078Y-127906013D01*
X124798821Y-128060958D01*
X124772070Y-128111518D01*
X124741693Y-128068794D01*
X124709010Y-127949881D01*
X124692898Y-127775561D01*
X124706649Y-127623086D01*
X124749580Y-127538437D01*
X124795053Y-127518086D01*
X124842484Y-127544376D01*
G37*
G36*
X135518679Y-126100734D02*
G01*
X135521341Y-126128590D01*
X135498380Y-126098496D01*
X135469059Y-126066586D01*
X135410323Y-126111695D01*
X135370569Y-126159382D01*
X135374895Y-126113933D01*
X135402268Y-126062840D01*
X135470728Y-126039996D01*
X135518679Y-126100734D01*
G37*
G36*
X124100412Y-126602281D02*
G01*
X124071081Y-126631612D01*
X124041751Y-126602281D01*
X124071081Y-126572951D01*
X124100412Y-126602281D01*
G37*
G36*
X132548542Y-129865920D02*
G01*
X132634219Y-130000587D01*
X132674926Y-130072140D01*
X132733419Y-130208628D01*
X132740362Y-130288747D01*
X132715522Y-130306143D01*
X132648747Y-130271662D01*
X132574533Y-130175489D01*
X132514607Y-130049298D01*
X132490695Y-129924767D01*
X132492472Y-129865717D01*
X132506622Y-129823779D01*
X132548542Y-129865920D01*
G37*
G36*
X129818515Y-125586915D02*
G01*
X129849141Y-125667175D01*
X129840700Y-125709075D01*
X129790481Y-125722374D01*
X129774461Y-125710367D01*
X129731820Y-125630921D01*
X129733499Y-125617825D01*
X129790481Y-125575722D01*
X129818515Y-125586915D01*
G37*
G36*
X130259765Y-126250318D02*
G01*
X130230435Y-126279649D01*
X130201104Y-126250318D01*
X130230435Y-126220988D01*
X130259765Y-126250318D01*
G37*
G36*
X137944291Y-136222605D02*
G01*
X137914961Y-136251935D01*
X137885631Y-136222605D01*
X137914961Y-136193274D01*
X137944291Y-136222605D01*
G37*
G36*
X130435746Y-126695764D02*
G01*
X130434978Y-126704885D01*
X130383928Y-126748933D01*
X130347859Y-126771157D01*
X130301429Y-126866254D01*
X130257097Y-126969297D01*
X130217897Y-126961201D01*
X130201104Y-126843765D01*
X130219869Y-126751747D01*
X130318425Y-126673275D01*
X130389031Y-126665589D01*
X130435746Y-126695764D01*
G37*
G36*
X139771745Y-121658693D02*
G01*
X139821428Y-121704129D01*
X139819612Y-121723773D01*
X139766837Y-121758713D01*
X139645446Y-121704129D01*
X139624801Y-121690133D01*
X139603727Y-121655629D01*
X139689442Y-121646367D01*
X139771745Y-121658693D01*
G37*
G36*
X130121228Y-121441987D02*
G01*
X130124865Y-121586808D01*
X130122062Y-121717895D01*
X130113216Y-121784517D01*
X130100428Y-121748124D01*
X130090608Y-121614971D01*
X130100428Y-121425491D01*
X130111759Y-121387710D01*
X130121228Y-121441987D01*
G37*
G36*
X131365052Y-129564637D02*
G01*
X131356875Y-129645332D01*
X131335465Y-129637963D01*
X131327717Y-129611410D01*
X131335465Y-129491311D01*
X131355834Y-129481361D01*
X131365052Y-129564637D01*
G37*
G36*
X131432975Y-129271334D02*
G01*
X131428742Y-129302389D01*
X131393868Y-129310441D01*
X131386848Y-129301844D01*
X131393868Y-129232227D01*
X131411512Y-129223050D01*
X131432975Y-129271334D01*
G37*
G36*
X142402490Y-126895584D02*
G01*
X142373160Y-126924914D01*
X142343830Y-126895584D01*
X142373160Y-126866254D01*
X142402490Y-126895584D01*
G37*
G36*
X131247731Y-127042235D02*
G01*
X131239554Y-127122930D01*
X131218144Y-127115561D01*
X131210396Y-127089008D01*
X131218144Y-126968910D01*
X131238513Y-126958959D01*
X131247731Y-127042235D01*
G37*
G36*
X125053001Y-131032854D02*
G01*
X125097640Y-131089810D01*
X125095936Y-131103832D01*
X125038980Y-131148471D01*
X125024958Y-131146766D01*
X124980319Y-131089810D01*
X124982024Y-131075789D01*
X125038980Y-131031150D01*
X125053001Y-131032854D01*
G37*
G36*
X124704449Y-129683657D02*
G01*
X124740202Y-129748981D01*
X124786876Y-129889867D01*
X124818338Y-130038416D01*
X124819805Y-130136577D01*
X124773028Y-130205452D01*
X124716087Y-130163494D01*
X124652286Y-130007223D01*
X124627580Y-129871801D01*
X124631693Y-129749693D01*
X124659163Y-129675521D01*
X124704449Y-129683657D01*
G37*
G36*
X133536730Y-137036211D02*
G01*
X133574516Y-137134194D01*
X133626353Y-137328189D01*
X133671180Y-137501018D01*
X133722064Y-137694481D01*
X133756215Y-137821103D01*
X133767130Y-137865985D01*
X133758495Y-137924363D01*
X133685724Y-137948404D01*
X133522265Y-137953090D01*
X133500204Y-137952976D01*
X133320929Y-137936577D01*
X133252511Y-137891138D01*
X133291927Y-137814846D01*
X133304525Y-137784880D01*
X133318403Y-137661733D01*
X133317127Y-137486567D01*
X133315025Y-137348845D01*
X133342616Y-137193523D01*
X133417603Y-137083012D01*
X133443202Y-137057682D01*
X133497967Y-137016589D01*
X133536730Y-137036211D01*
G37*
G36*
X130621092Y-137669253D02*
G01*
X130666190Y-137718448D01*
X130702747Y-137740476D01*
X130729049Y-137835769D01*
X130715764Y-137903486D01*
X130647918Y-137943251D01*
X130494407Y-137953090D01*
X130358972Y-137946447D01*
X130279442Y-137912524D01*
X130259765Y-137835769D01*
X130248765Y-137767579D01*
X130201104Y-137718448D01*
X130151845Y-137694269D01*
X130142250Y-137614725D01*
X130183492Y-137523210D01*
X130264118Y-137465670D01*
X130285132Y-137454475D01*
X130435746Y-137454475D01*
X130442365Y-137494954D01*
X130494407Y-137542466D01*
X130521392Y-137532539D01*
X130553067Y-137454475D01*
X130546449Y-137413997D01*
X130494407Y-137366485D01*
X130467421Y-137376412D01*
X130435746Y-137454475D01*
X130285132Y-137454475D01*
X130339214Y-137425663D01*
X130417611Y-137312177D01*
X130445653Y-137239367D01*
X130494407Y-137190503D01*
X130519068Y-137202210D01*
X130569779Y-137292527D01*
X130605672Y-137435377D01*
X130606653Y-137454475D01*
X130613432Y-137586461D01*
X130621092Y-137669253D01*
G37*
G36*
X138107741Y-135824299D02*
G01*
X138166136Y-135890909D01*
X138166545Y-135935066D01*
X138094600Y-135949570D01*
X138045294Y-135931067D01*
X137999853Y-135870642D01*
X138033476Y-135818720D01*
X138107741Y-135824299D01*
G37*
G36*
X138486284Y-134550847D02*
G01*
X138517835Y-134605123D01*
X138530897Y-134730224D01*
X138530851Y-134737832D01*
X138513650Y-134850217D01*
X138473134Y-134873968D01*
X138440211Y-134818061D01*
X138428088Y-134706582D01*
X138443709Y-134598983D01*
X138485030Y-134550780D01*
X138486284Y-134550847D01*
G37*
G36*
X130259765Y-125546392D02*
G01*
X130230435Y-125575722D01*
X130201104Y-125546392D01*
X130230435Y-125517062D01*
X130259765Y-125546392D01*
G37*
G36*
X129958425Y-129281015D02*
G01*
X129964679Y-129422874D01*
X129964075Y-129474025D01*
X129949863Y-129624632D01*
X129922467Y-129707118D01*
X129892502Y-129708889D01*
X129867976Y-129636490D01*
X129860223Y-129516417D01*
X129871082Y-129387173D01*
X129902396Y-129287264D01*
X129938445Y-129242621D01*
X129958425Y-129281015D01*
G37*
G36*
X144220966Y-125957016D02*
G01*
X144191636Y-125986346D01*
X144162305Y-125957016D01*
X144191636Y-125927685D01*
X144220966Y-125957016D01*
G37*
G36*
X130685918Y-128193632D02*
G01*
X130740247Y-128286275D01*
X130833769Y-128442939D01*
X130852348Y-128474589D01*
X130879232Y-128548896D01*
X130833769Y-128566951D01*
X130783337Y-128542180D01*
X130703822Y-128439288D01*
X130638856Y-128296990D01*
X130612593Y-128159755D01*
X130612731Y-128153367D01*
X130631507Y-128120071D01*
X130685918Y-128193632D01*
G37*
G36*
X134200263Y-133059931D02*
G01*
X134336670Y-133104967D01*
X134190019Y-133142405D01*
X134087381Y-133154203D01*
X134022592Y-133128389D01*
X134013801Y-133082705D01*
X134066242Y-133038383D01*
X134200263Y-133059931D01*
G37*
G36*
X126857455Y-129066023D02*
G01*
X126828125Y-129095353D01*
X126798795Y-129066023D01*
X126828125Y-129036692D01*
X126857455Y-129066023D01*
G37*
G36*
X139253202Y-130658175D02*
G01*
X139249180Y-130767177D01*
X139225034Y-130864007D01*
X139198654Y-130913829D01*
X139183885Y-130877554D01*
X139176162Y-130767177D01*
X139188692Y-130670773D01*
X139226688Y-130620526D01*
X139253202Y-130658175D01*
G37*
G36*
X131580506Y-129772732D02*
G01*
X131607091Y-129901935D01*
X131603345Y-129997608D01*
X131580938Y-130021919D01*
X131519100Y-129949384D01*
X131458357Y-129857238D01*
X131442422Y-129768818D01*
X131520966Y-129740619D01*
X131580506Y-129772732D01*
G37*
G36*
X141090910Y-120641589D02*
G01*
X141018291Y-120735594D01*
X140888967Y-120880370D01*
X140719303Y-121056979D01*
X140681360Y-121095022D01*
X140453905Y-121306907D01*
X140285623Y-121429792D01*
X140168801Y-121469455D01*
X140164257Y-121469446D01*
X140096536Y-121462233D01*
X140089309Y-121429362D01*
X140151170Y-121352883D01*
X140290712Y-121214849D01*
X140358782Y-121150730D01*
X140549158Y-120983935D01*
X140740428Y-120830882D01*
X140910621Y-120707815D01*
X141037765Y-120630978D01*
X141099888Y-120616615D01*
X141090910Y-120641589D01*
G37*
G36*
X137074354Y-115339353D02*
G01*
X137003976Y-115489248D01*
X136909485Y-115607491D01*
X136787389Y-115709926D01*
X136717871Y-115766391D01*
X136664229Y-115838887D01*
X136629806Y-115946382D01*
X136606294Y-116116270D01*
X136585385Y-116375945D01*
X136577846Y-116476315D01*
X136553701Y-116752482D01*
X136527723Y-116999097D01*
X136504365Y-117172383D01*
X136489554Y-117265965D01*
X136488624Y-117381363D01*
X136542453Y-117447927D01*
X136672939Y-117509441D01*
X136742649Y-117541627D01*
X136925716Y-117636839D01*
X137155814Y-117764955D01*
X137399224Y-117907495D01*
X137689109Y-118069201D01*
X138117902Y-118282101D01*
X138615016Y-118508257D01*
X139156109Y-118738007D01*
X139716837Y-118961688D01*
X140272857Y-119169636D01*
X140799825Y-119352190D01*
X141273398Y-119499685D01*
X141669234Y-119602460D01*
X141763539Y-119624371D01*
X141925759Y-119674763D01*
X142008950Y-119731915D01*
X142039742Y-119810802D01*
X142031381Y-119893406D01*
X141955417Y-119998768D01*
X141790435Y-120130061D01*
X141682457Y-120213041D01*
X141567292Y-120323449D01*
X141522582Y-120399348D01*
X141526290Y-120412725D01*
X141585826Y-120505840D01*
X141706813Y-120660835D01*
X141874724Y-120859697D01*
X142075034Y-121084413D01*
X142106001Y-121118515D01*
X142324426Y-121370459D01*
X142524299Y-121619176D01*
X142684633Y-121837615D01*
X142784439Y-121998726D01*
X142825903Y-122077616D01*
X142958799Y-122303786D01*
X143103219Y-122519992D01*
X143242040Y-122703086D01*
X143358138Y-122829918D01*
X143434388Y-122877339D01*
X143485160Y-122861805D01*
X143578910Y-122785480D01*
X143586901Y-122776203D01*
X143736555Y-122657046D01*
X143927741Y-122563341D01*
X144099806Y-122525376D01*
X144132812Y-122530087D01*
X144265198Y-122590024D01*
X144410687Y-122696834D01*
X144481955Y-122762790D01*
X144549695Y-122846053D01*
X144584823Y-122945432D01*
X144597311Y-123094651D01*
X144597128Y-123327434D01*
X144596954Y-123341529D01*
X144585323Y-123590428D01*
X144551396Y-123808829D01*
X144485297Y-124041966D01*
X144377151Y-124335073D01*
X144318308Y-124488640D01*
X144237953Y-124711333D01*
X144182795Y-124881351D01*
X144162305Y-124970680D01*
X144172569Y-125006545D01*
X144248041Y-125116344D01*
X144372790Y-125243430D01*
X144405632Y-125276434D01*
X144520349Y-125428091D01*
X144656420Y-125644770D01*
X144799631Y-125899239D01*
X144935764Y-126164268D01*
X145050603Y-126412625D01*
X145129932Y-126617080D01*
X145159534Y-126750402D01*
X145162251Y-126787257D01*
X145210514Y-126881695D01*
X145334775Y-126959175D01*
X145555376Y-127034285D01*
X145698290Y-127092361D01*
X145948551Y-127239893D01*
X146049136Y-127311549D01*
X146270903Y-127469534D01*
X146541981Y-127683681D01*
X146667573Y-127782896D01*
X146763222Y-127863482D01*
X147140789Y-128181590D01*
X147263927Y-128289142D01*
X147442664Y-128456037D01*
X147488450Y-128508464D01*
X147554535Y-128584135D01*
X147616892Y-128694974D01*
X147647088Y-128810097D01*
X147651809Y-128836174D01*
X147694258Y-128964653D01*
X147777698Y-129101039D01*
X147915290Y-129261026D01*
X148120195Y-129460309D01*
X148405575Y-129714584D01*
X148434441Y-129739930D01*
X148584241Y-129888442D01*
X148658894Y-130010632D01*
X148679164Y-130138685D01*
X148680404Y-130171949D01*
X148712028Y-130362052D01*
X148772985Y-130559330D01*
X148794557Y-130619793D01*
X148823436Y-130742315D01*
X148841693Y-130902402D01*
X148850460Y-131119955D01*
X148850871Y-131414872D01*
X148846029Y-131693683D01*
X148844060Y-131807053D01*
X148821315Y-132820295D01*
X148668476Y-133172258D01*
X148541878Y-133463793D01*
X148445089Y-133679978D01*
X148254799Y-134056701D01*
X148069252Y-134348717D01*
X147874647Y-134576239D01*
X147657183Y-134759480D01*
X147572269Y-134823871D01*
X147388915Y-134972457D01*
X147169689Y-135157755D01*
X146945428Y-135354006D01*
X146706110Y-135559523D01*
X146401151Y-135786481D01*
X146135509Y-135930251D01*
X145891154Y-135997519D01*
X145650054Y-135994974D01*
X145394176Y-135929302D01*
X145312385Y-135904794D01*
X145073175Y-135859339D01*
X144834398Y-135841311D01*
X144729142Y-135836197D01*
X144531606Y-135798569D01*
X144307806Y-135717987D01*
X144041359Y-135586924D01*
X143715883Y-135397853D01*
X143314996Y-135143247D01*
X143309446Y-135139746D01*
X146342603Y-135139746D01*
X146343011Y-135154031D01*
X146354142Y-135353062D01*
X146371932Y-135494311D01*
X146392726Y-135548009D01*
X146446301Y-135517739D01*
X146538056Y-135430688D01*
X146622656Y-135352791D01*
X146699797Y-135313367D01*
X146704279Y-135313098D01*
X146799360Y-135266228D01*
X146952172Y-135151250D01*
X147144312Y-134986163D01*
X147357380Y-134788963D01*
X147572973Y-134577649D01*
X147772689Y-134370218D01*
X147938127Y-134184667D01*
X148050884Y-134038995D01*
X148092559Y-133951200D01*
X148101800Y-133886890D01*
X148144375Y-133729461D01*
X148209851Y-133539516D01*
X148255379Y-133411641D01*
X148307048Y-133238464D01*
X148319138Y-133172258D01*
X148385862Y-133172258D01*
X148415192Y-133201588D01*
X148444522Y-133172258D01*
X148415192Y-133142928D01*
X148385862Y-133172258D01*
X148319138Y-133172258D01*
X148327172Y-133128263D01*
X148351209Y-133060280D01*
X148465256Y-133025607D01*
X148477205Y-133025476D01*
X148547461Y-133010986D01*
X148594724Y-132954930D01*
X148631568Y-132832365D01*
X148670568Y-132618349D01*
X148701069Y-132384876D01*
X148726335Y-132050385D01*
X148737698Y-131693683D01*
X148735444Y-131342545D01*
X148719859Y-131024744D01*
X148691227Y-130768053D01*
X148649834Y-130600244D01*
X148642632Y-130582417D01*
X148585340Y-130389115D01*
X148561843Y-130213063D01*
X148558480Y-130166659D01*
X148525380Y-130068544D01*
X148445362Y-129950709D01*
X148304331Y-129794328D01*
X148088186Y-129580578D01*
X147933712Y-129425661D01*
X147748629Y-129222506D01*
X147606205Y-129045713D01*
X147528636Y-128921427D01*
X147501812Y-128862043D01*
X147383219Y-128686820D01*
X147252694Y-128626967D01*
X147231260Y-128648457D01*
X147240415Y-128738453D01*
X147254178Y-128838361D01*
X147214336Y-128885348D01*
X147137708Y-128851842D01*
X147050788Y-128737919D01*
X147041384Y-128720848D01*
X146947505Y-128572877D01*
X146838971Y-128428804D01*
X146736016Y-128311859D01*
X146658870Y-128245267D01*
X146627766Y-128252258D01*
X146642310Y-128301840D01*
X146717545Y-128394338D01*
X146781523Y-128458641D01*
X146916115Y-128694827D01*
X147012387Y-129032756D01*
X147067946Y-129465110D01*
X147070688Y-129500997D01*
X147077442Y-129589410D01*
X147097267Y-129810206D01*
X147115682Y-129970406D01*
X147119928Y-129992075D01*
X147129664Y-130041765D01*
X147127127Y-130097957D01*
X147094323Y-130237025D01*
X147037359Y-130423058D01*
X146985962Y-130585092D01*
X146939330Y-130753461D01*
X146920792Y-130851387D01*
X146884947Y-130946983D01*
X146796003Y-131066893D01*
X146777639Y-131089810D01*
X146725352Y-131155059D01*
X146703314Y-131254868D01*
X146735305Y-131383113D01*
X146740313Y-131403187D01*
X146744737Y-131417005D01*
X146783981Y-131595606D01*
X146790333Y-131744957D01*
X146787122Y-131822123D01*
X146786070Y-131847420D01*
X146815996Y-131899770D01*
X146879118Y-131864530D01*
X146967036Y-131752894D01*
X147071350Y-131576060D01*
X147183660Y-131345224D01*
X147295564Y-131071581D01*
X147337809Y-130966095D01*
X147394581Y-130850194D01*
X147428032Y-130816353D01*
X147434095Y-130871966D01*
X147408261Y-131011106D01*
X147355417Y-131198256D01*
X147285056Y-131400464D01*
X147206671Y-131584778D01*
X147197168Y-131605390D01*
X147123541Y-131850839D01*
X147095331Y-132122499D01*
X147093264Y-132208330D01*
X147069284Y-132381219D01*
X147022005Y-132458978D01*
X146979587Y-132489890D01*
X147025102Y-132542568D01*
X147058996Y-132573869D01*
X147082740Y-132639425D01*
X147086457Y-132649689D01*
X147083952Y-132690960D01*
X147092719Y-132826105D01*
X147114466Y-133009097D01*
X147131332Y-133171152D01*
X147121465Y-133317619D01*
X147071812Y-133472292D01*
X146972567Y-133681654D01*
X146965864Y-133694950D01*
X146872066Y-133891322D01*
X146827822Y-134023879D01*
X146825707Y-134129138D01*
X146858295Y-134243616D01*
X146865438Y-134264351D01*
X146888509Y-134448275D01*
X146822620Y-134567201D01*
X146673668Y-134609441D01*
X146635615Y-134610097D01*
X146482943Y-134638588D01*
X146391322Y-134723378D01*
X146348594Y-134883940D01*
X146342603Y-135139746D01*
X143309446Y-135139746D01*
X143197397Y-135069062D01*
X143009153Y-134962163D01*
X142869633Y-134898436D01*
X142802700Y-134889692D01*
X142800894Y-134892474D01*
X142794540Y-134976183D01*
X142802239Y-135155303D01*
X142822545Y-135411244D01*
X142854013Y-135725416D01*
X142895196Y-136079229D01*
X142940225Y-136444233D01*
X142985324Y-136813419D01*
X143013214Y-137044220D01*
X143025294Y-137144185D01*
X143056992Y-137410531D01*
X143077280Y-137586461D01*
X143091988Y-137734472D01*
X143095539Y-137872668D01*
X143074150Y-137937170D01*
X143024185Y-137953090D01*
X142977906Y-137942046D01*
X142930435Y-137868918D01*
X142915743Y-137774762D01*
X142871643Y-137630113D01*
X142812852Y-137475480D01*
X142594306Y-137655624D01*
X142387875Y-137790835D01*
X142205665Y-137832210D01*
X142066030Y-137769147D01*
X142033041Y-137703894D01*
X142088183Y-137613751D01*
X142133283Y-137542445D01*
X142146612Y-137408934D01*
X142145748Y-137322546D01*
X142193851Y-137182959D01*
X142275763Y-137064528D01*
X142293710Y-137054511D01*
X142527281Y-137054511D01*
X142585987Y-137137729D01*
X142684883Y-137183167D01*
X142779798Y-137162636D01*
X142813114Y-137044220D01*
X142812342Y-137012433D01*
X142781484Y-136925846D01*
X142684225Y-136917606D01*
X142683177Y-136917768D01*
X142564810Y-136969692D01*
X142527281Y-137054511D01*
X142293710Y-137054511D01*
X142365241Y-137014586D01*
X142381307Y-136997935D01*
X142398048Y-136911408D01*
X142407472Y-136743109D01*
X142409766Y-136484197D01*
X142405115Y-136125830D01*
X142393705Y-135659168D01*
X142389529Y-135497119D01*
X142382597Y-135095837D01*
X142381232Y-134739289D01*
X142385257Y-134445597D01*
X142394494Y-134232882D01*
X142408767Y-134119266D01*
X142418222Y-134068640D01*
X142435739Y-133899433D01*
X142453808Y-133643052D01*
X142471322Y-133318577D01*
X142487175Y-132945086D01*
X142497138Y-132637907D01*
X143291614Y-132637907D01*
X143305617Y-132716417D01*
X143325642Y-132715509D01*
X143336427Y-132639425D01*
X143327034Y-132581765D01*
X143300986Y-132603985D01*
X143291614Y-132637907D01*
X142497138Y-132637907D01*
X142500260Y-132541658D01*
X142508689Y-132225972D01*
X142513184Y-132029092D01*
X142901104Y-132029092D01*
X142907612Y-132125509D01*
X142939639Y-132226082D01*
X142984775Y-132242079D01*
X143027594Y-132157803D01*
X143061577Y-132068882D01*
X143128290Y-132036149D01*
X143223737Y-132116369D01*
X143265271Y-132153622D01*
X143373367Y-132197924D01*
X143473178Y-132195952D01*
X143517040Y-132143324D01*
X143525038Y-132105014D01*
X143582486Y-131996743D01*
X143670521Y-131880456D01*
X143759473Y-131792737D01*
X143819671Y-131770171D01*
X143853248Y-131822638D01*
X143867928Y-131932467D01*
X143853080Y-132039131D01*
X143810342Y-132087039D01*
X143805423Y-132087105D01*
X143750458Y-132112581D01*
X143776130Y-132158579D01*
X143862948Y-132187775D01*
X143941810Y-132168326D01*
X144001465Y-132053607D01*
X144010008Y-131822123D01*
X143928072Y-131643833D01*
X143752854Y-131536390D01*
X143484949Y-131500434D01*
X143365453Y-131507337D01*
X143297350Y-131548829D01*
X143282398Y-131651038D01*
X143280997Y-131697561D01*
X143251833Y-131771641D01*
X143164788Y-131764314D01*
X143087320Y-131754715D01*
X143011990Y-131818685D01*
X142988372Y-131862619D01*
X142938953Y-131886992D01*
X142912398Y-131918432D01*
X142901104Y-132029092D01*
X142513184Y-132029092D01*
X142517090Y-131858026D01*
X142520443Y-131584219D01*
X142518169Y-131390871D01*
X142517649Y-131383113D01*
X146567386Y-131383113D01*
X146569773Y-131399191D01*
X146629509Y-131441773D01*
X146650726Y-131437167D01*
X146655377Y-131383113D01*
X146643337Y-131365558D01*
X146593254Y-131324452D01*
X146587400Y-131325977D01*
X146567386Y-131383113D01*
X142517649Y-131383113D01*
X142509688Y-131264301D01*
X142494420Y-131190831D01*
X142471785Y-131156781D01*
X142441203Y-131148471D01*
X142391479Y-131136050D01*
X142343830Y-131060480D01*
X142343637Y-131059301D01*
X144996085Y-131059301D01*
X145003106Y-131128917D01*
X145020750Y-131138094D01*
X145042213Y-131089810D01*
X145037979Y-131058756D01*
X145003106Y-131050703D01*
X144996085Y-131059301D01*
X142343637Y-131059301D01*
X142337211Y-131020002D01*
X142285169Y-130972489D01*
X142227591Y-130956682D01*
X142117599Y-130862640D01*
X142028541Y-130720688D01*
X141991866Y-130573598D01*
X141973449Y-130446546D01*
X141918541Y-130335753D01*
X141892409Y-130290530D01*
X141855737Y-130145982D01*
X141848464Y-130066713D01*
X145452836Y-130066713D01*
X145453407Y-130074914D01*
X145487364Y-130087832D01*
X145546429Y-130024858D01*
X145560702Y-129992075D01*
X145520561Y-129998989D01*
X145494502Y-130017097D01*
X145452836Y-130066713D01*
X141848464Y-130066713D01*
X141838434Y-129957393D01*
X141834167Y-129855272D01*
X141814948Y-129646087D01*
X141787438Y-129490466D01*
X141777515Y-129448883D01*
X145912216Y-129448883D01*
X145929520Y-129563261D01*
X145977478Y-129693954D01*
X146033026Y-129730356D01*
X146078967Y-129667644D01*
X146098102Y-129500997D01*
X146084282Y-129331113D01*
X146036119Y-129209579D01*
X145959825Y-129188247D01*
X145954121Y-129190988D01*
X145913457Y-129276445D01*
X145912216Y-129448883D01*
X141777515Y-129448883D01*
X141769179Y-129413953D01*
X141777565Y-129355545D01*
X141846255Y-129367841D01*
X141890567Y-129379674D01*
X141925336Y-129355571D01*
X141933712Y-129262477D01*
X141921860Y-129076651D01*
X141920518Y-129060435D01*
X141909161Y-128879047D01*
X141922359Y-128778893D01*
X141973291Y-128726635D01*
X142075136Y-128688935D01*
X142081733Y-128686867D01*
X142283643Y-128632385D01*
X142497333Y-128587545D01*
X142681296Y-128559952D01*
X142794025Y-128557212D01*
X142816905Y-128558383D01*
X142900143Y-128510304D01*
X142910944Y-128499200D01*
X143010946Y-128464195D01*
X143166866Y-128450087D01*
X143276320Y-128439762D01*
X143494753Y-128388782D01*
X143714242Y-128309511D01*
X143849813Y-128253197D01*
X144063165Y-128176379D01*
X144229194Y-128130113D01*
X144402536Y-128087562D01*
X144543599Y-128039468D01*
X144589678Y-128022077D01*
X144750199Y-127975787D01*
X144943420Y-127931851D01*
X144997943Y-127921346D01*
X145139026Y-127901214D01*
X145196144Y-127913989D01*
X145192728Y-127962558D01*
X145173104Y-128041006D01*
X145159534Y-128189274D01*
X145155331Y-128239697D01*
X145115962Y-128308735D01*
X145013586Y-128364823D01*
X144822236Y-128426200D01*
X144671501Y-128472819D01*
X144507209Y-128532726D01*
X144416188Y-128577875D01*
X144400232Y-128589130D01*
X144286780Y-128647176D01*
X144082724Y-128732891D01*
X143781061Y-128849103D01*
X143374790Y-128998642D01*
X143308002Y-129023567D01*
X143097774Y-129117104D01*
X142999633Y-129190374D01*
X143013542Y-129239661D01*
X143139461Y-129261245D01*
X143377354Y-129251411D01*
X143583372Y-129229884D01*
X143853822Y-129195361D01*
X144074315Y-129160683D01*
X144249350Y-129139286D01*
X144660920Y-129169869D01*
X144735082Y-129184531D01*
X144999340Y-129224045D01*
X145247525Y-129246334D01*
X145342125Y-129252242D01*
X145532769Y-129273110D01*
X145663826Y-129299326D01*
X145701841Y-129309553D01*
X145750921Y-129301725D01*
X145783263Y-129241944D01*
X145807587Y-129108546D01*
X145832606Y-128879867D01*
X145845780Y-128739953D01*
X145868422Y-128389175D01*
X145864762Y-128137640D01*
X145864329Y-128135322D01*
X146519102Y-128135322D01*
X146567386Y-128156785D01*
X146598441Y-128152551D01*
X146606493Y-128117678D01*
X146597895Y-128110657D01*
X146528279Y-128117678D01*
X146519102Y-128135322D01*
X145864329Y-128135322D01*
X145834146Y-127973859D01*
X145814841Y-127944845D01*
X146642452Y-127944845D01*
X146658720Y-127990794D01*
X146738182Y-128098531D01*
X146755022Y-128117678D01*
X146863835Y-128241396D01*
X146925449Y-128304990D01*
X147053661Y-128422995D01*
X147148576Y-128493061D01*
X147195930Y-128508464D01*
X147181457Y-128462481D01*
X147090891Y-128348392D01*
X147003653Y-128251684D01*
X146826171Y-128068676D01*
X146702969Y-127963876D01*
X146642452Y-127944845D01*
X145814841Y-127944845D01*
X145775917Y-127886346D01*
X145749874Y-127863482D01*
X146479395Y-127863482D01*
X146491435Y-127881037D01*
X146541518Y-127922143D01*
X146547372Y-127920618D01*
X146567386Y-127863482D01*
X146564999Y-127847404D01*
X146505264Y-127804822D01*
X146484046Y-127809428D01*
X146479395Y-127863482D01*
X145749874Y-127863482D01*
X145728847Y-127845021D01*
X145687478Y-127778080D01*
X145686694Y-127772069D01*
X145647204Y-127689457D01*
X145572305Y-127573999D01*
X146229805Y-127573999D01*
X146244753Y-127628840D01*
X146256805Y-127646205D01*
X146310338Y-127687501D01*
X146318362Y-127683681D01*
X146303414Y-127628840D01*
X146291362Y-127611476D01*
X146237829Y-127570180D01*
X146229805Y-127573999D01*
X145572305Y-127573999D01*
X145566448Y-127564970D01*
X145551727Y-127543529D01*
X145487246Y-127420074D01*
X145478538Y-127341409D01*
X145477348Y-127315195D01*
X145404824Y-127315756D01*
X145335825Y-127321621D01*
X145249198Y-127270684D01*
X145213299Y-127204758D01*
X145628818Y-127204758D01*
X145639092Y-127236548D01*
X145716809Y-127298090D01*
X145760393Y-127312131D01*
X145804800Y-127311549D01*
X145789659Y-127287630D01*
X145716809Y-127218217D01*
X145663697Y-127185329D01*
X145628818Y-127204758D01*
X145213299Y-127204758D01*
X145174676Y-127133830D01*
X145101071Y-126895584D01*
X145093616Y-126868017D01*
X145005272Y-126600685D01*
X144877841Y-126278334D01*
X144728616Y-125942417D01*
X144574890Y-125634383D01*
X144564877Y-125616545D01*
X144434410Y-125447983D01*
X144279723Y-125318372D01*
X144164805Y-125256430D01*
X144080199Y-125243820D01*
X144009400Y-125292864D01*
X143969305Y-125341964D01*
X143956151Y-125426842D01*
X144002594Y-125564480D01*
X144042744Y-125650390D01*
X144097246Y-125707681D01*
X144158305Y-125677979D01*
X144162835Y-125673726D01*
X144213514Y-125637090D01*
X144199006Y-125693043D01*
X144180199Y-125739533D01*
X144127470Y-125878722D01*
X144047388Y-125966803D01*
X143876874Y-126039743D01*
X143649026Y-126077587D01*
X143549017Y-126056421D01*
X143520839Y-125962599D01*
X143582666Y-125797349D01*
X143605700Y-125747672D01*
X143603036Y-125660650D01*
X143510652Y-125570904D01*
X143423091Y-125491287D01*
X143404386Y-125407161D01*
X143445026Y-125267930D01*
X143484165Y-125148395D01*
X143510341Y-124963953D01*
X143460679Y-124822118D01*
X143327751Y-124686034D01*
X143137405Y-124529601D01*
X143306295Y-124373080D01*
X143330563Y-124351455D01*
X143475215Y-124247990D01*
X143598768Y-124194269D01*
X143640024Y-124180013D01*
X143768805Y-124094774D01*
X143904550Y-123964613D01*
X143963062Y-123901668D01*
X144078273Y-123798134D01*
X144154432Y-123757247D01*
X144184748Y-123743706D01*
X144259698Y-123649330D01*
X144341155Y-123494880D01*
X144413715Y-123315944D01*
X144461975Y-123148107D01*
X144470532Y-123026957D01*
X144465380Y-123007818D01*
X144377575Y-122883418D01*
X144214744Y-122763570D01*
X143984576Y-122634208D01*
X143785959Y-122756961D01*
X143751519Y-122779220D01*
X143622942Y-122881124D01*
X143554031Y-122966517D01*
X143548379Y-122979877D01*
X143470889Y-123048282D01*
X143364193Y-123017770D01*
X143249839Y-122893510D01*
X143149937Y-122754401D01*
X143034034Y-122614873D01*
X142958915Y-122512323D01*
X142853985Y-122335436D01*
X142747815Y-122129639D01*
X142693546Y-122027616D01*
X142563539Y-121824227D01*
X142404728Y-121607972D01*
X142235687Y-121401080D01*
X142074995Y-121225779D01*
X141941226Y-121104297D01*
X141852959Y-121058863D01*
X141815172Y-121046126D01*
X141705063Y-120968501D01*
X141567400Y-120845675D01*
X141432068Y-120707153D01*
X141328953Y-120582440D01*
X141287940Y-120501041D01*
X141288366Y-120494520D01*
X141338198Y-120394561D01*
X141451092Y-120258065D01*
X141598741Y-120115664D01*
X141752836Y-119997989D01*
X141777168Y-119981578D01*
X141868032Y-119882591D01*
X141845869Y-119798714D01*
X141713955Y-119733578D01*
X141475570Y-119690815D01*
X141272030Y-119660881D01*
X140910753Y-119569751D01*
X140496407Y-119420477D01*
X140008967Y-119206447D01*
X139953554Y-119180720D01*
X139752992Y-119091644D01*
X139598633Y-119029253D01*
X139520185Y-119005746D01*
X139480630Y-118997141D01*
X139329998Y-118942176D01*
X139076419Y-118837001D01*
X138721519Y-118682301D01*
X138266924Y-118478759D01*
X138156711Y-118430843D01*
X137915649Y-118339869D01*
X137717446Y-118283767D01*
X137583115Y-118267744D01*
X137533668Y-118297010D01*
X137526684Y-118320630D01*
X137455209Y-118378036D01*
X137447820Y-118379639D01*
X137359917Y-118348508D01*
X137231251Y-118263996D01*
X137096461Y-118153986D01*
X136990185Y-118046361D01*
X136947063Y-117969002D01*
X136936755Y-117940785D01*
X136866609Y-117855765D01*
X136756034Y-117753293D01*
X136635765Y-117658583D01*
X136536537Y-117596849D01*
X136489085Y-117593304D01*
X136489186Y-117605987D01*
X136530492Y-117700321D01*
X136623296Y-117853716D01*
X136752141Y-118039932D01*
X136775844Y-118072457D01*
X137002338Y-118397370D01*
X137150075Y-118641272D01*
X137220751Y-118808063D01*
X137216064Y-118901641D01*
X137137709Y-118925902D01*
X137083747Y-118932840D01*
X137048438Y-118987237D01*
X137049210Y-118991685D01*
X137045309Y-119125008D01*
X137013315Y-119322819D01*
X136963238Y-119541166D01*
X136905085Y-119736100D01*
X136848863Y-119863671D01*
X136834993Y-119888490D01*
X136792443Y-120063059D01*
X136788842Y-120299058D01*
X136822367Y-120556374D01*
X136891195Y-120794891D01*
X136896359Y-120808985D01*
X136930240Y-120962840D01*
X136957726Y-121189337D01*
X136978017Y-121461427D01*
X136990310Y-121752060D01*
X136993805Y-122034186D01*
X136987698Y-122280756D01*
X136971189Y-122464720D01*
X136943476Y-122559028D01*
X136930707Y-122581503D01*
X136896456Y-122714190D01*
X136868731Y-122926309D01*
X136863170Y-123011941D01*
X136855403Y-123131535D01*
X136851620Y-123189795D01*
X136850742Y-123229302D01*
X136847518Y-123374437D01*
X136859488Y-123638580D01*
X136863041Y-123716974D01*
X136885927Y-123835386D01*
X136916688Y-123994540D01*
X136935876Y-124043226D01*
X136996560Y-124197200D01*
X137013586Y-124240400D01*
X137026006Y-124273362D01*
X137033634Y-124314522D01*
X137053440Y-124421389D01*
X137064384Y-124607028D01*
X137066423Y-124686549D01*
X137082168Y-124819341D01*
X137108379Y-124871825D01*
X137119929Y-124902889D01*
X137135430Y-125033047D01*
X137149767Y-125246991D01*
X137161725Y-125525480D01*
X137170089Y-125849277D01*
X137175255Y-126058888D01*
X137175798Y-126080904D01*
X137188533Y-126392262D01*
X137205153Y-126652580D01*
X137224148Y-126839764D01*
X137244009Y-126931722D01*
X137259291Y-126981694D01*
X137281218Y-127134332D01*
X137299514Y-127353699D01*
X137313434Y-127613550D01*
X137322236Y-127887639D01*
X137325173Y-128149721D01*
X137321503Y-128373551D01*
X137310480Y-128532885D01*
X137291361Y-128601476D01*
X137282305Y-128609115D01*
X137248591Y-128706676D01*
X137242987Y-128863672D01*
X137263988Y-129034245D01*
X137310090Y-129172535D01*
X137324111Y-129199686D01*
X137376536Y-129344965D01*
X137385870Y-129459503D01*
X137347883Y-129505976D01*
X137300835Y-129537437D01*
X137326412Y-129625984D01*
X137423271Y-129747542D01*
X137495921Y-129846124D01*
X137488555Y-129908859D01*
X137469851Y-129941556D01*
X137469299Y-130083049D01*
X137511054Y-130327224D01*
X137548579Y-130514204D01*
X137593623Y-130768295D01*
X137623465Y-130972489D01*
X137655370Y-131235752D01*
X137689035Y-131480292D01*
X137717916Y-131638979D01*
X137745308Y-131729174D01*
X137774506Y-131768236D01*
X137822561Y-131837476D01*
X137812759Y-131926495D01*
X137745575Y-131969718D01*
X137745560Y-131969718D01*
X137705663Y-131996895D01*
X137678485Y-132089837D01*
X137661186Y-132265705D01*
X137650927Y-132541658D01*
X137647992Y-132668969D01*
X137642588Y-132946521D01*
X137642845Y-133134745D01*
X137651006Y-133254138D01*
X137669315Y-133325198D01*
X137700016Y-133368421D01*
X137745353Y-133404307D01*
X137757018Y-133412463D01*
X137834720Y-133439315D01*
X137933899Y-133409531D01*
X138089033Y-133314058D01*
X138188462Y-133241522D01*
X138363595Y-133088856D01*
X138510050Y-132932196D01*
X138605967Y-132796161D01*
X138629489Y-132705368D01*
X138599996Y-132669053D01*
X138496705Y-132626214D01*
X138393339Y-132607591D01*
X138292791Y-132566256D01*
X138283507Y-132487041D01*
X138349222Y-132338181D01*
X138373416Y-132285649D01*
X138449791Y-132064085D01*
X138499482Y-131837732D01*
X138516168Y-131745540D01*
X138559821Y-131611287D01*
X138607816Y-131558196D01*
X138640922Y-131550112D01*
X138599888Y-131508060D01*
X138565048Y-131465628D01*
X138550455Y-131375806D01*
X138558482Y-131217120D01*
X138588649Y-130966348D01*
X138596620Y-130908911D01*
X138636804Y-130654038D01*
X138679142Y-130429680D01*
X138715690Y-130278836D01*
X138727658Y-130238100D01*
X138750098Y-130092713D01*
X138713557Y-130042327D01*
X138620305Y-130091405D01*
X138609571Y-130100183D01*
X138546035Y-130133129D01*
X138530897Y-130072498D01*
X138554644Y-130003791D01*
X138648218Y-129916600D01*
X138720621Y-129850948D01*
X138765539Y-129691626D01*
X138781814Y-129568263D01*
X138830496Y-129464483D01*
X138833845Y-129460948D01*
X138892901Y-129356606D01*
X138945185Y-129203444D01*
X138961917Y-129139776D01*
X138980659Y-129089980D01*
X138984215Y-129140920D01*
X138975066Y-129300665D01*
X138969215Y-129378632D01*
X138946125Y-129619890D01*
X138920068Y-129828609D01*
X138899649Y-129967224D01*
X138866421Y-130212791D01*
X138841607Y-130439754D01*
X138823298Y-130675297D01*
X138809587Y-130946604D01*
X138798564Y-131280859D01*
X138788321Y-131705245D01*
X138778165Y-132117455D01*
X138764502Y-132503718D01*
X138747006Y-132796120D01*
X138723619Y-133007335D01*
X138692277Y-133150035D01*
X138650919Y-133236895D01*
X138597483Y-133280586D01*
X138529908Y-133293783D01*
X138470698Y-133297522D01*
X138302148Y-133328183D01*
X138172275Y-133377807D01*
X138120273Y-133433067D01*
X138120103Y-133435248D01*
X138090347Y-133465561D01*
X138066848Y-133489499D01*
X137947151Y-133552367D01*
X137879541Y-133585996D01*
X137723717Y-133716027D01*
X137630108Y-133874090D01*
X137622507Y-134025510D01*
X137653704Y-134091825D01*
X137713602Y-134140157D01*
X137742529Y-134155721D01*
X137768671Y-134242813D01*
X137794075Y-134362839D01*
X137856662Y-134513490D01*
X137882931Y-134577721D01*
X137927052Y-134769866D01*
X137944653Y-134982774D01*
X137948823Y-135080519D01*
X137980726Y-135292793D01*
X138033693Y-135454080D01*
X138065336Y-135517142D01*
X138095728Y-135621888D01*
X138042244Y-135671243D01*
X137888162Y-135692615D01*
X137884504Y-135692908D01*
X137757344Y-135709698D01*
X137699692Y-135730043D01*
X137696617Y-135773360D01*
X137718164Y-135912292D01*
X137764719Y-136098266D01*
X137825780Y-136291587D01*
X137890845Y-136452561D01*
X137894065Y-136459226D01*
X137895758Y-136462836D01*
X137970041Y-136621261D01*
X137993889Y-136700968D01*
X137964819Y-136720819D01*
X137882043Y-136703284D01*
X137774978Y-136709412D01*
X137717212Y-136801813D01*
X137730709Y-136970657D01*
X137731746Y-136974405D01*
X137790698Y-137085336D01*
X137906727Y-137244925D01*
X138055794Y-137419951D01*
X138347166Y-137737389D01*
X138145942Y-137845240D01*
X138126847Y-137855143D01*
X138048024Y-137887874D01*
X137949281Y-137912485D01*
X137814388Y-137930100D01*
X137627111Y-137941845D01*
X137371218Y-137948841D01*
X137030476Y-137952215D01*
X136588654Y-137953090D01*
X135232592Y-137953090D01*
X135272166Y-137762443D01*
X135294910Y-137640867D01*
X135320042Y-137421898D01*
X135313524Y-137273801D01*
X135275238Y-137217593D01*
X135248759Y-137214954D01*
X135116974Y-137180829D01*
X135001884Y-137126551D01*
X134952606Y-137073983D01*
X134953009Y-137068827D01*
X134985515Y-136979910D01*
X135054160Y-136847081D01*
X135102529Y-136755276D01*
X135120369Y-136658419D01*
X135051063Y-136603265D01*
X134879617Y-136565639D01*
X134732321Y-136558740D01*
X134524785Y-136630673D01*
X134477801Y-136663894D01*
X134421449Y-136729954D01*
X134410801Y-136821405D01*
X134445971Y-136965752D01*
X134527070Y-137190503D01*
X134539681Y-137232877D01*
X134545340Y-137307824D01*
X134548662Y-137351819D01*
X134547745Y-137379973D01*
X134583829Y-137425145D01*
X134597050Y-137437554D01*
X134613032Y-137532075D01*
X134609824Y-137689117D01*
X134588829Y-137953090D01*
X134351895Y-137953090D01*
X134171911Y-137932346D01*
X134037035Y-137850434D01*
X134002586Y-137806517D01*
X133964883Y-137784243D01*
X133955459Y-137865099D01*
X133953767Y-137904664D01*
X133939002Y-137947408D01*
X133892453Y-137880541D01*
X133865843Y-137809994D01*
X133897369Y-137658568D01*
X133932779Y-137543539D01*
X133946530Y-137368662D01*
X133940480Y-137277315D01*
X134143891Y-137277315D01*
X134150912Y-137346931D01*
X134168556Y-137356108D01*
X134190019Y-137307824D01*
X134185786Y-137276769D01*
X134150912Y-137268717D01*
X134143891Y-137277315D01*
X133940480Y-137277315D01*
X133934507Y-137187121D01*
X133899788Y-137039855D01*
X133845450Y-136967799D01*
X133806731Y-136980696D01*
X133789217Y-137078504D01*
X133810005Y-137248570D01*
X133868111Y-137469140D01*
X133882566Y-137554573D01*
X133854287Y-137601127D01*
X133799974Y-137548966D01*
X133740939Y-137409446D01*
X133684208Y-137212432D01*
X133636157Y-136987798D01*
X133603164Y-136765416D01*
X133591609Y-136575162D01*
X133607868Y-136446909D01*
X133615220Y-136423483D01*
X133637803Y-136244714D01*
X133638593Y-135982785D01*
X133634265Y-135905377D01*
X134334285Y-135905377D01*
X134339352Y-135960861D01*
X134439326Y-135980918D01*
X134483605Y-136019581D01*
X134496228Y-136134902D01*
X134495698Y-136139834D01*
X134504937Y-136237210D01*
X134574747Y-136309272D01*
X134731486Y-136383921D01*
X134839390Y-136426769D01*
X134996583Y-136476211D01*
X135065534Y-136462836D01*
X135057901Y-136378972D01*
X134985347Y-136216952D01*
X134984448Y-136215128D01*
X134930384Y-136019298D01*
X134923738Y-135782651D01*
X134931110Y-135703469D01*
X134946370Y-135571018D01*
X134957143Y-135518679D01*
X134965949Y-135494856D01*
X134980904Y-135397298D01*
X134982131Y-135386632D01*
X135003695Y-135238906D01*
X135034736Y-135060000D01*
X135049689Y-134963394D01*
X135042478Y-134869427D01*
X134988588Y-134844083D01*
X134938443Y-134858809D01*
X134830056Y-134955687D01*
X134785620Y-135020064D01*
X134720832Y-135113927D01*
X134629302Y-135299189D01*
X134573999Y-135477131D01*
X134573452Y-135613410D01*
X134581621Y-135687337D01*
X134518669Y-135723990D01*
X134451806Y-135747801D01*
X134366000Y-135841311D01*
X134334285Y-135905377D01*
X133634265Y-135905377D01*
X133620698Y-135662749D01*
X133587226Y-135309663D01*
X133546500Y-134989555D01*
X133674607Y-134989555D01*
X133681628Y-135059171D01*
X133699272Y-135068348D01*
X133720735Y-135020064D01*
X133716501Y-134989010D01*
X133681628Y-134980957D01*
X133674607Y-134989555D01*
X133546500Y-134989555D01*
X133541287Y-134948581D01*
X133510158Y-134754913D01*
X133733268Y-134754913D01*
X133740288Y-134824529D01*
X133757932Y-134833706D01*
X133779395Y-134785422D01*
X133775162Y-134754368D01*
X133740288Y-134746315D01*
X133733268Y-134754913D01*
X133510158Y-134754913D01*
X133485990Y-134604558D01*
X133424441Y-134302651D01*
X133359751Y-134067914D01*
X133295028Y-133925402D01*
X133278801Y-133891656D01*
X133301116Y-133823083D01*
X133313104Y-133818647D01*
X133374345Y-133854143D01*
X133424439Y-133945594D01*
X133434346Y-134044697D01*
X133443323Y-134066734D01*
X133516860Y-134059731D01*
X133520687Y-134058285D01*
X133584002Y-134055944D01*
X133574919Y-134137525D01*
X133572946Y-134199791D01*
X133627852Y-134329500D01*
X133726506Y-134443291D01*
X133833187Y-134492120D01*
X133855230Y-134467478D01*
X133863987Y-134357335D01*
X133849628Y-134187299D01*
X133817556Y-133988813D01*
X133773173Y-133793322D01*
X133721883Y-133632270D01*
X133669088Y-133537101D01*
X133625706Y-133452971D01*
X133603414Y-133308962D01*
X133602073Y-133282195D01*
X133562446Y-133113387D01*
X133484970Y-132935616D01*
X133459523Y-132887076D01*
X133406945Y-132748772D01*
X133404305Y-132663608D01*
X133410271Y-132646244D01*
X133405369Y-132531366D01*
X133369667Y-132360580D01*
X133313132Y-132174692D01*
X133245733Y-132014509D01*
X133219914Y-131951168D01*
X133192790Y-131805744D01*
X133176235Y-131719436D01*
X133109332Y-131584971D01*
X133064654Y-131486541D01*
X133058004Y-131309787D01*
X133061474Y-131291368D01*
X133061561Y-131180311D01*
X133000303Y-131148471D01*
X132945547Y-131128223D01*
X132941233Y-131030837D01*
X132947777Y-130952861D01*
X132909804Y-130838268D01*
X132853133Y-130748062D01*
X132787012Y-130603939D01*
X132766684Y-130546221D01*
X132758817Y-130464977D01*
X132814401Y-130444545D01*
X132887801Y-130482802D01*
X132958720Y-130592699D01*
X133017260Y-130697847D01*
X133103919Y-130774957D01*
X133158898Y-130825591D01*
X133192790Y-130945973D01*
X133205998Y-131038197D01*
X133255069Y-131121377D01*
X133307623Y-131179307D01*
X133371453Y-131302173D01*
X133384094Y-131333011D01*
X133452809Y-131413416D01*
X133573146Y-131407437D01*
X133658904Y-131394482D01*
X133714750Y-131424503D01*
X133676359Y-131508470D01*
X133544753Y-131638083D01*
X133511392Y-131667022D01*
X133409715Y-131768940D01*
X133368774Y-131833945D01*
X133376705Y-131853169D01*
X133453117Y-131938295D01*
X133590803Y-132061189D01*
X133765274Y-132200770D01*
X133952038Y-132335959D01*
X134037745Y-132407341D01*
X134032315Y-132435712D01*
X133948217Y-132417576D01*
X133800766Y-132351373D01*
X133684298Y-132299663D01*
X133554816Y-132269151D01*
X133486279Y-132284396D01*
X133496531Y-132338706D01*
X133603414Y-132425388D01*
X133674124Y-132496888D01*
X133720735Y-132633079D01*
X133734219Y-132725444D01*
X133791127Y-132837893D01*
X133827963Y-132891384D01*
X133797425Y-132972381D01*
X133766443Y-133055176D01*
X133814662Y-133192357D01*
X133869965Y-133322994D01*
X133896355Y-133441119D01*
X133900523Y-133485454D01*
X133936919Y-133574200D01*
X133942980Y-133580860D01*
X134003719Y-133695521D01*
X134064461Y-133874055D01*
X134111336Y-134069207D01*
X134130475Y-134233721D01*
X134156002Y-134373087D01*
X134248679Y-134521450D01*
X134324928Y-134630352D01*
X134363725Y-134785422D01*
X134366000Y-134794514D01*
X134385079Y-134893806D01*
X134462459Y-134961609D01*
X134571451Y-134941266D01*
X134681653Y-134829418D01*
X134691680Y-134811300D01*
X134730776Y-134668271D01*
X134748069Y-134467181D01*
X134745829Y-134237213D01*
X134726327Y-134007549D01*
X134691833Y-133807373D01*
X134644617Y-133665866D01*
X134586951Y-133612212D01*
X134558026Y-133573089D01*
X134574036Y-133465561D01*
X137592328Y-133465561D01*
X137621659Y-133494891D01*
X137650989Y-133465561D01*
X137621659Y-133436231D01*
X137592328Y-133465561D01*
X134574036Y-133465561D01*
X134576220Y-133450896D01*
X134580804Y-133433976D01*
X134612336Y-133245907D01*
X134637908Y-132964325D01*
X134656025Y-132610165D01*
X134665194Y-132204360D01*
X134626777Y-131784239D01*
X134480263Y-131295122D01*
X134449690Y-131209275D01*
X134394819Y-131033559D01*
X134335192Y-130825838D01*
X134288529Y-130665354D01*
X134219504Y-130452149D01*
X134161379Y-130297893D01*
X134094690Y-130135875D01*
X134023987Y-129945930D01*
X133991290Y-129855424D01*
X133919778Y-129665589D01*
X133825962Y-129421513D01*
X133721611Y-129154013D01*
X133637848Y-128938047D01*
X133550182Y-128705041D01*
X133486243Y-128526932D01*
X133455951Y-128430736D01*
X133440156Y-128364084D01*
X133371763Y-128116888D01*
X133275035Y-127801024D01*
X133160063Y-127446495D01*
X133036940Y-127083303D01*
X132915759Y-126741451D01*
X132806612Y-126450941D01*
X132719593Y-126241774D01*
X132715877Y-126233648D01*
X132682259Y-126156949D01*
X135192861Y-126156949D01*
X135279428Y-126304789D01*
X135364286Y-126370846D01*
X135491181Y-126383189D01*
X135625062Y-126282012D01*
X135670922Y-126215577D01*
X135700410Y-126058888D01*
X135642663Y-125918231D01*
X135508225Y-125834038D01*
X135403570Y-125826363D01*
X135270376Y-125885958D01*
X135194992Y-126006746D01*
X135192861Y-126156949D01*
X132682259Y-126156949D01*
X132630923Y-126039828D01*
X132570518Y-125887172D01*
X132547525Y-125808100D01*
X132538547Y-125760906D01*
X132490541Y-125648252D01*
X132489344Y-125646084D01*
X132442324Y-125550347D01*
X132359852Y-125373012D01*
X132253214Y-125138642D01*
X132133698Y-124871796D01*
X132017341Y-124611845D01*
X131882561Y-124314522D01*
X134952606Y-124314522D01*
X134981936Y-124343852D01*
X135011266Y-124314522D01*
X134981936Y-124285191D01*
X134952606Y-124314522D01*
X131882561Y-124314522D01*
X131880373Y-124309696D01*
X131828665Y-124197200D01*
X134835284Y-124197200D01*
X134864615Y-124226531D01*
X134893945Y-124197200D01*
X134864615Y-124167870D01*
X134835284Y-124197200D01*
X131828665Y-124197200D01*
X131756479Y-124040150D01*
X131705025Y-123930621D01*
X134605689Y-123930621D01*
X134652024Y-124007532D01*
X134659750Y-124015111D01*
X134702722Y-124043226D01*
X134684862Y-123974694D01*
X134655607Y-123919949D01*
X134611971Y-123902346D01*
X134605689Y-123930621D01*
X131705025Y-123930621D01*
X131662737Y-123840602D01*
X131600403Y-123702429D01*
X134366446Y-123702429D01*
X134417178Y-123771912D01*
X134470868Y-123834481D01*
X134519834Y-123874568D01*
X134530128Y-123873605D01*
X134530524Y-123835386D01*
X134439326Y-123749764D01*
X134396823Y-123716995D01*
X134366446Y-123702429D01*
X131600403Y-123702429D01*
X131579107Y-123655222D01*
X131515834Y-123492251D01*
X131491636Y-123397715D01*
X131488170Y-123361821D01*
X131482911Y-123349453D01*
X134045823Y-123349453D01*
X134067467Y-123399824D01*
X134155145Y-123493274D01*
X134178595Y-123514646D01*
X134286950Y-123603770D01*
X134349918Y-123639926D01*
X134353595Y-123638580D01*
X134330413Y-123589993D01*
X134248679Y-123493274D01*
X134237132Y-123481188D01*
X134129336Y-123385758D01*
X134053907Y-123346623D01*
X134045823Y-123349453D01*
X131482911Y-123349453D01*
X131443044Y-123255699D01*
X131431278Y-123238359D01*
X131426587Y-123229302D01*
X133838056Y-123229302D01*
X133839760Y-123243323D01*
X133896716Y-123287963D01*
X133910738Y-123286258D01*
X133955377Y-123229302D01*
X133953672Y-123215281D01*
X133896716Y-123170642D01*
X133882695Y-123172346D01*
X133838056Y-123229302D01*
X131426587Y-123229302D01*
X131385087Y-123149179D01*
X133672451Y-123149179D01*
X133720735Y-123170642D01*
X133751790Y-123166408D01*
X133759842Y-123131535D01*
X133751244Y-123124514D01*
X133681628Y-123131535D01*
X133672451Y-123149179D01*
X131385087Y-123149179D01*
X131374453Y-123128647D01*
X131291687Y-122949828D01*
X131196498Y-122730688D01*
X131186283Y-122706641D01*
X133261156Y-122706641D01*
X133314964Y-122894258D01*
X133319227Y-122909171D01*
X133354358Y-123036442D01*
X133368772Y-123096929D01*
X133369846Y-123100854D01*
X133419693Y-123103457D01*
X133559418Y-123071545D01*
X133604125Y-123057437D01*
X133653839Y-123011941D01*
X133607870Y-122942371D01*
X133460889Y-122835985D01*
X133261156Y-122706641D01*
X131186283Y-122706641D01*
X131124792Y-122561882D01*
X131045149Y-122381473D01*
X130968313Y-122221220D01*
X130878835Y-122050732D01*
X130761267Y-121839616D01*
X130600161Y-121557478D01*
X130540025Y-121452901D01*
X130407427Y-121226665D01*
X130313827Y-121078513D01*
X130246051Y-120990455D01*
X130190928Y-120944504D01*
X130135284Y-120922673D01*
X130134591Y-120922490D01*
X130084348Y-120894828D01*
X130045293Y-120829338D01*
X130012070Y-120706259D01*
X129979326Y-120505828D01*
X129941706Y-120208286D01*
X129940856Y-120201339D01*
X129917459Y-120050414D01*
X129878403Y-119832524D01*
X129831670Y-119592351D01*
X129783593Y-119336812D01*
X129737434Y-119057322D01*
X129706197Y-118829764D01*
X129703749Y-118808073D01*
X129677391Y-118578319D01*
X129644387Y-118295179D01*
X129611286Y-118014876D01*
X129601084Y-117927174D01*
X129580723Y-117709584D01*
X129581088Y-117570458D01*
X129604098Y-117481208D01*
X129651672Y-117413246D01*
X129706818Y-117331271D01*
X129710456Y-117263673D01*
X129689759Y-117262471D01*
X129601051Y-117317106D01*
X129466180Y-117431700D01*
X129305117Y-117586596D01*
X129137830Y-117762134D01*
X128984288Y-117938657D01*
X128864459Y-118096508D01*
X128831899Y-118144240D01*
X128698942Y-118325695D01*
X128578637Y-118448558D01*
X128430965Y-118547404D01*
X128215908Y-118656805D01*
X128101864Y-118718762D01*
X127787505Y-118950031D01*
X127432789Y-119289929D01*
X127037122Y-119739002D01*
X126732827Y-120088196D01*
X126421013Y-120394639D01*
X126099355Y-120650311D01*
X125735563Y-120883610D01*
X125510888Y-121028487D01*
X125182421Y-121275569D01*
X124839967Y-121565693D01*
X124506061Y-121877564D01*
X124203239Y-122189883D01*
X123954036Y-122481357D01*
X123780988Y-122730688D01*
X123706308Y-122856807D01*
X123621802Y-122989965D01*
X123573671Y-123053321D01*
X123532930Y-123105578D01*
X123449456Y-123233421D01*
X123344931Y-123405284D01*
X123227444Y-123602506D01*
X123070012Y-123863715D01*
X122920442Y-124109210D01*
X122896116Y-124149236D01*
X122705466Y-124486284D01*
X122512637Y-124862630D01*
X122333934Y-125243713D01*
X122185664Y-125594974D01*
X122084131Y-125881852D01*
X122083241Y-125884831D01*
X121994333Y-126224494D01*
X121916278Y-126616522D01*
X121846618Y-127077151D01*
X121782892Y-127622621D01*
X121722644Y-128269170D01*
X121700432Y-128517599D01*
X121656620Y-128955123D01*
X121607616Y-129394843D01*
X121557935Y-129797019D01*
X121512094Y-130121912D01*
X121486182Y-130286098D01*
X121447984Y-130515322D01*
X121407223Y-130739877D01*
X121360241Y-130976699D01*
X121303380Y-131242726D01*
X121232983Y-131554894D01*
X121145392Y-131930140D01*
X121036948Y-132385402D01*
X120903995Y-132937616D01*
X120901632Y-132947409D01*
X120815266Y-133313492D01*
X120726270Y-133704181D01*
X120644990Y-134073332D01*
X120581771Y-134374799D01*
X120546442Y-134546810D01*
X120483503Y-134839134D01*
X120424333Y-135098600D01*
X120378152Y-135284037D01*
X120345055Y-135411986D01*
X120271999Y-135740312D01*
X120207566Y-136090734D01*
X120153938Y-136443688D01*
X120113296Y-136779607D01*
X120087821Y-137078926D01*
X120079696Y-137322080D01*
X120091101Y-137489503D01*
X120124218Y-137561629D01*
X120153620Y-137582003D01*
X120096832Y-137596495D01*
X120029205Y-137611773D01*
X119997296Y-137673110D01*
X120051801Y-137759992D01*
X120184823Y-137849688D01*
X120375469Y-137943552D01*
X120092363Y-137940792D01*
X119809256Y-137938031D01*
X119841063Y-137666923D01*
X119861484Y-137476320D01*
X119886402Y-137218164D01*
X119909580Y-136955861D01*
X119911484Y-136935150D01*
X119941498Y-136719294D01*
X119997828Y-136401869D01*
X120078155Y-135993563D01*
X120180161Y-135505062D01*
X120301527Y-134947054D01*
X120439933Y-134330225D01*
X120593062Y-133665264D01*
X120758593Y-132962856D01*
X120934208Y-132233690D01*
X121044936Y-131761856D01*
X121179466Y-131122152D01*
X121292552Y-130486894D01*
X121388968Y-129825646D01*
X121473491Y-129107972D01*
X121550896Y-128303436D01*
X121553144Y-128277948D01*
X121621670Y-127583110D01*
X121699659Y-126982253D01*
X121794587Y-126452815D01*
X121913932Y-125972232D01*
X122065169Y-125517944D01*
X122255776Y-125067387D01*
X122493230Y-124598001D01*
X122785008Y-124087221D01*
X123138587Y-123512487D01*
X123214781Y-123391821D01*
X123464972Y-123001420D01*
X123674198Y-122687386D01*
X123856817Y-122430077D01*
X124027184Y-122209849D01*
X124199655Y-122007057D01*
X124388586Y-121802058D01*
X124599804Y-121602011D01*
X124896982Y-121356229D01*
X125240384Y-121097756D01*
X125600599Y-120848676D01*
X125948218Y-120631068D01*
X126048742Y-120567130D01*
X126378262Y-120297065D01*
X126740134Y-119915415D01*
X126838542Y-119801909D01*
X127161658Y-119436682D01*
X127428615Y-119149898D01*
X127651533Y-118930110D01*
X127842533Y-118765874D01*
X128013734Y-118645744D01*
X128177258Y-118558273D01*
X128312600Y-118489928D01*
X128476532Y-118376492D01*
X128633253Y-118219190D01*
X128815346Y-117988949D01*
X128831219Y-117967787D01*
X129036377Y-117713777D01*
X129271439Y-117448863D01*
X129488624Y-117227111D01*
X129548278Y-117169594D01*
X129701906Y-117010698D01*
X129808953Y-116883642D01*
X129849141Y-116811787D01*
X129848994Y-116806154D01*
X129825177Y-116683293D01*
X129766021Y-116475117D01*
X129679262Y-116203395D01*
X129572639Y-115889896D01*
X129453889Y-115556388D01*
X129330750Y-115224639D01*
X129210959Y-114916419D01*
X129102253Y-114653496D01*
X129012371Y-114457639D01*
X128976032Y-114382371D01*
X129439508Y-114382371D01*
X129494377Y-114427254D01*
X129542826Y-114450147D01*
X129626364Y-114452224D01*
X129634351Y-114450379D01*
X129661993Y-114504669D01*
X129673160Y-114633960D01*
X129673598Y-114655138D01*
X129704374Y-114860493D01*
X129768797Y-115062710D01*
X129769059Y-115063308D01*
X129823663Y-115233556D01*
X129874987Y-115469682D01*
X129911949Y-115720757D01*
X129955637Y-116083776D01*
X130000180Y-116358166D01*
X130046365Y-116540246D01*
X130096741Y-116642738D01*
X130118874Y-116680012D01*
X130174821Y-116815798D01*
X130231815Y-116994701D01*
X130260670Y-117096363D01*
X130291668Y-117189164D01*
X130303050Y-117179473D01*
X130300960Y-117074368D01*
X130300491Y-117060400D01*
X130316629Y-116919465D01*
X130363828Y-116849503D01*
X130382640Y-116835608D01*
X130390523Y-116813709D01*
X131736503Y-116813709D01*
X131996204Y-116883168D01*
X132065238Y-116900677D01*
X132242967Y-116937827D01*
X132366109Y-116952628D01*
X132410445Y-116948753D01*
X132495488Y-116892356D01*
X132492348Y-116789711D01*
X132398003Y-116667796D01*
X132378967Y-116644844D01*
X133961823Y-116644844D01*
X133998086Y-116685673D01*
X134017272Y-116692070D01*
X134190678Y-116712257D01*
X134414960Y-116698752D01*
X134637769Y-116654137D01*
X134661936Y-116646728D01*
X134815972Y-116562400D01*
X134860620Y-116443240D01*
X134795813Y-116286900D01*
X134621482Y-116091028D01*
X134489167Y-115975840D01*
X134367976Y-115891154D01*
X134301405Y-115871076D01*
X134297913Y-115873662D01*
X134263026Y-115956635D01*
X134248679Y-116099309D01*
X134217261Y-116268871D01*
X134081279Y-116474157D01*
X134002923Y-116564288D01*
X133961823Y-116644844D01*
X132378967Y-116644844D01*
X132292816Y-116540973D01*
X132221547Y-116382427D01*
X132218699Y-116369467D01*
X132175819Y-116187354D01*
X132142257Y-116100298D01*
X132104902Y-116089368D01*
X132050643Y-116135631D01*
X132012887Y-116186482D01*
X131933328Y-116332448D01*
X131852600Y-116516540D01*
X131736503Y-116813709D01*
X130390523Y-116813709D01*
X130421515Y-116727617D01*
X130435746Y-116537285D01*
X130435990Y-116500691D01*
X130436295Y-116497554D01*
X130622979Y-116497554D01*
X130623444Y-116502053D01*
X130653607Y-116631682D01*
X130699719Y-116693088D01*
X130715278Y-116688609D01*
X130801023Y-116626910D01*
X130935668Y-116510548D01*
X131096583Y-116361348D01*
X131261135Y-116201140D01*
X131406692Y-116051750D01*
X131510623Y-115935005D01*
X131550296Y-115872735D01*
X131500936Y-115848419D01*
X131379582Y-115838078D01*
X131339909Y-115841253D01*
X131147839Y-115913575D01*
X130906884Y-116076783D01*
X130777844Y-116182607D01*
X130670088Y-116292406D01*
X130625113Y-116387538D01*
X130622979Y-116497554D01*
X130436295Y-116497554D01*
X130453553Y-116320158D01*
X130515260Y-116178450D01*
X130644023Y-116018503D01*
X130736952Y-115924599D01*
X130882669Y-115817208D01*
X131073302Y-115725950D01*
X131343948Y-115631415D01*
X131538390Y-115566823D01*
X131748837Y-115480955D01*
X131893147Y-115388665D01*
X131999951Y-115269953D01*
X132097880Y-115104822D01*
X132190864Y-114928840D01*
X132193213Y-115204016D01*
X132191528Y-115290529D01*
X132175094Y-115437758D01*
X132146499Y-115509514D01*
X132122811Y-115541344D01*
X132096912Y-115650977D01*
X132091286Y-115788316D01*
X132102126Y-115872735D01*
X132106356Y-115905682D01*
X132142544Y-115955399D01*
X132209379Y-115939588D01*
X132331404Y-115884721D01*
X132443115Y-115836976D01*
X132633426Y-115794635D01*
X132891324Y-115772554D01*
X133232992Y-115769523D01*
X133674614Y-115784333D01*
X133845092Y-115780166D01*
X134032083Y-115725775D01*
X134120152Y-115620510D01*
X134104112Y-115472789D01*
X133978772Y-115291028D01*
X133895508Y-115189287D01*
X133866165Y-115103357D01*
X133934777Y-115081615D01*
X134100268Y-115125528D01*
X134130072Y-115135100D01*
X134306321Y-115173456D01*
X134545876Y-115208517D01*
X134805832Y-115233703D01*
X134981145Y-115247062D01*
X135164989Y-115268377D01*
X135276416Y-115298832D01*
X135342338Y-115347103D01*
X135389667Y-115421861D01*
X135470416Y-115546905D01*
X135598030Y-115691565D01*
X135608129Y-115701355D01*
X135700533Y-115822995D01*
X135814131Y-116010796D01*
X135926668Y-116228405D01*
X135977067Y-116337613D01*
X136017953Y-116443240D01*
X136068506Y-116573839D01*
X136113910Y-116784054D01*
X136119639Y-116892356D01*
X136126409Y-117020322D01*
X136126413Y-117022759D01*
X136122295Y-117181318D01*
X136105945Y-117334843D01*
X136071891Y-117506427D01*
X136014658Y-117719166D01*
X135928772Y-117996152D01*
X135808760Y-118360480D01*
X135734985Y-118508006D01*
X135615392Y-118583876D01*
X135585649Y-118587077D01*
X135517648Y-118573770D01*
X135470016Y-118509496D01*
X135431710Y-118372369D01*
X135391688Y-118140503D01*
X135379291Y-118074192D01*
X135338494Y-117943243D01*
X135295222Y-117891196D01*
X135243307Y-117873359D01*
X135145765Y-117799433D01*
X135136368Y-117789521D01*
X135089977Y-117703753D01*
X135076297Y-117567845D01*
X135091433Y-117349545D01*
X135128865Y-116991420D01*
X134938079Y-117197910D01*
X134920323Y-117216828D01*
X134745468Y-117373947D01*
X134584368Y-117472366D01*
X134458203Y-117502232D01*
X134388155Y-117453695D01*
X134377640Y-117412335D01*
X134390323Y-117312694D01*
X134402501Y-117220731D01*
X134365564Y-117118105D01*
X134301064Y-117069949D01*
X134277020Y-117079828D01*
X134248679Y-117157940D01*
X134227483Y-117208686D01*
X134133671Y-117245930D01*
X134063857Y-117257703D01*
X133943025Y-117328438D01*
X133925455Y-117346750D01*
X133856137Y-117379892D01*
X133768959Y-117323174D01*
X133701899Y-117276447D01*
X133646652Y-117298983D01*
X133578312Y-117413734D01*
X133574437Y-117421308D01*
X133511912Y-117570119D01*
X133486093Y-117682971D01*
X133514105Y-117740212D01*
X133610950Y-117772455D01*
X133733394Y-117755790D01*
X133835162Y-117689371D01*
X133885694Y-117649141D01*
X133988502Y-117636797D01*
X134037609Y-117639454D01*
X134107810Y-117574649D01*
X134116052Y-117556493D01*
X134189404Y-117490081D01*
X134269626Y-117493603D01*
X134307340Y-117568563D01*
X134297491Y-117609534D01*
X134222264Y-117656554D01*
X134183815Y-117662965D01*
X134090278Y-117731115D01*
X134089181Y-117732833D01*
X133967747Y-117832835D01*
X133755659Y-117917887D01*
X133479072Y-117977449D01*
X133418122Y-117984539D01*
X133176326Y-117974053D01*
X132899488Y-117895275D01*
X132576855Y-117776027D01*
X132962751Y-117800766D01*
X133168960Y-117810817D01*
X133284641Y-117803899D01*
X133333516Y-117774351D01*
X133340624Y-117716593D01*
X133316746Y-117620583D01*
X133233939Y-117502685D01*
X133122446Y-117431057D01*
X133013459Y-117422856D01*
X132938172Y-117495237D01*
X132904495Y-117533713D01*
X132845293Y-117480572D01*
X132841778Y-117475709D01*
X132782948Y-117423528D01*
X132729427Y-117474455D01*
X132689649Y-117510949D01*
X132582775Y-117520291D01*
X132519157Y-117514137D01*
X132488864Y-117589958D01*
X132488080Y-117606461D01*
X132432520Y-117686235D01*
X132290025Y-117688480D01*
X132061630Y-117613140D01*
X131981319Y-117581673D01*
X131850613Y-117553908D01*
X131772207Y-117587160D01*
X131771849Y-117587520D01*
X131755300Y-117648981D01*
X131813410Y-117743169D01*
X131956851Y-117887440D01*
X131988141Y-117916027D01*
X132140434Y-118038906D01*
X132256906Y-118090720D01*
X132371267Y-118087764D01*
X132484713Y-118082978D01*
X132680390Y-118151529D01*
X132721307Y-118173497D01*
X132919654Y-118220656D01*
X133181875Y-118226778D01*
X133473580Y-118195002D01*
X133760377Y-118128468D01*
X134007877Y-118030317D01*
X134018347Y-118024934D01*
X134241427Y-117952846D01*
X134421209Y-117979046D01*
X134544825Y-118101821D01*
X134626154Y-118253785D01*
X134725457Y-118131151D01*
X134807306Y-118049969D01*
X134888683Y-118008517D01*
X134949030Y-118045360D01*
X134934888Y-118154620D01*
X134846488Y-118325042D01*
X134688060Y-118545309D01*
X134570036Y-118687562D01*
X134436243Y-118817330D01*
X134301657Y-118895067D01*
X134128889Y-118947677D01*
X134088443Y-118956410D01*
X133866841Y-118987750D01*
X133590641Y-119009333D01*
X133310098Y-119016910D01*
X133216556Y-119016178D01*
X132971781Y-119004093D01*
X132781973Y-118966100D01*
X132612735Y-118887849D01*
X132429671Y-118754995D01*
X132198386Y-118553190D01*
X132106509Y-118478346D01*
X132037281Y-118455470D01*
X132033731Y-118527770D01*
X132094466Y-118697180D01*
X132102637Y-118716993D01*
X132173976Y-118927200D01*
X132221863Y-119128350D01*
X132225879Y-119150830D01*
X132325022Y-119383815D01*
X132513658Y-119543797D01*
X132785487Y-119625221D01*
X132792416Y-119626094D01*
X133014014Y-119637140D01*
X133278506Y-119626620D01*
X133553850Y-119598682D01*
X133808003Y-119557475D01*
X134008922Y-119507147D01*
X134124566Y-119451847D01*
X134136903Y-119441509D01*
X134296427Y-119374202D01*
X134490839Y-119363247D01*
X134656305Y-119413275D01*
X134707774Y-119483999D01*
X134736750Y-119662174D01*
X134721300Y-119923559D01*
X134661337Y-120253679D01*
X134619059Y-120479553D01*
X134620719Y-120606591D01*
X134669199Y-120634902D01*
X134766218Y-120569666D01*
X134915905Y-120498309D01*
X135143975Y-120472258D01*
X135229031Y-120473072D01*
X135354540Y-120487521D01*
X135411205Y-120534757D01*
X135432658Y-120633575D01*
X135435668Y-120656907D01*
X135452897Y-120711261D01*
X135486539Y-120694420D01*
X135547405Y-120594561D01*
X135646303Y-120399856D01*
X135653171Y-120385893D01*
X135750388Y-120167383D01*
X135816176Y-119958987D01*
X135861170Y-119718228D01*
X135896008Y-119402627D01*
X135910767Y-119250479D01*
X135943607Y-118959585D01*
X135978266Y-118700935D01*
X136009325Y-118516894D01*
X136027081Y-118419478D01*
X136043842Y-118265423D01*
X136036588Y-118182497D01*
X136032518Y-118162419D01*
X136057658Y-118056996D01*
X136124147Y-117909631D01*
X136131923Y-117894619D01*
X136211184Y-117668598D01*
X136243137Y-117434533D01*
X136244373Y-117387850D01*
X136271636Y-117185266D01*
X136323410Y-117023040D01*
X136325767Y-117018236D01*
X136370833Y-116876346D01*
X136412787Y-116663793D01*
X136442825Y-116424683D01*
X136448711Y-116361253D01*
X136495775Y-115974609D01*
X136555436Y-115641760D01*
X136623257Y-115383879D01*
X136694800Y-115222143D01*
X136740653Y-115157416D01*
X136778247Y-115144745D01*
X136809013Y-115238044D01*
X136815276Y-115260432D01*
X136857448Y-115332444D01*
X136924897Y-115304187D01*
X136948525Y-115278422D01*
X136997264Y-115124371D01*
X136994771Y-114876539D01*
X136940852Y-114544142D01*
X136901288Y-114392657D01*
X136826745Y-114243338D01*
X136713621Y-114148477D01*
X136652731Y-114109117D01*
X136583619Y-114030529D01*
X136543874Y-113906122D01*
X136517891Y-113700150D01*
X136497772Y-113548389D01*
X136446352Y-113304352D01*
X136415637Y-113208895D01*
X136842833Y-113208895D01*
X136851410Y-113369306D01*
X136868330Y-113546389D01*
X136890456Y-113702408D01*
X136914656Y-113799625D01*
X136975522Y-113886498D01*
X137037378Y-113884961D01*
X137064384Y-113781317D01*
X137060196Y-113736454D01*
X137031831Y-113599321D01*
X136986045Y-113428155D01*
X136933920Y-113260015D01*
X136886536Y-113131955D01*
X136854974Y-113081034D01*
X136845731Y-113102894D01*
X136842833Y-113208895D01*
X136415637Y-113208895D01*
X136383933Y-113110364D01*
X136372353Y-113081433D01*
X136313620Y-112891376D01*
X136253966Y-112641200D01*
X136204686Y-112377108D01*
X136175353Y-112191402D01*
X136128773Y-111899499D01*
X136094747Y-111694256D01*
X136069594Y-111556206D01*
X136049631Y-111465884D01*
X136031178Y-111403820D01*
X136010553Y-111350549D01*
X135970464Y-111245572D01*
X135905096Y-111064305D01*
X135830951Y-110851935D01*
X135756901Y-110654331D01*
X135670065Y-110455897D01*
X135597949Y-110323990D01*
X135520105Y-110194312D01*
X135457001Y-110051773D01*
X135423034Y-109990603D01*
X135317678Y-109852871D01*
X135161912Y-109673621D01*
X134975182Y-109476087D01*
X134915746Y-109415076D01*
X134707151Y-109185580D01*
X134591185Y-109025894D01*
X134567168Y-108935116D01*
X134610456Y-108877233D01*
X134686758Y-108914582D01*
X134753101Y-108948736D01*
X134850350Y-108935919D01*
X134893945Y-108854016D01*
X134887336Y-108841116D01*
X134804059Y-108810895D01*
X134655841Y-108798817D01*
X134596805Y-108800454D01*
X134480472Y-108818246D01*
X134448944Y-108849311D01*
X134450650Y-108859091D01*
X134392850Y-108870867D01*
X134261759Y-108851797D01*
X134243777Y-108847852D01*
X134066691Y-108809382D01*
X133828007Y-108757932D01*
X133574084Y-108703499D01*
X133505921Y-108688538D01*
X133296032Y-108637048D01*
X133142632Y-108591137D01*
X133075047Y-108559280D01*
X133031695Y-108546451D01*
X132894587Y-108544839D01*
X132693751Y-108557794D01*
X132458710Y-108582140D01*
X132218988Y-108614701D01*
X132004110Y-108652300D01*
X131843599Y-108691761D01*
X131733327Y-108730499D01*
X131500715Y-108829067D01*
X131271004Y-108943775D01*
X131080046Y-109056058D01*
X130963691Y-109147356D01*
X130947621Y-109164196D01*
X130842131Y-109263142D01*
X130681780Y-109404867D01*
X130494407Y-109564617D01*
X130311996Y-109719088D01*
X130148475Y-109868689D01*
X130022514Y-110009133D01*
X129923174Y-110160930D01*
X129839515Y-110344592D01*
X129760599Y-110580631D01*
X129675486Y-110889560D01*
X129573238Y-111291889D01*
X129552095Y-111395029D01*
X129522316Y-111656916D01*
X129509830Y-111961279D01*
X129513816Y-112276309D01*
X129533455Y-112570193D01*
X129567926Y-112811123D01*
X129616411Y-112967286D01*
X129650433Y-113077754D01*
X129676135Y-113286223D01*
X129682175Y-113544760D01*
X129682892Y-113735981D01*
X129703130Y-113939231D01*
X129746821Y-114030115D01*
X129789887Y-114064960D01*
X129746485Y-114077365D01*
X129701311Y-114105499D01*
X129673160Y-114207316D01*
X129673340Y-114224746D01*
X129689874Y-114296244D01*
X129743552Y-114265976D01*
X129815308Y-114209764D01*
X129874594Y-114207514D01*
X129869121Y-114286789D01*
X129824471Y-114338628D01*
X129709646Y-114368286D01*
X129629012Y-114364239D01*
X129497178Y-114365970D01*
X129489893Y-114366610D01*
X129439508Y-114382371D01*
X128976032Y-114382371D01*
X128933780Y-114294857D01*
X128778820Y-113904935D01*
X128704026Y-113577731D01*
X128681129Y-113435247D01*
X128618922Y-113178305D01*
X128543820Y-112964604D01*
X128492630Y-112836470D01*
X128456270Y-112680688D01*
X128447257Y-112492987D01*
X128460836Y-112231348D01*
X128499698Y-111874503D01*
X128618140Y-111341608D01*
X128806594Y-110892227D01*
X129069690Y-110516496D01*
X129412058Y-110204549D01*
X129572418Y-110077637D01*
X129728011Y-109936674D01*
X129822627Y-109829310D01*
X129916155Y-109729819D01*
X130053077Y-109654982D01*
X130070843Y-109649455D01*
X130202502Y-109568322D01*
X130328627Y-109439172D01*
X130341026Y-109422863D01*
X130495474Y-109235345D01*
X130665018Y-109051470D01*
X130827379Y-108893082D01*
X130960281Y-108782029D01*
X131041444Y-108740157D01*
X131047762Y-108739707D01*
X131140234Y-108691366D01*
X131251181Y-108587578D01*
X131260092Y-108577479D01*
X131391768Y-108473774D01*
X131533612Y-108463629D01*
X131691438Y-108454471D01*
X131866144Y-108388424D01*
X131918315Y-108361785D01*
X132191285Y-108279174D01*
X132519969Y-108245178D01*
X132862309Y-108261658D01*
X133176243Y-108330474D01*
X133308935Y-108368157D01*
X133604984Y-108423311D01*
X133886943Y-108445412D01*
X134060944Y-108453877D01*
X134451325Y-108511922D01*
X134880756Y-108616037D01*
X135318001Y-108755670D01*
X135731824Y-108920271D01*
X136090990Y-109099289D01*
X136364260Y-109282174D01*
X136417629Y-109329201D01*
X136640063Y-109605782D01*
X136825511Y-109984429D01*
X136976807Y-110470642D01*
X137003561Y-110586037D01*
X137038204Y-110792506D01*
X137055427Y-111018458D01*
X137057094Y-111296307D01*
X137045066Y-111658465D01*
X137036823Y-111869242D01*
X137031643Y-112165642D01*
X137039696Y-112383919D01*
X137062328Y-112548803D01*
X137100883Y-112685024D01*
X137128897Y-112780392D01*
X137157607Y-112950439D01*
X137175848Y-113181668D01*
X137184926Y-113492731D01*
X137185787Y-113781317D01*
X137186148Y-113902281D01*
X137184650Y-114106398D01*
X137175769Y-114541330D01*
X137156756Y-114881237D01*
X137126318Y-115124371D01*
X137124116Y-115141964D01*
X137074354Y-115339353D01*
G37*
G36*
X132430204Y-114283575D02*
G01*
X132400873Y-114312905D01*
X132371543Y-114283575D01*
X132400873Y-114254244D01*
X132430204Y-114283575D01*
G37*
G36*
X126770915Y-129317428D02*
G01*
X126779541Y-129417986D01*
X126785142Y-129483281D01*
X126803207Y-129714261D01*
X126822315Y-129975261D01*
X126825915Y-130025344D01*
X126853032Y-130374042D01*
X126859014Y-130444545D01*
X126885222Y-130753423D01*
X126916272Y-131089810D01*
X126940185Y-131368717D01*
X126963586Y-131695969D01*
X126965423Y-131721655D01*
X126988810Y-132101548D01*
X127007340Y-132463077D01*
X127016252Y-132671711D01*
X127024585Y-132931721D01*
X127024079Y-133098912D01*
X127013749Y-133188414D01*
X126992610Y-133215356D01*
X126959675Y-133194868D01*
X126942587Y-133175700D01*
X126857031Y-133048112D01*
X126751551Y-132859165D01*
X126641969Y-132641389D01*
X126544108Y-132427317D01*
X126473788Y-132249480D01*
X126446832Y-132140409D01*
X126422382Y-132025484D01*
X126351902Y-131879370D01*
X126300695Y-131774400D01*
X126306718Y-131713613D01*
X126809171Y-131713613D01*
X126857455Y-131735076D01*
X126888510Y-131730842D01*
X126896562Y-131695969D01*
X126887965Y-131688948D01*
X126818348Y-131695969D01*
X126809171Y-131713613D01*
X126306718Y-131713613D01*
X126311990Y-131660411D01*
X126422053Y-131601002D01*
X126625108Y-131602038D01*
X126677689Y-131608058D01*
X126806079Y-131611426D01*
X126857455Y-131593468D01*
X126856129Y-131586960D01*
X126818593Y-131500544D01*
X126737356Y-131336509D01*
X126623157Y-131115426D01*
X126486738Y-130857864D01*
X126338839Y-130584393D01*
X126261510Y-130444545D01*
X126446832Y-130444545D01*
X126448536Y-130458566D01*
X126505492Y-130503205D01*
X126519514Y-130501500D01*
X126564153Y-130444545D01*
X126562448Y-130430523D01*
X126505492Y-130385884D01*
X126491471Y-130387589D01*
X126446832Y-130444545D01*
X126261510Y-130444545D01*
X126190200Y-130315583D01*
X126132145Y-130209368D01*
X126080453Y-130092466D01*
X126082227Y-130027923D01*
X126132239Y-129986009D01*
X126137744Y-129982804D01*
X126192900Y-129906350D01*
X126155818Y-129832423D01*
X126044478Y-129799279D01*
X125990289Y-129791756D01*
X125874704Y-129731632D01*
X125855157Y-129704671D01*
X125848958Y-129595897D01*
X125909986Y-129493011D01*
X126013243Y-129447316D01*
X126061180Y-129432215D01*
X126064925Y-129417986D01*
X126388171Y-129417986D01*
X126417502Y-129447316D01*
X126446832Y-129417986D01*
X126417502Y-129388655D01*
X126388171Y-129417986D01*
X126064925Y-129417986D01*
X126083923Y-129345813D01*
X126070203Y-129312715D01*
X125968334Y-129241600D01*
X125863330Y-129212674D01*
X126212190Y-129212674D01*
X126214577Y-129228752D01*
X126274312Y-129271334D01*
X126295530Y-129266729D01*
X126300181Y-129212674D01*
X126288141Y-129195119D01*
X126238058Y-129154013D01*
X126232204Y-129155539D01*
X126212190Y-129212674D01*
X125863330Y-129212674D01*
X125761041Y-129184496D01*
X125646634Y-129159160D01*
X125490964Y-129114052D01*
X125409659Y-129075430D01*
X125403579Y-129062520D01*
X125436916Y-128985840D01*
X125491130Y-128931551D01*
X125930595Y-128931551D01*
X125977548Y-128978032D01*
X126027798Y-129005688D01*
X126124199Y-129034896D01*
X126141822Y-129024513D01*
X126094869Y-128978032D01*
X126044619Y-128950375D01*
X125948218Y-128921168D01*
X125930595Y-128931551D01*
X125491130Y-128931551D01*
X125537594Y-128885022D01*
X125713575Y-128743868D01*
X125537594Y-128795672D01*
X125533969Y-128796739D01*
X125348257Y-128849408D01*
X125245442Y-128869185D01*
X125196751Y-128857734D01*
X125173410Y-128816716D01*
X125176749Y-128774144D01*
X125255681Y-128743390D01*
X125343287Y-128727461D01*
X125480546Y-128662453D01*
X125559075Y-128617304D01*
X125759246Y-128529991D01*
X126018054Y-128436017D01*
X126300748Y-128346822D01*
X126572579Y-128273844D01*
X126798795Y-128228522D01*
X126830500Y-128224160D01*
X127177755Y-128197160D01*
X127555130Y-128197921D01*
X127914227Y-128224803D01*
X128206647Y-128276170D01*
X128261182Y-128289817D01*
X128488795Y-128339450D01*
X128690596Y-128374220D01*
X128730422Y-128380555D01*
X128858804Y-128418182D01*
X128910573Y-128463581D01*
X128865197Y-128496593D01*
X128743146Y-128489928D01*
X128611111Y-128484629D01*
X128510990Y-128521171D01*
X128454718Y-128554219D01*
X128359332Y-128513755D01*
X128260030Y-128470714D01*
X128107538Y-128460514D01*
X128083105Y-128463730D01*
X127976425Y-128505128D01*
X127955592Y-128596739D01*
X127955690Y-128597641D01*
X127962212Y-128701796D01*
X127970383Y-128895397D01*
X127979168Y-129151100D01*
X127987534Y-129441562D01*
X127993600Y-129654611D01*
X128003946Y-129892639D01*
X128019055Y-130047274D01*
X128042709Y-130138935D01*
X128078688Y-130188042D01*
X128130774Y-130215015D01*
X128194194Y-130245027D01*
X128245355Y-130297027D01*
X128282003Y-130387934D01*
X128309156Y-130537321D01*
X128331831Y-130764756D01*
X128355045Y-131089810D01*
X128361694Y-131194647D01*
X128373925Y-131425314D01*
X128382445Y-131662002D01*
X128387078Y-131917066D01*
X128387648Y-132202859D01*
X128383981Y-132531735D01*
X128375901Y-132916045D01*
X128363233Y-133368144D01*
X128345801Y-133900385D01*
X128323431Y-134525122D01*
X128306075Y-134985846D01*
X128295947Y-135254706D01*
X128295200Y-135274260D01*
X128291162Y-135379955D01*
X128289563Y-135422268D01*
X128271831Y-135891465D01*
X128254112Y-136369071D01*
X128238497Y-136798883D01*
X128228180Y-137090646D01*
X128225479Y-137167014D01*
X128215551Y-137459576D01*
X128209207Y-137662682D01*
X128206938Y-137762443D01*
X128206647Y-137953090D01*
X126991046Y-137953090D01*
X127019080Y-137806438D01*
X127050438Y-137709879D01*
X127098936Y-137659787D01*
X127102850Y-137659244D01*
X127136456Y-137598909D01*
X127149635Y-137469140D01*
X127149497Y-137452013D01*
X127144166Y-137366969D01*
X127123655Y-137359213D01*
X127077329Y-137438802D01*
X126994553Y-137615792D01*
X126840595Y-137953090D01*
X126115769Y-137953090D01*
X125845703Y-137951467D01*
X125620958Y-137944234D01*
X125481711Y-137929343D01*
X125410769Y-137904786D01*
X125390943Y-137868561D01*
X125407362Y-137795087D01*
X125487498Y-137739156D01*
X125598130Y-137778665D01*
X125670440Y-137817163D01*
X125716337Y-137761735D01*
X125731508Y-137737348D01*
X125831631Y-137653169D01*
X125983382Y-137569166D01*
X126012436Y-137555584D01*
X126158735Y-137460649D01*
X126199272Y-137372060D01*
X126157493Y-137312984D01*
X126045406Y-137261134D01*
X125851515Y-137215633D01*
X125734342Y-137198556D01*
X127185961Y-137198556D01*
X127192089Y-137249164D01*
X127232903Y-137200987D01*
X127258333Y-137090646D01*
X127255027Y-136973953D01*
X127250215Y-136955988D01*
X127227074Y-136952238D01*
X127201565Y-137058517D01*
X127198998Y-137075058D01*
X127185961Y-137198556D01*
X125734342Y-137198556D01*
X125563985Y-137173728D01*
X125170983Y-137132663D01*
X125063725Y-137122320D01*
X124805226Y-137094100D01*
X124586561Y-137065899D01*
X124446274Y-137042512D01*
X124421229Y-137036722D01*
X124208147Y-136970257D01*
X123988691Y-136878422D01*
X123802785Y-136779699D01*
X123690355Y-136692572D01*
X123636428Y-136646283D01*
X123512001Y-136603898D01*
X123509969Y-136603851D01*
X123411806Y-136566130D01*
X123258806Y-136471544D01*
X123083186Y-136339926D01*
X123072452Y-136331209D01*
X122904962Y-136202279D01*
X122770217Y-136110755D01*
X122696516Y-136075953D01*
X122660903Y-136055686D01*
X122633899Y-135962529D01*
X122599549Y-135874459D01*
X122472582Y-135830543D01*
X122445684Y-135826854D01*
X122334718Y-135776305D01*
X122292705Y-135650665D01*
X122258890Y-135541031D01*
X122190049Y-135489348D01*
X122158229Y-135477762D01*
X122113458Y-135386231D01*
X122099687Y-135231252D01*
X122115268Y-135046289D01*
X122158555Y-134864807D01*
X122227900Y-134720267D01*
X122354874Y-134578354D01*
X122515867Y-134462948D01*
X122667321Y-134408713D01*
X122778498Y-134431756D01*
X122787825Y-134438604D01*
X122907018Y-134484988D01*
X123071792Y-134513079D01*
X123256101Y-134558542D01*
X123420163Y-134696353D01*
X123487632Y-134767100D01*
X123642922Y-134841285D01*
X123826945Y-134817339D01*
X124047919Y-134693148D01*
X124314063Y-134466602D01*
X124509153Y-134295007D01*
X124795447Y-134108464D01*
X125050267Y-134032064D01*
X125276975Y-134065058D01*
X125478933Y-134206696D01*
X125515102Y-134242246D01*
X125661778Y-134363810D01*
X125786901Y-134438256D01*
X125869868Y-134494575D01*
X125918887Y-134597763D01*
X125919090Y-134603671D01*
X125964558Y-134719203D01*
X126065539Y-134844083D01*
X126076317Y-134854403D01*
X126172632Y-134967790D01*
X126212190Y-135054355D01*
X126242777Y-135154983D01*
X126324342Y-135298670D01*
X126430827Y-135445813D01*
X126536079Y-135560464D01*
X126613949Y-135606669D01*
X126636975Y-135604548D01*
X126759923Y-135546643D01*
X126869035Y-135441812D01*
X126869967Y-135439669D01*
X127099280Y-135439669D01*
X127106514Y-135557637D01*
X127130410Y-135694660D01*
X127192110Y-135548009D01*
X127198124Y-135532694D01*
X127213974Y-135422268D01*
X127180287Y-135364162D01*
X127113021Y-135390210D01*
X127099280Y-135439669D01*
X126869967Y-135439669D01*
X126916116Y-135333605D01*
X126907875Y-135299344D01*
X126895489Y-135291904D01*
X127161134Y-135291904D01*
X127209418Y-135313367D01*
X127240473Y-135309133D01*
X127248525Y-135274260D01*
X127239928Y-135267239D01*
X127170311Y-135274260D01*
X127161134Y-135291904D01*
X126895489Y-135291904D01*
X126833561Y-135254706D01*
X126749972Y-135214955D01*
X126622837Y-135104139D01*
X126511406Y-134984327D01*
X127159974Y-134984327D01*
X127173978Y-135062838D01*
X127194002Y-135061929D01*
X127204787Y-134985846D01*
X127195394Y-134928185D01*
X127169347Y-134950405D01*
X127159974Y-134984327D01*
X126511406Y-134984327D01*
X126480553Y-134951153D01*
X126348036Y-134785057D01*
X126250203Y-134634910D01*
X126211971Y-134529771D01*
X126211873Y-134524514D01*
X126178873Y-134385272D01*
X126104576Y-134228147D01*
X126017438Y-134056143D01*
X125954406Y-133880407D01*
X125913016Y-133753884D01*
X125834504Y-133555740D01*
X125739167Y-133340244D01*
X125653620Y-133142839D01*
X125590884Y-132969591D01*
X125566924Y-132863283D01*
X125549541Y-132775095D01*
X125480799Y-132640860D01*
X125428640Y-132542323D01*
X125392808Y-132378308D01*
X125381602Y-132287467D01*
X125338196Y-132103135D01*
X125273622Y-131895825D01*
X125225154Y-131745019D01*
X125175532Y-131551669D01*
X125156301Y-131418404D01*
X125156322Y-131404845D01*
X125165304Y-131319320D01*
X125213079Y-131308681D01*
X125332282Y-131362575D01*
X125344831Y-131369019D01*
X125460670Y-131449708D01*
X125508264Y-131522999D01*
X125540211Y-131606982D01*
X125625585Y-131721562D01*
X125704421Y-131853198D01*
X125742906Y-132027989D01*
X125766368Y-132183795D01*
X125835066Y-132349141D01*
X125892763Y-132478677D01*
X125866788Y-132602724D01*
X125848081Y-132642723D01*
X125853361Y-132719194D01*
X125953917Y-132782888D01*
X126045196Y-132846368D01*
X126061331Y-132915094D01*
X126050047Y-132943158D01*
X126075453Y-133017500D01*
X126117567Y-133070648D01*
X126196362Y-133204354D01*
X126288188Y-133383230D01*
X126300055Y-133407522D01*
X126438954Y-133641572D01*
X126574862Y-133765472D01*
X126718409Y-133785017D01*
X126880226Y-133706003D01*
X126920692Y-133677799D01*
X127027589Y-133626030D01*
X127076061Y-133656207D01*
X127101711Y-133704749D01*
X127170954Y-133728982D01*
X127242846Y-133663654D01*
X127293726Y-133523223D01*
X127297956Y-133499365D01*
X127312853Y-133354254D01*
X127303459Y-133270037D01*
X127301951Y-133267050D01*
X127305332Y-133180168D01*
X127341689Y-133035237D01*
X127397328Y-132877854D01*
X127458555Y-132753616D01*
X127467425Y-132703360D01*
X127414084Y-132614447D01*
X127386618Y-132579395D01*
X127343417Y-132429688D01*
X127329947Y-132209235D01*
X127346831Y-131948117D01*
X127394691Y-131676415D01*
X127402429Y-131640287D01*
X127432408Y-131452817D01*
X127465400Y-131191071D01*
X127498018Y-130888145D01*
X127526876Y-130577136D01*
X127548587Y-130291139D01*
X127559764Y-130063251D01*
X127559891Y-130058243D01*
X127564907Y-129797079D01*
X127566094Y-129581493D01*
X127563250Y-129447316D01*
X127548445Y-129233817D01*
X127510279Y-128872288D01*
X127462482Y-128627417D01*
X127405075Y-128499339D01*
X127306919Y-128435833D01*
X127134317Y-128386347D01*
X126925259Y-128360490D01*
X126709998Y-128358371D01*
X126518784Y-128380096D01*
X126381871Y-128425774D01*
X126329511Y-128495512D01*
X126332248Y-128504366D01*
X126401482Y-128558211D01*
X126534823Y-128618082D01*
X126661814Y-128674842D01*
X126727761Y-128758225D01*
X126744900Y-128908503D01*
X126745128Y-128918233D01*
X126749757Y-129024513D01*
X126753462Y-129109578D01*
X126761630Y-129212674D01*
X126766278Y-129271334D01*
X126770915Y-129317428D01*
G37*
G36*
X133437791Y-135741173D02*
G01*
X133468169Y-135885318D01*
X133461372Y-136049140D01*
X133425003Y-136162718D01*
X133394880Y-136180363D01*
X133377132Y-136086872D01*
X133373403Y-135885307D01*
X133376249Y-135755701D01*
X133384746Y-135658728D01*
X133403407Y-135658034D01*
X133437791Y-135741173D01*
G37*
G36*
X133384625Y-136938518D02*
G01*
X133427432Y-137021445D01*
X133422913Y-137041170D01*
X133368772Y-137043852D01*
X133352919Y-137031864D01*
X133310111Y-136948937D01*
X133314631Y-136929212D01*
X133368772Y-136926531D01*
X133384625Y-136938518D01*
G37*
G36*
X133334353Y-132901850D02*
G01*
X133368772Y-133003201D01*
X133360865Y-133042297D01*
X133310111Y-133054937D01*
X133285870Y-133032043D01*
X133251451Y-132930692D01*
X133259358Y-132891596D01*
X133310111Y-132878956D01*
X133334353Y-132901850D01*
G37*
G36*
X129966462Y-125781034D02*
G01*
X129937132Y-125810364D01*
X129907802Y-125781034D01*
X129937132Y-125751704D01*
X129966462Y-125781034D01*
G37*
G36*
X143517040Y-126191658D02*
G01*
X143487709Y-126220988D01*
X143458379Y-126191658D01*
X143487709Y-126162328D01*
X143517040Y-126191658D01*
G37*
G36*
X129790481Y-124519833D02*
G01*
X129786247Y-124550888D01*
X129751374Y-124558940D01*
X129744353Y-124550343D01*
X129751374Y-124480726D01*
X129769018Y-124471549D01*
X129790481Y-124519833D01*
G37*
G36*
X138591910Y-135090158D02*
G01*
X138613058Y-135238365D01*
X138629672Y-135457320D01*
X138639278Y-135721752D01*
X138642964Y-135930439D01*
X138643926Y-136140444D01*
X138636910Y-136262379D01*
X138618674Y-136313434D01*
X138585977Y-136310799D01*
X138535577Y-136271662D01*
X138465932Y-136193182D01*
X138449373Y-136124150D01*
X138448606Y-136097502D01*
X138376495Y-136075953D01*
X138331577Y-136075059D01*
X138306675Y-136058110D01*
X138377894Y-135999860D01*
X138380211Y-135998096D01*
X138442589Y-135893570D01*
X138488620Y-135718927D01*
X138512746Y-135519371D01*
X138509405Y-135340108D01*
X138473037Y-135226341D01*
X138460636Y-135206623D01*
X138457105Y-135117438D01*
X138503255Y-135044686D01*
X138572384Y-135038781D01*
X138591910Y-135090158D01*
G37*
G36*
X134318339Y-132516251D02*
G01*
X134345491Y-132537366D01*
X134282898Y-132551692D01*
X134223401Y-132547544D01*
X134205906Y-132520882D01*
X134226659Y-132509258D01*
X134318339Y-132516251D01*
G37*
G36*
X141092405Y-137210057D02*
G01*
X141101583Y-137227701D01*
X141053298Y-137249164D01*
X141022244Y-137244930D01*
X141014191Y-137210057D01*
X141022789Y-137203036D01*
X141092405Y-137210057D01*
G37*
G36*
X130661126Y-135020064D02*
G01*
X130652949Y-135100759D01*
X130631539Y-135093390D01*
X130623791Y-135066837D01*
X130631539Y-134946739D01*
X130651908Y-134936788D01*
X130661126Y-135020064D01*
G37*
G36*
X134190019Y-117333921D02*
G01*
X134160689Y-117363251D01*
X134131358Y-117333921D01*
X134160689Y-117304591D01*
X134190019Y-117333921D01*
G37*
G36*
X133151226Y-133958818D02*
G01*
X133219545Y-134106126D01*
X133287062Y-134278130D01*
X133346062Y-134464970D01*
X133368772Y-134590075D01*
X133358248Y-134676804D01*
X133322727Y-134726762D01*
X133322071Y-134726748D01*
X133296811Y-134704752D01*
X133266952Y-134630265D01*
X133228215Y-134487585D01*
X133176324Y-134261012D01*
X133107002Y-133934845D01*
X133105290Y-133926133D01*
X133110493Y-133894790D01*
X133151226Y-133958818D01*
G37*
G36*
X148584276Y-131923513D02*
G01*
X148583057Y-131999048D01*
X148564062Y-132041169D01*
X148526237Y-132087039D01*
X148515733Y-132077313D01*
X148503183Y-131999048D01*
X148509584Y-131958598D01*
X148560002Y-131911057D01*
X148584276Y-131923513D01*
G37*
G36*
X139779325Y-121940450D02*
G01*
X139821428Y-121997431D01*
X139810235Y-122025465D01*
X139729975Y-122056092D01*
X139688075Y-122047651D01*
X139674776Y-121997431D01*
X139686783Y-121981411D01*
X139766229Y-121938771D01*
X139779325Y-121940450D01*
G37*
G36*
X141305690Y-134481865D02*
G01*
X141314512Y-134721690D01*
X141288763Y-134858981D01*
X141226957Y-134902743D01*
X141193542Y-134883456D01*
X141143566Y-134792595D01*
X141129751Y-134756211D01*
X141022049Y-134588162D01*
X140869345Y-134436743D01*
X140716000Y-134348073D01*
X140710205Y-134345468D01*
X140994638Y-134345468D01*
X141023968Y-134374799D01*
X141053298Y-134345468D01*
X141023968Y-134316138D01*
X140994638Y-134345468D01*
X140710205Y-134345468D01*
X140632977Y-134310753D01*
X140584014Y-134253525D01*
X140582339Y-134240558D01*
X140525354Y-134198817D01*
X140498368Y-134208744D01*
X140466693Y-134286808D01*
X140456914Y-134327767D01*
X140382164Y-134374799D01*
X140361526Y-134375528D01*
X140272849Y-134412876D01*
X140278353Y-134482545D01*
X140378703Y-134550780D01*
X140398616Y-134559078D01*
X140484711Y-134629145D01*
X140479883Y-134696585D01*
X140383240Y-134726762D01*
X140375832Y-134727379D01*
X140324062Y-134795001D01*
X140306710Y-134973402D01*
X140304692Y-135034221D01*
X140281280Y-135175335D01*
X140240050Y-135242263D01*
X140205314Y-135269417D01*
X140173391Y-135370074D01*
X140148751Y-135439678D01*
X140050168Y-135507889D01*
X139980819Y-135539804D01*
X139960477Y-135594369D01*
X139963652Y-135601107D01*
X139965884Y-135700074D01*
X139935068Y-135847625D01*
X139930824Y-135863442D01*
X139903982Y-136013628D01*
X139874448Y-136247012D01*
X139845520Y-136534785D01*
X139820498Y-136848138D01*
X139815855Y-136912319D01*
X139788788Y-137216556D01*
X139757116Y-137484714D01*
X139724409Y-137689766D01*
X139694232Y-137804684D01*
X139692144Y-137809252D01*
X139644897Y-137892223D01*
X139578991Y-137935254D01*
X139461640Y-137948818D01*
X139260062Y-137943389D01*
X139257540Y-137943275D01*
X139049273Y-137926465D01*
X138943370Y-137897389D01*
X138925301Y-137852086D01*
X138940485Y-137823151D01*
X139006457Y-137777108D01*
X139031442Y-137765963D01*
X139058841Y-137685655D01*
X139069314Y-137639702D01*
X139132167Y-137635601D01*
X139175441Y-137652980D01*
X139136450Y-137602284D01*
X139103930Y-137544384D01*
X139117636Y-137395461D01*
X139154866Y-137207491D01*
X139097725Y-137029187D01*
X139082949Y-136989635D01*
X139128705Y-136955614D01*
X139141631Y-136952283D01*
X139173326Y-136899599D01*
X139196610Y-136771911D01*
X139213378Y-136555123D01*
X139225523Y-136235141D01*
X139245553Y-135514916D01*
X139093536Y-135433559D01*
X139024071Y-135382985D01*
X138946602Y-135245121D01*
X138958318Y-135094883D01*
X139062008Y-134973039D01*
X139132607Y-134908619D01*
X139147661Y-134788036D01*
X139146721Y-134688863D01*
X139179585Y-134513570D01*
X139240043Y-134306562D01*
X139253103Y-134267520D01*
X139309363Y-134063340D01*
X139345556Y-133843014D01*
X139365838Y-133572901D01*
X139374367Y-133219357D01*
X139375031Y-133080919D01*
X139367890Y-132749449D01*
X139347130Y-132534204D01*
X139312732Y-132434957D01*
X139283630Y-132393334D01*
X139272736Y-132291136D01*
X139278971Y-132257993D01*
X139238822Y-132177501D01*
X139190291Y-132129557D01*
X139184182Y-132062951D01*
X139248979Y-132043043D01*
X139265251Y-132038754D01*
X139295403Y-131974884D01*
X139321147Y-131827360D01*
X139344111Y-131584960D01*
X139365923Y-131236461D01*
X139399629Y-130793113D01*
X139466922Y-130249927D01*
X139555676Y-129769949D01*
X139594853Y-129586368D01*
X139658299Y-129247382D01*
X139709942Y-128920646D01*
X139741318Y-128656910D01*
X139745902Y-128605379D01*
X139771770Y-128389108D01*
X139798602Y-128289226D01*
X139826588Y-128304947D01*
X139831082Y-128317577D01*
X139859650Y-128478350D01*
X139873100Y-128713670D01*
X139871522Y-128986270D01*
X139855009Y-129258883D01*
X139823653Y-129494244D01*
X139801148Y-129663186D01*
X139805513Y-129913188D01*
X139854279Y-130220842D01*
X139901062Y-130460583D01*
X139954374Y-130752132D01*
X139995700Y-130997414D01*
X140023344Y-131133692D01*
X140103081Y-131402143D01*
X140199716Y-131633428D01*
X140256638Y-131751059D01*
X140323365Y-131917666D01*
X140349372Y-132026609D01*
X140359050Y-132084306D01*
X140429756Y-132198046D01*
X140445745Y-132215242D01*
X140503038Y-132335391D01*
X140542106Y-132503085D01*
X140548481Y-132542471D01*
X140601415Y-132722453D01*
X140674525Y-132852410D01*
X140695078Y-132879496D01*
X140762453Y-133029258D01*
X140803961Y-133214314D01*
X140810912Y-133261396D01*
X140865376Y-133455912D01*
X140943121Y-133605287D01*
X141019656Y-133760450D01*
X141053298Y-133976039D01*
X141060369Y-134119594D01*
X141092036Y-134178360D01*
X141163008Y-134171903D01*
X141196927Y-134163734D01*
X141248829Y-134181173D01*
X141279859Y-134267153D01*
X141289729Y-134345468D01*
X141302404Y-134446031D01*
X141305690Y-134481865D01*
G37*
G36*
X139234823Y-131471103D02*
G01*
X139205492Y-131500434D01*
X139176162Y-131471103D01*
X139205492Y-131441773D01*
X139234823Y-131471103D01*
G37*
G36*
X130099636Y-125910343D02*
G01*
X130142444Y-125993270D01*
X130137924Y-126012995D01*
X130083783Y-126015676D01*
X130067931Y-126003689D01*
X130025123Y-125920762D01*
X130029642Y-125901037D01*
X130083783Y-125898355D01*
X130099636Y-125910343D01*
G37*
G36*
X133457226Y-136655422D02*
G01*
X133486093Y-136754011D01*
X133477361Y-136791747D01*
X133403594Y-136838540D01*
X133356609Y-136819384D01*
X133351602Y-136721879D01*
X133397867Y-136645272D01*
X133457226Y-136655422D01*
G37*
G36*
X141268387Y-136740772D02*
G01*
X141277564Y-136758417D01*
X141229280Y-136779879D01*
X141198225Y-136775646D01*
X141190173Y-136740772D01*
X141198771Y-136733752D01*
X141268387Y-136740772D01*
G37*
G36*
X120639442Y-137747778D02*
G01*
X120610111Y-137777108D01*
X120580781Y-137747778D01*
X120610111Y-137718448D01*
X120639442Y-137747778D01*
G37*
G36*
X148503183Y-132204360D02*
G01*
X148498949Y-132235415D01*
X148464076Y-132243467D01*
X148457055Y-132234869D01*
X148464076Y-132165253D01*
X148481720Y-132156076D01*
X148503183Y-132204360D01*
G37*
G36*
X131256994Y-127276877D02*
G01*
X131252760Y-127307932D01*
X131217886Y-127315984D01*
X131210866Y-127307386D01*
X131217886Y-127237770D01*
X131235531Y-127228593D01*
X131256994Y-127276877D01*
G37*
G36*
X131902259Y-128626069D02*
G01*
X131898026Y-128657124D01*
X131863152Y-128665176D01*
X131856132Y-128656578D01*
X131863152Y-128586962D01*
X131880796Y-128577785D01*
X131902259Y-128626069D01*
G37*
G36*
X139963428Y-121532753D02*
G01*
X139968079Y-121586808D01*
X139956039Y-121604363D01*
X139905956Y-121645468D01*
X139900102Y-121643943D01*
X139880088Y-121586808D01*
X139882475Y-121570730D01*
X139942211Y-121528147D01*
X139963428Y-121532753D01*
G37*
G36*
X139225560Y-131735076D02*
G01*
X139217384Y-131815771D01*
X139195973Y-131808401D01*
X139188225Y-131781849D01*
X139195973Y-131661750D01*
X139216342Y-131651800D01*
X139225560Y-131735076D01*
G37*
G36*
X131519623Y-129446201D02*
G01*
X131570041Y-129491936D01*
X131608957Y-129542489D01*
X131582472Y-129570978D01*
X131519995Y-129540431D01*
X131467238Y-129468349D01*
X131460328Y-129449749D01*
X131456027Y-129403402D01*
X131519623Y-129446201D01*
G37*
G36*
X132309647Y-114241369D02*
G01*
X132284080Y-114374104D01*
X132243409Y-114449464D01*
X132200174Y-114437690D01*
X132186923Y-114427100D01*
X132104705Y-114450520D01*
X131976877Y-114550092D01*
X131928988Y-114592889D01*
X131805269Y-114686285D01*
X131723659Y-114723528D01*
X131718734Y-114723712D01*
X131615952Y-114749693D01*
X131471171Y-114806261D01*
X131464220Y-114809366D01*
X131311420Y-114874835D01*
X131198333Y-114918819D01*
X131090456Y-114931672D01*
X130934361Y-114920926D01*
X130783068Y-114902019D01*
X130611728Y-114890130D01*
X130394458Y-114877749D01*
X130242262Y-114840602D01*
X130162294Y-114767401D01*
X130131204Y-114646294D01*
X130131108Y-114645309D01*
X130097680Y-114515044D01*
X130039788Y-114474221D01*
X130010745Y-114475204D01*
X129966462Y-114430226D01*
X129967947Y-114416386D01*
X130018917Y-114371565D01*
X130052257Y-114342698D01*
X130074539Y-114239579D01*
X130075051Y-114220247D01*
X130084899Y-114102043D01*
X132051440Y-114102043D01*
X132112705Y-114160107D01*
X132185001Y-114185576D01*
X132243169Y-114181822D01*
X132254222Y-114107593D01*
X132244443Y-114066634D01*
X132169693Y-114019602D01*
X132082784Y-114041880D01*
X132051440Y-114102043D01*
X130084899Y-114102043D01*
X130095016Y-113980617D01*
X130129112Y-113872465D01*
X130362633Y-113872465D01*
X130377086Y-113891090D01*
X130457391Y-113884276D01*
X130618210Y-113858794D01*
X130792952Y-113823042D01*
X130938291Y-113786164D01*
X131010899Y-113757306D01*
X131015874Y-113750994D01*
X130986143Y-113728466D01*
X130881959Y-113726762D01*
X130737562Y-113742439D01*
X130587189Y-113772056D01*
X130465077Y-113812172D01*
X130439388Y-113824382D01*
X130362633Y-113872465D01*
X130129112Y-113872465D01*
X130143864Y-113825670D01*
X130230435Y-113726300D01*
X130340602Y-113655673D01*
X130587994Y-113543593D01*
X130884437Y-113449466D01*
X131207135Y-113376350D01*
X131533292Y-113327306D01*
X131840112Y-113305390D01*
X132104799Y-113313661D01*
X132304557Y-113355177D01*
X132416590Y-113432997D01*
X132480185Y-113505010D01*
X132577720Y-113550318D01*
X132610339Y-113567121D01*
X132587809Y-113643824D01*
X132517350Y-113750994D01*
X132489232Y-113793762D01*
X132431511Y-113880807D01*
X132346370Y-114046257D01*
X132329806Y-114107593D01*
X132312883Y-114170257D01*
X132309647Y-114241369D01*
G37*
G36*
X141038633Y-124021068D02*
G01*
X141009189Y-124051667D01*
X140915206Y-124164440D01*
X140877317Y-124236420D01*
X140846819Y-124282182D01*
X140745331Y-124342024D01*
X140646985Y-124373829D01*
X140503506Y-124398794D01*
X140487567Y-124399156D01*
X140427454Y-124382775D01*
X140466693Y-124314522D01*
X140517039Y-124267611D01*
X140613345Y-124226531D01*
X140666780Y-124211144D01*
X140763206Y-124134672D01*
X140764880Y-124132683D01*
X140871816Y-124041389D01*
X141019696Y-123950541D01*
X141199950Y-123858268D01*
X141038633Y-124021068D01*
G37*
G36*
X166027766Y-110296046D02*
G01*
X166023619Y-110355543D01*
X165996957Y-110373038D01*
X165985333Y-110352284D01*
X165992326Y-110260605D01*
X166013440Y-110233453D01*
X166027766Y-110296046D01*
G37*
G36*
X163904754Y-109344400D02*
G01*
X164037940Y-109391696D01*
X164052796Y-109401391D01*
X164096330Y-109439973D01*
X164037940Y-109445335D01*
X163969673Y-109435106D01*
X163832629Y-109391696D01*
X163715307Y-109341282D01*
X163832629Y-109338057D01*
X163904754Y-109344400D01*
G37*
G36*
X164971719Y-110115585D02*
G01*
X165099571Y-110238367D01*
X165146906Y-110418255D01*
X165145413Y-110476771D01*
X165134056Y-110500609D01*
X165096673Y-110416219D01*
X165048285Y-110323932D01*
X164906608Y-110193846D01*
X164730430Y-110164445D01*
X164725513Y-110165178D01*
X164612814Y-110218072D01*
X164591593Y-110308460D01*
X164656086Y-110409285D01*
X164800527Y-110493488D01*
X165005839Y-110568721D01*
X164801313Y-110536174D01*
X164656413Y-110498695D01*
X164512691Y-110410346D01*
X164459508Y-110300552D01*
X164503640Y-110189252D01*
X164651863Y-110096387D01*
X164794137Y-110069926D01*
X164971719Y-110115585D01*
G37*
G36*
X168161922Y-113700899D02*
G01*
X168119670Y-114035940D01*
X168115527Y-114071080D01*
X168100418Y-114165320D01*
X168073210Y-114335030D01*
X168029428Y-114608116D01*
X167902189Y-115075531D01*
X167719561Y-115515579D01*
X167467296Y-115970515D01*
X167363338Y-116162323D01*
X167277900Y-116429788D01*
X167268892Y-116714418D01*
X167324965Y-117021132D01*
X167331333Y-117055967D01*
X167363820Y-117154975D01*
X167523605Y-117396553D01*
X167789121Y-117596019D01*
X168163076Y-117755650D01*
X168222824Y-117776583D01*
X168442400Y-117865255D01*
X168704762Y-117983008D01*
X168965423Y-118110185D01*
X169148976Y-118199052D01*
X169739329Y-118431924D01*
X170365005Y-118610920D01*
X170969622Y-118718913D01*
X171011658Y-118724026D01*
X171306786Y-118778066D01*
X171587807Y-118869935D01*
X171908190Y-119016590D01*
X172006413Y-119066705D01*
X172235310Y-119189385D01*
X172425588Y-119299160D01*
X172543714Y-119377012D01*
X172701772Y-119480610D01*
X172883434Y-119572642D01*
X172954837Y-119608494D01*
X173085744Y-119729912D01*
X173195192Y-119933941D01*
X173220324Y-119993153D01*
X173319061Y-120215290D01*
X173408612Y-120383636D01*
X173512050Y-120532343D01*
X173652447Y-120695562D01*
X173852875Y-120907443D01*
X173933097Y-120992783D01*
X174139969Y-121227878D01*
X174328332Y-121460809D01*
X174465404Y-121651742D01*
X174504158Y-121709529D01*
X174663175Y-121921659D01*
X174860661Y-122160657D01*
X175062788Y-122384999D01*
X175112438Y-122437568D01*
X175225965Y-122560980D01*
X175341325Y-122686385D01*
X175575332Y-122949107D01*
X175770813Y-123176916D01*
X175856526Y-123278124D01*
X176067813Y-123519745D01*
X176304904Y-123783319D01*
X176479432Y-123971927D01*
X176530850Y-124027493D01*
X176562898Y-124061920D01*
X176774516Y-124303811D01*
X177018966Y-124602217D01*
X177268473Y-124922503D01*
X177495258Y-125230033D01*
X177578734Y-125346956D01*
X177768420Y-125610216D01*
X177938297Y-125842816D01*
X178072420Y-126023024D01*
X178154846Y-126129107D01*
X178245506Y-126276733D01*
X178292444Y-126531842D01*
X178291981Y-126568900D01*
X178270709Y-126715509D01*
X178200522Y-126838480D01*
X178057802Y-126983244D01*
X177968577Y-127071771D01*
X177885604Y-127174154D01*
X177863942Y-127200884D01*
X177823160Y-127289976D01*
X177846618Y-127354481D01*
X177927279Y-127498591D01*
X178051844Y-127694036D01*
X178206142Y-127917591D01*
X178264512Y-127999970D01*
X178568579Y-128453614D01*
X178853849Y-128917956D01*
X179100795Y-129360036D01*
X179289890Y-129746892D01*
X179361610Y-129931306D01*
X179405251Y-130113277D01*
X179426731Y-130331687D01*
X179432581Y-130626800D01*
X179431894Y-130773126D01*
X179422963Y-131007235D01*
X179398188Y-131179732D01*
X179350660Y-131328086D01*
X179273470Y-131489767D01*
X179250015Y-131532483D01*
X179040423Y-131816966D01*
X178747228Y-132097727D01*
X178679490Y-132154516D01*
X178475471Y-132331443D01*
X178223166Y-132555862D01*
X177948278Y-132804788D01*
X177676508Y-133055235D01*
X177161529Y-133522989D01*
X176603727Y-133996059D01*
X176058179Y-134416555D01*
X175493999Y-134806879D01*
X174880303Y-135189428D01*
X174186208Y-135586602D01*
X174034113Y-135672188D01*
X173671429Y-135886321D01*
X173305532Y-136114567D01*
X172953981Y-136344954D01*
X172634333Y-136565508D01*
X172364149Y-136764258D01*
X172160985Y-136929229D01*
X172042401Y-137048449D01*
X171938379Y-137214879D01*
X171803747Y-137532238D01*
X171696909Y-137915368D01*
X171656709Y-138026368D01*
X171604028Y-138076685D01*
X171571698Y-138062910D01*
X171545171Y-137968947D01*
X171559754Y-137806942D01*
X171608879Y-137601586D01*
X171685977Y-137377569D01*
X171784481Y-137159579D01*
X171897823Y-136972308D01*
X171932460Y-136928645D01*
X172089240Y-136768727D01*
X172298410Y-136588791D01*
X172524492Y-136420099D01*
X172556063Y-136398299D01*
X172833845Y-136196857D01*
X173131504Y-135967862D01*
X173389783Y-135756741D01*
X173465012Y-135692967D01*
X173677871Y-135517360D01*
X173871040Y-135364235D01*
X174010227Y-135260992D01*
X174147455Y-135160309D01*
X174341645Y-135007786D01*
X174538171Y-134845374D01*
X174663821Y-134744649D01*
X174900513Y-134570296D01*
X175174140Y-134381077D01*
X175447409Y-134203326D01*
X175528009Y-134152722D01*
X176168567Y-133739367D01*
X176725835Y-133356581D01*
X177221068Y-132988651D01*
X177675518Y-132619863D01*
X178110440Y-132234504D01*
X178381653Y-131985359D01*
X178622400Y-131767805D01*
X178798444Y-131614343D01*
X178920547Y-131515926D01*
X178999469Y-131463509D01*
X179045969Y-131448047D01*
X179064313Y-131446225D01*
X179154997Y-131374095D01*
X179223830Y-131213870D01*
X179268883Y-130988953D01*
X179288227Y-130722746D01*
X179279933Y-130438651D01*
X179242072Y-130160072D01*
X179172715Y-129910409D01*
X179093908Y-129723299D01*
X178914107Y-129366209D01*
X178678158Y-128954354D01*
X178398389Y-128508855D01*
X178087132Y-128050833D01*
X177676508Y-127469355D01*
X177550032Y-127752584D01*
X177490454Y-127876285D01*
X177411358Y-127997254D01*
X177306452Y-128097489D01*
X177154688Y-128192373D01*
X176935018Y-128297288D01*
X176626396Y-128427616D01*
X176454424Y-128498977D01*
X176205853Y-128607052D01*
X176041522Y-128689504D01*
X175944771Y-128756682D01*
X175898938Y-128818931D01*
X175887363Y-128886600D01*
X175889448Y-128919993D01*
X175919068Y-128964694D01*
X176006579Y-128974125D01*
X176180665Y-128954976D01*
X176229488Y-128948498D01*
X176383406Y-128936259D01*
X176455851Y-128954497D01*
X176473968Y-129008132D01*
X176467248Y-129053669D01*
X176421250Y-129101627D01*
X176383280Y-129115997D01*
X176268900Y-129199374D01*
X176109761Y-129339484D01*
X175926023Y-129516044D01*
X175737847Y-129708771D01*
X175565393Y-129897382D01*
X175489466Y-129988676D01*
X175428822Y-130061594D01*
X175348294Y-130181122D01*
X175299884Y-130266311D01*
X175176165Y-130456238D01*
X175014854Y-130684346D01*
X174838383Y-130918211D01*
X174745273Y-131038438D01*
X174539588Y-131309955D01*
X174342444Y-131576970D01*
X174186208Y-131795923D01*
X174140063Y-131858304D01*
X173971510Y-132055541D01*
X173739517Y-132299629D01*
X173457422Y-132578798D01*
X173138562Y-132881275D01*
X172796275Y-133195289D01*
X172443899Y-133509066D01*
X172094771Y-133810836D01*
X171762230Y-134088825D01*
X171459613Y-134331262D01*
X171200257Y-134526375D01*
X170997502Y-134662391D01*
X170864684Y-134727539D01*
X170768844Y-134764012D01*
X170535819Y-134908242D01*
X170265420Y-135135397D01*
X169971860Y-135432869D01*
X169669349Y-135788050D01*
X169455975Y-136038637D01*
X169230177Y-136260789D01*
X169042875Y-136394698D01*
X168916298Y-136474689D01*
X168723215Y-136624598D01*
X168500607Y-136817660D01*
X168265511Y-137036911D01*
X168034961Y-137265386D01*
X167825991Y-137486123D01*
X167655636Y-137682156D01*
X167540931Y-137836522D01*
X167498910Y-137932256D01*
X167498910Y-138077308D01*
X162204799Y-138062331D01*
X156910689Y-138047354D01*
X156843522Y-136786153D01*
X156839171Y-136705698D01*
X156808238Y-136208683D01*
X156773756Y-135798422D01*
X156732667Y-135448200D01*
X156681908Y-135131306D01*
X156618422Y-134821026D01*
X156574135Y-134616110D01*
X156535021Y-134408905D01*
X156527491Y-134358200D01*
X170842559Y-134358200D01*
X170860772Y-134448403D01*
X170920909Y-134498394D01*
X170992260Y-134465883D01*
X171148085Y-134356870D01*
X171380101Y-134174984D01*
X171683491Y-133924214D01*
X172053438Y-133608549D01*
X172485125Y-133231979D01*
X172973734Y-132798492D01*
X173112150Y-132673939D01*
X173466019Y-132344370D01*
X173740183Y-132068603D01*
X173945822Y-131834998D01*
X174094118Y-131631912D01*
X174129422Y-131578040D01*
X174302238Y-131330102D01*
X174505305Y-131056373D01*
X174701762Y-130806904D01*
X174778361Y-130712015D01*
X174942880Y-130498835D01*
X175078614Y-130310737D01*
X175161963Y-130179875D01*
X175264930Y-129988676D01*
X175024784Y-129647808D01*
X174888738Y-129466805D01*
X174750401Y-129304002D01*
X174645895Y-129203148D01*
X174590886Y-129164733D01*
X174518262Y-129134840D01*
X174423065Y-129133232D01*
X174275055Y-129160644D01*
X174043994Y-129217813D01*
X173947791Y-129242515D01*
X173702052Y-129302393D01*
X173516607Y-129329983D01*
X173368863Y-129315668D01*
X173236225Y-129249831D01*
X173096099Y-129122853D01*
X172925891Y-128925118D01*
X172703007Y-128647008D01*
X172530223Y-128431705D01*
X172236022Y-128072106D01*
X172002165Y-127797933D01*
X171822776Y-127602981D01*
X171691983Y-127481040D01*
X171603912Y-127425906D01*
X171552688Y-127431369D01*
X171507797Y-127499485D01*
X171442492Y-127691166D01*
X171383956Y-127973577D01*
X171334284Y-128330604D01*
X171295571Y-128746132D01*
X171269911Y-129204046D01*
X171259396Y-129688232D01*
X171257452Y-129962991D01*
X171252458Y-130287295D01*
X171243583Y-130596131D01*
X171229652Y-130911546D01*
X171209489Y-131255586D01*
X171181919Y-131650297D01*
X171145765Y-132117725D01*
X171099852Y-132679918D01*
X171094119Y-132742288D01*
X171058824Y-133032175D01*
X171008810Y-133360979D01*
X170952955Y-133668939D01*
X170928099Y-133796168D01*
X170884210Y-134041551D01*
X170853880Y-134240236D01*
X170842559Y-134358200D01*
X156527491Y-134358200D01*
X156504185Y-134201254D01*
X156479942Y-133973678D01*
X156460603Y-133706702D01*
X156444481Y-133380849D01*
X156429889Y-132976643D01*
X156415140Y-132474606D01*
X156410146Y-132287395D01*
X156398999Y-131751763D01*
X156396810Y-131302860D01*
X156405356Y-130917476D01*
X156426416Y-130572401D01*
X156461768Y-130244422D01*
X156513193Y-129910329D01*
X156582467Y-129546911D01*
X156671371Y-129130957D01*
X156715720Y-128870474D01*
X156745606Y-128572524D01*
X156759954Y-128269340D01*
X156758117Y-127991210D01*
X156739452Y-127768421D01*
X156703313Y-127631258D01*
X156673411Y-127582716D01*
X156608345Y-127532802D01*
X156515724Y-127543669D01*
X156375079Y-127620552D01*
X156165941Y-127768687D01*
X155935630Y-127970635D01*
X155669427Y-128255992D01*
X155388434Y-128598027D01*
X155110914Y-128972101D01*
X154855135Y-129353578D01*
X154639361Y-129717822D01*
X154481858Y-130040195D01*
X154404900Y-130213326D01*
X154214379Y-130567121D01*
X154011682Y-130854725D01*
X153813120Y-131051472D01*
X153785034Y-131071282D01*
X153637281Y-131163572D01*
X153417877Y-131290895D01*
X153151571Y-131439114D01*
X152863113Y-131594093D01*
X152653350Y-131703798D01*
X152397503Y-131831956D01*
X152206029Y-131916522D01*
X152055944Y-131966051D01*
X151924262Y-131989097D01*
X151787997Y-131994214D01*
X151687158Y-131990601D01*
X151466622Y-131948498D01*
X151287839Y-131845266D01*
X151127055Y-131663432D01*
X150960516Y-131385522D01*
X150950394Y-131366658D01*
X150892981Y-131260391D01*
X150847870Y-131169250D01*
X150813934Y-131078520D01*
X150790047Y-130973487D01*
X150775083Y-130839437D01*
X150767916Y-130661657D01*
X150767419Y-130425432D01*
X150772467Y-130116048D01*
X150781933Y-129718792D01*
X150794691Y-129218948D01*
X150796764Y-129138324D01*
X150807129Y-128807061D01*
X150820351Y-128564829D01*
X150839866Y-128388139D01*
X150869106Y-128253499D01*
X150911507Y-128137419D01*
X150918124Y-128123847D01*
X151064130Y-128123847D01*
X151277625Y-128319434D01*
X151349647Y-128382261D01*
X151516224Y-128487960D01*
X151658702Y-128500474D01*
X151803771Y-128425165D01*
X151893901Y-128373369D01*
X152024597Y-128339040D01*
X152055271Y-128335160D01*
X152191535Y-128297947D01*
X152391212Y-128229734D01*
X152622851Y-128140934D01*
X152898924Y-128039198D01*
X153092957Y-127988992D01*
X153193942Y-127993384D01*
X153294499Y-128035332D01*
X153488394Y-128019011D01*
X153702382Y-127890579D01*
X153741305Y-127856091D01*
X153847175Y-127732944D01*
X153889672Y-127632882D01*
X153901126Y-127577124D01*
X153974255Y-127497888D01*
X153992642Y-127488808D01*
X154034554Y-127438306D01*
X154059144Y-127339083D01*
X154067656Y-127174154D01*
X154061331Y-126926530D01*
X154041411Y-126579225D01*
X154040835Y-126577591D01*
X155089722Y-126577591D01*
X155122187Y-126756410D01*
X155128607Y-126767967D01*
X155194448Y-126840859D01*
X155294920Y-126863949D01*
X155453988Y-126837451D01*
X155695619Y-126761583D01*
X155788524Y-126727387D01*
X155998172Y-126617942D01*
X156137901Y-126470498D01*
X156243025Y-126252196D01*
X156258722Y-126217422D01*
X156370561Y-126064678D01*
X156522801Y-125932781D01*
X156558825Y-125908754D01*
X156730033Y-125786403D01*
X156867470Y-125676915D01*
X156897455Y-125651529D01*
X156996365Y-125597690D01*
X157069849Y-125629702D01*
X157155061Y-125675324D01*
X157300252Y-125699317D01*
X157418368Y-125716599D01*
X157502500Y-125766402D01*
X157514857Y-125774365D01*
X157620422Y-125791505D01*
X157812696Y-125801162D01*
X158069274Y-125804045D01*
X158367749Y-125800864D01*
X158685716Y-125792328D01*
X159000769Y-125779146D01*
X159290504Y-125762029D01*
X159532513Y-125741686D01*
X159704392Y-125718826D01*
X159783735Y-125694160D01*
X159813450Y-125650637D01*
X159794465Y-125552964D01*
X159673122Y-125451157D01*
X159459163Y-125350346D01*
X159162332Y-125255661D01*
X158792372Y-125172231D01*
X158595682Y-125129298D01*
X158443813Y-125084936D01*
X158374535Y-125049737D01*
X158388393Y-125017966D01*
X158482702Y-124950914D01*
X158639235Y-124873311D01*
X158756777Y-124816030D01*
X158884751Y-124731647D01*
X158934476Y-124665535D01*
X158944866Y-124618584D01*
X159006837Y-124587204D01*
X159081127Y-124643428D01*
X159108289Y-124662456D01*
X159227928Y-124690897D01*
X159400946Y-124702089D01*
X159477692Y-124703653D01*
X159645294Y-124729474D01*
X159718276Y-124790080D01*
X159783411Y-124849544D01*
X159915199Y-124878518D01*
X160020865Y-124889392D01*
X160216493Y-124928758D01*
X160433228Y-124986902D01*
X160488521Y-125003249D01*
X160762065Y-125067103D01*
X160961768Y-125082534D01*
X161071830Y-125048029D01*
X161073983Y-125043282D01*
X161037970Y-124979608D01*
X160937088Y-124868901D01*
X160794245Y-124733150D01*
X160632351Y-124594347D01*
X160474314Y-124474481D01*
X160440784Y-124449473D01*
X160328846Y-124334035D01*
X160283668Y-124231106D01*
X160282080Y-124202781D01*
X160266588Y-124167280D01*
X160222251Y-124141496D01*
X160134324Y-124123928D01*
X159988060Y-124113078D01*
X159768715Y-124107445D01*
X159461543Y-124105531D01*
X159051797Y-124105835D01*
X158435862Y-124107043D01*
X158787825Y-123994739D01*
X158956383Y-123945070D01*
X159144381Y-123899519D01*
X159266976Y-123881639D01*
X159267280Y-123881637D01*
X159428067Y-123862622D01*
X159531107Y-123816788D01*
X159546613Y-123757374D01*
X159539963Y-123734953D01*
X159585010Y-123706412D01*
X159682879Y-123709519D01*
X159792561Y-123739818D01*
X159873044Y-123792851D01*
X159881483Y-123801721D01*
X159996842Y-123858110D01*
X160158864Y-123881538D01*
X160271456Y-123887284D01*
X160600674Y-123945970D01*
X160944733Y-124055047D01*
X161248168Y-124198382D01*
X161280857Y-124217221D01*
X161508528Y-124322705D01*
X161675552Y-124342793D01*
X161797109Y-124279733D01*
X161860355Y-124169886D01*
X161831452Y-124023909D01*
X161691520Y-123851511D01*
X161604351Y-123764668D01*
X161530025Y-123666192D01*
X161540934Y-123608219D01*
X161632859Y-123570542D01*
X161640118Y-123565794D01*
X165785484Y-123565794D01*
X165814896Y-123710334D01*
X165888824Y-123871660D01*
X165988289Y-124010401D01*
X166094309Y-124087185D01*
X166127157Y-124093394D01*
X166274645Y-124102486D01*
X166504111Y-124104774D01*
X166791213Y-124100219D01*
X167111609Y-124088783D01*
X167224869Y-124083926D01*
X167631766Y-124073079D01*
X167965704Y-124078057D01*
X168261707Y-124100114D01*
X168554799Y-124140507D01*
X168741233Y-124169886D01*
X168822834Y-124182745D01*
X169118245Y-124220217D01*
X169329922Y-124230522D01*
X169475892Y-124212826D01*
X169574187Y-124166293D01*
X169642836Y-124090087D01*
X169694593Y-123971927D01*
X169672439Y-123832619D01*
X169546137Y-123696641D01*
X169309655Y-123554291D01*
X168810453Y-123352454D01*
X168200174Y-123219822D01*
X167550606Y-123188542D01*
X166874790Y-123260188D01*
X166859456Y-123262951D01*
X166593935Y-123309059D01*
X166336134Y-123351136D01*
X166139850Y-123380384D01*
X166057250Y-123394326D01*
X165896974Y-123438812D01*
X165806142Y-123489444D01*
X165785484Y-123565794D01*
X161640118Y-123565794D01*
X161718305Y-123514656D01*
X161749944Y-123393496D01*
X161705887Y-123241774D01*
X161588864Y-123089360D01*
X161462340Y-122989496D01*
X161257944Y-122867340D01*
X160972945Y-122726983D01*
X160593668Y-122560980D01*
X163451335Y-122560980D01*
X163457953Y-122601459D01*
X163509996Y-122648971D01*
X163536981Y-122639044D01*
X163568656Y-122560980D01*
X163562038Y-122520502D01*
X163509996Y-122472989D01*
X163483010Y-122482917D01*
X163451335Y-122560980D01*
X160593668Y-122560980D01*
X160591635Y-122560090D01*
X160515516Y-122526122D01*
X160391349Y-122459413D01*
X160342328Y-122414836D01*
X160383703Y-122368290D01*
X160492985Y-122305856D01*
X160598046Y-122231277D01*
X160624971Y-122111785D01*
X160611660Y-122052713D01*
X160526468Y-121934813D01*
X160366672Y-121897863D01*
X160124799Y-121939286D01*
X160055712Y-121958081D01*
X159811495Y-122019281D01*
X159590175Y-122068447D01*
X159544420Y-122078852D01*
X159337452Y-122149484D01*
X159167802Y-122239284D01*
X159143611Y-122254750D01*
X158984823Y-122327309D01*
X158760864Y-122403640D01*
X158512103Y-122469565D01*
X158438384Y-122486331D01*
X158083527Y-122572080D01*
X157822619Y-122648619D01*
X157637241Y-122725069D01*
X157508976Y-122810554D01*
X157419407Y-122914197D01*
X157350115Y-123045119D01*
X157287626Y-123173715D01*
X157125150Y-123458823D01*
X156921235Y-123777246D01*
X156699455Y-124094471D01*
X156483388Y-124375985D01*
X156296611Y-124587276D01*
X156169278Y-124703140D01*
X155951683Y-124868575D01*
X155751149Y-124988949D01*
X155587050Y-125079572D01*
X155551036Y-125112712D01*
X155432740Y-125221569D01*
X155357375Y-125407165D01*
X155353724Y-125464675D01*
X155340689Y-125669987D01*
X155320374Y-125904629D01*
X155318531Y-125925910D01*
X155243485Y-126141014D01*
X155145363Y-126343412D01*
X155089722Y-126577591D01*
X154040835Y-126577591D01*
X154003826Y-126472550D01*
X153911272Y-126459701D01*
X153772351Y-126548000D01*
X153763705Y-126555030D01*
X153656602Y-126623770D01*
X153482211Y-126721514D01*
X153273737Y-126829517D01*
X153120360Y-126904044D01*
X152952909Y-126978019D01*
X152776073Y-127045088D01*
X152563790Y-127114271D01*
X152289998Y-127194588D01*
X151928632Y-127295058D01*
X151770052Y-127348621D01*
X151640792Y-127425754D01*
X151512075Y-127550828D01*
X151351773Y-127749132D01*
X151064130Y-128123847D01*
X150918124Y-128123847D01*
X150970504Y-128016408D01*
X150971050Y-128015360D01*
X151089572Y-127819477D01*
X151252852Y-127588117D01*
X151425712Y-127371142D01*
X151581964Y-127189218D01*
X151735026Y-126997542D01*
X151817552Y-126847958D01*
X151830196Y-126712825D01*
X151773614Y-126564498D01*
X151648458Y-126375334D01*
X151455384Y-126117689D01*
X151392956Y-126031495D01*
X154910326Y-126031495D01*
X154918558Y-126102491D01*
X154928545Y-126107599D01*
X154945562Y-126061057D01*
X154955574Y-126029447D01*
X155033552Y-125992620D01*
X155074587Y-125982399D01*
X155121543Y-125904629D01*
X155114134Y-125859752D01*
X155058441Y-125817919D01*
X154981938Y-125849560D01*
X154925400Y-125946063D01*
X154910326Y-126031495D01*
X151392956Y-126031495D01*
X151248491Y-125832034D01*
X151107117Y-125605448D01*
X151046483Y-125464675D01*
X155004222Y-125464675D01*
X155005927Y-125478697D01*
X155062883Y-125523336D01*
X155076904Y-125521631D01*
X155121543Y-125464675D01*
X155119838Y-125450654D01*
X155062883Y-125406015D01*
X155048861Y-125407720D01*
X155004222Y-125464675D01*
X151046483Y-125464675D01*
X151033079Y-125433554D01*
X151019718Y-125300733D01*
X151060371Y-125191364D01*
X151088332Y-125162778D01*
X151184060Y-125082203D01*
X154840774Y-125082203D01*
X154847794Y-125151819D01*
X154865438Y-125160997D01*
X154886901Y-125112712D01*
X154882668Y-125081658D01*
X154847794Y-125073605D01*
X154840774Y-125082203D01*
X151184060Y-125082203D01*
X151199375Y-125069312D01*
X151377358Y-124928463D01*
X151605258Y-124753607D01*
X151866055Y-124558124D01*
X151956627Y-124490124D01*
X152256786Y-124253549D01*
X152538051Y-124016204D01*
X152774503Y-123800512D01*
X152940221Y-123628895D01*
X153039557Y-123503381D01*
X153207381Y-123269585D01*
X153403759Y-122978698D01*
X153611793Y-122655891D01*
X153814586Y-122326338D01*
X154034993Y-121962973D01*
X154348554Y-121466103D01*
X154641302Y-121031986D01*
X154931792Y-120634548D01*
X155238582Y-120247717D01*
X155580227Y-119845418D01*
X155759179Y-119643317D01*
X156065149Y-119319862D01*
X164109392Y-119319862D01*
X164147594Y-119478844D01*
X164160797Y-119519797D01*
X164232526Y-119687430D01*
X164307672Y-119801316D01*
X164355866Y-119839456D01*
X164535568Y-119889453D01*
X164761156Y-119857471D01*
X165010317Y-119748940D01*
X165260734Y-119569294D01*
X165285174Y-119546256D01*
X165399026Y-119422210D01*
X165548627Y-119243777D01*
X165708217Y-119041350D01*
X165842045Y-118857156D01*
X165955432Y-118672007D01*
X166053216Y-118467631D01*
X166150334Y-118212561D01*
X166261725Y-117875332D01*
X166306620Y-117733221D01*
X166401450Y-117420730D01*
X166461322Y-117190356D01*
X166488627Y-117021132D01*
X166485752Y-116892095D01*
X166455089Y-116782280D01*
X166399026Y-116670724D01*
X166326414Y-116564205D01*
X166255278Y-116497130D01*
X166215427Y-116496510D01*
X166228396Y-116574491D01*
X166229869Y-116613197D01*
X166185656Y-116758239D01*
X166082535Y-116988502D01*
X165924391Y-117295677D01*
X165715114Y-117671455D01*
X165630334Y-117802529D01*
X165486354Y-117998318D01*
X165328471Y-118193125D01*
X165190568Y-118356503D01*
X165062627Y-118513166D01*
X164983079Y-118616594D01*
X164930550Y-118669748D01*
X164785196Y-118770015D01*
X164601786Y-118865324D01*
X164485622Y-118921934D01*
X164307547Y-119027965D01*
X164190020Y-119122649D01*
X164121556Y-119218182D01*
X164109392Y-119319862D01*
X156065149Y-119319862D01*
X156198782Y-119178592D01*
X156605177Y-118802445D01*
X156993822Y-118503792D01*
X157380181Y-118271552D01*
X157779715Y-118094642D01*
X158207884Y-117961981D01*
X158350528Y-117927039D01*
X158724297Y-117846133D01*
X159114624Y-117774035D01*
X159489001Y-117715993D01*
X159814920Y-117677254D01*
X160059872Y-117663064D01*
X160345627Y-117639431D01*
X160585838Y-117552922D01*
X160636479Y-117511624D01*
X161574199Y-117511624D01*
X161584870Y-117612653D01*
X161676680Y-117848465D01*
X161840662Y-118065385D01*
X162050170Y-118223560D01*
X162138072Y-118266150D01*
X162269213Y-118305843D01*
X162345077Y-118280249D01*
X162384209Y-118264051D01*
X162521604Y-118234829D01*
X162727813Y-118202617D01*
X162973948Y-118170764D01*
X163231120Y-118142618D01*
X163470438Y-118121528D01*
X163663014Y-118110844D01*
X163779957Y-118113914D01*
X163985460Y-118100300D01*
X164252926Y-117995421D01*
X164276340Y-117983487D01*
X164496273Y-117858757D01*
X164618759Y-117754034D01*
X164656590Y-117653616D01*
X164622563Y-117541803D01*
X164604808Y-117510938D01*
X164544259Y-117450823D01*
X164444099Y-117432954D01*
X164266529Y-117447298D01*
X164118959Y-117462973D01*
X164021180Y-117457631D01*
X163984710Y-117412088D01*
X163979280Y-117312095D01*
X163980034Y-117286823D01*
X164028812Y-117140311D01*
X164169926Y-117006892D01*
X164260007Y-116947502D01*
X164393708Y-116886929D01*
X164559720Y-116852877D01*
X164800527Y-116833675D01*
X164838283Y-116830067D01*
X165007537Y-116797866D01*
X165198535Y-116745708D01*
X165252984Y-116729497D01*
X165455596Y-116683914D01*
X165622757Y-116665599D01*
X165730237Y-116638731D01*
X165886911Y-116552794D01*
X166042166Y-116434113D01*
X166160991Y-116310047D01*
X166208379Y-116207952D01*
X166250616Y-116140556D01*
X166355628Y-116054666D01*
X166373343Y-116043334D01*
X166503695Y-115991074D01*
X166623041Y-116022495D01*
X166623939Y-116022973D01*
X166807098Y-116059410D01*
X167025253Y-116011548D01*
X167241370Y-115887473D01*
X167258983Y-115872408D01*
X167379288Y-115723920D01*
X167513577Y-115499036D01*
X167647267Y-115229276D01*
X167765777Y-114946162D01*
X167854528Y-114681216D01*
X167898936Y-114465959D01*
X167910448Y-114335030D01*
X167909893Y-114235229D01*
X167882612Y-114217221D01*
X167820864Y-114260648D01*
X167817012Y-114263812D01*
X167731008Y-114314081D01*
X167689794Y-114275183D01*
X167673736Y-114248081D01*
X167574567Y-114206401D01*
X167432087Y-114218907D01*
X167290924Y-114284550D01*
X167230598Y-114332736D01*
X167212184Y-114391463D01*
X167279712Y-114479816D01*
X167344463Y-114588227D01*
X167381589Y-114753040D01*
X167378631Y-114824242D01*
X167344966Y-114886590D01*
X167249603Y-114874159D01*
X167144822Y-114821615D01*
X167019451Y-114710400D01*
X166960066Y-114641397D01*
X166897003Y-114621586D01*
X166809520Y-114687317D01*
X166713097Y-114750070D01*
X166573046Y-114788463D01*
X166526521Y-114783833D01*
X166476295Y-114752863D01*
X166439347Y-114676981D01*
X166410785Y-114538128D01*
X166385716Y-114318244D01*
X166359248Y-113999267D01*
X166339688Y-113822628D01*
X167440250Y-113822628D01*
X167469294Y-113878227D01*
X167584616Y-113908555D01*
X167713420Y-113942333D01*
X167848588Y-114036937D01*
X167968194Y-114165320D01*
X167968194Y-113920734D01*
X167959167Y-113765531D01*
X167918354Y-113681143D01*
X167827007Y-113640713D01*
X167772743Y-113632099D01*
X167616717Y-113652250D01*
X167491540Y-113722508D01*
X167440250Y-113822628D01*
X166339688Y-113822628D01*
X166335409Y-113783990D01*
X166287790Y-113594597D01*
X166214570Y-113478052D01*
X166172258Y-113436938D01*
X166105701Y-113397092D01*
X166026828Y-113415391D01*
X165892136Y-113493983D01*
X165857335Y-113516926D01*
X165707381Y-113646345D01*
X165608399Y-113778367D01*
X165571098Y-113839706D01*
X165404498Y-114005319D01*
X165159277Y-114169123D01*
X164862646Y-114318496D01*
X164541820Y-114440818D01*
X164224010Y-114523467D01*
X163936429Y-114553821D01*
X163827112Y-114555382D01*
X163626456Y-114577453D01*
X163521704Y-114635990D01*
X163498524Y-114744137D01*
X163517257Y-114816791D01*
X163542589Y-114915034D01*
X163555121Y-114950927D01*
X163592835Y-115081797D01*
X163582978Y-115145627D01*
X163522941Y-115177230D01*
X163378556Y-115227226D01*
X163161337Y-115318259D01*
X162986501Y-115409680D01*
X162889067Y-115484514D01*
X162782862Y-115550058D01*
X162580278Y-115598780D01*
X162307455Y-115621654D01*
X162272791Y-115629214D01*
X162154489Y-115708918D01*
X162029375Y-115851906D01*
X161868616Y-116078994D01*
X162088036Y-116087849D01*
X162121657Y-116089224D01*
X162391199Y-116102674D01*
X162586312Y-116119449D01*
X162745865Y-116143940D01*
X162908726Y-116180537D01*
X162982537Y-116197546D01*
X163118795Y-116212484D01*
X163152636Y-116177476D01*
X163087640Y-116090726D01*
X163084355Y-116087353D01*
X163072169Y-116046857D01*
X163144801Y-116026149D01*
X163318288Y-116020334D01*
X163397737Y-116021168D01*
X163554142Y-116037813D01*
X163654895Y-116090125D01*
X163744879Y-116196654D01*
X163814599Y-116322169D01*
X163845645Y-116453405D01*
X163821062Y-116538462D01*
X163741154Y-116548621D01*
X163738177Y-116547685D01*
X163634354Y-116535626D01*
X163452968Y-116530692D01*
X163231358Y-116533956D01*
X163010518Y-116541393D01*
X162679508Y-116552540D01*
X162380781Y-116562600D01*
X162366167Y-116563074D01*
X162146791Y-116565784D01*
X161970699Y-116560381D01*
X161874834Y-116547935D01*
X161806509Y-116539190D01*
X161771016Y-116584915D01*
X161801259Y-116668393D01*
X161894241Y-116757287D01*
X161937942Y-116782299D01*
X162160141Y-116845353D01*
X162473590Y-116856104D01*
X162885375Y-116814964D01*
X162917619Y-116810316D01*
X163092879Y-116787608D01*
X163176415Y-116788802D01*
X163189590Y-116819494D01*
X163153763Y-116885280D01*
X163100773Y-116945820D01*
X163097410Y-116949662D01*
X162957265Y-117066103D01*
X162811529Y-117164214D01*
X162781155Y-117184662D01*
X162692446Y-117237155D01*
X162554800Y-117306070D01*
X162426279Y-117338987D01*
X162264935Y-117343957D01*
X162028818Y-117329028D01*
X161574199Y-117293931D01*
X161574199Y-117511624D01*
X160636479Y-117511624D01*
X160784529Y-117390887D01*
X160793366Y-117381232D01*
X160877682Y-117261602D01*
X160905122Y-117164214D01*
X161515538Y-117164214D01*
X161544869Y-117193544D01*
X161574199Y-117164214D01*
X161544869Y-117134883D01*
X161515538Y-117164214D01*
X160905122Y-117164214D01*
X160918371Y-117117192D01*
X160928933Y-116902322D01*
X160924787Y-116784962D01*
X160910958Y-116661674D01*
X161425815Y-116661674D01*
X161436876Y-116798109D01*
X161439117Y-116809835D01*
X161486022Y-116975562D01*
X161540476Y-117056158D01*
X161592202Y-117035889D01*
X161606252Y-116945820D01*
X161582356Y-116809276D01*
X161532879Y-116683665D01*
X161473114Y-116622128D01*
X161464519Y-116621022D01*
X161425815Y-116661674D01*
X160910958Y-116661674D01*
X160894672Y-116516482D01*
X160844987Y-116280288D01*
X160833316Y-116238650D01*
X160778613Y-116020735D01*
X160717091Y-115749074D01*
X160659974Y-115472671D01*
X160635332Y-115333833D01*
X160609450Y-115127626D01*
X160596750Y-114905609D01*
X160597646Y-114698964D01*
X160721242Y-114698964D01*
X160738187Y-114951842D01*
X160815304Y-115276324D01*
X160820441Y-115293632D01*
X160895234Y-115513260D01*
X160973217Y-115694794D01*
X161038309Y-115800436D01*
X161056345Y-115818568D01*
X161113776Y-115857942D01*
X161184102Y-115854505D01*
X161295771Y-115801150D01*
X161477231Y-115690769D01*
X161518225Y-115665027D01*
X161682171Y-115555165D01*
X161770445Y-115470671D01*
X161804836Y-115383449D01*
X161807137Y-115265402D01*
X161800583Y-115156432D01*
X161798182Y-115053936D01*
X161817127Y-114983158D01*
X161873400Y-114938069D01*
X161982983Y-114912637D01*
X162161857Y-114900832D01*
X162426004Y-114896622D01*
X162791404Y-114893977D01*
X163002035Y-114883797D01*
X163130682Y-114857140D01*
X163153640Y-114816791D01*
X163065244Y-114765409D01*
X162986130Y-114744823D01*
X162835013Y-114729802D01*
X162791418Y-114723130D01*
X162640927Y-114642418D01*
X162462354Y-114482597D01*
X162438826Y-114457886D01*
X162314426Y-114332510D01*
X162236824Y-114279653D01*
X162176530Y-114288136D01*
X162104051Y-114346782D01*
X162070001Y-114374133D01*
X161860210Y-114458335D01*
X161586545Y-114466933D01*
X161271487Y-114398532D01*
X161143490Y-114360647D01*
X160996158Y-114339841D01*
X160908499Y-114370457D01*
X160863275Y-114399731D01*
X160799361Y-114404695D01*
X160789917Y-114405083D01*
X160760073Y-114473924D01*
X160730114Y-114614429D01*
X160721242Y-114698964D01*
X160597646Y-114698964D01*
X160597854Y-114651069D01*
X160613382Y-114347290D01*
X160643952Y-113977558D01*
X160690187Y-113525158D01*
X160736659Y-113115008D01*
X165167837Y-113115008D01*
X165218687Y-113125463D01*
X165357802Y-113129191D01*
X165466288Y-113126552D01*
X165529689Y-113117315D01*
X165488981Y-113103875D01*
X165356609Y-113094113D01*
X165195679Y-113104676D01*
X165167837Y-113115008D01*
X160736659Y-113115008D01*
X160752706Y-112973377D01*
X160772376Y-112771760D01*
X160773856Y-112555232D01*
X160736598Y-112426503D01*
X160654664Y-112370041D01*
X160522113Y-112370311D01*
X160501123Y-112373071D01*
X160356261Y-112360239D01*
X160303516Y-112277074D01*
X160328128Y-112180347D01*
X160530363Y-112180347D01*
X160554301Y-112179326D01*
X160658626Y-112143112D01*
X160813031Y-112074421D01*
X160874816Y-112046350D01*
X161018866Y-111996881D01*
X161187262Y-111966570D01*
X161410943Y-111951038D01*
X161720850Y-111945905D01*
X161812697Y-111946079D01*
X162166667Y-111960633D01*
X162485225Y-112003461D01*
X162794569Y-112082518D01*
X163120892Y-112205761D01*
X163490391Y-112381146D01*
X163929261Y-112616628D01*
X163992630Y-112651662D01*
X164342688Y-112836830D01*
X164631442Y-112974750D01*
X164849421Y-113061571D01*
X164987153Y-113093439D01*
X165035169Y-113066503D01*
X165025143Y-113051149D01*
X164941442Y-112990373D01*
X164800527Y-112911327D01*
X164704212Y-112860497D01*
X164591575Y-112790744D01*
X164584241Y-112765816D01*
X164679303Y-112787796D01*
X164873853Y-112858770D01*
X165116417Y-112929200D01*
X165517445Y-112948551D01*
X165959072Y-112860453D01*
X166057869Y-112836308D01*
X166140665Y-112840332D01*
X166119056Y-112885801D01*
X165988402Y-112957380D01*
X165827086Y-113026082D01*
X165911739Y-113010521D01*
X167969093Y-113010521D01*
X167977054Y-113045660D01*
X168012629Y-113117315D01*
X168026855Y-113145969D01*
X168034571Y-113157773D01*
X168075124Y-113200414D01*
X168084617Y-113134766D01*
X168077896Y-113083032D01*
X168026855Y-112999317D01*
X168005001Y-112989227D01*
X167969093Y-113010521D01*
X165911739Y-113010521D01*
X166003067Y-112993733D01*
X166129901Y-112962745D01*
X166319912Y-112896451D01*
X166496602Y-112816967D01*
X166626883Y-112739681D01*
X166677663Y-112679983D01*
X166673211Y-112659815D01*
X166606200Y-112622074D01*
X166497951Y-112630828D01*
X166399375Y-112685135D01*
X166396884Y-112687608D01*
X166353219Y-112712060D01*
X166362338Y-112637242D01*
X166363942Y-112630768D01*
X166366150Y-112575241D01*
X166336481Y-112517075D01*
X166261071Y-112444925D01*
X166126058Y-112347443D01*
X165917580Y-112213285D01*
X165621774Y-112031102D01*
X165454573Y-111932678D01*
X166346261Y-111932678D01*
X166431415Y-112014644D01*
X166612532Y-112138861D01*
X166739547Y-112218889D01*
X166870354Y-112295226D01*
X166935165Y-112324722D01*
X166959260Y-112316854D01*
X166972338Y-112249040D01*
X166933093Y-112145381D01*
X166853645Y-112047138D01*
X166777264Y-111963563D01*
X166736324Y-111871731D01*
X166720186Y-111822358D01*
X166633417Y-111800347D01*
X166457686Y-111833750D01*
X166435639Y-111839927D01*
X166350020Y-111879071D01*
X166346261Y-111932678D01*
X165454573Y-111932678D01*
X165372905Y-111884604D01*
X165105928Y-111736578D01*
X164948453Y-111653932D01*
X166996096Y-111653932D01*
X167033709Y-111722856D01*
X167046259Y-111740754D01*
X167153103Y-111848996D01*
X167298982Y-111960102D01*
X167342146Y-111987937D01*
X167463822Y-112060845D01*
X167527418Y-112090080D01*
X167557200Y-112075189D01*
X167528903Y-112012197D01*
X167435401Y-111916999D01*
X167296038Y-111808345D01*
X167130158Y-111704987D01*
X167023779Y-111650064D01*
X166996096Y-111653932D01*
X164948453Y-111653932D01*
X164847479Y-111600939D01*
X164620704Y-111489468D01*
X164448747Y-111413946D01*
X164354753Y-111386153D01*
X164319794Y-111381312D01*
X164272582Y-111335509D01*
X164222012Y-111296613D01*
X164073836Y-111252695D01*
X163848289Y-111208134D01*
X163565721Y-111165631D01*
X163246481Y-111127884D01*
X162910918Y-111097593D01*
X162579380Y-111077456D01*
X162272218Y-111070173D01*
X161828473Y-111126262D01*
X161404086Y-111286732D01*
X161026020Y-111538655D01*
X160719405Y-111869102D01*
X160625002Y-112005989D01*
X160551041Y-112126356D01*
X160530363Y-112180347D01*
X160328128Y-112180347D01*
X160342799Y-112122687D01*
X160474020Y-111896193D01*
X160564406Y-111753074D01*
X160675502Y-111551481D01*
X160745433Y-111392291D01*
X160774798Y-111320232D01*
X160877555Y-111134627D01*
X161006365Y-110952337D01*
X161088331Y-110844263D01*
X161328359Y-110844263D01*
X161329677Y-110910021D01*
X161392088Y-110888990D01*
X161473189Y-110804472D01*
X161835628Y-110804472D01*
X161869118Y-110840155D01*
X161996026Y-110846848D01*
X162060893Y-110843103D01*
X162250436Y-110832341D01*
X163627317Y-110832341D01*
X163641465Y-110875856D01*
X163725808Y-110916869D01*
X163741593Y-110917448D01*
X163900933Y-110947923D01*
X164146981Y-111020706D01*
X164462401Y-111130238D01*
X164829857Y-111270959D01*
X164854780Y-111280665D01*
X165034168Y-111336144D01*
X165162256Y-111351167D01*
X165211150Y-111322001D01*
X165206024Y-111302496D01*
X165137825Y-111268471D01*
X165046156Y-111246488D01*
X164910388Y-111187697D01*
X164885848Y-111175680D01*
X164735086Y-111112616D01*
X164520610Y-111032190D01*
X164280398Y-110948803D01*
X164197550Y-110920553D01*
X163990256Y-110843527D01*
X163838507Y-110777843D01*
X163770525Y-110735317D01*
X163723888Y-110703823D01*
X163672678Y-110730855D01*
X163658519Y-110738329D01*
X163647935Y-110770218D01*
X163627317Y-110832341D01*
X162250436Y-110832341D01*
X162251616Y-110832274D01*
X162502559Y-110818163D01*
X162776739Y-110802853D01*
X162990475Y-110789895D01*
X163172357Y-110773878D01*
X163190416Y-110770218D01*
X163392675Y-110770218D01*
X163422005Y-110799548D01*
X163451335Y-110770218D01*
X163422005Y-110740888D01*
X163392675Y-110770218D01*
X163190416Y-110770218D01*
X163263739Y-110755358D01*
X163279674Y-110730855D01*
X163235215Y-110696892D01*
X163131347Y-110662622D01*
X162953212Y-110636989D01*
X162745264Y-110625557D01*
X162543994Y-110628901D01*
X162385893Y-110647599D01*
X162307455Y-110682227D01*
X162304209Y-110686594D01*
X162217700Y-110725083D01*
X162072813Y-110740888D01*
X162057947Y-110741050D01*
X161916316Y-110759596D01*
X161838171Y-110799548D01*
X161835628Y-110804472D01*
X161473189Y-110804472D01*
X161500517Y-110775992D01*
X161575474Y-110702609D01*
X161682836Y-110650425D01*
X161850368Y-110610892D01*
X162106562Y-110574537D01*
X162177333Y-110566799D01*
X162495390Y-110545969D01*
X162848761Y-110539189D01*
X163173215Y-110548052D01*
X163206371Y-110550021D01*
X163457478Y-110563144D01*
X163615359Y-110564464D01*
X163701514Y-110550939D01*
X163737440Y-110519526D01*
X163744638Y-110467182D01*
X163744819Y-110459908D01*
X163768567Y-110356034D01*
X163836128Y-110189399D01*
X163953124Y-109947453D01*
X164125176Y-109617646D01*
X164171337Y-109555000D01*
X164252364Y-109509017D01*
X164301635Y-109504798D01*
X164429101Y-109477873D01*
X164431846Y-109477088D01*
X164464376Y-109477332D01*
X164399209Y-109518559D01*
X164381703Y-109529867D01*
X164283936Y-109639924D01*
X164169590Y-109820893D01*
X164055039Y-110039456D01*
X163956656Y-110262296D01*
X163890813Y-110456095D01*
X163873883Y-110587538D01*
X163881868Y-110617591D01*
X163941709Y-110687653D01*
X164074690Y-110755081D01*
X164301913Y-110831922D01*
X164529662Y-110906481D01*
X164747455Y-110987209D01*
X164900270Y-111054150D01*
X165059705Y-111125010D01*
X165196149Y-111145499D01*
X165310013Y-111097619D01*
X165387250Y-111003681D01*
X165516986Y-111003681D01*
X165524006Y-111073297D01*
X165541651Y-111082475D01*
X165563113Y-111034190D01*
X165558880Y-111003136D01*
X165524006Y-110995083D01*
X165516986Y-111003681D01*
X165387250Y-111003681D01*
X165414779Y-110970199D01*
X165467221Y-110865392D01*
X165563113Y-110865392D01*
X165563127Y-110866506D01*
X165607224Y-110911241D01*
X165695823Y-110907770D01*
X165768425Y-110858209D01*
X165786909Y-110772409D01*
X165735526Y-110718494D01*
X165645882Y-110745222D01*
X165603139Y-110788141D01*
X165563113Y-110865392D01*
X165467221Y-110865392D01*
X165523926Y-110752066D01*
X165650937Y-110432048D01*
X165700330Y-110295402D01*
X165726096Y-110183449D01*
X165707776Y-110107882D01*
X165644742Y-110027554D01*
X165574185Y-109945406D01*
X165578181Y-109928640D01*
X165673223Y-109975819D01*
X165715006Y-109999525D01*
X165775843Y-110060495D01*
X165793303Y-110159927D01*
X165778643Y-110336317D01*
X165744623Y-110623567D01*
X166149020Y-110623567D01*
X166153969Y-110623563D01*
X166360230Y-110615717D01*
X166515980Y-110595740D01*
X166587842Y-110567869D01*
X166591135Y-110555720D01*
X166550766Y-110478440D01*
X166444652Y-110380855D01*
X166406065Y-110350111D01*
X166302063Y-110231863D01*
X166263846Y-110127094D01*
X166294980Y-110060969D01*
X166399026Y-110058649D01*
X166490787Y-110079802D01*
X166599287Y-110094821D01*
X166678908Y-110133288D01*
X166809418Y-110237015D01*
X166962201Y-110379657D01*
X167110621Y-110534822D01*
X167228045Y-110676116D01*
X167285034Y-110772409D01*
X167287838Y-110777147D01*
X167336868Y-110877393D01*
X167441747Y-111006215D01*
X167465988Y-111034190D01*
X167517434Y-111093559D01*
X167557571Y-111188092D01*
X167568766Y-111222360D01*
X167641063Y-111233111D01*
X167675458Y-111228214D01*
X167760926Y-111283972D01*
X167779673Y-111322001D01*
X167825390Y-111414741D01*
X167850873Y-111589946D01*
X167854447Y-111633510D01*
X167897490Y-111800985D01*
X167973658Y-111983468D01*
X167984698Y-112005220D01*
X168016933Y-112075189D01*
X168046320Y-112138975D01*
X168051485Y-112193486D01*
X168002988Y-112188284D01*
X167976789Y-112180798D01*
X167918112Y-112213857D01*
X167919083Y-112249040D01*
X167921709Y-112344203D01*
X167987536Y-112572933D01*
X168027052Y-112679983D01*
X168035068Y-112701700D01*
X168089299Y-112808096D01*
X168129417Y-112813050D01*
X168164135Y-112724018D01*
X168173489Y-112629859D01*
X168142255Y-112533978D01*
X168108023Y-112479905D01*
X168087096Y-112383257D01*
X168099272Y-112306226D01*
X168144176Y-112295391D01*
X168160608Y-112299735D01*
X168192303Y-112243842D01*
X168202744Y-112104343D01*
X168194623Y-111904294D01*
X168170633Y-111666752D01*
X168133468Y-111414774D01*
X168085820Y-111171416D01*
X168030383Y-110959736D01*
X167969848Y-110802790D01*
X167964874Y-110793389D01*
X167872480Y-110654631D01*
X167720140Y-110458878D01*
X167527850Y-110230815D01*
X167315603Y-109995126D01*
X167018627Y-109692890D01*
X166733742Y-109446915D01*
X166448749Y-109257916D01*
X166144274Y-109118901D01*
X165800941Y-109022878D01*
X165399377Y-108962857D01*
X164920207Y-108931846D01*
X164344057Y-108922855D01*
X164310515Y-108922854D01*
X163941190Y-108925968D01*
X163661900Y-108936487D01*
X163447439Y-108956717D01*
X163272603Y-108988963D01*
X163112187Y-109035531D01*
X162960246Y-109090142D01*
X162573445Y-109266402D01*
X162272158Y-109463997D01*
X162072282Y-109673179D01*
X162004497Y-109781606D01*
X161959857Y-109887295D01*
X161982140Y-109917636D01*
X162071396Y-109862157D01*
X162129542Y-109824632D01*
X162160804Y-109852965D01*
X162148113Y-109882355D01*
X162063246Y-109970104D01*
X161924940Y-110074064D01*
X161820708Y-110149029D01*
X161730452Y-110248431D01*
X161723567Y-110338823D01*
X161721591Y-110429100D01*
X161622133Y-110499998D01*
X161614194Y-110503294D01*
X161490429Y-110595076D01*
X161380236Y-110734685D01*
X161328359Y-110844263D01*
X161088331Y-110844263D01*
X161091709Y-110839809D01*
X161237207Y-110633720D01*
X161405259Y-110384861D01*
X161574100Y-110124953D01*
X161707786Y-109915827D01*
X161875927Y-109662605D01*
X162013455Y-109478115D01*
X162139003Y-109343337D01*
X162271202Y-109239254D01*
X162428686Y-109146845D01*
X162630088Y-109047093D01*
X163070042Y-108836742D01*
X164232385Y-108815556D01*
X164640757Y-108810692D01*
X165163606Y-108817097D01*
X165598301Y-108844376D01*
X165961912Y-108897598D01*
X166271506Y-108981836D01*
X166544151Y-109102163D01*
X166796917Y-109263649D01*
X167046871Y-109471366D01*
X167311082Y-109730387D01*
X167431025Y-109855490D01*
X167705716Y-110155777D01*
X167909275Y-110406303D01*
X168055060Y-110626348D01*
X168156426Y-110835194D01*
X168226733Y-111052123D01*
X168306084Y-111449335D01*
X168353060Y-111941590D01*
X168352290Y-112104343D01*
X168350771Y-112425401D01*
X168297331Y-112852666D01*
X168259810Y-113054014D01*
X168246841Y-113134766D01*
X168210791Y-113359237D01*
X168161922Y-113700899D01*
G37*
G36*
X164834936Y-109585902D02*
G01*
X164983906Y-109634323D01*
X165159864Y-109703466D01*
X165328288Y-109778722D01*
X165454658Y-109845484D01*
X165504453Y-109889146D01*
X165473787Y-109895385D01*
X165379408Y-109856846D01*
X165316914Y-109826793D01*
X165149849Y-109756848D01*
X164954119Y-109683087D01*
X164833070Y-109635940D01*
X164747803Y-109591003D01*
X164754859Y-109571964D01*
X164834936Y-109585902D01*
G37*
G36*
X163314461Y-109704552D02*
G01*
X163323638Y-109722196D01*
X163275354Y-109743659D01*
X163244299Y-109739426D01*
X163236247Y-109704552D01*
X163244844Y-109697532D01*
X163314461Y-109704552D01*
G37*
M02*
