M48
INCH,TZ
T1C0.0157
T2C0.0315
T3C0.0394
T4C0.0394
T5C0.0433
T6C0.0551
T7C0.0591
%
G90
G05
T1
X39880Y-49670
X39900Y-41490
X42390Y-33670
X42400Y-17000
X44350Y-44800
X44850Y-44800
X45300Y-44800
X45800Y-44800
X46300Y-44800
X46800Y-44800
X47300Y-44800
X47660Y-30000
X47700Y-25500
X47710Y-20970
X47750Y-44800
X48080Y-38460
X48730Y-39940
X50100Y-31340
X52250Y-39230
X52790Y-22220
X52800Y-26720
X52900Y-36400
X53700Y-17000
X53900Y-42200
X54820Y-22220
X54840Y-26720
X54900Y-46000
X55820Y-20330
X57000Y-47700
X57680Y-43190
X57800Y-49800
X58200Y-20350
X58200Y-24850
X58200Y-29450
X59330Y-26200
X59350Y-30710
X59370Y-21700
X60140Y-35920
X60220Y-32200
X60320Y-44810
X60330Y-47100
X60650Y-17880
X60769Y-33741
X61350Y-51070
X61400Y-43700
X61650Y-32000
X62740Y-31940
X62780Y-32980
X63240Y-22030
X63250Y-16950
X63250Y-26500
X63380Y-37210
X63550Y-47950
X63890Y-31710
X63900Y-37240
X64094Y-40470
X64180Y-27710
X64430Y-26430
X64550Y-42220
X64950Y-45550
X65120Y-39850
X65170Y-36970
X65350Y-23590
X65370Y-21380
X65500Y-29050
X66250Y-43150
X66774Y-19724
X66850Y-35200
X66860Y-40310
X66860Y-43020
X67050Y-22650
X67310Y-45660
X67320Y-40310
X67330Y-43030
X67500Y-53200
X67520Y-24700
X67860Y-34800
X68030Y-24710
X69250Y-20670
X69470Y-44980
X69520Y-24180
X69600Y-37250
X69610Y-47810
X69690Y-46030
X69856Y-40650
X69950Y-27850
X70000Y-38350
X70040Y-37430
X70170Y-21140
X70480Y-38270
X70520Y-39990
X70540Y-30770
X70680Y-23400
X70800Y-34350
X70810Y-36700
X70840Y-49850
X70850Y-25450
X71100Y-40800
X71170Y-21130
X71180Y-45620
X71210Y-20300
X71600Y-16000
X71699Y-49197
X71860Y-20280
X72000Y-18327
X72100Y-30300
X72100Y-37300
X72170Y-22430
X72410Y-48770
X72589Y-24964
X72640Y-23060
X72950Y-45080
X73000Y-49800
X73020Y-24384
X73020Y-26403
X73120Y-22403
X73280Y-45910
X73330Y-41250
X73800Y-34700
X74420Y-45510
X74910Y-20170
X75030Y-30070
X75030Y-31210
X75040Y-41780
X75050Y-38240
X75060Y-37050
X75220Y-32100
X75220Y-39000
X75250Y-19680
X76050Y-20200
X76400Y-50200
T2
X44889Y-52887
X46070Y-52887
X47251Y-52887
T3
X53400Y-31010
X55440Y-31390
T4
X50268Y-52870
X51268Y-52870
X53470Y-38020
X53470Y-53520
X60470Y-38020
X60470Y-53520
X62470Y-37470
X62470Y-38470
X62470Y-39470
X62470Y-40470
X62470Y-41470
X62470Y-42470
X62470Y-43470
X62470Y-44470
X62470Y-45470
X62470Y-46470
X62470Y-47470
X62470Y-48470
X62470Y-49470
X62470Y-50470
X62470Y-51470
X68470Y-37470
X68470Y-38470
X68470Y-39470
X68470Y-40470
X68470Y-41470
X68470Y-42470
X68470Y-43470
X68470Y-44470
X68470Y-45470
X68470Y-46470
X68470Y-47470
X68470Y-48470
X68470Y-49470
X68470Y-50470
X68470Y-51470
X71976Y-32772
X71976Y-39770
X72244Y-42766
X72244Y-43766
X72244Y-46768
X72244Y-47768
X72270Y-50776
X72270Y-51776
X72270Y-52776
X72976Y-32772
X72976Y-39770
X73976Y-32772
X73976Y-39770
X76008Y-46768
X76008Y-47768
X76038Y-42766
X76038Y-43766
X76070Y-21768
X76070Y-22768
X76070Y-23768
X76070Y-24768
X76070Y-25768
X76070Y-28770
X76070Y-29770
X76070Y-30770
X76070Y-31770
X76070Y-32770
X76070Y-35768
X76070Y-36768
X76070Y-37768
X76070Y-38768
X76070Y-39768
T5
X45070Y-49670
X46070Y-49670
X47070Y-49670
X54855Y-18970
X54855Y-19970
X54855Y-20970
X54855Y-23470
X54855Y-24470
X54855Y-25470
X54855Y-27970
X54855Y-28970
X54855Y-29970
X57355Y-18970
X57355Y-19970
X57355Y-20970
X57355Y-23470
X57355Y-24470
X57355Y-25470
X57355Y-27970
X57355Y-28970
X57355Y-29970
T6
X45170Y-22470
X45170Y-24470
X45170Y-26470
X45186Y-36470
X45186Y-38470
T7
X43767Y-52887
X48373Y-52887
X50101Y-32870
X54101Y-32870
T0
M30
