G04 #@! TF.GenerationSoftware,KiCad,Pcbnew,(6.0.8)*
G04 #@! TF.CreationDate,2023-06-08T11:40:43-03:00*
G04 #@! TF.ProjectId,EcoMaua_BLDC_Controller_v0,45636f4d-6175-4615-9f42-4c44435f436f,rev?*
G04 #@! TF.SameCoordinates,Original*
G04 #@! TF.FileFunction,Soldermask,Top*
G04 #@! TF.FilePolarity,Negative*
%FSLAX46Y46*%
G04 Gerber Fmt 4.6, Leading zero omitted, Abs format (unit mm)*
G04 Created by KiCad (PCBNEW (6.0.8)) date 2023-06-08 11:40:43*
%MOMM*%
%LPD*%
G01*
G04 APERTURE LIST*
G04 Aperture macros list*
%AMRoundRect*
0 Rectangle with rounded corners*
0 $1 Rounding radius*
0 $2 $3 $4 $5 $6 $7 $8 $9 X,Y pos of 4 corners*
0 Add a 4 corners polygon primitive as box body*
4,1,4,$2,$3,$4,$5,$6,$7,$8,$9,$2,$3,0*
0 Add four circle primitives for the rounded corners*
1,1,$1+$1,$2,$3*
1,1,$1+$1,$4,$5*
1,1,$1+$1,$6,$7*
1,1,$1+$1,$8,$9*
0 Add four rect primitives between the rounded corners*
20,1,$1+$1,$2,$3,$4,$5,0*
20,1,$1+$1,$4,$5,$6,$7,0*
20,1,$1+$1,$6,$7,$8,$9,0*
20,1,$1+$1,$8,$9,$2,$3,0*%
G04 Aperture macros list end*
%ADD10C,1.750000*%
%ADD11C,0.150000*%
%ADD12RoundRect,0.150000X0.825000X0.150000X-0.825000X0.150000X-0.825000X-0.150000X0.825000X-0.150000X0*%
%ADD13RoundRect,0.250000X0.250000X0.475000X-0.250000X0.475000X-0.250000X-0.475000X0.250000X-0.475000X0*%
%ADD14RoundRect,0.250000X-0.262500X-0.450000X0.262500X-0.450000X0.262500X0.450000X-0.262500X0.450000X0*%
%ADD15RoundRect,0.150000X0.587500X0.150000X-0.587500X0.150000X-0.587500X-0.150000X0.587500X-0.150000X0*%
%ADD16RoundRect,0.250000X0.312500X0.625000X-0.312500X0.625000X-0.312500X-0.625000X0.312500X-0.625000X0*%
%ADD17RoundRect,0.250000X-0.550000X1.500000X-0.550000X-1.500000X0.550000X-1.500000X0.550000X1.500000X0*%
%ADD18O,2.200000X3.500000*%
%ADD19R,1.500000X2.500000*%
%ADD20O,1.500000X2.500000*%
%ADD21R,1.700000X1.700000*%
%ADD22O,1.700000X1.700000*%
%ADD23RoundRect,0.250000X-0.475000X0.250000X-0.475000X-0.250000X0.475000X-0.250000X0.475000X0.250000X0*%
%ADD24C,3.500000*%
%ADD25RoundRect,0.150000X-0.150000X0.850000X-0.150000X-0.850000X0.150000X-0.850000X0.150000X0.850000X0*%
%ADD26RoundRect,0.250000X0.475000X-0.250000X0.475000X0.250000X-0.475000X0.250000X-0.475000X-0.250000X0*%
%ADD27R,1.600000X1.600000*%
%ADD28O,1.600000X1.600000*%
%ADD29RoundRect,0.250000X0.262500X0.450000X-0.262500X0.450000X-0.262500X-0.450000X0.262500X-0.450000X0*%
%ADD30RoundRect,0.150000X-0.825000X-0.150000X0.825000X-0.150000X0.825000X0.150000X-0.825000X0.150000X0*%
%ADD31RoundRect,0.250000X0.450000X-0.262500X0.450000X0.262500X-0.450000X0.262500X-0.450000X-0.262500X0*%
%ADD32O,3.500000X3.500000*%
%ADD33R,1.905000X2.000000*%
%ADD34O,1.905000X2.000000*%
%ADD35RoundRect,0.250000X1.950000X1.000000X-1.950000X1.000000X-1.950000X-1.000000X1.950000X-1.000000X0*%
%ADD36R,1.300000X1.700000*%
%ADD37RoundRect,0.250000X-0.250000X-0.475000X0.250000X-0.475000X0.250000X0.475000X-0.250000X0.475000X0*%
%ADD38RoundRect,0.425000X0.425000X-0.425000X0.425000X0.425000X-0.425000X0.425000X-0.425000X-0.425000X0*%
%ADD39RoundRect,0.250000X-0.550000X1.250000X-0.550000X-1.250000X0.550000X-1.250000X0.550000X1.250000X0*%
%ADD40RoundRect,0.249999X-1.550001X0.790001X-1.550001X-0.790001X1.550001X-0.790001X1.550001X0.790001X0*%
%ADD41O,3.600000X2.080000*%
%ADD42RoundRect,0.150000X-0.512500X-0.150000X0.512500X-0.150000X0.512500X0.150000X-0.512500X0.150000X0*%
%ADD43C,3.000000*%
%ADD44O,3.000000X3.000000*%
%ADD45RoundRect,0.250000X-0.450000X0.262500X-0.450000X-0.262500X0.450000X-0.262500X0.450000X0.262500X0*%
%ADD46RoundRect,0.243750X-0.243750X-0.456250X0.243750X-0.456250X0.243750X0.456250X-0.243750X0.456250X0*%
%ADD47R,2.000000X1.905000*%
%ADD48O,2.000000X1.905000*%
%ADD49C,1.905000*%
G04 APERTURE END LIST*
D10*
X140830000Y-79730000D02*
X140830000Y-81640000D01*
X139340000Y-71040000D02*
X141460000Y-71040000D01*
X136560000Y-50720000D02*
X136560000Y-73590000D01*
X132110000Y-73580000D02*
X139340000Y-73580000D01*
X136580000Y-77830000D02*
X135650000Y-78760000D01*
X132110000Y-50720000D02*
X139340000Y-50720000D01*
X137430000Y-83590000D02*
X138590000Y-84750000D01*
X140830000Y-81640000D02*
X141410000Y-82210000D01*
X132110000Y-62150000D02*
X139340000Y-62150000D01*
X139340000Y-59610000D02*
X141510000Y-59610000D01*
X139340000Y-48180000D02*
X141440000Y-48180000D01*
X143980000Y-50720000D02*
X145690000Y-50720000D01*
D11*
X112141000Y-106807000D02*
X121920000Y-106807000D01*
X121920000Y-106807000D02*
X121920000Y-113030000D01*
X121920000Y-113030000D02*
X112141000Y-113030000D01*
X112141000Y-113030000D02*
X112141000Y-106807000D01*
G36*
X112141000Y-106807000D02*
G01*
X121920000Y-106807000D01*
X121920000Y-113030000D01*
X112141000Y-113030000D01*
X112141000Y-106807000D01*
G37*
D10*
X144000000Y-73580000D02*
X145690000Y-73580000D01*
X144050000Y-62150000D02*
X145690000Y-62150000D01*
X141360000Y-84760000D02*
X138600000Y-84760000D01*
X136580000Y-73570000D02*
X136580000Y-77830000D01*
X141440000Y-48180000D02*
X143980000Y-50720000D01*
X141460000Y-71040000D02*
X144000000Y-73580000D01*
X141510000Y-59610000D02*
X144050000Y-62150000D01*
D12*
X160601500Y-51232000D03*
X160601500Y-49962000D03*
X160601500Y-48692000D03*
X160601500Y-47422000D03*
X155651500Y-47422000D03*
X155651500Y-48692000D03*
X155651500Y-49962000D03*
X155651500Y-51232000D03*
D13*
X189088000Y-58593000D03*
X187188000Y-58593000D03*
D14*
X187225500Y-61133000D03*
X189050500Y-61133000D03*
X178269500Y-108372000D03*
X180094500Y-108372000D03*
D15*
X186296500Y-97648000D03*
X186296500Y-95748000D03*
X184421500Y-96698000D03*
D16*
X152731000Y-74092000D03*
X149806000Y-74092000D03*
D13*
X154504500Y-65329000D03*
X152604500Y-65329000D03*
D17*
X128956000Y-107206000D03*
X128956000Y-112606000D03*
D18*
X122868000Y-134333500D03*
X111168000Y-134333500D03*
D19*
X114018000Y-134333500D03*
D20*
X117018000Y-134333500D03*
X120018000Y-134333500D03*
D21*
X183500000Y-108626000D03*
D22*
X183500000Y-111166000D03*
D23*
X179248000Y-130561000D03*
X179248000Y-132461000D03*
D14*
X187397500Y-108372000D03*
X189222500Y-108372000D03*
D24*
X113852700Y-80153600D03*
D14*
X187225500Y-66213000D03*
X189050500Y-66213000D03*
D25*
X177851000Y-59654000D03*
X176581000Y-59654000D03*
X175311000Y-59654000D03*
X174041000Y-59654000D03*
X172771000Y-59654000D03*
X171501000Y-59654000D03*
X170231000Y-59654000D03*
X168961000Y-59654000D03*
X168961000Y-64654000D03*
X170231000Y-64654000D03*
X171501000Y-64654000D03*
X172771000Y-64654000D03*
X174041000Y-64654000D03*
X175311000Y-64654000D03*
X176581000Y-64654000D03*
X177851000Y-64654000D03*
D21*
X193218000Y-65451000D03*
D22*
X193218000Y-62911000D03*
X193218000Y-60371000D03*
X193218000Y-57831000D03*
X193218000Y-55291000D03*
D26*
X174930000Y-56754000D03*
X174930000Y-54854000D03*
D27*
X158674000Y-95174000D03*
D28*
X158674000Y-97714000D03*
X158674000Y-100254000D03*
X158674000Y-102794000D03*
X158674000Y-105334000D03*
X158674000Y-107874000D03*
X158674000Y-110414000D03*
X158674000Y-112954000D03*
X158674000Y-115494000D03*
X158674000Y-118034000D03*
X158674000Y-120574000D03*
X158674000Y-123114000D03*
X158674000Y-125654000D03*
X158674000Y-128194000D03*
X158674000Y-130734000D03*
X173914000Y-130734000D03*
X173914000Y-128194000D03*
X173914000Y-125654000D03*
X173914000Y-123114000D03*
X173914000Y-120574000D03*
X173914000Y-118034000D03*
X173914000Y-115494000D03*
X173914000Y-112954000D03*
X173914000Y-110414000D03*
X173914000Y-107874000D03*
X173914000Y-105334000D03*
X173914000Y-102794000D03*
X173914000Y-100254000D03*
X173914000Y-97714000D03*
X173914000Y-95174000D03*
D24*
X191694000Y-133528000D03*
D29*
X132154300Y-93675200D03*
X130329300Y-93675200D03*
D30*
X141544800Y-81585000D03*
X141544800Y-82855000D03*
X141544800Y-84125000D03*
X141544800Y-85395000D03*
X146494800Y-85395000D03*
X146494800Y-84125000D03*
X146494800Y-82855000D03*
X146494800Y-81585000D03*
D29*
X186256500Y-45136000D03*
X184431500Y-45136000D03*
D31*
X172390000Y-56716500D03*
X172390000Y-54891500D03*
D23*
X163714500Y-63363000D03*
X163714500Y-65263000D03*
D16*
X152731000Y-51105000D03*
X149806000Y-51105000D03*
D15*
X186296500Y-93584000D03*
X186296500Y-91684000D03*
X184421500Y-92634000D03*
D32*
X117018000Y-109502000D03*
D33*
X114478000Y-126162000D03*
D34*
X117018000Y-126162000D03*
X119558000Y-126162000D03*
D24*
X171002700Y-43958600D03*
D23*
X163714500Y-74920000D03*
X163714500Y-76820000D03*
D14*
X187397500Y-118537000D03*
X189222500Y-118537000D03*
D26*
X178232000Y-56754000D03*
X178232000Y-54854000D03*
D21*
X193218000Y-83236000D03*
D22*
X193218000Y-80696000D03*
X193218000Y-78156000D03*
X193218000Y-75616000D03*
X193218000Y-73076000D03*
D31*
X188915000Y-97610500D03*
X188915000Y-95785500D03*
X188915000Y-75771500D03*
X188915000Y-73946500D03*
X181803000Y-93546500D03*
X181803000Y-91721500D03*
D35*
X132100500Y-73584000D03*
X123700500Y-73584000D03*
D16*
X152731000Y-47549000D03*
X149806000Y-47549000D03*
D24*
X113852700Y-43958600D03*
D36*
X180490000Y-44628000D03*
X176990000Y-44628000D03*
D24*
X191694000Y-43104000D03*
D12*
X160601500Y-62662000D03*
X160601500Y-61392000D03*
X160601500Y-60122000D03*
X160601500Y-58852000D03*
X155651500Y-58852000D03*
X155651500Y-60122000D03*
X155651500Y-61392000D03*
X155651500Y-62662000D03*
D29*
X132154300Y-91135200D03*
X130329300Y-91135200D03*
D36*
X157138500Y-76886000D03*
X160638500Y-76886000D03*
D29*
X123850300Y-81712000D03*
X122025300Y-81712000D03*
D31*
X144450000Y-92022500D03*
X144450000Y-90197500D03*
D13*
X154504500Y-76886000D03*
X152604500Y-76886000D03*
D21*
X183500000Y-118791000D03*
D22*
X183500000Y-121331000D03*
D23*
X163714500Y-51933000D03*
X163714500Y-53833000D03*
D24*
X101270000Y-43104000D03*
D29*
X177620500Y-47422000D03*
X175795500Y-47422000D03*
D37*
X149419800Y-81712000D03*
X151319800Y-81712000D03*
X178232000Y-121585000D03*
X180132000Y-121585000D03*
X172710000Y-52502000D03*
X174610000Y-52502000D03*
D38*
X135814000Y-135941000D03*
D21*
X153594000Y-135941000D03*
X153594000Y-96571000D03*
X135814000Y-96571000D03*
D37*
X178232000Y-111420000D03*
X180132000Y-111420000D03*
D24*
X101270000Y-133528000D03*
D39*
X128956000Y-122692000D03*
X128956000Y-127092000D03*
D31*
X141656000Y-92022500D03*
X141656000Y-90197500D03*
D40*
X114771500Y-92634000D03*
D41*
X114771500Y-97714000D03*
D42*
X184206500Y-47742000D03*
X184206500Y-48692000D03*
X184206500Y-49642000D03*
X186481500Y-49642000D03*
X186481500Y-48692000D03*
X186481500Y-47742000D03*
D15*
X186296500Y-79873000D03*
X186296500Y-77973000D03*
X184421500Y-78923000D03*
D16*
X152731000Y-62535000D03*
X149806000Y-62535000D03*
D26*
X128956000Y-119238000D03*
X128956000Y-117338000D03*
D43*
X127255800Y-83490000D03*
D44*
X137415800Y-83490000D03*
D24*
X171002700Y-80153600D03*
D35*
X132100500Y-50724000D03*
X123700500Y-50724000D03*
D14*
X179859500Y-47422000D03*
X181684500Y-47422000D03*
D31*
X188915000Y-79835500D03*
X188915000Y-78010500D03*
D21*
X183566000Y-128971000D03*
D22*
X183566000Y-131511000D03*
X183566000Y-134051000D03*
D45*
X181803000Y-95785500D03*
X181803000Y-97610500D03*
X181803000Y-78010500D03*
X181803000Y-79835500D03*
D21*
X193218000Y-101011000D03*
D22*
X193218000Y-98471000D03*
X193218000Y-95931000D03*
X193218000Y-93391000D03*
X193218000Y-90851000D03*
D31*
X188915000Y-93546500D03*
X188915000Y-91721500D03*
D21*
X182819000Y-83241000D03*
D22*
X185359000Y-83241000D03*
X187899000Y-83241000D03*
D15*
X186296500Y-75809000D03*
X186296500Y-73909000D03*
X184421500Y-74859000D03*
D36*
X157138500Y-53899000D03*
X160638500Y-53899000D03*
D16*
X152731000Y-70536000D03*
X149806000Y-70536000D03*
D37*
X187360000Y-111420000D03*
X189260000Y-111420000D03*
D21*
X182819000Y-101016000D03*
D22*
X185359000Y-101016000D03*
X187899000Y-101016000D03*
D12*
X160601500Y-74219000D03*
X160601500Y-72949000D03*
X160601500Y-71679000D03*
X160601500Y-70409000D03*
X155651500Y-70409000D03*
X155651500Y-71679000D03*
X155651500Y-72949000D03*
X155651500Y-74219000D03*
D21*
X193060000Y-118791000D03*
D22*
X193060000Y-121331000D03*
D13*
X189088000Y-53513000D03*
X187188000Y-53513000D03*
D16*
X152731000Y-58979000D03*
X149806000Y-58979000D03*
D21*
X127681000Y-134290000D03*
D22*
X130221000Y-134290000D03*
D46*
X126240300Y-93675200D03*
X128115300Y-93675200D03*
D13*
X177658000Y-49962000D03*
X175758000Y-49962000D03*
D37*
X121987800Y-85268000D03*
X123887800Y-85268000D03*
D31*
X180772000Y-56716500D03*
X180772000Y-54891500D03*
D13*
X181722000Y-49962000D03*
X179822000Y-49962000D03*
D35*
X132100500Y-62154000D03*
X123700500Y-62154000D03*
D13*
X154504500Y-53899000D03*
X152604500Y-53899000D03*
D36*
X157138500Y-65329000D03*
X160638500Y-65329000D03*
D31*
X181803000Y-75771500D03*
X181803000Y-73946500D03*
D26*
X128956000Y-103490000D03*
X128956000Y-101590000D03*
D13*
X189088000Y-63673000D03*
X187188000Y-63673000D03*
D14*
X187225500Y-56053000D03*
X189050500Y-56053000D03*
X178269500Y-118537000D03*
X180094500Y-118537000D03*
D36*
X147018000Y-91110000D03*
X150518000Y-91110000D03*
D46*
X126240300Y-91135200D03*
X128115300Y-91135200D03*
D40*
X114732000Y-57074000D03*
D41*
X114732000Y-62154000D03*
X114732000Y-67234000D03*
D21*
X193136000Y-108626000D03*
D22*
X193136000Y-111166000D03*
D37*
X187360000Y-121585000D03*
X189260000Y-121585000D03*
X149419800Y-85268000D03*
X151319800Y-85268000D03*
D47*
X145680500Y-48184000D03*
D48*
X145680500Y-50724000D03*
D49*
X145680500Y-53264000D03*
D47*
X145680500Y-71044000D03*
D48*
X145680500Y-73584000D03*
D49*
X145680500Y-76124000D03*
D47*
X139330500Y-53264000D03*
D48*
X139330500Y-50724000D03*
D49*
X139330500Y-48184000D03*
D47*
X139330500Y-64694000D03*
D48*
X139330500Y-62154000D03*
D49*
X139330500Y-59614000D03*
D47*
X145680500Y-59614000D03*
D48*
X145680500Y-62154000D03*
D49*
X145680500Y-64694000D03*
D47*
X139330500Y-76124000D03*
D48*
X139330500Y-73584000D03*
D49*
X139330500Y-71044000D03*
M02*
