M48
; DRILL file {KiCad 8.0.4} date 2024-08-21T00:27:20-0300
; FORMAT={-:-/ absolute / inch / decimal}
; #@! TF.CreationDate,2024-08-21T00:27:20-03:00
; #@! TF.GenerationSoftware,Kicad,Pcbnew,8.0.4
; #@! TF.FileFunction,Plated,1,2,PTH
FMAT,2
INCH
; #@! TA.AperFunction,Plated,PTH,ViaDrill
T1C0.0315
; #@! TA.AperFunction,Plated,PTH,ComponentDrill
T2C0.0315
; #@! TA.AperFunction,Plated,PTH,ComponentDrill
T3C0.0335
; #@! TA.AperFunction,Plated,PTH,ComponentDrill
T4C0.0354
; #@! TA.AperFunction,Plated,PTH,ComponentDrill
T5C0.0360
; #@! TA.AperFunction,Plated,PTH,ComponentDrill
T6C0.0394
%
G90
G05
T1
X5.9783Y-3.0483
X6.1Y-2.48
X6.1Y-2.75
X6.3583Y-3.1483
X6.37Y-2.91
X6.6Y-2.9483
X6.69Y-2.77
X6.7Y-2.5
X6.77Y-3.19
X6.94Y-2.64
X7.05Y-4.0583
X7.6575Y-2.1063
T2
X5.84Y-2.06
X5.94Y-1.2697
X5.94Y-1.5697
X5.94Y-1.8374
X5.94Y-2.2
X6.0384Y-1.8374
X6.18Y-1.84
X6.1811Y-1.2697
X6.1811Y-1.5697
X6.24Y-2.06
X6.2784Y-1.84
X6.34Y-2.2
X6.42Y-1.2648
X6.42Y-1.5648
X6.42Y-1.84
X6.42Y-2.06
X6.5184Y-1.84
X6.52Y-2.2
X6.66Y-1.2648
X6.66Y-1.5648
X6.66Y-1.84
X6.7584Y-1.84
X6.82Y-2.06
X6.92Y-2.2
X7.43Y-1.26
X7.43Y-1.66
X7.6589Y-1.26
X7.6589Y-1.66
X7.8951Y-1.26
X7.8951Y-1.66
T3
X8.54Y-3.27
X8.54Y-3.39
X8.5433Y-3.6846
X8.5433Y-3.85
T4
X7.43Y-1.8202
X7.43Y-1.9202
X7.66Y-1.8202
X7.66Y-1.9202
X7.89Y-1.8202
X7.89Y-1.9202
T5
X6.9165Y-3.4583
X6.9165Y-3.5583
X6.9165Y-3.6583
X6.9165Y-3.7583
X6.9165Y-3.8583
X6.9165Y-3.9583
X6.9165Y-4.0583
X6.9419Y-2.3933
X6.9419Y-3.1033
X8.3465Y-3.6783
X8.3465Y-3.8583
X8.5319Y-2.3933
X8.5319Y-3.1033
T6
X5.8661Y-2.6483
X5.8661Y-2.7483
X5.8661Y-2.8483
X5.8661Y-2.9483
X5.8661Y-3.0483
X5.8661Y-3.1483
X5.8661Y-3.2483
X5.8661Y-3.3483
X5.8661Y-3.4483
X5.8661Y-3.5483
X5.8661Y-3.6483
X5.8661Y-3.7483
X5.8661Y-3.8483
X5.8661Y-3.9483
X5.8661Y-4.0483
X6.4661Y-2.6483
X6.4661Y-2.7483
X6.4661Y-2.8483
X6.4661Y-2.9483
X6.4661Y-3.0483
X6.4661Y-3.1483
X6.4661Y-3.2483
X6.4661Y-3.3483
X6.4661Y-3.4483
X6.4661Y-3.5483
X6.4661Y-3.6483
X6.4661Y-3.7483
X6.4661Y-3.8483
X6.4661Y-3.9483
X6.4661Y-4.0483
M30
