%TF.GenerationSoftware,KiCad,Pcbnew,8.0.4*%
%TF.CreationDate,2024-08-21T00:27:21-03:00*%
%TF.ProjectId,EcoMaua_Pilot_Screen,45636f4d-6175-4615-9f50-696c6f745f53,rev?*%
%TF.SameCoordinates,Original*%
%TF.FileFunction,Drillmap*%
%TF.FilePolarity,Positive*%
%FSLAX45Y45*%
G04 Gerber Fmt 4.5, Leading zero omitted, Abs format (unit mm)*
G04 Created by KiCad (PCBNEW 8.0.4) date 2024-08-21 00:27:21*
%MOMM*%
%LPD*%
G01*
G04 APERTURE LIST*
%ADD10C,0.200000*%
%ADD11C,0.100000*%
G04 APERTURE END LIST*
D10*
X14300000Y-2700000D02*
X22300000Y-2700000D01*
X22300000Y-11200000D01*
X14300000Y-11200000D01*
X14300000Y-2700000D01*
D11*
X15145000Y-7702800D02*
X15225000Y-7782800D01*
X15225000Y-7702800D02*
X15145000Y-7782800D01*
X15454000Y-6259200D02*
X15534000Y-6339200D01*
X15534000Y-6259200D02*
X15454000Y-6339200D01*
X15454000Y-6945000D02*
X15534000Y-7025000D01*
X15534000Y-6945000D02*
X15454000Y-7025000D01*
X16110200Y-7956800D02*
X16190200Y-8036800D01*
X16190200Y-7956800D02*
X16110200Y-8036800D01*
X16139800Y-7351400D02*
X16219800Y-7431400D01*
X16219800Y-7351400D02*
X16139800Y-7431400D01*
X16724000Y-7448800D02*
X16804000Y-7528800D01*
X16804000Y-7448800D02*
X16724000Y-7528800D01*
X16952600Y-6995800D02*
X17032600Y-7075800D01*
X17032600Y-6995800D02*
X16952600Y-7075800D01*
X16978000Y-6310000D02*
X17058000Y-6390000D01*
X17058000Y-6310000D02*
X16978000Y-6390000D01*
X17155800Y-8062600D02*
X17235800Y-8142600D01*
X17235800Y-8062600D02*
X17155800Y-8142600D01*
X17587600Y-6665600D02*
X17667600Y-6745600D01*
X17667600Y-6665600D02*
X17587600Y-6745600D01*
X17867000Y-10268000D02*
X17947000Y-10348000D01*
X17947000Y-10268000D02*
X17867000Y-10348000D01*
X19410000Y-5310000D02*
X19490000Y-5390000D01*
X19490000Y-5310000D02*
X19410000Y-5390000D01*
X14873600Y-5232400D02*
G75*
G02*
X14793600Y-5232400I-40000J0D01*
G01*
X14793600Y-5232400D02*
G75*
G02*
X14873600Y-5232400I40000J0D01*
G01*
X15127600Y-3225000D02*
G75*
G02*
X15047600Y-3225000I-40000J0D01*
G01*
X15047600Y-3225000D02*
G75*
G02*
X15127600Y-3225000I40000J0D01*
G01*
X15127600Y-3987000D02*
G75*
G02*
X15047600Y-3987000I-40000J0D01*
G01*
X15047600Y-3987000D02*
G75*
G02*
X15127600Y-3987000I40000J0D01*
G01*
X15127600Y-4667111D02*
G75*
G02*
X15047600Y-4667111I-40000J0D01*
G01*
X15047600Y-4667111D02*
G75*
G02*
X15127600Y-4667111I40000J0D01*
G01*
X15127600Y-5588000D02*
G75*
G02*
X15047600Y-5588000I-40000J0D01*
G01*
X15047600Y-5588000D02*
G75*
G02*
X15127600Y-5588000I40000J0D01*
G01*
X15377600Y-4667111D02*
G75*
G02*
X15297600Y-4667111I-40000J0D01*
G01*
X15297600Y-4667111D02*
G75*
G02*
X15377600Y-4667111I40000J0D01*
G01*
X15737200Y-4673600D02*
G75*
G02*
X15657200Y-4673600I-40000J0D01*
G01*
X15657200Y-4673600D02*
G75*
G02*
X15737200Y-4673600I40000J0D01*
G01*
X15740000Y-3225000D02*
G75*
G02*
X15660000Y-3225000I-40000J0D01*
G01*
X15660000Y-3225000D02*
G75*
G02*
X15740000Y-3225000I40000J0D01*
G01*
X15740000Y-3987000D02*
G75*
G02*
X15660000Y-3987000I-40000J0D01*
G01*
X15660000Y-3987000D02*
G75*
G02*
X15740000Y-3987000I40000J0D01*
G01*
X15889600Y-5232400D02*
G75*
G02*
X15809600Y-5232400I-40000J0D01*
G01*
X15809600Y-5232400D02*
G75*
G02*
X15889600Y-5232400I40000J0D01*
G01*
X15987200Y-4673600D02*
G75*
G02*
X15907200Y-4673600I-40000J0D01*
G01*
X15907200Y-4673600D02*
G75*
G02*
X15987200Y-4673600I40000J0D01*
G01*
X16143600Y-5588000D02*
G75*
G02*
X16063600Y-5588000I-40000J0D01*
G01*
X16063600Y-5588000D02*
G75*
G02*
X16143600Y-5588000I40000J0D01*
G01*
X16346800Y-3212700D02*
G75*
G02*
X16266800Y-3212700I-40000J0D01*
G01*
X16266800Y-3212700D02*
G75*
G02*
X16346800Y-3212700I40000J0D01*
G01*
X16346800Y-3974700D02*
G75*
G02*
X16266800Y-3974700I-40000J0D01*
G01*
X16266800Y-3974700D02*
G75*
G02*
X16346800Y-3974700I40000J0D01*
G01*
X16346800Y-4673600D02*
G75*
G02*
X16266800Y-4673600I-40000J0D01*
G01*
X16266800Y-4673600D02*
G75*
G02*
X16346800Y-4673600I40000J0D01*
G01*
X16346800Y-5232400D02*
G75*
G02*
X16266800Y-5232400I-40000J0D01*
G01*
X16266800Y-5232400D02*
G75*
G02*
X16346800Y-5232400I40000J0D01*
G01*
X16596800Y-4673600D02*
G75*
G02*
X16516800Y-4673600I-40000J0D01*
G01*
X16516800Y-4673600D02*
G75*
G02*
X16596800Y-4673600I40000J0D01*
G01*
X16600800Y-5588000D02*
G75*
G02*
X16520800Y-5588000I-40000J0D01*
G01*
X16520800Y-5588000D02*
G75*
G02*
X16600800Y-5588000I40000J0D01*
G01*
X16956400Y-3212700D02*
G75*
G02*
X16876400Y-3212700I-40000J0D01*
G01*
X16876400Y-3212700D02*
G75*
G02*
X16956400Y-3212700I40000J0D01*
G01*
X16956400Y-3974700D02*
G75*
G02*
X16876400Y-3974700I-40000J0D01*
G01*
X16876400Y-3974700D02*
G75*
G02*
X16956400Y-3974700I40000J0D01*
G01*
X16956400Y-4673600D02*
G75*
G02*
X16876400Y-4673600I-40000J0D01*
G01*
X16876400Y-4673600D02*
G75*
G02*
X16956400Y-4673600I40000J0D01*
G01*
X17206400Y-4673600D02*
G75*
G02*
X17126400Y-4673600I-40000J0D01*
G01*
X17126400Y-4673600D02*
G75*
G02*
X17206400Y-4673600I40000J0D01*
G01*
X17362800Y-5232400D02*
G75*
G02*
X17282800Y-5232400I-40000J0D01*
G01*
X17282800Y-5232400D02*
G75*
G02*
X17362800Y-5232400I40000J0D01*
G01*
X17616800Y-5588000D02*
G75*
G02*
X17536800Y-5588000I-40000J0D01*
G01*
X17536800Y-5588000D02*
G75*
G02*
X17616800Y-5588000I40000J0D01*
G01*
X18912200Y-3200400D02*
G75*
G02*
X18832200Y-3200400I-40000J0D01*
G01*
X18832200Y-3200400D02*
G75*
G02*
X18912200Y-3200400I40000J0D01*
G01*
X18912200Y-4216400D02*
G75*
G02*
X18832200Y-4216400I-40000J0D01*
G01*
X18832200Y-4216400D02*
G75*
G02*
X18912200Y-4216400I40000J0D01*
G01*
X19493500Y-3200400D02*
G75*
G02*
X19413500Y-3200400I-40000J0D01*
G01*
X19413500Y-3200400D02*
G75*
G02*
X19493500Y-3200400I40000J0D01*
G01*
X19493500Y-4216400D02*
G75*
G02*
X19413500Y-4216400I-40000J0D01*
G01*
X19413500Y-4216400D02*
G75*
G02*
X19493500Y-4216400I40000J0D01*
G01*
X20093500Y-3200400D02*
G75*
G02*
X20013500Y-3200400I-40000J0D01*
G01*
X20013500Y-3200400D02*
G75*
G02*
X20093500Y-3200400I40000J0D01*
G01*
X20093500Y-4216400D02*
G75*
G02*
X20013500Y-4216400I-40000J0D01*
G01*
X20013500Y-4216400D02*
G75*
G02*
X20093500Y-4216400I40000J0D01*
G01*
X21691600Y-8263300D02*
X21691600Y-8348300D01*
X21649100Y-8305800D02*
X21734100Y-8305800D01*
X21691600Y-8568100D02*
X21691600Y-8653100D01*
X21649100Y-8610600D02*
X21734100Y-8610600D01*
X21700000Y-9316500D02*
X21700000Y-9401500D01*
X21657500Y-9359000D02*
X21742500Y-9359000D01*
X21700000Y-9736500D02*
X21700000Y-9821500D01*
X21657500Y-9779000D02*
X21742500Y-9779000D01*
X18904020Y-4655120D02*
X18904020Y-4591480D01*
X18840380Y-4591480D01*
X18840380Y-4655120D01*
X18904020Y-4655120D01*
X18904020Y-4909120D02*
X18904020Y-4845480D01*
X18840380Y-4845480D01*
X18840380Y-4909120D01*
X18904020Y-4909120D01*
X19488220Y-4655120D02*
X19488220Y-4591480D01*
X19424580Y-4591480D01*
X19424580Y-4655120D01*
X19488220Y-4655120D01*
X19488220Y-4909120D02*
X19488220Y-4845480D01*
X19424580Y-4845480D01*
X19424580Y-4909120D01*
X19488220Y-4909120D01*
X20072420Y-4655120D02*
X20072420Y-4591480D01*
X20008780Y-4591480D01*
X20008780Y-4655120D01*
X20072420Y-4655120D01*
X20072420Y-4909120D02*
X20072420Y-4845480D01*
X20008780Y-4845480D01*
X20008780Y-4909120D01*
X20072420Y-4909120D01*
X17567800Y-8829720D02*
X17613520Y-8784000D01*
X17567800Y-8738280D01*
X17522080Y-8784000D01*
X17567800Y-8829720D01*
X17567800Y-9083720D02*
X17613520Y-9038000D01*
X17567800Y-8992280D01*
X17522080Y-9038000D01*
X17567800Y-9083720D01*
X17567800Y-9337720D02*
X17613520Y-9292000D01*
X17567800Y-9246280D01*
X17522080Y-9292000D01*
X17567800Y-9337720D01*
X17567800Y-9591720D02*
X17613520Y-9546000D01*
X17567800Y-9500280D01*
X17522080Y-9546000D01*
X17567800Y-9591720D01*
X17567800Y-9845720D02*
X17613520Y-9800000D01*
X17567800Y-9754280D01*
X17522080Y-9800000D01*
X17567800Y-9845720D01*
X17567800Y-10099720D02*
X17613520Y-10054000D01*
X17567800Y-10008280D01*
X17522080Y-10054000D01*
X17567800Y-10099720D01*
X17567800Y-10353720D02*
X17613520Y-10308000D01*
X17567800Y-10262280D01*
X17522080Y-10308000D01*
X17567800Y-10353720D01*
X17632400Y-6124720D02*
X17678120Y-6079000D01*
X17632400Y-6033280D01*
X17586680Y-6079000D01*
X17632400Y-6124720D01*
X17632400Y-7928120D02*
X17678120Y-7882400D01*
X17632400Y-7836680D01*
X17586680Y-7882400D01*
X17632400Y-7928120D01*
X21200000Y-9388520D02*
X21245720Y-9342800D01*
X21200000Y-9297080D01*
X21154280Y-9342800D01*
X21200000Y-9388520D01*
X21200000Y-9845720D02*
X21245720Y-9800000D01*
X21200000Y-9754280D01*
X21154280Y-9800000D01*
X21200000Y-9845720D01*
X21671000Y-6124720D02*
X21716720Y-6079000D01*
X21671000Y-6033280D01*
X21625280Y-6079000D01*
X21671000Y-6124720D01*
X21671000Y-7928120D02*
X21716720Y-7882400D01*
X21671000Y-7836680D01*
X21625280Y-7882400D01*
X21671000Y-7928120D01*
X14850000Y-6676800D02*
X14950000Y-6776800D01*
X14950000Y-6676800D02*
X14850000Y-6776800D01*
X14950000Y-6726800D02*
G75*
G02*
X14850000Y-6726800I-50000J0D01*
G01*
X14850000Y-6726800D02*
G75*
G02*
X14950000Y-6726800I50000J0D01*
G01*
X14850000Y-6930800D02*
X14950000Y-7030800D01*
X14950000Y-6930800D02*
X14850000Y-7030800D01*
X14950000Y-6980800D02*
G75*
G02*
X14850000Y-6980800I-50000J0D01*
G01*
X14850000Y-6980800D02*
G75*
G02*
X14950000Y-6980800I50000J0D01*
G01*
X14850000Y-7184800D02*
X14950000Y-7284800D01*
X14950000Y-7184800D02*
X14850000Y-7284800D01*
X14950000Y-7234800D02*
G75*
G02*
X14850000Y-7234800I-50000J0D01*
G01*
X14850000Y-7234800D02*
G75*
G02*
X14950000Y-7234800I50000J0D01*
G01*
X14850000Y-7438800D02*
X14950000Y-7538800D01*
X14950000Y-7438800D02*
X14850000Y-7538800D01*
X14950000Y-7488800D02*
G75*
G02*
X14850000Y-7488800I-50000J0D01*
G01*
X14850000Y-7488800D02*
G75*
G02*
X14950000Y-7488800I50000J0D01*
G01*
X14850000Y-7692800D02*
X14950000Y-7792800D01*
X14950000Y-7692800D02*
X14850000Y-7792800D01*
X14950000Y-7742800D02*
G75*
G02*
X14850000Y-7742800I-50000J0D01*
G01*
X14850000Y-7742800D02*
G75*
G02*
X14950000Y-7742800I50000J0D01*
G01*
X14850000Y-7946800D02*
X14950000Y-8046800D01*
X14950000Y-7946800D02*
X14850000Y-8046800D01*
X14950000Y-7996800D02*
G75*
G02*
X14850000Y-7996800I-50000J0D01*
G01*
X14850000Y-7996800D02*
G75*
G02*
X14950000Y-7996800I50000J0D01*
G01*
X14850000Y-8200800D02*
X14950000Y-8300800D01*
X14950000Y-8200800D02*
X14850000Y-8300800D01*
X14950000Y-8250800D02*
G75*
G02*
X14850000Y-8250800I-50000J0D01*
G01*
X14850000Y-8250800D02*
G75*
G02*
X14950000Y-8250800I50000J0D01*
G01*
X14850000Y-8454800D02*
X14950000Y-8554800D01*
X14950000Y-8454800D02*
X14850000Y-8554800D01*
X14950000Y-8504800D02*
G75*
G02*
X14850000Y-8504800I-50000J0D01*
G01*
X14850000Y-8504800D02*
G75*
G02*
X14950000Y-8504800I50000J0D01*
G01*
X14850000Y-8708800D02*
X14950000Y-8808800D01*
X14950000Y-8708800D02*
X14850000Y-8808800D01*
X14950000Y-8758800D02*
G75*
G02*
X14850000Y-8758800I-50000J0D01*
G01*
X14850000Y-8758800D02*
G75*
G02*
X14950000Y-8758800I50000J0D01*
G01*
X14850000Y-8962800D02*
X14950000Y-9062800D01*
X14950000Y-8962800D02*
X14850000Y-9062800D01*
X14950000Y-9012800D02*
G75*
G02*
X14850000Y-9012800I-50000J0D01*
G01*
X14850000Y-9012800D02*
G75*
G02*
X14950000Y-9012800I50000J0D01*
G01*
X14850000Y-9216800D02*
X14950000Y-9316800D01*
X14950000Y-9216800D02*
X14850000Y-9316800D01*
X14950000Y-9266800D02*
G75*
G02*
X14850000Y-9266800I-50000J0D01*
G01*
X14850000Y-9266800D02*
G75*
G02*
X14950000Y-9266800I50000J0D01*
G01*
X14850000Y-9470800D02*
X14950000Y-9570800D01*
X14950000Y-9470800D02*
X14850000Y-9570800D01*
X14950000Y-9520800D02*
G75*
G02*
X14850000Y-9520800I-50000J0D01*
G01*
X14850000Y-9520800D02*
G75*
G02*
X14950000Y-9520800I50000J0D01*
G01*
X14850000Y-9724800D02*
X14950000Y-9824800D01*
X14950000Y-9724800D02*
X14850000Y-9824800D01*
X14950000Y-9774800D02*
G75*
G02*
X14850000Y-9774800I-50000J0D01*
G01*
X14850000Y-9774800D02*
G75*
G02*
X14950000Y-9774800I50000J0D01*
G01*
X14850000Y-9978800D02*
X14950000Y-10078800D01*
X14950000Y-9978800D02*
X14850000Y-10078800D01*
X14950000Y-10028800D02*
G75*
G02*
X14850000Y-10028800I-50000J0D01*
G01*
X14850000Y-10028800D02*
G75*
G02*
X14950000Y-10028800I50000J0D01*
G01*
X14850000Y-10232800D02*
X14950000Y-10332800D01*
X14950000Y-10232800D02*
X14850000Y-10332800D01*
X14950000Y-10282800D02*
G75*
G02*
X14850000Y-10282800I-50000J0D01*
G01*
X14850000Y-10282800D02*
G75*
G02*
X14950000Y-10282800I50000J0D01*
G01*
X16374000Y-6676800D02*
X16474000Y-6776800D01*
X16474000Y-6676800D02*
X16374000Y-6776800D01*
X16474000Y-6726800D02*
G75*
G02*
X16374000Y-6726800I-50000J0D01*
G01*
X16374000Y-6726800D02*
G75*
G02*
X16474000Y-6726800I50000J0D01*
G01*
X16374000Y-6930800D02*
X16474000Y-7030800D01*
X16474000Y-6930800D02*
X16374000Y-7030800D01*
X16474000Y-6980800D02*
G75*
G02*
X16374000Y-6980800I-50000J0D01*
G01*
X16374000Y-6980800D02*
G75*
G02*
X16474000Y-6980800I50000J0D01*
G01*
X16374000Y-7184800D02*
X16474000Y-7284800D01*
X16474000Y-7184800D02*
X16374000Y-7284800D01*
X16474000Y-7234800D02*
G75*
G02*
X16374000Y-7234800I-50000J0D01*
G01*
X16374000Y-7234800D02*
G75*
G02*
X16474000Y-7234800I50000J0D01*
G01*
X16374000Y-7438800D02*
X16474000Y-7538800D01*
X16474000Y-7438800D02*
X16374000Y-7538800D01*
X16474000Y-7488800D02*
G75*
G02*
X16374000Y-7488800I-50000J0D01*
G01*
X16374000Y-7488800D02*
G75*
G02*
X16474000Y-7488800I50000J0D01*
G01*
X16374000Y-7692800D02*
X16474000Y-7792800D01*
X16474000Y-7692800D02*
X16374000Y-7792800D01*
X16474000Y-7742800D02*
G75*
G02*
X16374000Y-7742800I-50000J0D01*
G01*
X16374000Y-7742800D02*
G75*
G02*
X16474000Y-7742800I50000J0D01*
G01*
X16374000Y-7946800D02*
X16474000Y-8046800D01*
X16474000Y-7946800D02*
X16374000Y-8046800D01*
X16474000Y-7996800D02*
G75*
G02*
X16374000Y-7996800I-50000J0D01*
G01*
X16374000Y-7996800D02*
G75*
G02*
X16474000Y-7996800I50000J0D01*
G01*
X16374000Y-8200800D02*
X16474000Y-8300800D01*
X16474000Y-8200800D02*
X16374000Y-8300800D01*
X16474000Y-8250800D02*
G75*
G02*
X16374000Y-8250800I-50000J0D01*
G01*
X16374000Y-8250800D02*
G75*
G02*
X16474000Y-8250800I50000J0D01*
G01*
X16374000Y-8454800D02*
X16474000Y-8554800D01*
X16474000Y-8454800D02*
X16374000Y-8554800D01*
X16474000Y-8504800D02*
G75*
G02*
X16374000Y-8504800I-50000J0D01*
G01*
X16374000Y-8504800D02*
G75*
G02*
X16474000Y-8504800I50000J0D01*
G01*
X16374000Y-8708800D02*
X16474000Y-8808800D01*
X16474000Y-8708800D02*
X16374000Y-8808800D01*
X16474000Y-8758800D02*
G75*
G02*
X16374000Y-8758800I-50000J0D01*
G01*
X16374000Y-8758800D02*
G75*
G02*
X16474000Y-8758800I50000J0D01*
G01*
X16374000Y-8962800D02*
X16474000Y-9062800D01*
X16474000Y-8962800D02*
X16374000Y-9062800D01*
X16474000Y-9012800D02*
G75*
G02*
X16374000Y-9012800I-50000J0D01*
G01*
X16374000Y-9012800D02*
G75*
G02*
X16474000Y-9012800I50000J0D01*
G01*
X16374000Y-9216800D02*
X16474000Y-9316800D01*
X16474000Y-9216800D02*
X16374000Y-9316800D01*
X16474000Y-9266800D02*
G75*
G02*
X16374000Y-9266800I-50000J0D01*
G01*
X16374000Y-9266800D02*
G75*
G02*
X16474000Y-9266800I50000J0D01*
G01*
X16374000Y-9470800D02*
X16474000Y-9570800D01*
X16474000Y-9470800D02*
X16374000Y-9570800D01*
X16474000Y-9520800D02*
G75*
G02*
X16374000Y-9520800I-50000J0D01*
G01*
X16374000Y-9520800D02*
G75*
G02*
X16474000Y-9520800I50000J0D01*
G01*
X16374000Y-9724800D02*
X16474000Y-9824800D01*
X16474000Y-9724800D02*
X16374000Y-9824800D01*
X16474000Y-9774800D02*
G75*
G02*
X16374000Y-9774800I-50000J0D01*
G01*
X16374000Y-9774800D02*
G75*
G02*
X16474000Y-9774800I50000J0D01*
G01*
X16374000Y-9978800D02*
X16474000Y-10078800D01*
X16474000Y-9978800D02*
X16374000Y-10078800D01*
X16474000Y-10028800D02*
G75*
G02*
X16374000Y-10028800I-50000J0D01*
G01*
X16374000Y-10028800D02*
G75*
G02*
X16474000Y-10028800I50000J0D01*
G01*
X16374000Y-10232800D02*
X16474000Y-10332800D01*
X16474000Y-10232800D02*
X16374000Y-10332800D01*
X16474000Y-10282800D02*
G75*
G02*
X16374000Y-10282800I-50000J0D01*
G01*
X16374000Y-10282800D02*
G75*
G02*
X16474000Y-10282800I50000J0D01*
G01*
D10*
X14550777Y-11521484D02*
X14550777Y-11321484D01*
X14550777Y-11321484D02*
X14598396Y-11321484D01*
X14598396Y-11321484D02*
X14626967Y-11331008D01*
X14626967Y-11331008D02*
X14646015Y-11350055D01*
X14646015Y-11350055D02*
X14655539Y-11369103D01*
X14655539Y-11369103D02*
X14665062Y-11407198D01*
X14665062Y-11407198D02*
X14665062Y-11435769D01*
X14665062Y-11435769D02*
X14655539Y-11473865D01*
X14655539Y-11473865D02*
X14646015Y-11492912D01*
X14646015Y-11492912D02*
X14626967Y-11511960D01*
X14626967Y-11511960D02*
X14598396Y-11521484D01*
X14598396Y-11521484D02*
X14550777Y-11521484D01*
X14750777Y-11521484D02*
X14750777Y-11388150D01*
X14750777Y-11426246D02*
X14760301Y-11407198D01*
X14760301Y-11407198D02*
X14769824Y-11397674D01*
X14769824Y-11397674D02*
X14788872Y-11388150D01*
X14788872Y-11388150D02*
X14807920Y-11388150D01*
X14874586Y-11521484D02*
X14874586Y-11388150D01*
X14874586Y-11321484D02*
X14865062Y-11331008D01*
X14865062Y-11331008D02*
X14874586Y-11340531D01*
X14874586Y-11340531D02*
X14884110Y-11331008D01*
X14884110Y-11331008D02*
X14874586Y-11321484D01*
X14874586Y-11321484D02*
X14874586Y-11340531D01*
X14998396Y-11521484D02*
X14979348Y-11511960D01*
X14979348Y-11511960D02*
X14969824Y-11492912D01*
X14969824Y-11492912D02*
X14969824Y-11321484D01*
X15103158Y-11521484D02*
X15084110Y-11511960D01*
X15084110Y-11511960D02*
X15074586Y-11492912D01*
X15074586Y-11492912D02*
X15074586Y-11321484D01*
X15331729Y-11521484D02*
X15331729Y-11321484D01*
X15331729Y-11321484D02*
X15398396Y-11464341D01*
X15398396Y-11464341D02*
X15465062Y-11321484D01*
X15465062Y-11321484D02*
X15465062Y-11521484D01*
X15646015Y-11521484D02*
X15646015Y-11416722D01*
X15646015Y-11416722D02*
X15636491Y-11397674D01*
X15636491Y-11397674D02*
X15617443Y-11388150D01*
X15617443Y-11388150D02*
X15579348Y-11388150D01*
X15579348Y-11388150D02*
X15560301Y-11397674D01*
X15646015Y-11511960D02*
X15626967Y-11521484D01*
X15626967Y-11521484D02*
X15579348Y-11521484D01*
X15579348Y-11521484D02*
X15560301Y-11511960D01*
X15560301Y-11511960D02*
X15550777Y-11492912D01*
X15550777Y-11492912D02*
X15550777Y-11473865D01*
X15550777Y-11473865D02*
X15560301Y-11454817D01*
X15560301Y-11454817D02*
X15579348Y-11445293D01*
X15579348Y-11445293D02*
X15626967Y-11445293D01*
X15626967Y-11445293D02*
X15646015Y-11435769D01*
X15741253Y-11388150D02*
X15741253Y-11588150D01*
X15741253Y-11397674D02*
X15760301Y-11388150D01*
X15760301Y-11388150D02*
X15798396Y-11388150D01*
X15798396Y-11388150D02*
X15817443Y-11397674D01*
X15817443Y-11397674D02*
X15826967Y-11407198D01*
X15826967Y-11407198D02*
X15836491Y-11426246D01*
X15836491Y-11426246D02*
X15836491Y-11483388D01*
X15836491Y-11483388D02*
X15826967Y-11502436D01*
X15826967Y-11502436D02*
X15817443Y-11511960D01*
X15817443Y-11511960D02*
X15798396Y-11521484D01*
X15798396Y-11521484D02*
X15760301Y-11521484D01*
X15760301Y-11521484D02*
X15741253Y-11511960D01*
X15922205Y-11502436D02*
X15931729Y-11511960D01*
X15931729Y-11511960D02*
X15922205Y-11521484D01*
X15922205Y-11521484D02*
X15912682Y-11511960D01*
X15912682Y-11511960D02*
X15922205Y-11502436D01*
X15922205Y-11502436D02*
X15922205Y-11521484D01*
X15922205Y-11397674D02*
X15931729Y-11407198D01*
X15931729Y-11407198D02*
X15922205Y-11416722D01*
X15922205Y-11416722D02*
X15912682Y-11407198D01*
X15912682Y-11407198D02*
X15922205Y-11397674D01*
X15922205Y-11397674D02*
X15922205Y-11416722D01*
D11*
X14210000Y-11810000D02*
X14290000Y-11890000D01*
X14290000Y-11810000D02*
X14210000Y-11890000D01*
D10*
X14588872Y-11741484D02*
X14607920Y-11741484D01*
X14607920Y-11741484D02*
X14626967Y-11751008D01*
X14626967Y-11751008D02*
X14636491Y-11760531D01*
X14636491Y-11760531D02*
X14646015Y-11779579D01*
X14646015Y-11779579D02*
X14655539Y-11817674D01*
X14655539Y-11817674D02*
X14655539Y-11865293D01*
X14655539Y-11865293D02*
X14646015Y-11903388D01*
X14646015Y-11903388D02*
X14636491Y-11922436D01*
X14636491Y-11922436D02*
X14626967Y-11931960D01*
X14626967Y-11931960D02*
X14607920Y-11941484D01*
X14607920Y-11941484D02*
X14588872Y-11941484D01*
X14588872Y-11941484D02*
X14569824Y-11931960D01*
X14569824Y-11931960D02*
X14560301Y-11922436D01*
X14560301Y-11922436D02*
X14550777Y-11903388D01*
X14550777Y-11903388D02*
X14541253Y-11865293D01*
X14541253Y-11865293D02*
X14541253Y-11817674D01*
X14541253Y-11817674D02*
X14550777Y-11779579D01*
X14550777Y-11779579D02*
X14560301Y-11760531D01*
X14560301Y-11760531D02*
X14569824Y-11751008D01*
X14569824Y-11751008D02*
X14588872Y-11741484D01*
X14741253Y-11922436D02*
X14750777Y-11931960D01*
X14750777Y-11931960D02*
X14741253Y-11941484D01*
X14741253Y-11941484D02*
X14731729Y-11931960D01*
X14731729Y-11931960D02*
X14741253Y-11922436D01*
X14741253Y-11922436D02*
X14741253Y-11941484D01*
X14865062Y-11827198D02*
X14846015Y-11817674D01*
X14846015Y-11817674D02*
X14836491Y-11808150D01*
X14836491Y-11808150D02*
X14826967Y-11789103D01*
X14826967Y-11789103D02*
X14826967Y-11779579D01*
X14826967Y-11779579D02*
X14836491Y-11760531D01*
X14836491Y-11760531D02*
X14846015Y-11751008D01*
X14846015Y-11751008D02*
X14865062Y-11741484D01*
X14865062Y-11741484D02*
X14903158Y-11741484D01*
X14903158Y-11741484D02*
X14922205Y-11751008D01*
X14922205Y-11751008D02*
X14931729Y-11760531D01*
X14931729Y-11760531D02*
X14941253Y-11779579D01*
X14941253Y-11779579D02*
X14941253Y-11789103D01*
X14941253Y-11789103D02*
X14931729Y-11808150D01*
X14931729Y-11808150D02*
X14922205Y-11817674D01*
X14922205Y-11817674D02*
X14903158Y-11827198D01*
X14903158Y-11827198D02*
X14865062Y-11827198D01*
X14865062Y-11827198D02*
X14846015Y-11836722D01*
X14846015Y-11836722D02*
X14836491Y-11846246D01*
X14836491Y-11846246D02*
X14826967Y-11865293D01*
X14826967Y-11865293D02*
X14826967Y-11903388D01*
X14826967Y-11903388D02*
X14836491Y-11922436D01*
X14836491Y-11922436D02*
X14846015Y-11931960D01*
X14846015Y-11931960D02*
X14865062Y-11941484D01*
X14865062Y-11941484D02*
X14903158Y-11941484D01*
X14903158Y-11941484D02*
X14922205Y-11931960D01*
X14922205Y-11931960D02*
X14931729Y-11922436D01*
X14931729Y-11922436D02*
X14941253Y-11903388D01*
X14941253Y-11903388D02*
X14941253Y-11865293D01*
X14941253Y-11865293D02*
X14931729Y-11846246D01*
X14931729Y-11846246D02*
X14922205Y-11836722D01*
X14922205Y-11836722D02*
X14903158Y-11827198D01*
X15065062Y-11741484D02*
X15084110Y-11741484D01*
X15084110Y-11741484D02*
X15103158Y-11751008D01*
X15103158Y-11751008D02*
X15112682Y-11760531D01*
X15112682Y-11760531D02*
X15122205Y-11779579D01*
X15122205Y-11779579D02*
X15131729Y-11817674D01*
X15131729Y-11817674D02*
X15131729Y-11865293D01*
X15131729Y-11865293D02*
X15122205Y-11903388D01*
X15122205Y-11903388D02*
X15112682Y-11922436D01*
X15112682Y-11922436D02*
X15103158Y-11931960D01*
X15103158Y-11931960D02*
X15084110Y-11941484D01*
X15084110Y-11941484D02*
X15065062Y-11941484D01*
X15065062Y-11941484D02*
X15046015Y-11931960D01*
X15046015Y-11931960D02*
X15036491Y-11922436D01*
X15036491Y-11922436D02*
X15026967Y-11903388D01*
X15026967Y-11903388D02*
X15017443Y-11865293D01*
X15017443Y-11865293D02*
X15017443Y-11817674D01*
X15017443Y-11817674D02*
X15026967Y-11779579D01*
X15026967Y-11779579D02*
X15036491Y-11760531D01*
X15036491Y-11760531D02*
X15046015Y-11751008D01*
X15046015Y-11751008D02*
X15065062Y-11741484D01*
X15255539Y-11741484D02*
X15274586Y-11741484D01*
X15274586Y-11741484D02*
X15293634Y-11751008D01*
X15293634Y-11751008D02*
X15303158Y-11760531D01*
X15303158Y-11760531D02*
X15312682Y-11779579D01*
X15312682Y-11779579D02*
X15322205Y-11817674D01*
X15322205Y-11817674D02*
X15322205Y-11865293D01*
X15322205Y-11865293D02*
X15312682Y-11903388D01*
X15312682Y-11903388D02*
X15303158Y-11922436D01*
X15303158Y-11922436D02*
X15293634Y-11931960D01*
X15293634Y-11931960D02*
X15274586Y-11941484D01*
X15274586Y-11941484D02*
X15255539Y-11941484D01*
X15255539Y-11941484D02*
X15236491Y-11931960D01*
X15236491Y-11931960D02*
X15226967Y-11922436D01*
X15226967Y-11922436D02*
X15217443Y-11903388D01*
X15217443Y-11903388D02*
X15207920Y-11865293D01*
X15207920Y-11865293D02*
X15207920Y-11817674D01*
X15207920Y-11817674D02*
X15217443Y-11779579D01*
X15217443Y-11779579D02*
X15226967Y-11760531D01*
X15226967Y-11760531D02*
X15236491Y-11751008D01*
X15236491Y-11751008D02*
X15255539Y-11741484D01*
X15407920Y-11941484D02*
X15407920Y-11808150D01*
X15407920Y-11827198D02*
X15417443Y-11817674D01*
X15417443Y-11817674D02*
X15436491Y-11808150D01*
X15436491Y-11808150D02*
X15465063Y-11808150D01*
X15465063Y-11808150D02*
X15484110Y-11817674D01*
X15484110Y-11817674D02*
X15493634Y-11836722D01*
X15493634Y-11836722D02*
X15493634Y-11941484D01*
X15493634Y-11836722D02*
X15503158Y-11817674D01*
X15503158Y-11817674D02*
X15522205Y-11808150D01*
X15522205Y-11808150D02*
X15550777Y-11808150D01*
X15550777Y-11808150D02*
X15569824Y-11817674D01*
X15569824Y-11817674D02*
X15579348Y-11836722D01*
X15579348Y-11836722D02*
X15579348Y-11941484D01*
X15674586Y-11941484D02*
X15674586Y-11808150D01*
X15674586Y-11827198D02*
X15684110Y-11817674D01*
X15684110Y-11817674D02*
X15703158Y-11808150D01*
X15703158Y-11808150D02*
X15731729Y-11808150D01*
X15731729Y-11808150D02*
X15750777Y-11817674D01*
X15750777Y-11817674D02*
X15760301Y-11836722D01*
X15760301Y-11836722D02*
X15760301Y-11941484D01*
X15760301Y-11836722D02*
X15769824Y-11817674D01*
X15769824Y-11817674D02*
X15788872Y-11808150D01*
X15788872Y-11808150D02*
X15817443Y-11808150D01*
X15817443Y-11808150D02*
X15836491Y-11817674D01*
X15836491Y-11817674D02*
X15846015Y-11836722D01*
X15846015Y-11836722D02*
X15846015Y-11941484D01*
X16236491Y-11731960D02*
X16065063Y-11989103D01*
X16493634Y-11741484D02*
X16512682Y-11741484D01*
X16512682Y-11741484D02*
X16531729Y-11751008D01*
X16531729Y-11751008D02*
X16541253Y-11760531D01*
X16541253Y-11760531D02*
X16550777Y-11779579D01*
X16550777Y-11779579D02*
X16560301Y-11817674D01*
X16560301Y-11817674D02*
X16560301Y-11865293D01*
X16560301Y-11865293D02*
X16550777Y-11903388D01*
X16550777Y-11903388D02*
X16541253Y-11922436D01*
X16541253Y-11922436D02*
X16531729Y-11931960D01*
X16531729Y-11931960D02*
X16512682Y-11941484D01*
X16512682Y-11941484D02*
X16493634Y-11941484D01*
X16493634Y-11941484D02*
X16474586Y-11931960D01*
X16474586Y-11931960D02*
X16465063Y-11922436D01*
X16465063Y-11922436D02*
X16455539Y-11903388D01*
X16455539Y-11903388D02*
X16446015Y-11865293D01*
X16446015Y-11865293D02*
X16446015Y-11817674D01*
X16446015Y-11817674D02*
X16455539Y-11779579D01*
X16455539Y-11779579D02*
X16465063Y-11760531D01*
X16465063Y-11760531D02*
X16474586Y-11751008D01*
X16474586Y-11751008D02*
X16493634Y-11741484D01*
X16646015Y-11922436D02*
X16655539Y-11931960D01*
X16655539Y-11931960D02*
X16646015Y-11941484D01*
X16646015Y-11941484D02*
X16636491Y-11931960D01*
X16636491Y-11931960D02*
X16646015Y-11922436D01*
X16646015Y-11922436D02*
X16646015Y-11941484D01*
X16779348Y-11741484D02*
X16798396Y-11741484D01*
X16798396Y-11741484D02*
X16817444Y-11751008D01*
X16817444Y-11751008D02*
X16826968Y-11760531D01*
X16826968Y-11760531D02*
X16836491Y-11779579D01*
X16836491Y-11779579D02*
X16846015Y-11817674D01*
X16846015Y-11817674D02*
X16846015Y-11865293D01*
X16846015Y-11865293D02*
X16836491Y-11903388D01*
X16836491Y-11903388D02*
X16826968Y-11922436D01*
X16826968Y-11922436D02*
X16817444Y-11931960D01*
X16817444Y-11931960D02*
X16798396Y-11941484D01*
X16798396Y-11941484D02*
X16779348Y-11941484D01*
X16779348Y-11941484D02*
X16760301Y-11931960D01*
X16760301Y-11931960D02*
X16750777Y-11922436D01*
X16750777Y-11922436D02*
X16741253Y-11903388D01*
X16741253Y-11903388D02*
X16731729Y-11865293D01*
X16731729Y-11865293D02*
X16731729Y-11817674D01*
X16731729Y-11817674D02*
X16741253Y-11779579D01*
X16741253Y-11779579D02*
X16750777Y-11760531D01*
X16750777Y-11760531D02*
X16760301Y-11751008D01*
X16760301Y-11751008D02*
X16779348Y-11741484D01*
X16912682Y-11741484D02*
X17036491Y-11741484D01*
X17036491Y-11741484D02*
X16969825Y-11817674D01*
X16969825Y-11817674D02*
X16998396Y-11817674D01*
X16998396Y-11817674D02*
X17017444Y-11827198D01*
X17017444Y-11827198D02*
X17026968Y-11836722D01*
X17026968Y-11836722D02*
X17036491Y-11855769D01*
X17036491Y-11855769D02*
X17036491Y-11903388D01*
X17036491Y-11903388D02*
X17026968Y-11922436D01*
X17026968Y-11922436D02*
X17017444Y-11931960D01*
X17017444Y-11931960D02*
X16998396Y-11941484D01*
X16998396Y-11941484D02*
X16941253Y-11941484D01*
X16941253Y-11941484D02*
X16922206Y-11931960D01*
X16922206Y-11931960D02*
X16912682Y-11922436D01*
X17226968Y-11941484D02*
X17112682Y-11941484D01*
X17169825Y-11941484D02*
X17169825Y-11741484D01*
X17169825Y-11741484D02*
X17150777Y-11770055D01*
X17150777Y-11770055D02*
X17131729Y-11789103D01*
X17131729Y-11789103D02*
X17112682Y-11798627D01*
X17407920Y-11741484D02*
X17312682Y-11741484D01*
X17312682Y-11741484D02*
X17303158Y-11836722D01*
X17303158Y-11836722D02*
X17312682Y-11827198D01*
X17312682Y-11827198D02*
X17331729Y-11817674D01*
X17331729Y-11817674D02*
X17379349Y-11817674D01*
X17379349Y-11817674D02*
X17398396Y-11827198D01*
X17398396Y-11827198D02*
X17407920Y-11836722D01*
X17407920Y-11836722D02*
X17417444Y-11855769D01*
X17417444Y-11855769D02*
X17417444Y-11903388D01*
X17417444Y-11903388D02*
X17407920Y-11922436D01*
X17407920Y-11922436D02*
X17398396Y-11931960D01*
X17398396Y-11931960D02*
X17379349Y-11941484D01*
X17379349Y-11941484D02*
X17331729Y-11941484D01*
X17331729Y-11941484D02*
X17312682Y-11931960D01*
X17312682Y-11931960D02*
X17303158Y-11922436D01*
X17493634Y-11741484D02*
X17493634Y-11779579D01*
X17569825Y-11741484D02*
X17569825Y-11779579D01*
X17865063Y-12017674D02*
X17855539Y-12008150D01*
X17855539Y-12008150D02*
X17836491Y-11979579D01*
X17836491Y-11979579D02*
X17826968Y-11960531D01*
X17826968Y-11960531D02*
X17817444Y-11931960D01*
X17817444Y-11931960D02*
X17807920Y-11884341D01*
X17807920Y-11884341D02*
X17807920Y-11846246D01*
X17807920Y-11846246D02*
X17817444Y-11798627D01*
X17817444Y-11798627D02*
X17826968Y-11770055D01*
X17826968Y-11770055D02*
X17836491Y-11751008D01*
X17836491Y-11751008D02*
X17855539Y-11722436D01*
X17855539Y-11722436D02*
X17865063Y-11712912D01*
X18046015Y-11941484D02*
X17931730Y-11941484D01*
X17988872Y-11941484D02*
X17988872Y-11741484D01*
X17988872Y-11741484D02*
X17969825Y-11770055D01*
X17969825Y-11770055D02*
X17950777Y-11789103D01*
X17950777Y-11789103D02*
X17931730Y-11798627D01*
X18122206Y-11760531D02*
X18131730Y-11751008D01*
X18131730Y-11751008D02*
X18150777Y-11741484D01*
X18150777Y-11741484D02*
X18198396Y-11741484D01*
X18198396Y-11741484D02*
X18217444Y-11751008D01*
X18217444Y-11751008D02*
X18226968Y-11760531D01*
X18226968Y-11760531D02*
X18236491Y-11779579D01*
X18236491Y-11779579D02*
X18236491Y-11798627D01*
X18236491Y-11798627D02*
X18226968Y-11827198D01*
X18226968Y-11827198D02*
X18112682Y-11941484D01*
X18112682Y-11941484D02*
X18236491Y-11941484D01*
X18474587Y-11941484D02*
X18474587Y-11741484D01*
X18560301Y-11941484D02*
X18560301Y-11836722D01*
X18560301Y-11836722D02*
X18550777Y-11817674D01*
X18550777Y-11817674D02*
X18531730Y-11808150D01*
X18531730Y-11808150D02*
X18503158Y-11808150D01*
X18503158Y-11808150D02*
X18484111Y-11817674D01*
X18484111Y-11817674D02*
X18474587Y-11827198D01*
X18684111Y-11941484D02*
X18665063Y-11931960D01*
X18665063Y-11931960D02*
X18655539Y-11922436D01*
X18655539Y-11922436D02*
X18646015Y-11903388D01*
X18646015Y-11903388D02*
X18646015Y-11846246D01*
X18646015Y-11846246D02*
X18655539Y-11827198D01*
X18655539Y-11827198D02*
X18665063Y-11817674D01*
X18665063Y-11817674D02*
X18684111Y-11808150D01*
X18684111Y-11808150D02*
X18712682Y-11808150D01*
X18712682Y-11808150D02*
X18731730Y-11817674D01*
X18731730Y-11817674D02*
X18741253Y-11827198D01*
X18741253Y-11827198D02*
X18750777Y-11846246D01*
X18750777Y-11846246D02*
X18750777Y-11903388D01*
X18750777Y-11903388D02*
X18741253Y-11922436D01*
X18741253Y-11922436D02*
X18731730Y-11931960D01*
X18731730Y-11931960D02*
X18712682Y-11941484D01*
X18712682Y-11941484D02*
X18684111Y-11941484D01*
X18865063Y-11941484D02*
X18846015Y-11931960D01*
X18846015Y-11931960D02*
X18836492Y-11912912D01*
X18836492Y-11912912D02*
X18836492Y-11741484D01*
X19017444Y-11931960D02*
X18998396Y-11941484D01*
X18998396Y-11941484D02*
X18960301Y-11941484D01*
X18960301Y-11941484D02*
X18941253Y-11931960D01*
X18941253Y-11931960D02*
X18931730Y-11912912D01*
X18931730Y-11912912D02*
X18931730Y-11836722D01*
X18931730Y-11836722D02*
X18941253Y-11817674D01*
X18941253Y-11817674D02*
X18960301Y-11808150D01*
X18960301Y-11808150D02*
X18998396Y-11808150D01*
X18998396Y-11808150D02*
X19017444Y-11817674D01*
X19017444Y-11817674D02*
X19026968Y-11836722D01*
X19026968Y-11836722D02*
X19026968Y-11855769D01*
X19026968Y-11855769D02*
X18931730Y-11874817D01*
X19103158Y-11931960D02*
X19122206Y-11941484D01*
X19122206Y-11941484D02*
X19160301Y-11941484D01*
X19160301Y-11941484D02*
X19179349Y-11931960D01*
X19179349Y-11931960D02*
X19188873Y-11912912D01*
X19188873Y-11912912D02*
X19188873Y-11903388D01*
X19188873Y-11903388D02*
X19179349Y-11884341D01*
X19179349Y-11884341D02*
X19160301Y-11874817D01*
X19160301Y-11874817D02*
X19131730Y-11874817D01*
X19131730Y-11874817D02*
X19112682Y-11865293D01*
X19112682Y-11865293D02*
X19103158Y-11846246D01*
X19103158Y-11846246D02*
X19103158Y-11836722D01*
X19103158Y-11836722D02*
X19112682Y-11817674D01*
X19112682Y-11817674D02*
X19131730Y-11808150D01*
X19131730Y-11808150D02*
X19160301Y-11808150D01*
X19160301Y-11808150D02*
X19179349Y-11817674D01*
X19255539Y-12017674D02*
X19265063Y-12008150D01*
X19265063Y-12008150D02*
X19284111Y-11979579D01*
X19284111Y-11979579D02*
X19293634Y-11960531D01*
X19293634Y-11960531D02*
X19303158Y-11931960D01*
X19303158Y-11931960D02*
X19312682Y-11884341D01*
X19312682Y-11884341D02*
X19312682Y-11846246D01*
X19312682Y-11846246D02*
X19303158Y-11798627D01*
X19303158Y-11798627D02*
X19293634Y-11770055D01*
X19293634Y-11770055D02*
X19284111Y-11751008D01*
X19284111Y-11751008D02*
X19265063Y-11722436D01*
X19265063Y-11722436D02*
X19255539Y-11712912D01*
D11*
X14290000Y-12114000D02*
G75*
G02*
X14210000Y-12114000I-40000J0D01*
G01*
X14210000Y-12114000D02*
G75*
G02*
X14290000Y-12114000I40000J0D01*
G01*
D10*
X14588872Y-12005484D02*
X14607920Y-12005484D01*
X14607920Y-12005484D02*
X14626967Y-12015008D01*
X14626967Y-12015008D02*
X14636491Y-12024531D01*
X14636491Y-12024531D02*
X14646015Y-12043579D01*
X14646015Y-12043579D02*
X14655539Y-12081674D01*
X14655539Y-12081674D02*
X14655539Y-12129293D01*
X14655539Y-12129293D02*
X14646015Y-12167388D01*
X14646015Y-12167388D02*
X14636491Y-12186436D01*
X14636491Y-12186436D02*
X14626967Y-12195960D01*
X14626967Y-12195960D02*
X14607920Y-12205484D01*
X14607920Y-12205484D02*
X14588872Y-12205484D01*
X14588872Y-12205484D02*
X14569824Y-12195960D01*
X14569824Y-12195960D02*
X14560301Y-12186436D01*
X14560301Y-12186436D02*
X14550777Y-12167388D01*
X14550777Y-12167388D02*
X14541253Y-12129293D01*
X14541253Y-12129293D02*
X14541253Y-12081674D01*
X14541253Y-12081674D02*
X14550777Y-12043579D01*
X14550777Y-12043579D02*
X14560301Y-12024531D01*
X14560301Y-12024531D02*
X14569824Y-12015008D01*
X14569824Y-12015008D02*
X14588872Y-12005484D01*
X14741253Y-12186436D02*
X14750777Y-12195960D01*
X14750777Y-12195960D02*
X14741253Y-12205484D01*
X14741253Y-12205484D02*
X14731729Y-12195960D01*
X14731729Y-12195960D02*
X14741253Y-12186436D01*
X14741253Y-12186436D02*
X14741253Y-12205484D01*
X14865062Y-12091198D02*
X14846015Y-12081674D01*
X14846015Y-12081674D02*
X14836491Y-12072150D01*
X14836491Y-12072150D02*
X14826967Y-12053103D01*
X14826967Y-12053103D02*
X14826967Y-12043579D01*
X14826967Y-12043579D02*
X14836491Y-12024531D01*
X14836491Y-12024531D02*
X14846015Y-12015008D01*
X14846015Y-12015008D02*
X14865062Y-12005484D01*
X14865062Y-12005484D02*
X14903158Y-12005484D01*
X14903158Y-12005484D02*
X14922205Y-12015008D01*
X14922205Y-12015008D02*
X14931729Y-12024531D01*
X14931729Y-12024531D02*
X14941253Y-12043579D01*
X14941253Y-12043579D02*
X14941253Y-12053103D01*
X14941253Y-12053103D02*
X14931729Y-12072150D01*
X14931729Y-12072150D02*
X14922205Y-12081674D01*
X14922205Y-12081674D02*
X14903158Y-12091198D01*
X14903158Y-12091198D02*
X14865062Y-12091198D01*
X14865062Y-12091198D02*
X14846015Y-12100722D01*
X14846015Y-12100722D02*
X14836491Y-12110246D01*
X14836491Y-12110246D02*
X14826967Y-12129293D01*
X14826967Y-12129293D02*
X14826967Y-12167388D01*
X14826967Y-12167388D02*
X14836491Y-12186436D01*
X14836491Y-12186436D02*
X14846015Y-12195960D01*
X14846015Y-12195960D02*
X14865062Y-12205484D01*
X14865062Y-12205484D02*
X14903158Y-12205484D01*
X14903158Y-12205484D02*
X14922205Y-12195960D01*
X14922205Y-12195960D02*
X14931729Y-12186436D01*
X14931729Y-12186436D02*
X14941253Y-12167388D01*
X14941253Y-12167388D02*
X14941253Y-12129293D01*
X14941253Y-12129293D02*
X14931729Y-12110246D01*
X14931729Y-12110246D02*
X14922205Y-12100722D01*
X14922205Y-12100722D02*
X14903158Y-12091198D01*
X15065062Y-12005484D02*
X15084110Y-12005484D01*
X15084110Y-12005484D02*
X15103158Y-12015008D01*
X15103158Y-12015008D02*
X15112682Y-12024531D01*
X15112682Y-12024531D02*
X15122205Y-12043579D01*
X15122205Y-12043579D02*
X15131729Y-12081674D01*
X15131729Y-12081674D02*
X15131729Y-12129293D01*
X15131729Y-12129293D02*
X15122205Y-12167388D01*
X15122205Y-12167388D02*
X15112682Y-12186436D01*
X15112682Y-12186436D02*
X15103158Y-12195960D01*
X15103158Y-12195960D02*
X15084110Y-12205484D01*
X15084110Y-12205484D02*
X15065062Y-12205484D01*
X15065062Y-12205484D02*
X15046015Y-12195960D01*
X15046015Y-12195960D02*
X15036491Y-12186436D01*
X15036491Y-12186436D02*
X15026967Y-12167388D01*
X15026967Y-12167388D02*
X15017443Y-12129293D01*
X15017443Y-12129293D02*
X15017443Y-12081674D01*
X15017443Y-12081674D02*
X15026967Y-12043579D01*
X15026967Y-12043579D02*
X15036491Y-12024531D01*
X15036491Y-12024531D02*
X15046015Y-12015008D01*
X15046015Y-12015008D02*
X15065062Y-12005484D01*
X15255539Y-12005484D02*
X15274586Y-12005484D01*
X15274586Y-12005484D02*
X15293634Y-12015008D01*
X15293634Y-12015008D02*
X15303158Y-12024531D01*
X15303158Y-12024531D02*
X15312682Y-12043579D01*
X15312682Y-12043579D02*
X15322205Y-12081674D01*
X15322205Y-12081674D02*
X15322205Y-12129293D01*
X15322205Y-12129293D02*
X15312682Y-12167388D01*
X15312682Y-12167388D02*
X15303158Y-12186436D01*
X15303158Y-12186436D02*
X15293634Y-12195960D01*
X15293634Y-12195960D02*
X15274586Y-12205484D01*
X15274586Y-12205484D02*
X15255539Y-12205484D01*
X15255539Y-12205484D02*
X15236491Y-12195960D01*
X15236491Y-12195960D02*
X15226967Y-12186436D01*
X15226967Y-12186436D02*
X15217443Y-12167388D01*
X15217443Y-12167388D02*
X15207920Y-12129293D01*
X15207920Y-12129293D02*
X15207920Y-12081674D01*
X15207920Y-12081674D02*
X15217443Y-12043579D01*
X15217443Y-12043579D02*
X15226967Y-12024531D01*
X15226967Y-12024531D02*
X15236491Y-12015008D01*
X15236491Y-12015008D02*
X15255539Y-12005484D01*
X15407920Y-12205484D02*
X15407920Y-12072150D01*
X15407920Y-12091198D02*
X15417443Y-12081674D01*
X15417443Y-12081674D02*
X15436491Y-12072150D01*
X15436491Y-12072150D02*
X15465063Y-12072150D01*
X15465063Y-12072150D02*
X15484110Y-12081674D01*
X15484110Y-12081674D02*
X15493634Y-12100722D01*
X15493634Y-12100722D02*
X15493634Y-12205484D01*
X15493634Y-12100722D02*
X15503158Y-12081674D01*
X15503158Y-12081674D02*
X15522205Y-12072150D01*
X15522205Y-12072150D02*
X15550777Y-12072150D01*
X15550777Y-12072150D02*
X15569824Y-12081674D01*
X15569824Y-12081674D02*
X15579348Y-12100722D01*
X15579348Y-12100722D02*
X15579348Y-12205484D01*
X15674586Y-12205484D02*
X15674586Y-12072150D01*
X15674586Y-12091198D02*
X15684110Y-12081674D01*
X15684110Y-12081674D02*
X15703158Y-12072150D01*
X15703158Y-12072150D02*
X15731729Y-12072150D01*
X15731729Y-12072150D02*
X15750777Y-12081674D01*
X15750777Y-12081674D02*
X15760301Y-12100722D01*
X15760301Y-12100722D02*
X15760301Y-12205484D01*
X15760301Y-12100722D02*
X15769824Y-12081674D01*
X15769824Y-12081674D02*
X15788872Y-12072150D01*
X15788872Y-12072150D02*
X15817443Y-12072150D01*
X15817443Y-12072150D02*
X15836491Y-12081674D01*
X15836491Y-12081674D02*
X15846015Y-12100722D01*
X15846015Y-12100722D02*
X15846015Y-12205484D01*
X16236491Y-11995960D02*
X16065063Y-12253103D01*
X16493634Y-12005484D02*
X16512682Y-12005484D01*
X16512682Y-12005484D02*
X16531729Y-12015008D01*
X16531729Y-12015008D02*
X16541253Y-12024531D01*
X16541253Y-12024531D02*
X16550777Y-12043579D01*
X16550777Y-12043579D02*
X16560301Y-12081674D01*
X16560301Y-12081674D02*
X16560301Y-12129293D01*
X16560301Y-12129293D02*
X16550777Y-12167388D01*
X16550777Y-12167388D02*
X16541253Y-12186436D01*
X16541253Y-12186436D02*
X16531729Y-12195960D01*
X16531729Y-12195960D02*
X16512682Y-12205484D01*
X16512682Y-12205484D02*
X16493634Y-12205484D01*
X16493634Y-12205484D02*
X16474586Y-12195960D01*
X16474586Y-12195960D02*
X16465063Y-12186436D01*
X16465063Y-12186436D02*
X16455539Y-12167388D01*
X16455539Y-12167388D02*
X16446015Y-12129293D01*
X16446015Y-12129293D02*
X16446015Y-12081674D01*
X16446015Y-12081674D02*
X16455539Y-12043579D01*
X16455539Y-12043579D02*
X16465063Y-12024531D01*
X16465063Y-12024531D02*
X16474586Y-12015008D01*
X16474586Y-12015008D02*
X16493634Y-12005484D01*
X16646015Y-12186436D02*
X16655539Y-12195960D01*
X16655539Y-12195960D02*
X16646015Y-12205484D01*
X16646015Y-12205484D02*
X16636491Y-12195960D01*
X16636491Y-12195960D02*
X16646015Y-12186436D01*
X16646015Y-12186436D02*
X16646015Y-12205484D01*
X16779348Y-12005484D02*
X16798396Y-12005484D01*
X16798396Y-12005484D02*
X16817444Y-12015008D01*
X16817444Y-12015008D02*
X16826968Y-12024531D01*
X16826968Y-12024531D02*
X16836491Y-12043579D01*
X16836491Y-12043579D02*
X16846015Y-12081674D01*
X16846015Y-12081674D02*
X16846015Y-12129293D01*
X16846015Y-12129293D02*
X16836491Y-12167388D01*
X16836491Y-12167388D02*
X16826968Y-12186436D01*
X16826968Y-12186436D02*
X16817444Y-12195960D01*
X16817444Y-12195960D02*
X16798396Y-12205484D01*
X16798396Y-12205484D02*
X16779348Y-12205484D01*
X16779348Y-12205484D02*
X16760301Y-12195960D01*
X16760301Y-12195960D02*
X16750777Y-12186436D01*
X16750777Y-12186436D02*
X16741253Y-12167388D01*
X16741253Y-12167388D02*
X16731729Y-12129293D01*
X16731729Y-12129293D02*
X16731729Y-12081674D01*
X16731729Y-12081674D02*
X16741253Y-12043579D01*
X16741253Y-12043579D02*
X16750777Y-12024531D01*
X16750777Y-12024531D02*
X16760301Y-12015008D01*
X16760301Y-12015008D02*
X16779348Y-12005484D01*
X16912682Y-12005484D02*
X17036491Y-12005484D01*
X17036491Y-12005484D02*
X16969825Y-12081674D01*
X16969825Y-12081674D02*
X16998396Y-12081674D01*
X16998396Y-12081674D02*
X17017444Y-12091198D01*
X17017444Y-12091198D02*
X17026968Y-12100722D01*
X17026968Y-12100722D02*
X17036491Y-12119769D01*
X17036491Y-12119769D02*
X17036491Y-12167388D01*
X17036491Y-12167388D02*
X17026968Y-12186436D01*
X17026968Y-12186436D02*
X17017444Y-12195960D01*
X17017444Y-12195960D02*
X16998396Y-12205484D01*
X16998396Y-12205484D02*
X16941253Y-12205484D01*
X16941253Y-12205484D02*
X16922206Y-12195960D01*
X16922206Y-12195960D02*
X16912682Y-12186436D01*
X17226968Y-12205484D02*
X17112682Y-12205484D01*
X17169825Y-12205484D02*
X17169825Y-12005484D01*
X17169825Y-12005484D02*
X17150777Y-12034055D01*
X17150777Y-12034055D02*
X17131729Y-12053103D01*
X17131729Y-12053103D02*
X17112682Y-12062627D01*
X17407920Y-12005484D02*
X17312682Y-12005484D01*
X17312682Y-12005484D02*
X17303158Y-12100722D01*
X17303158Y-12100722D02*
X17312682Y-12091198D01*
X17312682Y-12091198D02*
X17331729Y-12081674D01*
X17331729Y-12081674D02*
X17379349Y-12081674D01*
X17379349Y-12081674D02*
X17398396Y-12091198D01*
X17398396Y-12091198D02*
X17407920Y-12100722D01*
X17407920Y-12100722D02*
X17417444Y-12119769D01*
X17417444Y-12119769D02*
X17417444Y-12167388D01*
X17417444Y-12167388D02*
X17407920Y-12186436D01*
X17407920Y-12186436D02*
X17398396Y-12195960D01*
X17398396Y-12195960D02*
X17379349Y-12205484D01*
X17379349Y-12205484D02*
X17331729Y-12205484D01*
X17331729Y-12205484D02*
X17312682Y-12195960D01*
X17312682Y-12195960D02*
X17303158Y-12186436D01*
X17493634Y-12005484D02*
X17493634Y-12043579D01*
X17569825Y-12005484D02*
X17569825Y-12043579D01*
X17865063Y-12281674D02*
X17855539Y-12272150D01*
X17855539Y-12272150D02*
X17836491Y-12243579D01*
X17836491Y-12243579D02*
X17826968Y-12224531D01*
X17826968Y-12224531D02*
X17817444Y-12195960D01*
X17817444Y-12195960D02*
X17807920Y-12148341D01*
X17807920Y-12148341D02*
X17807920Y-12110246D01*
X17807920Y-12110246D02*
X17817444Y-12062627D01*
X17817444Y-12062627D02*
X17826968Y-12034055D01*
X17826968Y-12034055D02*
X17836491Y-12015008D01*
X17836491Y-12015008D02*
X17855539Y-11986436D01*
X17855539Y-11986436D02*
X17865063Y-11976912D01*
X17922206Y-12005484D02*
X18046015Y-12005484D01*
X18046015Y-12005484D02*
X17979349Y-12081674D01*
X17979349Y-12081674D02*
X18007920Y-12081674D01*
X18007920Y-12081674D02*
X18026968Y-12091198D01*
X18026968Y-12091198D02*
X18036491Y-12100722D01*
X18036491Y-12100722D02*
X18046015Y-12119769D01*
X18046015Y-12119769D02*
X18046015Y-12167388D01*
X18046015Y-12167388D02*
X18036491Y-12186436D01*
X18036491Y-12186436D02*
X18026968Y-12195960D01*
X18026968Y-12195960D02*
X18007920Y-12205484D01*
X18007920Y-12205484D02*
X17950777Y-12205484D01*
X17950777Y-12205484D02*
X17931730Y-12195960D01*
X17931730Y-12195960D02*
X17922206Y-12186436D01*
X18169825Y-12005484D02*
X18188872Y-12005484D01*
X18188872Y-12005484D02*
X18207920Y-12015008D01*
X18207920Y-12015008D02*
X18217444Y-12024531D01*
X18217444Y-12024531D02*
X18226968Y-12043579D01*
X18226968Y-12043579D02*
X18236491Y-12081674D01*
X18236491Y-12081674D02*
X18236491Y-12129293D01*
X18236491Y-12129293D02*
X18226968Y-12167388D01*
X18226968Y-12167388D02*
X18217444Y-12186436D01*
X18217444Y-12186436D02*
X18207920Y-12195960D01*
X18207920Y-12195960D02*
X18188872Y-12205484D01*
X18188872Y-12205484D02*
X18169825Y-12205484D01*
X18169825Y-12205484D02*
X18150777Y-12195960D01*
X18150777Y-12195960D02*
X18141253Y-12186436D01*
X18141253Y-12186436D02*
X18131730Y-12167388D01*
X18131730Y-12167388D02*
X18122206Y-12129293D01*
X18122206Y-12129293D02*
X18122206Y-12081674D01*
X18122206Y-12081674D02*
X18131730Y-12043579D01*
X18131730Y-12043579D02*
X18141253Y-12024531D01*
X18141253Y-12024531D02*
X18150777Y-12015008D01*
X18150777Y-12015008D02*
X18169825Y-12005484D01*
X18474587Y-12205484D02*
X18474587Y-12005484D01*
X18560301Y-12205484D02*
X18560301Y-12100722D01*
X18560301Y-12100722D02*
X18550777Y-12081674D01*
X18550777Y-12081674D02*
X18531730Y-12072150D01*
X18531730Y-12072150D02*
X18503158Y-12072150D01*
X18503158Y-12072150D02*
X18484111Y-12081674D01*
X18484111Y-12081674D02*
X18474587Y-12091198D01*
X18684111Y-12205484D02*
X18665063Y-12195960D01*
X18665063Y-12195960D02*
X18655539Y-12186436D01*
X18655539Y-12186436D02*
X18646015Y-12167388D01*
X18646015Y-12167388D02*
X18646015Y-12110246D01*
X18646015Y-12110246D02*
X18655539Y-12091198D01*
X18655539Y-12091198D02*
X18665063Y-12081674D01*
X18665063Y-12081674D02*
X18684111Y-12072150D01*
X18684111Y-12072150D02*
X18712682Y-12072150D01*
X18712682Y-12072150D02*
X18731730Y-12081674D01*
X18731730Y-12081674D02*
X18741253Y-12091198D01*
X18741253Y-12091198D02*
X18750777Y-12110246D01*
X18750777Y-12110246D02*
X18750777Y-12167388D01*
X18750777Y-12167388D02*
X18741253Y-12186436D01*
X18741253Y-12186436D02*
X18731730Y-12195960D01*
X18731730Y-12195960D02*
X18712682Y-12205484D01*
X18712682Y-12205484D02*
X18684111Y-12205484D01*
X18865063Y-12205484D02*
X18846015Y-12195960D01*
X18846015Y-12195960D02*
X18836492Y-12176912D01*
X18836492Y-12176912D02*
X18836492Y-12005484D01*
X19017444Y-12195960D02*
X18998396Y-12205484D01*
X18998396Y-12205484D02*
X18960301Y-12205484D01*
X18960301Y-12205484D02*
X18941253Y-12195960D01*
X18941253Y-12195960D02*
X18931730Y-12176912D01*
X18931730Y-12176912D02*
X18931730Y-12100722D01*
X18931730Y-12100722D02*
X18941253Y-12081674D01*
X18941253Y-12081674D02*
X18960301Y-12072150D01*
X18960301Y-12072150D02*
X18998396Y-12072150D01*
X18998396Y-12072150D02*
X19017444Y-12081674D01*
X19017444Y-12081674D02*
X19026968Y-12100722D01*
X19026968Y-12100722D02*
X19026968Y-12119769D01*
X19026968Y-12119769D02*
X18931730Y-12138817D01*
X19103158Y-12195960D02*
X19122206Y-12205484D01*
X19122206Y-12205484D02*
X19160301Y-12205484D01*
X19160301Y-12205484D02*
X19179349Y-12195960D01*
X19179349Y-12195960D02*
X19188873Y-12176912D01*
X19188873Y-12176912D02*
X19188873Y-12167388D01*
X19188873Y-12167388D02*
X19179349Y-12148341D01*
X19179349Y-12148341D02*
X19160301Y-12138817D01*
X19160301Y-12138817D02*
X19131730Y-12138817D01*
X19131730Y-12138817D02*
X19112682Y-12129293D01*
X19112682Y-12129293D02*
X19103158Y-12110246D01*
X19103158Y-12110246D02*
X19103158Y-12100722D01*
X19103158Y-12100722D02*
X19112682Y-12081674D01*
X19112682Y-12081674D02*
X19131730Y-12072150D01*
X19131730Y-12072150D02*
X19160301Y-12072150D01*
X19160301Y-12072150D02*
X19179349Y-12081674D01*
X19255539Y-12281674D02*
X19265063Y-12272150D01*
X19265063Y-12272150D02*
X19284111Y-12243579D01*
X19284111Y-12243579D02*
X19293634Y-12224531D01*
X19293634Y-12224531D02*
X19303158Y-12195960D01*
X19303158Y-12195960D02*
X19312682Y-12148341D01*
X19312682Y-12148341D02*
X19312682Y-12110246D01*
X19312682Y-12110246D02*
X19303158Y-12062627D01*
X19303158Y-12062627D02*
X19293634Y-12034055D01*
X19293634Y-12034055D02*
X19284111Y-12015008D01*
X19284111Y-12015008D02*
X19265063Y-11986436D01*
X19265063Y-11986436D02*
X19255539Y-11976912D01*
D11*
X14247500Y-12335500D02*
X14247500Y-12420500D01*
X14205000Y-12378000D02*
X14290000Y-12378000D01*
D10*
X14588872Y-12269484D02*
X14607920Y-12269484D01*
X14607920Y-12269484D02*
X14626967Y-12279008D01*
X14626967Y-12279008D02*
X14636491Y-12288531D01*
X14636491Y-12288531D02*
X14646015Y-12307579D01*
X14646015Y-12307579D02*
X14655539Y-12345674D01*
X14655539Y-12345674D02*
X14655539Y-12393293D01*
X14655539Y-12393293D02*
X14646015Y-12431388D01*
X14646015Y-12431388D02*
X14636491Y-12450436D01*
X14636491Y-12450436D02*
X14626967Y-12459960D01*
X14626967Y-12459960D02*
X14607920Y-12469484D01*
X14607920Y-12469484D02*
X14588872Y-12469484D01*
X14588872Y-12469484D02*
X14569824Y-12459960D01*
X14569824Y-12459960D02*
X14560301Y-12450436D01*
X14560301Y-12450436D02*
X14550777Y-12431388D01*
X14550777Y-12431388D02*
X14541253Y-12393293D01*
X14541253Y-12393293D02*
X14541253Y-12345674D01*
X14541253Y-12345674D02*
X14550777Y-12307579D01*
X14550777Y-12307579D02*
X14560301Y-12288531D01*
X14560301Y-12288531D02*
X14569824Y-12279008D01*
X14569824Y-12279008D02*
X14588872Y-12269484D01*
X14741253Y-12450436D02*
X14750777Y-12459960D01*
X14750777Y-12459960D02*
X14741253Y-12469484D01*
X14741253Y-12469484D02*
X14731729Y-12459960D01*
X14731729Y-12459960D02*
X14741253Y-12450436D01*
X14741253Y-12450436D02*
X14741253Y-12469484D01*
X14865062Y-12355198D02*
X14846015Y-12345674D01*
X14846015Y-12345674D02*
X14836491Y-12336150D01*
X14836491Y-12336150D02*
X14826967Y-12317103D01*
X14826967Y-12317103D02*
X14826967Y-12307579D01*
X14826967Y-12307579D02*
X14836491Y-12288531D01*
X14836491Y-12288531D02*
X14846015Y-12279008D01*
X14846015Y-12279008D02*
X14865062Y-12269484D01*
X14865062Y-12269484D02*
X14903158Y-12269484D01*
X14903158Y-12269484D02*
X14922205Y-12279008D01*
X14922205Y-12279008D02*
X14931729Y-12288531D01*
X14931729Y-12288531D02*
X14941253Y-12307579D01*
X14941253Y-12307579D02*
X14941253Y-12317103D01*
X14941253Y-12317103D02*
X14931729Y-12336150D01*
X14931729Y-12336150D02*
X14922205Y-12345674D01*
X14922205Y-12345674D02*
X14903158Y-12355198D01*
X14903158Y-12355198D02*
X14865062Y-12355198D01*
X14865062Y-12355198D02*
X14846015Y-12364722D01*
X14846015Y-12364722D02*
X14836491Y-12374246D01*
X14836491Y-12374246D02*
X14826967Y-12393293D01*
X14826967Y-12393293D02*
X14826967Y-12431388D01*
X14826967Y-12431388D02*
X14836491Y-12450436D01*
X14836491Y-12450436D02*
X14846015Y-12459960D01*
X14846015Y-12459960D02*
X14865062Y-12469484D01*
X14865062Y-12469484D02*
X14903158Y-12469484D01*
X14903158Y-12469484D02*
X14922205Y-12459960D01*
X14922205Y-12459960D02*
X14931729Y-12450436D01*
X14931729Y-12450436D02*
X14941253Y-12431388D01*
X14941253Y-12431388D02*
X14941253Y-12393293D01*
X14941253Y-12393293D02*
X14931729Y-12374246D01*
X14931729Y-12374246D02*
X14922205Y-12364722D01*
X14922205Y-12364722D02*
X14903158Y-12355198D01*
X15122205Y-12269484D02*
X15026967Y-12269484D01*
X15026967Y-12269484D02*
X15017443Y-12364722D01*
X15017443Y-12364722D02*
X15026967Y-12355198D01*
X15026967Y-12355198D02*
X15046015Y-12345674D01*
X15046015Y-12345674D02*
X15093634Y-12345674D01*
X15093634Y-12345674D02*
X15112682Y-12355198D01*
X15112682Y-12355198D02*
X15122205Y-12364722D01*
X15122205Y-12364722D02*
X15131729Y-12383769D01*
X15131729Y-12383769D02*
X15131729Y-12431388D01*
X15131729Y-12431388D02*
X15122205Y-12450436D01*
X15122205Y-12450436D02*
X15112682Y-12459960D01*
X15112682Y-12459960D02*
X15093634Y-12469484D01*
X15093634Y-12469484D02*
X15046015Y-12469484D01*
X15046015Y-12469484D02*
X15026967Y-12459960D01*
X15026967Y-12459960D02*
X15017443Y-12450436D01*
X15255539Y-12269484D02*
X15274586Y-12269484D01*
X15274586Y-12269484D02*
X15293634Y-12279008D01*
X15293634Y-12279008D02*
X15303158Y-12288531D01*
X15303158Y-12288531D02*
X15312682Y-12307579D01*
X15312682Y-12307579D02*
X15322205Y-12345674D01*
X15322205Y-12345674D02*
X15322205Y-12393293D01*
X15322205Y-12393293D02*
X15312682Y-12431388D01*
X15312682Y-12431388D02*
X15303158Y-12450436D01*
X15303158Y-12450436D02*
X15293634Y-12459960D01*
X15293634Y-12459960D02*
X15274586Y-12469484D01*
X15274586Y-12469484D02*
X15255539Y-12469484D01*
X15255539Y-12469484D02*
X15236491Y-12459960D01*
X15236491Y-12459960D02*
X15226967Y-12450436D01*
X15226967Y-12450436D02*
X15217443Y-12431388D01*
X15217443Y-12431388D02*
X15207920Y-12393293D01*
X15207920Y-12393293D02*
X15207920Y-12345674D01*
X15207920Y-12345674D02*
X15217443Y-12307579D01*
X15217443Y-12307579D02*
X15226967Y-12288531D01*
X15226967Y-12288531D02*
X15236491Y-12279008D01*
X15236491Y-12279008D02*
X15255539Y-12269484D01*
X15407920Y-12469484D02*
X15407920Y-12336150D01*
X15407920Y-12355198D02*
X15417443Y-12345674D01*
X15417443Y-12345674D02*
X15436491Y-12336150D01*
X15436491Y-12336150D02*
X15465063Y-12336150D01*
X15465063Y-12336150D02*
X15484110Y-12345674D01*
X15484110Y-12345674D02*
X15493634Y-12364722D01*
X15493634Y-12364722D02*
X15493634Y-12469484D01*
X15493634Y-12364722D02*
X15503158Y-12345674D01*
X15503158Y-12345674D02*
X15522205Y-12336150D01*
X15522205Y-12336150D02*
X15550777Y-12336150D01*
X15550777Y-12336150D02*
X15569824Y-12345674D01*
X15569824Y-12345674D02*
X15579348Y-12364722D01*
X15579348Y-12364722D02*
X15579348Y-12469484D01*
X15674586Y-12469484D02*
X15674586Y-12336150D01*
X15674586Y-12355198D02*
X15684110Y-12345674D01*
X15684110Y-12345674D02*
X15703158Y-12336150D01*
X15703158Y-12336150D02*
X15731729Y-12336150D01*
X15731729Y-12336150D02*
X15750777Y-12345674D01*
X15750777Y-12345674D02*
X15760301Y-12364722D01*
X15760301Y-12364722D02*
X15760301Y-12469484D01*
X15760301Y-12364722D02*
X15769824Y-12345674D01*
X15769824Y-12345674D02*
X15788872Y-12336150D01*
X15788872Y-12336150D02*
X15817443Y-12336150D01*
X15817443Y-12336150D02*
X15836491Y-12345674D01*
X15836491Y-12345674D02*
X15846015Y-12364722D01*
X15846015Y-12364722D02*
X15846015Y-12469484D01*
X16236491Y-12259960D02*
X16065063Y-12517103D01*
X16493634Y-12269484D02*
X16512682Y-12269484D01*
X16512682Y-12269484D02*
X16531729Y-12279008D01*
X16531729Y-12279008D02*
X16541253Y-12288531D01*
X16541253Y-12288531D02*
X16550777Y-12307579D01*
X16550777Y-12307579D02*
X16560301Y-12345674D01*
X16560301Y-12345674D02*
X16560301Y-12393293D01*
X16560301Y-12393293D02*
X16550777Y-12431388D01*
X16550777Y-12431388D02*
X16541253Y-12450436D01*
X16541253Y-12450436D02*
X16531729Y-12459960D01*
X16531729Y-12459960D02*
X16512682Y-12469484D01*
X16512682Y-12469484D02*
X16493634Y-12469484D01*
X16493634Y-12469484D02*
X16474586Y-12459960D01*
X16474586Y-12459960D02*
X16465063Y-12450436D01*
X16465063Y-12450436D02*
X16455539Y-12431388D01*
X16455539Y-12431388D02*
X16446015Y-12393293D01*
X16446015Y-12393293D02*
X16446015Y-12345674D01*
X16446015Y-12345674D02*
X16455539Y-12307579D01*
X16455539Y-12307579D02*
X16465063Y-12288531D01*
X16465063Y-12288531D02*
X16474586Y-12279008D01*
X16474586Y-12279008D02*
X16493634Y-12269484D01*
X16646015Y-12450436D02*
X16655539Y-12459960D01*
X16655539Y-12459960D02*
X16646015Y-12469484D01*
X16646015Y-12469484D02*
X16636491Y-12459960D01*
X16636491Y-12459960D02*
X16646015Y-12450436D01*
X16646015Y-12450436D02*
X16646015Y-12469484D01*
X16779348Y-12269484D02*
X16798396Y-12269484D01*
X16798396Y-12269484D02*
X16817444Y-12279008D01*
X16817444Y-12279008D02*
X16826968Y-12288531D01*
X16826968Y-12288531D02*
X16836491Y-12307579D01*
X16836491Y-12307579D02*
X16846015Y-12345674D01*
X16846015Y-12345674D02*
X16846015Y-12393293D01*
X16846015Y-12393293D02*
X16836491Y-12431388D01*
X16836491Y-12431388D02*
X16826968Y-12450436D01*
X16826968Y-12450436D02*
X16817444Y-12459960D01*
X16817444Y-12459960D02*
X16798396Y-12469484D01*
X16798396Y-12469484D02*
X16779348Y-12469484D01*
X16779348Y-12469484D02*
X16760301Y-12459960D01*
X16760301Y-12459960D02*
X16750777Y-12450436D01*
X16750777Y-12450436D02*
X16741253Y-12431388D01*
X16741253Y-12431388D02*
X16731729Y-12393293D01*
X16731729Y-12393293D02*
X16731729Y-12345674D01*
X16731729Y-12345674D02*
X16741253Y-12307579D01*
X16741253Y-12307579D02*
X16750777Y-12288531D01*
X16750777Y-12288531D02*
X16760301Y-12279008D01*
X16760301Y-12279008D02*
X16779348Y-12269484D01*
X16912682Y-12269484D02*
X17036491Y-12269484D01*
X17036491Y-12269484D02*
X16969825Y-12345674D01*
X16969825Y-12345674D02*
X16998396Y-12345674D01*
X16998396Y-12345674D02*
X17017444Y-12355198D01*
X17017444Y-12355198D02*
X17026968Y-12364722D01*
X17026968Y-12364722D02*
X17036491Y-12383769D01*
X17036491Y-12383769D02*
X17036491Y-12431388D01*
X17036491Y-12431388D02*
X17026968Y-12450436D01*
X17026968Y-12450436D02*
X17017444Y-12459960D01*
X17017444Y-12459960D02*
X16998396Y-12469484D01*
X16998396Y-12469484D02*
X16941253Y-12469484D01*
X16941253Y-12469484D02*
X16922206Y-12459960D01*
X16922206Y-12459960D02*
X16912682Y-12450436D01*
X17103158Y-12269484D02*
X17226968Y-12269484D01*
X17226968Y-12269484D02*
X17160301Y-12345674D01*
X17160301Y-12345674D02*
X17188872Y-12345674D01*
X17188872Y-12345674D02*
X17207920Y-12355198D01*
X17207920Y-12355198D02*
X17217444Y-12364722D01*
X17217444Y-12364722D02*
X17226968Y-12383769D01*
X17226968Y-12383769D02*
X17226968Y-12431388D01*
X17226968Y-12431388D02*
X17217444Y-12450436D01*
X17217444Y-12450436D02*
X17207920Y-12459960D01*
X17207920Y-12459960D02*
X17188872Y-12469484D01*
X17188872Y-12469484D02*
X17131729Y-12469484D01*
X17131729Y-12469484D02*
X17112682Y-12459960D01*
X17112682Y-12459960D02*
X17103158Y-12450436D01*
X17407920Y-12269484D02*
X17312682Y-12269484D01*
X17312682Y-12269484D02*
X17303158Y-12364722D01*
X17303158Y-12364722D02*
X17312682Y-12355198D01*
X17312682Y-12355198D02*
X17331729Y-12345674D01*
X17331729Y-12345674D02*
X17379349Y-12345674D01*
X17379349Y-12345674D02*
X17398396Y-12355198D01*
X17398396Y-12355198D02*
X17407920Y-12364722D01*
X17407920Y-12364722D02*
X17417444Y-12383769D01*
X17417444Y-12383769D02*
X17417444Y-12431388D01*
X17417444Y-12431388D02*
X17407920Y-12450436D01*
X17407920Y-12450436D02*
X17398396Y-12459960D01*
X17398396Y-12459960D02*
X17379349Y-12469484D01*
X17379349Y-12469484D02*
X17331729Y-12469484D01*
X17331729Y-12469484D02*
X17312682Y-12459960D01*
X17312682Y-12459960D02*
X17303158Y-12450436D01*
X17493634Y-12269484D02*
X17493634Y-12307579D01*
X17569825Y-12269484D02*
X17569825Y-12307579D01*
X17865063Y-12545674D02*
X17855539Y-12536150D01*
X17855539Y-12536150D02*
X17836491Y-12507579D01*
X17836491Y-12507579D02*
X17826968Y-12488531D01*
X17826968Y-12488531D02*
X17817444Y-12459960D01*
X17817444Y-12459960D02*
X17807920Y-12412341D01*
X17807920Y-12412341D02*
X17807920Y-12374246D01*
X17807920Y-12374246D02*
X17817444Y-12326627D01*
X17817444Y-12326627D02*
X17826968Y-12298055D01*
X17826968Y-12298055D02*
X17836491Y-12279008D01*
X17836491Y-12279008D02*
X17855539Y-12250436D01*
X17855539Y-12250436D02*
X17865063Y-12240912D01*
X18026968Y-12336150D02*
X18026968Y-12469484D01*
X17979349Y-12259960D02*
X17931730Y-12402817D01*
X17931730Y-12402817D02*
X18055539Y-12402817D01*
X18284111Y-12469484D02*
X18284111Y-12269484D01*
X18369825Y-12469484D02*
X18369825Y-12364722D01*
X18369825Y-12364722D02*
X18360301Y-12345674D01*
X18360301Y-12345674D02*
X18341253Y-12336150D01*
X18341253Y-12336150D02*
X18312682Y-12336150D01*
X18312682Y-12336150D02*
X18293634Y-12345674D01*
X18293634Y-12345674D02*
X18284111Y-12355198D01*
X18493634Y-12469484D02*
X18474587Y-12459960D01*
X18474587Y-12459960D02*
X18465063Y-12450436D01*
X18465063Y-12450436D02*
X18455539Y-12431388D01*
X18455539Y-12431388D02*
X18455539Y-12374246D01*
X18455539Y-12374246D02*
X18465063Y-12355198D01*
X18465063Y-12355198D02*
X18474587Y-12345674D01*
X18474587Y-12345674D02*
X18493634Y-12336150D01*
X18493634Y-12336150D02*
X18522206Y-12336150D01*
X18522206Y-12336150D02*
X18541253Y-12345674D01*
X18541253Y-12345674D02*
X18550777Y-12355198D01*
X18550777Y-12355198D02*
X18560301Y-12374246D01*
X18560301Y-12374246D02*
X18560301Y-12431388D01*
X18560301Y-12431388D02*
X18550777Y-12450436D01*
X18550777Y-12450436D02*
X18541253Y-12459960D01*
X18541253Y-12459960D02*
X18522206Y-12469484D01*
X18522206Y-12469484D02*
X18493634Y-12469484D01*
X18674587Y-12469484D02*
X18655539Y-12459960D01*
X18655539Y-12459960D02*
X18646015Y-12440912D01*
X18646015Y-12440912D02*
X18646015Y-12269484D01*
X18826968Y-12459960D02*
X18807920Y-12469484D01*
X18807920Y-12469484D02*
X18769825Y-12469484D01*
X18769825Y-12469484D02*
X18750777Y-12459960D01*
X18750777Y-12459960D02*
X18741253Y-12440912D01*
X18741253Y-12440912D02*
X18741253Y-12364722D01*
X18741253Y-12364722D02*
X18750777Y-12345674D01*
X18750777Y-12345674D02*
X18769825Y-12336150D01*
X18769825Y-12336150D02*
X18807920Y-12336150D01*
X18807920Y-12336150D02*
X18826968Y-12345674D01*
X18826968Y-12345674D02*
X18836492Y-12364722D01*
X18836492Y-12364722D02*
X18836492Y-12383769D01*
X18836492Y-12383769D02*
X18741253Y-12402817D01*
X18912682Y-12459960D02*
X18931730Y-12469484D01*
X18931730Y-12469484D02*
X18969825Y-12469484D01*
X18969825Y-12469484D02*
X18988873Y-12459960D01*
X18988873Y-12459960D02*
X18998396Y-12440912D01*
X18998396Y-12440912D02*
X18998396Y-12431388D01*
X18998396Y-12431388D02*
X18988873Y-12412341D01*
X18988873Y-12412341D02*
X18969825Y-12402817D01*
X18969825Y-12402817D02*
X18941253Y-12402817D01*
X18941253Y-12402817D02*
X18922206Y-12393293D01*
X18922206Y-12393293D02*
X18912682Y-12374246D01*
X18912682Y-12374246D02*
X18912682Y-12364722D01*
X18912682Y-12364722D02*
X18922206Y-12345674D01*
X18922206Y-12345674D02*
X18941253Y-12336150D01*
X18941253Y-12336150D02*
X18969825Y-12336150D01*
X18969825Y-12336150D02*
X18988873Y-12345674D01*
X19065063Y-12545674D02*
X19074587Y-12536150D01*
X19074587Y-12536150D02*
X19093634Y-12507579D01*
X19093634Y-12507579D02*
X19103158Y-12488531D01*
X19103158Y-12488531D02*
X19112682Y-12459960D01*
X19112682Y-12459960D02*
X19122206Y-12412341D01*
X19122206Y-12412341D02*
X19122206Y-12374246D01*
X19122206Y-12374246D02*
X19112682Y-12326627D01*
X19112682Y-12326627D02*
X19103158Y-12298055D01*
X19103158Y-12298055D02*
X19093634Y-12279008D01*
X19093634Y-12279008D02*
X19074587Y-12250436D01*
X19074587Y-12250436D02*
X19065063Y-12240912D01*
D11*
X14276820Y-12673820D02*
X14276820Y-12610180D01*
X14213180Y-12610180D01*
X14213180Y-12673820D01*
X14276820Y-12673820D01*
D10*
X14588872Y-12533484D02*
X14607920Y-12533484D01*
X14607920Y-12533484D02*
X14626967Y-12543008D01*
X14626967Y-12543008D02*
X14636491Y-12552531D01*
X14636491Y-12552531D02*
X14646015Y-12571579D01*
X14646015Y-12571579D02*
X14655539Y-12609674D01*
X14655539Y-12609674D02*
X14655539Y-12657293D01*
X14655539Y-12657293D02*
X14646015Y-12695388D01*
X14646015Y-12695388D02*
X14636491Y-12714436D01*
X14636491Y-12714436D02*
X14626967Y-12723960D01*
X14626967Y-12723960D02*
X14607920Y-12733484D01*
X14607920Y-12733484D02*
X14588872Y-12733484D01*
X14588872Y-12733484D02*
X14569824Y-12723960D01*
X14569824Y-12723960D02*
X14560301Y-12714436D01*
X14560301Y-12714436D02*
X14550777Y-12695388D01*
X14550777Y-12695388D02*
X14541253Y-12657293D01*
X14541253Y-12657293D02*
X14541253Y-12609674D01*
X14541253Y-12609674D02*
X14550777Y-12571579D01*
X14550777Y-12571579D02*
X14560301Y-12552531D01*
X14560301Y-12552531D02*
X14569824Y-12543008D01*
X14569824Y-12543008D02*
X14588872Y-12533484D01*
X14741253Y-12714436D02*
X14750777Y-12723960D01*
X14750777Y-12723960D02*
X14741253Y-12733484D01*
X14741253Y-12733484D02*
X14731729Y-12723960D01*
X14731729Y-12723960D02*
X14741253Y-12714436D01*
X14741253Y-12714436D02*
X14741253Y-12733484D01*
X14846015Y-12733484D02*
X14884110Y-12733484D01*
X14884110Y-12733484D02*
X14903158Y-12723960D01*
X14903158Y-12723960D02*
X14912682Y-12714436D01*
X14912682Y-12714436D02*
X14931729Y-12685865D01*
X14931729Y-12685865D02*
X14941253Y-12647769D01*
X14941253Y-12647769D02*
X14941253Y-12571579D01*
X14941253Y-12571579D02*
X14931729Y-12552531D01*
X14931729Y-12552531D02*
X14922205Y-12543008D01*
X14922205Y-12543008D02*
X14903158Y-12533484D01*
X14903158Y-12533484D02*
X14865062Y-12533484D01*
X14865062Y-12533484D02*
X14846015Y-12543008D01*
X14846015Y-12543008D02*
X14836491Y-12552531D01*
X14836491Y-12552531D02*
X14826967Y-12571579D01*
X14826967Y-12571579D02*
X14826967Y-12619198D01*
X14826967Y-12619198D02*
X14836491Y-12638246D01*
X14836491Y-12638246D02*
X14846015Y-12647769D01*
X14846015Y-12647769D02*
X14865062Y-12657293D01*
X14865062Y-12657293D02*
X14903158Y-12657293D01*
X14903158Y-12657293D02*
X14922205Y-12647769D01*
X14922205Y-12647769D02*
X14931729Y-12638246D01*
X14931729Y-12638246D02*
X14941253Y-12619198D01*
X15065062Y-12533484D02*
X15084110Y-12533484D01*
X15084110Y-12533484D02*
X15103158Y-12543008D01*
X15103158Y-12543008D02*
X15112682Y-12552531D01*
X15112682Y-12552531D02*
X15122205Y-12571579D01*
X15122205Y-12571579D02*
X15131729Y-12609674D01*
X15131729Y-12609674D02*
X15131729Y-12657293D01*
X15131729Y-12657293D02*
X15122205Y-12695388D01*
X15122205Y-12695388D02*
X15112682Y-12714436D01*
X15112682Y-12714436D02*
X15103158Y-12723960D01*
X15103158Y-12723960D02*
X15084110Y-12733484D01*
X15084110Y-12733484D02*
X15065062Y-12733484D01*
X15065062Y-12733484D02*
X15046015Y-12723960D01*
X15046015Y-12723960D02*
X15036491Y-12714436D01*
X15036491Y-12714436D02*
X15026967Y-12695388D01*
X15026967Y-12695388D02*
X15017443Y-12657293D01*
X15017443Y-12657293D02*
X15017443Y-12609674D01*
X15017443Y-12609674D02*
X15026967Y-12571579D01*
X15026967Y-12571579D02*
X15036491Y-12552531D01*
X15036491Y-12552531D02*
X15046015Y-12543008D01*
X15046015Y-12543008D02*
X15065062Y-12533484D01*
X15255539Y-12533484D02*
X15274586Y-12533484D01*
X15274586Y-12533484D02*
X15293634Y-12543008D01*
X15293634Y-12543008D02*
X15303158Y-12552531D01*
X15303158Y-12552531D02*
X15312682Y-12571579D01*
X15312682Y-12571579D02*
X15322205Y-12609674D01*
X15322205Y-12609674D02*
X15322205Y-12657293D01*
X15322205Y-12657293D02*
X15312682Y-12695388D01*
X15312682Y-12695388D02*
X15303158Y-12714436D01*
X15303158Y-12714436D02*
X15293634Y-12723960D01*
X15293634Y-12723960D02*
X15274586Y-12733484D01*
X15274586Y-12733484D02*
X15255539Y-12733484D01*
X15255539Y-12733484D02*
X15236491Y-12723960D01*
X15236491Y-12723960D02*
X15226967Y-12714436D01*
X15226967Y-12714436D02*
X15217443Y-12695388D01*
X15217443Y-12695388D02*
X15207920Y-12657293D01*
X15207920Y-12657293D02*
X15207920Y-12609674D01*
X15207920Y-12609674D02*
X15217443Y-12571579D01*
X15217443Y-12571579D02*
X15226967Y-12552531D01*
X15226967Y-12552531D02*
X15236491Y-12543008D01*
X15236491Y-12543008D02*
X15255539Y-12533484D01*
X15407920Y-12733484D02*
X15407920Y-12600150D01*
X15407920Y-12619198D02*
X15417443Y-12609674D01*
X15417443Y-12609674D02*
X15436491Y-12600150D01*
X15436491Y-12600150D02*
X15465063Y-12600150D01*
X15465063Y-12600150D02*
X15484110Y-12609674D01*
X15484110Y-12609674D02*
X15493634Y-12628722D01*
X15493634Y-12628722D02*
X15493634Y-12733484D01*
X15493634Y-12628722D02*
X15503158Y-12609674D01*
X15503158Y-12609674D02*
X15522205Y-12600150D01*
X15522205Y-12600150D02*
X15550777Y-12600150D01*
X15550777Y-12600150D02*
X15569824Y-12609674D01*
X15569824Y-12609674D02*
X15579348Y-12628722D01*
X15579348Y-12628722D02*
X15579348Y-12733484D01*
X15674586Y-12733484D02*
X15674586Y-12600150D01*
X15674586Y-12619198D02*
X15684110Y-12609674D01*
X15684110Y-12609674D02*
X15703158Y-12600150D01*
X15703158Y-12600150D02*
X15731729Y-12600150D01*
X15731729Y-12600150D02*
X15750777Y-12609674D01*
X15750777Y-12609674D02*
X15760301Y-12628722D01*
X15760301Y-12628722D02*
X15760301Y-12733484D01*
X15760301Y-12628722D02*
X15769824Y-12609674D01*
X15769824Y-12609674D02*
X15788872Y-12600150D01*
X15788872Y-12600150D02*
X15817443Y-12600150D01*
X15817443Y-12600150D02*
X15836491Y-12609674D01*
X15836491Y-12609674D02*
X15846015Y-12628722D01*
X15846015Y-12628722D02*
X15846015Y-12733484D01*
X16236491Y-12523960D02*
X16065063Y-12781103D01*
X16493634Y-12533484D02*
X16512682Y-12533484D01*
X16512682Y-12533484D02*
X16531729Y-12543008D01*
X16531729Y-12543008D02*
X16541253Y-12552531D01*
X16541253Y-12552531D02*
X16550777Y-12571579D01*
X16550777Y-12571579D02*
X16560301Y-12609674D01*
X16560301Y-12609674D02*
X16560301Y-12657293D01*
X16560301Y-12657293D02*
X16550777Y-12695388D01*
X16550777Y-12695388D02*
X16541253Y-12714436D01*
X16541253Y-12714436D02*
X16531729Y-12723960D01*
X16531729Y-12723960D02*
X16512682Y-12733484D01*
X16512682Y-12733484D02*
X16493634Y-12733484D01*
X16493634Y-12733484D02*
X16474586Y-12723960D01*
X16474586Y-12723960D02*
X16465063Y-12714436D01*
X16465063Y-12714436D02*
X16455539Y-12695388D01*
X16455539Y-12695388D02*
X16446015Y-12657293D01*
X16446015Y-12657293D02*
X16446015Y-12609674D01*
X16446015Y-12609674D02*
X16455539Y-12571579D01*
X16455539Y-12571579D02*
X16465063Y-12552531D01*
X16465063Y-12552531D02*
X16474586Y-12543008D01*
X16474586Y-12543008D02*
X16493634Y-12533484D01*
X16646015Y-12714436D02*
X16655539Y-12723960D01*
X16655539Y-12723960D02*
X16646015Y-12733484D01*
X16646015Y-12733484D02*
X16636491Y-12723960D01*
X16636491Y-12723960D02*
X16646015Y-12714436D01*
X16646015Y-12714436D02*
X16646015Y-12733484D01*
X16779348Y-12533484D02*
X16798396Y-12533484D01*
X16798396Y-12533484D02*
X16817444Y-12543008D01*
X16817444Y-12543008D02*
X16826968Y-12552531D01*
X16826968Y-12552531D02*
X16836491Y-12571579D01*
X16836491Y-12571579D02*
X16846015Y-12609674D01*
X16846015Y-12609674D02*
X16846015Y-12657293D01*
X16846015Y-12657293D02*
X16836491Y-12695388D01*
X16836491Y-12695388D02*
X16826968Y-12714436D01*
X16826968Y-12714436D02*
X16817444Y-12723960D01*
X16817444Y-12723960D02*
X16798396Y-12733484D01*
X16798396Y-12733484D02*
X16779348Y-12733484D01*
X16779348Y-12733484D02*
X16760301Y-12723960D01*
X16760301Y-12723960D02*
X16750777Y-12714436D01*
X16750777Y-12714436D02*
X16741253Y-12695388D01*
X16741253Y-12695388D02*
X16731729Y-12657293D01*
X16731729Y-12657293D02*
X16731729Y-12609674D01*
X16731729Y-12609674D02*
X16741253Y-12571579D01*
X16741253Y-12571579D02*
X16750777Y-12552531D01*
X16750777Y-12552531D02*
X16760301Y-12543008D01*
X16760301Y-12543008D02*
X16779348Y-12533484D01*
X16912682Y-12533484D02*
X17036491Y-12533484D01*
X17036491Y-12533484D02*
X16969825Y-12609674D01*
X16969825Y-12609674D02*
X16998396Y-12609674D01*
X16998396Y-12609674D02*
X17017444Y-12619198D01*
X17017444Y-12619198D02*
X17026968Y-12628722D01*
X17026968Y-12628722D02*
X17036491Y-12647769D01*
X17036491Y-12647769D02*
X17036491Y-12695388D01*
X17036491Y-12695388D02*
X17026968Y-12714436D01*
X17026968Y-12714436D02*
X17017444Y-12723960D01*
X17017444Y-12723960D02*
X16998396Y-12733484D01*
X16998396Y-12733484D02*
X16941253Y-12733484D01*
X16941253Y-12733484D02*
X16922206Y-12723960D01*
X16922206Y-12723960D02*
X16912682Y-12714436D01*
X17217444Y-12533484D02*
X17122206Y-12533484D01*
X17122206Y-12533484D02*
X17112682Y-12628722D01*
X17112682Y-12628722D02*
X17122206Y-12619198D01*
X17122206Y-12619198D02*
X17141253Y-12609674D01*
X17141253Y-12609674D02*
X17188872Y-12609674D01*
X17188872Y-12609674D02*
X17207920Y-12619198D01*
X17207920Y-12619198D02*
X17217444Y-12628722D01*
X17217444Y-12628722D02*
X17226968Y-12647769D01*
X17226968Y-12647769D02*
X17226968Y-12695388D01*
X17226968Y-12695388D02*
X17217444Y-12714436D01*
X17217444Y-12714436D02*
X17207920Y-12723960D01*
X17207920Y-12723960D02*
X17188872Y-12733484D01*
X17188872Y-12733484D02*
X17141253Y-12733484D01*
X17141253Y-12733484D02*
X17122206Y-12723960D01*
X17122206Y-12723960D02*
X17112682Y-12714436D01*
X17398396Y-12600150D02*
X17398396Y-12733484D01*
X17350777Y-12523960D02*
X17303158Y-12666817D01*
X17303158Y-12666817D02*
X17426968Y-12666817D01*
X17493634Y-12533484D02*
X17493634Y-12571579D01*
X17569825Y-12533484D02*
X17569825Y-12571579D01*
X17865063Y-12809674D02*
X17855539Y-12800150D01*
X17855539Y-12800150D02*
X17836491Y-12771579D01*
X17836491Y-12771579D02*
X17826968Y-12752531D01*
X17826968Y-12752531D02*
X17817444Y-12723960D01*
X17817444Y-12723960D02*
X17807920Y-12676341D01*
X17807920Y-12676341D02*
X17807920Y-12638246D01*
X17807920Y-12638246D02*
X17817444Y-12590627D01*
X17817444Y-12590627D02*
X17826968Y-12562055D01*
X17826968Y-12562055D02*
X17836491Y-12543008D01*
X17836491Y-12543008D02*
X17855539Y-12514436D01*
X17855539Y-12514436D02*
X17865063Y-12504912D01*
X18026968Y-12533484D02*
X17988872Y-12533484D01*
X17988872Y-12533484D02*
X17969825Y-12543008D01*
X17969825Y-12543008D02*
X17960301Y-12552531D01*
X17960301Y-12552531D02*
X17941253Y-12581103D01*
X17941253Y-12581103D02*
X17931730Y-12619198D01*
X17931730Y-12619198D02*
X17931730Y-12695388D01*
X17931730Y-12695388D02*
X17941253Y-12714436D01*
X17941253Y-12714436D02*
X17950777Y-12723960D01*
X17950777Y-12723960D02*
X17969825Y-12733484D01*
X17969825Y-12733484D02*
X18007920Y-12733484D01*
X18007920Y-12733484D02*
X18026968Y-12723960D01*
X18026968Y-12723960D02*
X18036491Y-12714436D01*
X18036491Y-12714436D02*
X18046015Y-12695388D01*
X18046015Y-12695388D02*
X18046015Y-12647769D01*
X18046015Y-12647769D02*
X18036491Y-12628722D01*
X18036491Y-12628722D02*
X18026968Y-12619198D01*
X18026968Y-12619198D02*
X18007920Y-12609674D01*
X18007920Y-12609674D02*
X17969825Y-12609674D01*
X17969825Y-12609674D02*
X17950777Y-12619198D01*
X17950777Y-12619198D02*
X17941253Y-12628722D01*
X17941253Y-12628722D02*
X17931730Y-12647769D01*
X18284111Y-12733484D02*
X18284111Y-12533484D01*
X18369825Y-12733484D02*
X18369825Y-12628722D01*
X18369825Y-12628722D02*
X18360301Y-12609674D01*
X18360301Y-12609674D02*
X18341253Y-12600150D01*
X18341253Y-12600150D02*
X18312682Y-12600150D01*
X18312682Y-12600150D02*
X18293634Y-12609674D01*
X18293634Y-12609674D02*
X18284111Y-12619198D01*
X18493634Y-12733484D02*
X18474587Y-12723960D01*
X18474587Y-12723960D02*
X18465063Y-12714436D01*
X18465063Y-12714436D02*
X18455539Y-12695388D01*
X18455539Y-12695388D02*
X18455539Y-12638246D01*
X18455539Y-12638246D02*
X18465063Y-12619198D01*
X18465063Y-12619198D02*
X18474587Y-12609674D01*
X18474587Y-12609674D02*
X18493634Y-12600150D01*
X18493634Y-12600150D02*
X18522206Y-12600150D01*
X18522206Y-12600150D02*
X18541253Y-12609674D01*
X18541253Y-12609674D02*
X18550777Y-12619198D01*
X18550777Y-12619198D02*
X18560301Y-12638246D01*
X18560301Y-12638246D02*
X18560301Y-12695388D01*
X18560301Y-12695388D02*
X18550777Y-12714436D01*
X18550777Y-12714436D02*
X18541253Y-12723960D01*
X18541253Y-12723960D02*
X18522206Y-12733484D01*
X18522206Y-12733484D02*
X18493634Y-12733484D01*
X18674587Y-12733484D02*
X18655539Y-12723960D01*
X18655539Y-12723960D02*
X18646015Y-12704912D01*
X18646015Y-12704912D02*
X18646015Y-12533484D01*
X18826968Y-12723960D02*
X18807920Y-12733484D01*
X18807920Y-12733484D02*
X18769825Y-12733484D01*
X18769825Y-12733484D02*
X18750777Y-12723960D01*
X18750777Y-12723960D02*
X18741253Y-12704912D01*
X18741253Y-12704912D02*
X18741253Y-12628722D01*
X18741253Y-12628722D02*
X18750777Y-12609674D01*
X18750777Y-12609674D02*
X18769825Y-12600150D01*
X18769825Y-12600150D02*
X18807920Y-12600150D01*
X18807920Y-12600150D02*
X18826968Y-12609674D01*
X18826968Y-12609674D02*
X18836492Y-12628722D01*
X18836492Y-12628722D02*
X18836492Y-12647769D01*
X18836492Y-12647769D02*
X18741253Y-12666817D01*
X18912682Y-12723960D02*
X18931730Y-12733484D01*
X18931730Y-12733484D02*
X18969825Y-12733484D01*
X18969825Y-12733484D02*
X18988873Y-12723960D01*
X18988873Y-12723960D02*
X18998396Y-12704912D01*
X18998396Y-12704912D02*
X18998396Y-12695388D01*
X18998396Y-12695388D02*
X18988873Y-12676341D01*
X18988873Y-12676341D02*
X18969825Y-12666817D01*
X18969825Y-12666817D02*
X18941253Y-12666817D01*
X18941253Y-12666817D02*
X18922206Y-12657293D01*
X18922206Y-12657293D02*
X18912682Y-12638246D01*
X18912682Y-12638246D02*
X18912682Y-12628722D01*
X18912682Y-12628722D02*
X18922206Y-12609674D01*
X18922206Y-12609674D02*
X18941253Y-12600150D01*
X18941253Y-12600150D02*
X18969825Y-12600150D01*
X18969825Y-12600150D02*
X18988873Y-12609674D01*
X19065063Y-12809674D02*
X19074587Y-12800150D01*
X19074587Y-12800150D02*
X19093634Y-12771579D01*
X19093634Y-12771579D02*
X19103158Y-12752531D01*
X19103158Y-12752531D02*
X19112682Y-12723960D01*
X19112682Y-12723960D02*
X19122206Y-12676341D01*
X19122206Y-12676341D02*
X19122206Y-12638246D01*
X19122206Y-12638246D02*
X19112682Y-12590627D01*
X19112682Y-12590627D02*
X19103158Y-12562055D01*
X19103158Y-12562055D02*
X19093634Y-12543008D01*
X19093634Y-12543008D02*
X19074587Y-12514436D01*
X19074587Y-12514436D02*
X19065063Y-12504912D01*
D11*
X14244280Y-12951720D02*
X14290000Y-12906000D01*
X14244280Y-12860280D01*
X14198560Y-12906000D01*
X14244280Y-12951720D01*
D10*
X14588872Y-12797484D02*
X14607920Y-12797484D01*
X14607920Y-12797484D02*
X14626967Y-12807008D01*
X14626967Y-12807008D02*
X14636491Y-12816531D01*
X14636491Y-12816531D02*
X14646015Y-12835579D01*
X14646015Y-12835579D02*
X14655539Y-12873674D01*
X14655539Y-12873674D02*
X14655539Y-12921293D01*
X14655539Y-12921293D02*
X14646015Y-12959388D01*
X14646015Y-12959388D02*
X14636491Y-12978436D01*
X14636491Y-12978436D02*
X14626967Y-12987960D01*
X14626967Y-12987960D02*
X14607920Y-12997484D01*
X14607920Y-12997484D02*
X14588872Y-12997484D01*
X14588872Y-12997484D02*
X14569824Y-12987960D01*
X14569824Y-12987960D02*
X14560301Y-12978436D01*
X14560301Y-12978436D02*
X14550777Y-12959388D01*
X14550777Y-12959388D02*
X14541253Y-12921293D01*
X14541253Y-12921293D02*
X14541253Y-12873674D01*
X14541253Y-12873674D02*
X14550777Y-12835579D01*
X14550777Y-12835579D02*
X14560301Y-12816531D01*
X14560301Y-12816531D02*
X14569824Y-12807008D01*
X14569824Y-12807008D02*
X14588872Y-12797484D01*
X14741253Y-12978436D02*
X14750777Y-12987960D01*
X14750777Y-12987960D02*
X14741253Y-12997484D01*
X14741253Y-12997484D02*
X14731729Y-12987960D01*
X14731729Y-12987960D02*
X14741253Y-12978436D01*
X14741253Y-12978436D02*
X14741253Y-12997484D01*
X14846015Y-12997484D02*
X14884110Y-12997484D01*
X14884110Y-12997484D02*
X14903158Y-12987960D01*
X14903158Y-12987960D02*
X14912682Y-12978436D01*
X14912682Y-12978436D02*
X14931729Y-12949865D01*
X14931729Y-12949865D02*
X14941253Y-12911769D01*
X14941253Y-12911769D02*
X14941253Y-12835579D01*
X14941253Y-12835579D02*
X14931729Y-12816531D01*
X14931729Y-12816531D02*
X14922205Y-12807008D01*
X14922205Y-12807008D02*
X14903158Y-12797484D01*
X14903158Y-12797484D02*
X14865062Y-12797484D01*
X14865062Y-12797484D02*
X14846015Y-12807008D01*
X14846015Y-12807008D02*
X14836491Y-12816531D01*
X14836491Y-12816531D02*
X14826967Y-12835579D01*
X14826967Y-12835579D02*
X14826967Y-12883198D01*
X14826967Y-12883198D02*
X14836491Y-12902246D01*
X14836491Y-12902246D02*
X14846015Y-12911769D01*
X14846015Y-12911769D02*
X14865062Y-12921293D01*
X14865062Y-12921293D02*
X14903158Y-12921293D01*
X14903158Y-12921293D02*
X14922205Y-12911769D01*
X14922205Y-12911769D02*
X14931729Y-12902246D01*
X14931729Y-12902246D02*
X14941253Y-12883198D01*
X15131729Y-12997484D02*
X15017443Y-12997484D01*
X15074586Y-12997484D02*
X15074586Y-12797484D01*
X15074586Y-12797484D02*
X15055539Y-12826055D01*
X15055539Y-12826055D02*
X15036491Y-12845103D01*
X15036491Y-12845103D02*
X15017443Y-12854627D01*
X15303158Y-12864150D02*
X15303158Y-12997484D01*
X15255539Y-12787960D02*
X15207920Y-12930817D01*
X15207920Y-12930817D02*
X15331729Y-12930817D01*
X15407920Y-12997484D02*
X15407920Y-12864150D01*
X15407920Y-12883198D02*
X15417443Y-12873674D01*
X15417443Y-12873674D02*
X15436491Y-12864150D01*
X15436491Y-12864150D02*
X15465063Y-12864150D01*
X15465063Y-12864150D02*
X15484110Y-12873674D01*
X15484110Y-12873674D02*
X15493634Y-12892722D01*
X15493634Y-12892722D02*
X15493634Y-12997484D01*
X15493634Y-12892722D02*
X15503158Y-12873674D01*
X15503158Y-12873674D02*
X15522205Y-12864150D01*
X15522205Y-12864150D02*
X15550777Y-12864150D01*
X15550777Y-12864150D02*
X15569824Y-12873674D01*
X15569824Y-12873674D02*
X15579348Y-12892722D01*
X15579348Y-12892722D02*
X15579348Y-12997484D01*
X15674586Y-12997484D02*
X15674586Y-12864150D01*
X15674586Y-12883198D02*
X15684110Y-12873674D01*
X15684110Y-12873674D02*
X15703158Y-12864150D01*
X15703158Y-12864150D02*
X15731729Y-12864150D01*
X15731729Y-12864150D02*
X15750777Y-12873674D01*
X15750777Y-12873674D02*
X15760301Y-12892722D01*
X15760301Y-12892722D02*
X15760301Y-12997484D01*
X15760301Y-12892722D02*
X15769824Y-12873674D01*
X15769824Y-12873674D02*
X15788872Y-12864150D01*
X15788872Y-12864150D02*
X15817443Y-12864150D01*
X15817443Y-12864150D02*
X15836491Y-12873674D01*
X15836491Y-12873674D02*
X15846015Y-12892722D01*
X15846015Y-12892722D02*
X15846015Y-12997484D01*
X16236491Y-12787960D02*
X16065063Y-13045103D01*
X16493634Y-12797484D02*
X16512682Y-12797484D01*
X16512682Y-12797484D02*
X16531729Y-12807008D01*
X16531729Y-12807008D02*
X16541253Y-12816531D01*
X16541253Y-12816531D02*
X16550777Y-12835579D01*
X16550777Y-12835579D02*
X16560301Y-12873674D01*
X16560301Y-12873674D02*
X16560301Y-12921293D01*
X16560301Y-12921293D02*
X16550777Y-12959388D01*
X16550777Y-12959388D02*
X16541253Y-12978436D01*
X16541253Y-12978436D02*
X16531729Y-12987960D01*
X16531729Y-12987960D02*
X16512682Y-12997484D01*
X16512682Y-12997484D02*
X16493634Y-12997484D01*
X16493634Y-12997484D02*
X16474586Y-12987960D01*
X16474586Y-12987960D02*
X16465063Y-12978436D01*
X16465063Y-12978436D02*
X16455539Y-12959388D01*
X16455539Y-12959388D02*
X16446015Y-12921293D01*
X16446015Y-12921293D02*
X16446015Y-12873674D01*
X16446015Y-12873674D02*
X16455539Y-12835579D01*
X16455539Y-12835579D02*
X16465063Y-12816531D01*
X16465063Y-12816531D02*
X16474586Y-12807008D01*
X16474586Y-12807008D02*
X16493634Y-12797484D01*
X16646015Y-12978436D02*
X16655539Y-12987960D01*
X16655539Y-12987960D02*
X16646015Y-12997484D01*
X16646015Y-12997484D02*
X16636491Y-12987960D01*
X16636491Y-12987960D02*
X16646015Y-12978436D01*
X16646015Y-12978436D02*
X16646015Y-12997484D01*
X16779348Y-12797484D02*
X16798396Y-12797484D01*
X16798396Y-12797484D02*
X16817444Y-12807008D01*
X16817444Y-12807008D02*
X16826968Y-12816531D01*
X16826968Y-12816531D02*
X16836491Y-12835579D01*
X16836491Y-12835579D02*
X16846015Y-12873674D01*
X16846015Y-12873674D02*
X16846015Y-12921293D01*
X16846015Y-12921293D02*
X16836491Y-12959388D01*
X16836491Y-12959388D02*
X16826968Y-12978436D01*
X16826968Y-12978436D02*
X16817444Y-12987960D01*
X16817444Y-12987960D02*
X16798396Y-12997484D01*
X16798396Y-12997484D02*
X16779348Y-12997484D01*
X16779348Y-12997484D02*
X16760301Y-12987960D01*
X16760301Y-12987960D02*
X16750777Y-12978436D01*
X16750777Y-12978436D02*
X16741253Y-12959388D01*
X16741253Y-12959388D02*
X16731729Y-12921293D01*
X16731729Y-12921293D02*
X16731729Y-12873674D01*
X16731729Y-12873674D02*
X16741253Y-12835579D01*
X16741253Y-12835579D02*
X16750777Y-12816531D01*
X16750777Y-12816531D02*
X16760301Y-12807008D01*
X16760301Y-12807008D02*
X16779348Y-12797484D01*
X16912682Y-12797484D02*
X17036491Y-12797484D01*
X17036491Y-12797484D02*
X16969825Y-12873674D01*
X16969825Y-12873674D02*
X16998396Y-12873674D01*
X16998396Y-12873674D02*
X17017444Y-12883198D01*
X17017444Y-12883198D02*
X17026968Y-12892722D01*
X17026968Y-12892722D02*
X17036491Y-12911769D01*
X17036491Y-12911769D02*
X17036491Y-12959388D01*
X17036491Y-12959388D02*
X17026968Y-12978436D01*
X17026968Y-12978436D02*
X17017444Y-12987960D01*
X17017444Y-12987960D02*
X16998396Y-12997484D01*
X16998396Y-12997484D02*
X16941253Y-12997484D01*
X16941253Y-12997484D02*
X16922206Y-12987960D01*
X16922206Y-12987960D02*
X16912682Y-12978436D01*
X17207920Y-12797484D02*
X17169825Y-12797484D01*
X17169825Y-12797484D02*
X17150777Y-12807008D01*
X17150777Y-12807008D02*
X17141253Y-12816531D01*
X17141253Y-12816531D02*
X17122206Y-12845103D01*
X17122206Y-12845103D02*
X17112682Y-12883198D01*
X17112682Y-12883198D02*
X17112682Y-12959388D01*
X17112682Y-12959388D02*
X17122206Y-12978436D01*
X17122206Y-12978436D02*
X17131729Y-12987960D01*
X17131729Y-12987960D02*
X17150777Y-12997484D01*
X17150777Y-12997484D02*
X17188872Y-12997484D01*
X17188872Y-12997484D02*
X17207920Y-12987960D01*
X17207920Y-12987960D02*
X17217444Y-12978436D01*
X17217444Y-12978436D02*
X17226968Y-12959388D01*
X17226968Y-12959388D02*
X17226968Y-12911769D01*
X17226968Y-12911769D02*
X17217444Y-12892722D01*
X17217444Y-12892722D02*
X17207920Y-12883198D01*
X17207920Y-12883198D02*
X17188872Y-12873674D01*
X17188872Y-12873674D02*
X17150777Y-12873674D01*
X17150777Y-12873674D02*
X17131729Y-12883198D01*
X17131729Y-12883198D02*
X17122206Y-12892722D01*
X17122206Y-12892722D02*
X17112682Y-12911769D01*
X17350777Y-12797484D02*
X17369825Y-12797484D01*
X17369825Y-12797484D02*
X17388872Y-12807008D01*
X17388872Y-12807008D02*
X17398396Y-12816531D01*
X17398396Y-12816531D02*
X17407920Y-12835579D01*
X17407920Y-12835579D02*
X17417444Y-12873674D01*
X17417444Y-12873674D02*
X17417444Y-12921293D01*
X17417444Y-12921293D02*
X17407920Y-12959388D01*
X17407920Y-12959388D02*
X17398396Y-12978436D01*
X17398396Y-12978436D02*
X17388872Y-12987960D01*
X17388872Y-12987960D02*
X17369825Y-12997484D01*
X17369825Y-12997484D02*
X17350777Y-12997484D01*
X17350777Y-12997484D02*
X17331729Y-12987960D01*
X17331729Y-12987960D02*
X17322206Y-12978436D01*
X17322206Y-12978436D02*
X17312682Y-12959388D01*
X17312682Y-12959388D02*
X17303158Y-12921293D01*
X17303158Y-12921293D02*
X17303158Y-12873674D01*
X17303158Y-12873674D02*
X17312682Y-12835579D01*
X17312682Y-12835579D02*
X17322206Y-12816531D01*
X17322206Y-12816531D02*
X17331729Y-12807008D01*
X17331729Y-12807008D02*
X17350777Y-12797484D01*
X17493634Y-12797484D02*
X17493634Y-12835579D01*
X17569825Y-12797484D02*
X17569825Y-12835579D01*
X17865063Y-13073674D02*
X17855539Y-13064150D01*
X17855539Y-13064150D02*
X17836491Y-13035579D01*
X17836491Y-13035579D02*
X17826968Y-13016531D01*
X17826968Y-13016531D02*
X17817444Y-12987960D01*
X17817444Y-12987960D02*
X17807920Y-12940341D01*
X17807920Y-12940341D02*
X17807920Y-12902246D01*
X17807920Y-12902246D02*
X17817444Y-12854627D01*
X17817444Y-12854627D02*
X17826968Y-12826055D01*
X17826968Y-12826055D02*
X17836491Y-12807008D01*
X17836491Y-12807008D02*
X17855539Y-12778436D01*
X17855539Y-12778436D02*
X17865063Y-12768912D01*
X18046015Y-12997484D02*
X17931730Y-12997484D01*
X17988872Y-12997484D02*
X17988872Y-12797484D01*
X17988872Y-12797484D02*
X17969825Y-12826055D01*
X17969825Y-12826055D02*
X17950777Y-12845103D01*
X17950777Y-12845103D02*
X17931730Y-12854627D01*
X18112682Y-12797484D02*
X18236491Y-12797484D01*
X18236491Y-12797484D02*
X18169825Y-12873674D01*
X18169825Y-12873674D02*
X18198396Y-12873674D01*
X18198396Y-12873674D02*
X18217444Y-12883198D01*
X18217444Y-12883198D02*
X18226968Y-12892722D01*
X18226968Y-12892722D02*
X18236491Y-12911769D01*
X18236491Y-12911769D02*
X18236491Y-12959388D01*
X18236491Y-12959388D02*
X18226968Y-12978436D01*
X18226968Y-12978436D02*
X18217444Y-12987960D01*
X18217444Y-12987960D02*
X18198396Y-12997484D01*
X18198396Y-12997484D02*
X18141253Y-12997484D01*
X18141253Y-12997484D02*
X18122206Y-12987960D01*
X18122206Y-12987960D02*
X18112682Y-12978436D01*
X18474587Y-12997484D02*
X18474587Y-12797484D01*
X18560301Y-12997484D02*
X18560301Y-12892722D01*
X18560301Y-12892722D02*
X18550777Y-12873674D01*
X18550777Y-12873674D02*
X18531730Y-12864150D01*
X18531730Y-12864150D02*
X18503158Y-12864150D01*
X18503158Y-12864150D02*
X18484111Y-12873674D01*
X18484111Y-12873674D02*
X18474587Y-12883198D01*
X18684111Y-12997484D02*
X18665063Y-12987960D01*
X18665063Y-12987960D02*
X18655539Y-12978436D01*
X18655539Y-12978436D02*
X18646015Y-12959388D01*
X18646015Y-12959388D02*
X18646015Y-12902246D01*
X18646015Y-12902246D02*
X18655539Y-12883198D01*
X18655539Y-12883198D02*
X18665063Y-12873674D01*
X18665063Y-12873674D02*
X18684111Y-12864150D01*
X18684111Y-12864150D02*
X18712682Y-12864150D01*
X18712682Y-12864150D02*
X18731730Y-12873674D01*
X18731730Y-12873674D02*
X18741253Y-12883198D01*
X18741253Y-12883198D02*
X18750777Y-12902246D01*
X18750777Y-12902246D02*
X18750777Y-12959388D01*
X18750777Y-12959388D02*
X18741253Y-12978436D01*
X18741253Y-12978436D02*
X18731730Y-12987960D01*
X18731730Y-12987960D02*
X18712682Y-12997484D01*
X18712682Y-12997484D02*
X18684111Y-12997484D01*
X18865063Y-12997484D02*
X18846015Y-12987960D01*
X18846015Y-12987960D02*
X18836492Y-12968912D01*
X18836492Y-12968912D02*
X18836492Y-12797484D01*
X19017444Y-12987960D02*
X18998396Y-12997484D01*
X18998396Y-12997484D02*
X18960301Y-12997484D01*
X18960301Y-12997484D02*
X18941253Y-12987960D01*
X18941253Y-12987960D02*
X18931730Y-12968912D01*
X18931730Y-12968912D02*
X18931730Y-12892722D01*
X18931730Y-12892722D02*
X18941253Y-12873674D01*
X18941253Y-12873674D02*
X18960301Y-12864150D01*
X18960301Y-12864150D02*
X18998396Y-12864150D01*
X18998396Y-12864150D02*
X19017444Y-12873674D01*
X19017444Y-12873674D02*
X19026968Y-12892722D01*
X19026968Y-12892722D02*
X19026968Y-12911769D01*
X19026968Y-12911769D02*
X18931730Y-12930817D01*
X19103158Y-12987960D02*
X19122206Y-12997484D01*
X19122206Y-12997484D02*
X19160301Y-12997484D01*
X19160301Y-12997484D02*
X19179349Y-12987960D01*
X19179349Y-12987960D02*
X19188873Y-12968912D01*
X19188873Y-12968912D02*
X19188873Y-12959388D01*
X19188873Y-12959388D02*
X19179349Y-12940341D01*
X19179349Y-12940341D02*
X19160301Y-12930817D01*
X19160301Y-12930817D02*
X19131730Y-12930817D01*
X19131730Y-12930817D02*
X19112682Y-12921293D01*
X19112682Y-12921293D02*
X19103158Y-12902246D01*
X19103158Y-12902246D02*
X19103158Y-12892722D01*
X19103158Y-12892722D02*
X19112682Y-12873674D01*
X19112682Y-12873674D02*
X19131730Y-12864150D01*
X19131730Y-12864150D02*
X19160301Y-12864150D01*
X19160301Y-12864150D02*
X19179349Y-12873674D01*
X19255539Y-13073674D02*
X19265063Y-13064150D01*
X19265063Y-13064150D02*
X19284111Y-13035579D01*
X19284111Y-13035579D02*
X19293634Y-13016531D01*
X19293634Y-13016531D02*
X19303158Y-12987960D01*
X19303158Y-12987960D02*
X19312682Y-12940341D01*
X19312682Y-12940341D02*
X19312682Y-12902246D01*
X19312682Y-12902246D02*
X19303158Y-12854627D01*
X19303158Y-12854627D02*
X19293634Y-12826055D01*
X19293634Y-12826055D02*
X19284111Y-12807008D01*
X19284111Y-12807008D02*
X19265063Y-12778436D01*
X19265063Y-12778436D02*
X19255539Y-12768912D01*
D11*
X14190000Y-13120000D02*
X14290000Y-13220000D01*
X14290000Y-13120000D02*
X14190000Y-13220000D01*
X14290000Y-13170000D02*
G75*
G02*
X14190000Y-13170000I-50000J0D01*
G01*
X14190000Y-13170000D02*
G75*
G02*
X14290000Y-13170000I50000J0D01*
G01*
D10*
X14655539Y-13261484D02*
X14541253Y-13261484D01*
X14598396Y-13261484D02*
X14598396Y-13061484D01*
X14598396Y-13061484D02*
X14579348Y-13090055D01*
X14579348Y-13090055D02*
X14560301Y-13109103D01*
X14560301Y-13109103D02*
X14541253Y-13118627D01*
X14741253Y-13242436D02*
X14750777Y-13251960D01*
X14750777Y-13251960D02*
X14741253Y-13261484D01*
X14741253Y-13261484D02*
X14731729Y-13251960D01*
X14731729Y-13251960D02*
X14741253Y-13242436D01*
X14741253Y-13242436D02*
X14741253Y-13261484D01*
X14874586Y-13061484D02*
X14893634Y-13061484D01*
X14893634Y-13061484D02*
X14912682Y-13071008D01*
X14912682Y-13071008D02*
X14922205Y-13080531D01*
X14922205Y-13080531D02*
X14931729Y-13099579D01*
X14931729Y-13099579D02*
X14941253Y-13137674D01*
X14941253Y-13137674D02*
X14941253Y-13185293D01*
X14941253Y-13185293D02*
X14931729Y-13223388D01*
X14931729Y-13223388D02*
X14922205Y-13242436D01*
X14922205Y-13242436D02*
X14912682Y-13251960D01*
X14912682Y-13251960D02*
X14893634Y-13261484D01*
X14893634Y-13261484D02*
X14874586Y-13261484D01*
X14874586Y-13261484D02*
X14855539Y-13251960D01*
X14855539Y-13251960D02*
X14846015Y-13242436D01*
X14846015Y-13242436D02*
X14836491Y-13223388D01*
X14836491Y-13223388D02*
X14826967Y-13185293D01*
X14826967Y-13185293D02*
X14826967Y-13137674D01*
X14826967Y-13137674D02*
X14836491Y-13099579D01*
X14836491Y-13099579D02*
X14846015Y-13080531D01*
X14846015Y-13080531D02*
X14855539Y-13071008D01*
X14855539Y-13071008D02*
X14874586Y-13061484D01*
X15065062Y-13061484D02*
X15084110Y-13061484D01*
X15084110Y-13061484D02*
X15103158Y-13071008D01*
X15103158Y-13071008D02*
X15112682Y-13080531D01*
X15112682Y-13080531D02*
X15122205Y-13099579D01*
X15122205Y-13099579D02*
X15131729Y-13137674D01*
X15131729Y-13137674D02*
X15131729Y-13185293D01*
X15131729Y-13185293D02*
X15122205Y-13223388D01*
X15122205Y-13223388D02*
X15112682Y-13242436D01*
X15112682Y-13242436D02*
X15103158Y-13251960D01*
X15103158Y-13251960D02*
X15084110Y-13261484D01*
X15084110Y-13261484D02*
X15065062Y-13261484D01*
X15065062Y-13261484D02*
X15046015Y-13251960D01*
X15046015Y-13251960D02*
X15036491Y-13242436D01*
X15036491Y-13242436D02*
X15026967Y-13223388D01*
X15026967Y-13223388D02*
X15017443Y-13185293D01*
X15017443Y-13185293D02*
X15017443Y-13137674D01*
X15017443Y-13137674D02*
X15026967Y-13099579D01*
X15026967Y-13099579D02*
X15036491Y-13080531D01*
X15036491Y-13080531D02*
X15046015Y-13071008D01*
X15046015Y-13071008D02*
X15065062Y-13061484D01*
X15255539Y-13061484D02*
X15274586Y-13061484D01*
X15274586Y-13061484D02*
X15293634Y-13071008D01*
X15293634Y-13071008D02*
X15303158Y-13080531D01*
X15303158Y-13080531D02*
X15312682Y-13099579D01*
X15312682Y-13099579D02*
X15322205Y-13137674D01*
X15322205Y-13137674D02*
X15322205Y-13185293D01*
X15322205Y-13185293D02*
X15312682Y-13223388D01*
X15312682Y-13223388D02*
X15303158Y-13242436D01*
X15303158Y-13242436D02*
X15293634Y-13251960D01*
X15293634Y-13251960D02*
X15274586Y-13261484D01*
X15274586Y-13261484D02*
X15255539Y-13261484D01*
X15255539Y-13261484D02*
X15236491Y-13251960D01*
X15236491Y-13251960D02*
X15226967Y-13242436D01*
X15226967Y-13242436D02*
X15217443Y-13223388D01*
X15217443Y-13223388D02*
X15207920Y-13185293D01*
X15207920Y-13185293D02*
X15207920Y-13137674D01*
X15207920Y-13137674D02*
X15217443Y-13099579D01*
X15217443Y-13099579D02*
X15226967Y-13080531D01*
X15226967Y-13080531D02*
X15236491Y-13071008D01*
X15236491Y-13071008D02*
X15255539Y-13061484D01*
X15407920Y-13261484D02*
X15407920Y-13128150D01*
X15407920Y-13147198D02*
X15417443Y-13137674D01*
X15417443Y-13137674D02*
X15436491Y-13128150D01*
X15436491Y-13128150D02*
X15465063Y-13128150D01*
X15465063Y-13128150D02*
X15484110Y-13137674D01*
X15484110Y-13137674D02*
X15493634Y-13156722D01*
X15493634Y-13156722D02*
X15493634Y-13261484D01*
X15493634Y-13156722D02*
X15503158Y-13137674D01*
X15503158Y-13137674D02*
X15522205Y-13128150D01*
X15522205Y-13128150D02*
X15550777Y-13128150D01*
X15550777Y-13128150D02*
X15569824Y-13137674D01*
X15569824Y-13137674D02*
X15579348Y-13156722D01*
X15579348Y-13156722D02*
X15579348Y-13261484D01*
X15674586Y-13261484D02*
X15674586Y-13128150D01*
X15674586Y-13147198D02*
X15684110Y-13137674D01*
X15684110Y-13137674D02*
X15703158Y-13128150D01*
X15703158Y-13128150D02*
X15731729Y-13128150D01*
X15731729Y-13128150D02*
X15750777Y-13137674D01*
X15750777Y-13137674D02*
X15760301Y-13156722D01*
X15760301Y-13156722D02*
X15760301Y-13261484D01*
X15760301Y-13156722D02*
X15769824Y-13137674D01*
X15769824Y-13137674D02*
X15788872Y-13128150D01*
X15788872Y-13128150D02*
X15817443Y-13128150D01*
X15817443Y-13128150D02*
X15836491Y-13137674D01*
X15836491Y-13137674D02*
X15846015Y-13156722D01*
X15846015Y-13156722D02*
X15846015Y-13261484D01*
X16236491Y-13051960D02*
X16065063Y-13309103D01*
X16493634Y-13061484D02*
X16512682Y-13061484D01*
X16512682Y-13061484D02*
X16531729Y-13071008D01*
X16531729Y-13071008D02*
X16541253Y-13080531D01*
X16541253Y-13080531D02*
X16550777Y-13099579D01*
X16550777Y-13099579D02*
X16560301Y-13137674D01*
X16560301Y-13137674D02*
X16560301Y-13185293D01*
X16560301Y-13185293D02*
X16550777Y-13223388D01*
X16550777Y-13223388D02*
X16541253Y-13242436D01*
X16541253Y-13242436D02*
X16531729Y-13251960D01*
X16531729Y-13251960D02*
X16512682Y-13261484D01*
X16512682Y-13261484D02*
X16493634Y-13261484D01*
X16493634Y-13261484D02*
X16474586Y-13251960D01*
X16474586Y-13251960D02*
X16465063Y-13242436D01*
X16465063Y-13242436D02*
X16455539Y-13223388D01*
X16455539Y-13223388D02*
X16446015Y-13185293D01*
X16446015Y-13185293D02*
X16446015Y-13137674D01*
X16446015Y-13137674D02*
X16455539Y-13099579D01*
X16455539Y-13099579D02*
X16465063Y-13080531D01*
X16465063Y-13080531D02*
X16474586Y-13071008D01*
X16474586Y-13071008D02*
X16493634Y-13061484D01*
X16646015Y-13242436D02*
X16655539Y-13251960D01*
X16655539Y-13251960D02*
X16646015Y-13261484D01*
X16646015Y-13261484D02*
X16636491Y-13251960D01*
X16636491Y-13251960D02*
X16646015Y-13242436D01*
X16646015Y-13242436D02*
X16646015Y-13261484D01*
X16779348Y-13061484D02*
X16798396Y-13061484D01*
X16798396Y-13061484D02*
X16817444Y-13071008D01*
X16817444Y-13071008D02*
X16826968Y-13080531D01*
X16826968Y-13080531D02*
X16836491Y-13099579D01*
X16836491Y-13099579D02*
X16846015Y-13137674D01*
X16846015Y-13137674D02*
X16846015Y-13185293D01*
X16846015Y-13185293D02*
X16836491Y-13223388D01*
X16836491Y-13223388D02*
X16826968Y-13242436D01*
X16826968Y-13242436D02*
X16817444Y-13251960D01*
X16817444Y-13251960D02*
X16798396Y-13261484D01*
X16798396Y-13261484D02*
X16779348Y-13261484D01*
X16779348Y-13261484D02*
X16760301Y-13251960D01*
X16760301Y-13251960D02*
X16750777Y-13242436D01*
X16750777Y-13242436D02*
X16741253Y-13223388D01*
X16741253Y-13223388D02*
X16731729Y-13185293D01*
X16731729Y-13185293D02*
X16731729Y-13137674D01*
X16731729Y-13137674D02*
X16741253Y-13099579D01*
X16741253Y-13099579D02*
X16750777Y-13080531D01*
X16750777Y-13080531D02*
X16760301Y-13071008D01*
X16760301Y-13071008D02*
X16779348Y-13061484D01*
X16912682Y-13061484D02*
X17036491Y-13061484D01*
X17036491Y-13061484D02*
X16969825Y-13137674D01*
X16969825Y-13137674D02*
X16998396Y-13137674D01*
X16998396Y-13137674D02*
X17017444Y-13147198D01*
X17017444Y-13147198D02*
X17026968Y-13156722D01*
X17026968Y-13156722D02*
X17036491Y-13175769D01*
X17036491Y-13175769D02*
X17036491Y-13223388D01*
X17036491Y-13223388D02*
X17026968Y-13242436D01*
X17026968Y-13242436D02*
X17017444Y-13251960D01*
X17017444Y-13251960D02*
X16998396Y-13261484D01*
X16998396Y-13261484D02*
X16941253Y-13261484D01*
X16941253Y-13261484D02*
X16922206Y-13251960D01*
X16922206Y-13251960D02*
X16912682Y-13242436D01*
X17131729Y-13261484D02*
X17169825Y-13261484D01*
X17169825Y-13261484D02*
X17188872Y-13251960D01*
X17188872Y-13251960D02*
X17198396Y-13242436D01*
X17198396Y-13242436D02*
X17217444Y-13213865D01*
X17217444Y-13213865D02*
X17226968Y-13175769D01*
X17226968Y-13175769D02*
X17226968Y-13099579D01*
X17226968Y-13099579D02*
X17217444Y-13080531D01*
X17217444Y-13080531D02*
X17207920Y-13071008D01*
X17207920Y-13071008D02*
X17188872Y-13061484D01*
X17188872Y-13061484D02*
X17150777Y-13061484D01*
X17150777Y-13061484D02*
X17131729Y-13071008D01*
X17131729Y-13071008D02*
X17122206Y-13080531D01*
X17122206Y-13080531D02*
X17112682Y-13099579D01*
X17112682Y-13099579D02*
X17112682Y-13147198D01*
X17112682Y-13147198D02*
X17122206Y-13166246D01*
X17122206Y-13166246D02*
X17131729Y-13175769D01*
X17131729Y-13175769D02*
X17150777Y-13185293D01*
X17150777Y-13185293D02*
X17188872Y-13185293D01*
X17188872Y-13185293D02*
X17207920Y-13175769D01*
X17207920Y-13175769D02*
X17217444Y-13166246D01*
X17217444Y-13166246D02*
X17226968Y-13147198D01*
X17398396Y-13128150D02*
X17398396Y-13261484D01*
X17350777Y-13051960D02*
X17303158Y-13194817D01*
X17303158Y-13194817D02*
X17426968Y-13194817D01*
X17493634Y-13061484D02*
X17493634Y-13099579D01*
X17569825Y-13061484D02*
X17569825Y-13099579D01*
X17865063Y-13337674D02*
X17855539Y-13328150D01*
X17855539Y-13328150D02*
X17836491Y-13299579D01*
X17836491Y-13299579D02*
X17826968Y-13280531D01*
X17826968Y-13280531D02*
X17817444Y-13251960D01*
X17817444Y-13251960D02*
X17807920Y-13204341D01*
X17807920Y-13204341D02*
X17807920Y-13166246D01*
X17807920Y-13166246D02*
X17817444Y-13118627D01*
X17817444Y-13118627D02*
X17826968Y-13090055D01*
X17826968Y-13090055D02*
X17836491Y-13071008D01*
X17836491Y-13071008D02*
X17855539Y-13042436D01*
X17855539Y-13042436D02*
X17865063Y-13032912D01*
X17922206Y-13061484D02*
X18046015Y-13061484D01*
X18046015Y-13061484D02*
X17979349Y-13137674D01*
X17979349Y-13137674D02*
X18007920Y-13137674D01*
X18007920Y-13137674D02*
X18026968Y-13147198D01*
X18026968Y-13147198D02*
X18036491Y-13156722D01*
X18036491Y-13156722D02*
X18046015Y-13175769D01*
X18046015Y-13175769D02*
X18046015Y-13223388D01*
X18046015Y-13223388D02*
X18036491Y-13242436D01*
X18036491Y-13242436D02*
X18026968Y-13251960D01*
X18026968Y-13251960D02*
X18007920Y-13261484D01*
X18007920Y-13261484D02*
X17950777Y-13261484D01*
X17950777Y-13261484D02*
X17931730Y-13251960D01*
X17931730Y-13251960D02*
X17922206Y-13242436D01*
X18169825Y-13061484D02*
X18188872Y-13061484D01*
X18188872Y-13061484D02*
X18207920Y-13071008D01*
X18207920Y-13071008D02*
X18217444Y-13080531D01*
X18217444Y-13080531D02*
X18226968Y-13099579D01*
X18226968Y-13099579D02*
X18236491Y-13137674D01*
X18236491Y-13137674D02*
X18236491Y-13185293D01*
X18236491Y-13185293D02*
X18226968Y-13223388D01*
X18226968Y-13223388D02*
X18217444Y-13242436D01*
X18217444Y-13242436D02*
X18207920Y-13251960D01*
X18207920Y-13251960D02*
X18188872Y-13261484D01*
X18188872Y-13261484D02*
X18169825Y-13261484D01*
X18169825Y-13261484D02*
X18150777Y-13251960D01*
X18150777Y-13251960D02*
X18141253Y-13242436D01*
X18141253Y-13242436D02*
X18131730Y-13223388D01*
X18131730Y-13223388D02*
X18122206Y-13185293D01*
X18122206Y-13185293D02*
X18122206Y-13137674D01*
X18122206Y-13137674D02*
X18131730Y-13099579D01*
X18131730Y-13099579D02*
X18141253Y-13080531D01*
X18141253Y-13080531D02*
X18150777Y-13071008D01*
X18150777Y-13071008D02*
X18169825Y-13061484D01*
X18474587Y-13261484D02*
X18474587Y-13061484D01*
X18560301Y-13261484D02*
X18560301Y-13156722D01*
X18560301Y-13156722D02*
X18550777Y-13137674D01*
X18550777Y-13137674D02*
X18531730Y-13128150D01*
X18531730Y-13128150D02*
X18503158Y-13128150D01*
X18503158Y-13128150D02*
X18484111Y-13137674D01*
X18484111Y-13137674D02*
X18474587Y-13147198D01*
X18684111Y-13261484D02*
X18665063Y-13251960D01*
X18665063Y-13251960D02*
X18655539Y-13242436D01*
X18655539Y-13242436D02*
X18646015Y-13223388D01*
X18646015Y-13223388D02*
X18646015Y-13166246D01*
X18646015Y-13166246D02*
X18655539Y-13147198D01*
X18655539Y-13147198D02*
X18665063Y-13137674D01*
X18665063Y-13137674D02*
X18684111Y-13128150D01*
X18684111Y-13128150D02*
X18712682Y-13128150D01*
X18712682Y-13128150D02*
X18731730Y-13137674D01*
X18731730Y-13137674D02*
X18741253Y-13147198D01*
X18741253Y-13147198D02*
X18750777Y-13166246D01*
X18750777Y-13166246D02*
X18750777Y-13223388D01*
X18750777Y-13223388D02*
X18741253Y-13242436D01*
X18741253Y-13242436D02*
X18731730Y-13251960D01*
X18731730Y-13251960D02*
X18712682Y-13261484D01*
X18712682Y-13261484D02*
X18684111Y-13261484D01*
X18865063Y-13261484D02*
X18846015Y-13251960D01*
X18846015Y-13251960D02*
X18836492Y-13232912D01*
X18836492Y-13232912D02*
X18836492Y-13061484D01*
X19017444Y-13251960D02*
X18998396Y-13261484D01*
X18998396Y-13261484D02*
X18960301Y-13261484D01*
X18960301Y-13261484D02*
X18941253Y-13251960D01*
X18941253Y-13251960D02*
X18931730Y-13232912D01*
X18931730Y-13232912D02*
X18931730Y-13156722D01*
X18931730Y-13156722D02*
X18941253Y-13137674D01*
X18941253Y-13137674D02*
X18960301Y-13128150D01*
X18960301Y-13128150D02*
X18998396Y-13128150D01*
X18998396Y-13128150D02*
X19017444Y-13137674D01*
X19017444Y-13137674D02*
X19026968Y-13156722D01*
X19026968Y-13156722D02*
X19026968Y-13175769D01*
X19026968Y-13175769D02*
X18931730Y-13194817D01*
X19103158Y-13251960D02*
X19122206Y-13261484D01*
X19122206Y-13261484D02*
X19160301Y-13261484D01*
X19160301Y-13261484D02*
X19179349Y-13251960D01*
X19179349Y-13251960D02*
X19188873Y-13232912D01*
X19188873Y-13232912D02*
X19188873Y-13223388D01*
X19188873Y-13223388D02*
X19179349Y-13204341D01*
X19179349Y-13204341D02*
X19160301Y-13194817D01*
X19160301Y-13194817D02*
X19131730Y-13194817D01*
X19131730Y-13194817D02*
X19112682Y-13185293D01*
X19112682Y-13185293D02*
X19103158Y-13166246D01*
X19103158Y-13166246D02*
X19103158Y-13156722D01*
X19103158Y-13156722D02*
X19112682Y-13137674D01*
X19112682Y-13137674D02*
X19131730Y-13128150D01*
X19131730Y-13128150D02*
X19160301Y-13128150D01*
X19160301Y-13128150D02*
X19179349Y-13137674D01*
X19255539Y-13337674D02*
X19265063Y-13328150D01*
X19265063Y-13328150D02*
X19284111Y-13299579D01*
X19284111Y-13299579D02*
X19293634Y-13280531D01*
X19293634Y-13280531D02*
X19303158Y-13251960D01*
X19303158Y-13251960D02*
X19312682Y-13204341D01*
X19312682Y-13204341D02*
X19312682Y-13166246D01*
X19312682Y-13166246D02*
X19303158Y-13118627D01*
X19303158Y-13118627D02*
X19293634Y-13090055D01*
X19293634Y-13090055D02*
X19284111Y-13071008D01*
X19284111Y-13071008D02*
X19265063Y-13042436D01*
X19265063Y-13042436D02*
X19255539Y-13032912D01*
M02*
