M48
; DRILL file {KiCad 9.0.0} date 2025-07-02T01:34:45-0300
; FORMAT={-:-/ absolute / inch / decimal}
; #@! TF.CreationDate,2025-07-02T01:34:45-03:00
; #@! TF.GenerationSoftware,Kicad,Pcbnew,9.0.0
; #@! TF.FileFunction,Plated,1,2,PTH
FMAT,2
INCH
; #@! TA.AperFunction,Plated,PTH,ComponentDrill
T1C0.0315
; #@! TA.AperFunction,Plated,PTH,ViaDrill
T2C0.0394
; #@! TA.AperFunction,Plated,PTH,ComponentDrill
T3C0.0394
; #@! TA.AperFunction,Plated,PTH,ComponentDrill
T4C0.0492
; #@! TA.AperFunction,Plated,PTH,ComponentDrill
T5C0.0551
; #@! TA.AperFunction,Plated,PTH,ComponentDrill
T6C0.0591
%
G90
G05
T1
X2.2689Y-3.1004
X2.6528Y-2.9035
X2.7559Y-2.7264
X2.8543Y-2.7264
X2.8689Y-3.1004
X3.1594Y-2.7264
X3.2528Y-2.9035
X3.2579Y-2.7264
X3.5583Y-2.9094
X3.5583Y-3.1024
X3.7894Y-2.7264
X3.8878Y-2.7264
X4.1583Y-2.9094
X4.1583Y-3.1024
X6.6535Y-2.315
X6.6535Y-3.315
X6.8406Y-2.315
X6.8406Y-3.315
X7.0276Y-2.315
X7.0276Y-3.315
X7.2146Y-2.315
X7.2146Y-3.315
X7.4016Y-2.315
X7.4016Y-3.315
T2
X2.8228Y-4.1102
X3.3898Y-4.1102
X3.9094Y-4.1102
X4.2008Y-2.5472
X4.3031Y-5.3346
X4.5292Y-5.3799
X4.5945Y-2.3661
X4.6677Y-3.2402
X4.7008Y-5.2963
X4.7638Y-3.315
X4.9882Y-2.378
X5.048Y-5.0945
X5.1102Y-2.7963
X5.1337Y-3.6687
X5.148Y-4.9665
X5.248Y-3.9685
X5.252Y-3.6811
X5.4921Y-3.3563
X5.5354Y-2.6614
X5.5354Y-2.7638
X5.5433Y-2.8661
X5.5591Y-3.9685
X5.6378Y-2.7244
X5.6963Y-2.2768
X5.8043Y-3.3997
X5.8169Y-3.7205
X5.874Y-4.748
X5.874Y-5.1634
X5.8937Y-3.3386
X5.9173Y-3.1693
X5.9449Y-3.6811
X5.9764Y-2.8487
X6.0Y-2.5512
X6.0079Y-2.3228
X6.0197Y-2.7488
X6.0391Y-3.6277
T3
X2.3317Y-4.1037
X2.3317Y-4.2037
X2.4317Y-4.1037
X2.4317Y-4.2037
X2.5197Y-3.4909
X2.5197Y-3.5909
X2.5197Y-3.6909
X2.5197Y-3.7909
X2.5317Y-4.1037
X2.5317Y-4.2037
X2.6303Y-4.438
X2.6929Y-4.8478
X2.6929Y-4.9478
X2.7303Y-4.438
X2.761Y-2.5461
X2.7875Y-3.2795
X2.7875Y-3.9795
X2.861Y-2.5461
X3.1626Y-2.5461
X3.2626Y-2.5461
X3.586Y-2.5461
X3.686Y-2.5461
X3.786Y-2.5461
X3.8189Y-4.6037
X3.8189Y-4.7037
X3.8189Y-4.8037
X3.8189Y-4.9037
X3.8189Y-5.0037
X3.8189Y-5.1037
X3.8189Y-5.2037
X4.157Y-4.7106
X4.157Y-4.8106
X4.157Y-4.9106
X4.157Y-5.0106
X4.157Y-5.1106
X4.157Y-5.2106
X4.3375Y-3.2795
X4.3375Y-3.9795
X4.557Y-4.7106
X4.557Y-4.8106
X4.557Y-4.9106
X4.557Y-5.0106
X4.557Y-5.1106
X4.557Y-5.2106
X4.8086Y-2.3622
X4.8086Y-2.4622
X4.8086Y-2.5622
X4.8086Y-2.6622
X4.8086Y-2.7622
X4.8086Y-2.8622
X4.8086Y-2.9622
X4.8086Y-3.0622
X4.8086Y-3.1622
X4.848Y-5.237
X4.9086Y-3.1622
X4.948Y-5.237
X5.0086Y-3.1622
X5.048Y-5.237
X5.1086Y-3.1622
X5.148Y-5.237
X5.2086Y-3.1622
X5.248Y-5.237
X5.3086Y-3.1622
X5.4086Y-2.3622
X5.4086Y-2.4622
X5.4086Y-2.5622
X5.4086Y-2.6622
X5.4086Y-2.7622
X5.4086Y-2.8622
X5.4086Y-2.9622
X5.4086Y-3.0622
X5.4086Y-3.1622
X5.5614Y-4.6764
X5.5614Y-4.7764
X5.5614Y-4.8764
X5.5614Y-4.9764
X5.6614Y-4.6764
X5.6614Y-4.7764
X5.6614Y-4.8764
X5.6614Y-4.9764
X5.8222Y-2.5487
X5.8222Y-2.6487
X5.8222Y-2.7487
X5.8222Y-2.8487
X5.8222Y-2.9487
X5.8222Y-3.0487
T4
X6.4522Y-2.7298
X6.4522Y-2.8676
T5
X7.7638Y-3.3039
X7.7638Y-3.5039
X7.7668Y-4.7622
X7.7668Y-4.9622
T6
X7.2362Y-4.3564
X7.2362Y-4.5564
X7.2362Y-4.7564
X7.2362Y-4.9564
M30
