  0
SECTION
  2
HEADER
  9
$ACADVER
  1
AC1015
  9
$ACADMAINTVER
 70
     6
  9
$DWGCODEPAGE
  3
ANSI_1252
  9
$INSBASE
 10
0.0
 20
0.0
 30
0.0
  9
$EXTMIN
 10
-858.3210717631
 20
695.5835318353
 30
0.0
  9
$EXTMAX
 10
-6.7569264688
 20
1339.7835318353
 30
0.0
  9
$LIMMIN
 10
0.0
 20
0.0
  9
$LIMMAX
 10
420.0
 20
297.0
  9
$ORTHOMODE
 70
     0
  9
$REGENMODE
 70
     1
  9
$FILLMODE
 70
     1
  9
$QTEXTMODE
 70
     0
  9
$MIRRTEXT
 70
     1
  9
$LTSCALE
 40
1.0
  9
$ATTMODE
 70
     1
  9
$TEXTSIZE
 40
3.5
  9
$TRACEWID
 40
1.0
  9
$TEXTSTYLE
  7
Standard
  9
$CLAYER
  8
0
  9
$CELTYPE
  6
ByLayer
  9
$CECOLOR
 62
   256
  9
$CELTSCALE
 40
1.0
  9
$DISPSILH
 70
     0
  9
$DIMSCALE
 40
1.0
  9
$DIMASZ
 40
3.302
  9
$DIMEXO
 40
0.0
  9
$DIMDLI
 40
3.75
  9
$DIMRND
 40
0.0
  9
$DIMDLE
 40
0.0
  9
$DIMEXE
 40
1.0
  9
$DIMTP
 40
0.0
  9
$DIMTM
 40
0.0
  9
$DIMTXT
 40
3.5
  9
$DIMCEN
 40
2.5
  9
$DIMTSZ
 40
0.0
  9
$DIMTOL
 70
     0
  9
$DIMLIM
 70
     0
  9
$DIMTIH
 70
     1
  9
$DIMTOH
 70
     1
  9
$DIMSE1
 70
     0
  9
$DIMSE2
 70
     0
  9
$DIMTAD
 70
     1
  9
$DIMZIN
 70
     1
  9
$DIMBLK
  1

  9
$DIMASO
 70
     1
  9
$DIMSHO
 70
     1
  9
$DIMPOST
  1

  9
$DIMAPOST
  1

  9
$DIMALT
 70
     0
  9
$DIMALTD
 70
     3
  9
$DIMALTF
 40
0.0393700787
  9
$DIMLFAC
 40
1.0
  9
$DIMTOFL
 70
     1
  9
$DIMTVP
 40
0.0
  9
$DIMTIX
 70
     0
  9
$DIMSOXD
 70
     0
  9
$DIMSAH
 70
     0
  9
$DIMBLK1
  1

  9
$DIMBLK2
  1

  9
$DIMSTYLE
  2
ISO-25
  9
$DIMCLRD
 70
     0
  9
$DIMCLRE
 70
     0
  9
$DIMCLRT
 70
     0
  9
$DIMTFAC
 40
1.0
  9
$DIMGAP
 40
1.524
  9
$DIMJUST
 70
     0
  9
$DIMSD1
 70
     0
  9
$DIMSD2
 70
     0
  9
$DIMTOLJ
 70
     0
  9
$DIMTZIN
 70
     1
  9
$DIMALTZ
 70
     0
  9
$DIMALTTZ
 70
     0
  9
$DIMUPT
 70
     0
  9
$DIMDEC
 70
     2
  9
$DIMTDEC
 70
     2
  9
$DIMALTU
 70
     2
  9
$DIMALTTD
 70
     3
  9
$DIMTXSTY
  7
Standard
  9
$DIMAUNIT
 70
     0
  9
$DIMADEC
 70
     2
  9
$DIMALTRND
 40
0.0
  9
$DIMAZIN
 70
     0
  9
$DIMDSEP
 70
    44
  9
$DIMATFIT
 70
     3
  9
$DIMFRAC
 70
     0
  9
$DIMLDRBLK
  1

  9
$DIMLUNIT
 70
     2
  9
$DIMLWD
 70
    -2
  9
$DIMLWE
 70
    -2
  9
$DIMTMOVE
 70
     0
  9
$LUNITS
 70
     2
  9
$LUPREC
 70
     2
  9
$SKETCHINC
 40
1.0
  9
$FILLETRAD
 40
10.0
  9
$AUNITS
 70
     0
  9
$AUPREC
 70
     2
  9
$MENU
  1
.
  9
$ELEVATION
 40
0.0
  9
$PELEVATION
 40
0.0
  9
$THICKNESS
 40
0.0
  9
$LIMCHECK
 70
     0
  9
$CHAMFERA
 40
0.0
  9
$CHAMFERB
 40
0.0
  9
$CHAMFERC
 40
0.0
  9
$CHAMFERD
 40
0.0
  9
$SKPOLY
 70
     0
  9
$TDCREATE
 40
2460179.445966018
  9
$TDUCREATE
 40
2460179.570966018
  9
$TDUPDATE
 40
2460179.446088021
  9
$TDUUPDATE
 40
2460179.571088021
  9
$TDINDWG
 40
0.0000000116
  9
$TDUSRTIMER
 40
0.0000000116
  9
$USRTIMER
 70
     1
  9
$ANGBASE
 50
0.0
  9
$ANGDIR
 70
     0
  9
$PDMODE
 70
     0
  9
$PDSIZE
 40
-1.0
  9
$PLINEWID
 40
0.0
  9
$SPLFRAME
 70
     0
  9
$SPLINETYPE
 70
     6
  9
$SPLINESEGS
 70
     8
  9
$HANDSEED
  5
431
  9
$SURFTAB1
 70
     6
  9
$SURFTAB2
 70
     6
  9
$SURFTYPE
 70
     6
  9
$SURFU
 70
     6
  9
$SURFV
 70
     6
  9
$UCSBASE
  2

  9
$UCSNAME
  2

  9
$UCSORG
 10
0.0
 20
0.0
 30
0.0
  9
$UCSXDIR
 10
1.0
 20
0.0
 30
0.0
  9
$UCSYDIR
 10
0.0
 20
1.0
 30
0.0
  9
$UCSORTHOREF
  2

  9
$UCSORTHOVIEW
 70
     0
  9
$UCSORGTOP
 10
0.0
 20
0.0
 30
0.0
  9
$UCSORGBOTTOM
 10
0.0
 20
0.0
 30
0.0
  9
$UCSORGLEFT
 10
0.0
 20
0.0
 30
0.0
  9
$UCSORGRIGHT
 10
0.0
 20
0.0
 30
0.0
  9
$UCSORGFRONT
 10
0.0
 20
0.0
 30
0.0
  9
$UCSORGBACK
 10
0.0
 20
0.0
 30
0.0
  9
$PUCSBASE
  2

  9
$PUCSNAME
  2

  9
$PUCSORG
 10
0.0
 20
0.0
 30
0.0
  9
$PUCSXDIR
 10
1.0
 20
0.0
 30
0.0
  9
$PUCSYDIR
 10
0.0
 20
1.0
 30
0.0
  9
$PUCSORTHOREF
  2

  9
$PUCSORTHOVIEW
 70
     0
  9
$PUCSORGTOP
 10
0.0
 20
0.0
 30
0.0
  9
$PUCSORGBOTTOM
 10
0.0
 20
0.0
 30
0.0
  9
$PUCSORGLEFT
 10
0.0
 20
0.0
 30
0.0
  9
$PUCSORGRIGHT
 10
0.0
 20
0.0
 30
0.0
  9
$PUCSORGFRONT
 10
0.0
 20
0.0
 30
0.0
  9
$PUCSORGBACK
 10
0.0
 20
0.0
 30
0.0
  9
$USERI1
 70
     0
  9
$USERI2
 70
     0
  9
$USERI3
 70
     0
  9
$USERI4
 70
     0
  9
$USERI5
 70
     0
  9
$USERR1
 40
0.0
  9
$USERR2
 40
0.0
  9
$USERR3
 40
0.0
  9
$USERR4
 40
0.0
  9
$USERR5
 40
0.0
  9
$WORLDVIEW
 70
     1
  9
$SHADEDGE
 70
     3
  9
$SHADEDIF
 70
    70
  9
$TILEMODE
 70
     1
  9
$MAXACTVP
 70
    64
  9
$PINSBASE
 10
0.0
 20
0.0
 30
0.0
  9
$PLIMCHECK
 70
     0
  9
$PEXTMIN
 10
1.0000000000E+20
 20
1.0000000000E+20
 30
1.0000000000E+20
  9
$PEXTMAX
 10
-1.0000000000E+20
 20
-1.0000000000E+20
 30
-1.0000000000E+20
  9
$PLIMMIN
 10
0.0
 20
0.0
  9
$PLIMMAX
 10
420.0
 20
297.0
  9
$UNITMODE
 70
     0
  9
$VISRETAIN
 70
     1
  9
$PLINEGEN
 70
     0
  9
$PSLTSCALE
 70
     1
  9
$TREEDEPTH
 70
  3020
  9
$CMLSTYLE
  2
Standard
  9
$CMLJUST
 70
     0
  9
$CMLSCALE
 40
20.0
  9
$PROXYGRAPHICS
 70
     1
  9
$MEASUREMENT
 70
     1
  9
$CELWEIGHT
370
    -1
  9
$ENDCAPS
280
     0
  9
$JOINSTYLE
280
     0
  9
$LWDISPLAY
290
     1
  9
$INSUNITS
 70
     4
  9
$HYPERLINKBASE
  1

  9
$STYLESHEET
  1

  9
$XEDIT
290
     1
  9
$CEPSNTYPE
380
     0
  9
$PSTYLEMODE
290
     1
  9
$FINGERPRINTGUID
  2
{87c20dfe-3c5f-4504-acff-85cb47ca91c5}
  9
$VERSIONGUID
  2
{FAEB1C32-E019-11D5-929B-00C0DF256EC4}
  9
$EXTNAMES
290
     1
  9
$PSVPSCALE
 40
0.0
  9
$OLESTARTUP
290
     0
  0
ENDSEC
  0
SECTION
  2
CLASSES
  0
CLASS
  1
ACDBDICTIONARYWDFLT
  2
AcDbDictionaryWithDefault
  3
ObjectDBX Classes
 90
        0
280
     0
281
     0
  0
CLASS
  1
VISUALSTYLE
  2
AcDbVisualStyle
  3
ObjectDBX Classes
 90
     4095
280
     0
281
     0
  0
CLASS
  1
MATERIAL
  2
AcDbMaterial
  3
ObjectDBX Classes
 90
     1153
280
     0
281
     0
  0
CLASS
  1
SCALE
  2
AcDbScale
  3
ObjectDBX Classes
 90
     1153
280
     0
281
     0
  0
CLASS
  1
TABLESTYLE
  2
AcDbTableStyle
  3
ObjectDBX Classes
 90
     4095
280
     0
281
     0
  0
CLASS
  1
MLEADERSTYLE
  2
AcDbMLeaderStyle
  3
ACDB_MLEADERSTYLE_CLASS
 90
     4095
280
     0
281
     0
  0
CLASS
  1
SUN
  2
AcDbSun
  3
SCENEOE
 90
     1153
280
     0
281
     0
  0
CLASS
  1
ACDBPLACEHOLDER
  2
AcDbPlaceHolder
  3
ObjectDBX Classes
 90
        0
280
     0
281
     0
  0
CLASS
  1
LAYOUT
  2
AcDbLayout
  3
ObjectDBX Classes
 90
        0
280
     0
281
     0
  0
ENDSEC
  0
SECTION
  2
TABLES
  0
TABLE
  2
VPORT
  5
8
330
0
100
AcDbSymbolTable
 70
     1
  0
VPORT
  5
29
330
8
100
AcDbSymbolTableRecord
100
AcDbViewportTableRecord
  2
*Active
 70
     0
 10
0.0
 20
0.0
 11
1.0
 21
1.0
 12
-432.538999116
 22
1017.6835318353
 13
0.0
 23
0.0
 14
10.0
 24
10.0
 15
10.0
 25
10.0
 16
0.0
 26
0.0
 36
1.0
 17
0.0
 27
0.0
 37
0.0
 40
657.084
 41
1.3218940473
 42
50.0
 43
0.0
 44
0.0
 50
0.0
 51
0.0
 71
     0
 72
   100
 73
     1
 74
     3
 75
     0
 76
     0
 77
     0
 78
     0
281
     0
 65
     1
110
0.0
120
0.0
130
0.0
111
1.0
121
0.0
131
0.0
112
0.0
122
1.0
132
0.0
 79
     0
146
0.0
  0
ENDTAB
  0
TABLE
  2
LTYPE
  5
5
330
0
100
AcDbSymbolTable
 70
     6
  0
LTYPE
  5
14
330
5
100
AcDbSymbolTableRecord
100
AcDbLinetypeTableRecord
  2
ByBlock
 70
     0
  3

 72
    65
 73
     0
 40
0.0
  0
LTYPE
  5
15
330
5
100
AcDbSymbolTableRecord
100
AcDbLinetypeTableRecord
  2
ByLayer
 70
     0
  3

 72
    65
 73
     0
 40
0.0
  0
LTYPE
  5
16
330
5
100
AcDbSymbolTableRecord
100
AcDbLinetypeTableRecord
  2
Continuous
 70
     0
  3
Solid line
 72
    65
 73
     0
 40
0.0
  0
LTYPE
  5
6E
330
5
100
AcDbSymbolTableRecord
100
AcDbLinetypeTableRecord
  2
HIDDEN
 70
     0
  3
Hidden __ __ __ __ __ __ __ __ __ __ __ __ __ __
 72
    65
 73
     2
 40
1.905
 49
1.27
 74
     0
 49
-0.635
 74
     0
  0
LTYPE
  5
6F
330
5
100
AcDbSymbolTableRecord
100
AcDbLinetypeTableRecord
  2
PHANTOM
 70
     0
  3
Phantom ______  __  __  ______  __  __  ______
 72
    65
 73
     6
 40
12.7
 49
6.35
 74
     0
 49
-1.27
 74
     0
 49
1.27
 74
     0
 49
-1.27
 74
     0
 49
1.27
 74
     0
 49
-1.27
 74
     0
  0
LTYPE
  5
70
330
5
100
AcDbSymbolTableRecord
100
AcDbLinetypeTableRecord
  2
CENTER
 70
     0
  3
Center ____ _ ____ _ ____ _ ____ _ ____ _ ____
 72
    65
 73
     4
 40
10.16
 49
6.35
 74
     0
 49
-1.27
 74
     0
 49
1.27
 74
     0
 49
-1.27
 74
     0
  0
LTYPE
  5
71
330
5
100
AcDbSymbolTableRecord
100
AcDbLinetypeTableRecord
  2
CENTERX2
 70
     0
  3
Center (2x) ________  __  ________  __  _____
 72
    65
 73
     4
 40
20.32
 49
12.7
 74
     0
 49
-2.54
 74
     0
 49
2.54
 74
     0
 49
-2.54
 74
     0
  0
LTYPE
  5
72
330
5
100
AcDbSymbolTableRecord
100
AcDbLinetypeTableRecord
  2
DOT2
 70
     0
  3
Dot (.5x) ........................................
 72
    65
 73
     2
 40
0.635
 49
0.0
 74
     0
 49
-0.635
 74
     0
  0
ENDTAB
  0
TABLE
  2
LAYER
  5
2
330
0
100
AcDbSymbolTable
 70
     1
  0
LAYER
  5
10
330
2
100
AcDbSymbolTableRecord
100
AcDbLayerTableRecord
  2
0
 70
     0
 62
     7
  6
Continuous
370
    -3
390
F
  0
ENDTAB
  0
TABLE
  2
STYLE
  5
3
330
0
100
AcDbSymbolTable
 70
     1
  0
STYLE
  5
11
330
3
100
AcDbSymbolTableRecord
100
AcDbTextStyleTableRecord
  2
Standard
 70
     0
 40
0.0
 41
1.0
 50
0.0
 71
     0
 42
3.5
  3
txt
  4

  0
ENDTAB
  0
TABLE
  2
VIEW
  5
6
330
0
100
AcDbSymbolTable
 70
     0
  0
ENDTAB
  0
TABLE
  2
UCS
  5
7
330
0
100
AcDbSymbolTable
 70
     0
  0
ENDTAB
  0
TABLE
  2
APPID
  5
9
330
0
100
AcDbSymbolTable
 70
     1
  0
APPID
  5
12
330
9
100
AcDbSymbolTableRecord
100
AcDbRegAppTableRecord
  2
ACAD
 70
     0
  0
ENDTAB
  0
TABLE
  2
DIMSTYLE
  5
A
330
0
100
AcDbSymbolTable
 70
     1
100
AcDbDimStyleTable
  0
DIMSTYLE
105
27
330
A
100
AcDbSymbolTableRecord
100
AcDbDimStyleTableRecord
  2
ISO-25
 70
     0
 41
2.5
 42
0.625
 43
3.75
 44
1.25
 73
     0
 74
     0
 77
     1
 78
     8
140
2.5
141
2.5
143
0.0393700787
147
0.625
171
     3
172
     1
178
     0
271
     2
272
     2
274
     3
278
    44
283
     0
284
     8
340
11
  0
ENDTAB
  0
TABLE
  2
BLOCK_RECORD
  5
1
330
0
100
AcDbSymbolTable
 70
     1
  0
BLOCK_RECORD
  5
1F
330
1
100
AcDbSymbolTableRecord
100
AcDbBlockTableRecord
  2
*Model_Space
340
22
  0
BLOCK_RECORD
  5
1B
330
1
100
AcDbSymbolTableRecord
100
AcDbBlockTableRecord
  2
*Paper_Space
340
1E
  0
BLOCK_RECORD
  5
23
330
1
100
AcDbSymbolTableRecord
100
AcDbBlockTableRecord
  2
*Paper_Space0
340
26
  0
ENDTAB
  0
ENDSEC
  0
SECTION
  2
BLOCKS
  0
BLOCK
  5
20
330
1F
100
AcDbEntity
  8
0
100
AcDbBlockBegin
  2
*Model_Space
 70
     0
 10
0.0
 20
0.0
 30
0.0
  3
*Model_Space
  1

  0
ENDBLK
  5
21
330
1F
100
AcDbEntity
  8
0
100
AcDbBlockEnd
  0
BLOCK
  5
1C
330
1B
100
AcDbEntity
 67
     1
  8
0
100
AcDbBlockBegin
  2
*Paper_Space
 70
     0
 10
0.0
 20
0.0
 30
0.0
  3
*Paper_Space
  1

  0
ENDBLK
  5
1D
330
1B
100
AcDbEntity
 67
     1
  8
0
100
AcDbBlockEnd
  0
BLOCK
  5
24
330
23
100
AcDbEntity
  8
0
100
AcDbBlockBegin
  2
*Paper_Space0
 70
     0
 10
0.0
 20
0.0
 30
0.0
  3
*Paper_Space0
  1

  0
ENDBLK
  5
25
330
23
100
AcDbEntity
  8
0
100
AcDbBlockEnd
  0
ENDSEC
  0
SECTION
  2
ENTITIES
  0
CIRCLE
  5
230
330
1F
100
AcDbEntity
  8
0
  6
Continuous
 62
     7
370
    25
100
AcDbCircle
 10
-214.5946648919
 20
1025.5835318353
 30
0.0
 40
5.999999999999886
  0
CIRCLE
  5
241
330
1F
100
AcDbEntity
  8
0
  6
Continuous
 62
     7
370
    25
100
AcDbCircle
 10
-54.5946648919
 20
965.5835318353
 30
0.0
 40
6.000000000000114
  0
CIRCLE
  5
261
330
1F
100
AcDbEntity
  8
0
  6
Continuous
 62
     7
370
    25
100
AcDbCircle
 10
-434.5495881208
 20
1309.7835318353
 30
0.0
 40
5.999999999999829
  0
CIRCLE
  5
263
330
1F
100
AcDbEntity
  8
0
  6
Continuous
 62
     7
370
    25
100
AcDbCircle
 10
-722.9946648919
 20
993.5835318353
 30
0.0
 40
6.0
  0
LINE
  5
274
330
1F
100
AcDbEntity
  8
0
  6
Continuous
 62
     7
370
    25
100
AcDbLine
 10
-468.7946648919
 20
797.9835318353
 30
0.0
 11
-477.7946648919
 21
797.9835318353
 31
0.0
  0
LINE
  5
275
330
1F
100
AcDbEntity
  8
0
  6
Continuous
 62
     7
370
    25
100
AcDbLine
 10
-477.7946648919
 20
797.9835318353
 30
0.0
 11
-477.7946648919
 21
780.3835318353
 31
0.0
  0
LINE
  5
276
330
1F
100
AcDbEntity
  8
0
  6
Continuous
 62
     7
370
    25
100
AcDbLine
 10
-468.7946648919
 20
780.3835318353
 30
0.0
 11
-477.7946648919
 21
780.3835318353
 31
0.0
  0
LINE
  5
277
330
1F
100
AcDbEntity
  8
0
  6
Continuous
 62
     7
370
    25
100
AcDbLine
 10
-468.7946648919
 20
815.5835318353
 30
0.0
 11
-468.7946648919
 21
762.7835318353
 31
0.0
  0
LINE
  5
278
330
1F
100
AcDbEntity
  8
0
  6
Continuous
 62
     7
370
    25
100
AcDbLine
 10
-468.7946648919
 20
762.7835318353
 30
0.0
 11
-477.7946648919
 21
762.7835318353
 31
0.0
  0
LINE
  5
279
330
1F
100
AcDbEntity
  8
0
  6
Continuous
 62
     7
370
    25
100
AcDbLine
 10
-477.7946648919
 20
762.7835318353
 30
0.0
 11
-477.7946648919
 21
745.1835318353
 31
0.0
  0
LINE
  5
27A
330
1F
100
AcDbEntity
  8
0
  6
Continuous
 62
     7
370
    25
100
AcDbLine
 10
-468.7946648919
 20
745.1835318353
 30
0.0
 11
-477.7946648919
 21
745.1835318353
 31
0.0
  0
LINE
  5
27B
330
1F
100
AcDbEntity
  8
0
  6
Continuous
 62
     7
370
    25
100
AcDbLine
 10
-468.7946648919
 20
713.0835318353
 30
0.0
 11
-468.7946648919
 21
745.1835318353
 31
0.0
  0
LINE
  5
27C
330
1F
100
AcDbEntity
  8
0
  6
Continuous
 62
     7
370
    25
100
AcDbLine
 10
-813.6946648919
 20
727.5835318353
 30
0.0
 11
-468.7946648919
 21
727.5835318353
 31
0.0
  0
LINE
  5
27D
330
1F
100
AcDbEntity
  8
0
  6
Continuous
 62
     7
370
    25
100
AcDbLine
 10
-813.6946648919
 20
752.8335318353
 30
0.0
 11
-838.2977642902
 21
752.8335318353
 31
0.0
  0
LINE
  5
27E
330
1F
100
AcDbEntity
  8
0
  6
Continuous
 62
     7
370
    25
100
AcDbLine
 10
-808.6946648919
 20
762.1501566256
 30
0.0
 11
-808.6946648919
 21
755.5169070449
 31
0.0
  0
LINE
  5
27F
330
1F
100
AcDbEntity
  8
0
  6
Continuous
 62
     7
370
    25
100
AcDbLine
 10
-813.6946648919
 20
764.8335318353
 30
0.0
 11
-838.2977642902
 21
764.8335318353
 31
0.0
  0
LINE
  5
280
330
1F
100
AcDbEntity
  8
0
  6
Continuous
 62
     7
370
    25
100
AcDbLine
 10
-838.2977642902
 20
773.8335318353
 30
0.0
 11
-803.4225869533
 21
773.8335318353
 31
0.0
  0
LINE
  5
281
330
1F
100
AcDbEntity
  8
0
  6
Continuous
 62
     7
370
    25
100
AcDbLine
 10
-797.0586259226
 20
776.4695708046
 30
0.0
 11
-786.0807038613
 21
787.447492866
 31
0.0
  0
LINE
  5
282
330
1F
100
AcDbEntity
  8
0
  6
Continuous
 62
     7
370
    25
100
AcDbLine
 10
-779.7167428306
 20
790.0835318353
 30
0.0
 11
-588.4593830969
 21
790.0835318353
 31
0.0
  0
LINE
  5
283
330
1F
100
AcDbEntity
  8
0
  6
Continuous
 62
     7
370
    25
100
AcDbLine
 10
-541.880544772
 20
815.5835318353
 30
0.0
 11
-583.9593830969
 21
791.2893032012
 31
0.0
  0
LINE
  5
284
330
1F
100
AcDbEntity
  8
0
  6
Continuous
 62
     7
370
    25
100
AcDbLine
 10
-115.7069449737
 20
815.5835318353
 30
0.0
 11
-580.0250607094
 21
815.5835318353
 31
0.0
  0
LINE
  5
285
330
1F
100
AcDbEntity
  8
0
  6
Continuous
 62
     7
370
    25
100
AcDbLine
 10
-468.7946648919
 20
945.9835318353
 30
0.0
 11
-477.7946648919
 21
945.9835318353
 31
0.0
  0
LINE
  5
286
330
1F
100
AcDbEntity
  8
0
  6
Continuous
 62
     7
370
    25
100
AcDbLine
 10
-477.7946648919
 20
928.3835318353
 30
0.0
 11
-477.7946648919
 21
945.9835318353
 31
0.0
  0
LINE
  5
287
330
1F
100
AcDbEntity
  8
0
  6
Continuous
 62
     7
370
    25
100
AcDbLine
 10
-468.7946648919
 20
928.3835318353
 30
0.0
 11
-477.7946648919
 21
928.3835318353
 31
0.0
  0
LINE
  5
288
330
1F
100
AcDbEntity
  8
0
  6
Continuous
 62
     7
370
    25
100
AcDbLine
 10
-468.7946648919
 20
910.7835318353
 30
0.0
 11
-477.7946648919
 21
910.7835318353
 31
0.0
  0
LINE
  5
289
330
1F
100
AcDbEntity
  8
0
  6
Continuous
 62
     7
370
    25
100
AcDbLine
 10
-477.7946648919
 20
893.1835318353
 30
0.0
 11
-477.7946648919
 21
910.7835318353
 31
0.0
  0
LINE
  5
28A
330
1F
100
AcDbEntity
  8
0
  6
Continuous
 62
     7
370
    25
100
AcDbLine
 10
-468.7946648919
 20
893.1835318353
 30
0.0
 11
-477.7946648919
 21
893.1835318353
 31
0.0
  0
LINE
  5
28B
330
1F
100
AcDbEntity
  8
0
  6
Continuous
 62
     7
370
    25
100
AcDbLine
 10
-468.7946648919
 20
875.5835318353
 30
0.0
 11
-468.7946648919
 21
928.3835318353
 31
0.0
  0
LINE
  5
28C
330
1F
100
AcDbEntity
  8
0
  6
Continuous
 62
     7
370
    25
100
AcDbLine
 10
-468.7946648919
 20
875.8335318353
 30
0.0
 11
-477.7946648919
 21
875.8335318353
 31
0.0
  0
LINE
  5
28D
330
1F
100
AcDbEntity
  8
0
  6
Continuous
 62
     7
370
    25
100
AcDbLine
 10
-477.7946648919
 20
875.5835318353
 30
0.0
 11
-477.7946648919
 21
875.8335318353
 31
0.0
  0
LINE
  5
28E
330
1F
100
AcDbEntity
  8
0
  6
Continuous
 62
     7
370
    25
100
AcDbLine
 10
-580.0250607094
 20
875.5835318353
 30
0.0
 11
-115.7069449736
 21
875.5835318353
 31
0.0
  0
LINE
  5
28F
330
1F
100
AcDbEntity
  8
0
  6
Continuous
 62
     7
370
    25
100
AcDbLine
 10
-541.880544772
 20
875.5835318353
 30
0.0
 11
-583.9593830969
 21
899.8777604693
 31
0.0
  0
LINE
  5
290
330
1F
100
AcDbEntity
  8
0
  6
Continuous
 62
     7
370
    25
100
AcDbLine
 10
-779.7167428306
 20
901.0835318353
 30
0.0
 11
-588.4593830969
 21
901.0835318353
 31
0.0
  0
LINE
  5
291
330
1F
100
AcDbEntity
  8
0
  6
Continuous
 62
     7
370
    25
100
AcDbLine
 10
-797.0586259226
 20
914.697492866
 30
0.0
 11
-786.0807038613
 21
903.7195708046
 31
0.0
  0
LINE
  5
292
330
1F
100
AcDbEntity
  8
0
  6
Continuous
 62
     7
370
    25
100
AcDbLine
 10
-838.2977642902
 20
917.3335318353
 30
0.0
 11
-803.4225869533
 21
917.3335318353
 31
0.0
  0
LINE
  5
293
330
1F
100
AcDbEntity
  8
0
  6
Continuous
 62
     7
370
    25
100
AcDbLine
 10
-813.6946648919
 20
926.3335318353
 30
0.0
 11
-838.2977642902
 21
926.3335318353
 31
0.0
  0
LINE
  5
294
330
1F
100
AcDbEntity
  8
0
  6
Continuous
 62
     7
370
    25
100
AcDbLine
 10
-808.6946648919
 20
929.0169070449
 30
0.0
 11
-808.6946648919
 21
935.6501566256
 31
0.0
  0
LINE
  5
295
330
1F
100
AcDbEntity
  8
0
  6
Continuous
 62
     7
370
    25
100
AcDbLine
 10
-813.6946648919
 20
938.3335318353
 30
0.0
 11
-838.2977642902
 21
938.3335318353
 31
0.0
  0
LINE
  5
296
330
1F
100
AcDbEntity
  8
0
  6
Continuous
 62
     7
370
    25
100
AcDbLine
 10
-857.9210717631
 20
963.5835318353
 30
0.0
 11
-468.7946648919
 21
963.5835318353
 31
0.0
  0
LINE
  5
297
330
1F
100
AcDbEntity
  8
0
  6
Continuous
 62
     7
370
    25
100
AcDbLine
 10
-822.7210717631
 20
982.5835318353
 30
0.0
 11
-822.7210717631
 21
973.5835318353
 31
0.0
  0
LINE
  5
298
330
1F
100
AcDbEntity
  8
0
  6
Continuous
 62
     7
370
    25
100
AcDbLine
 10
-822.7210717631
 20
973.5835318353
 30
0.0
 11
-805.1210717631
 21
973.5835318353
 31
0.0
  0
LINE
  5
299
330
1F
100
AcDbEntity
  8
0
  6
Continuous
 62
     7
370
    25
100
AcDbLine
 10
-805.1210717631
 20
982.5835318353
 30
0.0
 11
-805.1210717631
 21
973.5835318353
 31
0.0
  0
LINE
  5
29A
330
1F
100
AcDbEntity
  8
0
  6
Continuous
 62
     7
370
    25
100
AcDbLine
 10
-822.7210717631
 20
982.5835318353
 30
0.0
 11
-805.1210717631
 21
982.5835318353
 31
0.0
  0
LINE
  5
29B
330
1F
100
AcDbEntity
  8
0
  6
Continuous
 62
     7
370
    25
100
AcDbLine
 10
-822.7210717631
 20
1008.0835318353
 30
0.0
 11
-822.7210717631
 21
999.0835318353
 31
0.0
  0
LINE
  5
29C
330
1F
100
AcDbEntity
  8
0
  6
Continuous
 62
     7
370
    25
100
AcDbLine
 10
-822.7210717631
 20
999.0835318353
 30
0.0
 11
-805.1210717631
 21
999.0835318353
 31
0.0
  0
LINE
  5
29D
330
1F
100
AcDbEntity
  8
0
  6
Continuous
 62
     7
370
    25
100
AcDbLine
 10
-805.1210717631
 20
1008.0835318353
 30
0.0
 11
-805.1210717631
 21
999.0835318353
 31
0.0
  0
LINE
  5
29E
330
1F
100
AcDbEntity
  8
0
  6
Continuous
 62
     7
370
    25
100
AcDbLine
 10
-822.7210717631
 20
1008.0835318353
 30
0.0
 11
-805.1210717631
 21
1008.0835318353
 31
0.0
  0
LINE
  5
29F
330
1F
100
AcDbEntity
  8
0
  6
Continuous
 62
     7
370
    25
100
AcDbLine
 10
-805.1210717631
 20
1104.0835318353
 30
0.0
 11
-822.7210717631
 21
1104.0835318353
 31
0.0
  0
LINE
  5
2A0
330
1F
100
AcDbEntity
  8
0
  6
Continuous
 62
     7
370
    25
100
AcDbLine
 10
-787.5210717631
 20
999.0835318353
 30
0.0
 11
-769.9210717631
 21
999.0835318353
 31
0.0
  0
LINE
  5
2A1
330
1F
100
AcDbEntity
  8
0
  6
Continuous
 62
     7
370
    25
100
AcDbLine
 10
-769.9210717631
 20
1008.0835318353
 30
0.0
 11
-769.9210717631
 21
999.0835318353
 31
0.0
  0
LINE
  5
2A2
330
1F
100
AcDbEntity
  8
0
  6
Continuous
 62
     7
370
    25
100
AcDbLine
 10
-787.5210717631
 20
1008.0835318353
 30
0.0
 11
-769.9210717631
 21
1008.0835318353
 31
0.0
  0
LINE
  5
2A3
330
1F
100
AcDbEntity
  8
0
  6
Continuous
 62
     7
370
    25
100
AcDbLine
 10
-787.5210717631
 20
1008.0835318353
 30
0.0
 11
-787.5210717631
 21
999.0835318353
 31
0.0
  0
LINE
  5
2A4
330
1F
100
AcDbEntity
  8
0
  6
Continuous
 62
     7
370
    25
100
AcDbLine
 10
-840.3210717631
 20
982.5835318353
 30
0.0
 11
-840.3210717631
 21
973.5835318353
 31
0.0
  0
LINE
  5
2A5
330
1F
100
AcDbEntity
  8
0
  6
Continuous
 62
     7
370
    25
100
AcDbLine
 10
-857.9210717631
 20
982.5835318353
 30
0.0
 11
-840.3210717631
 21
982.5835318353
 31
0.0
  0
LINE
  5
2A6
330
1F
100
AcDbEntity
  8
0
  6
Continuous
 62
     7
370
    25
100
AcDbLine
 10
-857.9210717631
 20
999.0835318353
 30
0.0
 11
-857.9210717631
 21
982.5835318353
 31
0.0
  0
LINE
  5
2A7
330
1F
100
AcDbEntity
  8
0
  6
Continuous
 62
     7
370
    25
100
AcDbLine
 10
-857.9210717631
 20
999.0835318353
 30
0.0
 11
-840.3210717631
 21
999.0835318353
 31
0.0
  0
LINE
  5
2A8
330
1F
100
AcDbEntity
  8
0
  6
Continuous
 62
     7
370
    25
100
AcDbLine
 10
-840.3210717631
 20
1008.0835318353
 30
0.0
 11
-840.3210717631
 21
999.0835318353
 31
0.0
  0
LINE
  5
2A9
330
1F
100
AcDbEntity
  8
0
  6
Continuous
 62
     7
370
    25
100
AcDbLine
 10
-857.9210717631
 20
1008.0835318353
 30
0.0
 11
-840.3210717631
 21
1008.0835318353
 31
0.0
  0
LINE
  5
2AA
330
1F
100
AcDbEntity
  8
0
  6
Continuous
 62
     7
370
    25
100
AcDbLine
 10
-857.9210717631
 20
1033.0212259365
 30
0.0
 11
-857.9210717631
 21
1008.0835318353
 31
0.0
  0
LINE
  5
2AB
330
1F
100
AcDbEntity
  8
0
  6
Continuous
 62
     7
370
    25
100
AcDbLine
 10
-852.9459941226
 20
1041.0710706555
 30
0.0
 11
-849.0207612011
 21
1043.0336871163
 31
0.0
  0
LINE
  5
2AC
330
1F
100
AcDbEntity
  8
0
  6
Continuous
 62
     7
370
    25
100
AcDbLine
 10
-849.0207612011
 20
1059.1333765543
 30
0.0
 11
-852.9459941226
 21
1061.095993015
 31
0.0
  0
LINE
  5
2AD
330
1F
100
AcDbEntity
  8
0
  6
Continuous
 62
     7
370
    25
100
AcDbLine
 10
-857.9210717631
 20
1104.0835318353
 30
0.0
 11
-857.9210717631
 21
1069.145837734
 31
0.0
  0
LINE
  5
2AE
330
1F
100
AcDbEntity
  8
0
  6
Continuous
 62
     7
370
    25
100
AcDbLine
 10
-840.3210717631
 20
1104.0835318353
 30
0.0
 11
-857.9210717631
 21
1104.0835318353
 31
0.0
  0
LINE
  5
2AF
330
1F
100
AcDbEntity
  8
0
  6
Continuous
 62
     7
370
    25
100
AcDbLine
 10
-858.3210717631
 20
1129.5835318353
 30
0.0
 11
-840.3210717631
 21
1129.5835318353
 31
0.0
  0
LINE
  5
2B0
330
1F
100
AcDbEntity
  8
0
  6
Continuous
 62
     7
370
    25
100
AcDbLine
 10
-840.3210717631
 20
1138.5835318353
 30
0.0
 11
-840.3210717631
 21
1129.5835318353
 31
0.0
  0
LINE
  5
2B1
330
1F
100
AcDbEntity
  8
0
  6
Continuous
 62
     7
370
    25
100
AcDbLine
 10
-795.4210717631
 20
1138.5835318353
 30
0.0
 11
-805.1210717631
 21
1138.5835318353
 31
0.0
  0
LINE
  5
2B2
330
1F
100
AcDbEntity
  8
0
  6
Continuous
 62
     7
370
    25
100
AcDbLine
 10
-787.5210717631
 20
1130.6835318353
 30
0.0
 11
-787.5210717631
 21
1129.5835318353
 31
0.0
  0
LINE
  5
2B3
330
1F
100
AcDbEntity
  8
0
  6
Continuous
 62
     7
370
    25
100
AcDbLine
 10
-787.5210717631
 20
1113.0835318353
 30
0.0
 11
-787.5210717631
 21
1104.0835318353
 31
0.0
  0
LINE
  5
2B4
330
1F
100
AcDbEntity
  8
0
  6
Continuous
 62
     7
370
    25
100
AcDbLine
 10
-769.9210717631
 20
1104.0835318353
 30
0.0
 11
-787.5210717631
 21
1104.0835318353
 31
0.0
  0
LINE
  5
2B5
330
1F
100
AcDbEntity
  8
0
  6
Continuous
 62
     7
370
    25
100
AcDbLine
 10
-769.7442950678
 20
1112.90675514
 30
0.0
 11
-735.5571107324
 21
1078.7195708046
 31
0.0
  0
LINE
  5
2B6
330
1F
100
AcDbEntity
  8
0
  6
Continuous
 62
     7
370
    25
100
AcDbLine
 10
-532.9210717631
 20
1076.0835318353
 30
0.0
 11
-729.1931497018
 21
1076.0835318353
 31
0.0
  0
LINE
  5
2B7
330
1F
100
AcDbEntity
  8
0
  6
Continuous
 62
     7
370
    25
100
AcDbLine
 10
-729.1931497018
 20
1026.0835318353
 30
0.0
 11
-532.9210717631
 21
1026.0835318353
 31
0.0
  0
LINE
  5
2B8
330
1F
100
AcDbEntity
  8
0
  6
Continuous
 62
     7
370
    25
100
AcDbLine
 10
-735.5571107324
 20
1023.447492866
 30
0.0
 11
-776.4210717631
 21
982.5835318353
 31
0.0
  0
LINE
  5
2B9
330
1F
100
AcDbEntity
  8
0
  6
Continuous
 62
     7
370
    25
100
AcDbLine
 10
-787.5210717631
 20
982.5835318353
 30
0.0
 11
-776.4210717631
 21
982.5835318353
 31
0.0
  0
LINE
  5
2BA
330
1F
100
AcDbEntity
  8
0
  6
Continuous
 62
     7
370
    25
100
AcDbLine
 10
-787.5210717631
 20
982.5835318353
 30
0.0
 11
-787.5210717631
 21
973.5835318353
 31
0.0
  0
LINE
  5
2BB
330
1F
100
AcDbEntity
  8
0
  6
Continuous
 62
     7
370
    25
100
AcDbLine
 10
-787.5210717631
 20
973.5835318353
 30
0.0
 11
-785.4210717631
 21
973.5835318353
 31
0.0
  0
LINE
  5
2BC
330
1F
100
AcDbEntity
  8
0
  6
Continuous
 62
     7
370
    25
100
AcDbLine
 10
-785.4210717631
 20
973.5835318353
 30
0.0
 11
-795.4210717631
 21
963.5835318353
 31
0.0
  0
LINE
  5
2BD
330
1F
100
AcDbEntity
  8
0
  6
Continuous
 62
     7
370
    25
100
AcDbLine
 10
-857.9210717631
 20
973.5835318353
 30
0.0
 11
-857.9210717631
 21
963.5835318353
 31
0.0
  0
LINE
  5
2BE
330
1F
100
AcDbEntity
  8
0
  6
Continuous
 62
     7
370
    25
100
AcDbLine
 10
-857.9210717631
 20
973.5835318353
 30
0.0
 11
-840.3210717631
 21
973.5835318353
 31
0.0
  0
LINE
  5
2BF
330
1F
100
AcDbEntity
  8
0
  6
Continuous
 62
     7
370
    25
100
AcDbLine
 10
-787.5210717631
 20
1129.5835318353
 30
0.0
 11
-786.4210717631
 21
1129.5835318353
 31
0.0
  0
LINE
  5
2C0
330
1F
100
AcDbEntity
  8
0
  6
Continuous
 62
     7
370
    25
100
AcDbLine
 10
-770.1710717631
 20
1113.0835318353
 30
0.0
 11
-787.5210717631
 21
1113.0835318353
 31
0.0
  0
LINE
  5
2C1
330
1F
100
AcDbEntity
  8
0
  6
Continuous
 62
     7
370
    25
100
AcDbLine
 10
-840.3210717631
 20
1113.0835318353
 30
0.0
 11
-840.3210717631
 21
1104.0835318353
 31
0.0
  0
LINE
  5
2C2
330
1F
100
AcDbEntity
  8
0
  6
Continuous
 62
     7
370
    25
100
AcDbLine
 10
-786.4210717631
 20
1129.5835318353
 30
0.0
 11
-770.0978484584
 21
1113.2603085306
 31
0.0
  0
LINE
  5
2C3
330
1F
100
AcDbEntity
  8
0
  6
Continuous
 62
     7
370
    25
100
AcDbLine
 10
-822.7210717631
 20
1113.0835318353
 30
0.0
 11
-822.7210717631
 21
1104.0835318353
 31
0.0
  0
LINE
  5
2C4
330
1F
100
AcDbEntity
  8
0
  6
Continuous
 62
     7
370
    25
100
AcDbLine
 10
-857.9210717631
 20
1129.5835318353
 30
0.0
 11
-857.9210717631
 21
1113.0835318353
 31
0.0
  0
LINE
  5
2C5
330
1F
100
AcDbEntity
  8
0
  6
Continuous
 62
     7
370
    25
100
AcDbLine
 10
-805.1210717631
 20
1113.0835318353
 30
0.0
 11
-805.1210717631
 21
1104.0835318353
 31
0.0
  0
LINE
  5
2C6
330
1F
100
AcDbEntity
  8
0
  6
Continuous
 62
     7
370
    25
100
AcDbLine
 10
-822.7210717631
 20
1138.5835318353
 30
0.0
 11
-840.3210717631
 21
1138.5835318353
 31
0.0
  0
LINE
  5
2C7
330
1F
100
AcDbEntity
  8
0
  6
Continuous
 62
     7
370
    25
100
AcDbLine
 10
-769.9210717631
 20
1112.8335318353
 30
0.0
 11
-769.9210717631
 21
1104.0835318353
 31
0.0
  0
LINE
  5
2C8
330
1F
100
AcDbEntity
  8
0
  6
Continuous
 62
     7
370
    25
100
AcDbLine
 10
-795.4210717631
 20
1138.5835318353
 30
0.0
 11
-787.5210717631
 21
1130.6835318353
 31
0.0
  0
LINE
  5
2C9
330
1F
100
AcDbEntity
  8
0
  6
Continuous
 62
     7
370
    25
100
AcDbLine
 10
-805.1210717631
 20
1138.5835318353
 30
0.0
 11
-805.1210717631
 21
1129.5835318353
 31
0.0
  0
LINE
  5
2CA
330
1F
100
AcDbEntity
  8
0
  6
Continuous
 62
     7
370
    25
100
AcDbLine
 10
-840.3210717631
 20
1113.0835318353
 30
0.0
 11
-857.9210717631
 21
1113.0835318353
 31
0.0
  0
LINE
  5
2CB
330
1F
100
AcDbEntity
  8
0
  6
Continuous
 62
     7
370
    25
100
AcDbLine
 10
-805.1210717631
 20
1113.0835318353
 30
0.0
 11
-822.7210717631
 21
1113.0835318353
 31
0.0
  0
LINE
  5
2CC
330
1F
100
AcDbEntity
  8
0
  6
Continuous
 62
     7
370
    25
100
AcDbLine
 10
-822.7210717631
 20
1129.5835318353
 30
0.0
 11
-805.1210717631
 21
1129.5835318353
 31
0.0
  0
LINE
  5
2CD
330
1F
100
AcDbEntity
  8
0
  6
Continuous
 62
     7
370
    25
100
AcDbLine
 10
-822.7210717631
 20
1138.5835318353
 30
0.0
 11
-822.7210717631
 21
1129.5835318353
 31
0.0
  0
LINE
  5
2CE
330
1F
100
AcDbEntity
  8
0
  6
Continuous
 62
     7
370
    25
100
AcDbLine
 10
-31.7569264688
 20
837.7893032012
 30
0.0
 11
-6.7569264688
 21
823.3555464715
 31
0.0
  0
LINE
  5
2CF
330
1F
100
AcDbEntity
  8
0
  6
Continuous
 62
     7
370
    25
100
AcDbLine
 10
-6.7569264688
 20
823.3555464715
 30
0.0
 11
-15.5069264688
 21
808.2001019053
 31
0.0
  0
LINE
  5
2D0
330
1F
100
AcDbEntity
  8
0
  6
Continuous
 62
     7
370
    25
100
AcDbLine
 10
-15.5069264688
 20
808.2001019053
 30
0.0
 11
-40.5069264688
 21
822.633858635
 31
0.0
  0
LINE
  5
2D1
330
1F
100
AcDbEntity
  8
0
  6
Continuous
 62
     7
370
    25
100
AcDbLine
 10
-40.5069264688
 20
822.633858635
 30
0.0
 11
-53.0069264688
 21
800.9832235404
 31
0.0
  0
LINE
  5
2D2
330
1F
100
AcDbEntity
  8
0
  6
Continuous
 62
     7
370
    25
100
AcDbLine
 10
-28.0069264688
 20
786.5494668106
 30
0.0
 11
-53.0069264688
 21
800.9832235404
 31
0.0
  0
LINE
  5
2D3
330
1F
100
AcDbEntity
  8
0
  6
Continuous
 62
     7
370
    25
100
AcDbLine
 10
-28.0069264688
 20
786.5494668106
 30
0.0
 11
-36.7569264688
 21
771.3940222444
 31
0.0
  0
LINE
  5
2D4
330
1F
100
AcDbEntity
  8
0
  6
Continuous
 62
     7
370
    25
100
AcDbLine
 10
-111.2069449737
 20
814.3777604693
 30
0.0
 11
-36.7569264688
 21
771.3940222444
 31
0.0
  0
LINE
  5
2D5
330
1F
100
AcDbEntity
  8
0
  6
Continuous
 62
     7
370
    25
100
AcDbLine
 10
-584.5250607094
 20
814.3777604693
 30
0.0
 11
-614.9891623245
 21
796.7893032012
 31
0.0
  0
LINE
  5
2D6
330
1F
100
AcDbEntity
  8
0
  6
Continuous
 62
     7
370
    25
100
AcDbLine
 10
-833.4366034413
 20
795.5835318353
 30
0.0
 11
-619.4891623245
 21
795.5835318353
 31
0.0
  0
LINE
  5
2D7
330
1F
100
AcDbEntity
  8
0
  6
Continuous
 62
     7
370
    25
100
AcDbLine
 10
-842.4366034413
 20
811.5835318353
 30
0.0
 11
-842.4366034413
 21
804.5835318353
 31
0.0
  0
LINE
  5
2D8
330
1F
100
AcDbEntity
  8
0
  6
Continuous
 62
     7
370
    25
100
AcDbLine
 10
-642.4366034413
 20
820.5835318353
 30
0.0
 11
-833.4366034413
 21
820.5835318353
 31
0.0
  0
LINE
  5
2D9
330
1F
100
AcDbEntity
  8
0
  6
Continuous
 62
     7
370
    25
100
AcDbLine
 10
-642.4366034413
 20
870.5835318353
 30
0.0
 11
-833.4366034413
 21
870.5835318353
 31
0.0
  0
LINE
  5
2DA
330
1F
100
AcDbEntity
  8
0
  6
Continuous
 62
     7
370
    25
100
AcDbLine
 10
-842.4366034413
 20
886.5835318353
 30
0.0
 11
-842.4366034413
 21
879.5835318353
 31
0.0
  0
LINE
  5
2DB
330
1F
100
AcDbEntity
  8
0
  6
Continuous
 62
     7
370
    25
100
AcDbLine
 10
-619.4891623245
 20
895.5835318353
 30
0.0
 11
-833.4366034413
 21
895.5835318353
 31
0.0
  0
LINE
  5
2DC
330
1F
100
AcDbEntity
  8
0
  6
Continuous
 62
     7
370
    25
100
AcDbLine
 10
-614.9891623245
 20
894.3777604693
 30
0.0
 11
-584.5250607094
 21
876.7893032012
 31
0.0
  0
LINE
  5
2DD
330
1F
100
AcDbEntity
  8
0
  6
Continuous
 62
     7
370
    25
100
AcDbLine
 10
-36.7569264688
 20
919.7730414261
 30
0.0
 11
-111.2069449736
 21
876.7893032012
 31
0.0
  0
LINE
  5
2DE
330
1F
100
AcDbEntity
  8
0
  6
Continuous
 62
     7
370
    25
100
AcDbLine
 10
-28.0069264688
 20
904.6175968599
 30
0.0
 11
-53.0069264688
 21
890.1838401302
 31
0.0
  0
LINE
  5
2DF
330
1F
100
AcDbEntity
  8
0
  6
Continuous
 62
     7
370
    25
100
AcDbLine
 10
-40.5069264688
 20
868.5332050356
 30
0.0
 11
-53.0069264688
 21
890.1838401302
 31
0.0
  0
LINE
  5
2E0
330
1F
100
AcDbEntity
  8
0
  6
Continuous
 62
     7
370
    25
100
AcDbLine
 10
-15.5069264688
 20
882.9669617653
 30
0.0
 11
-40.5069264688
 21
868.5332050356
 31
0.0
  0
LINE
  5
2E1
330
1F
100
AcDbEntity
  8
0
  6
Continuous
 62
     7
370
    25
100
AcDbLine
 10
-6.7569264688
 20
867.8115171991
 30
0.0
 11
-15.5069264688
 21
882.9669617653
 31
0.0
  0
LINE
  5
2E2
330
1F
100
AcDbEntity
  8
0
  6
Continuous
 62
     7
370
    25
100
AcDbLine
 10
-6.7569264688
 20
867.8115171991
 30
0.0
 11
-31.7569264688
 21
853.3777604693
 31
0.0
  0
LINE
  5
2E3
330
1F
100
AcDbEntity
  8
0
  6
Continuous
 62
     7
370
    25
100
AcDbLine
 10
-28.0069264688
 20
904.6175968599
 30
0.0
 11
-36.7569264688
 21
919.7730414261
 31
0.0
  0
LINE
  5
2E4
330
1F
100
AcDbEntity
  8
0
  6
Continuous
 62
     7
370
    25
100
AcDbLine
 10
-97.814717689
 20
916.4088493826
 30
0.0
 11
-68.9472042295
 21
916.4088493826
 31
0.0
  0
LINE
  5
2E5
330
1F
100
AcDbEntity
  8
0
  6
Continuous
 62
     7
370
    25
100
AcDbLine
 10
-81.4472042295
 20
894.758214288
 30
0.0
 11
-68.9472042295
 21
916.4088493826
 31
0.0
  0
LINE
  5
2E6
330
1F
100
AcDbEntity
  8
0
  6
Continuous
 62
     7
370
    25
100
AcDbLine
 10
-110.314717689
 20
894.758214288
 30
0.0
 11
-81.4472042295
 21
894.758214288
 31
0.0
  0
LINE
  5
2E7
330
1F
100
AcDbEntity
  8
0
  6
Continuous
 62
     7
370
    25
100
AcDbLine
 10
-121.3852257647
 20
875.5835318353
 30
0.0
 11
-110.314717689
 21
894.758214288
 31
0.0
  0
LINE
  5
2E8
330
1F
100
AcDbEntity
  8
0
  6
Continuous
 62
     7
370
    25
100
AcDbLine
 10
-439.9271514325
 20
875.5835318353
 30
0.0
 11
-439.9271514325
 21
893.0835318353
 31
0.0
  0
LINE
  5
2E9
330
1F
100
AcDbEntity
  8
0
  6
Continuous
 62
     7
370
    25
100
AcDbLine
 10
-439.9271514325
 20
893.0835318353
 30
0.0
 11
-468.7946648919
 21
893.0835318353
 31
0.0
  0
LINE
  5
2EA
330
1F
100
AcDbEntity
  8
0
  6
Continuous
 62
     7
370
    25
100
AcDbLine
 10
-439.9271514325
 20
918.0835318353
 30
0.0
 11
-468.7946648919
 21
918.0835318353
 31
0.0
  0
LINE
  5
2EB
330
1F
100
AcDbEntity
  8
0
  6
Continuous
 62
     7
370
    25
100
AcDbLine
 10
-468.7946648919
 20
935.5835318353
 30
0.0
 11
-86.7442096133
 21
935.5835318353
 31
0.0
  0
LINE
  5
2EC
330
1F
100
AcDbEntity
  8
0
  6
Continuous
 62
     7
370
    25
100
AcDbLine
 10
-439.9271514325
 20
918.0835318353
 30
0.0
 11
-439.9271514325
 21
935.5835318353
 31
0.0
  0
LINE
  5
2ED
330
1F
100
AcDbEntity
  8
0
  6
Continuous
 62
     7
370
    25
100
AcDbLine
 10
-86.7442096133
 20
935.5835318353
 30
0.0
 11
-97.814717689
 21
916.4088493826
 31
0.0
  0
LINE
  5
2EE
330
1F
100
AcDbEntity
  8
0
  6
Continuous
 62
     7
370
    25
100
AcDbLine
 10
-439.9271514325
 20
773.0835318353
 30
0.0
 11
-439.9271514325
 21
755.5835318353
 31
0.0
  0
LINE
  5
2EF
330
1F
100
AcDbEntity
  8
0
  6
Continuous
 62
     7
370
    25
100
AcDbLine
 10
-439.9271514325
 20
773.0835318353
 30
0.0
 11
-468.7946648919
 21
773.0835318353
 31
0.0
  0
LINE
  5
2F0
330
1F
100
AcDbEntity
  8
0
  6
Continuous
 62
     7
370
    25
100
AcDbLine
 10
-110.314717689
 20
796.4088493826
 30
0.0
 11
-81.4472042295
 21
796.4088493826
 31
0.0
  0
LINE
  5
2F1
330
1F
100
AcDbEntity
  8
0
  6
Continuous
 62
     7
370
    25
100
AcDbLine
 10
-81.4472042295
 20
796.4088493826
 30
0.0
 11
-68.9472042295
 21
774.758214288
 31
0.0
  0
LINE
  5
2F2
330
1F
100
AcDbEntity
  8
0
  6
Continuous
 62
     7
370
    25
100
AcDbLine
 10
-97.814717689
 20
774.758214288
 30
0.0
 11
-68.9472042295
 21
774.758214288
 31
0.0
  0
LINE
  5
2F3
330
1F
100
AcDbEntity
  8
0
  6
Continuous
 62
     7
370
    25
100
AcDbLine
 10
-86.7442096133
 20
755.5835318353
 30
0.0
 11
-97.814717689
 21
774.758214288
 31
0.0
  0
LINE
  5
2F4
330
1F
100
AcDbEntity
  8
0
  6
Continuous
 62
     7
370
    25
100
AcDbLine
 10
-443.7946648919
 20
755.5835318353
 30
0.0
 11
-67.5177123052
 21
755.5835318353
 31
0.0
  0
LINE
  5
2F5
330
1F
100
AcDbEntity
  8
0
  6
Continuous
 62
     7
370
    25
100
AcDbLine
 10
-121.3852257647
 20
815.5835318353
 30
0.0
 11
-110.314717689
 21
796.4088493826
 31
0.0
  0
LINE
  5
2F6
330
1F
100
AcDbEntity
  8
0
  6
Continuous
 62
     7
370
    25
100
AcDbLine
 10
-439.9271514325
 20
815.5835318353
 30
0.0
 11
-439.9271514325
 21
798.0835318353
 31
0.0
  0
LINE
  5
2F7
330
1F
100
AcDbEntity
  8
0
  6
Continuous
 62
     7
370
    25
100
AcDbLine
 10
-439.9271514325
 20
798.0835318353
 30
0.0
 11
-468.7946648919
 21
798.0835318353
 31
0.0
  0
LINE
  5
2F8
330
1F
100
AcDbEntity
  8
0
  6
Continuous
 62
     7
370
    25
100
AcDbLine
 10
-67.5177123052
 20
695.5835318353
 30
0.0
 11
-443.7946648919
 21
695.5835318353
 31
0.0
  0
LINE
  5
2F9
330
1F
100
AcDbEntity
  8
0
  6
Continuous
 62
     7
370
    25
100
AcDbLine
 10
-443.7946648919
 20
713.0835318353
 30
0.0
 11
-443.7946648919
 21
695.5835318353
 31
0.0
  0
LINE
  5
2FA
330
1F
100
AcDbEntity
  8
0
  6
Continuous
 62
     7
370
    25
100
AcDbLine
 10
-443.7946648919
 20
713.0835318353
 30
0.0
 11
-468.7946648919
 21
713.0835318353
 31
0.0
  0
LINE
  5
2FB
330
1F
100
AcDbEntity
  8
0
  6
Continuous
 62
     7
370
    25
100
AcDbLine
 10
-67.5177123052
 20
755.5835318353
 30
0.0
 11
-67.5177123052
 21
738.0835318353
 31
0.0
  0
LINE
  5
2FC
330
1F
100
AcDbEntity
  8
0
  6
Continuous
 62
     7
370
    25
100
AcDbLine
 10
-67.5177123052
 20
738.0835318353
 30
0.0
 11
-42.5177123052
 21
738.0835318353
 31
0.0
  0
LINE
  5
2FD
330
1F
100
AcDbEntity
  8
0
  6
Continuous
 62
     7
370
    25
100
AcDbLine
 10
-42.5177123052
 20
713.0835318353
 30
0.0
 11
-42.5177123052
 21
738.0835318353
 31
0.0
  0
LINE
  5
2FE
330
1F
100
AcDbEntity
  8
0
  6
Continuous
 62
     7
370
    25
100
AcDbLine
 10
-67.5177123052
 20
713.0835318353
 30
0.0
 11
-42.5177123052
 21
713.0835318353
 31
0.0
  0
LINE
  5
2FF
330
1F
100
AcDbEntity
  8
0
  6
Continuous
 62
     7
370
    25
100
AcDbLine
 10
-67.5177123052
 20
713.0835318353
 30
0.0
 11
-67.5177123052
 21
695.5835318353
 31
0.0
  0
LINE
  5
300
330
1F
100
AcDbEntity
  8
0
  6
Continuous
 62
     7
370
    25
100
AcDbLine
 10
-443.7946648919
 20
755.5835318353
 30
0.0
 11
-443.7946648919
 21
738.0835318353
 31
0.0
  0
LINE
  5
301
330
1F
100
AcDbEntity
  8
0
  6
Continuous
 62
     7
370
    25
100
AcDbLine
 10
-443.7946648919
 20
738.0835318353
 30
0.0
 11
-468.7946648919
 21
738.0835318353
 31
0.0
  0
LINE
  5
302
330
1F
100
AcDbEntity
  8
0
  6
Continuous
 62
     7
370
    25
100
AcDbLine
 10
-352.0495881208
 20
1130.5835318353
 30
0.0
 11
-329.5495881208
 21
1130.5835318353
 31
0.0
  0
LINE
  5
303
330
1F
100
AcDbEntity
  8
0
  6
Continuous
 62
     7
370
    25
100
AcDbLine
 10
-329.5495881208
 20
1139.5835318353
 30
0.0
 11
-329.5495881208
 21
1130.5835318353
 31
0.0
  0
LINE
  5
304
330
1F
100
AcDbEntity
  8
0
  6
Continuous
 62
     7
370
    25
100
AcDbLine
 10
-352.0495881208
 20
1139.5835318353
 30
0.0
 11
-329.5495881208
 21
1139.5835318353
 31
0.0
  0
LINE
  5
305
330
1F
100
AcDbEntity
  8
0
  6
Continuous
 62
     7
370
    25
100
AcDbLine
 10
-352.0495881208
 20
1130.5835318353
 30
0.0
 11
-352.0495881208
 21
1139.5835318353
 31
0.0
  0
LINE
  5
306
330
1F
100
AcDbEntity
  8
0
  6
Continuous
 62
     7
370
    25
100
AcDbLine
 10
-329.5495881208
 20
1073.5835318353
 30
0.0
 11
-329.5495881208
 21
1064.5835318353
 31
0.0
  0
LINE
  5
307
330
1F
100
AcDbEntity
  8
0
  6
Continuous
 62
     7
370
    25
100
AcDbLine
 10
-352.0495881208
 20
1073.5835318353
 30
0.0
 11
-329.5495881208
 21
1073.5835318353
 31
0.0
  0
LINE
  5
308
330
1F
100
AcDbEntity
  8
0
  6
Continuous
 62
     7
370
    25
100
AcDbLine
 10
-352.0495881208
 20
1064.5835318353
 30
0.0
 11
-352.0495881208
 21
1073.5835318353
 31
0.0
  0
LINE
  5
309
330
1F
100
AcDbEntity
  8
0
  6
Continuous
 62
     7
370
    25
100
AcDbLine
 10
-352.0495881208
 20
1064.5835318353
 30
0.0
 11
-329.5495881208
 21
1064.5835318353
 31
0.0
  0
LINE
  5
30A
330
1F
100
AcDbEntity
  8
0
  6
Continuous
 62
     7
370
    25
100
AcDbLine
 10
-86.0946648919
 20
1016.082480033
 30
0.0
 11
-111.0946648919
 21
1030.5162367627
 31
0.0
  0
LINE
  5
30B
330
1F
100
AcDbEntity
  8
0
  6
Continuous
 62
     7
370
    25
100
AcDbLine
 10
-124.5946648919
 20
1022.7220081286
 30
0.0
 11
-142.0946648919
 21
1022.7220081286
 31
0.0
  0
LINE
  5
30C
330
1F
100
AcDbEntity
  8
0
  6
Continuous
 62
     7
370
    25
100
AcDbLine
 10
-142.0946648919
 20
1022.7220081286
 30
0.0
 11
-142.0946648919
 21
1047.7220081286
 31
0.0
  0
LINE
  5
30D
330
1F
100
AcDbEntity
  8
0
  6
Continuous
 62
     7
370
    25
100
AcDbLine
 10
-167.0946648919
 20
1047.7220081286
 30
0.0
 11
-142.0946648919
 21
1047.7220081286
 31
0.0
  0
LINE
  5
30E
330
1F
100
AcDbEntity
  8
0
  6
Continuous
 62
     7
370
    25
100
AcDbLine
 10
-167.0946648919
 20
1022.7220081286
 30
0.0
 11
-167.0946648919
 21
1047.7220081286
 31
0.0
  0
LINE
  5
30F
330
1F
100
AcDbEntity
  8
0
  6
Continuous
 62
     7
370
    25
100
AcDbLine
 10
-167.0946648919
 20
1022.7220081286
 30
0.0
 11
-184.5946648919
 21
1022.7220081286
 31
0.0
  0
LINE
  5
310
330
1F
100
AcDbEntity
  8
0
  6
Continuous
 62
     7
370
    25
100
AcDbLine
 10
-184.5946648919
 20
1046.5835318353
 30
0.0
 11
-184.5946648919
 21
1022.7220081286
 31
0.0
  0
LINE
  5
311
330
1F
100
AcDbEntity
  8
0
  6
Continuous
 62
     7
370
    25
100
AcDbLine
 10
-193.5946648919
 20
1055.5835318353
 30
0.0
 11
-468.7946648919
 21
1055.5835318353
 31
0.0
  0
LINE
  5
312
330
1F
100
AcDbEntity
  8
0
  6
Continuous
 62
     7
370
    25
100
AcDbLine
 10
-404.5495881208
 20
1064.5835318353
 30
0.0
 11
-382.0495881208
 21
1064.5835318353
 31
0.0
  0
LINE
  5
313
330
1F
100
AcDbEntity
  8
0
  6
Continuous
 62
     7
370
    25
100
AcDbLine
 10
-382.0495881208
 20
1064.5835318353
 30
0.0
 11
-382.0495881208
 21
1073.5835318353
 31
0.0
  0
LINE
  5
314
330
1F
100
AcDbEntity
  8
0
  6
Continuous
 62
     7
370
    25
100
AcDbLine
 10
-404.5495881208
 20
1073.5835318353
 30
0.0
 11
-382.0495881208
 21
1073.5835318353
 31
0.0
  0
LINE
  5
315
330
1F
100
AcDbEntity
  8
0
  6
Continuous
 62
     7
370
    25
100
AcDbLine
 10
-404.5495881208
 20
1130.5835318353
 30
0.0
 11
-382.0495881208
 21
1130.5835318353
 31
0.0
  0
LINE
  5
316
330
1F
100
AcDbEntity
  8
0
  6
Continuous
 62
     7
370
    25
100
AcDbLine
 10
-382.0495881208
 20
1130.5835318353
 30
0.0
 11
-382.0495881208
 21
1139.5835318353
 31
0.0
  0
LINE
  5
317
330
1F
100
AcDbEntity
  8
0
  6
Continuous
 62
     7
370
    25
100
AcDbLine
 10
-404.5495881208
 20
1139.5835318353
 30
0.0
 11
-382.0495881208
 21
1139.5835318353
 31
0.0
  0
LINE
  5
318
330
1F
100
AcDbEntity
  8
0
  6
Continuous
 62
     7
370
    25
100
AcDbLine
 10
-404.5495881208
 20
1234.5835318353
 30
0.0
 11
-389.5495881208
 21
1234.5835318353
 31
0.0
  0
LINE
  5
319
330
1F
100
AcDbEntity
  8
0
  6
Continuous
 62
     7
370
    25
100
AcDbLine
 10
-389.5495881208
 20
1234.5835318353
 30
0.0
 11
-389.5495881208
 21
1243.5835318353
 31
0.0
  0
LINE
  5
31A
330
1F
100
AcDbEntity
  8
0
  6
Continuous
 62
     7
370
    25
100
AcDbLine
 10
-404.5495881208
 20
1243.5835318353
 30
0.0
 11
-389.5495881208
 21
1243.5835318353
 31
0.0
  0
LINE
  5
31B
330
1F
100
AcDbEntity
  8
0
  6
Continuous
 62
     7
370
    25
100
AcDbLine
 10
-404.5495881208
 20
1309.7835318353
 30
0.0
 11
-404.5495881208
 21
1055.5835318353
 31
0.0
  0
LINE
  5
31C
330
1F
100
AcDbEntity
  8
0
  6
Continuous
 62
     7
370
    25
100
AcDbLine
 10
-404.5495881208
 20
1305.5835318353
 30
0.0
 11
-389.5495881208
 21
1305.5835318353
 31
0.0
  0
LINE
  5
31D
330
1F
100
AcDbEntity
  8
0
  6
Continuous
 62
     7
370
    25
100
AcDbLine
 10
-389.5495881208
 20
1305.5835318353
 30
0.0
 11
-389.5495881208
 21
1314.5835318353
 31
0.0
  0
LINE
  5
31E
330
1F
100
AcDbEntity
  8
0
  6
Continuous
 62
     7
370
    25
100
AcDbLine
 10
-404.5495881208
 20
1314.5835318353
 30
0.0
 11
-389.5495881208
 21
1314.5835318353
 31
0.0
  0
LINE
  5
31F
330
1F
100
AcDbEntity
  8
0
  6
Continuous
 62
     7
370
    25
100
AcDbLine
 10
-353.5495881208
 20
1323.5835318353
 30
0.0
 11
-395.5495881208
 21
1323.5835318353
 31
0.0
  0
LINE
  5
320
330
1F
100
AcDbEntity
  8
0
  6
Continuous
 62
     7
370
    25
100
AcDbLine
 10
-344.5495881208
 20
1314.5835318353
 30
0.0
 11
-359.5495881208
 21
1314.5835318353
 31
0.0
  0
LINE
  5
321
330
1F
100
AcDbEntity
  8
0
  6
Continuous
 62
     7
370
    25
100
AcDbLine
 10
-359.5495881208
 20
1305.5835318353
 30
0.0
 11
-359.5495881208
 21
1314.5835318353
 31
0.0
  0
LINE
  5
322
330
1F
100
AcDbEntity
  8
0
  6
Continuous
 62
     7
370
    25
100
AcDbLine
 10
-359.5495881208
 20
1305.5835318353
 30
0.0
 11
-344.5495881208
 21
1305.5835318353
 31
0.0
  0
LINE
  5
323
330
1F
100
AcDbEntity
  8
0
  6
Continuous
 62
     7
370
    25
100
AcDbLine
 10
-344.5495881208
 20
1234.5835318353
 30
0.0
 11
-344.5495881208
 21
1305.5835318353
 31
0.0
  0
LINE
  5
324
330
1F
100
AcDbEntity
  8
0
  6
Continuous
 62
     7
370
    25
100
AcDbLine
 10
-359.5495881208
 20
1243.5835318353
 30
0.0
 11
-344.5495881208
 21
1243.5835318353
 31
0.0
  0
LINE
  5
325
330
1F
100
AcDbEntity
  8
0
  6
Continuous
 62
     7
370
    25
100
AcDbLine
 10
-359.5495881208
 20
1234.5835318353
 30
0.0
 11
-359.5495881208
 21
1243.5835318353
 31
0.0
  0
LINE
  5
326
330
1F
100
AcDbEntity
  8
0
  6
Continuous
 62
     7
370
    25
100
AcDbLine
 10
-359.5495881208
 20
1234.5835318353
 30
0.0
 11
-344.5495881208
 21
1234.5835318353
 31
0.0
  0
LINE
  5
327
330
1F
100
AcDbEntity
  8
0
  6
Continuous
 62
     7
370
    25
100
AcDbLine
 10
-344.5495881208
 20
1234.5835318353
 30
0.0
 11
-86.0946648919
 21
1085.3645123357
 31
0.0
  0
LINE
  5
328
330
1F
100
AcDbEntity
  8
0
  6
Continuous
 62
     7
370
    25
100
AcDbLine
 10
-86.0946648919
 20
1063.2234961843
 30
0.0
 11
-111.0946648919
 21
1077.6572529141
 31
0.0
  0
LINE
  5
329
330
1F
100
AcDbEntity
  8
0
  6
Continuous
 62
     7
370
    25
100
AcDbLine
 10
-111.0946648919
 20
1052.6572529141
 30
0.0
 11
-111.0946648919
 21
1077.6572529141
 31
0.0
  0
LINE
  5
32A
330
1F
100
AcDbEntity
  8
0
  6
Continuous
 62
     7
370
    25
100
AcDbLine
 10
-86.0946648919
 20
1038.2234961843
 30
0.0
 11
-111.0946648919
 21
1052.6572529141
 31
0.0
  0
LINE
  5
32B
330
1F
100
AcDbEntity
  8
0
  6
Continuous
 62
     7
370
    25
100
AcDbLine
 10
-86.0946648919
 20
1085.3645123357
 30
0.0
 11
-86.0946648919
 21
1014.3645123357
 31
0.0
  0
LINE
  5
32C
330
1F
100
AcDbEntity
  8
0
  6
Continuous
 62
     7
370
    25
100
AcDbLine
 10
-78.5946648919
 20
1189.3645123357
 30
0.0
 11
-101.0946648919
 21
1189.3645123357
 31
0.0
  0
LINE
  5
32D
330
1F
100
AcDbEntity
  8
0
  6
Continuous
 62
     7
370
    25
100
AcDbLine
 10
-101.0946648919
 20
1180.3645123357
 30
0.0
 11
-101.0946648919
 21
1189.3645123357
 31
0.0
  0
LINE
  5
32E
330
1F
100
AcDbEntity
  8
0
  6
Continuous
 62
     7
370
    25
100
AcDbLine
 10
-78.5946648919
 20
1180.3645123357
 30
0.0
 11
-101.0946648919
 21
1180.3645123357
 31
0.0
  0
LINE
  5
32F
330
1F
100
AcDbEntity
  8
0
  6
Continuous
 62
     7
370
    25
100
AcDbLine
 10
-78.5946648919
 20
1189.3645123357
 30
0.0
 11
-78.5946648919
 21
1180.3645123357
 31
0.0
  0
LINE
  5
330
330
1F
100
AcDbEntity
  8
0
  6
Continuous
 62
     7
370
    25
100
AcDbLine
 10
-101.0946648919
 20
1246.3645123357
 30
0.0
 11
-101.0946648919
 21
1255.3645123357
 31
0.0
  0
LINE
  5
331
330
1F
100
AcDbEntity
  8
0
  6
Continuous
 62
     7
370
    25
100
AcDbLine
 10
-78.5946648919
 20
1246.3645123357
 30
0.0
 11
-101.0946648919
 21
1246.3645123357
 31
0.0
  0
LINE
  5
332
330
1F
100
AcDbEntity
  8
0
  6
Continuous
 62
     7
370
    25
100
AcDbLine
 10
-78.5946648919
 20
1255.3645123357
 30
0.0
 11
-78.5946648919
 21
1246.3645123357
 31
0.0
  0
LINE
  5
333
330
1F
100
AcDbEntity
  8
0
  6
Continuous
 62
     7
370
    25
100
AcDbLine
 10
-78.5946648919
 20
1255.3645123357
 30
0.0
 11
-101.0946648919
 21
1255.3645123357
 31
0.0
  0
LINE
  5
334
330
1F
100
AcDbEntity
  8
0
  6
Continuous
 62
     7
370
    25
100
AcDbLine
 10
-263.5495881208
 20
1272.2260360424
 30
0.0
 11
-288.5495881208
 21
1272.2260360424
 31
0.0
  0
LINE
  5
335
330
1F
100
AcDbEntity
  8
0
  6
Continuous
 62
     7
370
    25
100
AcDbLine
 10
-263.5495881208
 20
1297.2260360424
 30
0.0
 11
-246.0495881208
 21
1297.2260360424
 31
0.0
  0
LINE
  5
336
330
1F
100
AcDbEntity
  8
0
  6
Continuous
 62
     7
370
    25
100
AcDbLine
 10
-246.0495881208
 20
1273.3645123357
 30
0.0
 11
-246.0495881208
 21
1297.2260360424
 31
0.0
  0
LINE
  5
337
330
1F
100
AcDbEntity
  8
0
  6
Continuous
 62
     7
370
    25
100
AcDbLine
 10
-237.0495881208
 20
1264.3645123357
 30
0.0
 11
-35.0946648919
 21
1264.3645123357
 31
0.0
  0
LINE
  5
338
330
1F
100
AcDbEntity
  8
0
  6
Continuous
 62
     7
370
    25
100
AcDbLine
 10
-26.0946648919
 20
1255.3645123357
 30
0.0
 11
-48.5946648919
 21
1255.3645123357
 31
0.0
  0
LINE
  5
339
330
1F
100
AcDbEntity
  8
0
  6
Continuous
 62
     7
370
    25
100
AcDbLine
 10
-48.5946648919
 20
1255.3645123357
 30
0.0
 11
-48.5946648919
 21
1246.3645123357
 31
0.0
  0
LINE
  5
33A
330
1F
100
AcDbEntity
  8
0
  6
Continuous
 62
     7
370
    25
100
AcDbLine
 10
-26.0946648919
 20
1246.3645123357
 30
0.0
 11
-48.5946648919
 21
1246.3645123357
 31
0.0
  0
LINE
  5
33B
330
1F
100
AcDbEntity
  8
0
  6
Continuous
 62
     7
370
    25
100
AcDbLine
 10
-26.0946648919
 20
1189.3645123357
 30
0.0
 11
-26.0946648919
 21
1246.3645123357
 31
0.0
  0
LINE
  5
33C
330
1F
100
AcDbEntity
  8
0
  6
Continuous
 62
     7
370
    25
100
AcDbLine
 10
-26.0946648919
 20
1189.3645123357
 30
0.0
 11
-48.5946648919
 21
1189.3645123357
 31
0.0
  0
LINE
  5
33D
330
1F
100
AcDbEntity
  8
0
  6
Continuous
 62
     7
370
    25
100
AcDbLine
 10
-48.5946648919
 20
1189.3645123357
 30
0.0
 11
-48.5946648919
 21
1180.3645123357
 31
0.0
  0
LINE
  5
33E
330
1F
100
AcDbEntity
  8
0
  6
Continuous
 62
     7
370
    25
100
AcDbLine
 10
-26.0946648919
 20
1180.3645123357
 30
0.0
 11
-48.5946648919
 21
1180.3645123357
 31
0.0
  0
LINE
  5
33F
330
1F
100
AcDbEntity
  8
0
  6
Continuous
 62
     7
370
    25
100
AcDbLine
 10
-26.0946648919
 20
1085.3645123357
 30
0.0
 11
-26.0946648919
 21
1180.3645123357
 31
0.0
  0
LINE
  5
340
330
1F
100
AcDbEntity
  8
0
  6
Continuous
 62
     7
370
    25
100
AcDbLine
 10
-26.0946648919
 20
1085.3645123357
 30
0.0
 11
-41.0946648919
 21
1085.3645123357
 31
0.0
  0
LINE
  5
341
330
1F
100
AcDbEntity
  8
0
  6
Continuous
 62
     7
370
    25
100
AcDbLine
 10
-41.0946648919
 20
1085.3645123357
 30
0.0
 11
-41.0946648919
 21
1076.3645123357
 31
0.0
  0
LINE
  5
342
330
1F
100
AcDbEntity
  8
0
  6
Continuous
 62
     7
370
    25
100
AcDbLine
 10
-26.0946648919
 20
1076.3645123357
 30
0.0
 11
-41.0946648919
 21
1076.3645123357
 31
0.0
  0
LINE
  5
343
330
1F
100
AcDbEntity
  8
0
  6
Continuous
 62
     7
370
    25
100
AcDbLine
 10
-26.0946648919
 20
1014.3645123357
 30
0.0
 11
-26.0946648919
 21
1076.3645123357
 31
0.0
  0
LINE
  5
344
330
1F
100
AcDbEntity
  8
0
  6
Continuous
 62
     7
370
    25
100
AcDbLine
 10
-26.0946648919
 20
1014.3645123357
 30
0.0
 11
-41.0946648919
 21
1014.3645123357
 31
0.0
  0
LINE
  5
345
330
1F
100
AcDbEntity
  8
0
  6
Continuous
 62
     7
370
    25
100
AcDbLine
 10
-41.0946648919
 20
1014.3645123357
 30
0.0
 11
-41.0946648919
 21
1005.3645123357
 31
0.0
  0
LINE
  5
346
330
1F
100
AcDbEntity
  8
0
  6
Continuous
 62
     7
370
    25
100
AcDbLine
 10
-26.0946648919
 20
1005.3645123357
 30
0.0
 11
-41.0946648919
 21
1005.3645123357
 31
0.0
  0
LINE
  5
347
330
1F
100
AcDbEntity
  8
0
  6
Continuous
 62
     7
370
    25
100
AcDbLine
 10
-77.0946648919
 20
996.3645123357
 30
0.0
 11
-35.0946648919
 21
996.3645123357
 31
0.0
  0
LINE
  5
348
330
1F
100
AcDbEntity
  8
0
  6
Continuous
 62
     7
370
    25
100
AcDbLine
 10
-86.0946648919
 20
1005.3645123357
 30
0.0
 11
-71.0946648919
 21
1005.3645123357
 31
0.0
  0
LINE
  5
349
330
1F
100
AcDbEntity
  8
0
  6
Continuous
 62
     7
370
    25
100
AcDbLine
 10
-71.0946648919
 20
1014.3645123357
 30
0.0
 11
-71.0946648919
 21
1005.3645123357
 31
0.0
  0
LINE
  5
34A
330
1F
100
AcDbEntity
  8
0
  6
Continuous
 62
     7
370
    25
100
AcDbLine
 10
-71.0946648919
 20
1014.3645123357
 30
0.0
 11
-86.0946648919
 21
1014.3645123357
 31
0.0
  0
LINE
  5
34B
330
1F
100
AcDbEntity
  8
0
  6
Continuous
 62
     7
370
    25
100
AcDbLine
 10
-71.0946648919
 20
1076.3645123357
 30
0.0
 11
-86.0946648919
 21
1076.3645123357
 31
0.0
  0
LINE
  5
34C
330
1F
100
AcDbEntity
  8
0
  6
Continuous
 62
     7
370
    25
100
AcDbLine
 10
-71.0946648919
 20
1085.3645123357
 30
0.0
 11
-71.0946648919
 21
1076.3645123357
 31
0.0
  0
LINE
  5
34D
330
1F
100
AcDbEntity
  8
0
  6
Continuous
 62
     7
370
    25
100
AcDbLine
 10
-71.0946648919
 20
1085.3645123357
 30
0.0
 11
-86.0946648919
 21
1085.3645123357
 31
0.0
  0
LINE
  5
34E
330
1F
100
AcDbEntity
  8
0
  6
Continuous
 62
     7
370
    25
100
AcDbLine
 10
-344.5495881208
 20
1256.7245479867
 30
0.0
 11
-319.5495881208
 21
1242.2907912569
 31
0.0
  0
LINE
  5
34F
330
1F
100
AcDbEntity
  8
0
  6
Continuous
 62
     7
370
    25
100
AcDbLine
 10
-319.5495881208
 20
1267.2907912569
 30
0.0
 11
-319.5495881208
 21
1242.2907912569
 31
0.0
  0
LINE
  5
350
330
1F
100
AcDbEntity
  8
0
  6
Continuous
 62
     7
370
    25
100
AcDbLine
 10
-344.5495881208
 20
1281.7245479867
 30
0.0
 11
-319.5495881208
 21
1267.2907912569
 31
0.0
  0
LINE
  5
351
330
1F
100
AcDbEntity
  8
0
  6
Continuous
 62
     7
370
    25
100
AcDbLine
 10
-263.5495881208
 20
1297.2260360424
 30
0.0
 11
-263.5495881208
 21
1272.2260360424
 31
0.0
  0
LINE
  5
352
330
1F
100
AcDbEntity
  8
0
  6
Continuous
 62
     7
370
    25
100
AcDbLine
 10
-288.5495881208
 20
1297.2260360424
 30
0.0
 11
-288.5495881208
 21
1272.2260360424
 31
0.0
  0
LINE
  5
353
330
1F
100
AcDbEntity
  8
0
  6
Continuous
 62
     7
370
    25
100
AcDbLine
 10
-306.0495881208
 20
1297.2260360424
 30
0.0
 11
-288.5495881208
 21
1297.2260360424
 31
0.0
  0
LINE
  5
354
330
1F
100
AcDbEntity
  8
0
  6
Continuous
 62
     7
370
    25
100
AcDbLine
 10
-344.5495881208
 20
1303.865564138
 30
0.0
 11
-319.5495881208
 21
1289.4318074083
 31
0.0
  0
LINE
  5
355
330
1F
100
AcDbEntity
  8
0
  6
Continuous
 62
     7
370
    25
100
AcDbLine
 10
-749.4366034413
 20
838.0835318353
 30
0.0
 11
-767.4366034413
 21
838.0835318353
 31
0.0
  0
LINE
  5
356
330
1F
100
AcDbEntity
  8
0
  6
Continuous
 62
     7
370
    25
100
AcDbLine
 10
-758.4366034413
 20
825.5835318353
 30
0.0
 11
-758.4366034413
 21
838.0835318353
 31
0.0
  0
LINE
  5
357
330
1F
100
AcDbEntity
  8
0
  6
Continuous
 62
     7
370
    25
100
AcDbLine
 10
-683.4366034413
 20
825.5835318353
 30
0.0
 11
-833.4366034413
 21
825.5835318353
 31
0.0
  0
LINE
  5
358
330
1F
100
AcDbEntity
  8
0
  6
Continuous
 62
     7
370
    25
100
AcDbLine
 10
-833.4366034413
 20
825.5835318353
 30
0.0
 11
-833.4366034413
 21
838.0835318353
 31
0.0
  0
LINE
  5
359
330
1F
100
AcDbEntity
  8
0
  6
Continuous
 62
     7
370
    25
100
AcDbLine
 10
-824.4366034413
 20
838.0835318353
 30
0.0
 11
-833.4366034413
 21
838.0835318353
 31
0.0
  0
LINE
  5
35A
330
1F
100
AcDbEntity
  8
0
  6
Continuous
 62
     7
370
    25
100
AcDbLine
 10
-824.4366034413
 20
838.0835318353
 30
0.0
 11
-824.4366034413
 21
858.0835318353
 31
0.0
  0
LINE
  5
35B
330
1F
100
AcDbEntity
  8
0
  6
Continuous
 62
     7
370
    25
100
AcDbLine
 10
-824.4366034413
 20
858.0835318353
 30
0.0
 11
-833.4366034413
 21
858.0835318353
 31
0.0
  0
LINE
  5
35C
330
1F
100
AcDbEntity
  8
0
  6
Continuous
 62
     7
370
    25
100
AcDbLine
 10
-758.4366034413
 20
858.0835318353
 30
0.0
 11
-758.4366034413
 21
870.5835318353
 31
0.0
  0
LINE
  5
35D
330
1F
100
AcDbEntity
  8
0
  6
Continuous
 62
     7
370
    25
100
AcDbLine
 10
-749.4366034413
 20
858.0835318353
 30
0.0
 11
-767.4366034413
 21
858.0835318353
 31
0.0
  0
LINE
  5
35E
330
1F
100
AcDbEntity
  8
0
  6
Continuous
 62
     7
370
    25
100
AcDbLine
 10
-767.4366034413
 20
858.0835318353
 30
0.0
 11
-767.4366034413
 21
838.0835318353
 31
0.0
  0
LINE
  5
35F
330
1F
100
AcDbEntity
  8
0
  6
Continuous
 62
     7
370
    25
100
AcDbLine
 10
-833.4366034413
 20
858.0835318353
 30
0.0
 11
-833.4366034413
 21
870.5835318353
 31
0.0
  0
LINE
  5
360
330
1F
100
AcDbEntity
  8
0
  6
Continuous
 62
     7
370
    25
100
AcDbLine
 10
-683.4366034413
 20
838.0835318353
 30
0.0
 11
-692.4366034413
 21
838.0835318353
 31
0.0
  0
LINE
  5
361
330
1F
100
AcDbEntity
  8
0
  6
Continuous
 62
     7
370
    25
100
AcDbLine
 10
-683.4366034413
 20
825.5835318353
 30
0.0
 11
-683.4366034413
 21
838.0835318353
 31
0.0
  0
LINE
  5
362
330
1F
100
AcDbEntity
  8
0
  6
Continuous
 62
     7
370
    25
100
AcDbLine
 10
-749.4366034413
 20
838.0835318353
 30
0.0
 11
-749.4366034413
 21
858.0835318353
 31
0.0
  0
LINE
  5
363
330
1F
100
AcDbEntity
  8
0
  6
Continuous
 62
     7
370
    25
100
AcDbLine
 10
-683.4366034413
 20
858.0835318353
 30
0.0
 11
-683.4366034413
 21
870.5835318353
 31
0.0
  0
LINE
  5
364
330
1F
100
AcDbEntity
  8
0
  6
Continuous
 62
     7
370
    25
100
AcDbLine
 10
-683.4366034413
 20
858.0835318353
 30
0.0
 11
-692.4366034413
 21
858.0835318353
 31
0.0
  0
LINE
  5
365
330
1F
100
AcDbEntity
  8
0
  6
Continuous
 62
     7
370
    25
100
AcDbLine
 10
-692.4366034413
 20
858.0835318353
 30
0.0
 11
-692.4366034413
 21
838.0835318353
 31
0.0
  0
LINE
  5
366
330
1F
100
AcDbEntity
  8
0
  6
Continuous
 62
     7
370
    25
100
AcDbLine
 10
-836.9571107324
 20
1141.947492866
 30
0.0
 11
-849.3210717631
 21
1129.5835318353
 31
0.0
  0
LINE
  5
367
330
1F
100
AcDbEntity
  8
0
  6
Continuous
 62
     7
370
    25
100
AcDbLine
 10
-858.3210717631
 20
1152.0835318353
 30
0.0
 11
-858.3210717631
 21
1129.5835318353
 31
0.0
  0
LINE
  5
368
330
1F
100
AcDbEntity
  8
0
  6
Continuous
 62
     7
370
    25
100
AcDbLine
 10
-858.3210717631
 20
1152.0835318353
 30
0.0
 11
-849.3210717631
 21
1152.0835318353
 31
0.0
  0
LINE
  5
369
330
1F
100
AcDbEntity
  8
0
  6
Continuous
 62
     7
370
    25
100
AcDbLine
 10
-849.3210717631
 20
1182.0835318353
 30
0.0
 11
-849.3210717631
 21
1152.0835318353
 31
0.0
  0
LINE
  5
36A
330
1F
100
AcDbEntity
  8
0
  6
Continuous
 62
     7
370
    25
100
AcDbLine
 10
-858.3210717631
 20
1182.0835318353
 30
0.0
 11
-849.3210717631
 21
1182.0835318353
 31
0.0
  0
LINE
  5
36B
330
1F
100
AcDbEntity
  8
0
  6
Continuous
 62
     7
370
    25
100
AcDbLine
 10
-858.3210717631
 20
1204.5835318353
 30
0.0
 11
-858.3210717631
 21
1182.0835318353
 31
0.0
  0
LINE
  5
36C
330
1F
100
AcDbEntity
  8
0
  6
Continuous
 62
     7
370
    25
100
AcDbLine
 10
-858.3210717631
 20
1204.5835318353
 30
0.0
 11
-849.3210717631
 21
1204.5835318353
 31
0.0
  0
LINE
  5
36D
330
1F
100
AcDbEntity
  8
0
  6
Continuous
 62
     7
370
    25
100
AcDbLine
 10
-836.9571107324
 20
1192.2195708046
 30
0.0
 11
-849.3210717631
 21
1204.5835318353
 31
0.0
  0
LINE
  5
36E
330
1F
100
AcDbEntity
  8
0
  6
Continuous
 62
     7
370
    25
100
AcDbLine
 10
-649.0322386228
 20
1189.5835318353
 30
0.0
 11
-830.5931497018
 21
1189.5835318353
 31
0.0
  0
LINE
  5
36F
330
1F
100
AcDbEntity
  8
0
  6
Continuous
 62
     7
370
    25
100
AcDbLine
 10
-649.0322386228
 20
1189.5835318353
 30
0.0
 11
-649.0322386228
 21
1177.0835318353
 31
0.0
  0
LINE
  5
370
330
1F
100
AcDbEntity
  8
0
  6
Continuous
 62
     7
370
    25
100
AcDbLine
 10
-649.0322386228
 20
1177.0835318353
 30
0.0
 11
-640.0322386228
 21
1177.0835318353
 31
0.0
  0
LINE
  5
371
330
1F
100
AcDbEntity
  8
0
  6
Continuous
 62
     7
370
    25
100
AcDbLine
 10
-640.0322386228
 20
1189.5835318353
 30
0.0
 11
-640.0322386228
 21
1177.0835318353
 31
0.0
  0
LINE
  5
372
330
1F
100
AcDbEntity
  8
0
  6
Continuous
 62
     7
370
    25
100
AcDbLine
 10
-618.0942451557
 20
1201.1306677512
 30
0.0
 11
-640.0322386228
 21
1189.5835318353
 31
0.0
  0
LINE
  5
373
330
1F
100
AcDbEntity
  8
0
  6
Continuous
 62
     7
370
    25
100
AcDbLine
 10
-611.1076584594
 20
1187.8570997933
 30
0.0
 11
-588.1171643585
 21
1199.9582229227
 31
0.0
  0
LINE
  5
374
330
1F
100
AcDbEntity
  8
0
  6
Continuous
 62
     7
370
    25
100
AcDbLine
 10
-597.1344850668
 20
1161.3099638773
 30
0.0
 11
-574.1439909659
 21
1173.4110870068
 31
0.0
  0
LINE
  5
375
330
1F
100
AcDbEntity
  8
0
  6
Continuous
 62
     7
370
    25
100
AcDbLine
 10
-640.0322386228
 20
1157.0835318353
 30
0.0
 11
-640.0322386228
 21
1144.5835318353
 31
0.0
  0
LINE
  5
376
330
1F
100
AcDbEntity
  8
0
  6
Continuous
 62
     7
370
    25
100
AcDbLine
 10
-649.0322386228
 20
1157.0835318353
 30
0.0
 11
-640.0322386228
 21
1157.0835318353
 31
0.0
  0
LINE
  5
377
330
1F
100
AcDbEntity
  8
0
  6
Continuous
 62
     7
370
    25
100
AcDbLine
 10
-649.0322386228
 20
1157.0835318353
 30
0.0
 11
-649.0322386228
 21
1144.5835318353
 31
0.0
  0
LINE
  5
378
330
1F
100
AcDbEntity
  8
0
  6
Continuous
 62
     7
370
    25
100
AcDbLine
 10
-492.2775101822
 20
1144.5835318353
 30
0.0
 11
-830.5931497018
 21
1144.5835318353
 31
0.0
  0
LINE
  5
379
330
1F
100
AcDbEntity
  8
0
  6
Continuous
 62
     7
370
    25
100
AcDbLine
 10
-485.9135491515
 20
1147.2195708046
 30
0.0
 11
-473.5495881208
 21
1159.5835318353
 31
0.0
  0
LINE
  5
37A
330
1F
100
AcDbEntity
  8
0
  6
Continuous
 62
     7
370
    25
100
AcDbLine
 10
-464.5495881208
 20
1159.5835318353
 30
0.0
 11
-473.5495881208
 21
1159.5835318353
 31
0.0
  0
LINE
  5
37B
330
1F
100
AcDbEntity
  8
0
  6
Continuous
 62
     7
370
    25
100
AcDbLine
 10
-464.5495881208
 20
1137.0835318353
 30
0.0
 11
-473.5495881208
 21
1137.0835318353
 31
0.0
  0
LINE
  5
37C
330
1F
100
AcDbEntity
  8
0
  6
Continuous
 62
     7
370
    25
100
AcDbLine
 10
-473.5495881208
 20
1107.0835318353
 30
0.0
 11
-473.5495881208
 21
1137.0835318353
 31
0.0
  0
LINE
  5
37D
330
1F
100
AcDbEntity
  8
0
  6
Continuous
 62
     7
370
    25
100
AcDbLine
 10
-464.5495881208
 20
1107.0835318353
 30
0.0
 11
-473.5495881208
 21
1107.0835318353
 31
0.0
  0
LINE
  5
37E
330
1F
100
AcDbEntity
  8
0
  6
Continuous
 62
     7
370
    25
100
AcDbLine
 10
-464.5495881208
 20
1084.5835318353
 30
0.0
 11
-473.5495881208
 21
1084.5835318353
 31
0.0
  0
LINE
  5
37F
330
1F
100
AcDbEntity
  8
0
  6
Continuous
 62
     7
370
    25
100
AcDbLine
 10
-485.9135491515
 20
1096.947492866
 30
0.0
 11
-473.5495881208
 21
1084.5835318353
 31
0.0
  0
LINE
  5
380
330
1F
100
AcDbEntity
  8
0
  6
Continuous
 62
     7
370
    25
100
AcDbLine
 10
-673.8384212611
 20
1099.5835318353
 30
0.0
 11
-492.2775101822
 21
1099.5835318353
 31
0.0
  0
LINE
  5
381
330
1F
100
AcDbEntity
  8
0
  6
Continuous
 62
     7
370
    25
100
AcDbLine
 10
-673.8384212611
 20
1099.5835318353
 30
0.0
 11
-673.8384212611
 21
1112.0835318353
 31
0.0
  0
LINE
  5
382
330
1F
100
AcDbEntity
  8
0
  6
Continuous
 62
     7
370
    25
100
AcDbLine
 10
-673.8384212611
 20
1112.0835318353
 30
0.0
 11
-682.8384212611
 21
1112.0835318353
 31
0.0
  0
LINE
  5
383
330
1F
100
AcDbEntity
  8
0
  6
Continuous
 62
     7
370
    25
100
AcDbLine
 10
-682.8384212611
 20
1099.5835318353
 30
0.0
 11
-682.8384212611
 21
1112.0835318353
 31
0.0
  0
LINE
  5
384
330
1F
100
AcDbEntity
  8
0
  6
Continuous
 62
     7
370
    25
100
AcDbLine
 10
-704.7764147282
 20
1088.0363959193
 30
0.0
 11
-682.8384212611
 21
1099.5835318353
 31
0.0
  0
LINE
  5
385
330
1F
100
AcDbEntity
  8
0
  6
Continuous
 62
     7
370
    25
100
AcDbLine
 10
-711.7630014245
 20
1101.3099638773
 30
0.0
 11
-734.7534955254
 21
1089.2088407478
 31
0.0
  0
LINE
  5
386
330
1F
100
AcDbEntity
  8
0
  6
Continuous
 62
     7
370
    25
100
AcDbLine
 10
-725.7361748171
 20
1127.8570997933
 30
0.0
 11
-748.726668918
 21
1115.7559766638
 31
0.0
  0
LINE
  5
387
330
1F
100
AcDbEntity
  8
0
  6
Continuous
 62
     7
370
    25
100
AcDbLine
 10
-682.8384212611
 20
1132.0835318353
 30
0.0
 11
-682.8384212611
 21
1144.5835318353
 31
0.0
  0
LINE
  5
388
330
1F
100
AcDbEntity
  8
0
  6
Continuous
 62
     7
370
    25
100
AcDbLine
 10
-673.8384212611
 20
1132.0835318353
 30
0.0
 11
-682.8384212611
 21
1132.0835318353
 31
0.0
  0
LINE
  5
389
330
1F
100
AcDbEntity
  8
0
  6
Continuous
 62
     7
370
    25
100
AcDbLine
 10
-673.8384212611
 20
1132.0835318353
 30
0.0
 11
-673.8384212611
 21
1144.5835318353
 31
0.0
  0
LINE
  5
38A
330
1F
100
AcDbEntity
  8
0
  6
Continuous
 62
     7
370
    25
100
AcDbLine
 10
-485.9135491515
 20
1252.2195708046
 30
0.0
 11
-473.5495881208
 21
1264.5835318353
 31
0.0
  0
LINE
  5
38B
330
1F
100
AcDbEntity
  8
0
  6
Continuous
 62
     7
370
    25
100
AcDbLine
 10
-464.5495881208
 20
1264.5835318353
 30
0.0
 11
-473.5495881208
 21
1264.5835318353
 31
0.0
  0
LINE
  5
38C
330
1F
100
AcDbEntity
  8
0
  6
Continuous
 62
     7
370
    25
100
AcDbLine
 10
-473.5495881208
 20
1212.0835318353
 30
0.0
 11
-473.5495881208
 21
1242.0835318353
 31
0.0
  0
LINE
  5
38D
330
1F
100
AcDbEntity
  8
0
  6
Continuous
 62
     7
370
    25
100
AcDbLine
 10
-464.5495881208
 20
1212.0835318353
 30
0.0
 11
-473.5495881208
 21
1212.0835318353
 31
0.0
  0
LINE
  5
38E
330
1F
100
AcDbEntity
  8
0
  6
Continuous
 62
     7
370
    25
100
AcDbLine
 10
-464.5495881208
 20
1189.5835318353
 30
0.0
 11
-473.5495881208
 21
1189.5835318353
 31
0.0
  0
LINE
  5
38F
330
1F
100
AcDbEntity
  8
0
  6
Continuous
 62
     7
370
    25
100
AcDbLine
 10
-485.9135491515
 20
1201.947492866
 30
0.0
 11
-473.5495881208
 21
1189.5835318353
 31
0.0
  0
LINE
  5
390
330
1F
100
AcDbEntity
  8
0
  6
Continuous
 62
     7
370
    25
100
AcDbLine
 10
-673.8384212611
 20
1204.5835318353
 30
0.0
 11
-492.2775101822
 21
1204.5835318353
 31
0.0
  0
LINE
  5
391
330
1F
100
AcDbEntity
  8
0
  6
Continuous
 62
     7
370
    25
100
AcDbLine
 10
-673.8384212611
 20
1204.5835318353
 30
0.0
 11
-673.8384212611
 21
1217.0835318353
 31
0.0
  0
LINE
  5
392
330
1F
100
AcDbEntity
  8
0
  6
Continuous
 62
     7
370
    25
100
AcDbLine
 10
-673.8384212611
 20
1217.0835318353
 30
0.0
 11
-682.8384212611
 21
1217.0835318353
 31
0.0
  0
LINE
  5
393
330
1F
100
AcDbEntity
  8
0
  6
Continuous
 62
     7
370
    25
100
AcDbLine
 10
-682.8384212611
 20
1204.5835318353
 30
0.0
 11
-682.8384212611
 21
1217.0835318353
 31
0.0
  0
LINE
  5
394
330
1F
100
AcDbEntity
  8
0
  6
Continuous
 62
     7
370
    25
100
AcDbLine
 10
-704.7764147282
 20
1193.0363959193
 30
0.0
 11
-682.8384212611
 21
1204.5835318353
 31
0.0
  0
LINE
  5
395
330
1F
100
AcDbEntity
  8
0
  6
Continuous
 62
     7
370
    25
100
AcDbLine
 10
-711.7630014245
 20
1206.3099638773
 30
0.0
 11
-734.7534955254
 21
1194.2088407478
 31
0.0
  0
LINE
  5
396
330
1F
100
AcDbEntity
  8
0
  6
Continuous
 62
     7
370
    25
100
AcDbLine
 10
-725.7361748171
 20
1232.8570997933
 30
0.0
 11
-748.726668918
 21
1220.7559766638
 31
0.0
  0
LINE
  5
397
330
1F
100
AcDbEntity
  8
0
  6
Continuous
 62
     7
370
    25
100
AcDbLine
 10
-682.8384212611
 20
1237.0835318353
 30
0.0
 11
-682.8384212611
 21
1249.5835318353
 31
0.0
  0
LINE
  5
398
330
1F
100
AcDbEntity
  8
0
  6
Continuous
 62
     7
370
    25
100
AcDbLine
 10
-673.8384212611
 20
1237.0835318353
 30
0.0
 11
-682.8384212611
 21
1237.0835318353
 31
0.0
  0
LINE
  5
399
330
1F
100
AcDbEntity
  8
0
  6
Continuous
 62
     7
370
    25
100
AcDbLine
 10
-673.8384212611
 20
1237.0835318353
 30
0.0
 11
-673.8384212611
 21
1249.5835318353
 31
0.0
  0
LINE
  5
39A
330
1F
100
AcDbEntity
  8
0
  6
Continuous
 62
     7
370
    25
100
AcDbLine
 10
-830.5931497018
 20
1249.5835318353
 30
0.0
 11
-492.2775101822
 21
1249.5835318353
 31
0.0
  0
LINE
  5
39B
330
1F
100
AcDbEntity
  8
0
  6
Continuous
 62
     7
370
    25
100
AcDbLine
 10
-464.5495881208
 20
1270.7835318353
 30
0.0
 11
-464.5495881208
 21
1055.5835318353
 31
0.0
  0
LINE
  5
39C
330
1F
100
AcDbEntity
  8
0
  6
Continuous
 62
     7
370
    25
100
AcDbLine
 10
-464.5495881208
 20
1242.0835318353
 30
0.0
 11
-473.5495881208
 21
1242.0835318353
 31
0.0
  0
LINE
  5
39D
330
1F
100
AcDbEntity
  8
0
  6
Continuous
 62
     7
370
    25
100
AcDbLine
 10
-836.9571107324
 20
1246.947492866
 30
0.0
 11
-849.3210717631
 21
1234.5835318353
 31
0.0
  0
LINE
  5
39E
330
1F
100
AcDbEntity
  8
0
  6
Continuous
 62
     7
370
    25
100
AcDbLine
 10
-858.3210717631
 20
1234.5835318353
 30
0.0
 11
-849.3210717631
 21
1234.5835318353
 31
0.0
  0
LINE
  5
39F
330
1F
100
AcDbEntity
  8
0
  6
Continuous
 62
     7
370
    25
100
AcDbLine
 10
-858.3210717631
 20
1257.0835318353
 30
0.0
 11
-858.3210717631
 21
1234.5835318353
 31
0.0
  0
LINE
  5
3A0
330
1F
100
AcDbEntity
  8
0
  6
Continuous
 62
     7
370
    25
100
AcDbLine
 10
-858.3210717631
 20
1257.0835318353
 30
0.0
 11
-849.3210717631
 21
1257.0835318353
 31
0.0
  0
LINE
  5
3A1
330
1F
100
AcDbEntity
  8
0
  6
Continuous
 62
     7
370
    25
100
AcDbLine
 10
-849.3210717631
 20
1287.0835318353
 30
0.0
 11
-849.3210717631
 21
1257.0835318353
 31
0.0
  0
LINE
  5
3A2
330
1F
100
AcDbEntity
  8
0
  6
Continuous
 62
     7
370
    25
100
AcDbLine
 10
-858.3210717631
 20
1287.0835318353
 30
0.0
 11
-849.3210717631
 21
1287.0835318353
 31
0.0
  0
LINE
  5
3A3
330
1F
100
AcDbEntity
  8
0
  6
Continuous
 62
     7
370
    25
100
AcDbLine
 10
-858.3210717631
 20
1309.5835318353
 30
0.0
 11
-849.3210717631
 21
1309.5835318353
 31
0.0
  0
LINE
  5
3A4
330
1F
100
AcDbEntity
  8
0
  6
Continuous
 62
     7
370
    25
100
AcDbLine
 10
-836.9571107324
 20
1297.2195708046
 30
0.0
 11
-849.3210717631
 21
1309.5835318353
 31
0.0
  0
LINE
  5
3A5
330
1F
100
AcDbEntity
  8
0
  6
Continuous
 62
     7
370
    25
100
AcDbLine
 10
-649.0322386228
 20
1294.5835318353
 30
0.0
 11
-830.5931497018
 21
1294.5835318353
 31
0.0
  0
LINE
  5
3A6
330
1F
100
AcDbEntity
  8
0
  6
Continuous
 62
     7
370
    25
100
AcDbLine
 10
-649.0322386228
 20
1294.5835318353
 30
0.0
 11
-649.0322386228
 21
1282.0835318353
 31
0.0
  0
LINE
  5
3A7
330
1F
100
AcDbEntity
  8
0
  6
Continuous
 62
     7
370
    25
100
AcDbLine
 10
-649.0322386228
 20
1282.0835318353
 30
0.0
 11
-640.0322386228
 21
1282.0835318353
 31
0.0
  0
LINE
  5
3A8
330
1F
100
AcDbEntity
  8
0
  6
Continuous
 62
     7
370
    25
100
AcDbLine
 10
-640.0322386228
 20
1294.5835318353
 30
0.0
 11
-640.0322386228
 21
1282.0835318353
 31
0.0
  0
LINE
  5
3A9
330
1F
100
AcDbEntity
  8
0
  6
Continuous
 62
     7
370
    25
100
AcDbLine
 10
-618.0942451557
 20
1306.1306677512
 30
0.0
 11
-640.0322386228
 21
1294.5835318353
 31
0.0
  0
LINE
  5
3AA
330
1F
100
AcDbEntity
  8
0
  6
Continuous
 62
     7
370
    25
100
AcDbLine
 10
-611.1076584594
 20
1292.8570997933
 30
0.0
 11
-588.1171643585
 21
1304.9582229227
 31
0.0
  0
LINE
  5
3AB
330
1F
100
AcDbEntity
  8
0
  6
Continuous
 62
     7
370
    25
100
AcDbLine
 10
-597.1344850668
 20
1266.3099638773
 30
0.0
 11
-574.1439909659
 21
1278.4110870068
 31
0.0
  0
LINE
  5
3AC
330
1F
100
AcDbEntity
  8
0
  6
Continuous
 62
     7
370
    25
100
AcDbLine
 10
-640.0322386228
 20
1262.0835318353
 30
0.0
 11
-640.0322386228
 21
1249.5835318353
 31
0.0
  0
LINE
  5
3AD
330
1F
100
AcDbEntity
  8
0
  6
Continuous
 62
     7
370
    25
100
AcDbLine
 10
-649.0322386228
 20
1262.0835318353
 30
0.0
 11
-640.0322386228
 21
1262.0835318353
 31
0.0
  0
LINE
  5
3AE
330
1F
100
AcDbEntity
  8
0
  6
Continuous
 62
     7
370
    25
100
AcDbLine
 10
-649.0322386228
 20
1262.0835318353
 30
0.0
 11
-649.0322386228
 21
1249.5835318353
 31
0.0
  0
LINE
  5
3AF
330
1F
100
AcDbEntity
  8
0
  6
Continuous
 62
     7
370
    25
100
AcDbLine
 10
-858.3210717631
 20
1309.5835318353
 30
0.0
 11
-858.3210717631
 21
1287.0835318353
 31
0.0
  0
LINE
  5
3B0
330
1F
100
AcDbEntity
  8
0
  6
Continuous
 62
     7
370
    25
100
AcDbLine
 10
-388.7946648919
 20
953.0835318353
 30
0.0
 11
-388.7946648919
 21
935.5835318353
 31
0.0
  0
LINE
  5
3B1
330
1F
100
AcDbEntity
  8
0
  6
Continuous
 62
     7
370
    25
100
AcDbLine
 10
-379.7946648919
 20
953.0835318353
 30
0.0
 11
-397.7946648919
 21
953.0835318353
 31
0.0
  0
LINE
  5
3B2
330
1F
100
AcDbEntity
  8
0
  6
Continuous
 62
     7
370
    25
100
AcDbLine
 10
-379.7946648919
 20
978.0835318353
 30
0.0
 11
-379.7946648919
 21
953.0835318353
 31
0.0
  0
LINE
  5
3B3
330
1F
100
AcDbEntity
  8
0
  6
Continuous
 62
     7
370
    25
100
AcDbLine
 10
-379.7946648919
 20
978.0835318353
 30
0.0
 11
-397.7946648919
 21
978.0835318353
 31
0.0
  0
LINE
  5
3B4
330
1F
100
AcDbEntity
  8
0
  6
Continuous
 62
     7
370
    25
100
AcDbLine
 10
-388.7946648919
 20
995.5835318353
 30
0.0
 11
-388.7946648919
 21
978.0835318353
 31
0.0
  0
LINE
  5
3B5
330
1F
100
AcDbEntity
  8
0
  6
Continuous
 62
     7
370
    25
100
AcDbLine
 10
-308.7946648919
 20
978.0835318353
 30
0.0
 11
-317.7946648919
 21
978.0835318353
 31
0.0
  0
LINE
  5
3B6
330
1F
100
AcDbEntity
  8
0
  6
Continuous
 62
     7
370
    25
100
AcDbLine
 10
-317.7946648919
 20
953.0835318353
 30
0.0
 11
-317.7946648919
 21
978.0835318353
 31
0.0
  0
LINE
  5
3B7
330
1F
100
AcDbEntity
  8
0
  6
Continuous
 62
     7
370
    25
100
AcDbLine
 10
-308.7946648919
 20
953.0835318353
 30
0.0
 11
-317.7946648919
 21
953.0835318353
 31
0.0
  0
LINE
  5
3B8
330
1F
100
AcDbEntity
  8
0
  6
Continuous
 62
     7
370
    25
100
AcDbLine
 10
-308.7946648919
 20
953.0835318353
 30
0.0
 11
-308.7946648919
 21
935.5835318353
 31
0.0
  0
LINE
  5
3B9
330
1F
100
AcDbEntity
  8
0
  6
Continuous
 62
     7
370
    25
100
AcDbLine
 10
-308.7946648919
 20
995.5835318353
 30
0.0
 11
-308.7946648919
 21
978.0835318353
 31
0.0
  0
LINE
  5
3BA
330
1F
100
AcDbEntity
  8
0
  6
Continuous
 62
     7
370
    25
100
AcDbLine
 10
-459.7946648919
 20
953.0835318353
 30
0.0
 11
-468.7946648919
 21
953.0835318353
 31
0.0
  0
LINE
  5
3BB
330
1F
100
AcDbEntity
  8
0
  6
Continuous
 62
     7
370
    25
100
AcDbLine
 10
-459.7946648919
 20
978.0835318353
 30
0.0
 11
-459.7946648919
 21
953.0835318353
 31
0.0
  0
LINE
  5
3BC
330
1F
100
AcDbEntity
  8
0
  6
Continuous
 62
     7
370
    25
100
AcDbLine
 10
-459.7946648919
 20
978.0835318353
 30
0.0
 11
-468.7946648919
 21
978.0835318353
 31
0.0
  0
LINE
  5
3BD
330
1F
100
AcDbEntity
  8
0
  6
Continuous
 62
     7
370
    25
100
AcDbLine
 10
-468.7946648919
 20
935.5835318353
 30
0.0
 11
-468.7946648919
 21
1023.5835318353
 31
0.0
  0
LINE
  5
3BE
330
1F
100
AcDbEntity
  8
0
  6
Continuous
 62
     7
370
    25
100
AcDbLine
 10
-397.7946648919
 20
953.0835318353
 30
0.0
 11
-397.7946648919
 21
978.0835318353
 31
0.0
  0
LINE
  5
3BF
330
1F
100
AcDbEntity
  8
0
  6
Continuous
 62
     7
370
    25
100
AcDbLine
 10
-253.5946648919
 20
1013.0835318353
 30
0.0
 11
-244.5946648919
 21
1013.0835318353
 31
0.0
  0
LINE
  5
3C0
330
1F
100
AcDbEntity
  8
0
  6
Continuous
 62
     7
370
    25
100
AcDbLine
 10
-253.5946648919
 20
995.5835318353
 30
0.0
 11
-253.5946648919
 21
1013.0835318353
 31
0.0
  0
LINE
  5
3C1
330
1F
100
AcDbEntity
  8
0
  6
Continuous
 62
     7
370
    25
100
AcDbLine
 10
-468.7946648919
 20
1010.5835318353
 30
0.0
 11
-459.7946648919
 21
1010.5835318353
 31
0.0
  0
LINE
  5
3C2
330
1F
100
AcDbEntity
  8
0
  6
Continuous
 62
     7
370
    25
100
AcDbLine
 10
-459.7946648919
 20
1010.5835318353
 30
0.0
 11
-459.7946648919
 21
1040.5835318353
 31
0.0
  0
LINE
  5
3C3
330
1F
100
AcDbEntity
  8
0
  6
Continuous
 62
     7
370
    25
100
AcDbLine
 10
-468.7946648919
 20
1040.5835318353
 30
0.0
 11
-459.7946648919
 21
1040.5835318353
 31
0.0
  0
LINE
  5
3C4
330
1F
100
AcDbEntity
  8
0
  6
Continuous
 62
     7
370
    25
100
AcDbLine
 10
-253.5946648919
 20
1038.0835318353
 30
0.0
 11
-244.5946648919
 21
1038.0835318353
 31
0.0
  0
LINE
  5
3C5
330
1F
100
AcDbEntity
  8
0
  6
Continuous
 62
     7
370
    25
100
AcDbLine
 10
-468.7946648919
 20
995.5835318353
 30
0.0
 11
-93.5946648919
 21
995.5835318353
 31
0.0
  0
LINE
  5
3C6
330
1F
100
AcDbEntity
  8
0
  6
Continuous
 62
     7
370
    25
100
AcDbLine
 10
-244.5946648919
 20
995.5835318353
 30
0.0
 11
-244.5946648919
 21
1013.0835318353
 31
0.0
  0
LINE
  5
3C7
330
1F
100
AcDbEntity
  8
0
  6
Continuous
 62
     7
370
    25
100
AcDbLine
 10
-253.5946648919
 20
1055.5835318353
 30
0.0
 11
-253.5946648919
 21
1038.0835318353
 31
0.0
  0
LINE
  5
3C8
330
1F
100
AcDbEntity
  8
0
  6
Continuous
 62
     7
370
    25
100
AcDbLine
 10
-468.7946648919
 20
1040.5835318353
 30
0.0
 11
-468.7946648919
 21
1055.5835318353
 31
0.0
  0
LINE
  5
3C9
330
1F
100
AcDbEntity
  8
0
  6
Continuous
 62
     7
370
    25
100
AcDbLine
 10
-244.5946648919
 20
1038.0835318353
 30
0.0
 11
-244.5946648919
 21
1055.5835318353
 31
0.0
  0
LINE
  5
3CA
330
1F
100
AcDbEntity
  8
0
  6
Continuous
 62
     7
370
    25
100
AcDbLine
 10
-93.5946648919
 20
953.0835318353
 30
0.0
 11
-84.5946648919
 21
953.0835318353
 31
0.0
  0
LINE
  5
3CB
330
1F
100
AcDbEntity
  8
0
  6
Continuous
 62
     7
370
    25
100
AcDbLine
 10
-93.5946648919
 20
935.5835318353
 30
0.0
 11
-93.5946648919
 21
953.0835318353
 31
0.0
  0
LINE
  5
3CC
330
1F
100
AcDbEntity
  8
0
  6
Continuous
 62
     7
370
    25
100
AcDbLine
 10
-308.7946648919
 20
950.5835318353
 30
0.0
 11
-299.7946648919
 21
950.5835318353
 31
0.0
  0
LINE
  5
3CD
330
1F
100
AcDbEntity
  8
0
  6
Continuous
 62
     7
370
    25
100
AcDbLine
 10
-299.7946648919
 20
950.5835318353
 30
0.0
 11
-299.7946648919
 21
980.5835318353
 31
0.0
  0
LINE
  5
3CE
330
1F
100
AcDbEntity
  8
0
  6
Continuous
 62
     7
370
    25
100
AcDbLine
 10
-308.7946648919
 20
980.5835318353
 30
0.0
 11
-299.7946648919
 21
980.5835318353
 31
0.0
  0
LINE
  5
3CF
330
1F
100
AcDbEntity
  8
0
  6
Continuous
 62
     7
370
    25
100
AcDbLine
 10
-93.5946648919
 20
995.5835318353
 30
0.0
 11
-93.5946648919
 21
978.0835318353
 31
0.0
  0
LINE
  5
3D0
330
1F
100
AcDbEntity
  8
0
  6
Continuous
 62
     7
370
    25
100
AcDbLine
 10
-93.5946648919
 20
978.0835318353
 30
0.0
 11
-84.5946648919
 21
978.0835318353
 31
0.0
  0
LINE
  5
3D1
330
1F
100
AcDbEntity
  8
0
  6
Continuous
 62
     7
370
    25
100
AcDbLine
 10
-84.5946648919
 20
978.0835318353
 30
0.0
 11
-84.5946648919
 21
995.5835318353
 31
0.0
  0
LINE
  5
3D2
330
1F
100
AcDbEntity
  8
0
  6
Continuous
 62
     7
370
    25
100
AcDbLine
 10
-54.5946648919
 20
995.5835318353
 30
0.0
 11
-84.5946648919
 21
995.5835318353
 31
0.0
  0
LINE
  5
3D3
330
1F
100
AcDbEntity
  8
0
  6
Continuous
 62
     7
370
    25
100
AcDbLine
 10
-84.5946648919
 20
935.5835318353
 30
0.0
 11
-54.5946648919
 21
935.5835318353
 31
0.0
  0
LINE
  5
3D4
330
1F
100
AcDbEntity
  8
0
  6
Continuous
 62
     7
370
    25
100
AcDbLine
 10
-84.5946648919
 20
935.5835318353
 30
0.0
 11
-84.5946648919
 21
953.0835318353
 31
0.0
  0
LINE
  5
3D5
330
1F
100
AcDbEntity
  8
0
  6
Continuous
 62
     7
370
    25
100
AcDbLine
 10
-447.0495881208
 20
1270.7835318353
 30
0.0
 11
-447.0495881208
 21
1279.7835318353
 31
0.0
  0
LINE
  5
3D6
330
1F
100
AcDbEntity
  8
0
  6
Continuous
 62
     7
370
    25
100
AcDbLine
 10
-464.5495881208
 20
1279.7835318353
 30
0.0
 11
-447.0495881208
 21
1279.7835318353
 31
0.0
  0
LINE
  5
3D7
330
1F
100
AcDbEntity
  8
0
  6
Continuous
 62
     7
370
    25
100
AcDbLine
 10
-464.5495881208
 20
1309.7835318353
 30
0.0
 11
-464.5495881208
 21
1279.7835318353
 31
0.0
  0
LINE
  5
3D8
330
1F
100
AcDbEntity
  8
0
  6
Continuous
 62
     7
370
    25
100
AcDbLine
 10
-422.0495881208
 20
1279.7835318353
 30
0.0
 11
-404.5495881208
 21
1279.7835318353
 31
0.0
  0
LINE
  5
3D9
330
1F
100
AcDbEntity
  8
0
  6
Continuous
 62
     7
370
    25
100
AcDbLine
 10
-422.0495881208
 20
1270.7835318353
 30
0.0
 11
-422.0495881208
 21
1279.7835318353
 31
0.0
  0
LINE
  5
3DA
330
1F
100
AcDbEntity
  8
0
  6
Continuous
 62
     7
370
    25
100
AcDbLine
 10
-422.0495881208
 20
1270.7835318353
 30
0.0
 11
-404.5495881208
 21
1270.7835318353
 31
0.0
  0
LINE
  5
3DB
330
1F
100
AcDbEntity
  8
0
  6
Continuous
 62
     7
370
    25
100
AcDbLine
 10
-419.5495881208
 20
1055.5835318353
 30
0.0
 11
-419.5495881208
 21
1064.5835318353
 31
0.0
  0
LINE
  5
3DC
330
1F
100
AcDbEntity
  8
0
  6
Continuous
 62
     7
370
    25
100
AcDbLine
 10
-449.5495881208
 20
1064.5835318353
 30
0.0
 11
-419.5495881208
 21
1064.5835318353
 31
0.0
  0
LINE
  5
3DD
330
1F
100
AcDbEntity
  8
0
  6
Continuous
 62
     7
370
    25
100
AcDbLine
 10
-449.5495881208
 20
1055.5835318353
 30
0.0
 11
-449.5495881208
 21
1064.5835318353
 31
0.0
  0
LINE
  5
3DE
330
1F
100
AcDbEntity
  8
0
  6
Continuous
 62
     7
370
    25
100
AcDbLine
 10
-464.5495881208
 20
1270.7835318353
 30
0.0
 11
-447.0495881208
 21
1270.7835318353
 31
0.0
  0
LINE
  5
3DF
330
1F
100
AcDbEntity
  8
0
  6
Continuous
 62
     7
370
    25
100
AcDbLine
 10
-683.9946648919
 20
1006.0835318353
 30
0.0
 11
-692.9946648919
 21
1006.0835318353
 31
0.0
  0
LINE
  5
3E0
330
1F
100
AcDbEntity
  8
0
  6
Continuous
 62
     7
370
    25
100
AcDbLine
 10
-683.9946648919
 20
1023.5835318353
 30
0.0
 11
-683.9946648919
 21
1006.0835318353
 31
0.0
  0
LINE
  5
3E1
330
1F
100
AcDbEntity
  8
0
  6
Continuous
 62
     7
370
    25
100
AcDbLine
 10
-468.7946648919
 20
1008.5835318353
 30
0.0
 11
-477.7946648919
 21
1008.5835318353
 31
0.0
  0
LINE
  5
3E2
330
1F
100
AcDbEntity
  8
0
  6
Continuous
 62
     7
370
    25
100
AcDbLine
 10
-477.7946648919
 20
1008.5835318353
 30
0.0
 11
-477.7946648919
 21
978.5835318353
 31
0.0
  0
LINE
  5
3E3
330
1F
100
AcDbEntity
  8
0
  6
Continuous
 62
     7
370
    25
100
AcDbLine
 10
-468.7946648919
 20
978.5835318353
 30
0.0
 11
-477.7946648919
 21
978.5835318353
 31
0.0
  0
LINE
  5
3E4
330
1F
100
AcDbEntity
  8
0
  6
Continuous
 62
     7
370
    25
100
AcDbLine
 10
-683.9946648919
 20
963.5835318353
 30
0.0
 11
-683.9946648919
 21
981.0835318353
 31
0.0
  0
LINE
  5
3E5
330
1F
100
AcDbEntity
  8
0
  6
Continuous
 62
     7
370
    25
100
AcDbLine
 10
-683.9946648919
 20
981.0835318353
 30
0.0
 11
-692.9946648919
 21
981.0835318353
 31
0.0
  0
LINE
  5
3E6
330
1F
100
AcDbEntity
  8
0
  6
Continuous
 62
     7
370
    25
100
AcDbLine
 10
-692.9946648919
 20
981.0835318353
 30
0.0
 11
-692.9946648919
 21
963.5835318353
 31
0.0
  0
LINE
  5
3E7
330
1F
100
AcDbEntity
  8
0
  6
Continuous
 62
     7
370
    25
100
AcDbLine
 10
-692.9946648919
 20
1023.5835318353
 30
0.0
 11
-722.9946648919
 21
1023.5835318353
 31
0.0
  0
LINE
  5
3E8
330
1F
100
AcDbEntity
  8
0
  6
Continuous
 62
     7
370
    25
100
AcDbLine
 10
-692.9946648919
 20
1023.5835318353
 30
0.0
 11
-692.9946648919
 21
1006.0835318353
 31
0.0
  0
LINE
  5
3E9
330
1F
100
AcDbEntity
  8
0
  6
Continuous
 62
     7
370
    25
100
AcDbLine
 10
-468.7946648919
 20
1023.5835318353
 30
0.0
 11
-683.9946648919
 21
1023.5835318353
 31
0.0
  0
ARC
  5
3EA
330
1F
100
AcDbEntity
  8
0
  6
Continuous
 62
     7
370
    25
100
AcDbCircle
 10
-813.6946648919
 20
758.8335318353
 30
0.0
 40
31.25000000000011
100
AcDbArc
 50
203.1116019016
 51
270.0
  0
ARC
  5
3EB
330
1F
100
AcDbEntity
  8
0
  6
Continuous
 62
     7
370
    25
100
AcDbCircle
 10
-838.2977642902
 20
748.3335318353
 30
0.0
 40
4.500000000000393
100
AcDbArc
 50
90.0
 51
203.1116019016
  0
ARC
  5
3EC
330
1F
100
AcDbEntity
  8
0
  6
Continuous
 62
     7
370
    25
100
AcDbCircle
 10
-813.6946648919
 20
758.8335318353
 30
0.0
 40
6.000000000000341
100
AcDbArc
 50
270.0
 51
326.4426902381
  0
ARC
  5
3ED
330
1F
100
AcDbEntity
  8
0
  6
Continuous
 62
     7
370
    25
100
AcDbCircle
 10
-813.6946648919
 20
758.8335318353
 30
0.0
 40
6.000000000000455
100
AcDbArc
 50
33.5573097619
 51
90.0
  0
ARC
  5
3EE
330
1F
100
AcDbEntity
  8
0
  6
Continuous
 62
     7
370
    25
100
AcDbCircle
 10
-838.2977642902
 20
769.3335318353
 30
0.0
 40
4.500000000000455
100
AcDbArc
 50
90.0
 51
270.0
  0
ARC
  5
3EF
330
1F
100
AcDbEntity
  8
0
  6
Continuous
 62
     7
370
    25
100
AcDbCircle
 10
-803.4225869533
 20
782.8335318353
 30
0.0
 40
9.000000000000682
100
AcDbArc
 50
270.0
 51
315.0
  0
ARC
  5
3F0
330
1F
100
AcDbEntity
  8
0
  6
Continuous
 62
     7
370
    25
100
AcDbCircle
 10
-779.7167428306
 20
781.0835318353
 30
0.0
 40
9.000000000000474
100
AcDbArc
 50
90.0
 51
135.0
  0
ARC
  5
3F1
330
1F
100
AcDbEntity
  8
0
  6
Continuous
 62
     7
370
    25
100
AcDbCircle
 10
-588.4593830969
 20
799.0835318353
 30
0.0
 40
9.000000000000501
100
AcDbArc
 50
270.0
 51
300.0
  0
ARC
  5
3F2
330
1F
100
AcDbEntity
  8
0
  6
Continuous
 62
     7
370
    25
100
AcDbCircle
 10
-813.6946648919
 20
932.3335318353
 30
0.0
 40
31.25000000000045
100
AcDbArc
 50
90.0
 51
156.8883980984
  0
ARC
  5
3F3
330
1F
100
AcDbEntity
  8
0
  6
Continuous
 62
     7
370
    25
100
AcDbCircle
 10
-588.4593830969
 20
892.0835318353
 30
0.0
 40
8.99999999999909
100
AcDbArc
 50
60.0
 51
90.0
  0
ARC
  5
3F4
330
1F
100
AcDbEntity
  8
0
  6
Continuous
 62
     7
370
    25
100
AcDbCircle
 10
-779.7167428306
 20
910.0835318353
 30
0.0
 40
8.999999999999773
100
AcDbArc
 50
225.0
 51
270.0
  0
ARC
  5
3F5
330
1F
100
AcDbEntity
  8
0
  6
Continuous
 62
     7
370
    25
100
AcDbCircle
 10
-803.4225869533
 20
908.3335318353
 30
0.0
 40
9.000000000000394
100
AcDbArc
 50
45.0
 51
90.0
  0
ARC
  5
3F6
330
1F
100
AcDbEntity
  8
0
  6
Continuous
 62
     7
370
    25
100
AcDbCircle
 10
-838.2977642902
 20
921.8335318353
 30
0.0
 40
4.5
100
AcDbArc
 50
90.0
 51
270.0
  0
ARC
  5
3F7
330
1F
100
AcDbEntity
  8
0
  6
Continuous
 62
     7
370
    25
100
AcDbCircle
 10
-813.6946648919
 20
932.3335318353
 30
0.0
 40
5.999999999999318
100
AcDbArc
 50
270.0
 51
326.4426902381
  0
ARC
  5
3F8
330
1F
100
AcDbEntity
  8
0
  6
Continuous
 62
     7
370
    25
100
AcDbCircle
 10
-813.6946648919
 20
932.3335318353
 30
0.0
 40
6.000000000000616
100
AcDbArc
 50
33.5573097619
 51
90.0
  0
ARC
  5
3F9
330
1F
100
AcDbEntity
  8
0
  6
Continuous
 62
     7
370
    25
100
AcDbCircle
 10
-838.2977642902
 20
942.8335318353
 30
0.0
 40
4.500000000000227
100
AcDbArc
 50
156.8883980984
 51
270.0
  0
ARC
  5
3FA
330
1F
100
AcDbEntity
  8
0
  6
Continuous
 62
     7
370
    25
100
AcDbCircle
 10
-848.9210717631
 20
1033.0212259365
 30
0.0
 40
9.000000000000227
100
AcDbArc
 50
116.5650511771
 51
180.0
  0
ARC
  5
3FB
330
1F
100
AcDbEntity
  8
0
  6
Continuous
 62
     7
370
    25
100
AcDbCircle
 10
-853.0456835606
 20
1051.0835318353
 30
0.0
 40
8.999999999999801
100
AcDbArc
 50
296.5650511771
 51
63.4349488229
  0
ARC
  5
3FC
330
1F
100
AcDbEntity
  8
0
  6
Continuous
 62
     7
370
    25
100
AcDbCircle
 10
-848.9210717631
 20
1069.145837734
 30
0.0
 40
8.999999999999773
100
AcDbArc
 50
180.0
 51
243.4349488229
  0
ARC
  5
3FD
330
1F
100
AcDbEntity
  8
0
  6
Continuous
 62
     7
370
    25
100
AcDbCircle
 10
-729.1931497018
 20
1085.0835318353
 30
0.0
 40
8.999999999998181
100
AcDbArc
 50
225.0
 51
270.0
  0
ARC
  5
3FE
330
1F
100
AcDbEntity
  8
0
  6
Continuous
 62
     7
370
    25
100
AcDbCircle
 10
-532.9210717631
 20
1051.0835318353
 30
0.0
 40
25.0
100
AcDbArc
 50
270.0
 51
90.0
  0
ARC
  5
3FF
330
1F
100
AcDbEntity
  8
0
  6
Continuous
 62
     7
370
    25
100
AcDbCircle
 10
-729.1931497018
 20
1017.0835318353
 30
0.0
 40
9.000000000002274
100
AcDbArc
 50
90.0
 51
135.0
  0
ARC
  5
400
330
1F
100
AcDbEntity
  8
0
  6
Continuous
 62
     7
370
    25
100
AcDbCircle
 10
-769.9210717631
 20
1113.0835318353
 30
0.0
 40
0.250000000000203
100
AcDbArc
 50
135.0
 51
180.0000000001
  0
ARC
  5
401
330
1F
100
AcDbEntity
  8
0
  6
Continuous
 62
     7
370
    25
100
AcDbCircle
 10
-769.9210717631
 20
1113.0835318353
 30
0.0
 40
0.2500000000013642
100
AcDbArc
 50
270.0000000001
 51
314.9999999998
  0
ARC
  5
402
330
1F
100
AcDbEntity
  8
0
  6
Continuous
 62
     7
370
    25
100
AcDbCircle
 10
-27.2569264688
 20
845.5835318353
 30
0.0
 40
8.999999999999956
100
AcDbArc
 50
120.0
 51
240.0
  0
ARC
  5
403
330
1F
100
AcDbEntity
  8
0
  6
Continuous
 62
     7
370
    25
100
AcDbCircle
 10
-115.7069449736
 20
806.5835318353
 30
0.0
 40
8.999999999997733
100
AcDbArc
 50
60.0
 51
90.0
  0
ARC
  5
404
330
1F
100
AcDbEntity
  8
0
  6
Continuous
 62
     7
370
    25
100
AcDbCircle
 10
-580.0250607094
 20
806.5835318353
 30
0.0
 40
8.999999999998344
100
AcDbArc
 50
90.0
 51
120.0
  0
ARC
  5
405
330
1F
100
AcDbEntity
  8
0
  6
Continuous
 62
     7
370
    25
100
AcDbCircle
 10
-619.4891623245
 20
804.5835318353
 30
0.0
 40
8.999999999997272
100
AcDbArc
 50
270.0
 51
300.0
  0
ARC
  5
406
330
1F
100
AcDbEntity
  8
0
  6
Continuous
 62
     7
370
    25
100
AcDbCircle
 10
-833.4366034413
 20
804.5835318353
 30
0.0
 40
9.000000000000114
100
AcDbArc
 50
180.0
 51
270.0
  0
ARC
  5
407
330
1F
100
AcDbEntity
  8
0
  6
Continuous
 62
     7
370
    25
100
AcDbCircle
 10
-833.4366034413
 20
811.5835318353
 30
0.0
 40
8.999999999999886
100
AcDbArc
 50
90.0
 51
180.0
  0
ARC
  5
408
330
1F
100
AcDbEntity
  8
0
  6
Continuous
 62
     7
370
    25
100
AcDbCircle
 10
-642.4366034413
 20
845.5835318353
 30
0.0
 40
25.00000000000011
100
AcDbArc
 50
270.0
 51
90.0
  0
ARC
  5
409
330
1F
100
AcDbEntity
  8
0
  6
Continuous
 62
     7
370
    25
100
AcDbCircle
 10
-833.4366034413
 20
879.5835318353
 30
0.0
 40
9.000000000000114
100
AcDbArc
 50
180.0
 51
270.0
  0
ARC
  5
40A
330
1F
100
AcDbEntity
  8
0
  6
Continuous
 62
     7
370
    25
100
AcDbCircle
 10
-833.4366034413
 20
886.5835318353
 30
0.0
 40
9.000000000000114
100
AcDbArc
 50
90.0
 51
180.0
  0
ARC
  5
40B
330
1F
100
AcDbEntity
  8
0
  6
Continuous
 62
     7
370
    25
100
AcDbCircle
 10
-619.4891623245
 20
886.5835318353
 30
0.0
 40
8.999999999999886
100
AcDbArc
 50
60.0
 51
90.0
  0
ARC
  5
40C
330
1F
100
AcDbEntity
  8
0
  6
Continuous
 62
     7
370
    25
100
AcDbCircle
 10
-580.0250607094
 20
884.5835318353
 30
0.0
 40
8.999999999998543
100
AcDbArc
 50
240.0
 51
270.0
  0
ARC
  5
40D
330
1F
100
AcDbEntity
  8
0
  6
Continuous
 62
     7
370
    25
100
AcDbCircle
 10
-115.7069449736
 20
884.5835318353
 30
0.0
 40
8.999999999997726
100
AcDbArc
 50
270.0
 51
300.0
  0
ARC
  5
40E
330
1F
100
AcDbEntity
  8
0
  6
Continuous
 62
     7
370
    25
100
AcDbCircle
 10
-115.5946648919
 20
1022.7220081286
 30
0.0
 40
9.000000000000043
100
AcDbArc
 50
60.0
 51
180.0
  0
ARC
  5
40F
330
1F
100
AcDbEntity
  8
0
  6
Continuous
 62
     7
370
    25
100
AcDbCircle
 10
-193.5946648919
 20
1046.5835318353
 30
0.0
 40
9.0
100
AcDbArc
 50
360.0
 51
90.0
  0
ARC
  5
410
330
1F
100
AcDbEntity
  8
0
  6
Continuous
 62
     7
370
    25
100
AcDbCircle
 10
-395.5495881208
 20
1064.5835318353
 30
0.0
 40
8.999999999999773
100
AcDbArc
 50
180.0
 51
270.0
  0
ARC
  5
411
330
1F
100
AcDbEntity
  8
0
  6
Continuous
 62
     7
370
    25
100
AcDbCircle
 10
-395.5495881208
 20
1314.5835318353
 30
0.0
 40
9.000000000000227
100
AcDbArc
 50
90.0
 51
180.0
  0
ARC
  5
412
330
1F
100
AcDbEntity
  8
0
  6
Continuous
 62
     7
370
    25
100
AcDbCircle
 10
-353.5495881208
 20
1314.5835318353
 30
0.0
 40
9.000000000000455
100
AcDbArc
 50
0.0
 51
90.0
  0
ARC
  5
413
330
1F
100
AcDbEntity
  8
0
  6
Continuous
 62
     7
370
    25
100
AcDbCircle
 10
-237.0495881208
 20
1273.3645123357
 30
0.0
 40
8.999999999999773
100
AcDbArc
 50
180.0
 51
270.0
  0
ARC
  5
414
330
1F
100
AcDbEntity
  8
0
  6
Continuous
 62
     7
370
    25
100
AcDbCircle
 10
-35.0946648919
 20
1255.3645123357
 30
0.0
 40
8.999999999999567
100
AcDbArc
 50
0.0
 51
90.0
  0
ARC
  5
415
330
1F
100
AcDbEntity
  8
0
  6
Continuous
 62
     7
370
    25
100
AcDbCircle
 10
-35.0946648919
 20
1005.3645123357
 30
0.0
 40
9.000000000000163
100
AcDbArc
 50
270.0
 51
0.0
  0
ARC
  5
416
330
1F
100
AcDbEntity
  8
0
  6
Continuous
 62
     7
370
    25
100
AcDbCircle
 10
-77.0946648919
 20
1005.3645123357
 30
0.0
 40
9.000000000000568
100
AcDbArc
 50
180.0
 51
270.0
  0
ARC
  5
417
330
1F
100
AcDbEntity
  8
0
  6
Continuous
 62
     7
370
    25
100
AcDbCircle
 10
-315.0495881208
 20
1297.2260360424
 30
0.0
 40
9.000000000000114
100
AcDbArc
 50
240.0
 51
0.0
  0
ARC
  5
418
330
1F
100
AcDbEntity
  8
0
  6
Continuous
 62
     7
370
    25
100
AcDbCircle
 10
-830.5931497018
 20
1135.5835318353
 30
0.0
 40
9.000000000001279
100
AcDbArc
 50
90.0
 51
135.0
  0
ARC
  5
419
330
1F
100
AcDbEntity
  8
0
  6
Continuous
 62
     7
370
    25
100
AcDbCircle
 10
-830.5931497018
 20
1198.5835318353
 30
0.0
 40
8.999999999998408
100
AcDbArc
 50
225.0
 51
270.0
  0
ARC
  5
41A
330
1F
100
AcDbEntity
  8
0
  6
Continuous
 62
     7
370
    25
100
AcDbCircle
 10
-604.1210717631
 20
1174.5835318353
 30
0.0
 40
30.00000000000035
100
AcDbArc
 50
57.7602249152
 51
117.7602249152
  0
ARC
  5
41B
330
1F
100
AcDbEntity
  8
0
  6
Continuous
 62
     7
370
    25
100
AcDbCircle
 10
-604.1210717631
 20
1174.5835318353
 30
0.0
 40
15.00000000000013
100
AcDbArc
 50
117.7602249152
 51
297.7602249152
  0
ARC
  5
41C
330
1F
100
AcDbEntity
  8
0
  6
Continuous
 62
     7
370
    25
100
AcDbCircle
 10
-604.1210717631
 20
1174.5835318353
 30
0.0
 40
30.00000000000023
100
AcDbArc
 50
270.0
 51
357.7602249152
  0
ARC
  5
41D
330
1F
100
AcDbEntity
  8
0
  6
Continuous
 62
     7
370
    25
100
AcDbCircle
 10
-492.2775101822
 20
1153.5835318353
 30
0.0
 40
8.999999999998947
100
AcDbArc
 50
270.0
 51
315.0
  0
ARC
  5
41E
330
1F
100
AcDbEntity
  8
0
  6
Continuous
 62
     7
370
    25
100
AcDbCircle
 10
-492.2775101822
 20
1090.5835318353
 30
0.0
 40
8.999999999998908
100
AcDbArc
 50
45.0
 51
90.0
  0
ARC
  5
41F
330
1F
100
AcDbEntity
  8
0
  6
Continuous
 62
     7
370
    25
100
AcDbCircle
 10
-718.7495881208
 20
1114.5835318353
 30
0.0
 40
29.99999999999975
100
AcDbArc
 50
237.7602249152
 51
297.7602249152
  0
ARC
  5
420
330
1F
100
AcDbEntity
  8
0
  6
Continuous
 62
     7
370
    25
100
AcDbCircle
 10
-718.7495881208
 20
1114.5835318353
 30
0.0
 40
15.00000000000012
100
AcDbArc
 50
297.7602249152
 51
117.7602249152
  0
ARC
  5
421
330
1F
100
AcDbEntity
  8
0
  6
Continuous
 62
     7
370
    25
100
AcDbCircle
 10
-718.7495881208
 20
1114.5835318353
 30
0.0
 40
30.0
100
AcDbArc
 50
90.0
 51
177.7602249152
  0
ARC
  5
422
330
1F
100
AcDbEntity
  8
0
  6
Continuous
 62
     7
370
    25
100
AcDbCircle
 10
-492.2775101822
 20
1258.5835318353
 30
0.0
 40
8.999999999998787
100
AcDbArc
 50
270.0
 51
315.0
  0
ARC
  5
423
330
1F
100
AcDbEntity
  8
0
  6
Continuous
 62
     7
370
    25
100
AcDbCircle
 10
-492.2775101822
 20
1195.5835318353
 30
0.0
 40
8.999999999998666
100
AcDbArc
 50
45.0
 51
90.0
  0
ARC
  5
424
330
1F
100
AcDbEntity
  8
0
  6
Continuous
 62
     7
370
    25
100
AcDbCircle
 10
-718.7495881208
 20
1219.5835318353
 30
0.0
 40
30.00000000000093
100
AcDbArc
 50
237.7602249152
 51
297.7602249152
  0
ARC
  5
425
330
1F
100
AcDbEntity
  8
0
  6
Continuous
 62
     7
370
    25
100
AcDbCircle
 10
-718.7495881208
 20
1219.5835318353
 30
0.0
 40
15.00000000000019
100
AcDbArc
 50
297.7602249152
 51
117.7602249152
  0
ARC
  5
426
330
1F
100
AcDbEntity
  8
0
  6
Continuous
 62
     7
370
    25
100
AcDbCircle
 10
-718.7495881208
 20
1219.5835318353
 30
0.0
 40
30.00000000000023
100
AcDbArc
 50
90.0
 51
177.7602249152
  0
ARC
  5
427
330
1F
100
AcDbEntity
  8
0
  6
Continuous
 62
     7
370
    25
100
AcDbCircle
 10
-830.5931497018
 20
1240.5835318353
 30
0.0
 40
8.999999999999773
100
AcDbArc
 50
90.0
 51
135.0
  0
ARC
  5
428
330
1F
100
AcDbEntity
  8
0
  6
Continuous
 62
     7
370
    25
100
AcDbCircle
 10
-830.5931497018
 20
1303.5835318353
 30
0.0
 40
8.999999999999318
100
AcDbArc
 50
225.0
 51
270.0
  0
ARC
  5
429
330
1F
100
AcDbEntity
  8
0
  6
Continuous
 62
     7
370
    25
100
AcDbCircle
 10
-604.1210717631
 20
1279.5835318353
 30
0.0
 40
30.0000000000006
100
AcDbArc
 50
57.7602249152
 51
117.7602249152
  0
ARC
  5
42A
330
1F
100
AcDbEntity
  8
0
  6
Continuous
 62
     7
370
    25
100
AcDbCircle
 10
-604.1210717631
 20
1279.5835318353
 30
0.0
 40
15.00000000000013
100
AcDbArc
 50
117.7602249152
 51
297.7602249152
  0
ARC
  5
42B
330
1F
100
AcDbEntity
  8
0
  6
Continuous
 62
     7
370
    25
100
AcDbCircle
 10
-604.1210717631
 20
1279.5835318353
 30
0.0
 40
30.0
100
AcDbArc
 50
270.0
 51
357.7602249152
  0
ARC
  5
42C
330
1F
100
AcDbEntity
  8
0
  6
Continuous
 62
     7
370
    25
100
AcDbCircle
 10
-214.5946648919
 20
1025.5835318353
 30
0.0
 40
30.0
100
AcDbArc
 50
270.0
 51
90.0
  0
ARC
  5
42D
330
1F
100
AcDbEntity
  8
0
  6
Continuous
 62
     7
370
    25
100
AcDbCircle
 10
-54.5946648919
 20
965.5835318353
 30
0.0
 40
30.0
100
AcDbArc
 50
270.0
 51
90.0
  0
ARC
  5
42E
330
1F
100
AcDbEntity
  8
0
  6
Continuous
 62
     7
370
    25
100
AcDbCircle
 10
-434.5495881208
 20
1309.7835318353
 30
0.0
 40
30.0
100
AcDbArc
 50
0.0
 51
180.0
  0
ARC
  5
42F
330
1F
100
AcDbEntity
  8
0
  6
Continuous
 62
     7
370
    25
100
AcDbCircle
 10
-722.9946648919
 20
993.5835318353
 30
0.0
 40
29.99999999999989
100
AcDbArc
 50
90.0
 51
270.0
  0
ENDSEC
  0
SECTION
  2
OBJECTS
  0
DICTIONARY
  5
C
330
0
100
AcDbDictionary
281
     1
  3
ACAD_GROUP
350
D
  3
ACAD_LAYOUT
350
1A
  3
ACAD_MLINESTYLE
350
17
  3
ACAD_PLOTSETTINGS
350
19
  3
ACAD_PLOTSTYLENAME
350
E
  3
ACAD_SCALELIST
350
47
  3
DWGPROPS
350
430
  0
DICTIONARY
  5
D
102
{ACAD_REACTORS
330
C
102
}
330
C
100
AcDbDictionary
281
     1
  0
DICTIONARY
  5
1A
102
{ACAD_REACTORS
330
C
102
}
330
C
100
AcDbDictionary
281
     1
  3
Layout1
350
1E
  3
Layout2
350
26
  3
Model
350
22
  0
DICTIONARY
  5
17
102
{ACAD_REACTORS
330
C
102
}
330
C
100
AcDbDictionary
281
     1
  3
Standard
350
18
  0
DICTIONARY
  5
19
102
{ACAD_REACTORS
330
C
102
}
330
C
100
AcDbDictionary
281
     1
  0
ACDBDICTIONARYWDFLT
  5
E
102
{ACAD_REACTORS
330
C
102
}
330
C
100
AcDbDictionary
281
     1
  3
Normal
350
F
100
AcDbDictionaryWithDefault
340
F
  0
DICTIONARY
  5
47
102
{ACAD_REACTORS
330
C
102
}
330
C
100
AcDbDictionary
281
     1
  3
A0
350
48
  3
A1
350
49
  3
A2
350
4A
  3
A3
350
4B
  3
A4
350
4C
  3
A5
350
4D
  3
A6
350
4E
  3
A7
350
4F
  3
A8
350
50
  3
A9
350
51
  3
B0
350
52
  3
B1
350
53
  3
B2
350
54
  3
B3
350
55
  3
B4
350
56
  3
B5
350
57
  3
B6
350
58
  3
B7
350
59
  3
B8
350
5A
  3
B9
350
5B
  3
C0
350
5C
  3
C1
350
5D
  3
C2
350
5E
  3
C3
350
5F
  3
C4
350
60
  3
C5
350
61
  3
C6
350
62
  3
C7
350
63
  3
C8
350
64
  3
C9
350
65
  3
D0
350
66
  3
D1
350
67
  3
D2
350
68
  0
XRECORD
  5
430
102
{ACAD_REACTORS
330
C
102
}
330
C
100
AcDbXrecord
280
     1
  1
DWGPROPS COOKIE
  2

  3

  4

  6

  7

  8
rfranca
  9

300
=
301
=
302
=
303
=
304
=
305
=
306
=
307
=
308
=
309
=
 40
0.0
 41
2460179.570966018
 42
2460179.571088021
  1

 90
        0
  0
LAYOUT
  5
1E
102
{ACAD_REACTORS
330
1A
102
}
330
1A
100
AcDbPlotSettings
  1

  2
none_device
  4

  6

 40
0.0
 41
0.0
 42
0.0
 43
0.0
 44
0.0
 45
0.0
 46
0.0
 47
0.0
 48
0.0
 49
0.0
140
0.0
141
0.0
142
1.0
143
1.0
 70
   688
 72
     1
 73
     0
 74
     5
  7

 75
    16
147
1.0
148
0.0
149
0.0
100
AcDbLayout
  1
Layout1
 70
     1
 71
     1
 10
0.0
 20
0.0
 11
420.0
 21
297.0
 12
0.0
 22
0.0
 32
0.0
 14
1.0000000000E+20
 24
1.0000000000E+20
 34
1.0000000000E+20
 15
-1.0000000000E+20
 25
-1.0000000000E+20
 35
-1.0000000000E+20
146
0.0
 13
0.0
 23
0.0
 33
0.0
 16
1.0
 26
0.0
 36
0.0
 17
0.0
 27
1.0
 37
0.0
 76
     0
330
1B
  0
LAYOUT
  5
26
102
{ACAD_REACTORS
330
1A
102
}
330
1A
100
AcDbPlotSettings
  1

  2
none_device
  4

  6

 40
0.0
 41
0.0
 42
0.0
 43
0.0
 44
0.0
 45
0.0
 46
0.0
 47
0.0
 48
0.0
 49
0.0
140
0.0
141
0.0
142
1.0
143
1.0
 70
   688
 72
     1
 73
     0
 74
     5
  7

 75
    16
147
1.0
148
0.0
149
0.0
100
AcDbLayout
  1
Layout2
 70
     1
 71
     2
 10
0.0
 20
0.0
 11
0.0
 21
0.0
 12
0.0
 22
0.0
 32
0.0
 14
0.0
 24
0.0
 34
0.0
 15
0.0
 25
0.0
 35
0.0
146
0.0
 13
0.0
 23
0.0
 33
0.0
 16
1.0
 26
0.0
 36
0.0
 17
0.0
 27
1.0
 37
0.0
 76
     0
330
23
  0
LAYOUT
  5
22
102
{ACAD_REACTORS
330
1A
102
}
330
1A
100
AcDbPlotSettings
  1

  2
none_device
  4
ANSI_A_(11.00_x_8.50_Inches)
  6

 40
6.35
 41
19.05
 42
6.35000508
 43
19.05000254
 44
279.4
 45
215.9
 46
273.8477897292
 47
-241.6650826704
 48
0.0
 49
0.0
140
0.0
141
0.0
142
0.0127882322
143
1.0
 70
  1696
 72
     0
 73
     0
 74
     0
  7

 75
     0
147
0.0179189148
148
-1300.4909072572
149
0.0
100
AcDbLayout
  1
Model
 70
     1
 71
     0
 10
0.0
 20
0.0
 11
420.0
 21
297.0
 12
0.0
 22
0.0
 32
0.0
 14
-858.3210717631
 24
695.5835318353
 34
0.0
 15
-6.7569264688
 25
1339.7835318353
 35
0.0
146
0.0
 13
0.0
 23
0.0
 33
0.0
 16
1.0
 26
0.0
 36
0.0
 17
0.0
 27
1.0
 37
0.0
 76
     0
330
1F
331
29
  0
MLINESTYLE
  5
18
102
{ACAD_REACTORS
330
17
102
}
330
17
100
AcDbMlineStyle
  2
Standard
 70
     0
  3

 62
   256
 51
90.0
 52
90.0
 71
     2
 49
0.5
 62
   256
  6
BYLAYER
 49
-0.5
 62
   256
  6
BYLAYER
  0
ACDBPLACEHOLDER
  5
F
102
{ACAD_REACTORS
330
E
102
}
330
E
  0
SCALE
  5
48
102
{ACAD_REACTORS
330
47
102
}
330
47
100
AcDbScale
 70
     0
300
1:1
140
1.0
141
1.0
290
     1
  0
SCALE
  5
49
102
{ACAD_REACTORS
330
47
102
}
330
47
100
AcDbScale
 70
     0
300
1:2
140
1.0
141
2.0
290
     0
  0
SCALE
  5
4A
102
{ACAD_REACTORS
330
47
102
}
330
47
100
AcDbScale
 70
     0
300
1:4
140
1.0
141
4.0
290
     0
  0
SCALE
  5
4B
102
{ACAD_REACTORS
330
47
102
}
330
47
100
AcDbScale
 70
     0
300
1:5
140
1.0
141
5.0
290
     0
  0
SCALE
  5
4C
102
{ACAD_REACTORS
330
47
102
}
330
47
100
AcDbScale
 70
     0
300
1:8
140
1.0
141
8.0
290
     0
  0
SCALE
  5
4D
102
{ACAD_REACTORS
330
47
102
}
330
47
100
AcDbScale
 70
     0
300
1:10
140
1.0
141
10.0
290
     0
  0
SCALE
  5
4E
102
{ACAD_REACTORS
330
47
102
}
330
47
100
AcDbScale
 70
     0
300
1:16
140
1.0
141
16.0
290
     0
  0
SCALE
  5
4F
102
{ACAD_REACTORS
330
47
102
}
330
47
100
AcDbScale
 70
     0
300
1:20
140
1.0
141
20.0
290
     0
  0
SCALE
  5
50
102
{ACAD_REACTORS
330
47
102
}
330
47
100
AcDbScale
 70
     0
300
1:30
140
1.0
141
30.0
290
     0
  0
SCALE
  5
51
102
{ACAD_REACTORS
330
47
102
}
330
47
100
AcDbScale
 70
     0
300
1:40
140
1.0
141
40.0
290
     0
  0
SCALE
  5
52
102
{ACAD_REACTORS
330
47
102
}
330
47
100
AcDbScale
 70
     0
300
1:50
140
1.0
141
50.0
290
     0
  0
SCALE
  5
53
102
{ACAD_REACTORS
330
47
102
}
330
47
100
AcDbScale
 70
     0
300
1:100
140
1.0
141
100.0
290
     0
  0
SCALE
  5
54
102
{ACAD_REACTORS
330
47
102
}
330
47
100
AcDbScale
 70
     0
300
2:1
140
2.0
141
1.0
290
     0
  0
SCALE
  5
55
102
{ACAD_REACTORS
330
47
102
}
330
47
100
AcDbScale
 70
     0
300
4:1
140
4.0
141
1.0
290
     0
  0
SCALE
  5
56
102
{ACAD_REACTORS
330
47
102
}
330
47
100
AcDbScale
 70
     0
300
8:1
140
8.0
141
1.0
290
     0
  0
SCALE
  5
57
102
{ACAD_REACTORS
330
47
102
}
330
47
100
AcDbScale
 70
     0
300
10:1
140
10.0
141
1.0
290
     0
  0
SCALE
  5
58
102
{ACAD_REACTORS
330
47
102
}
330
47
100
AcDbScale
 70
     0
300
100:1
140
100.0
141
1.0
290
     0
  0
SCALE
  5
59
102
{ACAD_REACTORS
330
47
102
}
330
47
100
AcDbScale
 70
     0
300
1/128" = 1'-0"
140
0.0078125
141
12.0
290
     0
  0
SCALE
  5
5A
102
{ACAD_REACTORS
330
47
102
}
330
47
100
AcDbScale
 70
     0
300
1/64" = 1'-0"
140
0.015625
141
12.0
290
     0
  0
SCALE
  5
5B
102
{ACAD_REACTORS
330
47
102
}
330
47
100
AcDbScale
 70
     0
300
1/32" = 1'-0"
140
0.03125
141
12.0
290
     0
  0
SCALE
  5
5C
102
{ACAD_REACTORS
330
47
102
}
330
47
100
AcDbScale
 70
     0
300
1/16" = 1'-0"
140
0.0625
141
12.0
290
     0
  0
SCALE
  5
5D
102
{ACAD_REACTORS
330
47
102
}
330
47
100
AcDbScale
 70
     0
300
3/32" = 1'-0"
140
0.09375
141
12.0
290
     0
  0
SCALE
  5
5E
102
{ACAD_REACTORS
330
47
102
}
330
47
100
AcDbScale
 70
     0
300
1/8" = 1'-0"
140
0.125
141
12.0
290
     0
  0
SCALE
  5
5F
102
{ACAD_REACTORS
330
47
102
}
330
47
100
AcDbScale
 70
     0
300
3/16" = 1'-0"
140
0.1875
141
12.0
290
     0
  0
SCALE
  5
60
102
{ACAD_REACTORS
330
47
102
}
330
47
100
AcDbScale
 70
     0
300
1/4" = 1'-0"
140
0.25
141
12.0
290
     0
  0
SCALE
  5
61
102
{ACAD_REACTORS
330
47
102
}
330
47
100
AcDbScale
 70
     0
300
3/8" = 1'-0"
140
0.375
141
12.0
290
     0
  0
SCALE
  5
62
102
{ACAD_REACTORS
330
47
102
}
330
47
100
AcDbScale
 70
     0
300
1/2" = 1'-0"
140
0.5
141
12.0
290
     0
  0
SCALE
  5
63
102
{ACAD_REACTORS
330
47
102
}
330
47
100
AcDbScale
 70
     0
300
3/4" = 1'-0"
140
0.75
141
12.0
290
     0
  0
SCALE
  5
64
102
{ACAD_REACTORS
330
47
102
}
330
47
100
AcDbScale
 70
     0
300
1" = 1'-0"
140
1.0
141
12.0
290
     0
  0
SCALE
  5
65
102
{ACAD_REACTORS
330
47
102
}
330
47
100
AcDbScale
 70
     0
300
1-1/2" = 1'-0"
140
1.5
141
12.0
290
     0
  0
SCALE
  5
66
102
{ACAD_REACTORS
330
47
102
}
330
47
100
AcDbScale
 70
     0
300
3" = 1'-0"
140
3.0
141
12.0
290
     0
  0
SCALE
  5
67
102
{ACAD_REACTORS
330
47
102
}
330
47
100
AcDbScale
 70
     0
300
6" = 1'-0"
140
6.0
141
12.0
290
     0
  0
SCALE
  5
68
102
{ACAD_REACTORS
330
47
102
}
330
47
100
AcDbScale
 70
     0
300
1'-0" = 1'-0"
140
12.0
141
12.0
290
     0
  0
ENDSEC
  0
EOF
