<?xml version="1.0" encoding="UTF-8" standalone="no"?>
<!-- Created with Inkscape (http://www.inkscape.org/) -->

<svg
   width="88mm"
   height="108.06461mm"
   viewBox="0 0 88 108.06461"
   version="1.1"
   id="svg5"
   inkscape:version="1.1.2 (b8e25be833, 2022-02-05)"
   sodipodi:docname="jmdimensions1.svg"
   xmlns:inkscape="http://www.inkscape.org/namespaces/inkscape"
   xmlns:sodipodi="http://sodipodi.sourceforge.net/DTD/sodipodi-0.dtd"
   xmlns="http://www.w3.org/2000/svg"
   xmlns:svg="http://www.w3.org/2000/svg">
  <sodipodi:namedview
     id="namedview7"
     pagecolor="#ffffff"
     bordercolor="#666666"
     borderopacity="1.0"
     inkscape:pageshadow="2"
     inkscape:pageopacity="0.0"
     inkscape:pagecheckerboard="0"
     inkscape:document-units="mm"
     showgrid="false"
     fit-margin-top="0"
     fit-margin-left="0"
     fit-margin-right="0"
     fit-margin-bottom="0"
     inkscape:zoom="0.75722503"
     inkscape:cx="167.71765"
     inkscape:cy="207.99629"
     inkscape:window-width="1920"
     inkscape:window-height="991"
     inkscape:window-x="-9"
     inkscape:window-y="-9"
     inkscape:window-maximized="1"
     inkscape:current-layer="layer1" />
  <defs
     id="defs2" />
  <g
     inkscape:label="Camada 1"
     inkscape:groupmode="layer"
     id="layer1"
     transform="translate(-55.05812,-67.261328)">
    <g
       id="g1280"
       transform="matrix(1.0047596,0,0,1.0047596,-0.26205575,-0.3201384)"
       style="stroke-width:0.995263">
      <path
         id="path1425"
         style="fill:#008000;fill-opacity:0.5;fill-rule:evenodd;stroke-width:0.199052"
         d="m 55.058121,67.26133 h 87.583139 v 107.5527 H 55.058121 Z" />
      <path
         id="path1422"
         style="fill:#ff0000;fill-opacity:0.5;fill-rule:evenodd;stroke-width:0.199052"
         d="m 67.74678,77.834015 h 63.13319 V 98.994652 H 67.74678 Z" />
      <path
         id="path1419"
         style="fill:#ff0000;fill-opacity:0.5;fill-rule:evenodd;stroke-width:0.199053"
         d="m 80.429257,130.55942 a 6.430882,6.430882 0 0 1 -6.430882,6.43088 6.430882,6.430882 0 0 1 -6.430882,-6.43088 6.430882,6.430882 0 0 1 6.430882,-6.43088 6.430882,6.430882 0 0 1 6.430882,6.43088 z" />
      <path
         id="path1416"
         style="fill:#ff0000;fill-opacity:0.5;fill-rule:evenodd;stroke-width:0.199053"
         d="m 80.429257,152.72128 a 6.430882,6.430882 0 0 1 -6.430882,6.43088 6.430882,6.430882 0 0 1 -6.430882,-6.43088 6.430882,6.430882 0 0 1 6.430882,-6.43088 6.430882,6.430882 0 0 1 6.430882,6.43088 z" />
      <path
         id="path1413"
         style="fill:#ff0000;fill-opacity:0.5;fill-rule:evenodd;stroke-width:0.199053"
         d="m 134.22825,130.55942 a 6.430882,6.430882 0 0 1 -6.43089,6.43088 6.430882,6.430882 0 0 1 -6.43088,-6.43088 6.430882,6.430882 0 0 1 6.43088,-6.43088 6.430882,6.430882 0 0 1 6.43089,6.43088 z" />
      <path
         id="path1410"
         style="fill:#ff0000;fill-opacity:0.5;fill-rule:evenodd;stroke-width:0.199053"
         d="m 134.22825,152.69293 a 6.430882,6.430882 0 0 1 -6.43089,6.43088 6.430882,6.430882 0 0 1 -6.43088,-6.43088 6.430882,6.430882 0 0 1 6.43088,-6.43088 6.430882,6.430882 0 0 1 6.43089,6.43088 z" />
    </g>
  </g>
</svg>
