<?xml version="1.0" encoding="UTF-8" standalone="no"?>
<svg
   viewBox="0 0 262.1239 75.120012"
   width="262.1239"
   height="75.12001"
   version="1.1"
   id="svg7023"
   sodipodi:docname="beatriz_Chaveiro_laser.svg"
   inkscape:version="1.1.2 (b8e25be833, 2022-02-05)"
   xmlns:inkscape="http://www.inkscape.org/namespaces/inkscape"
   xmlns:sodipodi="http://sodipodi.sourceforge.net/DTD/sodipodi-0.dtd"
   xmlns="http://www.w3.org/2000/svg"
   xmlns:svg="http://www.w3.org/2000/svg">
  <sodipodi:namedview
     id="namedview7025"
     pagecolor="#ffffff"
     bordercolor="#666666"
     borderopacity="1.0"
     inkscape:pageshadow="2"
     inkscape:pageopacity="0.0"
     inkscape:pagecheckerboard="0"
     showgrid="false"
     fit-margin-top="0"
     fit-margin-left="0"
     fit-margin-right="0"
     fit-margin-bottom="0"
     inkscape:zoom="2.9326881"
     inkscape:cx="114.22967"
     inkscape:cy="45.350885"
     inkscape:window-width="1920"
     inkscape:window-height="1009"
     inkscape:window-x="-8"
     inkscape:window-y="-8"
     inkscape:window-maximized="1"
     inkscape:current-layer="g7021" />
  <desc
     id="desc2">beatriz_Chaveiro_laser_100.dxf - scale = 25.4, origin = (0.0, 0.0), method = file</desc>
  <defs
     id="defs217">
    <marker
       id="DistanceX"
       orient="auto"
       refX="0"
       refY="0"
       style="overflow:visible">
      <path
         d="M 3,-3 -3,3 M 0,-5 V 5"
         style="stroke:#000000;stroke-width:0.5"
         id="path4" />
    </marker>
    <pattern
       id="Hatch"
       patternUnits="userSpaceOnUse"
       width="8"
       height="8"
       x="0"
       y="0">
      <path
         d="M8 4 l-4,4"
         stroke="#000000"
         stroke-width="0.25"
         linecap="square"
         id="path7" />
      <path
         d="M6 2 l-4,4"
         stroke="#000000"
         stroke-width="0.25"
         linecap="square"
         id="path9" />
      <path
         d="M4 0 l-4,4"
         stroke="#000000"
         stroke-width="0.25"
         linecap="square"
         id="path11" />
    </pattern>
    <symbol
       id="*Model_Space" />
    <symbol
       id="*Paper_Space" />
    <symbol
       id="*Paper_Space0" />
    <symbol
       id="Block_0" />
    <symbol
       id="Block_1" />
    <symbol
       id="Block_2" />
    <symbol
       id="Block_3" />
    <symbol
       id="Block_4" />
    <symbol
       id="Block_5" />
    <symbol
       id="Block_6" />
    <symbol
       id="Block_7" />
    <symbol
       id="Block_8" />
    <symbol
       id="Block_9" />
    <symbol
       id="Block_10" />
    <symbol
       id="Block_11" />
    <symbol
       id="Block_12" />
    <symbol
       id="Block_13" />
    <symbol
       id="Block_14" />
    <symbol
       id="Block_15" />
    <symbol
       id="Block_16" />
    <symbol
       id="Block_17" />
    <symbol
       id="Block_18" />
    <symbol
       id="Block_19" />
    <symbol
       id="Block_20" />
    <symbol
       id="Block_21" />
    <symbol
       id="Block_22" />
    <symbol
       id="Block_23" />
    <symbol
       id="Block_24" />
    <symbol
       id="Block_25" />
    <symbol
       id="Block_26" />
    <symbol
       id="Block_27" />
    <symbol
       id="Block_28" />
    <symbol
       id="Block_29" />
    <symbol
       id="Block_30" />
    <symbol
       id="Block_31" />
    <symbol
       id="Block_32" />
    <symbol
       id="Block_33" />
    <symbol
       id="Block_34" />
    <symbol
       id="Block_35" />
    <symbol
       id="Block_36" />
    <symbol
       id="Block_37" />
    <symbol
       id="Block_38" />
    <symbol
       id="Block_39" />
    <symbol
       id="Block_40" />
    <symbol
       id="Block_41" />
    <symbol
       id="Block_42" />
    <symbol
       id="Block_43" />
    <symbol
       id="Block_44" />
    <symbol
       id="Block_45" />
    <symbol
       id="Block_46" />
    <symbol
       id="Block_47" />
    <symbol
       id="Block_48" />
    <symbol
       id="Block_49" />
    <symbol
       id="Block_50" />
    <symbol
       id="Block_51" />
    <symbol
       id="Block_52" />
    <symbol
       id="Block_53" />
    <symbol
       id="Block_54" />
    <symbol
       id="Block_55" />
    <symbol
       id="Block_56" />
    <symbol
       id="Block_57" />
    <symbol
       id="Block_58" />
    <symbol
       id="Block_59" />
    <symbol
       id="Block_60" />
    <symbol
       id="Block_61" />
    <symbol
       id="Block_62" />
    <symbol
       id="Block_63" />
    <symbol
       id="Block_64" />
    <symbol
       id="Block_65" />
    <symbol
       id="Block_66" />
    <symbol
       id="Block_67" />
    <symbol
       id="Block_68" />
    <symbol
       id="Block_69" />
    <symbol
       id="Block_70" />
    <symbol
       id="Block_71" />
    <symbol
       id="Block_72" />
    <symbol
       id="Block_73" />
    <symbol
       id="Block_74" />
    <symbol
       id="Block_75" />
    <symbol
       id="Block_76" />
    <symbol
       id="Block_77" />
    <symbol
       id="Block_78" />
    <symbol
       id="Block_79" />
    <symbol
       id="Block_80" />
    <symbol
       id="Block_81" />
    <symbol
       id="Block_82" />
    <symbol
       id="Block_83" />
    <symbol
       id="Block_84" />
    <symbol
       id="Block_85" />
    <symbol
       id="Block_86" />
    <symbol
       id="Block_87" />
    <symbol
       id="Block_88" />
    <symbol
       id="Block_89" />
    <symbol
       id="Block_90" />
    <symbol
       id="Block_91" />
    <symbol
       id="Block_92" />
    <symbol
       id="Block_93" />
    <symbol
       id="Block_94" />
    <symbol
       id="Block_95" />
    <symbol
       id="Block_96" />
    <symbol
       id="Block_97" />
    <symbol
       id="Block_98" />
    <symbol
       id="Block_99" />
    <symbol
       id="Block_100" />
    <symbol
       id="Block_101" />
    <symbol
       id="Block_102" />
    <symbol
       id="Block_103" />
    <symbol
       id="Block_104" />
    <symbol
       id="Block_105" />
    <symbol
       id="Block_106" />
    <symbol
       id="Block_107" />
    <symbol
       id="Block_108" />
    <symbol
       id="Block_109" />
    <symbol
       id="Block_110" />
    <symbol
       id="Block_111" />
    <symbol
       id="Block_112" />
    <symbol
       id="Block_113" />
    <symbol
       id="Block_114" />
    <symbol
       id="Block_115" />
    <symbol
       id="Block_116" />
    <symbol
       id="Block_117" />
    <symbol
       id="Block_118" />
    <symbol
       id="Block_119" />
    <symbol
       id="Block_120" />
    <symbol
       id="Block_121" />
    <symbol
       id="Block_122" />
    <symbol
       id="Block_123" />
    <symbol
       id="Block_124" />
    <symbol
       id="Block_125" />
    <symbol
       id="Block_126" />
    <symbol
       id="Block_127" />
    <symbol
       id="Block_128" />
    <symbol
       id="Block_129" />
    <symbol
       id="Block_130" />
    <symbol
       id="Block_131" />
    <symbol
       id="Block_132" />
    <symbol
       id="Block_133" />
    <symbol
       id="Block_134" />
    <symbol
       id="Block_135" />
    <symbol
       id="Block_136" />
    <symbol
       id="Block_137" />
    <symbol
       id="Block_138" />
    <symbol
       id="Block_139" />
    <symbol
       id="Block_140" />
    <symbol
       id="Block_141" />
    <symbol
       id="Block_142" />
    <symbol
       id="Block_143" />
    <symbol
       id="Block_144" />
    <symbol
       id="Block_145" />
    <symbol
       id="Block_146" />
    <symbol
       id="Block_147" />
    <symbol
       id="Block_148" />
    <symbol
       id="Block_149" />
    <symbol
       id="Block_150" />
    <symbol
       id="Block_151" />
    <symbol
       id="Block_152" />
    <symbol
       id="Block_153" />
    <symbol
       id="Block_154" />
    <symbol
       id="Block_155" />
    <symbol
       id="Block_156" />
    <symbol
       id="Block_157" />
    <symbol
       id="Block_158" />
    <symbol
       id="Block_159" />
    <symbol
       id="Block_160" />
    <symbol
       id="Block_161" />
    <symbol
       id="Block_162" />
    <symbol
       id="Block_163" />
    <symbol
       id="Block_164" />
    <symbol
       id="Block_165" />
    <symbol
       id="Block_166" />
    <symbol
       id="Block_167" />
    <symbol
       id="Block_168" />
    <symbol
       id="Block_169" />
    <symbol
       id="Block_170" />
    <symbol
       id="Block_171" />
    <symbol
       id="Block_172" />
    <symbol
       id="Block_173" />
    <symbol
       id="Block_174" />
    <symbol
       id="Block_175" />
    <symbol
       id="Block_176" />
    <symbol
       id="Block_177" />
    <symbol
       id="Block_178" />
    <symbol
       id="Block_179" />
    <symbol
       id="Block_180" />
    <symbol
       id="Block_181" />
    <symbol
       id="Block_182" />
    <symbol
       id="Block_183" />
    <symbol
       id="Block_184" />
    <symbol
       id="Block_185" />
    <symbol
       id="Block_186" />
    <symbol
       id="Block_187" />
    <symbol
       id="Block_188" />
    <symbol
       id="Block_189" />
    <symbol
       id="Block_190" />
    <symbol
       id="Block_191" />
    <symbol
       id="Block_192" />
    <symbol
       id="Block_193" />
    <symbol
       id="Block_194" />
    <symbol
       id="Block_195" />
    <symbol
       id="Block_196" />
    <symbol
       id="Block_197" />
    <symbol
       id="Block_198" />
    <symbol
       id="Block_199" />
  </defs>
  <g
     inkscape:groupmode="layer"
     inkscape:label="0"
     id="g219"
     transform="translate(-99.748047,-144.86937)" />
  <g
     inkscape:groupmode="layer"
     inkscape:label="Camada 1"
     id="g7021"
     transform="translate(-99.748047,-144.86937)">
    <g
       id="g8480"
       transform="matrix(0.38632008,0,0,0.38440846,29.558957,-327.12399)"
       style="stroke-width:2.59496">
      <path
         style="color:#000000;fill:#000000;-inkscape-stroke:none"
         d="m 444.58984,1303.3262 -2.17187,0.022 c -13.08198,0.1282 -26.1641,0.2565 -39.2461,0.3847 l -1.2832,0.014 v 1.9687 l 0.5625,0.3868 c 0.30221,0.2071 0.73666,0.5641 1.03906,1.1386 0.60958,1.1581 0.34098,2.7252 0.11719,3.6543 -0.71133,2.9532 -3.9843,14.5743 -8.70117,30.2051 l -0.50391,1.6719 1.74414,0 c 10.71682,0.01 21.43431,0.013 32.15039,0.02 l 0.63672,0 0.38868,-0.5039 c 1.08282,-1.3963 2.16525,-2.7932 3.24804,-4.1894 l 1.6211,-2.0879 -2.64454,-0 c -5.87253,-0.01 -11.74371,-0.014 -17.61523,-0.02 0.89742,-3.3922 1.79594,-6.7835 2.69336,-10.1757 l 17.01562,0.049 0.39063,-0.5254 c 0.85353,-1.1473 1.70698,-2.2941 2.56055,-3.4414 l 1.54492,-2.0781 -2.58789,0.01 c -5.60719,0.012 -11.21486,0.022 -16.82227,0.033 0.94302,-3.2278 1.88511,-6.4557 2.82813,-9.6836 h 19.4375 l 0.36523,-0.6933 c 0.74104,-1.4101 1.48163,-2.8204 2.22266,-4.2305 z m -4.3164,2.6386 c -0.2827,0.538 -0.56496,1.0754 -0.84766,1.6133 h -19.81445 l -0.27344,0.9336 c -1.19619,4.0945 -2.3917,8.1888 -3.58789,12.2832 l -0.48633,1.666 1.73438,-0 c 5.32203,-0.011 10.64455,-0.022 15.96679,-0.033 -0.20831,0.28 -0.41668,0.5599 -0.625,0.8399 l -17.71093,-0.053 -0.25782,0.9688 c -1.12647,4.258 -2.25243,8.5173 -3.3789,12.7754 l -0.42969,1.6269 1.68359,0 c 5.55174,0.01 11.10151,0.01 16.65235,0.018 -0.41289,0.5324 -0.8254,1.0652 -1.23828,1.5976 -9.93007,-0.01 -19.85962,-0.011 -29.78907,-0.02 4.30709,-14.3476 7.52978,-25.6552 8.25782,-28.6777 0.23209,-0.9636 0.68164,-3.103 -0.28321,-5.1993 11.47587,-0.1124 22.95186,-0.2254 34.42774,-0.3379 z"
         id="path221" />
      <path
         d="M 403.18532,1305.0303 Z"
         style="fill:#00984c;stroke-width:6.73379"
         id="path223" />
      <path
         style="color:#000000;fill:#000000;-inkscape-stroke:none"
         d="m 398.24219,1322.4258 -32.76758,1.6894 0.002,2.5918 c 10.92395,0.5438 21.84948,1.0872 32.77344,1.6309 l 1.37695,0.068 -0.0156,-1.379 c -0.0127,-1.106 -0.0263,-2.2123 -0.0391,-3.3183 l -0.0137,-1.2832 h -1.2832 z m -1.24805,2.664 c 0.002,0.196 0.004,0.392 0.006,0.5879 -1.9361,-0.096 -3.87249,-0.1927 -5.80859,-0.289 z"
         id="path225" />
      <path
         d="M 398.27552,1323.7242 Z"
         style="fill:#00984c;stroke-width:6.73379"
         id="path227" />
      <path
         style="color:#000000;fill:#000000;-inkscape-stroke:none"
         d="m 455.21289,1313.0156 c -4.16295,0.1536 -6.58776,0.2647 -9.13867,1.6641 -1.93716,1.0626 -3.14559,2.4118 -3.84961,3.209 -0.61712,0.6987 -1.27227,1.6064 -2.04688,3.4843 -0.7746,1.878 -1.74596,4.8029 -3.23437,9.8965 -0.47401,1.6222 -0.81815,2.8131 -0.9668,3.9063 -0.14865,1.0932 -0.0565,2.1369 0.35547,3.1035 0.99652,2.3381 3.16893,3.2893 4.15234,3.7402 0.97987,0.4493 1.94297,0.6759 3.16211,0.7481 1.21915,0.072 2.74352,0.03 5.21875,0.01 2.19696,-0.022 4.40372,-0.01 6.62305,-0.021 h 0.002 c 3.45335,-0.02 4.67562,-0.018 6.8418,-0.062 2.85888,-0.059 4.48773,-0.1371 5.55078,-0.2461 1.06305,-0.1091 1.65884,-0.2913 2.06836,-0.4532 1.10905,-0.4382 4.2039,-1.7161 5.98242,-5.1425 1.15741,-2.2297 1.26283,-4.3659 1.24414,-5.4864 l -0.0215,-1.2754 H 460.75 l -0.23633,0.9961 c -0.45924,1.9249 -0.91967,3.8506 -1.3789,5.7754 l -6.75196,-0.031 c 1.65733,-5.6559 3.31533,-11.311 4.97266,-16.9668 1.7904,0.01 3.58012,0.011 5.36914,0.016 -0.17756,1.1292 -0.35564,2.2575 -0.5332,3.3867 h -0.1875 v 1.291 0 l 2.40625,0.1875 -1.10352,1.1094 c 5.02101,-0.021 10.04311,-0.042 15.06445,-0.062 l 0.92383,-0 0.29883,-0.875 c 0.19585,-0.5758 1.35434,-3.8411 -0.36523,-6.836 -1.05117,-1.8307 -2.75261,-2.7426 -3.56641,-3.1992 -0.53344,-0.2993 -1.25496,-0.637 -2.33399,-0.9727 -2.26336,-0.7041 -4.20351,-0.8258 -5.91015,-0.8847 -2.50402,-0.086 -3.63992,-0.012 -6.69922,0.012 -4.08269,0.032 -3.54418,-0.086 -5.50586,-0.014 z m 0.0957,2.5918 c 1.874,-0.069 1.29913,0.048 5.42969,0.016 3.09551,-0.024 4.16357,-0.095 6.58984,-0.012 1.65374,0.057 3.2835,0.1619 5.23047,0.7676 0.92815,0.2887 1.42663,0.5312 1.83399,0.7598 0.81385,0.4566 1.96521,1.1455 2.58594,2.2265 0.77552,1.3507 0.54431,2.8721 0.32617,3.8321 -4.16162,0.017 -8.32251,0.035 -12.48438,0.053 0.23411,-1.4889 0.46902,-2.9779 0.70313,-4.4668 l 0.23437,-1.4941 -1.51367,-0 c -2.62018,-0.01 -5.23826,-0.012 -7.85547,-0.022 l -0.97656,-0 -0.27344,0.9355 c -1.9101,6.5185 -3.82037,13.0382 -5.73047,19.5567 l -0.48437,1.6543 12.25781,0.055 0.23828,-1.0019 c 0.45952,-1.926 0.9194,-3.8514 1.37891,-5.7774 h 11.68359 c -0.0933,0.8749 -0.2836,1.8766 -0.85156,2.9707 -1.34032,2.5822 -3.58672,3.5125 -4.63281,3.9258 -0.32049,0.1267 -0.46395,0.1892 -1.38086,0.2832 -0.91692,0.094 -2.50752,0.1759 -5.33789,0.2344 -2.14474,0.044 -3.34684,0.043 -6.80469,0.062 -2.20069,0.011 -4.41381,-0 -6.63672,0.019 -2.49161,0.025 -4.01809,0.061 -5.03906,0 -1.02097,-0.06 -1.48833,-0.1764 -2.23242,-0.5175 -0.98333,-0.4509 -2.29332,-1.0978 -2.84766,-2.3985 -0.22917,-0.5377 -0.27757,-0.9446 -0.16992,-1.7363 0.10765,-0.7917 0.41607,-1.9187 0.88672,-3.5293 1.47785,-5.0575 2.43995,-7.9293 3.14257,-9.6328 0.70263,-1.7035 1.06734,-2.1621 1.5918,-2.7559 0.68908,-0.7802 1.62119,-1.8124 3.15235,-2.6523 2.00658,-1.1008 3.8332,-1.1945 7.98632,-1.3477 z"
         id="path229" />
      <path
         d="M 463.30182,1324.5536 Z"
         style="fill:#00984c;stroke-width:6.73379"
         id="path231" />
      <path
         style="color:#000000;fill:#000000;-inkscape-stroke:none"
         d="m 518.17773,1313.9355 -27.28515,0.031 -0.13867,0.029 c -0.96208,0.2114 -2.40317,0.6788 -3.80469,1.8047 -1.25438,1.0076 -2.34382,2.5087 -3.52735,5.5918 -0.69824,1.8189 -1.36563,4.0138 -2.40625,10.0762 -0.52117,3.0362 -0.77917,4.8949 -0.79687,6.246 -0.0177,1.3512 0.33243,2.4044 0.94531,3.0665 0.33837,0.3655 0.89093,0.7227 1.52149,0.916 0.63056,0.1932 1.39429,0.32 2.60156,0.4843 2.59569,0.3533 4.83412,0.5139 6.58398,0.5899 l 1.35352,0.059 v -2.709 l -1.27734,0.055 c -0.22648,-0.01 -0.60658,-0.063 -0.84961,-0.076 -0.85634,-0.049 -2.17279,-0.2466 -3.4336,-1.5254 -1.73593,-1.7608 -1.77694,-4.2461 -1.77344,-5.1679 0.0133,-3.5085 2.13907,-6.0088 3.67188,-7.7833 3.81828,-4.4204 8.4915,-5.7983 10.66016,-6.4003 2.23598,-0.6208 4.90891,-0.7383 10.43359,-0.9493 3.76353,-0.1437 6.89693,-0.141 9.10547,-0.1093 l 1.36914,0.02 -0.0547,-1.3691 c -0.007,-0.169 -0.0186,-1.4279 -1.13672,-2.2989 -0.7435,-0.5791 -1.54468,-0.5894 -1.81445,-0.5781 z m -17.58593,2.6153 c -0.32813,0.071 -0.74623,0.083 -1.06446,0.1719 -2.22478,0.6175 -7.59679,2.1889 -11.92968,7.205 -1.05696,1.2236 -2.6467,3.1461 -3.56641,5.6836 0.72826,-3.8127 1.27909,-5.8976 1.8125,-7.2871 1.10175,-2.8701 1.83699,-3.7822 2.73047,-4.5 0.97547,-0.7836 1.96511,-1.1024 2.67578,-1.2637 z m -17.25782,17.1972 c 0.002,1.0324 0.15811,3.4947 1.86329,5.7813 -0.78085,-0.1179 -1.48081,-0.2314 -1.75196,-0.3145 -0.33948,-0.104 -0.27209,-0.084 -0.37695,-0.1972 -0.18992,-0.2052 -0.26935,-0.24 -0.25586,-1.2696 0.009,-0.7051 0.28654,-2.4303 0.52148,-4 z"
         id="path233" />
      <path
         d="M 491.9277,1341.4753 Z"
         style="fill:#00984c;stroke-width:6.73379"
         id="path235" />
      <path
         style="color:#000000;fill:#000000;-inkscape-stroke:none"
         d="m 520.07227,1315.2559 -0.75391,1.7168 c -0.83924,1.9132 -2.19547,4.7555 -4.19336,7.9843 -2.57405,4.16 -5.21434,8.4074 -9.95508,11.8047 -2.69531,1.9315 -5.20016,2.9627 -6.8457,3.5235 l 0.33594,2.5234 c 1.09581,0.071 2.68949,0.1376 4.61132,0.078 5.2637,-0.1628 8.53655,-0.2468 11.72071,-2.1562 4.29217,-2.5747 5.99232,-6.972 7.11718,-9.8106 1.01547,-2.5626 3.26196,-7.824 0.82422,-12.3398 -0.50987,-0.9445 -1.10409,-1.6074 -1.51953,-2.0137 z m 0.61328,4.6816 c 1.57579,3.0996 0.0147,7.4964 -0.98828,10.0273 -1.12488,2.8387 -2.61362,6.4844 -6.03907,8.5391 -2.29118,1.3744 -4.92941,1.5642 -9.23437,1.7129 0.75252,-0.4371 1.46138,-0.775 2.25781,-1.3457 5.20379,-3.7291 8.07437,-8.3888 10.64844,-12.5488 1.59857,-2.5835 2.48767,-4.5347 3.35547,-6.3848 z"
         id="path237" />
      <path
         d="M 520.50673,1317.4946 Z"
         style="fill:#00984c;stroke-width:6.73379"
         id="path239" />
      <path
         style="color:#000000;fill:#000000;-inkscape-stroke:none"
         d="m 510.26758,1321.3848 c -3.31152,0.8798 -7.25442,2.2374 -11.50391,4.3828 -5.54589,2.7997 -9.87362,6.0624 -13.03125,8.8457 l 1.55274,2.0703 c 4.04948,-2.5658 8.45819,-5.1499 13.22461,-7.666 3.65821,-1.9312 7.20939,-3.6549 10.625,-5.1953 z"
         id="path241" />
      <path
         d="M 510.60129,1322.6393 Z"
         style="fill:#00984c;stroke-width:6.73379"
         id="path243" />
      <path
         style="color:#000000;fill:#000000;-inkscape-stroke:none"
         d="m 513.60937,1308.8457 18.0879,20.2012 v 10.4316 h 4.57617 v -13.9805 -0.4843 l -0.3125,-0.3633 c -3.14669,-3.6703 -6.29277,-7.3415 -9.43946,-11.0117 8.80485,0.058 17.60934,0.1156 26.41407,0.1738 2.07169,3.094 4.14314,6.1873 6.21484,9.2813 l 0.37891,0.5644 0.67773,0.012 c 3.19015,0.051 7.82596,0.127 13.41602,0.2285 17.86849,0.3248 26.79434,0.486 36.91211,0.834 20.54346,0.7065 28.88272,1.5295 32.66015,1.9375 l 0.0684,0.01 h 0.0703 c 0,0 0.50624,0.061 1.64258,0.2012 1.13634,0.1401 2.75838,0.3503 4.69336,0.6289 3.86997,0.5572 8.99502,1.3908 13.99024,2.4844 3.37205,0.7382 6.55188,1.5821 7.31054,1.7851 2.19187,0.5865 4.68889,1.3016 7.60547,2.2911 3.40476,1.155 5.00146,1.8669 6.75391,3.0254 2.47394,1.6352 2.7625,2.4032 2.95898,3.0625 0.2249,0.7545 0.32838,2.0488 -0.23242,3.1601 -0.33914,0.672 -0.79609,1.0719 -1.07617,1.2813 l -3.08203,2.3046 3.84765,0.033 c 1.15398,0.01 2.30474,0.01 3.45118,0.01 h 0.36914 l 0.31445,-0.1953 c 0.39806,-0.2467 3.66117,-2.2158 3.70312,-5.918 0.0217,-1.9167 -0.91859,-3.3213 -1.48828,-4.1679 -1.64252,-2.4412 -3.84274,-3.5935 -6.0664,-4.6504 -2.88912,-1.3733 -4.87516,-2.221 -6.15039,-2.7285 -0.63762,-0.2538 -1.09791,-0.4222 -1.4043,-0.5293 -0.30639,-0.1072 -0.48242,-0.1582 -0.48242,-0.1582 -4.41849,-1.3646 -10.69765,-3.1255 -18.33594,-4.6582 -6.67447,-1.3395 -13.36639,-2.2979 -27.20313,-3.4297 -14.07135,-1.1511 -26.70938,-1.7617 -38.66601,-2.125 -8.68538,-0.264 -20.0355,-0.4727 -33.20313,-0.4141 -2.17486,-2.8706 -4.35054,-5.7408 -6.52539,-8.6113 l -0.38867,-0.5137 z m 5.80469,2.5938 h 1.80274 l 1.48047,1.7265 c 3.66026,4.2693 7.32217,8.5374 10.98242,12.8067 v 1.3964 z m 35.74024,1.0234 c 1.91444,2.5268 3.82972,5.0533 5.74414,7.5801 l 0.39258,0.5175 0.64843,-0 c 13.47057,-0.071 24.93642,0.1535 33.76953,0.4219 11.92371,0.3623 24.51319,0.9723 38.53321,2.1192 13.78626,1.1277 20.32314,2.0659 26.90429,3.3867 7.5397,1.5129 13.73967,3.2514 18.09766,4.5976 l 0.1875,0.057 h 0.19531 c 0,0 -0.27621,-0.027 -0.008,0.066 0.2684,0.094 0.69407,0.2507 1.30078,0.4922 1.21342,0.4829 3.14974,1.3072 5.9961,2.6601 2.16841,1.0307 3.76211,1.8735 5.02734,3.7539 0.55306,0.822 1.0589,1.6293 1.04687,2.6914 -0.0213,1.8754 -1.78556,3.2165 -2.2539,3.545 -0.109,-10e-5 -0.21725,0 -0.32617,0 0.8753,-1.8434 0.73305,-3.6995 0.36523,-4.9336 -0.32956,-1.1058 -1.24854,-2.6567 -4.01367,-4.4844 -1.95879,-1.2948 -3.86877,-2.1368 -7.35156,-3.3184 -2.98346,-1.0121 -5.54255,-1.7445 -7.76758,-2.3398 -0.77028,-0.2062 -3.98466,-1.0607 -7.42774,-1.8145 -5.08849,-1.114 -10.26507,-1.9545 -14.17578,-2.5175 -1.95535,-0.2816 -3.59295,-0.4929 -4.74414,-0.6348 -1.15119,-0.142 -1.82226,-0.2149 -1.82226,-0.2149 -3.81344,-0.4119 -12.25906,-1.2431 -32.84766,-1.9511 -10.14246,-0.3489 -19.08659,-0.5112 -36.95508,-0.836 -5.31008,-0.096 -9.57438,-0.1661 -12.74219,-0.2168 -1.92469,-2.8743 -3.84873,-5.7485 -5.77343,-8.623 z"
         id="path245" />
      <path
         d="M 534.97639,1325.4975 Z"
         style="fill:#00984c;stroke-width:6.73379"
         id="path247" />
      <path
         style="color:#000000;fill:#000000;-inkscape-stroke:none"
         d="m 505.84961,1343.0645 -0.38867,0.5293 c -7.38725,10.0607 -14.77488,20.1208 -22.16211,30.1816 l -0.25196,0.3437 v 1.7266 l 1.30274,-0 c 2.96692,-0.01 5.93483,-0.019 8.90234,-0.029 l 0.63086,-0 0.38867,-0.5 c 1.71901,-2.2108 3.43724,-4.422 5.15625,-6.6328 0.0427,1.9838 0.0862,3.9675 0.12891,5.9512 l 0.0273,1.2695 h 16.08008 l 0.38867,-0.4882 c 1.81427,-2.2736 3.62911,-4.5469 5.44336,-6.8204 0.0571,2.2716 0.11285,4.543 0.16993,6.8145 l 0.0312,1.2656 h 17.68164 l 0.32421,-0.8242 c 0.57233,-1.4577 1.14449,-2.9155 1.7168,-4.373 l 0.69531,-1.7715 h -3.34375 l 0.21289,-26.1797 h -10.34179 l -10.83203,15.9414 v -16.3984 z m 1.31445,2.5937 h 8.05078 v 22.2422 l 14.80078,-21.7852 h 6.35352 l -0.21289,26.1817 h 2.15234 c -0.23258,0.5924 -0.46468,1.1849 -0.69726,1.7773 h -13.38281 c -0.0763,-3.0365 -0.15222,-6.0728 -0.22852,-9.1094 l -0.0898,-3.5605 -2.22266,2.7832 c -2.42478,3.0385 -4.84867,6.0767 -7.27344,9.1152 H 502.125 c -0.0598,-2.778 -0.1199,-5.556 -0.17969,-8.3339 l -0.0801,-3.6524 -2.24218,2.8848 c -2.33726,3.0059 -4.67445,6.0116 -7.01172,9.0176 -1.89985,0.01 -3.79913,0.013 -5.69922,0.019 6.75049,-9.1936 13.50145,-18.3865 20.25195,-27.5801 z"
         id="path249" />
      <path
         d="M 484.34533,1374.5439 Z"
         style="fill:#00984c;stroke-width:6.73379"
         id="path251" />
      <path
         style="color:#000000;fill:#000000;-inkscape-stroke:none"
         d="m 550.45312,1352.2109 -9.75195,24.459 h 16.31445 l 8.33204,-24.459 h -1.8125 z m 1.75977,2.5938 h 9.51172 l -6.56641,19.2715 h -10.6289 z"
         id="path253" />
      <path
         d="m 563.53588,1353.5077 -7.44888,21.8651 h -13.47137 l 8.71677,-21.8651 z"
         style="fill:#00984c;stroke-width:6.73379"
         id="path255" />
      <path
         style="color:#000000;fill:#000000;-inkscape-stroke:none"
         d="m 550.43555,1342.9473 -0.27149,0.9414 c -0.60754,2.115 -1.21472,4.2307 -1.82226,6.3457 l -0.47266,1.6426 1.71094,0.014 c 3.98881,0.029 7.97647,0.057 11.96484,0.086 h 0.01 0.0117 c 1.90004,-0.016 4.50213,-0.025 7.90234,0 0.86984,0.01 1.64739,0.031 2.19336,0.1504 0.54597,0.1197 0.80114,0.2689 1.00195,0.5546 0.2708,0.3854 0.37954,1.2738 0.38281,1.4551 0.008,0.4451 -0.11453,1.2355 -0.29296,1.4238 -0.0734,0.077 0.0253,0.053 -0.29102,0.088 -0.31629,0.035 -0.95687,0.021 -1.91406,-0.01 -0.86739,-0.026 -2.23916,-0.062 -3.98438,-0.086 l 1.2793,1.2969 -2.51367,-0.4493 c -0.63395,1.715 -1.2684,3.4297 -1.90235,5.1446 l -0.61718,1.6699 1.77929,0.076 c 0.29611,0.013 0.8899,0.02 1.76563,0.043 0.90729,0.024 1.14135,0.045 1.36328,0.1446 0.18641,0.084 0.41614,0.2629 0.35937,0.1933 -0.0919,-0.1127 0.0489,0.2927 -0.0937,0.9024 -0.14268,0.6096 -0.41814,1.2708 -0.57031,1.6289 -1.07194,2.5223 -2.30957,5.6276 -3.81836,9.4648 l -0.6914,1.7598 1.89062,0.012 c 4.33216,0.029 8.66434,0.057 12.9961,0.086 l 0.82812,0.01 0.35352,-0.748 c 2.8806,-6.0929 5.68165,-12.8256 8.21679,-20.1973 0.83521,-2.4287 1.60377,-4.8189 2.3125,-7.1641 l 0.0254,-0.082 0.0137,-0.086 c 0.0933,-0.5792 0.17153,-1.5719 -0.2129,-2.6875 -0.95988,-2.7857 -3.67944,-3.4204 -4.0332,-3.5 l -0.13867,-0.031 -0.14258,-0 c -11.1998,-0.029 -22.39996,-0.057 -33.59961,-0.086 z m 1.95312,2.5996 c 10.80267,0.028 21.60568,0.056 32.4082,0.084 0.14636,0.039 1.61923,0.4514 2.07813,1.7832 0.18602,0.5398 0.15236,1.057 0.10156,1.3906 -0.68879,2.2736 -1.43309,4.5867 -2.24219,6.9394 -2.40343,6.9888 -5.053,13.3603 -7.77734,19.1836 -3.41219,-0.023 -6.82438,-0.046 -10.23633,-0.068 1.14337,-2.8922 2.22426,-5.6249 3.08008,-7.6387 0.14941,-0.3516 0.49686,-1.1484 0.70899,-2.0547 0.21212,-0.9063 0.44003,-2.0762 -0.42188,-3.1328 -0.53104,-0.6508 -1.12141,-0.8376 -1.30469,-0.9199 h -0.002 c -0.72513,-0.3253 -1.41475,-0.3384 -2.29297,-0.3613 0.3183,-0.8611 0.63678,-1.723 0.95508,-2.584 1.18947,0.022 2.36896,0.047 3.02734,0.066 0.94611,0.029 1.61939,0.066 2.28125,-0.01 0.66187,-0.074 1.40289,-0.3702 1.88672,-0.8809 1.17681,-1.2421 1.00995,-2.8111 1.00195,-3.2559 -0.006,-0.3322 0.0198,-1.6577 -0.85351,-2.9003 -0.64769,-0.9217 -1.64137,-1.3944 -2.56836,-1.5977 -0.92699,-0.2033 -1.84889,-0.2044 -2.73047,-0.2109 -3.40527,-0.025 -6.01341,-0.016 -7.92383,0 h -0.0215 c -3.41135,-0.025 -6.82334,-0.05 -10.23438,-0.074 0.35998,-1.2531 0.72011,-2.5066 1.08008,-3.7597 z"
         id="path257" />
      <path
         d="M 566.54714,1356.8517 Z"
         style="fill:#00984c;stroke-width:6.73379"
         id="path259" />
      <path
         style="color:#000000;fill:#000000;-inkscape-stroke:none"
         d="m 631.99023,1352.3242 -0.32226,0.8223 c -2.85744,7.2385 -5.71677,14.4762 -8.57422,21.7148 l -0.69141,1.7559 1.88672,0.018 c 4.45848,0.043 8.9169,0.086 13.375,0.1289 l 0.94141,0.01 0.30078,-0.8926 c 2.44934,-7.2812 4.89832,-14.5626 7.34766,-21.8437 l 0.57617,-1.711 h -1.80469 z m 1.76563,2.5957 h 9.46289 c -2.15717,6.4127 -4.31353,12.8256 -6.4707,19.2383 -3.51573,-0.034 -7.03137,-0.066 -10.54688,-0.1 2.51823,-6.3793 5.03647,-12.7595 7.55469,-19.1387 z"
         id="path261" />
      <path
         d="M 645.0245,1353.622 Z"
         style="fill:#00984c;stroke-width:6.73379"
         id="path263" />
      <path
         style="color:#000000;fill:#000000;-inkscape-stroke:none"
         d="m 631.75781,1343.8242 -2.5664,8.9297 1.71093,0.012 c 3.98838,0.028 7.97625,0.057 11.96485,0.086 h 0.01 0.01 c 1.90067,-0.015 4.50585,-0.024 7.90625,0 0.86984,0.01 1.64544,0.031 2.1914,0.1504 0.54597,0.1197 0.80114,0.2689 1.00196,0.5546 0.2708,0.3854 0.37953,1.2757 0.38281,1.4571 0.008,0.445 -0.11453,1.2355 -0.29297,1.4238 -0.0734,0.077 0.0253,0.053 -0.29101,0.088 -0.31629,0.035 -0.95691,0.021 -1.91407,-0.01 -0.86739,-0.026 -2.23916,-0.062 -3.98437,-0.086 l -1.31445,-0.019 v 1.084 l -2.43946,6.5977 1.7793,0.076 c 0.2961,0.013 0.8899,0.02 1.76562,0.043 0.9073,0.024 1.14136,0.045 1.36329,0.1445 0.1864,0.084 0.41611,0.2629 0.35937,0.1934 -0.092,-0.1128 0.0489,0.2908 -0.0937,0.9004 -0.14269,0.6096 -0.41815,1.2728 -0.57031,1.6308 -1.07193,2.5224 -2.30958,5.6276 -3.81836,9.4649 l -0.69336,1.7656 1.89844,0.01 c 4.52841,0.013 9.05595,0.026 13.58398,0.039 l 0.86524,0 0.33398,-0.7969 c 2.64345,-6.2799 5.20664,-12.9821 7.60742,-20.1055 0.81253,-2.4108 1.58146,-4.7945 2.3086,-7.1484 l 0.0273,-0.088 0.0137,-0.088 c 0.0934,-0.5791 0.17153,-1.5719 -0.21289,-2.6875 -0.95987,-2.7857 -3.67466,-3.4214 -4.0332,-3.5019 l -0.13867,-0.031 h -0.14258 c -11.19981,-0.029 -22.39801,-0.057 -33.59766,-0.086 z m 1.95117,2.5996 c 10.80528,0.028 21.61089,0.056 32.41602,0.084 0.15115,0.04 1.61487,0.4558 2.07227,1.7832 0.18601,0.5398 0.15233,1.0552 0.10156,1.3887 -0.70842,2.2894 -1.45428,4.6037 -2.24414,6.9473 -2.2845,6.7783 -4.7293,13.1253 -7.23828,19.1328 -3.59016,-0.01 -7.17962,-0.021 -10.76954,-0.031 1.14189,-2.8884 2.22317,-5.621 3.07813,-7.6328 0.14942,-0.3516 0.49491,-1.1465 0.70703,-2.0527 0.21213,-0.9063 0.44011,-2.0762 -0.42187,-3.1328 -0.53103,-0.651 -1.12142,-0.8377 -1.30469,-0.92 h -0.002 c -0.72572,-0.3255 -1.41373,-0.3383 -2.29297,-0.3613 l 0.95703,-2.584 c 1.18839,0.022 2.36743,0.047 3.02539,0.066 0.94614,0.029 1.61939,0.066 2.28125,-0.01 0.66186,-0.074 1.40289,-0.3703 1.88672,-0.8808 1.17682,-1.2421 1.0119,-2.8112 1.0039,-3.2559 -0.006,-0.3324 0.0179,-1.6597 -0.85547,-2.9023 -0.64769,-0.9217 -1.64136,-1.3944 -2.56835,-1.5977 -0.927,-0.2033 -1.84889,-0.2024 -2.73047,-0.209 -3.40592,-0.024 -6.01391,-0.015 -7.92383,0 h -0.0195 c -3.41248,-0.025 -6.82566,-0.05 -10.23828,-0.074 z"
         id="path265" />
      <path
         d="M 647.86963,1357.7283 Z"
         style="fill:#00984c;stroke-width:6.73379"
         id="path267" />
      <path
         style="color:#000000;fill:#000000;-inkscape-stroke:none"
         d="m 667.68555,1373.4609 0.13672,1.4356 c 0.10565,1.1051 0.21269,2.2092 0.31835,3.3144 l 0.11133,1.17 1.17578,0 c 11.27016,0.038 22.54043,0.077 33.81055,0.1152 l 4.08203,0.014 -3.32617,-2.3692 c -1.50792,-1.0737 -3.84806,-2.4262 -6.93164,-3.0703 -1.30194,-0.2719 -2.49503,-0.3674 -3.5293,-0.3711 h -0.008 c -8.13299,-0.076 -16.26537,-0.1523 -24.39844,-0.2285 z m 2.85742,2.6231 c 7.65519,0.072 15.31156,0.1433 22.9668,0.2148 h 0.004 0.004 c 0.88421,0 1.90176,0.084 3.01367,0.3164 0.30009,0.063 0.50894,0.1922 0.79297,0.2696 -8.90429,-0.03 -17.80861,-0.06 -26.71289,-0.09 -0.0226,-0.2369 -0.0457,-0.474 -0.0684,-0.7109 z"
         id="path269" />
      <path
         d="M 669.11449,1374.7726 Z"
         style="fill:#00984c;stroke-width:6.73379"
         id="path271" />
      <path
         style="color:#000000;fill:#000000;-inkscape-stroke:none"
         d="m 593.86133,1343.8652 -10.89453,26.5274 0.0527,-0.1153 c -0.85429,1.6068 -0.85129,3.5348 0.2207,4.9395 0.83259,1.091 1.97442,1.3594 2.38477,1.4336 l 0.11523,0.02 h 0.11719 c 9.50922,0 19.01813,-1e-4 28.52735,0 h 0.16015 l 0.15625,-0.039 c 0.35898,-0.09 0.91809,-0.276 1.49414,-0.6875 l -0.7539,0.2402 c 0,0 0.83468,-0.2994 0.92187,-0.3711 0.0872,-0.072 0.20166,-0.1708 0.33203,-0.2988 0.26075,-0.256 0.58674,-0.6255 0.87305,-1.1211 0.25673,-0.4444 0.61711,-1.2263 1.29101,-2.6758 0.67391,-1.4495 1.58891,-3.4488 2.70508,-5.9043 2.23235,-4.911 5.26507,-11.6464 8.74414,-19.4355 l 0.82032,-1.836 -15.24805,0.07 -0.32422,0.8125 c -2.89238,7.236 -5.78535,14.4711 -8.67773,21.7071 l -0.006,0.016 -0.004,0.014 c -0.30274,0.8132 -0.65599,1.1527 -0.88281,1.3418 -0.15057,0.1254 -0.46317,0.2637 -1.24414,0.3222 -0.78097,0.059 -1.94383,0.024 -3.51563,-0.035 -0.4197,-0.016 -0.6795,-0.04 -0.76953,-0.059 -0.09,-0.019 -9.4e-4,0.019 -0.0273,-0 -0.0799,-0.068 -0.27638,-0.5058 -0.31055,-1.0645 -0.0342,-0.5587 0.04,-1.0946 0.0625,-1.2461 0.0911,-0.6135 0.26254,-1.02 0.29102,-1.0879 v -0 c 0.6975,-1.6714 3.77948,-9.1468 7.80468,-18.8672 h 0.43164 v -1.2969 l -2.49609,-0.4961 c -0.0525,0.1268 -0.0475,0.1143 -0.0996,0.2403 v -1.0411 z m 1.74023,2.5938 h 9.86914 c -3.69987,8.9376 -6.74326,16.3113 -7.39258,17.8672 -0.0374,0.089 -0.3245,0.7771 -0.46289,1.709 -0.0226,0.152 -0.13983,0.9039 -0.0859,1.7851 0.0539,0.8812 0.2267,2.0367 1.21875,2.8809 0.32796,0.2791 0.77945,0.487 1.17968,0.5703 0.39959,0.083 0.75756,0.093 1.19922,0.1094 1.57621,0.06 2.78357,0.1081 3.81055,0.031 1.02698,-0.077 1.96041,-0.2921 2.70898,-0.916 0.48362,-0.403 1.18529,-1.1752 1.65235,-2.4277 2.78078,-6.9568 5.56297,-13.9124 8.34375,-20.8692 l 9.4707,-0.045 c -3.06909,6.8625 -5.89217,13.1446 -7.91016,17.584 -1.11434,2.4515 -2.02881,4.447 -2.69726,5.8847 -0.66845,1.4378 -1.16234,2.4359 -1.18359,2.4727 -0.13225,0.2289 -0.30852,0.4321 -0.44532,0.5664 -0.0684,0.067 -0.12636,0.1171 -0.16211,0.1465 -0.0357,0.029 -0.0273,0.023 -0.0273,0.023 -0.20122,0.1438 -0.38078,0.2 -0.5332,0.2442 -9.36665,-10e-5 -18.73297,0 -28.09961,0 -0.16515,-0.032 -0.51008,-0.1167 -0.75196,-0.4336 -0.32518,-0.4261 -0.42387,-1.3328 0.01,-2.1485 l 0.0293,-0.057 z"
         id="path273" />
      <path
         d="M 607.41076,1345.1617 Z"
         style="fill:#00984c;stroke-width:6.73379"
         id="path275" />
      <path
         style="color:#000000;fill:#000000;-inkscape-stroke:none"
         d="m 656.73828,1337.1504 c -0.39582,-0 -0.72844,0.051 -0.92773,0.078 -1.61212,0.2222 -2.76977,0.9503 -3.17383,1.207 -1.04043,0.661 -2.37169,1.5745 -3.88086,2.7852 l -3.83594,3.0762 4.85547,-0.7832 c 0.52805,-0.085 1.30403,-0.2267 2.23438,-0.4492 1.55431,-0.372 2.80515,-0.6788 4.12695,-1.5079 0.49567,-0.3109 1.02673,-0.699 1.48047,-1.1269 0.22687,-0.214 0.43421,-0.4295 0.625,-0.7227 0.19079,-0.2931 0.52633,-0.7845 0.21875,-1.5566 -0.22697,-0.5699 -0.72174,-0.8146 -1.01563,-0.9043 -0.29389,-0.09 -0.50912,-0.094 -0.70703,-0.096 z"
         id="path277" />
      <path
         d="M 649.56825,1342.2321 Z"
         style="fill:#00984c;stroke-width:6.73379"
         id="path279" />
      <path
         style="color:#000000;fill:#00984c;-inkscape-stroke:none"
         d="m 822.71094,1368.2559 c -7.32574,0.7354 -13.43945,6.9328 -14.38672,14.9629 -1.08235,9.1773 4.95269,17.5996 13.6289,18.6269 8.67636,1.0273 16.50553,-5.7563 17.5879,-14.9336 1.08259,-9.1773 -4.9527,-17.5996 -13.62891,-18.6269 -1.08453,-0.1285 -2.15464,-0.1344 -3.20117,-0.029 z m 0.31836,3.3574 c 0.81491,-0.083 1.64714,-0.078 2.48632,0.022 6.71348,0.7949 11.5594,7.3757 10.67383,14.8828 -0.88537,7.5071 -7.12611,12.7734 -13.83984,11.9785 -6.71347,-0.7949 -11.55922,-7.3756 -10.67383,-14.8828 0.77487,-6.5686 5.64914,-11.4221 11.35352,-12 z"
         id="path281" />
      <path
         style="color:#000000;fill:#00984c;-inkscape-stroke:none"
         d="m 353.47266,1227.8438 -171.78711,11.1757 3.79101,2.7461 c 34.31724,24.8571 68.63394,49.7133 102.95117,74.5703 6.20959,13.6998 12.37247,28.0163 18.41407,42.961 7.01455,17.3511 13.33603,34.2275 19.03906,50.5371 l -0.0176,-0.053 c 0.3445,1.0987 1.68848,4.9214 5.68555,7.5468 l 2.5625,1.6817 0.006,-0.4063 c 2.78847,1.0531 5.29257,0.9962 5.9707,0.9883 3.18705,-0.038 39.56177,0.3192 98.53125,0.9492 58.96166,0.63 140.73877,1.5293 235.42578,2.5703 2.0366,0.062 4.1108,0.1012 6.22461,0.1153 h 0.002 c 3.17873,0.021 6.27136,-0.018 9.2793,-0.1055 28.53306,0.3816 57.4137,-0.01 85.92774,-1.334 12.56601,-0.5839 29.51919,-0.721 45.21679,-4.0156 15.59788,-3.2737 30.13371,-9.7432 37.57031,-23.1641 l 0.0117,0.01 0.1211,-0.2051 c 0.004,-0.01 0.004,-0.013 0.008,-0.02 0.005,-0.01 0.0123,-0.018 0.0176,-0.027 l -0.008,0 c 2.52167,-4.3431 1.6289,-9.7145 1.6289,-9.7148 v -0.1074 l -0.0137,-0.1074 c -0.56907,-4.4109 -2.41659,-8.6556 -4.18359,-11.2754 -9.40739,-13.9478 -33.97359,-27.5788 -56.29688,-38.1387 -11.16164,-5.28 -21.75262,-9.725 -29.55859,-12.8535 -3.90299,-1.5643 -7.10913,-2.8002 -9.3418,-3.6446 -1.11633,-0.4222 -1.98928,-0.7454 -2.58398,-0.9648 -0.59359,-0.219 -0.91287,-0.3355 -0.91407,-0.3359 h -0.002 c -1.48636,-0.5376 -5.27614,-1.8821 -13.24023,-4.7539 -18.11141,-6.531 -23.0933,-8.4502 -32.25391,-11.4727 -4.51564,-1.4899 -9.32059,-3.0163 -14.54688,-4.6035 -38.70625,-11.7554 -70.51198,-17.6755 -91.83203,-21.2813 -55.48925,-9.3843 -131.15715,-18.5045 -222.85156,-18.7226 -9.47117,-9.3396 -18.9429,-18.678 -28.41406,-28.0176 z m -1.29297,3.4628 c 9.45248,9.3212 18.90494,18.6417 28.35742,27.9629 l 0.49219,0.4844 0.68945,0 c 91.79676,0.1717 167.50509,9.3009 222.99609,18.6855 21.26536,3.5965 52.89808,9.4841 91.41407,21.1816 5.2007,1.5795 9.97989,3.0984 14.4707,4.5801 9.10291,3.0035 14.04206,4.906 32.16601,11.4414 7.97012,2.874 11.78639,4.2301 13.24024,4.7559 l 0.0859,0.029 0.0879,0.023 c 0,0 0.13217,0.057 0.71875,0.2735 0.58657,0.2164 1.45135,0.5382 2.55859,0.957 2.21449,0.8375 5.40148,2.0642 9.28125,3.6191 7.75955,3.11 18.29346,7.5332 29.37109,12.7735 22.15527,10.4804 46.52464,24.4955 54.94141,36.9746 1.39983,2.0755 3.13381,6.0603 3.62305,9.7754 0.0242,0.288 0.41856,5.1389 -1.1836,7.875 -6.8e-4,0 -0.001,0 -0.002,0 l -0.0273,0.049 c -6.71314,12.3473 -20.22325,18.5171 -35.45899,21.7149 -15.23573,3.1977 -32.00115,3.36 -44.67968,3.9492 -28.43922,1.3215 -57.25472,1.7108 -85.72657,1.33 h -0.0351 -0.0352 c -2.99105,0.087 -6.07052,0.1264 -9.23242,0.1055 -2.08677,-0.014 -4.13641,-0.052 -6.14649,-0.1133 l -0.0156,-0 h -0.0176 c -94.70297,-1.0413 -176.48653,-1.9403 -235.45703,-2.5703 -58.9705,-0.6301 -94.90697,-0.9929 -98.60742,-0.9492 -1.01281,0.012 -3.9467,0.062 -6.64844,-1.7129 l -0.01,-0.01 c -3.02039,-1.9899 -4.04649,-4.8906 -4.30859,-5.7265 l -0.008,-0.025 -0.01,-0.025 c -5.72005,-16.3582 -12.05825,-33.2846 -19.09375,-50.6875 -6.11769,-15.1329 -12.36173,-29.634 -18.65039,-43.4941 l -0.18359,-0.4063 -0.36133,-0.2637 c -33.17662,-24.0308 -66.35461,-48.0609 -99.53125,-72.0918 z m 504.76367,162.252 1.16406,0.9238 -0.33984,0.127 c -0.27183,-0.347 -0.82422,-1.0508 -0.82422,-1.0508 z"
         id="path283" />
      <g
         id="use6621" />
      <g
         id="use6623" />
      <g
         id="use6625" />
      <g
         id="use6627" />
      <g
         id="use6629" />
      <g
         id="use6631" />
      <g
         id="use6633" />
      <g
         id="use6635" />
      <g
         id="use6637" />
      <g
         id="use6639" />
      <g
         id="use6641" />
      <g
         id="use6643" />
      <g
         id="use6645" />
      <g
         id="use6647" />
      <g
         id="use6649" />
      <g
         id="use6651" />
      <g
         id="use6653" />
      <g
         id="use6655" />
      <g
         id="use6657" />
      <g
         id="use6659" />
      <g
         id="use6661" />
      <g
         id="use6663" />
      <g
         id="use6665" />
      <g
         id="use6667" />
      <g
         id="use6669" />
      <g
         id="use6671" />
      <g
         id="use6673" />
      <g
         id="use6675" />
      <g
         id="use6677" />
      <g
         id="use6679" />
      <g
         id="use6681" />
      <g
         id="use6683" />
      <g
         id="use6685" />
      <g
         id="use6687" />
      <g
         id="use6689" />
      <g
         id="use6691" />
      <g
         id="use6693" />
      <g
         id="use6695" />
      <g
         id="use6697" />
      <g
         id="use6699" />
      <g
         id="use6701" />
      <g
         id="use6703" />
      <g
         id="use6705" />
      <g
         id="use6707" />
      <g
         id="use6709" />
      <g
         id="use6711" />
      <g
         id="use6713" />
      <g
         id="use6715" />
      <g
         id="use6717" />
      <g
         id="use6719" />
      <g
         id="use6721" />
      <g
         id="use6723" />
      <g
         id="use6725" />
      <g
         id="use6727" />
      <g
         id="use6729" />
      <g
         id="use6731" />
      <g
         id="use6733" />
      <g
         id="use6735" />
      <g
         id="use6737" />
      <g
         id="use6739" />
      <g
         id="use6741" />
      <g
         id="use6743" />
      <g
         id="use6745" />
      <g
         id="use6747" />
      <g
         id="use6749" />
      <g
         id="use6751" />
      <g
         id="use6753" />
      <g
         id="use6755" />
      <g
         id="use6757" />
      <g
         id="use6759" />
      <g
         id="use6761" />
      <g
         id="use6763" />
      <g
         id="use6765" />
      <g
         id="use6767" />
      <g
         id="use6769" />
      <g
         id="use6771" />
      <g
         id="use6773" />
      <g
         id="use6775" />
      <g
         id="use6777" />
      <g
         id="use6779" />
      <g
         id="use6781" />
      <g
         id="use6783" />
      <g
         id="use6785" />
      <g
         id="use6787" />
      <g
         id="use6789" />
      <g
         id="use6791" />
      <g
         id="use6793" />
      <g
         id="use6795" />
      <g
         id="use6797" />
      <g
         id="use6799" />
      <g
         id="use6801" />
      <g
         id="use6803" />
      <g
         id="use6805" />
      <g
         id="use6807" />
      <g
         id="use6809" />
      <g
         id="use6811" />
      <g
         id="use6813" />
      <g
         id="use6815" />
      <g
         id="use6817" />
      <g
         id="use6819" />
      <g
         id="use6821" />
      <g
         id="use6823" />
      <g
         id="use6825" />
      <g
         id="use6827" />
      <g
         id="use6829" />
      <g
         id="use6831" />
      <g
         id="use6833" />
      <g
         id="use6835" />
      <g
         id="use6837" />
      <g
         id="use6839" />
      <g
         id="use6841" />
      <g
         id="use6843" />
      <g
         id="use6845" />
      <g
         id="use6847" />
      <g
         id="use6849" />
      <g
         id="use6851" />
      <g
         id="use6853" />
      <g
         id="use6855" />
      <g
         id="use6857" />
      <g
         id="use6859" />
      <g
         id="use6861" />
      <g
         id="use6863" />
      <g
         id="use6865" />
      <g
         id="use6867" />
      <g
         id="use6869" />
      <g
         id="use6871" />
      <g
         id="use6873" />
      <g
         id="use6875" />
      <g
         id="use6877" />
      <g
         id="use6879" />
      <g
         id="use6881" />
      <g
         id="use6883" />
      <g
         id="use6885" />
      <g
         id="use6887" />
      <g
         id="use6889" />
      <g
         id="use6891" />
      <g
         id="use6893" />
      <g
         id="use6895" />
      <g
         id="use6897" />
      <g
         id="use6899" />
      <g
         id="use6901" />
      <g
         id="use6903" />
      <g
         id="use6905" />
      <g
         id="use6907" />
      <g
         id="use6909" />
      <g
         id="use6911" />
      <g
         id="use6913" />
      <g
         id="use6915" />
      <g
         id="use6917" />
      <g
         id="use6919" />
      <g
         id="use6921" />
      <g
         id="use6923" />
      <g
         id="use6925" />
      <g
         id="use6927" />
      <g
         id="use6929" />
      <g
         id="use6931" />
      <g
         id="use6933" />
      <g
         id="use6935" />
      <g
         id="use6937" />
      <g
         id="use6939" />
      <g
         id="use6941" />
      <g
         id="use6943" />
      <g
         id="use6945" />
      <g
         id="use6947" />
      <g
         id="use6949" />
      <g
         id="use6951" />
      <g
         id="use6953" />
      <g
         id="use6955" />
      <g
         id="use6957" />
      <g
         id="use6959" />
      <g
         id="use6961" />
      <g
         id="use6963" />
      <g
         id="use6965" />
      <g
         id="use6967" />
      <g
         id="use6969" />
      <g
         id="use6971" />
      <g
         id="use6973" />
      <g
         id="use6975" />
      <g
         id="use6977" />
      <g
         id="use6979" />
      <g
         id="use6981" />
      <g
         id="use6983" />
      <g
         id="use6985" />
      <g
         id="use6987" />
      <g
         id="use6989" />
      <g
         id="use6991" />
      <g
         id="use6993" />
      <g
         id="use6995" />
      <g
         id="use6997" />
      <g
         id="use6999" />
      <g
         id="use7001" />
      <g
         id="use7003" />
      <g
         id="use7005" />
      <g
         id="use7007" />
      <g
         id="use7009" />
      <g
         id="use7011" />
      <g
         id="use7013" />
      <g
         id="use7015" />
      <g
         id="use7017" />
      <g
         id="use7019" />
    </g>
  </g>
</svg>
