  0
SECTION
  2
HEADER
  9
$ACADVER
  1
AC1014
  9
$HANDSEED
  5
FFFF
  9
$MEASUREMENT
 70
     1
  0
ENDSEC
  0
SECTION
  2
TABLES
  0
TABLE
  2
VPORT
  5
8
330
0
100
AcDbSymbolTable
 70
     4
  0
VPORT
  5
2E
330
8
100
AcDbSymbolTableRecord
100
AcDbViewportTableRecord
  2
*ACTIVE
 70
     0
 10
0.0
 20
0.0
 11
1.0
 21
1.0
 12
210.0
 22
148.5
 13
0.0
 23
0.0
 14
10.0
 24
10.0
 15
10.0
 25
10.0
 16
0.0
 26
0.0
 36
1.0
 17
0.0
 27
0.0
 37
0.0
 40
341.0
 41
1.24
 42
50.0
 43
0.0
 44
0.0
 50
0.0
 51
0.0
 71
     0
 72
   100
 73
     1
 74
     3
 75
     0
 76
     0
 77
     0
 78
     0
  0
ENDTAB
  0
TABLE
  2
LTYPE
  5
5
330
0
100
AcDbSymbolTable
 70
     1
  0
LTYPE
  5
14
330
5
100
AcDbSymbolTableRecord
100
AcDbLinetypeTableRecord
  2
BYBLOCK
 70
     0
  3

 72
    65
 73
     0
 40
0.0
  0
LTYPE
  5
15
330
5
100
AcDbSymbolTableRecord
100
AcDbLinetypeTableRecord
  2
BYLAYER
 70
     0
  3

 72
    65
 73
     0
 40
0.0
  0
LTYPE
  5
16
330
5
100
AcDbSymbolTableRecord
100
AcDbLinetypeTableRecord
  2
CONTINUOUS
 70
     0
  3
Solid line
 72
    65
 73
     0
 40
0.0
  0
ENDTAB
  0
TABLE
  2
LAYER
  5
2
100
AcDbSymbolTable
 70
2
  0
LAYER
  5
50
100
AcDbSymbolTableRecord
100
AcDbLayerTableRecord
  2
0
 70
0
  6
CONTINUOUS
  0
LAYER
  5
51
100
AcDbSymbolTableRecord
100
AcDbLayerTableRecord
  2
Camada_1
 70
0
  6
CONTINUOUS
  0
ENDTAB
  0
TABLE
  2
STYLE
  5
3
330
0
100
AcDbSymbolTable
 70
     1
  0
STYLE
  5
11
330
3
100
AcDbSymbolTableRecord
100
AcDbTextStyleTableRecord
  2
STANDARD
 70
     0
 40
0.0
 41
1.0
 50
0.0
 71
     0
 42
2.5
  3
txt
  4

  0
ENDTAB
  0
TABLE
  2
VIEW
  5
6
330
0
100
AcDbSymbolTable
 70
     0
  0
ENDTAB
  0
TABLE
  2
UCS
  5
7
330
0
100
AcDbSymbolTable
 70
     0
  0
ENDTAB
  0
TABLE
  2
APPID
  5
9
330
0
100
AcDbSymbolTable
 70
     2
  0
APPID
  5
12
330
9
100
AcDbSymbolTableRecord
100
AcDbRegAppTableRecord
  2
ACAD
 70
     0
  0
ENDTAB
  0
TABLE
  2
DIMSTYLE
  5
A
330
0
100
AcDbSymbolTable
 70
     1
  0
DIMSTYLE
105
27
330
A
100
AcDbSymbolTableRecord
100
AcDbDimStyleTableRecord
  2
ISO-25
 70
     0
  3

  4

  5

  6

  7

 40
1.0
 41
2.5
 42
0.625
 43
3.75
 44
1.25
 45
0.0
 46
0.0
 47
0.0
 48
0.0
140
2.5
141
2.5
142
0.0
143
0.03937007874016
144
1.0
145
0.0
146
1.0
147
0.625
 71
     0
 72
     0
 73
     0
 74
     0
 75
     0
 76
     0
 77
     1
 78
     8
170
     0
171
     3
172
     1
173
     0
174
     0
175
     0
176
     0
177
     0
178
     0
270
     2
271
     2
272
     2
273
     2
274
     3
340
11
275
     0
280
     0
281
     0
282
     0
283
     0
284
     8
285
     0
286
     0
287
     3
288
     0
  0
ENDTAB
  0
TABLE
  2
BLOCK_RECORD
  5
1
330
0
100
AcDbSymbolTable
 70
     1
  0
BLOCK_RECORD
  5
1F
330
1
100
AcDbSymbolTableRecord
100
AcDbBlockTableRecord
  2
*MODEL_SPACE
  0
BLOCK_RECORD
  5
1B
330
1
100
AcDbSymbolTableRecord
100
AcDbBlockTableRecord
  2
*PAPER_SPACE
  0
ENDTAB
  0
ENDSEC
  0
SECTION
  2
BLOCKS
  0
BLOCK
  5
20
330
1F
100
AcDbEntity
  8
0
100
AcDbBlockBegin
  2
*MODEL_SPACE
 70
     0
 10
0.0
 20
0.0
 30
0.0
  3
*MODEL_SPACE
  1

  0
ENDBLK
  5
21
330
1F
100
AcDbEntity
  8
0
100
AcDbBlockEnd
  0
BLOCK
  5
1C
330
1B
100
AcDbEntity
 67
     1
  8
0
100
AcDbBlockBegin
  2
*PAPER_SPACE
  1

  0
ENDBLK
  5
1D
330
1B
100
AcDbEntity
 67
     1
  8
0
100
AcDbBlockEnd
  0
ENDSEC
  0
SECTION
  2
ENTITIES
  0
SPLINE
  5
100
100
AcDbEntity
  8
Camada_1
 62
1
100
AcDbSpline
 70
8
 71
3
 72
8
 73
4
 74
0
 40
0
 40
0
 40
0
 40
0
 40
1
 40
1
 40
1
 40
1
 10
89.049511
 20
91.666149
 30
0.0
 10
92.441385
 20
86.830647
 30
0.0
 10
99.914814
 20
76.053776
 30
0.0
 10
106.506681
 20
65.381827
 30
0.0
  0
SPLINE
  5
101
100
AcDbEntity
  8
Camada_1
 62
1
100
AcDbSpline
 70
8
 71
3
 72
8
 73
4
 74
0
 40
0
 40
0
 40
0
 40
0
 40
1
 40
1
 40
1
 40
1
 10
106.506681
 20
65.381827
 30
0.0
 10
108.749430
 20
61.750912
 30
0.0
 10
110.648644
 20
58.527792
 30
0.0
 10
113.080832
 20
54.003331
 30
0.0
  0
SPLINE
  5
102
100
AcDbEntity
  8
Camada_1
 62
1
100
AcDbSpline
 70
8
 71
3
 72
8
 73
4
 74
0
 40
0
 40
0
 40
0
 40
0
 40
1
 40
1
 40
1
 40
1
 10
113.080832
 20
54.003331
 30
0.0
 10
113.080842
 20
54.003320
 30
0.0
 10
119.415646
 20
42.219052
 30
0.0
 10
125.795122
 20
24.985606
 30
0.0
  0
SPLINE
  5
103
100
AcDbEntity
  8
Camada_1
 62
1
100
AcDbSpline
 70
8
 71
3
 72
8
 73
4
 74
0
 40
0
 40
0
 40
0
 40
0
 40
1
 40
1
 40
1
 40
1
 10
125.795153
 20
24.985524
 30
0.0
 10
127.307626
 20
21.177340
 30
0.0
 10
128.099604
 20
17.903880
 30
0.0
 10
128.540698
 20
15.491307
 30
0.0
  0
SPLINE
  5
104
100
AcDbEntity
  8
Camada_1
 62
1
100
AcDbSpline
 70
8
 71
3
 72
8
 73
4
 74
0
 40
0
 40
0
 40
0
 40
0
 40
1
 40
1
 40
1
 40
1
 10
128.540698
 20
15.491307
 30
0.0
 10
128.632815
 20
14.987485
 30
0.0
 10
129.191051
 20
11.849306
 30
0.0
 10
129.146717
 20
7.928679
 30
0.0
  0
SPLINE
  5
105
100
AcDbEntity
  8
Camada_1
 62
1
100
AcDbSpline
 70
8
 71
3
 72
8
 73
4
 74
0
 40
0
 40
0
 40
0
 40
0
 40
1
 40
1
 40
1
 40
1
 10
129.146717
 20
7.928679
 30
0.0
 10
129.136257
 20
7.003388
 30
0.0
 10
129.092662
 20
6.073042
 30
0.0
 10
128.822962
 20
4.928206
 30
0.0
  0
SPLINE
  5
106
100
AcDbEntity
  8
Camada_1
 62
1
100
AcDbSpline
 70
8
 71
3
 72
8
 73
4
 74
0
 40
0
 40
0
 40
0
 40
0
 40
1
 40
1
 40
1
 40
1
 10
128.822962
 20
4.928206
 30
0.0
 10
128.480309
 20
3.473676
 30
0.0
 10
127.896944
 20
0.960588
 30
0.0
 10
126.440333
 20
0.332713
 30
0.0
  0
SPLINE
  5
107
100
AcDbEntity
  8
Camada_1
 62
1
100
AcDbSpline
 70
8
 71
3
 72
8
 73
4
 74
0
 40
0
 40
0
 40
0
 40
0
 40
1
 40
1
 40
1
 40
1
 10
126.440333
 20
0.332713
 30
0.0
 10
124.986288
 20
-0.294061
 30
0.0
 10
123.106948
 20
1.038656
 30
0.0
 10
121.463608
 20
2.155106
 30
0.0
  0
SPLINE
  5
108
100
AcDbEntity
  8
Camada_1
 62
1
100
AcDbSpline
 70
8
 71
3
 72
8
 73
4
 74
0
 40
0
 40
0
 40
0
 40
0
 40
1
 40
1
 40
1
 40
1
 10
121.463608
 20
2.155106
 30
0.0
 10
119.540693
 20
3.461461
 30
0.0
 10
118.425010
 20
4.843522
 30
0.0
 10
118.243383
 20
5.072240
 30
0.0
  0
SPLINE
  5
109
100
AcDbEntity
  8
Camada_1
 62
1
100
AcDbSpline
 70
8
 71
3
 72
8
 73
4
 74
0
 40
0
 40
0
 40
0
 40
0
 40
1
 40
1
 40
1
 40
1
 10
118.243383
 20
5.072240
 30
0.0
 10
112.960886
 20
11.723816
 30
0.0
 10
109.834236
 20
17.744559
 30
0.0
 10
109.834226
 20
17.744569
 30
0.0
  0
SPLINE
  5
10a
100
AcDbEntity
  8
Camada_1
 62
1
100
AcDbSpline
 70
8
 71
3
 72
8
 73
4
 74
0
 40
0
 40
0
 40
0
 40
0
 40
1
 40
1
 40
1
 40
1
 10
109.834226
 20
17.744569
 30
0.0
 10
106.735558
 20
23.743131
 30
0.0
 10
104.335879
 20
28.467926
 30
0.0
 10
102.940806
 20
31.225657
 30
0.0
  0
SPLINE
  5
10b
100
AcDbEntity
  8
Camada_1
 62
1
100
AcDbSpline
 70
8
 71
3
 72
8
 73
4
 74
0
 40
0
 40
0
 40
0
 40
0
 40
1
 40
1
 40
1
 40
1
 10
102.940806
 20
31.225657
 30
0.0
 10
104.848088
 20
30.431003
 30
0.0
 10
106.755380
 20
29.636359
 30
0.0
 10
108.662661
 20
28.841695
 30
0.0
  0
SPLINE
  5
10c
100
AcDbEntity
  8
Camada_1
 62
1
100
AcDbSpline
 70
8
 71
3
 72
8
 73
4
 74
0
 40
0
 40
0
 40
0
 40
0
 40
1
 40
1
 40
1
 40
1
 10
108.662661
 20
28.841695
 30
0.0
 10
110.242307
 20
25.689904
 30
0.0
 10
111.455599
 20
23.183524
 30
0.0
 10
112.179912
 20
21.674617
 30
0.0
  0
SPLINE
  5
10d
100
AcDbEntity
  8
Camada_1
 62
1
100
AcDbSpline
 70
8
 71
3
 72
8
 73
4
 74
0
 40
0
 40
0
 40
0
 40
0
 40
1
 40
1
 40
1
 40
1
 10
112.179912
 20
21.674617
 30
0.0
 10
113.808142
 20
18.822545
 30
0.0
 10
118.973495
 20
9.910064
 30
0.0
 10
121.595050
 20
7.791641
 30
0.0
  0
SPLINE
  5
10e
100
AcDbEntity
  8
Camada_1
 62
1
100
AcDbSpline
 70
8
 71
3
 72
8
 73
4
 74
0
 40
0
 40
0
 40
0
 40
0
 40
1
 40
1
 40
1
 40
1
 10
121.595050
 20
7.791641
 30
0.0
 10
122.049344
 20
7.424528
 30
0.0
 10
123.161721
 20
6.525650
 30
0.0
 10
123.857302
 20
6.837779
 30
0.0
  0
SPLINE
  5
10f
100
AcDbEntity
  8
Camada_1
 62
1
100
AcDbSpline
 70
8
 71
3
 72
8
 73
4
 74
0
 40
0
 40
0
 40
0
 40
0
 40
1
 40
1
 40
1
 40
1
 10
123.857302
 20
6.837779
 30
0.0
 10
124.290081
 20
7.031999
 30
0.0
 10
124.389363
 20
7.617762
 30
0.0
 10
124.434211
 20
7.959253
 30
0.0
  0
SPLINE
  5
110
100
AcDbEntity
  8
Camada_1
 62
1
100
AcDbSpline
 70
8
 71
3
 72
8
 73
4
 74
0
 40
0
 40
0
 40
0
 40
0
 40
1
 40
1
 40
1
 40
1
 10
124.434211
 20
7.959253
 30
0.0
 10
124.845320
 20
11.089284
 30
0.0
 10
123.994318
 20
14.540075
 30
0.0
 10
123.716211
 20
15.589696
 30
0.0
  0
SPLINE
  5
111
100
AcDbEntity
  8
Camada_1
 62
1
100
AcDbSpline
 70
8
 71
3
 72
8
 73
4
 74
0
 40
0
 40
0
 40
0
 40
0
 40
1
 40
1
 40
1
 40
1
 10
123.716211
 20
15.589696
 30
0.0
 10
123.406396
 20
16.758982
 30
0.0
 10
123.130732
 20
17.690828
 30
0.0
 10
122.942997
 20
18.306600
 30
0.0
  0
SPLINE
  5
112
100
AcDbEntity
  8
Camada_1
 62
1
100
AcDbSpline
 70
8
 71
3
 72
8
 73
4
 74
0
 40
0
 40
0
 40
0
 40
0
 40
1
 40
1
 40
1
 40
1
 10
122.942997
 20
18.306600
 30
0.0
 10
122.430778
 20
19.986653
 30
0.0
 10
121.924697
 20
21.393288
 30
0.0
 10
121.266624
 20
23.210636
 30
0.0
  0
SPLINE
  5
113
100
AcDbEntity
  8
Camada_1
 62
1
100
AcDbSpline
 70
8
 71
3
 72
8
 73
4
 74
0
 40
0
 40
0
 40
0
 40
0
 40
1
 40
1
 40
1
 40
1
 10
121.266624
 20
23.210636
 30
0.0
 10
120.226573
 20
26.082845
 30
0.0
 10
119.349211
 20
28.220222
 30
0.0
 10
118.517066
 20
30.252738
 30
0.0
  0
SPLINE
  5
114
100
AcDbEntity
  8
Camada_1
 62
1
100
AcDbSpline
 70
8
 71
3
 72
8
 73
4
 74
0
 40
0
 40
0
 40
0
 40
0
 40
1
 40
1
 40
1
 40
1
 10
118.517066
 20
30.252738
 30
0.0
 10
117.088868
 20
33.741057
 30
0.0
 10
115.901577
 20
36.398159
 30
0.0
 10
115.382881
 20
37.546231
 30
0.0
  0
SPLINE
  5
115
100
AcDbEntity
  8
Camada_1
 62
1
100
AcDbSpline
 70
8
 71
3
 72
8
 73
4
 74
0
 40
0
 40
0
 40
0
 40
0
 40
1
 40
1
 40
1
 40
1
 10
115.382881
 20
37.546231
 30
0.0
 10
113.737694
 20
41.187666
 30
0.0
 10
112.133689
 20
44.539246
 30
0.0
 10
111.061858
 20
46.547876
 30
0.0
  0
SPLINE
  5
116
100
AcDbEntity
  8
Camada_1
 62
1
100
AcDbSpline
 70
8
 71
3
 72
8
 73
4
 74
0
 40
0
 40
0
 40
0
 40
0
 40
1
 40
1
 40
1
 40
1
 10
111.061858
 20
46.547876
 30
0.0
 10
108.657087
 20
51.054410
 30
0.0
 10
105.521312
 20
56.128226
 30
0.0
 10
100.567344
 20
63.033114
 30
0.0
  0
SPLINE
  5
117
100
AcDbEntity
  8
Camada_1
 62
1
100
AcDbSpline
 70
8
 71
3
 72
8
 73
4
 74
0
 40
0
 40
0
 40
0
 40
0
 40
1
 40
1
 40
1
 40
1
 10
100.567344
 20
63.033114
 30
0.0
 10
88.483165
 20
79.876230
 30
0.0
 10
82.504235
 20
80.429056
 30
0.0
 10
80.681352
 20
80.473016
 30
0.0
  0
SPLINE
  5
118
100
AcDbEntity
  8
Camada_1
 62
1
100
AcDbSpline
 70
8
 71
3
 72
8
 73
4
 74
0
 40
0
 40
0
 40
0
 40
0
 40
1
 40
1
 40
1
 40
1
 10
80.681352
 20
80.473016
 30
0.0
 10
77.988024
 20
80.537965
 30
0.0
 10
75.734261
 20
79.700235
 30
0.0
 10
74.203763
 20
78.942905
 30
0.0
  0
SPLINE
  5
119
100
AcDbEntity
  8
Camada_1
 62
1
100
AcDbSpline
 70
8
 71
3
 72
8
 73
4
 74
0
 40
0
 40
0
 40
0
 40
0
 40
1
 40
1
 40
1
 40
1
 10
74.203763
 20
78.942905
 30
0.0
 10
78.413844
 20
74.142713
 30
0.0
 10
82.809801
 20
68.582397
 30
0.0
 10
87.092619
 20
62.226102
 30
0.0
  0
SPLINE
  5
11a
100
AcDbEntity
  8
Camada_1
 62
1
100
AcDbSpline
 70
8
 71
3
 72
8
 73
4
 74
0
 40
0
 40
0
 40
0
 40
0
 40
1
 40
1
 40
1
 40
1
 10
87.092619
 20
62.226102
 30
0.0
 10
93.510034
 20
52.701742
 30
0.0
 10
98.150707
 20
43.650158
 30
0.0
 10
101.537039
 20
35.758871
 30
0.0
  0
SPLINE
  5
11b
100
AcDbEntity
  8
Camada_1
 62
1
100
AcDbSpline
 70
8
 71
3
 72
8
 73
4
 74
0
 40
0
 40
0
 40
0
 40
0
 40
1
 40
1
 40
1
 40
1
 10
101.537039
 20
35.758871
 30
0.0
 10
84.703851
 20
43.687605
 30
0.0
 10
65.448453
 20
51.546798
 30
0.0
 10
43.866370
 20
58.434006
 30
0.0
  0
SPLINE
  5
11c
100
AcDbEntity
  8
Camada_1
 62
1
100
AcDbSpline
 70
8
 71
3
 72
8
 73
4
 74
0
 40
0
 40
0
 40
0
 40
0
 40
1
 40
1
 40
1
 40
1
 10
43.866370
 20
58.434006
 30
0.0
 10
30.862075
 20
62.583906
 30
0.0
 10
18.404931
 20
65.936719
 30
0.0
 10
6.643101
 20
68.653983
 30
0.0
  0
SPLINE
  5
11d
100
AcDbEntity
  8
Camada_1
 62
1
100
AcDbSpline
 70
8
 71
3
 72
8
 73
4
 74
0
 40
0
 40
0
 40
0
 40
0
 40
1
 40
1
 40
1
 40
1
 10
6.643101
 20
68.653983
 30
0.0
 10
6.595339
 20
73.408765
 30
0.0
 10
6.547566
 20
78.163558
 30
0.0
 10
6.499803
 20
82.918331
 30
0.0
  0
SPLINE
  5
11e
100
AcDbEntity
  8
Camada_1
 62
1
100
AcDbSpline
 70
8
 71
3
 72
8
 73
4
 74
0
 40
0
 40
0
 40
0
 40
0
 40
1
 40
1
 40
1
 40
1
 10
6.499803
 20
82.918331
 30
0.0
 10
4.529044
 20
82.898503
 30
0.0
 10
2.558273
 20
82.878675
 30
0.0
 10
0.587514
 20
82.858837
 30
0.0
  0
SPLINE
  5
11f
100
AcDbEntity
  8
Camada_1
 62
1
100
AcDbSpline
 70
8
 71
3
 72
8
 73
4
 74
0
 40
0
 40
0
 40
0
 40
0
 40
1
 40
1
 40
1
 40
1
 10
0.587514
 20
82.858837
 30
0.0
 10
0.449851
 20
96.560497
 30
0.0
 10
0.312199
 20
110.262156
 30
0.0
 10
0.174546
 20
123.963816
 30
0.0
  0
SPLINE
  5
120
100
AcDbEntity
  8
Camada_1
 62
1
100
AcDbSpline
 70
8
 71
3
 72
8
 73
4
 74
0
 40
0
 40
0
 40
0
 40
0
 40
1
 40
1
 40
1
 40
1
 10
0.174546
 20
123.963816
 30
0.0
 10
2.145306
 20
123.983644
 30
0.0
 10
4.116076
 20
124.003471
 30
0.0
 10
6.086836
 20
124.023310
 30
0.0
  0
SPLINE
  5
121
100
AcDbEntity
  8
Camada_1
 62
1
100
AcDbSpline
 70
8
 71
3
 72
8
 73
4
 74
0
 40
0
 40
0
 40
0
 40
0
 40
1
 40
1
 40
1
 40
1
 10
6.086836
 20
124.023310
 30
0.0
 10
5.934905
 20
138.258142
 30
0.0
 10
5.782974
 20
152.492975
 30
0.0
 10
5.631043
 20
166.727797
 30
0.0
  0
SPLINE
  5
122
100
AcDbEntity
  8
Camada_1
 62
1
100
AcDbSpline
 70
8
 71
3
 72
8
 73
4
 74
0
 40
0
 40
0
 40
0
 40
0
 40
1
 40
1
 40
1
 40
1
 10
5.631043
 20
166.727797
 30
0.0
 10
7.985977
 20
158.407028
 30
0.0
 10
12.568325
 20
146.061817
 30
0.0
 10
21.846550
 20
133.289250
 30
0.0
  0
SPLINE
  5
123
100
AcDbEntity
  8
Camada_1
 62
1
100
AcDbSpline
 70
8
 71
3
 72
8
 73
4
 74
0
 40
0
 40
0
 40
0
 40
0
 40
1
 40
1
 40
1
 40
1
 10
21.846550
 20
133.289250
 30
0.0
 10
29.317084
 20
123.005187
 30
0.0
 10
37.358531
 20
115.849009
 30
0.0
 10
43.535337
 20
111.167568
 30
0.0
  0
SPLINE
  5
124
100
AcDbEntity
  8
Camada_1
 62
1
100
AcDbSpline
 70
8
 71
3
 72
8
 73
4
 74
0
 40
0
 40
0
 40
0
 40
0
 40
1
 40
1
 40
1
 40
1
 10
43.535337
 20
111.167568
 30
0.0
 10
47.125643
 20
116.514022
 30
0.0
 10
50.715938
 20
121.860464
 30
0.0
 10
54.306234
 20
127.206907
 30
0.0
  0
SPLINE
  5
125
100
AcDbEntity
  8
Camada_1
 62
1
100
AcDbSpline
 70
8
 71
3
 72
8
 73
4
 74
0
 40
0
 40
0
 40
0
 40
0
 40
1
 40
1
 40
1
 40
1
 10
54.306234
 20
127.206907
 30
0.0
 10
48.856132
 20
135.514270
 30
0.0
 10
43.406050
 20
143.821643
 30
0.0
 10
37.955949
 20
152.129016
 30
0.0
  0
SPLINE
  5
126
100
AcDbEntity
  8
Camada_1
 62
1
100
AcDbSpline
 70
8
 71
3
 72
8
 73
4
 74
0
 40
0
 40
0
 40
0
 40
0
 40
1
 40
1
 40
1
 40
1
 10
37.955949
 20
152.129016
 30
0.0
 10
48.224450
 20
147.097548
 30
0.0
 10
60.636254
 20
139.652346
 30
0.0
 10
72.776561
 20
128.674577
 30
0.0
  0
SPLINE
  5
127
100
AcDbEntity
  8
Camada_1
 62
1
100
AcDbSpline
 70
8
 71
3
 72
8
 73
4
 74
0
 40
0
 40
0
 40
0
 40
0
 40
1
 40
1
 40
1
 40
1
 10
72.776561
 20
128.674577
 30
0.0
 10
77.748380
 20
124.178850
 30
0.0
 10
82.002138
 20
119.698770
 30
0.0
 10
85.630465
 20
115.436590
 30
0.0
  0
SPLINE
  5
128
100
AcDbEntity
  8
Camada_1
 62
1
100
AcDbSpline
 70
8
 71
3
 72
8
 73
4
 74
0
 40
0
 40
0
 40
0
 40
0
 40
1
 40
1
 40
1
 40
1
 10
85.630465
 20
115.436590
 30
0.0
 10
86.516891
 20
111.891294
 30
0.0
 10
87.320202
 20
107.981033
 30
0.0
 10
87.934382
 20
103.740468
 30
0.0
  0
SPLINE
  5
129
100
AcDbEntity
  8
Camada_1
 62
1
100
AcDbSpline
 70
8
 71
3
 72
8
 73
4
 74
0
 40
0
 40
0
 40
0
 40
0
 40
1
 40
1
 40
1
 40
1
 10
87.934382
 20
103.740468
 30
0.0
 10
88.561260
 20
99.412169
 30
0.0
 10
88.900341
 20
95.366482
 30
0.0
 10
89.049511
 20
91.666149
 30
0.0
  0
LWPOLYLINE
  5
12a
100
AcDbEntity
  8
Camada_1
 62
1
100
AcDbPolyline
 90
1
 70
1
 10
125.795122
 20
24.985606
 30
0.0
  0
SPLINE
  5
12b
100
AcDbEntity
  8
Camada_1
 62
1
100
AcDbSpline
 70
8
 71
3
 72
8
 73
4
 74
0
 40
0
 40
0
 40
0
 40
0
 40
1
 40
1
 40
1
 40
1
 10
57.476972
 20
98.475165
 30
0.0
 10
54.709953
 20
101.310276
 30
0.0
 10
51.942934
 20
104.145398
 30
0.0
 10
49.175925
 20
106.980519
 30
0.0
  0
SPLINE
  5
12c
100
AcDbEntity
  8
Camada_1
 62
1
100
AcDbSpline
 70
8
 71
3
 72
8
 73
4
 74
0
 40
0
 40
0
 40
0
 40
0
 40
1
 40
1
 40
1
 40
1
 10
49.175925
 20
106.980519
 30
0.0
 10
49.545236
 20
108.715288
 30
0.0
 10
50.528573
 20
111.976543
 30
0.0
 10
53.435985
 20
114.906756
 30
0.0
  0
SPLINE
  5
12d
100
AcDbEntity
  8
Camada_1
 62
1
100
AcDbSpline
 70
8
 71
3
 72
8
 73
4
 74
0
 40
0
 40
0
 40
0
 40
0
 40
1
 40
1
 40
1
 40
1
 10
53.435985
 20
114.906756
 30
0.0
 10
59.350174
 20
120.867358
 30
0.0
 10
68.036914
 20
120.228512
 30
0.0
 10
69.185301
 20
120.126558
 30
0.0
  0
SPLINE
  5
12e
100
AcDbEntity
  8
Camada_1
 62
1
100
AcDbSpline
 70
8
 71
3
 72
8
 73
4
 74
0
 40
0
 40
0
 40
0
 40
0
 40
1
 40
1
 40
1
 40
1
 10
69.185301
 20
120.126558
 30
0.0
 10
67.160137
 20
118.878823
 30
0.0
 10
63.695966
 20
116.378319
 30
0.0
 10
61.016918
 20
112.130307
 30
0.0
  0
SPLINE
  5
12f
100
AcDbEntity
  8
Camada_1
 62
1
100
AcDbSpline
 70
8
 71
3
 72
8
 73
4
 74
0
 40
0
 40
0
 40
0
 40
0
 40
1
 40
1
 40
1
 40
1
 10
61.016918
 20
112.130307
 30
0.0
 10
57.373902
 20
106.353816
 30
0.0
 10
57.347100
 20
100.778069
 30
0.0
 10
57.476972
 20
98.475165
 30
0.0
  0
LWPOLYLINE
  5
130
100
AcDbEntity
  8
Camada_1
 62
1
100
AcDbPolyline
 90
1
 70
1
 10
89.049511
 20
91.666149
 30
0.0
  0
SPLINE
  5
131
100
AcDbEntity
  8
Camada_1
 62
1
100
AcDbSpline
 70
8
 71
3
 72
8
 73
4
 74
0
 40
0
 40
0
 40
0
 40
0
 40
1
 40
1
 40
1
 40
1
 10
70.587600
 20
119.036387
 30
0.0
 10
68.598127
 20
117.174884
 30
0.0
 10
65.256356
 20
113.560971
 30
0.0
 10
63.144402
 20
108.102671
 30
0.0
  0
SPLINE
  5
132
100
AcDbEntity
  8
Camada_1
 62
1
100
AcDbSpline
 70
8
 71
3
 72
8
 73
4
 74
0
 40
0
 40
0
 40
0
 40
0
 40
1
 40
1
 40
1
 40
1
 10
63.144402
 20
108.102671
 30
0.0
 10
60.867625
 20
102.218390
 30
0.0
 10
61.148514
 20
97.106830
 30
0.0
 10
61.492522
 20
94.466525
 30
0.0
  0
SPLINE
  5
133
100
AcDbEntity
  8
Camada_1
 62
1
100
AcDbSpline
 70
8
 71
3
 72
8
 73
4
 74
0
 40
0
 40
0
 40
0
 40
0
 40
1
 40
1
 40
1
 40
1
 10
61.492522
 20
94.466525
 30
0.0
 10
64.041586
 20
91.342924
 30
0.0
 10
66.590650
 20
88.219314
 30
0.0
 10
69.139714
 20
85.095713
 30
0.0
  0
SPLINE
  5
134
100
AcDbEntity
  8
Camada_1
 62
1
100
AcDbSpline
 70
8
 71
3
 72
8
 73
4
 74
0
 40
0
 40
0
 40
0
 40
0
 40
1
 40
1
 40
1
 40
1
 10
69.139714
 20
85.095713
 30
0.0
 10
70.814917
 20
87.931132
 30
0.0
 10
72.778624
 20
92.085974
 30
0.0
 10
73.687562
 20
97.349962
 30
0.0
  0
SPLINE
  5
135
100
AcDbEntity
  8
Camada_1
 62
1
100
AcDbSpline
 70
8
 71
3
 72
8
 73
4
 74
0
 40
0
 40
0
 40
0
 40
0
 40
1
 40
1
 40
1
 40
1
 10
73.687562
 20
97.349962
 30
0.0
 10
75.416388
 20
107.362281
 30
0.0
 10
72.296564
 20
115.406366
 30
0.0
 10
70.587600
 20
119.036387
 30
0.0
  0
LWPOLYLINE
  5
136
100
AcDbEntity
  8
Camada_1
 62
1
100
AcDbPolyline
 90
1
 70
1
 10
57.476972
 20
98.475165
 30
0.0
  0
SPLINE
  5
137
100
AcDbEntity
  8
Camada_1
 62
7
100
AcDbSpline
 70
8
 71
3
 72
8
 73
4
 74
0
 40
0
 40
0
 40
0
 40
0
 40
1
 40
1
 40
1
 40
1
 10
19.113374
 20
128.359992
 30
0.0
 10
16.884514
 20
129.288479
 30
0.0
 10
14.655653
 20
130.216955
 30
0.0
 10
12.426792
 20
131.145441
 30
0.0
  0
SPLINE
  5
138
100
AcDbEntity
  8
Camada_1
 62
7
100
AcDbSpline
 70
8
 71
3
 72
8
 73
4
 74
0
 40
0
 40
0
 40
0
 40
0
 40
1
 40
1
 40
1
 40
1
 10
12.426792
 20
131.145441
 30
0.0
 10
12.525828
 20
121.287954
 30
0.0
 10
12.624854
 20
111.430487
 30
0.0
 10
12.723890
 20
101.573000
 30
0.0
  0
SPLINE
  5
139
100
AcDbEntity
  8
Camada_1
 62
7
100
AcDbSpline
 70
8
 71
3
 72
8
 73
4
 74
0
 40
0
 40
0
 40
0
 40
0
 40
1
 40
1
 40
1
 40
1
 10
12.723890
 20
101.573000
 30
0.0
 10
14.952750
 20
100.644524
 30
0.0
 10
17.181611
 20
99.716048
 30
0.0
 10
19.410472
 20
98.787561
 30
0.0
  0
SPLINE
  5
13a
100
AcDbEntity
  8
Camada_1
 62
7
100
AcDbSpline
 70
8
 71
3
 72
8
 73
4
 74
0
 40
0
 40
0
 40
0
 40
0
 40
1
 40
1
 40
1
 40
1
 10
19.410472
 20
98.787561
 30
0.0
 10
19.311436
 20
108.645038
 30
0.0
 10
19.212410
 20
118.502515
 30
0.0
 10
19.113374
 20
128.359992
 30
0.0
  0
LWPOLYLINE
  5
13b
100
AcDbEntity
  8
Camada_1
 62
1
100
AcDbPolyline
 90
1
 70
1
 10
70.587600
 20
119.036387
 30
0.0
  0
SPLINE
  5
13c
100
AcDbEntity
  8
Camada_1
 62
7
100
AcDbSpline
 70
8
 71
3
 72
8
 73
4
 74
0
 40
0
 40
0
 40
0
 40
0
 40
1
 40
1
 40
1
 40
1
 10
19.440189
 20
95.830319
 30
0.0
 10
17.211328
 20
96.758806
 30
0.0
 10
14.982457
 20
97.687282
 30
0.0
 10
12.753607
 20
98.615758
 30
0.0
  0
SPLINE
  5
13d
100
AcDbEntity
  8
Camada_1
 62
7
100
AcDbSpline
 70
8
 71
3
 72
8
 73
4
 74
0
 40
0
 40
0
 40
0
 40
0
 40
1
 40
1
 40
1
 40
1
 10
12.753607
 20
98.615758
 30
0.0
 10
12.781332
 20
95.855325
 30
0.0
 10
12.809068
 20
93.094892
 30
0.0
 10
12.836804
 20
90.334459
 30
0.0
  0
SPLINE
  5
13e
100
AcDbEntity
  8
Camada_1
 62
7
100
AcDbSpline
 70
8
 71
3
 72
8
 73
4
 74
0
 40
0
 40
0
 40
0
 40
0
 40
1
 40
1
 40
1
 40
1
 10
12.836804
 20
90.334459
 30
0.0
 10
15.065346
 20
89.436649
 30
0.0
 10
17.293909
 20
88.538839
 30
0.0
 10
19.522462
 20
87.641030
 30
0.0
  0
SPLINE
  5
13f
100
AcDbEntity
  8
Camada_1
 62
7
100
AcDbSpline
 70
8
 71
3
 72
8
 73
4
 74
0
 40
0
 40
0
 40
0
 40
0
 40
1
 40
1
 40
1
 40
1
 10
19.522462
 20
87.641030
 30
0.0
 10
19.495034
 20
90.370796
 30
0.0
 10
19.467606
 20
93.100553
 30
0.0
 10
19.440189
 20
95.830319
 30
0.0
  0
LWPOLYLINE
  5
140
100
AcDbEntity
  8
Camada_1
 62
7
100
AcDbPolyline
 90
2
 70
1
 10
19.113374
 20
128.359992
 30
0.0
 10
19.113374
 20
128.359992
 30
0.0
  0
SPLINE
  5
141
100
AcDbEntity
  8
Camada_1
 62
7
100
AcDbSpline
 70
8
 71
3
 72
8
 73
4
 74
0
 40
0
 40
0
 40
0
 40
0
 40
1
 40
1
 40
1
 40
1
 10
19.552168
 20
84.683788
 30
0.0
 10
17.323308
 20
85.612274
 30
0.0
 10
15.094447
 20
86.540750
 30
0.0
 10
12.865586
 20
87.469226
 30
0.0
  0
SPLINE
  5
142
100
AcDbEntity
  8
Camada_1
 62
7
100
AcDbSpline
 70
8
 71
3
 72
8
 73
4
 74
0
 40
0
 40
0
 40
0
 40
0
 40
1
 40
1
 40
1
 40
1
 10
12.865586
 20
87.469226
 30
0.0
 10
12.881826
 20
85.853012
 30
0.0
 10
12.898065
 20
84.236788
 30
0.0
 10
12.914304
 20
82.620575
 30
0.0
  0
SPLINE
  5
143
100
AcDbEntity
  8
Camada_1
 62
7
100
AcDbSpline
 70
8
 71
3
 72
8
 73
4
 74
0
 40
0
 40
0
 40
0
 40
0
 40
1
 40
1
 40
1
 40
1
 10
12.914304
 20
82.620575
 30
0.0
 10
15.141378
 20
81.869306
 30
0.0
 10
17.368463
 20
81.118037
 30
0.0
 10
19.595538
 20
80.366768
 30
0.0
  0
SPLINE
  5
144
100
AcDbEntity
  8
Camada_1
 62
7
100
AcDbSpline
 70
8
 71
3
 72
8
 73
4
 74
0
 40
0
 40
0
 40
0
 40
0
 40
1
 40
1
 40
1
 40
1
 10
19.595538
 20
80.366768
 30
0.0
 10
19.581085
 20
81.805775
 30
0.0
 10
19.566621
 20
83.244781
 30
0.0
 10
19.552168
 20
84.683788
 30
0.0
  0
LWPOLYLINE
  5
145
100
AcDbEntity
  8
Camada_1
 62
7
100
AcDbPolyline
 90
2
 70
1
 10
19.440189
 20
95.830319
 30
0.0
 10
19.440189
 20
95.830319
 30
0.0
  0
SPLINE
  5
146
100
AcDbEntity
  8
Camada_1
 62
7
100
AcDbSpline
 70
8
 71
3
 72
8
 73
4
 74
0
 40
0
 40
0
 40
0
 40
0
 40
1
 40
1
 40
1
 40
1
 10
59.331009
 20
71.986525
 30
0.0
 10
59.337784
 20
75.974300
 30
0.0
 10
59.344631
 20
79.962044
 30
0.0
 10
59.351447
 20
83.949819
 30
0.0
  0
SPLINE
  5
147
100
AcDbEntity
  8
Camada_1
 62
7
100
AcDbSpline
 70
8
 71
3
 72
8
 73
4
 74
0
 40
0
 40
0
 40
0
 40
0
 40
1
 40
1
 40
1
 40
1
 10
59.351447
 20
83.949819
 30
0.0
 10
63.011010
 20
82.167812
 30
0.0
 10
71.584713
 20
77.333913
 30
0.0
 10
75.547881
 20
67.505222
 30
0.0
  0
SPLINE
  5
148
100
AcDbEntity
  8
Camada_1
 62
7
100
AcDbSpline
 70
8
 71
3
 72
8
 73
4
 74
0
 40
0
 40
0
 40
0
 40
0
 40
1
 40
1
 40
1
 40
1
 10
75.547881
 20
67.505222
 30
0.0
 10
77.370806
 20
62.984357
 30
0.0
 10
79.242622
 20
54.866365
 30
0.0
 10
76.257371
 20
52.875159
 30
0.0
  0
SPLINE
  5
149
100
AcDbEntity
  8
Camada_1
 62
7
100
AcDbSpline
 70
8
 71
3
 72
8
 73
4
 74
0
 40
0
 40
0
 40
0
 40
0
 40
1
 40
1
 40
1
 40
1
 10
76.257371
 20
52.875159
 30
0.0
 10
73.219779
 20
50.849033
 30
0.0
 10
65.881314
 20
56.391145
 30
0.0
 10
58.447108
 20
61.984921
 30
0.0
  0
SPLINE
  5
14a
100
AcDbEntity
  8
Camada_1
 62
7
100
AcDbSpline
 70
8
 71
3
 72
8
 73
4
 74
0
 40
0
 40
0
 40
0
 40
0
 40
1
 40
1
 40
1
 40
1
 10
58.447108
 20
61.984921
 30
0.0
 10
56.471996
 20
63.471063
 30
0.0
 10
55.461878
 20
64.357818
 30
0.0
 10
53.399493
 20
65.993634
 30
0.0
  0
SPLINE
  5
14b
100
AcDbEntity
  8
Camada_1
 62
7
100
AcDbSpline
 70
8
 71
3
 72
8
 73
4
 74
0
 40
0
 40
0
 40
0
 40
0
 40
1
 40
1
 40
1
 40
1
 10
53.399493
 20
65.993634
 30
0.0
 10
51.889895
 20
67.190987
 30
0.0
 10
50.620300
 20
68.156725
 30
0.0
 10
49.934491
 20
68.673954
 30
0.0
  0
SPLINE
  5
14c
100
AcDbEntity
  8
Camada_1
 62
7
100
AcDbSpline
 70
8
 71
3
 72
8
 73
4
 74
0
 40
0
 40
0
 40
0
 40
0
 40
1
 40
1
 40
1
 40
1
 10
49.934491
 20
68.673954
 30
0.0
 10
49.934460
 20
68.673975
 30
0.0
 10
49.670057
 20
68.873506
 30
0.0
 10
49.411012
 20
69.067511
 30
0.0
  0
SPLINE
  5
14d
100
AcDbEntity
  8
Camada_1
 62
7
100
AcDbSpline
 70
8
 71
3
 72
8
 73
4
 74
0
 40
0
 40
0
 40
0
 40
0
 40
1
 40
1
 40
1
 40
1
 10
49.411012
 20
69.067511
 30
0.0
 10
47.926993
 20
70.178968
 30
0.0
 10
40.287315
 20
74.907132
 30
0.0
 10
29.753979
 20
81.212440
 30
0.0
  0
SPLINE
  5
14e
100
AcDbEntity
  8
Camada_1
 62
7
100
AcDbSpline
 70
8
 71
3
 72
8
 73
4
 74
0
 40
0
 40
0
 40
0
 40
0
 40
1
 40
1
 40
1
 40
1
 10
29.753979
 20
81.212440
 30
0.0
 10
31.928404
 20
76.292696
 30
0.0
 10
34.102830
 20
71.372972
 30
0.0
 10
36.277256
 20
66.453228
 30
0.0
  0
SPLINE
  5
14f
100
AcDbEntity
  8
Camada_1
 62
7
100
AcDbSpline
 70
8
 71
3
 72
8
 73
4
 74
0
 40
0
 40
0
 40
0
 40
0
 40
1
 40
1
 40
1
 40
1
 10
36.277256
 20
66.453228
 30
0.0
 10
33.078772
 20
67.546984
 30
0.0
 10
29.880288
 20
68.640740
 30
0.0
 10
26.681804
 20
69.734496
 30
0.0
  0
SPLINE
  5
150
100
AcDbEntity
  8
Camada_1
 62
7
100
AcDbSpline
 70
8
 71
3
 72
8
 73
4
 74
0
 40
0
 40
0
 40
0
 40
0
 40
1
 40
1
 40
1
 40
1
 10
26.681804
 20
69.734496
 30
0.0
 10
26.468838
 20
78.489639
 30
0.0
 10
26.255872
 20
87.244802
 30
0.0
 10
26.042906
 20
95.999945
 30
0.0
  0
SPLINE
  5
151
100
AcDbEntity
  8
Camada_1
 62
7
100
AcDbSpline
 70
8
 71
3
 72
8
 73
4
 74
0
 40
0
 40
0
 40
0
 40
0
 40
1
 40
1
 40
1
 40
1
 10
26.042906
 20
95.999945
 30
0.0
 10
31.726309
 20
91.615398
 30
0.0
 10
39.764718
 20
85.158998
 30
0.0
 10
49.016952
 20
76.808702
 30
0.0
  0
SPLINE
  5
152
100
AcDbEntity
  8
Camada_1
 62
7
100
AcDbSpline
 70
8
 71
3
 72
8
 73
4
 74
0
 40
0
 40
0
 40
0
 40
0
 40
1
 40
1
 40
1
 40
1
 10
49.016952
 20
76.808702
 30
0.0
 10
61.106849
 20
65.897371
 30
0.0
 10
66.567893
 20
59.605450
 30
0.0
 10
68.022779
 20
60.673871
 30
0.0
  0
SPLINE
  5
153
100
AcDbEntity
  8
Camada_1
 62
7
100
AcDbSpline
 70
8
 71
3
 72
8
 73
4
 74
0
 40
0
 40
0
 40
0
 40
0
 40
1
 40
1
 40
1
 40
1
 10
68.022779
 20
60.673871
 30
0.0
 10
69.110367
 20
61.472562
 30
0.0
 10
67.555675
 20
66.650469
 30
0.0
 10
63.995199
 20
69.640843
 30
0.0
  0
SPLINE
  5
154
100
AcDbEntity
  8
Camada_1
 62
7
100
AcDbSpline
 70
8
 71
3
 72
8
 73
4
 74
0
 40
0
 40
0
 40
0
 40
0
 40
1
 40
1
 40
1
 40
1
 10
63.995199
 20
69.640843
 30
0.0
 10
62.346696
 20
71.025400
 30
0.0
 10
60.594229
 20
71.668109
 30
0.0
 10
59.331009
 20
71.986525
 30
0.0
  0
LWPOLYLINE
  5
155
100
AcDbEntity
  8
Camada_1
 62
7
100
AcDbPolyline
 90
2
 70
1
 10
19.552168
 20
84.683788
 30
0.0
 10
19.552168
 20
84.683788
 30
0.0
  0
LWPOLYLINE
  5
156
100
AcDbEntity
  8
Camada_1
 62
7
100
AcDbPolyline
 90
2
 70
1
 10
59.331009
 20
71.986525
 30
0.0
 10
59.331009
 20
71.986525
 30
0.0
  0
ENDSEC
  0
SECTION
  2
OBJECTS
  0
DICTIONARY
  5
C
330
0
100
AcDbDictionary
  3
ACAD_GROUP
350
D
  3
ACAD_MLINESTYLE
350
17
  0
DICTIONARY
  5
D
330
C
100
AcDbDictionary
  0
DICTIONARY
  5
1A
330
C
100
AcDbDictionary
  0
DICTIONARY
  5
17
330
C
100
AcDbDictionary
  3
STANDARD
350
18
  0
DICTIONARY
  5
19
330
C
100
AcDbDictionary
  0
ENDSEC
  0
EOF
