<?xml version="1.0" encoding="UTF-8" standalone="no"?>
<svg
   viewBox="0 0 376.33996 172.48583"
   width="376.33997"
   height="172.48582"
   version="1.1"
   id="svg1171"
   sodipodi:docname="Beatriz_TroféuBase.svg"
   inkscape:version="1.1.2 (b8e25be833, 2022-02-05)"
   xmlns:inkscape="http://www.inkscape.org/namespaces/inkscape"
   xmlns:sodipodi="http://sodipodi.sourceforge.net/DTD/sodipodi-0.dtd"
   xmlns="http://www.w3.org/2000/svg"
   xmlns:svg="http://www.w3.org/2000/svg">
  <sodipodi:namedview
     id="namedview1173"
     pagecolor="#ffffff"
     bordercolor="#666666"
     borderopacity="1.0"
     inkscape:pageshadow="2"
     inkscape:pageopacity="0.0"
     inkscape:pagecheckerboard="0"
     showgrid="false"
     fit-margin-top="0"
     fit-margin-left="0"
     fit-margin-right="0"
     fit-margin-bottom="0"
     inkscape:zoom="2.932688"
     inkscape:cx="207.31833"
     inkscape:cy="75.698471"
     inkscape:window-width="1920"
     inkscape:window-height="1009"
     inkscape:window-x="-8"
     inkscape:window-y="-8"
     inkscape:window-maximized="1"
     inkscape:current-layer="g1169" />
  <desc
     id="desc2">Beatriz_TroféuBase_laser_3.dxf - scale = 25.4, origin = (0.0, 0.0), method = file</desc>
  <defs
     id="defs23">
    <marker
       id="DistanceX"
       orient="auto"
       refX="0"
       refY="0"
       style="overflow:visible">
      <path
         d="M 3,-3 -3,3 M 0,-5 V 5"
         style="stroke:#000000;stroke-width:0.5"
         id="path4" />
    </marker>
    <pattern
       id="Hatch"
       patternUnits="userSpaceOnUse"
       width="8"
       height="8"
       x="0"
       y="0">
      <path
         d="M8 4 l-4,4"
         stroke="#000000"
         stroke-width="0.25"
         linecap="square"
         id="path7" />
      <path
         d="M6 2 l-4,4"
         stroke="#000000"
         stroke-width="0.25"
         linecap="square"
         id="path9" />
      <path
         d="M4 0 l-4,4"
         stroke="#000000"
         stroke-width="0.25"
         linecap="square"
         id="path11" />
    </pattern>
    <symbol
       id="*Model_Space" />
    <symbol
       id="*Paper_Space" />
    <symbol
       id="*Paper_Space0" />
    <symbol
       id="Block_0" />
    <symbol
       id="Block_1" />
    <symbol
       id="Block_2" />
    <symbol
       id="Block_3" />
    <symbol
       id="Block_4" />
    <symbol
       id="Block_5" />
  </defs>
  <g
     inkscape:groupmode="layer"
     inkscape:label="0"
     id="g25"
     transform="translate(-343.75191,-883.23216)" />
  <g
     inkscape:groupmode="layer"
     inkscape:label="Camada 1"
     id="g1169"
     transform="translate(-343.75191,-883.23216)">
    <g
       id="g2200"
       transform="matrix(0.38777985,0,0,0.38680574,171.20695,362.92491)"
       style="stroke-width:2.58203">
      <path
         style="color:#000000;fill:#00984c;-inkscape-stroke:none"
         d="m 444.95508,1345.1387 v 445.9238 h 970.50002 v -1.6797 -444.2441 z m 3.35742,3.3554 h 963.7852 v 439.211 H 448.3125 Z"
         id="path483" />
      <path
         style="color:#000000;fill:#00984c;-inkscape-stroke:none"
         d="m 870.93164,1503.1348 v 60.957 H 1274.416 v -1.6777 -59.2793 z m 3.35742,3.3574 h 396.77144 v 54.2422 H 874.28906 Z"
         id="path485" />
      <path
         style="color:#000000;fill:#00984c;-inkscape-stroke:none"
         d="m 1317.1074,1655.9219 c -7.8502,0.4605 -15.1155,3.7783 -20.2871,8.4062 -6.5587,5.8694 -8.7051,12.9251 -9.2988,15.1446 -3.7214,13.9114 3.7262,25.0243 4.7656,26.5253 0.8554,1.2355 10.3115,14.4213 27.0567,14.045 13.62,-0.306 21.8823,-9.4512 23.3476,-11.1328 1.5347,-1.7614 8.7681,-10.429 7.9512,-23.0782 -0.7393,-11.4459 -7.8238,-22.3611 -19.0977,-27.3203 -4.8066,-2.1142 -9.7273,-2.8661 -14.4375,-2.5898 z m 0.1367,3.3711 c 4.2316,-0.2594 8.6506,0.4021 12.9493,2.2929 10.0824,4.4351 16.4406,14.2583 17.0996,24.461 0.7282,11.2752 -5.7573,19.0795 -7.1328,20.6582 -1.313,1.5068 -8.7475,9.7096 -20.8926,9.9824 -14.9318,0.3356 -23.6386,-11.7588 -24.2207,-12.5996 -0.8798,-1.2705 -7.5976,-11.3581 -4.2832,-23.7481 0.5288,-1.9769 2.4624,-8.2903 8.2949,-13.5097 4.5989,-4.1155 11.133,-7.1049 18.1855,-7.5371 z"
         id="path487" />
      <path
         style="color:#000000;fill:#00984c;-inkscape-stroke:none"
         d="m 1351.3984,1655.082 -1.6972,0.021 c -20.7795,0.2514 -41.5586,0.5025 -62.3379,0.7539 l -1.6445,0.02 -0.014,1.6445 c -0.1676,20.3603 -0.3364,40.7217 -0.5039,61.082 l -0.014,1.6778 1.6797,0.014 c 20.947,0.1677 41.8929,0.3344 62.8398,0.502 l 1.6914,0.014 z m -3.3554,3.3985 v 58.9472 c -19.8233,-0.1586 -39.6474,-0.3178 -59.4707,-0.4765 0.1584,-19.2523 0.3161,-38.5056 0.4746,-57.7578 19.6647,-0.238 39.3312,-0.475 58.9961,-0.7129 z"
         id="path489" />
      <path
         d="m 1341.4259,1707.8079 z m -1.3891,1.5942 z"
         style="fill:#00984c;stroke-width:6.66687"
         id="path491" />
      <path
         style="color:#000000;fill:#00984c;-inkscape-stroke:none"
         d="m 1316.9941,1640.418 c -11.6744,0.6896 -22.4793,5.6246 -30.1582,12.4961 -9.7384,8.715 -12.9346,19.2015 -13.8164,22.498 -5.5269,20.6609 5.5557,37.2133 7.0879,39.4258 1.2241,1.7677 15.3428,21.4418 40.2168,20.8828 20.2318,-0.4546 32.5211,-14.0512 34.6992,-16.5508 2.2816,-2.6184 13.0356,-15.5143 11.8223,-34.3027 -1.0979,-17.0013 -11.6323,-33.2375 -28.3867,-40.6074 -7.143,-3.142 -14.4602,-4.2556 -21.4649,-3.8418 z m 0.1368,3.3691 c 6.526,-0.3968 13.3415,0.6283 19.9765,3.5469 15.563,6.8458 25.3691,21.9919 26.3867,37.75 1.1246,17.4145 -8.8778,29.4453 -11,31.8808 -2.0262,2.3253 -13.4891,14.979 -32.2461,15.4004 -23.0607,0.5183 -36.4291,-18.0632 -37.3808,-19.4375 -1.372,-1.9811 -11.7234,-17.5091 -6.6035,-36.6484 0.8168,-3.0537 3.7982,-12.7981 12.8105,-20.8633 7.1063,-6.3591 17.1799,-10.9676 28.0567,-11.6289 z"
         id="path493" />
      <path
         style="color:#000000;fill:#00984c;-inkscape-stroke:none"
         d="m 1367.9902,1639.1543 -1.6992,0.02 c -31.4442,0.3803 -62.8881,0.7603 -94.332,1.1407 l -1.6445,0.021 -0.014,1.6446 c -0.2536,30.8098 -0.5081,61.6197 -0.7617,92.4297 l -0.014,1.6777 98.4648,0.7891 z m -3.3574,3.3984 v 90.9395 l -91.7226,-0.7324 c 0.2444,-29.7026 0.4879,-59.405 0.7324,-89.1075 30.33,-0.3669 60.66,-0.7327 90.9902,-1.0996 z"
         id="path495" />
      <path
         d="m 1353.7587,1718.0675 z m -2.1022,2.4124 z"
         style="fill:#00984c;stroke-width:6.66687"
         id="path497" />
      <path
         style="color:#000000;fill:#000000;-inkscape-stroke:none"
         d="m 596.9043,1641.1523 -57.57032,0.5215 v 1.9903 l 0.60157,0.3808 c 0.45428,0.2877 1.11521,0.7962 1.56836,1.5918 0.91349,1.6039 0.49977,3.6512 0.18945,4.8418 -0.98637,3.7846 -5.48959,18.5626 -11.98633,38.459 l -0.55273,1.6914 1.77929,0 c 14.75835,0.01 29.51717,0.017 44.27539,0.025 h 0.60157 l 0.38672,-0.461 c 1.4912,-1.7772 2.98338,-3.5548 4.4746,-5.332 l 1.77735,-2.1172 -2.76563,-0 c -8.2892,-0.01 -16.57815,-0.016 -24.86718,-0.023 1.30493,-4.5587 2.60913,-9.1172 3.91406,-13.6758 7.64648,0.021 15.29317,0.041 22.93945,0.062 l 0.61914,0 0.38867,-0.4824 c 1.17548,-1.4602 2.35184,-2.9206 3.52735,-4.3809 l 1.69531,-2.1054 -26.49414,0.049 c 1.37507,-4.3498 2.74993,-8.699 4.125,-13.0488 h 26.83203 l 0.37109,-0.6524 c 1.02053,-1.7947 2.04197,-3.59 3.0625,-5.3847 z m -4.46094,2.6231 c -0.52697,0.9267 -1.0531,1.8545 -1.58008,2.7812 h -27.22266 l -0.28515,0.9024 c -1.64736,5.2112 -3.296,10.4236 -4.94336,15.6348 l -0.53125,1.6816 24.61719,-0.045 c -0.48049,0.5968 -0.96092,1.1941 -1.44141,1.791 -7.76497,-0.021 -15.53015,-0.041 -23.29492,-0.062 l -0.97461,-0 -0.26953,0.9394 c -1.55134,5.4194 -3.10296,10.8385 -4.6543,16.2578 l -0.4707,1.6446 1.71094,0 c 7.93746,0.01 15.87519,0.015 23.8125,0.024 -0.76967,0.9172 -1.53892,1.8346 -2.3086,2.7519 -13.97304,-0.01 -27.94503,-0.014 -41.91797,-0.023 6.04711,-18.5968 10.49578,-33.0518 11.50391,-36.9199 0.33168,-1.2726 1.06345,-4.1224 -0.44531,-6.7715 -0.0337,-0.059 -0.0785,-0.086 -0.11328,-0.1426 z"
         id="path499" />
      <path
         d="M 540.62573,1642.9541 Z"
         style="fill:#00984c;stroke-width:6.66687"
         id="path501" />
      <path
         style="color:#000000;fill:#000000;-inkscape-stroke:none"
         d="m 532.55664,1665.4551 v 0.061 c -14.6112,0.6958 -29.22279,1.3922 -43.83398,2.0879 l 0.002,2.5801 46.5,2.1387 -0.0703,-5.5918 -1.23047,1.2441 -0.0605,-2.5195 z m 0.0332,2.6465 0.0176,1.5156 -16.20312,-0.7461 c 5.39511,-0.2569 10.79043,-0.5126 16.18554,-0.7695 z"
         id="path503" />
      <path
         d="M 533.86408,1666.7466 Z"
         style="fill:#00984c;stroke-width:6.66687"
         id="path505" />
      <path
         style="color:#000000;fill:#000000;-inkscape-stroke:none"
         d="m 612.29883,1653.4746 c -5.73085,0.1954 -8.93032,0.3301 -12.33203,2.0547 -2.58476,1.3104 -4.20285,2.9783 -5.16993,3.9902 -0.83451,0.8732 -1.69433,1.9682 -2.75195,4.3379 -1.05762,2.3697 -2.3948,6.0855 -4.44336,12.5645 -0.6524,2.0633 -1.12201,3.5706 -1.32226,4.9316 -0.20026,1.3611 -0.0771,2.6312 0.46679,3.8106 1.31565,2.8529 4.13403,3.9808 5.48828,4.5547 1.29976,0.5507 2.51475,0.8168 4.14844,0.9062 1.63369,0.089 3.73196,0.037 7.14453,0.01 3.03091,-0.028 6.07335,-0.011 9.12696,-0.027 4.75701,-0.025 6.43592,-0.022 9.41406,-0.078 3.93063,-0.075 6.16499,-0.1769 7.5957,-0.3125 1.43071,-0.1356 2.15238,-0.342 2.69727,-0.541 1.51389,-0.5528 5.60066,-2.0972 7.99023,-6.3516 1.55504,-2.7686 1.70306,-5.446 1.67774,-6.8496 l -0.0215,-1.2676 h -21.69336 l -0.25,0.9688 c -0.65842,2.5504 -1.31815,5.1 -1.97656,7.6504 -3.44301,-0.014 -6.88694,-0.027 -10.33008,-0.041 l 7.07422,-22.3145 c 2.78327,0.01 5.56662,0.015 8.34961,0.022 -0.34581,2.0325 -0.69131,4.0651 -1.03711,6.0976 l -0.0195,0.1075 v 1.4043 l 1.29687,-0 c 6.91515,-0.026 13.82925,-0.054 20.74415,-0.08 l 0.89648,-0 0.31055,-0.8418 c 0.26392,-0.7172 1.79214,-4.8229 -0.47657,-8.4746 -1.38684,-2.2322 -3.61745,-3.3368 -4.73828,-3.918 -0.70898,-0.3676 -1.65458,-0.7795 -3.10742,-1.1972 -3.04751,-0.8762 -5.6481,-1.0251 -7.98633,-1.0996 -3.43055,-0.1095 -4.97954,-0.017 -9.20117,0.014 -5.63344,0.041 -4.8827,-0.1106 -7.56445,-0.019 z m 0.0879,2.582 c 2.60064,-0.088 1.81848,0.061 7.49609,0.02 4.25461,-0.031 5.74029,-0.1228 9.09961,-0.016 2.28959,0.073 4.60463,0.2111 7.35547,1.002 1.3114,0.3771 2.0442,0.7036 2.63086,1.0078 1.12075,0.5811 2.82068,1.5145 3.73633,2.9883 1.2373,1.9915 0.75442,4.2256 0.42578,5.3769 -6.06157,0.023 -12.12222,0.047 -18.18359,0.07 0.34533,-2.0298 0.68981,-4.0582 1.03515,-6.0879 l 0.25586,-1.5059 -1.52539,-0 c -3.60708,-0.01 -7.21371,-0.017 -10.82031,-0.027 l -0.94922,-0 -8.70703,27.4668 1.75586,0.01 c 4.36367,0.018 8.72597,0.036 13.08984,0.053 l 1.00586,0 0.25,-0.9726 c 0.65873,-2.5516 1.31783,-5.1027 1.97656,-7.6543 h 17.02735 c -0.0934,1.1949 -0.33274,2.6522 -1.24219,4.2714 -1.90562,3.3928 -5.17091,4.6585 -6.625,5.1895 -0.46046,0.1682 -0.75865,0.2737 -2.05469,0.3965 -1.29604,0.1228 -3.49596,0.2262 -7.40039,0.3008 -2.95873,0.056 -4.618,0.053 -9.37891,0.078 -3.03438,0.016 -6.0798,-8e-4 -9.13671,0.027 -3.42763,0.031 -5.52915,0.077 -6.98047,-0 -1.45133,-0.08 -2.20682,-0.2498 -3.28125,-0.7051 -1.35428,-0.5739 -3.33218,-1.4813 -4.15235,-3.2598 -0.33903,-0.7351 -0.40857,-1.3136 -0.25586,-2.3515 0.15272,-1.0379 0.57996,-2.4782 1.22852,-4.5293 2.03651,-6.4409 3.36305,-10.1024 4.33984,-12.291 0.97679,-2.1886 1.52409,-2.8337 2.26172,-3.6055 0.95145,-0.9956 2.27901,-2.3596 4.47071,-3.4707 2.87473,-1.4574 5.53017,-1.5823 11.25195,-1.7774 z"
         id="path507" />
      <path
         d="M 623.41644,1667.8023 Z"
         style="fill:#00984c;stroke-width:6.66687"
         id="path509" />
      <path
         style="color:#000000;fill:#000000;-inkscape-stroke:none"
         d="m 698.94336,1654.6504 c -12.44555,0.013 -24.89218,0.024 -37.33789,0.037 h -0.12891 l -0.12695,0.025 c -1.26907,0.2579 -3.16064,0.8221 -5.01563,2.1992 -1.66023,1.2326 -3.11465,3.0655 -4.73437,6.9649 -0.95557,2.3005 -1.86522,5.0615 -3.29688,12.7695 -0.71702,3.8604 -1.06981,6.2201 -1.09375,7.9082 -0.0239,1.6881 0.4324,2.922 1.20508,3.6933 0.4266,0.4259 1.06481,0.8074 1.86914,1.0352 0.80434,0.2278 1.83935,0.3897 3.49219,0.5977 3.55375,0.447 6.61649,0.6518 9.01172,0.748 l 1.34375,0.055 v -2.6875 l -1.27344,0.051 c -0.17739,-0.01 -0.48122,-0.048 -0.66601,-0.057 -1.09087,-0 -3.50653,-0.1517 -5.61329,-2.1269 -2.53343,-2.3749 -2.5517,-5.6194 -2.54687,-6.7949 0.0187,-4.5675 3.02964,-7.8449 5.14062,-10.1036 5.34308,-5.7165 11.93254,-7.5176 14.93165,-8.2871 3.17207,-0.8138 6.89741,-0.9599 14.50585,-1.2285 5.19582,-0.1834 9.52118,-0.1791 12.57032,-0.1387 l 1.36133,0.018 -0.0527,-1.3593 c -0.009,-0.2298 -0.0721,-1.7203 -1.41601,-2.6875 -0.89344,-0.6431 -1.81522,-0.643 -2.12891,-0.6309 z m -18.81055,2.6016 c -2.62184,0.1798 -4.75836,0.4333 -6.66992,0.9238 -3.05141,0.7829 -10.29526,2.7337 -16.17773,9.0273 -2.11095,2.2586 -5.81264,6.166 -5.83594,11.8555 -0.005,1.1525 0.0539,5.1646 3.05859,8.2949 -0.15965,-0.019 -0.2484,-0.013 -0.41015,-0.033 -1.61312,-0.2029 -2.57976,-0.3709 -3.11133,-0.5215 -0.53158,-0.1505 -0.56424,-0.1954 -0.74805,-0.3789 -0.33291,-0.3323 -0.46629,-0.4863 -0.44726,-1.8281 0.019,-1.3418 0.34135,-3.6551 1.05078,-7.4746 1.41647,-7.6262 2.24139,-10.0804 3.14257,-12.25 1.52752,-3.6774 2.59095,-4.9174 3.88868,-5.8809 1.41676,-1.0517 2.87329,-1.4996 3.9082,-1.7168 6.11732,-0.01 12.23422,-0.011 18.35156,-0.018 z"
         id="path511" />
      <path
         d="M 662.83918,1689.3392 Z"
         style="fill:#00984c;stroke-width:6.66687"
         id="path513" />
      <path
         style="color:#000000;fill:#000000;-inkscape-stroke:none"
         d="m 700.90625,1655.9102 v 2.5957 c -1.16656,2.44 -2.98544,5.9456 -5.67383,9.9609 -3.54489,5.2947 -7.21021,10.7558 -13.82812,15.1387 -3.76256,2.4918 -7.26536,3.8261 -9.56641,4.5508 l 0.31055,2.5214 c 1.49595,0.09 3.67184,0.1712 6.29492,0.096 7.25018,-0.2073 11.61052,-0.3121 15.86719,-2.6718 5.73697,-3.1805 8.07001,-8.6841 9.61914,-12.2969 1.39848,-3.2616 4.40424,-9.9055 1.15234,-15.4727 -0.68018,-1.1645 -1.46901,-1.9751 -2.01953,-2.4726 z m 1.54492,5.2343 c 0.14076,0.1935 0.26909,0.2621 0.40235,0.4903 2.41345,4.1318 0.10161,9.8907 -1.29688,13.1523 -1.54913,3.6128 -3.60653,8.3449 -8.49805,11.0567 -3.61959,2.0066 -7.43034,2.1413 -14.64257,2.3476 1.41526,-0.6941 2.85565,-1.4015 4.41406,-2.4336 7.07741,-4.6871 11.00194,-10.5588 14.54687,-15.8535 2.30423,-3.4415 3.87196,-6.3621 5.07422,-8.7598 z"
         id="path515" />
      <path
         d="M 702.19739,1658.8179 Z"
         style="fill:#00984c;stroke-width:6.66687"
         id="path517" />
      <path
         style="color:#000000;fill:#000000;-inkscape-stroke:none"
         d="m 688.24805,1664.1113 c -4.52804,1.1119 -9.92014,2.8283 -15.73438,5.541 -7.58799,3.5403 -13.51437,7.6679 -17.83984,11.1915 l 1.46679,2.1152 c 5.58756,-3.2718 11.67062,-6.5666 18.24805,-9.7754 5.04819,-2.4628 9.95033,-4.6623 14.66406,-6.627 z"
         id="path519" />
      <path
         d="M 688.55591,1665.3658 Z"
         style="fill:#00984c;stroke-width:6.66687"
         id="path521" />
      <path
         style="color:#000000;fill:#000000;-inkscape-stroke:none"
         d="m 693.64844,1648.1699 24.45703,25.2422 v 13.0254 h 5.31055 v -17.4336 -0.5078 l -13.8711,-14.9512 c 12.53606,0.076 25.07131,0.1528 37.60742,0.2285 2.90118,4.0042 5.80196,8.0075 8.70313,12.0118 l 0.38086,0.5253 0.64648,0.01 c 4.39366,0.064 10.77753,0.1616 18.47656,0.291 24.60796,0.4133 36.90422,0.6214 50.84375,1.0644 28.30219,0.8997 39.80915,1.9467 45.01954,2.4668 l 0.0644,0.01 h 0.0644 c 0,0 0.76567,0.081 2.33399,0.2598 1.56831,0.1787 3.80518,0.4476 6.47461,0.8027 5.33884,0.7103 12.41037,1.7719 19.31054,3.168 4.65984,0.9428 9.0464,2.0203 10.09375,2.2793 3.02601,0.7484 6.47857,1.6599 10.50977,2.9238 4.70594,1.4754 6.9718,2.4092 9.42578,3.9082 3.46424,2.1163 3.95981,3.2081 4.24609,4.0957 0.32773,1.0163 0.48555,2.7131 -0.33984,4.2246 -0.49918,0.9142 -1.18702,1.474 -1.60938,1.7657 l -3.4082,2.3535 h 4.14258 c 1.57339,0 3.15204,0.01 4.73633,0.01 h 0.34375 l 0.29687,-0.17 c 0.25329,-0.145 1.40989,-0.8228 2.55274,-2.0136 1.14285,-1.1909 2.32568,-2.9633 2.35351,-5.2383 0.0289,-2.3557 -1.21208,-4.0665 -1.99414,-5.1406 -2.20556,-3.0295 -5.11329,-4.4295 -8.16406,-5.7696 -3.96985,-1.7438 -6.69455,-2.8179 -8.4375,-3.459 -0.87147,-0.3205 -1.49647,-0.5323 -1.91016,-0.666 -0.40369,-0.1305 -0.61058,-0.1885 -0.62109,-0.1914 l -0.0156,-0 c -6.0719,-1.7332 -14.70397,-3.9689 -25.20312,-5.916 -9.17091,-1.7008 -18.35245,-2.9157 -37.39648,-4.3555 -19.36696,-1.4641 -36.75996,-2.2428 -53.21875,-2.7051 -12.02974,-0.3377 -27.71675,-0.6092 -45.98829,-0.5292 -3.04401,-3.713 -6.08879,-7.4257 -9.13281,-11.1387 l -0.38672,-0.4727 z m 6.09765,2.5821 h 49.37696 c 3.04194,3.7104 6.085,7.4203 9.12695,11.1308 l 0.38867,0.4746 0.61524,-0 c 18.55956,-0.091 34.35698,0.1934 46.52734,0.5351 16.42851,0.4614 33.77797,1.2387 53.09766,2.6992 18.99755,1.4363 28.03476,2.6336 37.11914,4.3184 10.40749,1.9301 18.96532,4.1479 24.98047,5.8652 l 0.17382,0.051 h 0.18164 c 0,0 -0.19821,-0.01 0.17969,0.1133 0.37791,0.1222 0.97228,0.325 1.81445,0.6348 1.68436,0.6195 4.36213,1.6726 8.29102,3.3984 2.99786,1.3169 5.31632,2.4549 7.11523,4.9258 0.76415,1.0495 1.51564,2.1542 1.49805,3.5898 -0.017,1.3865 -0.76145,2.5725 -1.63476,3.4825 -0.77672,0.8093 -1.47304,1.2196 -1.75391,1.3886 -0.46549,-5e-4 -0.93394,-0 -1.40039,-0 0.073,-0.1174 0.15941,-0.1801 0.22851,-0.3066 1.26033,-2.3081 1.03281,-4.6967 0.53125,-6.252 -0.43813,-1.3585 -1.60654,-3.2164 -5.35742,-5.5078 -2.65701,-1.623 -5.21866,-2.6695 -9.99804,-4.168 -4.09416,-1.2836 -7.60529,-2.2127 -10.66211,-2.9687 -1.05826,-0.2618 -5.47736,-1.3466 -10.20313,-2.3027 -6.98682,-1.4137 -14.10399,-2.482 -19.48047,-3.1973 -2.68824,-0.3577 -4.94142,-0.6264 -6.52343,-0.8066 -1.58202,-0.1803 -2.49805,-0.2715 -2.49805,-0.2715 -5.24355,-0.5235 -16.85161,-1.5795 -45.19531,-2.4805 -13.96226,-0.4438 -26.27486,-0.6492 -50.88282,-1.0625 -7.43112,-0.1249 -13.45919,-0.2168 -17.83398,-0.2813 -2.90258,-4.0061 -5.80641,-8.0134 -8.70899,-12.0195 l -0.38281,-0.5293 -0.65429,-0 c -13.74765,-0.083 -27.49447,-0.1667 -41.24219,-0.25 l -2.98438,-0.018 17.23828,18.5801 v 14.3477 h -0.14648 v -11.4883 z"
         id="path523" />
      <path
         d="M 722.12459,1669.0035 Z"
         style="fill:#00984c;stroke-width:6.66687"
         id="path525" />
      <path
         style="color:#000000;fill:#000000;-inkscape-stroke:none"
         d="m 682.29492,1691.7227 -0.38867,0.4863 c -10.04408,12.6419 -20.08677,25.2858 -30.13086,37.9277 l -0.66992,0 v 1.289 3.6993 l 1.91601,-2.4102 12.23633,-0.037 0.38672,-0.457 c 2.66403,-3.1664 5.32816,-6.3337 7.99219,-9.5 0.0684,2.9355 0.13668,5.871 0.20508,8.8066 l 0.0293,1.2617 h 21.38672 l 0.38672,-0.4472 c 2.79224,-3.2338 5.58473,-6.4675 8.37695,-9.7012 0.0895,3.2916 0.17808,6.5834 0.26758,9.875 l 0.0352,1.2558 h 23.5 l 0.33398,-0.7871 c 0.7882,-1.8552 1.57706,-3.7091 2.36524,-5.5644 l 0.76172,-1.7969 h -4.43164 l 0.29101,-33.3203 h -13.45117 l -15.70508,21.3633 v -21.9453 z m 1.24414,2.582 h 11.86719 v 27.2344 L 715,1694.8867 h 9.53906 L 724.25,1728.207 h 3.13281 c -0.42266,0.9949 -0.8449,1.9895 -1.26758,2.9844 h -19.27734 c -0.1083,-3.983 -0.21787,-7.9661 -0.32617,-11.9492 l -0.0898,-3.3301 -2.17773,2.5215 c -3.38923,3.9251 -6.77873,7.8503 -10.16797,11.7754 h -17.68164 c -0.0851,-3.6537 -0.17075,-7.3073 -0.25586,-10.961 l -0.0801,-3.416 -2.19922,2.6133 c -3.26847,3.8848 -6.53621,7.7715 -9.80468,11.6563 l -8.97461,0.025 c 9.48691,-11.9407 18.97208,-23.8817 28.45898,-35.8223 z"
         id="path527" />
      <path
         d="M 652.39695,1731.4268 Z"
         style="fill:#00984c;stroke-width:6.66687"
         id="path529" />
      <path
         style="color:#000000;fill:#000000;-inkscape-stroke:none"
         d="m 743.80078,1703.3613 -13.11914,30.4121 h 21.41602 l 11.21093,-30.4121 h -1.85351 z m 1.69727,2.5821 h 14.10547 l -9.30665,25.248 h -15.68945 z"
         id="path531" />
      <path
         d="m 761.4559,1704.6532 -10.25838,27.8285 h -18.55239 l 12.00449,-27.8285 z"
         style="fill:#00984c;stroke-width:6.66687"
         id="path533" />
      <path
         style="color:#000000;fill:#000000;-inkscape-stroke:none"
         d="m 743.80859,1691.5742 -0.2832,0.9102 c -0.83669,2.6919 -1.67308,5.3843 -2.50977,8.0761 l -0.51562,1.6622 1.74023,0.012 c 5.49282,0.036 10.9854,0.073 16.47852,0.1094 h 0.01 0.01 c 2.61939,-0.02 6.20839,-0.031 10.89453,0 1.20048,0.01 2.30343,0.033 3.14063,0.2031 0.8372,0.1697 1.34287,0.4334 1.6875,0.8867 0.46468,0.6111 0.58504,1.7719 0.58984,2.0176 0.0111,0.566 -0.0883,1.622 -0.50391,2.0273 -0.17088,0.1667 -0.21626,0.2027 -0.73046,0.2559 -0.51421,0.053 -1.40504,0.031 -2.72071,-0.01 -1.19197,-0.033 -3.07682,-0.079 -5.47656,-0.1094 l 1.27539,1.2911 -2.49023,-0.4805 c -0.87307,2.1826 -1.74609,4.3662 -2.61914,6.5488 l -0.68555,1.7129 1.84375,0.057 c 0.35441,0.011 1.20005,0.025 2.41016,0.055 1.25226,0.03 1.68411,0.055 2.10156,0.2286 v 0 c 0.25501,0.1057 0.65533,0.3524 0.67187,0.3711 0.0271,0.032 0.14748,0.5886 -0.0566,1.3945 -0.2044,0.8071 -0.59352,1.6661 -0.80273,2.1211 -1.47381,3.205 -3.17634,7.1559 -5.25391,12.0391 l -0.75976,1.7851 1.93945,0.012 c 5.9657,0.036 11.93248,0.073 17.89844,0.1093 l 0.79492,0 0.36133,-0.707 c 3.96206,-7.7449 7.81542,-16.3043 11.30273,-25.6758 1.1489,-3.0875 2.20668,-6.124 3.18164,-9.1054 l 0.0293,-0.09 0.0156,-0.09 c 0.12421,-0.7121 0.22469,-1.9361 -0.28125,-3.293 -1.26326,-3.3881 -4.78401,-4.1083 -5.20312,-4.1953 l -0.12891,-0.027 h -0.13086 c -15.42389,-0.036 -30.84749,-0.073 -46.27148,-0.1093 z m 1.90039,2.586 c 15.04174,0.035 30.08317,0.072 45.125,0.1074 0.21414,0.05 2.54263,0.6667 3.24219,2.5429 0.28082,0.7532 0.22754,1.4569 0.15235,1.9063 -0.95212,2.9056 -1.97863,5.8619 -3.09766,8.8691 -3.34869,8.9989 -7.04326,17.2079 -10.8418,24.6914 -5.03937,-0.031 -10.07958,-0.061 -15.11914,-0.092 1.67188,-3.9137 3.20747,-7.4979 4.44336,-10.1855 0.20613,-0.4483 0.67476,-1.4441 0.95899,-2.5664 0.28423,-1.1223 0.52366,-2.5675 -0.50977,-3.7383 -0.63661,-0.721 -1.36508,-0.9435 -1.61914,-1.0488 -0.91607,-0.3798 -1.76731,-0.3957 -3.02734,-0.4258 -0.27665,-0.01 -0.30404,-0.01 -0.54297,-0.012 0.53195,-1.3299 1.06375,-2.6604 1.5957,-3.9902 1.85317,0.029 3.56372,0.062 4.55469,0.09 1.3055,0.037 2.22571,0.08 3.05859,-0.01 0.83288,-0.086 1.67112,-0.3947 2.26758,-0.9765 1.45087,-1.4151 1.29235,-3.3594 1.28125,-3.9258 -0.008,-0.4082 -0.004,-2.0702 -1.11524,-3.5313 -0.82391,-1.0837 -2.03719,-1.6119 -3.22851,-1.8535 -1.19132,-0.2415 -2.42714,-0.2458 -3.63867,-0.2539 -4.69133,-0.031 -8.28307,-0.02 -10.91211,0 h -0.0176 c -4.9069,-0.032 -9.81357,-0.065 -14.7207,-0.098 0.57021,-1.8346 1.14072,-3.6694 1.71093,-5.5039 z"
         id="path535" />
      <path
         d="M 765.60292,1708.9093 Z"
         style="fill:#00984c;stroke-width:6.66687"
         id="path537" />
      <path
         style="color:#000000;fill:#000000;-inkscape-stroke:none"
         d="m 856.09375,1703.5078 -0.33398,0.7832 c -3.93519,9.2128 -7.87146,18.4259 -11.80665,27.6387 l -0.75976,1.7812 1.93555,0.018 c 6.1398,0.054 12.28001,0.1081 18.41992,0.1621 l 0.91211,0.01 0.3125,-0.8574 c 3.37315,-9.267 6.74598,-18.5338 10.11914,-27.8008 l 0.63086,-1.7324 h -1.84375 z m 1.70508,2.582 h 14.03711 c -3.0589,8.4037 -6.11689,16.8073 -9.17578,25.211 -5.19059,-0.046 -10.38159,-0.091 -15.57227,-0.1367 3.57035,-8.3587 7.14059,-16.7156 10.71094,-25.0743 z"
         id="path539" />
      <path
         d="M 873.67968,1704.7987 Z"
         style="fill:#00984c;stroke-width:6.66687"
         id="path541" />
      <path
         style="color:#000000;fill:#000000;-inkscape-stroke:none"
         d="m 855.80469,1692.6895 -0.28321,0.9101 c -0.8367,2.6919 -1.67307,5.3843 -2.50976,8.0762 l -0.51758,1.6621 1.74023,0.012 c 5.49282,0.036 10.98736,0.073 16.48047,0.1094 h 0.008 0.01 c 2.61939,-0.02 6.2084,-0.031 10.89453,0 1.20048,0.01 2.30538,0.033 3.14258,0.2031 0.8372,0.1697 1.34092,0.4315 1.68555,0.8848 v 0 c 0.46468,0.6112 0.58504,1.772 0.58984,2.0176 0.0111,0.566 -0.0882,1.6219 -0.5039,2.0274 -0.17087,0.1666 -0.21624,0.2027 -0.73047,0.2558 -0.51423,0.053 -1.40503,0.031 -2.72071,-0.01 -1.19197,-0.033 -3.07682,-0.079 -5.47656,-0.1094 l -0.88476,-0.012 -0.33008,0.8222 c -0.87305,2.1827 -1.74608,4.3663 -2.61914,6.5489 l -0.6836,1.7128 1.84375,0.057 c 0.35442,0.011 1.1981,0.025 2.40821,0.055 h 0.002 c 1.25226,0.03 1.68216,0.057 2.09961,0.2304 h 0.002 c 0.25413,0.1053 0.65524,0.3523 0.67188,0.3711 0.0269,0.03 0.14581,0.5875 -0.0586,1.3946 -0.2044,0.807 -0.59352,1.668 -0.80273,2.123 -1.47367,3.2047 -3.17467,7.1545 -5.25195,12.0371 l -0.76368,1.791 21.48828,0.057 0.34571,-0.7578 c 3.63749,-7.986 7.16502,-16.5112 10.46875,-25.5703 1.11813,-3.0661 2.17516,-6.0963 3.17578,-9.0899 l 0.0312,-0.092 0.0156,-0.096 c 0.12424,-0.712 0.22664,-1.9361 -0.27929,-3.293 -1.26328,-3.3881 -4.78597,-4.1083 -5.20508,-4.1953 l -0.12695,-0.027 h -0.13086 c -15.42389,-0.036 -30.84945,-0.073 -46.27344,-0.1094 z m 1.89843,2.5859 c 15.04175,0.035 30.08511,0.072 45.12696,0.1074 0.21414,0.05 2.54262,0.6667 3.24219,2.543 0.28079,0.7531 0.2275,1.4552 0.15234,1.9043 -0.97922,2.9254 -2.00935,5.8839 -3.10156,8.8789 -3.17861,8.716 -6.57131,16.9113 -10.06446,24.6269 l -15.89257,-0.041 c 1.67066,-3.9109 3.20619,-7.4936 4.4414,-10.1797 0.20613,-0.4483 0.67671,-1.4441 0.96094,-2.5664 0.28423,-1.1222 0.52366,-2.5675 -0.50977,-3.7383 -0.63598,-0.7203 -1.36358,-0.9431 -1.61914,-1.0488 h -0.002 c -0.91483,-0.3788 -1.76747,-0.3938 -3.02539,-0.4238 h -0.002 c -0.27553,-0.01 -0.30294,-0.01 -0.54102,-0.012 0.53218,-1.3304 1.06353,-2.6617 1.5957,-3.9922 1.85317,0.029 3.56372,0.062 4.55469,0.09 1.30418,0.037 2.22432,0.08 3.05664,-0.01 0.83286,-0.086 1.67111,-0.3948 2.26758,-0.9766 1.45079,-1.4151 1.29431,-3.3594 1.2832,-3.9258 -0.008,-0.4081 -0.004,-2.0702 -1.11523,-3.5312 -0.82392,-1.0838 -2.0372,-1.612 -3.22852,-1.8535 -1.19132,-0.2416 -2.42714,-0.2459 -3.63867,-0.2539 -4.69132,-0.031 -8.28502,-0.02 -10.91406,0 h -0.0176 c -4.9069,-0.032 -9.81357,-0.065 -14.7207,-0.098 0.57022,-1.8346 1.14072,-3.6693 1.71093,-5.5039 z"
         id="path543" />
      <path
         d="M 877.59791,1710.0249 Z"
         style="fill:#00984c;stroke-width:6.66687"
         id="path545" />
      <path
         style="color:#000000;fill:#000000;-inkscape-stroke:none"
         d="m 905.42383,1730.4141 0.14844,1.4375 c 0.1455,1.4066 0.29004,2.8121 0.43554,4.2187 l 0.11914,1.1543 1.16211,0 c 15.52099,0.049 31.0416,0.098 46.5625,0.1465 l 4.33399,0.012 -3.6211,-2.3828 c -2.03908,-1.3419 -5.19559,-3.0261 -9.33984,-3.8262 -1.75153,-0.3381 -3.35557,-0.4546 -4.74609,-0.4589 h -0.006 z m 2.86523,2.6054 32.17188,0.2793 0.004,0 c 1.25252,0 2.69501,0.1081 4.26953,0.4121 1.28391,0.2478 2.31661,0.6699 3.38672,1.0625 -13.22146,-0.041 -26.44266,-0.083 -39.66406,-0.125 -0.0562,-0.5438 -0.11172,-1.0871 -0.16797,-1.6309 z"
         id="path547" />
      <path
         d="M 906.85573,1731.7178 Z"
         style="fill:#00984c;stroke-width:6.66687"
         id="path549" />
      <path
         style="color:#000000;fill:#000000;-inkscape-stroke:none"
         d="m 803.57812,1692.7402 -14.89062,33.5059 0.0606,-0.1191 c -1.11863,1.9445 -1.0895,4.3307 0.26953,5.9765 1.05557,1.2784 2.45832,1.5657 2.96484,1.6504 l 0.10547,0.02 h 39.54297 l 0.14453,-0.035 c 0.44991,-0.1047 1.14565,-0.3168 1.87305,-0.7969 l 0.13867,-0.092 0.0195,-0.022 c 0.017,-0.013 0.0276,-0.02 0.0469,-0.035 0.11049,-0.084 0.25901,-0.2024 0.42773,-0.3555 0.33744,-0.3062 0.76227,-0.7498 1.13477,-1.3457 0.32026,-0.5123 0.83434,-1.5375 1.76171,-3.3809 0.92737,-1.8434 2.18964,-4.387 3.72657,-7.5117 3.07385,-6.2494 7.24799,-14.8213 12.03906,-24.7344 l 0.90039,-1.8613 -2.06836,0.01 c -5.67469,0.025 -11.3486,0.048 -17.02344,0.072 l -0.8457,0 -0.33398,0.7753 c -3.98331,9.2095 -7.96787,18.4195 -11.95118,27.629 l -0.006,0.014 -0.006,0.016 c -0.43697,1.0848 -0.97598,1.582 -1.33593,1.8594 -0.31751,0.2446 -0.89175,0.4451 -2.02344,0.5235 -1.13169,0.078 -2.74451,0.031 -4.91016,-0.045 -0.58324,-0.02 -0.96453,-0.047 -1.1582,-0.084 -0.19367,-0.037 -0.18578,-0.039 -0.27734,-0.1114 -0.277,-0.2178 -0.51335,-0.8392 -0.5625,-1.582 -0.0492,-0.7428 0.0588,-1.4457 0.0898,-1.6387 0.13064,-0.813 0.37327,-1.3516 0.41992,-1.4551 0.99976,-2.2139 5.29127,-11.8366 11.20508,-25.0312 l 0.11328,-0.252 v -0.2753 -1.2911 z m 1.67969,2.5821 h 14.62891 c -5.25923,11.7397 -9.47471,21.181 -10.38867,23.205 -0.0435,0.097 -0.43159,0.9543 -0.61719,2.1094 -0.0311,0.1934 -0.18735,1.129 -0.11524,2.2188 0.0721,1.0897 0.34375,2.4964 1.54297,3.4394 0.39646,0.3118 0.90327,0.5246 1.38477,0.6172 0.4815,0.093 0.95032,0.1097 1.55469,0.1309 2.16969,0.076 3.82151,0.133 5.17968,0.039 1.35817,-0.094 2.49918,-0.3435 3.41993,-1.0527 0.61904,-0.4769 1.53336,-1.3951 2.15625,-2.9414 3.86764,-8.9421 7.73587,-17.8821 11.60351,-26.8242 4.70159,-0.02 9.40377,-0.038 14.10547,-0.059 -4.33971,8.9701 -8.28659,17.0847 -11.125,22.8554 -1.53489,3.1206 -2.79551,5.659 -3.7168,7.4903 -0.92128,1.8313 -1.58197,3.0737 -1.64453,3.1738 -0.20392,0.3262 -0.47158,0.6102 -0.68164,0.8008 -0.10502,0.095 -0.1951,0.1682 -0.2539,0.2129 -0.0294,0.022 -0.0509,0.037 -0.0625,0.045 0,0 -0.002,0 -0.002,0 -0.35842,0.2365 -0.6983,0.3406 -0.95898,0.4062 H 792.375 c -0.28345,-0.05 -0.93866,-0.2134 -1.36719,-0.7324 -0.56513,-0.6844 -0.67655,-1.9062 -0.0215,-3.0449 l 0.0332,-0.059 z"
         id="path551" />
      <path
         d="M 821.87912,1694.031 Z"
         style="fill:#00984c;stroke-width:6.66687"
         id="path553" />
      <path
         style="color:#000000;fill:#000000;-inkscape-stroke:none"
         d="m 889.80664,1684.1934 c -0.47981,-0 -0.91728,0.061 -1.19141,0.096 -2.08704,0.2659 -3.59909,1.1402 -4.14843,1.4629 -1.41962,0.8334 -3.23614,1.9844 -5.29883,3.5136 l 0.95898,2.3145 c 0.71729,-0.1071 1.77155,-0.2832 3.03516,-0.5625 2.13851,-0.473 3.77273,-0.8429 5.51953,-1.8555 0.65507,-0.3798 1.36986,-0.866 1.96289,-1.3828 0.29652,-0.2584 0.56223,-0.5144 0.79688,-0.8477 0.23464,-0.3332 0.62315,-0.8997 0.26757,-1.7246 -0.26236,-0.6087 -0.77945,-0.8229 -1.0957,-0.9121 -0.31625,-0.089 -0.56674,-0.1001 -0.80664,-0.1015 z"
         id="path555" />
      <path
         d="M 879.9372,1690.3023 Z"
         style="fill:#00984c;stroke-width:6.66687"
         id="path557" />
      <g
         id="use711" />
      <g
         id="use791" />
      <g
         id="use869" />
      <g
         id="use943" />
      <g
         id="use1017" />
      <g
         id="use1095" />
    </g>
  </g>
</svg>
