<?xml version="1.0" encoding="UTF-8" standalone="no"?>
<svg
   viewBox="0 0 488.76946 630.3301"
   width="488.76947"
   height="630.33008"
   version="1.1"
   id="svg365"
   sodipodi:docname="Beatriz_Troféu_2.svg"
   inkscape:version="1.1.2 (b8e25be833, 2022-02-05)"
   xmlns:inkscape="http://www.inkscape.org/namespaces/inkscape"
   xmlns:sodipodi="http://sodipodi.sourceforge.net/DTD/sodipodi-0.dtd"
   xmlns="http://www.w3.org/2000/svg"
   xmlns:svg="http://www.w3.org/2000/svg">
  <sodipodi:namedview
     id="namedview367"
     pagecolor="#ffffff"
     bordercolor="#666666"
     borderopacity="1.0"
     inkscape:pageshadow="2"
     inkscape:pageopacity="0.0"
     inkscape:pagecheckerboard="0"
     showgrid="false"
     inkscape:zoom="0.366586"
     inkscape:cx="81.836186"
     inkscape:cy="370.99071"
     inkscape:window-width="1920"
     inkscape:window-height="1009"
     inkscape:window-x="-8"
     inkscape:window-y="-8"
     inkscape:window-maximized="1"
     inkscape:current-layer="g363"
     fit-margin-top="0"
     fit-margin-left="0"
     fit-margin-right="0"
     fit-margin-bottom="0" />
  <desc
     id="desc2">Beatriz_Troféu_laser_3.dxf - scale = 25.4, origin = (0.0, 0.0), method = file</desc>
  <defs
     id="defs17">
    <marker
       id="DistanceX"
       orient="auto"
       refX="0"
       refY="0"
       style="overflow:visible">
      <path
         d="M 3,-3 -3,3 M 0,-5 V 5"
         style="stroke:#000000;stroke-width:0.5"
         id="path4" />
    </marker>
    <pattern
       id="Hatch"
       patternUnits="userSpaceOnUse"
       width="8"
       height="8"
       x="0"
       y="0">
      <path
         d="M8 4 l-4,4"
         stroke="#000000"
         stroke-width="0.25"
         linecap="square"
         id="path7" />
      <path
         d="M6 2 l-4,4"
         stroke="#000000"
         stroke-width="0.25"
         linecap="square"
         id="path9" />
      <path
         d="M4 0 l-4,4"
         stroke="#000000"
         stroke-width="0.25"
         linecap="square"
         id="path11" />
    </pattern>
    <symbol
       id="*Model_Space" />
    <symbol
       id="*Paper_Space" />
    <symbol
       id="*Paper_Space0" />
  </defs>
  <g
     inkscape:groupmode="layer"
     inkscape:label="0"
     id="g19"
     transform="translate(-1044.504,-491.11597)" />
  <g
     inkscape:groupmode="layer"
     inkscape:label="Camada 1"
     id="g363"
     transform="translate(-1044.504,-491.11597)">
    <g
       id="g2335"
       transform="matrix(0.38796519,0,0,0.38828859,521.85826,-2407.6276)"
       style="stroke-width:2.57648">
      <path
         d="m 2214.6509,8196.5273 c 33.0434,47.0678 105.849,151.9677 170.0665,255.8463 21.8487,35.3426 40.3507,66.7158 64.0449,110.756 1e-4,10e-5 61.7133,114.7058 123.8617,282.4527 0,0 3e-4,8e-4 3e-4,8e-4 14.7344,37.0681 22.4498,68.9313 26.7469,92.4148 0.8974,4.9041 6.3357,35.4505 5.9038,73.6131 -0.1019,9.0066 -0.5266,18.0624 -3.154,29.206 -3.3381,14.1581 -9.0212,38.62 -23.2114,44.7316 -14.1652,6.1009 -32.4736,-6.8715 -48.4829,-17.7388 -18.7329,-12.7158 -29.6018,-26.1685 -31.3712,-28.3948 -51.4617,-64.7451 -81.9213,-123.3498 -81.9214,-123.3499 -30.187,-58.3888 -53.5645,-104.379 -67.1552,-131.2222 18.5806,7.735 37.1613,15.4699 55.7419,23.205 15.3888,30.6789 27.2086,55.0755 34.2648,69.7629 15.8621,27.7615 66.1826,114.5138 91.7216,135.1341 4.4257,3.5734 15.2624,12.3229 22.0387,9.2847 4.2161,-1.8905 5.1833,-7.5922 5.6202,-10.9162 4.005,-30.4671 -4.2854,-64.0564 -6.9947,-74.2732 -3.0182,-11.3816 -5.7037,-20.452 -7.5326,-26.4458 -4.99,-16.3533 -9.9202,-30.0452 -16.3311,-47.7349 -10.1321,-27.9575 -18.6793,-48.7623 -26.786,-68.5464 -13.9134,-33.9546 -25.4799,-59.8183 -30.533,-70.9934 -16.0273,-35.445 -31.6534,-68.0686 -42.0951,-87.6202 -23.4271,-43.8657 -53.9756,-93.2532 -102.2368,-160.464 -117.7232,-163.9475 -175.9695,-169.3286 -193.7279,-169.7565 -26.2382,-0.6322 -48.1942,7.5221 -63.1042,14.8938 41.0143,46.7241 83.8394,100.8471 125.5623,162.718 62.518,92.7082 107.7271,180.8145 140.7165,257.6267 -163.9877,-77.1767 -351.5724,-153.6765 -561.8235,-220.7152 -126.6869,-40.3943 -248.0435,-73.0299 -362.6264,-99.4792 -0.4653,-46.2821 -0.9307,-92.5643 -1.396,-138.8463 -19.199,0.193 -38.3981,0.386 -57.5971,0.5791 -1.3411,-133.3692 -2.6821,-266.7384 -4.0231,-400.1076 19.199,-0.193 38.3981,-0.386 57.5971,-0.5791 -1.4801,-138.559 -2.9602,-277.118 -4.4403,-415.6769 22.9416,80.9927 67.5825,201.1585 157.9703,325.4841 72.7774,100.103 151.1166,169.7598 211.2906,215.328 34.9765,-52.0413 69.9529,-104.0825 104.9293,-156.1237 -53.0945,-80.8622 -106.1888,-161.7245 -159.2833,-242.5868 100.035,48.9753 220.9499,121.4454 339.2199,228.3008 48.4351,43.7605 89.8749,87.3687 125.2218,128.8559 8.6355,34.5092 16.4613,72.5709 22.4446,113.8477 6.107,42.1308 9.4103,81.5107 10.8635,117.529 z"
         style="fill:none;stroke:#4c0000;stroke-width:3.34942"
         id="path221" />
      <path
         d="m 1907.0735,8130.2497 c -26.9561,-27.5964 -53.9122,-55.1929 -80.8682,-82.7894 3.5978,-16.8859 13.1774,-48.6303 41.5012,-77.1524 57.6156,-58.0193 142.2412,-51.8009 153.4287,-50.8085 -19.729,12.1452 -53.4767,36.4846 -79.5758,77.8339 -35.49,56.2272 -35.7511,110.5004 -34.4859,132.9164 z"
         style="fill:none;stroke:#4c0000;stroke-width:3.34942"
         id="path223" />
      <path
         d="m 2034.7963,7930.1109 c -19.3813,18.1195 -51.9366,53.2966 -72.5111,106.4266 -22.1802,57.2764 -19.4438,107.0313 -16.0925,132.7315 24.8328,30.4045 49.6656,60.8091 74.4984,91.2136 16.3197,-27.5994 35.45,-68.0418 44.3048,-119.2804 16.8421,-97.4579 -13.551,-175.7574 -30.1996,-211.0913 z"
         style="fill:none;stroke:#4c0000;stroke-width:3.34942"
         id="path225" />
      <path
         d="m 1533.3381,7839.3568 c -21.7134,-9.0377 -43.4268,-18.0753 -65.1402,-27.113 0.9648,95.9508 1.9295,191.9014 2.8943,287.8522 21.7134,9.0376 43.4268,18.0752 65.1402,27.1129 -0.9648,-95.9507 -1.9295,-191.9014 -2.8943,-287.8521 z"
         style="fill:none;stroke:#000000;stroke-width:2.57648"
         id="path227" />
      <path
         d="M 1533.3381,7839.3568 Z"
         style="fill:#4c0000;stroke-width:2.57648"
         id="path229" />
      <path
         d="m 1536.5219,8155.9941 c -21.7134,-9.0377 -43.4269,-18.0753 -65.1402,-27.1129 0.2701,26.8695 0.5403,53.739 0.8105,80.6085 21.7103,8.7391 43.4208,17.4782 65.1312,26.2173 -0.2672,-26.571 -0.5344,-53.1419 -0.8015,-79.7129 z"
         style="fill:none;stroke:#000000;stroke-width:2.57648"
         id="path231" />
      <path
         d="M 1536.5219,8155.9941 Z"
         style="fill:#4c0000;stroke-width:2.57648"
         id="path233" />
      <path
         d="m 1537.6128,8264.4922 c -21.7134,-9.0377 -43.4268,-18.0753 -65.1402,-27.1129 0.1582,15.7319 0.3164,31.4639 0.4746,47.1958 21.696,7.3127 43.3921,14.6254 65.0881,21.9381 -0.1408,-14.007 -0.2817,-28.014 -0.4225,-42.021 z"
         style="fill:none;stroke:#000000;stroke-width:2.57648"
         id="path235" />
      <path
         d="M 1537.6128,8264.4922 Z"
         style="fill:#4c0000;stroke-width:2.57648"
         id="path237" />
      <path
         d="m 1925.1354,8388.0848 c 0.066,-38.8162 0.1327,-77.6321 0.1991,-116.4483 35.6512,17.3457 119.1756,64.3979 157.7845,160.0684 17.7588,44.0052 35.9939,123.0241 6.9118,142.4061 -29.592,19.7219 -101.0828,-34.2239 -173.5063,-88.6726 -19.2414,-14.4658 -29.0819,-23.0973 -49.1735,-39.02 -14.7064,-11.6548 -27.0747,-21.0551 -33.7558,-26.0897 -3e-4,-2e-4 -2.5761,-1.9424 -5.0997,-3.8308 -14.4572,-10.8187 -88.8824,-56.8417 -191.4974,-118.2163 21.1831,47.8878 42.3662,95.7754 63.5493,143.6632 -31.1594,-10.6464 -62.3188,-21.2928 -93.4782,-31.9392 -2.0747,-85.2208 -4.1494,-170.4418 -6.2241,-255.6626 55.3673,42.6783 133.6769,105.5236 223.8115,186.8037 117.7789,106.2087 170.98,167.453 185.1534,157.0532 10.5952,-7.7743 -4.5505,-58.175 -39.2364,-87.2827 -16.0596,-13.477 -33.132,-19.733 -45.4382,-22.8324 z"
         style="fill:none;stroke:#000000;stroke-width:2.57648"
         id="path239" />
      <path
         d="M 1925.1354,8388.0848 Z"
         style="fill:#4c0000;stroke-width:2.57648"
         id="path241" />
    </g>
  </g>
</svg>
