  0
SECTION
  2
HEADER
  9
$ACADVER
  1
AC1014
  9
$HANDSEED
  5
FFFF
  9
$MEASUREMENT
 70
     1
  0
ENDSEC
  0
SECTION
  2
TABLES
  0
TABLE
  2
VPORT
  5
8
330
0
100
AcDbSymbolTable
 70
     4
  0
VPORT
  5
2E
330
8
100
AcDbSymbolTableRecord
100
AcDbViewportTableRecord
  2
*ACTIVE
 70
     0
 10
0.0
 20
0.0
 11
1.0
 21
1.0
 12
210.0
 22
148.5
 13
0.0
 23
0.0
 14
10.0
 24
10.0
 15
10.0
 25
10.0
 16
0.0
 26
0.0
 36
1.0
 17
0.0
 27
0.0
 37
0.0
 40
341.0
 41
1.24
 42
50.0
 43
0.0
 44
0.0
 50
0.0
 51
0.0
 71
     0
 72
   100
 73
     1
 74
     3
 75
     0
 76
     0
 77
     0
 78
     0
  0
ENDTAB
  0
TABLE
  2
LTYPE
  5
5
330
0
100
AcDbSymbolTable
 70
     1
  0
LTYPE
  5
14
330
5
100
AcDbSymbolTableRecord
100
AcDbLinetypeTableRecord
  2
BYBLOCK
 70
     0
  3

 72
    65
 73
     0
 40
0.0
  0
LTYPE
  5
15
330
5
100
AcDbSymbolTableRecord
100
AcDbLinetypeTableRecord
  2
BYLAYER
 70
     0
  3

 72
    65
 73
     0
 40
0.0
  0
LTYPE
  5
16
330
5
100
AcDbSymbolTableRecord
100
AcDbLinetypeTableRecord
  2
CONTINUOUS
 70
     0
  3
Solid line
 72
    65
 73
     0
 40
0.0
  0
ENDTAB
  0
TABLE
  2
LAYER
  5
2
100
AcDbSymbolTable
 70
2
  0
LAYER
  5
50
100
AcDbSymbolTableRecord
100
AcDbLayerTableRecord
  2
0
 70
0
  6
CONTINUOUS
  0
LAYER
  5
51
100
AcDbSymbolTableRecord
100
AcDbLayerTableRecord
  2
Camada_1
 70
0
  6
CONTINUOUS
  0
ENDTAB
  0
TABLE
  2
STYLE
  5
3
330
0
100
AcDbSymbolTable
 70
     1
  0
STYLE
  5
11
330
3
100
AcDbSymbolTableRecord
100
AcDbTextStyleTableRecord
  2
STANDARD
 70
     0
 40
0.0
 41
1.0
 50
0.0
 71
     0
 42
2.5
  3
txt
  4

  0
ENDTAB
  0
TABLE
  2
VIEW
  5
6
330
0
100
AcDbSymbolTable
 70
     0
  0
ENDTAB
  0
TABLE
  2
UCS
  5
7
330
0
100
AcDbSymbolTable
 70
     0
  0
ENDTAB
  0
TABLE
  2
APPID
  5
9
330
0
100
AcDbSymbolTable
 70
     2
  0
APPID
  5
12
330
9
100
AcDbSymbolTableRecord
100
AcDbRegAppTableRecord
  2
ACAD
 70
     0
  0
ENDTAB
  0
TABLE
  2
DIMSTYLE
  5
A
330
0
100
AcDbSymbolTable
 70
     1
  0
DIMSTYLE
105
27
330
A
100
AcDbSymbolTableRecord
100
AcDbDimStyleTableRecord
  2
ISO-25
 70
     0
  3

  4

  5

  6

  7

 40
1.0
 41
2.5
 42
0.625
 43
3.75
 44
1.25
 45
0.0
 46
0.0
 47
0.0
 48
0.0
140
2.5
141
2.5
142
0.0
143
0.03937007874016
144
1.0
145
0.0
146
1.0
147
0.625
 71
     0
 72
     0
 73
     0
 74
     0
 75
     0
 76
     0
 77
     1
 78
     8
170
     0
171
     3
172
     1
173
     0
174
     0
175
     0
176
     0
177
     0
178
     0
270
     2
271
     2
272
     2
273
     2
274
     3
340
11
275
     0
280
     0
281
     0
282
     0
283
     0
284
     8
285
     0
286
     0
287
     3
288
     0
  0
ENDTAB
  0
TABLE
  2
BLOCK_RECORD
  5
1
330
0
100
AcDbSymbolTable
 70
     1
  0
BLOCK_RECORD
  5
1F
330
1
100
AcDbSymbolTableRecord
100
AcDbBlockTableRecord
  2
*MODEL_SPACE
  0
BLOCK_RECORD
  5
1B
330
1
100
AcDbSymbolTableRecord
100
AcDbBlockTableRecord
  2
*PAPER_SPACE
  0
ENDTAB
  0
ENDSEC
  0
SECTION
  2
BLOCKS
  0
BLOCK
  5
20
330
1F
100
AcDbEntity
  8
0
100
AcDbBlockBegin
  2
*MODEL_SPACE
 70
     0
 10
0.0
 20
0.0
 30
0.0
  3
*MODEL_SPACE
  1

  0
ENDBLK
  5
21
330
1F
100
AcDbEntity
  8
0
100
AcDbBlockEnd
  0
BLOCK
  5
1C
330
1B
100
AcDbEntity
 67
     1
  8
0
100
AcDbBlockBegin
  2
*PAPER_SPACE
  1

  0
ENDBLK
  5
1D
330
1B
100
AcDbEntity
 67
     1
  8
0
100
AcDbBlockEnd
  0
ENDSEC
  0
SECTION
  2
ENTITIES
  0
SPLINE
  5
100
100
AcDbEntity
  8
Camada_1
 62
1
100
AcDbSpline
 70
8
 71
3
 72
8
 73
4
 74
0
 40
0
 40
0
 40
0
 40
0
 40
1
 40
1
 40
1
 40
1
 10
88.787919
 20
92.364853
 30
0.0
 10
92.085001
 20
87.464066
 30
0.0
 10
99.347181
 20
76.543381
 30
0.0
 10
105.730028
 20
65.744779
 30
0.0
  0
SPLINE
  5
101
100
AcDbEntity
  8
Camada_1
 62
1
100
AcDbSpline
 70
8
 71
3
 72
8
 73
4
 74
0
 40
0
 40
0
 40
0
 40
0
 40
1
 40
1
 40
1
 40
1
 10
105.730028
 20
65.744779
 30
0.0
 10
107.901662
 20
62.070774
 30
0.0
 10
109.737775
 20
58.811189
 30
0.0
 10
112.081425
 20
54.240096
 30
0.0
  0
SPLINE
  5
102
100
AcDbEntity
  8
Camada_1
 62
1
100
AcDbSpline
 70
8
 71
3
 72
8
 73
4
 74
0
 40
0
 40
0
 40
0
 40
0
 40
1
 40
1
 40
1
 40
1
 10
112.081425
 20
54.240096
 30
0.0
 10
112.081435
 20
54.240086
 30
0.0
 10
118.185627
 20
42.334359
 30
0.0
 10
124.228488
 20
24.979520
 30
0.0
  0
SPLINE
  5
103
100
AcDbEntity
  8
Camada_1
 62
1
100
AcDbSpline
 70
8
 71
3
 72
8
 73
4
 74
0
 40
0
 40
0
 40
0
 40
0
 40
1
 40
1
 40
1
 40
1
 10
124.228518
 20
24.979427
 30
0.0
 10
125.666578
 20
21.142420
 30
0.0
 10
126.394702
 20
17.854079
 30
0.0
 10
126.788773
 20
15.433310
 30
0.0
  0
SPLINE
  5
104
100
AcDbEntity
  8
Camada_1
 62
1
100
AcDbSpline
 70
8
 71
3
 72
8
 73
4
 74
0
 40
0
 40
0
 40
0
 40
0
 40
1
 40
1
 40
1
 40
1
 10
126.788773
 20
15.433310
 30
0.0
 10
126.871065
 20
14.927783
 30
0.0
 10
127.368131
 20
11.779257
 30
0.0
 10
127.247532
 20
7.860163
 30
0.0
  0
SPLINE
  5
105
100
AcDbEntity
  8
Camada_1
 62
1
100
AcDbSpline
 70
8
 71
3
 72
8
 73
4
 74
0
 40
0
 40
0
 40
0
 40
0
 40
1
 40
1
 40
1
 40
1
 10
127.247532
 20
7.860163
 30
0.0
 10
127.219068
 20
6.935233
 30
0.0
 10
127.157397
 20
6.005896
 30
0.0
 10
126.865481
 20
4.866502
 30
0.0
  0
SPLINE
  5
106
100
AcDbEntity
  8
Camada_1
 62
1
100
AcDbSpline
 70
8
 71
3
 72
8
 73
4
 74
0
 40
0
 40
0
 40
0
 40
0
 40
1
 40
1
 40
1
 40
1
 10
126.865481
 20
4.866502
 30
0.0
 10
126.494598
 20
3.418899
 30
0.0
 10
125.862458
 20
0.917605
 30
0.0
 10
124.393954
 20
0.318217
 30
0.0
  0
SPLINE
  5
107
100
AcDbEntity
  8
Camada_1
 62
1
100
AcDbSpline
 70
8
 71
3
 72
8
 73
4
 74
0
 40
0
 40
0
 40
0
 40
0
 40
1
 40
1
 40
1
 40
1
 10
124.393954
 20
0.318217
 30
0.0
 10
122.928026
 20
-0.280112
 30
0.0
 10
121.075008
 20
1.089011
 30
0.0
 10
119.453744
 20
2.237291
 30
0.0
  0
SPLINE
  5
108
100
AcDbEntity
  8
Camada_1
 62
1
100
AcDbSpline
 70
8
 71
3
 72
8
 73
4
 74
0
 40
0
 40
0
 40
0
 40
0
 40
1
 40
1
 40
1
 40
1
 10
119.453744
 20
2.237291
 30
0.0
 10
117.556649
 20
3.580894
 30
0.0
 10
116.468092
 20
4.984465
 30
0.0
 10
116.290954
 20
5.216691
 30
0.0
  0
SPLINE
  5
109
100
AcDbEntity
  8
Camada_1
 62
1
100
AcDbSpline
 70
8
 71
3
 72
8
 73
4
 74
0
 40
0
 40
0
 40
0
 40
0
 40
1
 40
1
 40
1
 40
1
 10
116.290954
 20
5.216691
 30
0.0
 10
111.138974
 20
11.970070
 30
0.0
 10
108.130123
 20
18.050728
 30
0.0
 10
108.130123
 20
18.050738
 30
0.0
  0
SPLINE
  5
10a
100
AcDbEntity
  8
Camada_1
 62
1
100
AcDbSpline
 70
8
 71
3
 72
8
 73
4
 74
0
 40
0
 40
0
 40
0
 40
0
 40
1
 40
1
 40
1
 40
1
 10
108.130123
 20
18.050738
 30
0.0
 10
105.148802
 20
24.108670
 30
0.0
 10
102.841551
 20
28.879433
 30
0.0
 10
101.500431
 20
31.663880
 30
0.0
  0
SPLINE
  5
10b
100
AcDbEntity
  8
Camada_1
 62
1
100
AcDbSpline
 70
8
 71
3
 72
8
 73
4
 74
0
 40
0
 40
0
 40
0
 40
0
 40
1
 40
1
 40
1
 40
1
 10
101.500431
 20
31.663880
 30
0.0
 10
103.391850
 20
30.832204
 30
0.0
 10
105.283269
 20
30.000518
 30
0.0
 10
107.174688
 20
29.168822
 30
0.0
  0
SPLINE
  5
10c
100
AcDbEntity
  8
Camada_1
 62
1
100
AcDbSpline
 70
8
 71
3
 72
8
 73
4
 74
0
 40
0
 40
0
 40
0
 40
0
 40
1
 40
1
 40
1
 40
1
 10
107.174688
 20
29.168822
 30
0.0
 10
108.692678
 20
25.986783
 30
0.0
 10
109.856958
 20
23.457185
 30
0.0
 10
110.551763
 20
21.934408
 30
0.0
  0
SPLINE
  5
10d
100
AcDbEntity
  8
Camada_1
 62
1
100
AcDbSpline
 70
8
 71
3
 72
8
 73
4
 74
0
 40
0
 40
0
 40
0
 40
0
 40
1
 40
1
 40
1
 40
1
 10
110.551763
 20
21.934408
 30
0.0
 10
112.124156
 20
19.051097
 30
0.0
 10
117.115032
 20
10.039459
 30
0.0
 10
119.694810
 20
7.870303
 30
0.0
  0
SPLINE
  5
10e
100
AcDbEntity
  8
Camada_1
 62
1
100
AcDbSpline
 70
8
 71
3
 72
8
 73
4
 74
0
 40
0
 40
0
 40
0
 40
0
 40
1
 40
1
 40
1
 40
1
 10
119.694810
 20
7.870303
 30
0.0
 10
120.141857
 20
7.494409
 30
0.0
 10
121.236522
 20
6.574000
 30
0.0
 10
121.938020
 20
6.872522
 30
0.0
  0
SPLINE
  5
10f
100
AcDbEntity
  8
Camada_1
 62
1
100
AcDbSpline
 70
8
 71
3
 72
8
 73
4
 74
0
 40
0
 40
0
 40
0
 40
0
 40
1
 40
1
 40
1
 40
1
 10
121.938020
 20
6.872522
 30
0.0
 10
122.374484
 20
7.058271
 30
0.0
 10
122.485147
 20
7.642011
 30
0.0
 10
122.536624
 20
7.982564
 30
0.0
  0
SPLINE
  5
110
100
AcDbEntity
  8
Camada_1
 62
1
100
AcDbSpline
 70
8
 71
3
 72
8
 73
4
 74
0
 40
0
 40
0
 40
0
 40
0
 40
1
 40
1
 40
1
 40
1
 10
122.536624
 20
7.982564
 30
0.0
 10
123.008542
 20
11.104050
 30
0.0
 10
122.224856
 20
14.570844
 30
0.0
 10
121.967223
 20
15.625716
 30
0.0
  0
SPLINE
  5
111
100
AcDbEntity
  8
Camada_1
 62
1
100
AcDbSpline
 70
8
 71
3
 72
8
 73
4
 74
0
 40
0
 40
0
 40
0
 40
0
 40
1
 40
1
 40
1
 40
1
 10
121.967223
 20
15.625716
 30
0.0
 10
121.680223
 20
16.800831
 30
0.0
 10
121.422744
 20
17.737894
 30
0.0
 10
121.247033
 20
18.357223
 30
0.0
  0
SPLINE
  5
112
100
AcDbEntity
  8
Camada_1
 62
1
100
AcDbSpline
 70
8
 71
3
 72
8
 73
4
 74
0
 40
0
 40
0
 40
0
 40
0
 40
1
 40
1
 40
1
 40
1
 10
121.247033
 20
18.357223
 30
0.0
 10
120.767612
 20
20.046967
 30
0.0
 10
120.289001
 20
21.463236
 30
0.0
 10
119.666418
 20
23.293093
 30
0.0
  0
SPLINE
  5
113
100
AcDbEntity
  8
Camada_1
 62
1
100
AcDbSpline
 70
8
 71
3
 72
8
 73
4
 74
0
 40
0
 40
0
 40
0
 40
0
 40
1
 40
1
 40
1
 40
1
 10
119.666418
 20
23.293093
 30
0.0
 10
118.682468
 20
26.185086
 30
0.0
 10
117.846872
 20
28.339191
 30
0.0
 10
117.054440
 20
30.387590
 30
0.0
  0
SPLINE
  5
114
100
AcDbEntity
  8
Camada_1
 62
1
100
AcDbSpline
 70
8
 71
3
 72
8
 73
4
 74
0
 40
0
 40
0
 40
0
 40
0
 40
1
 40
1
 40
1
 40
1
 10
117.054440
 20
30.387590
 30
0.0
 10
115.694413
 20
33.903154
 30
0.0
 10
114.559069
 20
36.582932
 30
0.0
 10
114.062823
 20
37.740921
 30
0.0
  0
SPLINE
  5
115
100
AcDbEntity
  8
Camada_1
 62
1
100
AcDbSpline
 70
8
 71
3
 72
8
 73
4
 74
0
 40
0
 40
0
 40
0
 40
0
 40
1
 40
1
 40
1
 40
1
 10
114.062823
 20
37.740921
 30
0.0
 10
112.488819
 20
41.413806
 30
0.0
 10
110.950371
 20
44.796079
 30
0.0
 10
109.917838
 20
46.825246
 30
0.0
  0
SPLINE
  5
116
100
AcDbEntity
  8
Camada_1
 62
1
100
AcDbSpline
 70
8
 71
3
 72
8
 73
4
 74
0
 40
0
 40
0
 40
0
 40
0
 40
1
 40
1
 40
1
 40
1
 10
109.917838
 20
46.825246
 30
0.0
 10
107.601257
 20
51.377877
 30
0.0
 10
104.564845
 20
56.511948
 30
0.0
 10
99.746272
 20
63.512213
 30
0.0
  0
SPLINE
  5
117
100
AcDbEntity
  8
Camada_1
 62
1
100
AcDbSpline
 70
8
 71
3
 72
8
 73
4
 74
0
 40
0
 40
0
 40
0
 40
0
 40
1
 40
1
 40
1
 40
1
 10
99.746272
 20
63.512213
 30
0.0
 10
87.992335
 20
80.587968
 30
0.0
 10
82.025433
 20
81.257217
 30
0.0
 10
80.203793
 20
81.336684
 30
0.0
  0
SPLINE
  5
118
100
AcDbEntity
  8
Camada_1
 62
1
100
AcDbSpline
 70
8
 71
3
 72
8
 73
4
 74
0
 40
0
 40
0
 40
0
 40
0
 40
1
 40
1
 40
1
 40
1
 10
80.203793
 20
81.336684
 30
0.0
 10
77.512305
 20
81.454112
 30
0.0
 10
75.242726
 20
80.660449
 30
0.0
 10
73.697821
 20
79.933072
 30
0.0
  0
SPLINE
  5
119
100
AcDbEntity
  8
Camada_1
 62
1
100
AcDbSpline
 70
8
 71
3
 72
8
 73
4
 74
0
 40
0
 40
0
 40
0
 40
0
 40
1
 40
1
 40
1
 40
1
 10
73.697821
 20
79.933072
 30
0.0
 10
77.813614
 20
75.051652
 30
0.0
 10
82.100468
 20
69.406599
 30
0.0
 10
86.258715
 20
62.967924
 30
0.0
  0
SPLINE
  5
11a
100
AcDbEntity
  8
Camada_1
 62
1
100
AcDbSpline
 70
8
 71
3
 72
8
 73
4
 74
0
 40
0
 40
0
 40
0
 40
0
 40
1
 40
1
 40
1
 40
1
 10
86.258715
 20
62.967924
 30
0.0
 10
92.489470
 20
53.320118
 30
0.0
 10
96.953071
 20
44.179627
 30
0.0
 10
100.185148
 20
36.223682
 30
0.0
  0
SPLINE
  5
11b
100
AcDbEntity
  8
Camada_1
 62
1
100
AcDbSpline
 70
8
 71
3
 72
8
 73
4
 74
0
 40
0
 40
0
 40
0
 40
0
 40
1
 40
1
 40
1
 40
1
 10
100.185148
 20
36.223682
 30
0.0
 10
83.509806
 20
44.479115
 30
0.0
 10
64.411398
 20
52.712224
 30
0.0
 10
42.967903
 20
60.018851
 30
0.0
  0
SPLINE
  5
11c
100
AcDbEntity
  8
Camada_1
 62
1
100
AcDbSpline
 70
8
 71
3
 72
8
 73
4
 74
0
 40
0
 40
0
 40
0
 40
0
 40
1
 40
1
 40
1
 40
1
 10
42.967903
 20
60.018851
 30
0.0
 10
30.047110
 20
64.421466
 30
0.0
 10
17.657862
 20
68.016476
 30
0.0
 10
5.951400
 20
70.962498
 30
0.0
  0
SPLINE
  5
11d
100
AcDbEntity
  8
Camada_1
 62
1
100
AcDbSpline
 70
8
 71
3
 72
8
 73
4
 74
0
 40
0
 40
0
 40
0
 40
0
 40
1
 40
1
 40
1
 40
1
 10
5.951400
 20
70.962498
 30
0.0
 10
5.996143
 20
75.717397
 30
0.0
 10
6.040877
 20
80.472318
 30
0.0
 10
6.085620
 20
85.227217
 30
0.0
  0
SPLINE
  5
11e
100
AcDbEntity
  8
Camada_1
 62
1
100
AcDbSpline
 70
8
 71
3
 72
8
 73
4
 74
0
 40
0
 40
0
 40
0
 40
0
 40
1
 40
1
 40
1
 40
1
 10
6.085620
 20
85.227217
 30
0.0
 10
4.114897
 20
85.245792
 30
0.0
 10
2.144163
 20
85.264377
 30
0.0
 10
0.173439
 20
85.282952
 30
0.0
  0
SPLINE
  5
11f
100
AcDbEntity
  8
Camada_1
 62
1
100
AcDbSpline
 70
8
 71
3
 72
8
 73
4
 74
0
 40
0
 40
0
 40
0
 40
0
 40
1
 40
1
 40
1
 40
1
 10
0.173439
 20
85.282952
 30
0.0
 10
0.302363
 20
98.984971
 30
0.0
 10
0.431298
 20
112.686991
 30
0.0
 10
0.560232
 20
126.389010
 30
0.0
  0
SPLINE
  5
120
100
AcDbEntity
  8
Camada_1
 62
1
100
AcDbSpline
 70
8
 71
3
 72
8
 73
4
 74
0
 40
0
 40
0
 40
0
 40
0
 40
1
 40
1
 40
1
 40
1
 10
0.560232
 20
126.389010
 30
0.0
 10
2.530956
 20
126.370435
 30
0.0
 10
4.501690
 20
126.351860
 30
0.0
 10
6.472414
 20
126.333285
 30
0.0
  0
SPLINE
  5
121
100
AcDbEntity
  8
Camada_1
 62
1
100
AcDbSpline
 70
8
 71
3
 72
8
 73
4
 74
0
 40
0
 40
0
 40
0
 40
0
 40
1
 40
1
 40
1
 40
1
 10
6.472414
 20
126.333285
 30
0.0
 10
6.597437
 20
140.568663
 30
0.0
 10
6.722481
 20
154.804041
 30
0.0
 10
6.847505
 20
169.039429
 30
0.0
  0
SPLINE
  5
122
100
AcDbEntity
  8
Camada_1
 62
1
100
AcDbSpline
 70
8
 71
3
 72
8
 73
4
 74
0
 40
0
 40
0
 40
0
 40
0
 40
1
 40
1
 40
1
 40
1
 10
6.847505
 20
169.039429
 30
0.0
 10
9.040058
 20
160.674160
 30
0.0
 10
13.381263
 20
148.241753
 30
0.0
 10
22.409038
 20
135.290535
 30
0.0
  0
SPLINE
  5
123
100
AcDbEntity
  8
Camada_1
 62
1
100
AcDbSpline
 70
8
 71
3
 72
8
 73
4
 74
0
 40
0
 40
0
 40
0
 40
0
 40
1
 40
1
 40
1
 40
1
 10
22.409038
 20
135.290535
 30
0.0
 10
29.677910
 20
124.862638
 30
0.0
 10
37.578419
 20
117.550945
 30
0.0
 10
43.662842
 20
112.749937
 30
0.0
  0
SPLINE
  5
124
100
AcDbEntity
  8
Camada_1
 62
1
100
AcDbSpline
 70
8
 71
3
 72
8
 73
4
 74
0
 40
0
 40
0
 40
0
 40
0
 40
1
 40
1
 40
1
 40
1
 10
43.662842
 20
112.749937
 30
0.0
 10
47.356387
 20
118.025508
 30
0.0
 10
51.049932
 20
123.301088
 30
0.0
 10
54.743478
 20
128.576658
 30
0.0
  0
SPLINE
  5
125
100
AcDbEntity
  8
Camada_1
 62
1
100
AcDbSpline
 70
8
 71
3
 72
8
 73
4
 74
0
 40
0
 40
0
 40
0
 40
0
 40
1
 40
1
 40
1
 40
1
 10
54.743478
 20
128.576658
 30
0.0
 10
49.456148
 20
136.988827
 30
0.0
 10
44.168838
 20
145.400996
 30
0.0
 10
38.881508
 20
153.813175
 30
0.0
  0
SPLINE
  5
126
100
AcDbEntity
  8
Camada_1
 62
1
100
AcDbSpline
 70
8
 71
3
 72
8
 73
4
 74
0
 40
0
 40
0
 40
0
 40
0
 40
1
 40
1
 40
1
 40
1
 10
38.881508
 20
153.813175
 30
0.0
 10
49.049944
 20
148.582449
 30
0.0
 10
61.314260
 20
140.896641
 30
0.0
 10
73.238416
 20
129.684142
 30
0.0
  0
SPLINE
  5
127
100
AcDbEntity
  8
Camada_1
 62
1
100
AcDbSpline
 70
8
 71
3
 72
8
 73
4
 74
0
 40
0
 40
0
 40
0
 40
0
 40
1
 40
1
 40
1
 40
1
 10
73.238416
 20
129.684142
 30
0.0
 10
78.121708
 20
125.092275
 30
0.0
 10
82.287408
 20
120.530069
 30
0.0
 10
85.832054
 20
116.197901
 30
0.0
  0
SPLINE
  5
128
100
AcDbEntity
  8
Camada_1
 62
1
100
AcDbSpline
 70
8
 71
3
 72
8
 73
4
 74
0
 40
0
 40
0
 40
0
 40
0
 40
1
 40
1
 40
1
 40
1
 10
85.832054
 20
116.197901
 30
0.0
 10
86.649316
 20
112.635930
 30
0.0
 10
87.376383
 20
108.710682
 30
0.0
 10
87.907929
 20
104.458855
 30
0.0
  0
SPLINE
  5
129
100
AcDbEntity
  8
Camada_1
 62
1
100
AcDbSpline
 70
8
 71
3
 72
8
 73
4
 74
0
 40
0
 40
0
 40
0
 40
0
 40
1
 40
1
 40
1
 40
1
 10
87.907929
 20
104.458855
 30
0.0
 10
88.450468
 20
100.119074
 30
0.0
 10
88.710769
 20
96.067470
 30
0.0
 10
88.787919
 20
92.364853
 30
0.0
  0
LWPOLYLINE
  5
12a
100
AcDbEntity
  8
Camada_1
 62
1
100
AcDbPolyline
 90
1
 70
1
 10
124.228488
 20
24.979520
 30
0.0
  0
SPLINE
  5
12b
100
AcDbEntity
  8
Camada_1
 62
1
100
AcDbSpline
 70
8
 71
3
 72
8
 73
4
 74
0
 40
0
 40
0
 40
0
 40
0
 40
1
 40
1
 40
1
 40
1
 10
57.354573
 20
99.787994
 30
0.0
 10
54.643305
 20
102.676544
 30
0.0
 10
51.932037
 20
105.565115
 30
0.0
 10
49.220769
 20
108.453666
 30
0.0
  0
SPLINE
  5
12c
100
AcDbEntity
  8
Camada_1
 62
1
100
AcDbSpline
 70
8
 71
3
 72
8
 73
4
 74
0
 40
0
 40
0
 40
0
 40
0
 40
1
 40
1
 40
1
 40
1
 10
49.220769
 20
108.453666
 30
0.0
 10
49.623749
 20
110.180950
 30
0.0
 10
50.670324
 20
113.422484
 30
0.0
 10
53.634124
 20
116.295552
 30
0.0
  0
SPLINE
  5
12d
100
AcDbEntity
  8
Camada_1
 62
1
100
AcDbSpline
 70
8
 71
3
 72
8
 73
4
 74
0
 40
0
 40
0
 40
0
 40
0
 40
1
 40
1
 40
1
 40
1
 10
53.634124
 20
116.295552
 30
0.0
 10
59.663014
 20
122.139894
 30
0.0
 10
68.335467
 20
121.331858
 30
0.0
 10
69.481630
 20
121.207547
 30
0.0
  0
SPLINE
  5
12e
100
AcDbEntity
  8
Camada_1
 62
1
100
AcDbSpline
 70
8
 71
3
 72
8
 73
4
 74
0
 40
0
 40
0
 40
0
 40
0
 40
1
 40
1
 40
1
 40
1
 10
69.481630
 20
121.207547
 30
0.0
 10
67.432628
 20
119.999484
 30
0.0
 10
63.920541
 20
117.566921
 30
0.0
 10
61.159418
 20
113.371835
 30
0.0
  0
SPLINE
  5
12f
100
AcDbEntity
  8
Camada_1
 62
1
100
AcDbSpline
 70
8
 71
3
 72
8
 73
4
 74
0
 40
0
 40
0
 40
0
 40
0
 40
1
 40
1
 40
1
 40
1
 10
61.159418
 20
113.371835
 30
0.0
 10
57.404808
 20
107.667317
 30
0.0
 10
57.269540
 20
102.093040
 30
0.0
 10
57.354573
 20
99.787994
 30
0.0
  0
LWPOLYLINE
  5
130
100
AcDbEntity
  8
Camada_1
 62
1
100
AcDbPolyline
 90
1
 70
1
 10
88.787919
 20
92.364853
 30
0.0
  0
SPLINE
  5
131
100
AcDbEntity
  8
Camada_1
 62
1
100
AcDbSpline
 70
8
 71
3
 72
8
 73
4
 74
0
 40
0
 40
0
 40
0
 40
0
 40
1
 40
1
 40
1
 40
1
 10
70.862413
 20
120.090232
 30
0.0
 10
68.837163
 20
118.267813
 30
0.0
 10
65.425793
 20
114.719640
 30
0.0
 10
63.208102
 20
109.303423
 30
0.0
  0
SPLINE
  5
132
100
AcDbEntity
  8
Camada_1
 62
1
100
AcDbSpline
 70
8
 71
3
 72
8
 73
4
 74
0
 40
0
 40
0
 40
0
 40
0
 40
1
 40
1
 40
1
 40
1
 10
63.208102
 20
109.303423
 30
0.0
 10
60.817338
 20
103.464505
 30
0.0
 10
60.998714
 20
98.348342
 30
0.0
 10
61.291288
 20
95.701778
 30
0.0
  0
SPLINE
  5
133
100
AcDbEntity
  8
Camada_1
 62
1
100
AcDbSpline
 70
8
 71
3
 72
8
 73
4
 74
0
 40
0
 40
0
 40
0
 40
0
 40
1
 40
1
 40
1
 40
1
 10
61.291288
 20
95.701778
 30
0.0
 10
63.779043
 20
92.529026
 30
0.0
 10
66.266798
 20
89.356275
 30
0.0
 10
68.754543
 20
86.183523
 30
0.0
  0
SPLINE
  5
134
100
AcDbEntity
  8
Camada_1
 62
1
100
AcDbSpline
 70
8
 71
3
 72
8
 73
4
 74
0
 40
0
 40
0
 40
0
 40
0
 40
1
 40
1
 40
1
 40
1
 10
68.754543
 20
86.183523
 30
0.0
 10
70.484550
 20
88.985826
 30
0.0
 10
72.528676
 20
93.101692
 30
0.0
 10
73.539817
 20
98.347068
 30
0.0
  0
SPLINE
  5
135
100
AcDbEntity
  8
Camada_1
 62
1
100
AcDbSpline
 70
8
 71
3
 72
8
 73
4
 74
0
 40
0
 40
0
 40
0
 40
0
 40
1
 40
1
 40
1
 40
1
 10
73.539817
 20
98.347068
 30
0.0
 10
75.463057
 20
108.324012
 30
0.0
 10
72.500397
 20
116.427528
 30
0.0
 10
70.862413
 20
120.090232
 30
0.0
  0
LWPOLYLINE
  5
136
100
AcDbEntity
  8
Camada_1
 62
1
100
AcDbPolyline
 90
1
 70
1
 10
57.354573
 20
99.787994
 30
0.0
  0
SPLINE
  5
137
100
AcDbEntity
  8
Camada_1
 62
7
100
AcDbSpline
 70
8
 71
3
 72
8
 73
4
 74
0
 40
0
 40
0
 40
0
 40
0
 40
1
 40
1
 40
1
 40
1
 10
19.580547
 20
130.415371
 30
0.0
 10
17.370226
 20
131.387139
 30
0.0
 10
15.159894
 20
132.358897
 30
0.0
 10
12.949572
 20
133.330654
 30
0.0
  0
SPLINE
  5
138
100
AcDbEntity
  8
Camada_1
 62
7
100
AcDbSpline
 70
8
 71
3
 72
8
 73
4
 74
0
 40
0
 40
0
 40
0
 40
0
 40
1
 40
1
 40
1
 40
1
 10
12.949572
 20
133.330654
 30
0.0
 10
12.856821
 20
123.472916
 30
0.0
 10
12.764059
 20
113.615177
 30
0.0
 10
12.671308
 20
103.757439
 30
0.0
  0
SPLINE
  5
139
100
AcDbEntity
  8
Camada_1
 62
7
100
AcDbSpline
 70
8
 71
3
 72
8
 73
4
 74
0
 40
0
 40
0
 40
0
 40
0
 40
1
 40
1
 40
1
 40
1
 10
12.671308
 20
103.757439
 30
0.0
 10
14.881629
 20
102.785671
 30
0.0
 10
17.091951
 20
101.813924
 30
0.0
 10
19.302272
 20
100.842156
 30
0.0
  0
SPLINE
  5
13a
100
AcDbEntity
  8
Camada_1
 62
7
100
AcDbSpline
 70
8
 71
3
 72
8
 73
4
 74
0
 40
0
 40
0
 40
0
 40
0
 40
1
 40
1
 40
1
 40
1
 10
19.302272
 20
100.842156
 30
0.0
 10
19.395034
 20
110.699905
 30
0.0
 10
19.487785
 20
120.557633
 30
0.0
 10
19.580547
 20
130.415371
 30
0.0
  0
LWPOLYLINE
  5
13b
100
AcDbEntity
  8
Camada_1
 62
1
100
AcDbPolyline
 90
1
 70
1
 10
70.862413
 20
120.090232
 30
0.0
  0
SPLINE
  5
13c
100
AcDbEntity
  8
Camada_1
 62
7
100
AcDbSpline
 70
8
 71
3
 72
8
 73
4
 74
0
 40
0
 40
0
 40
0
 40
0
 40
1
 40
1
 40
1
 40
1
 10
19.274445
 20
97.884834
 30
0.0
 10
17.064123
 20
98.856602
 30
0.0
 10
14.853802
 20
99.828359
 30
0.0
 10
12.643480
 20
100.800116
 30
0.0
  0
SPLINE
  5
13d
100
AcDbEntity
  8
Camada_1
 62
7
100
AcDbSpline
 70
8
 71
3
 72
8
 73
4
 74
0
 40
0
 40
0
 40
0
 40
0
 40
1
 40
1
 40
1
 40
1
 10
12.643480
 20
100.800116
 30
0.0
 10
12.617500
 20
98.039607
 30
0.0
 10
12.591531
 20
95.279108
 30
0.0
 10
12.565551
 20
92.518598
 30
0.0
  0
SPLINE
  5
13e
100
AcDbEntity
  8
Camada_1
 62
7
100
AcDbSpline
 70
8
 71
3
 72
8
 73
4
 74
0
 40
0
 40
0
 40
0
 40
0
 40
1
 40
1
 40
1
 40
1
 10
12.565551
 20
92.518598
 30
0.0
 10
14.776160
 20
91.577508
 30
0.0
 10
16.986779
 20
90.636428
 30
0.0
 10
19.197388
 20
89.695337
 30
0.0
  0
SPLINE
  5
13f
100
AcDbEntity
  8
Camada_1
 62
7
100
AcDbSpline
 70
8
 71
3
 72
8
 73
4
 74
0
 40
0
 40
0
 40
0
 40
0
 40
1
 40
1
 40
1
 40
1
 10
19.197388
 20
89.695337
 30
0.0
 10
19.223070
 20
92.425169
 30
0.0
 10
19.248762
 20
95.155002
 30
0.0
 10
19.274445
 20
97.884834
 30
0.0
  0
LWPOLYLINE
  5
140
100
AcDbEntity
  8
Camada_1
 62
7
100
AcDbPolyline
 90
2
 70
1
 10
19.580547
 20
130.415371
 30
0.0
 10
19.580547
 20
130.415371
 30
0.0
  0
SPLINE
  5
141
100
AcDbEntity
  8
Camada_1
 62
7
100
AcDbSpline
 70
8
 71
3
 72
8
 73
4
 74
0
 40
0
 40
0
 40
0
 40
0
 40
1
 40
1
 40
1
 40
1
 10
19.169560
 20
86.738015
 30
0.0
 10
16.959239
 20
87.709772
 30
0.0
 10
14.748907
 20
88.681529
 30
0.0
 10
12.538585
 20
89.653287
 30
0.0
  0
SPLINE
  5
142
100
AcDbEntity
  8
Camada_1
 62
7
100
AcDbSpline
 70
8
 71
3
 72
8
 73
4
 74
0
 40
0
 40
0
 40
0
 40
0
 40
1
 40
1
 40
1
 40
1
 10
12.538585
 20
89.653287
 30
0.0
 10
12.523383
 20
88.037030
 30
0.0
 10
12.508171
 20
86.420763
 30
0.0
 10
12.492969
 20
84.804506
 30
0.0
  0
SPLINE
  5
143
100
AcDbEntity
  8
Camada_1
 62
7
100
AcDbSpline
 70
8
 71
3
 72
8
 73
4
 74
0
 40
0
 40
0
 40
0
 40
0
 40
1
 40
1
 40
1
 40
1
 10
12.492969
 20
84.804506
 30
0.0
 10
14.704954
 20
84.009960
 30
0.0
 10
16.916948
 20
83.215423
 30
0.0
 10
19.128933
 20
82.420877
 30
0.0
  0
SPLINE
  5
144
100
AcDbEntity
  8
Camada_1
 62
7
100
AcDbSpline
 70
8
 71
3
 72
8
 73
4
 74
0
 40
0
 40
0
 40
0
 40
0
 40
1
 40
1
 40
1
 40
1
 10
19.128933
 20
82.420877
 30
0.0
 10
19.142472
 20
83.859923
 30
0.0
 10
19.156021
 20
85.298969
 30
0.0
 10
19.169560
 20
86.738015
 30
0.0
  0
LWPOLYLINE
  5
145
100
AcDbEntity
  8
Camada_1
 62
7
100
AcDbPolyline
 90
2
 70
1
 10
19.274445
 20
97.884834
 30
0.0
 10
19.274445
 20
97.884834
 30
0.0
  0
SPLINE
  5
146
100
AcDbEntity
  8
Camada_1
 62
7
100
AcDbSpline
 70
8
 71
3
 72
8
 73
4
 74
0
 40
0
 40
0
 40
0
 40
0
 40
1
 40
1
 40
1
 40
1
 10
68.251512
 20
76.621924
 30
0.0
 10
70.112178
 20
74.868524
 30
0.0
 10
74.836070
 20
70.416944
 30
0.0
 10
75.069889
 20
63.984505
 30
0.0
  0
SPLINE
  5
147
100
AcDbEntity
  8
Camada_1
 62
7
100
AcDbSpline
 70
8
 71
3
 72
8
 73
4
 74
0
 40
0
 40
0
 40
0
 40
0
 40
1
 40
1
 40
1
 40
1
 10
75.069889
 20
63.984505
 30
0.0
 10
75.122342
 20
62.541278
 30
0.0
 10
75.274823
 20
58.347034
 30
0.0
 10
72.751296
 20
56.687669
 30
0.0
  0
SPLINE
  5
148
100
AcDbEntity
  8
Camada_1
 62
7
100
AcDbSpline
 70
8
 71
3
 72
8
 73
4
 74
0
 40
0
 40
0
 40
0
 40
0
 40
1
 40
1
 40
1
 40
1
 10
72.751296
 20
56.687669
 30
0.0
 10
70.338473
 20
55.101093
 30
0.0
 10
66.864017
 20
56.742397
 30
0.0
 10
63.205874
 20
58.470483
 30
0.0
  0
SPLINE
  5
149
100
AcDbEntity
  8
Camada_1
 62
7
100
AcDbSpline
 70
8
 71
3
 72
8
 73
4
 74
0
 40
0
 40
0
 40
0
 40
0
 40
1
 40
1
 40
1
 40
1
 10
63.205874
 20
58.470483
 30
0.0
 10
59.941341
 20
60.012625
 30
0.0
 10
54.256963
 20
62.618906
 30
0.0
 10
50.927690
 20
68.719803
 30
0.0
  0
SPLINE
  5
14a
100
AcDbEntity
  8
Camada_1
 62
7
100
AcDbSpline
 70
8
 71
3
 72
8
 73
4
 74
0
 40
0
 40
0
 40
0
 40
0
 40
1
 40
1
 40
1
 40
1
 10
50.927690
 20
68.719803
 30
0.0
 10
48.016159
 20
74.055207
 30
0.0
 10
48.257758
 20
79.070411
 30
0.0
 10
47.087750
 20
79.073329
 30
0.0
  0
SPLINE
  5
14b
100
AcDbEntity
  8
Camada_1
 62
7
100
AcDbSpline
 70
8
 71
3
 72
8
 73
4
 74
0
 40
0
 40
0
 40
0
 40
0
 40
1
 40
1
 40
1
 40
1
 10
47.087750
 20
79.073329
 30
0.0
 10
45.762613
 20
79.076616
 30
0.0
 10
46.492102
 20
72.394773
 30
0.0
 10
42.499146
 20
69.643716
 30
0.0
  0
SPLINE
  5
14c
100
AcDbEntity
  8
Camada_1
 62
7
100
AcDbSpline
 70
8
 71
3
 72
8
 73
4
 74
0
 40
0
 40
0
 40
0
 40
0
 40
1
 40
1
 40
1
 40
1
 10
42.499146
 20
69.643716
 30
0.0
 10
39.162647
 20
67.344926
 30
0.0
 10
33.580886
 20
68.513302
 30
0.0
 10
30.058575
 20
71.352179
 30
0.0
  0
SPLINE
  5
14d
100
AcDbEntity
  8
Camada_1
 62
7
100
AcDbSpline
 70
8
 71
3
 72
8
 73
4
 74
0
 40
0
 40
0
 40
0
 40
0
 40
1
 40
1
 40
1
 40
1
 10
30.058575
 20
71.352179
 30
0.0
 10
25.800843
 20
74.783796
 30
0.0
 10
25.453558
 20
79.929836
 30
0.0
 10
25.407665
 20
80.824756
 30
0.0
  0
SPLINE
  5
14e
100
AcDbEntity
  8
Camada_1
 62
7
100
AcDbSpline
 70
8
 71
3
 72
8
 73
4
 74
0
 40
0
 40
0
 40
0
 40
0
 40
1
 40
1
 40
1
 40
1
 10
25.407665
 20
80.824756
 30
0.0
 10
25.403765
 20
81.220622
 30
0.0
 10
25.398427
 20
81.815993
 30
0.0
 10
25.394465
 20
82.538377
 30
0.0
  0
SPLINE
  5
14f
100
AcDbEntity
  8
Camada_1
 62
7
100
AcDbSpline
 70
8
 71
3
 72
8
 73
4
 74
0
 40
0
 40
0
 40
0
 40
0
 40
1
 40
1
 40
1
 40
1
 10
25.394465
 20
82.538377
 30
0.0
 10
25.368095
 20
87.321591
 30
0.0
 10
25.454154
 20
90.834474
 30
0.0
 10
25.464008
 20
92.421101
 30
0.0
  0
SPLINE
  5
150
100
AcDbEntity
  8
Camada_1
 62
7
100
AcDbSpline
 70
8
 71
3
 72
8
 73
4
 74
0
 40
0
 40
0
 40
0
 40
0
 40
1
 40
1
 40
1
 40
1
 10
25.464008
 20
92.421101
 30
0.0
 10
25.487524
 20
96.203432
 30
0.0
 10
25.507489
 20
99.985094
 30
0.0
 10
25.523892
 20
103.766089
 30
0.0
  0
SPLINE
  5
151
100
AcDbEntity
  8
Camada_1
 62
7
100
AcDbSpline
 70
8
 71
3
 72
8
 73
4
 74
0
 40
0
 40
0
 40
0
 40
0
 40
1
 40
1
 40
1
 40
1
 10
25.523892
 20
103.766089
 30
0.0
 10
28.270676
 20
101.772388
 30
0.0
 10
31.017439
 20
99.778675
 30
0.0
 10
33.764233
 20
97.784974
 30
0.0
  0
SPLINE
  5
152
100
AcDbEntity
  8
Camada_1
 62
7
100
AcDbSpline
 70
8
 71
3
 72
8
 73
4
 74
0
 40
0
 40
0
 40
0
 40
0
 40
1
 40
1
 40
1
 40
1
 10
33.764233
 20
97.784974
 30
0.0
 10
33.643993
 20
94.969921
 30
0.0
 10
33.523742
 20
92.154869
 30
0.0
 10
33.403512
 20
89.339816
 30
0.0
  0
SPLINE
  5
153
100
AcDbEntity
  8
Camada_1
 62
7
100
AcDbSpline
 70
8
 71
3
 72
8
 73
4
 74
0
 40
0
 40
0
 40
0
 40
0
 40
1
 40
1
 40
1
 40
1
 10
33.403512
 20
89.339816
 30
0.0
 10
33.288086
 20
88.073533
 30
0.0
 10
33.115475
 20
84.331917
 30
0.0
 10
35.574674
 20
80.968526
 30
0.0
  0
SPLINE
  5
154
100
AcDbEntity
  8
Camada_1
 62
7
100
AcDbSpline
 70
8
 71
3
 72
8
 73
4
 74
0
 40
0
 40
0
 40
0
 40
0
 40
1
 40
1
 40
1
 40
1
 10
35.574674
 20
80.968526
 30
0.0
 10
36.352551
 20
79.904635
 30
0.0
 10
37.806141
 20
77.916614
 30
0.0
 10
39.623182
 20
77.833993
 30
0.0
  0
SPLINE
  5
155
100
AcDbEntity
  8
Camada_1
 62
7
100
AcDbSpline
 70
8
 71
3
 72
8
 73
4
 74
0
 40
0
 40
0
 40
0
 40
0
 40
1
 40
1
 40
1
 40
1
 10
39.623182
 20
77.833993
 30
0.0
 10
42.358572
 20
77.709599
 30
0.0
 10
45.485549
 20
81.923014
 30
0.0
 10
46.801140
 20
88.466789
 30
0.0
  0
SPLINE
  5
156
100
AcDbEntity
  8
Camada_1
 62
7
100
AcDbSpline
 70
8
 71
3
 72
8
 73
4
 74
0
 40
0
 40
0
 40
0
 40
0
 40
1
 40
1
 40
1
 40
1
 10
46.801140
 20
88.466789
 30
0.0
 10
48.853950
 20
87.445286
 30
0.0
 10
50.906791
 20
86.423794
 30
0.0
 10
52.959602
 20
85.402291
 30
0.0
  0
SPLINE
  5
157
100
AcDbEntity
  8
Camada_1
 62
7
100
AcDbSpline
 70
8
 71
3
 72
8
 73
4
 74
0
 40
0
 40
0
 40
0
 40
0
 40
1
 40
1
 40
1
 40
1
 10
52.959602
 20
85.402291
 30
0.0
 10
52.838930
 20
81.924442
 30
0.0
 10
53.203141
 20
76.016413
 30
0.0
 10
56.850855
 20
70.536653
 30
0.0
  0
SPLINE
  5
158
100
AcDbEntity
  8
Camada_1
 62
7
100
AcDbSpline
 70
8
 71
3
 72
8
 73
4
 74
0
 40
0
 40
0
 40
0
 40
0
 40
1
 40
1
 40
1
 40
1
 10
56.850855
 20
70.536653
 30
0.0
 10
59.720004
 20
66.226461
 30
0.0
 10
64.482019
 20
62.389381
 30
0.0
 10
65.499709
 20
63.136412
 30
0.0
  0
SPLINE
  5
159
100
AcDbEntity
  8
Camada_1
 62
7
100
AcDbSpline
 70
8
 71
3
 72
8
 73
4
 74
0
 40
0
 40
0
 40
0
 40
0
 40
1
 40
1
 40
1
 40
1
 10
65.499709
 20
63.136412
 30
0.0
 10
66.230430
 20
63.672791
 30
0.0
 10
65.115882
 20
66.633936
 30
0.0
 10
63.861848
 20
68.406301
 30
0.0
  0
SPLINE
  5
15a
100
AcDbEntity
  8
Camada_1
 62
7
100
AcDbSpline
 70
8
 71
3
 72
8
 73
4
 74
0
 40
0
 40
0
 40
0
 40
0
 40
1
 40
1
 40
1
 40
1
 10
63.861848
 20
68.406301
 30
0.0
 10
62.379805
 20
70.500932
 30
0.0
 10
60.458546
 20
71.542694
 30
0.0
 10
59.395958
 20
72.017832
 30
0.0
  0
SPLINE
  5
15b
100
AcDbEntity
  8
Camada_1
 62
7
100
AcDbSpline
 70
8
 71
3
 72
8
 73
4
 74
0
 40
0
 40
0
 40
0
 40
0
 40
1
 40
1
 40
1
 40
1
 10
59.395958
 20
72.017832
 30
0.0
 10
59.427296
 20
75.348490
 30
0.0
 10
59.458634
 20
78.679127
 30
0.0
 10
59.489983
 20
82.009785
 30
0.0
  0
SPLINE
  5
15c
100
AcDbEntity
  8
Camada_1
 62
7
100
AcDbSpline
 70
8
 71
3
 72
8
 73
4
 74
0
 40
0
 40
0
 40
0
 40
0
 40
1
 40
1
 40
1
 40
1
 10
59.489983
 20
82.009785
 30
0.0
 10
63.811089
 20
80.407552
 30
0.0
 10
66.655223
 20
78.126197
 30
0.0
 10
68.251512
 20
76.621924
 30
0.0
  0
LWPOLYLINE
  5
15d
100
AcDbEntity
  8
Camada_1
 62
7
100
AcDbPolyline
 90
2
 70
1
 10
19.169560
 20
86.738015
 30
0.0
 10
19.169560
 20
86.738015
 30
0.0
  0
LWPOLYLINE
  5
15e
100
AcDbEntity
  8
Camada_1
 62
7
100
AcDbPolyline
 90
2
 70
1
 10
68.251512
 20
76.621924
 30
0.0
 10
68.251512
 20
76.621924
 30
0.0
  0
ENDSEC
  0
SECTION
  2
OBJECTS
  0
DICTIONARY
  5
C
330
0
100
AcDbDictionary
  3
ACAD_GROUP
350
D
  3
ACAD_MLINESTYLE
350
17
  0
DICTIONARY
  5
D
330
C
100
AcDbDictionary
  0
DICTIONARY
  5
1A
330
C
100
AcDbDictionary
  0
DICTIONARY
  5
17
330
C
100
AcDbDictionary
  3
STANDARD
350
18
  0
DICTIONARY
  5
19
330
C
100
AcDbDictionary
  0
ENDSEC
  0
EOF
