  0
SECTION
  2
HEADER
  9
$ACADVER
  1
AC1014
  9
$HANDSEED
  5
FFFF
  9
$MEASUREMENT
 70
     1
  0
ENDSEC
  0
SECTION
  2
TABLES
  0
TABLE
  2
VPORT
  5
8
330
0
100
AcDbSymbolTable
 70
     4
  0
VPORT
  5
2E
330
8
100
AcDbSymbolTableRecord
100
AcDbViewportTableRecord
  2
*ACTIVE
 70
     0
 10
0.0
 20
0.0
 11
1.0
 21
1.0
 12
210.0
 22
148.5
 13
0.0
 23
0.0
 14
10.0
 24
10.0
 15
10.0
 25
10.0
 16
0.0
 26
0.0
 36
1.0
 17
0.0
 27
0.0
 37
0.0
 40
341.0
 41
1.24
 42
50.0
 43
0.0
 44
0.0
 50
0.0
 51
0.0
 71
     0
 72
   100
 73
     1
 74
     3
 75
     0
 76
     0
 77
     0
 78
     0
  0
ENDTAB
  0
TABLE
  2
LTYPE
  5
5
330
0
100
AcDbSymbolTable
 70
     1
  0
LTYPE
  5
14
330
5
100
AcDbSymbolTableRecord
100
AcDbLinetypeTableRecord
  2
BYBLOCK
 70
     0
  3

 72
    65
 73
     0
 40
0.0
  0
LTYPE
  5
15
330
5
100
AcDbSymbolTableRecord
100
AcDbLinetypeTableRecord
  2
BYLAYER
 70
     0
  3

 72
    65
 73
     0
 40
0.0
  0
LTYPE
  5
16
330
5
100
AcDbSymbolTableRecord
100
AcDbLinetypeTableRecord
  2
CONTINUOUS
 70
     0
  3
Solid line
 72
    65
 73
     0
 40
0.0
  0
ENDTAB
  0
TABLE
  2
LAYER
  5
2
100
AcDbSymbolTable
 70
2
  0
LAYER
  5
50
100
AcDbSymbolTableRecord
100
AcDbLayerTableRecord
  2
0
 70
0
  6
CONTINUOUS
  0
LAYER
  5
51
100
AcDbSymbolTableRecord
100
AcDbLayerTableRecord
  2
Camada_1
 70
0
  6
CONTINUOUS
  0
ENDTAB
  0
TABLE
  2
STYLE
  5
3
330
0
100
AcDbSymbolTable
 70
     1
  0
STYLE
  5
11
330
3
100
AcDbSymbolTableRecord
100
AcDbTextStyleTableRecord
  2
STANDARD
 70
     0
 40
0.0
 41
1.0
 50
0.0
 71
     0
 42
2.5
  3
txt
  4

  0
ENDTAB
  0
TABLE
  2
VIEW
  5
6
330
0
100
AcDbSymbolTable
 70
     0
  0
ENDTAB
  0
TABLE
  2
UCS
  5
7
330
0
100
AcDbSymbolTable
 70
     0
  0
ENDTAB
  0
TABLE
  2
APPID
  5
9
330
0
100
AcDbSymbolTable
 70
     2
  0
APPID
  5
12
330
9
100
AcDbSymbolTableRecord
100
AcDbRegAppTableRecord
  2
ACAD
 70
     0
  0
ENDTAB
  0
TABLE
  2
DIMSTYLE
  5
A
330
0
100
AcDbSymbolTable
 70
     1
  0
DIMSTYLE
105
27
330
A
100
AcDbSymbolTableRecord
100
AcDbDimStyleTableRecord
  2
ISO-25
 70
     0
  3

  4

  5

  6

  7

 40
1.0
 41
2.5
 42
0.625
 43
3.75
 44
1.25
 45
0.0
 46
0.0
 47
0.0
 48
0.0
140
2.5
141
2.5
142
0.0
143
0.03937007874016
144
1.0
145
0.0
146
1.0
147
0.625
 71
     0
 72
     0
 73
     0
 74
     0
 75
     0
 76
     0
 77
     1
 78
     8
170
     0
171
     3
172
     1
173
     0
174
     0
175
     0
176
     0
177
     0
178
     0
270
     2
271
     2
272
     2
273
     2
274
     3
340
11
275
     0
280
     0
281
     0
282
     0
283
     0
284
     8
285
     0
286
     0
287
     3
288
     0
  0
ENDTAB
  0
TABLE
  2
BLOCK_RECORD
  5
1
330
0
100
AcDbSymbolTable
 70
     1
  0
BLOCK_RECORD
  5
1F
330
1
100
AcDbSymbolTableRecord
100
AcDbBlockTableRecord
  2
*MODEL_SPACE
  0
BLOCK_RECORD
  5
1B
330
1
100
AcDbSymbolTableRecord
100
AcDbBlockTableRecord
  2
*PAPER_SPACE
  0
ENDTAB
  0
ENDSEC
  0
SECTION
  2
BLOCKS
  0
BLOCK
  5
20
330
1F
100
AcDbEntity
  8
0
100
AcDbBlockBegin
  2
*MODEL_SPACE
 70
     0
 10
0.0
 20
0.0
 30
0.0
  3
*MODEL_SPACE
  1

  0
ENDBLK
  5
21
330
1F
100
AcDbEntity
  8
0
100
AcDbBlockEnd
  0
BLOCK
  5
1C
330
1B
100
AcDbEntity
 67
     1
  8
0
100
AcDbBlockBegin
  2
*PAPER_SPACE
  1

  0
ENDBLK
  5
1D
330
1B
100
AcDbEntity
 67
     1
  8
0
100
AcDbBlockEnd
  0
ENDSEC
  0
SECTION
  2
ENTITIES
  0
SPLINE
  5
100
100
AcDbEntity
  8
Camada_1
 62
1
100
AcDbSpline
 70
8
 71
3
 72
8
 73
4
 74
0
 40
0
 40
0
 40
0
 40
0
 40
1
 40
1
 40
1
 40
1
 10
88.981982
 20
91.760914
 30
0.0
 10
92.363957
 20
86.917406
 30
0.0
 10
99.815323
 20
76.122871
 30
0.0
 10
106.385338
 20
65.435092
 30
0.0
  0
SPLINE
  5
101
100
AcDbEntity
  8
Camada_1
 62
1
100
AcDbSpline
 70
8
 71
3
 72
8
 73
4
 74
0
 40
0
 40
0
 40
0
 40
0
 40
1
 40
1
 40
1
 40
1
 10
106.385338
 20
65.435092
 30
0.0
 10
108.620656
 20
61.798787
 30
0.0
 10
110.513270
 20
58.571077
 30
0.0
 10
112.936200
 20
54.040650
 30
0.0
  0
SPLINE
  5
102
100
AcDbEntity
  8
Camada_1
 62
1
100
AcDbSpline
 70
8
 71
3
 72
8
 73
4
 74
0
 40
0
 40
0
 40
0
 40
0
 40
1
 40
1
 40
1
 40
1
 10
112.936200
 20
54.040650
 30
0.0
 10
112.936210
 20
54.040639
 30
0.0
 10
119.246882
 20
42.240830
 30
0.0
 10
125.591091
 20
24.990566
 30
0.0
  0
LWPOLYLINE
  5
103
100
AcDbEntity
  8
Camada_1
 62
7
100
AcDbPolyline
 90
1
 70
1
 10
55.724819
 20
180.322946
 30
0.0
  0
SPLINE
  5
104
100
AcDbEntity
  8
Camada_1
 62
1
100
AcDbSpline
 70
8
 71
3
 72
8
 73
4
 74
0
 40
0
 40
0
 40
0
 40
0
 40
1
 40
1
 40
1
 40
1
 10
125.591121
 20
24.990474
 30
0.0
 10
127.095803
 20
21.178372
 30
0.0
 10
127.881069
 20
17.902571
 30
0.0
 10
128.317236
 20
15.488565
 30
0.0
  0
SPLINE
  5
105
100
AcDbEntity
  8
Camada_1
 62
1
100
AcDbSpline
 70
8
 71
3
 72
8
 73
4
 74
0
 40
0
 40
0
 40
0
 40
0
 40
1
 40
1
 40
1
 40
1
 10
128.317236
 20
15.488565
 30
0.0
 10
128.408326
 20
14.984448
 30
0.0
 10
128.960137
 20
11.844451
 30
0.0
 10
128.907776
 20
7.923057
 30
0.0
  0
SPLINE
  5
106
100
AcDbEntity
  8
Camada_1
 62
1
100
AcDbSpline
 70
8
 71
3
 72
8
 73
4
 74
0
 40
0
 40
0
 40
0
 40
0
 40
1
 40
1
 40
1
 40
1
 10
128.907776
 20
7.923057
 30
0.0
 10
128.895427
 20
6.997593
 30
0.0
 10
128.849933
 20
6.067136
 30
0.0
 10
128.577892
 20
4.922604
 30
0.0
  0
SPLINE
  5
107
100
AcDbEntity
  8
Camada_1
 62
1
100
AcDbSpline
 70
8
 71
3
 72
8
 73
4
 74
0
 40
0
 40
0
 40
0
 40
0
 40
1
 40
1
 40
1
 40
1
 10
128.577892
 20
4.922604
 30
0.0
 10
128.232252
 20
3.468454
 30
0.0
 10
127.643744
 20
0.956017
 30
0.0
 10
126.185860
 20
0.330996
 30
0.0
  0
SPLINE
  5
108
100
AcDbEntity
  8
Camada_1
 62
1
100
AcDbSpline
 70
8
 71
3
 72
8
 73
4
 74
0
 40
0
 40
0
 40
0
 40
0
 40
1
 40
1
 40
1
 40
1
 10
126.185860
 20
0.330996
 30
0.0
 10
124.730532
 20
-0.292937
 30
0.0
 10
122.853921
 20
1.043926
 30
0.0
 10
121.212870
 20
2.163981
 30
0.0
  0
SPLINE
  5
109
100
AcDbEntity
  8
Camada_1
 62
1
100
AcDbSpline
 70
8
 71
3
 72
8
 73
4
 74
0
 40
0
 40
0
 40
0
 40
0
 40
1
 40
1
 40
1
 40
1
 10
121.212870
 20
2.163981
 30
0.0
 10
119.292633
 20
3.474558
 30
0.0
 10
118.179783
 20
4.859213
 30
0.0
 10
117.998618
 20
5.088352
 30
0.0
  0
SPLINE
  5
10a
100
AcDbEntity
  8
Camada_1
 62
1
100
AcDbSpline
 70
8
 71
3
 72
8
 73
4
 74
0
 40
0
 40
0
 40
0
 40
0
 40
1
 40
1
 40
1
 40
1
 10
117.998618
 20
5.088352
 30
0.0
 10
112.729741
 20
11.752196
 30
0.0
 10
109.615408
 20
17.780660
 30
0.0
 10
109.615408
 20
17.780670
 30
0.0
  0
SPLINE
  5
10b
100
AcDbEntity
  8
Camada_1
 62
1
100
AcDbSpline
 70
8
 71
3
 72
8
 73
4
 74
0
 40
0
 40
0
 40
0
 40
0
 40
1
 40
1
 40
1
 40
1
 10
109.615408
 20
17.780670
 30
0.0
 10
106.529016
 20
23.786888
 30
0.0
 10
104.139006
 20
28.517630
 30
0.0
 10
102.749578
 20
31.278822
 30
0.0
  0
SPLINE
  5
10c
100
AcDbEntity
  8
Camada_1
 62
1
100
AcDbSpline
 70
8
 71
3
 72
8
 73
4
 74
0
 40
0
 40
0
 40
0
 40
0
 40
1
 40
1
 40
1
 40
1
 10
102.749578
 20
31.278822
 30
0.0
 10
104.655239
 20
30.480089
 30
0.0
 10
106.560899
 20
29.681356
 30
0.0
 10
108.466549
 20
28.882613
 30
0.0
  0
SPLINE
  5
10d
100
AcDbEntity
  8
Camada_1
 62
1
100
AcDbSpline
 70
8
 71
3
 72
8
 73
4
 74
0
 40
0
 40
0
 40
0
 40
0
 40
1
 40
1
 40
1
 40
1
 10
108.466549
 20
28.882613
 30
0.0
 10
110.039739
 20
25.726895
 30
0.0
 10
111.247909
 20
23.217489
 30
0.0
 10
111.969132
 20
21.706761
 30
0.0
  0
SPLINE
  5
10e
100
AcDbEntity
  8
Camada_1
 62
1
100
AcDbSpline
 70
8
 71
3
 72
8
 73
4
 74
0
 40
0
 40
0
 40
0
 40
0
 40
1
 40
1
 40
1
 40
1
 10
111.969132
 20
21.706761
 30
0.0
 10
113.591522
 20
18.850734
 30
0.0
 10
118.738636
 20
9.925725
 30
0.0
 10
121.355850
 20
7.801474
 30
0.0
  0
SPLINE
  5
10f
100
AcDbEntity
  8
Camada_1
 62
1
100
AcDbSpline
 70
8
 71
3
 72
8
 73
4
 74
0
 40
0
 40
0
 40
0
 40
0
 40
1
 40
1
 40
1
 40
1
 10
121.355850
 20
7.801474
 30
0.0
 10
121.809384
 20
7.433356
 30
0.0
 10
122.919924
 20
6.532000
 30
0.0
 10
123.616142
 20
6.842769
 30
0.0
  0
SPLINE
  5
110
100
AcDbEntity
  8
Camada_1
 62
1
100
AcDbSpline
 70
8
 71
3
 72
8
 73
4
 74
0
 40
0
 40
0
 40
0
 40
0
 40
1
 40
1
 40
1
 40
1
 10
123.616142
 20
6.842769
 30
0.0
 10
124.049311
 20
7.036138
 30
0.0
 10
124.149794
 20
7.621834
 30
0.0
 10
124.195350
 20
7.963296
 30
0.0
  0
SPLINE
  5
111
100
AcDbEntity
  8
Camada_1
 62
1
100
AcDbSpline
 70
8
 71
3
 72
8
 73
4
 74
0
 40
0
 40
0
 40
0
 40
0
 40
1
 40
1
 40
1
 40
1
 10
124.195350
 20
7.963296
 30
0.0
 10
124.612865
 20
11.093172
 30
0.0
 10
123.768915
 20
14.546445
 30
0.0
 10
123.492953
 20
15.596882
 30
0.0
  0
SPLINE
  5
112
100
AcDbEntity
  8
Camada_1
 62
1
100
AcDbSpline
 70
8
 71
3
 72
8
 73
4
 74
0
 40
0
 40
0
 40
0
 40
0
 40
1
 40
1
 40
1
 40
1
 10
123.492953
 20
15.596882
 30
0.0
 10
123.185539
 20
16.767041
 30
0.0
 10
122.911774
 20
17.699667
 30
0.0
 10
122.725302
 20
18.315954
 30
0.0
  0
SPLINE
  5
113
100
AcDbEntity
  8
Camada_1
 62
1
100
AcDbSpline
 70
8
 71
3
 72
8
 73
4
 74
0
 40
0
 40
0
 40
0
 40
0
 40
1
 40
1
 40
1
 40
1
 10
122.725302
 20
18.315954
 30
0.0
 10
122.216532
 20
19.997413
 30
0.0
 10
121.713325
 20
21.405404
 30
0.0
 10
121.058968
 20
23.224486
 30
0.0
  0
SPLINE
  5
114
100
AcDbEntity
  8
Camada_1
 62
1
100
AcDbSpline
 70
8
 71
3
 72
8
 73
4
 74
0
 40
0
 40
0
 40
0
 40
0
 40
1
 40
1
 40
1
 40
1
 10
121.058968
 20
23.224486
 30
0.0
 10
120.024798
 20
26.099452
 30
0.0
 10
119.151819
 20
28.239096
 30
0.0
 10
118.323821
 20
30.273752
 30
0.0
  0
SPLINE
  5
115
100
AcDbEntity
  8
Camada_1
 62
1
100
AcDbSpline
 70
8
 71
3
 72
8
 73
4
 74
0
 40
0
 40
0
 40
0
 40
0
 40
1
 40
1
 40
1
 40
1
 10
118.323821
 20
30.273752
 30
0.0
 10
116.902767
 20
33.765765
 30
0.0
 10
115.720916
 20
36.425875
 30
0.0
 10
115.204570
 20
37.575257
 30
0.0
  0
SPLINE
  5
116
100
AcDbEntity
  8
Camada_1
 62
1
100
AcDbSpline
 70
8
 71
3
 72
8
 73
4
 74
0
 40
0
 40
0
 40
0
 40
0
 40
1
 40
1
 40
1
 40
1
 10
115.204570
 20
37.575257
 30
0.0
 10
113.566835
 20
41.220861
 30
0.0
 10
111.969696
 20
44.576453
 30
0.0
 10
110.901971
 20
46.587712
 30
0.0
  0
SPLINE
  5
117
100
AcDbEntity
  8
Camada_1
 62
1
100
AcDbSpline
 70
8
 71
3
 72
8
 73
4
 74
0
 40
0
 40
0
 40
0
 40
0
 40
1
 40
1
 40
1
 40
1
 10
110.901971
 20
46.587712
 30
0.0
 10
108.506428
 20
51.100156
 30
0.0
 10
105.381040
 20
56.181506
 30
0.0
 10
100.441215
 20
63.098051
 30
0.0
  0
SPLINE
  5
118
100
AcDbEntity
  8
Camada_1
 62
1
100
AcDbSpline
 70
8
 71
3
 72
8
 73
4
 74
0
 40
0
 40
0
 40
0
 40
0
 40
1
 40
1
 40
1
 40
1
 10
100.441215
 20
63.098051
 30
0.0
 10
88.391520
 20
79.969592
 30
0.0
 10
82.413726
 20
80.534798
 30
0.0
 10
80.590937
 20
80.582498
 30
0.0
  0
SPLINE
  5
119
100
AcDbEntity
  8
Camada_1
 62
1
100
AcDbSpline
 70
8
 71
3
 72
8
 73
4
 74
0
 40
0
 40
0
 40
0
 40
0
 40
1
 40
1
 40
1
 40
1
 10
80.590937
 20
80.582498
 30
0.0
 10
77.897751
 20
80.652980
 30
0.0
 10
75.642281
 20
79.819700
 30
0.0
 10
74.110229
 20
79.065338
 30
0.0
  0
SPLINE
  5
11a
100
AcDbEntity
  8
Camada_1
 62
1
100
AcDbSpline
 70
8
 71
3
 72
8
 73
4
 74
0
 40
0
 40
0
 40
0
 40
0
 40
1
 40
1
 40
1
 40
1
 10
74.110229
 20
79.065338
 30
0.0
 10
78.310479
 20
74.255473
 30
0.0
 10
82.695052
 20
68.684936
 30
0.0
 10
86.964852
 20
62.318482
 30
0.0
  0
SPLINE
  5
11b
100
AcDbEntity
  8
Camada_1
 62
1
100
AcDbSpline
 70
8
 71
3
 72
8
 73
4
 74
0
 40
0
 40
0
 40
0
 40
0
 40
1
 40
1
 40
1
 40
1
 10
86.964852
 20
62.318482
 30
0.0
 10
93.362772
 20
52.778903
 30
0.0
 10
97.984925
 20
43.715829
 30
0.0
 10
101.355090
 20
35.815897
 30
0.0
  0
SPLINE
  5
11c
100
AcDbEntity
  8
Camada_1
 62
1
100
AcDbSpline
 70
8
 71
3
 72
8
 73
4
 74
0
 40
0
 40
0
 40
0
 40
0
 40
1
 40
1
 40
1
 40
1
 10
101.355090
 20
35.815897
 30
0.0
 10
84.538160
 20
43.780864
 30
0.0
 10
65.298878
 20
51.681228
 30
0.0
 10
43.730926
 20
58.614183
 30
0.0
  0
SPLINE
  5
11d
100
AcDbEntity
  8
Camada_1
 62
1
100
AcDbSpline
 70
8
 71
3
 72
8
 73
4
 74
0
 40
0
 40
0
 40
0
 40
0
 40
1
 40
1
 40
1
 40
1
 10
43.730926
 20
58.614183
 30
0.0
 10
30.735145
 20
62.791639
 30
0.0
 10
18.284890
 20
66.170721
 30
0.0
 10
6.528642
 20
68.912687
 30
0.0
  0
SPLINE
  5
11e
100
AcDbEntity
  8
Camada_1
 62
1
100
AcDbSpline
 70
8
 71
3
 72
8
 73
4
 74
0
 40
0
 40
0
 40
0
 40
0
 40
1
 40
1
 40
1
 40
1
 10
6.528642
 20
68.912687
 30
0.0
 10
6.490602
 20
73.668595
 30
0.0
 10
6.452563
 20
78.424523
 30
0.0
 10
6.414522
 20
83.180430
 30
0.0
  0
SPLINE
  5
11f
100
AcDbEntity
  8
Camada_1
 62
1
100
AcDbSpline
 70
8
 71
3
 72
8
 73
4
 74
0
 40
0
 40
0
 40
0
 40
0
 40
1
 40
1
 40
1
 40
1
 10
6.414522
 20
83.180430
 30
0.0
 10
4.443725
 20
83.164636
 30
0.0
 10
2.472919
 20
83.148832
 30
0.0
 10
0.502123
 20
83.133038
 30
0.0
  0
SPLINE
  5
120
100
AcDbEntity
  8
Camada_1
 62
1
100
AcDbSpline
 70
8
 71
3
 72
8
 73
4
 74
0
 40
0
 40
0
 40
0
 40
0
 40
1
 40
1
 40
1
 40
1
 10
0.502123
 20
83.133038
 30
0.0
 10
0.392504
 20
96.837958
 30
0.0
 10
0.282886
 20
110.542868
 30
0.0
 10
0.173267
 20
124.247788
 30
0.0
  0
SPLINE
  5
121
100
AcDbEntity
  8
Camada_1
 62
1
100
AcDbSpline
 70
8
 71
3
 72
8
 73
4
 74
0
 40
0
 40
0
 40
0
 40
0
 40
1
 40
1
 40
1
 40
1
 10
0.173267
 20
124.247788
 30
0.0
 10
2.144063
 20
124.263581
 30
0.0
 10
4.114871
 20
124.279375
 30
0.0
 10
6.085667
 20
124.295169
 30
0.0
  0
SPLINE
  5
122
100
AcDbEntity
  8
Camada_1
 62
1
100
AcDbSpline
 70
8
 71
3
 72
8
 73
4
 74
0
 40
0
 40
0
 40
0
 40
0
 40
1
 40
1
 40
1
 40
1
 10
6.085667
 20
124.295169
 30
0.0
 10
5.962860
 20
138.533410
 30
0.0
 10
5.840063
 20
152.771640
 30
0.0
 10
5.717257
 20
167.009871
 30
0.0
  0
SPLINE
  5
123
100
AcDbEntity
  8
Camada_1
 62
1
100
AcDbSpline
 70
8
 71
3
 72
8
 73
4
 74
0
 40
0
 40
0
 40
0
 40
0
 40
1
 40
1
 40
1
 40
1
 10
5.717257
 20
167.009871
 30
0.0
 10
8.055161
 20
158.682458
 30
0.0
 10
12.612237
 20
146.325180
 30
0.0
 10
21.864317
 20
133.530813
 30
0.0
  0
SPLINE
  5
124
100
AcDbEntity
  8
Camada_1
 62
1
100
AcDbSpline
 70
8
 71
3
 72
8
 73
4
 74
0
 40
0
 40
0
 40
0
 40
0
 40
1
 40
1
 40
1
 40
1
 10
21.864317
 20
133.530813
 30
0.0
 10
29.313790
 20
123.229216
 30
0.0
 10
37.340577
 20
116.054987
 30
0.0
 10
43.507797
 20
111.359871
 30
0.0
  0
SPLINE
  5
125
100
AcDbEntity
  8
Camada_1
 62
1
100
AcDbSpline
 70
8
 71
3
 72
8
 73
4
 74
0
 40
0
 40
0
 40
0
 40
0
 40
1
 40
1
 40
1
 40
1
 10
43.507797
 20
111.359871
 30
0.0
 10
47.109032
 20
116.700118
 30
0.0
 10
50.710267
 20
122.040365
 30
0.0
 10
54.311496
 20
127.380612
 30
0.0
  0
SPLINE
  5
126
100
AcDbEntity
  8
Camada_1
 62
1
100
AcDbSpline
 70
8
 71
3
 72
8
 73
4
 74
0
 40
0
 40
0
 40
0
 40
0
 40
1
 40
1
 40
1
 40
1
 10
54.311496
 20
127.380612
 30
0.0
 10
48.878404
 20
135.700955
 30
0.0
 10
43.445323
 20
144.021299
 30
0.0
 10
38.012231
 20
152.341642
 30
0.0
  0
SPLINE
  5
127
100
AcDbEntity
  8
Camada_1
 62
1
100
AcDbSpline
 70
8
 71
3
 72
8
 73
4
 74
0
 40
0
 40
0
 40
0
 40
0
 40
1
 40
1
 40
1
 40
1
 10
38.012231
 20
152.341642
 30
0.0
 10
48.270421
 20
147.288036
 30
0.0
 10
60.666970
 20
139.815780
 30
0.0
 10
72.784787
 20
128.810737
 30
0.0
  0
SPLINE
  5
128
100
AcDbEntity
  8
Camada_1
 62
1
100
AcDbSpline
 70
8
 71
3
 72
8
 73
4
 74
0
 40
0
 40
0
 40
0
 40
0
 40
1
 40
1
 40
1
 40
1
 10
72.784787
 20
128.810737
 30
0.0
 10
77.747399
 20
124.303832
 30
0.0
 10
81.991983
 20
119.814066
 30
0.0
 10
85.611589
 20
115.543522
 30
0.0
  0
SPLINE
  5
129
100
AcDbEntity
  8
Camada_1
 62
1
100
AcDbSpline
 70
8
 71
3
 72
8
 73
4
 74
0
 40
0
 40
0
 40
0
 40
0
 40
1
 40
1
 40
1
 40
1
 10
85.611589
 20
115.543522
 30
0.0
 10
86.490757
 20
111.995641
 30
0.0
 10
87.286064
 20
108.082888
 30
0.0
 10
87.891561
 20
103.840130
 30
0.0
  0
SPLINE
  5
12a
100
AcDbEntity
  8
Camada_1
 62
1
100
AcDbSpline
 70
8
 71
3
 72
8
 73
4
 74
0
 40
0
 40
0
 40
0
 40
0
 40
1
 40
1
 40
1
 40
1
 10
87.891561
 20
103.840130
 30
0.0
 10
88.509584
 20
99.509618
 30
0.0
 10
88.840383
 20
95.462356
 30
0.0
 10
88.981982
 20
91.760914
 30
0.0
  0
LWPOLYLINE
  5
12b
100
AcDbEntity
  8
Camada_1
 62
1
100
AcDbPolyline
 90
1
 70
1
 10
125.591091
 20
24.990566
 30
0.0
  0
SPLINE
  5
12c
100
AcDbEntity
  8
Camada_1
 62
1
100
AcDbSpline
 70
8
 71
3
 72
8
 73
4
 74
0
 40
0
 40
0
 40
0
 40
0
 40
1
 40
1
 40
1
 40
1
 10
57.423431
 20
98.636129
 30
0.0
 10
54.662226
 20
101.477534
 30
0.0
 10
51.901014
 20
104.318938
 30
0.0
 10
49.139810
 20
107.160343
 30
0.0
  0
SPLINE
  5
12d
100
AcDbEntity
  8
Camada_1
 62
1
100
AcDbSpline
 70
8
 71
3
 72
8
 73
4
 74
0
 40
0
 40
0
 40
0
 40
0
 40
1
 40
1
 40
1
 40
1
 10
49.139810
 20
107.160343
 30
0.0
 10
49.512663
 20
108.894743
 30
0.0
 10
50.502678
 20
112.154678
 30
0.0
 10
53.416078
 20
115.079573
 30
0.0
  0
SPLINE
  5
12e
100
AcDbEntity
  8
Camada_1
 62
1
100
AcDbSpline
 70
8
 71
3
 72
8
 73
4
 74
0
 40
0
 40
0
 40
0
 40
0
 40
1
 40
1
 40
1
 40
1
 10
53.416078
 20
115.079573
 30
0.0
 10
59.342455
 20
121.029346
 30
0.0
 10
68.027873
 20
120.372552
 30
0.0
 10
69.176047
 20
120.268222
 30
0.0
  0
SPLINE
  5
12f
100
AcDbEntity
  8
Camada_1
 62
1
100
AcDbSpline
 70
8
 71
3
 72
8
 73
4
 74
0
 40
0
 40
0
 40
0
 40
0
 40
1
 40
1
 40
1
 40
1
 10
69.176047
 20
120.268222
 30
0.0
 10
67.148337
 20
119.024365
 30
0.0
 10
63.679053
 20
116.530424
 30
0.0
 10
60.991312
 20
112.286988
 30
0.0
  0
SPLINE
  5
130
100
AcDbEntity
  8
Camada_1
 62
1
100
AcDbSpline
 70
8
 71
3
 72
8
 73
4
 74
0
 40
0
 40
0
 40
0
 40
0
 40
1
 40
1
 40
1
 40
1
 10
60.991312
 20
112.286988
 30
0.0
 10
57.336487
 20
106.516702
 30
0.0
 10
57.298280
 20
100.939805
 30
0.0
 10
57.423431
 20
98.636129
 30
0.0
  0
LWPOLYLINE
  5
131
100
AcDbEntity
  8
Camada_1
 62
1
100
AcDbPolyline
 90
1
 70
1
 10
88.981982
 20
91.760914
 30
0.0
  0
SPLINE
  5
132
100
AcDbEntity
  8
Camada_1
 62
1
100
AcDbSpline
 70
8
 71
3
 72
8
 73
4
 74
0
 40
0
 40
0
 40
0
 40
0
 40
1
 40
1
 40
1
 40
1
 10
70.576112
 20
119.174936
 30
0.0
 10
68.582839
 20
117.317104
 30
0.0
 10
65.233673
 20
113.709263
 30
0.0
 10
63.110556
 20
108.254113
 30
0.0
  0
SPLINE
  5
133
100
AcDbEntity
  8
Camada_1
 62
1
100
AcDbSpline
 70
8
 71
3
 72
8
 73
4
 74
0
 40
0
 40
0
 40
0
 40
0
 40
1
 40
1
 40
1
 40
1
 10
63.110556
 20
108.254113
 30
0.0
 10
60.821746
 20
102.373218
 30
0.0
 10
61.092169
 20
97.259972
 30
0.0
 10
61.430780
 20
94.618389
 30
0.0
  0
SPLINE
  5
134
100
AcDbEntity
  8
Camada_1
 62
1
100
AcDbSpline
 70
8
 71
3
 72
8
 73
4
 74
0
 40
0
 40
0
 40
0
 40
0
 40
1
 40
1
 40
1
 40
1
 10
61.430780
 20
94.618389
 30
0.0
 10
63.973445
 20
91.488884
 30
0.0
 10
66.516112
 20
88.359368
 30
0.0
 10
69.058778
 20
85.229863
 30
0.0
  0
SPLINE
  5
135
100
AcDbEntity
  8
Camada_1
 62
1
100
AcDbSpline
 70
8
 71
3
 72
8
 73
4
 74
0
 40
0
 40
0
 40
0
 40
0
 40
1
 40
1
 40
1
 40
1
 10
69.058778
 20
85.229863
 30
0.0
 10
70.739781
 20
88.062472
 30
0.0
 10
72.711991
 20
92.214186
 30
0.0
 10
73.631690
 20
97.477448
 30
0.0
  0
SPLINE
  5
136
100
AcDbEntity
  8
Camada_1
 62
1
100
AcDbSpline
 70
8
 71
3
 72
8
 73
4
 74
0
 40
0
 40
0
 40
0
 40
0
 40
1
 40
1
 40
1
 40
1
 10
73.631690
 20
97.477448
 30
0.0
 10
75.381000
 20
107.488406
 30
0.0
 10
72.277648
 20
115.540635
 30
0.0
 10
70.576112
 20
119.174936
 30
0.0
  0
LWPOLYLINE
  5
137
100
AcDbEntity
  8
Camada_1
 62
1
100
AcDbPolyline
 90
1
 70
1
 10
57.423431
 20
98.636129
 30
0.0
  0
SPLINE
  5
138
100
AcDbEntity
  8
Camada_1
 62
7
100
AcDbSpline
 70
8
 71
3
 72
8
 73
4
 74
0
 40
0
 40
0
 40
0
 40
0
 40
1
 40
1
 40
1
 40
1
 10
55.777699
 20
76.737946
 30
0.0
 10
55.748253
 20
80.419392
 30
0.0
 10
55.718807
 20
84.100848
 30
0.0
 10
55.689361
 20
87.782304
 30
0.0
  0
SPLINE
  5
139
100
AcDbEntity
  8
Camada_1
 62
7
100
AcDbSpline
 70
8
 71
3
 72
8
 73
4
 74
0
 40
0
 40
0
 40
0
 40
0
 40
1
 40
1
 40
1
 40
1
 10
55.689361
 20
87.782304
 30
0.0
 10
63.770473
 20
76.965636
 30
0.0
 10
71.851581
 20
66.148978
 30
0.0
 10
79.932695
 20
55.332299
 30
0.0
  0
SPLINE
  5
13a
100
AcDbEntity
  8
Camada_1
 62
7
100
AcDbSpline
 70
8
 71
3
 72
8
 73
4
 74
0
 40
0
 40
0
 40
0
 40
0
 40
1
 40
1
 40
1
 40
1
 10
79.932695
 20
55.332299
 30
0.0
 10
71.774534
 20
58.880982
 30
0.0
 10
63.196259
 20
62.397575
 30
0.0
 10
54.205340
 20
65.824778
 30
0.0
  0
SPLINE
  5
13b
100
AcDbEntity
  8
Camada_1
 62
7
100
AcDbSpline
 70
8
 71
3
 72
8
 73
4
 74
0
 40
0
 40
0
 40
0
 40
0
 40
1
 40
1
 40
1
 40
1
 10
54.205340
 20
65.824778
 30
0.0
 10
44.548868
 20
69.505679
 30
0.0
 10
35.176646
 20
72.793667
 30
0.0
 10
26.142240
 20
75.735312
 30
0.0
  0
SPLINE
  5
13c
100
AcDbEntity
  8
Camada_1
 62
7
100
AcDbSpline
 70
8
 71
3
 72
8
 73
4
 74
0
 40
0
 40
0
 40
0
 40
0
 40
1
 40
1
 40
1
 40
1
 10
26.142240
 20
75.735312
 30
0.0
 10
26.106587
 20
80.192760
 30
0.0
 10
26.070934
 20
84.650209
 30
0.0
 10
26.035281
 20
89.107658
 30
0.0
  0
SPLINE
  5
13d
100
AcDbEntity
  8
Camada_1
 62
7
100
AcDbSpline
 70
8
 71
3
 72
8
 73
4
 74
0
 40
0
 40
0
 40
0
 40
0
 40
1
 40
1
 40
1
 40
1
 10
26.035281
 20
89.107658
 30
0.0
 10
38.557032
 20
82.451038
 30
0.0
 10
51.078779
 20
75.794428
 30
0.0
 10
63.600531
 20
69.137808
 30
0.0
  0
SPLINE
  5
13e
100
AcDbEntity
  8
Camada_1
 62
7
100
AcDbSpline
 70
8
 71
3
 72
8
 73
4
 74
0
 40
0
 40
0
 40
0
 40
0
 40
1
 40
1
 40
1
 40
1
 10
63.600531
 20
69.137808
 30
0.0
 10
60.992923
 20
71.671177
 30
0.0
 10
58.385308
 20
74.204567
 30
0.0
 10
55.777699
 20
76.737946
 30
0.0
  0
LWPOLYLINE
  5
13f
100
AcDbEntity
  8
Camada_1
 62
1
100
AcDbPolyline
 90
1
 70
1
 10
70.576112
 20
119.174936
 30
0.0
  0
SPLINE
  5
140
100
AcDbEntity
  8
Camada_1
 62
7
100
AcDbSpline
 70
8
 71
3
 72
8
 73
4
 74
0
 40
0
 40
0
 40
0
 40
0
 40
1
 40
1
 40
1
 40
1
 10
19.121055
 20
128.606096
 30
0.0
 10
16.894100
 20
129.539348
 30
0.0
 10
14.667139
 20
130.472601
 30
0.0
 10
12.440185
 20
131.405853
 30
0.0
  0
SPLINE
  5
141
100
AcDbEntity
  8
Camada_1
 62
7
100
AcDbSpline
 70
8
 71
3
 72
8
 73
4
 74
0
 40
0
 40
0
 40
0
 40
0
 40
1
 40
1
 40
1
 40
1
 10
12.440185
 20
131.405853
 30
0.0
 10
12.519048
 20
121.546030
 30
0.0
 10
12.597912
 20
111.686207
 30
0.0
 10
12.676775
 20
101.826385
 30
0.0
  0
SPLINE
  5
142
100
AcDbEntity
  8
Camada_1
 62
7
100
AcDbSpline
 70
8
 71
3
 72
8
 73
4
 74
0
 40
0
 40
0
 40
0
 40
0
 40
1
 40
1
 40
1
 40
1
 10
12.676775
 20
101.826385
 30
0.0
 10
14.903730
 20
100.893132
 30
0.0
 10
17.130691
 20
99.959890
 30
0.0
 10
19.357645
 20
99.026628
 30
0.0
  0
SPLINE
  5
143
100
AcDbEntity
  8
Camada_1
 62
7
100
AcDbSpline
 70
8
 71
3
 72
8
 73
4
 74
0
 40
0
 40
0
 40
0
 40
0
 40
1
 40
1
 40
1
 40
1
 10
19.357645
 20
99.026628
 30
0.0
 10
19.278782
 20
108.886461
 30
0.0
 10
19.199918
 20
118.746273
 30
0.0
 10
19.121055
 20
128.606096
 30
0.0
  0
LWPOLYLINE
  5
144
100
AcDbEntity
  8
Camada_1
 62
7
100
AcDbPolyline
 90
2
 70
1
 10
55.777699
 20
76.737946
 30
0.0
 10
55.777699
 20
76.737946
 30
0.0
  0
SPLINE
  5
145
100
AcDbEntity
  8
Camada_1
 62
7
100
AcDbSpline
 70
8
 71
3
 72
8
 73
4
 74
0
 40
0
 40
0
 40
0
 40
0
 40
1
 40
1
 40
1
 40
1
 10
19.381305
 20
96.068686
 30
0.0
 10
17.154350
 20
97.001938
 30
0.0
 10
14.927389
 20
97.935191
 30
0.0
 10
12.700434
 20
98.868443
 30
0.0
  0
SPLINE
  5
146
100
AcDbEntity
  8
Camada_1
 62
7
100
AcDbSpline
 70
8
 71
3
 72
8
 73
4
 74
0
 40
0
 40
0
 40
0
 40
0
 40
1
 40
1
 40
1
 40
1
 10
12.700434
 20
98.868443
 30
0.0
 10
12.722519
 20
96.107353
 30
0.0
 10
12.744603
 20
93.346264
 30
0.0
 10
12.766688
 20
90.585174
 30
0.0
  0
SPLINE
  5
147
100
AcDbEntity
  8
Camada_1
 62
7
100
AcDbSpline
 70
8
 71
3
 72
8
 73
4
 74
0
 40
0
 40
0
 40
0
 40
0
 40
1
 40
1
 40
1
 40
1
 10
12.766688
 20
90.585174
 30
0.0
 10
14.993397
 20
89.682595
 30
0.0
 10
17.220113
 20
88.780026
 30
0.0
 10
19.446822
 20
87.877447
 30
0.0
  0
SPLINE
  5
148
100
AcDbEntity
  8
Camada_1
 62
7
100
AcDbSpline
 70
8
 71
3
 72
8
 73
4
 74
0
 40
0
 40
0
 40
0
 40
0
 40
1
 40
1
 40
1
 40
1
 10
19.446822
 20
87.877447
 30
0.0
 10
19.424983
 20
90.607863
 30
0.0
 10
19.403144
 20
93.338269
 30
0.0
 10
19.381305
 20
96.068686
 30
0.0
  0
LWPOLYLINE
  5
149
100
AcDbEntity
  8
Camada_1
 62
7
100
AcDbPolyline
 90
2
 70
1
 10
19.121055
 20
128.606096
 30
0.0
 10
19.121055
 20
128.606096
 30
0.0
  0
SPLINE
  5
14a
100
AcDbEntity
  8
Camada_1
 62
7
100
AcDbSpline
 70
8
 71
3
 72
8
 73
4
 74
0
 40
0
 40
0
 40
0
 40
0
 40
1
 40
1
 40
1
 40
1
 10
19.470481
 20
84.919505
 30
0.0
 10
17.243527
 20
85.852757
 30
0.0
 10
15.016565
 20
86.786010
 30
0.0
 10
12.789611
 20
87.719262
 30
0.0
  0
SPLINE
  5
14b
100
AcDbEntity
  8
Camada_1
 62
7
100
AcDbSpline
 70
8
 71
3
 72
8
 73
4
 74
0
 40
0
 40
0
 40
0
 40
0
 40
1
 40
1
 40
1
 40
1
 10
12.789611
 20
87.719262
 30
0.0
 10
12.802542
 20
86.102663
 30
0.0
 10
12.815471
 20
84.486054
 30
0.0
 10
12.828402
 20
82.869455
 30
0.0
  0
SPLINE
  5
14c
100
AcDbEntity
  8
Camada_1
 62
7
100
AcDbSpline
 70
8
 71
3
 72
8
 73
4
 74
0
 40
0
 40
0
 40
0
 40
0
 40
1
 40
1
 40
1
 40
1
 10
12.828402
 20
82.869455
 30
0.0
 10
15.053939
 20
82.113459
 30
0.0
 10
17.279482
 20
81.357463
 30
0.0
 10
19.505019
 20
80.601467
 30
0.0
  0
SPLINE
  5
14d
100
AcDbEntity
  8
Camada_1
 62
7
100
AcDbSpline
 70
8
 71
3
 72
8
 73
4
 74
0
 40
0
 40
0
 40
0
 40
0
 40
1
 40
1
 40
1
 40
1
 10
19.505019
 20
80.601467
 30
0.0
 10
19.493507
 20
82.040810
 30
0.0
 10
19.481994
 20
83.480163
 30
0.0
 10
19.470481
 20
84.919505
 30
0.0
  0
LWPOLYLINE
  5
14e
100
AcDbEntity
  8
Camada_1
 62
7
100
AcDbPolyline
 90
2
 70
1
 10
19.381305
 20
96.068686
 30
0.0
 10
19.381305
 20
96.068686
 30
0.0
  0
LWPOLYLINE
  5
14f
100
AcDbEntity
  8
Camada_1
 62
7
100
AcDbPolyline
 90
2
 70
1
 10
19.470481
 20
84.919505
 30
0.0
 10
19.470481
 20
84.919505
 30
0.0
  0
ENDSEC
  0
SECTION
  2
OBJECTS
  0
DICTIONARY
  5
C
330
0
100
AcDbDictionary
  3
ACAD_GROUP
350
D
  3
ACAD_MLINESTYLE
350
17
  0
DICTIONARY
  5
D
330
C
100
AcDbDictionary
  0
DICTIONARY
  5
1A
330
C
100
AcDbDictionary
  0
DICTIONARY
  5
17
330
C
100
AcDbDictionary
  3
STANDARD
350
18
  0
DICTIONARY
  5
19
330
C
100
AcDbDictionary
  0
ENDSEC
  0
EOF
