<?xml version="1.0" encoding="UTF-8" standalone="no"?>
<svg
   viewBox="0 0 481.65645 639.05287"
   width="481.65646"
   height="639.05286"
   version="1.1"
   id="svg365"
   sodipodi:docname="Beatriz_Troféu_3.svg"
   inkscape:version="1.1.2 (b8e25be833, 2022-02-05)"
   xmlns:inkscape="http://www.inkscape.org/namespaces/inkscape"
   xmlns:sodipodi="http://sodipodi.sourceforge.net/DTD/sodipodi-0.dtd"
   xmlns="http://www.w3.org/2000/svg"
   xmlns:svg="http://www.w3.org/2000/svg">
  <sodipodi:namedview
     id="namedview367"
     pagecolor="#ffffff"
     bordercolor="#666666"
     borderopacity="1.0"
     inkscape:pageshadow="2"
     inkscape:pageopacity="0.0"
     inkscape:pagecheckerboard="0"
     showgrid="false"
     inkscape:zoom="0.51843089"
     inkscape:cx="376.13499"
     inkscape:cy="530.44678"
     inkscape:window-width="1920"
     inkscape:window-height="1009"
     inkscape:window-x="-8"
     inkscape:window-y="-8"
     inkscape:window-maximized="1"
     inkscape:current-layer="g363"
     fit-margin-top="0"
     fit-margin-left="0"
     fit-margin-right="0"
     fit-margin-bottom="0" />
  <desc
     id="desc2">Beatriz_Troféu_laser_3.dxf - scale = 25.4, origin = (0.0, 0.0), method = file</desc>
  <defs
     id="defs17">
    <marker
       id="DistanceX"
       orient="auto"
       refX="0"
       refY="0"
       style="overflow:visible">
      <path
         d="M 3,-3 -3,3 M 0,-5 V 5"
         style="stroke:#000000;stroke-width:0.5"
         id="path4" />
    </marker>
    <pattern
       id="Hatch"
       patternUnits="userSpaceOnUse"
       width="8"
       height="8"
       x="0"
       y="0">
      <path
         d="M8 4 l-4,4"
         stroke="#000000"
         stroke-width="0.25"
         linecap="square"
         id="path7" />
      <path
         d="M6 2 l-4,4"
         stroke="#000000"
         stroke-width="0.25"
         linecap="square"
         id="path9" />
      <path
         d="M4 0 l-4,4"
         stroke="#000000"
         stroke-width="0.25"
         linecap="square"
         id="path11" />
    </pattern>
    <symbol
       id="*Model_Space" />
    <symbol
       id="*Paper_Space" />
    <symbol
       id="*Paper_Space0" />
  </defs>
  <g
     inkscape:groupmode="layer"
     inkscape:label="0"
     id="g19"
     transform="translate(-412.06586,26.42058)" />
  <g
     inkscape:groupmode="layer"
     inkscape:label="Camada 1"
     id="g363"
     transform="translate(-412.06586,26.42058)">
    <g
       id="g2348"
       transform="matrix(0.38795591,0,0,0.38829732,-615.45562,-2925.1209)"
       style="stroke-width:2.57648">
      <path
         d="m 3513.5388,8211.9014 c 32.1207,47.7023 102.87,153.9999 165.0527,259.1092 21.1564,35.7613 39.0441,67.4888 61.8763,111.982 1e-4,1e-4 59.4681,115.8857 118.3386,284.8108 0,0 3e-4,9e-4 3e-4,9e-4 14.0098,37.3479 21.1033,69.3553 24.9424,92.9181 0.8017,4.9206 5.6442,35.5671 4.4693,73.714 -0.2773,9.0029 -0.8781,18.0487 -3.722,29.1391 -3.6132,14.0904 -9.7716,38.437 -24.078,44.2712 -14.2813,5.8239 -32.3337,-7.5026 -48.1283,-18.6795 -18.4818,-13.0781 -29.0867,-26.7399 -30.8124,-29.0003 -50.1914,-65.7347 -79.5041,-124.9214 -79.5041,-124.9215 -29.0445,-58.9655 -51.5221,-105.4022 -64.5875,-132.5049 18.4265,8.0952 36.853,16.1905 55.2795,24.2859 14.7885,30.9727 26.1311,55.5948 32.9,70.4169 15.3185,28.065 63.9404,115.7807 89.073,136.8944 4.3552,3.6588 15.0196,12.6177 21.8537,9.712 4.2521,-1.808 5.3302,-7.4899 5.8317,-10.8047 4.5975,-30.3833 -3.0373,-64.1277 -5.5472,-74.3954 -2.796,-11.4381 -5.3044,-20.5591 -7.0162,-26.5874 -4.6706,-16.4473 -9.3333,-30.2327 -15.3986,-48.0438 -9.5858,-28.1495 -17.7263,-49.1167 -25.4463,-69.055 -13.2496,-34.2191 -24.3103,-60.303 -29.1448,-71.5744 -15.3342,-35.7504 -30.322,-68.6721 -40.3811,-88.4232 -22.5685,-44.3135 -52.1497,-94.2865 -99.093,-162.4243 -114.5087,-166.2086 -172.6392,-172.7228 -190.3859,-173.4963 -26.2209,-1.143 -48.3315,6.5822 -63.3822,13.6622 40.0967,47.5138 81.8599,102.4605 122.3702,165.132 60.701,93.9079 104.1861,182.8778 135.6735,260.3178 -162.4538,-80.3551 -348.5135,-160.4929 -557.4194,-231.6127 -125.8764,-42.8533 -246.5744,-77.8457 -360.6206,-106.5211 0.4359,-46.2823 0.8717,-92.5648 1.3076,-138.8471 -19.1991,-0.1808 -38.3983,-0.3617 -57.5974,-0.5425 1.256,-133.37 2.5121,-266.74 3.7682,-400.11 19.1991,0.1808 38.3983,0.3616 57.5974,0.5424 1.218,-138.5615 2.4362,-277.123 3.6542,-415.6846 21.3602,81.4242 63.6529,202.4363 151.6029,328.4983 70.8145,101.501 147.7825,172.6701 207.0579,219.4012 35.9831,-51.3503 71.9662,-102.7007 107.9493,-154.051 -51.51,-81.8807 -103.0198,-163.7614 -154.5298,-245.6422 99.0625,50.9138 218.5434,125.7244 334.7104,234.8624 47.5738,44.6954 88.1567,89.1021 122.6892,131.2697 7.9619,34.6708 15.0451,72.8776 20.2235,114.2632 5.2855,42.2417 7.8214,81.6784 8.573,117.7182 z"
         style="fill:none;stroke:#4c0000;stroke-width:3.34942"
         id="path339" />
      <path
         d="m 3207.3102,8139.6475 c -26.4136,-28.116 -52.8272,-56.2322 -79.2408,-84.3482 3.9259,-16.8127 14.1218,-48.3645 42.9956,-76.3298 58.7344,-56.8865 143.2228,-49.0214 154.3889,-47.8114 -19.9617,11.7588 -54.177,35.4364 -81.0763,76.2697 -36.578,55.5255 -37.8958,109.7833 -37.0674,132.2197 z"
         style="fill:none;stroke:#4c0000;stroke-width:3.34942"
         id="path341" />
      <path
         d="m 3338.9057,7942.0336 c -19.7303,17.7387 -52.9644,52.2752 -74.5695,104.9945 -23.2912,56.8337 -21.5242,106.6324 -18.6739,132.393 24.2361,30.8823 48.4722,61.7646 72.7082,92.6469 16.854,-27.2765 36.7682,-67.3387 46.6189,-118.3951 18.7365,-97.1116 -10.1262,-175.988 -26.0837,-211.6393 z"
         style="fill:none;stroke:#4c0000;stroke-width:3.34942"
         id="path343" />
      <path
         d="m 2839.3097,7841.5328 c -21.5333,-9.4588 -43.0667,-18.9175 -64.6,-28.3762 -0.9036,95.9513 -1.8073,191.9026 -2.7109,287.8539 21.5333,9.4588 43.0666,18.9174 64.5999,28.3762 0.9037,-95.9514 1.8073,-191.9026 2.711,-287.8539 z"
         style="fill:none;stroke:#000000;stroke-width:2.57648"
         id="path345" />
      <path
         d="M 2839.3097,7841.5328 Z"
         style="fill:#4c0000;stroke-width:2.57648"
         id="path347" />
      <path
         d="m 2836.3276,8158.1721 c -21.5333,-9.4588 -43.0666,-18.9175 -64.5999,-28.3762 -0.2531,26.8697 -0.5061,53.7393 -0.7592,80.609 21.5361,9.1602 43.0723,18.3203 64.6084,27.4805 0.2502,-26.5711 0.5005,-53.1422 0.7507,-79.7133 z"
         style="fill:none;stroke:#000000;stroke-width:2.57648"
         id="path349" />
      <path
         d="M 2836.3276,8158.1721 Z"
         style="fill:#4c0000;stroke-width:2.57648"
         id="path351" />
      <path
         d="m 2835.3058,8266.6708 c -21.5333,-9.4587 -43.0667,-18.9174 -64.6,-28.3761 -0.1481,15.732 -0.2963,31.4641 -0.4444,47.1961 21.5495,7.7338 43.0991,15.4675 64.6486,23.2013 0.1319,-14.0071 0.2639,-28.0142 0.3958,-42.0213 z"
         style="fill:none;stroke:#000000;stroke-width:2.57648"
         id="path353" />
      <path
         d="M 2835.3058,8266.6708 Z"
         style="fill:#4c0000;stroke-width:2.57648"
         id="path355" />
      <path
         d="m 3313.4699,8365.1368 c 18.1269,17.0669 64.1478,60.3968 66.4257,123.0076 0.511,14.0478 1.9965,54.8729 -22.5881,71.0245 -23.5061,15.4431 -57.3548,-0.5327 -92.993,-17.3532 -31.8036,-15.0106 -87.1817,-40.3791 -119.616,-99.7628 -28.3646,-51.9327 -26.0109,-100.7487 -37.4093,-100.7771 -12.9097,-0.032 -5.8029,65.0064 -44.7029,91.7841 -32.5047,22.3755 -86.8831,11.003 -121.198,-16.6295 -41.4795,-33.402 -44.8628,-83.4915 -45.3099,-92.2023 -0.038,-3.8532 -0.09,-9.6483 -0.1286,-16.6797 -0.2569,-46.5579 0.5815,-80.7509 0.6775,-96.1945 0.2291,-36.8157 0.4236,-73.6249 0.5834,-110.4276 26.7596,19.4059 53.519,38.8119 80.2787,58.2178 -1.1714,27.4006 -2.3429,54.8012 -3.5142,82.2018 -1.1245,12.3255 -2.8061,48.7449 21.1518,81.4828 7.5782,10.3555 21.7393,29.7061 39.4412,30.5103 26.6486,1.2108 57.1121,-39.8009 69.9288,-103.4954 19.9988,9.9429 39.9979,19.8857 59.9967,29.8286 -1.1756,33.852 2.3726,91.3584 37.9092,144.6962 27.9517,41.9537 74.344,79.3023 84.2585,72.031 7.1188,-5.2209 -3.7393,-34.0435 -15.9563,-51.295 -14.4383,-20.3883 -33.1555,-30.5284 -43.5074,-35.1532 0.3053,-32.4193 0.6106,-64.8384 0.916,-97.2577 42.0969,15.5955 69.8049,37.8013 85.3562,52.4433 z"
         style="fill:none;stroke:#000000;stroke-width:2.57648"
         id="path359" />
      <path
         d="M 3313.4699,8365.1368 Z"
         style="fill:#4c0000;stroke-width:2.57648"
         id="path361" />
    </g>
  </g>
</svg>
