  0
SECTION
  2
HEADER
  9
$ACADVER
  1
AC1014
  9
$HANDSEED
  5
FFFF
  9
$MEASUREMENT
 70
     1
  0
ENDSEC
  0
SECTION
  2
TABLES
  0
TABLE
  2
VPORT
  5
8
330
0
100
AcDbSymbolTable
 70
     4
  0
VPORT
  5
2E
330
8
100
AcDbSymbolTableRecord
100
AcDbViewportTableRecord
  2
*ACTIVE
 70
     0
 10
0.0
 20
0.0
 11
1.0
 21
1.0
 12
210.0
 22
148.5
 13
0.0
 23
0.0
 14
10.0
 24
10.0
 15
10.0
 25
10.0
 16
0.0
 26
0.0
 36
1.0
 17
0.0
 27
0.0
 37
0.0
 40
341.0
 41
1.24
 42
50.0
 43
0.0
 44
0.0
 50
0.0
 51
0.0
 71
     0
 72
   100
 73
     1
 74
     3
 75
     0
 76
     0
 77
     0
 78
     0
  0
ENDTAB
  0
TABLE
  2
LTYPE
  5
5
330
0
100
AcDbSymbolTable
 70
     1
  0
LTYPE
  5
14
330
5
100
AcDbSymbolTableRecord
100
AcDbLinetypeTableRecord
  2
BYBLOCK
 70
     0
  3

 72
    65
 73
     0
 40
0.0
  0
LTYPE
  5
15
330
5
100
AcDbSymbolTableRecord
100
AcDbLinetypeTableRecord
  2
BYLAYER
 70
     0
  3

 72
    65
 73
     0
 40
0.0
  0
LTYPE
  5
16
330
5
100
AcDbSymbolTableRecord
100
AcDbLinetypeTableRecord
  2
CONTINUOUS
 70
     0
  3
Solid line
 72
    65
 73
     0
 40
0.0
  0
ENDTAB
  0
TABLE
  2
LAYER
  5
2
100
AcDbSymbolTable
 70
2
  0
LAYER
  5
50
100
AcDbSymbolTableRecord
100
AcDbLayerTableRecord
  2
0
 70
0
  6
CONTINUOUS
  0
LAYER
  5
51
100
AcDbSymbolTableRecord
100
AcDbLayerTableRecord
  2
Camada_1
 70
0
  6
CONTINUOUS
  0
ENDTAB
  0
TABLE
  2
STYLE
  5
3
330
0
100
AcDbSymbolTable
 70
     1
  0
STYLE
  5
11
330
3
100
AcDbSymbolTableRecord
100
AcDbTextStyleTableRecord
  2
STANDARD
 70
     0
 40
0.0
 41
1.0
 50
0.0
 71
     0
 42
2.5
  3
txt
  4

  0
ENDTAB
  0
TABLE
  2
VIEW
  5
6
330
0
100
AcDbSymbolTable
 70
     0
  0
ENDTAB
  0
TABLE
  2
UCS
  5
7
330
0
100
AcDbSymbolTable
 70
     0
  0
ENDTAB
  0
TABLE
  2
APPID
  5
9
330
0
100
AcDbSymbolTable
 70
     2
  0
APPID
  5
12
330
9
100
AcDbSymbolTableRecord
100
AcDbRegAppTableRecord
  2
ACAD
 70
     0
  0
ENDTAB
  0
TABLE
  2
DIMSTYLE
  5
A
330
0
100
AcDbSymbolTable
 70
     1
  0
DIMSTYLE
105
27
330
A
100
AcDbSymbolTableRecord
100
AcDbDimStyleTableRecord
  2
ISO-25
 70
     0
  3

  4

  5

  6

  7

 40
1.0
 41
2.5
 42
0.625
 43
3.75
 44
1.25
 45
0.0
 46
0.0
 47
0.0
 48
0.0
140
2.5
141
2.5
142
0.0
143
0.03937007874016
144
1.0
145
0.0
146
1.0
147
0.625
 71
     0
 72
     0
 73
     0
 74
     0
 75
     0
 76
     0
 77
     1
 78
     8
170
     0
171
     3
172
     1
173
     0
174
     0
175
     0
176
     0
177
     0
178
     0
270
     2
271
     2
272
     2
273
     2
274
     3
340
11
275
     0
280
     0
281
     0
282
     0
283
     0
284
     8
285
     0
286
     0
287
     3
288
     0
  0
ENDTAB
  0
TABLE
  2
BLOCK_RECORD
  5
1
330
0
100
AcDbSymbolTable
 70
     1
  0
BLOCK_RECORD
  5
1F
330
1
100
AcDbSymbolTableRecord
100
AcDbBlockTableRecord
  2
*MODEL_SPACE
  0
BLOCK_RECORD
  5
1B
330
1
100
AcDbSymbolTableRecord
100
AcDbBlockTableRecord
  2
*PAPER_SPACE
  0
ENDTAB
  0
ENDSEC
  0
SECTION
  2
BLOCKS
  0
BLOCK
  5
20
330
1F
100
AcDbEntity
  8
0
100
AcDbBlockBegin
  2
*MODEL_SPACE
 70
     0
 10
0.0
 20
0.0
 30
0.0
  3
*MODEL_SPACE
  1

  0
ENDBLK
  5
21
330
1F
100
AcDbEntity
  8
0
100
AcDbBlockEnd
  0
BLOCK
  5
1C
330
1B
100
AcDbEntity
 67
     1
  8
0
100
AcDbBlockBegin
  2
*PAPER_SPACE
  1

  0
ENDBLK
  5
1D
330
1B
100
AcDbEntity
 67
     1
  8
0
100
AcDbBlockEnd
  0
ENDSEC
  0
SECTION
  2
ENTITIES
  0
SPLINE
  5
100
100
AcDbEntity
  8
Camada_1
 62
7
100
AcDbSpline
 70
8
 71
3
 72
8
 73
4
 74
0
 40
0
 40
0
 40
0
 40
0
 40
1
 40
1
 40
1
 40
1
 10
26.650401
 20
12.196112
 30
0.0
 10
25.313241
 20
12.183073
 30
0.0
 10
23.976067
 20
12.170024
 30
0.0
 10
22.638906
 20
12.156985
 30
0.0
  0
LWPOLYLINE
  5
101
100
AcDbEntity
  8
Camada_1
 62
7
100
AcDbPolyline
 90
2
 70
0
 10
26.872396
 20
12.198350
 30
0.0
 10
26.650401
 20
12.196112
 30
0.0
  0
SPLINE
  5
102
100
AcDbEntity
  8
Camada_1
 62
7
100
AcDbSpline
 70
8
 71
3
 72
8
 73
4
 74
0
 40
0
 40
0
 40
0
 40
0
 40
1
 40
1
 40
1
 40
1
 10
22.565240
 20
11.915988
 30
0.0
 10
22.596130
 20
11.894924
 30
0.0
 10
22.640537
 20
11.858614
 30
0.0
 10
22.671447
 20
11.800183
 30
0.0
  0
SPLINE
  5
103
100
AcDbEntity
  8
Camada_1
 62
7
100
AcDbSpline
 70
8
 71
3
 72
8
 73
4
 74
0
 40
0
 40
0
 40
0
 40
0
 40
1
 40
1
 40
1
 40
1
 10
22.671447
 20
11.800183
 30
0.0
 10
22.733754
 20
11.682395
 30
0.0
 10
22.706299
 20
11.523009
 30
0.0
 10
22.683425
 20
11.428512
 30
0.0
  0
SPLINE
  5
104
100
AcDbEntity
  8
Camada_1
 62
7
100
AcDbSpline
 70
8
 71
3
 72
8
 73
4
 74
0
 40
0
 40
0
 40
0
 40
0
 40
1
 40
1
 40
1
 40
1
 10
22.683425
 20
11.428512
 30
0.0
 10
22.610717
 20
11.128148
 30
0.0
 10
22.276174
 20
9.946189
 30
0.0
 10
21.794045
 20
8.356413
 30
0.0
  0
LWPOLYLINE
  5
105
100
AcDbEntity
  8
Camada_1
 62
7
100
AcDbPolyline
 90
4
 70
0
 10
22.638906
 20
12.156985
 30
0.0
 10
22.507745
 20
12.155561
 30
0.0
 10
22.507745
 20
11.955329
 30
0.0
 10
22.565240
 20
11.915988
 30
0.0
  0
SPLINE
  5
106
100
AcDbEntity
  8
Camada_1
 62
7
100
AcDbSpline
 70
8
 71
3
 72
8
 73
4
 74
0
 40
0
 40
0
 40
0
 40
0
 40
1
 40
1
 40
1
 40
1
 10
21.920814
 20
8.186367
 30
0.0
 10
23.016221
 20
8.185350
 30
0.0
 10
24.111697
 20
8.185045
 30
0.0
 10
25.207029
 20
8.184333
 30
0.0
  0
LWPOLYLINE
  5
107
100
AcDbEntity
  8
Camada_1
 62
7
100
AcDbPolyline
 90
3
 70
0
 10
21.794045
 20
8.356413
 30
0.0
 10
21.742538
 20
8.186367
 30
0.0
 10
21.920814
 20
8.186367
 30
0.0
  0
SPLINE
  5
108
100
AcDbEntity
  8
Camada_1
 62
7
100
AcDbSpline
 70
8
 71
3
 72
8
 73
4
 74
0
 40
0
 40
0
 40
0
 40
0
 40
1
 40
1
 40
1
 40
1
 10
25.311839
 20
8.235584
 30
0.0
 10
25.422518
 20
8.377598
 30
0.0
 10
25.533157
 20
8.519674
 30
0.0
 10
25.643833
 20
8.661679
 30
0.0
  0
LWPOLYLINE
  5
109
100
AcDbEntity
  8
Camada_1
 62
7
100
AcDbPolyline
 90
3
 70
0
 10
25.207029
 20
8.184333
 30
0.0
 10
25.272110
 20
8.184333
 30
0.0
 10
25.311839
 20
8.235584
 30
0.0
  0
SPLINE
  5
10a
100
AcDbEntity
  8
Camada_1
 62
7
100
AcDbSpline
 70
8
 71
3
 72
8
 73
4
 74
0
 40
0
 40
0
 40
0
 40
0
 40
1
 40
1
 40
1
 40
1
 10
25.539224
 20
8.874035
 30
0.0
 10
24.938970
 20
8.875052
 30
0.0
 10
24.338854
 20
8.875459
 30
0.0
 10
23.738703
 20
8.876069
 30
0.0
  0
SPLINE
  5
10b
100
AcDbEntity
  8
Camada_1
 62
7
100
AcDbSpline
 70
8
 71
3
 72
8
 73
4
 74
0
 40
0
 40
0
 40
0
 40
0
 40
1
 40
1
 40
1
 40
1
 10
23.738703
 20
8.876069
 30
0.0
 10
23.830432
 20
9.221083
 30
0.0
 10
23.922273
 20
9.566005
 30
0.0
 10
24.014002
 20
9.911019
 30
0.0
  0
LWPOLYLINE
  5
10c
100
AcDbEntity
  8
Camada_1
 62
7
100
AcDbPolyline
 90
3
 70
0
 10
25.643833
 20
8.661679
 30
0.0
 10
25.809532
 20
8.874035
 30
0.0
 10
25.539224
 20
8.874035
 30
0.0
  0
SPLINE
  5
10d
100
AcDbEntity
  8
Camada_1
 62
7
100
AcDbSpline
 70
8
 71
3
 72
8
 73
4
 74
0
 40
0
 40
0
 40
0
 40
0
 40
1
 40
1
 40
1
 40
1
 10
25.793162
 20
9.959472
 30
0.0
 10
25.880404
 20
10.076162
 30
0.0
 10
25.967639
 20
10.192801
 30
0.0
 10
26.054885
 20
10.309490
 30
0.0
  0
LWPOLYLINE
  5
10e
100
AcDbEntity
  8
Camada_1
 62
7
100
AcDbPolyline
 90
3
 70
0
 10
24.014002
 20
9.911019
 30
0.0
 10
25.753234
 20
9.906035
 30
0.0
 10
25.793162
 20
9.959472
 30
0.0
  0
SPLINE
  5
10f
100
AcDbEntity
  8
Camada_1
 62
7
100
AcDbSpline
 70
8
 71
3
 72
8
 73
4
 74
0
 40
0
 40
0
 40
0
 40
0
 40
1
 40
1
 40
1
 40
1
 10
25.948279
 20
10.519833
 30
0.0
 10
25.375147
 20
10.518612
 30
0.0
 10
24.801965
 20
10.517595
 30
0.0
 10
24.228810
 20
10.516476
 30
0.0
  0
SPLINE
  5
110
100
AcDbEntity
  8
Camada_1
 62
7
100
AcDbSpline
 70
8
 71
3
 72
8
 73
4
 74
0
 40
0
 40
0
 40
0
 40
0
 40
1
 40
1
 40
1
 40
1
 10
24.228810
 20
10.516476
 30
0.0
 10
24.325200
 20
10.844769
 30
0.0
 10
24.421495
 20
11.173072
 30
0.0
 10
24.517885
 20
11.501375
 30
0.0
  0
LWPOLYLINE
  5
111
100
AcDbEntity
  8
Camada_1
 62
7
100
AcDbPolyline
 90
3
 70
0
 10
26.054885
 20
10.309490
 30
0.0
 10
26.212798
 20
10.520850
 30
0.0
 10
25.948279
 20
10.519833
 30
0.0
  0
SPLINE
  5
112
100
AcDbEntity
  8
Camada_1
 62
7
100
AcDbSpline
 70
8
 71
3
 72
8
 73
4
 74
0
 40
0
 40
0
 40
0
 40
0
 40
1
 40
1
 40
1
 40
1
 10
26.541998
 20
11.571890
 30
0.0
 10
26.617742
 20
11.715308
 30
0.0
 10
26.693441
 20
11.858747
 30
0.0
 10
26.769184
 20
12.002165
 30
0.0
  0
LWPOLYLINE
  5
113
100
AcDbEntity
  8
Camada_1
 62
7
100
AcDbPolyline
 90
3
 70
0
 10
24.517885
 20
11.501375
 30
0.0
 10
26.504666
 20
11.501375
 30
0.0
 10
26.541998
 20
11.571890
 30
0.0
  0
SPLINE
  5
114
100
AcDbEntity
  8
Camada_1
 62
7
100
AcDbSpline
 70
8
 71
3
 72
8
 73
4
 74
0
 40
0
 40
0
 40
0
 40
0
 40
1
 40
1
 40
1
 40
1
 10
26.431200
 20
11.929983
 30
0.0
 10
26.402304
 20
11.875264
 30
0.0
 10
26.373453
 20
11.820606
 30
0.0
 10
26.344557
 20
11.765897
 30
0.0
  0
LWPOLYLINE
  5
115
100
AcDbEntity
  8
Camada_1
 62
7
100
AcDbPolyline
 90
2
 70
0
 10
26.769184
 20
12.002165
 30
0.0
 10
26.872396
 20
12.198350
 30
0.0
  0
SPLINE
  5
116
100
AcDbEntity
  8
Camada_1
 62
7
100
AcDbSpline
 70
8
 71
3
 72
8
 73
4
 74
0
 40
0
 40
0
 40
0
 40
0
 40
1
 40
1
 40
1
 40
1
 10
24.291297
 20
11.670943
 30
0.0
 10
24.169030
 20
11.254500
 30
0.0
 10
24.046832
 20
10.838077
 30
0.0
 10
23.924565
 20
10.421644
 30
0.0
  0
LWPOLYLINE
  5
117
100
AcDbEntity
  8
Camada_1
 62
7
100
AcDbPolyline
 90
3
 70
0
 10
26.344557
 20
11.765897
 30
0.0
 10
24.319246
 20
11.765897
 30
0.0
 10
24.291297
 20
11.670943
 30
0.0
  0
SPLINE
  5
118
100
AcDbEntity
  8
Camada_1
 62
7
100
AcDbSpline
 70
8
 71
3
 72
8
 73
4
 74
0
 40
0
 40
0
 40
0
 40
0
 40
1
 40
1
 40
1
 40
1
 10
24.052133
 20
10.252198
 30
0.0
 10
24.596118
 20
10.253317
 30
0.0
 10
25.140153
 20
10.254436
 30
0.0
 10
25.684160
 20
10.255555
 30
0.0
  0
SPLINE
  5
119
100
AcDbEntity
  8
Camada_1
 62
7
100
AcDbSpline
 70
8
 71
3
 72
8
 73
4
 74
0
 40
0
 40
0
 40
0
 40
0
 40
1
 40
1
 40
1
 40
1
 10
25.684160
 20
10.255555
 30
0.0
 10
25.662868
 20
10.227076
 30
0.0
 10
25.641569
 20
10.198608
 30
0.0
 10
25.620276
 20
10.170130
 30
0.0
  0
LWPOLYLINE
  5
11a
100
AcDbEntity
  8
Camada_1
 62
7
100
AcDbPolyline
 90
3
 70
0
 10
23.924565
 20
10.421644
 30
0.0
 10
23.874855
 20
10.252198
 30
0.0
 10
24.052133
 20
10.252198
 30
0.0
  0
SPLINE
  5
11b
100
AcDbEntity
  8
Camada_1
 62
7
100
AcDbSpline
 70
8
 71
3
 72
8
 73
4
 74
0
 40
0
 40
0
 40
0
 40
0
 40
1
 40
1
 40
1
 40
1
 10
23.783621
 20
10.076986
 30
0.0
 10
23.668480
 20
9.643913
 30
0.0
 10
23.553392
 20
9.210709
 30
0.0
 10
23.438251
 20
8.777626
 30
0.0
  0
LWPOLYLINE
  5
11c
100
AcDbEntity
  8
Camada_1
 62
7
100
AcDbPolyline
 90
3
 70
0
 10
25.620276
 20
10.170130
 30
0.0
 10
23.809974
 20
10.175521
 30
0.0
 10
23.783621
 20
10.076986
 30
0.0
  0
SPLINE
  5
11d
100
AcDbEntity
  8
Camada_1
 62
7
100
AcDbSpline
 70
8
 71
3
 72
8
 73
4
 74
0
 40
0
 40
0
 40
0
 40
0
 40
1
 40
1
 40
1
 40
1
 10
23.566417
 20
8.612157
 30
0.0
 10
24.133881
 20
8.611140
 30
0.0
 10
24.701145
 20
8.611140
 30
0.0
 10
25.268517
 20
8.610327
 30
0.0
  0
SPLINE
  5
11e
100
AcDbEntity
  8
Camada_1
 62
7
100
AcDbSpline
 70
8
 71
3
 72
8
 73
4
 74
0
 40
0
 40
0
 40
0
 40
0
 40
1
 40
1
 40
1
 40
1
 10
25.268517
 20
8.610327
 30
0.0
 10
25.226314
 20
8.556177
 30
0.0
 10
25.184150
 20
8.501987
 30
0.0
 10
25.141948
 20
8.447838
 30
0.0
  0
SPLINE
  5
11f
100
AcDbEntity
  8
Camada_1
 62
7
100
AcDbSpline
 70
8
 71
3
 72
8
 73
4
 74
0
 40
0
 40
0
 40
0
 40
0
 40
1
 40
1
 40
1
 40
1
 10
25.141948
 20
8.447838
 30
0.0
 10
24.126957
 20
8.448855
 30
0.0
 10
23.112020
 20
8.448957
 30
0.0
 10
22.097093
 20
8.449872
 30
0.0
  0
SPLINE
  5
120
100
AcDbEntity
  8
Camada_1
 62
7
100
AcDbSpline
 70
8
 71
3
 72
8
 73
4
 74
0
 40
0
 40
0
 40
0
 40
0
 40
1
 40
1
 40
1
 40
1
 10
22.097093
 20
8.449872
 30
0.0
 10
22.537337
 20
9.909137
 30
0.0
 10
22.866740
 20
11.059210
 30
0.0
 10
22.941156
 20
11.366622
 30
0.0
  0
SPLINE
  5
121
100
AcDbEntity
  8
Camada_1
 62
7
100
AcDbSpline
 70
8
 71
3
 72
8
 73
4
 74
0
 40
0
 40
0
 40
0
 40
0
 40
1
 40
1
 40
1
 40
1
 10
22.941156
 20
11.366622
 30
0.0
 10
22.964879
 20
11.464628
 30
0.0
 10
23.010829
 20
11.682222
 30
0.0
 10
22.912208
 20
11.895433
 30
0.0
  0
SPLINE
  5
122
100
AcDbEntity
  8
Camada_1
 62
7
100
AcDbSpline
 70
8
 71
3
 72
8
 73
4
 74
0
 40
0
 40
0
 40
0
 40
0
 40
1
 40
1
 40
1
 40
1
 10
22.912208
 20
11.895433
 30
0.0
 10
24.085201
 20
11.906865
 30
0.0
 10
25.258206
 20
11.918358
 30
0.0
 10
26.431200
 20
11.929800
 30
0.0
  0
LWPOLYLINE
  5
123
100
AcDbEntity
  8
Camada_1
 62
7
100
AcDbPolyline
 90
3
 70
0
 10
23.438251
 20
8.777626
 30
0.0
 10
23.394330
 20
8.612157
 30
0.0
 10
23.566417
 20
8.612157
 30
0.0
  0
LWPOLYLINE
  5
124
100
AcDbEntity
  8
Camada_1
 62
7
100
AcDbPolyline
 90
2
 70
0
 10
26.431200
 20
11.929800
 30
0.0
 10
26.431200
 20
11.929983
 30
0.0
  0
LWPOLYLINE
  5
125
100
AcDbEntity
  8
Camada_1
 62
7
100
AcDbPolyline
 90
1
 70
1
 10
22.640281
 20
12.025029
 30
0.0
  0
SPLINE
  5
126
100
AcDbEntity
  8
Camada_1
 62
7
100
AcDbSpline
 70
8
 71
3
 72
8
 73
4
 74
0
 40
0
 40
0
 40
0
 40
0
 40
1
 40
1
 40
1
 40
1
 10
18.785928
 20
9.820336
 30
0.0
 10
19.902507
 20
9.765027
 30
0.0
 10
21.019248
 20
9.709759
 30
0.0
 10
22.135828
 20
9.654460
 30
0.0
  0
LWPOLYLINE
  5
127
100
AcDbEntity
  8
Camada_1
 62
7
100
AcDbPolyline
 90
3
 70
0
 10
22.135024
 20
10.255768
 30
0.0
 10
18.785724
 20
10.083943
 30
0.0
 10
18.785928
 20
9.820336
 30
0.0
  0
SPLINE
  5
128
100
AcDbEntity
  8
Camada_1
 62
7
100
AcDbSpline
 70
8
 71
3
 72
8
 73
4
 74
0
 40
0
 40
0
 40
0
 40
0
 40
1
 40
1
 40
1
 40
1
 10
22.274976
 20
9.787800
 30
0.0
 10
22.273678
 20
9.900289
 30
0.0
 10
22.272288
 20
10.012808
 30
0.0
 10
22.270980
 20
10.125297
 30
0.0
  0
LWPOLYLINE
  5
129
100
AcDbEntity
  8
Camada_1
 62
7
100
AcDbPolyline
 90
3
 70
0
 10
22.135828
 20
9.654460
 30
0.0
 10
22.276571
 20
9.647544
 30
0.0
 10
22.274976
 20
9.787800
 30
0.0
  0
SPLINE
  5
12a
100
AcDbEntity
  8
Camada_1
 62
7
100
AcDbSpline
 70
8
 71
3
 72
8
 73
4
 74
0
 40
0
 40
0
 40
0
 40
0
 40
1
 40
1
 40
1
 40
1
 10
22.007456
 20
9.984818
 30
0.0
 10
22.007661
 20
9.964883
 30
0.0
 10
22.007865
 20
9.944949
 30
0.0
 10
22.008069
 20
9.925024
 30
0.0
  0
SPLINE
  5
12b
100
AcDbEntity
  8
Camada_1
 62
7
100
AcDbSpline
 70
8
 71
3
 72
8
 73
4
 74
0
 40
0
 40
0
 40
0
 40
0
 40
1
 40
1
 40
1
 40
1
 10
22.008069
 20
9.925024
 30
0.0
 10
21.810173
 20
9.934788
 30
0.0
 10
21.612247
 20
9.944623
 30
0.0
 10
21.414351
 20
9.954418
 30
0.0
  0
LWPOLYLINE
  5
12c
100
AcDbEntity
  8
Camada_1
 62
7
100
AcDbPolyline
 90
4
 70
0
 10
22.270980
 20
10.125297
 30
0.0
 10
22.269580
 20
10.255809
 30
0.0
 10
22.138419
 20
10.255809
 30
0.0
 10
22.135024
 20
10.255768
 30
0.0
  0
LWPOLYLINE
  5
12d
100
AcDbEntity
  8
Camada_1
 62
7
100
AcDbPolyline
 90
2
 70
0
 10
21.414351
 20
9.954418
 30
0.0
 10
22.007456
 20
9.984818
 30
0.0
  0
SPLINE
  5
12e
100
AcDbEntity
  8
Camada_1
 62
7
100
AcDbSpline
 70
8
 71
3
 72
8
 73
4
 74
0
 40
0
 40
0
 40
0
 40
0
 40
1
 40
1
 40
1
 40
1
 10
27.958219
 20
11.212860
 30
0.0
 10
27.532707
 20
11.197238
 30
0.0
 10
27.284858
 20
11.185938
 30
0.0
 10
27.024120
 20
11.043608
 30
0.0
  0
SPLINE
  5
12f
100
AcDbEntity
  8
Camada_1
 62
7
100
AcDbSpline
 70
8
 71
3
 72
8
 73
4
 74
0
 40
0
 40
0
 40
0
 40
0
 40
1
 40
1
 40
1
 40
1
 10
27.024120
 20
11.043608
 30
0.0
 10
26.826115
 20
10.935533
 30
0.0
 10
26.702597
 20
10.798309
 30
0.0
 10
26.630637
 20
10.717227
 30
0.0
  0
SPLINE
  5
130
100
AcDbEntity
  8
Camada_1
 62
7
100
AcDbSpline
 70
8
 71
3
 72
8
 73
4
 74
0
 40
0
 40
0
 40
0
 40
0
 40
1
 40
1
 40
1
 40
1
 10
26.630637
 20
10.717227
 30
0.0
 10
26.567558
 20
10.646164
 30
0.0
 10
26.500593
 20
10.553844
 30
0.0
 10
26.421417
 20
10.362846
 30
0.0
  0
SPLINE
  5
131
100
AcDbEntity
  8
Camada_1
 62
7
100
AcDbSpline
 70
8
 71
3
 72
8
 73
4
 74
0
 40
0
 40
0
 40
0
 40
0
 40
1
 40
1
 40
1
 40
1
 10
26.421417
 20
10.362846
 30
0.0
 10
26.342242
 20
10.171839
 30
0.0
 10
26.242956
 20
9.874353
 30
0.0
 10
26.090820
 20
9.356293
 30
0.0
  0
SPLINE
  5
132
100
AcDbEntity
  8
Camada_1
 62
7
100
AcDbSpline
 70
8
 71
3
 72
8
 73
4
 74
0
 40
0
 40
0
 40
0
 40
0
 40
1
 40
1
 40
1
 40
1
 10
26.090820
 20
9.356293
 30
0.0
 10
26.042369
 20
9.191303
 30
0.0
 10
26.007193
 20
9.070179
 30
0.0
 10
25.991999
 20
8.958992
 30
0.0
  0
SPLINE
  5
133
100
AcDbEntity
  8
Camada_1
 62
7
100
AcDbSpline
 70
8
 71
3
 72
8
 73
4
 74
0
 40
0
 40
0
 40
0
 40
0
 40
1
 40
1
 40
1
 40
1
 10
25.991999
 20
8.958992
 30
0.0
 10
25.976805
 20
8.847804
 30
0.0
 10
25.986224
 20
8.741652
 30
0.0
 10
26.028333
 20
8.643341
 30
0.0
  0
SPLINE
  5
134
100
AcDbEntity
  8
Camada_1
 62
7
100
AcDbSpline
 70
8
 71
3
 72
8
 73
4
 74
0
 40
0
 40
0
 40
0
 40
0
 40
1
 40
1
 40
1
 40
1
 10
26.028333
 20
8.643341
 30
0.0
 10
26.130191
 20
8.405538
 30
0.0
 10
26.352242
 20
8.308793
 30
0.0
 10
26.452760
 20
8.262933
 30
0.0
  0
SPLINE
  5
135
100
AcDbEntity
  8
Camada_1
 62
7
100
AcDbSpline
 70
8
 71
3
 72
8
 73
4
 74
0
 40
0
 40
0
 40
0
 40
0
 40
1
 40
1
 40
1
 40
1
 10
26.452760
 20
8.262933
 30
0.0
 10
26.552916
 20
8.217235
 30
0.0
 10
26.651358
 20
8.194188
 30
0.0
 10
26.775971
 20
8.186845
 30
0.0
  0
SPLINE
  5
136
100
AcDbEntity
  8
Camada_1
 62
7
100
AcDbSpline
 70
8
 71
3
 72
8
 73
4
 74
0
 40
0
 40
0
 40
0
 40
0
 40
1
 40
1
 40
1
 40
1
 10
26.775971
 20
8.186845
 30
0.0
 10
26.900585
 20
8.179522
 30
0.0
 10
27.056397
 20
8.183794
 30
0.0
 10
27.309400
 20
8.185828
 30
0.0
  0
SPLINE
  5
137
100
AcDbEntity
  8
Camada_1
 62
7
100
AcDbSpline
 70
8
 71
3
 72
8
 73
4
 74
0
 40
0
 40
0
 40
0
 40
0
 40
1
 40
1
 40
1
 40
1
 10
27.309400
 20
8.185828
 30
0.0
 10
27.533960
 20
8.188066
 30
0.0
 10
27.759521
 20
8.186845
 30
0.0
 10
27.986367
 20
8.187964
 30
0.0
  0
LWPOLYLINE
  5
138
100
AcDbEntity
  8
Camada_1
 62
7
100
AcDbPolyline
 90
1
 70
1
 10
22.138431
 20
10.123710
 30
0.0
  0
SPLINE
  5
139
100
AcDbEntity
  8
Camada_1
 62
7
100
AcDbSpline
 70
8
 71
3
 72
8
 73
4
 74
0
 40
0
 40
0
 40
0
 40
0
 40
1
 40
1
 40
1
 40
1
 10
27.986572
 20
8.187964
 30
0.0
 10
28.339552
 20
8.189998
 30
0.0
 10
28.464485
 20
8.189795
 30
0.0
 10
28.685898
 20
8.194270
 30
0.0
  0
SPLINE
  5
13a
100
AcDbEntity
  8
Camada_1
 62
7
100
AcDbSpline
 70
8
 71
3
 72
8
 73
4
 74
0
 40
0
 40
0
 40
0
 40
0
 40
1
 40
1
 40
1
 40
1
 10
28.685898
 20
8.194270
 30
0.0
 10
28.978116
 20
8.200271
 30
0.0
 10
29.144607
 20
8.208214
 30
0.0
 10
29.253265
 20
8.219300
 30
0.0
  0
SPLINE
  5
13b
100
AcDbEntity
  8
Camada_1
 62
7
100
AcDbSpline
 70
8
 71
3
 72
8
 73
4
 74
0
 40
0
 40
0
 40
0
 40
0
 40
1
 40
1
 40
1
 40
1
 10
29.253265
 20
8.219300
 30
0.0
 10
29.361923
 20
8.230396
 30
0.0
 10
29.422821
 20
8.248928
 30
0.0
 10
29.464680
 20
8.265394
 30
0.0
  0
SPLINE
  5
13c
100
AcDbEntity
  8
Camada_1
 62
7
100
AcDbSpline
 70
8
 71
3
 72
8
 73
4
 74
0
 40
0
 40
0
 40
0
 40
0
 40
1
 40
1
 40
1
 40
1
 10
29.464680
 20
8.265394
 30
0.0
 10
29.578040
 20
8.309963
 30
0.0
 10
29.894377
 20
8.439935
 30
0.0
 10
30.076166
 20
8.788427
 30
0.0
  0
SPLINE
  5
13d
100
AcDbEntity
  8
Camada_1
 62
7
100
AcDbSpline
 70
8
 71
3
 72
8
 73
4
 74
0
 40
0
 40
0
 40
0
 40
0
 40
1
 40
1
 40
1
 40
1
 10
30.076166
 20
8.788427
 30
0.0
 10
30.194470
 20
9.015206
 30
0.0
 10
30.205245
 20
9.232474
 30
0.0
 10
30.203335
 20
9.346438
 30
0.0
  0
LWPOLYLINE
  5
13e
100
AcDbEntity
  8
Camada_1
 62
7
100
AcDbPolyline
 90
2
 70
0
 10
27.986367
 20
8.187964
 30
0.0
 10
27.986572
 20
8.187964
 30
0.0
  0
SPLINE
  5
13f
100
AcDbEntity
  8
Camada_1
 62
7
100
AcDbSpline
 70
8
 71
3
 72
8
 73
4
 74
0
 40
0
 40
0
 40
0
 40
0
 40
1
 40
1
 40
1
 40
1
 10
28.500032
 20
9.374845
 30
0.0
 10
28.453091
 20
9.179067
 30
0.0
 10
28.406029
 20
8.983208
 30
0.0
 10
28.359089
 20
8.787441
 30
0.0
  0
LWPOLYLINE
  5
140
100
AcDbEntity
  8
Camada_1
 62
7
100
AcDbPolyline
 90
4
 70
0
 10
30.203335
 20
9.346438
 30
0.0
 10
30.201137
 20
9.476156
 30
0.0
 10
28.524188
 20
9.476156
 30
0.0
 10
28.500032
 20
9.374845
 30
0.0
  0
SPLINE
  5
141
100
AcDbEntity
  8
Camada_1
 62
7
100
AcDbSpline
 70
8
 71
3
 72
8
 73
4
 74
0
 40
0
 40
0
 40
0
 40
0
 40
1
 40
1
 40
1
 40
1
 10
27.668945
 20
8.790594
 30
0.0
 10
27.838347
 20
9.365844
 30
0.0
 10
28.007818
 20
9.941012
 30
0.0
 10
28.177220
 20
10.516252
 30
0.0
  0
SPLINE
  5
142
100
AcDbEntity
  8
Camada_1
 62
7
100
AcDbSpline
 70
8
 71
3
 72
8
 73
4
 74
0
 40
0
 40
0
 40
0
 40
0
 40
1
 40
1
 40
1
 40
1
 10
28.177220
 20
10.516252
 30
0.0
 10
28.360224
 20
10.515235
 30
0.0
 10
28.543158
 20
10.515134
 30
0.0
 10
28.726020
 20
10.514625
 30
0.0
  0
SPLINE
  5
143
100
AcDbEntity
  8
Camada_1
 62
7
100
AcDbSpline
 70
8
 71
3
 72
8
 73
4
 74
0
 40
0
 40
0
 40
0
 40
0
 40
1
 40
1
 40
1
 40
1
 10
28.726020
 20
10.514625
 30
0.0
 10
28.707871
 20
10.399776
 30
0.0
 10
28.689669
 20
10.285019
 30
0.0
 10
28.671520
 20
10.170171
 30
0.0
  0
LWPOLYLINE
  5
144
100
AcDbEntity
  8
Camada_1
 62
7
100
AcDbPolyline
 90
2
 70
0
 10
28.359089
 20
8.787441
 30
0.0
 10
27.668945
 20
8.790594
 30
0.0
  0
SPLINE
  5
145
100
AcDbEntity
  8
Camada_1
 62
7
100
AcDbSpline
 70
8
 71
3
 72
8
 73
4
 74
0
 40
0
 40
0
 40
0
 40
0
 40
1
 40
1
 40
1
 40
1
 10
28.785512
 20
9.906961
 30
0.0
 10
29.298729
 20
9.909097
 30
0.0
 10
29.812057
 20
9.911232
 30
0.0
 10
30.325307
 20
9.913267
 30
0.0
  0
LWPOLYLINE
  5
146
100
AcDbEntity
  8
Camada_1
 62
7
100
AcDbPolyline
 90
6
 70
0
 10
28.671520
 20
10.170171
 30
0.0
 10
28.652355
 20
10.170171
 30
0.0
 10
28.652355
 20
10.038866
 30
0.0
 10
28.652355
 20
10.038866
 30
0.0
 10
28.898307
 20
10.019795
 30
0.0
 10
28.785512
 20
9.906961
 30
0.0
  0
SPLINE
  5
147
100
AcDbEntity
  8
Camada_1
 62
7
100
AcDbSpline
 70
8
 71
3
 72
8
 73
4
 74
0
 40
0
 40
0
 40
0
 40
0
 40
1
 40
1
 40
1
 40
1
 10
30.450280
 20
10.002261
 30
0.0
 10
30.470299
 20
10.060824
 30
0.0
 10
30.588712
 20
10.392931
 30
0.0
 10
30.412949
 20
10.697537
 30
0.0
  0
SPLINE
  5
148
100
AcDbEntity
  8
Camada_1
 62
7
100
AcDbSpline
 70
8
 71
3
 72
8
 73
4
 74
0
 40
0
 40
0
 40
0
 40
0
 40
1
 40
1
 40
1
 40
1
 10
30.412949
 20
10.697537
 30
0.0
 10
30.305504
 20
10.883733
 30
0.0
 10
30.131594
 20
10.976481
 30
0.0
 10
30.048412
 20
11.022921
 30
0.0
  0
SPLINE
  5
149
100
AcDbEntity
  8
Camada_1
 62
7
100
AcDbSpline
 70
8
 71
3
 72
8
 73
4
 74
0
 40
0
 40
0
 40
0
 40
0
 40
1
 40
1
 40
1
 40
1
 10
30.048412
 20
11.022921
 30
0.0
 10
29.993887
 20
11.053362
 30
0.0
 10
29.920138
 20
11.087709
 30
0.0
 10
29.809846
 20
11.121852
 30
0.0
  0
SPLINE
  5
14a
100
AcDbEntity
  8
Camada_1
 62
7
100
AcDbSpline
 70
8
 71
3
 72
8
 73
4
 74
0
 40
0
 40
0
 40
0
 40
0
 40
1
 40
1
 40
1
 40
1
 10
29.809846
 20
11.121852
 30
0.0
 10
29.578499
 20
11.193465
 30
0.0
 10
29.380189
 20
11.205843
 30
0.0
 10
29.205747
 20
11.211833
 30
0.0
  0
SPLINE
  5
14b
100
AcDbEntity
  8
Camada_1
 62
7
100
AcDbSpline
 70
8
 71
3
 72
8
 73
4
 74
0
 40
0
 40
0
 40
0
 40
0
 40
1
 40
1
 40
1
 40
1
 10
29.205747
 20
11.211833
 30
0.0
 10
28.949801
 20
11.220580
 30
0.0
 10
28.833697
 20
11.213054
 30
0.0
 10
28.520994
 20
11.210613
 30
0.0
  0
SPLINE
  5
14c
100
AcDbEntity
  8
Camada_1
 62
7
100
AcDbSpline
 70
8
 71
3
 72
8
 73
4
 74
0
 40
0
 40
0
 40
0
 40
0
 40
1
 40
1
 40
1
 40
1
 10
28.520994
 20
11.210613
 30
0.0
 10
28.103686
 20
11.207358
 30
0.0
 10
28.158729
 20
11.219360
 30
0.0
 10
27.958219
 20
11.212037
 30
0.0
  0
LWPOLYLINE
  5
14d
100
AcDbEntity
  8
Camada_1
 62
7
100
AcDbPolyline
 90
3
 70
0
 10
30.325307
 20
9.913267
 30
0.0
 10
30.419736
 20
9.913267
 30
0.0
 10
30.450280
 20
10.002261
 30
0.0
  0
SPLINE
  5
14e
100
AcDbEntity
  8
Camada_1
 62
7
100
AcDbSpline
 70
8
 71
3
 72
8
 73
4
 74
0
 40
0
 40
0
 40
0
 40
0
 40
1
 40
1
 40
1
 40
1
 10
27.968000
 20
10.949254
 30
0.0
 10
28.159549
 20
10.956272
 30
0.0
 10
28.100790
 20
10.944372
 30
0.0
 10
28.522990
 20
10.947626
 30
0.0
  0
SPLINE
  5
14f
100
AcDbEntity
  8
Camada_1
 62
7
100
AcDbSpline
 70
8
 71
3
 72
8
 73
4
 74
0
 40
0
 40
0
 40
0
 40
0
 40
1
 40
1
 40
1
 40
1
 10
28.522990
 20
10.947626
 30
0.0
 10
28.839394
 20
10.950067
 30
0.0
 10
28.948564
 20
10.957289
 30
0.0
 10
29.196563
 20
10.948847
 30
0.0
  0
SPLINE
  5
150
100
AcDbEntity
  8
Camada_1
 62
7
100
AcDbSpline
 70
8
 71
3
 72
8
 73
4
 74
0
 40
0
 40
0
 40
0
 40
0
 40
1
 40
1
 40
1
 40
1
 10
29.196563
 20
10.948847
 30
0.0
 10
29.365598
 20
10.943050
 30
0.0
 10
29.532182
 20
10.932380
 30
0.0
 10
29.731189
 20
10.870776
 30
0.0
  0
SPLINE
  5
151
100
AcDbEntity
  8
Camada_1
 62
7
100
AcDbSpline
 70
8
 71
3
 72
8
 73
4
 74
0
 40
0
 40
0
 40
0
 40
0
 40
1
 40
1
 40
1
 40
1
 10
29.731189
 20
10.870776
 30
0.0
 10
29.826059
 20
10.841413
 30
0.0
 10
29.877011
 20
10.816749
 30
0.0
 10
29.918649
 20
10.793498
 30
0.0
  0
SPLINE
  5
152
100
AcDbEntity
  8
Camada_1
 62
7
100
AcDbSpline
 70
8
 71
3
 72
8
 73
4
 74
0
 40
0
 40
0
 40
0
 40
0
 40
1
 40
1
 40
1
 40
1
 10
29.918649
 20
10.793498
 30
0.0
 10
30.001835
 20
10.747058
 30
0.0
 10
30.119520
 20
10.676992
 30
0.0
 10
30.182967
 20
10.567045
 30
0.0
  0
SPLINE
  5
153
100
AcDbEntity
  8
Camada_1
 62
7
100
AcDbSpline
 70
8
 71
3
 72
8
 73
4
 74
0
 40
0
 40
0
 40
0
 40
0
 40
1
 40
1
 40
1
 40
1
 10
30.182967
 20
10.567045
 30
0.0
 10
30.262236
 20
10.429668
 30
0.0
 10
30.238603
 20
10.274930
 30
0.0
 10
30.216306
 20
10.177290
 30
0.0
  0
SPLINE
  5
154
100
AcDbEntity
  8
Camada_1
 62
7
100
AcDbSpline
 70
8
 71
3
 72
8
 73
4
 74
0
 40
0
 40
0
 40
0
 40
0
 40
1
 40
1
 40
1
 40
1
 10
30.216306
 20
10.177290
 30
0.0
 10
29.790931
 20
10.175561
 30
0.0
 10
29.365631
 20
10.173730
 30
0.0
 10
28.940230
 20
10.171900
 30
0.0
  0
SPLINE
  5
155
100
AcDbEntity
  8
Camada_1
 62
7
100
AcDbSpline
 70
8
 71
3
 72
8
 73
4
 74
0
 40
0
 40
0
 40
0
 40
0
 40
1
 40
1
 40
1
 40
1
 10
28.940230
 20
10.171900
 30
0.0
 10
28.964159
 20
10.323333
 30
0.0
 10
28.988170
 20
10.474776
 30
0.0
 10
29.012100
 20
10.626209
 30
0.0
  0
LWPOLYLINE
  5
156
100
AcDbEntity
  8
Camada_1
 62
7
100
AcDbPolyline
 90
2
 70
0
 10
27.958219
 20
11.212037
 30
0.0
 10
27.958219
 20
11.212860
 30
0.0
  0
SPLINE
  5
157
100
AcDbEntity
  8
Camada_1
 62
7
100
AcDbSpline
 70
8
 71
3
 72
8
 73
4
 74
0
 40
0
 40
0
 40
0
 40
0
 40
1
 40
1
 40
1
 40
1
 10
28.881337
 20
10.778171
 30
0.0
 10
28.613519
 20
10.779188
 30
0.0
 10
28.345915
 20
10.779391
 30
0.0
 10
28.078400
 20
10.780408
 30
0.0
  0
LWPOLYLINE
  5
158
100
AcDbEntity
  8
Camada_1
 62
7
100
AcDbPolyline
 90
3
 70
0
 10
29.012100
 20
10.626209
 30
0.0
 10
29.036055
 20
10.778171
 30
0.0
 10
28.881337
 20
10.778171
 30
0.0
  0
SPLINE
  5
159
100
AcDbEntity
  8
Camada_1
 62
7
100
AcDbSpline
 70
8
 71
3
 72
8
 73
4
 74
0
 40
0
 40
0
 40
0
 40
0
 40
1
 40
1
 40
1
 40
1
 10
27.950632
 20
10.685261
 30
0.0
 10
27.755394
 20
10.022277
 30
0.0
 10
27.560138
 20
9.359172
 30
0.0
 10
27.364899
 20
8.696188
 30
0.0
  0
LWPOLYLINE
  5
15a
100
AcDbEntity
  8
Camada_1
 62
7
100
AcDbPolyline
 90
3
 70
0
 10
28.078400
 20
10.780408
 30
0.0
 10
27.978582
 20
10.780408
 30
0.0
 10
27.950632
 20
10.685261
 30
0.0
  0
SPLINE
  5
15b
100
AcDbEntity
  8
Camada_1
 62
7
100
AcDbSpline
 70
8
 71
3
 72
8
 73
4
 74
0
 40
0
 40
0
 40
0
 40
0
 40
1
 40
1
 40
1
 40
1
 10
28.592663
 20
8.624240
 30
0.0
 10
28.639632
 20
8.820130
 30
0.0
 10
28.686638
 20
9.015958
 30
0.0
 10
28.733607
 20
9.211848
 30
0.0
  0
LWPOLYLINE
  5
15c
100
AcDbEntity
  8
Camada_1
 62
7
100
AcDbPolyline
 90
4
 70
0
 10
27.364899
 20
8.696188
 30
0.0
 10
27.315390
 20
8.527933
 30
0.0
 10
28.568308
 20
8.522339
 30
0.0
 10
28.592663
 20
8.624240
 30
0.0
  0
SPLINE
  5
15d
100
AcDbEntity
  8
Camada_1
 62
7
100
AcDbSpline
 70
8
 71
3
 72
8
 73
4
 74
0
 40
0
 40
0
 40
0
 40
0
 40
1
 40
1
 40
1
 40
1
 10
29.927831
 20
9.211848
 30
0.0
 10
29.918295
 20
9.122863
 30
0.0
 10
29.898844
 20
9.020983
 30
0.0
 10
29.840790
 20
8.909704
 30
0.0
  0
SPLINE
  5
15e
100
AcDbEntity
  8
Camada_1
 62
7
100
AcDbSpline
 70
8
 71
3
 72
8
 73
4
 74
0
 40
0
 40
0
 40
0
 40
0
 40
1
 40
1
 40
1
 40
1
 10
29.840790
 20
8.909704
 30
0.0
 10
29.703791
 20
8.647074
 30
0.0
 10
29.474178
 20
8.552455
 30
0.0
 10
29.367253
 20
8.510419
 30
0.0
  0
SPLINE
  5
15f
100
AcDbEntity
  8
Camada_1
 62
7
100
AcDbSpline
 70
8
 71
3
 72
8
 73
4
 74
0
 40
0
 40
0
 40
0
 40
0
 40
1
 40
1
 40
1
 40
1
 10
29.367253
 20
8.510419
 30
0.0
 10
29.334494
 20
8.497532
 30
0.0
 10
29.319831
 20
8.491176
 30
0.0
 10
29.226110
 20
8.481615
 30
0.0
  0
SPLINE
  5
160
100
AcDbEntity
  8
Camada_1
 62
7
100
AcDbSpline
 70
8
 71
3
 72
8
 73
4
 74
0
 40
0
 40
0
 40
0
 40
0
 40
1
 40
1
 40
1
 40
1
 10
29.226110
 20
8.481615
 30
0.0
 10
29.132388
 20
8.472055
 30
0.0
 10
28.969807
 20
8.463725
 30
0.0
 10
28.680504
 20
8.457775
 30
0.0
  0
SPLINE
  5
161
100
AcDbEntity
  8
Camada_1
 62
7
100
AcDbSpline
 70
8
 71
3
 72
8
 73
4
 74
0
 40
0
 40
0
 40
0
 40
0
 40
1
 40
1
 40
1
 40
1
 10
28.680504
 20
8.457775
 30
0.0
 10
28.461281
 20
8.453300
 30
0.0
 10
28.338410
 20
8.453401
 30
0.0
 10
27.984970
 20
8.451469
 30
0.0
  0
SPLINE
  5
162
100
AcDbEntity
  8
Camada_1
 62
7
100
AcDbSpline
 70
8
 71
3
 72
8
 73
4
 74
0
 40
0
 40
0
 40
0
 40
0
 40
1
 40
1
 40
1
 40
1
 10
27.984970
 20
8.451469
 30
0.0
 10
27.760029
 20
8.450350
 30
0.0
 10
27.533818
 20
8.451469
 30
0.0
 10
27.306605
 20
8.449536
 30
0.0
  0
SPLINE
  5
163
100
AcDbEntity
  8
Camada_1
 62
7
100
AcDbSpline
 70
8
 71
3
 72
8
 73
4
 74
0
 40
0
 40
0
 40
0
 40
0
 40
1
 40
1
 40
1
 40
1
 10
27.306605
 20
8.449536
 30
0.0
 10
27.051928
 20
8.446994
 30
0.0
 10
26.895901
 20
8.443332
 30
0.0
 10
26.791544
 20
8.449536
 30
0.0
  0
SPLINE
  5
164
100
AcDbEntity
  8
Camada_1
 62
7
100
AcDbSpline
 70
8
 71
3
 72
8
 73
4
 74
0
 40
0
 40
0
 40
0
 40
0
 40
1
 40
1
 40
1
 40
1
 10
26.791544
 20
8.449536
 30
0.0
 10
26.687186
 20
8.455639
 30
0.0
 10
26.639416
 20
8.467478
 30
0.0
 10
26.563359
 20
8.502170
 30
0.0
  0
SPLINE
  5
165
100
AcDbEntity
  8
Camada_1
 62
7
100
AcDbSpline
 70
8
 71
3
 72
8
 73
4
 74
0
 40
0
 40
0
 40
0
 40
0
 40
1
 40
1
 40
1
 40
1
 10
26.563359
 20
8.502170
 30
0.0
 10
26.462849
 20
8.548030
 30
0.0
 10
26.328950
 20
8.613825
 30
0.0
 10
26.272289
 20
8.746117
 30
0.0
  0
SPLINE
  5
166
100
AcDbEntity
  8
Camada_1
 62
7
100
AcDbSpline
 70
8
 71
3
 72
8
 73
4
 74
0
 40
0
 40
0
 40
0
 40
0
 40
1
 40
1
 40
1
 40
1
 10
26.272289
 20
8.746117
 30
0.0
 10
26.248865
 20
8.800805
 30
0.0
 10
26.243918
 20
8.842190
 30
0.0
 10
26.254921
 20
8.922712
 30
0.0
  0
SPLINE
  5
167
100
AcDbEntity
  8
Camada_1
 62
7
100
AcDbSpline
 70
8
 71
3
 72
8
 73
4
 74
0
 40
0
 40
0
 40
0
 40
0
 40
1
 40
1
 40
1
 40
1
 10
26.254921
 20
8.922712
 30
0.0
 10
26.265924
 20
9.003235
 30
0.0
 10
26.297449
 20
9.117859
 30
0.0
 10
26.345556
 20
9.281670
 30
0.0
  0
SPLINE
  5
168
100
AcDbEntity
  8
Camada_1
 62
7
100
AcDbSpline
 70
8
 71
3
 72
8
 73
4
 74
0
 40
0
 40
0
 40
0
 40
0
 40
1
 40
1
 40
1
 40
1
 10
26.345556
 20
9.281670
 30
0.0
 10
26.496613
 20
9.796058
 30
0.0
 10
26.594953
 20
10.088143
 30
0.0
 10
26.666770
 20
10.261403
 30
0.0
  0
SPLINE
  5
169
100
AcDbEntity
  8
Camada_1
 62
7
100
AcDbSpline
 70
8
 71
3
 72
8
 73
4
 74
0
 40
0
 40
0
 40
0
 40
0
 40
1
 40
1
 40
1
 40
1
 10
26.666770
 20
10.261403
 30
0.0
 10
26.738589
 20
10.434662
 30
0.0
 10
26.775867
 20
10.481306
 30
0.0
 10
26.829474
 20
10.541700
 30
0.0
  0
SPLINE
  5
16a
100
AcDbEntity
  8
Camada_1
 62
7
100
AcDbSpline
 70
8
 71
3
 72
8
 73
4
 74
0
 40
0
 40
0
 40
0
 40
0
 40
1
 40
1
 40
1
 40
1
 10
26.829474
 20
10.541700
 30
0.0
 10
26.899908
 20
10.621052
 30
0.0
 10
26.995182
 20
10.726035
 30
0.0
 10
27.151688
 20
10.811460
 30
0.0
  0
SPLINE
  5
16b
100
AcDbEntity
  8
Camada_1
 62
7
100
AcDbSpline
 70
8
 71
3
 72
8
 73
4
 74
0
 40
0
 40
0
 40
0
 40
0
 40
1
 40
1
 40
1
 40
1
 10
27.151688
 20
10.811460
 30
0.0
 10
27.356788
 20
10.923420
 30
0.0
 10
27.543494
 20
10.932950
 30
0.0
 10
27.968000
 20
10.948532
 30
0.0
  0
LWPOLYLINE
  5
16c
100
AcDbEntity
  8
Camada_1
 62
7
100
AcDbPolyline
 90
2
 70
0
 10
28.733607
 20
9.211848
 30
0.0
 10
29.927831
 20
9.211848
 30
0.0
  0
LWPOLYLINE
  5
16d
100
AcDbEntity
  8
Camada_1
 62
7
100
AcDbPolyline
 90
2
 70
0
 10
27.968000
 20
10.948532
 30
0.0
 10
27.968000
 20
10.949254
 30
0.0
  0
LWPOLYLINE
  5
16e
100
AcDbEntity
  8
Camada_1
 62
7
100
AcDbPolyline
 90
1
 70
1
 10
28.785019
 20
10.039354
 30
0.0
  0
SPLINE
  5
16f
100
AcDbEntity
  8
Camada_1
 62
7
100
AcDbSpline
 70
8
 71
3
 72
8
 73
4
 74
0
 40
0
 40
0
 40
0
 40
0
 40
1
 40
1
 40
1
 40
1
 10
31.591003
 20
11.113197
 30
0.0
 10
31.492665
 20
11.091696
 30
0.0
 10
31.345366
 20
11.044157
 30
0.0
 10
31.202111
 20
10.929644
 30
0.0
  0
SPLINE
  5
170
100
AcDbEntity
  8
Camada_1
 62
7
100
AcDbSpline
 70
8
 71
3
 72
8
 73
4
 74
0
 40
0
 40
0
 40
0
 40
0
 40
1
 40
1
 40
1
 40
1
 10
31.202111
 20
10.929644
 30
0.0
 10
31.073896
 20
10.827163
 30
0.0
 10
30.962540
 20
10.674490
 30
0.0
 10
30.841567
 20
10.360914
 30
0.0
  0
SPLINE
  5
171
100
AcDbEntity
  8
Camada_1
 62
7
100
AcDbSpline
 70
8
 71
3
 72
8
 73
4
 74
0
 40
0
 40
0
 40
0
 40
0
 40
1
 40
1
 40
1
 40
1
 10
30.841567
 20
10.360914
 30
0.0
 10
30.770197
 20
10.175917
 30
0.0
 10
30.701981
 20
9.952678
 30
0.0
 10
30.595615
 20
9.336084
 30
0.0
  0
SPLINE
  5
172
100
AcDbEntity
  8
Camada_1
 62
7
100
AcDbSpline
 70
8
 71
3
 72
8
 73
4
 74
0
 40
0
 40
0
 40
0
 40
0
 40
1
 40
1
 40
1
 40
1
 10
30.595615
 20
9.336084
 30
0.0
 10
30.542344
 20
9.027278
 30
0.0
 10
30.515973
 20
8.838234
 30
0.0
 10
30.514164
 20
8.700816
 30
0.0
  0
SPLINE
  5
173
100
AcDbEntity
  8
Camada_1
 62
7
100
AcDbSpline
 70
8
 71
3
 72
8
 73
4
 74
0
 40
0
 40
0
 40
0
 40
0
 40
1
 40
1
 40
1
 40
1
 10
30.514164
 20
8.700816
 30
0.0
 10
30.512355
 20
8.563388
 30
0.0
 10
30.548143
 20
8.456269
 30
0.0
 10
30.610788
 20
8.388929
 30
0.0
  0
SPLINE
  5
174
100
AcDbEntity
  8
Camada_1
 62
7
100
AcDbSpline
 70
8
 71
3
 72
8
 73
4
 74
0
 40
0
 40
0
 40
0
 40
0
 40
1
 40
1
 40
1
 40
1
 10
30.610788
 20
8.388929
 30
0.0
 10
30.645374
 20
8.351754
 30
0.0
 10
30.701853
 20
8.315424
 30
0.0
 10
30.766305
 20
8.295764
 30
0.0
  0
SPLINE
  5
175
100
AcDbEntity
  8
Camada_1
 62
7
100
AcDbSpline
 70
8
 71
3
 72
8
 73
4
 74
0
 40
0
 40
0
 40
0
 40
0
 40
1
 40
1
 40
1
 40
1
 10
30.766305
 20
8.295764
 30
0.0
 10
30.830757
 20
8.276114
 30
0.0
 10
30.908821
 20
8.263218
 30
0.0
 10
31.032220
 20
8.246507
 30
0.0
  0
SPLINE
  5
176
100
AcDbEntity
  8
Camada_1
 62
7
100
AcDbSpline
 70
8
 71
3
 72
8
 73
4
 74
0
 40
0
 40
0
 40
0
 40
0
 40
1
 40
1
 40
1
 40
1
 10
31.032220
 20
8.246507
 30
0.0
 10
31.297536
 20
8.210574
 30
0.0
 10
31.526334
 20
8.194239
 30
0.0
 10
31.705194
 20
8.186509
 30
0.0
  0
LWPOLYLINE
  5
177
100
AcDbEntity
  8
Camada_1
 62
7
100
AcDbPolyline
 90
3
 70
0
 10
34.394097
 20
11.119299
 30
0.0
 10
31.605177
 20
11.116146
 30
0.0
 10
31.591003
 20
11.113197
 30
0.0
  0
SPLINE
  5
178
100
AcDbEntity
  8
Camada_1
 62
7
100
AcDbSpline
 70
8
 71
3
 72
8
 73
4
 74
0
 40
0
 40
0
 40
0
 40
0
 40
1
 40
1
 40
1
 40
1
 10
31.712981
 20
8.450442
 30
0.0
 10
31.689832
 20
8.451459
 30
0.0
 10
31.650980
 20
8.456849
 30
0.0
 10
31.626139
 20
8.458171
 30
0.0
  0
SPLINE
  5
179
100
AcDbEntity
  8
Camada_1
 62
7
100
AcDbSpline
 70
8
 71
3
 72
8
 73
4
 74
0
 40
0
 40
0
 40
0
 40
0
 40
1
 40
1
 40
1
 40
1
 10
31.626139
 20
8.458171
 30
0.0
 10
31.538609
 20
8.463155
 30
0.0
 10
31.404050
 20
8.483253
 30
0.0
 10
31.275178
 20
8.613317
 30
0.0
  0
SPLINE
  5
17a
100
AcDbEntity
  8
Camada_1
 62
7
100
AcDbSpline
 70
8
 71
3
 72
8
 73
4
 74
0
 40
0
 40
0
 40
0
 40
0
 40
1
 40
1
 40
1
 40
1
 10
31.275178
 20
8.613317
 30
0.0
 10
31.097741
 20
8.792404
 30
0.0
 10
31.093550
 20
9.045179
 30
0.0
 10
31.093907
 20
9.138933
 30
0.0
  0
SPLINE
  5
17b
100
AcDbEntity
  8
Camada_1
 62
7
100
AcDbSpline
 70
8
 71
3
 72
8
 73
4
 74
0
 40
0
 40
0
 40
0
 40
0
 40
1
 40
1
 40
1
 40
1
 10
31.093907
 20
9.138933
 30
0.0
 10
31.095267
 20
9.495776
 30
0.0
 10
31.312550
 20
9.750076
 30
0.0
 10
31.469224
 20
9.930557
 30
0.0
  0
SPLINE
  5
17c
100
AcDbEntity
  8
Camada_1
 62
7
100
AcDbSpline
 70
8
 71
3
 72
8
 73
4
 74
0
 40
0
 40
0
 40
0
 40
0
 40
1
 40
1
 40
1
 40
1
 10
31.469224
 20
9.930557
 30
0.0
 10
31.859505
 20
10.380147
 30
0.0
 10
32.337173
 20
10.520290
 30
0.0
 10
32.558840
 20
10.581518
 30
0.0
  0
SPLINE
  5
17d
100
AcDbEntity
  8
Camada_1
 62
7
100
AcDbSpline
 70
8
 71
3
 72
8
 73
4
 74
0
 40
0
 40
0
 40
0
 40
0
 40
1
 40
1
 40
1
 40
1
 10
32.558840
 20
10.581518
 30
0.0
 10
32.787388
 20
10.644659
 30
0.0
 10
33.060599
 20
10.656609
 30
0.0
 10
33.625298
 20
10.678070
 30
0.0
  0
SPLINE
  5
17e
100
AcDbEntity
  8
Camada_1
 62
7
100
AcDbSpline
 70
8
 71
3
 72
8
 73
4
 74
0
 40
0
 40
0
 40
0
 40
0
 40
1
 40
1
 40
1
 40
1
 10
33.625298
 20
10.678070
 30
0.0
 10
34.009983
 20
10.692685
 30
0.0
 10
34.330259
 20
10.692411
 30
0.0
 10
34.556003
 20
10.689186
 30
0.0
  0
LWPOLYLINE
  5
17f
100
AcDbEntity
  8
Camada_1
 62
7
100
AcDbPolyline
 90
4
 70
0
 10
31.705194
 20
8.186509
 30
0.0
 10
31.843543
 20
8.180509
 30
0.0
 10
31.843543
 20
8.456036
 30
0.0
 10
31.712981
 20
8.450442
 30
0.0
  0
SPLINE
  5
180
100
AcDbEntity
  8
Camada_1
 62
7
100
AcDbSpline
 70
8
 71
3
 72
8
 73
4
 74
0
 40
0
 40
0
 40
0
 40
0
 40
1
 40
1
 40
1
 40
1
 10
34.690357
 20
10.826401
 30
0.0
 10
34.689641
 20
10.843589
 30
0.0
 10
34.688456
 20
10.971629
 30
0.0
 10
34.574168
 20
11.060217
 30
0.0
  0
SPLINE
  5
181
100
AcDbEntity
  8
Camada_1
 62
7
100
AcDbSpline
 70
8
 71
3
 72
8
 73
4
 74
0
 40
0
 40
0
 40
0
 40
0
 40
1
 40
1
 40
1
 40
1
 10
34.574168
 20
11.060217
 30
0.0
 10
34.498172
 20
11.119116
 30
0.0
 10
34.416281
 20
11.120164
 30
0.0
 10
34.388706
 20
11.119014
 30
0.0
  0
LWPOLYLINE
  5
182
100
AcDbEntity
  8
Camada_1
 62
7
100
AcDbPolyline
 90
3
 70
0
 10
34.556003
 20
10.689186
 30
0.0
 10
34.695948
 20
10.687152
 30
0.0
 10
34.690357
 20
10.826401
 30
0.0
  0
SPLINE
  5
183
100
AcDbEntity
  8
Camada_1
 62
7
100
AcDbSpline
 70
8
 71
3
 72
8
 73
4
 74
0
 40
0
 40
0
 40
0
 40
0
 40
1
 40
1
 40
1
 40
1
 10
32.596572
 20
10.853302
 30
0.0
 10
32.563032
 20
10.846081
 30
0.0
 10
32.520297
 20
10.844861
 30
0.0
 10
32.487769
 20
10.835819
 30
0.0
  0
SPLINE
  5
184
100
AcDbEntity
  8
Camada_1
 62
7
100
AcDbSpline
 70
8
 71
3
 72
8
 73
4
 74
0
 40
0
 40
0
 40
0
 40
0
 40
1
 40
1
 40
1
 40
1
 10
32.487769
 20
10.835819
 30
0.0
 10
32.260366
 20
10.773014
 30
0.0
 10
31.711272
 20
10.613190
 30
0.0
 10
31.268391
 20
10.103013
 30
0.0
  0
SPLINE
  5
185
100
AcDbEntity
  8
Camada_1
 62
7
100
AcDbSpline
 70
8
 71
3
 72
8
 73
4
 74
0
 40
0
 40
0
 40
0
 40
0
 40
1
 40
1
 40
1
 40
1
 10
31.268391
 20
10.103013
 30
0.0
 10
31.160355
 20
9.978563
 30
0.0
 10
30.997861
 20
9.783030
 30
0.0
 10
30.903854
 20
9.524946
 30
0.0
  0
SPLINE
  5
186
100
AcDbEntity
  8
Camada_1
 62
7
100
AcDbSpline
 70
8
 71
3
 72
8
 73
4
 74
0
 40
0
 40
0
 40
0
 40
0
 40
1
 40
1
 40
1
 40
1
 10
30.903854
 20
9.524946
 30
0.0
 10
30.978292
 20
9.912727
 30
0.0
 10
31.034595
 20
10.124778
 30
0.0
 10
31.089117
 20
10.266102
 30
0.0
  0
SPLINE
  5
187
100
AcDbEntity
  8
Camada_1
 62
7
100
AcDbSpline
 70
8
 71
3
 72
8
 73
4
 74
0
 40
0
 40
0
 40
0
 40
0
 40
1
 40
1
 40
1
 40
1
 10
31.089117
 20
10.266102
 30
0.0
 10
31.201731
 20
10.558014
 30
0.0
 10
31.276882
 20
10.650782
 30
0.0
 10
31.368208
 20
10.723787
 30
0.0
  0
SPLINE
  5
188
100
AcDbEntity
  8
Camada_1
 62
7
100
AcDbSpline
 70
8
 71
3
 72
8
 73
4
 74
0
 40
0
 40
0
 40
0
 40
0
 40
1
 40
1
 40
1
 40
1
 10
31.368208
 20
10.723787
 30
0.0
 10
31.467915
 20
10.803486
 30
0.0
 10
31.569070
 20
10.835910
 30
0.0
 10
31.641710
 20
10.852316
 30
0.0
  0
LWPOLYLINE
  5
189
100
AcDbEntity
  8
Camada_1
 62
7
100
AcDbPolyline
 90
2
 70
0
 10
34.388706
 20
11.119014
 30
0.0
 10
34.394097
 20
11.119299
 30
0.0
  0
SPLINE
  5
18a
100
AcDbEntity
  8
Camada_1
 62
7
100
AcDbSpline
 70
8
 71
3
 72
8
 73
4
 74
0
 40
0
 40
0
 40
0
 40
0
 40
1
 40
1
 40
1
 40
1
 10
30.832583
 20
9.104210
 30
0.0
 10
30.832788
 20
8.999207
 30
0.0
 10
30.848744
 20
8.748771
 30
0.0
 10
31.023037
 20
8.516206
 30
0.0
  0
SPLINE
  5
18b
100
AcDbEntity
  8
Camada_1
 62
7
100
AcDbSpline
 70
8
 71
3
 72
8
 73
4
 74
0
 40
0
 40
0
 40
0
 40
0
 40
1
 40
1
 40
1
 40
1
 10
31.023037
 20
8.516206
 30
0.0
 10
30.943224
 20
8.528197
 30
0.0
 10
30.871678
 20
8.539741
 30
0.0
 10
30.843963
 20
8.548193
 30
0.0
  0
SPLINE
  5
18c
100
AcDbEntity
  8
Camada_1
 62
7
100
AcDbSpline
 70
8
 71
3
 72
8
 73
4
 74
0
 40
0
 40
0
 40
0
 40
0
 40
1
 40
1
 40
1
 40
1
 10
30.843963
 20
8.548193
 30
0.0
 10
30.809263
 20
8.558771
 30
0.0
 10
30.816151
 20
8.556737
 30
0.0
 10
30.805433
 20
8.568250
 30
0.0
  0
SPLINE
  5
18d
100
AcDbEntity
  8
Camada_1
 62
7
100
AcDbSpline
 70
8
 71
3
 72
8
 73
4
 74
0
 40
0
 40
0
 40
0
 40
0
 40
1
 40
1
 40
1
 40
1
 10
30.805433
 20
8.568250
 30
0.0
 10
30.786021
 20
8.589120
 30
0.0
 10
30.777902
 20
8.592660
 30
0.0
 10
30.779281
 20
8.697378
 30
0.0
  0
SPLINE
  5
18e
100
AcDbEntity
  8
Camada_1
 62
7
100
AcDbSpline
 70
8
 71
3
 72
8
 73
4
 74
0
 40
0
 40
0
 40
0
 40
0
 40
1
 40
1
 40
1
 40
1
 10
30.779281
 20
8.697378
 30
0.0
 10
30.780201
 20
8.769093
 30
0.0
 10
30.808569
 20
8.944559
 30
0.0
 10
30.832583
 20
9.104210
 30
0.0
  0
LWPOLYLINE
  5
18f
100
AcDbEntity
  8
Camada_1
 62
7
100
AcDbPolyline
 90
2
 70
0
 10
31.641710
 20
10.852316
 30
0.0
 10
32.596572
 20
10.853302
 30
0.0
  0
LWPOLYLINE
  5
190
100
AcDbEntity
  8
Camada_1
 62
7
100
AcDbPolyline
 90
1
 70
1
 10
30.832583
 20
9.104210
 30
0.0
  0
LWPOLYLINE
  5
191
100
AcDbEntity
  8
Camada_1
 62
7
100
AcDbPolyline
 90
1
 70
1
 10
31.710981
 20
8.318282
 30
0.0
  0
SPLINE
  5
192
100
AcDbEntity
  8
Camada_1
 62
7
100
AcDbSpline
 70
8
 71
3
 72
8
 73
4
 74
0
 40
0
 40
0
 40
0
 40
0
 40
1
 40
1
 40
1
 40
1
 10
34.510685
 20
10.810392
 30
0.0
 10
34.424903
 20
10.615804
 30
0.0
 10
34.286278
 20
10.326720
 30
0.0
 10
34.082066
 20
9.998325
 30
0.0
  0
SPLINE
  5
193
100
AcDbEntity
  8
Camada_1
 62
7
100
AcDbSpline
 70
8
 71
3
 72
8
 73
4
 74
0
 40
0
 40
0
 40
0
 40
0
 40
1
 40
1
 40
1
 40
1
 10
34.082066
 20
9.998325
 30
0.0
 10
33.818962
 20
9.575220
 30
0.0
 10
33.549088
 20
9.143225
 30
0.0
 10
33.064519
 20
8.797693
 30
0.0
  0
SPLINE
  5
194
100
AcDbEntity
  8
Camada_1
 62
7
100
AcDbSpline
 70
8
 71
3
 72
8
 73
4
 74
0
 40
0
 40
0
 40
0
 40
0
 40
1
 40
1
 40
1
 40
1
 10
33.064519
 20
8.797693
 30
0.0
 10
32.789021
 20
8.601244
 30
0.0
 10
32.532990
 20
8.496363
 30
0.0
 10
32.364793
 20
8.439325
 30
0.0
  0
LWPOLYLINE
  5
195
100
AcDbEntity
  8
Camada_1
 62
7
100
AcDbPolyline
 90
2
 70
0
 10
34.587745
 20
10.985004
 30
0.0
 10
34.510685
 20
10.810392
 30
0.0
  0
SPLINE
  5
196
100
AcDbEntity
  8
Camada_1
 62
7
100
AcDbSpline
 70
8
 71
3
 72
8
 73
4
 74
0
 40
0
 40
0
 40
0
 40
0
 40
1
 40
1
 40
1
 40
1
 10
32.399131
 20
8.182675
 30
0.0
 10
32.511138
 20
8.175454
 30
0.0
 10
32.674034
 20
8.168680
 30
0.0
 10
32.870472
 20
8.174742
 30
0.0
  0
SPLINE
  5
197
100
AcDbEntity
  8
Camada_1
 62
7
100
AcDbSpline
 70
8
 71
3
 72
8
 73
4
 74
0
 40
0
 40
0
 40
0
 40
0
 40
1
 40
1
 40
1
 40
1
 10
32.870472
 20
8.174742
 30
0.0
 10
33.408495
 20
8.191300
 30
0.0
 10
33.743026
 20
8.199843
 30
0.0
 10
34.068491
 20
8.394045
 30
0.0
  0
SPLINE
  5
198
100
AcDbEntity
  8
Camada_1
 62
7
100
AcDbSpline
 70
8
 71
3
 72
8
 73
4
 74
0
 40
0
 40
0
 40
0
 40
0
 40
1
 40
1
 40
1
 40
1
 10
34.068491
 20
8.394045
 30
0.0
 10
34.507210
 20
8.655912
 30
0.0
 10
34.680989
 20
9.103152
 30
0.0
 10
34.795965
 20
9.391861
 30
0.0
  0
SPLINE
  5
199
100
AcDbEntity
  8
Camada_1
 62
7
100
AcDbSpline
 70
8
 71
3
 72
8
 73
4
 74
0
 40
0
 40
0
 40
0
 40
0
 40
1
 40
1
 40
1
 40
1
 10
34.795965
 20
9.391861
 30
0.0
 10
34.899760
 20
9.652498
 30
0.0
 10
35.129383
 20
10.187624
 30
0.0
 10
34.880212
 20
10.646917
 30
0.0
  0
SPLINE
  5
19a
100
AcDbEntity
  8
Camada_1
 62
7
100
AcDbSpline
 70
8
 71
3
 72
8
 73
4
 74
0
 40
0
 40
0
 40
0
 40
0
 40
1
 40
1
 40
1
 40
1
 10
34.880212
 20
10.646917
 30
0.0
 10
34.828096
 20
10.742980
 30
0.0
 10
34.767359
 20
10.810402
 30
0.0
 10
34.724895
 20
10.851726
 30
0.0
  0
LWPOLYLINE
  5
19b
100
AcDbEntity
  8
Camada_1
 62
7
100
AcDbPolyline
 90
2
 70
0
 10
32.364793
 20
8.439325
 30
0.0
 10
32.399131
 20
8.182675
 30
0.0
  0
SPLINE
  5
19c
100
AcDbEntity
  8
Camada_1
 62
7
100
AcDbSpline
 70
8
 71
3
 72
8
 73
4
 74
0
 40
0
 40
0
 40
0
 40
0
 40
1
 40
1
 40
1
 40
1
 10
34.650431
 20
10.508848
 30
0.0
 10
34.811499
 20
10.193594
 30
0.0
 10
34.651934
 20
9.746404
 30
0.0
 10
34.549415
 20
9.488992
 30
0.0
  0
SPLINE
  5
19d
100
AcDbEntity
  8
Camada_1
 62
7
100
AcDbSpline
 70
8
 71
3
 72
8
 73
4
 74
0
 40
0
 40
0
 40
0
 40
0
 40
1
 40
1
 40
1
 40
1
 10
34.549415
 20
9.488992
 30
0.0
 10
34.434437
 20
9.200273
 30
0.0
 10
34.282267
 20
8.829477
 30
0.0
 10
33.932139
 20
8.620497
 30
0.0
  0
SPLINE
  5
19e
100
AcDbEntity
  8
Camada_1
 62
7
100
AcDbSpline
 70
8
 71
3
 72
8
 73
4
 74
0
 40
0
 40
0
 40
0
 40
0
 40
1
 40
1
 40
1
 40
1
 10
33.932139
 20
8.620497
 30
0.0
 10
33.697948
 20
8.480710
 30
0.0
 10
33.428285
 20
8.461406
 30
0.0
 10
32.988258
 20
8.446282
 30
0.0
  0
SPLINE
  5
19f
100
AcDbEntity
  8
Camada_1
 62
7
100
AcDbSpline
 70
8
 71
3
 72
8
 73
4
 74
0
 40
0
 40
0
 40
0
 40
0
 40
1
 40
1
 40
1
 40
1
 10
32.988258
 20
8.446282
 30
0.0
 10
33.065176
 20
8.490738
 30
0.0
 10
33.137631
 20
8.525105
 30
0.0
 10
33.219038
 20
8.583150
 30
0.0
  0
SPLINE
  5
1a0
100
AcDbEntity
  8
Camada_1
 62
7
100
AcDbSpline
 70
8
 71
3
 72
8
 73
4
 74
0
 40
0
 40
0
 40
0
 40
0
 40
1
 40
1
 40
1
 40
1
 10
33.219038
 20
8.583150
 30
0.0
 10
33.750937
 20
8.962429
 30
0.0
 10
34.044350
 20
9.436358
 30
0.0
 10
34.307456
 20
9.859463
 30
0.0
  0
SPLINE
  5
1a1
100
AcDbEntity
  8
Camada_1
 62
7
100
AcDbSpline
 70
8
 71
3
 72
8
 73
4
 74
0
 40
0
 40
0
 40
0
 40
0
 40
1
 40
1
 40
1
 40
1
 10
34.307456
 20
9.859463
 30
0.0
 10
34.470852
 20
10.122226
 30
0.0
 10
34.561730
 20
10.320678
 30
0.0
 10
34.650431
 20
10.508848
 30
0.0
  0
LWPOLYLINE
  5
1a2
100
AcDbEntity
  8
Camada_1
 62
7
100
AcDbPolyline
 90
2
 70
0
 10
34.724895
 20
10.851726
 30
0.0
 10
34.587745
 20
10.985004
 30
0.0
  0
LWPOLYLINE
  5
1a3
100
AcDbEntity
  8
Camada_1
 62
7
100
AcDbPolyline
 90
1
 70
1
 10
34.650431
 20
10.508848
 30
0.0
  0
SPLINE
  5
1a4
100
AcDbEntity
  8
Camada_1
 62
7
100
AcDbSpline
 70
8
 71
3
 72
8
 73
4
 74
0
 40
0
 40
0
 40
0
 40
0
 40
1
 40
1
 40
1
 40
1
 10
33.585570
 20
10.361646
 30
0.0
 10
33.247087
 20
10.272163
 30
0.0
 10
32.844068
 20
10.134085
 30
0.0
 10
32.409711
 20
9.915880
 30
0.0
  0
SPLINE
  5
1a5
100
AcDbEntity
  8
Camada_1
 62
7
100
AcDbSpline
 70
8
 71
3
 72
8
 73
4
 74
0
 40
0
 40
0
 40
0
 40
0
 40
1
 40
1
 40
1
 40
1
 10
32.409711
 20
9.915880
 30
0.0
 10
31.842845
 20
9.631129
 30
0.0
 10
31.400491
 20
9.299286
 30
0.0
 10
31.077737
 20
9.016202
 30
0.0
  0
LWPOLYLINE
  5
1a6
100
AcDbEntity
  8
Camada_1
 62
7
100
AcDbPolyline
 90
1
 70
1
 10
34.632153
 20
10.757310
 30
0.0
  0
SPLINE
  5
1a7
100
AcDbEntity
  8
Camada_1
 62
7
100
AcDbSpline
 70
8
 71
3
 72
8
 73
4
 74
0
 40
0
 40
0
 40
0
 40
0
 40
1
 40
1
 40
1
 40
1
 10
31.236449
 20
8.805636
 30
0.0
 10
31.650362
 20
9.066599
 30
0.0
 10
32.100993
 20
9.329422
 30
0.0
 10
32.588187
 20
9.585330
 30
0.0
  0
SPLINE
  5
1a8
100
AcDbEntity
  8
Camada_1
 62
7
100
AcDbSpline
 70
8
 71
3
 72
8
 73
4
 74
0
 40
0
 40
0
 40
0
 40
0
 40
1
 40
1
 40
1
 40
1
 10
32.588187
 20
9.585330
 30
0.0
 10
32.962107
 20
9.781748
 30
0.0
 10
33.325086
 20
9.957062
 30
0.0
 10
33.674209
 20
10.113733
 30
0.0
  0
LWPOLYLINE
  5
1a9
100
AcDbEntity
  8
Camada_1
 62
7
100
AcDbPolyline
 90
2
 70
0
 10
31.077737
 20
9.016202
 30
0.0
 10
31.236449
 20
8.805636
 30
0.0
  0
LWPOLYLINE
  5
1aa
100
AcDbEntity
  8
Camada_1
 62
7
100
AcDbPolyline
 90
2
 70
0
 10
33.674209
 20
10.113733
 30
0.0
 10
33.585570
 20
10.361646
 30
0.0
  0
LWPOLYLINE
  5
1ab
100
AcDbEntity
  8
Camada_1
 62
7
100
AcDbPolyline
 90
1
 70
1
 10
33.619680
 20
10.234053
 30
0.0
  0
SPLINE
  5
1ac
100
AcDbEntity
  8
Camada_1
 62
7
100
AcDbSpline
 70
8
 71
3
 72
8
 73
4
 74
0
 40
0
 40
0
 40
0
 40
0
 40
1
 40
1
 40
1
 40
1
 10
36.211787
 20
10.029509
 30
0.0
 10
35.890152
 20
10.402807
 30
0.0
 10
35.568579
 20
10.776198
 30
0.0
 10
35.246944
 20
11.149486
 30
0.0
  0
SPLINE
  5
1ad
100
AcDbEntity
  8
Camada_1
 62
7
100
AcDbSpline
 70
8
 71
3
 72
8
 73
4
 74
0
 40
0
 40
0
 40
0
 40
0
 40
1
 40
1
 40
1
 40
1
 10
35.246944
 20
11.149486
 30
0.0
 10
36.146922
 20
11.143587
 30
0.0
 10
37.046862
 20
11.137729
 30
0.0
 10
37.946828
 20
11.131809
 30
0.0
  0
SPLINE
  5
1ae
100
AcDbEntity
  8
Camada_1
 62
7
100
AcDbSpline
 70
8
 71
3
 72
8
 73
4
 74
0
 40
0
 40
0
 40
0
 40
0
 40
1
 40
1
 40
1
 40
1
 10
37.946828
 20
11.131809
 30
0.0
 10
38.158583
 20
10.817125
 30
0.0
 10
38.370314
 20
10.502512
 30
0.0
 10
38.582070
 20
10.187827
 30
0.0
  0
LWPOLYLINE
  5
1af
100
AcDbEntity
  8
Camada_1
 62
7
100
AcDbPolyline
 90
7
 70
0
 10
33.927147
 20
11.636972
 30
0.0
 10
35.775981
 20
9.582350
 30
0.0
 10
35.775981
 20
8.521373
 30
0.0
 10
36.243729
 20
8.521373
 30
0.0
 10
36.243729
 20
9.943301
 30
0.0
 10
36.243729
 20
9.992558
 30
0.0
 10
36.211787
 20
10.029509
 30
0.0
  0
SPLINE
  5
1b0
100
AcDbEntity
  8
Camada_1
 62
7
100
AcDbSpline
 70
8
 71
3
 72
8
 73
4
 74
0
 40
0
 40
0
 40
0
 40
0
 40
1
 40
1
 40
1
 40
1
 10
38.690074
 20
10.129203
 30
0.0
 10
39.016151
 20
10.124016
 30
0.0
 10
39.489995
 20
10.116286
 30
0.0
 10
40.061377
 20
10.105962
 30
0.0
  0
SPLINE
  5
1b1
100
AcDbEntity
  8
Camada_1
 62
7
100
AcDbSpline
 70
8
 71
3
 72
8
 73
4
 74
0
 40
0
 40
0
 40
0
 40
0
 40
1
 40
1
 40
1
 40
1
 10
40.061377
 20
10.105962
 30
0.0
 10
41.887784
 20
10.072928
 30
0.0
 10
42.800129
 20
10.056532
 30
0.0
 10
43.834305
 20
10.021138
 30
0.0
  0
SPLINE
  5
1b2
100
AcDbEntity
  8
Camada_1
 62
7
100
AcDbSpline
 70
8
 71
3
 72
8
 73
4
 74
0
 40
0
 40
0
 40
0
 40
0
 40
1
 40
1
 40
1
 40
1
 10
43.834305
 20
10.021138
 30
0.0
 10
45.934131
 20
9.949281
 30
0.0
 10
46.786519
 20
9.865576
 30
0.0
 10
47.172625
 20
9.824079
 30
0.0
  0
LWPOLYLINE
  5
1b3
100
AcDbEntity
  8
Camada_1
 62
7
100
AcDbPolyline
 90
3
 70
0
 10
38.582070
 20
10.187827
 30
0.0
 10
38.620800
 20
10.130423
 30
0.0
 10
38.690074
 20
10.129203
 30
0.0
  0
SPLINE
  5
1b4
100
AcDbEntity
  8
Camada_1
 62
7
100
AcDbSpline
 70
8
 71
3
 72
8
 73
4
 74
0
 40
0
 40
0
 40
0
 40
0
 40
1
 40
1
 40
1
 40
1
 10
47.186802
 20
9.823062
 30
0.0
 10
47.186802
 20
9.823062
 30
0.0
 10
47.238547
 20
9.816858
 30
0.0
 10
47.354696
 20
9.802598
 30
0.0
  0
SPLINE
  5
1b5
100
AcDbEntity
  8
Camada_1
 62
7
100
AcDbSpline
 70
8
 71
3
 72
8
 73
4
 74
0
 40
0
 40
0
 40
0
 40
0
 40
1
 40
1
 40
1
 40
1
 10
47.354696
 20
9.802598
 30
0.0
 10
47.470846
 20
9.788349
 30
0.0
 10
47.636641
 20
9.766970
 30
0.0
 10
47.834423
 20
9.738634
 30
0.0
  0
SPLINE
  5
1b6
100
AcDbEntity
  8
Camada_1
 62
7
100
AcDbSpline
 70
8
 71
3
 72
8
 73
4
 74
0
 40
0
 40
0
 40
0
 40
0
 40
1
 40
1
 40
1
 40
1
 10
47.834423
 20
9.738634
 30
0.0
 10
48.229987
 20
9.681962
 30
0.0
 10
48.753838
 20
9.597179
 30
0.0
 10
49.264419
 20
9.485951
 30
0.0
  0
SPLINE
  5
1b7
100
AcDbEntity
  8
Camada_1
 62
7
100
AcDbSpline
 70
8
 71
3
 72
8
 73
4
 74
0
 40
0
 40
0
 40
0
 40
0
 40
1
 40
1
 40
1
 40
1
 10
49.264419
 20
9.485951
 30
0.0
 10
49.609089
 20
9.410870
 30
0.0
 10
49.934112
 20
9.325039
 30
0.0
 10
50.011657
 20
9.304392
 30
0.0
  0
SPLINE
  5
1b8
100
AcDbEntity
  8
Camada_1
 62
7
100
AcDbSpline
 70
8
 71
3
 72
8
 73
4
 74
0
 40
0
 40
0
 40
0
 40
0
 40
1
 40
1
 40
1
 40
1
 10
50.011657
 20
9.304392
 30
0.0
 10
50.235697
 20
9.244740
 30
0.0
 10
50.490927
 20
9.172009
 30
0.0
 10
50.789042
 20
9.071369
 30
0.0
  0
SPLINE
  5
1b9
100
AcDbEntity
  8
Camada_1
 62
7
100
AcDbSpline
 70
8
 71
3
 72
8
 73
4
 74
0
 40
0
 40
0
 40
0
 40
0
 40
1
 40
1
 40
1
 40
1
 10
50.789042
 20
9.071369
 30
0.0
 10
51.137055
 20
8.953896
 30
0.0
 10
51.300260
 20
8.881490
 30
0.0
 10
51.479385
 20
8.763661
 30
0.0
  0
SPLINE
  5
1ba
100
AcDbEntity
  8
Camada_1
 62
7
100
AcDbSpline
 70
8
 71
3
 72
8
 73
4
 74
0
 40
0
 40
0
 40
0
 40
0
 40
1
 40
1
 40
1
 40
1
 10
51.479385
 20
8.763661
 30
0.0
 10
51.732256
 20
8.597349
 30
0.0
 10
51.761751
 20
8.519237
 30
0.0
 10
51.781834
 20
8.452181
 30
0.0
  0
SPLINE
  5
1bb
100
AcDbEntity
  8
Camada_1
 62
7
100
AcDbSpline
 70
8
 71
3
 72
8
 73
4
 74
0
 40
0
 40
0
 40
0
 40
0
 40
1
 40
1
 40
1
 40
1
 10
51.781834
 20
8.452181
 30
0.0
 10
51.804822
 20
8.375442
 30
0.0
 10
51.815399
 20
8.243802
 30
0.0
 10
51.758077
 20
8.130773
 30
0.0
  0
SPLINE
  5
1bc
100
AcDbEntity
  8
Camada_1
 62
7
100
AcDbSpline
 70
8
 71
3
 72
8
 73
4
 74
0
 40
0
 40
0
 40
0
 40
0
 40
1
 40
1
 40
1
 40
1
 10
51.758077
 20
8.130773
 30
0.0
 10
51.723412
 20
8.062426
 30
0.0
 10
51.676706
 20
8.021753
 30
0.0
 10
51.648078
 20
8.000455
 30
0.0
  0
LWPOLYLINE
  5
1bd
100
AcDbEntity
  8
Camada_1
 62
7
100
AcDbPolyline
 90
3
 70
0
 10
47.172625
 20
9.824079
 30
0.0
 10
47.179616
 20
9.823062
 30
0.0
 10
47.186802
 20
9.823062
 30
0.0
  0
SPLINE
  5
1be
100
AcDbEntity
  8
Camada_1
 62
7
100
AcDbSpline
 70
8
 71
3
 72
8
 73
4
 74
0
 40
0
 40
0
 40
0
 40
0
 40
1
 40
1
 40
1
 40
1
 10
51.726335
 20
7.762703
 30
0.0
 10
51.844287
 20
7.761685
 30
0.0
 10
51.961911
 20
7.761685
 30
0.0
 10
52.079093
 20
7.761685
 30
0.0
  0
LWPOLYLINE
  5
1bf
100
AcDbEntity
  8
Camada_1
 62
7
100
AcDbPolyline
 90
3
 70
0
 10
51.648078
 20
8.000455
 30
0.0
 10
51.333051
 20
7.766059
 30
0.0
 10
51.726335
 20
7.762703
 30
0.0
  0
SPLINE
  5
1c0
100
AcDbEntity
  8
Camada_1
 62
7
100
AcDbSpline
 70
8
 71
3
 72
8
 73
4
 74
0
 40
0
 40
0
 40
0
 40
0
 40
1
 40
1
 40
1
 40
1
 10
52.148965
 20
7.781549
 30
0.0
 10
52.189653
 20
7.806640
 30
0.0
 10
52.523188
 20
8.006914
 30
0.0
 10
52.527475
 20
8.383457
 30
0.0
  0
SPLINE
  5
1c1
100
AcDbEntity
  8
Camada_1
 62
7
100
AcDbSpline
 70
8
 71
3
 72
8
 73
4
 74
0
 40
0
 40
0
 40
0
 40
0
 40
1
 40
1
 40
1
 40
1
 10
52.527475
 20
8.383457
 30
0.0
 10
52.529694
 20
8.578400
 30
0.0
 10
52.433583
 20
8.721259
 30
0.0
 10
52.375353
 20
8.807365
 30
0.0
  0
SPLINE
  5
1c2
100
AcDbEntity
  8
Camada_1
 62
7
100
AcDbSpline
 70
8
 71
3
 72
8
 73
4
 74
0
 40
0
 40
0
 40
0
 40
0
 40
1
 40
1
 40
1
 40
1
 10
52.375353
 20
8.807365
 30
0.0
 10
52.207464
 20
9.055655
 30
0.0
 10
51.982571
 20
9.172853
 30
0.0
 10
51.755283
 20
9.280348
 30
0.0
  0
SPLINE
  5
1c3
100
AcDbEntity
  8
Camada_1
 62
7
100
AcDbSpline
 70
8
 71
3
 72
8
 73
4
 74
0
 40
0
 40
0
 40
0
 40
0
 40
1
 40
1
 40
1
 40
1
 10
51.755283
 20
9.280348
 30
0.0
 10
51.459975
 20
9.420024
 30
0.0
 10
51.256974
 20
9.506241
 30
0.0
 10
51.126628
 20
9.557858
 30
0.0
  0
SPLINE
  5
1c4
100
AcDbEntity
  8
Camada_1
 62
7
100
AcDbSpline
 70
8
 71
3
 72
8
 73
4
 74
0
 40
0
 40
0
 40
0
 40
0
 40
1
 40
1
 40
1
 40
1
 10
51.126628
 20
9.557858
 30
0.0
 10
51.061454
 20
9.583672
 30
0.0
 10
51.014406
 20
9.600799
 30
0.0
 10
50.983089
 20
9.611692
 30
0.0
  0
SPLINE
  5
1c5
100
AcDbEntity
  8
Camada_1
 62
7
100
AcDbSpline
 70
8
 71
3
 72
8
 73
4
 74
0
 40
0
 40
0
 40
0
 40
0
 40
1
 40
1
 40
1
 40
1
 10
50.983089
 20
9.611692
 30
0.0
 10
50.951771
 20
9.622595
 30
0.0
 10
50.933779
 20
9.627782
 30
0.0
 10
50.933779
 20
9.627782
 30
0.0
  0
SPLINE
  5
1c6
100
AcDbEntity
  8
Camada_1
 62
7
100
AcDbSpline
 70
8
 71
3
 72
8
 73
4
 74
0
 40
0
 40
0
 40
0
 40
0
 40
1
 40
1
 40
1
 40
1
 10
50.933779
 20
9.627782
 30
0.0
 10
50.482148
 20
9.766573
 30
0.0
 10
49.840331
 20
9.945671
 30
0.0
 10
49.059592
 20
10.101559
 30
0.0
  0
SPLINE
  5
1c7
100
AcDbEntity
  8
Camada_1
 62
7
100
AcDbSpline
 70
8
 71
3
 72
8
 73
4
 74
0
 40
0
 40
0
 40
0
 40
0
 40
1
 40
1
 40
1
 40
1
 10
49.059592
 20
10.101559
 30
0.0
 10
48.377368
 20
10.237796
 30
0.0
 10
47.693362
 20
10.335273
 30
0.0
 10
46.279055
 20
10.450386
 30
0.0
  0
SPLINE
  5
1c8
100
AcDbEntity
  8
Camada_1
 62
7
100
AcDbSpline
 70
8
 71
3
 72
8
 73
4
 74
0
 40
0
 40
0
 40
0
 40
0
 40
1
 40
1
 40
1
 40
1
 10
46.279055
 20
10.450386
 30
0.0
 10
44.840768
 20
10.567462
 30
0.0
 10
43.548987
 20
10.629565
 30
0.0
 10
42.326853
 20
10.666516
 30
0.0
  0
SPLINE
  5
1c9
100
AcDbEntity
  8
Camada_1
 62
7
100
AcDbSpline
 70
8
 71
3
 72
8
 73
4
 74
0
 40
0
 40
0
 40
0
 40
0
 40
1
 40
1
 40
1
 40
1
 10
42.326853
 20
10.666516
 30
0.0
 10
41.439087
 20
10.693367
 30
0.0
 10
40.278948
 20
10.714593
 30
0.0
 10
38.933034
 20
10.708633
 30
0.0
  0
SPLINE
  5
1ca
100
AcDbEntity
  8
Camada_1
 62
7
100
AcDbSpline
 70
8
 71
3
 72
8
 73
4
 74
0
 40
0
 40
0
 40
0
 40
0
 40
1
 40
1
 40
1
 40
1
 10
38.933034
 20
10.708633
 30
0.0
 10
38.710733
 20
11.000596
 30
0.0
 10
38.488348
 20
11.292518
 30
0.0
 10
38.266049
 20
11.584471
 30
0.0
  0
LWPOLYLINE
  5
1cb
100
AcDbEntity
  8
Camada_1
 62
7
100
AcDbPolyline
 90
3
 70
0
 10
52.079093
 20
7.761685
 30
0.0
 10
52.116824
 20
7.761685
 30
0.0
 10
52.148965
 20
7.781549
 30
0.0
  0
LWPOLYLINE
  5
1cc
100
AcDbEntity
  8
Camada_1
 62
7
100
AcDbPolyline
 90
3
 70
0
 10
38.266049
 20
11.584471
 30
0.0
 10
38.226321
 20
11.636718
 30
0.0
 10
33.927147
 20
11.636972
 30
0.0
  0
SPLINE
  5
1cd
100
AcDbEntity
  8
Camada_1
 62
7
100
AcDbSpline
 70
8
 71
3
 72
8
 73
4
 74
0
 40
0
 40
0
 40
0
 40
0
 40
1
 40
1
 40
1
 40
1
 10
34.856057
 20
11.197564
 30
0.0
 10
35.230186
 20
10.763342
 30
0.0
 10
35.604484
 20
10.329242
 30
0.0
 10
35.978612
 20
9.895020
 30
0.0
  0
LWPOLYLINE
  5
1ce
100
AcDbEntity
  8
Camada_1
 62
7
100
AcDbPolyline
 90
3
 70
0
 10
34.520467
 20
11.373162
 30
0.0
 10
34.704732
 20
11.373162
 30
0.0
 10
34.856057
 20
11.197564
 30
0.0
  0
SPLINE
  5
1cf
100
AcDbEntity
  8
Camada_1
 62
7
100
AcDbSpline
 70
8
 71
3
 72
8
 73
4
 74
0
 40
0
 40
0
 40
0
 40
0
 40
1
 40
1
 40
1
 40
1
 10
38.173615
 20
11.269074
 30
0.0
 10
38.369297
 20
11.012079
 30
0.0
 10
38.565065
 20
10.755114
 30
0.0
 10
38.760745
 20
10.498118
 30
0.0
  0
LWPOLYLINE
  5
1d0
100
AcDbEntity
  8
Camada_1
 62
7
100
AcDbPolyline
 90
3
 70
0
 10
35.978612
 20
9.895020
 30
0.0
 10
35.978612
 20
9.752995
 30
0.0
 10
34.520467
 20
11.373162
 30
0.0
  0
SPLINE
  5
1d1
100
AcDbEntity
  8
Camada_1
 62
7
100
AcDbSpline
 70
8
 71
3
 72
8
 73
4
 74
0
 40
0
 40
0
 40
0
 40
0
 40
1
 40
1
 40
1
 40
1
 10
38.867151
 20
10.445484
 30
0.0
 10
40.244030
 20
10.452705
 30
0.0
 10
41.415998
 20
10.429872
 30
0.0
 10
42.318864
 20
10.402573
 30
0.0
  0
SPLINE
  5
1d2
100
AcDbEntity
  8
Camada_1
 62
7
100
AcDbSpline
 70
8
 71
3
 72
8
 73
4
 74
0
 40
0
 40
0
 40
0
 40
0
 40
1
 40
1
 40
1
 40
1
 10
42.318864
 20
10.402573
 30
0.0
 10
43.537633
 20
10.365725
 30
0.0
 10
44.824452
 20
10.303683
 30
0.0
 10
46.257492
 20
10.187034
 30
0.0
  0
SPLINE
  5
1d3
100
AcDbEntity
  8
Camada_1
 62
7
100
AcDbSpline
 70
8
 71
3
 72
8
 73
4
 74
0
 40
0
 40
0
 40
0
 40
0
 40
1
 40
1
 40
1
 40
1
 10
46.257492
 20
10.187034
 30
0.0
 10
47.666639
 20
10.072338
 30
0.0
 10
48.334798
 20
9.976915
 30
0.0
 10
49.007483
 20
9.842580
 30
0.0
  0
SPLINE
  5
1d4
100
AcDbEntity
  8
Camada_1
 62
7
100
AcDbSpline
 70
8
 71
3
 72
8
 73
4
 74
0
 40
0
 40
0
 40
0
 40
0
 40
1
 40
1
 40
1
 40
1
 10
49.007483
 20
9.842580
 30
0.0
 10
49.778145
 20
9.688706
 30
0.0
 10
50.411868
 20
9.511886
 30
0.0
 10
50.857315
 20
9.374967
 30
0.0
  0
LWPOLYLINE
  5
1d5
100
AcDbEntity
  8
Camada_1
 62
7
100
AcDbPolyline
 90
3
 70
0
 10
38.760745
 20
10.498118
 30
0.0
 10
38.800872
 20
10.445484
 30
0.0
 10
38.867151
 20
10.445484
 30
0.0
  0
SPLINE
  5
1d6
100
AcDbEntity
  8
Camada_1
 62
7
100
AcDbSpline
 70
8
 71
3
 72
8
 73
4
 74
0
 40
0
 40
0
 40
0
 40
0
 40
1
 40
1
 40
1
 40
1
 10
50.896443
 20
9.369170
 30
0.0
 10
50.896443
 20
9.369170
 30
0.0
 10
50.868211
 20
9.371916
 30
0.0
 10
50.895625
 20
9.362457
 30
0.0
  0
SPLINE
  5
1d7
100
AcDbEntity
  8
Camada_1
 62
7
100
AcDbSpline
 70
8
 71
3
 72
8
 73
4
 74
0
 40
0
 40
0
 40
0
 40
0
 40
1
 40
1
 40
1
 40
1
 10
50.895625
 20
9.362457
 30
0.0
 10
50.923059
 20
9.352896
 30
0.0
 10
50.966569
 20
9.336959
 30
0.0
 10
51.028583
 20
9.312396
 30
0.0
  0
SPLINE
  5
1d8
100
AcDbEntity
  8
Camada_1
 62
7
100
AcDbSpline
 70
8
 71
3
 72
8
 73
4
 74
0
 40
0
 40
0
 40
0
 40
0
 40
1
 40
1
 40
1
 40
1
 10
51.028583
 20
9.312396
 30
0.0
 10
51.152611
 20
9.263281
 30
0.0
 10
51.350530
 20
9.179444
 30
0.0
 10
51.641467
 20
9.041843
 30
0.0
  0
SPLINE
  5
1d9
100
AcDbEntity
  8
Camada_1
 62
7
100
AcDbSpline
 70
8
 71
3
 72
8
 73
4
 74
0
 40
0
 40
0
 40
0
 40
0
 40
1
 40
1
 40
1
 40
1
 10
51.641467
 20
9.041843
 30
0.0
 10
51.863109
 20
8.937012
 30
0.0
 10
52.026007
 20
8.851293
 30
0.0
 10
52.155331
 20
8.660041
 30
0.0
  0
SPLINE
  5
1da
100
AcDbEntity
  8
Camada_1
 62
7
100
AcDbSpline
 70
8
 71
3
 72
8
 73
4
 74
0
 40
0
 40
0
 40
0
 40
0
 40
1
 40
1
 40
1
 40
1
 10
52.155331
 20
8.660041
 30
0.0
 10
52.211862
 20
8.576437
 30
0.0
 10
52.263565
 20
8.494329
 30
0.0
 10
52.262336
 20
8.386305
 30
0.0
  0
SPLINE
  5
1db
100
AcDbEntity
  8
Camada_1
 62
7
100
AcDbSpline
 70
8
 71
3
 72
8
 73
4
 74
0
 40
0
 40
0
 40
0
 40
0
 40
1
 40
1
 40
1
 40
1
 10
52.262336
 20
8.386305
 30
0.0
 10
52.260159
 20
8.195561
 30
0.0
 10
52.079827
 20
8.059161
 30
0.0
 10
52.031956
 20
8.025750
 30
0.0
  0
SPLINE
  5
1dc
100
AcDbEntity
  8
Camada_1
 62
7
100
AcDbSpline
 70
8
 71
3
 72
8
 73
4
 74
0
 40
0
 40
0
 40
0
 40
0
 40
1
 40
1
 40
1
 40
1
 10
52.031956
 20
8.025750
 30
0.0
 10
52.020815
 20
8.025760
 30
0.0
 10
52.009750
 20
8.025750
 30
0.0
 10
51.998617
 20
8.025750
 30
0.0
  0
SPLINE
  5
1dd
100
AcDbEntity
  8
Camada_1
 62
7
100
AcDbSpline
 70
8
 71
3
 72
8
 73
4
 74
0
 40
0
 40
0
 40
0
 40
0
 40
1
 40
1
 40
1
 40
1
 10
51.998617
 20
8.025750
 30
0.0
 10
52.088085
 20
8.213238
 30
0.0
 10
52.073545
 20
8.402018
 30
0.0
 10
52.035949
 20
8.527536
 30
0.0
  0
SPLINE
  5
1de
100
AcDbEntity
  8
Camada_1
 62
7
100
AcDbSpline
 70
8
 71
3
 72
8
 73
4
 74
0
 40
0
 40
0
 40
0
 40
0
 40
1
 40
1
 40
1
 40
1
 10
52.035949
 20
8.527536
 30
0.0
 10
52.002263
 20
8.640005
 30
0.0
 10
51.908330
 20
8.797744
 30
0.0
 10
51.625696
 20
8.983635
 30
0.0
  0
SPLINE
  5
1df
100
AcDbEntity
  8
Camada_1
 62
7
100
AcDbSpline
 70
8
 71
3
 72
8
 73
4
 74
0
 40
0
 40
0
 40
0
 40
0
 40
1
 40
1
 40
1
 40
1
 10
51.625696
 20
8.983635
 30
0.0
 10
51.425480
 20
9.115327
 30
0.0
 10
51.230254
 20
9.200965
 30
0.0
 10
50.874265
 20
9.321143
 30
0.0
  0
SPLINE
  5
1e0
100
AcDbEntity
  8
Camada_1
 62
7
100
AcDbSpline
 70
8
 71
3
 72
8
 73
4
 74
0
 40
0
 40
0
 40
0
 40
0
 40
1
 40
1
 40
1
 40
1
 10
50.874265
 20
9.321143
 30
0.0
 10
50.569314
 20
9.424082
 30
0.0
 10
50.307739
 20
9.498573
 30
0.0
 10
50.080310
 20
9.559119
 30
0.0
  0
SPLINE
  5
1e1
100
AcDbEntity
  8
Camada_1
 62
7
100
AcDbSpline
 70
8
 71
3
 72
8
 73
4
 74
0
 40
0
 40
0
 40
0
 40
0
 40
1
 40
1
 40
1
 40
1
 10
50.080310
 20
9.559119
 30
0.0
 10
50.001577
 20
9.580092
 30
0.0
 10
49.673023
 20
9.667001
 30
0.0
 10
49.321093
 20
9.743669
 30
0.0
  0
SPLINE
  5
1e2
100
AcDbEntity
  8
Camada_1
 62
7
100
AcDbSpline
 70
8
 71
3
 72
8
 73
4
 74
0
 40
0
 40
0
 40
0
 40
0
 40
1
 40
1
 40
1
 40
1
 10
49.321093
 20
9.743669
 30
0.0
 10
48.800978
 20
9.856971
 30
0.0
 10
48.271860
 20
9.942457
 30
0.0
 10
47.872132
 20
9.999718
 30
0.0
  0
SPLINE
  5
1e3
100
AcDbEntity
  8
Camada_1
 62
7
100
AcDbSpline
 70
8
 71
3
 72
8
 73
4
 74
0
 40
0
 40
0
 40
0
 40
0
 40
1
 40
1
 40
1
 40
1
 10
47.872132
 20
9.999718
 30
0.0
 10
47.672268
 20
10.028359
 30
0.0
 10
47.504882
 20
10.049850
 30
0.0
 10
47.387215
 20
10.064283
 30
0.0
  0
SPLINE
  5
1e4
100
AcDbEntity
  8
Camada_1
 62
7
100
AcDbSpline
 70
8
 71
3
 72
8
 73
4
 74
0
 40
0
 40
0
 40
0
 40
0
 40
1
 40
1
 40
1
 40
1
 10
47.387215
 20
10.064283
 30
0.0
 10
47.269547
 20
10.078725
 30
0.0
 10
47.200955
 20
10.086140
 30
0.0
 10
47.200955
 20
10.086140
 30
0.0
  0
SPLINE
  5
1e5
100
AcDbEntity
  8
Camada_1
 62
7
100
AcDbSpline
 70
8
 71
3
 72
8
 73
4
 74
0
 40
0
 40
0
 40
0
 40
0
 40
1
 40
1
 40
1
 40
1
 10
47.200955
 20
10.086140
 30
0.0
 10
46.811168
 20
10.128033
 30
0.0
 10
45.947909
 20
10.212573
 30
0.0
 10
43.843469
 20
10.284582
 30
0.0
  0
SPLINE
  5
1e6
100
AcDbEntity
  8
Camada_1
 62
7
100
AcDbSpline
 70
8
 71
3
 72
8
 73
4
 74
0
 40
0
 40
0
 40
0
 40
0
 40
1
 40
1
 40
1
 40
1
 10
43.843469
 20
10.284582
 30
0.0
 10
42.806769
 20
10.320068
 30
0.0
 10
41.892555
 20
10.336575
 30
0.0
 10
40.066148
 20
10.369610
 30
0.0
  0
SPLINE
  5
1e7
100
AcDbEntity
  8
Camada_1
 62
7
100
AcDbSpline
 70
8
 71
3
 72
8
 73
4
 74
0
 40
0
 40
0
 40
0
 40
0
 40
1
 40
1
 40
1
 40
1
 10
40.066148
 20
10.369610
 30
0.0
 10
39.523384
 20
10.379374
 30
0.0
 10
39.087514
 20
10.386504
 30
0.0
 10
38.763720
 20
10.391660
 30
0.0
  0
SPLINE
  5
1e8
100
AcDbEntity
  8
Camada_1
 62
7
100
AcDbSpline
 70
8
 71
3
 72
8
 73
4
 74
0
 40
0
 40
0
 40
0
 40
0
 40
1
 40
1
 40
1
 40
1
 10
38.763720
 20
10.391660
 30
0.0
 10
38.566990
 20
10.683999
 30
0.0
 10
38.370326
 20
10.976328
 30
0.0
 10
38.173595
 20
11.268688
 30
0.0
  0
LWPOLYLINE
  5
1e9
100
AcDbEntity
  8
Camada_1
 62
7
100
AcDbPolyline
 90
3
 70
0
 10
50.857315
 20
9.374967
 30
0.0
 10
50.876480
 20
9.369170
 30
0.0
 10
50.896443
 20
9.369170
 30
0.0
  0
LWPOLYLINE
  5
1ea
100
AcDbEntity
  8
Camada_1
 62
7
100
AcDbPolyline
 90
2
 70
0
 10
38.173595
 20
11.268688
 30
0.0
 10
38.173615
 20
11.269074
 30
0.0
  0
LWPOLYLINE
  5
1eb
100
AcDbEntity
  8
Camada_1
 62
7
100
AcDbPolyline
 90
1
 70
1
 10
36.111153
 20
9.943352
 30
0.0
  0
SPLINE
  5
1ec
100
AcDbEntity
  8
Camada_1
 62
7
100
AcDbSpline
 70
8
 71
3
 72
8
 73
4
 74
0
 40
0
 40
0
 40
0
 40
0
 40
1
 40
1
 40
1
 40
1
 10
33.094265
 20
8.102814
 30
0.0
 10
32.339186
 20
7.079561
 30
0.0
 10
31.584068
 20
6.056368
 30
0.0
 10
30.828991
 20
5.033105
 30
0.0
  0
LWPOLYLINE
  5
1ed
100
AcDbEntity
  8
Camada_1
 62
7
100
AcDbPolyline
 90
2
 70
0
 10
33.133993
 20
8.156648
 30
0.0
 10
33.094265
 20
8.102814
 30
0.0
  0
SPLINE
  5
1ee
100
AcDbEntity
  8
Camada_1
 62
7
100
AcDbSpline
 70
8
 71
3
 72
8
 73
4
 74
0
 40
0
 40
0
 40
0
 40
0
 40
1
 40
1
 40
1
 40
1
 10
30.936395
 20
4.822539
 30
0.0
 10
31.239655
 20
4.823556
 30
0.0
 10
31.543017
 20
4.824471
 30
0.0
 10
31.846337
 20
4.825488
 30
0.0
  0
LWPOLYLINE
  5
1ef
100
AcDbEntity
  8
Camada_1
 62
7
100
AcDbPolyline
 90
4
 70
0
 10
30.828991
 20
5.033105
 30
0.0
 10
30.803237
 20
4.998148
 30
0.0
 10
30.803237
 20
4.822539
 30
0.0
 10
30.936395
 20
4.822539
 30
0.0
  0
SPLINE
  5
1f0
100
AcDbEntity
  8
Camada_1
 62
7
100
AcDbSpline
 70
8
 71
3
 72
8
 73
4
 74
0
 40
0
 40
0
 40
0
 40
0
 40
1
 40
1
 40
1
 40
1
 10
31.950547
 20
4.876342
 30
0.0
 10
32.126254
 20
5.101198
 30
0.0
 10
32.301881
 20
5.326095
 30
0.0
 10
32.477587
 20
5.550951
 30
0.0
  0
SPLINE
  5
1f1
100
AcDbEntity
  8
Camada_1
 62
7
100
AcDbSpline
 70
8
 71
3
 72
8
 73
4
 74
0
 40
0
 40
0
 40
0
 40
0
 40
1
 40
1
 40
1
 40
1
 10
32.477587
 20
5.550951
 30
0.0
 10
32.481952
 20
5.349183
 30
0.0
 10
32.486398
 20
5.147425
 30
0.0
 10
32.490764
 20
4.945667
 30
0.0
  0
LWPOLYLINE
  5
1f2
100
AcDbEntity
  8
Camada_1
 62
7
100
AcDbPolyline
 90
3
 70
0
 10
31.846337
 20
4.825488
 30
0.0
 10
31.910820
 20
4.825488
 30
0.0
 10
31.950547
 20
4.876342
 30
0.0
  0
SPLINE
  5
1f3
100
AcDbEntity
  8
Camada_1
 62
7
100
AcDbSpline
 70
8
 71
3
 72
8
 73
4
 74
0
 40
0
 40
0
 40
0
 40
0
 40
1
 40
1
 40
1
 40
1
 10
34.176889
 20
4.866202
 30
0.0
 10
34.362332
 20
5.097445
 30
0.0
 10
34.547834
 20
5.328658
 30
0.0
 10
34.733275
 20
5.559891
 30
0.0
  0
SPLINE
  5
1f4
100
AcDbEntity
  8
Camada_1
 62
7
100
AcDbSpline
 70
8
 71
3
 72
8
 73
4
 74
0
 40
0
 40
0
 40
0
 40
0
 40
1
 40
1
 40
1
 40
1
 10
34.733275
 20
5.559891
 30
0.0
 10
34.739112
 20
5.328851
 30
0.0
 10
34.744810
 20
5.097832
 30
0.0
 10
34.750645
 20
4.866802
 30
0.0
  0
LWPOLYLINE
  5
1f5
100
AcDbEntity
  8
Camada_1
 62
7
100
AcDbPolyline
 90
4
 70
0
 10
32.490764
 20
4.945667
 30
0.0
 10
32.493554
 20
4.816548
 30
0.0
 10
34.137161
 20
4.816548
 30
0.0
 10
34.176889
 20
4.866202
 30
0.0
  0
SPLINE
  5
1f6
100
AcDbEntity
  8
Camada_1
 62
7
100
AcDbSpline
 70
8
 71
3
 72
8
 73
4
 74
0
 40
0
 40
0
 40
0
 40
0
 40
1
 40
1
 40
1
 40
1
 10
36.594281
 20
4.821908
 30
0.0
 10
36.652781
 20
4.970168
 30
0.0
 10
36.711264
 20
5.118438
 30
0.0
 10
36.769762
 20
5.266677
 30
0.0
  0
LWPOLYLINE
  5
1f7
100
AcDbEntity
  8
Camada_1
 62
7
100
AcDbPolyline
 90
4
 70
0
 10
34.750645
 20
4.866802
 30
0.0
 10
34.753834
 20
4.738081
 30
0.0
 10
36.561142
 20
4.738081
 30
0.0
 10
36.594281
 20
4.821908
 30
0.0
  0
LWPOLYLINE
  5
1f8
100
AcDbEntity
  8
Camada_1
 62
7
100
AcDbPolyline
 90
8
 70
0
 10
36.769762
 20
5.266677
 30
0.0
 10
36.840832
 20
5.446853
 30
0.0
 10
36.499054
 20
5.446853
 30
0.0
 10
36.520815
 20
8.109537
 30
0.0
 10
35.463741
 20
8.109537
 30
0.0
 10
34.356557
 20
6.488170
 30
0.0
 10
34.356557
 20
8.156017
 30
0.0
 10
33.133993
 20
8.156648
 30
0.0
  0
SPLINE
  5
1f9
100
AcDbEntity
  8
Camada_1
 62
7
100
AcDbSpline
 70
8
 71
3
 72
8
 73
4
 74
0
 40
0
 40
0
 40
0
 40
0
 40
1
 40
1
 40
1
 40
1
 10
36.451750
 20
5.183480
 30
0.0
 10
36.427977
 20
5.123228
 30
0.0
 10
36.404253
 20
5.062966
 30
0.0
 10
36.380480
 20
5.002715
 30
0.0
  0
LWPOLYLINE
  5
1fa
100
AcDbEntity
  8
Camada_1
 62
7
100
AcDbPolyline
 90
7
 70
0
 10
33.268348
 20
7.892848
 30
0.0
 10
34.091249
 20
7.892848
 30
0.0
 10
34.091249
 20
5.630639
 30
0.0
 10
35.604093
 20
7.846367
 30
0.0
 10
36.253511
 20
7.846367
 30
0.0
 10
36.231751
 20
5.183480
 30
0.0
 10
36.451750
 20
5.183480
 30
0.0
  0
SPLINE
  5
1fb
100
AcDbEntity
  8
Camada_1
 62
7
100
AcDbSpline
 70
8
 71
3
 72
8
 73
4
 74
0
 40
0
 40
0
 40
0
 40
0
 40
1
 40
1
 40
1
 40
1
 10
35.012572
 20
5.002715
 30
0.0
 10
35.004773
 20
5.311551
 30
0.0
 10
34.997013
 20
5.620367
 30
0.0
 10
34.989214
 20
5.929213
 30
0.0
  0
LWPOLYLINE
  5
1fc
100
AcDbEntity
  8
Camada_1
 62
7
100
AcDbPolyline
 90
2
 70
0
 10
36.380480
 20
5.002715
 30
0.0
 10
35.012572
 20
5.002715
 30
0.0
  0
SPLINE
  5
1fd
100
AcDbEntity
  8
Camada_1
 62
7
100
AcDbSpline
 70
8
 71
3
 72
8
 73
4
 74
0
 40
0
 40
0
 40
0
 40
0
 40
1
 40
1
 40
1
 40
1
 10
34.752848
 20
6.008271
 30
0.0
 10
34.505002
 20
5.699231
 30
0.0
 10
34.257247
 20
5.390222
 30
0.0
 10
34.009402
 20
5.081182
 30
0.0
  0
LWPOLYLINE
  5
1fe
100
AcDbEntity
  8
Camada_1
 62
7
100
AcDbPolyline
 90
3
 70
0
 10
34.989214
 20
5.929213
 30
0.0
 10
34.980035
 20
6.291344
 30
0.0
 10
34.752848
 20
6.008271
 30
0.0
  0
SPLINE
  5
1ff
100
AcDbEntity
  8
Camada_1
 62
7
100
AcDbSpline
 70
8
 71
3
 72
8
 73
4
 74
0
 40
0
 40
0
 40
0
 40
0
 40
1
 40
1
 40
1
 40
1
 10
32.753286
 20
5.081182
 30
0.0
 10
32.747173
 20
5.363727
 30
0.0
 10
32.741030
 20
5.646272
 30
0.0
 10
32.734919
 20
5.928806
 30
0.0
  0
LWPOLYLINE
  5
200
100
AcDbEntity
  8
Camada_1
 62
7
100
AcDbPolyline
 90
2
 70
0
 10
34.009402
 20
5.081182
 30
0.0
 10
32.753286
 20
5.081182
 30
0.0
  0
SPLINE
  5
201
100
AcDbEntity
  8
Camada_1
 62
7
100
AcDbSpline
 70
8
 71
3
 72
8
 73
4
 74
0
 40
0
 40
0
 40
0
 40
0
 40
1
 40
1
 40
1
 40
1
 10
32.497550
 20
6.006877
 30
0.0
 10
32.258650
 20
5.701153
 30
0.0
 10
32.019756
 20
5.395450
 30
0.0
 10
31.780855
 20
5.089716
 30
0.0
  0
SPLINE
  5
202
100
AcDbEntity
  8
Camada_1
 62
7
100
AcDbSpline
 70
8
 71
3
 72
8
 73
4
 74
0
 40
0
 40
0
 40
0
 40
0
 40
1
 40
1
 40
1
 40
1
 10
31.780855
 20
5.089716
 30
0.0
 10
31.586664
 20
5.088698
 30
0.0
 10
31.392531
 20
5.088393
 30
0.0
 10
31.198316
 20
5.087783
 30
0.0
  0
SPLINE
  5
203
100
AcDbEntity
  8
Camada_1
 62
7
100
AcDbSpline
 70
8
 71
3
 72
8
 73
4
 74
0
 40
0
 40
0
 40
0
 40
0
 40
1
 40
1
 40
1
 40
1
 10
31.198316
 20
5.087783
 30
0.0
 10
31.888309
 20
6.022845
 30
0.0
 10
32.578351
 20
6.957837
 30
0.0
 10
33.268346
 20
7.892899
 30
0.0
  0
LWPOLYLINE
  5
204
100
AcDbEntity
  8
Camada_1
 62
7
100
AcDbPolyline
 90
3
 70
0
 10
32.734919
 20
5.928806
 30
0.0
 10
32.726732
 20
6.300284
 30
0.0
 10
32.497550
 20
6.006877
 30
0.0
  0
LWPOLYLINE
  5
205
100
AcDbEntity
  8
Camada_1
 62
7
100
AcDbPolyline
 90
1
 70
1
 10
33.268346
 20
7.892899
 30
0.0
  0
LWPOLYLINE
  5
206
100
AcDbEntity
  8
Camada_1
 62
7
100
AcDbPolyline
 90
1
 70
1
 10
30.935957
 20
4.954942
 30
0.0
  0
LWPOLYLINE
  5
207
100
AcDbEntity
  8
Camada_1
 62
7
100
AcDbPolyline
 90
5
 70
1
 10
37.693089
 20
7.226386
 30
0.0
 10
36.696305
 20
4.738711
 30
0.0
 10
38.363867
 20
4.738711
 30
0.0
 10
39.215517
 20
7.226386
 30
0.0
 10
39.030255
 20
7.226386
 30
0.0
  0
LWPOLYLINE
  5
208
100
AcDbEntity
  8
Camada_1
 62
7
100
AcDbPolyline
 90
4
 70
1
 10
37.872962
 20
6.962576
 30
0.0
 10
38.845191
 20
6.962576
 30
0.0
 10
38.174013
 20
5.002511
 30
0.0
 10
37.087592
 20
5.002511
 30
0.0
  0
LWPOLYLINE
  5
209
100
AcDbEntity
  8
Camada_1
 62
7
100
AcDbPolyline
 90
4
 70
1
 10
39.030328
 20
7.094491
 30
0.0
 10
38.268949
 20
4.870637
 30
0.0
 10
36.891989
 20
4.870637
 30
0.0
 10
37.782963
 20
7.094491
 30
0.0
  0
SPLINE
  5
20a
100
AcDbEntity
  8
Camada_1
 62
7
100
AcDbSpline
 70
8
 71
3
 72
8
 73
4
 74
0
 40
0
 40
0
 40
0
 40
0
 40
1
 40
1
 40
1
 40
1
 10
37.663543
 20
8.072820
 30
0.0
 10
37.601444
 20
7.857708
 30
0.0
 10
37.539382
 20
7.642524
 30
0.0
 10
37.477283
 20
7.427412
 30
0.0
  0
LWPOLYLINE
  5
20b
100
AcDbEntity
  8
Camada_1
 62
7
100
AcDbPolyline
 90
2
 70
0
 10
37.691293
 20
8.168568
 30
0.0
 10
37.663543
 20
8.072820
 30
0.0
  0
SPLINE
  5
20c
100
AcDbEntity
  8
Camada_1
 62
7
100
AcDbSpline
 70
8
 71
3
 72
8
 73
4
 74
0
 40
0
 40
0
 40
0
 40
0
 40
1
 40
1
 40
1
 40
1
 10
37.603852
 20
7.258923
 30
0.0
 10
38.011564
 20
7.255973
 30
0.0
 10
38.419158
 20
7.253125
 30
0.0
 10
38.826824
 20
7.250176
 30
0.0
  0
LWPOLYLINE
  5
20d
100
AcDbEntity
  8
Camada_1
 62
7
100
AcDbPolyline
 90
3
 70
0
 10
37.477283
 20
7.427412
 30
0.0
 10
37.428970
 20
7.260347
 30
0.0
 10
37.603852
 20
7.258923
 30
0.0
  0
SPLINE
  5
20e
100
AcDbEntity
  8
Camada_1
 62
7
100
AcDbSpline
 70
8
 71
3
 72
8
 73
4
 74
0
 40
0
 40
0
 40
0
 40
0
 40
1
 40
1
 40
1
 40
1
 10
38.829042
 20
7.250176
 30
0.0
 10
39.023253
 20
7.251803
 30
0.0
 10
39.289223
 20
7.252718
 30
0.0
 10
39.636771
 20
7.250176
 30
0.0
  0
SPLINE
  5
20f
100
AcDbEntity
  8
Camada_1
 62
7
100
AcDbSpline
 70
8
 71
3
 72
8
 73
4
 74
0
 40
0
 40
0
 40
0
 40
0
 40
1
 40
1
 40
1
 40
1
 10
39.636771
 20
7.250176
 30
0.0
 10
39.725681
 20
7.249159
 30
0.0
 10
39.805157
 20
7.247023
 30
0.0
 10
39.860963
 20
7.234879
 30
0.0
  0
SPLINE
  5
210
100
AcDbEntity
  8
Camada_1
 62
7
100
AcDbSpline
 70
8
 71
3
 72
8
 73
4
 74
0
 40
0
 40
0
 40
0
 40
0
 40
1
 40
1
 40
1
 40
1
 10
39.860963
 20
7.234879
 30
0.0
 10
39.916769
 20
7.222704
 30
0.0
 10
39.942850
 20
7.207530
 30
0.0
 10
39.963376
 20
7.178472
 30
0.0
  0
SPLINE
  5
211
100
AcDbEntity
  8
Camada_1
 62
7
100
AcDbSpline
 70
8
 71
3
 72
8
 73
4
 74
0
 40
0
 40
0
 40
0
 40
0
 40
1
 40
1
 40
1
 40
1
 10
39.963376
 20
7.178472
 30
0.0
 10
39.991055
 20
7.139273
 30
0.0
 10
40.002170
 20
7.048916
 30
0.0
 10
40.002504
 20
7.030476
 30
0.0
  0
SPLINE
  5
212
100
AcDbEntity
  8
Camada_1
 62
7
100
AcDbSpline
 70
8
 71
3
 72
8
 73
4
 74
0
 40
0
 40
0
 40
0
 40
0
 40
1
 40
1
 40
1
 40
1
 10
40.002504
 20
7.030476
 30
0.0
 10
40.003322
 20
6.985206
 30
0.0
 10
39.990798
 20
6.904816
 30
0.0
 10
39.972560
 20
6.885665
 30
0.0
  0
SPLINE
  5
213
100
AcDbEntity
  8
Camada_1
 62
7
100
AcDbSpline
 70
8
 71
3
 72
8
 73
4
 74
0
 40
0
 40
0
 40
0
 40
0
 40
1
 40
1
 40
1
 40
1
 10
39.972560
 20
6.885665
 30
0.0
 10
39.965057
 20
6.877833
 30
0.0
 10
39.975146
 20
6.880274
 30
0.0
 10
39.942814
 20
6.876714
 30
0.0
  0
SPLINE
  5
214
100
AcDbEntity
  8
Camada_1
 62
7
100
AcDbSpline
 70
8
 71
3
 72
8
 73
4
 74
0
 40
0
 40
0
 40
0
 40
0
 40
1
 40
1
 40
1
 40
1
 10
39.942814
 20
6.876714
 30
0.0
 10
39.910484
 20
6.873154
 30
0.0
 10
39.845008
 20
6.874578
 30
0.0
 10
39.747170
 20
6.877731
 30
0.0
  0
SPLINE
  5
215
100
AcDbEntity
  8
Camada_1
 62
7
100
AcDbSpline
 70
8
 71
3
 72
8
 73
4
 74
0
 40
0
 40
0
 40
0
 40
0
 40
1
 40
1
 40
1
 40
1
 10
39.747170
 20
6.877731
 30
0.0
 10
39.658511
 20
6.880376
 30
0.0
 10
39.518297
 20
6.884037
 30
0.0
 10
39.339911
 20
6.886478
 30
0.0
  0
LWPOLYLINE
  5
216
100
AcDbEntity
  8
Camada_1
 62
7
100
AcDbPolyline
 90
3
 70
0
 10
38.826824
 20
7.250176
 30
0.0
 10
38.827847
 20
7.250176
 30
0.0
 10
38.829042
 20
7.250176
 30
0.0
  0
SPLINE
  5
217
100
AcDbEntity
  8
Camada_1
 62
7
100
AcDbSpline
 70
8
 71
3
 72
8
 73
4
 74
0
 40
0
 40
0
 40
0
 40
0
 40
1
 40
1
 40
1
 40
1
 10
39.213742
 20
6.800271
 30
0.0
 10
39.148943
 20
6.625841
 30
0.0
 10
39.084094
 20
6.451443
 30
0.0
 10
39.019295
 20
6.277024
 30
0.0
  0
LWPOLYLINE
  5
218
100
AcDbEntity
  8
Camada_1
 62
7
100
AcDbPolyline
 90
3
 70
0
 10
39.339911
 20
6.886478
 30
0.0
 10
39.470674
 20
6.754573
 30
0.0
 10
39.213742
 20
6.800271
 30
0.0
  0
SPLINE
  5
219
100
AcDbEntity
  8
Camada_1
 62
7
100
AcDbSpline
 70
8
 71
3
 72
8
 73
4
 74
0
 40
0
 40
0
 40
0
 40
0
 40
1
 40
1
 40
1
 40
1
 10
39.138079
 20
6.099452
 30
0.0
 10
39.168345
 20
6.098130
 30
0.0
 10
39.229039
 20
6.097418
 30
0.0
 10
39.318551
 20
6.095078
 30
0.0
  0
SPLINE
  5
21a
100
AcDbEntity
  8
Camada_1
 62
7
100
AcDbSpline
 70
8
 71
3
 72
8
 73
4
 74
0
 40
0
 40
0
 40
0
 40
0
 40
1
 40
1
 40
1
 40
1
 10
39.318551
 20
6.095078
 30
0.0
 10
39.411288
 20
6.092637
 30
0.0
 10
39.435213
 20
6.090502
 30
0.0
 10
39.457897
 20
6.080371
 30
0.0
  0
SPLINE
  5
21b
100
AcDbEntity
  8
Camada_1
 62
7
100
AcDbSpline
 70
8
 71
3
 72
8
 73
4
 74
0
 40
0
 40
0
 40
0
 40
0
 40
1
 40
1
 40
1
 40
1
 10
39.457897
 20
6.080371
 30
0.0
 10
39.476951
 20
6.071828
 30
0.0
 10
39.500432
 20
6.053632
 30
0.0
 10
39.494629
 20
6.060711
 30
0.0
  0
SPLINE
  5
21c
100
AcDbEntity
  8
Camada_1
 62
7
100
AcDbSpline
 70
8
 71
3
 72
8
 73
4
 74
0
 40
0
 40
0
 40
0
 40
0
 40
1
 40
1
 40
1
 40
1
 10
39.494629
 20
6.060711
 30
0.0
 10
39.485236
 20
6.072174
 30
0.0
 10
39.499628
 20
6.030941
 30
0.0
 10
39.485052
 20
5.968930
 30
0.0
  0
SPLINE
  5
21d
100
AcDbEntity
  8
Camada_1
 62
7
100
AcDbSpline
 70
8
 71
3
 72
8
 73
4
 74
0
 40
0
 40
0
 40
0
 40
0
 40
1
 40
1
 40
1
 40
1
 10
39.485052
 20
5.968930
 30
0.0
 10
39.470468
 20
5.906929
 30
0.0
 10
39.442312
 20
5.839680
 30
0.0
 10
39.426758
 20
5.803258
 30
0.0
  0
SPLINE
  5
21e
100
AcDbEntity
  8
Camada_1
 62
7
100
AcDbSpline
 70
8
 71
3
 72
8
 73
4
 74
0
 40
0
 40
0
 40
0
 40
0
 40
1
 40
1
 40
1
 40
1
 10
39.426758
 20
5.803258
 30
0.0
 10
39.317191
 20
5.546720
 30
0.0
 10
39.190688
 20
5.230886
 30
0.0
 10
39.036469
 20
4.840612
 30
0.0
  0
LWPOLYLINE
  5
21f
100
AcDbEntity
  8
Camada_1
 62
7
100
AcDbPolyline
 90
3
 70
0
 10
39.019295
 20
6.277024
 30
0.0
 10
38.956211
 20
6.107182
 30
0.0
 10
39.138079
 20
6.099452
 30
0.0
  0
SPLINE
  5
220
100
AcDbEntity
  8
Camada_1
 62
7
100
AcDbSpline
 70
8
 71
3
 72
8
 73
4
 74
0
 40
0
 40
0
 40
0
 40
0
 40
1
 40
1
 40
1
 40
1
 10
39.159046
 20
4.660406
 30
0.0
 10
39.601853
 20
4.657457
 30
0.0
 10
40.044662
 20
4.654609
 30
0.0
 10
40.487427
 20
4.651659
 30
0.0
  0
LWPOLYLINE
  5
221
100
AcDbEntity
  8
Camada_1
 62
7
100
AcDbPolyline
 90
3
 70
0
 10
39.036469
 20
4.840612
 30
0.0
 10
38.965798
 20
4.661627
 30
0.0
 10
39.159046
 20
4.660406
 30
0.0
  0
SPLINE
  5
222
100
AcDbEntity
  8
Camada_1
 62
7
100
AcDbSpline
 70
8
 71
3
 72
8
 73
4
 74
0
 40
0
 40
0
 40
0
 40
0
 40
1
 40
1
 40
1
 40
1
 10
40.608207
 20
4.726720
 30
0.0
 10
40.902645
 20
5.346416
 30
0.0
 10
41.188951
 20
6.031185
 30
0.0
 10
41.448077
 20
6.780946
 30
0.0
  0
SPLINE
  5
223
100
AcDbEntity
  8
Camada_1
 62
7
100
AcDbSpline
 70
8
 71
3
 72
8
 73
4
 74
0
 40
0
 40
0
 40
0
 40
0
 40
1
 40
1
 40
1
 40
1
 10
41.448077
 20
6.780946
 30
0.0
 10
41.533447
 20
7.027964
 30
0.0
 10
41.612005
 20
7.271067
 30
0.0
 10
41.684447
 20
7.509592
 30
0.0
  0
LWPOLYLINE
  5
224
100
AcDbEntity
  8
Camada_1
 62
7
100
AcDbPolyline
 90
3
 70
0
 10
40.487427
 20
4.651659
 30
0.0
 10
40.572073
 20
4.650642
 30
0.0
 10
40.608207
 20
4.726720
 30
0.0
  0
SPLINE
  5
225
100
AcDbEntity
  8
Camada_1
 62
7
100
AcDbSpline
 70
8
 71
3
 72
8
 73
4
 74
0
 40
0
 40
0
 40
0
 40
0
 40
1
 40
1
 40
1
 40
1
 10
41.688443
 20
7.526679
 30
0.0
 10
41.697980
 20
7.585588
 30
0.0
 10
41.705976
 20
7.686554
 30
0.0
 10
41.666682
 20
7.800019
 30
0.0
  0
SPLINE
  5
226
100
AcDbEntity
  8
Camada_1
 62
7
100
AcDbSpline
 70
8
 71
3
 72
8
 73
4
 74
0
 40
0
 40
0
 40
0
 40
0
 40
1
 40
1
 40
1
 40
1
 10
41.666682
 20
7.800019
 30
0.0
 10
41.568569
 20
8.083347
 30
0.0
 10
41.290592
 20
8.147901
 30
0.0
 10
41.254433
 20
8.155997
 30
0.0
  0
LWPOLYLINE
  5
227
100
AcDbEntity
  8
Camada_1
 62
7
100
AcDbPolyline
 90
3
 70
0
 10
41.684447
 20
7.509592
 30
0.0
 10
41.687043
 20
7.517932
 30
0.0
 10
41.688443
 20
7.526679
 30
0.0
  0
SPLINE
  5
228
100
AcDbEntity
  8
Camada_1
 62
7
100
AcDbSpline
 70
8
 71
3
 72
8
 73
4
 74
0
 40
0
 40
0
 40
0
 40
0
 40
1
 40
1
 40
1
 40
1
 10
41.225685
 20
8.159150
 30
0.0
 10
40.080911
 20
8.162100
 30
0.0
 10
38.936099
 20
8.164947
 30
0.0
 10
37.791340
 20
8.167897
 30
0.0
  0
LWPOLYLINE
  5
229
100
AcDbEntity
  8
Camada_1
 62
7
100
AcDbPolyline
 90
3
 70
0
 10
41.254433
 20
8.155997
 30
0.0
 10
41.240259
 20
8.159150
 30
0.0
 10
41.225685
 20
8.159150
 30
0.0
  0
SPLINE
  5
22a
100
AcDbEntity
  8
Camada_1
 62
7
100
AcDbSpline
 70
8
 71
3
 72
8
 73
4
 74
0
 40
0
 40
0
 40
0
 40
0
 40
1
 40
1
 40
1
 40
1
 10
37.890929
 20
7.904168
 30
0.0
 10
38.995111
 20
7.901320
 30
0.0
 10
40.099329
 20
7.898472
 30
0.0
 10
41.203496
 20
7.895625
 30
0.0
  0
SPLINE
  5
22b
100
AcDbEntity
  8
Camada_1
 62
7
100
AcDbSpline
 70
8
 71
3
 72
8
 73
4
 74
0
 40
0
 40
0
 40
0
 40
0
 40
1
 40
1
 40
1
 40
1
 10
41.203496
 20
7.895625
 30
0.0
 10
41.218456
 20
7.891658
 30
0.0
 10
41.369003
 20
7.849714
 30
0.0
 10
41.415909
 20
7.714259
 30
0.0
  0
SPLINE
  5
22c
100
AcDbEntity
  8
Camada_1
 62
7
100
AcDbSpline
 70
8
 71
3
 72
8
 73
4
 74
0
 40
0
 40
0
 40
0
 40
0
 40
1
 40
1
 40
1
 40
1
 10
41.415909
 20
7.714259
 30
0.0
 10
41.434923
 20
7.659357
 30
0.0
 10
41.431483
 20
7.606754
 30
0.0
 10
41.426290
 20
7.572824
 30
0.0
  0
SPLINE
  5
22d
100
AcDbEntity
  8
Camada_1
 62
7
100
AcDbSpline
 70
8
 71
3
 72
8
 73
4
 74
0
 40
0
 40
0
 40
0
 40
0
 40
1
 40
1
 40
1
 40
1
 10
41.426290
 20
7.572824
 30
0.0
 10
41.355886
 20
7.341581
 30
0.0
 10
41.279809
 20
7.106320
 30
0.0
 10
41.197107
 20
6.867032
 30
0.0
  0
SPLINE
  5
22e
100
AcDbEntity
  8
Camada_1
 62
7
100
AcDbSpline
 70
8
 71
3
 72
8
 73
4
 74
0
 40
0
 40
0
 40
0
 40
0
 40
1
 40
1
 40
1
 40
1
 10
41.197107
 20
6.867032
 30
0.0
 10
40.951444
 20
6.156215
 30
0.0
 10
40.680621
 20
5.508183
 30
0.0
 10
40.402155
 20
4.915907
 30
0.0
  0
SPLINE
  5
22f
100
AcDbEntity
  8
Camada_1
 62
7
100
AcDbSpline
 70
8
 71
3
 72
8
 73
4
 74
0
 40
0
 40
0
 40
0
 40
0
 40
1
 40
1
 40
1
 40
1
 10
40.402155
 20
4.915907
 30
0.0
 10
40.053382
 20
4.918246
 30
0.0
 10
39.704609
 20
4.920585
 30
0.0
 10
39.355861
 20
4.922823
 30
0.0
  0
SPLINE
  5
230
100
AcDbEntity
  8
Camada_1
 62
7
100
AcDbSpline
 70
8
 71
3
 72
8
 73
4
 74
0
 40
0
 40
0
 40
0
 40
0
 40
1
 40
1
 40
1
 40
1
 10
39.355861
 20
4.922823
 30
0.0
 10
39.472729
 20
5.216983
 30
0.0
 10
39.583211
 20
5.494920
 30
0.0
 10
39.670688
 20
5.699740
 30
0.0
  0
SPLINE
  5
231
100
AcDbEntity
  8
Camada_1
 62
7
100
AcDbSpline
 70
8
 71
3
 72
8
 73
4
 74
0
 40
0
 40
0
 40
0
 40
0
 40
1
 40
1
 40
1
 40
1
 10
39.670688
 20
5.699740
 30
0.0
 10
39.685959
 20
5.735500
 30
0.0
 10
39.721474
 20
5.816541
 30
0.0
 10
39.743156
 20
5.908719
 30
0.0
  0
SPLINE
  5
232
100
AcDbEntity
  8
Camada_1
 62
7
100
AcDbSpline
 70
8
 71
3
 72
8
 73
4
 74
0
 40
0
 40
0
 40
0
 40
0
 40
1
 40
1
 40
1
 40
1
 10
39.743156
 20
5.908719
 30
0.0
 10
39.764838
 20
6.000897
 30
0.0
 10
39.788133
 20
6.119885
 30
0.0
 10
39.700034
 20
6.227350
 30
0.0
  0
SPLINE
  5
233
100
AcDbEntity
  8
Camada_1
 62
7
100
AcDbSpline
 70
8
 71
3
 72
8
 73
4
 74
0
 40
0
 40
0
 40
0
 40
0
 40
1
 40
1
 40
1
 40
1
 10
39.700034
 20
6.227350
 30
0.0
 10
39.645755
 20
6.293541
 30
0.0
 10
39.585411
 20
6.312540
 30
0.0
 10
39.566677
 20
6.320911
 30
0.0
  0
LWPOLYLINE
  5
234
100
AcDbEntity
  8
Camada_1
 62
7
100
AcDbPolyline
 90
2
 70
0
 10
37.791340
 20
8.167897
 30
0.0
 10
37.691293
 20
8.168568
 30
0.0
  0
SPLINE
  5
235
100
AcDbEntity
  8
Camada_1
 62
7
100
AcDbSpline
 70
8
 71
3
 72
8
 73
4
 74
0
 40
0
 40
0
 40
0
 40
0
 40
1
 40
1
 40
1
 40
1
 10
39.566472
 20
6.320911
 30
0.0
 10
39.492354
 20
6.353996
 30
0.0
 10
39.421865
 20
6.355329
 30
0.0
 10
39.332099
 20
6.357658
 30
0.0
  0
SPLINE
  5
236
100
AcDbEntity
  8
Camada_1
 62
7
100
AcDbSpline
 70
8
 71
3
 72
8
 73
4
 74
0
 40
0
 40
0
 40
0
 40
0
 40
1
 40
1
 40
1
 40
1
 10
39.332099
 20
6.357658
 30
0.0
 10
39.364634
 20
6.445239
 30
0.0
 10
39.397187
 20
6.532901
 30
0.0
 10
39.429722
 20
6.620471
 30
0.0
  0
SPLINE
  5
237
100
AcDbEntity
  8
Camada_1
 62
7
100
AcDbSpline
 70
8
 71
3
 72
8
 73
4
 74
0
 40
0
 40
0
 40
0
 40
0
 40
1
 40
1
 40
1
 40
1
 10
39.429722
 20
6.620471
 30
0.0
 10
39.551302
 20
6.618234
 30
0.0
 10
39.671862
 20
6.615691
 30
0.0
 10
39.739158
 20
6.613759
 30
0.0
  0
SPLINE
  5
238
100
AcDbEntity
  8
Camada_1
 62
7
100
AcDbSpline
 70
8
 71
3
 72
8
 73
4
 74
0
 40
0
 40
0
 40
0
 40
0
 40
1
 40
1
 40
1
 40
1
 10
39.739158
 20
6.613759
 30
0.0
 10
39.835863
 20
6.610809
 30
0.0
 10
39.904682
 20
6.607046
 30
0.0
 10
39.972333
 20
6.614776
 30
0.0
  0
SPLINE
  5
239
100
AcDbEntity
  8
Camada_1
 62
7
100
AcDbSpline
 70
8
 71
3
 72
8
 73
4
 74
0
 40
0
 40
0
 40
0
 40
0
 40
1
 40
1
 40
1
 40
1
 10
39.972333
 20
6.614776
 30
0.0
 10
40.039985
 20
6.622302
 30
0.0
 10
40.115728
 20
6.652428
 30
0.0
 10
40.165182
 20
6.704370
 30
0.0
  0
SPLINE
  5
23a
100
AcDbEntity
  8
Camada_1
 62
7
100
AcDbSpline
 70
8
 71
3
 72
8
 73
4
 74
0
 40
0
 40
0
 40
0
 40
0
 40
1
 40
1
 40
1
 40
1
 10
40.165182
 20
6.704370
 30
0.0
 10
40.285468
 20
6.830702
 30
0.0
 10
40.268413
 20
6.990281
 30
0.0
 10
40.267595
 20
7.035521
 30
0.0
  0
SPLINE
  5
23b
100
AcDbEntity
  8
Camada_1
 62
7
100
AcDbSpline
 70
8
 71
3
 72
8
 73
4
 74
0
 40
0
 40
0
 40
0
 40
0
 40
1
 40
1
 40
1
 40
1
 10
40.267595
 20
7.035521
 30
0.0
 10
40.266982
 20
7.069308
 30
0.0
 10
40.269619
 20
7.204122
 30
0.0
 10
40.180355
 20
7.330505
 30
0.0
  0
SPLINE
  5
23c
100
AcDbEntity
  8
Camada_1
 62
7
100
AcDbSpline
 70
8
 71
3
 72
8
 73
4
 74
0
 40
0
 40
0
 40
0
 40
0
 40
1
 40
1
 40
1
 40
1
 10
40.180355
 20
7.330505
 30
0.0
 10
40.114152
 20
7.424249
 30
0.0
 10
40.012584
 20
7.472326
 30
0.0
 10
39.917833
 20
7.493004
 30
0.0
  0
SPLINE
  5
23d
100
AcDbEntity
  8
Camada_1
 62
7
100
AcDbSpline
 70
8
 71
3
 72
8
 73
4
 74
0
 40
0
 40
0
 40
0
 40
0
 40
1
 40
1
 40
1
 40
1
 10
39.917833
 20
7.493004
 30
0.0
 10
39.823081
 20
7.513681
 30
0.0
 10
39.728850
 20
7.513793
 30
0.0
 10
39.638741
 20
7.514454
 30
0.0
  0
SPLINE
  5
23e
100
AcDbEntity
  8
Camada_1
 62
7
100
AcDbSpline
 70
8
 71
3
 72
8
 73
4
 74
0
 40
0
 40
0
 40
0
 40
0
 40
1
 40
1
 40
1
 40
1
 10
39.638741
 20
7.514454
 30
0.0
 10
39.290675
 20
7.516996
 30
0.0
 10
39.024087
 20
7.516081
 30
0.0
 10
38.828816
 20
7.514454
 30
0.0
  0
LWPOLYLINE
  5
23f
100
AcDbEntity
  8
Camada_1
 62
7
100
AcDbPolyline
 90
2
 70
0
 10
39.566677
 20
6.320911
 30
0.0
 10
39.566472
 20
6.320911
 30
0.0
  0
SPLINE
  5
240
100
AcDbEntity
  8
Camada_1
 62
7
100
AcDbSpline
 70
8
 71
3
 72
8
 73
4
 74
0
 40
0
 40
0
 40
0
 40
0
 40
1
 40
1
 40
1
 40
1
 10
38.826618
 20
7.514454
 30
0.0
 10
38.477931
 20
7.516996
 30
0.0
 10
38.129178
 20
7.519539
 30
0.0
 10
37.780523
 20
7.521980
 30
0.0
  0
SPLINE
  5
241
100
AcDbEntity
  8
Camada_1
 62
7
100
AcDbSpline
 70
8
 71
3
 72
8
 73
4
 74
0
 40
0
 40
0
 40
0
 40
0
 40
1
 40
1
 40
1
 40
1
 10
37.780523
 20
7.521980
 30
0.0
 10
37.817318
 20
7.649430
 30
0.0
 10
37.854128
 20
7.776921
 30
0.0
 10
37.890922
 20
7.904372
 30
0.0
  0
LWPOLYLINE
  5
242
100
AcDbEntity
  8
Camada_1
 62
7
100
AcDbPolyline
 90
2
 70
0
 10
38.828816
 20
7.514454
 30
0.0
 10
38.826618
 20
7.514454
 30
0.0
  0
LWPOLYLINE
  5
243
100
AcDbEntity
  8
Camada_1
 62
7
100
AcDbPolyline
 90
2
 70
0
 10
37.890922
 20
7.904372
 30
0.0
 10
37.890929
 20
7.904168
 30
0.0
  0
LWPOLYLINE
  5
244
100
AcDbEntity
  8
Camada_1
 62
7
100
AcDbPolyline
 90
1
 70
1
 10
39.338121
 20
6.754380
 30
0.0
  0
SPLINE
  5
245
100
AcDbEntity
  8
Camada_1
 62
7
100
AcDbSpline
 70
8
 71
3
 72
8
 73
4
 74
0
 40
0
 40
0
 40
0
 40
0
 40
1
 40
1
 40
1
 40
1
 10
45.994371
 20
7.131228
 30
0.0
 10
45.702301
 20
6.395015
 30
0.0
 10
45.410038
 20
5.658883
 30
0.0
 10
45.117967
 20
4.922660
 30
0.0
  0
LWPOLYLINE
  5
246
100
AcDbEntity
  8
Camada_1
 62
7
100
AcDbPolyline
 90
2
 70
0
 10
46.027311
 20
7.214863
 30
0.0
 10
45.994371
 20
7.131228
 30
0.0
  0
SPLINE
  5
247
100
AcDbEntity
  8
Camada_1
 62
7
100
AcDbSpline
 70
8
 71
3
 72
8
 73
4
 74
0
 40
0
 40
0
 40
0
 40
0
 40
1
 40
1
 40
1
 40
1
 10
45.240144
 20
4.742240
 30
0.0
 10
45.695863
 20
4.737867
 30
0.0
 10
46.151575
 20
4.733494
 30
0.0
 10
46.607255
 20
4.729130
 30
0.0
  0
LWPOLYLINE
  5
248
100
AcDbEntity
  8
Camada_1
 62
7
100
AcDbPolyline
 90
3
 70
0
 10
45.117967
 20
4.922660
 30
0.0
 10
45.047295
 20
4.744071
 30
0.0
 10
45.240144
 20
4.742240
 30
0.0
  0
SPLINE
  5
249
100
AcDbEntity
  8
Camada_1
 62
7
100
AcDbSpline
 70
8
 71
3
 72
8
 73
4
 74
0
 40
0
 40
0
 40
0
 40
0
 40
1
 40
1
 40
1
 40
1
 10
46.734224
 20
4.818898
 30
0.0
 10
46.984580
 20
5.559454
 30
0.0
 10
47.234900
 20
6.300030
 30
0.0
 10
47.485256
 20
7.040576
 30
0.0
  0
LWPOLYLINE
  5
24a
100
AcDbEntity
  8
Camada_1
 62
7
100
AcDbPolyline
 90
3
 70
0
 10
46.607255
 20
4.729130
 30
0.0
 10
46.703480
 20
4.728113
 30
0.0
 10
46.734224
 20
4.818898
 30
0.0
  0
LWPOLYLINE
  5
24b
100
AcDbEntity
  8
Camada_1
 62
7
100
AcDbPolyline
 90
4
 70
0
 10
47.485256
 20
7.040576
 30
0.0
 10
47.544149
 20
7.214598
 30
0.0
 10
47.359684
 20
7.214598
 30
0.0
 10
46.027311
 20
7.214863
 30
0.0
  0
SPLINE
  5
24c
100
AcDbEntity
  8
Camada_1
 62
7
100
AcDbSpline
 70
8
 71
3
 72
8
 73
4
 74
0
 40
0
 40
0
 40
0
 40
0
 40
1
 40
1
 40
1
 40
1
 10
47.175021
 20
6.950859
 30
0.0
 10
46.954528
 20
6.298637
 30
0.0
 10
46.734118
 20
5.646394
 30
0.0
 10
46.513626
 20
4.994171
 30
0.0
  0
SPLINE
  5
24d
100
AcDbEntity
  8
Camada_1
 62
7
100
AcDbSpline
 70
8
 71
3
 72
8
 73
4
 74
0
 40
0
 40
0
 40
0
 40
0
 40
1
 40
1
 40
1
 40
1
 10
46.513626
 20
4.994171
 30
0.0
 10
46.154269
 20
4.997629
 30
0.0
 10
45.794922
 20
5.000884
 30
0.0
 10
45.435588
 20
5.004342
 30
0.0
  0
SPLINE
  5
24e
100
AcDbEntity
  8
Camada_1
 62
7
100
AcDbSpline
 70
8
 71
3
 72
8
 73
4
 74
0
 40
0
 40
0
 40
0
 40
0
 40
1
 40
1
 40
1
 40
1
 10
45.435588
 20
5.004342
 30
0.0
 10
45.692986
 20
5.653167
 30
0.0
 10
45.950385
 20
6.302085
 30
0.0
 10
46.207782
 20
6.950900
 30
0.0
  0
LWPOLYLINE
  5
24f
100
AcDbEntity
  8
Camada_1
 62
7
100
AcDbPolyline
 90
2
 70
0
 10
46.207782
 20
6.950859
 30
0.0
 10
47.175021
 20
6.950859
 30
0.0
  0
LWPOLYLINE
  5
250
100
AcDbEntity
  8
Camada_1
 62
7
100
AcDbPolyline
 90
1
 70
1
 10
46.207782
 20
6.950900
 30
0.0
  0
LWPOLYLINE
  5
251
100
AcDbEntity
  8
Camada_1
 62
7
100
AcDbPolyline
 90
1
 70
1
 10
47.359593
 20
7.082866
 30
0.0
  0
SPLINE
  5
252
100
AcDbEntity
  8
Camada_1
 62
7
100
AcDbSpline
 70
8
 71
3
 72
8
 73
4
 74
0
 40
0
 40
0
 40
0
 40
0
 40
1
 40
1
 40
1
 40
1
 10
45.916113
 20
7.169938
 30
0.0
 10
46.323781
 20
7.167091
 30
0.0
 10
46.731396
 20
7.164141
 30
0.0
 10
47.139087
 20
7.161191
 30
0.0
  0
LWPOLYLINE
  5
253
100
AcDbEntity
  8
Camada_1
 62
7
100
AcDbPolyline
 90
3
 70
0
 10
46.003554
 20
8.079380
 30
0.0
 10
45.741232
 20
7.171159
 30
0.0
 10
45.916113
 20
7.169938
 30
0.0
  0
SPLINE
  5
254
100
AcDbEntity
  8
Camada_1
 62
7
100
AcDbSpline
 70
8
 71
3
 72
8
 73
4
 74
0
 40
0
 40
0
 40
0
 40
0
 40
1
 40
1
 40
1
 40
1
 10
47.141131
 20
7.161191
 30
0.0
 10
47.335406
 20
7.162717
 30
0.0
 10
47.601691
 20
7.163632
 30
0.0
 10
47.949259
 20
7.161191
 30
0.0
  0
SPLINE
  5
255
100
AcDbEntity
  8
Camada_1
 62
7
100
AcDbSpline
 70
8
 71
3
 72
8
 73
4
 74
0
 40
0
 40
0
 40
0
 40
0
 40
1
 40
1
 40
1
 40
1
 10
47.949259
 20
7.161191
 30
0.0
 10
48.038169
 20
7.160174
 30
0.0
 10
48.117446
 20
7.158038
 30
0.0
 10
48.173250
 20
7.145895
 30
0.0
  0
SPLINE
  5
256
100
AcDbEntity
  8
Camada_1
 62
7
100
AcDbSpline
 70
8
 71
3
 72
8
 73
4
 74
0
 40
0
 40
0
 40
0
 40
0
 40
1
 40
1
 40
1
 40
1
 10
48.173250
 20
7.145895
 30
0.0
 10
48.229056
 20
7.133720
 30
0.0
 10
48.255138
 20
7.118545
 30
0.0
 10
48.275665
 20
7.089487
 30
0.0
  0
SPLINE
  5
257
100
AcDbEntity
  8
Camada_1
 62
7
100
AcDbSpline
 70
8
 71
3
 72
8
 73
4
 74
0
 40
0
 40
0
 40
0
 40
0
 40
1
 40
1
 40
1
 40
1
 10
48.275665
 20
7.089487
 30
0.0
 10
48.303344
 20
7.050289
 30
0.0
 10
48.314458
 20
6.959738
 30
0.0
 10
48.314793
 20
6.941289
 30
0.0
  0
SPLINE
  5
258
100
AcDbEntity
  8
Camada_1
 62
7
100
AcDbSpline
 70
8
 71
3
 72
8
 73
4
 74
0
 40
0
 40
0
 40
0
 40
0
 40
1
 40
1
 40
1
 40
1
 10
48.314793
 20
6.941289
 30
0.0
 10
48.315611
 20
6.896029
 30
0.0
 10
48.303087
 20
6.815628
 30
0.0
 10
48.284848
 20
6.796477
 30
0.0
  0
SPLINE
  5
259
100
AcDbEntity
  8
Camada_1
 62
7
100
AcDbSpline
 70
8
 71
3
 72
8
 73
4
 74
0
 40
0
 40
0
 40
0
 40
0
 40
1
 40
1
 40
1
 40
1
 10
48.284848
 20
6.796477
 30
0.0
 10
48.277345
 20
6.788645
 30
0.0
 10
48.287434
 20
6.791086
 30
0.0
 10
48.255102
 20
6.787527
 30
0.0
  0
SPLINE
  5
25a
100
AcDbEntity
  8
Camada_1
 62
7
100
AcDbSpline
 70
8
 71
3
 72
8
 73
4
 74
0
 40
0
 40
0
 40
0
 40
0
 40
1
 40
1
 40
1
 40
1
 10
48.255102
 20
6.787527
 30
0.0
 10
48.222773
 20
6.783967
 30
0.0
 10
48.157293
 20
6.785391
 30
0.0
 10
48.059458
 20
6.788544
 30
0.0
  0
SPLINE
  5
25b
100
AcDbEntity
  8
Camada_1
 62
7
100
AcDbSpline
 70
8
 71
3
 72
8
 73
4
 74
0
 40
0
 40
0
 40
0
 40
0
 40
1
 40
1
 40
1
 40
1
 10
48.059458
 20
6.788544
 30
0.0
 10
47.970799
 20
6.791188
 30
0.0
 10
47.830585
 20
6.794850
 30
0.0
 10
47.652200
 20
6.797291
 30
0.0
  0
LWPOLYLINE
  5
25c
100
AcDbEntity
  8
Camada_1
 62
7
100
AcDbPolyline
 90
3
 70
0
 10
47.139087
 20
7.161191
 30
0.0
 10
47.140109
 20
7.161191
 30
0.0
 10
47.141131
 20
7.161191
 30
0.0
  0
SPLINE
  5
25d
100
AcDbEntity
  8
Camada_1
 62
7
100
AcDbSpline
 70
8
 71
3
 72
8
 73
4
 74
0
 40
0
 40
0
 40
0
 40
0
 40
1
 40
1
 40
1
 40
1
 10
47.450368
 20
6.010203
 30
0.0
 10
47.480633
 20
6.008881
 30
0.0
 10
47.541328
 20
6.008169
 30
0.0
 10
47.630838
 20
6.005830
 30
0.0
  0
SPLINE
  5
25e
100
AcDbEntity
  8
Camada_1
 62
7
100
AcDbSpline
 70
8
 71
3
 72
8
 73
4
 74
0
 40
0
 40
0
 40
0
 40
0
 40
1
 40
1
 40
1
 40
1
 10
47.630838
 20
6.005830
 30
0.0
 10
47.723577
 20
6.003389
 30
0.0
 10
47.747501
 20
6.001253
 30
0.0
 10
47.770185
 20
5.991133
 30
0.0
  0
SPLINE
  5
25f
100
AcDbEntity
  8
Camada_1
 62
7
100
AcDbSpline
 70
8
 71
3
 72
8
 73
4
 74
0
 40
0
 40
0
 40
0
 40
0
 40
1
 40
1
 40
1
 40
1
 10
47.770185
 20
5.991133
 30
0.0
 10
47.789238
 20
5.982589
 30
0.0
 10
47.812718
 20
5.964394
 30
0.0
 10
47.806918
 20
5.971463
 30
0.0
  0
SPLINE
  5
260
100
AcDbEntity
  8
Camada_1
 62
7
100
AcDbSpline
 70
8
 71
3
 72
8
 73
4
 74
0
 40
0
 40
0
 40
0
 40
0
 40
1
 40
1
 40
1
 40
1
 10
47.806918
 20
5.971463
 30
0.0
 10
47.797514
 20
5.982935
 30
0.0
 10
47.811916
 20
5.941886
 30
0.0
 10
47.797341
 20
5.879885
 30
0.0
  0
SPLINE
  5
261
100
AcDbEntity
  8
Camada_1
 62
7
100
AcDbSpline
 70
8
 71
3
 72
8
 73
4
 74
0
 40
0
 40
0
 40
0
 40
0
 40
1
 40
1
 40
1
 40
1
 10
47.797341
 20
5.879885
 30
0.0
 10
47.782756
 20
5.817884
 30
0.0
 10
47.754600
 20
5.750431
 30
0.0
 10
47.739047
 20
5.714019
 30
0.0
  0
SPLINE
  5
262
100
AcDbEntity
  8
Camada_1
 62
7
100
AcDbSpline
 70
8
 71
3
 72
8
 73
4
 74
0
 40
0
 40
0
 40
0
 40
0
 40
1
 40
1
 40
1
 40
1
 10
47.739047
 20
5.714019
 30
0.0
 10
47.629481
 20
5.457471
 30
0.0
 10
47.502976
 20
5.141648
 30
0.0
 10
47.348758
 20
4.751364
 30
0.0
  0
LWPOLYLINE
  5
263
100
AcDbEntity
  8
Camada_1
 62
7
100
AcDbPolyline
 90
5
 70
0
 10
47.652200
 20
6.797291
 30
0.0
 10
47.517845
 20
6.799223
 30
0.0
 10
47.517845
 20
6.688972
 30
0.0
 10
47.268498
 20
6.017933
 30
0.0
 10
47.450368
 20
6.010203
 30
0.0
  0
SPLINE
  5
264
100
AcDbEntity
  8
Camada_1
 62
7
100
AcDbSpline
 70
8
 71
3
 72
8
 73
4
 74
0
 40
0
 40
0
 40
0
 40
0
 40
1
 40
1
 40
1
 40
1
 10
47.471934
 20
4.570771
 30
0.0
 10
47.934800
 20
4.569449
 30
0.0
 10
48.397577
 20
4.568127
 30
0.0
 10
48.860404
 20
4.566804
 30
0.0
  0
LWPOLYLINE
  5
265
100
AcDbEntity
  8
Camada_1
 62
7
100
AcDbPolyline
 90
3
 70
0
 10
47.348758
 20
4.751364
 30
0.0
 10
47.277887
 20
4.571788
 30
0.0
 10
47.471934
 20
4.570771
 30
0.0
  0
SPLINE
  5
266
100
AcDbEntity
  8
Camada_1
 62
7
100
AcDbSpline
 70
8
 71
3
 72
8
 73
4
 74
0
 40
0
 40
0
 40
0
 40
0
 40
1
 40
1
 40
1
 40
1
 10
48.982981
 20
4.647855
 30
0.0
 10
49.253179
 20
5.286571
 30
0.0
 10
49.515172
 20
5.968238
 30
0.0
 10
49.760565
 20
6.692745
 30
0.0
  0
SPLINE
  5
267
100
AcDbEntity
  8
Camada_1
 62
7
100
AcDbSpline
 70
8
 71
3
 72
8
 73
4
 74
0
 40
0
 40
0
 40
0
 40
0
 40
1
 40
1
 40
1
 40
1
 10
49.760565
 20
6.692745
 30
0.0
 10
49.843617
 20
6.937942
 30
0.0
 10
49.922212
 20
7.180384
 30
0.0
 10
49.996536
 20
7.419794
 30
0.0
  0
LWPOLYLINE
  5
268
100
AcDbEntity
  8
Camada_1
 62
7
100
AcDbPolyline
 90
3
 70
0
 10
48.860404
 20
4.566804
 30
0.0
 10
48.948844
 20
4.566804
 30
0.0
 10
48.982981
 20
4.647855
 30
0.0
  0
SPLINE
  5
269
100
AcDbEntity
  8
Camada_1
 62
7
100
AcDbSpline
 70
8
 71
3
 72
8
 73
4
 74
0
 40
0
 40
0
 40
0
 40
0
 40
1
 40
1
 40
1
 40
1
 10
50.000727
 20
7.437695
 30
0.0
 10
50.010273
 20
7.496594
 30
0.0
 10
50.018259
 20
7.597569
 30
0.0
 10
49.978966
 20
7.711035
 30
0.0
  0
SPLINE
  5
26a
100
AcDbEntity
  8
Camada_1
 62
7
100
AcDbSpline
 70
8
 71
3
 72
8
 73
4
 74
0
 40
0
 40
0
 40
0
 40
0
 40
1
 40
1
 40
1
 40
1
 10
49.978966
 20
7.711035
 30
0.0
 10
49.880854
 20
7.994363
 30
0.0
 10
49.603365
 20
8.059018
 30
0.0
 10
49.566717
 20
8.067206
 30
0.0
  0
LWPOLYLINE
  5
26b
100
AcDbEntity
  8
Camada_1
 62
7
100
AcDbPolyline
 90
3
 70
0
 10
49.996536
 20
7.419794
 30
0.0
 10
49.999326
 20
7.428744
 30
0.0
 10
50.000727
 20
7.437695
 30
0.0
  0
SPLINE
  5
26c
100
AcDbEntity
  8
Camada_1
 62
7
100
AcDbSpline
 70
8
 71
3
 72
8
 73
4
 74
0
 40
0
 40
0
 40
0
 40
0
 40
1
 40
1
 40
1
 40
1
 10
49.537970
 20
8.070359
 30
0.0
 10
48.393194
 20
8.073308
 30
0.0
 10
47.248583
 20
8.076156
 30
0.0
 10
46.103824
 20
8.079106
 30
0.0
  0
LWPOLYLINE
  5
26d
100
AcDbEntity
  8
Camada_1
 62
7
100
AcDbPolyline
 90
3
 70
0
 10
49.566717
 20
8.067206
 30
0.0
 10
49.552544
 20
8.070359
 30
0.0
 10
49.537970
 20
8.070359
 30
0.0
  0
SPLINE
  5
26e
100
AcDbEntity
  8
Camada_1
 62
7
100
AcDbSpline
 70
8
 71
3
 72
8
 73
4
 74
0
 40
0
 40
0
 40
0
 40
0
 40
1
 40
1
 40
1
 40
1
 10
46.202991
 20
7.814980
 30
0.0
 10
47.307440
 20
7.812133
 30
0.0
 10
48.411923
 20
7.809285
 30
0.0
 10
49.516357
 20
7.806437
 30
0.0
  0
SPLINE
  5
26f
100
AcDbEntity
  8
Camada_1
 62
7
100
AcDbSpline
 70
8
 71
3
 72
8
 73
4
 74
0
 40
0
 40
0
 40
0
 40
0
 40
1
 40
1
 40
1
 40
1
 10
49.516357
 20
7.806437
 30
0.0
 10
49.531806
 20
7.802369
 30
0.0
 10
49.681419
 20
7.760078
 30
0.0
 10
49.728171
 20
7.625071
 30
0.0
  0
SPLINE
  5
270
100
AcDbEntity
  8
Camada_1
 62
7
100
AcDbSpline
 70
8
 71
3
 72
8
 73
4
 74
0
 40
0
 40
0
 40
0
 40
0
 40
1
 40
1
 40
1
 40
1
 10
49.728171
 20
7.625071
 30
0.0
 10
49.747184
 20
7.570169
 30
0.0
 10
49.743742
 20
7.517749
 30
0.0
 10
49.738552
 20
7.483829
 30
0.0
  0
SPLINE
  5
271
100
AcDbEntity
  8
Camada_1
 62
7
100
AcDbSpline
 70
8
 71
3
 72
8
 73
4
 74
0
 40
0
 40
0
 40
0
 40
0
 40
1
 40
1
 40
1
 40
1
 10
49.738552
 20
7.483829
 30
0.0
 10
49.666142
 20
7.250979
 30
0.0
 10
49.589905
 20
7.015596
 30
0.0
 10
49.509170
 20
6.777234
 30
0.0
  0
SPLINE
  5
272
100
AcDbEntity
  8
Camada_1
 62
7
100
AcDbSpline
 70
8
 71
3
 72
8
 73
4
 74
0
 40
0
 40
0
 40
0
 40
0
 40
1
 40
1
 40
1
 40
1
 10
49.509170
 20
6.777234
 30
0.0
 10
49.275663
 20
6.087827
 30
0.0
 10
49.025770
 20
5.442286
 30
0.0
 10
48.769318
 20
4.831276
 30
0.0
  0
SPLINE
  5
273
100
AcDbEntity
  8
Camada_1
 62
7
100
AcDbSpline
 70
8
 71
3
 72
8
 73
4
 74
0
 40
0
 40
0
 40
0
 40
0
 40
1
 40
1
 40
1
 40
1
 10
48.769318
 20
4.831276
 30
0.0
 10
48.402354
 20
4.832293
 30
0.0
 10
48.035461
 20
4.833411
 30
0.0
 10
47.668522
 20
4.834429
 30
0.0
  0
SPLINE
  5
274
100
AcDbEntity
  8
Camada_1
 62
7
100
AcDbSpline
 70
8
 71
3
 72
8
 73
4
 74
0
 40
0
 40
0
 40
0
 40
0
 40
1
 40
1
 40
1
 40
1
 10
47.668522
 20
4.834429
 30
0.0
 10
47.785238
 20
5.128202
 30
0.0
 10
47.895760
 20
5.406129
 30
0.0
 10
47.983149
 20
5.610745
 30
0.0
  0
SPLINE
  5
275
100
AcDbEntity
  8
Camada_1
 62
7
100
AcDbSpline
 70
8
 71
3
 72
8
 73
4
 74
0
 40
0
 40
0
 40
0
 40
0
 40
1
 40
1
 40
1
 40
1
 10
47.983149
 20
5.610745
 30
0.0
 10
47.998422
 20
5.646506
 30
0.0
 10
48.033736
 20
5.727353
 30
0.0
 10
48.055417
 20
5.819521
 30
0.0
  0
SPLINE
  5
276
100
AcDbEntity
  8
Camada_1
 62
7
100
AcDbSpline
 70
8
 71
3
 72
8
 73
4
 74
0
 40
0
 40
0
 40
0
 40
0
 40
1
 40
1
 40
1
 40
1
 10
48.055417
 20
5.819521
 30
0.0
 10
48.077100
 20
5.911699
 30
0.0
 10
48.100403
 20
6.030687
 30
0.0
 10
48.012296
 20
6.138152
 30
0.0
  0
SPLINE
  5
277
100
AcDbEntity
  8
Camada_1
 62
7
100
AcDbSpline
 70
8
 71
3
 72
8
 73
4
 74
0
 40
0
 40
0
 40
0
 40
0
 40
1
 40
1
 40
1
 40
1
 10
48.012296
 20
6.138152
 30
0.0
 10
47.958018
 20
6.204364
 30
0.0
 10
47.897672
 20
6.223352
 30
0.0
 10
47.878939
 20
6.231723
 30
0.0
  0
LWPOLYLINE
  5
278
100
AcDbEntity
  8
Camada_1
 62
7
100
AcDbPolyline
 90
2
 70
0
 10
46.103824
 20
8.079106
 30
0.0
 10
46.003554
 20
8.079380
 30
0.0
  0
SPLINE
  5
279
100
AcDbEntity
  8
Camada_1
 62
7
100
AcDbSpline
 70
8
 71
3
 72
8
 73
4
 74
0
 40
0
 40
0
 40
0
 40
0
 40
1
 40
1
 40
1
 40
1
 10
47.878735
 20
6.231723
 30
0.0
 10
47.804556
 20
6.264829
 30
0.0
 10
47.734232
 20
6.266131
 30
0.0
 10
47.644361
 20
6.268470
 30
0.0
  0
LWPOLYLINE
  5
27a
100
AcDbEntity
  8
Camada_1
 62
7
100
AcDbPolyline
 90
2
 70
0
 10
47.878939
 20
6.231723
 30
0.0
 10
47.878735
 20
6.231723
 30
0.0
  0
SPLINE
  5
27b
100
AcDbEntity
  8
Camada_1
 62
7
100
AcDbSpline
 70
8
 71
3
 72
8
 73
4
 74
0
 40
0
 40
0
 40
0
 40
0
 40
1
 40
1
 40
1
 40
1
 10
47.742183
 20
6.531284
 30
0.0
 10
47.863653
 20
6.529046
 30
0.0
 10
47.984167
 20
6.526503
 30
0.0
 10
48.051420
 20
6.524571
 30
0.0
  0
SPLINE
  5
27c
100
AcDbEntity
  8
Camada_1
 62
7
100
AcDbSpline
 70
8
 71
3
 72
8
 73
4
 74
0
 40
0
 40
0
 40
0
 40
0
 40
1
 40
1
 40
1
 40
1
 10
48.051420
 20
6.524571
 30
0.0
 10
48.148128
 20
6.521621
 30
0.0
 10
48.216944
 20
6.517858
 30
0.0
 10
48.284595
 20
6.525588
 30
0.0
  0
SPLINE
  5
27d
100
AcDbEntity
  8
Camada_1
 62
7
100
AcDbSpline
 70
8
 71
3
 72
8
 73
4
 74
0
 40
0
 40
0
 40
0
 40
0
 40
1
 40
1
 40
1
 40
1
 10
48.284595
 20
6.525588
 30
0.0
 10
48.352246
 20
6.533114
 30
0.0
 10
48.427990
 20
6.563250
 30
0.0
 10
48.477444
 20
6.615172
 30
0.0
  0
SPLINE
  5
27e
100
AcDbEntity
  8
Camada_1
 62
7
100
AcDbSpline
 70
8
 71
3
 72
8
 73
4
 74
0
 40
0
 40
0
 40
0
 40
0
 40
1
 40
1
 40
1
 40
1
 10
48.477444
 20
6.615172
 30
0.0
 10
48.597731
 20
6.741504
 30
0.0
 10
48.580874
 20
6.901094
 30
0.0
 10
48.580056
 20
6.946323
 30
0.0
  0
SPLINE
  5
27f
100
AcDbEntity
  8
Camada_1
 62
7
100
AcDbSpline
 70
8
 71
3
 72
8
 73
4
 74
0
 40
0
 40
0
 40
0
 40
0
 40
1
 40
1
 40
1
 40
1
 10
48.580056
 20
6.946323
 30
0.0
 10
48.579443
 20
6.980131
 30
0.0
 10
48.581886
 20
7.115128
 30
0.0
 10
48.492616
 20
7.241510
 30
0.0
  0
SPLINE
  5
280
100
AcDbEntity
  8
Camada_1
 62
7
100
AcDbSpline
 70
8
 71
3
 72
8
 73
4
 74
0
 40
0
 40
0
 40
0
 40
0
 40
1
 40
1
 40
1
 40
1
 10
48.492616
 20
7.241510
 30
0.0
 10
48.426413
 20
7.335254
 30
0.0
 10
48.324846
 20
7.383332
 30
0.0
 10
48.230095
 20
7.404009
 30
0.0
  0
SPLINE
  5
281
100
AcDbEntity
  8
Camada_1
 62
7
100
AcDbSpline
 70
8
 71
3
 72
8
 73
4
 74
0
 40
0
 40
0
 40
0
 40
0
 40
1
 40
1
 40
1
 40
1
 10
48.230095
 20
7.404009
 30
0.0
 10
48.135342
 20
7.424686
 30
0.0
 10
48.041112
 20
7.424595
 30
0.0
 10
47.951003
 20
7.425266
 30
0.0
  0
SPLINE
  5
282
100
AcDbEntity
  8
Camada_1
 62
7
100
AcDbSpline
 70
8
 71
3
 72
8
 73
4
 74
0
 40
0
 40
0
 40
0
 40
0
 40
1
 40
1
 40
1
 40
1
 10
47.951003
 20
7.425266
 30
0.0
 10
47.602871
 20
7.427707
 30
0.0
 10
47.336298
 20
7.426792
 30
0.0
 10
47.141078
 20
7.425266
 30
0.0
  0
LWPOLYLINE
  5
283
100
AcDbEntity
  8
Camada_1
 62
7
100
AcDbPolyline
 90
2
 70
0
 10
47.644361
 20
6.268470
 30
0.0
 10
47.742183
 20
6.531284
 30
0.0
  0
SPLINE
  5
284
100
AcDbEntity
  8
Camada_1
 62
7
100
AcDbSpline
 70
8
 71
3
 72
8
 73
4
 74
0
 40
0
 40
0
 40
0
 40
0
 40
1
 40
1
 40
1
 40
1
 10
47.139084
 20
7.425266
 30
0.0
 10
46.790282
 20
7.427809
 30
0.0
 10
46.441407
 20
7.430351
 30
0.0
 10
46.092590
 20
7.432792
 30
0.0
  0
LWPOLYLINE
  5
285
100
AcDbEntity
  8
Camada_1
 62
7
100
AcDbPolyline
 90
2
 70
0
 10
47.141078
 20
7.425266
 30
0.0
 10
47.139084
 20
7.425266
 30
0.0
  0
LWPOLYLINE
  5
286
100
AcDbEntity
  8
Camada_1
 62
7
100
AcDbPolyline
 90
2
 70
0
 10
46.092590
 20
7.432792
 30
0.0
 10
46.202991
 20
7.814980
 30
0.0
  0
LWPOLYLINE
  5
287
100
AcDbEntity
  8
Camada_1
 62
7
100
AcDbPolyline
 90
1
 70
1
 10
47.650405
 20
6.665223
 30
0.0
  0
SPLINE
  5
288
100
AcDbEntity
  8
Camada_1
 62
7
100
AcDbSpline
 70
8
 71
3
 72
8
 73
4
 74
0
 40
0
 40
0
 40
0
 40
0
 40
1
 40
1
 40
1
 40
1
 10
49.689841
 20
4.919080
 30
0.0
 10
49.700640
 20
4.806683
 30
0.0
 10
49.711581
 20
4.694387
 30
0.0
 10
49.722381
 20
4.581979
 30
0.0
  0
LWPOLYLINE
  5
289
100
AcDbEntity
  8
Camada_1
 62
7
100
AcDbPolyline
 90
2
 70
0
 10
49.675867
 20
5.065092
 30
0.0
 10
49.689841
 20
4.919080
 30
0.0
  0
SPLINE
  5
28a
100
AcDbEntity
  8
Camada_1
 62
7
100
AcDbSpline
 70
8
 71
3
 72
8
 73
4
 74
0
 40
0
 40
0
 40
0
 40
0
 40
1
 40
1
 40
1
 40
1
 10
49.853941
 20
4.462981
 30
0.0
 10
51.005908
 20
4.459116
 30
0.0
 10
52.157886
 20
4.455149
 30
0.0
 10
53.309848
 20
4.451264
 30
0.0
  0
LWPOLYLINE
  5
28b
100
AcDbEntity
  8
Camada_1
 62
7
100
AcDbPolyline
 90
3
 70
0
 10
49.722381
 20
4.581979
 30
0.0
 10
49.733760
 20
4.462981
 30
0.0
 10
49.853941
 20
4.462981
 30
0.0
  0
SPLINE
  5
28c
100
AcDbEntity
  8
Camada_1
 62
7
100
AcDbSpline
 70
8
 71
3
 72
8
 73
4
 74
0
 40
0
 40
0
 40
0
 40
0
 40
1
 40
1
 40
1
 40
1
 10
53.387107
 20
4.690807
 30
0.0
 10
53.232977
 20
4.800011
 30
0.0
 10
52.993782
 20
4.937571
 30
0.0
 10
52.678598
 20
5.003081
 30
0.0
  0
SPLINE
  5
28d
100
AcDbEntity
  8
Camada_1
 62
7
100
AcDbSpline
 70
8
 71
3
 72
8
 73
4
 74
0
 40
0
 40
0
 40
0
 40
0
 40
1
 40
1
 40
1
 40
1
 10
52.678598
 20
5.003081
 30
0.0
 10
52.545521
 20
5.030735
 30
0.0
 10
52.423571
 20
5.040448
 30
0.0
 10
52.317854
 20
5.040825
 30
0.0
  0
LWPOLYLINE
  5
28e
100
AcDbEntity
  8
Camada_1
 62
7
100
AcDbPolyline
 90
3
 70
0
 10
53.309848
 20
4.451264
 30
0.0
 10
53.727088
 20
4.449840
 30
0.0
 10
53.387107
 20
4.690807
 30
0.0
  0
SPLINE
  5
28f
100
AcDbEntity
  8
Camada_1
 62
7
100
AcDbSpline
 70
8
 71
3
 72
8
 73
4
 74
0
 40
0
 40
0
 40
0
 40
0
 40
1
 40
1
 40
1
 40
1
 10
52.317037
 20
5.040825
 30
0.0
 10
51.485732
 20
5.048554
 30
0.0
 10
50.654491
 20
5.056315
 30
0.0
 10
49.823178
 20
5.064065
 30
0.0
  0
LWPOLYLINE
  5
290
100
AcDbEntity
  8
Camada_1
 62
7
100
AcDbPolyline
 90
2
 70
0
 10
52.317854
 20
5.040825
 30
0.0
 10
52.317037
 20
5.040825
 30
0.0
  0
SPLINE
  5
291
100
AcDbEntity
  8
Camada_1
 62
7
100
AcDbSpline
 70
8
 71
3
 72
8
 73
4
 74
0
 40
0
 40
0
 40
0
 40
0
 40
1
 40
1
 40
1
 40
1
 10
49.967934
 20
4.798302
 30
0.0
 10
50.750401
 20
4.790979
 30
0.0
 10
51.532988
 20
4.783727
 30
0.0
 10
52.315459
 20
4.776455
 30
0.0
  0
LWPOLYLINE
  5
292
100
AcDbEntity
  8
Camada_1
 62
7
100
AcDbPolyline
 90
2
 70
0
 10
49.823178
 20
5.064065
 30
0.0
 10
49.675867
 20
5.065092
 30
0.0
  0
SPLINE
  5
293
100
AcDbEntity
  8
Camada_1
 62
7
100
AcDbSpline
 70
8
 71
3
 72
8
 73
4
 74
0
 40
0
 40
0
 40
0
 40
0
 40
1
 40
1
 40
1
 40
1
 10
52.316277
 20
4.776455
 30
0.0
 10
52.406656
 20
4.776455
 30
0.0
 10
52.510663
 20
4.767912
 30
0.0
 10
52.624316
 20
4.744275
 30
0.0
  0
SPLINE
  5
294
100
AcDbEntity
  8
Camada_1
 62
7
100
AcDbSpline
 70
8
 71
3
 72
8
 73
4
 74
0
 40
0
 40
0
 40
0
 40
0
 40
1
 40
1
 40
1
 40
1
 10
52.624316
 20
4.744275
 30
0.0
 10
52.654989
 20
4.737867
 30
0.0
 10
52.676337
 20
4.724726
 30
0.0
 10
52.705368
 20
4.716854
 30
0.0
  0
SPLINE
  5
295
100
AcDbEntity
  8
Camada_1
 62
7
100
AcDbSpline
 70
8
 71
3
 72
8
 73
4
 74
0
 40
0
 40
0
 40
0
 40
0
 40
1
 40
1
 40
1
 40
1
 10
52.705368
 20
4.716854
 30
0.0
 10
51.795227
 20
4.719905
 30
0.0
 10
50.885082
 20
4.722957
 30
0.0
 10
49.974941
 20
4.726008
 30
0.0
  0
SPLINE
  5
296
100
AcDbEntity
  8
Camada_1
 62
7
100
AcDbSpline
 70
8
 71
3
 72
8
 73
4
 74
0
 40
0
 40
0
 40
0
 40
0
 40
1
 40
1
 40
1
 40
1
 10
49.974941
 20
4.726008
 30
0.0
 10
49.972631
 20
4.750102
 30
0.0
 10
49.970270
 20
4.774217
 30
0.0
 10
49.967950
 20
4.798312
 30
0.0
  0
LWPOLYLINE
  5
297
100
AcDbEntity
  8
Camada_1
 62
7
100
AcDbPolyline
 90
3
 70
0
 10
52.315459
 20
4.776455
 30
0.0
 10
52.315868
 20
4.776455
 30
0.0
 10
52.316277
 20
4.776455
 30
0.0
  0
LWPOLYLINE
  5
298
100
AcDbEntity
  8
Camada_1
 62
7
100
AcDbPolyline
 90
1
 70
1
 10
49.967950
 20
4.798312
 30
0.0
  0
LWPOLYLINE
  5
299
100
AcDbEntity
  8
Camada_1
 62
7
100
AcDbPolyline
 90
1
 70
1
 10
49.821924
 20
4.931682
 30
0.0
  0
SPLINE
  5
29a
100
AcDbEntity
  8
Camada_1
 62
7
100
AcDbSpline
 70
8
 71
3
 72
8
 73
4
 74
0
 40
0
 40
0
 40
0
 40
0
 40
1
 40
1
 40
1
 40
1
 10
41.021824
 20
5.388889
 30
0.0
 10
40.934504
 20
5.225465
 30
0.0
 10
40.934810
 20
5.029372
 30
0.0
 10
41.044382
 20
4.886503
 30
0.0
  0
SPLINE
  5
29b
100
AcDbEntity
  8
Camada_1
 62
7
100
AcDbSpline
 70
8
 71
3
 72
8
 73
4
 74
0
 40
0
 40
0
 40
0
 40
0
 40
1
 40
1
 40
1
 40
1
 10
41.044382
 20
4.886503
 30
0.0
 10
41.129485
 20
4.775540
 30
0.0
 10
41.246196
 20
4.748241
 30
0.0
 10
41.288139
 20
4.740694
 30
0.0
  0
LWPOLYLINE
  5
29c
100
AcDbEntity
  8
Camada_1
 62
7
100
AcDbPolyline
 90
3
 70
0
 10
42.130009
 20
8.075210
 30
0.0
 10
41.016437
 20
5.377163
 30
0.0
 10
41.021824
 20
5.388889
 30
0.0
  0
SPLINE
  5
29d
100
AcDbEntity
  8
Camada_1
 62
7
100
AcDbSpline
 70
8
 71
3
 72
8
 73
4
 74
0
 40
0
 40
0
 40
0
 40
0
 40
1
 40
1
 40
1
 40
1
 10
41.311896
 20
4.738660
 30
0.0
 10
42.283869
 20
4.738660
 30
0.0
 10
43.255812
 20
4.738670
 30
0.0
 10
44.227786
 20
4.738660
 30
0.0
  0
LWPOLYLINE
  5
29e
100
AcDbEntity
  8
Camada_1
 62
7
100
AcDbPolyline
 90
3
 70
0
 10
41.288139
 20
4.740694
 30
0.0
 10
41.299917
 20
4.738660
 30
0.0
 10
41.311896
 20
4.738660
 30
0.0
  0
SPLINE
  5
29f
100
AcDbEntity
  8
Camada_1
 62
7
100
AcDbSpline
 70
8
 71
3
 72
8
 73
4
 74
0
 40
0
 40
0
 40
0
 40
0
 40
1
 40
1
 40
1
 40
1
 10
44.260126
 20
4.742627
 30
0.0
 10
44.296819
 20
4.751781
 30
0.0
 10
44.353968
 20
4.770698
 30
0.0
 10
44.412848
 20
4.812551
 30
0.0
  0
LWPOLYLINE
  5
2a0
100
AcDbEntity
  8
Camada_1
 62
7
100
AcDbPolyline
 90
3
 70
0
 10
44.227786
 20
4.738660
 30
0.0
 10
44.244155
 20
4.738660
 30
0.0
 10
44.260126
 20
4.742627
 30
0.0
  0
SPLINE
  5
2a1
100
AcDbEntity
  8
Camada_1
 62
7
100
AcDbSpline
 70
8
 71
3
 72
8
 73
4
 74
0
 40
0
 40
0
 40
0
 40
0
 40
1
 40
1
 40
1
 40
1
 10
44.335789
 20
4.788121
 30
0.0
 10
44.335789
 20
4.788121
 30
0.0
 10
44.421105
 20
4.818572
 30
0.0
 10
44.430017
 20
4.825865
 30
0.0
  0
SPLINE
  5
2a2
100
AcDbEntity
  8
Camada_1
 62
7
100
AcDbSpline
 70
8
 71
3
 72
8
 73
4
 74
0
 40
0
 40
0
 40
0
 40
0
 40
1
 40
1
 40
1
 40
1
 10
44.430017
 20
4.825865
 30
0.0
 10
44.438930
 20
4.833188
 30
0.0
 10
44.450629
 20
4.843236
 30
0.0
 10
44.463955
 20
4.856255
 30
0.0
  0
SPLINE
  5
2a3
100
AcDbEntity
  8
Camada_1
 62
7
100
AcDbSpline
 70
8
 71
3
 72
8
 73
4
 74
0
 40
0
 40
0
 40
0
 40
0
 40
1
 40
1
 40
1
 40
1
 10
44.463955
 20
4.856255
 30
0.0
 10
44.490607
 20
4.882292
 30
0.0
 10
44.523928
 20
4.919873
 30
0.0
 10
44.553193
 20
4.970280
 30
0.0
  0
SPLINE
  5
2a4
100
AcDbEntity
  8
Camada_1
 62
7
100
AcDbSpline
 70
8
 71
3
 72
8
 73
4
 74
0
 40
0
 40
0
 40
0
 40
0
 40
1
 40
1
 40
1
 40
1
 10
44.553193
 20
4.970280
 30
0.0
 10
44.579434
 20
5.015479
 30
0.0
 10
44.616270
 20
5.095004
 30
0.0
 10
44.685152
 20
5.242430
 30
0.0
  0
SPLINE
  5
2a5
100
AcDbEntity
  8
Camada_1
 62
7
100
AcDbSpline
 70
8
 71
3
 72
8
 73
4
 74
0
 40
0
 40
0
 40
0
 40
0
 40
1
 40
1
 40
1
 40
1
 10
44.685152
 20
5.242430
 30
0.0
 10
44.754035
 20
5.389856
 30
0.0
 10
44.847560
 20
5.593200
 30
0.0
 10
44.961648
 20
5.842944
 30
0.0
  0
SPLINE
  5
2a6
100
AcDbEntity
  8
Camada_1
 62
7
100
AcDbSpline
 70
8
 71
3
 72
8
 73
4
 74
0
 40
0
 40
0
 40
0
 40
0
 40
1
 40
1
 40
1
 40
1
 10
44.961648
 20
5.842944
 30
0.0
 10
45.189826
 20
6.342432
 30
0.0
 10
45.499811
 20
7.027476
 30
0.0
 10
45.855421
 20
7.819689
 30
0.0
  0
LWPOLYLINE
  5
2a7
100
AcDbEntity
  8
Camada_1
 62
7
100
AcDbPolyline
 90
2
 70
0
 10
44.412848
 20
4.812551
 30
0.0
 10
44.335789
 20
4.788121
 30
0.0
  0
SPLINE
  5
2a8
100
AcDbEntity
  8
Camada_1
 62
7
100
AcDbSpline
 70
8
 71
3
 72
8
 73
4
 74
0
 40
0
 40
0
 40
0
 40
0
 40
1
 40
1
 40
1
 40
1
 10
44.347567
 20
7.916668
 30
0.0
 10
44.051926
 20
7.180709
 30
0.0
 10
43.756224
 20
6.444842
 30
0.0
 10
43.460583
 20
5.708883
 30
0.0
  0
LWPOLYLINE
  5
2a9
100
AcDbEntity
  8
Camada_1
 62
7
100
AcDbPolyline
 90
4
 70
0
 10
45.855421
 20
7.819689
 30
0.0
 10
45.939269
 20
8.006425
 30
0.0
 10
44.380707
 20
7.999306
 30
0.0
 10
44.347567
 20
7.916668
 30
0.0
  0
SPLINE
  5
2aa
100
AcDbEntity
  8
Camada_1
 62
7
100
AcDbSpline
 70
8
 71
3
 72
8
 73
4
 74
0
 40
0
 40
0
 40
0
 40
0
 40
1
 40
1
 40
1
 40
1
 10
43.459561
 20
5.705832
 30
0.0
 10
43.428617
 20
5.623123
 30
0.0
 10
43.392509
 20
5.588593
 30
0.0
 10
43.369325
 20
5.569360
 30
0.0
  0
SPLINE
  5
2ab
100
AcDbEntity
  8
Camada_1
 62
7
100
AcDbSpline
 70
8
 71
3
 72
8
 73
4
 74
0
 40
0
 40
0
 40
0
 40
0
 40
1
 40
1
 40
1
 40
1
 10
43.369325
 20
5.569360
 30
0.0
 10
43.353935
 20
5.556606
 30
0.0
 10
43.321983
 20
5.542540
 30
0.0
 10
43.242157
 20
5.536590
 30
0.0
  0
SPLINE
  5
2ac
100
AcDbEntity
  8
Camada_1
 62
7
100
AcDbSpline
 70
8
 71
3
 72
8
 73
4
 74
0
 40
0
 40
0
 40
0
 40
0
 40
1
 40
1
 40
1
 40
1
 10
43.242157
 20
5.536590
 30
0.0
 10
43.162331
 20
5.530589
 30
0.0
 10
43.043471
 20
5.534149
 30
0.0
 10
42.882811
 20
5.540150
 30
0.0
  0
SPLINE
  5
2ad
100
AcDbEntity
  8
Camada_1
 62
7
100
AcDbSpline
 70
8
 71
3
 72
8
 73
4
 74
0
 40
0
 40
0
 40
0
 40
0
 40
1
 40
1
 40
1
 40
1
 10
42.882811
 20
5.540150
 30
0.0
 10
42.839912
 20
5.541777
 30
0.0
 10
42.813357
 20
5.544218
 30
0.0
 10
42.804154
 20
5.546150
 30
0.0
  0
SPLINE
  5
2ae
100
AcDbEntity
  8
Camada_1
 62
7
100
AcDbSpline
 70
8
 71
3
 72
8
 73
4
 74
0
 40
0
 40
0
 40
0
 40
0
 40
1
 40
1
 40
1
 40
1
 10
42.804154
 20
5.546150
 30
0.0
 10
42.794955
 20
5.548083
 30
0.0
 10
42.804058
 20
5.544218
 30
0.0
 10
42.801364
 20
5.546150
 30
0.0
  0
SPLINE
  5
2af
100
AcDbEntity
  8
Camada_1
 62
7
100
AcDbSpline
 70
8
 71
3
 72
8
 73
4
 74
0
 40
0
 40
0
 40
0
 40
0
 40
1
 40
1
 40
1
 40
1
 10
42.801364
 20
5.546150
 30
0.0
 10
42.793197
 20
5.553066
 30
0.0
 10
42.773114
 20
5.597594
 30
0.0
 10
42.769621
 20
5.654418
 30
0.0
  0
SPLINE
  5
2b0
100
AcDbEntity
  8
Camada_1
 62
7
100
AcDbSpline
 70
8
 71
3
 72
8
 73
4
 74
0
 40
0
 40
0
 40
0
 40
0
 40
1
 40
1
 40
1
 40
1
 10
42.769621
 20
5.654418
 30
0.0
 10
42.766126
 20
5.711243
 30
0.0
 10
42.773710
 20
5.765748
 30
0.0
 10
42.776010
 20
5.781157
 30
0.0
  0
SPLINE
  5
2b1
100
AcDbEntity
  8
Camada_1
 62
7
100
AcDbSpline
 70
8
 71
3
 72
8
 73
4
 74
0
 40
0
 40
0
 40
0
 40
0
 40
1
 40
1
 40
1
 40
1
 10
42.776010
 20
5.781157
 30
0.0
 10
42.785321
 20
5.843555
 30
0.0
 10
42.802845
 20
5.884899
 30
0.0
 10
42.805756
 20
5.891805
 30
0.0
  0
LWPOLYLINE
  5
2b2
100
AcDbEntity
  8
Camada_1
 62
7
100
AcDbPolyline
 90
3
 70
0
 10
43.460583
 20
5.708883
 30
0.0
 10
43.459970
 20
5.707256
 30
0.0
 10
43.459561
 20
5.705832
 30
0.0
  0
SPLINE
  5
2b3
100
AcDbEntity
  8
Camada_1
 62
7
100
AcDbSpline
 70
8
 71
3
 72
8
 73
4
 74
0
 40
0
 40
0
 40
0
 40
0
 40
1
 40
1
 40
1
 40
1
 10
42.805756
 20
5.891805
 30
0.0
 10
42.877050
 20
6.061800
 30
0.0
 10
43.192071
 20
6.822107
 30
0.0
 10
43.603502
 20
7.810749
 30
0.0
  0
LWPOLYLINE
  5
2b4
100
AcDbEntity
  8
Camada_1
 62
7
100
AcDbPolyline
 90
1
 70
1
 10
42.805756
 20
5.891805
 30
0.0
  0
SPLINE
  5
2b5
100
AcDbEntity
  8
Camada_1
 62
7
100
AcDbSpline
 70
8
 71
3
 72
8
 73
4
 74
0
 40
0
 40
0
 40
0
 40
0
 40
1
 40
1
 40
1
 40
1
 10
43.392487
 20
7.993112
 30
0.0
 10
43.387121
 20
7.980215
 30
0.0
 10
43.387632
 20
7.981487
 30
0.0
 10
43.382307
 20
7.968671
 30
0.0
  0
LWPOLYLINE
  5
2b6
100
AcDbEntity
  8
Camada_1
 62
7
100
AcDbPolyline
 90
4
 70
0
 10
43.603502
 20
7.810749
 30
0.0
 10
43.647622
 20
7.810749
 30
0.0
 10
43.647622
 20
7.942654
 30
0.0
 10
43.392487
 20
7.993112
 30
0.0
  0
LWPOLYLINE
  5
2b7
100
AcDbEntity
  8
Camada_1
 62
7
100
AcDbPolyline
 90
3
 70
0
 10
43.382307
 20
7.968671
 30
0.0
 10
43.382307
 20
8.074559
 30
0.0
 10
42.130009
 20
8.075210
 30
0.0
  0
SPLINE
  5
2b8
100
AcDbEntity
  8
Camada_1
 62
7
100
AcDbSpline
 70
8
 71
3
 72
8
 73
4
 74
0
 40
0
 40
0
 40
0
 40
0
 40
1
 40
1
 40
1
 40
1
 10
43.316647
 20
7.811400
 30
0.0
 10
42.938469
 20
6.902375
 30
0.0
 10
42.627393
 20
6.152411
 30
0.0
 10
42.561023
 20
5.994164
 30
0.0
  0
SPLINE
  5
2b9
100
AcDbEntity
  8
Camada_1
 62
7
100
AcDbSpline
 70
8
 71
3
 72
8
 73
4
 74
0
 40
0
 40
0
 40
0
 40
0
 40
1
 40
1
 40
1
 40
1
 10
42.561023
 20
5.994164
 30
0.0
 10
42.557201
 20
5.985112
 30
0.0
 10
42.527855
 20
5.915127
 30
0.0
 10
42.513710
 20
5.820345
 30
0.0
  0
SPLINE
  5
2ba
100
AcDbEntity
  8
Camada_1
 62
7
100
AcDbSpline
 70
8
 71
3
 72
8
 73
4
 74
0
 40
0
 40
0
 40
0
 40
0
 40
1
 40
1
 40
1
 40
1
 10
42.513710
 20
5.820345
 30
0.0
 10
42.511400
 20
5.804885
 30
0.0
 10
42.499417
 20
5.728411
 30
0.0
 10
42.504929
 20
5.638786
 30
0.0
  0
SPLINE
  5
2bb
100
AcDbEntity
  8
Camada_1
 62
7
100
AcDbSpline
 70
8
 71
3
 72
8
 73
4
 74
0
 40
0
 40
0
 40
0
 40
0
 40
1
 40
1
 40
1
 40
1
 10
42.504929
 20
5.638786
 30
0.0
 10
42.510439
 20
5.549161
 30
0.0
 10
42.528101
 20
5.431637
 30
0.0
 10
42.629503
 20
5.345775
 30
0.0
  0
SPLINE
  5
2bc
100
AcDbEntity
  8
Camada_1
 62
7
100
AcDbSpline
 70
8
 71
3
 72
8
 73
4
 74
0
 40
0
 40
0
 40
0
 40
0
 40
1
 40
1
 40
1
 40
1
 10
42.629503
 20
5.345775
 30
0.0
 10
42.663025
 20
5.317389
 30
0.0
 10
42.709173
 20
5.296244
 30
0.0
 10
42.750082
 20
5.287771
 30
0.0
  0
SPLINE
  5
2bd
100
AcDbEntity
  8
Camada_1
 62
7
100
AcDbSpline
 70
8
 71
3
 72
8
 73
4
 74
0
 40
0
 40
0
 40
0
 40
0
 40
1
 40
1
 40
1
 40
1
 10
42.750082
 20
5.287771
 30
0.0
 10
42.790926
 20
5.279330
 30
0.0
 10
42.827515
 20
5.278313
 30
0.0
 10
42.872659
 20
5.276645
 30
0.0
  0
SPLINE
  5
2be
100
AcDbEntity
  8
Camada_1
 62
7
100
AcDbSpline
 70
8
 71
3
 72
8
 73
4
 74
0
 40
0
 40
0
 40
0
 40
0
 40
1
 40
1
 40
1
 40
1
 10
42.872659
 20
5.276645
 30
0.0
 10
43.033770
 20
5.270542
 30
0.0
 10
43.157178
 20
5.265650
 30
0.0
 10
43.262150
 20
5.273492
 30
0.0
  0
SPLINE
  5
2bf
100
AcDbEntity
  8
Camada_1
 62
7
100
AcDbSpline
 70
8
 71
3
 72
8
 73
4
 74
0
 40
0
 40
0
 40
0
 40
0
 40
1
 40
1
 40
1
 40
1
 10
43.262150
 20
5.273492
 30
0.0
 10
43.367122
 20
5.281323
 30
0.0
 10
43.462531
 20
5.303201
 30
0.0
 10
43.539045
 20
5.366656
 30
0.0
  0
SPLINE
  5
2c0
100
AcDbEntity
  8
Camada_1
 62
7
100
AcDbSpline
 70
8
 71
3
 72
8
 73
4
 74
0
 40
0
 40
0
 40
0
 40
0
 40
1
 40
1
 40
1
 40
1
 10
43.539045
 20
5.366656
 30
0.0
 10
43.588478
 20
5.407644
 30
0.0
 10
43.660198
 20
5.486183
 30
0.0
 10
43.707938
 20
5.613573
 30
0.0
  0
SPLINE
  5
2c1
100
AcDbEntity
  8
Camada_1
 62
7
100
AcDbSpline
 70
8
 71
3
 72
8
 73
4
 74
0
 40
0
 40
0
 40
0
 40
0
 40
1
 40
1
 40
1
 40
1
 10
43.707938
 20
5.613573
 30
0.0
 10
43.992173
 20
6.321135
 30
0.0
 10
44.276551
 20
7.028574
 30
0.0
 10
44.560785
 20
7.736136
 30
0.0
  0
LWPOLYLINE
  5
2c2
100
AcDbEntity
  8
Camada_1
 62
7
100
AcDbPolyline
 90
2
 70
0
 10
42.307885
 20
7.811400
 30
0.0
 10
43.316647
 20
7.811400
 30
0.0
  0
SPLINE
  5
2c3
100
AcDbEntity
  8
Camada_1
 62
7
100
AcDbSpline
 70
8
 71
3
 72
8
 73
4
 74
0
 40
0
 40
0
 40
0
 40
0
 40
1
 40
1
 40
1
 40
1
 10
45.528822
 20
7.740713
 30
0.0
 10
45.215118
 20
7.042742
 30
0.0
 10
44.926560
 20
6.403803
 30
0.0
 10
44.720294
 20
5.952280
 30
0.0
  0
SPLINE
  5
2c4
100
AcDbEntity
  8
Camada_1
 62
7
100
AcDbSpline
 70
8
 71
3
 72
8
 73
4
 74
0
 40
0
 40
0
 40
0
 40
0
 40
1
 40
1
 40
1
 40
1
 10
44.720294
 20
5.952280
 30
0.0
 10
44.606393
 20
5.702943
 30
0.0
 10
44.512921
 20
5.499985
 30
0.0
 10
44.444597
 20
5.353760
 30
0.0
  0
SPLINE
  5
2c5
100
AcDbEntity
  8
Camada_1
 62
7
100
AcDbSpline
 70
8
 71
3
 72
8
 73
4
 74
0
 40
0
 40
0
 40
0
 40
0
 40
1
 40
1
 40
1
 40
1
 10
44.444597
 20
5.353760
 30
0.0
 10
44.376272
 20
5.207524
 30
0.0
 10
44.325789
 20
5.106009
 30
0.0
 10
44.323617
 20
5.102266
 30
0.0
  0
SPLINE
  5
2c6
100
AcDbEntity
  8
Camada_1
 62
7
100
AcDbSpline
 70
8
 71
3
 72
8
 73
4
 74
0
 40
0
 40
0
 40
0
 40
0
 40
1
 40
1
 40
1
 40
1
 10
44.323617
 20
5.102266
 30
0.0
 10
44.310100
 20
5.078985
 30
0.0
 10
44.292082
 20
5.058318
 30
0.0
 10
44.278099
 20
5.044659
 30
0.0
  0
SPLINE
  5
2c7
100
AcDbEntity
  8
Camada_1
 62
7
100
AcDbSpline
 70
8
 71
3
 72
8
 73
4
 74
0
 40
0
 40
0
 40
0
 40
0
 40
1
 40
1
 40
1
 40
1
 10
44.278099
 20
5.044659
 30
0.0
 10
44.271108
 20
5.037844
 30
0.0
 10
44.265184
 20
5.032749
 30
0.0
 10
44.261530
 20
5.029759
 30
0.0
  0
SPLINE
  5
2c8
100
AcDbEntity
  8
Camada_1
 62
7
100
AcDbSpline
 70
8
 71
3
 72
8
 73
4
 74
0
 40
0
 40
0
 40
0
 40
0
 40
1
 40
1
 40
1
 40
1
 10
44.261530
 20
5.029759
 30
0.0
 10
44.257881
 20
5.026809
 30
0.0
 10
44.258739
 20
5.027419
 30
0.0
 10
44.258739
 20
5.027419
 30
0.0
  0
SPLINE
  5
2c9
100
AcDbEntity
  8
Camada_1
 62
7
100
AcDbSpline
 70
8
 71
3
 72
8
 73
4
 74
0
 40
0
 40
0
 40
0
 40
0
 40
1
 40
1
 40
1
 40
1
 10
44.258739
 20
5.027419
 30
0.0
 10
44.238172
 20
5.012794
 30
0.0
 10
44.219818
 20
5.007078
 30
0.0
 10
44.204239
 20
5.002582
 30
0.0
  0
SPLINE
  5
2ca
100
AcDbEntity
  8
Camada_1
 62
7
100
AcDbSpline
 70
8
 71
3
 72
8
 73
4
 74
0
 40
0
 40
0
 40
0
 40
0
 40
1
 40
1
 40
1
 40
1
 10
44.204239
 20
5.002582
 30
0.0
 10
43.246837
 20
5.002592
 30
0.0
 10
42.289470
 20
5.002582
 30
0.0
 10
41.332069
 20
5.002582
 30
0.0
  0
SPLINE
  5
2cb
100
AcDbEntity
  8
Camada_1
 62
7
100
AcDbSpline
 70
8
 71
3
 72
8
 73
4
 74
0
 40
0
 40
0
 40
0
 40
0
 40
1
 40
1
 40
1
 40
1
 10
41.332069
 20
5.002582
 30
0.0
 10
41.315189
 20
5.005837
 30
0.0
 10
41.279932
 20
5.014452
 30
0.0
 10
41.255209
 20
5.046683
 30
0.0
  0
SPLINE
  5
2cc
100
AcDbEntity
  8
Camada_1
 62
7
100
AcDbSpline
 70
8
 71
3
 72
8
 73
4
 74
0
 40
0
 40
0
 40
0
 40
0
 40
1
 40
1
 40
1
 40
1
 10
41.255209
 20
5.046683
 30
0.0
 10
41.221971
 20
5.090021
 30
0.0
 10
41.211883
 20
5.182239
 30
0.0
 10
41.256231
 20
5.265202
 30
0.0
  0
LWPOLYLINE
  5
2cd
100
AcDbEntity
  8
Camada_1
 62
7
100
AcDbPolyline
 90
2
 70
0
 10
44.560785
 20
7.736136
 30
0.0
 10
45.528822
 20
7.740713
 30
0.0
  0
LWPOLYLINE
  5
2ce
100
AcDbEntity
  8
Camada_1
 62
7
100
AcDbPolyline
 90
3
 70
0
 10
41.256231
 20
5.265202
 30
0.0
 10
41.259226
 20
5.271000
 30
0.0
 10
42.307885
 20
7.811400
 30
0.0
  0
SPLINE
  5
2cf
100
AcDbEntity
  8
Camada_1
 62
7
100
AcDbSpline
 70
8
 71
3
 72
8
 73
4
 74
0
 40
0
 40
0
 40
0
 40
0
 40
1
 40
1
 40
1
 40
1
 10
48.556904
 20
8.758159
 30
0.0
 10
48.516446
 20
8.758159
 30
0.0
 10
48.482447
 20
8.752972
 30
0.0
 10
48.462077
 20
8.750226
 30
0.0
  0
SPLINE
  5
2d0
100
AcDbEntity
  8
Camada_1
 62
7
100
AcDbSpline
 70
8
 71
3
 72
8
 73
4
 74
0
 40
0
 40
0
 40
0
 40
0
 40
1
 40
1
 40
1
 40
1
 10
48.462077
 20
8.750226
 30
0.0
 10
48.297296
 20
8.727626
 30
0.0
 10
48.178968
 20
8.653573
 30
0.0
 10
48.137668
 20
8.627464
 30
0.0
  0
SPLINE
  5
2d1
100
AcDbEntity
  8
Camada_1
 62
7
100
AcDbSpline
 70
8
 71
3
 72
8
 73
4
 74
0
 40
0
 40
0
 40
0
 40
0
 40
1
 40
1
 40
1
 40
1
 10
48.137668
 20
8.627464
 30
0.0
 10
48.031321
 20
8.560235
 30
0.0
 10
47.895248
 20
8.467325
 30
0.0
 10
47.740990
 20
8.344187
 30
0.0
  0
LWPOLYLINE
  5
2d2
100
AcDbEntity
  8
Camada_1
 62
7
100
AcDbPolyline
 90
1
 70
1
 10
43.514948
 20
7.943346
 30
0.0
  0
SPLINE
  5
2d3
100
AcDbEntity
  8
Camada_1
 62
7
100
AcDbSpline
 70
8
 71
3
 72
8
 73
4
 74
0
 40
0
 40
0
 40
0
 40
0
 40
1
 40
1
 40
1
 40
1
 10
47.845200
 20
8.110971
 30
0.0
 10
47.899174
 20
8.119616
 30
0.0
 10
47.978490
 20
8.134028
 30
0.0
 10
48.073585
 20
8.156658
 30
0.0
  0
SPLINE
  5
2d4
100
AcDbEntity
  8
Camada_1
 62
7
100
AcDbSpline
 70
8
 71
3
 72
8
 73
4
 74
0
 40
0
 40
0
 40
0
 40
0
 40
1
 40
1
 40
1
 40
1
 10
48.073585
 20
8.156658
 30
0.0
 10
48.232457
 20
8.194494
 30
0.0
 10
48.360310
 20
8.225698
 30
0.0
 10
48.495416
 20
8.310024
 30
0.0
  0
SPLINE
  5
2d5
100
AcDbEntity
  8
Camada_1
 62
7
100
AcDbSpline
 70
8
 71
3
 72
8
 73
4
 74
0
 40
0
 40
0
 40
0
 40
0
 40
1
 40
1
 40
1
 40
1
 10
48.495416
 20
8.310024
 30
0.0
 10
48.546081
 20
8.341645
 30
0.0
 10
48.600362
 20
8.381117
 30
0.0
 10
48.646741
 20
8.424638
 30
0.0
  0
SPLINE
  5
2d6
100
AcDbEntity
  8
Camada_1
 62
7
100
AcDbSpline
 70
8
 71
3
 72
8
 73
4
 74
0
 40
0
 40
0
 40
0
 40
0
 40
1
 40
1
 40
1
 40
1
 10
48.646741
 20
8.424638
 30
0.0
 10
48.669930
 20
8.446404
 30
0.0
 10
48.691123
 20
8.468322
 30
0.0
 10
48.710624
 20
8.498143
 30
0.0
  0
SPLINE
  5
2d7
100
AcDbEntity
  8
Camada_1
 62
7
100
AcDbSpline
 70
8
 71
3
 72
8
 73
4
 74
0
 40
0
 40
0
 40
0
 40
0
 40
1
 40
1
 40
1
 40
1
 10
48.710624
 20
8.498143
 30
0.0
 10
48.730126
 20
8.527953
 30
0.0
 10
48.764423
 20
8.577933
 30
0.0
 10
48.732984
 20
8.656461
 30
0.0
  0
SPLINE
  5
2d8
100
AcDbEntity
  8
Camada_1
 62
7
100
AcDbSpline
 70
8
 71
3
 72
8
 73
4
 74
0
 40
0
 40
0
 40
0
 40
0
 40
1
 40
1
 40
1
 40
1
 10
48.732984
 20
8.656461
 30
0.0
 10
48.709784
 20
8.714425
 30
0.0
 10
48.659212
 20
8.739313
 30
0.0
 10
48.629172
 20
8.748436
 30
0.0
  0
SPLINE
  5
2d9
100
AcDbEntity
  8
Camada_1
 62
7
100
AcDbSpline
 70
8
 71
3
 72
8
 73
4
 74
0
 40
0
 40
0
 40
0
 40
0
 40
1
 40
1
 40
1
 40
1
 10
48.629172
 20
8.748436
 30
0.0
 10
48.599133
 20
8.757589
 30
0.0
 10
48.577133
 20
8.757996
 30
0.0
 10
48.556904
 20
8.758200
 30
0.0
  0
LWPOLYLINE
  5
2da
100
AcDbEntity
  8
Camada_1
 62
7
100
AcDbPolyline
 90
3
 70
0
 10
47.740990
 20
8.344187
 30
0.0
 10
47.348904
 20
8.031313
 30
0.0
 10
47.845200
 20
8.110971
 30
0.0
  0
LWPOLYLINE
  5
2db
100
AcDbEntity
  8
Camada_1
 62
7
100
AcDbPolyline
 90
1
 70
1
 10
48.556904
 20
8.758200
 30
0.0
  0
SPLINE
  5
2dc
100
AcDbEntity
  8
Camada_1
 62
7
100
AcDbSpline
 70
8
 71
3
 72
8
 73
4
 74
0
 40
0
 40
0
 40
0
 40
0
 40
1
 40
1
 40
1
 40
1
 10
65.521608
 20
5.594482
 30
0.0
 10
64.772816
 20
5.519686
 30
0.0
 10
64.147910
 20
4.889361
 30
0.0
 10
64.051086
 20
4.072636
 30
0.0
  0
SPLINE
  5
2dd
100
AcDbEntity
  8
Camada_1
 62
7
100
AcDbSpline
 70
8
 71
3
 72
8
 73
4
 74
0
 40
0
 40
0
 40
0
 40
0
 40
1
 40
1
 40
1
 40
1
 10
64.051086
 20
4.072636
 30
0.0
 10
63.940455
 20
3.139231
 30
0.0
 10
64.557320
 20
2.282616
 30
0.0
 10
65.444148
 20
2.178132
 30
0.0
  0
SPLINE
  5
2de
100
AcDbEntity
  8
Camada_1
 62
7
100
AcDbSpline
 70
8
 71
3
 72
8
 73
4
 74
0
 40
0
 40
0
 40
0
 40
0
 40
1
 40
1
 40
1
 40
1
 10
65.444148
 20
2.178132
 30
0.0
 10
66.330992
 20
2.073647
 30
0.0
 10
67.131242
 20
2.763593
 30
0.0
 10
67.241875
 20
3.696998
 30
0.0
  0
SPLINE
  5
2df
100
AcDbEntity
  8
Camada_1
 62
7
100
AcDbSpline
 70
8
 71
3
 72
8
 73
4
 74
0
 40
0
 40
0
 40
0
 40
0
 40
1
 40
1
 40
1
 40
1
 10
67.241875
 20
3.696998
 30
0.0
 10
67.352531
 20
4.630402
 30
0.0
 10
66.735641
 20
5.487017
 30
0.0
 10
65.848812
 20
5.591502
 30
0.0
  0
SPLINE
  5
2e0
100
AcDbEntity
  8
Camada_1
 62
7
100
AcDbSpline
 70
8
 71
3
 72
8
 73
4
 74
0
 40
0
 40
0
 40
0
 40
0
 40
1
 40
1
 40
1
 40
1
 10
65.848812
 20
5.591502
 30
0.0
 10
65.737958
 20
5.604571
 30
0.0
 10
65.628578
 20
5.605171
 30
0.0
 10
65.521608
 20
5.594451
 30
0.0
  0
LWPOLYLINE
  5
2e1
100
AcDbEntity
  8
Camada_1
 62
7
100
AcDbPolyline
 90
1
 70
1
 10
47.824028
 20
8.241310
 30
0.0
  0
SPLINE
  5
2e2
100
AcDbEntity
  8
Camada_1
 62
7
100
AcDbSpline
 70
8
 71
3
 72
8
 73
4
 74
0
 40
0
 40
0
 40
0
 40
0
 40
1
 40
1
 40
1
 40
1
 10
65.554149
 20
5.253008
 30
0.0
 10
65.637444
 20
5.261449
 30
0.0
 10
65.722509
 20
5.260941
 30
0.0
 10
65.808285
 20
5.250770
 30
0.0
  0
SPLINE
  5
2e3
100
AcDbEntity
  8
Camada_1
 62
7
100
AcDbSpline
 70
8
 71
3
 72
8
 73
4
 74
0
 40
0
 40
0
 40
0
 40
0
 40
1
 40
1
 40
1
 40
1
 10
65.808285
 20
5.250770
 30
0.0
 10
66.494496
 20
5.169922
 30
0.0
 10
66.989816
 20
4.500603
 30
0.0
 10
66.899298
 20
3.737071
 30
0.0
  0
SPLINE
  5
2e4
100
AcDbEntity
  8
Camada_1
 62
7
100
AcDbSpline
 70
8
 71
3
 72
8
 73
4
 74
0
 40
0
 40
0
 40
0
 40
0
 40
1
 40
1
 40
1
 40
1
 10
66.899298
 20
3.737071
 30
0.0
 10
66.808801
 20
2.973539
 30
0.0
 10
66.170911
 20
2.437914
 30
0.0
 10
65.484675
 20
2.518762
 30
0.0
  0
SPLINE
  5
2e5
100
AcDbEntity
  8
Camada_1
 62
7
100
AcDbSpline
 70
8
 71
3
 72
8
 73
4
 74
0
 40
0
 40
0
 40
0
 40
0
 40
1
 40
1
 40
1
 40
1
 10
65.484675
 20
2.518762
 30
0.0
 10
64.798466
 20
2.599610
 30
0.0
 10
64.303163
 20
3.268919
 30
0.0
 10
64.393662
 20
4.032461
 30
0.0
  0
SPLINE
  5
2e6
100
AcDbEntity
  8
Camada_1
 62
7
100
AcDbSpline
 70
8
 71
3
 72
8
 73
4
 74
0
 40
0
 40
0
 40
0
 40
0
 40
1
 40
1
 40
1
 40
1
 10
64.393662
 20
4.032461
 30
0.0
 10
64.472864
 20
4.700540
 30
0.0
 10
64.971082
 20
5.194180
 30
0.0
 10
65.554149
 20
5.252957
 30
0.0
  0
LWPOLYLINE
  5
2e7
100
AcDbEntity
  8
Camada_1
 62
7
100
AcDbPolyline
 90
1
 70
1
 10
65.521608
 20
5.594451
 30
0.0
  0
LWPOLYLINE
  5
2e8
100
AcDbEntity
  8
Camada_1
 62
7
100
AcDbPolyline
 90
1
 70
1
 10
65.554149
 20
5.252957
 30
0.0
  0
SPLINE
  5
2e9
100
AcDbEntity
  8
Camada_1
 62
7
100
AcDbSpline
 70
8
 71
3
 72
8
 73
4
 74
0
 40
0
 40
0
 40
0
 40
0
 40
1
 40
1
 40
1
 40
1
 10
0.387431
 20
18.459553
 30
0.0
 10
3.895128
 20
15.931388
 30
0.0
 10
7.402770
 20
13.403314
 30
0.0
 10
10.910466
 20
10.875159
 30
0.0
  0
SPLINE
  5
2ea
100
AcDbEntity
  8
Camada_1
 62
7
100
AcDbSpline
 70
8
 71
3
 72
8
 73
4
 74
0
 40
0
 40
0
 40
0
 40
0
 40
1
 40
1
 40
1
 40
1
 10
10.910466
 20
10.875159
 30
0.0
 10
11.545172
 20
9.481781
 30
0.0
 10
12.175104
 20
8.025679
 30
0.0
 10
12.792639
 20
6.505684
 30
0.0
  0
SPLINE
  5
2eb
100
AcDbEntity
  8
Camada_1
 62
7
100
AcDbSpline
 70
8
 71
3
 72
8
 73
4
 74
0
 40
0
 40
0
 40
0
 40
0
 40
1
 40
1
 40
1
 40
1
 10
12.792639
 20
6.505684
 30
0.0
 10
13.509623
 20
4.740939
 30
0.0
 10
14.155766
 20
3.024474
 30
0.0
 10
14.738694
 20
1.365658
 30
0.0
  0
LWPOLYLINE
  5
2ec
100
AcDbEntity
  8
Camada_1
 62
7
100
AcDbPolyline
 90
3
 70
0
 10
17.558958
 20
19.875511
 30
0.0
 10
-0.000063
 20
18.738853
 30
0.0
 10
0.387431
 20
18.459553
 30
0.0
  0
SPLINE
  5
2ed
100
AcDbEntity
  8
Camada_1
 62
7
100
AcDbSpline
 70
8
 71
3
 72
8
 73
4
 74
0
 40
0
 40
0
 40
0
 40
0
 40
1
 40
1
 40
1
 40
1
 10
14.736895
 20
1.371049
 30
0.0
 10
14.772108
 20
1.259302
 30
0.0
 10
14.909481
 20
0.870503
 30
0.0
 10
15.318037
 20
0.603479
 30
0.0
  0
LWPOLYLINE
  5
2ee
100
AcDbEntity
  8
Camada_1
 62
7
100
AcDbPolyline
 90
2
 70
0
 10
14.738694
 20
1.365658
 30
0.0
 10
14.736895
 20
1.371049
 30
0.0
  0
SPLINE
  5
2ef
100
AcDbEntity
  8
Camada_1
 62
7
100
AcDbSpline
 70
8
 71
3
 72
8
 73
4
 74
0
 40
0
 40
0
 40
0
 40
0
 40
1
 40
1
 40
1
 40
1
 10
15.580574
 20
0.473761
 30
0.0
 10
15.865594
 20
0.366652
 30
0.0
 10
16.121547
 20
0.372439
 30
0.0
 10
16.190862
 20
0.373243
 30
0.0
  0
SPLINE
  5
2f0
100
AcDbEntity
  8
Camada_1
 62
7
100
AcDbSpline
 70
8
 71
3
 72
8
 73
4
 74
0
 40
0
 40
0
 40
0
 40
0
 40
1
 40
1
 40
1
 40
1
 10
16.190862
 20
0.373243
 30
0.0
 10
16.516622
 20
0.377108
 30
0.0
 10
20.234622
 20
0.340777
 30
0.0
 10
26.262120
 20
0.276701
 30
0.0
  0
SPLINE
  5
2f1
100
AcDbEntity
  8
Camada_1
 62
7
100
AcDbSpline
 70
8
 71
3
 72
8
 73
4
 74
0
 40
0
 40
0
 40
0
 40
0
 40
1
 40
1
 40
1
 40
1
 10
26.262120
 20
0.276701
 30
0.0
 10
32.288818
 20
0.212625
 30
0.0
 10
40.647571
 20
0.121159
 30
0.0
 10
50.325894
 20
0.015281
 30
0.0
  0
SPLINE
  5
2f2
100
AcDbEntity
  8
Camada_1
 62
7
100
AcDbSpline
 70
8
 71
3
 72
8
 73
4
 74
0
 40
0
 40
0
 40
0
 40
0
 40
1
 40
1
 40
1
 40
1
 10
50.325894
 20
0.015281
 30
0.0
 10
50.534063
 20
0.008976
 30
0.0
 10
50.746075
 20
0.004989
 30
0.0
 10
50.962136
 20
0.003555
 30
0.0
  0
LWPOLYLINE
  5
2f3
100
AcDbEntity
  8
Camada_1
 62
7
100
AcDbPolyline
 90
3
 70
0
 10
15.318037
 20
0.603479
 30
0.0
 10
15.579960
 20
0.432437
 30
0.0
 10
15.580574
 20
0.473761
 30
0.0
  0
SPLINE
  5
2f4
100
AcDbEntity
  8
Camada_1
 62
7
100
AcDbSpline
 70
8
 71
3
 72
8
 73
4
 74
0
 40
0
 40
0
 40
0
 40
0
 40
1
 40
1
 40
1
 40
1
 10
50.962340
 20
0.003555
 30
0.0
 10
51.287250
 20
0.001419
 30
0.0
 10
51.603360
 20
0.005385
 30
0.0
 10
51.910813
 20
0.014285
 30
0.0
  0
SPLINE
  5
2f5
100
AcDbEntity
  8
Camada_1
 62
7
100
AcDbSpline
 70
8
 71
3
 72
8
 73
4
 74
0
 40
0
 40
0
 40
0
 40
0
 40
1
 40
1
 40
1
 40
1
 10
51.910813
 20
0.014285
 30
0.0
 10
54.827287
 20
-0.024527
 30
0.0
 10
57.779288
 20
0.015302
 30
0.0
 10
60.693818
 20
0.149963
 30
0.0
  0
SPLINE
  5
2f6
100
AcDbEntity
  8
Camada_1
 62
7
100
AcDbSpline
 70
8
 71
3
 72
8
 73
4
 74
0
 40
0
 40
0
 40
0
 40
0
 40
1
 40
1
 40
1
 40
1
 10
60.693818
 20
0.149963
 30
0.0
 10
61.978238
 20
0.209350
 30
0.0
 10
63.711088
 20
0.223295
 30
0.0
 10
65.315600
 20
0.558382
 30
0.0
  0
SPLINE
  5
2f7
100
AcDbEntity
  8
Camada_1
 62
7
100
AcDbSpline
 70
8
 71
3
 72
8
 73
4
 74
0
 40
0
 40
0
 40
0
 40
0
 40
1
 40
1
 40
1
 40
1
 10
65.315600
 20
0.558382
 30
0.0
 10
66.909919
 20
0.891343
 30
0.0
 10
68.395683
 20
1.549343
 30
0.0
 10
69.155806
 20
2.914355
 30
0.0
  0
LWPOLYLINE
  5
2f8
100
AcDbEntity
  8
Camada_1
 62
7
100
AcDbPolyline
 90
2
 70
0
 10
50.962136
 20
0.003555
 30
0.0
 10
50.962340
 20
0.003555
 30
0.0
  0
SPLINE
  5
2f9
100
AcDbEntity
  8
Camada_1
 62
7
100
AcDbSpline
 70
8
 71
3
 72
8
 73
4
 74
0
 40
0
 40
0
 40
0
 40
0
 40
1
 40
1
 40
1
 40
1
 10
69.171179
 20
2.938979
 30
0.0
 10
69.428929
 20
3.380706
 30
0.0
 10
69.337675
 20
3.927021
 30
0.0
 10
69.337675
 20
3.927051
 30
0.0
  0
LWPOLYLINE
  5
2fa
100
AcDbEntity
  8
Camada_1
 62
7
100
AcDbPolyline
 90
6
 70
0
 10
69.155806
 20
2.914355
 30
0.0
 10
69.157002
 20
2.913338
 30
0.0
 10
69.169380
 20
2.934198
 30
0.0
 10
69.170198
 20
2.936232
 30
0.0
 10
69.171997
 20
2.938979
 30
0.0
 10
69.171179
 20
2.938979
 30
0.0
  0
SPLINE
  5
2fb
100
AcDbEntity
  8
Camada_1
 62
7
100
AcDbSpline
 70
8
 71
3
 72
8
 73
4
 74
0
 40
0
 40
0
 40
0
 40
0
 40
1
 40
1
 40
1
 40
1
 10
69.336275
 20
3.948898
 30
0.0
 10
69.278108
 20
4.397522
 30
0.0
 10
69.089266
 20
4.829241
 30
0.0
 10
68.908654
 20
5.095696
 30
0.0
  0
SPLINE
  5
2fc
100
AcDbEntity
  8
Camada_1
 62
7
100
AcDbSpline
 70
8
 71
3
 72
8
 73
4
 74
0
 40
0
 40
0
 40
0
 40
0
 40
1
 40
1
 40
1
 40
1
 10
68.908654
 20
5.095696
 30
0.0
 10
67.947088
 20
6.514298
 30
0.0
 10
65.436083
 20
7.900680
 30
0.0
 10
63.154333
 20
8.974705
 30
0.0
  0
SPLINE
  5
2fd
100
AcDbEntity
  8
Camada_1
 62
7
100
AcDbSpline
 70
8
 71
3
 72
8
 73
4
 74
0
 40
0
 40
0
 40
0
 40
0
 40
1
 40
1
 40
1
 40
1
 10
63.154333
 20
8.974705
 30
0.0
 10
62.013459
 20
9.511724
 30
0.0
 10
60.930914
 20
9.963815
 30
0.0
 10
60.133036
 20
10.282009
 30
0.0
  0
SPLINE
  5
2fe
100
AcDbEntity
  8
Camada_1
 62
7
100
AcDbSpline
 70
8
 71
3
 72
8
 73
4
 74
0
 40
0
 40
0
 40
0
 40
0
 40
1
 40
1
 40
1
 40
1
 10
60.133036
 20
10.282009
 30
0.0
 10
59.734096
 20
10.441111
 30
0.0
 10
59.406385
 20
10.566811
 30
0.0
 10
59.178175
 20
10.652694
 30
0.0
  0
SPLINE
  5
2ff
100
AcDbEntity
  8
Camada_1
 62
7
100
AcDbSpline
 70
8
 71
3
 72
8
 73
4
 74
0
 40
0
 40
0
 40
0
 40
0
 40
1
 40
1
 40
1
 40
1
 10
59.178175
 20
10.652694
 30
0.0
 10
59.064070
 20
10.695635
 30
0.0
 10
58.974843
 20
10.728507
 30
0.0
 10
58.914056
 20
10.750821
 30
0.0
  0
SPLINE
  5
300
100
AcDbEntity
  8
Camada_1
 62
7
100
AcDbSpline
 70
8
 71
3
 72
8
 73
4
 74
0
 40
0
 40
0
 40
0
 40
0
 40
1
 40
1
 40
1
 40
1
 10
58.914056
 20
10.750821
 30
0.0
 10
58.853383
 20
10.773096
 30
0.0
 10
58.820748
 20
10.784944
 30
0.0
 10
58.820626
 20
10.784985
 30
0.0
  0
LWPOLYLINE
  5
301
100
AcDbEntity
  8
Camada_1
 62
7
100
AcDbPolyline
 90
3
 70
0
 10
69.337675
 20
3.927051
 30
0.0
 10
69.337675
 20
3.937975
 30
0.0
 10
69.336275
 20
3.948898
 30
0.0
  0
SPLINE
  5
302
100
AcDbEntity
  8
Camada_1
 62
7
100
AcDbSpline
 70
8
 71
3
 72
8
 73
4
 74
0
 40
0
 40
0
 40
0
 40
0
 40
1
 40
1
 40
1
 40
1
 10
58.820421
 20
10.784985
 30
0.0
 10
58.668495
 20
10.839663
 30
0.0
 10
58.281127
 20
10.976410
 30
0.0
 10
57.467086
 20
11.268495
 30
0.0
  0
SPLINE
  5
303
100
AcDbEntity
  8
Camada_1
 62
7
100
AcDbSpline
 70
8
 71
3
 72
8
 73
4
 74
0
 40
0
 40
0
 40
0
 40
0
 40
1
 40
1
 40
1
 40
1
 10
57.467086
 20
11.268495
 30
0.0
 10
55.615849
 20
11.932749
 30
0.0
 10
55.106631
 20
12.127947
 30
0.0
 10
54.170290
 20
12.435360
 30
0.0
  0
SPLINE
  5
304
100
AcDbEntity
  8
Camada_1
 62
7
100
AcDbSpline
 70
8
 71
3
 72
8
 73
4
 74
0
 40
0
 40
0
 40
0
 40
0
 40
1
 40
1
 40
1
 40
1
 10
54.170290
 20
12.435360
 30
0.0
 10
53.708729
 20
12.586894
 30
0.0
 10
53.217597
 20
12.742141
 30
0.0
 10
52.683398
 20
12.903572
 30
0.0
  0
SPLINE
  5
305
100
AcDbEntity
  8
Camada_1
 62
7
100
AcDbSpline
 70
8
 71
3
 72
8
 73
4
 74
0
 40
0
 40
0
 40
0
 40
0
 40
1
 40
1
 40
1
 40
1
 10
52.683398
 20
12.903572
 30
0.0
 10
48.727083
 20
14.099190
 30
0.0
 10
45.476097
 20
14.701311
 30
0.0
 10
43.296893
 20
15.068050
 30
0.0
  0
SPLINE
  5
306
100
AcDbEntity
  8
Camada_1
 62
7
100
AcDbSpline
 70
8
 71
3
 72
8
 73
4
 74
0
 40
0
 40
0
 40
0
 40
0
 40
1
 40
1
 40
1
 40
1
 10
43.296893
 20
15.068050
 30
0.0
 10
37.625123
 20
16.022508
 30
0.0
 10
29.890816
 20
16.950105
 30
0.0
 10
20.518377
 20
16.972287
 30
0.0
  0
SPLINE
  5
307
100
AcDbEntity
  8
Camada_1
 62
7
100
AcDbSpline
 70
8
 71
3
 72
8
 73
4
 74
0
 40
0
 40
0
 40
0
 40
0
 40
1
 40
1
 40
1
 40
1
 10
20.518377
 20
16.972287
 30
0.0
 10
19.550293
 20
17.922199
 30
0.0
 10
18.582151
 20
18.871989
 30
0.0
 10
17.614067
 20
19.821900
 30
0.0
  0
LWPOLYLINE
  5
308
100
AcDbEntity
  8
Camada_1
 62
7
100
AcDbPolyline
 90
2
 70
0
 10
58.820626
 20
10.784985
 30
0.0
 10
58.820421
 20
10.784985
 30
0.0
  0
SPLINE
  5
309
100
AcDbEntity
  8
Camada_1
 62
7
100
AcDbSpline
 70
8
 71
3
 72
8
 73
4
 74
0
 40
0
 40
0
 40
0
 40
0
 40
1
 40
1
 40
1
 40
1
 10
17.426799
 20
19.523316
 30
0.0
 10
18.392973
 20
18.575276
 30
0.0
 10
19.359146
 20
17.627307
 30
0.0
 10
20.325320
 20
16.679267
 30
0.0
  0
LWPOLYLINE
  5
30a
100
AcDbEntity
  8
Camada_1
 62
7
100
AcDbPolyline
 90
2
 70
0
 10
17.614067
 20
19.821900
 30
0.0
 10
17.558958
 20
19.875511
 30
0.0
  0
SPLINE
  5
30b
100
AcDbEntity
  8
Camada_1
 62
7
100
AcDbSpline
 70
8
 71
3
 72
8
 73
4
 74
0
 40
0
 40
0
 40
0
 40
0
 40
1
 40
1
 40
1
 40
1
 10
20.446100
 20
16.629999
 30
0.0
 10
29.829000
 20
16.612536
 30
0.0
 10
37.567439
 20
15.684024
 30
0.0
 10
43.239388
 20
14.729535
 30
0.0
  0
SPLINE
  5
30c
100
AcDbEntity
  8
Camada_1
 62
7
100
AcDbSpline
 70
8
 71
3
 72
8
 73
4
 74
0
 40
0
 40
0
 40
0
 40
0
 40
1
 40
1
 40
1
 40
1
 10
43.239388
 20
14.729535
 30
0.0
 10
45.413002
 20
14.363743
 30
0.0
 10
48.646304
 20
13.764927
 30
0.0
 10
52.583172
 20
12.575198
 30
0.0
  0
SPLINE
  5
30d
100
AcDbEntity
  8
Camada_1
 62
7
100
AcDbSpline
 70
8
 71
3
 72
8
 73
4
 74
0
 40
0
 40
0
 40
0
 40
0
 40
1
 40
1
 40
1
 40
1
 10
52.583172
 20
12.575198
 30
0.0
 10
53.114755
 20
12.414550
 30
0.0
 10
53.603255
 20
12.260066
 30
0.0
 10
54.062278
 20
12.109365
 30
0.0
  0
SPLINE
  5
30e
100
AcDbEntity
  8
Camada_1
 62
7
100
AcDbSpline
 70
8
 71
3
 72
8
 73
4
 74
0
 40
0
 40
0
 40
0
 40
0
 40
1
 40
1
 40
1
 40
1
 10
54.062278
 20
12.109365
 30
0.0
 10
54.992721
 20
11.803885
 30
0.0
 10
55.497571
 20
11.610386
 30
0.0
 10
57.350089
 20
10.945684
 30
0.0
  0
SPLINE
  5
30f
100
AcDbEntity
  8
Camada_1
 62
7
100
AcDbSpline
 70
8
 71
3
 72
8
 73
4
 74
0
 40
0
 40
0
 40
0
 40
0
 40
1
 40
1
 40
1
 40
1
 10
57.350089
 20
10.945684
 30
0.0
 10
58.164746
 20
10.653375
 30
0.0
 10
58.554822
 20
10.515449
 30
0.0
 10
58.703425
 20
10.461971
 30
0.0
  0
LWPOLYLINE
  5
310
100
AcDbEntity
  8
Camada_1
 62
7
100
AcDbPolyline
 90
3
 70
0
 10
20.325320
 20
16.679267
 30
0.0
 10
20.375628
 20
16.629999
 30
0.0
 10
20.446100
 20
16.629999
 30
0.0
  0
SPLINE
  5
311
100
AcDbEntity
  8
Camada_1
 62
7
100
AcDbSpline
 70
8
 71
3
 72
8
 73
4
 74
0
 40
0
 40
0
 40
0
 40
0
 40
1
 40
1
 40
1
 40
1
 10
58.721190
 20
10.456682
 30
0.0
 10
58.721190
 20
10.456682
 30
0.0
 10
58.734700
 20
10.450885
 30
0.0
 10
58.794656
 20
10.428865
 30
0.0
  0
SPLINE
  5
312
100
AcDbEntity
  8
Camada_1
 62
7
100
AcDbSpline
 70
8
 71
3
 72
8
 73
4
 74
0
 40
0
 40
0
 40
0
 40
0
 40
1
 40
1
 40
1
 40
1
 10
58.794656
 20
10.428865
 30
0.0
 10
58.854612
 20
10.406855
 30
0.0
 10
58.943004
 20
10.374126
 30
0.0
 10
59.056180
 20
10.331530
 30
0.0
  0
SPLINE
  5
313
100
AcDbEntity
  8
Camada_1
 62
7
100
AcDbSpline
 70
8
 71
3
 72
8
 73
4
 74
0
 40
0
 40
0
 40
0
 40
0
 40
1
 40
1
 40
1
 40
1
 10
59.056180
 20
10.331530
 30
0.0
 10
59.282531
 20
10.246350
 30
0.0
 10
59.608286
 20
10.121585
 30
0.0
 10
60.004852
 20
9.963439
 30
0.0
  0
SPLINE
  5
314
100
AcDbEntity
  8
Camada_1
 62
7
100
AcDbSpline
 70
8
 71
3
 72
8
 73
4
 74
0
 40
0
 40
0
 40
0
 40
0
 40
1
 40
1
 40
1
 40
1
 10
60.004852
 20
9.963439
 30
0.0
 10
60.797985
 20
9.647127
 30
0.0
 10
61.874697
 20
9.197253
 30
0.0
 10
63.006984
 20
8.664272
 30
0.0
  0
SPLINE
  5
315
100
AcDbEntity
  8
Camada_1
 62
7
100
AcDbSpline
 70
8
 71
3
 72
8
 73
4
 74
0
 40
0
 40
0
 40
0
 40
0
 40
1
 40
1
 40
1
 40
1
 10
63.006984
 20
8.664272
 30
0.0
 10
65.271559
 20
7.598332
 30
0.0
 10
67.762446
 20
6.172885
 30
0.0
 10
68.622757
 20
4.903661
 30
0.0
  0
SPLINE
  5
316
100
AcDbEntity
  8
Camada_1
 62
7
100
AcDbSpline
 70
8
 71
3
 72
8
 73
4
 74
0
 40
0
 40
0
 40
0
 40
0
 40
1
 40
1
 40
1
 40
1
 10
68.622757
 20
4.903661
 30
0.0
 10
68.765839
 20
4.692566
 30
0.0
 10
68.943076
 20
4.287280
 30
0.0
 10
68.993083
 20
3.909425
 30
0.0
  0
SPLINE
  5
317
100
AcDbEntity
  8
Camada_1
 62
7
100
AcDbSpline
 70
8
 71
3
 72
8
 73
4
 74
0
 40
0
 40
0
 40
0
 40
0
 40
1
 40
1
 40
1
 40
1
 10
68.993083
 20
3.909425
 30
0.0
 10
68.995556
 20
3.880133
 30
0.0
 10
69.035865
 20
3.386758
 30
0.0
 10
68.872102
 20
3.108475
 30
0.0
  0
LWPOLYLINE
  5
318
100
AcDbEntity
  8
Camada_1
 62
7
100
AcDbPolyline
 90
3
 70
0
 10
58.703425
 20
10.461971
 30
0.0
 10
58.712205
 20
10.459021
 30
0.0
 10
58.721190
 20
10.456682
 30
0.0
  0
SPLINE
  5
319
100
AcDbEntity
  8
Camada_1
 62
7
100
AcDbSpline
 70
8
 71
3
 72
8
 73
4
 74
0
 40
0
 40
0
 40
0
 40
0
 40
1
 40
1
 40
1
 40
1
 10
68.869107
 20
3.103491
 30
0.0
 10
68.182932
 20
1.847672
 30
0.0
 10
66.802011
 20
1.220155
 30
0.0
 10
65.244708
 20
0.894913
 30
0.0
  0
SPLINE
  5
31a
100
AcDbEntity
  8
Camada_1
 62
7
100
AcDbSpline
 70
8
 71
3
 72
8
 73
4
 74
0
 40
0
 40
0
 40
0
 40
0
 40
1
 40
1
 40
1
 40
1
 10
65.244708
 20
0.894913
 30
0.0
 10
63.687405
 20
0.569681
 30
0.0
 10
61.973747
 20
0.553174
 30
0.0
 10
60.677826
 20
0.493248
 30
0.0
  0
SPLINE
  5
31b
100
AcDbEntity
  8
Camada_1
 62
7
100
AcDbSpline
 70
8
 71
3
 72
8
 73
4
 74
0
 40
0
 40
0
 40
0
 40
0
 40
1
 40
1
 40
1
 40
1
 10
60.677826
 20
0.493248
 30
0.0
 10
57.770944
 20
0.358841
 30
0.0
 10
54.825601
 20
0.319246
 30
0.0
 10
51.915383
 20
0.357976
 30
0.0
  0
LWPOLYLINE
  5
31c
100
AcDbEntity
  8
Camada_1
 62
7
100
AcDbPolyline
 90
3
 70
0
 10
68.872102
 20
3.108475
 30
0.0
 10
68.871898
 20
3.108475
 30
0.0
 10
68.869107
 20
3.103491
 30
0.0
  0
SPLINE
  5
31d
100
AcDbEntity
  8
Camada_1
 62
7
100
AcDbSpline
 70
8
 71
3
 72
8
 73
4
 74
0
 40
0
 40
0
 40
0
 40
0
 40
1
 40
1
 40
1
 40
1
 10
51.908198
 20
0.357976
 30
0.0
 10
51.602471
 20
0.349128
 30
0.0
 10
51.287706
 20
0.345120
 30
0.0
 10
50.964516
 20
0.347246
 30
0.0
  0
SPLINE
  5
31e
100
AcDbEntity
  8
Camada_1
 62
7
100
AcDbSpline
 70
8
 71
3
 72
8
 73
4
 74
0
 40
0
 40
0
 40
0
 40
0
 40
1
 40
1
 40
1
 40
1
 10
50.964516
 20
0.347246
 30
0.0
 10
50.751220
 20
0.348670
 30
0.0
 10
50.541718
 20
0.352535
 30
0.0
 10
50.336260
 20
0.358770
 30
0.0
  0
LWPOLYLINE
  5
31f
100
AcDbEntity
  8
Camada_1
 62
7
100
AcDbPolyline
 90
3
 70
0
 10
51.915383
 20
0.357976
 30
0.0
 10
51.911795
 20
0.357976
 30
0.0
 10
51.908198
 20
0.357976
 30
0.0
  0
SPLINE
  5
320
100
AcDbEntity
  8
Camada_1
 62
7
100
AcDbSpline
 70
8
 71
3
 72
8
 73
4
 74
0
 40
0
 40
0
 40
0
 40
0
 40
1
 40
1
 40
1
 40
1
 10
50.332867
 20
0.358770
 30
0.0
 10
40.652912
 20
0.464678
 30
0.0
 10
32.293499
 20
0.556114
 30
0.0
 10
26.265898
 20
0.620190
 30
0.0
  0
SPLINE
  5
321
100
AcDbEntity
  8
Camada_1
 62
7
100
AcDbSpline
 70
8
 71
3
 72
8
 73
4
 74
0
 40
0
 40
0
 40
0
 40
0
 40
1
 40
1
 40
1
 40
1
 10
26.265898
 20
0.620190
 30
0.0
 10
20.238296
 20
0.684276
 30
0.0
 10
16.565091
 20
0.721175
 30
0.0
 10
16.186854
 20
0.716731
 30
0.0
  0
SPLINE
  5
322
100
AcDbEntity
  8
Camada_1
 62
7
100
AcDbSpline
 70
8
 71
3
 72
8
 73
4
 74
0
 40
0
 40
0
 40
0
 40
0
 40
1
 40
1
 40
1
 40
1
 10
16.186854
 20
0.716731
 30
0.0
 10
16.083331
 20
0.715510
 30
0.0
 10
15.783447
 20
0.710425
 30
0.0
 10
15.507291
 20
0.890946
 30
0.0
  0
LWPOLYLINE
  5
323
100
AcDbEntity
  8
Camada_1
 62
7
100
AcDbPolyline
 90
3
 70
0
 10
50.336260
 20
0.358770
 30
0.0
 10
50.334665
 20
0.358770
 30
0.0
 10
50.332867
 20
0.358770
 30
0.0
  0
SPLINE
  5
324
100
AcDbEntity
  8
Camada_1
 62
7
100
AcDbSpline
 70
8
 71
3
 72
8
 73
4
 74
0
 40
0
 40
0
 40
0
 40
0
 40
1
 40
1
 40
1
 40
1
 10
15.506269
 20
0.891963
 30
0.0
 10
15.197543
 20
1.094352
 30
0.0
 10
15.092662
 20
1.389376
 30
0.0
 10
15.065872
 20
1.474394
 30
0.0
  0
LWPOLYLINE
  5
325
100
AcDbEntity
  8
Camada_1
 62
7
100
AcDbPolyline
 90
2
 70
0
 10
15.507291
 20
0.890946
 30
0.0
 10
15.506269
 20
0.891963
 30
0.0
  0
SPLINE
  5
326
100
AcDbEntity
  8
Camada_1
 62
7
100
AcDbSpline
 70
8
 71
3
 72
8
 73
4
 74
0
 40
0
 40
0
 40
0
 40
0
 40
1
 40
1
 40
1
 40
1
 10
15.064032
 20
1.479479
 30
0.0
 10
14.479363
 20
3.143239
 30
0.0
 10
13.831512
 20
4.864788
 30
0.0
 10
13.112386
 20
6.634802
 30
0.0
  0
SPLINE
  5
327
100
AcDbEntity
  8
Camada_1
 62
7
100
AcDbSpline
 70
8
 71
3
 72
8
 73
4
 74
0
 40
0
 40
0
 40
0
 40
0
 40
1
 40
1
 40
1
 40
1
 10
13.112386
 20
6.634802
 30
0.0
 10
12.487073
 20
8.173938
 30
0.0
 10
11.848846
 20
9.648816
 30
0.0
 10
11.206058
 20
11.058498
 30
0.0
  0
LWPOLYLINE
  5
328
100
AcDbEntity
  8
Camada_1
 62
7
100
AcDbPolyline
 90
3
 70
0
 10
15.065872
 20
1.474394
 30
0.0
 10
15.065054
 20
1.476937
 30
0.0
 10
15.064032
 20
1.479479
 30
0.0
  0
SPLINE
  5
329
100
AcDbEntity
  8
Camada_1
 62
7
100
AcDbSpline
 70
8
 71
3
 72
8
 73
4
 74
0
 40
0
 40
0
 40
0
 40
0
 40
1
 40
1
 40
1
 40
1
 10
11.150360
 20
11.126643
 30
0.0
 10
7.759250
 20
13.570766
 30
0.0
 10
4.368000
 20
16.014819
 30
0.0
 10
0.976888
 20
18.458953
 30
0.0
  0
LWPOLYLINE
  5
32a
100
AcDbEntity
  8
Camada_1
 62
7
100
AcDbPolyline
 90
3
 70
0
 10
11.206058
 20
11.058498
 30
0.0
 10
11.187293
 20
11.099822
 30
0.0
 10
11.150360
 20
11.126643
 30
0.0
  0
LWPOLYLINE
  5
32b
100
AcDbEntity
  8
Camada_1
 62
7
100
AcDbPolyline
 90
2
 70
0
 10
0.976888
 20
18.458953
 30
0.0
 10
17.426799
 20
19.523316
 30
0.0
  0
SPLINE
  5
32c
100
AcDbEntity
  8
Camada_1
 62
7
100
AcDbSpline
 70
8
 71
3
 72
8
 73
4
 74
0
 40
0
 40
0
 40
0
 40
0
 40
1
 40
1
 40
1
 40
1
 10
69.104882
 20
2.914121
 30
0.0
 10
69.077097
 20
2.949414
 30
0.0
 10
69.020635
 20
3.020996
 30
0.0
 10
69.020635
 20
3.020996
 30
0.0
  0
LWPOLYLINE
  5
32d
100
AcDbEntity
  8
Camada_1
 62
7
100
AcDbPolyline
 90
3
 70
0
 10
69.020635
 20
3.020996
 30
0.0
 10
69.139618
 20
2.927038
 30
0.0
 10
69.104882
 20
2.914121
 30
0.0
  0
LWPOLYLINE
  5
32e
100
AcDbEntity
  8
Camada_1
 62
7
100
AcDbPolyline
 90
1
 70
1
 10
69.020635
 20
3.020996
 30
0.0
  0
ENDSEC
  0
SECTION
  2
OBJECTS
  0
DICTIONARY
  5
C
330
0
100
AcDbDictionary
  3
ACAD_GROUP
350
D
  3
ACAD_MLINESTYLE
350
17
  0
DICTIONARY
  5
D
330
C
100
AcDbDictionary
  0
DICTIONARY
  5
1A
330
C
100
AcDbDictionary
  0
DICTIONARY
  5
17
330
C
100
AcDbDictionary
  3
STANDARD
350
18
  0
DICTIONARY
  5
19
330
C
100
AcDbDictionary
  0
ENDSEC
  0
EOF
