  0
SECTION
  2
HEADER
  9
$ACADVER
  1
AC1014
  9
$HANDSEED
  5
FFFF
  9
$MEASUREMENT
 70
     1
  0
ENDSEC
  0
SECTION
  2
TABLES
  0
TABLE
  2
VPORT
  5
8
330
0
100
AcDbSymbolTable
 70
     4
  0
VPORT
  5
2E
330
8
100
AcDbSymbolTableRecord
100
AcDbViewportTableRecord
  2
*ACTIVE
 70
     0
 10
0.0
 20
0.0
 11
1.0
 21
1.0
 12
210.0
 22
148.5
 13
0.0
 23
0.0
 14
10.0
 24
10.0
 15
10.0
 25
10.0
 16
0.0
 26
0.0
 36
1.0
 17
0.0
 27
0.0
 37
0.0
 40
341.0
 41
1.24
 42
50.0
 43
0.0
 44
0.0
 50
0.0
 51
0.0
 71
     0
 72
   100
 73
     1
 74
     3
 75
     0
 76
     0
 77
     0
 78
     0
  0
ENDTAB
  0
TABLE
  2
LTYPE
  5
5
330
0
100
AcDbSymbolTable
 70
     1
  0
LTYPE
  5
14
330
5
100
AcDbSymbolTableRecord
100
AcDbLinetypeTableRecord
  2
BYBLOCK
 70
     0
  3

 72
    65
 73
     0
 40
0.0
  0
LTYPE
  5
15
330
5
100
AcDbSymbolTableRecord
100
AcDbLinetypeTableRecord
  2
BYLAYER
 70
     0
  3

 72
    65
 73
     0
 40
0.0
  0
LTYPE
  5
16
330
5
100
AcDbSymbolTableRecord
100
AcDbLinetypeTableRecord
  2
CONTINUOUS
 70
     0
  3
Solid line
 72
    65
 73
     0
 40
0.0
  0
ENDTAB
  0
TABLE
  2
LAYER
  5
2
100
AcDbSymbolTable
 70
2
  0
LAYER
  5
50
100
AcDbSymbolTableRecord
100
AcDbLayerTableRecord
  2
0
 70
0
  6
CONTINUOUS
  0
LAYER
  5
51
100
AcDbSymbolTableRecord
100
AcDbLayerTableRecord
  2
Camada_1
 70
0
  6
CONTINUOUS
  0
ENDTAB
  0
TABLE
  2
STYLE
  5
3
330
0
100
AcDbSymbolTable
 70
     1
  0
STYLE
  5
11
330
3
100
AcDbSymbolTableRecord
100
AcDbTextStyleTableRecord
  2
STANDARD
 70
     0
 40
0.0
 41
1.0
 50
0.0
 71
     0
 42
2.5
  3
txt
  4

  0
ENDTAB
  0
TABLE
  2
VIEW
  5
6
330
0
100
AcDbSymbolTable
 70
     0
  0
ENDTAB
  0
TABLE
  2
UCS
  5
7
330
0
100
AcDbSymbolTable
 70
     0
  0
ENDTAB
  0
TABLE
  2
APPID
  5
9
330
0
100
AcDbSymbolTable
 70
     2
  0
APPID
  5
12
330
9
100
AcDbSymbolTableRecord
100
AcDbRegAppTableRecord
  2
ACAD
 70
     0
  0
ENDTAB
  0
TABLE
  2
DIMSTYLE
  5
A
330
0
100
AcDbSymbolTable
 70
     1
  0
DIMSTYLE
105
27
330
A
100
AcDbSymbolTableRecord
100
AcDbDimStyleTableRecord
  2
ISO-25
 70
     0
  3

  4

  5

  6

  7

 40
1.0
 41
2.5
 42
0.625
 43
3.75
 44
1.25
 45
0.0
 46
0.0
 47
0.0
 48
0.0
140
2.5
141
2.5
142
0.0
143
0.03937007874016
144
1.0
145
0.0
146
1.0
147
0.625
 71
     0
 72
     0
 73
     0
 74
     0
 75
     0
 76
     0
 77
     1
 78
     8
170
     0
171
     3
172
     1
173
     0
174
     0
175
     0
176
     0
177
     0
178
     0
270
     2
271
     2
272
     2
273
     2
274
     3
340
11
275
     0
280
     0
281
     0
282
     0
283
     0
284
     8
285
     0
286
     0
287
     3
288
     0
  0
ENDTAB
  0
TABLE
  2
BLOCK_RECORD
  5
1
330
0
100
AcDbSymbolTable
 70
     1
  0
BLOCK_RECORD
  5
1F
330
1
100
AcDbSymbolTableRecord
100
AcDbBlockTableRecord
  2
*MODEL_SPACE
  0
BLOCK_RECORD
  5
1B
330
1
100
AcDbSymbolTableRecord
100
AcDbBlockTableRecord
  2
*PAPER_SPACE
  0
ENDTAB
  0
ENDSEC
  0
SECTION
  2
BLOCKS
  0
BLOCK
  5
20
330
1F
100
AcDbEntity
  8
0
100
AcDbBlockBegin
  2
*MODEL_SPACE
 70
     0
 10
0.0
 20
0.0
 30
0.0
  3
*MODEL_SPACE
  1

  0
ENDBLK
  5
21
330
1F
100
AcDbEntity
  8
0
100
AcDbBlockEnd
  0
BLOCK
  5
1C
330
1B
100
AcDbEntity
 67
     1
  8
0
100
AcDbBlockBegin
  2
*PAPER_SPACE
  1

  0
ENDBLK
  5
1D
330
1B
100
AcDbEntity
 67
     1
  8
0
100
AcDbBlockEnd
  0
ENDSEC
  0
SECTION
  2
ENTITIES
  0
LWPOLYLINE
  5
100
100
AcDbEntity
  8
Camada_1
 62
7
100
AcDbPolyline
 90
5
 70
1
 10
-0.000084
 20
45.636635
 30
0.0
 10
-0.000084
 20
-0.000238
 30
0.0
 10
99.573235
 20
-0.000238
 30
0.0
 10
99.573235
 20
0.171666
 30
0.0
 10
99.573235
 20
45.636635
 30
0.0
  0
LWPOLYLINE
  5
101
100
AcDbEntity
  8
Camada_1
 62
7
100
AcDbPolyline
 90
4
 70
1
 10
0.344387
 20
45.293236
 30
0.0
 10
99.228766
 20
45.293236
 30
0.0
 10
99.228766
 20
0.343366
 30
0.0
 10
0.344387
 20
0.343366
 30
0.0
  0
LWPOLYLINE
  5
102
100
AcDbEntity
  8
Camada_1
 62
7
100
AcDbPolyline
 90
5
 70
1
 10
43.705118
 20
29.466949
 30
0.0
 10
43.705118
 20
23.228468
 30
0.0
 10
85.102621
 20
23.228468
 30
0.0
 10
85.102621
 20
23.400168
 30
0.0
 10
85.102621
 20
29.466949
 30
0.0
  0
SPLINE
  5
103
100
AcDbEntity
  8
Camada_1
 62
7
100
AcDbSpline
 70
8
 71
3
 72
8
 73
4
 74
0
 40
0
 40
0
 40
0
 40
0
 40
1
 40
1
 40
1
 40
1
 10
89.482759
 20
13.830363
 30
0.0
 10
88.677329
 20
13.783235
 30
0.0
 10
87.931909
 20
13.443683
 30
0.0
 10
87.401302
 20
12.970053
 30
0.0
  0
SPLINE
  5
104
100
AcDbEntity
  8
Camada_1
 62
7
100
AcDbSpline
 70
8
 71
3
 72
8
 73
4
 74
0
 40
0
 40
0
 40
0
 40
0
 40
1
 40
1
 40
1
 40
1
 10
87.401302
 20
12.970053
 30
0.0
 10
86.728380
 20
12.369365
 30
0.0
 10
86.508159
 20
11.647269
 30
0.0
 10
86.447245
 20
11.420120
 30
0.0
  0
SPLINE
  5
105
100
AcDbEntity
  8
Camada_1
 62
7
100
AcDbSpline
 70
8
 71
3
 72
8
 73
4
 74
0
 40
0
 40
0
 40
0
 40
0
 40
1
 40
1
 40
1
 40
1
 10
86.447245
 20
11.420120
 30
0.0
 10
86.065430
 20
9.996395
 30
0.0
 10
86.829554
 20
8.859075
 30
0.0
 10
86.936196
 20
8.705459
 30
0.0
  0
SPLINE
  5
106
100
AcDbEntity
  8
Camada_1
 62
7
100
AcDbSpline
 70
8
 71
3
 72
8
 73
4
 74
0
 40
0
 40
0
 40
0
 40
0
 40
1
 40
1
 40
1
 40
1
 10
86.936196
 20
8.705459
 30
0.0
 10
87.023960
 20
8.579015
 30
0.0
 10
87.994156
 20
7.229550
 30
0.0
 10
89.712214
 20
7.268061
 30
0.0
  0
SPLINE
  5
107
100
AcDbEntity
  8
Camada_1
 62
7
100
AcDbSpline
 70
8
 71
3
 72
8
 73
4
 74
0
 40
0
 40
0
 40
0
 40
0
 40
1
 40
1
 40
1
 40
1
 10
89.712214
 20
7.268061
 30
0.0
 10
91.109626
 20
7.299378
 30
0.0
 10
91.957338
 20
8.235319
 30
0.0
 10
92.107678
 20
8.407418
 30
0.0
  0
SPLINE
  5
108
100
AcDbEntity
  8
Camada_1
 62
7
100
AcDbSpline
 70
8
 71
3
 72
8
 73
4
 74
0
 40
0
 40
0
 40
0
 40
0
 40
1
 40
1
 40
1
 40
1
 10
92.107678
 20
8.407418
 30
0.0
 10
92.265138
 20
8.587684
 30
0.0
 10
93.007285
 20
9.474746
 30
0.0
 10
92.923471
 20
10.769294
 30
0.0
  0
SPLINE
  5
109
100
AcDbEntity
  8
Camada_1
 62
7
100
AcDbSpline
 70
8
 71
3
 72
8
 73
4
 74
0
 40
0
 40
0
 40
0
 40
0
 40
1
 40
1
 40
1
 40
1
 10
92.923471
 20
10.769294
 30
0.0
 10
92.847619
 20
11.940694
 30
0.0
 10
92.120749
 20
13.057781
 30
0.0
 10
90.964047
 20
13.565317
 30
0.0
  0
SPLINE
  5
10a
100
AcDbEntity
  8
Camada_1
 62
7
100
AcDbSpline
 70
8
 71
3
 72
8
 73
4
 74
0
 40
0
 40
0
 40
0
 40
0
 40
1
 40
1
 40
1
 40
1
 10
90.964047
 20
13.565317
 30
0.0
 10
90.470890
 20
13.781689
 30
0.0
 10
89.966026
 20
13.858640
 30
0.0
 10
89.482759
 20
13.830363
 30
0.0
  0
LWPOLYLINE
  5
10b
100
AcDbEntity
  8
Camada_1
 62
7
100
AcDbPolyline
 90
4
 70
1
 10
44.049590
 20
29.123345
 30
0.0
 10
84.758346
 20
29.123345
 30
0.0
 10
84.758346
 20
23.572072
 30
0.0
 10
44.049590
 20
23.572072
 30
0.0
  0
SPLINE
  5
10c
100
AcDbEntity
  8
Camada_1
 62
7
100
AcDbSpline
 70
8
 71
3
 72
8
 73
4
 74
0
 40
0
 40
0
 40
0
 40
0
 40
1
 40
1
 40
1
 40
1
 10
89.496785
 20
13.485357
 30
0.0
 10
89.930947
 20
13.511905
 30
0.0
 10
90.384336
 20
13.444205
 30
0.0
 10
90.825383
 20
13.250696
 30
0.0
  0
SPLINE
  5
10d
100
AcDbEntity
  8
Camada_1
 62
7
100
AcDbSpline
 70
8
 71
3
 72
8
 73
4
 74
0
 40
0
 40
0
 40
0
 40
0
 40
1
 40
1
 40
1
 40
1
 10
90.825383
 20
13.250696
 30
0.0
 10
91.859838
 20
12.796798
 30
0.0
 10
92.512189
 20
11.791469
 30
0.0
 10
92.579802
 20
10.747301
 30
0.0
  0
SPLINE
  5
10e
100
AcDbEntity
  8
Camada_1
 62
7
100
AcDbSpline
 70
8
 71
3
 72
8
 73
4
 74
0
 40
0
 40
0
 40
0
 40
0
 40
1
 40
1
 40
1
 40
1
 10
92.579802
 20
10.747301
 30
0.0
 10
92.654516
 20
9.593371
 30
0.0
 10
91.989103
 20
8.794661
 30
0.0
 10
91.847977
 20
8.633093
 30
0.0
  0
SPLINE
  5
10f
100
AcDbEntity
  8
Camada_1
 62
7
100
AcDbSpline
 70
8
 71
3
 72
8
 73
4
 74
0
 40
0
 40
0
 40
0
 40
0
 40
1
 40
1
 40
1
 40
1
 10
91.847977
 20
8.633093
 30
0.0
 10
91.713263
 20
8.478884
 30
0.0
 10
90.950483
 20
7.639390
 30
0.0
 10
89.704396
 20
7.611471
 30
0.0
  0
SPLINE
  5
110
100
AcDbEntity
  8
Camada_1
 62
7
100
AcDbSpline
 70
8
 71
3
 72
8
 73
4
 74
0
 40
0
 40
0
 40
0
 40
0
 40
1
 40
1
 40
1
 40
1
 10
89.704396
 20
7.611471
 30
0.0
 10
88.172393
 20
7.577125
 30
0.0
 10
87.279075
 20
8.814894
 30
0.0
 10
87.219352
 20
8.900943
 30
0.0
  0
SPLINE
  5
111
100
AcDbEntity
  8
Camada_1
 62
7
100
AcDbSpline
 70
8
 71
3
 72
8
 73
4
 74
0
 40
0
 40
0
 40
0
 40
0
 40
1
 40
1
 40
1
 40
1
 10
87.219352
 20
8.900943
 30
0.0
 10
87.129084
 20
9.030969
 30
0.0
 10
86.439838
 20
10.063358
 30
0.0
 10
86.779895
 20
11.331379
 30
0.0
  0
SPLINE
  5
112
100
AcDbEntity
  8
Camada_1
 62
7
100
AcDbSpline
 70
8
 71
3
 72
8
 73
4
 74
0
 40
0
 40
0
 40
0
 40
0
 40
1
 40
1
 40
1
 40
1
 10
86.779895
 20
11.331379
 30
0.0
 10
86.834150
 20
11.533699
 30
0.0
 10
87.032537
 20
12.179827
 30
0.0
 10
87.630952
 20
12.713993
 30
0.0
  0
SPLINE
  5
113
100
AcDbEntity
  8
Camada_1
 62
7
100
AcDbSpline
 70
8
 71
3
 72
8
 73
4
 74
0
 40
0
 40
0
 40
0
 40
0
 40
1
 40
1
 40
1
 40
1
 10
87.630952
 20
12.713993
 30
0.0
 10
88.102799
 20
13.135183
 30
0.0
 10
88.773198
 20
13.441125
 30
0.0
 10
89.496785
 20
13.485357
 30
0.0
  0
LWPOLYLINE
  5
114
100
AcDbEntity
  8
Camada_1
 62
7
100
AcDbPolyline
 90
1
 70
1
 10
89.482759
 20
13.830363
 30
0.0
  0
LWPOLYLINE
  5
115
100
AcDbEntity
  8
Camada_1
 62
7
100
AcDbPolyline
 90
1
 70
1
 10
89.496785
 20
13.485357
 30
0.0
  0
SPLINE
  5
116
100
AcDbEntity
  8
Camada_1
 62
7
100
AcDbSpline
 70
8
 71
3
 72
8
 73
4
 74
0
 40
0
 40
0
 40
0
 40
0
 40
1
 40
1
 40
1
 40
1
 10
92.826884
 20
13.914171
 30
0.0
 10
90.694907
 20
13.888442
 30
0.0
 10
88.562971
 20
13.862744
 30
0.0
 10
86.431014
 20
13.837015
 30
0.0
  0
LWPOLYLINE
  5
117
100
AcDbEntity
  8
Camada_1
 62
7
100
AcDbPolyline
 90
2
 70
0
 10
93.001016
 20
13.916321
 30
0.0
 10
92.826884
 20
13.914171
 30
0.0
  0
SPLINE
  5
118
100
AcDbEntity
  8
Camada_1
 62
7
100
AcDbSpline
 70
8
 71
3
 72
8
 73
4
 74
0
 40
0
 40
0
 40
0
 40
0
 40
1
 40
1
 40
1
 40
1
 10
86.260852
 20
13.666667
 30
0.0
 10
86.243656
 20
11.582946
 30
0.0
 10
86.226337
 20
9.499114
 30
0.0
 10
86.209152
 20
7.415393
 30
0.0
  0
LWPOLYLINE
  5
119
100
AcDbEntity
  8
Camada_1
 62
7
100
AcDbPolyline
 90
3
 70
0
 10
86.431014
 20
13.837015
 30
0.0
 10
86.262288
 20
13.834969
 30
0.0
 10
86.260852
 20
13.666667
 30
0.0
  0
SPLINE
  5
11a
100
AcDbEntity
  8
Camada_1
 62
7
100
AcDbSpline
 70
8
 71
3
 72
8
 73
4
 74
0
 40
0
 40
0
 40
0
 40
0
 40
1
 40
1
 40
1
 40
1
 10
86.380053
 20
7.242251
 30
0.0
 10
88.529215
 20
7.225088
 30
0.0
 10
90.678265
 20
7.208027
 30
0.0
 10
92.827417
 20
7.190875
 30
0.0
  0
LWPOLYLINE
  5
11b
100
AcDbEntity
  8
Camada_1
 62
7
100
AcDbPolyline
 90
3
 70
0
 10
86.209152
 20
7.415393
 30
0.0
 10
86.207715
 20
7.243684
 30
0.0
 10
86.380053
 20
7.242251
 30
0.0
  0
LWPOLYLINE
  5
11c
100
AcDbEntity
  8
Camada_1
 62
7
100
AcDbPolyline
 90
3
 70
0
 10
92.827417
 20
7.190875
 30
0.0
 10
93.000955
 20
7.189442
 30
0.0
 10
93.001016
 20
13.916321
 30
0.0
  0
SPLINE
  5
11d
100
AcDbEntity
  8
Camada_1
 62
7
100
AcDbSpline
 70
8
 71
3
 72
8
 73
4
 74
0
 40
0
 40
0
 40
0
 40
0
 40
1
 40
1
 40
1
 40
1
 10
92.656752
 20
7.535717
 30
0.0
 10
90.622881
 20
7.551949
 30
0.0
 10
88.588928
 20
7.568242
 30
0.0
 10
86.555057
 20
7.584483
 30
0.0
  0
SPLINE
  5
11e
100
AcDbEntity
  8
Camada_1
 62
7
100
AcDbSpline
 70
8
 71
3
 72
8
 73
4
 74
0
 40
0
 40
0
 40
0
 40
0
 40
1
 40
1
 40
1
 40
1
 10
86.555057
 20
7.584483
 30
0.0
 10
86.571309
 20
9.554808
 30
0.0
 10
86.587489
 20
11.525236
 30
0.0
 10
86.603751
 20
13.495550
 30
0.0
  0
SPLINE
  5
11f
100
AcDbEntity
  8
Camada_1
 62
7
100
AcDbSpline
 70
8
 71
3
 72
8
 73
4
 74
0
 40
0
 40
0
 40
0
 40
0
 40
1
 40
1
 40
1
 40
1
 10
86.603751
 20
13.495550
 30
0.0
 10
88.621350
 20
13.519908
 30
0.0
 10
90.639133
 20
13.544163
 30
0.0
 10
92.656752
 20
13.568510
 30
0.0
  0
LWPOLYLINE
  5
120
100
AcDbEntity
  8
Camada_1
 62
7
100
AcDbPolyline
 90
2
 70
0
 10
92.656752
 20
13.568510
 30
0.0
 10
92.656752
 20
7.535717
 30
0.0
  0
LWPOLYLINE
  5
121
100
AcDbEntity
  8
Camada_1
 62
7
100
AcDbPolyline
 90
1
 70
1
 10
92.656752
 20
13.568510
 30
0.0
  0
LWPOLYLINE
  5
122
100
AcDbEntity
  8
Camada_1
 62
7
100
AcDbPolyline
 90
1
 70
1
 10
91.977838
 20
8.520230
 30
0.0
  0
SPLINE
  5
123
100
AcDbEntity
  8
Camada_1
 62
7
100
AcDbSpline
 70
8
 71
3
 72
8
 73
4
 74
0
 40
0
 40
0
 40
0
 40
0
 40
1
 40
1
 40
1
 40
1
 10
89.471135
 20
15.417068
 30
0.0
 10
88.273341
 20
15.346493
 30
0.0
 10
87.164758
 20
14.841434
 30
0.0
 10
86.376903
 20
14.138188
 30
0.0
  0
SPLINE
  5
124
100
AcDbEntity
  8
Camada_1
 62
7
100
AcDbSpline
 70
8
 71
3
 72
8
 73
4
 74
0
 40
0
 40
0
 40
0
 40
0
 40
1
 40
1
 40
1
 40
1
 10
86.376903
 20
14.138188
 30
0.0
 10
85.377743
 20
13.246275
 30
0.0
 10
85.049813
 20
12.173063
 30
0.0
 10
84.959340
 20
11.835691
 30
0.0
  0
SPLINE
  5
125
100
AcDbEntity
  8
Camada_1
 62
7
100
AcDbSpline
 70
8
 71
3
 72
8
 73
4
 74
0
 40
0
 40
0
 40
0
 40
0
 40
1
 40
1
 40
1
 40
1
 10
84.959340
 20
11.835691
 30
0.0
 10
84.392280
 20
9.721207
 30
0.0
 10
85.529355
 20
8.027196
 30
0.0
 10
85.686559
 20
7.800763
 30
0.0
  0
SPLINE
  5
126
100
AcDbEntity
  8
Camada_1
 62
7
100
AcDbSpline
 70
8
 71
3
 72
8
 73
4
 74
0
 40
0
 40
0
 40
0
 40
0
 40
1
 40
1
 40
1
 40
1
 10
85.686559
 20
7.800763
 30
0.0
 10
85.812151
 20
7.619853
 30
0.0
 10
87.260730
 20
5.606360
 30
0.0
 10
89.812803
 20
5.663569
 30
0.0
  0
SPLINE
  5
127
100
AcDbEntity
  8
Camada_1
 62
7
100
AcDbSpline
 70
8
 71
3
 72
8
 73
4
 74
0
 40
0
 40
0
 40
0
 40
0
 40
1
 40
1
 40
1
 40
1
 10
89.812803
 20
5.663569
 30
0.0
 10
91.888586
 20
5.710094
 30
0.0
 10
93.149468
 20
7.101602
 30
0.0
 10
93.372942
 20
7.357417
 30
0.0
  0
SPLINE
  5
128
100
AcDbEntity
  8
Camada_1
 62
7
100
AcDbSpline
 70
8
 71
3
 72
8
 73
4
 74
0
 40
0
 40
0
 40
0
 40
0
 40
1
 40
1
 40
1
 40
1
 10
93.372942
 20
7.357417
 30
0.0
 10
93.607034
 20
7.625390
 30
0.0
 10
94.710394
 20
8.945186
 30
0.0
 10
94.585910
 20
10.868034
 30
0.0
  0
SPLINE
  5
129
100
AcDbEntity
  8
Camada_1
 62
7
100
AcDbSpline
 70
8
 71
3
 72
8
 73
4
 74
0
 40
0
 40
0
 40
0
 40
0
 40
1
 40
1
 40
1
 40
1
 10
94.585910
 20
10.868034
 30
0.0
 10
94.473265
 20
12.607987
 30
0.0
 10
93.392436
 20
14.269637
 30
0.0
 10
91.673434
 20
15.023890
 30
0.0
  0
SPLINE
  5
12a
100
AcDbEntity
  8
Camada_1
 62
7
100
AcDbSpline
 70
8
 71
3
 72
8
 73
4
 74
0
 40
0
 40
0
 40
0
 40
0
 40
1
 40
1
 40
1
 40
1
 10
91.673434
 20
15.023890
 30
0.0
 10
90.940562
 20
15.345449
 30
0.0
 10
90.189817
 20
15.459417
 30
0.0
 10
89.471135
 20
15.417068
 30
0.0
  0
LWPOLYLINE
  5
12b
100
AcDbEntity
  8
Camada_1
 62
7
100
AcDbPolyline
 90
1
 70
1
 10
91.835316
 20
8.357076
 30
0.0
  0
SPLINE
  5
12c
100
AcDbEntity
  8
Camada_1
 62
7
100
AcDbSpline
 70
8
 71
3
 72
8
 73
4
 74
0
 40
0
 40
0
 40
0
 40
0
 40
1
 40
1
 40
1
 40
1
 10
89.485170
 20
15.072267
 30
0.0
 10
90.154738
 20
15.112876
 30
0.0
 10
90.854008
 20
15.007965
 30
0.0
 10
91.534760
 20
14.709269
 30
0.0
  0
SPLINE
  5
12d
100
AcDbEntity
  8
Camada_1
 62
7
100
AcDbSpline
 70
8
 71
3
 72
8
 73
4
 74
0
 40
0
 40
0
 40
0
 40
0
 40
1
 40
1
 40
1
 40
1
 10
91.534760
 20
14.709269
 30
0.0
 10
93.131524
 20
14.008654
 30
0.0
 10
94.137630
 20
12.458567
 30
0.0
 10
94.242035
 20
10.845846
 30
0.0
  0
SPLINE
  5
12e
100
AcDbEntity
  8
Camada_1
 62
7
100
AcDbSpline
 70
8
 71
3
 72
8
 73
4
 74
0
 40
0
 40
0
 40
0
 40
0
 40
1
 40
1
 40
1
 40
1
 10
94.242035
 20
10.845846
 30
0.0
 10
94.357419
 20
9.063606
 30
0.0
 10
93.331173
 20
7.832346
 30
0.0
 10
93.113435
 20
7.583092
 30
0.0
  0
SPLINE
  5
12f
100
AcDbEntity
  8
Camada_1
 62
7
100
AcDbSpline
 70
8
 71
3
 72
8
 73
4
 74
0
 40
0
 40
0
 40
0
 40
0
 40
1
 40
1
 40
1
 40
1
 10
93.113435
 20
7.583092
 30
0.0
 10
92.905547
 20
7.345115
 30
0.0
 10
91.729453
 20
6.050106
 30
0.0
 10
89.804985
 20
6.006979
 30
0.0
  0
SPLINE
  5
130
100
AcDbEntity
  8
Camada_1
 62
7
100
AcDbSpline
 70
8
 71
3
 72
8
 73
4
 74
0
 40
0
 40
0
 40
0
 40
0
 40
1
 40
1
 40
1
 40
1
 10
89.804985
 20
6.006979
 30
0.0
 10
87.438957
 20
5.953935
 30
0.0
 10
86.067359
 20
7.855609
 30
0.0
 10
85.969714
 20
7.996258
 30
0.0
  0
SPLINE
  5
131
100
AcDbEntity
  8
Camada_1
 62
7
100
AcDbSpline
 70
8
 71
3
 72
8
 73
4
 74
0
 40
0
 40
0
 40
0
 40
0
 40
1
 40
1
 40
1
 40
1
 10
85.969714
 20
7.996258
 30
0.0
 10
85.828947
 20
8.199008
 30
0.0
 10
84.766893
 20
9.788180
 30
0.0
 10
85.292195
 20
11.746940
 30
0.0
  0
SPLINE
  5
132
100
AcDbEntity
  8
Camada_1
 62
7
100
AcDbSpline
 70
8
 71
3
 72
8
 73
4
 74
0
 40
0
 40
0
 40
0
 40
0
 40
1
 40
1
 40
1
 40
1
 10
85.292195
 20
11.746940
 30
0.0
 10
85.375999
 20
12.059463
 30
0.0
 10
85.681890
 20
13.056727
 30
0.0
 10
86.606552
 20
13.882138
 30
0.0
  0
SPLINE
  5
133
100
AcDbEntity
  8
Camada_1
 62
7
100
AcDbSpline
 70
8
 71
3
 72
8
 73
4
 74
0
 40
0
 40
0
 40
0
 40
0
 40
1
 40
1
 40
1
 40
1
 10
86.606552
 20
13.882138
 30
0.0
 10
87.335659
 20
14.532943
 30
0.0
 10
88.369210
 20
15.004588
 30
0.0
 10
89.485170
 20
15.072267
 30
0.0
  0
LWPOLYLINE
  5
134
100
AcDbEntity
  8
Camada_1
 62
7
100
AcDbPolyline
 90
1
 70
1
 10
89.471135
 20
15.417068
 30
0.0
  0
LWPOLYLINE
  5
135
100
AcDbEntity
  8
Camada_1
 62
7
100
AcDbPolyline
 90
1
 70
1
 10
89.485170
 20
15.072267
 30
0.0
  0
SPLINE
  5
136
100
AcDbEntity
  8
Camada_1
 62
7
100
AcDbSpline
 70
8
 71
3
 72
8
 73
4
 74
0
 40
0
 40
0
 40
0
 40
0
 40
1
 40
1
 40
1
 40
1
 10
94.528997
 20
15.544351
 30
0.0
 10
91.302822
 20
15.505431
 30
0.0
 10
88.076677
 20
15.466541
 30
0.0
 10
84.850533
 20
15.427609
 30
0.0
  0
LWPOLYLINE
  5
137
100
AcDbEntity
  8
Camada_1
 62
7
100
AcDbPolyline
 90
2
 70
0
 10
94.703335
 20
15.546398
 30
0.0
 10
94.528997
 20
15.544351
 30
0.0
  0
SPLINE
  5
138
100
AcDbEntity
  8
Camada_1
 62
7
100
AcDbSpline
 70
8
 71
3
 72
8
 73
4
 74
0
 40
0
 40
0
 40
0
 40
0
 40
1
 40
1
 40
1
 40
1
 10
84.680370
 20
15.257148
 30
0.0
 10
84.654351
 20
12.104002
 30
0.0
 10
84.628239
 20
8.950845
 30
0.0
 10
84.602220
 20
5.797679
 30
0.0
  0
LWPOLYLINE
  5
139
100
AcDbEntity
  8
Camada_1
 62
7
100
AcDbPolyline
 90
3
 70
0
 10
84.850533
 20
15.427609
 30
0.0
 10
84.681807
 20
15.425460
 30
0.0
 10
84.680370
 20
15.257148
 30
0.0
  0
LWPOLYLINE
  5
13a
100
AcDbEntity
  8
Camada_1
 62
7
100
AcDbPolyline
 90
4
 70
0
 10
84.602220
 20
5.797679
 30
0.0
 10
84.600784
 20
5.625979
 30
0.0
 10
94.703274
 20
5.545221
 30
0.0
 10
94.703335
 20
15.546398
 30
0.0
  0
SPLINE
  5
13b
100
AcDbEntity
  8
Camada_1
 62
7
100
AcDbSpline
 70
8
 71
3
 72
8
 73
4
 74
0
 40
0
 40
0
 40
0
 40
0
 40
1
 40
1
 40
1
 40
1
 10
84.948126
 20
5.966595
 30
0.0
 10
84.973201
 20
9.006428
 30
0.0
 10
84.998184
 20
12.046240
 30
0.0
 10
85.023270
 20
15.086062
 30
0.0
  0
SPLINE
  5
13c
100
AcDbEntity
  8
Camada_1
 62
7
100
AcDbSpline
 70
8
 71
3
 72
8
 73
4
 74
0
 40
0
 40
0
 40
0
 40
0
 40
1
 40
1
 40
1
 40
1
 10
85.023270
 20
15.086062
 30
0.0
 10
88.135129
 20
15.123612
 30
0.0
 10
91.246987
 20
15.161049
 30
0.0
 10
94.358866
 20
15.198598
 30
0.0
  0
LWPOLYLINE
  5
13d
100
AcDbEntity
  8
Camada_1
 62
7
100
AcDbPolyline
 90
3
 70
0
 10
94.358866
 20
15.198598
 30
0.0
 10
94.358866
 20
5.891639
 30
0.0
 10
84.948126
 20
5.966595
 30
0.0
  0
LWPOLYLINE
  5
13e
100
AcDbEntity
  8
Camada_1
 62
7
100
AcDbPolyline
 90
1
 70
1
 10
94.358866
 20
15.198598
 30
0.0
  0
LWPOLYLINE
  5
13f
100
AcDbEntity
  8
Camada_1
 62
7
100
AcDbPolyline
 90
1
 70
1
 10
93.243183
 20
7.470239
 30
0.0
  0
LWPOLYLINE
  5
140
100
AcDbEntity
  8
Camada_1
 62
7
100
AcDbPolyline
 90
1
 70
1
 10
93.027498
 20
7.223348
 30
0.0
  0
SPLINE
  5
141
100
AcDbEntity
  8
Camada_1
 62
7
100
AcDbSpline
 70
8
 71
3
 72
8
 73
4
 74
0
 40
0
 40
0
 40
0
 40
0
 40
1
 40
1
 40
1
 40
1
 10
9.744914
 20
15.045883
 30
0.0
 10
9.791523
 20
15.016439
 30
0.0
 10
9.859334
 20
14.964398
 30
0.0
 10
9.905827
 20
14.882974
 30
0.0
  0
SPLINE
  5
142
100
AcDbEntity
  8
Camada_1
 62
7
100
AcDbSpline
 70
8
 71
3
 72
8
 73
4
 74
0
 40
0
 40
0
 40
0
 40
0
 40
1
 40
1
 40
1
 40
1
 10
9.905827
 20
14.882974
 30
0.0
 10
9.999551
 20
14.718828
 30
0.0
 10
9.957104
 20
14.509302
 30
0.0
 10
9.925265
 20
14.387453
 30
0.0
  0
SPLINE
  5
143
100
AcDbEntity
  8
Camada_1
 62
7
100
AcDbSpline
 70
8
 71
3
 72
8
 73
4
 74
0
 40
0
 40
0
 40
0
 40
0
 40
1
 40
1
 40
1
 40
1
 10
9.925265
 20
14.387453
 30
0.0
 10
9.824063
 20
14.000129
 30
0.0
 10
9.362033
 20
12.487714
 30
0.0
 10
8.695467
 20
10.451470
 30
0.0
  0
LWPOLYLINE
  5
144
100
AcDbEntity
  8
Camada_1
 62
7
100
AcDbPolyline
 90
4
 70
0
 10
15.589908
 20
15.341918
 30
0.0
 10
9.683192
 20
15.288547
 30
0.0
 10
9.683192
 20
15.084855
 30
0.0
 10
9.744914
 20
15.045883
 30
0.0
  0
SPLINE
  5
145
100
AcDbEntity
  8
Camada_1
 62
7
100
AcDbSpline
 70
8
 71
3
 72
8
 73
4
 74
0
 40
0
 40
0
 40
0
 40
0
 40
1
 40
1
 40
1
 40
1
 10
8.821312
 20
10.278369
 30
0.0
 10
10.335519
 20
10.277345
 30
0.0
 10
11.849774
 20
10.276629
 30
0.0
 10
13.363968
 20
10.275810
 30
0.0
  0
LWPOLYLINE
  5
146
100
AcDbEntity
  8
Camada_1
 62
7
100
AcDbPolyline
 90
3
 70
0
 10
8.695467
 20
10.451470
 30
0.0
 10
8.638757
 20
10.278369
 30
0.0
 10
8.821312
 20
10.278369
 30
0.0
  0
SPLINE
  5
147
100
AcDbEntity
  8
Camada_1
 62
7
100
AcDbSpline
 70
8
 71
3
 72
8
 73
4
 74
0
 40
0
 40
0
 40
0
 40
0
 40
1
 40
1
 40
1
 40
1
 10
13.465367
 20
10.322990
 30
0.0
 10
13.618364
 20
10.504873
 30
0.0
 10
13.771461
 20
10.686796
 30
0.0
 10
13.924461
 20
10.868679
 30
0.0
  0
LWPOLYLINE
  5
148
100
AcDbEntity
  8
Camada_1
 62
7
100
AcDbPolyline
 90
3
 70
0
 10
13.363968
 20
10.275810
 30
0.0
 10
13.425689
 20
10.275810
 30
0.0
 10
13.465367
 20
10.322990
 30
0.0
  0
SPLINE
  5
149
100
AcDbEntity
  8
Camada_1
 62
7
100
AcDbSpline
 70
8
 71
3
 72
8
 73
4
 74
0
 40
0
 40
0
 40
0
 40
0
 40
1
 40
1
 40
1
 40
1
 10
13.823063
 20
11.085358
 30
0.0
 10
12.972591
 20
11.086382
 30
0.0
 10
12.122145
 20
11.086996
 30
0.0
 10
11.271690
 20
11.087712
 30
0.0
  0
SPLINE
  5
14a
100
AcDbEntity
  8
Camada_1
 62
7
100
AcDbSpline
 70
8
 71
3
 72
8
 73
4
 74
0
 40
0
 40
0
 40
0
 40
0
 40
1
 40
1
 40
1
 40
1
 10
11.271690
 20
11.087712
 30
0.0
 10
11.405576
 20
11.554260
 30
0.0
 10
11.539387
 20
12.020787
 30
0.0
 10
11.673273
 20
12.487325
 30
0.0
  0
SPLINE
  5
14b
100
AcDbEntity
  8
Camada_1
 62
7
100
AcDbSpline
 70
8
 71
3
 72
8
 73
4
 74
0
 40
0
 40
0
 40
0
 40
0
 40
1
 40
1
 40
1
 40
1
 10
11.673273
 20
12.487325
 30
0.0
 10
12.457802
 20
12.485176
 30
0.0
 10
13.242352
 20
12.483129
 30
0.0
 10
14.026861
 20
12.480980
 30
0.0
  0
LWPOLYLINE
  5
14c
100
AcDbEntity
  8
Camada_1
 62
7
100
AcDbPolyline
 90
3
 70
0
 10
13.924461
 20
10.868679
 30
0.0
 10
14.106817
 20
11.085358
 30
0.0
 10
13.823063
 20
11.085358
 30
0.0
  0
SPLINE
  5
14d
100
AcDbEntity
  8
Camada_1
 62
7
100
AcDbSpline
 70
8
 71
3
 72
8
 73
4
 74
0
 40
0
 40
0
 40
0
 40
0
 40
1
 40
1
 40
1
 40
1
 10
14.130262
 20
12.530350
 30
0.0
 10
14.250866
 20
12.679790
 30
0.0
 10
14.371561
 20
12.829251
 30
0.0
 10
14.492168
 20
12.978701
 30
0.0
  0
LWPOLYLINE
  5
14e
100
AcDbEntity
  8
Camada_1
 62
7
100
AcDbPolyline
 90
3
 70
0
 10
14.026861
 20
12.480980
 30
0.0
 10
14.090384
 20
12.480980
 30
0.0
 10
14.130262
 20
12.530350
 30
0.0
  0
SPLINE
  5
14f
100
AcDbEntity
  8
Camada_1
 62
7
100
AcDbSpline
 70
8
 71
3
 72
8
 73
4
 74
0
 40
0
 40
0
 40
0
 40
0
 40
1
 40
1
 40
1
 40
1
 10
11.947808
 20
13.189158
 30
0.0
 10
12.088890
 20
13.634327
 30
0.0
 10
12.229951
 20
14.079434
 30
0.0
 10
12.371033
 20
14.524602
 30
0.0
  0
LWPOLYLINE
  5
150
100
AcDbEntity
  8
Camada_1
 62
7
100
AcDbPolyline
 90
3
 70
0
 10
14.492168
 20
12.978701
 30
0.0
 10
14.666107
 20
13.194173
 30
0.0
 10
11.947808
 20
13.189158
 30
0.0
  0
SPLINE
  5
151
100
AcDbEntity
  8
Camada_1
 62
7
100
AcDbSpline
 70
8
 71
3
 72
8
 73
4
 74
0
 40
0
 40
0
 40
0
 40
0
 40
1
 40
1
 40
1
 40
1
 10
15.162073
 20
14.591370
 30
0.0
 10
15.266780
 20
14.775044
 30
0.0
 10
15.371580
 20
14.958779
 30
0.0
 10
15.476286
 20
15.142453
 30
0.0
  0
LWPOLYLINE
  5
152
100
AcDbEntity
  8
Camada_1
 62
7
100
AcDbPolyline
 90
3
 70
0
 10
12.371033
 20
14.524602
 30
0.0
 10
15.124000
 20
14.524602
 30
0.0
 10
15.162073
 20
14.591370
 30
0.0
  0
SPLINE
  5
153
100
AcDbEntity
  8
Camada_1
 62
7
100
AcDbSpline
 70
8
 71
3
 72
8
 73
4
 74
0
 40
0
 40
0
 40
0
 40
0
 40
1
 40
1
 40
1
 40
1
 10
15.132216
 20
15.073464
 30
0.0
 10
15.078149
 20
14.978624
 30
0.0
 10
15.024168
 20
14.883670
 30
0.0
 10
14.970100
 20
14.788830
 30
0.0
  0
LWPOLYLINE
  5
154
100
AcDbEntity
  8
Camada_1
 62
7
100
AcDbPolyline
 90
2
 70
0
 10
15.476286
 20
15.142453
 30
0.0
 10
15.589908
 20
15.341918
 30
0.0
  0
SPLINE
  5
155
100
AcDbEntity
  8
Camada_1
 62
7
100
AcDbSpline
 70
8
 71
3
 72
8
 73
4
 74
0
 40
0
 40
0
 40
0
 40
0
 40
1
 40
1
 40
1
 40
1
 10
12.147798
 20
14.696476
 30
0.0
 10
11.978779
 20
14.163150
 30
0.0
 10
11.809628
 20
13.629701
 30
0.0
 10
11.640609
 20
13.096374
 30
0.0
  0
LWPOLYLINE
  5
156
100
AcDbEntity
  8
Camada_1
 62
7
100
AcDbPolyline
 90
3
 70
0
 10
14.970100
 20
14.788830
 30
0.0
 10
12.177054
 20
14.788830
 30
0.0
 10
12.147798
 20
14.696476
 30
0.0
  0
SPLINE
  5
157
100
AcDbEntity
  8
Camada_1
 62
7
100
AcDbSpline
 70
8
 71
3
 72
8
 73
4
 74
0
 40
0
 40
0
 40
0
 40
0
 40
1
 40
1
 40
1
 40
1
 10
14.111827
 20
12.928881
 30
0.0
 10
14.062528
 20
12.867803
 30
0.0
 10
14.013236
 20
12.806674
 30
0.0
 10
13.963938
 20
12.745586
 30
0.0
  0
SPLINE
  5
158
100
AcDbEntity
  8
Camada_1
 62
7
100
AcDbSpline
 70
8
 71
3
 72
8
 73
4
 74
0
 40
0
 40
0
 40
0
 40
0
 40
1
 40
1
 40
1
 40
1
 10
13.963938
 20
12.745586
 30
0.0
 10
13.167252
 20
12.747735
 30
0.0
 10
12.370544
 20
12.749782
 30
0.0
 10
11.573879
 20
12.751931
 30
0.0
  0
LWPOLYLINE
  5
159
100
AcDbEntity
  8
Camada_1
 62
7
100
AcDbPolyline
 90
3
 70
0
 10
11.640609
 20
13.096374
 30
0.0
 10
11.586103
 20
12.924276
 30
0.0
 10
14.111827
 20
12.928881
 30
0.0
  0
SPLINE
  5
15a
100
AcDbEntity
  8
Camada_1
 62
7
100
AcDbSpline
 70
8
 71
3
 72
8
 73
4
 74
0
 40
0
 40
0
 40
0
 40
0
 40
1
 40
1
 40
1
 40
1
 10
11.446230
 20
12.655791
 30
0.0
 10
11.287063
 20
12.101157
 30
0.0
 10
11.127866
 20
11.546554
 30
0.0
 10
10.968699
 20
10.991930
 30
0.0
  0
LWPOLYLINE
  5
15b
100
AcDbEntity
  8
Camada_1
 62
7
100
AcDbPolyline
 90
3
 70
0
 10
11.573879
 20
12.751931
 30
0.0
 10
11.473884
 20
12.751931
 30
0.0
 10
11.446230
 20
12.655791
 30
0.0
  0
SPLINE
  5
15c
100
AcDbEntity
  8
Camada_1
 62
7
100
AcDbSpline
 70
8
 71
3
 72
8
 73
4
 74
0
 40
0
 40
0
 40
0
 40
0
 40
1
 40
1
 40
1
 40
1
 10
11.095947
 20
10.823618
 30
0.0
 10
11.910331
 20
10.822594
 30
0.0
 10
12.724742
 20
10.822083
 30
0.0
 10
13.539110
 20
10.821161
 30
0.0
  0
SPLINE
  5
15d
100
AcDbEntity
  8
Camada_1
 62
7
100
AcDbSpline
 70
8
 71
3
 72
8
 73
4
 74
0
 40
0
 40
0
 40
0
 40
0
 40
1
 40
1
 40
1
 40
1
 10
13.539110
 20
10.821161
 30
0.0
 10
13.460142
 20
10.727293
 30
0.0
 10
13.381217
 20
10.633404
 30
0.0
 10
13.302248
 20
10.539526
 30
0.0
  0
SPLINE
  5
15e
100
AcDbEntity
  8
Camada_1
 62
7
100
AcDbSpline
 70
8
 71
3
 72
8
 73
4
 74
0
 40
0
 40
0
 40
0
 40
0
 40
1
 40
1
 40
1
 40
1
 10
13.302248
 20
10.539526
 30
0.0
 10
11.868614
 20
10.540549
 30
0.0
 10
10.435087
 20
10.540958
 30
0.0
 10
9.001464
 20
10.541880
 30
0.0
  0
SPLINE
  5
15f
100
AcDbEntity
  8
Camada_1
 62
7
100
AcDbSpline
 70
8
 71
3
 72
8
 73
4
 74
0
 40
0
 40
0
 40
0
 40
0
 40
1
 40
1
 40
1
 40
1
 10
9.001464
 20
10.541880
 30
0.0
 10
9.621897
 20
12.445119
 30
0.0
 10
10.078331
 20
13.924477
 30
0.0
 10
10.181765
 20
14.320348
 30
0.0
  0
SPLINE
  5
160
100
AcDbEntity
  8
Camada_1
 62
7
100
AcDbSpline
 70
8
 71
3
 72
8
 73
4
 74
0
 40
0
 40
0
 40
0
 40
0
 40
1
 40
1
 40
1
 40
1
 10
10.181765
 20
14.320348
 30
0.0
 10
10.215795
 20
14.450588
 30
0.0
 10
10.290875
 20
14.742243
 30
0.0
 10
10.136076
 20
15.013359
 30
0.0
  0
SPLINE
  5
161
100
AcDbEntity
  8
Camada_1
 62
7
100
AcDbSpline
 70
8
 71
3
 72
8
 73
4
 74
0
 40
0
 40
0
 40
0
 40
0
 40
1
 40
1
 40
1
 40
1
 10
10.136076
 20
15.013359
 30
0.0
 10
10.132618
 20
15.019397
 30
0.0
 10
10.128022
 20
15.022160
 30
0.0
 10
10.124454
 20
15.027953
 30
0.0
  0
LWPOLYLINE
  5
162
100
AcDbEntity
  8
Camada_1
 62
7
100
AcDbPolyline
 90
3
 70
0
 10
10.968699
 20
10.991930
 30
0.0
 10
10.920405
 20
10.823618
 30
0.0
 10
11.095947
 20
10.823618
 30
0.0
  0
LWPOLYLINE
  5
163
100
AcDbEntity
  8
Camada_1
 62
7
100
AcDbPolyline
 90
2
 70
0
 10
10.124454
 20
15.027953
 30
0.0
 10
15.132216
 20
15.073464
 30
0.0
  0
LWPOLYLINE
  5
164
100
AcDbEntity
  8
Camada_1
 62
7
100
AcDbPolyline
 90
1
 70
1
 10
9.815726
 20
15.157518
 30
0.0
  0
SPLINE
  5
165
100
AcDbEntity
  8
Camada_1
 62
7
100
AcDbSpline
 70
8
 71
3
 72
8
 73
4
 74
0
 40
0
 40
0
 40
0
 40
0
 40
1
 40
1
 40
1
 40
1
 10
8.987837
 20
12.848471
 30
0.0
 10
7.488728
 20
12.777261
 30
0.0
 10
5.989578
 20
12.705990
 30
0.0
 10
4.490470
 20
12.634790
 30
0.0
  0
LWPOLYLINE
  5
166
100
AcDbEntity
  8
Camada_1
 62
7
100
AcDbPolyline
 90
2
 70
0
 10
8.987837
 20
12.854713
 30
0.0
 10
8.987837
 20
12.848471
 30
0.0
  0
LWPOLYLINE
  5
167
100
AcDbEntity
  8
Camada_1
 62
7
100
AcDbPolyline
 90
7
 70
0
 10
4.490470
 20
12.634790
 30
0.0
 10
4.490675
 20
12.370737
 30
0.0
 10
9.261576
 20
12.151857
 30
0.0
 10
9.254363
 20
12.724135
 30
0.0
 10
9.128117
 20
12.596811
 30
0.0
 10
9.121910
 20
12.854662
 30
0.0
 10
8.987837
 20
12.854713
 30
0.0
  0
SPLINE
  5
168
100
AcDbEntity
  8
Camada_1
 62
7
100
AcDbSpline
 70
8
 71
3
 72
8
 73
4
 74
0
 40
0
 40
0
 40
0
 40
0
 40
1
 40
1
 40
1
 40
1
 10
7.330609
 20
12.505112
 30
0.0
 10
7.884147
 20
12.531404
 30
0.0
 10
8.437707
 20
12.557573
 30
0.0
 10
8.991246
 20
12.583865
 30
0.0
  0
LWPOLYLINE
  5
169
100
AcDbEntity
  8
Camada_1
 62
7
100
AcDbPolyline
 90
3
 70
0
 10
8.991244
 20
12.583865
 30
0.0
 10
8.993049
 20
12.428755
 30
0.0
 10
7.330609
 20
12.505112
 30
0.0
  0
LWPOLYLINE
  5
16a
100
AcDbEntity
  8
Camada_1
 62
7
100
AcDbPolyline
 90
1
 70
1
 10
8.991246
 20
12.583865
 30
0.0
  0
SPLINE
  5
16b
100
AcDbEntity
  8
Camada_1
 62
7
100
AcDbSpline
 70
8
 71
3
 72
8
 73
4
 74
0
 40
0
 40
0
 40
0
 40
0
 40
1
 40
1
 40
1
 40
1
 10
17.169387
 20
14.080826
 30
0.0
 10
16.581402
 20
14.060828
 30
0.0
 10
16.253136
 20
14.047042
 30
0.0
 10
15.904121
 20
13.870543
 30
0.0
  0
SPLINE
  5
16c
100
AcDbEntity
  8
Camada_1
 62
7
100
AcDbSpline
 70
8
 71
3
 72
8
 73
4
 74
0
 40
0
 40
0
 40
0
 40
0
 40
1
 40
1
 40
1
 40
1
 10
15.904121
 20
13.870543
 30
0.0
 10
15.638924
 20
13.736433
 30
0.0
 10
15.472908
 20
13.565737
 30
0.0
 10
15.373686
 20
13.462177
 30
0.0
  0
SPLINE
  5
16d
100
AcDbEntity
  8
Camada_1
 62
7
100
AcDbSpline
 70
8
 71
3
 72
8
 73
4
 74
0
 40
0
 40
0
 40
0
 40
0
 40
1
 40
1
 40
1
 40
1
 10
15.373686
 20
13.462177
 30
0.0
 10
15.288065
 20
13.372811
 30
0.0
 10
15.199848
 20
13.260746
 30
0.0
 10
15.091336
 20
13.018226
 30
0.0
  0
SPLINE
  5
16e
100
AcDbEntity
  8
Camada_1
 62
7
100
AcDbSpline
 70
8
 71
3
 72
8
 73
4
 74
0
 40
0
 40
0
 40
0
 40
0
 40
1
 40
1
 40
1
 40
1
 10
15.091336
 20
13.018226
 30
0.0
 10
14.982824
 20
12.775705
 30
0.0
 10
14.845629
 20
12.395422
 30
0.0
 10
14.635447
 20
11.732346
 30
0.0
  0
SPLINE
  5
16f
100
AcDbEntity
  8
Camada_1
 62
7
100
AcDbSpline
 70
8
 71
3
 72
8
 73
4
 74
0
 40
0
 40
0
 40
0
 40
0
 40
1
 40
1
 40
1
 40
1
 10
14.635447
 20
11.732346
 30
0.0
 10
14.568511
 20
11.521183
 30
0.0
 10
14.520329
 20
11.366922
 30
0.0
 10
14.499783
 20
11.227634
 30
0.0
  0
SPLINE
  5
170
100
AcDbEntity
  8
Camada_1
 62
7
100
AcDbSpline
 70
8
 71
3
 72
8
 73
4
 74
0
 40
0
 40
0
 40
0
 40
0
 40
1
 40
1
 40
1
 40
1
 10
14.499783
 20
11.227634
 30
0.0
 10
14.479236
 20
11.088336
 30
0.0
 10
14.491873
 20
10.958351
 30
0.0
 10
14.547676
 20
10.837649
 30
0.0
  0
SPLINE
  5
171
100
AcDbEntity
  8
Camada_1
 62
7
100
AcDbSpline
 70
8
 71
3
 72
8
 73
4
 74
0
 40
0
 40
0
 40
0
 40
0
 40
1
 40
1
 40
1
 40
1
 10
14.547676
 20
10.837649
 30
0.0
 10
14.682661
 20
10.545676
 30
0.0
 10
14.971827
 20
10.430245
 30
0.0
 10
15.110773
 20
10.371510
 30
0.0
  0
SPLINE
  5
172
100
AcDbEntity
  8
Camada_1
 62
7
100
AcDbSpline
 70
8
 71
3
 72
8
 73
4
 74
0
 40
0
 40
0
 40
0
 40
0
 40
1
 40
1
 40
1
 40
1
 10
15.110773
 20
10.371510
 30
0.0
 10
15.244129
 20
10.315150
 30
0.0
 10
15.368787
 20
10.287917
 30
0.0
 10
15.536403
 20
10.278768
 30
0.0
  0
SPLINE
  5
173
100
AcDbEntity
  8
Camada_1
 62
7
100
AcDbSpline
 70
8
 71
3
 72
8
 73
4
 74
0
 40
0
 40
0
 40
0
 40
0
 40
1
 40
1
 40
1
 40
1
 10
15.536403
 20
10.278768
 30
0.0
 10
15.704020
 20
10.269659
 30
0.0
 10
15.919303
 20
10.274981
 30
0.0
 10
16.269432
 20
10.277744
 30
0.0
  0
SPLINE
  5
174
100
AcDbEntity
  8
Camada_1
 62
7
100
AcDbSpline
 70
8
 71
3
 72
8
 73
4
 74
0
 40
0
 40
0
 40
0
 40
0
 40
1
 40
1
 40
1
 40
1
 10
16.269432
 20
10.277744
 30
0.0
 10
16.580404
 20
10.280610
 30
0.0
 10
16.892558
 20
10.278870
 30
0.0
 10
17.205859
 20
10.280507
 30
0.0
  0
SPLINE
  5
175
100
AcDbEntity
  8
Camada_1
 62
7
100
AcDbSpline
 70
8
 71
3
 72
8
 73
4
 74
0
 40
0
 40
0
 40
0
 40
0
 40
1
 40
1
 40
1
 40
1
 10
17.205859
 20
10.280507
 30
0.0
 10
17.693928
 20
10.283066
 30
0.0
 10
17.866184
 20
10.282759
 30
0.0
 10
18.171741
 20
10.288490
 30
0.0
  0
SPLINE
  5
176
100
AcDbEntity
  8
Camada_1
 62
7
100
AcDbSpline
 70
8
 71
3
 72
8
 73
4
 74
0
 40
0
 40
0
 40
0
 40
0
 40
1
 40
1
 40
1
 40
1
 10
18.171741
 20
10.288490
 30
0.0
 10
18.575024
 20
10.296166
 30
0.0
 10
18.804269
 20
10.306595
 30
0.0
 10
18.951060
 20
10.320472
 30
0.0
  0
SPLINE
  5
177
100
AcDbEntity
  8
Camada_1
 62
7
100
AcDbSpline
 70
8
 71
3
 72
8
 73
4
 74
0
 40
0
 40
0
 40
0
 40
0
 40
1
 40
1
 40
1
 40
1
 10
18.951060
 20
10.320472
 30
0.0
 10
19.097851
 20
10.334350
 30
0.0
 10
19.171894
 20
10.355473
 30
0.0
 10
19.227800
 20
10.375839
 30
0.0
  0
SPLINE
  5
178
100
AcDbEntity
  8
Camada_1
 62
7
100
AcDbSpline
 70
8
 71
3
 72
8
 73
4
 74
0
 40
0
 40
0
 40
0
 40
0
 40
1
 40
1
 40
1
 40
1
 10
19.227800
 20
10.375839
 30
0.0
 10
19.383125
 20
10.432414
 30
0.0
 10
19.802428
 20
10.590472
 30
0.0
 10
20.047598
 20
11.025877
 30
0.0
  0
SPLINE
  5
179
100
AcDbEntity
  8
Camada_1
 62
7
100
AcDbSpline
 70
8
 71
3
 72
8
 73
4
 74
0
 40
0
 40
0
 40
0
 40
0
 40
1
 40
1
 40
1
 40
1
 10
20.047598
 20
11.025877
 30
0.0
 10
20.207145
 20
11.309222
 30
0.0
 10
20.222332
 20
11.583233
 30
0.0
 10
20.219734
 20
11.726881
 30
0.0
  0
LWPOLYLINE
  5
17a
100
AcDbEntity
  8
Camada_1
 62
7
100
AcDbPolyline
 90
1
 70
1
 10
9.121981
 20
12.722538
 30
0.0
  0
SPLINE
  5
17b
100
AcDbEntity
  8
Camada_1
 62
7
100
AcDbSpline
 70
8
 71
3
 72
8
 73
4
 74
0
 40
0
 40
0
 40
0
 40
0
 40
1
 40
1
 40
1
 40
1
 10
17.966139
 20
11.757461
 30
0.0
 10
17.898585
 20
11.496447
 30
0.0
 10
17.830897
 20
11.235515
 30
0.0
 10
17.763344
 20
10.974501
 30
0.0
  0
SPLINE
  5
17c
100
AcDbEntity
  8
Camada_1
 62
7
100
AcDbSpline
 70
8
 71
3
 72
8
 73
4
 74
0
 40
0
 40
0
 40
0
 40
0
 40
1
 40
1
 40
1
 40
1
 10
17.763344
 20
10.974501
 30
0.0
 10
17.410091
 20
10.975934
 30
0.0
 10
17.056744
 20
10.977264
 30
0.0
 10
16.703478
 20
10.978697
 30
0.0
  0
LWPOLYLINE
  5
17d
100
AcDbEntity
  8
Camada_1
 62
7
100
AcDbPolyline
 90
4
 70
0
 10
20.219734
 20
11.726881
 30
0.0
 10
20.217528
 20
11.856610
 30
0.0
 10
17.991789
 20
11.856610
 30
0.0
 10
17.966139
 20
11.757461
 30
0.0
  0
SPLINE
  5
17e
100
AcDbEntity
  8
Camada_1
 62
7
100
AcDbSpline
 70
8
 71
3
 72
8
 73
4
 74
0
 40
0
 40
0
 40
0
 40
0
 40
1
 40
1
 40
1
 40
1
 10
17.429293
 20
13.262415
 30
0.0
 10
17.714856
 20
13.261391
 30
0.0
 10
18.000428
 20
13.260879
 30
0.0
 10
18.285963
 20
13.260163
 30
0.0
  0
SPLINE
  5
17f
100
AcDbEntity
  8
Camada_1
 62
7
100
AcDbSpline
 70
8
 71
3
 72
8
 73
4
 74
0
 40
0
 40
0
 40
0
 40
0
 40
1
 40
1
 40
1
 40
1
 10
18.285963
 20
13.260163
 30
0.0
 10
18.250483
 20
13.052152
 30
0.0
 10
18.215034
 20
12.844131
 30
0.0
 10
18.179555
 20
12.636121
 30
0.0
  0
LWPOLYLINE
  5
180
100
AcDbEntity
  8
Camada_1
 62
7
100
AcDbPolyline
 90
2
 70
0
 10
16.703478
 20
10.978697
 30
0.0
 10
17.429293
 20
13.262415
 30
0.0
  0
SPLINE
  5
181
100
AcDbEntity
  8
Camada_1
 62
7
100
AcDbSpline
 70
8
 71
3
 72
8
 73
4
 74
0
 40
0
 40
0
 40
0
 40
0
 40
1
 40
1
 40
1
 40
1
 10
18.310613
 20
12.481399
 30
0.0
 10
19.020108
 20
12.484060
 30
0.0
 10
19.729495
 20
12.486926
 30
0.0
 10
20.438964
 20
12.489587
 30
0.0
  0
LWPOLYLINE
  5
182
100
AcDbEntity
  8
Camada_1
 62
7
100
AcDbPolyline
 90
4
 70
0
 10
18.179555
 20
12.636121
 30
0.0
 10
18.177555
 20
12.625119
 30
0.0
 10
18.177555
 20
12.481399
 30
0.0
 10
18.310613
 20
12.481399
 30
0.0
  0
SPLINE
  5
183
100
AcDbEntity
  8
Camada_1
 62
7
100
AcDbSpline
 70
8
 71
3
 72
8
 73
4
 74
0
 40
0
 40
0
 40
0
 40
0
 40
1
 40
1
 40
1
 40
1
 10
20.562805
 20
12.575739
 30
0.0
 10
20.589883
 20
12.649138
 30
0.0
 10
20.746679
 20
13.069325
 30
0.0
 10
20.513909
 20
13.443049
 30
0.0
  0
SPLINE
  5
184
100
AcDbEntity
  8
Camada_1
 62
7
100
AcDbSpline
 70
8
 71
3
 72
8
 73
4
 74
0
 40
0
 40
0
 40
0
 40
0
 40
1
 40
1
 40
1
 40
1
 10
20.513909
 20
13.443049
 30
0.0
 10
20.371619
 20
13.671497
 30
0.0
 10
20.142758
 20
13.784545
 30
0.0
 10
20.027761
 20
13.844026
 30
0.0
  0
SPLINE
  5
185
100
AcDbEntity
  8
Camada_1
 62
7
100
AcDbSpline
 70
8
 71
3
 72
8
 73
4
 74
0
 40
0
 40
0
 40
0
 40
0
 40
1
 40
1
 40
1
 40
1
 10
20.027761
 20
13.844026
 30
0.0
 10
19.955020
 20
13.881647
 30
0.0
 10
19.858001
 20
13.923802
 30
0.0
 10
19.708940
 20
13.966550
 30
0.0
  0
SPLINE
  5
186
100
AcDbEntity
  8
Camada_1
 62
7
100
AcDbSpline
 70
8
 71
3
 72
8
 73
4
 74
0
 40
0
 40
0
 40
0
 40
0
 40
1
 40
1
 40
1
 40
1
 10
19.708940
 20
13.966550
 30
0.0
 10
19.396265
 20
14.056222
 30
0.0
 10
19.129445
 20
14.071461
 30
0.0
 10
18.889542
 20
14.079086
 30
0.0
  0
SPLINE
  5
187
100
AcDbEntity
  8
Camada_1
 62
7
100
AcDbSpline
 70
8
 71
3
 72
8
 73
4
 74
0
 40
0
 40
0
 40
0
 40
0
 40
1
 40
1
 40
1
 40
1
 10
18.889542
 20
14.079086
 30
0.0
 10
18.537568
 20
14.090292
 30
0.0
 10
18.378641
 20
14.080826
 30
0.0
 10
17.945502
 20
14.077653
 30
0.0
  0
SPLINE
  5
188
100
AcDbEntity
  8
Camada_1
 62
7
100
AcDbSpline
 70
8
 71
3
 72
8
 73
4
 74
0
 40
0
 40
0
 40
0
 40
0
 40
1
 40
1
 40
1
 40
1
 10
17.945502
 20
14.077653
 30
0.0
 10
17.367511
 20
14.073457
 30
0.0
 10
17.444537
 20
14.088972
 30
0.0
 10
17.169389
 20
14.079597
 30
0.0
  0
LWPOLYLINE
  5
189
100
AcDbEntity
  8
Camada_1
 62
7
100
AcDbPolyline
 90
3
 70
0
 10
20.438964
 20
12.489587
 30
0.0
 10
20.530943
 20
12.489587
 30
0.0
 10
20.562805
 20
12.575739
 30
0.0
  0
SPLINE
  5
18a
100
AcDbEntity
  8
Camada_1
 62
7
100
AcDbSpline
 70
8
 71
3
 72
8
 73
4
 74
0
 40
0
 40
0
 40
0
 40
0
 40
1
 40
1
 40
1
 40
1
 10
17.178406
 20
13.816578
 30
0.0
 10
17.445232
 20
13.825584
 30
0.0
 10
17.364982
 20
13.810335
 30
0.0
 10
17.947505
 20
13.814531
 30
0.0
  0
SPLINE
  5
18b
100
AcDbEntity
  8
Camada_1
 62
7
100
AcDbSpline
 70
8
 71
3
 72
8
 73
4
 74
0
 40
0
 40
0
 40
0
 40
0
 40
1
 40
1
 40
1
 40
1
 10
17.947505
 20
13.814531
 30
0.0
 10
18.384028
 20
13.817703
 30
0.0
 10
18.536459
 20
13.827099
 30
0.0
 10
18.881125
 20
13.816168
 30
0.0
  0
SPLINE
  5
18c
100
AcDbEntity
  8
Camada_1
 62
7
100
AcDbSpline
 70
8
 71
3
 72
8
 73
4
 74
0
 40
0
 40
0
 40
0
 40
0
 40
1
 40
1
 40
1
 40
1
 10
18.881125
 20
13.816168
 30
0.0
 10
19.116037
 20
13.808697
 30
0.0
 10
19.353560
 20
13.794564
 30
0.0
 10
19.635796
 20
13.713621
 30
0.0
  0
SPLINE
  5
18d
100
AcDbEntity
  8
Camada_1
 62
7
100
AcDbSpline
 70
8
 71
3
 72
8
 73
4
 74
0
 40
0
 40
0
 40
0
 40
0
 40
1
 40
1
 40
1
 40
1
 10
19.635796
 20
13.713621
 30
0.0
 10
19.770346
 20
13.675028
 30
0.0
 10
19.845531
 20
13.641613
 30
0.0
 10
19.905723
 20
13.610481
 30
0.0
  0
SPLINE
  5
18e
100
AcDbEntity
  8
Camada_1
 62
7
100
AcDbSpline
 70
8
 71
3
 72
8
 73
4
 74
0
 40
0
 40
0
 40
0
 40
0
 40
1
 40
1
 40
1
 40
1
 10
19.905723
 20
13.610481
 30
0.0
 10
20.020712
 20
13.551010
 30
0.0
 10
20.195124
 20
13.455483
 30
0.0
 10
20.289070
 20
13.304651
 30
0.0
  0
SPLINE
  5
18f
100
AcDbEntity
  8
Camada_1
 62
7
100
AcDbSpline
 70
8
 71
3
 72
8
 73
4
 74
0
 40
0
 40
0
 40
0
 40
0
 40
1
 40
1
 40
1
 40
1
 10
20.289070
 20
13.304651
 30
0.0
 10
20.416017
 20
13.100837
 30
0.0
 10
20.366474
 20
12.872194
 30
0.0
 10
20.332755
 20
12.754367
 30
0.0
  0
SPLINE
  5
190
100
AcDbEntity
  8
Camada_1
 62
7
100
AcDbSpline
 70
8
 71
3
 72
8
 73
4
 74
0
 40
0
 40
0
 40
0
 40
0
 40
1
 40
1
 40
1
 40
1
 10
20.332755
 20
12.754367
 30
0.0
 10
19.710838
 20
12.752013
 30
0.0
 10
19.089015
 20
12.749557
 30
0.0
 10
18.467119
 20
12.747203
 30
0.0
  0
SPLINE
  5
191
100
AcDbEntity
  8
Camada_1
 62
7
100
AcDbSpline
 70
8
 71
3
 72
8
 73
4
 74
0
 40
0
 40
0
 40
0
 40
0
 40
1
 40
1
 40
1
 40
1
 10
18.467119
 20
12.747203
 30
0.0
 10
18.502549
 20
12.954937
 30
0.0
 10
18.537893
 20
13.162528
 30
0.0
 10
18.573325
 20
13.370253
 30
0.0
  0
LWPOLYLINE
  5
192
100
AcDbEntity
  8
Camada_1
 62
7
100
AcDbPolyline
 90
2
 70
0
 10
17.169389
 20
14.079597
 30
0.0
 10
17.169387
 20
14.080826
 30
0.0
  0
SPLINE
  5
193
100
AcDbEntity
  8
Camada_1
 62
7
100
AcDbSpline
 70
8
 71
3
 72
8
 73
4
 74
0
 40
0
 40
0
 40
0
 40
0
 40
1
 40
1
 40
1
 40
1
 10
18.443071
 20
13.524370
 30
0.0
 10
18.072985
 20
13.525393
 30
0.0
 10
17.702944
 20
13.526110
 30
0.0
 10
17.332907
 20
13.527133
 30
0.0
  0
LWPOLYLINE
  5
194
100
AcDbEntity
  8
Camada_1
 62
7
100
AcDbPolyline
 90
3
 70
0
 10
18.573325
 20
13.370253
 30
0.0
 10
18.599576
 20
13.524370
 30
0.0
 10
18.443071
 20
13.524370
 30
0.0
  0
SPLINE
  5
195
100
AcDbEntity
  8
Camada_1
 62
7
100
AcDbSpline
 70
8
 71
3
 72
8
 73
4
 74
0
 40
0
 40
0
 40
0
 40
0
 40
1
 40
1
 40
1
 40
1
 10
16.522327
 20
10.715094
 30
0.0
 10
16.970040
 20
10.713252
 30
0.0
 10
17.417612
 20
10.711410
 30
0.0
 10
17.865345
 20
10.709670
 30
0.0
  0
LWPOLYLINE
  5
196
100
AcDbEntity
  8
Camada_1
 62
7
100
AcDbPolyline
 90
4
 70
0
 10
17.332907
 20
13.527133
 30
0.0
 10
17.235517
 20
13.527133
 30
0.0
 10
16.342176
 20
10.716117
 30
0.0
 10
16.522327
 20
10.715094
 30
0.0
  0
SPLINE
  5
197
100
AcDbEntity
  8
Camada_1
 62
7
100
AcDbSpline
 70
8
 71
3
 72
8
 73
4
 74
0
 40
0
 40
0
 40
0
 40
0
 40
1
 40
1
 40
1
 40
1
 10
17.994196
 20
10.809208
 30
0.0
 10
18.061782
 20
11.070345
 30
0.0
 10
18.129405
 20
11.331430
 30
0.0
 10
18.196991
 20
11.592567
 30
0.0
  0
LWPOLYLINE
  5
198
100
AcDbEntity
  8
Camada_1
 62
7
100
AcDbPolyline
 90
3
 70
0
 10
17.865345
 20
10.709670
 30
0.0
 10
17.968546
 20
10.709670
 30
0.0
 10
17.994196
 20
10.809208
 30
0.0
  0
SPLINE
  5
199
100
AcDbEntity
  8
Camada_1
 62
7
100
AcDbSpline
 70
8
 71
3
 72
8
 73
4
 74
0
 40
0
 40
0
 40
0
 40
0
 40
1
 40
1
 40
1
 40
1
 10
19.943998
 20
11.592567
 30
0.0
 10
19.934415
 20
11.470278
 30
0.0
 10
19.909858
 20
11.321134
 30
0.0
 10
19.816549
 20
11.155422
 30
0.0
  0
SPLINE
  5
19a
100
AcDbEntity
  8
Camada_1
 62
7
100
AcDbSpline
 70
8
 71
3
 72
8
 73
4
 74
0
 40
0
 40
0
 40
0
 40
0
 40
1
 40
1
 40
1
 40
1
 10
19.816549
 20
11.155422
 30
0.0
 10
19.621032
 20
10.808195
 30
0.0
 10
19.286013
 20
10.678660
 30
0.0
 10
19.136824
 20
10.624316
 30
0.0
  0
SPLINE
  5
19b
100
AcDbEntity
  8
Camada_1
 62
7
100
AcDbSpline
 70
8
 71
3
 72
8
 73
4
 74
0
 40
0
 40
0
 40
0
 40
0
 40
1
 40
1
 40
1
 40
1
 10
19.136824
 20
10.624316
 30
0.0
 10
19.089581
 20
10.607102
 30
0.0
 10
19.058986
 20
10.596305
 30
0.0
 10
18.926012
 20
10.583738
 30
0.0
  0
SPLINE
  5
19c
100
AcDbEntity
  8
Camada_1
 62
7
100
AcDbSpline
 70
8
 71
3
 72
8
 73
4
 74
0
 40
0
 40
0
 40
0
 40
0
 40
1
 40
1
 40
1
 40
1
 10
18.926012
 20
10.583738
 30
0.0
 10
18.793039
 20
10.571170
 30
0.0
 10
18.567327
 20
10.560588
 30
0.0
 10
18.166732
 20
10.552953
 30
0.0
  0
SPLINE
  5
19d
100
AcDbEntity
  8
Camada_1
 62
7
100
AcDbSpline
 70
8
 71
3
 72
8
 73
4
 74
0
 40
0
 40
0
 40
0
 40
0
 40
1
 40
1
 40
1
 40
1
 10
18.166732
 20
10.552953
 30
0.0
 10
17.863167
 20
10.547222
 30
0.0
 10
17.692925
 20
10.547529
 30
0.0
 10
17.204456
 20
10.544970
 30
0.0
  0
SPLINE
  5
19e
100
AcDbEntity
  8
Camada_1
 62
7
100
AcDbSpline
 70
8
 71
3
 72
8
 73
4
 74
0
 40
0
 40
0
 40
0
 40
0
 40
1
 40
1
 40
1
 40
1
 10
17.204456
 20
10.544970
 30
0.0
 10
16.893129
 20
10.543333
 30
0.0
 10
16.580668
 20
10.545052
 30
0.0
 10
16.267029
 20
10.542207
 30
0.0
  0
SPLINE
  5
19f
100
AcDbEntity
  8
Camada_1
 62
7
100
AcDbSpline
 70
8
 71
3
 72
8
 73
4
 74
0
 40
0
 40
0
 40
0
 40
0
 40
1
 40
1
 40
1
 40
1
 10
16.267029
 20
10.542207
 30
0.0
 10
15.915355
 20
10.539034
 30
0.0
 10
15.699739
 20
10.534327
 30
0.0
 10
15.550833
 20
10.542207
 30
0.0
  0
SPLINE
  5
1a0
100
AcDbEntity
  8
Camada_1
 62
7
100
AcDbSpline
 70
8
 71
3
 72
8
 73
4
 74
0
 40
0
 40
0
 40
0
 40
0
 40
1
 40
1
 40
1
 40
1
 10
15.550833
 20
10.542207
 30
0.0
 10
15.401927
 20
10.550394
 30
0.0
 10
15.324413
 20
10.567772
 30
0.0
 10
15.214177
 20
10.614369
 30
0.0
  0
SPLINE
  5
1a1
100
AcDbEntity
  8
Camada_1
 62
7
100
AcDbSpline
 70
8
 71
3
 72
8
 73
4
 74
0
 40
0
 40
0
 40
0
 40
0
 40
1
 40
1
 40
1
 40
1
 10
15.214177
 20
10.614369
 30
0.0
 10
15.075228
 20
10.673103
 30
0.0
 10
14.872295
 20
10.765968
 30
0.0
 10
14.788146
 20
10.947984
 30
0.0
  0
SPLINE
  5
1a2
100
AcDbEntity
  8
Camada_1
 62
7
100
AcDbSpline
 70
8
 71
3
 72
8
 73
4
 74
0
 40
0
 40
0
 40
0
 40
0
 40
1
 40
1
 40
1
 40
1
 10
14.788146
 20
10.947984
 30
0.0
 10
14.753361
 20
11.023216
 30
0.0
 10
14.746226
 20
11.082421
 30
0.0
 10
14.761894
 20
11.188642
 30
0.0
  0
SPLINE
  5
1a3
100
AcDbEntity
  8
Camada_1
 62
7
100
AcDbSpline
 70
8
 71
3
 72
8
 73
4
 74
0
 40
0
 40
0
 40
0
 40
0
 40
1
 40
1
 40
1
 40
1
 10
14.761894
 20
11.188642
 30
0.0
 10
14.777563
 20
11.294863
 30
0.0
 10
14.821398
 20
11.442267
 30
0.0
 10
14.887940
 20
11.652181
 30
0.0
  0
SPLINE
  5
1a4
100
AcDbEntity
  8
Camada_1
 62
7
100
AcDbSpline
 70
8
 71
3
 72
8
 73
4
 74
0
 40
0
 40
0
 40
0
 40
0
 40
1
 40
1
 40
1
 40
1
 10
14.887940
 20
11.652181
 30
0.0
 10
15.096886
 20
12.311358
 30
0.0
 10
15.232989
 20
12.686084
 30
0.0
 10
15.333208
 20
12.910070
 30
0.0
  0
SPLINE
  5
1a5
100
AcDbEntity
  8
Camada_1
 62
7
100
AcDbSpline
 70
8
 71
3
 72
8
 73
4
 74
0
 40
0
 40
0
 40
0
 40
0
 40
1
 40
1
 40
1
 40
1
 10
15.333208
 20
12.910070
 30
0.0
 10
15.433427
 20
13.134057
 30
0.0
 10
15.489580
 20
13.200078
 30
0.0
 10
15.565261
 20
13.279066
 30
0.0
  0
SPLINE
  5
1a6
100
AcDbEntity
  8
Camada_1
 62
7
100
AcDbSpline
 70
8
 71
3
 72
8
 73
4
 74
0
 40
0
 40
0
 40
0
 40
0
 40
1
 40
1
 40
1
 40
1
 10
15.565261
 20
13.279066
 30
0.0
 10
15.662879
 20
13.380958
 30
0.0
 10
15.799087
 20
13.520553
 30
0.0
 10
16.023956
 20
13.634265
 30
0.0
  0
SPLINE
  5
1a7
100
AcDbEntity
  8
Camada_1
 62
7
100
AcDbSpline
 70
8
 71
3
 72
8
 73
4
 74
0
 40
0
 40
0
 40
0
 40
0
 40
1
 40
1
 40
1
 40
1
 10
16.023956
 20
13.634265
 30
0.0
 10
16.318903
 20
13.783419
 30
0.0
 10
16.591351
 20
13.796201
 30
0.0
 10
17.178406
 20
13.816168
 30
0.0
  0
LWPOLYLINE
  5
1a8
100
AcDbEntity
  8
Camada_1
 62
7
100
AcDbPolyline
 90
2
 70
0
 10
18.196991
 20
11.592567
 30
0.0
 10
19.943998
 20
11.592567
 30
0.0
  0
LWPOLYLINE
  5
1a9
100
AcDbEntity
  8
Camada_1
 62
7
100
AcDbPolyline
 90
2
 70
0
 10
17.178406
 20
13.816168
 30
0.0
 10
17.178406
 20
13.816578
 30
0.0
  0
SPLINE
  5
1aa
100
AcDbEntity
  8
Camada_1
 62
7
100
AcDbSpline
 70
8
 71
3
 72
8
 73
4
 74
0
 40
0
 40
0
 40
0
 40
0
 40
1
 40
1
 40
1
 40
1
 10
26.059118
 20
13.960491
 30
0.0
 10
24.782204
 20
13.959161
 30
0.0
 10
23.505180
 20
13.958035
 30
0.0
 10
22.228249
 20
13.956705
 30
0.0
  0
LWPOLYLINE
  5
1ab
100
AcDbEntity
  8
Camada_1
 62
7
100
AcDbPolyline
 90
1
 70
1
 10
18.310054
 20
12.614496
 30
0.0
  0
SPLINE
  5
1ac
100
AcDbEntity
  8
Camada_1
 62
7
100
AcDbSpline
 70
8
 71
3
 72
8
 73
4
 74
0
 40
0
 40
0
 40
0
 40
0
 40
1
 40
1
 40
1
 40
1
 10
22.201998
 20
13.954146
 30
0.0
 10
22.071792
 20
13.927752
 30
0.0
 10
21.877717
 20
13.870011
 30
0.0
 10
21.687395
 20
13.729075
 30
0.0
  0
SPLINE
  5
1ad
100
AcDbEntity
  8
Camada_1
 62
7
100
AcDbSpline
 70
8
 71
3
 72
8
 73
4
 74
0
 40
0
 40
0
 40
0
 40
0
 40
1
 40
1
 40
1
 40
1
 10
21.687395
 20
13.729075
 30
0.0
 10
21.517055
 20
13.602928
 30
0.0
 10
21.367831
 20
13.415345
 30
0.0
 10
21.201648
 20
13.016271
 30
0.0
  0
SPLINE
  5
1ae
100
AcDbEntity
  8
Camada_1
 62
7
100
AcDbSpline
 70
8
 71
3
 72
8
 73
4
 74
0
 40
0
 40
0
 40
0
 40
0
 40
1
 40
1
 40
1
 40
1
 10
21.201648
 20
13.016271
 30
0.0
 10
21.103607
 20
12.780833
 30
0.0
 10
21.010276
 20
12.498265
 30
0.0
 10
20.863388
 20
11.709411
 30
0.0
  0
SPLINE
  5
1af
100
AcDbEntity
  8
Camada_1
 62
7
100
AcDbSpline
 70
8
 71
3
 72
8
 73
4
 74
0
 40
0
 40
0
 40
0
 40
0
 40
1
 40
1
 40
1
 40
1
 10
20.863388
 20
11.709411
 30
0.0
 10
20.789822
 20
11.314329
 30
0.0
 10
20.753626
 20
11.072831
 30
0.0
 10
20.751169
 20
10.900067
 30
0.0
  0
SPLINE
  5
1b0
100
AcDbEntity
  8
Camada_1
 62
7
100
AcDbSpline
 70
8
 71
3
 72
8
 73
4
 74
0
 40
0
 40
0
 40
0
 40
0
 40
1
 40
1
 40
1
 40
1
 10
20.751169
 20
10.900067
 30
0.0
 10
20.748717
 20
10.727303
 30
0.0
 10
20.795534
 20
10.601023
 30
0.0
 10
20.874811
 20
10.522087
 30
0.0
  0
SPLINE
  5
1b1
100
AcDbEntity
  8
Camada_1
 62
7
100
AcDbSpline
 70
8
 71
3
 72
8
 73
4
 74
0
 40
0
 40
0
 40
0
 40
0
 40
1
 40
1
 40
1
 40
1
 10
20.874811
 20
10.522087
 30
0.0
 10
20.918580
 20
10.478499
 30
0.0
 10
20.984060
 20
10.439455
 30
0.0
 10
21.066584
 20
10.416142
 30
0.0
  0
SPLINE
  5
1b2
100
AcDbEntity
  8
Camada_1
 62
7
100
AcDbSpline
 70
8
 71
3
 72
8
 73
4
 74
0
 40
0
 40
0
 40
0
 40
0
 40
1
 40
1
 40
1
 40
1
 10
21.066584
 20
10.416142
 30
0.0
 10
21.149110
 20
10.392828
 30
0.0
 10
21.255302
 20
10.376259
 30
0.0
 10
21.424883
 20
10.354972
 30
0.0
  0
SPLINE
  5
1b3
100
AcDbEntity
  8
Camada_1
 62
7
100
AcDbSpline
 70
8
 71
3
 72
8
 73
4
 74
0
 40
0
 40
0
 40
0
 40
0
 40
1
 40
1
 40
1
 40
1
 10
21.424883
 20
10.354972
 30
0.0
 10
21.789498
 20
10.309225
 30
0.0
 10
22.103735
 20
10.288265
 30
0.0
 10
22.349486
 20
10.278420
 30
0.0
  0
LWPOLYLINE
  5
1b4
100
AcDbEntity
  8
Camada_1
 62
7
100
AcDbPolyline
 90
3
 70
0
 10
22.228249
 20
13.956705
 30
0.0
 10
22.215023
 20
13.956705
 30
0.0
 10
22.201998
 20
13.954146
 30
0.0
  0
SPLINE
  5
1b5
100
AcDbEntity
  8
Camada_1
 62
7
100
AcDbSpline
 70
8
 71
3
 72
8
 73
4
 74
0
 40
0
 40
0
 40
0
 40
0
 40
1
 40
1
 40
1
 40
1
 10
22.356700
 20
10.542616
 30
0.0
 10
22.338499
 20
10.543640
 30
0.0
 10
22.307326
 20
10.547529
 30
0.0
 10
22.288367
 20
10.548450
 30
0.0
  0
SPLINE
  5
1b6
100
AcDbEntity
  8
Camada_1
 62
7
100
AcDbSpline
 70
8
 71
3
 72
8
 73
4
 74
0
 40
0
 40
0
 40
0
 40
0
 40
1
 40
1
 40
1
 40
1
 10
22.288367
 20
10.548450
 30
0.0
 10
22.176444
 20
10.548450
 30
0.0
 10
21.928597
 20
10.563975
 30
0.0
 10
21.712443
 20
10.766122
 30
0.0
  0
SPLINE
  5
1b7
100
AcDbEntity
  8
Camada_1
 62
7
100
AcDbSpline
 70
8
 71
3
 72
8
 73
4
 74
0
 40
0
 40
0
 40
0
 40
0
 40
1
 40
1
 40
1
 40
1
 10
21.712443
 20
10.766122
 30
0.0
 10
21.452513
 20
11.009175
 30
0.0
 10
21.450639
 20
11.341224
 30
0.0
 10
21.451134
 20
11.461528
 30
0.0
  0
SPLINE
  5
1b8
100
AcDbEntity
  8
Camada_1
 62
7
100
AcDbSpline
 70
8
 71
3
 72
8
 73
4
 74
0
 40
0
 40
0
 40
0
 40
0
 40
1
 40
1
 40
1
 40
1
 10
21.451134
 20
11.461528
 30
0.0
 10
21.453053
 20
11.928976
 30
0.0
 10
21.761975
 20
12.264393
 30
0.0
 10
21.978562
 20
12.495553
 30
0.0
  0
SPLINE
  5
1b9
100
AcDbEntity
  8
Camada_1
 62
7
100
AcDbSpline
 70
8
 71
3
 72
8
 73
4
 74
0
 40
0
 40
0
 40
0
 40
0
 40
1
 40
1
 40
1
 40
1
 10
21.978562
 20
12.495553
 30
0.0
 10
22.526762
 20
13.080593
 30
0.0
 10
23.202841
 20
13.264922
 30
0.0
 10
23.510550
 20
13.343674
 30
0.0
  0
SPLINE
  5
1ba
100
AcDbEntity
  8
Camada_1
 62
7
100
AcDbSpline
 70
8
 71
3
 72
8
 73
4
 74
0
 40
0
 40
0
 40
0
 40
0
 40
1
 40
1
 40
1
 40
1
 10
23.510550
 20
13.343674
 30
0.0
 10
23.836004
 20
13.426961
 30
0.0
 10
24.218224
 20
13.441913
 30
0.0
 10
24.998850
 20
13.469402
 30
0.0
  0
SPLINE
  5
1bb
100
AcDbEntity
  8
Camada_1
 62
7
100
AcDbSpline
 70
8
 71
3
 72
8
 73
4
 74
0
 40
0
 40
0
 40
0
 40
0
 40
1
 40
1
 40
1
 40
1
 10
24.998850
 20
13.469402
 30
0.0
 10
25.531941
 20
13.488171
 30
0.0
 10
25.975723
 20
13.487731
 30
0.0
 10
26.288565
 20
13.483597
 30
0.0
  0
LWPOLYLINE
  5
1bc
100
AcDbEntity
  8
Camada_1
 62
7
100
AcDbPolyline
 90
4
 70
0
 10
22.349486
 20
10.278420
 30
0.0
 10
22.487355
 20
10.272791
 30
0.0
 10
22.487355
 20
10.547836
 30
0.0
 10
22.356700
 20
10.542616
 30
0.0
  0
SPLINE
  5
1bd
100
AcDbEntity
  8
Camada_1
 62
7
100
AcDbSpline
 70
8
 71
3
 72
8
 73
4
 74
0
 40
0
 40
0
 40
0
 40
0
 40
1
 40
1
 40
1
 40
1
 10
26.422831
 20
13.620869
 30
0.0
 10
26.421907
 20
13.644387
 30
0.0
 10
26.415433
 20
13.796928
 30
0.0
 10
26.277548
 20
13.895913
 30
0.0
  0
SPLINE
  5
1be
100
AcDbEntity
  8
Camada_1
 62
7
100
AcDbSpline
 70
8
 71
3
 72
8
 73
4
 74
0
 40
0
 40
0
 40
0
 40
0
 40
1
 40
1
 40
1
 40
1
 10
26.277548
 20
13.895913
 30
0.0
 10
26.185881
 20
13.961730
 30
0.0
 10
26.091306
 20
13.961720
 30
0.0
 10
26.059122
 20
13.960481
 30
0.0
  0
LWPOLYLINE
  5
1bf
100
AcDbEntity
  8
Camada_1
 62
7
100
AcDbPolyline
 90
3
 70
0
 10
26.288565
 20
13.483597
 30
0.0
 10
26.428238
 20
13.481755
 30
0.0
 10
26.422831
 20
13.620869
 30
0.0
  0
SPLINE
  5
1c0
100
AcDbEntity
  8
Camada_1
 62
7
100
AcDbSpline
 70
8
 71
3
 72
8
 73
4
 74
0
 40
0
 40
0
 40
0
 40
0
 40
1
 40
1
 40
1
 40
1
 10
24.129155
 20
13.694238
 30
0.0
 10
23.860154
 20
13.675837
 30
0.0
 10
23.640947
 20
13.649893
 30
0.0
 10
23.444821
 20
13.599694
 30
0.0
  0
SPLINE
  5
1c1
100
AcDbEntity
  8
Camada_1
 62
7
100
AcDbSpline
 70
8
 71
3
 72
8
 73
4
 74
0
 40
0
 40
0
 40
0
 40
0
 40
1
 40
1
 40
1
 40
1
 10
23.444821
 20
13.599694
 30
0.0
 10
23.131746
 20
13.519570
 30
0.0
 10
22.388527
 20
13.319921
 30
0.0
 10
21.784986
 20
12.675819
 30
0.0
  0
SPLINE
  5
1c2
100
AcDbEntity
  8
Camada_1
 62
7
100
AcDbSpline
 70
8
 71
3
 72
8
 73
4
 74
0
 40
0
 40
0
 40
0
 40
0
 40
1
 40
1
 40
1
 40
1
 10
21.784986
 20
12.675819
 30
0.0
 10
21.568402
 20
12.444669
 30
0.0
 10
21.188609
 20
12.044776
 30
0.0
 10
21.186218
 20
11.462500
 30
0.0
  0
SPLINE
  5
1c3
100
AcDbEntity
  8
Camada_1
 62
7
100
AcDbSpline
 70
8
 71
3
 72
8
 73
4
 74
0
 40
0
 40
0
 40
0
 40
0
 40
1
 40
1
 40
1
 40
1
 10
21.186218
 20
11.462500
 30
0.0
 10
21.185705
 20
11.344550
 30
0.0
 10
21.191748
 20
10.933943
 30
0.0
 10
21.500029
 20
10.613581
 30
0.0
  0
SPLINE
  5
1c4
100
AcDbEntity
  8
Camada_1
 62
7
100
AcDbSpline
 70
8
 71
3
 72
8
 73
4
 74
0
 40
0
 40
0
 40
0
 40
0
 40
1
 40
1
 40
1
 40
1
 10
21.500029
 20
10.613581
 30
0.0
 10
21.483649
 20
10.615525
 30
0.0
 10
21.474544
 20
10.614911
 30
0.0
 10
21.457948
 20
10.616958
 30
0.0
  0
SPLINE
  5
1c5
100
AcDbEntity
  8
Camada_1
 62
7
100
AcDbSpline
 70
8
 71
3
 72
8
 73
4
 74
0
 40
0
 40
0
 40
0
 40
0
 40
1
 40
1
 40
1
 40
1
 10
21.457948
 20
10.616958
 30
0.0
 10
21.292442
 20
10.637723
 30
0.0
 10
21.193265
 20
10.654917
 30
0.0
 10
21.138726
 20
10.670329
 30
0.0
  0
SPLINE
  5
1c6
100
AcDbEntity
  8
Camada_1
 62
7
100
AcDbSpline
 70
8
 71
3
 72
8
 73
4
 74
0
 40
0
 40
0
 40
0
 40
0
 40
1
 40
1
 40
1
 40
1
 10
21.138726
 20
10.670329
 30
0.0
 10
21.084185
 20
10.685732
 30
0.0
 10
21.080834
 20
10.690327
 30
0.0
 10
21.061976
 20
10.709107
 30
0.0
  0
SPLINE
  5
1c7
100
AcDbEntity
  8
Camada_1
 62
7
100
AcDbSpline
 70
8
 71
3
 72
8
 73
4
 74
0
 40
0
 40
0
 40
0
 40
0
 40
1
 40
1
 40
1
 40
1
 10
21.061976
 20
10.709107
 30
0.0
 10
21.027819
 20
10.743115
 30
0.0
 10
21.014134
 20
10.758876
 30
0.0
 10
21.016087
 20
10.896199
 30
0.0
  0
SPLINE
  5
1c8
100
AcDbEntity
  8
Camada_1
 62
7
100
AcDbSpline
 70
8
 71
3
 72
8
 73
4
 74
0
 40
0
 40
0
 40
0
 40
0
 40
1
 40
1
 40
1
 40
1
 10
21.016087
 20
10.896199
 30
0.0
 10
21.018036
 20
11.033522
 30
0.0
 10
21.051109
 20
11.270270
 30
0.0
 10
21.123897
 20
11.661167
 30
0.0
  0
SPLINE
  5
1c9
100
AcDbEntity
  8
Camada_1
 62
7
100
AcDbSpline
 70
8
 71
3
 72
8
 73
4
 74
0
 40
0
 40
0
 40
0
 40
0
 40
1
 40
1
 40
1
 40
1
 10
21.123897
 20
11.661167
 30
0.0
 10
21.269227
 20
12.441650
 30
0.0
 10
21.353863
 20
12.692818
 30
0.0
 10
21.446324
 20
12.914860
 30
0.0
  0
SPLINE
  5
1ca
100
AcDbEntity
  8
Camada_1
 62
7
100
AcDbSpline
 70
8
 71
3
 72
8
 73
4
 74
0
 40
0
 40
0
 40
0
 40
0
 40
1
 40
1
 40
1
 40
1
 10
21.446324
 20
12.914860
 30
0.0
 10
21.603048
 20
13.291214
 30
0.0
 10
21.712156
 20
13.418118
 30
0.0
 10
21.845303
 20
13.516725
 30
0.0
  0
SPLINE
  5
1cb
100
AcDbEntity
  8
Camada_1
 62
7
100
AcDbSpline
 70
8
 71
3
 72
8
 73
4
 74
0
 40
0
 40
0
 40
0
 40
0
 40
1
 40
1
 40
1
 40
1
 10
21.845303
 20
13.516725
 30
0.0
 10
21.990663
 20
13.624358
 30
0.0
 10
22.140103
 20
13.670198
 30
0.0
 10
22.246285
 20
13.692426
 30
0.0
  0
SPLINE
  5
1cc
100
AcDbEntity
  8
Camada_1
 62
7
100
AcDbSpline
 70
8
 71
3
 72
8
 73
4
 74
0
 40
0
 40
0
 40
0
 40
0
 40
1
 40
1
 40
1
 40
1
 10
22.246285
 20
13.692426
 30
0.0
 10
22.873922
 20
13.693450
 30
0.0
 10
23.501516
 20
13.693552
 30
0.0
 10
24.129155
 20
13.694268
 30
0.0
  0
LWPOLYLINE
  5
1cd
100
AcDbEntity
  8
Camada_1
 62
7
100
AcDbPolyline
 90
1
 70
1
 10
26.059122
 20
13.960481
 30
0.0
  0
LWPOLYLINE
  5
1ce
100
AcDbEntity
  8
Camada_1
 62
7
100
AcDbPolyline
 90
1
 70
1
 10
24.129155
 20
13.694268
 30
0.0
  0
LWPOLYLINE
  5
1cf
100
AcDbEntity
  8
Camada_1
 62
7
100
AcDbPolyline
 90
1
 70
1
 10
22.354828
 20
10.410359
 30
0.0
  0
SPLINE
  5
1d0
100
AcDbEntity
  8
Camada_1
 62
7
100
AcDbSpline
 70
8
 71
3
 72
8
 73
4
 74
0
 40
0
 40
0
 40
0
 40
0
 40
1
 40
1
 40
1
 40
1
 10
26.260510
 20
13.565911
 30
0.0
 10
26.140821
 20
13.316195
 30
0.0
 10
25.954204
 20
12.957424
 30
0.0
 10
25.678375
 20
12.546489
 30
0.0
  0
SPLINE
  5
1d1
100
AcDbEntity
  8
Camada_1
 62
7
100
AcDbSpline
 70
8
 71
3
 72
8
 73
4
 74
0
 40
0
 40
0
 40
0
 40
0
 40
1
 40
1
 40
1
 40
1
 10
25.678375
 20
12.546489
 30
0.0
 10
25.314669
 20
12.004617
 30
0.0
 10
24.938607
 20
11.445716
 30
0.0
 10
24.259610
 20
10.997160
 30
0.0
  0
SPLINE
  5
1d2
100
AcDbEntity
  8
Camada_1
 62
7
100
AcDbSpline
 70
8
 71
3
 72
8
 73
4
 74
0
 40
0
 40
0
 40
0
 40
0
 40
1
 40
1
 40
1
 40
1
 10
24.259610
 20
10.997160
 30
0.0
 10
23.873571
 20
10.742143
 30
0.0
 10
23.514184
 20
10.605588
 30
0.0
 10
23.278096
 20
10.531420
 30
0.0
  0
LWPOLYLINE
  5
1d3
100
AcDbEntity
  8
Camada_1
 62
7
100
AcDbPolyline
 90
2
 70
0
 10
26.260510
 20
13.831561
 30
0.0
 10
26.260510
 20
13.565911
 30
0.0
  0
SPLINE
  5
1d4
100
AcDbEntity
  8
Camada_1
 62
7
100
AcDbSpline
 70
8
 71
3
 72
8
 73
4
 74
0
 40
0
 40
0
 40
0
 40
0
 40
1
 40
1
 40
1
 40
1
 10
23.309958
 20
10.273374
 30
0.0
 10
23.463443
 20
10.264163
 30
0.0
 10
23.686689
 20
10.255853
 30
0.0
 10
23.955817
 20
10.263549
 30
0.0
  0
SPLINE
  5
1d5
100
AcDbEntity
  8
Camada_1
 62
7
100
AcDbSpline
 70
8
 71
3
 72
8
 73
4
 74
0
 40
0
 40
0
 40
0
 40
0
 40
1
 40
1
 40
1
 40
1
 10
23.955817
 20
10.263549
 30
0.0
 10
24.699686
 20
10.284765
 30
0.0
 10
25.147057
 20
10.295490
 30
0.0
 10
25.583791
 20
10.536988
 30
0.0
  0
SPLINE
  5
1d6
100
AcDbEntity
  8
Camada_1
 62
7
100
AcDbSpline
 70
8
 71
3
 72
8
 73
4
 74
0
 40
0
 40
0
 40
0
 40
0
 40
1
 40
1
 40
1
 40
1
 10
25.583791
 20
10.536988
 30
0.0
 10
26.172404
 20
10.862487
 30
0.0
 10
26.411774
 20
11.425738
 30
0.0
 10
26.570715
 20
11.795481
 30
0.0
  0
SPLINE
  5
1d7
100
AcDbEntity
  8
Camada_1
 62
7
100
AcDbSpline
 70
8
 71
3
 72
8
 73
4
 74
0
 40
0
 40
0
 40
0
 40
0
 40
1
 40
1
 40
1
 40
1
 10
26.570715
 20
11.795481
 30
0.0
 10
26.714199
 20
12.129280
 30
0.0
 10
27.022590
 20
12.809233
 30
0.0
 10
26.688945
 20
13.378993
 30
0.0
  0
SPLINE
  5
1d8
100
AcDbEntity
  8
Camada_1
 62
7
100
AcDbSpline
 70
8
 71
3
 72
8
 73
4
 74
0
 40
0
 40
0
 40
0
 40
0
 40
1
 40
1
 40
1
 40
1
 10
26.688945
 20
13.378993
 30
0.0
 10
26.619159
 20
13.498170
 30
0.0
 10
26.538225
 20
13.581129
 30
0.0
 10
26.481741
 20
13.632044
 30
0.0
  0
LWPOLYLINE
  5
1d9
100
AcDbEntity
  8
Camada_1
 62
7
100
AcDbPolyline
 90
2
 70
0
 10
23.278096
 20
10.531420
 30
0.0
 10
23.309958
 20
10.273374
 30
0.0
  0
SPLINE
  5
1da
100
AcDbEntity
  8
Camada_1
 62
7
100
AcDbSpline
 70
8
 71
3
 72
8
 73
4
 74
0
 40
0
 40
0
 40
0
 40
0
 40
1
 40
1
 40
1
 40
1
 10
26.419019
 20
13.295870
 30
0.0
 10
26.433461
 20
13.276067
 30
0.0
 10
26.446628
 20
13.269046
 30
0.0
 10
26.460300
 20
13.245692
 30
0.0
  0
SPLINE
  5
1db
100
AcDbEntity
  8
Camada_1
 62
7
100
AcDbSpline
 70
8
 71
3
 72
8
 73
4
 74
0
 40
0
 40
0
 40
0
 40
0
 40
1
 40
1
 40
1
 40
1
 10
26.460300
 20
13.245692
 30
0.0
 10
26.707920
 20
12.822834
 30
0.0
 10
26.470725
 20
12.233455
 30
0.0
 10
26.327240
 20
11.899655
 30
0.0
  0
SPLINE
  5
1dc
100
AcDbEntity
  8
Camada_1
 62
7
100
AcDbSpline
 70
8
 71
3
 72
8
 73
4
 74
0
 40
0
 40
0
 40
0
 40
0
 40
1
 40
1
 40
1
 40
1
 10
26.327240
 20
11.899655
 30
0.0
 10
26.168299
 20
11.529913
 30
0.0
 10
25.957210
 20
11.045619
 30
0.0
 10
25.455340
 20
10.768087
 30
0.0
  0
SPLINE
  5
1dd
100
AcDbEntity
  8
Camada_1
 62
7
100
AcDbSpline
 70
8
 71
3
 72
8
 73
4
 74
0
 40
0
 40
0
 40
0
 40
0
 40
1
 40
1
 40
1
 40
1
 10
25.455340
 20
10.768087
 30
0.0
 10
25.083970
 20
10.562727
 30
0.0
 10
24.692987
 20
10.548941
 30
0.0
 10
23.953012
 20
10.527828
 30
0.0
  0
SPLINE
  5
1de
100
AcDbEntity
  8
Camada_1
 62
7
100
AcDbSpline
 70
8
 71
3
 72
8
 73
4
 74
0
 40
0
 40
0
 40
0
 40
0
 40
1
 40
1
 40
1
 40
1
 10
23.953012
 20
10.527828
 30
0.0
 10
24.098218
 20
10.598864
 30
0.0
 10
24.246002
 20
10.671261
 30
0.0
 10
24.405895
 20
10.776888
 30
0.0
  0
SPLINE
  5
1df
100
AcDbEntity
  8
Camada_1
 62
7
100
AcDbSpline
 70
8
 71
3
 72
8
 73
4
 74
0
 40
0
 40
0
 40
0
 40
0
 40
1
 40
1
 40
1
 40
1
 10
24.405895
 20
10.776888
 30
0.0
 10
25.132037
 20
11.256577
 30
0.0
 10
25.534694
 20
11.857500
 30
0.0
 10
25.898404
 20
12.399372
 30
0.0
  0
SPLINE
  5
1e0
100
AcDbEntity
  8
Camada_1
 62
7
100
AcDbSpline
 70
8
 71
3
 72
8
 73
4
 74
0
 40
0
 40
0
 40
0
 40
0
 40
1
 40
1
 40
1
 40
1
 10
25.898404
 20
12.399372
 30
0.0
 10
26.134818
 20
12.751583
 30
0.0
 10
26.295667
 20
13.050484
 30
0.0
 10
26.419019
 20
13.295870
 30
0.0
  0
LWPOLYLINE
  5
1e1
100
AcDbEntity
  8
Camada_1
 62
7
100
AcDbPolyline
 90
2
 70
0
 10
26.481741
 20
13.632044
 30
0.0
 10
26.260510
 20
13.831561
 30
0.0
  0
LWPOLYLINE
  5
1e2
100
AcDbEntity
  8
Camada_1
 62
7
100
AcDbPolyline
 90
1
 70
1
 10
26.419019
 20
13.295870
 30
0.0
  0
SPLINE
  5
1e3
100
AcDbEntity
  8
Camada_1
 62
7
100
AcDbSpline
 70
8
 71
3
 72
8
 73
4
 74
0
 40
0
 40
0
 40
0
 40
0
 40
1
 40
1
 40
1
 40
1
 10
24.961779
 20
12.992241
 30
0.0
 10
24.497202
 20
12.878447
 30
0.0
 10
23.943972
 20
12.702786
 30
0.0
 10
23.347431
 20
12.425162
 30
0.0
  0
SPLINE
  5
1e4
100
AcDbEntity
  8
Camada_1
 62
7
100
AcDbSpline
 70
8
 71
3
 72
8
 73
4
 74
0
 40
0
 40
0
 40
0
 40
0
 40
1
 40
1
 40
1
 40
1
 10
23.347431
 20
12.425162
 30
0.0
 10
22.568903
 20
12.062840
 30
0.0
 10
21.960856
 20
11.640412
 30
0.0
 10
21.517063
 20
11.279798
 30
0.0
  0
LWPOLYLINE
  5
1e5
100
AcDbEntity
  8
Camada_1
 62
7
100
AcDbPolyline
 90
1
 70
1
 10
26.392981
 20
13.533980
 30
0.0
  0
SPLINE
  5
1e6
100
AcDbEntity
  8
Camada_1
 62
7
100
AcDbSpline
 70
8
 71
3
 72
8
 73
4
 74
0
 40
0
 40
0
 40
0
 40
0
 40
1
 40
1
 40
1
 40
1
 10
21.667556
 20
11.063324
 30
0.0
 10
22.240840
 20
11.398167
 30
0.0
 10
22.864962
 20
11.735365
 30
0.0
 10
23.539806
 20
12.063761
 30
0.0
  0
SPLINE
  5
1e7
100
AcDbEntity
  8
Camada_1
 62
7
100
AcDbSpline
 70
8
 71
3
 72
8
 73
4
 74
0
 40
0
 40
0
 40
0
 40
0
 40
1
 40
1
 40
1
 40
1
 10
23.539806
 20
12.063761
 30
0.0
 10
24.057750
 20
12.315810
 30
0.0
 10
24.560710
 20
12.540911
 30
0.0
 10
25.044339
 20
12.741983
 30
0.0
  0
LWPOLYLINE
  5
1e8
100
AcDbEntity
  8
Camada_1
 62
7
100
AcDbPolyline
 90
2
 70
0
 10
21.517063
 20
11.279798
 30
0.0
 10
21.667556
 20
11.063324
 30
0.0
  0
LWPOLYLINE
  5
1e9
100
AcDbEntity
  8
Camada_1
 62
7
100
AcDbPolyline
 90
2
 70
0
 10
25.044339
 20
12.741983
 30
0.0
 10
24.961779
 20
12.992241
 30
0.0
  0
LWPOLYLINE
  5
1ea
100
AcDbEntity
  8
Camada_1
 62
7
100
AcDbPolyline
 90
1
 70
1
 10
24.993365
 20
12.863853
 30
0.0
  0
SPLINE
  5
1eb
100
AcDbEntity
  8
Camada_1
 62
7
100
AcDbSpline
 70
8
 71
3
 72
8
 73
4
 74
0
 40
0
 40
0
 40
0
 40
0
 40
1
 40
1
 40
1
 40
1
 10
27.146838
 20
14.073631
 30
0.0
 10
28.433038
 20
14.065853
 30
0.0
 10
29.719155
 20
14.057993
 30
0.0
 10
31.005360
 20
14.050246
 30
0.0
  0
SPLINE
  5
1ec
100
AcDbEntity
  8
Camada_1
 62
7
100
AcDbSpline
 70
8
 71
3
 72
8
 73
4
 74
0
 40
0
 40
0
 40
0
 40
0
 40
1
 40
1
 40
1
 40
1
 10
31.005360
 20
14.050246
 30
0.0
 10
31.303021
 20
13.640447
 30
0.0
 10
31.600641
 20
13.230740
 30
0.0
 10
31.898301
 20
12.820930
 30
0.0
  0
LWPOLYLINE
  5
1ed
100
AcDbEntity
  8
Camada_1
 62
7
100
AcDbPolyline
 90
7
 70
0
 10
25.515859
 20
14.623721
 30
0.0
 10
28.025150
 20
12.040376
 30
0.0
 10
28.025150
 20
10.707326
 30
0.0
 10
28.570013
 20
10.707326
 30
0.0
 10
28.570013
 20
12.491521
 30
0.0
 10
28.570013
 20
12.543491
 30
0.0
 10
27.146838
 20
14.073631
 30
0.0
  0
SPLINE
  5
1ee
100
AcDbEntity
  8
Camada_1
 62
7
100
AcDbSpline
 70
8
 71
3
 72
8
 73
4
 74
0
 40
0
 40
0
 40
0
 40
0
 40
1
 40
1
 40
1
 40
1
 10
32.003706
 20
12.766146
 30
0.0
 10
32.454496
 20
12.759597
 30
0.0
 10
33.109481
 20
12.749608
 30
0.0
 10
33.899402
 20
12.736365
 30
0.0
  0
SPLINE
  5
1ef
100
AcDbEntity
  8
Camada_1
 62
7
100
AcDbSpline
 70
8
 71
3
 72
8
 73
4
 74
0
 40
0
 40
0
 40
0
 40
0
 40
1
 40
1
 40
1
 40
1
 10
33.899402
 20
12.736365
 30
0.0
 10
36.424179
 20
12.694067
 30
0.0
 10
37.685775
 20
12.672769
 30
0.0
 10
39.115971
 20
12.627432
 30
0.0
  0
SPLINE
  5
1f0
100
AcDbEntity
  8
Camada_1
 62
7
100
AcDbSpline
 70
8
 71
3
 72
8
 73
4
 74
0
 40
0
 40
0
 40
0
 40
0
 40
1
 40
1
 40
1
 40
1
 10
39.115971
 20
12.627432
 30
0.0
 10
42.019777
 20
12.535354
 30
0.0
 10
43.200391
 20
12.428202
 30
0.0
 10
43.734977
 20
12.374974
 30
0.0
  0
LWPOLYLINE
  5
1f1
100
AcDbEntity
  8
Camada_1
 62
7
100
AcDbPolyline
 90
3
 70
0
 10
31.898301
 20
12.820930
 30
0.0
 10
31.937377
 20
12.767170
 30
0.0
 10
32.003706
 20
12.766146
 30
0.0
  0
SPLINE
  5
1f2
100
AcDbEntity
  8
Camada_1
 62
7
100
AcDbSpline
 70
8
 71
3
 72
8
 73
4
 74
0
 40
0
 40
0
 40
0
 40
0
 40
1
 40
1
 40
1
 40
1
 10
43.748192
 20
12.373950
 30
0.0
 10
43.748192
 20
12.373950
 30
0.0
 10
43.826750
 20
12.365661
 30
0.0
 10
43.987659
 20
12.347362
 30
0.0
  0
SPLINE
  5
1f3
100
AcDbEntity
  8
Camada_1
 62
7
100
AcDbSpline
 70
8
 71
3
 72
8
 73
4
 74
0
 40
0
 40
0
 40
0
 40
0
 40
1
 40
1
 40
1
 40
1
 10
43.987659
 20
12.347362
 30
0.0
 10
44.148568
 20
12.329073
 30
0.0
 10
44.378071
 20
12.301553
 30
0.0
 10
44.651954
 20
12.265212
 30
0.0
  0
SPLINE
  5
1f4
100
AcDbEntity
  8
Camada_1
 62
7
100
AcDbSpline
 70
8
 71
3
 72
8
 73
4
 74
0
 40
0
 40
0
 40
0
 40
0
 40
1
 40
1
 40
1
 40
1
 10
44.651954
 20
12.265212
 30
0.0
 10
45.199719
 20
12.192518
 30
0.0
 10
45.925259
 20
12.083871
 30
0.0
 10
46.633216
 20
11.940991
 30
0.0
  0
SPLINE
  5
1f5
100
AcDbEntity
  8
Camada_1
 62
7
100
AcDbSpline
 70
8
 71
3
 72
8
 73
4
 74
0
 40
0
 40
0
 40
0
 40
0
 40
1
 40
1
 40
1
 40
1
 10
46.633216
 20
11.940991
 30
0.0
 10
47.111316
 20
11.844503
 30
0.0
 10
47.561377
 20
11.734229
 30
0.0
 10
47.668835
 20
11.707722
 30
0.0
  0
SPLINE
  5
1f6
100
AcDbEntity
  8
Camada_1
 62
7
100
AcDbSpline
 70
8
 71
3
 72
8
 73
4
 74
0
 40
0
 40
0
 40
0
 40
0
 40
1
 40
1
 40
1
 40
1
 10
47.668835
 20
11.707722
 30
0.0
 10
47.979304
 20
11.631129
 30
0.0
 10
48.333536
 20
11.537844
 30
0.0
 10
48.747138
 20
11.408494
 30
0.0
  0
SPLINE
  5
1f7
100
AcDbEntity
  8
Camada_1
 62
7
100
AcDbSpline
 70
8
 71
3
 72
8
 73
4
 74
0
 40
0
 40
0
 40
0
 40
0
 40
1
 40
1
 40
1
 40
1
 10
48.747138
 20
11.408494
 30
0.0
 10
49.229967
 20
11.257498
 30
0.0
 10
49.462444
 20
11.161931
 30
0.0
 10
49.714223
 20
11.008520
 30
0.0
  0
SPLINE
  5
1f8
100
AcDbEntity
  8
Camada_1
 62
7
100
AcDbSpline
 70
8
 71
3
 72
8
 73
4
 74
0
 40
0
 40
0
 40
0
 40
0
 40
1
 40
1
 40
1
 40
1
 10
49.714223
 20
11.008520
 30
0.0
 10
50.069654
 20
10.791933
 30
0.0
 10
50.120499
 20
10.680195
 30
0.0
 10
50.149872
 20
10.589356
 30
0.0
  0
SPLINE
  5
1f9
100
AcDbEntity
  8
Camada_1
 62
7
100
AcDbSpline
 70
8
 71
3
 72
8
 73
4
 74
0
 40
0
 40
0
 40
0
 40
0
 40
1
 40
1
 40
1
 40
1
 10
50.149872
 20
10.589356
 30
0.0
 10
50.183497
 20
10.485346
 30
0.0
 10
50.199689
 20
10.311691
 30
0.0
 10
50.115004
 20
10.157001
 30
0.0
  0
SPLINE
  5
1fa
100
AcDbEntity
  8
Camada_1
 62
7
100
AcDbSpline
 70
8
 71
3
 72
8
 73
4
 74
0
 40
0
 40
0
 40
0
 40
0
 40
1
 40
1
 40
1
 40
1
 10
50.115004
 20
10.157001
 30
0.0
 10
50.063788
 20
10.063439
 30
0.0
 10
49.993216
 20
10.006148
 30
0.0
 10
49.949882
 20
9.976295
 30
0.0
  0
LWPOLYLINE
  5
1fb
100
AcDbEntity
  8
Camada_1
 62
7
100
AcDbPolyline
 90
3
 70
0
 10
43.734977
 20
12.374974
 30
0.0
 10
43.741584
 20
12.373950
 30
0.0
 10
43.748192
 20
12.373950
 30
0.0
  0
SPLINE
  5
1fc
100
AcDbEntity
  8
Camada_1
 62
7
100
AcDbSpline
 70
8
 71
3
 72
8
 73
4
 74
0
 40
0
 40
0
 40
0
 40
0
 40
1
 40
1
 40
1
 40
1
 10
50.025229
 20
9.735432
 30
0.0
 10
50.186659
 20
9.735432
 30
0.0
 10
50.348628
 20
9.734409
 30
0.0
 10
50.511177
 20
9.734409
 30
0.0
  0
LWPOLYLINE
  5
1fd
100
AcDbEntity
  8
Camada_1
 62
7
100
AcDbPolyline
 90
3
 70
0
 10
49.949882
 20
9.976295
 30
0.0
 10
49.600200
 20
9.735432
 30
0.0
 10
50.025229
 20
9.735432
 30
0.0
  0
SPLINE
  5
1fe
100
AcDbEntity
  8
Camada_1
 62
7
100
AcDbSpline
 70
8
 71
3
 72
8
 73
4
 74
0
 40
0
 40
0
 40
0
 40
0
 40
1
 40
1
 40
1
 40
1
 10
50.576904
 20
9.751807
 30
0.0
 10
50.602892
 20
9.766647
 30
0.0
 10
50.721559
 20
9.836014
 30
0.0
 10
50.838815
 20
9.957884
 30
0.0
  0
SPLINE
  5
1ff
100
AcDbEntity
  8
Camada_1
 62
7
100
AcDbSpline
 70
8
 71
3
 72
8
 73
4
 74
0
 40
0
 40
0
 40
0
 40
0
 40
1
 40
1
 40
1
 40
1
 10
50.838815
 20
9.957884
 30
0.0
 10
50.956072
 20
10.079763
 30
0.0
 10
51.077430
 20
10.261155
 30
0.0
 10
51.080286
 20
10.493983
 30
0.0
  0
SPLINE
  5
200
100
AcDbEntity
  8
Camada_1
 62
7
100
AcDbSpline
 70
8
 71
3
 72
8
 73
4
 74
0
 40
0
 40
0
 40
0
 40
0
 40
1
 40
1
 40
1
 40
1
 10
51.080286
 20
10.493983
 30
0.0
 10
51.083251
 20
10.735071
 30
0.0
 10
50.955926
 20
10.910158
 30
0.0
 10
50.875687
 20
11.020084
 30
0.0
  0
SPLINE
  5
201
100
AcDbEntity
  8
Camada_1
 62
7
100
AcDbSpline
 70
8
 71
3
 72
8
 73
4
 74
0
 40
0
 40
0
 40
0
 40
0
 40
1
 40
1
 40
1
 40
1
 10
50.875687
 20
11.020084
 30
0.0
 10
50.649396
 20
11.330130
 30
0.0
 10
50.351063
 20
11.473410
 30
0.0
 10
50.038054
 20
11.610558
 30
0.0
  0
SPLINE
  5
202
100
AcDbEntity
  8
Camada_1
 62
7
100
AcDbSpline
 70
8
 71
3
 72
8
 73
4
 74
0
 40
0
 40
0
 40
0
 40
0
 40
1
 40
1
 40
1
 40
1
 10
50.038054
 20
11.610558
 30
0.0
 10
49.630747
 20
11.789023
 30
0.0
 10
49.351193
 20
11.898949
 30
0.0
 10
49.172366
 20
11.964561
 30
0.0
  0
SPLINE
  5
203
100
AcDbEntity
  8
Camada_1
 62
7
100
AcDbSpline
 70
8
 71
3
 72
8
 73
4
 74
0
 40
0
 40
0
 40
0
 40
0
 40
1
 40
1
 40
1
 40
1
 10
49.172366
 20
11.964561
 30
0.0
 10
49.082954
 20
11.997361
 30
0.0
 10
49.018829
 20
12.019037
 30
0.0
 10
48.976384
 20
12.032720
 30
0.0
  0
SPLINE
  5
204
100
AcDbEntity
  8
Camada_1
 62
7
100
AcDbSpline
 70
8
 71
3
 72
8
 73
4
 74
0
 40
0
 40
0
 40
0
 40
0
 40
1
 40
1
 40
1
 40
1
 10
48.976384
 20
12.032720
 30
0.0
 10
48.934965
 20
12.046076
 30
0.0
 10
48.913738
 20
12.052012
 30
0.0
 10
48.912660
 20
12.052309
 30
0.0
  0
LWPOLYLINE
  5
205
100
AcDbEntity
  8
Camada_1
 62
7
100
AcDbPolyline
 90
3
 70
0
 10
50.511177
 20
9.734409
 30
0.0
 10
50.546445
 20
9.734409
 30
0.0
 10
50.576904
 20
9.751807
 30
0.0
  0
SPLINE
  5
206
100
AcDbEntity
  8
Camada_1
 62
7
100
AcDbSpline
 70
8
 71
3
 72
8
 73
4
 74
0
 40
0
 40
0
 40
0
 40
0
 40
1
 40
1
 40
1
 40
1
 10
48.911060
 20
12.052309
 30
0.0
 10
48.288083
 20
12.229689
 30
0.0
 10
47.402432
 20
12.458495
 30
0.0
 10
46.325219
 20
12.657766
 30
0.0
  0
SPLINE
  5
207
100
AcDbEntity
  8
Camada_1
 62
7
100
AcDbSpline
 70
8
 71
3
 72
8
 73
4
 74
0
 40
0
 40
0
 40
0
 40
0
 40
1
 40
1
 40
1
 40
1
 10
46.325219
 20
12.657766
 30
0.0
 10
45.384284
 20
12.831830
 30
0.0
 10
44.442257
 20
12.956165
 30
0.0
 10
42.488340
 20
13.103518
 30
0.0
  0
SPLINE
  5
208
100
AcDbEntity
  8
Camada_1
 62
7
100
AcDbSpline
 70
8
 71
3
 72
8
 73
4
 74
0
 40
0
 40
0
 40
0
 40
0
 40
1
 40
1
 40
1
 40
1
 10
42.488340
 20
13.103518
 30
0.0
 10
40.501289
 20
13.253357
 30
0.0
 10
38.716767
 20
13.333051
 30
0.0
 10
37.028095
 20
13.380364
 30
0.0
  0
SPLINE
  5
209
100
AcDbEntity
  8
Camada_1
 62
7
100
AcDbSpline
 70
8
 71
3
 72
8
 73
4
 74
0
 40
0
 40
0
 40
0
 40
0
 40
1
 40
1
 40
1
 40
1
 10
37.028095
 20
13.380364
 30
0.0
 10
35.793843
 20
13.414925
 30
0.0
 10
34.184356
 20
13.442711
 30
0.0
 10
32.309695
 20
13.434524
 30
0.0
  0
SPLINE
  5
20a
100
AcDbEntity
  8
Camada_1
 62
7
100
AcDbSpline
 70
8
 71
3
 72
8
 73
4
 74
0
 40
0
 40
0
 40
0
 40
0
 40
1
 40
1
 40
1
 40
1
 10
32.309695
 20
13.434524
 30
0.0
 10
31.997380
 20
13.814521
 30
0.0
 10
31.684985
 20
14.194487
 30
0.0
 10
31.372669
 20
14.574484
 30
0.0
  0
LWPOLYLINE
  5
20b
100
AcDbEntity
  8
Camada_1
 62
7
100
AcDbPolyline
 90
2
 70
0
 10
48.912660
 20
12.052309
 30
0.0
 10
48.911060
 20
12.052309
 30
0.0
  0
LWPOLYLINE
  5
20c
100
AcDbEntity
  8
Camada_1
 62
7
100
AcDbPolyline
 90
3
 70
0
 10
31.372669
 20
14.574484
 30
0.0
 10
31.332991
 20
14.622861
 30
0.0
 10
25.515859
 20
14.623721
 30
0.0
  0
SPLINE
  5
20d
100
AcDbEntity
  8
Camada_1
 62
7
100
AcDbSpline
 70
8
 71
3
 72
8
 73
4
 74
0
 40
0
 40
0
 40
0
 40
0
 40
1
 40
1
 40
1
 40
1
 10
31.207555
 20
14.359463
 30
0.0
 10
31.519658
 20
13.979732
 30
0.0
 10
31.831876
 20
13.600052
 30
0.0
 10
32.143980
 20
13.220311
 30
0.0
  0
LWPOLYLINE
  5
20e
100
AcDbEntity
  8
Camada_1
 62
7
100
AcDbPolyline
 90
2
 70
0
 10
26.141478
 20
14.359463
 30
0.0
 10
31.207555
 20
14.359463
 30
0.0
  0
SPLINE
  5
20f
100
AcDbEntity
  8
Camada_1
 62
7
100
AcDbSpline
 70
8
 71
3
 72
8
 73
4
 74
0
 40
0
 40
0
 40
0
 40
0
 40
1
 40
1
 40
1
 40
1
 10
32.246981
 20
13.171739
 30
0.0
 10
34.151192
 20
13.181052
 30
0.0
 10
35.772008
 20
13.151946
 30
0.0
 10
37.020687
 20
13.116976
 30
0.0
  0
SPLINE
  5
210
100
AcDbEntity
  8
Camada_1
 62
7
100
AcDbSpline
 70
8
 71
3
 72
8
 73
4
 74
0
 40
0
 40
0
 40
0
 40
0
 40
1
 40
1
 40
1
 40
1
 10
37.020687
 20
13.116976
 30
0.0
 10
38.706253
 20
13.069755
 30
0.0
 10
40.486307
 20
12.990204
 30
0.0
 10
42.468508
 20
12.840734
 30
0.0
  0
SPLINE
  5
211
100
AcDbEntity
  8
Camada_1
 62
7
100
AcDbSpline
 70
8
 71
3
 72
8
 73
4
 74
0
 40
0
 40
0
 40
0
 40
0
 40
1
 40
1
 40
1
 40
1
 10
42.468508
 20
12.840734
 30
0.0
 10
44.417657
 20
12.693739
 30
0.0
 10
45.344875
 20
12.571205
 30
0.0
 10
46.276932
 20
12.398778
 30
0.0
  0
SPLINE
  5
212
100
AcDbEntity
  8
Camada_1
 62
7
100
AcDbSpline
 70
8
 71
3
 72
8
 73
4
 74
0
 40
0
 40
0
 40
0
 40
0
 40
1
 40
1
 40
1
 40
1
 10
46.276932
 20
12.398778
 30
0.0
 10
47.344741
 20
12.201248
 30
0.0
 10
48.222775
 20
11.974273
 30
0.0
 10
48.839929
 20
11.798520
 30
0.0
  0
LWPOLYLINE
  5
213
100
AcDbEntity
  8
Camada_1
 62
7
100
AcDbPolyline
 90
3
 70
0
 10
32.143980
 20
13.220311
 30
0.0
 10
32.183858
 20
13.171739
 30
0.0
 10
32.246981
 20
13.171739
 30
0.0
  0
SPLINE
  5
214
100
AcDbEntity
  8
Camada_1
 62
7
100
AcDbSpline
 70
8
 71
3
 72
8
 73
4
 74
0
 40
0
 40
0
 40
0
 40
0
 40
1
 40
1
 40
1
 40
1
 10
48.876399
 20
11.793301
 30
0.0
 10
48.876399
 20
11.793301
 30
0.0
 10
48.856063
 20
11.794324
 30
0.0
 10
48.894835
 20
11.781705
 30
0.0
  0
SPLINE
  5
215
100
AcDbEntity
  8
Camada_1
 62
7
100
AcDbSpline
 70
8
 71
3
 72
8
 73
4
 74
0
 40
0
 40
0
 40
0
 40
0
 40
1
 40
1
 40
1
 40
1
 10
48.894835
 20
11.781705
 30
0.0
 10
48.933609
 20
11.769199
 30
0.0
 10
48.994591
 20
11.748444
 30
0.0
 10
49.080998
 20
11.716739
 30
0.0
  0
SPLINE
  5
216
100
AcDbEntity
  8
Camada_1
 62
7
100
AcDbSpline
 70
8
 71
3
 72
8
 73
4
 74
0
 40
0
 40
0
 40
0
 40
0
 40
1
 40
1
 40
1
 40
1
 10
49.080998
 20
11.716739
 30
0.0
 10
49.253813
 20
11.653338
 30
0.0
 10
49.528553
 20
11.545561
 30
0.0
 10
49.931657
 20
11.368938
 30
0.0
  0
SPLINE
  5
217
100
AcDbEntity
  8
Camada_1
 62
7
100
AcDbSpline
 70
8
 71
3
 72
8
 73
4
 74
0
 40
0
 40
0
 40
0
 40
0
 40
1
 40
1
 40
1
 40
1
 10
49.931657
 20
11.368938
 30
0.0
 10
50.239237
 20
11.234164
 30
0.0
 10
50.477111
 20
11.117698
 30
0.0
 10
50.661680
 20
10.864821
 30
0.0
  0
SPLINE
  5
218
100
AcDbEntity
  8
Camada_1
 62
7
100
AcDbSpline
 70
8
 71
3
 72
8
 73
4
 74
0
 40
0
 40
0
 40
0
 40
0
 40
1
 40
1
 40
1
 40
1
 10
50.661680
 20
10.864821
 30
0.0
 10
50.740081
 20
10.757412
 30
0.0
 10
50.817184
 20
10.644355
 30
0.0
 10
50.815380
 20
10.497432
 30
0.0
  0
SPLINE
  5
219
100
AcDbEntity
  8
Camada_1
 62
7
100
AcDbSpline
 70
8
 71
3
 72
8
 73
4
 74
0
 40
0
 40
0
 40
0
 40
0
 40
1
 40
1
 40
1
 40
1
 10
50.815380
 20
10.497432
 30
0.0
 10
50.813635
 20
10.355535
 30
0.0
 10
50.737255
 20
10.234157
 30
0.0
 10
50.647653
 20
10.141025
 30
0.0
  0
SPLINE
  5
21a
100
AcDbEntity
  8
Camada_1
 62
7
100
AcDbSpline
 70
8
 71
3
 72
8
 73
4
 74
0
 40
0
 40
0
 40
0
 40
0
 40
1
 40
1
 40
1
 40
1
 10
50.647653
 20
10.141025
 30
0.0
 10
50.567962
 20
10.058200
 30
0.0
 10
50.496519
 20
10.016208
 30
0.0
 10
50.467702
 20
9.998913
 30
0.0
  0
SPLINE
  5
21b
100
AcDbEntity
  8
Camada_1
 62
7
100
AcDbSpline
 70
8
 71
3
 72
8
 73
4
 74
0
 40
0
 40
0
 40
0
 40
0
 40
1
 40
1
 40
1
 40
1
 10
50.467702
 20
9.998913
 30
0.0
 10
50.419943
 20
9.998964
 30
0.0
 10
50.371880
 20
9.998913
 30
0.0
 10
50.324022
 20
9.998913
 30
0.0
  0
SPLINE
  5
21c
100
AcDbEntity
  8
Camada_1
 62
7
100
AcDbSpline
 70
8
 71
3
 72
8
 73
4
 74
0
 40
0
 40
0
 40
0
 40
0
 40
1
 40
1
 40
1
 40
1
 10
50.324022
 20
9.998913
 30
0.0
 10
50.331512
 20
10.010928
 30
0.0
 10
50.340377
 20
10.017344
 30
0.0
 10
50.347467
 20
10.030291
 30
0.0
  0
SPLINE
  5
21d
100
AcDbEntity
  8
Camada_1
 62
7
100
AcDbSpline
 70
8
 71
3
 72
8
 73
4
 74
0
 40
0
 40
0
 40
0
 40
0
 40
1
 40
1
 40
1
 40
1
 10
50.347467
 20
10.030291
 30
0.0
 10
50.476777
 20
10.266507
 30
0.0
 10
50.453433
 20
10.510962
 30
0.0
 10
50.401973
 20
10.670135
 30
0.0
  0
SPLINE
  5
21e
100
AcDbEntity
  8
Camada_1
 62
7
100
AcDbSpline
 70
8
 71
3
 72
8
 73
4
 74
0
 40
0
 40
0
 40
0
 40
0
 40
1
 40
1
 40
1
 40
1
 10
50.401973
 20
10.670135
 30
0.0
 10
50.357021
 20
10.809167
 30
0.0
 10
50.237142
 20
10.999309
 30
0.0
 10
49.852302
 20
11.233816
 30
0.0
  0
SPLINE
  5
21f
100
AcDbEntity
  8
Camada_1
 62
7
100
AcDbSpline
 70
8
 71
3
 72
8
 73
4
 74
0
 40
0
 40
0
 40
0
 40
0
 40
1
 40
1
 40
1
 40
1
 10
49.852302
 20
11.233816
 30
0.0
 10
49.579693
 20
11.399917
 30
0.0
 10
49.316867
 20
11.507019
 30
0.0
 10
48.826503
 20
11.660379
 30
0.0
  0
SPLINE
  5
220
100
AcDbEntity
  8
Camada_1
 62
7
100
AcDbSpline
 70
8
 71
3
 72
8
 73
4
 74
0
 40
0
 40
0
 40
0
 40
0
 40
1
 40
1
 40
1
 40
1
 10
48.826503
 20
11.660379
 30
0.0
 10
48.406442
 20
11.791745
 30
0.0
 10
48.046200
 20
11.886832
 30
0.0
 10
47.732570
 20
11.964202
 30
0.0
  0
SPLINE
  5
221
100
AcDbEntity
  8
Camada_1
 62
7
100
AcDbSpline
 70
8
 71
3
 72
8
 73
4
 74
0
 40
0
 40
0
 40
0
 40
0
 40
1
 40
1
 40
1
 40
1
 10
47.732570
 20
11.964202
 30
0.0
 10
47.623993
 20
11.990996
 30
0.0
 10
47.170593
 20
12.102016
 30
0.0
 10
46.685729
 20
12.199866
 30
0.0
  0
SPLINE
  5
222
100
AcDbEntity
  8
Camada_1
 62
7
100
AcDbSpline
 70
8
 71
3
 72
8
 73
4
 74
0
 40
0
 40
0
 40
0
 40
0
 40
1
 40
1
 40
1
 40
1
 10
46.685729
 20
12.199866
 30
0.0
 10
45.968881
 20
12.344547
 30
0.0
 10
45.238659
 20
12.453880
 30
0.0
 10
44.687032
 20
12.527085
 30
0.0
  0
SPLINE
  5
223
100
AcDbEntity
  8
Camada_1
 62
7
100
AcDbSpline
 70
8
 71
3
 72
8
 73
4
 74
0
 40
0
 40
0
 40
0
 40
0
 40
1
 40
1
 40
1
 40
1
 10
44.687032
 20
12.527085
 30
0.0
 10
44.411219
 20
12.563693
 30
0.0
 10
44.180042
 20
12.591192
 30
0.0
 10
44.017728
 20
12.609634
 30
0.0
  0
SPLINE
  5
224
100
AcDbEntity
  8
Camada_1
 62
7
100
AcDbSpline
 70
8
 71
3
 72
8
 73
4
 74
0
 40
0
 40
0
 40
0
 40
0
 40
1
 40
1
 40
1
 40
1
 10
44.017728
 20
12.609634
 30
0.0
 10
43.855413
 20
12.628087
 30
0.0
 10
43.761428
 20
12.637420
 30
0.0
 10
43.761428
 20
12.637420
 30
0.0
  0
SPLINE
  5
225
100
AcDbEntity
  8
Camada_1
 62
7
100
AcDbSpline
 70
8
 71
3
 72
8
 73
4
 74
0
 40
0
 40
0
 40
0
 40
0
 40
1
 40
1
 40
1
 40
1
 10
43.761428
 20
12.637420
 30
0.0
 10
43.223440
 20
12.690996
 30
0.0
 10
42.032453
 20
12.799070
 30
0.0
 10
39.124389
 20
12.891280
 30
0.0
  0
SPLINE
  5
226
100
AcDbEntity
  8
Camada_1
 62
7
100
AcDbSpline
 70
8
 71
3
 72
8
 73
4
 74
0
 40
0
 40
0
 40
0
 40
0
 40
1
 40
1
 40
1
 40
1
 10
39.124389
 20
12.891280
 30
0.0
 10
37.691860
 20
12.936700
 30
0.0
 10
36.428588
 20
12.957721
 30
0.0
 10
33.903810
 20
13.000019
 30
0.0
  0
SPLINE
  5
227
100
AcDbEntity
  8
Camada_1
 62
7
100
AcDbSpline
 70
8
 71
3
 72
8
 73
4
 74
0
 40
0
 40
0
 40
0
 40
0
 40
1
 40
1
 40
1
 40
1
 10
33.903810
 20
13.000019
 30
0.0
 10
33.141377
 20
13.012802
 30
0.0
 10
32.522897
 20
13.022207
 30
0.0
 10
32.074044
 20
13.028808
 30
0.0
  0
SPLINE
  5
228
100
AcDbEntity
  8
Camada_1
 62
7
100
AcDbSpline
 70
8
 71
3
 72
8
 73
4
 74
0
 40
0
 40
0
 40
0
 40
0
 40
1
 40
1
 40
1
 40
1
 10
32.074044
 20
13.028808
 30
0.0
 10
31.776239
 20
13.438802
 30
0.0
 10
31.478306
 20
13.848918
 30
0.0
 10
31.180501
 20
14.258911
 30
0.0
  0
LWPOLYLINE
  5
229
100
AcDbEntity
  8
Camada_1
 62
7
100
AcDbPolyline
 90
3
 70
0
 10
48.839929
 20
11.798520
 30
0.0
 10
48.857763
 20
11.793301
 30
0.0
 10
48.876399
 20
11.793301
 30
0.0
  0
SPLINE
  5
22a
100
AcDbEntity
  8
Camada_1
 62
7
100
AcDbSpline
 70
8
 71
3
 72
8
 73
4
 74
0
 40
0
 40
0
 40
0
 40
0
 40
1
 40
1
 40
1
 40
1
 10
31.074095
 20
14.313081
 30
0.0
 10
29.663586
 20
14.321576
 30
0.0
 10
28.253162
 20
14.330142
 30
0.0
 10
26.842645
 20
14.338667
 30
0.0
  0
LWPOLYLINE
  5
22b
100
AcDbEntity
  8
Camada_1
 62
7
100
AcDbPolyline
 90
3
 70
0
 10
31.180501
 20
14.258911
 30
0.0
 10
31.141225
 20
14.313081
 30
0.0
 10
31.074095
 20
14.313081
 30
0.0
  0
LWPOLYLINE
  5
22c
100
AcDbEntity
  8
Camada_1
 62
7
100
AcDbPolyline
 90
7
 70
0
 10
26.842645
 20
14.338667
 30
0.0
 10
26.536448
 20
14.340509
 30
0.0
 10
28.305096
 20
12.438979
 30
0.0
 10
28.305096
 20
10.970602
 30
0.0
 10
28.290067
 20
10.970602
 30
0.0
 10
28.290067
 20
12.146341
 30
0.0
 10
26.141478
 20
14.359463
 30
0.0
  0
LWPOLYLINE
  5
22d
100
AcDbEntity
  8
Camada_1
 62
7
100
AcDbPolyline
 90
1
 70
1
 10
28.437512
 20
12.491562
 30
0.0
  0
SPLINE
  5
22e
100
AcDbEntity
  8
Camada_1
 62
7
100
AcDbSpline
 70
8
 71
3
 72
8
 73
4
 74
0
 40
0
 40
0
 40
0
 40
0
 40
1
 40
1
 40
1
 40
1
 10
24.311110
 20
10.116657
 30
0.0
 10
23.280587
 20
8.822856
 30
0.0
 10
22.250207
 20
7.528850
 30
0.0
 10
21.219683
 20
6.235049
 30
0.0
  0
LWPOLYLINE
  5
22f
100
AcDbEntity
  8
Camada_1
 62
7
100
AcDbPolyline
 90
2
 70
0
 10
24.350987
 20
10.166427
 30
0.0
 10
24.311110
 20
10.116657
 30
0.0
  0
SPLINE
  5
230
100
AcDbEntity
  8
Camada_1
 62
7
100
AcDbSpline
 70
8
 71
3
 72
8
 73
4
 74
0
 40
0
 40
0
 40
0
 40
0
 40
1
 40
1
 40
1
 40
1
 10
22.642657
 20
6.021757
 30
0.0
 10
22.915987
 20
6.345814
 30
0.0
 10
23.189326
 20
6.669963
 30
0.0
 10
23.462656
 20
6.994009
 30
0.0
  0
SPLINE
  5
231
100
AcDbEntity
  8
Camada_1
 62
7
100
AcDbSpline
 70
8
 71
3
 72
8
 73
4
 74
0
 40
0
 40
0
 40
0
 40
0
 40
1
 40
1
 40
1
 40
1
 10
23.462656
 20
6.994009
 30
0.0
 10
23.469674
 20
6.693583
 30
0.0
 10
23.476679
 20
6.393158
 30
0.0
 10
23.483697
 20
6.092721
 30
0.0
  0
LWPOLYLINE
  5
232
100
AcDbEntity
  8
Camada_1
 62
7
100
AcDbPolyline
 90
7
 70
0
 10
21.219683
 20
6.235049
 30
0.0
 10
21.150949
 20
6.235049
 30
0.0
 10
21.150949
 20
6.103130
 30
0.0
 10
21.150949
 20
5.724535
 30
0.0
 10
21.347532
 20
5.971200
 30
0.0
 10
22.602980
 20
5.974987
 30
0.0
 10
22.642657
 20
6.021757
 30
0.0
  0
SPLINE
  5
233
100
AcDbEntity
  8
Camada_1
 62
7
100
AcDbSpline
 70
8
 71
3
 72
8
 73
4
 74
0
 40
0
 40
0
 40
0
 40
0
 40
1
 40
1
 40
1
 40
1
 10
25.720659
 20
6.009364
 30
0.0
 10
26.007143
 20
6.340318
 30
0.0
 10
26.293652
 20
6.671263
 30
0.0
 10
26.580134
 20
7.002207
 30
0.0
  0
SPLINE
  5
234
100
AcDbEntity
  8
Camada_1
 62
7
100
AcDbSpline
 70
8
 71
3
 72
8
 73
4
 74
0
 40
0
 40
0
 40
0
 40
0
 40
1
 40
1
 40
1
 40
1
 10
26.580134
 20
7.002207
 30
0.0
 10
26.589317
 20
6.665337
 30
0.0
 10
26.598405
 20
6.328446
 30
0.0
 10
26.607588
 20
5.991577
 30
0.0
  0
LWPOLYLINE
  5
235
100
AcDbEntity
  8
Camada_1
 62
7
100
AcDbPolyline
 90
4
 70
0
 10
23.483697
 20
6.092721
 30
0.0
 10
23.486703
 20
5.963596
 30
0.0
 10
25.680981
 20
5.963596
 30
0.0
 10
25.720659
 20
6.009364
 30
0.0
  0
SPLINE
  5
236
100
AcDbEntity
  8
Camada_1
 62
7
100
AcDbSpline
 70
8
 71
3
 72
8
 73
4
 74
0
 40
0
 40
0
 40
0
 40
0
 40
1
 40
1
 40
1
 40
1
 10
29.056566
 20
5.943609
 30
0.0
 10
29.137435
 20
6.133474
 30
0.0
 10
29.218372
 20
6.323207
 30
0.0
 10
29.299240
 20
6.513082
 30
0.0
  0
LWPOLYLINE
  5
237
100
AcDbEntity
  8
Camada_1
 62
7
100
AcDbPolyline
 90
4
 70
0
 10
26.607588
 20
5.991577
 30
0.0
 10
26.611199
 20
5.863055
 30
0.0
 10
29.022300
 20
5.863055
 30
0.0
 10
29.056566
 20
5.943609
 30
0.0
  0
LWPOLYLINE
  5
238
100
AcDbEntity
  8
Camada_1
 62
7
100
AcDbPolyline
 90
8
 70
0
 10
29.299240
 20
6.513082
 30
0.0
 10
29.377392
 20
6.696981
 30
0.0
 10
28.922706
 20
6.696981
 30
0.0
 10
28.952563
 20
10.107058
 30
0.0
 10
27.572473
 20
10.107058
 30
0.0
 10
25.961132
 20
7.920688
 30
0.0
 10
25.961132
 20
10.166621
 30
0.0
 10
24.350987
 20
10.166427
 30
0.0
  0
SPLINE
  5
239
100
AcDbEntity
  8
Camada_1
 62
7
100
AcDbSpline
 70
8
 71
3
 72
8
 73
4
 74
0
 40
0
 40
0
 40
0
 40
0
 40
1
 40
1
 40
1
 40
1
 10
28.977006
 20
6.432539
 30
0.0
 10
28.933641
 20
6.330718
 30
0.0
 10
28.890319
 20
6.228929
 30
0.0
 10
28.846952
 20
6.127108
 30
0.0
  0
LWPOLYLINE
  5
23a
100
AcDbEntity
  8
Camada_1
 62
7
100
AcDbPolyline
 90
7
 70
0
 10
24.478636
 20
9.902179
 30
0.0
 10
25.696210
 20
9.902179
 30
0.0
 10
25.696210
 20
7.114947
 30
0.0
 10
27.706529
 20
9.842615
 30
0.0
 10
28.685237
 20
9.842615
 30
0.0
 10
28.655579
 20
6.432539
 30
0.0
 10
28.977006
 20
6.432539
 30
0.0
  0
SPLINE
  5
23b
100
AcDbEntity
  8
Camada_1
 62
7
100
AcDbSpline
 70
8
 71
3
 72
8
 73
4
 74
0
 40
0
 40
0
 40
0
 40
0
 40
1
 40
1
 40
1
 40
1
 10
26.869097
 20
6.127108
 30
0.0
 10
26.857985
 20
6.534738
 30
0.0
 10
26.846743
 20
6.942378
 30
0.0
 10
26.835632
 20
7.350017
 30
0.0
  0
LWPOLYLINE
  5
23c
100
AcDbEntity
  8
Camada_1
 62
7
100
AcDbPolyline
 90
2
 70
0
 10
28.846952
 20
6.127108
 30
0.0
 10
26.869097
 20
6.127108
 30
0.0
  0
SPLINE
  5
23d
100
AcDbEntity
  8
Camada_1
 62
7
100
AcDbSpline
 70
8
 71
3
 72
8
 73
4
 74
0
 40
0
 40
0
 40
0
 40
0
 40
1
 40
1
 40
1
 40
1
 10
26.602983
 20
7.432771
 30
0.0
 10
26.255248
 20
7.031067
 30
0.0
 10
25.907485
 20
6.629353
 30
0.0
 10
25.559749
 20
6.227650
 30
0.0
  0
LWPOLYLINE
  5
23e
100
AcDbEntity
  8
Camada_1
 62
7
100
AcDbPolyline
 90
3
 70
0
 10
26.835632
 20
7.350017
 30
0.0
 10
26.826418
 20
7.690827
 30
0.0
 10
26.602983
 20
7.432771
 30
0.0
  0
SPLINE
  5
23f
100
AcDbEntity
  8
Camada_1
 62
7
100
AcDbSpline
 70
8
 71
3
 72
8
 73
4
 74
0
 40
0
 40
0
 40
0
 40
0
 40
1
 40
1
 40
1
 40
1
 10
23.745612
 20
6.227650
 30
0.0
 10
23.736881
 20
6.601578
 30
0.0
 10
23.728093
 20
6.975496
 30
0.0
 10
23.719361
 20
7.349424
 30
0.0
  0
LWPOLYLINE
  5
240
100
AcDbEntity
  8
Camada_1
 62
7
100
AcDbPolyline
 90
2
 70
0
 10
25.559749
 20
6.227650
 30
0.0
 10
23.745612
 20
6.227650
 30
0.0
  0
SPLINE
  5
241
100
AcDbEntity
  8
Camada_1
 62
7
100
AcDbSpline
 70
8
 71
3
 72
8
 73
4
 74
0
 40
0
 40
0
 40
0
 40
0
 40
1
 40
1
 40
1
 40
1
 10
23.485503
 20
7.431574
 30
0.0
 10
23.150158
 20
7.033994
 30
0.0
 10
22.814888
 20
6.636221
 30
0.0
 10
22.479543
 20
6.238641
 30
0.0
  0
LWPOLYLINE
  5
242
100
AcDbEntity
  8
Camada_1
 62
7
100
AcDbPolyline
 90
3
 70
0
 10
23.719361
 20
7.349424
 30
0.0
 10
23.711143
 20
7.699025
 30
0.0
 10
23.485503
 20
7.431574
 30
0.0
  0
SPLINE
  5
243
100
AcDbEntity
  8
Camada_1
 62
7
100
AcDbSpline
 70
8
 71
3
 72
8
 73
4
 74
0
 40
0
 40
0
 40
0
 40
0
 40
1
 40
1
 40
1
 40
1
 10
21.558747
 20
6.236083
 30
0.0
 10
22.532105
 20
7.458121
 30
0.0
 10
23.505283
 20
8.680191
 30
0.0
 10
24.478639
 20
9.902220
 30
0.0
  0
LWPOLYLINE
  5
244
100
AcDbEntity
  8
Camada_1
 62
7
100
AcDbPolyline
 90
2
 70
0
 10
22.479543
 20
6.238641
 30
0.0
 10
21.558747
 20
6.236083
 30
0.0
  0
LWPOLYLINE
  5
245
100
AcDbEntity
  8
Camada_1
 62
7
100
AcDbPolyline
 90
1
 70
1
 10
24.478639
 20
9.902220
 30
0.0
  0
LWPOLYLINE
  5
246
100
AcDbEntity
  8
Camada_1
 62
7
100
AcDbPolyline
 90
1
 70
1
 10
21.283455
 20
6.103017
 30
0.0
  0
LWPOLYLINE
  5
247
100
AcDbEntity
  8
Camada_1
 62
7
100
AcDbPolyline
 90
5
 70
1
 10
30.661490
 20
8.975305
 30
0.0
 10
29.315466
 20
5.862861
 30
0.0
 10
31.512750
 20
5.862861
 30
0.0
 10
32.662991
 20
8.975305
 30
0.0
 10
32.472821
 20
8.975305
 30
0.0
  0
LWPOLYLINE
  5
248
100
AcDbEntity
  8
Camada_1
 62
7
100
AcDbPolyline
 90
4
 70
1
 10
30.835630
 20
8.711047
 30
0.0
 10
32.282851
 20
8.711047
 30
0.0
 10
31.327989
 20
6.127108
 30
0.0
 10
29.718251
 20
6.127108
 30
0.0
  0
LWPOLYLINE
  5
249
100
AcDbEntity
  8
Camada_1
 62
7
100
AcDbPolyline
 90
4
 70
1
 10
32.472905
 20
8.843089
 30
0.0
 10
31.420395
 20
5.995056
 30
0.0
 10
29.516920
 20
5.995056
 30
0.0
 10
30.748581
 20
8.843089
 30
0.0
  0
SPLINE
  5
24a
100
AcDbEntity
  8
Camada_1
 62
7
100
AcDbSpline
 70
8
 71
3
 72
8
 73
4
 74
0
 40
0
 40
0
 40
0
 40
0
 40
1
 40
1
 40
1
 40
1
 10
30.633235
 20
10.088472
 30
0.0
 10
30.547390
 20
9.812977
 30
0.0
 10
30.461577
 20
9.537431
 30
0.0
 10
30.375732
 20
9.261946
 30
0.0
  0
LWPOLYLINE
  5
24b
100
AcDbEntity
  8
Camada_1
 62
7
100
AcDbPolyline
 90
2
 70
0
 10
30.662291
 20
10.181624
 30
0.0
 10
30.633235
 20
10.088472
 30
0.0
  0
SPLINE
  5
24c
100
AcDbEntity
  8
Camada_1
 62
7
100
AcDbSpline
 70
8
 71
3
 72
8
 73
4
 74
0
 40
0
 40
0
 40
0
 40
0
 40
1
 40
1
 40
1
 40
1
 10
30.501377
 20
9.090604
 30
0.0
 10
31.064941
 20
9.086920
 30
0.0
 10
31.628480
 20
9.083133
 30
0.0
 10
32.192074
 20
9.079408
 30
0.0
  0
LWPOLYLINE
  5
24d
100
AcDbEntity
  8
Camada_1
 62
7
100
AcDbPolyline
 90
3
 70
0
 10
30.375732
 20
9.261946
 30
0.0
 10
30.322830
 20
9.091832
 30
0.0
 10
30.501377
 20
9.090604
 30
0.0
  0
SPLINE
  5
24e
100
AcDbEntity
  8
Camada_1
 62
7
100
AcDbSpline
 70
8
 71
3
 72
8
 73
4
 74
0
 40
0
 40
0
 40
0
 40
0
 40
1
 40
1
 40
1
 40
1
 10
32.194126
 20
9.079408
 30
0.0
 10
32.462875
 20
9.081455
 30
0.0
 10
32.831107
 20
9.082580
 30
0.0
 10
33.311905
 20
9.079408
 30
0.0
  0
SPLINE
  5
24f
100
AcDbEntity
  8
Camada_1
 62
7
100
AcDbSpline
 70
8
 71
3
 72
8
 73
4
 74
0
 40
0
 40
0
 40
0
 40
0
 40
1
 40
1
 40
1
 40
1
 10
33.311905
 20
9.079408
 30
0.0
 10
33.435074
 20
9.078384
 30
0.0
 10
33.548237
 20
9.076031
 30
0.0
 10
33.634133
 20
9.058622
 30
0.0
  0
SPLINE
  5
250
100
AcDbEntity
  8
Camada_1
 62
7
100
AcDbSpline
 70
8
 71
3
 72
8
 73
4
 74
0
 40
0
 40
0
 40
0
 40
0
 40
1
 40
1
 40
1
 40
1
 10
33.634133
 20
9.058622
 30
0.0
 10
33.720030
 20
9.041255
 30
0.0
 10
33.771912
 20
9.014267
 30
0.0
 10
33.807271
 20
8.967875
 30
0.0
  0
SPLINE
  5
251
100
AcDbEntity
  8
Camada_1
 62
7
100
AcDbSpline
 70
8
 71
3
 72
8
 73
4
 74
0
 40
0
 40
0
 40
0
 40
0
 40
1
 40
1
 40
1
 40
1
 10
33.807271
 20
8.967875
 30
0.0
 10
33.854947
 20
8.905334
 30
0.0
 10
33.867296
 20
8.786535
 30
0.0
 10
33.867789
 20
8.761389
 30
0.0
  0
SPLINE
  5
252
100
AcDbEntity
  8
Camada_1
 62
7
100
AcDbSpline
 70
8
 71
3
 72
8
 73
4
 74
0
 40
0
 40
0
 40
0
 40
0
 40
1
 40
1
 40
1
 40
1
 10
33.867789
 20
8.761389
 30
0.0
 10
33.868927
 20
8.703464
 30
0.0
 10
33.858729
 20
8.595390
 30
0.0
 10
33.816087
 20
8.553911
 30
0.0
  0
SPLINE
  5
253
100
AcDbEntity
  8
Camada_1
 62
7
100
AcDbSpline
 70
8
 71
3
 72
8
 73
4
 74
0
 40
0
 40
0
 40
0
 40
0
 40
1
 40
1
 40
1
 40
1
 10
33.816087
 20
8.553911
 30
0.0
 10
33.798555
 20
8.536850
 30
0.0
 10
33.793899
 20
8.533166
 30
0.0
 10
33.741142
 20
8.527721
 30
0.0
  0
SPLINE
  5
254
100
AcDbEntity
  8
Camada_1
 62
7
100
AcDbSpline
 70
8
 71
3
 72
8
 73
4
 74
0
 40
0
 40
0
 40
0
 40
0
 40
1
 40
1
 40
1
 40
1
 10
33.741142
 20
8.527721
 30
0.0
 10
33.688384
 20
8.522297
 30
0.0
 10
33.596985
 20
8.524549
 30
0.0
 10
33.461997
 20
8.528745
 30
0.0
  0
SPLINE
  5
255
100
AcDbEntity
  8
Camada_1
 62
7
100
AcDbSpline
 70
8
 71
3
 72
8
 73
4
 74
0
 40
0
 40
0
 40
0
 40
0
 40
1
 40
1
 40
1
 40
1
 10
33.461997
 20
8.528745
 30
0.0
 10
33.339701
 20
8.532122
 30
0.0
 10
33.146315
 20
8.536830
 30
0.0
 10
32.900102
 20
8.539941
 30
0.0
  0
LWPOLYLINE
  5
256
100
AcDbEntity
  8
Camada_1
 62
7
100
AcDbPolyline
 90
3
 70
0
 10
32.192074
 20
9.079408
 30
0.0
 10
32.193100
 20
9.079408
 30
0.0
 10
32.194126
 20
9.079408
 30
0.0
  0
SPLINE
  5
257
100
AcDbEntity
  8
Camada_1
 62
7
100
AcDbSpline
 70
8
 71
3
 72
8
 73
4
 74
0
 40
0
 40
0
 40
0
 40
0
 40
1
 40
1
 40
1
 40
1
 10
32.775459
 20
8.456982
 30
0.0
 10
32.685883
 20
8.233610
 30
0.0
 10
32.596311
 20
8.010135
 30
0.0
 10
32.506736
 20
7.786763
 30
0.0
  0
LWPOLYLINE
  5
258
100
AcDbEntity
  8
Camada_1
 62
7
100
AcDbPolyline
 90
3
 70
0
 10
32.900102
 20
8.539941
 30
0.0
 10
33.030957
 20
8.407807
 30
0.0
 10
32.775459
 20
8.456982
 30
0.0
  0
SPLINE
  5
259
100
AcDbEntity
  8
Camada_1
 62
7
100
AcDbSpline
 70
8
 71
3
 72
8
 73
4
 74
0
 40
0
 40
0
 40
0
 40
0
 40
1
 40
1
 40
1
 40
1
 10
32.625567
 20
7.605627
 30
0.0
 10
32.661930
 20
7.604502
 30
0.0
 10
32.748692
 20
7.603069
 30
0.0
 10
32.872849
 20
7.599999
 30
0.0
  0
SPLINE
  5
25a
100
AcDbEntity
  8
Camada_1
 62
7
100
AcDbSpline
 70
8
 71
3
 72
8
 73
4
 74
0
 40
0
 40
0
 40
0
 40
0
 40
1
 40
1
 40
1
 40
1
 10
32.872849
 20
7.599999
 30
0.0
 10
33.001331
 20
7.596928
 30
0.0
 10
33.045639
 20
7.594370
 30
0.0
 10
33.088470
 20
7.576603
 30
0.0
  0
LWPOLYLINE
  5
25b
100
AcDbEntity
  8
Camada_1
 62
7
100
AcDbPolyline
 90
3
 70
0
 10
32.506736
 20
7.786763
 30
0.0
 10
32.436398
 20
7.611461
 30
0.0
 10
32.625567
 20
7.605627
 30
0.0
  0
SPLINE
  5
25c
100
AcDbEntity
  8
Camada_1
 62
7
100
AcDbSpline
 70
8
 71
3
 72
8
 73
4
 74
0
 40
0
 40
0
 40
0
 40
0
 40
1
 40
1
 40
1
 40
1
 10
33.088470
 20
7.576603
 30
0.0
 10
33.114634
 20
7.565786
 30
0.0
 10
33.155706
 20
7.540538
 30
0.0
 10
33.157403
 20
7.538624
 30
0.0
  0
SPLINE
  5
25d
100
AcDbEntity
  8
Camada_1
 62
7
100
AcDbSpline
 70
8
 71
3
 72
8
 73
4
 74
0
 40
0
 40
0
 40
0
 40
0
 40
1
 40
1
 40
1
 40
1
 10
33.157403
 20
7.538624
 30
0.0
 10
33.160184
 20
7.535349
 30
0.0
 10
33.172535
 20
7.478385
 30
0.0
 10
33.151596
 20
7.395908
 30
0.0
  0
SPLINE
  5
25e
100
AcDbEntity
  8
Camada_1
 62
7
100
AcDbSpline
 70
8
 71
3
 72
8
 73
4
 74
0
 40
0
 40
0
 40
0
 40
0
 40
1
 40
1
 40
1
 40
1
 10
33.151596
 20
7.395908
 30
0.0
 10
33.130625
 20
7.313307
 30
0.0
 10
33.090701
 20
7.225395
 30
0.0
 10
33.069236
 20
7.178829
 30
0.0
  0
SPLINE
  5
25f
100
AcDbEntity
  8
Camada_1
 62
7
100
AcDbSpline
 70
8
 71
3
 72
8
 73
4
 74
0
 40
0
 40
0
 40
0
 40
0
 40
1
 40
1
 40
1
 40
1
 10
33.069236
 20
7.178829
 30
0.0
 10
32.918023
 20
6.850822
 30
0.0
 10
32.743344
 20
6.446478
 30
0.0
 10
32.530185
 20
5.946720
 30
0.0
  0
LWPOLYLINE
  5
260
100
AcDbEntity
  8
Camada_1
 62
7
100
AcDbPolyline
 90
1
 70
1
 10
33.088470
 20
7.576603
 30
0.0
  0
SPLINE
  5
261
100
AcDbEntity
  8
Camada_1
 62
7
100
AcDbSpline
 70
8
 71
3
 72
8
 73
4
 74
0
 40
0
 40
0
 40
0
 40
0
 40
1
 40
1
 40
1
 40
1
 10
32.651221
 20
5.762800
 30
0.0
 10
33.263302
 20
5.759116
 30
0.0
 10
33.875494
 20
5.755330
 30
0.0
 10
34.487601
 20
5.751614
 30
0.0
  0
LWPOLYLINE
  5
262
100
AcDbEntity
  8
Camada_1
 62
7
100
AcDbPolyline
 90
3
 70
0
 10
32.530185
 20
5.946720
 30
0.0
 10
32.452234
 20
5.764029
 30
0.0
 10
32.651221
 20
5.762800
 30
0.0
  0
SPLINE
  5
263
100
AcDbEntity
  8
Camada_1
 62
7
100
AcDbSpline
 70
8
 71
3
 72
8
 73
4
 74
0
 40
0
 40
0
 40
0
 40
0
 40
1
 40
1
 40
1
 40
1
 10
34.606233
 20
5.823970
 30
0.0
 10
35.012740
 20
6.616601
 30
0.0
 10
35.408095
 20
7.492590
 30
0.0
 10
35.765893
 20
8.451691
 30
0.0
  0
SPLINE
  5
264
100
AcDbEntity
  8
Camada_1
 62
7
100
AcDbSpline
 70
8
 71
3
 72
8
 73
4
 74
0
 40
0
 40
0
 40
0
 40
0
 40
1
 40
1
 40
1
 40
1
 10
35.765893
 20
8.451691
 30
0.0
 10
35.883770
 20
8.767673
 30
0.0
 10
35.992298
 20
9.078436
 30
0.0
 10
36.092329
 20
9.383559
 30
0.0
  0
LWPOLYLINE
  5
265
100
AcDbEntity
  8
Camada_1
 62
7
100
AcDbPolyline
 90
3
 70
0
 10
34.487601
 20
5.751614
 30
0.0
 10
34.569160
 20
5.751614
 30
0.0
 10
34.606233
 20
5.823970
 30
0.0
  0
SPLINE
  5
266
100
AcDbEntity
  8
Camada_1
 62
7
100
AcDbSpline
 70
8
 71
3
 72
8
 73
4
 74
0
 40
0
 40
0
 40
0
 40
0
 40
1
 40
1
 40
1
 40
1
 10
36.096936
 20
9.401981
 30
0.0
 10
36.109680
 20
9.474859
 30
0.0
 10
36.119989
 20
9.600126
 30
0.0
 10
36.068080
 20
9.738994
 30
0.0
  0
SPLINE
  5
267
100
AcDbEntity
  8
Camada_1
 62
7
100
AcDbSpline
 70
8
 71
3
 72
8
 73
4
 74
0
 40
0
 40
0
 40
0
 40
0
 40
1
 40
1
 40
1
 40
1
 10
36.068080
 20
9.738994
 30
0.0
 10
35.938469
 20
10.085740
 30
0.0
 10
35.577240
 20
10.159447
 30
0.0
 10
35.534240
 20
10.168351
 30
0.0
  0
LWPOLYLINE
  5
268
100
AcDbEntity
  8
Camada_1
 62
7
100
AcDbPolyline
 90
3
 70
0
 10
36.092329
 20
9.383559
 30
0.0
 10
36.095335
 20
9.392770
 30
0.0
 10
36.096936
 20
9.401981
 30
0.0
  0
SPLINE
  5
269
100
AcDbEntity
  8
Camada_1
 62
7
100
AcDbSpline
 70
8
 71
3
 72
8
 73
4
 74
0
 40
0
 40
0
 40
0
 40
0
 40
1
 40
1
 40
1
 40
1
 10
35.507587
 20
10.171114
 30
0.0
 10
33.925096
 20
10.174798
 30
0.0
 10
32.342634
 20
10.178585
 30
0.0
 10
30.760132
 20
10.182300
 30
0.0
  0
LWPOLYLINE
  5
26a
100
AcDbEntity
  8
Camada_1
 62
7
100
AcDbPolyline
 90
3
 70
0
 10
35.534240
 20
10.168351
 30
0.0
 10
35.521013
 20
10.171114
 30
0.0
 10
35.507587
 20
10.171114
 30
0.0
  0
SPLINE
  5
26b
100
AcDbEntity
  8
Camada_1
 62
7
100
AcDbSpline
 70
8
 71
3
 72
8
 73
4
 74
0
 40
0
 40
0
 40
0
 40
0
 40
1
 40
1
 40
1
 40
1
 10
30.857271
 20
9.916967
 30
0.0
 10
32.400554
 20
9.913385
 30
0.0
 10
33.943805
 20
9.909598
 30
0.0
 10
35.487097
 20
9.905976
 30
0.0
  0
SPLINE
  5
26c
100
AcDbEntity
  8
Camada_1
 62
7
100
AcDbSpline
 70
8
 71
3
 72
8
 73
4
 74
0
 40
0
 40
0
 40
0
 40
0
 40
1
 40
1
 40
1
 40
1
 10
35.487097
 20
9.905976
 30
0.0
 10
35.509068
 20
9.900858
 30
0.0
 10
35.747971
 20
9.837744
 30
0.0
 10
35.819746
 20
9.645729
 30
0.0
  0
SPLINE
  5
26d
100
AcDbEntity
  8
Camada_1
 62
7
100
AcDbSpline
 70
8
 71
3
 72
8
 73
4
 74
0
 40
0
 40
0
 40
0
 40
0
 40
1
 40
1
 40
1
 40
1
 10
35.819746
 20
9.645729
 30
0.0
 10
35.848558
 20
9.568645
 30
0.0
 10
35.843091
 20
9.496627
 30
0.0
 10
35.835377
 20
9.450634
 30
0.0
  0
SPLINE
  5
26e
100
AcDbEntity
  8
Camada_1
 62
7
100
AcDbSpline
 70
8
 71
3
 72
8
 73
4
 74
0
 40
0
 40
0
 40
0
 40
0
 40
1
 40
1
 40
1
 40
1
 10
35.835377
 20
9.450634
 30
0.0
 10
35.737689
 20
9.153268
 30
0.0
 10
35.632369
 20
8.850714
 30
0.0
 10
35.517557
 20
8.542950
 30
0.0
  0
SPLINE
  5
26f
100
AcDbEntity
  8
Camada_1
 62
7
100
AcDbSpline
 70
8
 71
3
 72
8
 73
4
 74
0
 40
0
 40
0
 40
0
 40
0
 40
1
 40
1
 40
1
 40
1
 10
35.517557
 20
8.542950
 30
0.0
 10
35.173981
 20
7.621982
 30
0.0
 10
34.794918
 20
6.781854
 30
0.0
 10
34.405188
 20
6.015975
 30
0.0
  0
SPLINE
  5
270
100
AcDbEntity
  8
Camada_1
 62
7
100
AcDbSpline
 70
8
 71
3
 72
8
 73
4
 74
0
 40
0
 40
0
 40
0
 40
0
 40
1
 40
1
 40
1
 40
1
 10
34.405188
 20
6.015975
 30
0.0
 10
33.888148
 20
6.019148
 30
0.0
 10
33.371023
 20
6.022218
 30
0.0
 10
32.853964
 20
6.025390
 30
0.0
  0
SPLINE
  5
271
100
AcDbEntity
  8
Camada_1
 62
7
100
AcDbSpline
 70
8
 71
3
 72
8
 73
4
 74
0
 40
0
 40
0
 40
0
 40
0
 40
1
 40
1
 40
1
 40
1
 10
32.853964
 20
6.025390
 30
0.0
 10
33.025499
 20
6.425928
 30
0.0
 10
33.183050
 20
6.792743
 30
0.0
 10
33.309853
 20
7.067798
 30
0.0
  0
SPLINE
  5
272
100
AcDbEntity
  8
Camada_1
 62
7
100
AcDbSpline
 70
8
 71
3
 72
8
 73
4
 74
0
 40
0
 40
0
 40
0
 40
0
 40
1
 40
1
 40
1
 40
1
 10
33.309853
 20
7.067798
 30
0.0
 10
33.331002
 20
7.113678
 30
0.0
 10
33.379083
 20
7.215591
 30
0.0
 10
33.408245
 20
7.330449
 30
0.0
  0
SPLINE
  5
273
100
AcDbEntity
  8
Camada_1
 62
7
100
AcDbSpline
 70
8
 71
3
 72
8
 73
4
 74
0
 40
0
 40
0
 40
0
 40
0
 40
1
 40
1
 40
1
 40
1
 10
33.408245
 20
7.330449
 30
0.0
 10
33.437407
 20
7.445308
 30
0.0
 10
33.461973
 20
7.593213
 30
0.0
 10
33.355943
 20
7.713036
 30
0.0
  0
SPLINE
  5
274
100
AcDbEntity
  8
Camada_1
 62
7
100
AcDbSpline
 70
8
 71
3
 72
8
 73
4
 74
0
 40
0
 40
0
 40
0
 40
0
 40
1
 40
1
 40
1
 40
1
 10
33.355943
 20
7.713036
 30
0.0
 10
33.290627
 20
7.786824
 30
0.0
 10
33.215885
 20
7.809596
 30
0.0
 10
33.189819
 20
7.820372
 30
0.0
  0
SPLINE
  5
275
100
AcDbEntity
  8
Camada_1
 62
7
100
AcDbSpline
 70
8
 71
3
 72
8
 73
4
 74
0
 40
0
 40
0
 40
0
 40
0
 40
1
 40
1
 40
1
 40
1
 10
33.189819
 20
7.820372
 30
0.0
 10
33.095830
 20
7.859242
 30
0.0
 10
33.008493
 20
7.860869
 30
0.0
 10
32.879214
 20
7.863950
 30
0.0
  0
SPLINE
  5
276
100
AcDbEntity
  8
Camada_1
 62
7
100
AcDbSpline
 70
8
 71
3
 72
8
 73
4
 74
0
 40
0
 40
0
 40
0
 40
0
 40
1
 40
1
 40
1
 40
1
 10
32.879214
 20
7.863950
 30
0.0
 10
32.850829
 20
7.864973
 30
0.0
 10
32.848019
 20
7.864973
 30
0.0
 10
32.823505
 20
7.865178
 30
0.0
  0
SPLINE
  5
277
100
AcDbEntity
  8
Camada_1
 62
7
100
AcDbSpline
 70
8
 71
3
 72
8
 73
4
 74
0
 40
0
 40
0
 40
0
 40
0
 40
1
 40
1
 40
1
 40
1
 10
32.823505
 20
7.865178
 30
0.0
 10
32.878083
 20
8.001283
 30
0.0
 10
32.932646
 20
8.137449
 30
0.0
 10
32.987224
 20
8.273544
 30
0.0
  0
SPLINE
  5
278
100
AcDbEntity
  8
Camada_1
 62
7
100
AcDbSpline
 70
8
 71
3
 72
8
 73
4
 74
0
 40
0
 40
0
 40
0
 40
0
 40
1
 40
1
 40
1
 40
1
 10
32.987224
 20
8.273544
 30
0.0
 10
33.177359
 20
8.270576
 30
0.0
 10
33.352862
 20
8.267199
 30
0.0
 10
33.454535
 20
8.264333
 30
0.0
  0
SPLINE
  5
279
100
AcDbEntity
  8
Camada_1
 62
7
100
AcDbSpline
 70
8
 71
3
 72
8
 73
4
 74
0
 40
0
 40
0
 40
0
 40
0
 40
1
 40
1
 40
1
 40
1
 10
33.454535
 20
8.264333
 30
0.0
 10
33.588479
 20
8.260547
 30
0.0
 10
33.682893
 20
8.256146
 30
0.0
 10
33.768347
 20
8.265357
 30
0.0
  0
SPLINE
  5
27a
100
AcDbEntity
  8
Camada_1
 62
7
100
AcDbSpline
 70
8
 71
3
 72
8
 73
4
 74
0
 40
0
 40
0
 40
0
 40
0
 40
1
 40
1
 40
1
 40
1
 10
33.768347
 20
8.265357
 30
0.0
 10
33.853800
 20
8.274158
 30
0.0
 10
33.939803
 20
8.305751
 30
0.0
 10
34.001000
 20
8.365294
 30
0.0
  0
SPLINE
  5
27b
100
AcDbEntity
  8
Camada_1
 62
7
100
AcDbSpline
 70
8
 71
3
 72
8
 73
4
 74
0
 40
0
 40
0
 40
0
 40
0
 40
1
 40
1
 40
1
 40
1
 10
34.001000
 20
8.365294
 30
0.0
 10
34.149860
 20
8.510119
 30
0.0
 10
34.133595
 20
8.709103
 30
0.0
 10
34.132457
 20
8.767069
 30
0.0
  0
SPLINE
  5
27c
100
AcDbEntity
  8
Camada_1
 62
7
100
AcDbSpline
 70
8
 71
3
 72
8
 73
4
 74
0
 40
0
 40
0
 40
0
 40
0
 40
1
 40
1
 40
1
 40
1
 10
34.132457
 20
8.767069
 30
0.0
 10
34.131636
 20
8.808845
 30
0.0
 10
34.132046
 20
8.978938
 30
0.0
 10
34.018033
 20
9.128471
 30
0.0
  0
SPLINE
  5
27d
100
AcDbEntity
  8
Camada_1
 62
7
100
AcDbSpline
 70
8
 71
3
 72
8
 73
4
 74
0
 40
0
 40
0
 40
0
 40
0
 40
1
 40
1
 40
1
 40
1
 10
34.018033
 20
9.128471
 30
0.0
 10
33.933500
 20
9.239379
 30
0.0
 10
33.809017
 20
9.293436
 30
0.0
 10
33.686788
 20
9.318162
 30
0.0
  0
SPLINE
  5
27e
100
AcDbEntity
  8
Camada_1
 62
7
100
AcDbSpline
 70
8
 71
3
 72
8
 73
4
 74
0
 40
0
 40
0
 40
0
 40
0
 40
1
 40
1
 40
1
 40
1
 10
33.686788
 20
9.318162
 30
0.0
 10
33.564558
 20
9.342878
 30
0.0
 10
33.437763
 20
9.343318
 30
0.0
 10
33.313460
 20
9.344147
 30
0.0
  0
SPLINE
  5
27f
100
AcDbEntity
  8
Camada_1
 62
7
100
AcDbSpline
 70
8
 71
3
 72
8
 73
4
 74
0
 40
0
 40
0
 40
0
 40
0
 40
1
 40
1
 40
1
 40
1
 10
33.313460
 20
9.344147
 30
0.0
 10
32.832130
 20
9.347320
 30
0.0
 10
32.463617
 20
9.346194
 30
0.0
 10
32.193877
 20
9.344147
 30
0.0
  0
LWPOLYLINE
  5
280
100
AcDbEntity
  8
Camada_1
 62
7
100
AcDbPolyline
 90
2
 70
0
 10
30.760132
 20
10.182300
 30
0.0
 10
30.662291
 20
10.181624
 30
0.0
  0
SPLINE
  5
281
100
AcDbEntity
  8
Camada_1
 62
7
100
AcDbSpline
 70
8
 71
3
 72
8
 73
4
 74
0
 40
0
 40
0
 40
0
 40
0
 40
1
 40
1
 40
1
 40
1
 10
32.192072
 20
9.344147
 30
0.0
 10
31.688624
 20
9.347422
 30
0.0
 10
31.185199
 20
9.350799
 30
0.0
 10
30.681728
 20
9.354177
 30
0.0
  0
SPLINE
  5
282
100
AcDbEntity
  8
Camada_1
 62
7
100
AcDbSpline
 70
8
 71
3
 72
8
 73
4
 74
0
 40
0
 40
0
 40
0
 40
0
 40
1
 40
1
 40
1
 40
1
 10
30.681728
 20
9.354177
 30
0.0
 10
30.740231
 20
9.541934
 30
0.0
 10
30.798766
 20
9.729711
 30
0.0
 10
30.857269
 20
9.917458
 30
0.0
  0
LWPOLYLINE
  5
283
100
AcDbEntity
  8
Camada_1
 62
7
100
AcDbPolyline
 90
2
 70
0
 10
32.193877
 20
9.344147
 30
0.0
 10
32.192072
 20
9.344147
 30
0.0
  0
LWPOLYLINE
  5
284
100
AcDbEntity
  8
Camada_1
 62
7
100
AcDbPolyline
 90
2
 70
0
 10
30.857269
 20
9.917458
 30
0.0
 10
30.857271
 20
9.916967
 30
0.0
  0
LWPOLYLINE
  5
285
100
AcDbEntity
  8
Camada_1
 62
7
100
AcDbPolyline
 90
1
 70
1
 10
32.898390
 20
8.407510
 30
0.0
  0
SPLINE
  5
286
100
AcDbEntity
  8
Camada_1
 62
7
100
AcDbSpline
 70
8
 71
3
 72
8
 73
4
 74
0
 40
0
 40
0
 40
0
 40
0
 40
1
 40
1
 40
1
 40
1
 10
42.148484
 20
8.880158
 30
0.0
 10
41.744734
 20
7.937298
 30
0.0
 10
41.340872
 20
6.994408
 30
0.0
 10
40.937122
 20
6.051549
 30
0.0
  0
LWPOLYLINE
  5
287
100
AcDbEntity
  8
Camada_1
 62
7
100
AcDbPolyline
 90
2
 70
0
 10
42.182750
 20
8.960312
 30
0.0
 10
42.148484
 20
8.880158
 30
0.0
  0
SPLINE
  5
288
100
AcDbEntity
  8
Camada_1
 62
7
100
AcDbSpline
 70
8
 71
3
 72
8
 73
4
 74
0
 40
0
 40
0
 40
0
 40
0
 40
1
 40
1
 40
1
 40
1
 10
41.057758
 20
5.867415
 30
0.0
 10
41.687701
 20
5.861888
 30
0.0
 10
42.317687
 20
5.856352
 30
0.0
 10
42.947642
 20
5.850825
 30
0.0
  0
LWPOLYLINE
  5
289
100
AcDbEntity
  8
Camada_1
 62
7
100
AcDbPolyline
 90
3
 70
0
 10
40.937122
 20
6.051549
 30
0.0
 10
40.859170
 20
5.869257
 30
0.0
 10
41.057758
 20
5.867415
 30
0.0
  0
SPLINE
  5
28a
100
AcDbEntity
  8
Camada_1
 62
7
100
AcDbSpline
 70
8
 71
3
 72
8
 73
4
 74
0
 40
0
 40
0
 40
0
 40
0
 40
1
 40
1
 40
1
 40
1
 10
43.073287
 20
5.937550
 30
0.0
 10
43.419372
 20
6.885956
 30
0.0
 10
43.765425
 20
7.834342
 30
0.0
 10
44.111511
 20
8.782748
 30
0.0
  0
LWPOLYLINE
  5
28b
100
AcDbEntity
  8
Camada_1
 62
7
100
AcDbPolyline
 90
3
 70
0
 10
42.947642
 20
5.850825
 30
0.0
 10
43.041224
 20
5.849802
 30
0.0
 10
43.073287
 20
5.937550
 30
0.0
  0
LWPOLYLINE
  5
28c
100
AcDbEntity
  8
Camada_1
 62
7
100
AcDbPolyline
 90
4
 70
0
 10
44.111511
 20
8.782748
 30
0.0
 10
44.176237
 20
8.960046
 30
0.0
 10
43.987068
 20
8.960046
 30
0.0
 10
42.182750
 20
8.960312
 30
0.0
  0
SPLINE
  5
28d
100
AcDbEntity
  8
Camada_1
 62
7
100
AcDbSpline
 70
8
 71
3
 72
8
 73
4
 74
0
 40
0
 40
0
 40
0
 40
0
 40
1
 40
1
 40
1
 40
1
 10
43.797899
 20
8.696064
 30
0.0
 10
43.484056
 20
7.836010
 30
0.0
 10
43.170306
 20
6.975966
 30
0.0
 10
42.856464
 20
6.115912
 30
0.0
  0
SPLINE
  5
28e
100
AcDbEntity
  8
Camada_1
 62
7
100
AcDbSpline
 70
8
 71
3
 72
8
 73
4
 74
0
 40
0
 40
0
 40
0
 40
0
 40
1
 40
1
 40
1
 40
1
 10
42.856464
 20
6.115912
 30
0.0
 10
42.323910
 20
6.120620
 30
0.0
 10
41.791313
 20
6.125225
 30
0.0
 10
41.258749
 20
6.129902
 30
0.0
  0
SPLINE
  5
28f
100
AcDbEntity
  8
Camada_1
 62
7
100
AcDbSpline
 70
8
 71
3
 72
8
 73
4
 74
0
 40
0
 40
0
 40
0
 40
0
 40
1
 40
1
 40
1
 40
1
 10
41.258749
 20
6.129902
 30
0.0
 10
41.625067
 20
6.985351
 30
0.0
 10
41.991374
 20
7.840616
 30
0.0
 10
42.357692
 20
8.696064
 30
0.0
  0
LWPOLYLINE
  5
290
100
AcDbEntity
  8
Camada_1
 62
7
100
AcDbPolyline
 90
2
 70
0
 10
42.357692
 20
8.696064
 30
0.0
 10
43.797899
 20
8.696064
 30
0.0
  0
LWPOLYLINE
  5
291
100
AcDbEntity
  8
Camada_1
 62
7
100
AcDbPolyline
 90
1
 70
1
 10
42.357692
 20
8.696064
 30
0.0
  0
LWPOLYLINE
  5
292
100
AcDbEntity
  8
Camada_1
 62
7
100
AcDbPolyline
 90
1
 70
1
 10
43.987067
 20
8.828198
 30
0.0
  0
SPLINE
  5
293
100
AcDbEntity
  8
Camada_1
 62
7
100
AcDbSpline
 70
8
 71
3
 72
8
 73
4
 74
0
 40
0
 40
0
 40
0
 40
0
 40
1
 40
1
 40
1
 40
1
 10
42.124036
 20
9.974340
 30
0.0
 10
42.038190
 20
9.698845
 30
0.0
 10
41.952379
 20
9.423299
 30
0.0
 10
41.866534
 20
9.147803
 30
0.0
  0
LWPOLYLINE
  5
294
100
AcDbEntity
  8
Camada_1
 62
7
100
AcDbPolyline
 90
2
 70
0
 10
42.153093
 20
10.067482
 30
0.0
 10
42.124036
 20
9.974340
 30
0.0
  0
SPLINE
  5
295
100
AcDbEntity
  8
Camada_1
 62
7
100
AcDbSpline
 70
8
 71
3
 72
8
 73
4
 74
0
 40
0
 40
0
 40
0
 40
0
 40
1
 40
1
 40
1
 40
1
 10
41.991978
 20
8.976472
 30
0.0
 10
42.555542
 20
8.972788
 30
0.0
 10
43.119281
 20
8.969001
 30
0.0
 10
43.682875
 20
8.965276
 30
0.0
  0
LWPOLYLINE
  5
296
100
AcDbEntity
  8
Camada_1
 62
7
100
AcDbPolyline
 90
3
 70
0
 10
41.866534
 20
9.147803
 30
0.0
 10
41.813430
 20
8.977700
 30
0.0
 10
41.991978
 20
8.976472
 30
0.0
  0
SPLINE
  5
297
100
AcDbEntity
  8
Camada_1
 62
7
100
AcDbSpline
 70
8
 71
3
 72
8
 73
4
 74
0
 40
0
 40
0
 40
0
 40
0
 40
1
 40
1
 40
1
 40
1
 10
43.684721
 20
8.965276
 30
0.0
 10
43.953471
 20
8.967323
 30
0.0
 10
44.321703
 20
8.968448
 30
0.0
 10
44.802500
 20
8.965276
 30
0.0
  0
SPLINE
  5
298
100
AcDbEntity
  8
Camada_1
 62
7
100
AcDbSpline
 70
8
 71
3
 72
8
 73
4
 74
0
 40
0
 40
0
 40
0
 40
0
 40
1
 40
1
 40
1
 40
1
 10
44.802500
 20
8.965276
 30
0.0
 10
44.925670
 20
8.964252
 30
0.0
 10
45.039032
 20
8.961898
 30
0.0
 10
45.124929
 20
8.944490
 30
0.0
  0
SPLINE
  5
299
100
AcDbEntity
  8
Camada_1
 62
7
100
AcDbSpline
 70
8
 71
3
 72
8
 73
4
 74
0
 40
0
 40
0
 40
0
 40
0
 40
1
 40
1
 40
1
 40
1
 10
45.124929
 20
8.944490
 30
0.0
 10
45.210826
 20
8.927123
 30
0.0
 10
45.262508
 20
8.900329
 30
0.0
 10
45.297867
 20
8.853938
 30
0.0
  0
LWPOLYLINE
  5
29a
100
AcDbEntity
  8
Camada_1
 62
7
100
AcDbPolyline
 90
3
 70
0
 10
43.682875
 20
8.965276
 30
0.0
 10
43.683695
 20
8.965276
 30
0.0
 10
43.684721
 20
8.965276
 30
0.0
  0
SPLINE
  5
29b
100
AcDbEntity
  8
Camada_1
 62
7
100
AcDbSpline
 70
8
 71
3
 72
8
 73
4
 74
0
 40
0
 40
0
 40
0
 40
0
 40
1
 40
1
 40
1
 40
1
 10
45.297867
 20
8.853938
 30
0.0
 10
45.345543
 20
8.791386
 30
0.0
 10
45.357892
 20
8.672587
 30
0.0
 10
45.358384
 20
8.647452
 30
0.0
  0
SPLINE
  5
29c
100
AcDbEntity
  8
Camada_1
 62
7
100
AcDbSpline
 70
8
 71
3
 72
8
 73
4
 74
0
 40
0
 40
0
 40
0
 40
0
 40
1
 40
1
 40
1
 40
1
 10
45.358384
 20
8.647452
 30
0.0
 10
45.359523
 20
8.589526
 30
0.0
 10
45.349335
 20
8.481463
 30
0.0
 10
45.306684
 20
8.439963
 30
0.0
  0
SPLINE
  5
29d
100
AcDbEntity
  8
Camada_1
 62
7
100
AcDbSpline
 70
8
 71
3
 72
8
 73
4
 74
0
 40
0
 40
0
 40
0
 40
0
 40
1
 40
1
 40
1
 40
1
 10
45.306684
 20
8.439963
 30
0.0
 10
45.289153
 20
8.422913
 30
0.0
 10
45.284498
 20
8.419218
 30
0.0
 10
45.231738
 20
8.413784
 30
0.0
  0
SPLINE
  5
29e
100
AcDbEntity
  8
Camada_1
 62
7
100
AcDbSpline
 70
8
 71
3
 72
8
 73
4
 74
0
 40
0
 40
0
 40
0
 40
0
 40
1
 40
1
 40
1
 40
1
 10
45.231738
 20
8.413784
 30
0.0
 10
45.178978
 20
8.408360
 30
0.0
 10
45.087582
 20
8.410611
 30
0.0
 10
44.952593
 20
8.414807
 30
0.0
  0
SPLINE
  5
29f
100
AcDbEntity
  8
Camada_1
 62
7
100
AcDbSpline
 70
8
 71
3
 72
8
 73
4
 74
0
 40
0
 40
0
 40
0
 40
0
 40
1
 40
1
 40
1
 40
1
 10
44.952593
 20
8.414807
 30
0.0
 10
44.830297
 20
8.418184
 30
0.0
 10
44.636911
 20
8.422892
 30
0.0
 10
44.390698
 20
8.426003
 30
0.0
  0
LWPOLYLINE
  5
2a0
100
AcDbEntity
  8
Camada_1
 62
7
100
AcDbPolyline
 90
1
 70
1
 10
45.297867
 20
8.853938
 30
0.0
  0
SPLINE
  5
2a1
100
AcDbEntity
  8
Camada_1
 62
7
100
AcDbSpline
 70
8
 71
3
 72
8
 73
4
 74
0
 40
0
 40
0
 40
0
 40
0
 40
1
 40
1
 40
1
 40
1
 10
44.266055
 20
8.343086
 30
0.0
 10
44.176480
 20
8.119703
 30
0.0
 10
44.086907
 20
7.896228
 30
0.0
 10
43.997331
 20
7.672856
 30
0.0
  0
LWPOLYLINE
  5
2a2
100
AcDbEntity
  8
Camada_1
 62
7
100
AcDbPolyline
 90
3
 70
0
 10
44.390698
 20
8.426003
 30
0.0
 10
44.299921
 20
8.427231
 30
0.0
 10
44.266055
 20
8.343086
 30
0.0
  0
SPLINE
  5
2a3
100
AcDbEntity
  8
Camada_1
 62
7
100
AcDbSpline
 70
8
 71
3
 72
8
 73
4
 74
0
 40
0
 40
0
 40
0
 40
0
 40
1
 40
1
 40
1
 40
1
 10
44.116363
 20
7.491731
 30
0.0
 10
44.152726
 20
7.490605
 30
0.0
 10
44.239288
 20
7.489172
 30
0.0
 10
44.363445
 20
7.486102
 30
0.0
  0
LWPOLYLINE
  5
2a4
100
AcDbEntity
  8
Camada_1
 62
7
100
AcDbPolyline
 90
3
 70
0
 10
43.997331
 20
7.672856
 30
0.0
 10
43.927194
 20
7.497564
 30
0.0
 10
44.116363
 20
7.491731
 30
0.0
  0
SPLINE
  5
2a5
100
AcDbEntity
  8
Camada_1
 62
7
100
AcDbSpline
 70
8
 71
3
 72
8
 73
4
 74
0
 40
0
 40
0
 40
0
 40
0
 40
1
 40
1
 40
1
 40
1
 10
44.363650
 20
7.486102
 30
0.0
 10
44.492132
 20
7.483032
 30
0.0
 10
44.536240
 20
7.480268
 30
0.0
 10
44.579070
 20
7.462522
 30
0.0
  0
LWPOLYLINE
  5
2a6
100
AcDbEntity
  8
Camada_1
 62
7
100
AcDbPolyline
 90
2
 70
0
 10
44.363445
 20
7.486102
 30
0.0
 10
44.363650
 20
7.486102
 30
0.0
  0
SPLINE
  5
2a7
100
AcDbEntity
  8
Camada_1
 62
7
100
AcDbSpline
 70
8
 71
3
 72
8
 73
4
 74
0
 40
0
 40
0
 40
0
 40
0
 40
1
 40
1
 40
1
 40
1
 10
44.579276
 20
7.462522
 30
0.0
 10
44.605349
 20
7.451745
 30
0.0
 10
44.646503
 20
7.426467
 30
0.0
 10
44.648210
 20
7.424543
 30
0.0
  0
SPLINE
  5
2a8
100
AcDbEntity
  8
Camada_1
 62
7
100
AcDbSpline
 70
8
 71
3
 72
8
 73
4
 74
0
 40
0
 40
0
 40
0
 40
0
 40
1
 40
1
 40
1
 40
1
 10
44.648210
 20
7.424543
 30
0.0
 10
44.650970
 20
7.421473
 30
0.0
 10
44.663171
 20
7.364417
 30
0.0
 10
44.642198
 20
7.281816
 30
0.0
  0
SPLINE
  5
2a9
100
AcDbEntity
  8
Camada_1
 62
7
100
AcDbSpline
 70
8
 71
3
 72
8
 73
4
 74
0
 40
0
 40
0
 40
0
 40
0
 40
1
 40
1
 40
1
 40
1
 10
44.642198
 20
7.281816
 30
0.0
 10
44.621227
 20
7.199226
 30
0.0
 10
44.581303
 20
7.111109
 30
0.0
 10
44.559838
 20
7.064544
 30
0.0
  0
SPLINE
  5
2aa
100
AcDbEntity
  8
Camada_1
 62
7
100
AcDbSpline
 70
8
 71
3
 72
8
 73
4
 74
0
 40
0
 40
0
 40
0
 40
0
 40
1
 40
1
 40
1
 40
1
 10
44.559838
 20
7.064544
 30
0.0
 10
44.408639
 20
6.736567
 30
0.0
 10
44.234117
 20
6.332335
 30
0.0
 10
44.020988
 20
5.832639
 30
0.0
  0
LWPOLYLINE
  5
2ab
100
AcDbEntity
  8
Camada_1
 62
7
100
AcDbPolyline
 90
2
 70
0
 10
44.579070
 20
7.462522
 30
0.0
 10
44.579276
 20
7.462522
 30
0.0
  0
SPLINE
  5
2ac
100
AcDbEntity
  8
Camada_1
 62
7
100
AcDbSpline
 70
8
 71
3
 72
8
 73
4
 74
0
 40
0
 40
0
 40
0
 40
0
 40
1
 40
1
 40
1
 40
1
 10
46.182802
 20
5.721065
 30
0.0
 10
46.556009
 20
6.538371
 30
0.0
 10
46.917933
 20
7.410860
 30
0.0
 10
47.256896
 20
8.337989
 30
0.0
  0
SPLINE
  5
2ad
100
AcDbEntity
  8
Camada_1
 62
7
100
AcDbSpline
 70
8
 71
3
 72
8
 73
4
 74
0
 40
0
 40
0
 40
0
 40
0
 40
1
 40
1
 40
1
 40
1
 10
47.256896
 20
8.337989
 30
0.0
 10
47.371616
 20
8.651781
 30
0.0
 10
47.480067
 20
8.961898
 30
0.0
 10
47.582731
 20
9.268270
 30
0.0
  0
LWPOLYLINE
  5
2ae
100
AcDbEntity
  8
Camada_1
 62
7
100
AcDbPolyline
 90
4
 70
0
 10
44.020988
 20
5.832639
 30
0.0
 10
43.942634
 20
5.649344
 30
0.0
 10
46.147332
 20
5.643510
 30
0.0
 10
46.182802
 20
5.721065
 30
0.0
  0
SPLINE
  5
2af
100
AcDbEntity
  8
Camada_1
 62
7
100
AcDbSpline
 70
8
 71
3
 72
8
 73
4
 74
0
 40
0
 40
0
 40
0
 40
0
 40
1
 40
1
 40
1
 40
1
 10
47.587533
 20
9.287511
 30
0.0
 10
47.600280
 20
9.360378
 30
0.0
 10
47.610786
 20
9.485656
 30
0.0
 10
47.558878
 20
9.624524
 30
0.0
  0
SPLINE
  5
2b0
100
AcDbEntity
  8
Camada_1
 62
7
100
AcDbSpline
 70
8
 71
3
 72
8
 73
4
 74
0
 40
0
 40
0
 40
0
 40
0
 40
1
 40
1
 40
1
 40
1
 10
47.558878
 20
9.624524
 30
0.0
 10
47.429265
 20
9.971270
 30
0.0
 10
47.067837
 20
10.044977
 30
0.0
 10
47.024836
 20
10.053881
 30
0.0
  0
LWPOLYLINE
  5
2b1
100
AcDbEntity
  8
Camada_1
 62
7
100
AcDbPolyline
 90
3
 70
0
 10
47.582731
 20
9.268270
 30
0.0
 10
47.585932
 20
9.277686
 30
0.0
 10
47.587533
 20
9.287511
 30
0.0
  0
SPLINE
  5
2b2
100
AcDbEntity
  8
Camada_1
 62
7
100
AcDbSpline
 70
8
 71
3
 72
8
 73
4
 74
0
 40
0
 40
0
 40
0
 40
0
 40
1
 40
1
 40
1
 40
1
 10
46.998385
 20
10.056644
 30
0.0
 10
45.415894
 20
10.060328
 30
0.0
 10
43.833231
 20
10.064115
 30
0.0
 10
42.250729
 20
10.067840
 30
0.0
  0
LWPOLYLINE
  5
2b3
100
AcDbEntity
  8
Camada_1
 62
7
100
AcDbPolyline
 90
3
 70
0
 10
47.024836
 20
10.053881
 30
0.0
 10
47.011811
 20
10.056644
 30
0.0
 10
46.998385
 20
10.056644
 30
0.0
  0
SPLINE
  5
2b4
100
AcDbEntity
  8
Camada_1
 62
7
100
AcDbSpline
 70
8
 71
3
 72
8
 73
4
 74
0
 40
0
 40
0
 40
0
 40
0
 40
1
 40
1
 40
1
 40
1
 10
42.347872
 20
9.802835
 30
0.0
 10
43.891156
 20
9.799253
 30
0.0
 10
45.434605
 20
9.795466
 30
0.0
 10
46.977899
 20
9.791843
 30
0.0
  0
SPLINE
  5
2b5
100
AcDbEntity
  8
Camada_1
 62
7
100
AcDbSpline
 70
8
 71
3
 72
8
 73
4
 74
0
 40
0
 40
0
 40
0
 40
0
 40
1
 40
1
 40
1
 40
1
 10
46.977899
 20
9.791843
 30
0.0
 10
46.999870
 20
9.786726
 30
0.0
 10
47.238772
 20
9.723612
 30
0.0
 10
47.310548
 20
9.531587
 30
0.0
  0
SPLINE
  5
2b6
100
AcDbEntity
  8
Camada_1
 62
7
100
AcDbSpline
 70
8
 71
3
 72
8
 73
4
 74
0
 40
0
 40
0
 40
0
 40
0
 40
1
 40
1
 40
1
 40
1
 10
47.310548
 20
9.531587
 30
0.0
 10
47.339357
 20
9.454513
 30
0.0
 10
47.333889
 20
9.382658
 30
0.0
 10
47.326178
 20
9.336696
 30
0.0
  0
SPLINE
  5
2b7
100
AcDbEntity
  8
Camada_1
 62
7
100
AcDbSpline
 70
8
 71
3
 72
8
 73
4
 74
0
 40
0
 40
0
 40
0
 40
0
 40
1
 40
1
 40
1
 40
1
 10
47.326178
 20
9.336696
 30
0.0
 10
47.225710
 20
9.037304
 30
0.0
 10
47.120018
 20
8.734525
 30
0.0
 10
47.007958
 20
8.428009
 30
0.0
  0
SPLINE
  5
2b8
100
AcDbEntity
  8
Camada_1
 62
7
100
AcDbSpline
 70
8
 71
3
 72
8
 73
4
 74
0
 40
0
 40
0
 40
0
 40
0
 40
1
 40
1
 40
1
 40
1
 10
47.007958
 20
8.428009
 30
0.0
 10
46.681832
 20
7.535994
 30
0.0
 10
46.333741
 20
6.697268
 30
0.0
 10
45.975344
 20
5.907635
 30
0.0
  0
LWPOLYLINE
  5
2b9
100
AcDbEntity
  8
Camada_1
 62
7
100
AcDbPolyline
 90
2
 70
0
 10
42.250729
 20
10.067840
 30
0.0
 10
42.153093
 20
10.067482
 30
0.0
  0
SPLINE
  5
2ba
100
AcDbEntity
  8
Camada_1
 62
7
100
AcDbSpline
 70
8
 71
3
 72
8
 73
4
 74
0
 40
0
 40
0
 40
0
 40
0
 40
1
 40
1
 40
1
 40
1
 10
44.344766
 20
5.911831
 30
0.0
 10
44.516176
 20
6.312082
 30
0.0
 10
44.673721
 20
6.678744
 30
0.0
 10
44.800453
 20
6.953645
 30
0.0
  0
SPLINE
  5
2bb
100
AcDbEntity
  8
Camada_1
 62
7
100
AcDbSpline
 70
8
 71
3
 72
8
 73
4
 74
0
 40
0
 40
0
 40
0
 40
0
 40
1
 40
1
 40
1
 40
1
 10
44.800453
 20
6.953645
 30
0.0
 10
44.821602
 20
6.999525
 30
0.0
 10
44.869884
 20
7.101438
 30
0.0
 10
44.899046
 20
7.216297
 30
0.0
  0
SPLINE
  5
2bc
100
AcDbEntity
  8
Camada_1
 62
7
100
AcDbSpline
 70
8
 71
3
 72
8
 73
4
 74
0
 40
0
 40
0
 40
0
 40
0
 40
1
 40
1
 40
1
 40
1
 10
44.899046
 20
7.216297
 30
0.0
 10
44.928208
 20
7.331145
 30
0.0
 10
44.952773
 20
7.479061
 30
0.0
 10
44.846744
 20
7.598883
 30
0.0
  0
SPLINE
  5
2bd
100
AcDbEntity
  8
Camada_1
 62
7
100
AcDbSpline
 70
8
 71
3
 72
8
 73
4
 74
0
 40
0
 40
0
 40
0
 40
0
 40
1
 40
1
 40
1
 40
1
 10
44.846744
 20
7.598883
 30
0.0
 10
44.781492
 20
7.672600
 30
0.0
 10
44.706840
 20
7.695402
 30
0.0
 10
44.680620
 20
7.706220
 30
0.0
  0
LWPOLYLINE
  5
2be
100
AcDbEntity
  8
Camada_1
 62
7
100
AcDbPolyline
 90
2
 70
0
 10
45.975344
 20
5.907635
 30
0.0
 10
44.344766
 20
5.911831
 30
0.0
  0
SPLINE
  5
2bf
100
AcDbEntity
  8
Camada_1
 62
7
100
AcDbSpline
 70
8
 71
3
 72
8
 73
4
 74
0
 40
0
 40
0
 40
0
 40
0
 40
1
 40
1
 40
1
 40
1
 10
44.680415
 20
7.706220
 30
0.0
 10
44.586553
 20
7.744987
 30
0.0
 10
44.499072
 20
7.746522
 30
0.0
 10
44.370009
 20
7.749592
 30
0.0
  0
LWPOLYLINE
  5
2c0
100
AcDbEntity
  8
Camada_1
 62
7
100
AcDbPolyline
 90
2
 70
0
 10
44.680620
 20
7.706220
 30
0.0
 10
44.680415
 20
7.706220
 30
0.0
  0
SPLINE
  5
2c1
100
AcDbEntity
  8
Camada_1
 62
7
100
AcDbSpline
 70
8
 71
3
 72
8
 73
4
 74
0
 40
0
 40
0
 40
0
 40
0
 40
1
 40
1
 40
1
 40
1
 10
44.369804
 20
7.749592
 30
0.0
 10
44.341535
 20
7.750616
 30
0.0
 10
44.338723
 20
7.750616
 30
0.0
 10
44.314296
 20
7.750820
 30
0.0
  0
SPLINE
  5
2c2
100
AcDbEntity
  8
Camada_1
 62
7
100
AcDbSpline
 70
8
 71
3
 72
8
 73
4
 74
0
 40
0
 40
0
 40
0
 40
0
 40
1
 40
1
 40
1
 40
1
 10
44.314296
 20
7.750820
 30
0.0
 10
44.368897
 20
7.886977
 30
0.0
 10
44.423414
 20
8.023225
 30
0.0
 10
44.478014
 20
8.159391
 30
0.0
  0
SPLINE
  5
2c3
100
AcDbEntity
  8
Camada_1
 62
7
100
AcDbSpline
 70
8
 71
3
 72
8
 73
4
 74
0
 40
0
 40
0
 40
0
 40
0
 40
1
 40
1
 40
1
 40
1
 10
44.478014
 20
8.159391
 30
0.0
 10
44.668150
 20
8.156423
 30
0.0
 10
44.843652
 20
8.153046
 30
0.0
 10
44.945326
 20
8.150181
 30
0.0
  0
SPLINE
  5
2c4
100
AcDbEntity
  8
Camada_1
 62
7
100
AcDbSpline
 70
8
 71
3
 72
8
 73
4
 74
0
 40
0
 40
0
 40
0
 40
0
 40
1
 40
1
 40
1
 40
1
 10
44.945326
 20
8.150181
 30
0.0
 10
45.079135
 20
8.146394
 30
0.0
 10
45.173541
 20
8.141993
 30
0.0
 10
45.258937
 20
8.151204
 30
0.0
  0
SPLINE
  5
2c5
100
AcDbEntity
  8
Camada_1
 62
7
100
AcDbSpline
 70
8
 71
3
 72
8
 73
4
 74
0
 40
0
 40
0
 40
0
 40
0
 40
1
 40
1
 40
1
 40
1
 10
45.258937
 20
8.151204
 30
0.0
 10
45.344389
 20
8.160005
 30
0.0
 10
45.430393
 20
8.191609
 30
0.0
 10
45.491591
 20
8.251152
 30
0.0
  0
SPLINE
  5
2c6
100
AcDbEntity
  8
Camada_1
 62
7
100
AcDbSpline
 70
8
 71
3
 72
8
 73
4
 74
0
 40
0
 40
0
 40
0
 40
0
 40
1
 40
1
 40
1
 40
1
 10
45.491591
 20
8.251152
 30
0.0
 10
45.640442
 20
8.395976
 30
0.0
 10
45.624387
 20
8.594960
 30
0.0
 10
45.623247
 20
8.652927
 30
0.0
  0
SPLINE
  5
2c7
100
AcDbEntity
  8
Camada_1
 62
7
100
AcDbSpline
 70
8
 71
3
 72
8
 73
4
 74
0
 40
0
 40
0
 40
0
 40
0
 40
1
 40
1
 40
1
 40
1
 10
45.623247
 20
8.652927
 30
0.0
 10
45.622426
 20
8.694693
 30
0.0
 10
45.622837
 20
8.864796
 30
0.0
 10
45.508825
 20
9.014318
 30
0.0
  0
SPLINE
  5
2c8
100
AcDbEntity
  8
Camada_1
 62
7
100
AcDbSpline
 70
8
 71
3
 72
8
 73
4
 74
0
 40
0
 40
0
 40
0
 40
0
 40
1
 40
1
 40
1
 40
1
 10
45.508825
 20
9.014318
 30
0.0
 10
45.424290
 20
9.125237
 30
0.0
 10
45.299808
 20
9.179294
 30
0.0
 10
45.177578
 20
9.204010
 30
0.0
  0
SPLINE
  5
2c9
100
AcDbEntity
  8
Camada_1
 62
7
100
AcDbSpline
 70
8
 71
3
 72
8
 73
4
 74
0
 40
0
 40
0
 40
0
 40
0
 40
1
 40
1
 40
1
 40
1
 10
45.177578
 20
9.204010
 30
0.0
 10
45.055349
 20
9.228736
 30
0.0
 10
44.928554
 20
9.229176
 30
0.0
 10
44.804251
 20
9.229994
 30
0.0
  0
SPLINE
  5
2ca
100
AcDbEntity
  8
Camada_1
 62
7
100
AcDbSpline
 70
8
 71
3
 72
8
 73
4
 74
0
 40
0
 40
0
 40
0
 40
0
 40
1
 40
1
 40
1
 40
1
 10
44.804251
 20
9.229994
 30
0.0
 10
44.322921
 20
9.233167
 30
0.0
 10
43.954208
 20
9.232041
 30
0.0
 10
43.684468
 20
9.229994
 30
0.0
  0
LWPOLYLINE
  5
2cb
100
AcDbEntity
  8
Camada_1
 62
7
100
AcDbPolyline
 90
2
 70
0
 10
44.370009
 20
7.749592
 30
0.0
 10
44.369804
 20
7.749592
 30
0.0
  0
SPLINE
  5
2cc
100
AcDbEntity
  8
Camada_1
 62
7
100
AcDbSpline
 70
8
 71
3
 72
8
 73
4
 74
0
 40
0
 40
0
 40
0
 40
0
 40
1
 40
1
 40
1
 40
1
 10
43.682662
 20
9.229994
 30
0.0
 10
43.179214
 20
9.233269
 30
0.0
 10
42.675790
 20
9.236647
 30
0.0
 10
42.172318
 20
9.240024
 30
0.0
  0
SPLINE
  5
2cd
100
AcDbEntity
  8
Camada_1
 62
7
100
AcDbSpline
 70
8
 71
3
 72
8
 73
4
 74
0
 40
0
 40
0
 40
0
 40
0
 40
1
 40
1
 40
1
 40
1
 10
42.172318
 20
9.240024
 30
0.0
 10
42.230823
 20
9.427781
 30
0.0
 10
42.289356
 20
9.615549
 30
0.0
 10
42.347860
 20
9.803306
 30
0.0
  0
LWPOLYLINE
  5
2ce
100
AcDbEntity
  8
Camada_1
 62
7
100
AcDbPolyline
 90
2
 70
0
 10
43.684468
 20
9.229994
 30
0.0
 10
43.682662
 20
9.229994
 30
0.0
  0
LWPOLYLINE
  5
2cf
100
AcDbEntity
  8
Camada_1
 62
7
100
AcDbPolyline
 90
2
 70
0
 10
42.347860
 20
9.803306
 30
0.0
 10
42.347872
 20
9.802835
 30
0.0
  0
LWPOLYLINE
  5
2d0
100
AcDbEntity
  8
Camada_1
 62
7
100
AcDbPolyline
 90
1
 70
1
 10
44.389078
 20
8.293337
 30
0.0
  0
SPLINE
  5
2d1
100
AcDbEntity
  8
Camada_1
 62
7
100
AcDbSpline
 70
8
 71
3
 72
8
 73
4
 74
0
 40
0
 40
0
 40
0
 40
0
 40
1
 40
1
 40
1
 40
1
 10
47.259248
 20
6.059542
 30
0.0
 10
47.274176
 20
5.915587
 30
0.0
 10
47.289006
 20
5.771745
 30
0.0
 10
47.303934
 20
5.627791
 30
0.0
  0
LWPOLYLINE
  5
2d2
100
AcDbEntity
  8
Camada_1
 62
7
100
AcDbPolyline
 90
2
 70
0
 10
47.244018
 20
6.206659
 30
0.0
 10
47.259248
 20
6.059542
 30
0.0
  0
SPLINE
  5
2d3
100
AcDbEntity
  8
Camada_1
 62
7
100
AcDbSpline
 70
8
 71
3
 72
8
 73
4
 74
0
 40
0
 40
0
 40
0
 40
0
 40
1
 40
1
 40
1
 40
1
 10
47.435390
 20
5.509657
 30
0.0
 10
49.027844
 20
5.504642
 30
0.0
 10
50.620259
 20
5.499627
 30
0.0
 10
52.212704
 20
5.494664
 30
0.0
  0
LWPOLYLINE
  5
2d4
100
AcDbEntity
  8
Camada_1
 62
7
100
AcDbPolyline
 90
3
 70
0
 10
47.303934
 20
5.627791
 30
0.0
 10
47.316158
 20
5.509657
 30
0.0
 10
47.435390
 20
5.509657
 30
0.0
  0
SPLINE
  5
2d5
100
AcDbEntity
  8
Camada_1
 62
7
100
AcDbSpline
 70
8
 71
3
 72
8
 73
4
 74
0
 40
0
 40
0
 40
0
 40
0
 40
1
 40
1
 40
1
 40
1
 10
52.285846
 20
5.737297
 30
0.0
 10
52.076636
 20
5.874630
 30
0.0
 10
51.752778
 20
6.046995
 30
0.0
 10
51.327578
 20
6.128879
 30
0.0
  0
SPLINE
  5
2d6
100
AcDbEntity
  8
Camada_1
 62
7
100
AcDbSpline
 70
8
 71
3
 72
8
 73
4
 74
0
 40
0
 40
0
 40
0
 40
0
 40
1
 40
1
 40
1
 40
1
 10
51.327578
 20
6.128879
 30
0.0
 10
51.147871
 20
6.163481
 30
0.0
 10
50.983297
 20
6.175404
 30
0.0
 10
50.840629
 20
6.175844
 30
0.0
  0
LWPOLYLINE
  5
2d7
100
AcDbEntity
  8
Camada_1
 62
7
100
AcDbPolyline
 90
3
 70
0
 10
52.212704
 20
5.494664
 30
0.0
 10
52.657371
 20
5.493436
 30
0.0
 10
52.285846
 20
5.737297
 30
0.0
  0
LWPOLYLINE
  5
2d8
100
AcDbEntity
  8
Camada_1
 62
7
100
AcDbPolyline
 90
3
 70
0
 10
50.840629
 20
6.175844
 30
0.0
 10
50.840014
 20
6.175844
 30
0.0
 10
47.244018
 20
6.206659
 30
0.0
  0
SPLINE
  5
2d9
100
AcDbEntity
  8
Camada_1
 62
7
100
AcDbSpline
 70
8
 71
3
 72
8
 73
4
 74
0
 40
0
 40
0
 40
0
 40
0
 40
1
 40
1
 40
1
 40
1
 10
50.839236
 20
5.911432
 30
0.0
 10
50.967745
 20
5.911432
 30
0.0
 10
51.115744
 20
5.900369
 30
0.0
 10
51.277290
 20
5.869257
 30
0.0
  0
SPLINE
  5
2da
100
AcDbEntity
  8
Camada_1
 62
7
100
AcDbSpline
 70
8
 71
3
 72
8
 73
4
 74
0
 40
0
 40
0
 40
0
 40
0
 40
1
 40
1
 40
1
 40
1
 10
51.277290
 20
5.869257
 30
0.0
 10
51.409019
 20
5.843897
 30
0.0
 10
51.514974
 20
5.800698
 30
0.0
 10
51.624767
 20
5.760518
 30
0.0
  0
SPLINE
  5
2db
100
AcDbEntity
  8
Camada_1
 62
7
100
AcDbSpline
 70
8
 71
3
 72
8
 73
4
 74
0
 40
0
 40
0
 40
0
 40
0
 40
1
 40
1
 40
1
 40
1
 10
51.624767
 20
5.760518
 30
0.0
 10
50.268245
 20
5.764714
 30
0.0
 10
48.911750
 20
5.769013
 30
0.0
 10
47.555234
 20
5.773311
 30
0.0
  0
SPLINE
  5
2dc
100
AcDbEntity
  8
Camada_1
 62
7
100
AcDbSpline
 70
8
 71
3
 72
8
 73
4
 74
0
 40
0
 40
0
 40
0
 40
0
 40
1
 40
1
 40
1
 40
1
 10
47.555234
 20
5.773311
 30
0.0
 10
47.549468
 20
5.828965
 30
0.0
 10
47.543772
 20
5.884567
 30
0.0
 10
47.538000
 20
5.940221
 30
0.0
  0
LWPOLYLINE
  5
2dd
100
AcDbEntity
  8
Camada_1
 62
7
100
AcDbPolyline
 90
3
 70
0
 10
47.537990
 20
5.940016
 30
0.0
 10
50.838826
 20
5.911432
 30
0.0
 10
50.839236
 20
5.911432
 30
0.0
  0
LWPOLYLINE
  5
2de
100
AcDbEntity
  8
Camada_1
 62
7
100
AcDbPolyline
 90
2
 70
0
 10
47.538000
 20
5.940221
 30
0.0
 10
47.537990
 20
5.940016
 30
0.0
  0
LWPOLYLINE
  5
2df
100
AcDbEntity
  8
Camada_1
 62
7
100
AcDbPolyline
 90
1
 70
1
 10
47.390931
 20
6.073235
 30
0.0
  0
SPLINE
  5
2e0
100
AcDbEntity
  8
Camada_1
 62
7
100
AcDbSpline
 70
8
 71
3
 72
8
 73
4
 74
0
 40
0
 40
0
 40
0
 40
0
 40
1
 40
1
 40
1
 40
1
 10
35.273086
 20
6.645411
 30
0.0
 10
35.158314
 20
6.446406
 30
0.0
 10
35.161303
 20
6.202197
 30
0.0
 10
35.300739
 20
6.033762
 30
0.0
  0
SPLINE
  5
2e1
100
AcDbEntity
  8
Camada_1
 62
7
100
AcDbSpline
 70
8
 71
3
 72
8
 73
4
 74
0
 40
0
 40
0
 40
0
 40
0
 40
1
 40
1
 40
1
 40
1
 10
35.300739
 20
6.033762
 30
0.0
 10
35.409041
 20
5.902928
 30
0.0
 10
35.552963
 20
5.873525
 30
0.0
 10
35.604932
 20
5.864856
 30
0.0
  0
LWPOLYLINE
  5
2e2
100
AcDbEntity
  8
Camada_1
 62
7
100
AcDbPolyline
 90
3
 70
0
 10
36.794646
 20
10.062293
 30
0.0
 10
35.266868
 20
6.633222
 30
0.0
 10
35.273086
 20
6.645411
 30
0.0
  0
SPLINE
  5
2e3
100
AcDbEntity
  8
Camada_1
 62
7
100
AcDbSpline
 70
8
 71
3
 72
8
 73
4
 74
0
 40
0
 40
0
 40
0
 40
0
 40
1
 40
1
 40
1
 40
1
 10
39.687691
 20
5.866391
 30
0.0
 10
39.733852
 20
5.877107
 30
0.0
 10
39.805235
 20
5.898813
 30
0.0
 10
39.879866
 20
5.947948
 30
0.0
  0
LWPOLYLINE
  5
2e4
100
AcDbEntity
  8
Camada_1
 62
7
100
AcDbPolyline
 90
4
 70
0
 10
35.604932
 20
5.864856
 30
0.0
 10
35.615753
 20
5.862809
 30
0.0
 10
39.672863
 20
5.862809
 30
0.0
 10
39.687691
 20
5.866391
 30
0.0
  0
SPLINE
  5
2e5
100
AcDbEntity
  8
Camada_1
 62
7
100
AcDbSpline
 70
8
 71
3
 72
8
 73
4
 74
0
 40
0
 40
0
 40
0
 40
0
 40
1
 40
1
 40
1
 40
1
 10
39.896095
 20
5.959615
 30
0.0
 10
39.897839
 20
5.960945
 30
0.0
 10
39.898926
 20
5.961662
 30
0.0
 10
39.900907
 20
5.963197
 30
0.0
  0
SPLINE
  5
2e6
100
AcDbEntity
  8
Camada_1
 62
7
100
AcDbSpline
 70
8
 71
3
 72
8
 73
4
 74
0
 40
0
 40
0
 40
0
 40
0
 40
1
 40
1
 40
1
 40
1
 10
39.900907
 20
5.963197
 30
0.0
 10
39.912243
 20
5.971794
 30
0.0
 10
39.927481
 20
5.983911
 30
0.0
 10
39.944792
 20
5.999580
 30
0.0
  0
SPLINE
  5
2e7
100
AcDbEntity
  8
Camada_1
 62
7
100
AcDbSpline
 70
8
 71
3
 72
8
 73
4
 74
0
 40
0
 40
0
 40
0
 40
0
 40
1
 40
1
 40
1
 40
1
 10
39.944792
 20
5.999580
 30
0.0
 10
39.979413
 20
6.030917
 30
0.0
 10
40.023001
 20
6.076316
 30
0.0
 10
40.061219
 20
6.137302
 30
0.0
  0
SPLINE
  5
2e8
100
AcDbEntity
  8
Camada_1
 62
7
100
AcDbSpline
 70
8
 71
3
 72
8
 73
4
 74
0
 40
0
 40
0
 40
0
 40
0
 40
1
 40
1
 40
1
 40
1
 10
40.061219
 20
6.137302
 30
0.0
 10
40.094078
 20
6.189732
 30
0.0
 10
40.146822
 20
6.294653
 30
0.0
 10
40.241971
 20
6.483311
 30
0.0
  0
SPLINE
  5
2e9
100
AcDbEntity
  8
Camada_1
 62
7
100
AcDbSpline
 70
8
 71
3
 72
8
 73
4
 74
0
 40
0
 40
0
 40
0
 40
0
 40
1
 40
1
 40
1
 40
1
 10
40.241971
 20
6.483311
 30
0.0
 10
40.337119
 20
6.671969
 30
0.0
 10
40.466628
 20
6.932287
 30
0.0
 10
40.624317
 20
7.252076
 30
0.0
  0
SPLINE
  5
2ea
100
AcDbEntity
  8
Camada_1
 62
7
100
AcDbSpline
 70
8
 71
3
 72
8
 73
4
 74
0
 40
0
 40
0
 40
0
 40
0
 40
1
 40
1
 40
1
 40
1
 10
40.624317
 20
7.252076
 30
0.0
 10
40.939694
 20
7.891654
 30
0.0
 10
41.367961
 20
8.768922
 30
0.0
 10
41.859525
 20
9.783451
 30
0.0
  0
LWPOLYLINE
  5
2eb
100
AcDbEntity
  8
Camada_1
 62
7
100
AcDbPolyline
 90
3
 70
0
 10
39.879866
 20
5.947948
 30
0.0
 10
39.894094
 20
5.957363
 30
0.0
 10
39.896095
 20
5.959615
 30
0.0
  0
SPLINE
  5
2ec
100
AcDbEntity
  8
Camada_1
 62
7
100
AcDbSpline
 70
8
 71
3
 72
8
 73
4
 74
0
 40
0
 40
0
 40
0
 40
0
 40
1
 40
1
 40
1
 40
1
 10
41.739691
 20
9.972918
 30
0.0
 10
41.157467
 20
9.970359
 30
0.0
 10
40.575324
 20
9.968005
 30
0.0
 10
39.993086
 20
9.965549
 30
0.0
  0
LWPOLYLINE
  5
2ed
100
AcDbEntity
  8
Camada_1
 62
7
100
AcDbPolyline
 90
3
 70
0
 10
41.859525
 20
9.783451
 30
0.0
 10
41.951905
 20
9.973941
 30
0.0
 10
41.739691
 20
9.972918
 30
0.0
  0
SPLINE
  5
2ee
100
AcDbEntity
  8
Camada_1
 62
7
100
AcDbSpline
 70
8
 71
3
 72
8
 73
4
 74
0
 40
0
 40
0
 40
0
 40
0
 40
1
 40
1
 40
1
 40
1
 10
39.872050
 20
9.886203
 30
0.0
 10
39.463363
 20
8.943681
 30
0.0
 10
39.054547
 20
8.001109
 30
0.0
 10
38.645859
 20
7.058587
 30
0.0
  0
LWPOLYLINE
  5
2ef
100
AcDbEntity
  8
Camada_1
 62
7
100
AcDbPolyline
 90
3
 70
0
 10
39.993086
 20
9.965549
 30
0.0
 10
39.906317
 20
9.965549
 30
0.0
 10
39.872050
 20
9.886203
 30
0.0
  0
SPLINE
  5
2f0
100
AcDbEntity
  8
Camada_1
 62
7
100
AcDbSpline
 70
8
 71
3
 72
8
 73
4
 74
0
 40
0
 40
0
 40
0
 40
0
 40
1
 40
1
 40
1
 40
1
 10
38.644628
 20
7.055517
 30
0.0
 10
38.599795
 20
6.944496
 30
0.0
 10
38.544492
 20
6.893611
 30
0.0
 10
38.507561
 20
6.865222
 30
0.0
  0
SPLINE
  5
2f1
100
AcDbEntity
  8
Camada_1
 62
7
100
AcDbSpline
 70
8
 71
3
 72
8
 73
4
 74
0
 40
0
 40
0
 40
0
 40
0
 40
1
 40
1
 40
1
 40
1
 10
38.507561
 20
6.865222
 30
0.0
 10
38.474985
 20
6.840189
 30
0.0
 10
38.416068
 20
6.819669
 30
0.0
 10
38.299956
 20
6.811645
 30
0.0
  0
SPLINE
  5
2f2
100
AcDbEntity
  8
Camada_1
 62
7
100
AcDbSpline
 70
8
 71
3
 72
8
 73
4
 74
0
 40
0
 40
0
 40
0
 40
0
 40
1
 40
1
 40
1
 40
1
 10
38.299956
 20
6.811645
 30
0.0
 10
38.183845
 20
6.803663
 30
0.0
 10
38.018370
 20
6.808473
 30
0.0
 10
37.796174
 20
6.816251
 30
0.0
  0
SPLINE
  5
2f3
100
AcDbEntity
  8
Camada_1
 62
7
100
AcDbSpline
 70
8
 71
3
 72
8
 73
4
 74
0
 40
0
 40
0
 40
0
 40
0
 40
1
 40
1
 40
1
 40
1
 10
37.796174
 20
6.816251
 30
0.0
 10
37.736334
 20
6.818298
 30
0.0
 10
37.697213
 20
6.821061
 30
0.0
 10
37.677343
 20
6.824848
 30
0.0
  0
SPLINE
  5
2f4
100
AcDbEntity
  8
Camada_1
 62
7
100
AcDbSpline
 70
8
 71
3
 72
8
 73
4
 74
0
 40
0
 40
0
 40
0
 40
0
 40
1
 40
1
 40
1
 40
1
 10
37.677343
 20
6.824848
 30
0.0
 10
37.657472
 20
6.828634
 30
0.0
 10
37.658282
 20
6.828839
 30
0.0
 10
37.648888
 20
6.836249
 30
0.0
  0
SPLINE
  5
2f5
100
AcDbEntity
  8
Camada_1
 62
7
100
AcDbSpline
 70
8
 71
3
 72
8
 73
4
 74
0
 40
0
 40
0
 40
0
 40
0
 40
1
 40
1
 40
1
 40
1
 10
37.648888
 20
6.836249
 30
0.0
 10
37.620467
 20
6.858539
 30
0.0
 10
37.596218
 20
6.922134
 30
0.0
 10
37.591175
 20
6.998154
 30
0.0
  0
SPLINE
  5
2f6
100
AcDbEntity
  8
Camada_1
 62
7
100
AcDbSpline
 70
8
 71
3
 72
8
 73
4
 74
0
 40
0
 40
0
 40
0
 40
0
 40
1
 40
1
 40
1
 40
1
 10
37.591175
 20
6.998154
 30
0.0
 10
37.586127
 20
7.074174
 30
0.0
 10
37.597208
 20
7.146110
 30
0.0
 10
37.600388
 20
7.165862
 30
0.0
  0
SPLINE
  5
2f7
100
AcDbEntity
  8
Camada_1
 62
7
100
AcDbSpline
 70
8
 71
3
 72
8
 73
4
 74
0
 40
0
 40
0
 40
0
 40
0
 40
1
 40
1
 40
1
 40
1
 10
37.600388
 20
7.165862
 30
0.0
 10
37.613792
 20
7.249067
 30
0.0
 10
37.638686
 20
7.304188
 30
0.0
 10
37.643472
 20
7.314781
 30
0.0
  0
SPLINE
  5
2f8
100
AcDbEntity
  8
Camada_1
 62
7
100
AcDbSpline
 70
8
 71
3
 72
8
 73
4
 74
0
 40
0
 40
0
 40
0
 40
0
 40
1
 40
1
 40
1
 40
1
 10
37.643472
 20
7.314781
 30
0.0
 10
37.746048
 20
7.541356
 30
0.0
 10
38.186357
 20
8.526166
 30
0.0
 10
38.793114
 20
9.876532
 30
0.0
  0
LWPOLYLINE
  5
2f9
100
AcDbEntity
  8
Camada_1
 62
7
100
AcDbPolyline
 90
3
 70
0
 10
38.645859
 20
7.058587
 30
0.0
 10
38.645243
 20
7.057154
 30
0.0
 10
38.644628
 20
7.055517
 30
0.0
  0
LWPOLYLINE
  5
2fa
100
AcDbEntity
  8
Camada_1
 62
7
100
AcDbPolyline
 90
5
 70
0
 10
38.793114
 20
9.876532
 30
0.0
 10
38.804736
 20
9.902322
 30
0.0
 10
38.804736
 20
9.930497
 30
0.0
 10
38.804736
 20
10.062631
 30
0.0
 10
36.794646
 20
10.062293
 30
0.0
  0
SPLINE
  5
2fb
100
AcDbEntity
  8
Camada_1
 62
7
100
AcDbSpline
 70
8
 71
3
 72
8
 73
4
 74
0
 40
0
 40
0
 40
0
 40
0
 40
1
 40
1
 40
1
 40
1
 10
38.467909
 20
9.798035
 30
0.0
 10
37.928311
 20
8.596567
 30
0.0
 10
37.495803
 20
7.630323
 30
0.0
 10
37.402031
 20
7.423182
 30
0.0
  0
SPLINE
  5
2fc
100
AcDbEntity
  8
Camada_1
 62
7
100
AcDbSpline
 70
8
 71
3
 72
8
 73
4
 74
0
 40
0
 40
0
 40
0
 40
0
 40
1
 40
1
 40
1
 40
1
 10
37.402031
 20
7.423182
 30
0.0
 10
37.397568
 20
7.413255
 30
0.0
 10
37.357750
 20
7.325516
 30
0.0
 10
37.338707
 20
7.207301
 30
0.0
  0
SPLINE
  5
2fd
100
AcDbEntity
  8
Camada_1
 62
7
100
AcDbSpline
 70
8
 71
3
 72
8
 73
4
 74
0
 40
0
 40
0
 40
0
 40
0
 40
1
 40
1
 40
1
 40
1
 10
37.338707
 20
7.207301
 30
0.0
 10
37.335516
 20
7.187508
 30
0.0
 10
37.319485
 20
7.091756
 30
0.0
 10
37.326884
 20
6.980224
 30
0.0
  0
SPLINE
  5
2fe
100
AcDbEntity
  8
Camada_1
 62
7
100
AcDbSpline
 70
8
 71
3
 72
8
 73
4
 74
0
 40
0
 40
0
 40
0
 40
0
 40
1
 40
1
 40
1
 40
1
 10
37.326884
 20
6.980224
 30
0.0
 10
37.334281
 20
6.868701
 30
0.0
 10
37.362152
 20
6.724736
 30
0.0
 10
37.485192
 20
6.628228
 30
0.0
  0
SPLINE
  5
2ff
100
AcDbEntity
  8
Camada_1
 62
7
100
AcDbSpline
 70
8
 71
3
 72
8
 73
4
 74
0
 40
0
 40
0
 40
0
 40
0
 40
1
 40
1
 40
1
 40
1
 10
37.485192
 20
6.628228
 30
0.0
 10
37.525869
 20
6.596317
 30
0.0
 10
37.577868
 20
6.574539
 30
0.0
 10
37.627270
 20
6.565062
 30
0.0
  0
SPLINE
  5
300
100
AcDbEntity
  8
Camada_1
 62
7
100
AcDbSpline
 70
8
 71
3
 72
8
 73
4
 74
0
 40
0
 40
0
 40
0
 40
0
 40
1
 40
1
 40
1
 40
1
 10
37.627270
 20
6.565062
 30
0.0
 10
37.676672
 20
6.555544
 30
0.0
 10
37.724773
 20
6.553835
 30
0.0
 10
37.786781
 20
6.551665
 30
0.0
  0
SPLINE
  5
301
100
AcDbEntity
  8
Camada_1
 62
7
100
AcDbSpline
 70
8
 71
3
 72
8
 73
4
 74
0
 40
0
 40
0
 40
0
 40
0
 40
1
 40
1
 40
1
 40
1
 10
37.786781
 20
6.551665
 30
0.0
 10
38.009391
 20
6.543887
 30
0.0
 10
38.178868
 20
6.538054
 30
0.0
 10
38.318216
 20
6.547674
 30
0.0
  0
SPLINE
  5
302
100
AcDbEntity
  8
Camada_1
 62
7
100
AcDbSpline
 70
8
 71
3
 72
8
 73
4
 74
0
 40
0
 40
0
 40
0
 40
0
 40
1
 40
1
 40
1
 40
1
 10
38.318216
 20
6.547674
 30
0.0
 10
38.457564
 20
6.557294
 30
0.0
 10
38.574632
 20
6.582829
 30
0.0
 10
38.669101
 20
6.655410
 30
0.0
  0
SPLINE
  5
303
100
AcDbEntity
  8
Camada_1
 62
7
100
AcDbSpline
 70
8
 71
3
 72
8
 73
4
 74
0
 40
0
 40
0
 40
0
 40
0
 40
1
 40
1
 40
1
 40
1
 10
38.669101
 20
6.655410
 30
0.0
 10
38.732615
 20
6.704217
 30
0.0
 10
38.826424
 20
6.798187
 30
0.0
 10
38.890332
 20
6.956439
 30
0.0
  0
SPLINE
  5
304
100
AcDbEntity
  8
Camada_1
 62
7
100
AcDbSpline
 70
8
 71
3
 72
8
 73
4
 74
0
 40
0
 40
0
 40
0
 40
0
 40
1
 40
1
 40
1
 40
1
 10
38.890332
 20
6.956439
 30
0.0
 10
39.287152
 20
7.871595
 30
0.0
 10
39.684033
 20
8.786535
 30
0.0
 10
40.080853
 20
9.701690
 30
0.0
  0
SPLINE
  5
305
100
AcDbEntity
  8
Camada_1
 62
7
100
AcDbSpline
 70
8
 71
3
 72
8
 73
4
 74
0
 40
0
 40
0
 40
0
 40
0
 40
1
 40
1
 40
1
 40
1
 10
40.080853
 20
9.701690
 30
0.0
 10
40.563236
 20
9.703737
 30
0.0
 10
41.045680
 20
9.705579
 30
0.0
 10
41.528074
 20
9.707728
 30
0.0
  0
SPLINE
  5
306
100
AcDbEntity
  8
Camada_1
 62
7
100
AcDbSpline
 70
8
 71
3
 72
8
 73
4
 74
0
 40
0
 40
0
 40
0
 40
0
 40
1
 40
1
 40
1
 40
1
 10
41.528074
 20
9.707728
 30
0.0
 10
41.082820
 20
8.789707
 30
0.0
 10
40.677870
 20
7.959241
 30
0.0
 10
40.386649
 20
7.368654
 30
0.0
  0
SPLINE
  5
307
100
AcDbEntity
  8
Camada_1
 62
7
100
AcDbSpline
 70
8
 71
3
 72
8
 73
4
 74
0
 40
0
 40
0
 40
0
 40
0
 40
1
 40
1
 40
1
 40
1
 10
40.386649
 20
7.368654
 30
0.0
 10
40.229169
 20
7.049284
 30
0.0
 10
40.099830
 20
6.789499
 30
0.0
 10
40.005305
 20
6.602079
 30
0.0
  0
SPLINE
  5
308
100
AcDbEntity
  8
Camada_1
 62
7
100
AcDbSpline
 70
8
 71
3
 72
8
 73
4
 74
0
 40
0
 40
0
 40
0
 40
0
 40
1
 40
1
 40
1
 40
1
 10
40.005305
 20
6.602079
 30
0.0
 10
39.910782
 20
6.414660
 30
0.0
 10
39.842995
 20
6.287510
 30
0.0
 10
39.836576
 20
6.277265
 30
0.0
  0
SPLINE
  5
309
100
AcDbEntity
  8
Camada_1
 62
7
100
AcDbSpline
 70
8
 71
3
 72
8
 73
4
 74
0
 40
0
 40
0
 40
0
 40
0
 40
1
 40
1
 40
1
 40
1
 10
39.836576
 20
6.277265
 30
0.0
 10
39.815654
 20
6.243881
 30
0.0
 10
39.788192
 20
6.214816
 30
0.0
 10
39.766640
 20
6.195309
 30
0.0
  0
SPLINE
  5
30a
100
AcDbEntity
  8
Camada_1
 62
7
100
AcDbSpline
 70
8
 71
3
 72
8
 73
4
 74
0
 40
0
 40
0
 40
0
 40
0
 40
1
 40
1
 40
1
 40
1
 10
39.766640
 20
6.195309
 30
0.0
 10
39.755865
 20
6.185587
 30
0.0
 10
39.746623
 20
6.178095
 30
0.0
 10
39.740590
 20
6.173521
 30
0.0
  0
SPLINE
  5
30b
100
AcDbEntity
  8
Camada_1
 62
7
100
AcDbSpline
 70
8
 71
3
 72
8
 73
4
 74
0
 40
0
 40
0
 40
0
 40
0
 40
1
 40
1
 40
1
 40
1
 10
39.740590
 20
6.173521
 30
0.0
 10
39.737574
 20
6.171269
 30
0.0
 10
39.735368
 20
6.169734
 30
0.0
 10
39.734177
 20
6.168915
 30
0.0
  0
LWPOLYLINE
  5
30c
100
AcDbEntity
  8
Camada_1
 62
7
100
AcDbPolyline
 90
2
 70
0
 10
36.966982
 20
9.798035
 30
0.0
 10
38.467909
 20
9.798035
 30
0.0
  0
SPLINE
  5
30d
100
AcDbEntity
  8
Camada_1
 62
7
100
AcDbSpline
 70
8
 71
3
 72
8
 73
4
 74
0
 40
0
 40
0
 40
0
 40
0
 40
1
 40
1
 40
1
 40
1
 10
39.733972
 20
6.168915
 30
0.0
 10
39.697198
 20
6.144711
 30
0.0
 10
39.662327
 20
6.134057
 30
0.0
 10
39.635581
 20
6.127344
 30
0.0
  0
LWPOLYLINE
  5
30e
100
AcDbEntity
  8
Camada_1
 62
7
100
AcDbPolyline
 90
2
 70
0
 10
39.734177
 20
6.168915
 30
0.0
 10
39.733972
 20
6.168915
 30
0.0
  0
SPLINE
  5
30f
100
AcDbEntity
  8
Camada_1
 62
7
100
AcDbSpline
 70
8
 71
3
 72
8
 73
4
 74
0
 40
0
 40
0
 40
0
 40
0
 40
1
 40
1
 40
1
 40
1
 10
35.645206
 20
6.127344
 30
0.0
 10
35.616124
 20
6.132461
 30
0.0
 10
35.548899
 20
6.149184
 30
0.0
 10
35.504932
 20
6.202299
 30
0.0
  0
SPLINE
  5
310
100
AcDbEntity
  8
Camada_1
 62
7
100
AcDbSpline
 70
8
 71
3
 72
8
 73
4
 74
0
 40
0
 40
0
 40
0
 40
0
 40
1
 40
1
 40
1
 40
1
 10
35.504932
 20
6.202299
 30
0.0
 10
35.446950
 20
6.272342
 30
0.0
 10
35.435518
 20
6.397384
 30
0.0
 10
35.502726
 20
6.513921
 30
0.0
  0
LWPOLYLINE
  5
311
100
AcDbEntity
  8
Camada_1
 62
7
100
AcDbPolyline
 90
2
 70
0
 10
39.635581
 20
6.127344
 30
0.0
 10
35.645206
 20
6.127344
 30
0.0
  0
LWPOLYLINE
  5
312
100
AcDbEntity
  8
Camada_1
 62
7
100
AcDbPolyline
 90
3
 70
0
 10
35.502726
 20
6.513921
 30
0.0
 10
35.506132
 20
6.519960
 30
0.0
 10
36.966982
 20
9.798035
 30
0.0
  0
SPLINE
  5
313
100
AcDbEntity
  8
Camada_1
 62
7
100
AcDbSpline
 70
8
 71
3
 72
8
 73
4
 74
0
 40
0
 40
0
 40
0
 40
0
 40
1
 40
1
 40
1
 40
1
 10
45.641694
 20
10.936993
 30
0.0
 10
45.592465
 20
10.936993
 30
0.0
 10
45.547581
 20
10.930750
 30
0.0
 10
45.519455
 20
10.927168
 30
0.0
  0
SPLINE
  5
314
100
AcDbEntity
  8
Camada_1
 62
7
100
AcDbSpline
 70
8
 71
3
 72
8
 73
4
 74
0
 40
0
 40
0
 40
0
 40
0
 40
1
 40
1
 40
1
 40
1
 10
45.519455
 20
10.927168
 30
0.0
 10
45.305325
 20
10.899955
 30
0.0
 10
45.150188
 20
10.810477
 30
0.0
 10
45.093826
 20
10.777451
 30
0.0
  0
SPLINE
  5
315
100
AcDbEntity
  8
Camada_1
 62
7
100
AcDbSpline
 70
8
 71
3
 72
8
 73
4
 74
0
 40
0
 40
0
 40
0
 40
0
 40
1
 40
1
 40
1
 40
1
 10
45.093826
 20
10.777451
 30
0.0
 10
44.948173
 20
10.692159
 30
0.0
 10
44.761798
 20
10.574363
 30
0.0
 10
44.550166
 20
10.417861
 30
0.0
  0
LWPOLYLINE
  5
316
100
AcDbEntity
  8
Camada_1
 62
7
100
AcDbPolyline
 90
1
 70
1
 10
38.672329
 20
9.930190
 30
0.0
  0
SPLINE
  5
317
100
AcDbEntity
  8
Camada_1
 62
7
100
AcDbSpline
 70
8
 71
3
 72
8
 73
4
 74
0
 40
0
 40
0
 40
0
 40
0
 40
1
 40
1
 40
1
 40
1
 10
44.648557
 20
10.180990
 30
0.0
 10
44.722151
 20
10.191951
 30
0.0
 10
44.830318
 20
10.209973
 30
0.0
 10
44.959965
 20
10.238557
 30
0.0
  0
SPLINE
  5
318
100
AcDbEntity
  8
Camada_1
 62
7
100
AcDbSpline
 70
8
 71
3
 72
8
 73
4
 74
0
 40
0
 40
0
 40
0
 40
0
 40
1
 40
1
 40
1
 40
1
 10
44.959965
 20
10.238557
 30
0.0
 10
45.179376
 20
10.286965
 30
0.0
 10
45.347047
 20
10.324822
 30
0.0
 10
45.526269
 20
10.428454
 30
0.0
  0
SPLINE
  5
319
100
AcDbEntity
  8
Camada_1
 62
7
100
AcDbSpline
 70
8
 71
3
 72
8
 73
4
 74
0
 40
0
 40
0
 40
0
 40
0
 40
1
 40
1
 40
1
 40
1
 10
45.526269
 20
10.428454
 30
0.0
 10
45.593479
 20
10.467323
 30
0.0
 10
45.666816
 20
10.517082
 30
0.0
 10
45.727661
 20
10.569972
 30
0.0
  0
SPLINE
  5
31a
100
AcDbEntity
  8
Camada_1
 62
7
100
AcDbSpline
 70
8
 71
3
 72
8
 73
4
 74
0
 40
0
 40
0
 40
0
 40
0
 40
1
 40
1
 40
1
 40
1
 10
45.727661
 20
10.569972
 30
0.0
 10
45.758084
 20
10.596418
 30
0.0
 10
45.785346
 20
10.622617
 30
0.0
 10
45.809421
 20
10.656728
 30
0.0
  0
SPLINE
  5
31b
100
AcDbEntity
  8
Camada_1
 62
7
100
AcDbSpline
 70
8
 71
3
 72
8
 73
4
 74
0
 40
0
 40
0
 40
0
 40
0
 40
1
 40
1
 40
1
 40
1
 10
45.809421
 20
10.656728
 30
0.0
 10
45.833495
 20
10.690829
 30
0.0
 10
45.873356
 20
10.748805
 30
0.0
 10
45.836874
 20
10.833228
 30
0.0
  0
SPLINE
  5
31c
100
AcDbEntity
  8
Camada_1
 62
7
100
AcDbSpline
 70
8
 71
3
 72
8
 73
4
 74
0
 40
0
 40
0
 40
0
 40
0
 40
1
 40
1
 40
1
 40
1
 10
45.836874
 20
10.833228
 30
0.0
 10
45.809956
 20
10.895523
 30
0.0
 10
45.756902
 20
10.917445
 30
0.0
 10
45.724455
 20
10.926574
 30
0.0
  0
SPLINE
  5
31d
100
AcDbEntity
  8
Camada_1
 62
7
100
AcDbSpline
 70
8
 71
3
 72
8
 73
4
 74
0
 40
0
 40
0
 40
0
 40
0
 40
1
 40
1
 40
1
 40
1
 10
45.724455
 20
10.926574
 30
0.0
 10
45.692008
 20
10.935683
 30
0.0
 10
45.666307
 20
10.936819
 30
0.0
 10
45.641694
 20
10.936962
 30
0.0
  0
LWPOLYLINE
  5
31e
100
AcDbEntity
  8
Camada_1
 62
7
100
AcDbPolyline
 90
2
 70
0
 10
44.550166
 20
10.417861
 30
0.0
 10
44.648557
 20
10.180990
 30
0.0
  0
LWPOLYLINE
  5
31f
100
AcDbEntity
  8
Camada_1
 62
7
100
AcDbPolyline
 90
1
 70
1
 10
45.641694
 20
10.936962
 30
0.0
  0
LWPOLYLINE
  5
320
100
AcDbEntity
  8
Camada_1
 62
7
100
AcDbPolyline
 90
1
 70
1
 10
44.629089
 20
10.311794
 30
0.0
  0
ENDSEC
  0
SECTION
  2
OBJECTS
  0
DICTIONARY
  5
C
330
0
100
AcDbDictionary
  3
ACAD_GROUP
350
D
  3
ACAD_MLINESTYLE
350
17
  0
DICTIONARY
  5
D
330
C
100
AcDbDictionary
  0
DICTIONARY
  5
1A
330
C
100
AcDbDictionary
  0
DICTIONARY
  5
17
330
C
100
AcDbDictionary
  3
STANDARD
350
18
  0
DICTIONARY
  5
19
330
C
100
AcDbDictionary
  0
ENDSEC
  0
EOF
