<?xml version="1.0" encoding="UTF-8" standalone="no"?>
<svg
   viewBox="0 0 487.87307 681.53731"
   width="487.87308"
   height="681.53729"
   version="1.1"
   id="svg365"
   sodipodi:docname="Beatriz_Troféu_1.svg"
   inkscape:version="1.1.2 (b8e25be833, 2022-02-05)"
   xmlns:inkscape="http://www.inkscape.org/namespaces/inkscape"
   xmlns:sodipodi="http://sodipodi.sourceforge.net/DTD/sodipodi-0.dtd"
   xmlns="http://www.w3.org/2000/svg"
   xmlns:svg="http://www.w3.org/2000/svg">
  <sodipodi:namedview
     id="namedview367"
     pagecolor="#ffffff"
     bordercolor="#666666"
     borderopacity="1.0"
     inkscape:pageshadow="2"
     inkscape:pageopacity="0.0"
     inkscape:pagecheckerboard="0"
     showgrid="false"
     inkscape:zoom="0.183293"
     inkscape:cx="1096.6049"
     inkscape:cy="-501.92861"
     inkscape:window-width="1920"
     inkscape:window-height="1009"
     inkscape:window-x="-8"
     inkscape:window-y="-8"
     inkscape:window-maximized="1"
     inkscape:current-layer="g363"
     fit-margin-top="0"
     fit-margin-left="0"
     fit-margin-right="0"
     fit-margin-bottom="0" />
  <desc
     id="desc2">Beatriz_Troféu_laser_3.dxf - scale = 25.4, origin = (0.0, 0.0), method = file</desc>
  <defs
     id="defs17">
    <marker
       id="DistanceX"
       orient="auto"
       refX="0"
       refY="0"
       style="overflow:visible">
      <path
         d="M 3,-3 -3,3 M 0,-5 V 5"
         style="stroke:#000000;stroke-width:0.5"
         id="path4" />
    </marker>
    <pattern
       id="Hatch"
       patternUnits="userSpaceOnUse"
       width="8"
       height="8"
       x="0"
       y="0">
      <path
         d="M8 4 l-4,4"
         stroke="#000000"
         stroke-width="0.25"
         linecap="square"
         id="path7" />
      <path
         d="M6 2 l-4,4"
         stroke="#000000"
         stroke-width="0.25"
         linecap="square"
         id="path9" />
      <path
         d="M4 0 l-4,4"
         stroke="#000000"
         stroke-width="0.25"
         linecap="square"
         id="path11" />
    </pattern>
    <symbol
       id="*Model_Space" />
    <symbol
       id="*Paper_Space" />
    <symbol
       id="*Paper_Space0" />
  </defs>
  <g
     inkscape:groupmode="layer"
     inkscape:label="0"
     id="g19"
     transform="translate(162.2799,-449.54094)" />
  <g
     inkscape:groupmode="layer"
     inkscape:label="Camada 1"
     id="g363"
     transform="translate(162.2799,-449.54094)">
    <g
       id="g2322"
       transform="matrix(0.38796495,0,0,0.38837417,-195.56993,-2302.4333)"
       style="stroke-width:2.57619">
      <path
         d="M 628.67372,7085.8838 Z"
         style="fill:#4c0000;stroke-width:2.57619"
         id="path95" />
      <path
         d="m 952.66251,7947.7399 c 32.94695,47.1354 105.53759,152.1842 169.54219,256.1941 21.7763,35.3873 40.214,66.7983 63.818,110.8869 10e-5,10e-5 61.4782,114.8319 123.283,282.7057 0,0 3e-4,9e-4 3e-4,9e-4 14.6585,37.0981 22.3085,68.9771 26.5576,92.4694 0.8874,4.9059 6.2631,35.4633 5.753,73.625 -0.1203,9.0063 -0.5635,18.0612 -3.2137,29.1994 -3.3672,14.1513 -9.1004,38.6015 -23.303,44.684 -14.1777,6.0719 -32.4595,-6.938 -48.4465,-17.838 -18.7068,-12.7541 -29.5481,-26.2291 -31.313,-28.459 -51.329,-64.8503 -81.6686,-123.5173 -81.6686,-123.5174 -30.0674,-58.4505 -53.3507,-104.4885 -66.8864,-131.3595 18.5648,7.773 37.1296,15.546 55.6943,23.3191 15.3259,30.7104 27.0958,55.1311 34.1219,69.833 15.8052,27.7939 65.948,114.6491 91.4447,135.3216 4.4183,3.5824 15.2371,12.3541 22.0196,9.3298 4.2199,-1.8818 5.1988,-7.5816 5.6426,-10.9046 4.0674,-30.4589 -4.1543,-64.065 -6.8427,-74.2875 -2.9948,-11.3876 -5.6618,-20.4636 -7.4784,-26.4611 -4.9564,-16.3634 -9.8586,-30.0655 -16.2333,-47.7682 -10.0748,-27.9782 -18.5793,-48.8005 -26.6456,-68.6011 -13.8438,-33.9831 -25.3573,-59.8704 -30.3875,-71.0558 -15.9547,-35.4778 -31.5139,-68.1333 -41.9156,-87.7062 -23.3372,-43.9136 -53.7845,-93.3636 -101.9079,-160.6731 -117.38723,-164.1882 -175.62245,-169.6886 -193.37992,-170.1528 -26.23682,-0.6859 -48.20944,7.4233 -63.13457,14.7645 40.91852,46.808 83.6327,101.0186 125.22877,162.9748 62.32806,92.836 107.35672,181.0348 140.18862,257.9143 -163.82927,-77.5124 -351.25692,-154.3961 -561.37029,-221.8653 -126.60392,-40.6536 -247.89337,-73.5377 -362.42186,-100.2216 -0.37058,-46.2829 -0.74116,-92.566 -1.11175,-138.8489 -19.19935,0.1537 -38.3988,0.3075 -57.59815,0.4612 -1.067895,-133.3717 -2.13579,-266.7433 -3.203685,-400.115 19.199345,-0.1537 38.398805,-0.3074 57.598155,-0.4611 -1.19638,-138.5618 -2.39265,-277.1235 -3.58902,-415.6852 22.77568,81.0396 67.17038,201.2965 157.30345,325.807 72.5722,100.2517 150.76856,170.0689 210.84916,215.7602 35.08296,-51.9695 70.16592,-103.939 105.24882,-155.9085 -52.92877,-80.9708 -105.85744,-161.9416 -158.78622,-242.9124 99.93452,49.18 220.70077,121.8975 338.75164,228.9949 48.34539,43.8597 89.69581,87.5526 124.95774,129.1121 8.56479,34.5268 16.31261,72.6044 22.21132,113.8935 6.02073,42.1431 9.24335,81.5297 10.6228,117.5509 z"
         style="fill:none;stroke:#4c0000;stroke-width:3.34905"
         id="path111" />
      <path
         d="m 645.22147,7880.8326 c -26.89945,-27.6516 -53.79897,-55.3032 -80.69841,-82.9548 3.6323,-16.8786 13.27695,-48.6032 41.65908,-77.0673 57.73432,-57.9012 142.34701,-51.5095 153.53243,-50.4942 -19.75379,12.1048 -53.5513,36.375 -79.73507,77.6707 -35.60503,56.1545 -35.97724,110.427 -34.75803,132.8456 z"
         style="fill:none;stroke:#4c0000;stroke-width:3.34905"
         id="path113" />
      <path
         d="m 773.3539,7680.9558 c -19.41831,18.0798 -52.04564,53.1901 -72.72888,106.2778 -22.29742,57.2309 -19.66298,106.9913 -16.36426,132.6983 24.77046,30.4553 49.54093,60.9107 74.31139,91.366 16.3762,-27.566 35.58933,-67.9691 44.54896,-119.1894 17.04165,-97.4233 -13.19097,-175.7849 -29.76721,-211.1527 z"
         style="fill:none;stroke:#4c0000;stroke-width:3.34905"
         id="path115" />
      <path
         d="m 629.18887,8093.9384 c -0.28686,-35.8266 -0.57372,-71.6533 -0.86058,-107.48 78.72559,105.2642 157.45114,210.5283 236.17674,315.7926 -79.47619,-34.5346 -163.0451,-68.7569 -250.63396,-102.1093 -94.07263,-35.8213 -185.37611,-67.8189 -273.38862,-96.446 -0.34733,-43.3784 -0.69466,-86.7568 -1.04198,-130.1352 121.98596,64.78 243.97188,129.5599 365.95785,194.3399 -25.40313,-24.6539 -50.80632,-49.308 -76.20945,-73.962 z"
         style="fill:none;stroke:#000000;stroke-width:2.57619"
         id="path117" />
      <path
         d="M 629.18887,8093.9384 Z"
         style="fill:#4c0000;stroke-width:2.57619"
         id="path119" />
      <path
         d="m 272.08259,7589.1749 c -21.69482,-9.0821 -43.38971,-18.1642 -65.08453,-27.2463 0.76828,95.9525 1.53656,191.905 2.30484,287.8575 21.69483,9.0821 43.38972,18.1641 65.08454,27.2463 -0.76828,-95.9526 -1.53657,-191.905 -2.30485,-287.8575 z"
         style="fill:none;stroke:#000000;stroke-width:2.57619"
         id="path121" />
      <path
         d="M 272.08259,7589.1749 Z"
         style="fill:#4c0000;stroke-width:2.57619"
         id="path123" />
      <path
         d="m 274.61793,7905.8181 c -21.69483,-9.0821 -43.38972,-18.1642 -65.08454,-27.2463 0.21515,26.87 0.43029,53.74 0.64544,80.61 21.69243,8.7836 43.38493,17.5671 65.07736,26.3507 -0.21275,-26.5715 -0.42551,-53.1429 -0.63826,-79.7144 z"
         style="fill:none;stroke:#000000;stroke-width:2.57619"
         id="path125" />
      <path
         d="M 274.61793,7905.8181 Z"
         style="fill:#4c0000;stroke-width:2.57619"
         id="path127" />
      <path
         d="m 275.48668,8014.3182 c -21.69482,-9.0821 -43.38972,-18.1642 -65.08454,-27.2463 0.12597,15.7322 0.25193,31.4645 0.3779,47.1967 21.68101,7.3571 43.36209,14.7142 65.0431,22.0713 -0.11215,-14.0072 -0.22431,-28.0145 -0.33646,-42.0217 z"
         style="fill:none;stroke:#000000;stroke-width:2.57619"
         id="path129" />
      <path
         d="M 275.48668,8014.3182 Z"
         style="fill:#4c0000;stroke-width:2.57619"
         id="path131" />
    </g>
  </g>
</svg>
