  0
SECTION
  2
HEADER
  9
$ACADVER
  1
AC1014
  9
$HANDSEED
  5
FFFF
  9
$MEASUREMENT
 70
     1
  0
ENDSEC
  0
SECTION
  2
TABLES
  0
TABLE
  2
VPORT
  5
8
330
0
100
AcDbSymbolTable
 70
     4
  0
VPORT
  5
2E
330
8
100
AcDbSymbolTableRecord
100
AcDbViewportTableRecord
  2
*ACTIVE
 70
     0
 10
0.0
 20
0.0
 11
1.0
 21
1.0
 12
210.0
 22
148.5
 13
0.0
 23
0.0
 14
10.0
 24
10.0
 15
10.0
 25
10.0
 16
0.0
 26
0.0
 36
1.0
 17
0.0
 27
0.0
 37
0.0
 40
341.0
 41
1.24
 42
50.0
 43
0.0
 44
0.0
 50
0.0
 51
0.0
 71
     0
 72
   100
 73
     1
 74
     3
 75
     0
 76
     0
 77
     0
 78
     0
  0
ENDTAB
  0
TABLE
  2
LTYPE
  5
5
330
0
100
AcDbSymbolTable
 70
     1
  0
LTYPE
  5
14
330
5
100
AcDbSymbolTableRecord
100
AcDbLinetypeTableRecord
  2
BYBLOCK
 70
     0
  3

 72
    65
 73
     0
 40
0.0
  0
LTYPE
  5
15
330
5
100
AcDbSymbolTableRecord
100
AcDbLinetypeTableRecord
  2
BYLAYER
 70
     0
  3

 72
    65
 73
     0
 40
0.0
  0
LTYPE
  5
16
330
5
100
AcDbSymbolTableRecord
100
AcDbLinetypeTableRecord
  2
CONTINUOUS
 70
     0
  3
Solid line
 72
    65
 73
     0
 40
0.0
  0
ENDTAB
  0
TABLE
  2
LAYER
  5
2
100
AcDbSymbolTable
 70
2
  0
LAYER
  5
50
100
AcDbSymbolTableRecord
100
AcDbLayerTableRecord
  2
0
 70
0
  6
CONTINUOUS
  0
LAYER
  5
51
100
AcDbSymbolTableRecord
100
AcDbLayerTableRecord
  2
Camada_1
 70
0
  6
CONTINUOUS
  0
ENDTAB
  0
TABLE
  2
STYLE
  5
3
330
0
100
AcDbSymbolTable
 70
     1
  0
STYLE
  5
11
330
3
100
AcDbSymbolTableRecord
100
AcDbTextStyleTableRecord
  2
STANDARD
 70
     0
 40
0.0
 41
1.0
 50
0.0
 71
     0
 42
2.5
  3
txt
  4

  0
ENDTAB
  0
TABLE
  2
VIEW
  5
6
330
0
100
AcDbSymbolTable
 70
     0
  0
ENDTAB
  0
TABLE
  2
UCS
  5
7
330
0
100
AcDbSymbolTable
 70
     0
  0
ENDTAB
  0
TABLE
  2
APPID
  5
9
330
0
100
AcDbSymbolTable
 70
     2
  0
APPID
  5
12
330
9
100
AcDbSymbolTableRecord
100
AcDbRegAppTableRecord
  2
ACAD
 70
     0
  0
ENDTAB
  0
TABLE
  2
DIMSTYLE
  5
A
330
0
100
AcDbSymbolTable
 70
     1
  0
DIMSTYLE
105
27
330
A
100
AcDbSymbolTableRecord
100
AcDbDimStyleTableRecord
  2
ISO-25
 70
     0
  3

  4

  5

  6

  7

 40
1.0
 41
2.5
 42
0.625
 43
3.75
 44
1.25
 45
0.0
 46
0.0
 47
0.0
 48
0.0
140
2.5
141
2.5
142
0.0
143
0.03937007874016
144
1.0
145
0.0
146
1.0
147
0.625
 71
     0
 72
     0
 73
     0
 74
     0
 75
     0
 76
     0
 77
     1
 78
     8
170
     0
171
     3
172
     1
173
     0
174
     0
175
     0
176
     0
177
     0
178
     0
270
     2
271
     2
272
     2
273
     2
274
     3
340
11
275
     0
280
     0
281
     0
282
     0
283
     0
284
     8
285
     0
286
     0
287
     3
288
     0
  0
ENDTAB
  0
TABLE
  2
BLOCK_RECORD
  5
1
330
0
100
AcDbSymbolTable
 70
     1
  0
BLOCK_RECORD
  5
1F
330
1
100
AcDbSymbolTableRecord
100
AcDbBlockTableRecord
  2
*MODEL_SPACE
  0
BLOCK_RECORD
  5
1B
330
1
100
AcDbSymbolTableRecord
100
AcDbBlockTableRecord
  2
*PAPER_SPACE
  0
ENDTAB
  0
ENDSEC
  0
SECTION
  2
BLOCKS
  0
BLOCK
  5
20
330
1F
100
AcDbEntity
  8
0
100
AcDbBlockBegin
  2
*MODEL_SPACE
 70
     0
 10
0.0
 20
0.0
 30
0.0
  3
*MODEL_SPACE
  1

  0
ENDBLK
  5
21
330
1F
100
AcDbEntity
  8
0
100
AcDbBlockEnd
  0
BLOCK
  5
1C
330
1B
100
AcDbEntity
 67
     1
  8
0
100
AcDbBlockBegin
  2
*PAPER_SPACE
  1

  0
ENDBLK
  5
1D
330
1B
100
AcDbEntity
 67
     1
  8
0
100
AcDbBlockEnd
  0
ENDSEC
  0
SECTION
  2
ENTITIES
  0
SPLINE
  5
100
100
AcDbEntity
  8
Camada_1
 62
7
100
AcDbSpline
 70
8
 71
3
 72
8
 73
4
 74
0
 40
0
 40
0
 40
0
 40
0
 40
1
 40
1
 40
1
 40
1
 10
-43.441856
 20
-23.976597
 30
0.0
 10
-38.737075
 20
-23.511734
 30
0.0
 10
-34.410550
 20
-21.750496
 30
0.0
 10
-30.682780
 20
-18.782646
 30
0.0
  0
SPLINE
  5
101
100
AcDbEntity
  8
Camada_1
 62
7
100
AcDbSpline
 70
8
 71
3
 72
8
 73
4
 74
0
 40
0
 40
0
 40
0
 40
0
 40
1
 40
1
 40
1
 40
1
 10
-30.682780
 20
-18.782646
 30
0.0
 10
-29.615329
 20
-17.932805
 30
0.0
 10
-27.811508
 20
-16.135746
 30
0.0
 10
-26.977898
 20
-15.091663
 30
0.0
  0
SPLINE
  5
102
100
AcDbEntity
  8
Camada_1
 62
7
100
AcDbSpline
 70
8
 71
3
 72
8
 73
4
 74
0
 40
0
 40
0
 40
0
 40
0
 40
1
 40
1
 40
1
 40
1
 10
-26.977898
 20
-15.091663
 30
0.0
 10
-22.016527
 20
-8.877577
 30
0.0
 10
-20.427734
 20
-0.852189
 30
0.0
 10
-22.646880
 20
6.785351
 30
0.0
  0
SPLINE
  5
103
100
AcDbEntity
  8
Camada_1
 62
7
100
AcDbSpline
 70
8
 71
3
 72
8
 73
4
 74
0
 40
0
 40
0
 40
0
 40
0
 40
1
 40
1
 40
1
 40
1
 10
-22.646880
 20
6.785351
 30
0.0
 10
-23.679560
 20
10.339459
 30
0.0
 10
-25.776242
 20
13.906376
 30
0.0
 10
-28.467317
 20
16.687166
 30
0.0
  0
SPLINE
  5
104
100
AcDbEntity
  8
Camada_1
 62
7
100
AcDbSpline
 70
8
 71
3
 72
8
 73
4
 74
0
 40
0
 40
0
 40
0
 40
0
 40
1
 40
1
 40
1
 40
1
 10
-28.467317
 20
16.687166
 30
0.0
 10
-32.418872
 20
20.770453
 30
0.0
 10
-37.560455
 20
23.273732
 30
0.0
 10
-43.295225
 20
23.906398
 30
0.0
  0
SPLINE
  5
105
100
AcDbEntity
  8
Camada_1
 62
7
100
AcDbSpline
 70
8
 71
3
 72
8
 73
4
 74
0
 40
0
 40
0
 40
0
 40
0
 40
1
 40
1
 40
1
 40
1
 10
-43.295225
 20
23.906398
 30
0.0
 10
-44.513030
 20
24.040753
 30
0.0
 10
-47.160051
 20
24.018525
 30
0.0
 10
-48.470168
 20
23.863010
 30
0.0
  0
SPLINE
  5
106
100
AcDbEntity
  8
Camada_1
 62
7
100
AcDbSpline
 70
8
 71
3
 72
8
 73
4
 74
0
 40
0
 40
0
 40
0
 40
0
 40
1
 40
1
 40
1
 40
1
 10
-48.470168
 20
23.863010
 30
0.0
 10
-55.755439
 20
22.997911
 30
0.0
 10
-62.204067
 20
18.901758
 30
0.0
 10
-66.136774
 20
12.641225
 30
0.0
  0
SPLINE
  5
107
100
AcDbEntity
  8
Camada_1
 62
7
100
AcDbSpline
 70
8
 71
3
 72
8
 73
4
 74
0
 40
0
 40
0
 40
0
 40
0
 40
1
 40
1
 40
1
 40
1
 10
-66.136774
 20
12.641225
 30
0.0
 10
-67.547414
 20
10.395595
 30
0.0
 10
-68.635085
 20
7.754055
 30
0.0
 10
-69.210976
 20
5.175086
 30
0.0
  0
SPLINE
  5
108
100
AcDbEntity
  8
Camada_1
 62
7
100
AcDbSpline
 70
8
 71
3
 72
8
 73
4
 74
0
 40
0
 40
0
 40
0
 40
0
 40
1
 40
1
 40
1
 40
1
 10
-69.210976
 20
5.175086
 30
0.0
 10
-69.851931
 20
2.304802
 30
0.0
 10
-69.935669
 20
-1.146762
 30
0.0
 10
-69.435244
 20
-4.068698
 30
0.0
  0
SPLINE
  5
109
100
AcDbEntity
  8
Camada_1
 62
7
100
AcDbSpline
 70
8
 71
3
 72
8
 73
4
 74
0
 40
0
 40
0
 40
0
 40
0
 40
1
 40
1
 40
1
 40
1
 10
-69.435244
 20
-4.068698
 30
0.0
 10
-68.755604
 20
-8.037040
 30
0.0
 10
-67.074459
 20
-11.781229
 30
0.0
 10
-64.529268
 20
-14.995158
 30
0.0
  0
SPLINE
  5
10a
100
AcDbEntity
  8
Camada_1
 62
7
100
AcDbSpline
 70
8
 71
3
 72
8
 73
4
 74
0
 40
0
 40
0
 40
0
 40
0
 40
1
 40
1
 40
1
 40
1
 10
-64.529268
 20
-14.995158
 30
0.0
 10
-63.730773
 20
-16.003465
 30
0.0
 10
-61.747419
 20
-17.992310
 30
0.0
 10
-60.755715
 20
-18.779165
 30
0.0
  0
SPLINE
  5
10b
100
AcDbEntity
  8
Camada_1
 62
7
100
AcDbSpline
 70
8
 71
3
 72
8
 73
4
 74
0
 40
0
 40
0
 40
0
 40
0
 40
1
 40
1
 40
1
 40
1
 10
-60.755715
 20
-18.779165
 30
0.0
 10
-57.178940
 20
-21.617121
 30
0.0
 10
-52.952281
 20
-23.405210
 30
0.0
 10
-48.667691
 20
-23.893010
 30
0.0
  0
SPLINE
  5
10c
100
AcDbEntity
  8
Camada_1
 62
7
100
AcDbSpline
 70
8
 71
3
 72
8
 73
4
 74
0
 40
0
 40
0
 40
0
 40
0
 40
1
 40
1
 40
1
 40
1
 10
-48.667691
 20
-23.893010
 30
0.0
 10
-48.254867
 20
-23.940036
 30
0.0
 10
-47.810455
 20
-23.990891
 30
0.0
 10
-47.680093
 20
-24.006093
 30
0.0
  0
SPLINE
  5
10d
100
AcDbEntity
  8
Camada_1
 62
7
100
AcDbSpline
 70
8
 71
3
 72
8
 73
4
 74
0
 40
0
 40
0
 40
0
 40
0
 40
1
 40
1
 40
1
 40
1
 10
-47.680093
 20
-24.006093
 30
0.0
 10
-47.122230
 20
-24.071135
 30
0.0
 10
-44.192335
 20
-24.050699
 30
0.0
 10
-43.441856
 20
-23.976498
 30
0.0
  0
LWPOLYLINE
  5
10e
100
AcDbEntity
  8
Camada_1
 62
7
100
AcDbPolyline
 90
8
 70
1
 10
-69.999501
 20
0.000100
 30
0.0
 10
-69.999501
 20
24.373671
 30
0.0
 10
-45.665422
 20
24.373671
 30
0.0
 10
-21.331363
 20
24.373671
 30
0.0
 10
-21.331363
 20
0.000100
 30
0.0
 10
-21.331363
 20
-24.373478
 30
0.0
 10
-45.665422
 20
-24.373478
 30
0.0
 10
-69.999501
 20
-24.373478
 30
0.0
  0
LWPOLYLINE
  5
10f
100
AcDbEntity
  8
Camada_1
 62
7
100
AcDbPolyline
 90
1
 70
1
 10
-43.441856
 20
-23.976498
 30
0.0
  0
SPLINE
  5
110
100
AcDbEntity
  8
Camada_1
 62
7
100
AcDbSpline
 70
8
 71
3
 72
8
 73
4
 74
0
 40
0
 40
0
 40
0
 40
0
 40
1
 40
1
 40
1
 40
1
 10
-44.073912
 20
-16.627499
 30
0.0
 10
-36.462378
 20
-15.861637
 30
0.0
 10
-30.251039
 20
-9.894933
 30
0.0
 10
-29.196791
 20
-2.336327
 30
0.0
  0
SPLINE
  5
111
100
AcDbEntity
  8
Camada_1
 62
7
100
AcDbSpline
 70
8
 71
3
 72
8
 73
4
 74
0
 40
0
 40
0
 40
0
 40
0
 40
1
 40
1
 40
1
 40
1
 10
-29.196791
 20
-2.336327
 30
0.0
 10
-29.039388
 20
-1.207816
 30
0.0
 10
-29.037248
 20
1.143196
 30
0.0
 10
-29.192158
 20
2.236272
 30
0.0
  0
SPLINE
  5
112
100
AcDbEntity
  8
Camada_1
 62
7
100
AcDbSpline
 70
8
 71
3
 72
8
 73
4
 74
0
 40
0
 40
0
 40
0
 40
0
 40
1
 40
1
 40
1
 40
1
 10
-29.192158
 20
2.236272
 30
0.0
 10
-29.978010
 20
7.764711
 30
0.0
 10
-33.411974
 20
12.483206
 30
0.0
 10
-38.435841
 20
14.937696
 30
0.0
  0
SPLINE
  5
113
100
AcDbEntity
  8
Camada_1
 62
7
100
AcDbSpline
 70
8
 71
3
 72
8
 73
4
 74
0
 40
0
 40
0
 40
0
 40
0
 40
1
 40
1
 40
1
 40
1
 10
-38.435841
 20
14.937696
 30
0.0
 10
-41.834586
 20
16.598202
 30
0.0
 10
-45.608449
 20
17.047045
 30
0.0
 10
-49.338766
 20
16.234438
 30
0.0
  0
SPLINE
  5
114
100
AcDbEntity
  8
Camada_1
 62
7
100
AcDbSpline
 70
8
 71
3
 72
8
 73
4
 74
0
 40
0
 40
0
 40
0
 40
0
 40
1
 40
1
 40
1
 40
1
 10
-49.338766
 20
16.234438
 30
0.0
 10
-51.740042
 20
15.711351
 30
0.0
 10
-54.418537
 20
14.396102
 30
0.0
 10
-56.322917
 20
12.804947
 30
0.0
  0
SPLINE
  5
115
100
AcDbEntity
  8
Camada_1
 62
7
100
AcDbSpline
 70
8
 71
3
 72
8
 73
4
 74
0
 40
0
 40
0
 40
0
 40
0
 40
1
 40
1
 40
1
 40
1
 10
-56.322917
 20
12.804947
 30
0.0
 10
-63.816385
 20
6.543971
 30
0.0
 10
-64.452115
 20
-4.559637
 30
0.0
 10
-57.718230
 20
-11.565325
 30
0.0
  0
SPLINE
  5
116
100
AcDbEntity
  8
Camada_1
 62
7
100
AcDbSpline
 70
8
 71
3
 72
8
 73
4
 74
0
 40
0
 40
0
 40
0
 40
0
 40
1
 40
1
 40
1
 40
1
 10
-57.718230
 20
-11.565325
 30
0.0
 10
-54.173203
 20
-15.253437
 30
0.0
 10
-49.104918
 20
-17.133750
 30
0.0
 10
-44.073449
 20
-16.627499
 30
0.0
  0
LWPOLYLINE
  5
117
100
AcDbEntity
  8
Camada_1
 62
7
100
AcDbPolyline
 90
8
 70
1
 10
-62.572862
 20
-0.039402
 30
0.0
 10
-62.572862
 20
16.868036
 30
0.0
 10
-45.704934
 20
16.868036
 30
0.0
 10
-28.836996
 20
16.868036
 30
0.0
 10
-28.836996
 20
-0.039402
 30
0.0
 10
-28.836996
 20
-16.946842
 30
0.0
 10
-45.704934
 20
-16.946842
 30
0.0
 10
-62.572862
 20
-16.946842
 30
0.0
  0
LWPOLYLINE
  5
118
100
AcDbEntity
  8
Camada_1
 62
7
100
AcDbPolyline
 90
2
 70
0
 10
-44.073449
 20
-16.627499
 30
0.0
 10
-44.073912
 20
-16.627499
 30
0.0
  0
SPLINE
  5
119
100
AcDbEntity
  8
Camada_1
 62
7
100
AcDbSpline
 70
8
 71
3
 72
8
 73
4
 74
0
 40
0
 40
0
 40
0
 40
0
 40
1
 40
1
 40
1
 40
1
 10
40.293875
 20
-9.237331
 30
0.0
 10
40.185239
 20
-9.219280
 30
0.0
 10
39.776377
 20
-9.164920
 30
0.0
 10
39.385296
 20
-9.116405
 30
0.0
  0
SPLINE
  5
11a
100
AcDbEntity
  8
Camada_1
 62
7
100
AcDbSpline
 70
8
 71
3
 72
8
 73
4
 74
0
 40
0
 40
0
 40
0
 40
0
 40
1
 40
1
 40
1
 40
1
 10
39.385296
 20
-9.116405
 30
0.0
 10
38.507366
 20
-9.007496
 30
0.0
 10
37.516175
 20
-8.726890
 30
0.0
 10
36.886268
 20
-8.408911
 30
0.0
  0
SPLINE
  5
11b
100
AcDbEntity
  8
Camada_1
 62
7
100
AcDbSpline
 70
8
 71
3
 72
8
 73
4
 74
0
 40
0
 40
0
 40
0
 40
0
 40
1
 40
1
 40
1
 40
1
 10
36.886268
 20
-8.408911
 30
0.0
 10
35.942195
 20
-7.932339
 30
0.0
 10
35.406578
 20
-7.222790
 30
0.0
 10
35.060087
 20
-5.989708
 30
0.0
  0
SPLINE
  5
11c
100
AcDbEntity
  8
Camada_1
 62
7
100
AcDbSpline
 70
8
 71
3
 72
8
 73
4
 74
0
 40
0
 40
0
 40
0
 40
0
 40
1
 40
1
 40
1
 40
1
 10
35.060087
 20
-5.989708
 30
0.0
 10
34.888413
 20
-5.378746
 30
0.0
 10
34.886344
 20
-5.300149
 30
0.0
 10
34.860914
 20
1.599985
 30
0.0
  0
LWPOLYLINE
  5
11d
100
AcDbEntity
  8
Camada_1
 62
7
100
AcDbPolyline
 90
8
 70
1
 10
-9.717374
 20
-21.055195
 30
0.0
 10
-9.717374
 20
-17.736912
 30
0.0
 10
30.141512
 20
-17.736912
 30
0.0
 10
70.000392
 20
-17.736912
 30
0.0
 10
70.000392
 20
-21.055195
 30
0.0
 10
70.000392
 20
-24.373478
 30
0.0
 10
30.141512
 20
-24.373478
 30
0.0
 10
-9.717374
 20
-24.373478
 30
0.0
  0
SPLINE
  5
11e
100
AcDbEntity
  8
Camada_1
 62
7
100
AcDbSpline
 70
8
 71
3
 72
8
 73
4
 74
0
 40
0
 40
0
 40
0
 40
0
 40
1
 40
1
 40
1
 40
1
 10
39.582849
 20
2.382098
 30
0.0
 10
39.582849
 20
-2.084243
 30
0.0
 10
39.608227
 20
-3.882934
 30
0.0
 10
39.673922
 20
-4.076705
 30
0.0
  0
SPLINE
  5
11f
100
AcDbEntity
  8
Camada_1
 62
7
100
AcDbSpline
 70
8
 71
3
 72
8
 73
4
 74
0
 40
0
 40
0
 40
0
 40
0
 40
1
 40
1
 40
1
 40
1
 10
39.673922
 20
-4.076705
 30
0.0
 10
39.820819
 20
-4.509806
 30
0.0
 10
40.033115
 20
-4.754072
 30
0.0
 10
40.432708
 20
-4.949759
 30
0.0
  0
SPLINE
  5
120
100
AcDbEntity
  8
Camada_1
 62
7
100
AcDbSpline
 70
8
 71
3
 72
8
 73
4
 74
0
 40
0
 40
0
 40
0
 40
0
 40
1
 40
1
 40
1
 40
1
 10
40.432708
 20
-4.949759
 30
0.0
 10
40.776915
 20
-5.118322
 30
0.0
 10
40.930521
 20
-5.135624
 30
0.0
 10
42.319330
 20
-5.162265
 30
0.0
  0
SPLINE
  5
121
100
AcDbEntity
  8
Camada_1
 62
7
100
AcDbSpline
 70
8
 71
3
 72
8
 73
4
 74
0
 40
0
 40
0
 40
0
 40
0
 40
1
 40
1
 40
1
 40
1
 10
42.319330
 20
-5.162265
 30
0.0
 10
43.536587
 20
-5.185633
 30
0.0
 10
43.916022
 20
-5.166898
 30
0.0
 10
44.266356
 20
-5.064777
 30
0.0
  0
SPLINE
  5
122
100
AcDbEntity
  8
Camada_1
 62
7
100
AcDbSpline
 70
8
 71
3
 72
8
 73
4
 74
0
 40
0
 40
0
 40
0
 40
0
 40
1
 40
1
 40
1
 40
1
 10
44.266356
 20
-5.064777
 30
0.0
 10
44.769000
 20
-4.918657
 30
0.0
 10
45.135838
 20
-4.561381
 30
0.0
 10
45.266562
 20
-4.090658
 30
0.0
  0
SPLINE
  5
123
100
AcDbEntity
  8
Camada_1
 62
7
100
AcDbSpline
 70
8
 71
3
 72
8
 73
4
 74
0
 40
0
 40
0
 40
0
 40
0
 40
1
 40
1
 40
1
 40
1
 10
45.266562
 20
-4.090658
 30
0.0
 10
45.321156
 20
-3.894175
 30
0.0
 10
45.349617
 20
-1.680196
 30
0.0
 10
45.349898
 20
2.390055
 30
0.0
  0
LWPOLYLINE
  5
124
100
AcDbEntity
  8
Camada_1
 62
7
100
AcDbPolyline
 90
5
 70
0
 10
34.860914
 20
1.599985
 30
0.0
 10
34.835252
 20
8.572331
 30
0.0
 10
37.209044
 20
8.572331
 30
0.0
 10
39.582849
 20
8.572331
 30
0.0
 10
39.582849
 20
2.382098
 30
0.0
  0
SPLINE
  5
125
100
AcDbEntity
  8
Camada_1
 62
7
100
AcDbSpline
 70
8
 71
3
 72
8
 73
4
 74
0
 40
0
 40
0
 40
0
 40
0
 40
1
 40
1
 40
1
 40
1
 10
50.090549
 20
2.104130
 30
0.0
 10
50.090549
 20
-3.294732
 30
0.0
 10
50.070953
 20
-4.476587
 30
0.0
 10
49.971868
 20
-5.044622
 30
0.0
  0
SPLINE
  5
126
100
AcDbEntity
  8
Camada_1
 62
7
100
AcDbSpline
 70
8
 71
3
 72
8
 73
4
 74
0
 40
0
 40
0
 40
0
 40
0
 40
1
 40
1
 40
1
 40
1
 10
49.971868
 20
-5.044622
 30
0.0
 10
49.570122
 20
-7.348474
 30
0.0
 10
48.398897
 20
-8.512367
 30
0.0
 10
45.941392
 20
-9.049897
 30
0.0
  0
SPLINE
  5
127
100
AcDbEntity
  8
Camada_1
 62
7
100
AcDbSpline
 70
8
 71
3
 72
8
 73
4
 74
0
 40
0
 40
0
 40
0
 40
0
 40
1
 40
1
 40
1
 40
1
 10
45.941392
 20
-9.049897
 30
0.0
 10
45.249089
 20
-9.201331
 30
0.0
 10
44.867625
 20
-9.225329
 30
0.0
 10
42.821938
 20
-9.246235
 30
0.0
  0
SPLINE
  5
128
100
AcDbEntity
  8
Camada_1
 62
7
100
AcDbSpline
 70
8
 71
3
 72
8
 73
4
 74
0
 40
0
 40
0
 40
0
 40
0
 40
1
 40
1
 40
1
 40
1
 10
42.821938
 20
-9.246235
 30
0.0
 10
41.540048
 20
-9.259324
 30
0.0
 10
40.402353
 20
-9.255603
 30
0.0
 10
40.293720
 20
-9.236868
 30
0.0
  0
LWPOLYLINE
  5
129
100
AcDbEntity
  8
Camada_1
 62
7
100
AcDbPolyline
 90
5
 70
0
 10
45.349898
 20
2.390055
 30
0.0
 10
45.350149
 20
8.572331
 30
0.0
 10
47.720346
 20
8.572331
 30
0.0
 10
50.090549
 20
8.572331
 30
0.0
 10
50.090549
 20
2.104130
 30
0.0
  0
LWPOLYLINE
  5
12a
100
AcDbEntity
  8
Camada_1
 62
7
100
AcDbPolyline
 90
2
 70
0
 10
40.293720
 20
-9.236868
 30
0.0
 10
40.293875
 20
-9.237331
 30
0.0
  0
SPLINE
  5
12b
100
AcDbEntity
  8
Camada_1
 62
7
100
AcDbSpline
 70
8
 71
3
 72
8
 73
4
 74
0
 40
0
 40
0
 40
0
 40
0
 40
1
 40
1
 40
1
 40
1
 10
-0.716555
 20
8.039038
 30
0.0
 10
1.260565
 20
1.429938
 30
0.0
 10
2.499683
 20
-2.567620
 30
0.0
 10
2.571185
 20
-2.567620
 30
0.0
  0
SPLINE
  5
12c
100
AcDbEntity
  8
Camada_1
 62
7
100
AcDbSpline
 70
8
 71
3
 72
8
 73
4
 74
0
 40
0
 40
0
 40
0
 40
0
 40
1
 40
1
 40
1
 40
1
 10
2.571185
 20
-2.567620
 30
0.0
 10
2.621759
 20
-2.567620
 30
0.0
 10
3.361339
 20
-0.145391
 30
0.0
 10
4.271842
 20
3.002351
 30
0.0
  0
LWPOLYLINE
  5
12d
100
AcDbEntity
  8
Camada_1
 62
7
100
AcDbPolyline
 90
5
 70
0
 10
-8.374267
 20
-0.315929
 30
0.0
 10
-8.374267
 20
8.572331
 30
0.0
 10
-4.625173
 20
8.572331
 30
0.0
 10
-0.876090
 20
8.572331
 30
0.0
 10
-0.716555
 20
8.039038
 30
0.0
  0
SPLINE
  5
12e
100
AcDbEntity
  8
Camada_1
 62
7
100
AcDbSpline
 70
8
 71
3
 72
8
 73
4
 74
0
 40
0
 40
0
 40
0
 40
0
 40
1
 40
1
 40
1
 40
1
 10
8.897414
 20
-7.249849
 30
0.0
 10
8.931192
 20
-6.173712
 30
0.0
 10
9.036447
 20
-3.124513
 30
0.0
 10
9.131393
 20
-0.473831
 30
0.0
  0
SPLINE
  5
12f
100
AcDbEntity
  8
Camada_1
 62
7
100
AcDbSpline
 70
8
 71
3
 72
8
 73
4
 74
0
 40
0
 40
0
 40
0
 40
0
 40
1
 40
1
 40
1
 40
1
 10
9.131393
 20
-0.473831
 30
0.0
 10
9.226319
 20
2.176845
 30
0.0
 10
9.296483
 20
4.354459
 30
0.0
 10
9.287300
 20
4.365330
 30
0.0
  0
SPLINE
  5
130
100
AcDbEntity
  8
Camada_1
 62
7
100
AcDbSpline
 70
8
 71
3
 72
8
 73
4
 74
0
 40
0
 40
0
 40
0
 40
0
 40
1
 40
1
 40
1
 40
1
 10
9.287300
 20
4.365330
 30
0.0
 10
9.181128
 20
4.490922
 30
0.0
 10
8.808179
 20
3.443523
 30
0.0
 10
6.874988
 20
-2.409493
 30
0.0
  0
LWPOLYLINE
  5
131
100
AcDbEntity
  8
Camada_1
 62
7
100
AcDbPolyline
 90
9
 70
0
 10
4.271842
 20
3.002351
 30
0.0
 10
5.883005
 20
8.572331
 30
0.0
 10
9.736639
 20
8.572331
 30
0.0
 10
13.590280
 20
8.572331
 30
0.0
 10
13.570229
 20
-0.296177
 30
0.0
 10
13.550178
 20
-9.164674
 30
0.0
 10
11.193141
 20
-9.185561
 30
0.0
 10
8.836108
 20
-9.206447
 30
0.0
 10
8.897414
 20
-7.249849
 30
0.0
  0
SPLINE
  5
132
100
AcDbEntity
  8
Camada_1
 62
7
100
AcDbSpline
 70
8
 71
3
 72
8
 73
4
 74
0
 40
0
 40
0
 40
0
 40
0
 40
1
 40
1
 40
1
 40
1
 10
-1.687930
 20
-2.408320
 30
0.0
 10
-2.942481
 20
1.328225
 30
0.0
 10
-4.002428
 20
4.385401
 30
0.0
 10
-4.043388
 20
4.385401
 30
0.0
  0
SPLINE
  5
133
100
AcDbEntity
  8
Camada_1
 62
7
100
AcDbSpline
 70
8
 71
3
 72
8
 73
4
 74
0
 40
0
 40
0
 40
0
 40
0
 40
1
 40
1
 40
1
 40
1
 10
-4.043388
 20
4.385401
 30
0.0
 10
-4.123177
 20
4.385401
 30
0.0
 10
-4.112445
 20
3.971590
 30
0.0
 10
-3.821682
 20
-4.185490
 30
0.0
  0
SPLINE
  5
134
100
AcDbEntity
  8
Camada_1
 62
7
100
AcDbSpline
 70
8
 71
3
 72
8
 73
4
 74
0
 40
0
 40
0
 40
0
 40
0
 40
1
 40
1
 40
1
 40
1
 10
-3.821682
 20
-4.185490
 30
0.0
 10
-3.724151
 20
-6.922343
 30
0.0
 10
-3.653820
 20
-9.171067
 30
0.0
 10
-3.665415
 20
-9.182667
 30
0.0
  0
SPLINE
  5
135
100
AcDbEntity
  8
Camada_1
 62
7
100
AcDbSpline
 70
8
 71
3
 72
8
 73
4
 74
0
 40
0
 40
0
 40
0
 40
0
 40
1
 40
1
 40
1
 40
1
 10
-3.665415
 20
-9.182667
 30
0.0
 10
-3.676960
 20
-9.194212
 30
0.0
 10
-4.741228
 20
-9.203756
 30
0.0
 10
-6.030357
 20
-9.203756
 30
0.0
  0
LWPOLYLINE
  5
136
100
AcDbEntity
  8
Camada_1
 62
7
100
AcDbPolyline
 90
5
 70
0
 10
6.874988
 20
-2.409493
 30
0.0
 10
4.630819
 20
-9.204080
 30
0.0
 10
2.611931
 20
-9.203067
 30
0.0
 10
0.593042
 20
-9.202055
 30
0.0
 10
-1.687930
 20
-2.408320
 30
0.0
  0
SPLINE
  5
137
100
AcDbEntity
  8
Camada_1
 62
7
100
AcDbSpline
 70
8
 71
3
 72
8
 73
4
 74
0
 40
0
 40
0
 40
0
 40
0
 40
1
 40
1
 40
1
 40
1
 10
15.275661
 20
-8.986911
 30
0.0
 10
15.347237
 20
-8.653673
 30
0.0
 10
20.517202
 20
8.494666
 30
0.0
 10
20.558548
 20
8.536016
 30
0.0
  0
SPLINE
  5
138
100
AcDbEntity
  8
Camada_1
 62
7
100
AcDbSpline
 70
8
 71
3
 72
8
 73
4
 74
0
 40
0
 40
0
 40
0
 40
0
 40
1
 40
1
 40
1
 40
1
 10
20.558548
 20
8.536016
 30
0.0
 10
20.578548
 20
8.555966
 30
0.0
 10
22.194872
 20
8.572313
 30
0.0
 10
24.150435
 20
8.572313
 30
0.0
  0
LWPOLYLINE
  5
139
100
AcDbEntity
  8
Camada_1
 62
7
100
AcDbPolyline
 90
3
 70
0
 10
-6.030357
 20
-9.203756
 30
0.0
 10
-8.374227
 20
-9.203756
 30
0.0
 10
-8.374267
 20
-0.315929
 30
0.0
  0
SPLINE
  5
13a
100
AcDbEntity
  8
Camada_1
 62
7
100
AcDbSpline
 70
8
 71
3
 72
8
 73
4
 74
0
 40
0
 40
0
 40
0
 40
0
 40
1
 40
1
 40
1
 40
1
 10
30.403540
 20
-0.291207
 30
0.0
 10
31.887179
 20
-5.166136
 30
0.0
 10
33.089934
 20
-9.165854
 30
0.0
 10
33.076324
 20
-9.179469
 30
0.0
  0
SPLINE
  5
13b
100
AcDbEntity
  8
Camada_1
 62
7
100
AcDbSpline
 70
8
 71
3
 72
8
 73
4
 74
0
 40
0
 40
0
 40
0
 40
0
 40
1
 40
1
 40
1
 40
1
 10
33.076324
 20
-9.179469
 30
0.0
 10
33.062703
 20
-9.193090
 30
0.0
 10
31.984154
 20
-9.204179
 30
0.0
 10
30.679508
 20
-9.204179
 30
0.0
  0
LWPOLYLINE
  5
13c
100
AcDbEntity
  8
Camada_1
 62
7
100
AcDbPolyline
 90
3
 70
0
 10
24.150435
 20
8.572313
 30
0.0
 10
27.705997
 20
8.572313
 30
0.0
 10
30.403540
 20
-0.291207
 30
0.0
  0
SPLINE
  5
13d
100
AcDbEntity
  8
Camada_1
 62
7
100
AcDbSpline
 70
8
 71
3
 72
8
 73
4
 74
0
 40
0
 40
0
 40
0
 40
0
 40
1
 40
1
 40
1
 40
1
 10
26.388688
 20
-2.587441
 30
0.0
 10
26.388688
 20
-2.369682
 30
0.0
 10
24.209905
 20
4.994085
 30
0.0
 10
24.168388
 20
4.916673
 30
0.0
  0
SPLINE
  5
13e
100
AcDbEntity
  8
Camada_1
 62
7
100
AcDbSpline
 70
8
 71
3
 72
8
 73
4
 74
0
 40
0
 40
0
 40
0
 40
0
 40
1
 40
1
 40
1
 40
1
 10
24.168388
 20
4.916673
 30
0.0
 10
24.119209
 20
4.824945
 30
0.0
 10
22.043325
 20
-2.525379
 30
0.0
 10
22.043325
 20
-2.607866
 30
0.0
  0
SPLINE
  5
13f
100
AcDbEntity
  8
Camada_1
 62
7
100
AcDbSpline
 70
8
 71
3
 72
8
 73
4
 74
0
 40
0
 40
0
 40
0
 40
0
 40
1
 40
1
 40
1
 40
1
 10
22.043325
 20
-2.607866
 30
0.0
 10
22.043325
 20
-2.629158
 30
0.0
 10
23.021031
 20
-2.646594
 30
0.0
 10
24.216006
 20
-2.646594
 30
0.0
  0
SPLINE
  5
140
100
AcDbEntity
  8
Camada_1
 62
7
100
AcDbSpline
 70
8
 71
3
 72
8
 73
4
 74
0
 40
0
 40
0
 40
0
 40
0
 40
1
 40
1
 40
1
 40
1
 10
24.216006
 20
-2.646594
 30
0.0
 10
25.410981
 20
-2.646594
 30
0.0
 10
26.388688
 20
-2.620011
 30
0.0
 10
26.388688
 20
-2.587431
 30
0.0
  0
LWPOLYLINE
  5
141
100
AcDbEntity
  8
Camada_1
 62
7
100
AcDbPolyline
 90
11
 70
0
 10
30.679508
 20
-9.204179
 30
0.0
 10
28.307412
 20
-9.204179
 30
0.0
 10
27.841843
 20
-7.663412
 30
0.0
 10
27.376278
 20
-6.122663
 30
0.0
 10
24.184494
 20
-6.142537
 30
0.0
 10
20.992709
 20
-6.162410
 30
0.0
 10
20.558874
 20
-7.683286
 30
0.0
 10
20.125055
 20
-9.204171
 30
0.0
 10
17.677020
 20
-9.204171
 30
0.0
 10
15.228991
 20
-9.204171
 30
0.0
 10
15.275661
 20
-8.986911
 30
0.0
  0
SPLINE
  5
142
100
AcDbEntity
  8
Camada_1
 62
7
100
AcDbSpline
 70
8
 71
3
 72
8
 73
4
 74
0
 40
0
 40
0
 40
0
 40
0
 40
1
 40
1
 40
1
 40
1
 10
51.828854
 20
-9.168140
 30
0.0
 10
51.828854
 20
-9.097313
 30
0.0
 10
57.113602
 20
8.510957
 30
0.0
 10
57.143977
 20
8.541332
 30
0.0
  0
SPLINE
  5
143
100
AcDbEntity
  8
Camada_1
 62
7
100
AcDbSpline
 70
8
 71
3
 72
8
 73
4
 74
0
 40
0
 40
0
 40
0
 40
0
 40
1
 40
1
 40
1
 40
1
 10
57.143977
 20
8.541332
 30
0.0
 10
57.161015
 20
8.558421
 30
0.0
 10
58.779561
 20
8.572310
 30
0.0
 10
60.740724
 20
8.572310
 30
0.0
  0
LWPOLYLINE
  5
144
100
AcDbEntity
  8
Camada_1
 62
7
100
AcDbPolyline
 90
1
 70
1
 10
26.388688
 20
-2.587431
 30
0.0
  0
SPLINE
  5
145
100
AcDbEntity
  8
Camada_1
 62
7
100
AcDbSpline
 70
8
 71
3
 72
8
 73
4
 74
0
 40
0
 40
0
 40
0
 40
0
 40
1
 40
1
 40
1
 40
1
 10
64.581654
 20
7.683481
 30
0.0
 10
65.948384
 20
3.269051
 30
0.0
 10
69.691558
 20
-9.144352
 30
0.0
 10
69.664215
 20
-9.171692
 30
0.0
  0
SPLINE
  5
146
100
AcDbEntity
  8
Camada_1
 62
7
100
AcDbSpline
 70
8
 71
3
 72
8
 73
4
 74
0
 40
0
 40
0
 40
0
 40
0
 40
1
 40
1
 40
1
 40
1
 10
69.664215
 20
-9.171692
 30
0.0
 10
69.644974
 20
-9.190933
 30
0.0
 10
68.566458
 20
-9.197176
 30
0.0
 10
67.267420
 20
-9.185692
 30
0.0
  0
LWPOLYLINE
  5
147
100
AcDbEntity
  8
Camada_1
 62
7
100
AcDbPolyline
 90
3
 70
0
 10
60.740724
 20
8.572310
 30
0.0
 10
64.306479
 20
8.572310
 30
0.0
 10
64.581654
 20
7.683481
 30
0.0
  0
SPLINE
  5
148
100
AcDbEntity
  8
Camada_1
 62
7
100
AcDbSpline
 70
8
 71
3
 72
8
 73
4
 74
0
 40
0
 40
0
 40
0
 40
0
 40
1
 40
1
 40
1
 40
1
 10
57.446490
 20
-6.656249
 30
0.0
 10
57.360361
 20
-6.949556
 30
0.0
 10
57.164084
 20
-7.630244
 30
0.0
 10
57.010253
 20
-8.168883
 30
0.0
  0
SPLINE
  5
149
100
AcDbEntity
  8
Camada_1
 62
7
100
AcDbSpline
 70
8
 71
3
 72
8
 73
4
 74
0
 40
0
 40
0
 40
0
 40
0
 40
1
 40
1
 40
1
 40
1
 10
57.010253
 20
-8.168883
 30
0.0
 10
56.856432
 20
-8.707525
 30
0.0
 10
56.717978
 20
-9.160831
 30
0.0
 10
56.702583
 20
-9.176221
 30
0.0
  0
SPLINE
  5
14a
100
AcDbEntity
  8
Camada_1
 62
7
100
AcDbSpline
 70
8
 71
3
 72
8
 73
4
 74
0
 40
0
 40
0
 40
0
 40
0
 40
1
 40
1
 40
1
 40
1
 10
56.702583
 20
-9.176221
 30
0.0
 10
56.660777
 20
-9.218027
 30
0.0
 10
51.828854
 20
-9.210106
 30
0.0
 10
51.828854
 20
-9.167867
 30
0.0
  0
LWPOLYLINE
  5
14b
100
AcDbEntity
  8
Camada_1
 62
7
100
AcDbPolyline
 90
7
 70
0
 10
67.267420
 20
-9.185692
 30
0.0
 10
64.905534
 20
-9.164705
 30
0.0
 10
64.437481
 20
-7.643829
 30
0.0
 10
63.969444
 20
-6.122959
 30
0.0
 10
60.786237
 20
-6.122959
 30
0.0
 10
57.603037
 20
-6.122959
 30
0.0
 10
57.446490
 20
-6.656249
 30
0.0
  0
SPLINE
  5
14c
100
AcDbEntity
  8
Camada_1
 62
7
100
AcDbSpline
 70
8
 71
3
 72
8
 73
4
 74
0
 40
0
 40
0
 40
0
 40
0
 40
1
 40
1
 40
1
 40
1
 10
61.936697
 20
1.154636
 30
0.0
 10
61.335750
 20
3.245334
 30
0.0
 10
60.827686
 20
4.972290
 30
0.0
 10
60.807652
 20
4.992320
 30
0.0
  0
SPLINE
  5
14d
100
AcDbEntity
  8
Camada_1
 62
7
100
AcDbSpline
 70
8
 71
3
 72
8
 73
4
 74
0
 40
0
 40
0
 40
0
 40
0
 40
1
 40
1
 40
1
 40
1
 10
60.807652
 20
4.992320
 30
0.0
 10
60.765378
 20
5.034590
 30
0.0
 10
60.806640
 20
5.176043
 30
0.0
 10
59.606576
 20
0.869169
 30
0.0
  0
SPLINE
  5
14e
100
AcDbEntity
  8
Camada_1
 62
7
100
AcDbSpline
 70
8
 71
3
 72
8
 73
4
 74
0
 40
0
 40
0
 40
0
 40
0
 40
1
 40
1
 40
1
 40
1
 10
59.606576
 20
0.869169
 30
0.0
 10
59.098064
 20
-0.955885
 30
0.0
 10
58.665024
 20
-2.493550
 30
0.0
 10
58.644262
 20
-2.547868
 30
0.0
  0
SPLINE
  5
14f
100
AcDbEntity
  8
Camada_1
 62
7
100
AcDbSpline
 70
8
 71
3
 72
8
 73
4
 74
0
 40
0
 40
0
 40
0
 40
0
 40
1
 40
1
 40
1
 40
1
 10
58.644262
 20
-2.547868
 30
0.0
 10
58.614596
 20
-2.625411
 30
0.0
 10
59.081340
 20
-2.646624
 30
0.0
 10
60.817923
 20
-2.646624
 30
0.0
  0
LWPOLYLINE
  5
150
100
AcDbEntity
  8
Camada_1
 62
7
100
AcDbPolyline
 90
2
 70
0
 10
51.828854
 20
-9.167867
 30
0.0
 10
51.828854
 20
-9.168140
 30
0.0
  0
LWPOLYLINE
  5
151
100
AcDbEntity
  8
Camada_1
 62
7
100
AcDbPolyline
 90
3
 70
0
 10
60.817923
 20
-2.646624
 30
0.0
 10
63.029325
 20
-2.646624
 30
0.0
 10
61.936697
 20
1.154636
 30
0.0
  0
SPLINE
  5
152
100
AcDbEntity
  8
Camada_1
 62
7
100
AcDbSpline
 70
8
 71
3
 72
8
 73
4
 74
0
 40
0
 40
0
 40
0
 40
0
 40
1
 40
1
 40
1
 40
1
 10
59.083644
 20
11.958790
 30
0.0
 10
62.237067
 20
13.820376
 30
0.0
 10
62.595060
 20
14.028388
 30
0.0
 10
62.608630
 20
14.006937
 30
0.0
  0
SPLINE
  5
153
100
AcDbEntity
  8
Camada_1
 62
7
100
AcDbSpline
 70
8
 71
3
 72
8
 73
4
 74
0
 40
0
 40
0
 40
0
 40
0
 40
1
 40
1
 40
1
 40
1
 10
62.608630
 20
14.006937
 30
0.0
 10
62.770955
 20
13.750289
 30
0.0
 10
63.736613
 20
11.443516
 30
0.0
 10
63.696648
 20
11.407907
 30
0.0
  0
SPLINE
  5
154
100
AcDbEntity
  8
Camada_1
 62
7
100
AcDbSpline
 70
8
 71
3
 72
8
 73
4
 74
0
 40
0
 40
0
 40
0
 40
0
 40
1
 40
1
 40
1
 40
1
 10
63.696648
 20
11.407907
 30
0.0
 10
63.639725
 20
11.357235
 30
0.0
 10
58.576058
 20
9.757432
 30
0.0
 10
58.472486
 20
9.757432
 30
0.0
  0
SPLINE
  5
155
100
AcDbEntity
  8
Camada_1
 62
7
100
AcDbSpline
 70
8
 71
3
 72
8
 73
4
 74
0
 40
0
 40
0
 40
0
 40
0
 40
1
 40
1
 40
1
 40
1
 10
58.472486
 20
9.757432
 30
0.0
 10
58.441686
 20
9.757432
 30
0.0
 10
58.270173
 20
10.077750
 30
0.0
 10
58.091354
 20
10.469239
 30
0.0
  0
LWPOLYLINE
  5
156
100
AcDbEntity
  8
Camada_1
 62
7
100
AcDbPolyline
 90
3
 70
0
 10
58.091354
 20
10.469239
 30
0.0
 10
57.766228
 20
11.181057
 30
0.0
 10
59.083644
 20
11.958790
 30
0.0
  0
LWPOLYLINE
  5
157
100
AcDbEntity
  8
Camada_1
 62
7
100
AcDbPolyline
 90
1
 70
1
 10
58.091354
 20
10.469239
 30
0.0
  0
LWPOLYLINE
  5
158
100
AcDbEntity
  8
Camada_1
 62
7
100
AcDbPolyline
 90
8
 70
1
 10
-9.717374
 20
21.015891
 30
0.0
 10
-9.717374
 20
24.373671
 30
0.0
 10
30.141512
 20
24.373671
 30
0.0
 10
70.000392
 20
24.373671
 30
0.0
 10
70.000392
 20
21.015891
 30
0.0
 10
70.000392
 20
17.658098
 30
0.0
 10
30.141512
 20
17.658098
 30
0.0
 10
-9.717374
 20
17.658098
 30
0.0
  0
ENDSEC
  0
SECTION
  2
OBJECTS
  0
DICTIONARY
  5
C
330
0
100
AcDbDictionary
  3
ACAD_GROUP
350
D
  3
ACAD_MLINESTYLE
350
17
  0
DICTIONARY
  5
D
330
C
100
AcDbDictionary
  0
DICTIONARY
  5
1A
330
C
100
AcDbDictionary
  0
DICTIONARY
  5
17
330
C
100
AcDbDictionary
  3
STANDARD
350
18
  0
DICTIONARY
  5
19
330
C
100
AcDbDictionary
  0
ENDSEC
  0
EOF
