<?xml version="1.0" encoding="UTF-8" standalone="no"?>
<!-- Created with Inkscape (http://www.inkscape.org/) -->

<svg
   sodipodi:docname="IMTLogo_100mm.svg"
   inkscape:version="1.1.2 (b8e25be833, 2022-02-05)"
   id="svg8"
   version="1.1"
   viewBox="0 0 50 17.40971"
   height="17.40971mm"
   width="50mm"
   xmlns:inkscape="http://www.inkscape.org/namespaces/inkscape"
   xmlns:sodipodi="http://sodipodi.sourceforge.net/DTD/sodipodi-0.dtd"
   xmlns="http://www.w3.org/2000/svg"
   xmlns:svg="http://www.w3.org/2000/svg"
   xmlns:rdf="http://www.w3.org/1999/02/22-rdf-syntax-ns#"
   xmlns:cc="http://creativecommons.org/ns#"
   xmlns:dc="http://purl.org/dc/elements/1.1/">
  <defs
     id="defs2" />
  <sodipodi:namedview
     inkscape:window-maximized="1"
     inkscape:window-y="-9"
     inkscape:window-x="-9"
     inkscape:window-height="991"
     inkscape:window-width="1920"
     showgrid="false"
     inkscape:current-layer="layer1-9"
     inkscape:document-units="mm"
     inkscape:cy="125.5"
     inkscape:cx="230.99999"
     inkscape:zoom="1"
     inkscape:pageshadow="2"
     inkscape:pageopacity="0.0"
     borderopacity="1.0"
     bordercolor="#666666"
     pagecolor="#ffffff"
     id="base"
     fit-margin-top="0"
     fit-margin-left="0"
     fit-margin-bottom="0"
     fit-margin-right="0"
     inkscape:pagecheckerboard="0" />
  <metadata
     id="metadata5">
    <rdf:RDF>
      <cc:Work
         rdf:about="">
        <dc:format>image/svg+xml</dc:format>
        <dc:type
           rdf:resource="http://purl.org/dc/dcmitype/StillImage" />
      </cc:Work>
    </rdf:RDF>
  </metadata>
  <g
     inkscape:label="Camada 1"
     inkscape:groupmode="layer"
     id="layer1"
     transform="translate(-146.72996,-187.40253)">
    <g
       transform="matrix(0.25317013,0,0,0.25317013,143.75154,162.2016)"
       id="layer1-9"
       inkscape:label="Layer 1"
       style="fill:#014685;fill-opacity:1;stroke-width:3.94991">
      <path
         inkscape:connector-curvature="0"
         id="path4496-1"
         d="M -185.73115,168.30831 V 99.541482 h 68.6554 68.655352 v 68.766828 68.76685 h -68.655352 -68.6554 z m 74.9289,67.6471 c 13.273922,-1.31155 25.480642,-6.28065 35.998062,-14.65405 3.01167,-2.39771 8.10091,-7.46788 10.45283,-10.41362 13.99786,-17.53223 18.48043,-40.17481 12.2194,-61.72312 -2.91357,-10.02745 -8.82908,-20.09104 -16.4216,-27.93667 -11.14879,-11.52046 -25.65509,-18.58313 -41.834992,-20.36812 -3.43588,-0.37906 -10.9041,-0.31635 -14.60042,0.12242 -20.55443,2.44076 -38.74839,13.99752 -49.844,31.66079 -3.97994,6.33575 -7.04866,13.78851 -8.67346,21.06473 -1.80837,8.09813 -2.04463,17.83626 -0.63274,26.08012 1.91751,11.19616 6.66064,21.75989 13.84156,30.82757 2.25285,2.84481 7.84862,8.45607 10.64659,10.67608 10.0914,8.00692 22.01636,13.05178 34.10477,14.42804 1.16472,0.13268 2.41857,0.27616 2.78637,0.31905 1.57394,0.18351 9.84025,0.12585 11.95763,-0.0835 z m -53.97562,-67.53565 v -47.70211 h 47.59064 47.590672 v 47.70211 47.70212 h -47.590672 -47.59064 z m 52.19236,46.80114 c 21.474942,-2.16078 38.999422,-18.99505 41.973842,-40.32067 0.44409,-3.18394 0.45013,-9.81701 0.0131,-12.90098 -2.21718,-15.59777 -11.90566,-28.91038 -26.07984,-35.8354 -9.589112,-4.6849 -20.236572,-5.95125 -30.761162,-3.65859 -6.77489,1.47582 -14.33191,5.18662 -19.70487,9.67586 -21.14183,17.66452 -22.93546,48.99189 -3.93669,68.75752 10.00183,10.40552 24.30133,15.71058 38.49695,14.28226 z m 96.932452,12.49216 v -9.3621 H 96.803552 209.26015 v 9.3621 9.3621 H 96.803552 -15.653058 Z M 125.44711,194.37051 c -0.3065,-0.0509 -1.46005,-0.2043 -2.56343,-0.34118 -2.47697,-0.30727 -5.27348,-1.09896 -7.05068,-1.9961 -2.66358,-1.34458 -4.17475,-3.34648 -5.15233,-6.82546 -0.48436,-1.72375 -0.49019,-1.9455 -0.56194,-21.41332 l -0.0724,-19.67156 h 6.69734 6.69738 v 17.46493 c 0,12.60119 0.0716,17.67596 0.25695,18.22266 0.41445,1.22194 1.01341,1.9111 2.14081,2.46321 0.97114,0.47558 1.40452,0.52439 5.32286,0.59956 3.43433,0.0659 4.50486,0.0131 5.49328,-0.27505 1.41814,-0.41226 2.45313,-1.42027 2.82195,-2.74835 0.15403,-0.55435 0.23433,-6.8008 0.23512,-18.28448 l 7.1e-4,-17.44248 h 6.6872 6.68721 v 18.24918 c 0,15.23218 -0.0553,18.56663 -0.33484,20.16926 -1.13347,6.50002 -4.43793,9.78379 -11.37146,11.30036 -1.95324,0.42725 -3.02949,0.49496 -8.80113,0.55394 -3.61668,0.0369 -6.82654,0.0264 -7.13303,-0.0264 z M -11.863658,169.19995 v -25.07706 h 10.5775805 10.57754 l 0.45011,1.50461 c 5.5781895,18.64671 9.0741995,29.9253 9.2759295,29.9253 0.14269,0 2.22932,-6.834 4.79818,-15.71495 l 4.54569,-15.71496 h 10.87252 10.87254 l -0.0566,25.02133 -0.0566,25.0213 -6.65007,0.0589 -6.65006,0.0589 0.17297,-5.52029 c 0.0953,-3.03618 0.39226,-11.63909 0.66014,-19.11764 0.26782,-7.47854 0.46578,-13.62239 0.43987,-13.65306 -0.29955,-0.35434 -1.35178,2.60076 -6.80602,19.11427 l -6.33163,19.17004 -5.69603,-0.003 -5.69603,-0.003 -6.4354595,-19.16763 c -3.53955,-10.54217 -6.53005005,-19.16759 -6.64562005,-19.16759 -0.22511,0 -0.19483,1.16751 0.62552,24.18164 0.27517005,7.72167 0.47360005,14.06615 0.44088005,14.09888 -0.0326,0.0326 -3.03526,0.0595 -6.67237,0.0595 h -6.6129205 z m 66.72517,24.46403 c 0.20194,-0.94018 14.78832,-49.32197 14.90497,-49.43863 0.0564,-0.0563 4.61667,-0.10241 10.13404,-0.10241 h 10.03155 l 7.61076,25.00726 c 4.185898,13.75397 7.579308,25.03865 7.540908,25.07706 -0.0384,0.0384 -3.08141,0.0697 -6.762298,0.0697 h -6.69256 l -1.31354,-4.34707 -1.31353,-4.34702 -9.0052,0.0561 -9.0052,0.0561 -1.22401,4.29095 -1.22396,4.29098 h -6.90681 -6.90679 z m 31.35394,-18.05526 c 0,-0.61438 -6.14715,-21.39028 -6.26428,-21.17187 -0.13875,0.2588 -5.99559,20.99677 -5.99559,21.2295 0,0.0601 2.75847,0.10926 6.12994,0.10926 3.37146,0 6.12993,-0.075 6.12993,-0.16692 z m 71.776088,18.56658 c 0,-0.19983 14.91022,-49.87925 14.99592,-49.96495 0.0481,-0.0482 4.61459,-0.0874 10.14775,-0.0874 h 10.06031 l 0.77637,2.50771 c 3.85605,12.45474 14.41692,47.47752 14.33978,47.55466 -0.0543,0.0543 -3.09718,0.0719 -6.76224,0.0395 l -6.66375,-0.0592 -1.32055,-4.29095 -1.32051,-4.29094 h -8.981 -8.98098 l -0.44168,1.50461 c -0.243,0.82753 -0.79677,2.748 -1.23078,4.2677 -0.43399,1.51971 -0.82462,2.79865 -0.86805,2.84207 -0.11795,0.11795 -13.75059,0.0956 -13.75059,-0.0236 z m 28.51795,-29.12436 c -1.69549,-5.89863 -3.12893,-10.77101 -3.18545,-10.82752 -0.11927,-0.11926 -0.003,-0.51835 -3.38868,11.63293 -1.4347,5.14915 -2.65646,9.48747 -2.71504,9.64072 -0.0837,0.21878 1.23316,0.27863 6.1327,0.27863 h 6.23918 z m -10.84913,-26.27993 -0.9173,-2.0083 3.71692,-2.19427 c 8.89697,-5.25222 9.907,-5.8391 9.94528,-5.77858 0.45798,0.7241 3.18246,7.23236 3.0697,7.33282 -0.1606,0.14297 -14.44707,4.6566 -14.73928,4.6566 -0.0869,0 -0.5708,-0.90373 -1.07532,-2.00827 z M -15.653058,109.01502 V 99.541482 H 96.803552 209.26015 v 9.473538 9.47357 H 96.803552 -15.653058 Z"
         style="fill:#014685;fill-opacity:1;stroke-width:11.17"
         sodipodi:nodetypes="ccccccccccscssscsssssccccccccccccccscssssccccccccccccsssscccscsscsccccscscccccccsssccccccccccsccccscssccssscssscccccccccssssssscsscsscccccccssccsscsscsscsscssccccccccc" />
    </g>
  </g>
</svg>
