  0
SECTION
  2
HEADER
  9
$ACADVER
  1
AC1014
  9
$HANDSEED
  5
FFFF
  9
$MEASUREMENT
 70
     1
  0
ENDSEC
  0
SECTION
  2
TABLES
  0
TABLE
  2
VPORT
  5
8
330
0
100
AcDbSymbolTable
 70
     4
  0
VPORT
  5
2E
330
8
100
AcDbSymbolTableRecord
100
AcDbViewportTableRecord
  2
*ACTIVE
 70
     0
 10
0.0
 20
0.0
 11
1.0
 21
1.0
 12
210.0
 22
148.5
 13
0.0
 23
0.0
 14
10.0
 24
10.0
 15
10.0
 25
10.0
 16
0.0
 26
0.0
 36
1.0
 17
0.0
 27
0.0
 37
0.0
 40
341.0
 41
1.24
 42
50.0
 43
0.0
 44
0.0
 50
0.0
 51
0.0
 71
     0
 72
   100
 73
     1
 74
     3
 75
     0
 76
     0
 77
     0
 78
     0
  0
ENDTAB
  0
TABLE
  2
LTYPE
  5
5
330
0
100
AcDbSymbolTable
 70
     1
  0
LTYPE
  5
14
330
5
100
AcDbSymbolTableRecord
100
AcDbLinetypeTableRecord
  2
BYBLOCK
 70
     0
  3

 72
    65
 73
     0
 40
0.0
  0
LTYPE
  5
15
330
5
100
AcDbSymbolTableRecord
100
AcDbLinetypeTableRecord
  2
BYLAYER
 70
     0
  3

 72
    65
 73
     0
 40
0.0
  0
LTYPE
  5
16
330
5
100
AcDbSymbolTableRecord
100
AcDbLinetypeTableRecord
  2
CONTINUOUS
 70
     0
  3
Solid line
 72
    65
 73
     0
 40
0.0
  0
ENDTAB
  0
TABLE
  2
LAYER
  5
2
100
AcDbSymbolTable
 70
2
  0
LAYER
  5
50
100
AcDbSymbolTableRecord
100
AcDbLayerTableRecord
  2
0
 70
0
  6
CONTINUOUS
  0
LAYER
  5
51
100
AcDbSymbolTableRecord
100
AcDbLayerTableRecord
  2
Camada_1
 70
0
  6
CONTINUOUS
  0
ENDTAB
  0
TABLE
  2
STYLE
  5
3
330
0
100
AcDbSymbolTable
 70
     1
  0
STYLE
  5
11
330
3
100
AcDbSymbolTableRecord
100
AcDbTextStyleTableRecord
  2
STANDARD
 70
     0
 40
0.0
 41
1.0
 50
0.0
 71
     0
 42
2.5
  3
txt
  4

  0
ENDTAB
  0
TABLE
  2
VIEW
  5
6
330
0
100
AcDbSymbolTable
 70
     0
  0
ENDTAB
  0
TABLE
  2
UCS
  5
7
330
0
100
AcDbSymbolTable
 70
     0
  0
ENDTAB
  0
TABLE
  2
APPID
  5
9
330
0
100
AcDbSymbolTable
 70
     2
  0
APPID
  5
12
330
9
100
AcDbSymbolTableRecord
100
AcDbRegAppTableRecord
  2
ACAD
 70
     0
  0
ENDTAB
  0
TABLE
  2
DIMSTYLE
  5
A
330
0
100
AcDbSymbolTable
 70
     1
  0
DIMSTYLE
105
27
330
A
100
AcDbSymbolTableRecord
100
AcDbDimStyleTableRecord
  2
ISO-25
 70
     0
  3

  4

  5

  6

  7

 40
1.0
 41
2.5
 42
0.625
 43
3.75
 44
1.25
 45
0.0
 46
0.0
 47
0.0
 48
0.0
140
2.5
141
2.5
142
0.0
143
0.03937007874016
144
1.0
145
0.0
146
1.0
147
0.625
 71
     0
 72
     0
 73
     0
 74
     0
 75
     0
 76
     0
 77
     1
 78
     8
170
     0
171
     3
172
     1
173
     0
174
     0
175
     0
176
     0
177
     0
178
     0
270
     2
271
     2
272
     2
273
     2
274
     3
340
11
275
     0
280
     0
281
     0
282
     0
283
     0
284
     8
285
     0
286
     0
287
     3
288
     0
  0
ENDTAB
  0
TABLE
  2
BLOCK_RECORD
  5
1
330
0
100
AcDbSymbolTable
 70
     1
  0
BLOCK_RECORD
  5
1F
330
1
100
AcDbSymbolTableRecord
100
AcDbBlockTableRecord
  2
*MODEL_SPACE
  0
BLOCK_RECORD
  5
1B
330
1
100
AcDbSymbolTableRecord
100
AcDbBlockTableRecord
  2
*PAPER_SPACE
  0
ENDTAB
  0
ENDSEC
  0
SECTION
  2
BLOCKS
  0
BLOCK
  5
20
330
1F
100
AcDbEntity
  8
0
100
AcDbBlockBegin
  2
*MODEL_SPACE
 70
     0
 10
0.0
 20
0.0
 30
0.0
  3
*MODEL_SPACE
  1

  0
ENDBLK
  5
21
330
1F
100
AcDbEntity
  8
0
100
AcDbBlockEnd
  0
BLOCK
  5
1C
330
1B
100
AcDbEntity
 67
     1
  8
0
100
AcDbBlockBegin
  2
*PAPER_SPACE
  1

  0
ENDBLK
  5
1D
330
1B
100
AcDbEntity
 67
     1
  8
0
100
AcDbBlockEnd
  0
ENDSEC
  0
SECTION
  2
ENTITIES
  0
SPLINE
  5
100
100
AcDbEntity
  8
Camada_1
 62
7
100
AcDbSpline
 70
8
 71
3
 72
8
 73
4
 74
0
 40
0
 40
0
 40
0
 40
0
 40
1
 40
1
 40
1
 40
1
 10
-17.066178
 20
-9.419332
 30
0.0
 10
-15.217870
 20
-9.236705
 30
0.0
 10
-13.518165
 20
-8.544789
 30
0.0
 10
-12.053683
 20
-7.378850
 30
0.0
  0
SPLINE
  5
101
100
AcDbEntity
  8
Camada_1
 62
7
100
AcDbSpline
 70
8
 71
3
 72
8
 73
4
 74
0
 40
0
 40
0
 40
0
 40
0
 40
1
 40
1
 40
1
 40
1
 10
-12.053683
 20
-7.378850
 30
0.0
 10
-11.634327
 20
-7.044982
 30
0.0
 10
-10.925684
 20
-6.338994
 30
0.0
 10
-10.598194
 20
-5.928821
 30
0.0
  0
SPLINE
  5
102
100
AcDbEntity
  8
Camada_1
 62
7
100
AcDbSpline
 70
8
 71
3
 72
8
 73
4
 74
0
 40
0
 40
0
 40
0
 40
0
 40
1
 40
1
 40
1
 40
1
 10
-10.598194
 20
-5.928821
 30
0.0
 10
-8.649083
 20
-3.487571
 30
0.0
 10
-8.024915
 20
-0.334739
 30
0.0
 10
-8.896724
 20
2.665723
 30
0.0
  0
SPLINE
  5
103
100
AcDbEntity
  8
Camada_1
 62
7
100
AcDbSpline
 70
8
 71
3
 72
8
 73
4
 74
0
 40
0
 40
0
 40
0
 40
0
 40
1
 40
1
 40
1
 40
1
 10
-8.896724
 20
2.665723
 30
0.0
 10
-9.302419
 20
4.061981
 30
0.0
 10
-10.126115
 20
5.463270
 30
0.0
 10
-11.183323
 20
6.555724
 30
0.0
  0
SPLINE
  5
104
100
AcDbEntity
  8
Camada_1
 62
7
100
AcDbSpline
 70
8
 71
3
 72
8
 73
4
 74
0
 40
0
 40
0
 40
0
 40
0
 40
1
 40
1
 40
1
 40
1
 10
-11.183323
 20
6.555724
 30
0.0
 10
-12.735721
 20
8.159872
 30
0.0
 10
-14.755630
 20
9.143306
 30
0.0
 10
-17.008575
 20
9.391853
 30
0.0
  0
SPLINE
  5
105
100
AcDbEntity
  8
Camada_1
 62
7
100
AcDbSpline
 70
8
 71
3
 72
8
 73
4
 74
0
 40
0
 40
0
 40
0
 40
0
 40
1
 40
1
 40
1
 40
1
 10
-17.008575
 20
9.391853
 30
0.0
 10
-17.487000
 20
9.444634
 30
0.0
 10
-18.526898
 20
9.435902
 30
0.0
 10
-19.041588
 20
9.374815
 30
0.0
  0
SPLINE
  5
106
100
AcDbEntity
  8
Camada_1
 62
7
100
AcDbSpline
 70
8
 71
3
 72
8
 73
4
 74
0
 40
0
 40
0
 40
0
 40
0
 40
1
 40
1
 40
1
 40
1
 10
-19.041588
 20
9.374815
 30
0.0
 10
-21.903657
 20
9.034957
 30
0.0
 10
-24.437051
 20
7.425753
 30
0.0
 10
-25.982041
 20
4.966257
 30
0.0
  0
SPLINE
  5
107
100
AcDbEntity
  8
Camada_1
 62
7
100
AcDbSpline
 70
8
 71
3
 72
8
 73
4
 74
0
 40
0
 40
0
 40
0
 40
0
 40
1
 40
1
 40
1
 40
1
 10
-25.982041
 20
4.966257
 30
0.0
 10
-26.536223
 20
4.084045
 30
0.0
 10
-26.963523
 20
3.046296
 30
0.0
 10
-27.189766
 20
2.033130
 30
0.0
  0
SPLINE
  5
108
100
AcDbEntity
  8
Camada_1
 62
7
100
AcDbSpline
 70
8
 71
3
 72
8
 73
4
 74
0
 40
0
 40
0
 40
0
 40
0
 40
1
 40
1
 40
1
 40
1
 10
-27.189766
 20
2.033130
 30
0.0
 10
-27.441569
 20
0.905518
 30
0.0
 10
-27.474466
 20
-0.450455
 30
0.0
 10
-27.277869
 20
-1.598358
 30
0.0
  0
SPLINE
  5
109
100
AcDbEntity
  8
Camada_1
 62
7
100
AcDbSpline
 70
8
 71
3
 72
8
 73
4
 74
0
 40
0
 40
0
 40
0
 40
0
 40
1
 40
1
 40
1
 40
1
 10
-27.277869
 20
-1.598358
 30
0.0
 10
-27.010868
 20
-3.157349
 30
0.0
 10
-26.350419
 20
-4.628282
 30
0.0
 10
-25.350524
 20
-5.890896
 30
0.0
  0
SPLINE
  5
10a
100
AcDbEntity
  8
Camada_1
 62
7
100
AcDbSpline
 70
8
 71
3
 72
8
 73
4
 74
0
 40
0
 40
0
 40
0
 40
0
 40
1
 40
1
 40
1
 40
1
 10
-25.350524
 20
-5.890896
 30
0.0
 10
-25.036828
 20
-6.287019
 30
0.0
 10
-24.257652
 20
-7.068349
 30
0.0
 10
-23.868054
 20
-7.377473
 30
0.0
  0
SPLINE
  5
10b
100
AcDbEntity
  8
Camada_1
 62
7
100
AcDbSpline
 70
8
 71
3
 72
8
 73
4
 74
0
 40
0
 40
0
 40
0
 40
0
 40
1
 40
1
 40
1
 40
1
 10
-23.868054
 20
-7.377473
 30
0.0
 10
-22.462892
 20
-8.492383
 30
0.0
 10
-20.802418
 20
-9.194848
 30
0.0
 10
-19.119187
 20
-9.386483
 30
0.0
  0
SPLINE
  5
10c
100
AcDbEntity
  8
Camada_1
 62
7
100
AcDbSpline
 70
8
 71
3
 72
8
 73
4
 74
0
 40
0
 40
0
 40
0
 40
0
 40
1
 40
1
 40
1
 40
1
 10
-19.119187
 20
-9.386483
 30
0.0
 10
-18.957006
 20
-9.404964
 30
0.0
 10
-18.782415
 20
-9.424934
 30
0.0
 10
-18.731202
 20
-9.430909
 30
0.0
  0
SPLINE
  5
10d
100
AcDbEntity
  8
Camada_1
 62
7
100
AcDbSpline
 70
8
 71
3
 72
8
 73
4
 74
0
 40
0
 40
0
 40
0
 40
0
 40
1
 40
1
 40
1
 40
1
 10
-18.731202
 20
-9.430909
 30
0.0
 10
-18.512040
 20
-9.456459
 30
0.0
 10
-17.361013
 20
-9.448429
 30
0.0
 10
-17.066178
 20
-9.419263
 30
0.0
  0
LWPOLYLINE
  5
10e
100
AcDbEntity
  8
Camada_1
 62
7
100
AcDbPolyline
 90
8
 70
1
 10
-27.499542
 20
0.000089
 30
0.0
 10
-27.499542
 20
9.575424
 30
0.0
 10
-17.939724
 20
9.575424
 30
0.0
 10
-8.379913
 20
9.575424
 30
0.0
 10
-8.379913
 20
0.000089
 30
0.0
 10
-8.379913
 20
-9.575246
 30
0.0
 10
-17.939724
 20
-9.575246
 30
0.0
 10
-27.499542
 20
-9.575246
 30
0.0
  0
LWPOLYLINE
  5
10f
100
AcDbEntity
  8
Camada_1
 62
7
100
AcDbPolyline
 90
1
 70
1
 10
-17.066178
 20
-9.419263
 30
0.0
  0
SPLINE
  5
110
100
AcDbEntity
  8
Camada_1
 62
7
100
AcDbSpline
 70
8
 71
3
 72
8
 73
4
 74
0
 40
0
 40
0
 40
0
 40
0
 40
1
 40
1
 40
1
 40
1
 10
-17.314488
 20
-6.532183
 30
0.0
 10
-14.324241
 20
-6.231309
 30
0.0
 10
-11.884072
 20
-3.887246
 30
0.0
 10
-11.469903
 20
-0.917792
 30
0.0
  0
SPLINE
  5
111
100
AcDbEntity
  8
Camada_1
 62
7
100
AcDbSpline
 70
8
 71
3
 72
8
 73
4
 74
0
 40
0
 40
0
 40
0
 40
0
 40
1
 40
1
 40
1
 40
1
 10
-11.469903
 20
-0.917792
 30
0.0
 10
-11.408064
 20
-0.474448
 30
0.0
 10
-11.407226
 20
0.449162
 30
0.0
 10
-11.467878
 20
0.878586
 30
0.0
  0
SPLINE
  5
112
100
AcDbEntity
  8
Camada_1
 62
7
100
AcDbSpline
 70
8
 71
3
 72
8
 73
4
 74
0
 40
0
 40
0
 40
0
 40
0
 40
1
 40
1
 40
1
 40
1
 10
-11.467878
 20
0.878586
 30
0.0
 10
-11.776606
 20
3.050471
 30
0.0
 10
-13.125663
 20
4.904167
 30
0.0
 10
-15.099326
 20
5.868433
 30
0.0
  0
SPLINE
  5
113
100
AcDbEntity
  8
Camada_1
 62
7
100
AcDbSpline
 70
8
 71
3
 72
8
 73
4
 74
0
 40
0
 40
0
 40
0
 40
0
 40
1
 40
1
 40
1
 40
1
 10
-15.099326
 20
5.868433
 30
0.0
 10
-16.434550
 20
6.520774
 30
0.0
 10
-17.917136
 20
6.697104
 30
0.0
 10
-19.382618
 20
6.377867
 30
0.0
  0
SPLINE
  5
114
100
AcDbEntity
  8
Camada_1
 62
7
100
AcDbSpline
 70
8
 71
3
 72
8
 73
4
 74
0
 40
0
 40
0
 40
0
 40
0
 40
1
 40
1
 40
1
 40
1
 10
-19.382618
 20
6.377867
 30
0.0
 10
-20.325978
 20
6.172369
 30
0.0
 10
-21.378243
 20
5.655664
 30
0.0
 10
-22.126394
 20
5.030567
 30
0.0
  0
SPLINE
  5
115
100
AcDbEntity
  8
Camada_1
 62
7
100
AcDbSpline
 70
8
 71
3
 72
8
 73
4
 74
0
 40
0
 40
0
 40
0
 40
0
 40
1
 40
1
 40
1
 40
1
 10
-22.126394
 20
5.030567
 30
0.0
 10
-25.070257
 20
2.570896
 30
0.0
 10
-25.320009
 20
-1.791236
 30
0.0
 10
-22.674552
 20
-4.543472
 30
0.0
  0
SPLINE
  5
116
100
AcDbEntity
  8
Camada_1
 62
7
100
AcDbSpline
 70
8
 71
3
 72
8
 73
4
 74
0
 40
0
 40
0
 40
0
 40
0
 40
1
 40
1
 40
1
 40
1
 10
-22.674552
 20
-4.543472
 30
0.0
 10
-21.281862
 20
-5.992374
 30
0.0
 10
-19.290750
 20
-6.731069
 30
0.0
 10
-17.314103
 20
-6.532183
 30
0.0
  0
LWPOLYLINE
  5
117
100
AcDbEntity
  8
Camada_1
 62
7
100
AcDbPolyline
 90
8
 70
1
 10
-24.581933
 20
-0.015428
 30
0.0
 10
-24.581933
 20
6.626778
 30
0.0
 10
-17.955246
 20
6.626778
 30
0.0
 10
-11.328556
 20
6.626778
 30
0.0
 10
-11.328556
 20
-0.015428
 30
0.0
 10
-11.328556
 20
-6.657639
 30
0.0
 10
-17.955246
 20
-6.657639
 30
0.0
 10
-24.581933
 20
-6.657639
 30
0.0
  0
LWPOLYLINE
  5
118
100
AcDbEntity
  8
Camada_1
 62
7
100
AcDbPolyline
 90
2
 70
0
 10
-17.314103
 20
-6.532183
 30
0.0
 10
-17.314488
 20
-6.532183
 30
0.0
  0
SPLINE
  5
119
100
AcDbEntity
  8
Camada_1
 62
7
100
AcDbSpline
 70
8
 71
3
 72
8
 73
4
 74
0
 40
0
 40
0
 40
0
 40
0
 40
1
 40
1
 40
1
 40
1
 10
15.830011
 20
-3.628903
 30
0.0
 10
15.787331
 20
-3.621814
 30
0.0
 10
15.626708
 20
-3.600455
 30
0.0
 10
15.473069
 20
-3.581396
 30
0.0
  0
SPLINE
  5
11a
100
AcDbEntity
  8
Camada_1
 62
7
100
AcDbSpline
 70
8
 71
3
 72
8
 73
4
 74
0
 40
0
 40
0
 40
0
 40
0
 40
1
 40
1
 40
1
 40
1
 10
15.473069
 20
-3.581396
 30
0.0
 10
15.128168
 20
-3.538610
 30
0.0
 10
14.738772
 20
-3.428372
 30
0.0
 10
14.491309
 20
-3.303451
 30
0.0
  0
SPLINE
  5
11b
100
AcDbEntity
  8
Camada_1
 62
7
100
AcDbSpline
 70
8
 71
3
 72
8
 73
4
 74
0
 40
0
 40
0
 40
0
 40
0
 40
1
 40
1
 40
1
 40
1
 10
14.491309
 20
-3.303451
 30
0.0
 10
14.120422
 20
-3.116229
 30
0.0
 10
13.910000
 20
-2.837476
 30
0.0
 10
13.773881
 20
-2.353050
 30
0.0
  0
SPLINE
  5
11c
100
AcDbEntity
  8
Camada_1
 62
7
100
AcDbSpline
 70
8
 71
3
 72
8
 73
4
 74
0
 40
0
 40
0
 40
0
 40
0
 40
1
 40
1
 40
1
 40
1
 10
13.773881
 20
-2.353050
 30
0.0
 10
13.706436
 20
-2.113028
 30
0.0
 10
13.705623
 20
-2.082151
 30
0.0
 10
13.695633
 20
0.628616
 30
0.0
  0
LWPOLYLINE
  5
11d
100
AcDbEntity
  8
Camada_1
 62
7
100
AcDbPolyline
 90
8
 70
1
 10
-3.817273
 20
-8.271636
 30
0.0
 10
-3.817273
 20
-6.968026
 30
0.0
 10
11.841581
 20
-6.968026
 30
0.0
 10
27.500432
 20
-6.968026
 30
0.0
 10
27.500432
 20
-8.271636
 30
0.0
 10
27.500432
 20
-9.575246
 30
0.0
 10
11.841581
 20
-9.575246
 30
0.0
 10
-3.817273
 20
-9.575246
 30
0.0
  0
SPLINE
  5
11e
100
AcDbEntity
  8
Camada_1
 62
7
100
AcDbSpline
 70
8
 71
3
 72
8
 73
4
 74
0
 40
0
 40
0
 40
0
 40
0
 40
1
 40
1
 40
1
 40
1
 10
15.550683
 20
0.935874
 30
0.0
 10
15.550683
 20
-0.818759
 30
0.0
 10
15.560658
 20
-1.525387
 30
0.0
 10
15.586464
 20
-1.601513
 30
0.0
  0
SPLINE
  5
11f
100
AcDbEntity
  8
Camada_1
 62
7
100
AcDbSpline
 70
8
 71
3
 72
8
 73
4
 74
0
 40
0
 40
0
 40
0
 40
0
 40
1
 40
1
 40
1
 40
1
 10
15.586464
 20
-1.601513
 30
0.0
 10
15.644171
 20
-1.771658
 30
0.0
 10
15.727573
 20
-1.867620
 30
0.0
 10
15.884556
 20
-1.944500
 30
0.0
  0
SPLINE
  5
120
100
AcDbEntity
  8
Camada_1
 62
7
100
AcDbSpline
 70
8
 71
3
 72
8
 73
4
 74
0
 40
0
 40
0
 40
0
 40
0
 40
1
 40
1
 40
1
 40
1
 10
15.884556
 20
-1.944500
 30
0.0
 10
16.019782
 20
-2.010722
 30
0.0
 10
16.080128
 20
-2.017519
 30
0.0
 10
16.625732
 20
-2.027983
 30
0.0
  0
SPLINE
  5
121
100
AcDbEntity
  8
Camada_1
 62
7
100
AcDbSpline
 70
8
 71
3
 72
8
 73
4
 74
0
 40
0
 40
0
 40
0
 40
0
 40
1
 40
1
 40
1
 40
1
 10
16.625732
 20
-2.027983
 30
0.0
 10
17.103940
 20
-2.037173
 30
0.0
 10
17.253004
 20
-2.030008
 30
0.0
 10
17.390634
 20
-1.989686
 30
0.0
  0
SPLINE
  5
122
100
AcDbEntity
  8
Camada_1
 62
7
100
AcDbSpline
 70
8
 71
3
 72
8
 73
4
 74
0
 40
0
 40
0
 40
0
 40
0
 40
1
 40
1
 40
1
 40
1
 10
17.390634
 20
-1.989686
 30
0.0
 10
17.588102
 20
-1.932282
 30
0.0
 10
17.732216
 20
-1.791919
 30
0.0
 10
17.783572
 20
-1.606996
 30
0.0
  0
SPLINE
  5
123
100
AcDbEntity
  8
Camada_1
 62
7
100
AcDbSpline
 70
8
 71
3
 72
8
 73
4
 74
0
 40
0
 40
0
 40
0
 40
0
 40
1
 40
1
 40
1
 40
1
 10
17.783572
 20
-1.606996
 30
0.0
 10
17.805015
 20
-1.529805
 30
0.0
 10
17.816200
 20
-0.660029
 30
0.0
 10
17.816312
 20
0.939000
 30
0.0
  0
LWPOLYLINE
  5
124
100
AcDbEntity
  8
Camada_1
 62
7
100
AcDbPolyline
 90
5
 70
0
 10
13.695633
 20
0.628616
 30
0.0
 10
13.685557
 20
3.367751
 30
0.0
 10
14.618119
 20
3.367751
 30
0.0
 10
15.550683
 20
3.367751
 30
0.0
 10
15.550683
 20
0.935874
 30
0.0
  0
SPLINE
  5
125
100
AcDbEntity
  8
Camada_1
 62
7
100
AcDbSpline
 70
8
 71
3
 72
8
 73
4
 74
0
 40
0
 40
0
 40
0
 40
0
 40
1
 40
1
 40
1
 40
1
 10
19.678709
 20
0.826671
 30
0.0
 10
19.678709
 20
-1.294309
 30
0.0
 10
19.671013
 20
-1.758610
 30
0.0
 10
19.632085
 20
-1.981767
 30
0.0
  0
SPLINE
  5
126
100
AcDbEntity
  8
Camada_1
 62
7
100
AcDbSpline
 70
8
 71
3
 72
8
 73
4
 74
0
 40
0
 40
0
 40
0
 40
0
 40
1
 40
1
 40
1
 40
1
 10
19.632085
 20
-1.981767
 30
0.0
 10
19.474256
 20
-2.886852
 30
0.0
 10
19.014133
 20
-3.344095
 30
0.0
 10
18.048684
 20
-3.555269
 30
0.0
  0
SPLINE
  5
127
100
AcDbEntity
  8
Camada_1
 62
7
100
AcDbSpline
 70
8
 71
3
 72
8
 73
4
 74
0
 40
0
 40
0
 40
0
 40
0
 40
1
 40
1
 40
1
 40
1
 10
18.048684
 20
-3.555269
 30
0.0
 10
17.776709
 20
-3.614761
 30
0.0
 10
17.626847
 20
-3.624189
 30
0.0
 10
16.823184
 20
-3.632402
 30
0.0
  0
SPLINE
  5
128
100
AcDbEntity
  8
Camada_1
 62
7
100
AcDbSpline
 70
8
 71
3
 72
8
 73
4
 74
0
 40
0
 40
0
 40
0
 40
0
 40
1
 40
1
 40
1
 40
1
 10
16.823184
 20
-3.632402
 30
0.0
 10
16.319583
 20
-3.637541
 30
0.0
 10
15.872632
 20
-3.636073
 30
0.0
 10
15.829955
 20
-3.628706
 30
0.0
  0
LWPOLYLINE
  5
129
100
AcDbEntity
  8
Camada_1
 62
7
100
AcDbPolyline
 90
5
 70
0
 10
17.816312
 20
0.939000
 30
0.0
 10
17.816411
 20
3.367751
 30
0.0
 10
18.747560
 20
3.367751
 30
0.0
 10
19.678709
 20
3.367751
 30
0.0
 10
19.678709
 20
0.826671
 30
0.0
  0
LWPOLYLINE
  5
12a
100
AcDbEntity
  8
Camada_1
 62
7
100
AcDbPolyline
 90
2
 70
0
 10
15.829955
 20
-3.628706
 30
0.0
 10
15.830011
 20
-3.628903
 30
0.0
  0
SPLINE
  5
12b
100
AcDbEntity
  8
Camada_1
 62
7
100
AcDbSpline
 70
8
 71
3
 72
8
 73
4
 74
0
 40
0
 40
0
 40
0
 40
0
 40
1
 40
1
 40
1
 40
1
 10
-0.281235
 20
3.158245
 30
0.0
 10
0.495493
 20
0.561812
 30
0.0
 10
0.982289
 20
-1.008657
 30
0.0
 10
1.010378
 20
-1.008657
 30
0.0
  0
SPLINE
  5
12c
100
AcDbEntity
  8
Camada_1
 62
7
100
AcDbSpline
 70
8
 71
3
 72
8
 73
4
 74
0
 40
0
 40
0
 40
0
 40
0
 40
1
 40
1
 40
1
 40
1
 10
1.010378
 20
-1.008657
 30
0.0
 10
1.030252
 20
-1.008657
 30
0.0
 10
1.320797
 20
-0.057069
 30
0.0
 10
1.678494
 20
1.179547
 30
0.0
  0
LWPOLYLINE
  5
12d
100
AcDbEntity
  8
Camada_1
 62
7
100
AcDbPolyline
 90
5
 70
0
 10
-3.289624
 20
-0.124066
 30
0.0
 10
-3.289624
 20
3.367751
 30
0.0
 10
-1.816764
 20
3.367751
 30
0.0
 10
-0.343909
 20
3.367751
 30
0.0
 10
-0.281235
 20
3.158245
 30
0.0
  0
SPLINE
  5
12e
100
AcDbEntity
  8
Camada_1
 62
7
100
AcDbSpline
 70
8
 71
3
 72
8
 73
4
 74
0
 40
0
 40
0
 40
0
 40
0
 40
1
 40
1
 40
1
 40
1
 10
3.495682
 20
-2.848099
 30
0.0
 10
3.508948
 20
-2.425330
 30
0.0
 10
3.550303
 20
-1.227429
 30
0.0
 10
3.587603
 20
-0.186090
 30
0.0
  0
SPLINE
  5
12f
100
AcDbEntity
  8
Camada_1
 62
7
100
AcDbSpline
 70
8
 71
3
 72
8
 73
4
 74
0
 40
0
 40
0
 40
0
 40
0
 40
1
 40
1
 40
1
 40
1
 10
3.587603
 20
-0.186090
 30
0.0
 10
3.624895
 20
0.855246
 30
0.0
 10
3.652460
 20
1.710738
 30
0.0
 10
3.648852
 20
1.715009
 30
0.0
  0
SPLINE
  5
130
100
AcDbEntity
  8
Camada_1
 62
7
100
AcDbSpline
 70
8
 71
3
 72
8
 73
4
 74
0
 40
0
 40
0
 40
0
 40
0
 40
1
 40
1
 40
1
 40
1
 10
3.648852
 20
1.715009
 30
0.0
 10
3.607143
 20
1.764350
 30
0.0
 10
3.460626
 20
1.352870
 30
0.0
 10
2.701159
 20
-0.946529
 30
0.0
  0
LWPOLYLINE
  5
131
100
AcDbEntity
  8
Camada_1
 62
7
100
AcDbPolyline
 90
9
 70
0
 10
1.678494
 20
1.179547
 30
0.0
 10
2.311451
 20
3.367751
 30
0.0
 10
3.825380
 20
3.367751
 30
0.0
 10
5.339309
 20
3.367751
 30
0.0
 10
5.331435
 20
-0.116306
 30
0.0
 10
5.323562
 20
-3.600358
 30
0.0
 10
4.397585
 20
-3.608561
 30
0.0
 10
3.471606
 20
-3.616764
 30
0.0
 10
3.495682
 20
-2.848099
 30
0.0
  0
SPLINE
  5
132
100
AcDbEntity
  8
Camada_1
 62
7
100
AcDbSpline
 70
8
 71
3
 72
8
 73
4
 74
0
 40
0
 40
0
 40
0
 40
0
 40
1
 40
1
 40
1
 40
1
 10
-0.662845
 20
-0.945853
 30
0.0
 10
-1.155707
 20
0.522075
 30
0.0
 10
-1.572113
 20
1.723108
 30
0.0
 10
-1.588207
 20
1.723108
 30
0.0
  0
SPLINE
  5
133
100
AcDbEntity
  8
Camada_1
 62
7
100
AcDbSpline
 70
8
 71
3
 72
8
 73
4
 74
0
 40
0
 40
0
 40
0
 40
0
 40
1
 40
1
 40
1
 40
1
 10
-1.588207
 20
1.723108
 30
0.0
 10
-1.619552
 20
1.723108
 30
0.0
 10
-1.615334
 20
1.560543
 30
0.0
 10
-1.501107
 20
-1.644028
 30
0.0
  0
SPLINE
  5
134
100
AcDbEntity
  8
Camada_1
 62
7
100
AcDbSpline
 70
8
 71
3
 72
8
 73
4
 74
0
 40
0
 40
0
 40
0
 40
0
 40
1
 40
1
 40
1
 40
1
 10
-1.501107
 20
-1.644028
 30
0.0
 10
-1.462792
 20
-2.719220
 30
0.0
 10
-1.435161
 20
-3.602644
 30
0.0
 10
-1.439718
 20
-3.607204
 30
0.0
  0
SPLINE
  5
135
100
AcDbEntity
  8
Camada_1
 62
7
100
AcDbSpline
 70
8
 71
3
 72
8
 73
4
 74
0
 40
0
 40
0
 40
0
 40
0
 40
1
 40
1
 40
1
 40
1
 10
-1.439718
 20
-3.607204
 30
0.0
 10
-1.444250
 20
-3.611736
 30
0.0
 10
-1.862357
 20
-3.615483
 30
0.0
 10
-2.368801
 20
-3.615483
 30
0.0
  0
LWPOLYLINE
  5
136
100
AcDbEntity
  8
Camada_1
 62
7
100
AcDbPolyline
 90
5
 70
0
 10
2.701159
 20
-0.946529
 30
0.0
 10
1.819519
 20
-3.615832
 30
0.0
 10
1.026383
 20
-3.615326
 30
0.0
 10
0.233250
 20
-3.614819
 30
0.0
 10
-0.662845
 20
-0.945853
 30
0.0
  0
SPLINE
  5
137
100
AcDbEntity
  8
Camada_1
 62
7
100
AcDbSpline
 70
8
 71
3
 72
8
 73
4
 74
0
 40
0
 40
0
 40
0
 40
0
 40
1
 40
1
 40
1
 40
1
 10
6.001425
 20
-3.530521
 30
0.0
 10
6.029544
 20
-3.399610
 30
0.0
 10
8.060601
 20
3.337242
 30
0.0
 10
8.076844
 20
3.353485
 30
0.0
  0
SPLINE
  5
138
100
AcDbEntity
  8
Camada_1
 62
7
100
AcDbSpline
 70
8
 71
3
 72
8
 73
4
 74
0
 40
0
 40
0
 40
0
 40
0
 40
1
 40
1
 40
1
 40
1
 10
8.076844
 20
3.353485
 30
0.0
 10
8.084692
 20
3.361308
 30
0.0
 10
8.719686
 20
3.367739
 30
0.0
 10
9.487943
 20
3.367739
 30
0.0
  0
LWPOLYLINE
  5
139
100
AcDbEntity
  8
Camada_1
 62
7
100
AcDbPolyline
 90
3
 70
0
 10
-2.368801
 20
-3.615483
 30
0.0
 10
-3.289608
 20
-3.615483
 30
0.0
 10
-3.289624
 20
-0.124066
 30
0.0
  0
SPLINE
  5
13a
100
AcDbEntity
  8
Camada_1
 62
7
100
AcDbSpline
 70
8
 71
3
 72
8
 73
4
 74
0
 40
0
 40
0
 40
0
 40
0
 40
1
 40
1
 40
1
 40
1
 10
11.944520
 20
-0.114359
 30
0.0
 10
12.527380
 20
-2.029512
 30
0.0
 10
12.999889
 20
-3.600832
 30
0.0
 10
12.994542
 20
-3.606179
 30
0.0
  0
SPLINE
  5
13b
100
AcDbEntity
  8
Camada_1
 62
7
100
AcDbSpline
 70
8
 71
3
 72
8
 73
4
 74
0
 40
0
 40
0
 40
0
 40
0
 40
1
 40
1
 40
1
 40
1
 10
12.994542
 20
-3.606179
 30
0.0
 10
12.989200
 20
-3.611546
 30
0.0
 10
12.565477
 20
-3.615875
 30
0.0
 10
12.052937
 20
-3.615875
 30
0.0
  0
LWPOLYLINE
  5
13c
100
AcDbEntity
  8
Camada_1
 62
7
100
AcDbPolyline
 90
3
 70
0
 10
9.487943
 20
3.367739
 30
0.0
 10
10.884773
 20
3.367739
 30
0.0
 10
11.944520
 20
-0.114359
 30
0.0
  0
SPLINE
  5
13d
100
AcDbEntity
  8
Camada_1
 62
7
100
AcDbSpline
 70
8
 71
3
 72
8
 73
4
 74
0
 40
0
 40
0
 40
0
 40
0
 40
1
 40
1
 40
1
 40
1
 10
10.367258
 20
-1.016444
 30
0.0
 10
10.367258
 20
-0.930898
 30
0.0
 10
9.511305
 20
1.962012
 30
0.0
 10
9.494996
 20
1.931599
 30
0.0
  0
SPLINE
  5
13e
100
AcDbEntity
  8
Camada_1
 62
7
100
AcDbSpline
 70
8
 71
3
 72
8
 73
4
 74
0
 40
0
 40
0
 40
0
 40
0
 40
1
 40
1
 40
1
 40
1
 10
9.494996
 20
1.931599
 30
0.0
 10
9.475679
 20
1.895565
 30
0.0
 10
8.660150
 20
-0.992064
 30
0.0
 10
8.660150
 20
-1.024470
 30
0.0
  0
SPLINE
  5
13f
100
AcDbEntity
  8
Camada_1
 62
7
100
AcDbSpline
 70
8
 71
3
 72
8
 73
4
 74
0
 40
0
 40
0
 40
0
 40
0
 40
1
 40
1
 40
1
 40
1
 10
8.660150
 20
-1.024470
 30
0.0
 10
8.660150
 20
-1.032825
 30
0.0
 10
9.044250
 20
-1.039660
 30
0.0
 10
9.513703
 20
-1.039660
 30
0.0
  0
SPLINE
  5
140
100
AcDbEntity
  8
Camada_1
 62
7
100
AcDbSpline
 70
8
 71
3
 72
8
 73
4
 74
0
 40
0
 40
0
 40
0
 40
0
 40
1
 40
1
 40
1
 40
1
 10
9.513703
 20
-1.039660
 30
0.0
 10
9.983158
 20
-1.039660
 30
0.0
 10
10.367258
 20
-1.029204
 30
0.0
 10
10.367258
 20
-1.016419
 30
0.0
  0
LWPOLYLINE
  5
141
100
AcDbEntity
  8
Camada_1
 62
7
100
AcDbPolyline
 90
11
 70
0
 10
12.052937
 20
-3.615875
 30
0.0
 10
11.121041
 20
-3.615875
 30
0.0
 10
10.938141
 20
-3.010576
 30
0.0
 10
10.755238
 20
-2.405282
 30
0.0
 10
9.501323
 20
-2.413080
 30
0.0
 10
8.247407
 20
-2.420877
 30
0.0
 10
8.076973
 20
-3.018366
 30
0.0
 10
7.906544
 20
-3.615857
 30
0.0
 10
6.944815
 20
-3.615857
 30
0.0
 10
5.983090
 20
-3.615857
 30
0.0
 10
6.001425
 20
-3.530521
 30
0.0
  0
SPLINE
  5
142
100
AcDbEntity
  8
Camada_1
 62
7
100
AcDbSpline
 70
8
 71
3
 72
8
 73
4
 74
0
 40
0
 40
0
 40
0
 40
0
 40
1
 40
1
 40
1
 40
1
 10
20.361610
 20
-3.601720
 30
0.0
 10
20.361610
 20
-3.573897
 30
0.0
 10
22.437762
 20
3.343642
 30
0.0
 10
22.449695
 20
3.355574
 30
0.0
  0
SPLINE
  5
143
100
AcDbEntity
  8
Camada_1
 62
7
100
AcDbSpline
 70
8
 71
3
 72
8
 73
4
 74
0
 40
0
 40
0
 40
0
 40
0
 40
1
 40
1
 40
1
 40
1
 10
22.449695
 20
3.355574
 30
0.0
 10
22.456394
 20
3.362283
 30
0.0
 10
23.092247
 20
3.367751
 30
0.0
 10
23.862704
 20
3.367751
 30
0.0
  0
LWPOLYLINE
  5
144
100
AcDbEntity
  8
Camada_1
 62
7
100
AcDbPolyline
 90
1
 70
1
 10
10.367258
 20
-1.016419
 30
0.0
  0
SPLINE
  5
145
100
AcDbEntity
  8
Camada_1
 62
7
100
AcDbSpline
 70
8
 71
3
 72
8
 73
4
 74
0
 40
0
 40
0
 40
0
 40
0
 40
1
 40
1
 40
1
 40
1
 10
25.371641
 20
3.018569
 30
0.0
 10
25.908571
 20
1.284327
 30
0.0
 10
27.379103
 20
-3.592368
 30
0.0
 10
27.368362
 20
-3.603110
 30
0.0
  0
SPLINE
  5
146
100
AcDbEntity
  8
Camada_1
 62
7
100
AcDbSpline
 70
8
 71
3
 72
8
 73
4
 74
0
 40
0
 40
0
 40
0
 40
0
 40
1
 40
1
 40
1
 40
1
 10
27.368362
 20
-3.603110
 30
0.0
 10
27.360800
 20
-3.610680
 30
0.0
 10
26.937100
 20
-3.613110
 30
0.0
 10
26.426764
 20
-3.608604
 30
0.0
  0
LWPOLYLINE
  5
147
100
AcDbEntity
  8
Camada_1
 62
7
100
AcDbPolyline
 90
3
 70
0
 10
23.862704
 20
3.367751
 30
0.0
 10
25.263536
 20
3.367751
 30
0.0
 10
25.371641
 20
3.018569
 30
0.0
  0
SPLINE
  5
148
100
AcDbEntity
  8
Camada_1
 62
7
100
AcDbSpline
 70
8
 71
3
 72
8
 73
4
 74
0
 40
0
 40
0
 40
0
 40
0
 40
1
 40
1
 40
1
 40
1
 10
22.568540
 20
-2.614886
 30
0.0
 10
22.534703
 20
-2.730112
 30
0.0
 10
22.457594
 20
-2.997528
 30
0.0
 10
22.397161
 20
-3.209135
 30
0.0
  0
SPLINE
  5
149
100
AcDbEntity
  8
Camada_1
 62
7
100
AcDbSpline
 70
8
 71
3
 72
8
 73
4
 74
0
 40
0
 40
0
 40
0
 40
0
 40
1
 40
1
 40
1
 40
1
 10
22.397161
 20
-3.209135
 30
0.0
 10
22.336731
 20
-3.420744
 30
0.0
 10
22.282338
 20
-3.598827
 30
0.0
 10
22.276291
 20
-3.604872
 30
0.0
  0
SPLINE
  5
14a
100
AcDbEntity
  8
Camada_1
 62
7
100
AcDbSpline
 70
8
 71
3
 72
8
 73
4
 74
0
 40
0
 40
0
 40
0
 40
0
 40
1
 40
1
 40
1
 40
1
 10
22.276291
 20
-3.604872
 30
0.0
 10
22.259868
 20
-3.621303
 30
0.0
 10
20.361610
 20
-3.618189
 30
0.0
 10
20.361610
 20
-3.601606
 30
0.0
  0
LWPOLYLINE
  5
14b
100
AcDbEntity
  8
Camada_1
 62
7
100
AcDbPolyline
 90
7
 70
0
 10
26.426764
 20
-3.608604
 30
0.0
 10
25.498880
 20
-3.600351
 30
0.0
 10
25.315002
 20
-3.002862
 30
0.0
 10
25.131130
 20
-2.405378
 30
0.0
 10
23.880584
 20
-2.405378
 30
0.0
 10
22.630041
 20
-2.405378
 30
0.0
 10
22.568540
 20
-2.614886
 30
0.0
  0
SPLINE
  5
14c
100
AcDbEntity
  8
Camada_1
 62
7
100
AcDbSpline
 70
8
 71
3
 72
8
 73
4
 74
0
 40
0
 40
0
 40
0
 40
0
 40
1
 40
1
 40
1
 40
1
 10
24.332550
 20
0.453656
 30
0.0
 10
24.096464
 20
1.275002
 30
0.0
 10
23.896867
 20
1.953450
 30
0.0
 10
23.888997
 20
1.961318
 30
0.0
  0
SPLINE
  5
14d
100
AcDbEntity
  8
Camada_1
 62
7
100
AcDbSpline
 70
8
 71
3
 72
8
 73
4
 74
0
 40
0
 40
0
 40
0
 40
0
 40
1
 40
1
 40
1
 40
1
 10
23.888997
 20
1.961318
 30
0.0
 10
23.872389
 20
1.977926
 30
0.0
 10
23.888592
 20
2.033495
 30
0.0
 10
23.417145
 20
0.341509
 30
0.0
  0
SPLINE
  5
14e
100
AcDbEntity
  8
Camada_1
 62
7
100
AcDbSpline
 70
8
 71
3
 72
8
 73
4
 74
0
 40
0
 40
0
 40
0
 40
0
 40
1
 40
1
 40
1
 40
1
 10
23.417145
 20
0.341509
 30
0.0
 10
23.217373
 20
-0.375476
 30
0.0
 10
23.047250
 20
-0.979560
 30
0.0
 10
23.039093
 20
-1.000897
 30
0.0
  0
SPLINE
  5
14f
100
AcDbEntity
  8
Camada_1
 62
7
100
AcDbSpline
 70
8
 71
3
 72
8
 73
4
 74
0
 40
0
 40
0
 40
0
 40
0
 40
1
 40
1
 40
1
 40
1
 10
23.039093
 20
-1.000897
 30
0.0
 10
23.027438
 20
-1.031364
 30
0.0
 10
23.210803
 20
-1.039698
 30
0.0
 10
23.893032
 20
-1.039698
 30
0.0
  0
LWPOLYLINE
  5
150
100
AcDbEntity
  8
Camada_1
 62
7
100
AcDbPolyline
 90
2
 70
0
 10
20.361610
 20
-3.601606
 30
0.0
 10
20.361610
 20
-3.601720
 30
0.0
  0
LWPOLYLINE
  5
151
100
AcDbEntity
  8
Camada_1
 62
7
100
AcDbPolyline
 90
3
 70
0
 10
23.893032
 20
-1.039698
 30
0.0
 10
24.761797
 20
-1.039698
 30
0.0
 10
24.332550
 20
0.453656
 30
0.0
  0
SPLINE
  5
152
100
AcDbEntity
  8
Camada_1
 62
7
100
AcDbSpline
 70
8
 71
3
 72
8
 73
4
 74
0
 40
0
 40
0
 40
0
 40
0
 40
1
 40
1
 40
1
 40
1
 10
23.211708
 20
4.698147
 30
0.0
 10
24.450553
 20
5.429484
 30
0.0
 10
24.591193
 20
5.511202
 30
0.0
 10
24.596524
 20
5.502777
 30
0.0
  0
SPLINE
  5
153
100
AcDbEntity
  8
Camada_1
 62
7
100
AcDbSpline
 70
8
 71
3
 72
8
 73
4
 74
0
 40
0
 40
0
 40
0
 40
0
 40
1
 40
1
 40
1
 40
1
 10
24.596524
 20
5.502777
 30
0.0
 10
24.660294
 20
5.401949
 30
0.0
 10
25.039661
 20
4.495717
 30
0.0
 10
25.023959
 20
4.481730
 30
0.0
  0
SPLINE
  5
154
100
AcDbEntity
  8
Camada_1
 62
7
100
AcDbSpline
 70
8
 71
3
 72
8
 73
4
 74
0
 40
0
 40
0
 40
0
 40
0
 40
1
 40
1
 40
1
 40
1
 10
25.023959
 20
4.481730
 30
0.0
 10
25.001597
 20
4.461830
 30
0.0
 10
23.012299
 20
3.833328
 30
0.0
 10
22.971610
 20
3.833328
 30
0.0
  0
SPLINE
  5
155
100
AcDbEntity
  8
Camada_1
 62
7
100
AcDbSpline
 70
8
 71
3
 72
8
 73
4
 74
0
 40
0
 40
0
 40
0
 40
0
 40
1
 40
1
 40
1
 40
1
 10
22.971610
 20
3.833328
 30
0.0
 10
22.959511
 20
3.833328
 30
0.0
 10
22.892130
 20
3.959166
 30
0.0
 10
22.821879
 20
4.112967
 30
0.0
  0
LWPOLYLINE
  5
156
100
AcDbEntity
  8
Camada_1
 62
7
100
AcDbPolyline
 90
3
 70
0
 10
22.821879
 20
4.112967
 30
0.0
 10
22.694151
 20
4.392609
 30
0.0
 10
23.211708
 20
4.698147
 30
0.0
  0
LWPOLYLINE
  5
157
100
AcDbEntity
  8
Camada_1
 62
7
100
AcDbPolyline
 90
1
 70
1
 10
22.821879
 20
4.112967
 30
0.0
  0
LWPOLYLINE
  5
158
100
AcDbEntity
  8
Camada_1
 62
7
100
AcDbPolyline
 90
8
 70
1
 10
-3.817273
 20
8.256294
 30
0.0
 10
-3.817273
 20
9.575424
 30
0.0
 10
11.841581
 20
9.575424
 30
0.0
 10
27.500432
 20
9.575424
 30
0.0
 10
27.500432
 20
8.256294
 30
0.0
 10
27.500432
 20
6.937162
 30
0.0
 10
11.841581
 20
6.937162
 30
0.0
 10
-3.817273
 20
6.937162
 30
0.0
  0
ENDSEC
  0
SECTION
  2
OBJECTS
  0
DICTIONARY
  5
C
330
0
100
AcDbDictionary
  3
ACAD_GROUP
350
D
  3
ACAD_MLINESTYLE
350
17
  0
DICTIONARY
  5
D
330
C
100
AcDbDictionary
  0
DICTIONARY
  5
1A
330
C
100
AcDbDictionary
  0
DICTIONARY
  5
17
330
C
100
AcDbDictionary
  3
STANDARD
350
18
  0
DICTIONARY
  5
19
330
C
100
AcDbDictionary
  0
ENDSEC
  0
EOF
