  0
SECTION
  2
HEADER
  9
$ACADVER
  1
AC1014
  9
$HANDSEED
  5
FFFF
  9
$MEASUREMENT
 70
     1
  0
ENDSEC
  0
SECTION
  2
TABLES
  0
TABLE
  2
VPORT
  5
8
330
0
100
AcDbSymbolTable
 70
     4
  0
VPORT
  5
2E
330
8
100
AcDbSymbolTableRecord
100
AcDbViewportTableRecord
  2
*ACTIVE
 70
     0
 10
0.0
 20
0.0
 11
1.0
 21
1.0
 12
210.0
 22
148.5
 13
0.0
 23
0.0
 14
10.0
 24
10.0
 15
10.0
 25
10.0
 16
0.0
 26
0.0
 36
1.0
 17
0.0
 27
0.0
 37
0.0
 40
341.0
 41
1.24
 42
50.0
 43
0.0
 44
0.0
 50
0.0
 51
0.0
 71
     0
 72
   100
 73
     1
 74
     3
 75
     0
 76
     0
 77
     0
 78
     0
  0
ENDTAB
  0
TABLE
  2
LTYPE
  5
5
330
0
100
AcDbSymbolTable
 70
     1
  0
LTYPE
  5
14
330
5
100
AcDbSymbolTableRecord
100
AcDbLinetypeTableRecord
  2
BYBLOCK
 70
     0
  3

 72
    65
 73
     0
 40
0.0
  0
LTYPE
  5
15
330
5
100
AcDbSymbolTableRecord
100
AcDbLinetypeTableRecord
  2
BYLAYER
 70
     0
  3

 72
    65
 73
     0
 40
0.0
  0
LTYPE
  5
16
330
5
100
AcDbSymbolTableRecord
100
AcDbLinetypeTableRecord
  2
CONTINUOUS
 70
     0
  3
Solid line
 72
    65
 73
     0
 40
0.0
  0
ENDTAB
  0
TABLE
  2
LAYER
  5
2
100
AcDbSymbolTable
 70
2
  0
LAYER
  5
50
100
AcDbSymbolTableRecord
100
AcDbLayerTableRecord
  2
0
 70
0
  6
CONTINUOUS
  0
LAYER
  5
51
100
AcDbSymbolTableRecord
100
AcDbLayerTableRecord
  2
Camada_1
 70
0
  6
CONTINUOUS
  0
ENDTAB
  0
TABLE
  2
STYLE
  5
3
330
0
100
AcDbSymbolTable
 70
     1
  0
STYLE
  5
11
330
3
100
AcDbSymbolTableRecord
100
AcDbTextStyleTableRecord
  2
STANDARD
 70
     0
 40
0.0
 41
1.0
 50
0.0
 71
     0
 42
2.5
  3
txt
  4

  0
ENDTAB
  0
TABLE
  2
VIEW
  5
6
330
0
100
AcDbSymbolTable
 70
     0
  0
ENDTAB
  0
TABLE
  2
UCS
  5
7
330
0
100
AcDbSymbolTable
 70
     0
  0
ENDTAB
  0
TABLE
  2
APPID
  5
9
330
0
100
AcDbSymbolTable
 70
     2
  0
APPID
  5
12
330
9
100
AcDbSymbolTableRecord
100
AcDbRegAppTableRecord
  2
ACAD
 70
     0
  0
ENDTAB
  0
TABLE
  2
DIMSTYLE
  5
A
330
0
100
AcDbSymbolTable
 70
     1
  0
DIMSTYLE
105
27
330
A
100
AcDbSymbolTableRecord
100
AcDbDimStyleTableRecord
  2
ISO-25
 70
     0
  3

  4

  5

  6

  7

 40
1.0
 41
2.5
 42
0.625
 43
3.75
 44
1.25
 45
0.0
 46
0.0
 47
0.0
 48
0.0
140
2.5
141
2.5
142
0.0
143
0.03937007874016
144
1.0
145
0.0
146
1.0
147
0.625
 71
     0
 72
     0
 73
     0
 74
     0
 75
     0
 76
     0
 77
     1
 78
     8
170
     0
171
     3
172
     1
173
     0
174
     0
175
     0
176
     0
177
     0
178
     0
270
     2
271
     2
272
     2
273
     2
274
     3
340
11
275
     0
280
     0
281
     0
282
     0
283
     0
284
     8
285
     0
286
     0
287
     3
288
     0
  0
ENDTAB
  0
TABLE
  2
BLOCK_RECORD
  5
1
330
0
100
AcDbSymbolTable
 70
     1
  0
BLOCK_RECORD
  5
1F
330
1
100
AcDbSymbolTableRecord
100
AcDbBlockTableRecord
  2
*MODEL_SPACE
  0
BLOCK_RECORD
  5
1B
330
1
100
AcDbSymbolTableRecord
100
AcDbBlockTableRecord
  2
*PAPER_SPACE
  0
ENDTAB
  0
ENDSEC
  0
SECTION
  2
BLOCKS
  0
BLOCK
  5
20
330
1F
100
AcDbEntity
  8
0
100
AcDbBlockBegin
  2
*MODEL_SPACE
 70
     0
 10
0.0
 20
0.0
 30
0.0
  3
*MODEL_SPACE
  1

  0
ENDBLK
  5
21
330
1F
100
AcDbEntity
  8
0
100
AcDbBlockEnd
  0
BLOCK
  5
1C
330
1B
100
AcDbEntity
 67
     1
  8
0
100
AcDbBlockBegin
  2
*PAPER_SPACE
  1

  0
ENDBLK
  5
1D
330
1B
100
AcDbEntity
 67
     1
  8
0
100
AcDbBlockEnd
  0
ENDSEC
  0
SECTION
  2
ENTITIES
  0
SPLINE
  5
100
100
AcDbEntity
  8
Camada_1
 62
7
100
AcDbSpline
 70
8
 71
3
 72
8
 73
4
 74
0
 40
0
 40
0
 40
0
 40
0
 40
1
 40
1
 40
1
 40
1
 10
-34.132755
 20
-18.838725
 30
0.0
 10
-30.436143
 20
-18.473472
 30
0.0
 10
-27.036736
 20
-17.089643
 30
0.0
 10
-24.107775
 20
-14.757768
 30
0.0
  0
SPLINE
  5
101
100
AcDbEntity
  8
Camada_1
 62
7
100
AcDbSpline
 70
8
 71
3
 72
8
 73
4
 74
0
 40
0
 40
0
 40
0
 40
0
 40
1
 40
1
 40
1
 40
1
 10
-24.107775
 20
-14.757768
 30
0.0
 10
-23.269062
 20
-14.090030
 30
0.0
 10
-21.851779
 20
-12.678059
 30
0.0
 10
-21.196799
 20
-11.857711
 30
0.0
  0
SPLINE
  5
102
100
AcDbEntity
  8
Camada_1
 62
7
100
AcDbSpline
 70
8
 71
3
 72
8
 73
4
 74
0
 40
0
 40
0
 40
0
 40
0
 40
1
 40
1
 40
1
 40
1
 10
-21.196799
 20
-11.857711
 30
0.0
 10
-17.298582
 20
-6.975218
 30
0.0
 10
-16.050248
 20
-0.669557
 30
0.0
 10
-17.793863
 20
5.331358
 30
0.0
  0
SPLINE
  5
103
100
AcDbEntity
  8
Camada_1
 62
7
100
AcDbSpline
 70
8
 71
3
 72
8
 73
4
 74
0
 40
0
 40
0
 40
0
 40
0
 40
1
 40
1
 40
1
 40
1
 10
-17.793863
 20
5.331358
 30
0.0
 10
-18.605252
 20
8.123871
 30
0.0
 10
-20.252643
 20
10.926448
 30
0.0
 10
-22.367056
 20
13.111351
 30
0.0
  0
SPLINE
  5
104
100
AcDbEntity
  8
Camada_1
 62
7
100
AcDbSpline
 70
8
 71
3
 72
8
 73
4
 74
0
 40
0
 40
0
 40
0
 40
0
 40
1
 40
1
 40
1
 40
1
 10
-22.367056
 20
13.111351
 30
0.0
 10
-25.471849
 20
16.319644
 30
0.0
 10
-29.511663
 20
18.286510
 30
0.0
 10
-34.017548
 20
18.783604
 30
0.0
  0
SPLINE
  5
105
100
AcDbEntity
  8
Camada_1
 62
7
100
AcDbSpline
 70
8
 71
3
 72
8
 73
4
 74
0
 40
0
 40
0
 40
0
 40
0
 40
1
 40
1
 40
1
 40
1
 10
-34.017548
 20
18.783604
 30
0.0
 10
-34.974395
 20
18.889165
 30
0.0
 10
-37.054192
 20
18.871702
 30
0.0
 10
-38.083571
 20
18.749527
 30
0.0
  0
SPLINE
  5
106
100
AcDbEntity
  8
Camada_1
 62
7
100
AcDbSpline
 70
8
 71
3
 72
8
 73
4
 74
0
 40
0
 40
0
 40
0
 40
0
 40
1
 40
1
 40
1
 40
1
 10
-38.083571
 20
18.749527
 30
0.0
 10
-43.807701
 20
18.069812
 30
0.0
 10
-48.874483
 20
14.851407
 30
0.0
 10
-51.964460
 20
9.932422
 30
0.0
  0
SPLINE
  5
107
100
AcDbEntity
  8
Camada_1
 62
7
100
AcDbSpline
 70
8
 71
3
 72
8
 73
4
 74
0
 40
0
 40
0
 40
0
 40
0
 40
1
 40
1
 40
1
 40
1
 10
-51.964460
 20
9.932422
 30
0.0
 10
-53.072822
 20
8.167999
 30
0.0
 10
-53.927422
 20
6.092503
 30
0.0
 10
-54.379907
 20
4.066175
 30
0.0
  0
SPLINE
  5
108
100
AcDbEntity
  8
Camada_1
 62
7
100
AcDbSpline
 70
8
 71
3
 72
8
 73
4
 74
0
 40
0
 40
0
 40
0
 40
0
 40
1
 40
1
 40
1
 40
1
 10
-54.379907
 20
4.066175
 30
0.0
 10
-54.883513
 20
1.810952
 30
0.0
 10
-54.949306
 20
-0.900990
 30
0.0
 10
-54.556113
 20
-3.196796
 30
0.0
  0
SPLINE
  5
109
100
AcDbEntity
  8
Camada_1
 62
7
100
AcDbSpline
 70
8
 71
3
 72
8
 73
4
 74
0
 40
0
 40
0
 40
0
 40
0
 40
1
 40
1
 40
1
 40
1
 10
-54.556113
 20
-3.196796
 30
0.0
 10
-54.022115
 20
-6.314772
 30
0.0
 10
-52.701217
 20
-9.256637
 30
0.0
 10
-50.701427
 20
-11.781864
 30
0.0
  0
SPLINE
  5
10a
100
AcDbEntity
  8
Camada_1
 62
7
100
AcDbSpline
 70
8
 71
3
 72
8
 73
4
 74
0
 40
0
 40
0
 40
0
 40
0
 40
1
 40
1
 40
1
 40
1
 10
-50.701427
 20
-11.781864
 30
0.0
 10
-50.074039
 20
-12.574108
 30
0.0
 10
-48.515686
 20
-14.136765
 30
0.0
 10
-47.736490
 20
-14.755011
 30
0.0
  0
SPLINE
  5
10b
100
AcDbEntity
  8
Camada_1
 62
7
100
AcDbSpline
 70
8
 71
3
 72
8
 73
4
 74
0
 40
0
 40
0
 40
0
 40
0
 40
1
 40
1
 40
1
 40
1
 10
-47.736490
 20
-14.755011
 30
0.0
 10
-44.926169
 20
-16.984831
 30
0.0
 10
-41.605228
 20
-18.389761
 30
0.0
 10
-38.238769
 20
-18.773030
 30
0.0
  0
SPLINE
  5
10c
100
AcDbEntity
  8
Camada_1
 62
7
100
AcDbSpline
 70
8
 71
3
 72
8
 73
4
 74
0
 40
0
 40
0
 40
0
 40
0
 40
1
 40
1
 40
1
 40
1
 10
-38.238769
 20
-18.773030
 30
0.0
 10
-37.914405
 20
-18.809990
 30
0.0
 10
-37.565226
 20
-18.849933
 30
0.0
 10
-37.462796
 20
-18.861880
 30
0.0
  0
SPLINE
  5
10d
100
AcDbEntity
  8
Camada_1
 62
7
100
AcDbSpline
 70
8
 71
3
 72
8
 73
4
 74
0
 40
0
 40
0
 40
0
 40
0
 40
1
 40
1
 40
1
 40
1
 10
-37.462796
 20
-18.861880
 30
0.0
 10
-37.024475
 20
-18.912979
 30
0.0
 10
-34.722421
 20
-18.896921
 30
0.0
 10
-34.132755
 20
-18.838588
 30
0.0
  0
LWPOLYLINE
  5
10e
100
AcDbEntity
  8
Camada_1
 62
7
100
AcDbPolyline
 90
8
 70
1
 10
-54.999462
 20
0.000095
 30
0.0
 10
-54.999462
 20
19.150745
 30
0.0
 10
-35.879844
 20
19.150745
 30
0.0
 10
-16.760242
 20
19.150745
 30
0.0
 10
-16.760242
 20
0.000095
 30
0.0
 10
-16.760242
 20
-19.150554
 30
0.0
 10
-35.879844
 20
-19.150554
 30
0.0
 10
-54.999462
 20
-19.150554
 30
0.0
  0
LWPOLYLINE
  5
10f
100
AcDbEntity
  8
Camada_1
 62
7
100
AcDbPolyline
 90
2
 70
0
 10
-34.132755
 20
-18.838588
 30
0.0
 10
-34.132755
 20
-18.838725
 30
0.0
  0
SPLINE
  5
110
100
AcDbEntity
  8
Camada_1
 62
7
100
AcDbSpline
 70
8
 71
3
 72
8
 73
4
 74
0
 40
0
 40
0
 40
0
 40
0
 40
1
 40
1
 40
1
 40
1
 10
-34.629371
 20
-13.064434
 30
0.0
 10
-28.648886
 20
-12.462685
 30
0.0
 10
-23.768553
 20
-7.774564
 30
0.0
 10
-22.940217
 20
-1.835665
 30
0.0
  0
SPLINE
  5
111
100
AcDbEntity
  8
Camada_1
 62
7
100
AcDbSpline
 70
8
 71
3
 72
8
 73
4
 74
0
 40
0
 40
0
 40
0
 40
0
 40
1
 40
1
 40
1
 40
1
 10
-22.940217
 20
-1.835665
 30
0.0
 10
-22.816538
 20
-0.948978
 30
0.0
 10
-22.814862
 20
0.898240
 30
0.0
 10
-22.936166
 20
1.757088
 30
0.0
  0
SPLINE
  5
112
100
AcDbEntity
  8
Camada_1
 62
7
100
AcDbSpline
 70
8
 71
3
 72
8
 73
4
 74
0
 40
0
 40
0
 40
0
 40
0
 40
1
 40
1
 40
1
 40
1
 10
-22.936166
 20
1.757088
 30
0.0
 10
-23.553622
 20
6.100853
 30
0.0
 10
-26.251733
 20
9.808240
 30
0.0
 10
-30.199054
 20
11.736773
 30
0.0
  0
SPLINE
  5
113
100
AcDbEntity
  8
Camada_1
 62
7
100
AcDbSpline
 70
8
 71
3
 72
8
 73
4
 74
0
 40
0
 40
0
 40
0
 40
0
 40
1
 40
1
 40
1
 40
1
 10
-30.199054
 20
11.736773
 30
0.0
 10
-32.869499
 20
13.041451
 30
0.0
 10
-35.834666
 20
13.394111
 30
0.0
 10
-38.765630
 20
12.755637
 30
0.0
  0
SPLINE
  5
114
100
AcDbEntity
  8
Camada_1
 62
7
100
AcDbSpline
 70
8
 71
3
 72
8
 73
4
 74
0
 40
0
 40
0
 40
0
 40
0
 40
1
 40
1
 40
1
 40
1
 10
-38.765630
 20
12.755637
 30
0.0
 10
-40.652347
 20
12.344641
 30
0.0
 10
-42.756874
 20
11.311233
 30
0.0
 10
-44.253176
 20
10.061040
 30
0.0
  0
SPLINE
  5
115
100
AcDbEntity
  8
Camada_1
 62
7
100
AcDbSpline
 70
8
 71
3
 72
8
 73
4
 74
0
 40
0
 40
0
 40
0
 40
0
 40
1
 40
1
 40
1
 40
1
 10
-44.253176
 20
10.061040
 30
0.0
 10
-50.140896
 20
5.141704
 30
0.0
 10
-50.640398
 20
-3.582551
 30
0.0
 10
-45.349492
 20
-9.087016
 30
0.0
  0
SPLINE
  5
116
100
AcDbEntity
  8
Camada_1
 62
7
100
AcDbSpline
 70
8
 71
3
 72
8
 73
4
 74
0
 40
0
 40
0
 40
0
 40
0
 40
1
 40
1
 40
1
 40
1
 10
-45.349492
 20
-9.087016
 30
0.0
 10
-42.564111
 20
-11.984820
 30
0.0
 10
-38.581892
 20
-13.462204
 30
0.0
 10
-34.628603
 20
-13.064434
 30
0.0
  0
LWPOLYLINE
  5
117
100
AcDbEntity
  8
Camada_1
 62
7
100
AcDbPolyline
 90
8
 70
1
 10
-49.164246
 20
-0.030939
 30
0.0
 10
-49.164246
 20
13.253460
 30
0.0
 10
-35.910888
 20
13.253460
 30
0.0
 10
-22.657523
 20
13.253460
 30
0.0
 10
-22.657523
 20
-0.030939
 30
0.0
 10
-22.657523
 20
-13.315348
 30
0.0
 10
-35.910888
 20
-13.315348
 30
0.0
 10
-49.164246
 20
-13.315348
 30
0.0
  0
LWPOLYLINE
  5
118
100
AcDbEntity
  8
Camada_1
 62
7
100
AcDbPolyline
 90
2
 70
0
 10
-34.628603
 20
-13.064434
 30
0.0
 10
-34.629371
 20
-13.064434
 30
0.0
  0
SPLINE
  5
119
100
AcDbEntity
  8
Camada_1
 62
7
100
AcDbSpline
 70
8
 71
3
 72
8
 73
4
 74
0
 40
0
 40
0
 40
0
 40
0
 40
1
 40
1
 40
1
 40
1
 10
31.659553
 20
-7.257880
 30
0.0
 10
31.574195
 20
-7.243702
 30
0.0
 10
31.252948
 20
-7.200985
 30
0.0
 10
30.945670
 20
-7.162868
 30
0.0
  0
SPLINE
  5
11a
100
AcDbEntity
  8
Camada_1
 62
7
100
AcDbSpline
 70
8
 71
3
 72
8
 73
4
 74
0
 40
0
 40
0
 40
0
 40
0
 40
1
 40
1
 40
1
 40
1
 10
30.945670
 20
-7.162868
 30
0.0
 10
30.255869
 20
-7.077296
 30
0.0
 10
29.477078
 20
-6.856821
 30
0.0
 10
28.982152
 20
-6.606978
 30
0.0
  0
SPLINE
  5
11b
100
AcDbEntity
  8
Camada_1
 62
7
100
AcDbSpline
 70
8
 71
3
 72
8
 73
4
 74
0
 40
0
 40
0
 40
0
 40
0
 40
1
 40
1
 40
1
 40
1
 10
28.982152
 20
-6.606978
 30
0.0
 10
28.240379
 20
-6.232535
 30
0.0
 10
27.819535
 20
-5.675027
 30
0.0
 10
27.547297
 20
-4.706177
 30
0.0
  0
SPLINE
  5
11c
100
AcDbEntity
  8
Camada_1
 62
7
100
AcDbSpline
 70
8
 71
3
 72
8
 73
4
 74
0
 40
0
 40
0
 40
0
 40
0
 40
1
 40
1
 40
1
 40
1
 10
27.547297
 20
-4.706177
 30
0.0
 10
27.412408
 20
-4.226134
 30
0.0
 10
27.410783
 20
-4.164378
 30
0.0
 10
27.390803
 20
1.257148
 30
0.0
  0
LWPOLYLINE
  5
11d
100
AcDbEntity
  8
Camada_1
 62
7
100
AcDbPolyline
 90
8
 70
1
 10
-7.634971
 20
-16.543338
 30
0.0
 10
-7.634971
 20
-13.936118
 30
0.0
 10
23.682701
 20
-13.936118
 30
0.0
 10
55.000371
 20
-13.936118
 30
0.0
 10
55.000371
 20
-16.543338
 30
0.0
 10
55.000371
 20
-19.150554
 30
0.0
 10
23.682701
 20
-19.150554
 30
0.0
 10
-7.634971
 20
-19.150554
 30
0.0
  0
SPLINE
  5
11e
100
AcDbEntity
  8
Camada_1
 62
7
100
AcDbSpline
 70
8
 71
3
 72
8
 73
4
 74
0
 40
0
 40
0
 40
0
 40
0
 40
1
 40
1
 40
1
 40
1
 10
31.100899
 20
1.871662
 30
0.0
 10
31.100899
 20
-1.637600
 30
0.0
 10
31.120849
 20
-3.050854
 30
0.0
 10
31.172460
 20
-3.203105
 30
0.0
  0
SPLINE
  5
11f
100
AcDbEntity
  8
Camada_1
 62
7
100
AcDbSpline
 70
8
 71
3
 72
8
 73
4
 74
0
 40
0
 40
0
 40
0
 40
0
 40
1
 40
1
 40
1
 40
1
 10
31.172460
 20
-3.203105
 30
0.0
 10
31.287875
 20
-3.543396
 30
0.0
 10
31.454678
 20
-3.735319
 30
0.0
 10
31.768644
 20
-3.889079
 30
0.0
  0
SPLINE
  5
120
100
AcDbEntity
  8
Camada_1
 62
7
100
AcDbSpline
 70
8
 71
3
 72
8
 73
4
 74
0
 40
0
 40
0
 40
0
 40
0
 40
1
 40
1
 40
1
 40
1
 10
31.768644
 20
-3.889079
 30
0.0
 10
32.039095
 20
-4.021522
 30
0.0
 10
32.159786
 20
-4.035117
 30
0.0
 10
33.250994
 20
-4.056044
 30
0.0
  0
SPLINE
  5
121
100
AcDbEntity
  8
Camada_1
 62
7
100
AcDbSpline
 70
8
 71
3
 72
8
 73
4
 74
0
 40
0
 40
0
 40
0
 40
0
 40
1
 40
1
 40
1
 40
1
 10
33.250994
 20
-4.056044
 30
0.0
 10
34.207408
 20
-4.074424
 30
0.0
 10
34.505536
 20
-4.060095
 30
0.0
 10
34.780797
 20
-3.979450
 30
0.0
  0
SPLINE
  5
122
100
AcDbEntity
  8
Camada_1
 62
7
100
AcDbSpline
 70
8
 71
3
 72
8
 73
4
 74
0
 40
0
 40
0
 40
0
 40
0
 40
1
 40
1
 40
1
 40
1
 10
34.780797
 20
-3.979450
 30
0.0
 10
35.175732
 20
-3.864643
 30
0.0
 10
35.463961
 20
-3.583918
 30
0.0
 10
35.566671
 20
-3.214073
 30
0.0
  0
SPLINE
  5
123
100
AcDbEntity
  8
Camada_1
 62
7
100
AcDbSpline
 70
8
 71
3
 72
8
 73
4
 74
0
 40
0
 40
0
 40
0
 40
0
 40
1
 40
1
 40
1
 40
1
 10
35.566671
 20
-3.214073
 30
0.0
 10
35.609558
 20
-3.059690
 30
0.0
 10
35.631929
 20
-1.320140
 30
0.0
 10
35.632151
 20
1.877918
 30
0.0
  0
LWPOLYLINE
  5
124
100
AcDbEntity
  8
Camada_1
 62
7
100
AcDbPolyline
 90
5
 70
0
 10
27.390803
 20
1.257148
 30
0.0
 10
27.370650
 20
6.735412
 30
0.0
 10
29.235772
 20
6.735412
 30
0.0
 10
31.100899
 20
6.735412
 30
0.0
 10
31.100899
 20
1.871662
 30
0.0
  0
SPLINE
  5
125
100
AcDbEntity
  8
Camada_1
 62
7
100
AcDbSpline
 70
8
 71
3
 72
8
 73
4
 74
0
 40
0
 40
0
 40
0
 40
0
 40
1
 40
1
 40
1
 40
1
 10
39.356942
 20
1.653258
 30
0.0
 10
39.356942
 20
-2.588698
 30
0.0
 10
39.341549
 20
-3.517299
 30
0.0
 10
39.263694
 20
-3.963610
 30
0.0
  0
SPLINE
  5
126
100
AcDbEntity
  8
Camada_1
 62
7
100
AcDbSpline
 70
8
 71
3
 72
8
 73
4
 74
0
 40
0
 40
0
 40
0
 40
0
 40
1
 40
1
 40
1
 40
1
 10
39.263694
 20
-3.963610
 30
0.0
 10
38.948037
 20
-5.773778
 30
0.0
 10
38.027790
 20
-6.688265
 30
0.0
 10
36.096895
 20
-7.110611
 30
0.0
  0
SPLINE
  5
127
100
AcDbEntity
  8
Camada_1
 62
7
100
AcDbSpline
 70
8
 71
3
 72
8
 73
4
 74
0
 40
0
 40
0
 40
0
 40
0
 40
1
 40
1
 40
1
 40
1
 10
36.096895
 20
-7.110611
 30
0.0
 10
35.552945
 20
-7.229598
 30
0.0
 10
35.253222
 20
-7.248454
 30
0.0
 10
33.645898
 20
-7.264880
 30
0.0
  0
SPLINE
  5
128
100
AcDbEntity
  8
Camada_1
 62
7
100
AcDbSpline
 70
8
 71
3
 72
8
 73
4
 74
0
 40
0
 40
0
 40
0
 40
0
 40
1
 40
1
 40
1
 40
1
 10
33.645898
 20
-7.264880
 30
0.0
 10
32.638698
 20
-7.275158
 30
0.0
 10
31.744796
 20
-7.272222
 30
0.0
 10
31.659442
 20
-7.257487
 30
0.0
  0
LWPOLYLINE
  5
129
100
AcDbEntity
  8
Camada_1
 62
7
100
AcDbPolyline
 90
5
 70
0
 10
35.632151
 20
1.877918
 30
0.0
 10
35.632349
 20
6.735412
 30
0.0
 10
37.494645
 20
6.735412
 30
0.0
 10
39.356942
 20
6.735412
 30
0.0
 10
39.356942
 20
1.653258
 30
0.0
  0
LWPOLYLINE
  5
12a
100
AcDbEntity
  8
Camada_1
 62
7
100
AcDbPolyline
 90
2
 70
0
 10
31.659442
 20
-7.257487
 30
0.0
 10
31.659553
 20
-7.257880
 30
0.0
  0
SPLINE
  5
12b
100
AcDbEntity
  8
Camada_1
 62
7
100
AcDbSpline
 70
8
 71
3
 72
8
 73
4
 74
0
 40
0
 40
0
 40
0
 40
0
 40
1
 40
1
 40
1
 40
1
 10
-0.562905
 20
6.316401
 30
0.0
 10
0.990550
 20
1.123543
 30
0.0
 10
1.964139
 20
-2.017395
 30
0.0
 10
2.020318
 20
-2.017395
 30
0.0
  0
SPLINE
  5
12c
100
AcDbEntity
  8
Camada_1
 62
7
100
AcDbSpline
 70
8
 71
3
 72
8
 73
4
 74
0
 40
0
 40
0
 40
0
 40
0
 40
1
 40
1
 40
1
 40
1
 10
2.020318
 20
-2.017395
 30
0.0
 10
2.060065
 20
-2.017395
 30
0.0
 10
2.641156
 20
-0.114222
 30
0.0
 10
3.356548
 20
2.359009
 30
0.0
  0
LWPOLYLINE
  5
12d
100
AcDbEntity
  8
Camada_1
 62
7
100
AcDbPolyline
 90
5
 70
0
 10
-6.579674
 20
-0.248212
 30
0.0
 10
-6.579674
 20
6.735412
 30
0.0
 10
-3.633958
 20
6.735412
 30
0.0
 10
-0.688254
 20
6.735412
 30
0.0
 10
-0.562905
 20
6.316401
 30
0.0
  0
SPLINE
  5
12e
100
AcDbEntity
  8
Camada_1
 62
7
100
AcDbSpline
 70
8
 71
3
 72
8
 73
4
 74
0
 40
0
 40
0
 40
0
 40
0
 40
1
 40
1
 40
1
 40
1
 10
6.990921
 20
-5.696275
 30
0.0
 10
7.017453
 20
-4.850739
 30
0.0
 10
7.100164
 20
-2.454938
 30
0.0
 10
7.174763
 20
-0.372260
 30
0.0
  0
SPLINE
  5
12f
100
AcDbEntity
  8
Camada_1
 62
7
100
AcDbSpline
 70
8
 71
3
 72
8
 73
4
 74
0
 40
0
 40
0
 40
0
 40
0
 40
1
 40
1
 40
1
 40
1
 10
7.174763
 20
-0.372260
 30
0.0
 10
7.249346
 20
1.710408
 30
0.0
 10
7.304477
 20
3.421393
 30
0.0
 10
7.297261
 20
3.429932
 30
0.0
  0
SPLINE
  5
130
100
AcDbEntity
  8
Camada_1
 62
7
100
AcDbSpline
 70
8
 71
3
 72
8
 73
4
 74
0
 40
0
 40
0
 40
0
 40
0
 40
1
 40
1
 40
1
 40
1
 10
7.297261
 20
3.429932
 30
0.0
 10
7.213842
 20
3.528615
 30
0.0
 10
6.920808
 20
2.705656
 30
0.0
 10
5.401876
 20
-1.893139
 30
0.0
  0
LWPOLYLINE
  5
131
100
AcDbEntity
  8
Camada_1
 62
7
100
AcDbPolyline
 90
9
 70
0
 10
3.356548
 20
2.359009
 30
0.0
 10
4.622462
 20
6.735412
 30
0.0
 10
7.650317
 20
6.735412
 30
0.0
 10
10.678171
 20
6.735412
 30
0.0
 10
10.662424
 20
-0.232693
 30
0.0
 10
10.646677
 20
-7.200792
 30
0.0
 10
8.794725
 20
-7.217198
 30
0.0
 10
6.942768
 20
-7.233603
 30
0.0
 10
6.990921
 20
-5.696275
 30
0.0
  0
SPLINE
  5
132
100
AcDbEntity
  8
Camada_1
 62
7
100
AcDbSpline
 70
8
 71
3
 72
8
 73
4
 74
0
 40
0
 40
0
 40
0
 40
0
 40
1
 40
1
 40
1
 40
1
 10
-1.326126
 20
-1.891785
 30
0.0
 10
-2.311847
 20
1.044068
 30
0.0
 10
-3.144657
 20
3.446132
 30
0.0
 10
-3.176847
 20
3.446132
 30
0.0
  0
SPLINE
  5
133
100
AcDbEntity
  8
Camada_1
 62
7
100
AcDbSpline
 70
8
 71
3
 72
8
 73
4
 74
0
 40
0
 40
0
 40
0
 40
0
 40
1
 40
1
 40
1
 40
1
 10
-3.176847
 20
3.446132
 30
0.0
 10
-3.239534
 20
3.446132
 30
0.0
 10
-3.231101
 20
3.121002
 30
0.0
 10
-3.002646
 20
-3.288132
 30
0.0
  0
SPLINE
  5
134
100
AcDbEntity
  8
Camada_1
 62
7
100
AcDbSpline
 70
8
 71
3
 72
8
 73
4
 74
0
 40
0
 40
0
 40
0
 40
0
 40
1
 40
1
 40
1
 40
1
 10
-3.002646
 20
-3.288132
 30
0.0
 10
-2.926017
 20
-5.438516
 30
0.0
 10
-2.870752
 20
-7.205362
 30
0.0
 10
-2.879869
 20
-7.214481
 30
0.0
  0
SPLINE
  5
135
100
AcDbEntity
  8
Camada_1
 62
7
100
AcDbSpline
 70
8
 71
3
 72
8
 73
4
 74
0
 40
0
 40
0
 40
0
 40
0
 40
1
 40
1
 40
1
 40
1
 10
-2.879869
 20
-7.214481
 30
0.0
 10
-2.888932
 20
-7.223545
 30
0.0
 10
-3.725147
 20
-7.231039
 30
0.0
 10
-4.738031
 20
-7.231039
 30
0.0
  0
LWPOLYLINE
  5
136
100
AcDbEntity
  8
Camada_1
 62
7
100
AcDbPolyline
 90
5
 70
0
 10
5.401876
 20
-1.893139
 30
0.0
 10
3.638599
 20
-7.231737
 30
0.0
 10
2.052329
 20
-7.230725
 30
0.0
 10
0.466063
 20
-7.229712
 30
0.0
 10
-1.326126
 20
-1.891785
 30
0.0
  0
SPLINE
  5
137
100
AcDbEntity
  8
Camada_1
 62
7
100
AcDbSpline
 70
8
 71
3
 72
8
 73
4
 74
0
 40
0
 40
0
 40
0
 40
0
 40
1
 40
1
 40
1
 40
1
 10
12.002401
 20
-7.061116
 30
0.0
 10
12.058640
 20
-6.799296
 30
0.0
 10
16.120749
 20
6.674396
 30
0.0
 10
16.153235
 20
6.706883
 30
0.0
  0
SPLINE
  5
138
100
AcDbEntity
  8
Camada_1
 62
7
100
AcDbSpline
 70
8
 71
3
 72
8
 73
4
 74
0
 40
0
 40
0
 40
0
 40
0
 40
1
 40
1
 40
1
 40
1
 10
16.153235
 20
6.706883
 30
0.0
 10
16.168932
 20
6.722529
 30
0.0
 10
17.438917
 20
6.735387
 30
0.0
 10
18.975430
 20
6.735387
 30
0.0
  0
LWPOLYLINE
  5
139
100
AcDbEntity
  8
Camada_1
 62
7
100
AcDbPolyline
 90
3
 70
0
 10
-4.738031
 20
-7.231039
 30
0.0
 10
-6.579643
 20
-7.231039
 30
0.0
 10
-6.579674
 20
-0.248212
 30
0.0
  0
SPLINE
  5
13a
100
AcDbEntity
  8
Camada_1
 62
7
100
AcDbSpline
 70
8
 71
3
 72
8
 73
4
 74
0
 40
0
 40
0
 40
0
 40
0
 40
1
 40
1
 40
1
 40
1
 10
23.888579
 20
-0.228801
 30
0.0
 10
25.054299
 20
-4.059103
 30
0.0
 10
25.999316
 20
-7.201739
 30
0.0
 10
25.988622
 20
-7.212433
 30
0.0
  0
SPLINE
  5
13b
100
AcDbEntity
  8
Camada_1
 62
7
100
AcDbSpline
 70
8
 71
3
 72
8
 73
4
 74
0
 40
0
 40
0
 40
0
 40
0
 40
1
 40
1
 40
1
 40
1
 10
25.988622
 20
-7.212433
 30
0.0
 10
25.977938
 20
-7.223168
 30
0.0
 10
25.130493
 20
-7.231826
 30
0.0
 10
24.105414
 20
-7.231826
 30
0.0
  0
LWPOLYLINE
  5
13c
100
AcDbEntity
  8
Camada_1
 62
7
100
AcDbPolyline
 90
3
 70
0
 10
18.975430
 20
6.735387
 30
0.0
 10
21.769087
 20
6.735387
 30
0.0
 10
23.888579
 20
-0.228801
 30
0.0
  0
SPLINE
  5
13d
100
AcDbEntity
  8
Camada_1
 62
7
100
AcDbSpline
 70
8
 71
3
 72
8
 73
4
 74
0
 40
0
 40
0
 40
0
 40
0
 40
1
 40
1
 40
1
 40
1
 10
20.734058
 20
-2.032970
 30
0.0
 10
20.734058
 20
-1.861878
 30
0.0
 10
19.022155
 20
3.923937
 30
0.0
 10
18.989537
 20
3.863110
 30
0.0
  0
SPLINE
  5
13e
100
AcDbEntity
  8
Camada_1
 62
7
100
AcDbSpline
 70
8
 71
3
 72
8
 73
4
 74
0
 40
0
 40
0
 40
0
 40
0
 40
1
 40
1
 40
1
 40
1
 10
18.989537
 20
3.863110
 30
0.0
 10
18.950903
 20
3.791043
 30
0.0
 10
17.319847
 20
-1.984209
 30
0.0
 10
17.319847
 20
-2.049021
 30
0.0
  0
SPLINE
  5
13f
100
AcDbEntity
  8
Camada_1
 62
7
100
AcDbSpline
 70
8
 71
3
 72
8
 73
4
 74
0
 40
0
 40
0
 40
0
 40
0
 40
1
 40
1
 40
1
 40
1
 10
17.319847
 20
-2.049021
 30
0.0
 10
17.319847
 20
-2.065730
 30
0.0
 10
18.088045
 20
-2.079399
 30
0.0
 10
19.026950
 20
-2.079399
 30
0.0
  0
SPLINE
  5
140
100
AcDbEntity
  8
Camada_1
 62
7
100
AcDbSpline
 70
8
 71
3
 72
8
 73
4
 74
0
 40
0
 40
0
 40
0
 40
0
 40
1
 40
1
 40
1
 40
1
 10
19.026950
 20
-2.079399
 30
0.0
 10
19.965860
 20
-2.079399
 30
0.0
 10
20.734058
 20
-2.058487
 30
0.0
 10
20.734058
 20
-2.032919
 30
0.0
  0
LWPOLYLINE
  5
141
100
AcDbEntity
  8
Camada_1
 62
7
100
AcDbPolyline
 90
11
 70
0
 10
24.105414
 20
-7.231826
 30
0.0
 10
22.241624
 20
-7.231826
 30
0.0
 10
21.875824
 20
-6.021229
 30
0.0
 10
21.510019
 20
-4.810640
 30
0.0
 10
19.002190
 20
-4.826235
 30
0.0
 10
16.494361
 20
-4.841830
 30
0.0
 10
16.153494
 20
-6.036806
 30
0.0
 10
15.812636
 20
-7.231788
 30
0.0
 10
13.889179
 20
-7.231788
 30
0.0
 10
11.965732
 20
-7.231788
 30
0.0
 10
12.002401
 20
-7.061116
 30
0.0
  0
SPLINE
  5
142
100
AcDbEntity
  8
Camada_1
 62
7
100
AcDbSpline
 70
8
 71
3
 72
8
 73
4
 74
0
 40
0
 40
0
 40
0
 40
0
 40
1
 40
1
 40
1
 40
1
 10
40.722742
 20
-7.203516
 30
0.0
 10
40.722742
 20
-7.147870
 30
0.0
 10
44.875042
 20
6.687194
 30
0.0
 10
44.898911
 20
6.711057
 30
0.0
  0
SPLINE
  5
143
100
AcDbEntity
  8
Camada_1
 62
7
100
AcDbSpline
 70
8
 71
3
 72
8
 73
4
 74
0
 40
0
 40
0
 40
0
 40
0
 40
1
 40
1
 40
1
 40
1
 10
44.898911
 20
6.711057
 30
0.0
 10
44.912304
 20
6.724501
 30
0.0
 10
46.184013
 20
6.735412
 30
0.0
 10
47.724921
 20
6.735412
 30
0.0
  0
LWPOLYLINE
  5
144
100
AcDbEntity
  8
Camada_1
 62
7
100
AcDbPolyline
 90
1
 70
1
 10
20.734058
 20
-2.032919
 30
0.0
  0
SPLINE
  5
145
100
AcDbEntity
  8
Camada_1
 62
7
100
AcDbSpline
 70
8
 71
3
 72
8
 73
4
 74
0
 40
0
 40
0
 40
0
 40
0
 40
1
 40
1
 40
1
 40
1
 10
50.742792
 20
6.037049
 30
0.0
 10
51.816652
 20
2.568567
 30
0.0
 10
54.757712
 20
-7.184810
 30
0.0
 10
54.736233
 20
-7.206296
 30
0.0
  0
SPLINE
  5
146
100
AcDbEntity
  8
Camada_1
 62
7
100
AcDbSpline
 70
8
 71
3
 72
8
 73
4
 74
0
 40
0
 40
0
 40
0
 40
0
 40
1
 40
1
 40
1
 40
1
 10
54.736233
 20
-7.206296
 30
0.0
 10
54.721094
 20
-7.221436
 30
0.0
 10
53.873707
 20
-7.226297
 30
0.0
 10
52.853038
 20
-7.217284
 30
0.0
  0
LWPOLYLINE
  5
147
100
AcDbEntity
  8
Camada_1
 62
7
100
AcDbPolyline
 90
3
 70
0
 10
47.724921
 20
6.735412
 30
0.0
 10
50.526585
 20
6.735412
 30
0.0
 10
50.742792
 20
6.037049
 30
0.0
  0
SPLINE
  5
148
100
AcDbEntity
  8
Camada_1
 62
7
100
AcDbSpline
 70
8
 71
3
 72
8
 73
4
 74
0
 40
0
 40
0
 40
0
 40
0
 40
1
 40
1
 40
1
 40
1
 10
45.136599
 20
-5.229851
 30
0.0
 10
45.068925
 20
-5.460301
 30
0.0
 10
44.914709
 20
-5.995132
 30
0.0
 10
44.793840
 20
-6.418346
 30
0.0
  0
SPLINE
  5
149
100
AcDbEntity
  8
Camada_1
 62
7
100
AcDbSpline
 70
8
 71
3
 72
8
 73
4
 74
0
 40
0
 40
0
 40
0
 40
0
 40
1
 40
1
 40
1
 40
1
 10
44.793840
 20
-6.418346
 30
0.0
 10
44.672980
 20
-6.841562
 30
0.0
 10
44.564195
 20
-7.197726
 30
0.0
 10
44.552099
 20
-7.209818
 30
0.0
  0
SPLINE
  5
14a
100
AcDbEntity
  8
Camada_1
 62
7
100
AcDbSpline
 70
8
 71
3
 72
8
 73
4
 74
0
 40
0
 40
0
 40
0
 40
0
 40
1
 40
1
 40
1
 40
1
 10
44.552099
 20
-7.209818
 30
0.0
 10
44.519255
 20
-7.242682
 30
0.0
 10
40.722742
 20
-7.236454
 30
0.0
 10
40.722742
 20
-7.203286
 30
0.0
  0
LWPOLYLINE
  5
14b
100
AcDbEntity
  8
Camada_1
 62
7
100
AcDbPolyline
 90
7
 70
0
 10
52.853038
 20
-7.217284
 30
0.0
 10
50.997271
 20
-7.200777
 30
0.0
 10
50.629516
 20
-6.005801
 30
0.0
 10
50.261772
 20
-4.810834
 30
0.0
 10
47.760684
 20
-4.810834
 30
0.0
 10
45.259599
 20
-4.810834
 30
0.0
 10
45.136599
 20
-5.229851
 30
0.0
  0
SPLINE
  5
14c
100
AcDbEntity
  8
Camada_1
 62
7
100
AcDbSpline
 70
8
 71
3
 72
8
 73
4
 74
0
 40
0
 40
0
 40
0
 40
0
 40
1
 40
1
 40
1
 40
1
 10
48.664614
 20
0.907227
 30
0.0
 10
48.192444
 20
2.549919
 30
0.0
 10
47.793249
 20
3.906813
 30
0.0
 10
47.777509
 20
3.922550
 30
0.0
  0
SPLINE
  5
14d
100
AcDbEntity
  8
Camada_1
 62
7
100
AcDbSpline
 70
8
 71
3
 72
8
 73
4
 74
0
 40
0
 40
0
 40
0
 40
0
 40
1
 40
1
 40
1
 40
1
 10
47.777509
 20
3.922550
 30
0.0
 10
47.744293
 20
3.955768
 30
0.0
 10
47.776750
 20
4.066902
 30
0.0
 10
46.833806
 20
0.682934
 30
0.0
  0
SPLINE
  5
14e
100
AcDbEntity
  8
Camada_1
 62
7
100
AcDbSpline
 70
8
 71
3
 72
8
 73
4
 74
0
 40
0
 40
0
 40
0
 40
0
 40
1
 40
1
 40
1
 40
1
 10
46.833806
 20
0.682934
 30
0.0
 10
46.434264
 20
-0.751035
 30
0.0
 10
46.094016
 20
-1.959201
 30
0.0
 10
46.077705
 20
-2.001873
 30
0.0
  0
SPLINE
  5
14f
100
AcDbEntity
  8
Camada_1
 62
7
100
AcDbSpline
 70
8
 71
3
 72
8
 73
4
 74
0
 40
0
 40
0
 40
0
 40
0
 40
1
 40
1
 40
1
 40
1
 10
46.077705
 20
-2.001873
 30
0.0
 10
46.054388
 20
-2.062809
 30
0.0
 10
46.421122
 20
-2.079477
 30
0.0
 10
47.785580
 20
-2.079477
 30
0.0
  0
LWPOLYLINE
  5
150
100
AcDbEntity
  8
Camada_1
 62
7
100
AcDbPolyline
 90
2
 70
0
 10
40.722742
 20
-7.203286
 30
0.0
 10
40.722742
 20
-7.203516
 30
0.0
  0
LWPOLYLINE
  5
151
100
AcDbEntity
  8
Camada_1
 62
7
100
AcDbPolyline
 90
3
 70
0
 10
47.785580
 20
-2.079477
 30
0.0
 10
49.523106
 20
-2.079477
 30
0.0
 10
48.664614
 20
0.907227
 30
0.0
  0
SPLINE
  5
152
100
AcDbEntity
  8
Camada_1
 62
7
100
AcDbSpline
 70
8
 71
3
 72
8
 73
4
 74
0
 40
0
 40
0
 40
0
 40
0
 40
1
 40
1
 40
1
 40
1
 10
46.422932
 20
9.396201
 30
0.0
 10
48.900621
 20
10.858874
 30
0.0
 10
49.181903
 20
11.022310
 30
0.0
 10
49.192561
 20
11.005459
 30
0.0
  0
SPLINE
  5
153
100
AcDbEntity
  8
Camada_1
 62
7
100
AcDbSpline
 70
8
 71
3
 72
8
 73
4
 74
0
 40
0
 40
0
 40
0
 40
0
 40
1
 40
1
 40
1
 40
1
 10
49.192561
 20
11.005459
 30
0.0
 10
49.320102
 20
10.803805
 30
0.0
 10
50.078834
 20
8.991342
 30
0.0
 10
50.047431
 20
8.963367
 30
0.0
  0
SPLINE
  5
154
100
AcDbEntity
  8
Camada_1
 62
7
100
AcDbSpline
 70
8
 71
3
 72
8
 73
4
 74
0
 40
0
 40
0
 40
0
 40
0
 40
1
 40
1
 40
1
 40
1
 10
50.047431
 20
8.963367
 30
0.0
 10
50.002706
 20
8.923569
 30
0.0
 10
46.024116
 20
7.666566
 30
0.0
 10
45.942737
 20
7.666566
 30
0.0
  0
SPLINE
  5
155
100
AcDbEntity
  8
Camada_1
 62
7
100
AcDbSpline
 70
8
 71
3
 72
8
 73
4
 74
0
 40
0
 40
0
 40
0
 40
0
 40
1
 40
1
 40
1
 40
1
 10
45.942737
 20
7.666566
 30
0.0
 10
45.918534
 20
7.666566
 30
0.0
 10
45.783780
 20
7.918242
 30
0.0
 10
45.643276
 20
8.225843
 30
0.0
  0
LWPOLYLINE
  5
156
100
AcDbEntity
  8
Camada_1
 62
7
100
AcDbPolyline
 90
3
 70
0
 10
45.643276
 20
8.225843
 30
0.0
 10
45.387820
 20
8.785125
 30
0.0
 10
46.422932
 20
9.396201
 30
0.0
  0
LWPOLYLINE
  5
157
100
AcDbEntity
  8
Camada_1
 62
7
100
AcDbPolyline
 90
1
 70
1
 10
45.643276
 20
8.225843
 30
0.0
  0
LWPOLYLINE
  5
158
100
AcDbEntity
  8
Camada_1
 62
7
100
AcDbPolyline
 90
8
 70
1
 10
-7.634971
 20
16.512489
 30
0.0
 10
-7.634971
 20
19.150745
 30
0.0
 10
23.682701
 20
19.150745
 30
0.0
 10
55.000371
 20
19.150745
 30
0.0
 10
55.000371
 20
16.512489
 30
0.0
 10
55.000371
 20
13.874227
 30
0.0
 10
23.682701
 20
13.874227
 30
0.0
 10
-7.634971
 20
13.874227
 30
0.0
  0
ENDSEC
  0
SECTION
  2
OBJECTS
  0
DICTIONARY
  5
C
330
0
100
AcDbDictionary
  3
ACAD_GROUP
350
D
  3
ACAD_MLINESTYLE
350
17
  0
DICTIONARY
  5
D
330
C
100
AcDbDictionary
  0
DICTIONARY
  5
1A
330
C
100
AcDbDictionary
  0
DICTIONARY
  5
17
330
C
100
AcDbDictionary
  3
STANDARD
350
18
  0
DICTIONARY
  5
19
330
C
100
AcDbDictionary
  0
ENDSEC
  0
EOF
