  0
SECTION
  2
HEADER
  9
$ACADVER
  1
AC1015
  9
$ACADMAINTVER
 70
     6
  9
$DWGCODEPAGE
  3
ANSI_1252
  9
$INSBASE
 10
0.0
 20
0.0
 30
0.0
  9
$EXTMIN
 10
-75.35
 20
-57.35
 30
0.0
  9
$EXTMAX
 10
75.35
 20
57.35
 30
0.0
  9
$LIMMIN
 10
0.0
 20
0.0
  9
$LIMMAX
 10
420.0
 20
297.0
  9
$ORTHOMODE
 70
     0
  9
$REGENMODE
 70
     1
  9
$FILLMODE
 70
     1
  9
$QTEXTMODE
 70
     0
  9
$MIRRTEXT
 70
     1
  9
$LTSCALE
 40
1.0
  9
$ATTMODE
 70
     1
  9
$TEXTSIZE
 40
3.5
  9
$TRACEWID
 40
1.0
  9
$TEXTSTYLE
  7
Standard
  9
$CLAYER
  8
0
  9
$CELTYPE
  6
ByLayer
  9
$CECOLOR
 62
   256
  9
$CELTSCALE
 40
1.0
  9
$DISPSILH
 70
     0
  9
$DIMSCALE
 40
1.0
  9
$DIMASZ
 40
3.302
  9
$DIMEXO
 40
0.0
  9
$DIMDLI
 40
3.75
  9
$DIMRND
 40
0.0
  9
$DIMDLE
 40
0.0
  9
$DIMEXE
 40
1.0
  9
$DIMTP
 40
0.0
  9
$DIMTM
 40
0.0
  9
$DIMTXT
 40
3.5
  9
$DIMCEN
 40
2.5
  9
$DIMTSZ
 40
0.0
  9
$DIMTOL
 70
     0
  9
$DIMLIM
 70
     0
  9
$DIMTIH
 70
     1
  9
$DIMTOH
 70
     1
  9
$DIMSE1
 70
     0
  9
$DIMSE2
 70
     0
  9
$DIMTAD
 70
     1
  9
$DIMZIN
 70
     1
  9
$DIMBLK
  1

  9
$DIMASO
 70
     1
  9
$DIMSHO
 70
     1
  9
$DIMPOST
  1

  9
$DIMAPOST
  1

  9
$DIMALT
 70
     0
  9
$DIMALTD
 70
     3
  9
$DIMALTF
 40
0.0393700787
  9
$DIMLFAC
 40
1.0
  9
$DIMTOFL
 70
     1
  9
$DIMTVP
 40
0.0
  9
$DIMTIX
 70
     0
  9
$DIMSOXD
 70
     0
  9
$DIMSAH
 70
     0
  9
$DIMBLK1
  1

  9
$DIMBLK2
  1

  9
$DIMSTYLE
  2
ISO-25
  9
$DIMCLRD
 70
     0
  9
$DIMCLRE
 70
     0
  9
$DIMCLRT
 70
     0
  9
$DIMTFAC
 40
1.0
  9
$DIMGAP
 40
1.524
  9
$DIMJUST
 70
     0
  9
$DIMSD1
 70
     0
  9
$DIMSD2
 70
     0
  9
$DIMTOLJ
 70
     0
  9
$DIMTZIN
 70
     1
  9
$DIMALTZ
 70
     0
  9
$DIMALTTZ
 70
     0
  9
$DIMUPT
 70
     0
  9
$DIMDEC
 70
     2
  9
$DIMTDEC
 70
     2
  9
$DIMALTU
 70
     2
  9
$DIMALTTD
 70
     3
  9
$DIMTXSTY
  7
Standard
  9
$DIMAUNIT
 70
     0
  9
$DIMADEC
 70
     2
  9
$DIMALTRND
 40
0.0
  9
$DIMAZIN
 70
     0
  9
$DIMDSEP
 70
    44
  9
$DIMATFIT
 70
     3
  9
$DIMFRAC
 70
     0
  9
$DIMLDRBLK
  1

  9
$DIMLUNIT
 70
     2
  9
$DIMLWD
 70
    -2
  9
$DIMLWE
 70
    -2
  9
$DIMTMOVE
 70
     0
  9
$LUNITS
 70
     2
  9
$LUPREC
 70
     2
  9
$SKETCHINC
 40
1.0
  9
$FILLETRAD
 40
10.0
  9
$AUNITS
 70
     0
  9
$AUPREC
 70
     2
  9
$MENU
  1
.
  9
$ELEVATION
 40
0.0
  9
$PELEVATION
 40
0.0
  9
$THICKNESS
 40
0.0
  9
$LIMCHECK
 70
     0
  9
$CHAMFERA
 40
0.0
  9
$CHAMFERB
 40
0.0
  9
$CHAMFERC
 40
0.0
  9
$CHAMFERD
 40
0.0
  9
$SKPOLY
 70
     0
  9
$TDCREATE
 40
2460870.730343229
  9
$TDUCREATE
 40
2460870.855343229
  9
$TDUPDATE
 40
2460870.730359595
  9
$TDUUPDATE
 40
2460870.855359595
  9
$TDINDWG
 40
0.0000000116
  9
$TDUSRTIMER
 40
0.0000000116
  9
$USRTIMER
 70
     1
  9
$ANGBASE
 50
0.0
  9
$ANGDIR
 70
     0
  9
$PDMODE
 70
     0
  9
$PDSIZE
 40
-1.0
  9
$PLINEWID
 40
0.0
  9
$SPLFRAME
 70
     0
  9
$SPLINETYPE
 70
     6
  9
$SPLINESEGS
 70
     8
  9
$HANDSEED
  5
16C
  9
$SURFTAB1
 70
     6
  9
$SURFTAB2
 70
     6
  9
$SURFTYPE
 70
     6
  9
$SURFU
 70
     6
  9
$SURFV
 70
     6
  9
$UCSBASE
  2

  9
$UCSNAME
  2

  9
$UCSORG
 10
0.0
 20
0.0
 30
0.0
  9
$UCSXDIR
 10
1.0
 20
0.0
 30
0.0
  9
$UCSYDIR
 10
0.0
 20
1.0
 30
0.0
  9
$UCSORTHOREF
  2

  9
$UCSORTHOVIEW
 70
     0
  9
$UCSORGTOP
 10
0.0
 20
0.0
 30
0.0
  9
$UCSORGBOTTOM
 10
0.0
 20
0.0
 30
0.0
  9
$UCSORGLEFT
 10
0.0
 20
0.0
 30
0.0
  9
$UCSORGRIGHT
 10
0.0
 20
0.0
 30
0.0
  9
$UCSORGFRONT
 10
0.0
 20
0.0
 30
0.0
  9
$UCSORGBACK
 10
0.0
 20
0.0
 30
0.0
  9
$PUCSBASE
  2

  9
$PUCSNAME
  2

  9
$PUCSORG
 10
0.0
 20
0.0
 30
0.0
  9
$PUCSXDIR
 10
1.0
 20
0.0
 30
0.0
  9
$PUCSYDIR
 10
0.0
 20
1.0
 30
0.0
  9
$PUCSORTHOREF
  2

  9
$PUCSORTHOVIEW
 70
     0
  9
$PUCSORGTOP
 10
0.0
 20
0.0
 30
0.0
  9
$PUCSORGBOTTOM
 10
0.0
 20
0.0
 30
0.0
  9
$PUCSORGLEFT
 10
0.0
 20
0.0
 30
0.0
  9
$PUCSORGRIGHT
 10
0.0
 20
0.0
 30
0.0
  9
$PUCSORGFRONT
 10
0.0
 20
0.0
 30
0.0
  9
$PUCSORGBACK
 10
0.0
 20
0.0
 30
0.0
  9
$USERI1
 70
     0
  9
$USERI2
 70
     0
  9
$USERI3
 70
     0
  9
$USERI4
 70
     0
  9
$USERI5
 70
     0
  9
$USERR1
 40
0.0
  9
$USERR2
 40
0.0
  9
$USERR3
 40
0.0
  9
$USERR4
 40
0.0
  9
$USERR5
 40
0.0
  9
$WORLDVIEW
 70
     1
  9
$SHADEDGE
 70
     3
  9
$SHADEDIF
 70
    70
  9
$TILEMODE
 70
     1
  9
$MAXACTVP
 70
    64
  9
$PINSBASE
 10
0.0
 20
0.0
 30
0.0
  9
$PLIMCHECK
 70
     0
  9
$PEXTMIN
 10
1.0000000000E+20
 20
1.0000000000E+20
 30
1.0000000000E+20
  9
$PEXTMAX
 10
-1.0000000000E+20
 20
-1.0000000000E+20
 30
-1.0000000000E+20
  9
$PLIMMIN
 10
0.0
 20
0.0
  9
$PLIMMAX
 10
420.0
 20
297.0
  9
$UNITMODE
 70
     0
  9
$VISRETAIN
 70
     1
  9
$PLINEGEN
 70
     0
  9
$PSLTSCALE
 70
     1
  9
$TREEDEPTH
 70
  3020
  9
$CMLSTYLE
  2
Standard
  9
$CMLJUST
 70
     0
  9
$CMLSCALE
 40
20.0
  9
$PROXYGRAPHICS
 70
     1
  9
$MEASUREMENT
 70
     1
  9
$CELWEIGHT
370
    -1
  9
$ENDCAPS
280
     0
  9
$JOINSTYLE
280
     0
  9
$LWDISPLAY
290
     1
  9
$INSUNITS
 70
     4
  9
$HYPERLINKBASE
  1

  9
$STYLESHEET
  1

  9
$XEDIT
290
     1
  9
$CEPSNTYPE
380
     0
  9
$PSTYLEMODE
290
     1
  9
$FINGERPRINTGUID
  2
{1e596034-f130-4a0c-923c-86faa966ff8c}
  9
$VERSIONGUID
  2
{FAEB1C32-E019-11D5-929B-00C0DF256EC4}
  9
$EXTNAMES
290
     1
  9
$PSVPSCALE
 40
0.0
  9
$OLESTARTUP
290
     0
  0
ENDSEC
  0
SECTION
  2
CLASSES
  0
CLASS
  1
ACDBDICTIONARYWDFLT
  2
AcDbDictionaryWithDefault
  3
ObjectDBX Classes
 90
        0
280
     0
281
     0
  0
CLASS
  1
VISUALSTYLE
  2
AcDbVisualStyle
  3
ObjectDBX Classes
 90
     4095
280
     0
281
     0
  0
CLASS
  1
MATERIAL
  2
AcDbMaterial
  3
ObjectDBX Classes
 90
     1153
280
     0
281
     0
  0
CLASS
  1
SCALE
  2
AcDbScale
  3
ObjectDBX Classes
 90
     1153
280
     0
281
     0
  0
CLASS
  1
TABLESTYLE
  2
AcDbTableStyle
  3
ObjectDBX Classes
 90
     4095
280
     0
281
     0
  0
CLASS
  1
MLEADERSTYLE
  2
AcDbMLeaderStyle
  3
ACDB_MLEADERSTYLE_CLASS
 90
     4095
280
     0
281
     0
  0
CLASS
  1
SUN
  2
AcDbSun
  3
SCENEOE
 90
     1153
280
     0
281
     0
  0
CLASS
  1
ACDBPLACEHOLDER
  2
AcDbPlaceHolder
  3
ObjectDBX Classes
 90
        0
280
     0
281
     0
  0
CLASS
  1
LAYOUT
  2
AcDbLayout
  3
ObjectDBX Classes
 90
        0
280
     0
281
     0
  0
ENDSEC
  0
SECTION
  2
TABLES
  0
TABLE
  2
VPORT
  5
8
330
0
100
AcDbSymbolTable
 70
     1
  0
VPORT
  5
29
330
8
100
AcDbSymbolTableRecord
100
AcDbViewportTableRecord
  2
*Active
 70
     0
 10
0.0
 20
0.0
 11
1.0
 21
1.0
 12
0.0
 22
0.0
 13
0.0
 23
0.0
 14
10.0
 24
10.0
 15
10.0
 25
10.0
 16
0.0
 26
0.0
 36
1.0
 17
0.0
 27
0.0
 37
0.0
 40
116.994
 41
1.3138622493
 42
50.0
 43
0.0
 44
0.0
 50
0.0
 51
0.0
 71
     0
 72
   100
 73
     1
 74
     3
 75
     0
 76
     0
 77
     0
 78
     0
281
     0
 65
     1
110
0.0
120
0.0
130
0.0
111
1.0
121
0.0
131
0.0
112
0.0
122
1.0
132
0.0
 79
     0
146
0.0
  0
ENDTAB
  0
TABLE
  2
LTYPE
  5
5
330
0
100
AcDbSymbolTable
 70
     6
  0
LTYPE
  5
14
330
5
100
AcDbSymbolTableRecord
100
AcDbLinetypeTableRecord
  2
ByBlock
 70
     0
  3

 72
    65
 73
     0
 40
0.0
  0
LTYPE
  5
15
330
5
100
AcDbSymbolTableRecord
100
AcDbLinetypeTableRecord
  2
ByLayer
 70
     0
  3

 72
    65
 73
     0
 40
0.0
  0
LTYPE
  5
16
330
5
100
AcDbSymbolTableRecord
100
AcDbLinetypeTableRecord
  2
Continuous
 70
     0
  3
Solid line
 72
    65
 73
     0
 40
0.0
  0
LTYPE
  5
6E
330
5
100
AcDbSymbolTableRecord
100
AcDbLinetypeTableRecord
  2
HIDDEN
 70
     0
  3
Hidden __ __ __ __ __ __ __ __ __ __ __ __ __ __
 72
    65
 73
     2
 40
1.905
 49
1.27
 74
     0
 49
-0.635
 74
     0
  0
LTYPE
  5
6F
330
5
100
AcDbSymbolTableRecord
100
AcDbLinetypeTableRecord
  2
PHANTOM
 70
     0
  3
Phantom ______  __  __  ______  __  __  ______
 72
    65
 73
     6
 40
12.7
 49
6.35
 74
     0
 49
-1.27
 74
     0
 49
1.27
 74
     0
 49
-1.27
 74
     0
 49
1.27
 74
     0
 49
-1.27
 74
     0
  0
LTYPE
  5
70
330
5
100
AcDbSymbolTableRecord
100
AcDbLinetypeTableRecord
  2
CENTER
 70
     0
  3
Center ____ _ ____ _ ____ _ ____ _ ____ _ ____
 72
    65
 73
     4
 40
10.16
 49
6.35
 74
     0
 49
-1.27
 74
     0
 49
1.27
 74
     0
 49
-1.27
 74
     0
  0
LTYPE
  5
71
330
5
100
AcDbSymbolTableRecord
100
AcDbLinetypeTableRecord
  2
CENTERX2
 70
     0
  3
Center (2x) ________  __  ________  __  _____
 72
    65
 73
     4
 40
20.32
 49
12.7
 74
     0
 49
-2.54
 74
     0
 49
2.54
 74
     0
 49
-2.54
 74
     0
  0
LTYPE
  5
72
330
5
100
AcDbSymbolTableRecord
100
AcDbLinetypeTableRecord
  2
DOT2
 70
     0
  3
Dot (.5x) ........................................
 72
    65
 73
     2
 40
0.635
 49
0.0
 74
     0
 49
-0.635
 74
     0
  0
ENDTAB
  0
TABLE
  2
LAYER
  5
2
330
0
100
AcDbSymbolTable
 70
     1
  0
LAYER
  5
10
330
2
100
AcDbSymbolTableRecord
100
AcDbLayerTableRecord
  2
0
 70
     0
 62
     7
  6
Continuous
370
    -3
390
F
  0
ENDTAB
  0
TABLE
  2
STYLE
  5
3
330
0
100
AcDbSymbolTable
 70
     1
  0
STYLE
  5
11
330
3
100
AcDbSymbolTableRecord
100
AcDbTextStyleTableRecord
  2
Standard
 70
     0
 40
0.0
 41
1.0
 50
0.0
 71
     0
 42
3.5
  3
txt
  4

  0
ENDTAB
  0
TABLE
  2
VIEW
  5
6
330
0
100
AcDbSymbolTable
 70
     0
  0
ENDTAB
  0
TABLE
  2
UCS
  5
7
330
0
100
AcDbSymbolTable
 70
     0
  0
ENDTAB
  0
TABLE
  2
APPID
  5
9
330
0
100
AcDbSymbolTable
 70
     1
  0
APPID
  5
12
330
9
100
AcDbSymbolTableRecord
100
AcDbRegAppTableRecord
  2
ACAD
 70
     0
  0
ENDTAB
  0
TABLE
  2
DIMSTYLE
  5
A
330
0
100
AcDbSymbolTable
 70
     1
100
AcDbDimStyleTable
  0
DIMSTYLE
105
27
330
A
100
AcDbSymbolTableRecord
100
AcDbDimStyleTableRecord
  2
ISO-25
 70
     0
 41
2.5
 42
0.625
 43
3.75
 44
1.25
 73
     0
 74
     0
 77
     1
 78
     8
140
2.5
141
2.5
143
0.0393700787
147
0.625
171
     3
172
     1
178
     0
271
     2
272
     2
274
     3
278
    44
283
     0
284
     8
340
11
  0
ENDTAB
  0
TABLE
  2
BLOCK_RECORD
  5
1
330
0
100
AcDbSymbolTable
 70
     1
  0
BLOCK_RECORD
  5
1F
330
1
100
AcDbSymbolTableRecord
100
AcDbBlockTableRecord
  2
*Model_Space
340
22
  0
BLOCK_RECORD
  5
1B
330
1
100
AcDbSymbolTableRecord
100
AcDbBlockTableRecord
  2
*Paper_Space
340
1E
  0
BLOCK_RECORD
  5
23
330
1
100
AcDbSymbolTableRecord
100
AcDbBlockTableRecord
  2
*Paper_Space0
340
26
  0
ENDTAB
  0
ENDSEC
  0
SECTION
  2
BLOCKS
  0
BLOCK
  5
20
330
1F
100
AcDbEntity
  8
0
100
AcDbBlockBegin
  2
*Model_Space
 70
     0
 10
0.0
 20
0.0
 30
0.0
  3
*Model_Space
  1

  0
ENDBLK
  5
21
330
1F
100
AcDbEntity
  8
0
100
AcDbBlockEnd
  0
BLOCK
  5
1C
330
1B
100
AcDbEntity
 67
     1
  8
0
100
AcDbBlockBegin
  2
*Paper_Space
 70
     0
 10
0.0
 20
0.0
 30
0.0
  3
*Paper_Space
  1

  0
ENDBLK
  5
1D
330
1B
100
AcDbEntity
 67
     1
  8
0
100
AcDbBlockEnd
  0
BLOCK
  5
24
330
23
100
AcDbEntity
  8
0
100
AcDbBlockBegin
  2
*Paper_Space0
 70
     0
 10
0.0
 20
0.0
 30
0.0
  3
*Paper_Space0
  1

  0
ENDBLK
  5
25
330
23
100
AcDbEntity
  8
0
100
AcDbBlockEnd
  0
ENDSEC
  0
SECTION
  2
ENTITIES
  0
SPLINE
  5
74
330
1F
100
AcDbEntity
  8
0
  6
Continuous
 62
     7
370
    25
100
AcDbSpline
210
0.0
220
0.0
230
1.0
 70
     8
 71
     3
 72
    15
 73
    11
 74
     0
 42
0.00000001
 43
0.00000001
 40
0.0
 40
0.0
 40
0.0
 40
0.0
 40
0.148117903381778
 40
0.2758520891624277
 40
0.3887404602898641
 40
0.4924796911247314
 40
0.5970066267467233
 40
0.7137747437689276
 40
0.8468284513816942
 40
0.9999999999999999
 40
0.9999999999999999
 40
0.9999999999999999
 40
0.9999999999999999
 10
63.56875000000001
 20
42.35000000000002
 30
0.0
 10
63.49241765951879
 20
42.35199718280416
 30
0.0
 10
63.35025769700484
 20
42.35571669973212
 30
0.0
 10
63.15418322073925
 20
42.40040825062611
 30
0.0
 10
62.98934079223904
 20
42.46893266449725
 30
0.0
 10
62.85799731030161
 20
42.57308298455771
 30
0.0
 10
62.76119177000375
 20
42.71181343738774
 30
0.0
 10
62.69494921997262
 20
42.88305338763089
 30
0.0
 10
62.65750162103419
 20
43.08798445303631
 30
0.0
 10
62.65261502791618
 20
43.23525281322064
 30
0.0
 10
62.65000000000003
 20
43.31406250000002
 30
0.0
  0
SPLINE
  5
76
330
1F
100
AcDbEntity
  8
0
  6
Continuous
 62
     7
370
    25
100
AcDbSpline
210
0.0
220
0.0
230
1.0
 70
     8
 71
     3
 72
    15
 73
    11
 74
     0
 42
0.00000001
 43
0.00000001
 40
0.0
 40
0.0
 40
0.0
 40
0.0
 40
0.1202231895927845
 40
0.2325581639606073
 40
0.3441076561611484
 40
0.4567717215353799
 40
0.574921473418301
 40
0.701248759471607
 40
0.841887706708015
 40
1.0
 40
1.0
 40
1.0
 40
1.0
 10
68.1109375
 20
42.99531250000001
 30
0.0
 10
68.10873388950598
 20
42.94920293982766
 30
0.0
 10
68.1044712542165
 20
42.86000921030647
 30
0.0
 10
68.06555754917949
 20
42.73262070871856
 30
0.0
 10
68.0004430816835
 20
42.62024159140429
 30
0.0
 10
67.91086182781025
 20
42.52334040469997
 30
0.0
 10
67.79843638414782
 20
42.4432457324523
 30
0.0
 10
67.65984972049299
 20
42.39006344744922
 30
0.0
 10
67.50021660426057
 20
42.35463472829035
 30
0.0
 10
67.38563933116048
 20
42.35160399652091
 30
0.0
 10
67.325
 20
42.35000000000002
 30
0.0
  0
SPLINE
  5
77
330
1F
100
AcDbEntity
  8
0
  6
Continuous
 62
     7
370
    25
100
AcDbSpline
210
0.0
220
0.0
230
1.0
 70
     8
 71
     3
 72
    15
 73
    11
 74
     0
 42
0.00000001
 43
0.00000001
 40
0.0
 40
0.0
 40
0.0
 40
0.0
 40
0.1550337644472313
 40
0.2956398480582916
 40
0.4227207273063797
 40
0.5440761416024255
 40
0.6593982807374345
 40
0.77068760484325
 40
0.8827605791277284
 40
1.0
 40
1.0
 40
1.0
 40
1.0
 10
67.325
 20
43.65000000000001
 30
0.0
 10
67.38460636319152
 20
43.64843957340787
 30
0.0
 10
67.49827202963574
 20
43.64546393592491
 30
0.0
 10
67.65718797938048
 20
43.60867982698133
 30
0.0
 10
67.79641024852211
 20
43.55176514737536
 30
0.0
 10
67.90897614720507
 20
43.46712830008168
 30
0.0
 10
67.99970750006965
 20
43.36813382295097
 30
0.0
 10
68.06560362645371
 20
43.25490564840403
 30
0.0
 10
68.10414737002863
 20
43.12848946740476
 30
0.0
 10
68.10864038058331
 20
43.04036662988733
 30
0.0
 10
68.11093750000002
 20
42.99531250000002
 30
0.0
  0
SPLINE
  5
7A
330
1F
100
AcDbEntity
  8
0
  6
Continuous
 62
     7
370
    25
100
AcDbSpline
210
0.0
220
0.0
230
1.0
 70
     8
 71
     3
 72
    15
 73
    11
 74
     0
 42
0.00000001
 43
0.00000001
 40
0.0
 40
0.0
 40
0.0
 40
0.0
 40
0.1172064969145026
 40
0.2276387516711843
 40
0.3357661614619499
 40
0.4464889514609339
 40
0.5637831285798777
 40
0.6919810922994309
 40
0.8353768806301315
 40
1.0
 40
1.0
 40
1.0
 40
1.0
 10
63.39218750000001
 20
50.25000000000001
 30
0.0
 10
63.4462173715562
 20
50.2478158915514
 30
0.0
 10
63.55115432332757
 20
50.24357391065578
 30
0.0
 10
63.69952561027251
 20
50.19553110494481
 30
0.0
 10
63.83260019683588
 20
50.1214098480372
 30
0.0
 10
63.94688894767265
 20
50.01550019209461
 30
0.0
 10
64.04130382906507
 20
49.88002432709178
 30
0.0
 10
64.10551034092902
 20
49.71185104346742
 30
0.0
 10
64.14463288090951
 20
49.51430200223608
 30
0.0
 10
64.14813061083
 20
49.37260569954276
 30
0.0
 10
64.15
 20
49.29687500000001
 30
0.0
  0
SPLINE
  5
7B
330
1F
100
AcDbEntity
  8
0
  6
Continuous
 62
     7
370
    25
100
AcDbSpline
210
0.0
220
0.0
230
1.0
 70
     8
 71
     3
 72
    15
 73
    11
 74
     0
 42
0.00000001
 43
0.00000001
 40
0.0
 40
0.0
 40
0.0
 40
0.0
 40
0.1640284378042441
 40
0.3088983247878902
 40
0.4369270566033845
 40
0.5550889364537733
 40
0.6668913062363425
 40
0.7747223797062018
 40
0.8837630375467764
 40
1.0
 40
1.0
 40
1.0
 40
1.0
 10
62.65000000000001
 20
49.29687500000001
 30
0.0
 10
62.65193269123924
 20
49.3715495140544
 30
0.0
 10
62.65557233503592
 20
49.51217654558951
 30
0.0
 10
62.69433957907883
 20
49.70814931889034
 30
0.0
 10
62.75816730207691
 20
49.87520787899486
 30
0.0
 10
62.84803791444522
 20
50.01275996046278
 30
0.0
 10
62.96095170491508
 20
50.1188170699827
 30
0.0
 10
63.09013913890337
 20
50.19637498228791
 30
0.0
 10
63.23674995068225
 20
50.24102808298603
 30
0.0
 10
63.339283203971
 20
50.2469463430443
 30
0.0
 10
63.39218750000001
 20
50.25000000000001
 30
0.0
  0
SPLINE
  5
7C
330
1F
100
AcDbEntity
  8
0
  6
Continuous
 62
     7
370
    25
100
AcDbSpline
210
0.0
220
0.0
230
1.0
 70
     8
 71
     3
 72
    17
 73
    13
 74
     0
 42
0.00000001
 43
0.00000001
 40
0.0
 40
0.0
 40
0.0
 40
0.0
 40
0.0811939239052599
 40
0.156735873268679
 40
0.2288822190511368
 40
0.2987519458206567
 40
0.437996262244568
 40
0.5808282274439664
 40
0.6615771143098186
 40
0.7587225620016017
 40
0.8711386221593609
 40
1.0
 40
1.0
 40
1.0
 40
1.0
 10
60.53281250000001
 20
42.25000000000001
 30
0.0
 10
60.49048512568208
 20
42.25131571804155
 30
0.0
 10
60.40877681971782
 20
42.25385556593034
 30
0.0
 10
60.29174120726898
 20
42.27859851402292
 30
0.0
 10
60.18398743336449
 20
42.31497958241209
 30
0.0
 10
60.05630979689245
 20
42.38802563456728
 30
0.0
 10
59.91554364890162
 20
42.50757026152063
 30
0.0
 10
59.79627186070773
 20
42.65501649121907
 30
0.0
 10
59.70428130882021
 20
42.79437538426605
 30
0.0
 10
59.624110256975
 20
42.92249117234301
 30
0.0
 10
59.52913211170048
 20
43.0708837327502
 30
0.0
 10
59.46430848308577
 20
43.17847512384424
 30
0.0
 10
59.4296875
 20
43.23593750000001
 30
0.0
  0
SPLINE
  5
7D
330
1F
100
AcDbEntity
  8
0
  6
Continuous
 62
     7
370
    25
100
AcDbSpline
210
0.0
220
0.0
230
1.0
 70
     8
 71
     3
 72
    17
 73
    13
 74
     0
 42
0.00000001
 43
0.00000001
 40
0.0
 40
0.0
 40
0.0
 40
0.0
 40
0.1406975552960067
 40
0.295220797189847
 40
0.3767564478477703
 40
0.4575194754195119
 40
0.5410805361872387
 40
0.626619062156789
 40
0.7146975176568088
 40
0.8048514507654319
 40
0.9001553276350004
 40
0.9999999999999999
 40
0.9999999999999999
 40
0.9999999999999999
 40
0.9999999999999999
 10
61.2875
 20
42.87031250000001
 30
0.0
 10
61.28216706025994
 20
42.8195269224528
 30
0.0
 10
61.27097713788984
 20
42.71296530766362
 30
0.0
 10
61.2061219407262
 20
42.59021467298783
 30
0.0
 10
61.13750382808029
 20
42.49913737306971
 30
0.0
 10
61.07585792337754
 20
42.43497042786014
 30
0.0
 10
61.00339177222516
 20
42.38108496936871
 30
0.0
 10
60.92357043897412
 20
42.33372529786897
 30
0.0
 10
60.83593676730239
 20
42.29606994752083
 30
0.0
 10
60.74072996291912
 20
42.2700371058914
 30
0.0
 10
60.6392473054446
 20
42.25165842315657
 30
0.0
 10
60.56883688123908
 20
42.25056131702217
 30
0.0
 10
60.53281250000001
 20
42.25000000000001
 30
0.0
  0
SPLINE
  5
7E
330
1F
100
AcDbEntity
  8
0
  6
Continuous
 62
     7
370
    25
100
AcDbSpline
210
0.0
220
0.0
230
1.0
 70
     8
 71
     3
 72
    23
 73
    19
 74
     0
 42
0.00000001
 43
0.00000001
 40
0.0
 40
0.0
 40
0.0
 40
0.0
 40
0.0646961556516941
 40
0.1319187972708148
 40
0.2029702639278554
 40
0.2777605315391684
 40
0.3545394828198533
 40
0.4310151404333173
 40
0.5074009580938769
 40
0.5835154630944466
 40
0.6571324168009884
 40
0.7258868232559359
 40
0.7898770024325947
 40
0.8490169267591765
 40
0.9011454867119976
 40
0.9433440781211606
 40
0.9763194820009077
 40
0.9999999999999999
 40
0.9999999999999999
 40
0.9999999999999999
 40
0.9999999999999999
 10
59.1703125
 20
45.83125000000001
 30
0.0
 10
59.24056362680177
 20
45.79216373973122
 30
0.0
 10
59.3838092966759
 20
45.71246483965699
 30
0.0
 10
59.58539402384961
 20
45.56030976204237
 30
0.0
 10
59.78459172254591
 20
45.38596745105579
 30
0.0
 10
59.97361467331731
 20
45.18393746802072
 30
0.0
 10
60.15727211418792
 20
44.96853652966283
 30
0.0
 10
60.33465423475656
 20
44.74528502359153
 30
0.0
 10
60.5000855957587
 20
44.51401554583487
 30
0.0
 10
60.65255308444334
 20
44.27829619090622
 30
0.0
 10
60.79359477435285
 20
44.04662145667307
 30
0.0
 10
60.91910482173792
 20
43.8232470473724
 30
0.0
 10
61.02670385002322
 20
43.61067994384957
 30
0.0
 10
61.11813609683902
 20
43.41326646520741
 30
0.0
 10
61.19096694791329
 20
43.23707307273362
 30
0.0
 10
61.24285486652774
 20
43.08794652192672
 30
0.0
 10
61.2777152803904
 20
42.96972592091531
 30
0.0
 10
61.2846157891838
 20
42.89961627929261
 30
0.0
 10
61.2875
 20
42.87031250000001
 30
0.0
  0
SPLINE
  5
7F
330
1F
100
AcDbEntity
  8
0
  6
Continuous
 62
     7
370
    25
100
AcDbSpline
210
0.0
220
0.0
230
1.0
 70
     8
 71
     3
 72
    23
 73
    19
 74
     0
 42
0.00000001
 43
0.00000001
 40
0.0
 40
0.0
 40
0.0
 40
0.0
 40
0.0659464370745006
 40
0.1288385829145275
 40
0.1890227607128571
 40
0.2475278068376074
 40
0.3041611961796184
 40
0.3600530396745005
 40
0.4148898749451985
 40
0.4706864358789766
 40
0.5273966452267727
 40
0.5855409168148594
 40
0.6466503230744052
 40
0.7102366278532167
 40
0.7769488072639864
 40
0.8475792490671674
 40
0.9216299770853321
 40
1.0
 40
1.0
 40
1.0
 40
1.0
 10
61.15000000000001
 20
47.93281250000001
 30
0.0
 10
61.14860895779083
 20
47.8629473650126
 30
0.0
 10
61.14589129911275
 20
47.72645287969654
 30
0.0
 10
61.12152415384659
 20
47.52743216364611
 30
0.0
 10
61.08441451826668
 20
47.33861401641966
 30
0.0
 10
61.03237549644022
 20
47.1599350625559
 30
0.0
 10
60.96035284817687
 20
46.99338256928616
 30
0.0
 10
60.87679239217832
 20
46.83679979991407
 30
0.0
 10
60.77695632156527
 20
46.69095917148201
 30
0.0
 10
60.66104260136073
 20
46.55640939510682
 30
0.0
 10
60.52865104235707
 20
46.432958878455
 30
0.0
 10
60.38184054778747
 20
46.31786391131325
 30
0.0
 10
60.21960645033058
 20
46.21163257470369
 30
0.0
 10
60.04023597447823
 20
46.11674254385922
 30
0.0
 10
59.845611974227
 20
46.03021444186445
 30
0.0
 10
59.63452543084489
 20
45.95531404564581
 30
0.0
 10
59.40894676137179
 20
45.88460591306277
 30
0.0
 10
59.25134594956193
 20
45.84936815983652
 30
0.0
 10
59.1703125
 20
45.83125000000001
 30
0.0
  0
SPLINE
  5
80
330
1F
100
AcDbEntity
  8
0
  6
Continuous
 62
     7
370
    25
100
AcDbSpline
210
0.0
220
0.0
230
1.0
 70
     8
 71
     3
 72
    19
 73
    15
 74
     0
 42
0.00000001
 43
0.00000001
 40
0.0
 40
0.0
 40
0.0
 40
0.0
 40
0.0825917821699606
 40
0.1642255450426335
 40
0.2465938318446984
 40
0.329086934912529
 40
0.4120645108506714
 40
0.4941904263161437
 40
0.5766211448756307
 40
0.6598540648118929
 40
0.7441235173473432
 40
0.8282911644061387
 40
0.9134839720891941
 40
1.0
 40
1.0
 40
1.0
 40
1.0
 10
59.928125
 20
49.81875000000002
 30
0.0
 10
59.98811000744308
 20
49.791823841014
 30
0.0
 10
60.10738422919864
 20
49.73828385169301
 30
0.0
 10
60.27561674030695
 20
49.63653888419686
 30
0.0
 10
60.43360202961439
 20
49.51986957592844
 30
0.0
 10
60.57876555680571
 20
49.38605594605887
 30
0.0
 10
60.71223207751877
 20
49.24067827245452
 30
0.0
 10
60.82598130557343
 20
49.07944021613621
 30
0.0
 10
60.9253158725732
 20
48.90888429130024
 30
0.0
 10
61.0065021293033
 20
48.72695724845004
 30
0.0
 10
61.06975150880945
 20
48.53677271692803
 30
0.0
 10
61.11791480176193
 20
48.34054538850433
 30
0.0
 10
61.1441303033388
 20
48.13821513697967
 30
0.0
 10
61.14803340842833
 20
48.00163089352223
 30
0.0
 10
61.15000000000001
 20
47.93281250000001
 30
0.0
  0
SPLINE
  5
81
330
1F
100
AcDbEntity
  8
0
  6
Continuous
 62
     7
370
    25
100
AcDbSpline
210
0.0
220
0.0
230
1.0
 70
     8
 71
     3
 72
    15
 73
    11
 74
     0
 42
0.00000001
 43
0.00000001
 40
0.0
 40
0.0
 40
0.0
 40
0.0
 40
0.1578912487995381
 40
0.3039390400740294
 40
0.4393445538738185
 40
0.5621574319433249
 40
0.677736769796662
 40
0.7880389662242748
 40
0.8954335524849496
 40
1.0
 40
1.0
 40
1.0
 40
1.0
 10
58.38437500000001
 20
50.05000000000002
 30
0.0
 10
58.46718903954444
 20
50.04924128851498
 30
0.0
 10
58.62660521919444
 20
50.04778077666134
 30
0.0
 10
58.85701691965631
 20
50.04112271277833
 30
0.0
 10
59.06850813479797
 20
50.02486661394059
 30
0.0
 10
59.26355469280892
 20
50.00497796030466
 30
0.0
 10
59.44472184098698
 20
49.97833400945277
 30
0.0
 10
59.61456115055256
 20
49.9363520712071
 30
0.0
 10
59.77637860051135
 20
49.88646906167552
 30
0.0
 10
59.87799481271572
 20
49.8411213330659
 30
0.0
 10
59.928125
 20
49.81875000000002
 30
0.0
  0
SPLINE
  5
83
330
1F
100
AcDbEntity
  8
0
  6
Continuous
 62
     7
370
    25
100
AcDbSpline
210
0.0
220
0.0
230
1.0
 70
     8
 71
     3
 72
    15
 73
    11
 74
     0
 42
0.00000001
 43
0.00000001
 40
0.0
 40
0.0
 40
0.0
 40
0.0
 40
0.1505673933743011
 40
0.2825196804827781
 40
0.3973543704744764
 40
0.5018539184075427
 40
0.6061585588727314
 40
0.7204604116073304
 40
0.8504394402177267
 40
1.0
 40
1.0
 40
1.0
 40
1.0
 10
54.95
 20
49.09843750000002
 30
0.0
 10
54.95228991049698
 20
49.17626770936661
 30
0.0
 10
54.95658662286905
 20
49.32230574183421
 30
0.0
 10
54.99824709732422
 20
49.5243453245621
 30
0.0
 10
55.0659888571644
 20
49.69400392074032
 30
0.0
 10
55.1661773302211
 20
49.83048472183304
 30
0.0
 10
55.30102889986354
 20
49.93234781813237
 30
0.0
 10
55.46853288928651
 20
50.00190879988669
 30
0.0
 10
55.66883204782464
 20
50.04345773744259
 30
0.0
 10
55.81332025372062
 20
50.04771972940469
 30
0.0
 10
55.890625
 20
50.05000000000001
 30
0.0
  0
SPLINE
  5
85
330
1F
100
AcDbEntity
  8
0
  6
Continuous
 62
     7
370
    25
100
AcDbSpline
210
0.0
220
0.0
230
1.0
 70
     8
 71
     3
 72
    15
 73
    11
 74
     0
 42
0.00000001
 43
0.00000001
 40
0.0
 40
0.0
 40
0.0
 40
0.0
 40
0.1234793912899207
 40
0.2376491799265154
 40
0.345820653805434
 40
0.4561336400818409
 40
0.5723511778139689
 40
0.6988020282031688
 40
0.8403558882779872
 40
1.0
 40
1.0
 40
1.0
 40
1.0
 10
55.703125
 20
42.25000000000001
 30
0.0
 10
55.64655923328803
 20
42.2528705853981
 30
0.0
 10
55.53769241810062
 20
42.2583953313386
 30
0.0
 10
55.38437843519799
 20
42.30423700505628
 30
0.0
 10
55.25197143295332
 20
42.38184203834242
 30
0.0
 10
55.14016165207434
 20
42.48864212849996
 30
0.0
 10
55.05339742634703
 20
42.62668438556193
 30
0.0
 10
54.99364062624052
 20
42.79294316301091
 30
0.0
 10
54.95587598421083
 20
42.98582150604004
 30
0.0
 10
54.95203554821354
 20
43.12376221630674
 30
0.0
 10
54.95
 20
43.19687500000001
 30
0.0
  0
SPLINE
  5
86
330
1F
100
AcDbEntity
  8
0
  6
Continuous
 62
     7
370
    25
100
AcDbSpline
210
0.0
220
0.0
230
1.0
 70
     8
 71
     3
 72
    15
 73
    11
 74
     0
 42
0.00000001
 43
0.00000001
 40
0.0
 40
0.0
 40
0.0
 40
0.0
 40
0.1664877746693302
 40
0.3115077802889136
 40
0.4400940730803423
 40
0.5571216504119667
 40
0.6667079260682456
 40
0.7735000327110787
 40
0.8837499482804013
 40
1.0
 40
1.0
 40
1.0
 40
1.0
 10
56.45
 20
43.19375000000001
 30
0.0
 10
56.44809659161404
 20
43.11803671429965
 30
0.0
 10
56.44453520987011
 20
42.97637299386283
 30
0.0
 10
56.40592184999318
 20
42.77908794212907
 30
0.0
 10
56.34093982829751
 20
42.61269798480659
 30
0.0
 10
56.2491146911384
 20
42.47808984064303
 30
0.0
 10
56.13532069861338
 20
42.37611196842058
 30
0.0
 10
56.00549589220903
 20
42.30227927531602
 30
0.0
 10
55.85917728695212
 20
42.25707940296191
 30
0.0
 10
55.75605303916283
 20
42.25240111134887
 30
0.0
 10
55.70312500000001
 20
42.25000000000001
 30
0.0
  0
SPLINE
  5
89
330
1F
100
AcDbEntity
  8
0
  6
Continuous
 62
     7
370
    25
100
AcDbSpline
210
0.0
220
0.0
230
1.0
 70
     8
 71
     3
 72
    19
 73
    15
 74
     0
 42
0.00000001
 43
0.00000001
 40
0.0
 40
0.0
 40
0.0
 40
0.0
 40
0.1291032775032436
 40
0.2441424522164097
 40
0.3456810547104132
 40
0.4341385680012459
 40
0.5126131326723327
 40
0.5848883023030327
 40
0.651441800881989
 40
0.7134646218462669
 40
0.7760883237832267
 40
0.8440278578261794
 40
0.9186818788617952
 40
1.0
 40
1.0
 40
1.0
 40
1.0
 10
58.8015625
 20
44.26875000000001
 30
0.0
 10
58.7480077622231
 20
44.3581869703992
 30
0.0
 10
58.64673237044746
 20
44.52731793046729
 30
0.0
 10
58.49404127685064
 20
44.76110198035377
 30
0.0
 10
58.34861890219327
 20
44.95999712332544
 30
0.0
 10
58.21193257838139
 20
45.1284260156009
 30
0.0
 10
58.07910958246876
 20
45.26892008045997
 30
0.0
 10
57.94658789476031
 20
45.3845875083835
 30
0.0
 10
57.81089551015138
 20
45.47410641833963
 30
0.0
 10
57.67292842792703
 20
45.54440354681432
 30
0.0
 10
57.52468186011362
 20
45.59300979843155
 30
0.0
 10
57.3622793847046
 20
45.62700181090118
 30
0.0
 10
57.18227767587881
 20
45.64712843864433
 30
0.0
 10
57.05630336073866
 20
45.64901593107566
 30
0.0
 10
56.990625
 20
45.65000000000001
 30
0.0
  0
SPLINE
  5
8B
330
1F
100
AcDbEntity
  8
0
  6
Continuous
 62
     7
370
    25
100
AcDbSpline
210
0.0
220
0.0
230
1.0
 70
     8
 71
     3
 72
    23
 73
    19
 74
     0
 42
0.00000001
 43
0.00000001
 40
0.0
 40
0.0
 40
0.0
 40
0.0
 40
0.0699812534689266
 40
0.1373113950427515
 40
0.2019236830115335
 40
0.264709882192254
 40
0.3255199297604014
 40
0.3846113655050415
 40
0.4429457153330408
 40
0.5008350717428125
 40
0.5584132160374549
 40
0.6162686151586887
 40
0.6746542770747439
 40
0.7347704265938201
 40
0.796775232855051
 40
0.86125365227183
 40
0.9287614633342047
 40
1.0
 40
1.0
 40
1.0
 40
1.0
 10
28.25
 20
46.26093750000002
 30
0.0
 10
28.24694777318955
 20
46.11499337697343
 30
0.0
 10
28.24095894760335
 20
45.82863395730445
 30
0.0
 10
28.19553176434474
 20
45.40940895826177
 30
0.0
 10
28.11852377104973
 20
45.01034312124735
 30
0.0
 10
28.01364460863273
 20
44.63159832319084
 30
0.0
 10
27.87579475098854
 20
44.27579664529049
 30
0.0
 10
27.70808549051659
 20
43.94340534471428
 30
0.0
 10
27.50886688852333
 20
43.63602883414616
 30
0.0
 10
27.28028522857791
 20
43.35394498178028
 30
0.0
 10
27.02321454447819
 20
43.09875168049293
 30
0.0
 10
26.73589855422808
 20
42.87628187974595
 30
0.0
 10
26.42011898191758
 20
42.68640345480581
 30
0.0
 10
26.07868084021344
 20
42.5264650759337
 30
0.0
 10
25.70953907888898
 20
42.4004521511288
 30
0.0
 10
25.31344112838939
 20
42.31573302971503
 30
0.0
 10
24.89283349595764
 20
42.25807219280919
 30
0.0
 10
24.60333095920938
 20
42.25273853618118
 30
0.0
 10
24.4546875
 20
42.25000000000001
 30
0.0
  0
SPLINE
  5
8C
330
1F
100
AcDbEntity
  8
0
  6
Continuous
 62
     7
370
    25
100
AcDbSpline
210
0.0
220
0.0
230
1.0
 70
     8
 71
     3
 72
    31
 73
    27
 74
     0
 42
0.00000001
 43
0.00000001
 40
0.0
 40
0.0
 40
0.0
 40
0.0
 40
0.0473805182659696
 40
0.0929041904025639
 40
0.1371843651017143
 40
0.1804020471459696
 40
0.2222492441373447
 40
0.2631661452921135
 40
0.3035910478924841
 40
0.3433931813888109
 40
0.3825555054395898
 40
0.4211552334065669
 40
0.4595523833339886
 40
0.4976285525661451
 40
0.5356189415516043
 40
0.5739091263929753
 40
0.6129124472534516
 40
0.6525048142500848
 40
0.6927764706137243
 40
0.733565596457535
 40
0.7752796745457275
 40
0.817603073379342
 40
0.861416259165192
 40
0.9061265926360924
 40
0.9523761542627018
 40
1.0
 40
1.0
 40
1.0
 40
1.0
 10
24.4234375
 20
50.25000000000001
 30
0.0
 10
24.52244957731725
 20
50.24861006547048
 30
0.0
 10
24.71659344107998
 20
50.24588466805182
 30
0.0
 10
25.00235516930993
 20
50.22117967929712
 30
0.0
 10
25.27795870546826
 20
50.18450992128367
 30
0.0
 10
25.5432174616576
 20
50.13172788448065
 30
0.0
 10
25.79747339794404
 20
50.06285498706296
 30
0.0
 10
26.04077493191918
 20
49.97820899957632
 30
0.0
 10
26.27343558189876
 20
49.87807029092207
 30
0.0
 10
26.49572745324388
 20
49.7644035466224
 30
0.0
 10
26.70520865544224
 20
49.63573316978829
 30
0.0
 10
26.90321294165784
 20
49.49502545683064
 30
0.0
 10
27.08749755823861
 20
49.34021614489455
 30
0.0
 10
27.25849208000668
 20
49.17266414842958
 30
0.0
 10
27.41510553134201
 20
48.99191229549669
 30
0.0
 10
27.55961474441375
 20
48.79896419535628
 30
0.0
 10
27.69090654168608
 20
48.59273448163247
 30
0.0
 10
27.80756687260951
 20
48.37326697598414
 30
0.0
 10
27.91237829549089
 20
48.14384096110962
 30
0.0
 10
28.00336162351709
 20
47.90378402307068
 30
0.0
 10
28.07929991462041
 20
47.65411317394094
 30
0.0
 10
28.14246419358944
 20
47.39441483859937
 30
0.0
 10
28.19033632704764
 20
47.12506911331732
 30
0.0
 10
28.2240567051143
 20
46.84544518879856
 30
0.0
 10
28.24740142472399
 20
46.55664598867067
 30
0.0
 10
28.2491253954026
 20
46.36046434691052
 30
0.0
 10
28.25
 20
46.26093750000002
 30
0.0
  0
SPLINE
  5
8D
330
1F
100
AcDbEntity
  8
0
  6
Continuous
 62
     7
370
    25
100
AcDbSpline
210
0.0
220
0.0
230
1.0
 70
     8
 71
     3
 72
    23
 73
    19
 74
     0
 42
0.00000001
 43
0.00000001
 40
0.0
 40
0.0
 40
0.0
 40
0.0
 40
0.0703261631873173
 40
0.1382863995190654
 40
0.2037938635975741
 40
0.2678783918372751
 40
0.3302792795408569
 40
0.3902201030009793
 40
0.4487679901710347
 40
0.5063718471644751
 40
0.5635627838098803
 40
0.6210983022642379
 40
0.6791607941846681
 40
0.7386809229027232
 40
0.8000983477355373
 40
0.8638975637533068
 40
0.9301677760581153
 40
1.0
 40
1.0
 40
1.0
 40
1.0
 10
20.65
 20
46.27187500000001
 30
0.0
 10
20.65275211000414
 20
46.41733153159207
 30
0.0
 10
20.65816374297692
 20
46.70335111703169
 30
0.0
 10
20.70812697540614
 20
47.12239849810583
 30
0.0
 10
20.7870120412265
 20
47.5235908965146
 30
0.0
 10
20.89944976305529
 20
47.90490857992696
 30
0.0
 10
21.0420111256155
 20
48.26367277729199
 30
0.0
 10
21.21505065567476
 20
48.5959709489784
 30
0.0
 10
21.41539407198589
 20
48.90077309453004
 30
0.0
 10
21.6443671253064
 20
49.17749911905346
 30
0.0
 10
21.90233342819192
 20
49.42446425066191
 30
0.0
 10
22.18784978354569
 20
49.64044699824458
 30
0.0
 10
22.49951077148125
 20
49.82623792111064
 30
0.0
 10
22.83733071309301
 20
49.97905389402247
 30
0.0
 10
23.1997726548788
 20
50.10170887651669
 30
0.0
 10
23.58674233331833
 20
50.18830699060773
 30
0.0
 10
23.99751221983505
 20
50.24076940112896
 30
0.0
 10
24.27900669112231
 20
50.24686991375378
 30
0.0
 10
24.4234375
 20
50.25000000000001
 30
0.0
  0
SPLINE
  5
8E
330
1F
100
AcDbEntity
  8
0
  6
Continuous
 62
     7
370
    25
100
AcDbSpline
210
0.0
220
0.0
230
1.0
 70
     8
 71
     3
 72
    23
 73
    19
 74
     0
 42
0.00000001
 43
0.00000001
 40
0.0
 40
0.0
 40
0.0
 40
0.0
 40
0.0706307251889701
 40
0.1382724616055901
 40
0.2029956782284626
 40
0.2657656812899849
 40
0.3266699670799533
 40
0.3855133943874716
 40
0.4430748622183272
 40
0.5003813793520373
 40
0.5578228203218261
 40
0.6159999478291522
 40
0.6755497410754601
 40
0.7371887325001473
 40
0.800657159226585
 40
0.8654058285984504
 40
0.931631389015643
 40
1.0
 40
1.0
 40
1.0
 40
1.0
 10
24.4546875
 20
42.25000000000001
 30
0.0
 10
24.30711500183282
 20
42.2535529284683
 30
0.0
 10
24.01821505733601
 20
42.26050843067933
 30
0.0
 10
23.59706747610871
 20
42.31624458358766
 30
0.0
 10
23.19886116245607
 20
42.40590413923861
 30
0.0
 10
22.82586966395904
 20
42.5341005591572
 30
0.0
 10
22.4806983799799
 20
42.69735304013415
 30
0.0
 10
22.16190000443338
 20
42.88737821753588
 30
0.0
 10
21.87565960398077
 20
43.11185944798753
 30
0.0
 10
21.61830047114498
 20
43.36438906826032
 30
0.0
 10
21.38984311456613
 20
43.64536536326909
 30
0.0
 10
21.19561851582975
 20
43.95618096954612
 30
0.0
 10
21.02432826668414
 20
44.29007109466046
 30
0.0
 10
20.88893481953224
 20
44.65198827301664
 30
0.0
 10
20.78121486822464
 20
45.03408081672027
 30
0.0
 10
20.70529583968056
 20
45.43350060545463
 30
0.0
 10
20.65900675666667
 20
45.84786369228488
 30
0.0
 10
20.65303395250861
 20
46.12904554225724
 30
0.0
 10
20.65
 20
46.27187500000001
 30
0.0
  0
SPLINE
  5
91
330
1F
100
AcDbEntity
  8
0
  6
Continuous
 62
     7
370
    25
100
AcDbSpline
210
0.0
220
0.0
230
1.0
 70
     8
 71
     3
 72
    15
 73
    11
 74
     0
 42
0.00000001
 43
0.00000001
 40
0.0
 40
0.0
 40
0.0
 40
0.0
 40
0.1153070256082526
 40
0.223823223857276
 40
0.3311327474160118
 40
0.4437874534234397
 40
0.5618807523410395
 40
0.6920470815115767
 40
0.8355686871990625
 40
1.0
 40
1.0
 40
1.0
 40
1.0
 10
3.242187500000004
 20
42.25000000000001
 30
0.0
 10
3.193457822658472
 20
42.25263965255549
 30
0.0
 10
3.098868326289345
 20
42.25776349944786
 30
0.0
 10
2.96381507457572
 20
42.29959029104704
 30
0.0
 10
2.843702905494992
 20
42.37085154027267
 30
0.0
 10
2.738041177893731
 20
42.4683774843419
 30
0.0
 10
2.651542662567779
 20
42.5954909387067
 30
0.0
 10
2.592091380176787
 20
42.75098921592689
 30
0.0
 10
2.556177748875024
 20
42.9332760024722
 30
0.0
 10
2.552150400649283
 20
43.06335622676531
 30
0.0
 10
2.550000000000004
 20
43.13281250000001
 30
0.0
  0
SPLINE
  5
92
330
1F
100
AcDbEntity
  8
0
  6
Continuous
 62
     7
370
    25
100
AcDbSpline
210
0.0
220
0.0
230
1.0
 70
     8
 71
     3
 72
    15
 73
    11
 74
     0
 42
0.00000001
 43
0.00000001
 40
0.0
 40
0.0
 40
0.0
 40
0.0
 40
0.1616897892871207
 40
0.3038837527181571
 40
0.4312596992494133
 40
0.5482605796903934
 40
0.6590463805013506
 40
0.767479483553667
 40
0.8796732088186647
 40
1.0
 40
1.0
 40
1.0
 40
1.0
 10
3.950000000000004
 20
43.12812500000001
 30
0.0
 10
3.947847856917895
 20
43.05918197105262
 30
0.0
 10
3.943803066464143
 20
42.92960875277667
 30
0.0
 10
3.90776759469751
 20
42.74862646216336
 30
0.0
 10
3.849867124530431
 20
42.59331518782719
 30
0.0
 10
3.763901853727423
 20
42.46688869448111
 30
0.0
 10
3.656869960163971
 20
42.36999604894045
 30
0.0
 10
3.533633775019391
 20
42.29887352214367
 30
0.0
 10
3.392648802447146
 20
42.25773675387956
 30
0.0
 10
3.293497302651335
 20
42.25263836154723
 30
0.0
 10
3.242187500000004
 20
42.25000000000001
 30
0.0
  0
SPLINE
  5
94
330
1F
100
AcDbEntity
  8
0
  6
Continuous
 62
     7
370
    25
100
AcDbSpline
210
0.0
220
0.0
230
1.0
 70
     8
 71
     3
 72
    19
 73
    15
 74
     0
 42
0.00000001
 43
0.00000001
 40
0.0
 40
0.0
 40
0.0
 40
0.0
 40
0.1413125891667007
 40
0.2696914482260833
 40
0.3853911095767288
 40
0.4934325411997977
 40
0.5455118164715459
 40
0.5995173586347833
 40
0.6549212045834784
 40
0.7128984008003668
 40
0.7763817015877013
 40
0.84486645558569
 40
0.9194465509936914
 40
1.0
 40
1.0
 40
1.0
 40
1.0
 10
2.981250000000004
 20
50.05000000000001
 30
0.0
 10
3.05168678816851
 20
50.04808092335777
 30
0.0
 10
3.186113589924647
 20
50.04441841485836
 30
0.0
 10
3.376269802418412
 20
50.01222219964443
 30
0.0
 10
3.543356384062643
 20
49.95718568168268
 30
0.0
 10
3.666502631554987
 20
49.89366973030483
 30
0.0
 10
3.750389905547946
 20
49.82737546757068
 30
0.0
 10
3.80609012819872
 20
49.76847608052771
 30
0.0
 10
3.848234670808451
 20
49.69613206014743
 30
0.0
 10
3.888115760989144
 20
49.61727950072605
 30
0.0
 10
3.913793127895004
 20
49.52583904567172
 30
0.0
 10
3.937541736812934
 20
49.42558231628696
 30
0.0
 10
3.946432949234797
 20
49.3142027008866
 30
0.0
 10
3.94878084811662
 20
49.23697543504409
 30
0.0
 10
3.950000000000004
 20
49.19687500000001
 30
0.0
  0
SPLINE
  5
96
330
1F
100
AcDbEntity
  8
0
  6
Continuous
 62
     7
370
    25
100
AcDbSpline
210
0.0
220
0.0
230
1.0
 70
     8
 71
     3
 72
    19
 73
    15
 74
     0
 42
0.00000001
 43
0.00000001
 40
0.0
 40
0.0
 40
0.0
 40
0.0
 40
0.1259565825899387
 40
0.2344996364153829
 40
0.3252191227155806
 40
0.3977440742896418
 40
0.459820291363745
 40
0.5181762465777822
 40
0.5760994970428108
 40
0.6344554522568486
 40
0.7025914697567157
 40
0.7851627893102703
 40
0.8846855576258948
 40
1.0
 40
1.0
 40
1.0
 40
1.0
 10
1.364062500000003
 20
49.02968750000002
 30
0.0
 10
1.3827384779258
 20
49.10068878095355
 30
0.0
 10
1.417508475199853
 20
49.23287539816936
 30
0.0
 10
1.474308192502228
 20
49.41377828360866
 30
0.0
 10
1.525011745339689
 20
49.56378709975266
 30
0.0
 10
1.572773837386457
 20
49.68639827470141
 30
0.0
 10
1.629162192550678
 20
49.78419369667687
 30
0.0
 10
1.695570692896382
 20
49.86508906232186
 30
0.0
 10
1.77672800272709
 20
49.92768824119424
 30
0.0
 10
1.872644286572837
 20
49.9776029833649
 30
0.0
 10
1.990640093054314
 20
50.01026459972518
 30
0.0
 10
2.134467693288804
 20
50.03506593363239
 30
0.0
 10
2.307602358155074
 20
50.04757836457069
 30
0.0
 10
2.432799891875295
 20
50.04915417797678
 30
0.0
 10
2.500000000000003
 20
50.05000000000001
 30
0.0
  0
SPLINE
  5
99
330
1F
100
AcDbEntity
  8
0
  6
Continuous
 62
     7
370
    25
100
AcDbSpline
210
0.0
220
0.0
230
1.0
 70
     8
 71
     3
 72
    19
 73
    15
 74
     0
 42
0.00000001
 43
0.00000001
 40
0.0
 40
0.0
 40
0.0
 40
0.0
 40
0.1156697058500138
 40
0.2146056229416647
 40
0.296548598057553
 40
0.3640367340256654
 40
0.4225724736540619
 40
0.4806741754463699
 40
0.5392099150747652
 40
0.601030546309088
 40
0.6737789344783913
 40
0.7647779115290285
 40
0.8736553673755366
 40
0.9999999999999999
 40
0.9999999999999999
 40
0.9999999999999999
 40
0.9999999999999999
 10
-2.007812499999996
 20
50.05000000000001
 30
0.0
 10
-1.94061066337916
 20
50.04916959543027
 30
0.0
 10
-1.815928994096285
 20
50.04762891986034
 30
0.0
 10
-1.643844640280428
 20
50.03505308604007
 30
0.0
 10
-1.501515061106439
 20
50.01037327368145
 30
0.0
 10
-1.384736758259077
 20
49.97727236470982
 30
0.0
 10
-1.289192754778512
 20
49.92772793686251
 30
0.0
 10
-1.208177673477798
 20
49.86502220251167
 30
0.0
 10
-1.141422471556479
 20
49.78463094995841
 30
0.0
 10
-1.087239679828881
 20
49.68586838091441
 30
0.0
 10
-1.038892882510209
 20
49.56389184776998
 30
0.0
 10
-0.9884348491495192
 20
49.41374122925951
 30
0.0
 10
-0.9315505236676451
 20
49.23288721016775
 30
0.0
 10
-0.8967938314126557
 20
49.10069290849767
 30
0.0
 10
-0.8781249999999965
 20
49.02968750000002
 30
0.0
  0
SPLINE
  5
9B
330
1F
100
AcDbEntity
  8
0
  6
Continuous
 62
     7
370
    25
100
AcDbSpline
210
0.0
220
0.0
230
1.0
 70
     8
 71
     3
 72
    19
 73
    15
 74
     0
 42
0.00000001
 43
0.00000001
 40
0.0
 40
0.0
 40
0.0
 40
0.0
 40
0.0808054949395797
 40
0.1556189460881786
 40
0.2241015579898589
 40
0.2881021419463128
 40
0.3458147146589955
 40
0.4013919152465197
 40
0.4548615813421159
 40
0.5071038089107782
 40
0.6154832943825812
 40
0.7315449716305468
 40
0.8592924630405548
 40
1.0
 40
1.0
 40
1.0
 40
1.0
 10
-3.449999999999997
 20
49.19687500000001
 30
0.0
 10
-3.44885994972406
 20
49.23699524650304
 30
0.0
 10
-3.446664388363272
 20
49.31426066616624
 30
0.0
 10
-3.436733676681543
 20
49.42527032338361
 30
0.0
 10
-3.41651852503686
 20
49.52646250851667
 30
0.0
 10
-3.387123611315095
 20
49.61648390737679
 30
0.0
 10
-3.350362894995536
 20
49.69665627434729
 30
0.0
 10
-3.307376177795099
 20
49.76782994993325
 30
0.0
 10
-3.253583448813173
 20
49.82788881588641
 30
0.0
 10
-3.169422927636646
 20
49.89349228553896
 30
0.0
 10
-3.046559031098448
 20
49.95726540593918
 30
0.0
 10
-2.879850754479835
 20
50.01197985506793
 30
0.0
 10
-2.690830063602352
 20
50.04447378520409
 30
0.0
 10
-2.557423484853254
 20
50.04809958158804
 30
0.0
 10
-2.487499999999997
 20
50.05000000000002
 30
0.0
  0
SPLINE
  5
9D
330
1F
100
AcDbEntity
  8
0
  6
Continuous
 62
     7
370
    25
100
AcDbSpline
210
0.0
220
0.0
230
1.0
 70
     8
 71
     3
 72
    15
 73
    11
 74
     0
 42
0.00000001
 43
0.00000001
 40
0.0
 40
0.0
 40
0.0
 40
0.0
 40
0.1164252417126362
 40
0.2260172273707997
 40
0.333678048768806
 40
0.4453924966538356
 40
0.5633741212379336
 40
0.6911295140056835
 40
0.8357241808420791
 40
1.0
 40
1.0
 40
1.0
 40
1.0
 10
-2.753124999999997
 20
42.25000000000001
 30
0.0
 10
-2.802391930507872
 20
42.25260453076209
 30
0.0
 10
-2.898034205934226
 20
42.25766072659033
 30
0.0
 10
-3.034083668866335
 20
42.29989332852351
 30
0.0
 10
-3.155962778779637
 20
42.36860342438479
 30
0.0
 10
-3.262443519954705
 20
42.46536085664953
 30
0.0
 10
-3.34753417045991
 20
42.59172436284104
 30
0.0
 10
-3.408874069920196
 20
42.74594489908908
 30
0.0
 10
-3.443498410456547
 20
42.9281706533322
 30
0.0
 10
-3.44774265605279
 20
43.05870109509925
 30
0.0
 10
-3.449999999999997
 20
43.12812500000001
 30
0.0
  0
SPLINE
  5
9E
330
1F
100
AcDbEntity
  8
0
  6
Continuous
 62
     7
370
    25
100
AcDbSpline
210
0.0
220
0.0
230
1.0
 70
     8
 71
     3
 72
    15
 73
    11
 74
     0
 42
0.00000001
 43
0.00000001
 40
0.0
 40
0.0
 40
0.0
 40
0.0
 40
0.1629530925065093
 40
0.3051844539783265
 40
0.4337334127065711
 40
0.5507650652253049
 40
0.6624070172149824
 40
0.7698084909759088
 40
0.8808593852829969
 40
1.0
 40
1.0
 40
1.0
 40
1.0
 10
-2.049999999999997
 20
43.13281250000002
 30
0.0
 10
-2.052092538751048
 20
43.06333315731447
 30
0.0
 10
-2.056011521117967
 20
42.93320972771826
 30
0.0
 10
-2.092599465924295
 20
42.75139428479014
 30
0.0
 10
-2.149627307786317
 20
42.59514176887832
 30
0.0
 10
-2.23661937237818
 20
42.46846035396256
 30
0.0
 10
-2.342340049393988
 20
42.37039564697023
 30
0.0
 10
-2.464748807569083
 20
42.29890032891139
 30
0.0
 10
-2.604192342261612
 20
42.25772687396611
 30
0.0
 10
-2.70233113597065
 20
42.25263527013865
 30
0.0
 10
-2.753124999999997
 20
42.25000000000001
 30
0.0
  0
SPLINE
  5
A1
330
1F
100
AcDbEntity
  8
0
  6
Continuous
 62
     7
370
    25
100
AcDbSpline
210
0.0
220
0.0
230
1.0
 70
     8
 71
     3
 72
    19
 73
    15
 74
     0
 42
0.00000001
 43
0.00000001
 40
0.0
 40
0.0
 40
0.0
 40
0.0
 40
0.0724110846052936
 40
0.1398042524682976
 40
0.2032735434599121
 40
0.2652671388278013
 40
0.3256712689690663
 40
0.3834501263859068
 40
0.4412915353609786
 40
0.4983714673470043
 40
0.6155204132332739
 40
0.7384208111749083
 40
0.866936330416011
 40
1.0
 40
1.0
 40
1.0
 40
1.0
 10
0.2500000000000037
 20
42.25000000000001
 30
0.0
 10
0.2056278912254005
 20
42.25149155119494
 30
0.0
 10
0.1199585557708963
 20
42.25437129261798
 30
0.0
 10
-0.0029568229267269
 20
42.27664918673704
 30
0.0
 10
-0.1160054952412419
 20
42.31227875129194
 30
0.0
 10
-0.2177472216423447
 20
42.36440974739038
 30
0.0
 10
-0.3081696605959076
 20
42.42832597666238
 30
0.0
 10
-0.386960080167001
 20
42.5021309336259
 30
0.0
 10
-0.4583137544852828
 20
42.58064468109184
 30
0.0
 10
-0.5352377861772857
 20
42.70067075500378
 30
0.0
 10
-0.6136384421936573
 20
42.86561468874921
 30
0.0
 10
-0.6831133932821344
 20
43.08079069076607
 30
0.0
 10
-0.7404374169031948
 20
43.309178094842
 30
0.0
 10
-0.7830239841254117
 20
43.46362257518951
 30
0.0
 10
-0.8046874999999968
 20
43.54218750000001
 30
0.0
  0
SPLINE
  5
A2
330
1F
100
AcDbEntity
  8
0
  6
Continuous
 62
     7
370
    25
100
AcDbSpline
210
0.0
220
0.0
230
1.0
 70
     8
 71
     3
 72
    19
 73
    15
 74
     0
 42
0.00000001
 43
0.00000001
 40
0.0
 40
0.0
 40
0.0
 40
0.0
 40
0.1250913797230329
 40
0.2323475031040502
 40
0.3223876071969572
 40
0.3952386501894713
 40
0.4597348179968147
 40
0.5258182973670202
 40
0.5944622999157049
 40
0.6675197898375658
 40
0.7422419162602837
 40
0.820750580572148
 40
0.9058100071783807
 40
1.0
 40
1.0
 40
1.0
 40
1.0
 10
1.304687500000004
 20
43.54218750000001
 30
0.0
 10
1.285728816437344
 20
43.46762720776165
 30
0.0
 10
1.250514537102694
 20
43.32913726728257
 30
0.0
 10
1.197171135219975
 20
43.13814426780412
 30
0.0
 10
1.149819081870044
 20
42.97893443379999
 30
0.0
 10
1.11027668326024
 20
42.8446775378335
 30
0.0
 10
1.061350412410929
 20
42.72920064333549
 30
0.0
 10
0.9986945336346617
 20
42.62329332502048
 30
0.0
 10
0.9165200029431332
 20
42.52506583625084
 30
0.0
 10
0.8239133915784458
 20
42.42908557552899
 30
0.0
 10
0.7098516875836313
 20
42.34745574195242
 30
0.0
 10
0.5741412793876972
 20
42.28963860366234
 30
0.0
 10
0.4183858437286259
 20
42.25503690326889
 30
0.0
 10
0.3080028361002773
 20
42.2517350310946
 30
0.0
 10
0.2500000000000037
 20
42.25000000000001
 30
0.0
  0
SPLINE
  5
A3
330
1F
100
AcDbEntity
  8
0
  6
Continuous
 62
     7
370
    25
100
AcDbSpline
210
0.0
220
0.0
230
1.0
 70
     8
 71
     3
 72
    23
 73
    19
 74
     0
 42
0.00000001
 43
0.00000001
 40
0.0
 40
0.0
 40
0.0
 40
0.0
 40
0.067528368224574
 40
0.1328591082745539
 40
0.1955706698773776
 40
0.2573506102485837
 40
0.3171594581372391
 40
0.3764507655614812
 40
0.4351509322729164
 40
0.4939649761380096
 40
0.552841041977661
 40
0.612306499958582
 40
0.6727057086624969
 40
0.7340938513807125
 40
0.7971504186507644
 40
0.8627135153561712
 40
0.9302298721313034
 40
1.0
 40
1.0
 40
1.0
 40
1.0
 10
-10.79374999999997
 20
43.45
 30
0.0
 10
-10.73848528869808
 20
43.45057642623826
 30
0.0
 10
-10.62975438854956
 20
43.45171051962765
 30
0.0
 10
-10.47066454081669
 20
43.4702358714974
 30
0.0
 10
-10.31748126671096
 20
43.49613809329997
 30
0.0
 10
-10.17142626960326
 20
43.53396004166031
 30
0.0
 10
-10.03066490333309
 20
43.58014377691556
 30
0.0
 10
-9.898148181487308
 20
43.64055745041681
 30
0.0
 10
-9.770704310330217
 20
43.70911424524881
 30
0.0
 10
-9.650108477645233
 20
43.78874381778829
 30
0.0
 10
-9.537497867896686
 20
43.88022634406209
 30
0.0
 10
-9.431141070207719
 20
43.98063120153855
 30
0.0
 10
-9.330145001823727
 20
44.0894716509877
 30
0.0
 10
-9.240208238923815
 20
44.21125019171282
 30
0.0
 10
-9.155084312206979
 20
44.34136566734406
 30
0.0
 10
-9.07739964106624
 20
44.48186861087784
 30
0.0
 10
-9.006565341500973
 20
44.63208318701875
 30
0.0
 10
-8.96698835309947
 20
44.73720249670484
 30
0.0
 10
-8.946874999999965
 20
44.79062500000001
 30
0.0
  0
SPLINE
  5
A4
330
1F
100
AcDbEntity
  8
0
  6
Continuous
 62
     7
370
    25
100
AcDbSpline
210
0.0
220
0.0
230
1.0
 70
     8
 71
     3
 72
    27
 73
    23
 74
     0
 42
0.00000001
 43
0.00000001
 40
0.0
 40
0.0
 40
0.0
 40
0.0
 40
0.0580788002733204
 40
0.1133944030311667
 40
0.1668792636510456
 40
0.2178038659546845
 40
0.266602268475765
 40
0.3135461110970242
 40
0.3583127389090601
 40
0.4018269048383469
 40
0.4435088694256049
 40
0.4839071498123025
 40
0.5228461985111786
 40
0.5605893149773769
 40
0.5975048219717255
 40
0.634001714512984
 40
0.6697809488642511
 40
0.7053596611536006
 40
0.7764496438805322
 40
0.8480047040901316
 40
0.9220248764072247
 40
0.9999999999999999
 40
0.9999999999999999
 40
0.9999999999999999
 40
0.9999999999999999
 10
-12.84999999999997
 20
46.1859375
 30
0.0
 10
-12.84885273168956
 20
46.11092819906627
 30
0.0
 10
-12.84661277830618
 20
45.96447829202378
 30
0.0
 10
-12.83632802098298
 20
45.74910873228468
 30
0.0
 10
-12.81603284129159
 20
45.54370466011488
 30
0.0
 10
-12.78736693790291
 20
45.34787153445411
 30
0.0
 10
-12.75410666976182
 20
45.16129438794795
 30
0.0
 10
-12.71024595810164
 20
44.98503561375887
 30
0.0
 10
-12.65816504697963
 20
44.81826463630103
 30
0.0
 10
-12.59990866654852
 20
44.66065957479668
 30
0.0
 10
-12.53110818834266
 20
44.51364884809262
 30
0.0
 10
-12.46071180669254
 20
44.37401579123874
 30
0.0
 10
-12.38093608521123
 20
44.2452188298683
 30
0.0
 10
-12.29206515116743
 20
44.12834955462215
 30
0.0
 10
-12.20048696850602
 20
44.01764473585073
 30
0.0
 10
-12.10050005065629
 20
43.91784963823672
 30
0.0
 10
-11.99351254563308
 20
43.8283839255361
 30
0.0
 10
-11.84326828901678
 20
43.72189469959643
 30
0.0
 10
-11.63973671924148
 20
43.61206351310652
 30
0.0
 10
-11.37537839439207
 20
43.51768081365976
 30
0.0
 10
-11.09102836529576
 20
43.45999409921251
 30
0.0
 10
-10.89454695173632
 20
43.45338865808471
 30
0.0
 10
-10.79374999999997
 20
43.45
 30
0.0
  0
SPLINE
  5
A5
330
1F
100
AcDbEntity
  8
0
  6
Continuous
 62
     7
370
    25
100
AcDbSpline
210
0.0
220
0.0
230
1.0
 70
     8
 71
     3
 72
    23
 73
    19
 74
     0
 42
0.00000001
 43
0.00000001
 40
0.0
 40
0.0
 40
0.0
 40
0.0
 40
0.058544781845154
 40
0.115013325760622
 40
0.1695873652222771
 40
0.2227305287323973
 40
0.2763137763356258
 40
0.330117834960641
 40
0.3852791855674076
 40
0.4427905927825492
 40
0.5022665448594974
 40
0.5633164202236706
 40
0.626746216378499
 40
0.6933337245807785
 40
0.7637888661431924
 40
0.8382793379680403
 40
0.9169238448495466
 40
1.0
 40
1.0
 40
1.0
 40
1.0
 10
-10.74062499999997
 20
49.05
 30
0.0
 10
-10.81891204410436
 20
49.04828378162645
 30
0.0
 10
-10.97270975284344
 20
49.04491220901738
 30
0.0
 10
-11.19671833326202
 20
49.00699827121367
 30
0.0
 10
-11.4091133700129
 20
48.95056789223679
 30
0.0
 10
-11.60850379878223
 20
48.86733947863362
 30
0.0
 10
-11.79657005519259
 20
48.76325119123222
 30
0.0
 10
-11.97142846555873
 20
48.63341798872809
 30
0.0
 10
-12.13308659922037
 20
48.48006851314862
 30
0.0
 10
-12.28317129786194
 20
48.30526620231434
 30
0.0
 10
-12.41739807209838
 20
48.10827877817155
 30
0.0
 10
-12.53282448775631
 20
47.89090556209731
 30
0.0
 10
-12.63225343011855
 20
47.6553633216981
 30
0.0
 10
-12.710354067583
 20
47.39887454203826
 30
0.0
 10
-12.77578243926444
 20
47.12367174460804
 30
0.0
 10
-12.81737695811506
 20
46.82758157472612
 30
0.0
 10
-12.84475043389317
 20
46.5130173966523
 30
0.0
 10
-12.84821846634532
 20
46.29693788208681
 30
0.0
 10
-12.84999999999997
 20
46.1859375
 30
0.0
  0
SPLINE
  5
A6
330
1F
100
AcDbEntity
  8
0
  6
Continuous
 62
     7
370
    25
100
AcDbSpline
210
0.0
220
0.0
230
1.0
 70
     8
 71
     3
 72
    15
 73
    11
 74
     0
 42
0.00000001
 43
0.00000001
 40
0.0
 40
0.0
 40
0.0
 40
0.0
 40
0.1426038761921019
 40
0.2751114779844937
 40
0.3986346369223306
 40
0.5147448217721882
 40
0.6286157956229689
 40
0.7460355073184636
 40
0.8687797769914223
 40
1.0
 40
1.0
 40
1.0
 40
1.0
 10
-8.999999999999966
 20
47.8859375
 30
0.0
 10
-9.05120314816446
 20
47.97826230833875
 30
0.0
 10
-9.149984290340536
 20
48.15637538040202
 30
0.0
 10
-9.324210457218099
 20
48.39538576876283
 30
0.0
 10
-9.512227919296947
 20
48.59736105956729
 30
0.0
 10
-9.714921175728309
 20
48.76418576915972
 30
0.0
 10
-9.938456440543657
 20
48.89335773476259
 30
0.0
 10
-10.18450778595418
 20
48.9864698768987
 30
0.0
 10
-10.45558895879405
 20
49.03921966744917
 30
0.0
 10
-10.64352225586457
 20
49.0463274824161
 30
0.0
 10
-10.74062499999997
 20
49.05
 30
0.0
  0
SPLINE
  5
A7
330
1F
100
AcDbEntity
  8
0
  6
Continuous
 62
     7
370
    25
100
AcDbSpline
210
0.0
220
0.0
230
1.0
 70
     8
 71
     3
 72
    15
 73
    11
 74
     0
 42
0.00000001
 43
0.00000001
 40
0.0
 40
0.0
 40
0.0
 40
0.0
 40
0.1295037237597599
 40
0.2455238615754661
 40
0.3490269108920929
 40
0.44551056720793
 40
0.5512694077959207
 40
0.6787841030567824
 40
0.8277766261982874
 40
1.0
 40
1.0
 40
1.0
 40
1.0
 10
-8.214062499999967
 20
47.24218750000001
 30
0.0
 10
-8.261055960493334
 20
47.24395935916108
 30
0.0
 10
-8.350150046394129
 20
47.24731859618353
 30
0.0
 10
-8.474986776616213
 20
47.27283603608579
 30
0.0
 10
-8.581113699199598
 20
47.31848034563788
 30
0.0
 10
-8.671117449866433
 20
47.38514916996612
 30
0.0
 10
-8.748401984742381
 20
47.47719065570341
 30
0.0
 10
-8.829098661044908
 20
47.58992212289042
 30
0.0
 10
-8.915224782556946
 20
47.72825779310885
 30
0.0
 10
-8.97041120391414
 20
47.83090310628452
 30
0.0
 10
-8.999999999999966
 20
47.8859375
 30
0.0
  0
SPLINE
  5
A8
330
1F
100
AcDbEntity
  8
0
  6
Continuous
 62
     7
370
    25
100
AcDbSpline
210
0.0
220
0.0
230
1.0
 70
     8
 71
     3
 72
    15
 73
    11
 74
     0
 42
0.00000001
 43
0.00000001
 40
0.0
 40
0.0
 40
0.0
 40
0.0
 40
0.1256503194285389
 40
0.2477723605403688
 40
0.3724885313240259
 40
0.5024036064223559
 40
0.6315473532479943
 40
0.753790192299531
 40
0.8743496805714579
 40
1.0
 40
1.0
 40
1.0
 40
1.0
 10
-7.565624999999966
 20
47.91875
 30
0.0
 10
-7.568252944333874
 20
47.87532719632
 30
0.0
 10
-7.573435039961981
 20
47.78970090728222
 30
0.0
 10
-7.608210397015722
 20
47.66437048953088
 30
0.0
 10
-7.671642538443103
 20
47.54972826626609
 30
0.0
 10
-7.753033299555558
 20
47.44435090738179
 30
0.0
 10
-7.851768158968302
 20
47.35566468631809
 30
0.0
 10
-7.963188900581867
 20
47.29019419938081
 30
0.0
 10
-8.085128450481333
 20
47.24840004563347
 30
0.0
 10
-8.17049610681791
 20
47.2442866988287
 30
0.0
 10
-8.214062499999967
 20
47.24218750000001
 30
0.0
  0
SPLINE
  5
A9
330
1F
100
AcDbEntity
  8
0
  6
Continuous
 62
     7
370
    25
100
AcDbSpline
210
0.0
220
0.0
230
1.0
 70
     8
 71
     3
 72
    31
 73
    27
 74
     0
 42
0.00000001
 43
0.00000001
 40
0.0
 40
0.0
 40
0.0
 40
0.0
 40
0.0535291767394753
 40
0.1057442882473182
 40
0.1568255288716602
 40
0.2068870451353787
 40
0.2560806546834277
 40
0.3043312025503154
 40
0.3525370281729931
 40
0.4000875932065041
 40
0.4468341320090239
 40
0.4920988908020699
 40
0.5358212289171279
 40
0.5783446774840947
 40
0.6201113212633953
 40
0.660504904318421
 40
0.7001982647284731
 40
0.7393928596745023
 40
0.7773987952850433
 40
0.8133654571959459
 40
0.8478059753456908
 40
0.880515906579045
 40
0.9120725478861355
 40
0.9421531196326212
 40
0.9714008341209579
 40
1.0
 40
1.0
 40
1.0
 40
1.0
 10
-10.75156249999997
 20
50.25000000000001
 30
0.0
 10
-10.67445111493529
 20
50.2486791611281
 30
0.0
 10
-10.52212131974498
 20
50.24606990810185
 30
0.0
 10
-10.29669356055752
 20
50.22896136208072
 30
0.0
 10
-10.07769605110448
 20
50.19901172049718
 30
0.0
 10
-9.864893404225842
 20
50.15836109586096
 30
0.0
 10
-9.658420523461686
 20
50.10751406229024
 30
0.0
 10
-9.458721091443863
 20
50.0426361912552
 30
0.0
 10
-9.265541728229012
 20
49.96660954642325
 30
0.0
 10
-9.080030504544053
 20
49.87845181470792
 30
0.0
 10
-8.902443699429714
 20
49.78401202835278
 30
0.0
 10
-8.735467941693571
 20
49.68210789474731
 30
0.0
 10
-8.578282402828059
 20
49.57616384022977
 30
0.0
 10
-8.432644739392943
 20
49.46287009506246
 30
0.0
 10
-8.296773378515647
 20
49.34518287727437
 30
0.0
 10
-8.173156403711486
 20
49.22041418838573
 30
0.0
 10
-8.05795342761172
 20
49.09273335287256
 30
0.0
 10
-7.956196076984654
 20
48.95839318968766
 30
0.0
 10
-7.863874159427334
 20
48.82391637061095
 30
0.0
 10
-7.785712837336034
 20
48.68853414945034
 30
0.0
 10
-7.718805833363401
 20
48.55588801562839
 30
0.0
 10
-7.660722939176349
 20
48.42591483926962
 30
0.0
 10
-7.619122091126084
 20
48.29624946583237
 30
0.0
 10
-7.589405661378176
 20
48.16869370770136
 30
0.0
 10
-7.569255920350157
 20
48.04334410288213
 30
0.0
 10
-7.566826226636667
 20
47.95996978471657
 30
0.0
 10
-7.565624999999966
 20
47.91875
 30
0.0
  0
SPLINE
  5
AA
330
1F
100
AcDbEntity
  8
0
  6
Continuous
 62
     7
370
    25
100
AcDbSpline
210
0.0
220
0.0
230
1.0
 70
     8
 71
     3
 72
    23
 73
    19
 74
     0
 42
0.00000001
 43
0.00000001
 40
0.0
 40
0.0
 40
0.0
 40
0.0
 40
0.0745054318009343
 40
0.14539045814114
 40
0.2131166690596764
 40
0.2786173214406145
 40
0.3418125552015217
 40
0.4034430196498324
 40
0.463500737550498
 40
0.523310125071383
 40
0.582457841335786
 40
0.6410549772224013
 40
0.6994069726951226
 40
0.7585241143261499
 40
0.8182324746855666
 40
0.8778905278910342
 40
0.9384429176581932
 40
1.0
 40
1.0
 40
1.0
 40
1.0
 10
-14.44999999999997
 20
46.215625
 30
0.0
 10
-14.44692807399068
 20
46.36839294941271
 30
0.0
 10
-14.44093349454769
 20
46.66650547111101
 30
0.0
 10
-14.38764961882052
 20
47.10074301696331
 30
0.0
 10
-14.30503012028042
 20
47.51140032806155
 30
0.0
 10
-14.18413642589524
 20
47.89622875332339
 30
0.0
 10
-14.0318547097544
 20
48.25593765017889
 30
0.0
 10
-13.85155123061358
 20
48.5900748588614
 30
0.0
 10
-13.63810632976093
 20
48.89567853948882
 30
0.0
 10
-13.39782504863872
 20
49.17384571415612
 30
0.0
 10
-13.13146126647932
 20
49.4228107359246
 30
0.0
 10
-12.84314534629156
 20
49.64108962258606
 30
0.0
 10
-12.53280229373932
 20
49.8266121055928
 30
0.0
 10
-12.20276823145915
 20
49.97972714465155
 30
0.0
 10
-11.85630123697381
 20
50.09890273579844
 30
0.0
 10
-11.49791522956277
 20
50.18779398057978
 30
0.0
 10
-11.12811614003638
 20
50.24013572607726
 30
0.0
 10
-10.8777669877748
 20
50.24669392217913
 30
0.0
 10
-10.75156249999997
 20
50.25000000000001
 30
0.0
  0
SPLINE
  5
AB
330
1F
100
AcDbEntity
  8
0
  6
Continuous
 62
     7
370
    25
100
AcDbSpline
210
0.0
220
0.0
230
1.0
 70
     8
 71
     3
 72
    19
 73
    15
 74
     0
 42
0.00000001
 43
0.00000001
 40
0.0
 40
0.0
 40
0.0
 40
0.0
 40
0.0774646129044064
 40
0.1552672690684983
 40
0.2342858169677946
 40
0.3144702126137996
 40
0.3958660732208595
 40
0.4780817633644779
 40
0.560751105302188
 40
0.645146120268222
 40
0.731170346266956
 40
0.818423761108268
 40
0.9083321222329658
 40
0.9999999999999999
 40
0.9999999999999999
 40
0.9999999999999999
 40
0.9999999999999999
 10
-13.48749999999997
 20
43.3328125
 30
0.0
 10
-13.5377141362355
 20
43.39526535576866
 30
0.0
 10
-13.63836153521684
 20
43.52044360164327
 30
0.0
 10
-13.77686410543213
 20
43.71965682121206
 30
0.0
 10
-13.90034835243261
 20
43.93155666541468
 30
0.0
 10
-14.01770873287919
 20
44.1511822269703
 30
0.0
 10
-14.11790936598895
 20
44.38283150275662
 30
0.0
 10
-14.2072873167518
 20
44.62146404961288
 30
0.0
 10
-14.28294588671709
 20
44.86817439914664
 30
0.0
 10
-14.34284171513342
 20
45.12311462677947
 30
0.0
 10
-14.3925328607209
 20
45.38514785230831
 30
0.0
 10
-14.42336160641767
 20
45.65572813489064
 30
0.0
 10
-14.44749702934377
 20
45.93290137890428
 30
0.0
 10
-14.44916030394
 20
46.12077694011361
 30
0.0
 10
-14.44999999999997
 20
46.215625
 30
0.0
  0
SPLINE
  5
AC
330
1F
100
AcDbEntity
  8
0
  6
Continuous
 62
     7
370
    25
100
AcDbSpline
210
0.0
220
0.0
230
1.0
 70
     8
 71
     3
 72
    19
 73
    15
 74
     0
 42
0.00000001
 43
0.00000001
 40
0.0
 40
0.0
 40
0.0
 40
0.0
 40
0.0968665172840139
 40
0.1894210298760957
 40
0.2783489770852062
 40
0.3634748984423217
 40
0.4452599082687847
 40
0.5255922844982615
 40
0.6037559420901926
 40
0.6810962619012694
 40
0.758173524300931
 40
0.8370705142261279
 40
0.9171592933343665
 40
1.0
 40
1.0
 40
1.0
 40
1.0
 10
-10.70937499999997
 20
42.25
 30
0.0
 10
-10.80890414953817
 20
42.25083628958244
 30
0.0
 10
-11.00353191707668
 20
42.25247164138845
 30
0.0
 10
-11.28868946807614
 20
42.27589671503547
 30
0.0
 10
-11.56059221014633
 20
42.30919577200897
 30
0.0
 10
-11.81921849548799
 20
42.35708142137988
 30
0.0
 10
-12.06505064107138
 20
42.42175704494337
 30
0.0
 10
-12.29889370551469
 20
42.50128458391623
 30
0.0
 10
-12.52259390824869
 20
42.59489393914647
 30
0.0
 10
-12.73432754570344
 20
42.7062537927867
 30
0.0
 10
-12.93616094974726
 20
42.83600576310918
 30
0.0
 10
-13.12937569855872
 20
42.98281901457167
 30
0.0
 10
-13.31595702814958
 20
43.14740522986332
 30
0.0
 10
-13.42967874482433
 20
43.27031806515169
 30
0.0
 10
-13.48749999999997
 20
43.3328125
 30
0.0
  0
SPLINE
  5
AD
330
1F
100
AcDbEntity
  8
0
  6
Continuous
 62
     7
370
    25
100
AcDbSpline
210
0.0
220
0.0
230
1.0
 70
     8
 71
     3
 72
    23
 73
    19
 74
     0
 42
0.00000001
 43
0.00000001
 40
0.0
 40
0.0
 40
0.0
 40
0.0
 40
0.0414833449479702
 40
0.0856516790845867
 40
0.1322587310008426
 40
0.1821536815803529
 40
0.2347601123108832
 40
0.2896125874664001
 40
0.3477980170083674
 40
0.4091809552791671
 40
0.4729520013813724
 40
0.5380973728275817
 40
0.6066114507805177
 40
0.6779034903598522
 40
0.7525310070413966
 40
0.8304429296926329
 40
0.9129309320544006
 40
1.0
 40
1.0
 40
1.0
 40
1.0
 10
-7.545312499999966
 20
44.8015625
 30
0.0
 10
-7.547434833418994
 20
44.73943403877971
 30
0.0
 10
-7.551816867248355
 20
44.61115588210904
 30
0.0
 10
-7.588670195750706
 20
44.41602397204038
 30
0.0
 10
-7.645110699868312
 20
44.21300142171636
 30
0.0
 10
-7.725362512131094
 20
44.00444678046372
 30
0.0
 10
-7.827281386183375
 20
43.79171762342458
 30
0.0
 10
-7.959403006791372
 20
43.58142200665844
 30
0.0
 10
-8.115761784269715
 20
43.37208458906812
 30
0.0
 10
-8.297789944009205
 20
43.16630652802479
 30
0.0
 10
-8.505808774645853
 20
42.97097234232588
 30
0.0
 10
-8.743565431770538
 20
42.79447587474181
 30
0.0
 10
-9.00767075537838
 20
42.63755995759894
 30
0.0
 10
-9.297783284114702
 20
42.49933348118473
 30
0.0
 10
-9.61373176904346
 20
42.38567896133863
 30
0.0
 10
-9.957340205728757
 20
42.30755949300138
 30
0.0
 10
-10.32510495291542
 20
42.25788230692952
 30
0.0
 10
-10.57899843326816
 20
42.25267433832846
 30
0.0
 10
-10.70937499999997
 20
42.25
 30
0.0
  0
SPLINE
  5
AE
330
1F
100
AcDbEntity
  8
0
  6
Continuous
 62
     7
370
    25
100
AcDbSpline
210
0.0
220
0.0
230
1.0
 70
     8
 71
     3
 72
    15
 73
    11
 74
     0
 42
0.00000001
 43
0.00000001
 40
0.0
 40
0.0
 40
0.0
 40
0.0
 40
0.1250062996713762
 40
0.2458894367456519
 40
0.3669543856239066
 40
0.4933355668018048
 40
0.6197167479797
 40
0.7427383594925382
 40
0.8677865443383777
 40
1.0
 40
1.0
 40
1.0
 40
1.0
 10
-8.224999999999966
 20
45.49375000000001
 30
0.0
 10
-8.179904127417268
 20
45.49150865376747
 30
0.0
 10
-8.09119980821044
 20
45.48709988905625
 30
0.0
 10
-7.964091046892666
 20
45.44716917187963
 30
0.0
 10
-7.845476868724552
 20
45.38611618091821
 30
0.0
 10
-7.742833855225275
 20
45.29774005376682
 30
0.0
 10
-7.65439368418535
 20
45.19446509393563
 30
0.0
 10
-7.590879999665291
 20
45.07450201537831
 30
0.0
 10
-7.551863516524137
 20
44.94198800014116
 30
0.0
 10
-7.547536345738183
 20
44.8492321477369
 30
0.0
 10
-7.545312499999966
 20
44.8015625
 30
0.0
  0
SPLINE
  5
AF
330
1F
100
AcDbEntity
  8
0
  6
Continuous
 62
     7
370
    25
100
AcDbSpline
210
0.0
220
0.0
230
1.0
 70
     8
 71
     3
 72
    15
 73
    11
 74
     0
 42
0.00000001
 43
0.00000001
 40
0.0
 40
0.0
 40
0.0
 40
0.0
 40
0.143533106491546
 40
0.2772797827564188
 40
0.4001195365232334
 40
0.5149298077171475
 40
0.6255755108528691
 40
0.7390294458673089
 40
0.8615475534815715
 40
1.0
 40
1.0
 40
1.0
 40
1.0
 10
-8.946874999999965
 20
44.79062500000001
 30
0.0
 10
-8.929917455347603
 20
44.84038588633831
 30
0.0
 10
-8.89715857196367
 20
44.93651484286207
 30
0.0
 10
-8.837757438717688
 20
45.07067922385819
 30
0.0
 10
-8.773227315952697
 20
45.19042366368384
 30
0.0
 10
-8.704374854718887
 20
45.29819450513947
 30
0.0
 10
-8.616790161009556
 20
45.3879425374293
 30
0.0
 10
-8.505302184182083
 20
45.45190070096019
 30
0.0
 10
-8.371364205018422
 20
45.48724795287004
 30
0.0
 10
-8.275734389943699
 20
45.49149618804862
 30
0.0
 10
-8.224999999999966
 20
45.49375000000001
 30
0.0
  0
SPLINE
  5
B0
330
1F
100
AcDbEntity
  8
0
  6
Continuous
 62
     7
370
    25
100
AcDbSpline
210
0.0
220
0.0
230
1.0
 70
     8
 71
     3
 72
    19
 73
    15
 74
     0
 42
0.00000001
 43
0.00000001
 40
0.0
 40
0.0
 40
0.0
 40
0.0
 40
0.1147535628400179
 40
0.2152182997398984
 40
0.3032195368503193
 40
0.3793650024382499
 40
0.4492454072354498
 40
0.5157844598012101
 40
0.5814004948512203
 40
0.6486115548981184
 40
0.722943773096738
 40
0.8052918526214257
 40
0.8978401376602074
 40
1.0
 40
1.0
 40
1.0
 40
1.0
 10
-21.06093749999999
 20
42.35000000000002
 30
0.0
 10
-21.12772441535195
 20
42.35103327084884
 30
0.0
 10
-21.25298210680122
 20
42.35297115225095
 30
0.0
 10
-21.42766903518879
 20
42.37905603168542
 30
0.0
 10
-21.57776982455401
 20
42.4150825985156
 30
0.0
 10
-21.70217566272347
 20
42.47263157705664
 30
0.0
 10
-21.80242544565614
 20
42.54606393576071
 30
0.0
 10
-21.88394460080918
 20
42.63155932160613
 30
0.0
 10
-21.94613514830057
 20
42.73035653944815
 30
0.0
 10
-21.98870703611076
 20
42.84377748453353
 30
0.0
 10
-22.01459326468421
 20
42.9715954691224
 30
0.0
 10
-22.0351650652556
 20
43.11506723343565
 30
0.0
 10
-22.0472394438801
 20
43.27584207747348
 30
0.0
 10
-22.04905002215139
 20
43.38904300807576
 30
0.0
 10
-22.04999999999999
 20
43.44843750000002
 30
0.0
  0
SPLINE
  5
B2
330
1F
100
AcDbEntity
  8
0
  6
Continuous
 62
     7
370
    25
100
AcDbSpline
210
0.0
220
0.0
230
1.0
 70
     8
 71
     3
 72
    19
 73
    15
 74
     0
 42
0.00000001
 43
0.00000001
 40
0.0
 40
0.0
 40
0.0
 40
0.0
 40
0.0789676580014713
 40
0.1566266324446762
 40
0.2342410568166005
 40
0.3119632953284089
 40
0.3899474145676156
 40
0.4687512318958583
 40
0.5490946489672992
 40
0.630750542557721
 40
0.7153216363360063
 40
0.804966748001929
 40
0.8998214066471288
 40
1.0
 40
1.0
 40
1.0
 40
1.0
 10
-16.60312499999999
 20
43.07656250000002
 30
0.0
 10
-16.65558890215313
 20
43.03299168279096
 30
0.0
 10
-16.75964725372539
 20
42.9465721213524
 30
0.0
 10
-16.92693901278248
 20
42.83255147020852
 30
0.0
 10
-17.10026490105196
 20
42.73020605233967
 30
0.0
 10
-17.28212218451798
 20
42.64311452276679
 30
0.0
 10
-17.47031313096899
 20
42.56827433850951
 30
0.0
 10
-17.66462510448433
 20
42.50345867895175
 30
0.0
 10
-17.86625938481496
 20
42.45226812831886
 30
0.0
 10
-18.07559783982218
 20
42.41309621338254
 30
0.0
 10
-18.29484068817533
 20
42.38562329641132
 30
0.0
 10
-18.5262577210363
 20
42.36546265293581
 30
0.0
 10
-18.77173734134799
 20
42.35285465701249
 30
0.0
 10
-18.94008891722646
 20
42.35096871290405
 30
0.0
 10
-19.02656249999999
 20
42.35000000000002
 30
0.0
  0
SPLINE
  5
B3
330
1F
100
AcDbEntity
  8
0
  6
Continuous
 62
     7
370
    25
100
AcDbSpline
210
0.0
220
0.0
230
1.0
 70
     8
 71
     3
 72
    19
 73
    15
 74
     0
 42
0.00000001
 43
0.00000001
 40
0.0
 40
0.0
 40
0.0
 40
0.0
 40
0.0991590053499155
 40
0.1935259182641473
 40
0.2847630395431385
 40
0.3716896366180638
 40
0.4555679592612069
 40
0.5368786127856874
 40
0.6156432555031247
 40
0.6931768893659064
 40
0.7693332999359815
 40
0.8454789474899899
 40
0.9222196594922234
 40
1.0
 40
1.0
 40
1.0
 40
1.0
 10
-15.44999999999999
 20
46.21875000000001
 30
0.0
 10
-15.45160685956756
 20
46.10465845135055
 30
0.0
 10
-15.45474292343023
 20
45.88198909680579
 30
0.0
 10
-15.47612652905401
 20
45.55483148299333
 30
0.0
 10
-15.51548359623841
 20
45.24358346735885
 30
0.0
 10
-15.56815433256944
 20
44.94656837885024
 30
0.0
 10
-15.63654194571986
 20
44.66443326436814
 30
0.0
 10
-15.72211317782546
 20
44.39681689068281
 30
0.0
 10
-15.82591796426315
 20
44.14357375774203
 30
0.0
 10
-15.94639734055026
 20
43.9045397717621
 30
0.0
 10
-16.08249427431675
 20
43.677388595766
 30
0.0
 10
-16.23879310004459
 20
43.46491213432206
 30
0.0
 10
-16.40981197639382
 20
43.26141097286425
 30
0.0
 10
-16.5383989447433
 20
43.13845441108565
 30
0.0
 10
-16.60312499999999
 20
43.07656250000002
 30
0.0
  0
SPLINE
  5
B4
330
1F
100
AcDbEntity
  8
0
  6
Continuous
 62
     7
370
    25
100
AcDbSpline
210
0.0
220
0.0
230
1.0
 70
     8
 71
     3
 72
    23
 73
    19
 74
     0
 42
0.00000001
 43
0.00000001
 40
0.0
 40
0.0
 40
0.0
 40
0.0
 40
0.057023016471363
 40
0.1139933135720255
 40
0.1705011044048438
 40
0.227432709606615
 40
0.2846608675792437
 40
0.3423960884220659
 40
0.4012447442273623
 40
0.4612546271685111
 40
0.5225525643300147
 40
0.5850159042854657
 40
0.6490626895046309
 40
0.7150763374135264
 40
0.7833734418589814
 40
0.8530713978484145
 40
0.9252431995803366
 40
1.0
 40
1.0
 40
1.0
 40
1.0
 10
-16.6671875
 20
49.37031250000003
 30
0.0
 10
-16.61772725713806
 20
49.32605678623468
 30
0.0
 10
-16.51885249878955
 20
49.23758627434689
 30
0.0
 10
-16.37996460577529
 20
49.09564923748144
 30
0.0
 10
-16.25105443996569
 20
48.94476642159506
 30
0.0
 10
-16.13255945482295
 20
48.78521737845728
 30
0.0
 10
-16.02295767427082
 20
48.61774231876663
 30
0.0
 10
-15.92262174741136
 20
48.44200022983449
 30
0.0
 10
-15.8313991068923
 20
48.25764884159398
 30
0.0
 10
-15.75302740923198
 20
48.06309473781497
 30
0.0
 10
-15.67989124253412
 20
47.86201710009301
 30
0.0
 10
-15.62035023236147
 20
47.6516215373351
 30
0.0
 10
-15.56569882264972
 20
47.43425499714704
 30
0.0
 10
-15.52506954477619
 20
47.20691730124184
 30
0.0
 10
-15.48972913962088
 20
46.97210071007179
 30
0.0
 10
-15.46709825201061
 20
46.72848238543146
 30
0.0
 10
-15.45253623707593
 20
46.4767436548839
 30
0.0
 10
-15.45085527042693
 20
46.3057506772841
 30
0.0
 10
-15.44999999999999
 20
46.21875000000001
 30
0.0
  0
SPLINE
  5
B5
330
1F
100
AcDbEntity
  8
0
  6
Continuous
 62
     7
370
    25
100
AcDbSpline
210
0.0
220
0.0
230
1.0
 70
     8
 71
     3
 72
    15
 73
    11
 74
     0
 42
0.00000001
 43
0.00000001
 40
0.0
 40
0.0
 40
0.0
 40
0.0
 40
0.1506351968946855
 40
0.2906359255659467
 40
0.4198836115504011
 40
0.5394553747598603
 40
0.6538039637038233
 40
0.7676459522781081
 40
0.8824535886902071
 40
1.0
 40
1.0
 40
1.0
 40
1.0
 10
-19.07968749999999
 20
50.05000000000002
 30
0.0
 10
-18.95100119370764
 20
50.04815889333805
 30
0.0
 10
-18.70271351255506
 20
50.04460665754056
 30
0.0
 10
-18.34466368257442
 20
50.01876016945472
 30
0.0
 10
-18.0154706481095
 20
49.97326994963668
 30
0.0
 10
-17.71088413264433
 20
49.91245446911712
 30
0.0
 10
-17.42666619546243
 20
49.82389353091303
 30
0.0
 10
-17.15755244268615
 20
49.7065295090938
 30
0.0
 10
-16.90197754815243
 20
49.55571545768579
 30
0.0
 10
-16.74606343988287
 20
49.43259722058168
 30
0.0
 10
-16.66718749999999
 20
49.37031250000002
 30
0.0
  0
SPLINE
  5
B7
330
1F
100
AcDbEntity
  8
0
  6
Continuous
 62
     7
370
    25
100
AcDbSpline
210
0.0
220
0.0
230
1.0
 70
     8
 71
     3
 72
    15
 73
    11
 74
     0
 42
0.00000001
 43
0.00000001
 40
0.0
 40
0.0
 40
0.0
 40
0.0
 40
0.1529916547296035
 40
0.2859714530457826
 40
0.4024331248266079
 40
0.5073037479408552
 40
0.6109764919921387
 40
0.7248960577830074
 40
0.8531056040683804
 40
1.0
 40
1.0
 40
1.0
 40
1.0
 10
-22.04999999999999
 20
49.09375000000002
 30
0.0
 10
-22.04761086451516
 20
49.1720898797458
 30
0.0
 10
-22.04314510102417
 20
49.31852250237436
 30
0.0
 10
-22.00295898932162
 20
49.52142015654001
 30
0.0
 10
-21.93760590680989
 20
49.6919436599836
 30
0.0
 10
-21.83871473289201
 20
49.82835606758564
 30
0.0
 10
-21.70673591724663
 20
49.93055209618413
 30
0.0
 10
-21.54338174967951
 20
50.002133480507
 30
0.0
 10
-21.347309405961
 20
50.04328312903862
 30
0.0
 10
-21.20645862774774
 20
50.04766190855931
 30
0.0
 10
-21.13124999999999
 20
50.05000000000003
 30
0.0
  0
SPLINE
  5
BD
330
1F
100
AcDbEntity
  8
0
  6
Continuous
 62
     7
370
    25
100
AcDbSpline
210
0.0
220
0.0
230
1.0
 70
     8
 71
     3
 72
    23
 73
    19
 74
     0
 42
0.00000001
 43
0.00000001
 40
0.0
 40
0.0
 40
0.0
 40
0.0
 40
0.0752299434426154
 40
0.1468197426116058
 40
0.2155348415021045
 40
0.2813690974630179
 40
0.3446946380191935
 40
0.4060284441969326
 40
0.465658159091962
 40
0.5236353894985439
 40
0.5812541218660945
 40
0.6381490818159468
 40
0.6953540130239985
 40
0.7530718638088523
 40
0.8119418566683492
 40
0.8728958833048917
 40
0.9354037729710755
 40
1.0
 40
1.0
 40
1.0
 40
1.0
 10
-31.48593749999998
 20
46.39531250000002
 30
0.0
 10
-31.42369800273211
 20
46.37467476041353
 30
0.0
 10
-31.3022305849596
 20
46.33439787762568
 30
0.0
 10
-31.12828039033639
 20
46.26325297605391
 30
0.0
 10
-30.9653113387733
 20
46.18749747289724
 30
0.0
 10
-30.81467616473578
 20
46.1031423634163
 30
0.0
 10
-30.67701799401226
 20
46.01016657737733
 30
0.0
 10
-30.54947956668009
 20
45.9123020949293
 30
0.0
 10
-30.4354227589021
 20
45.80564243308861
 30
0.0
 10
-30.33282178242841
 20
45.69231557005365
 30
0.0
 10
-30.24228082548856
 20
45.57210446660439
 30
0.0
 10
-30.1630975221569
 20
45.44480526777796
 30
0.0
 10
-30.09830996412045
 20
45.30964993029276
 30
0.0
 10
-30.04191218110427
 20
45.16880043383582
 30
0.0
 10
-30.00310241876307
 20
45.01879732437592
 30
0.0
 10
-29.97036612327215
 20
44.86319888924462
 30
0.0
 10
-29.95405178240526
 20
44.69982403934073
 30
0.0
 10
-29.95136530718222
 20
44.58908947427208
 30
0.0
 10
-29.94999999999998
 20
44.53281250000001
 30
0.0
  0
SPLINE
  5
BE
330
1F
100
AcDbEntity
  8
0
  6
Continuous
 62
     7
370
    25
100
AcDbSpline
210
0.0
220
0.0
230
1.0
 70
     8
 71
     3
 72
    15
 73
    11
 74
     0
 42
0.00000001
 43
0.00000001
 40
0.0
 40
0.0
 40
0.0
 40
0.0
 40
0.128348357578756
 40
0.2497447522128162
 40
0.3674898779872954
 40
0.4847697934706057
 40
0.6036614671544135
 40
0.727567101398564
 40
0.8590037968444957
 40
1.0
 40
1.0
 40
1.0
 40
1.0
 10
-30.31718749999998
 20
48.09843750000002
 30
0.0
 10
-30.32065156185448
 20
48.0043946699201
 30
0.0
 10
-30.32739205535061
 20
47.82140282071553
 30
0.0
 10
-30.38387481676855
 20
47.55703167790299
 30
0.0
 10
-30.47445173955048
 20
47.31129430043786
 30
0.0
 10
-30.60447034133676
 20
47.08581653933967
 30
0.0
 10
-30.77073685163292
 20
46.87979447661304
 30
0.0
 10
-30.97578283519353
 20
46.69676357062657
 30
0.0
 10
-31.21497989333362
 20
46.53087530713369
 30
0.0
 10
-31.39352989348727
 20
46.44154495198205
 30
0.0
 10
-31.48593749999998
 20
46.39531250000002
 30
0.0
  0
SPLINE
  5
BF
330
1F
100
AcDbEntity
  8
0
  6
Continuous
 62
     7
370
    25
100
AcDbSpline
210
0.0
220
0.0
230
1.0
 70
     8
 71
     3
 72
    19
 73
    15
 74
     0
 42
0.00000001
 43
0.00000001
 40
0.0
 40
0.0
 40
0.0
 40
0.0
 40
0.0824316430282881
 40
0.1648554589053438
 40
0.2472597036516778
 40
0.3313879516876603
 40
0.4149390496575072
 40
0.4980449515356428
 40
0.5803120680012458
 40
0.6631068563797297
 40
0.7466772569022115
 40
0.8297054896962067
 40
0.9139946315733322
 40
1.0
 40
1.0
 40
1.0
 40
1.0
 10
-31.24218749999998
 20
49.71093750000001
 30
0.0
 10
-31.19688161493138
 20
49.68252863367771
 30
0.0
 10
-31.10627414673457
 20
49.62571359854689
 30
0.0
 10
-30.9796300254626
 20
49.52686132380299
 30
0.0
 10
-30.86196238101707
 20
49.41613531748453
 30
0.0
 10
-30.75164477216748
 20
49.29707535111334
 30
0.0
 10
-30.65132513289797
 20
49.16883986942358
 30
0.0
 10
-30.56350444783029
 20
49.03308929256823
 30
0.0
 10
-30.49030974653212
 20
48.88953988774622
 30
0.0
 10
-30.42742081564682
 20
48.74097611696119
 30
0.0
 10
-30.37687127009169
 20
48.58702733776717
 30
0.0
 10
-30.34353094007776
 20
48.42763665252656
 30
0.0
 10
-30.31979057142883
 20
48.264776302877
 30
0.0
 10
-30.31806100067578
 20
48.15425504504119
 30
0.0
 10
-30.31718749999998
 20
48.09843750000002
 30
0.0
  0
SPLINE
  5
C0
330
1F
100
AcDbEntity
  8
0
  6
Continuous
 62
     7
370
    25
100
AcDbSpline
210
0.0
220
0.0
230
1.0
 70
     8
 71
     3
 72
    15
 73
    11
 74
     0
 42
0.00000001
 43
0.00000001
 40
0.0
 40
0.0
 40
0.0
 40
0.0
 40
0.1532952177487998
 40
0.2968303520138341
 40
0.429067193277514
 40
0.5521111286184504
 40
0.6684834159634248
 40
0.7808398119278989
 40
0.8910597167823164
 40
1.0
 40
1.0
 40
1.0
 40
1.0
 10
-32.91874999999997
 20
50.05000000000001
 30
0.0
 10
-32.83019681008497
 20
50.04899633208989
 30
0.0
 10
-32.65872848302018
 20
50.0470528983452
 30
0.0
 10
-32.41105899859387
 20
50.03515754092951
 30
0.0
 10
-32.18165315586898
 20
50.01325437337837
 30
0.0
 10
-31.9689421346117
 20
49.98301177516213
 30
0.0
 10
-31.77039808443979
 20
49.93891457969764
 30
0.0
 10
-31.58263294216563
 20
49.88226392639626
 30
0.0
 10
-31.40695222892146
 20
49.80475036463006
 30
0.0
 10
-31.29689487717146
 20
49.7420864953126
 30
0.0
 10
-31.24218749999998
 20
49.71093750000001
 30
0.0
  0
SPLINE
  5
C2
330
1F
100
AcDbEntity
  8
0
  6
Continuous
 62
     7
370
    25
100
AcDbSpline
210
0.0
220
0.0
230
1.0
 70
     8
 71
     3
 72
    15
 73
    11
 74
     0
 42
0.00000001
 43
0.00000001
 40
0.0
 40
0.0
 40
0.0
 40
0.0
 40
0.1527717903158933
 40
0.2840228121327611
 40
0.3991732195808785
 40
0.5031174008161736
 40
0.607665113734885
 40
0.7209648163686769
 40
0.8512342853232361
 40
1.0
 40
1.0
 40
1.0
 40
1.0
 10
-36.34999999999998
 20
49.09375000000001
 30
0.0
 10
-36.34783388818263
 20
49.17316140650965
 30
0.0
 10
-36.34380680197459
 20
49.32079763532941
 30
0.0
 10
-36.30140278931894
 20
49.52472292228281
 30
0.0
 10
-36.23440751677409
 20
49.69519366292441
 30
0.0
 10
-36.13366985215045
 20
49.83250300813876
 30
0.0
 10
-35.99791042302181
 20
49.93372900365729
 30
0.0
 10
-35.82908338462052
 20
50.00177407275907
 30
0.0
 10
-35.62857039011371
 20
50.04342168878523
 30
0.0
 10
-35.48356085150424
 20
50.0477124237628
 30
0.0
 10
-35.40624999999998
 20
50.05000000000001
 30
0.0
  0
SPLINE
  5
C4
330
1F
100
AcDbEntity
  8
0
  6
Continuous
 62
     7
370
    25
100
AcDbSpline
210
0.0
220
0.0
230
1.0
 70
     8
 71
     3
 72
    19
 73
    15
 74
     0
 42
0.00000001
 43
0.00000001
 40
0.0
 40
0.0
 40
0.0
 40
0.0
 40
0.0792274711257351
 40
0.1517520039375936
 40
0.2199922717509409
 40
0.2832170577407058
 40
0.3418902692752584
 40
0.3979349737316806
 40
0.4505000068530237
 40
0.5016206426355508
 40
0.6056985409840775
 40
0.7203808519830399
 40
0.8503465761097357
 40
0.9999999999999999
 40
0.9999999999999999
 40
0.9999999999999999
 40
0.9999999999999999
 10
-35.40624999999998
 20
42.35000000000002
 30
0.0
 10
-35.44742154458741
 20
42.35042042257157
 30
0.0
 10
-35.52628136817603
 20
42.35122569840367
 30
0.0
 10
-35.64019286200556
 20
42.36230537838512
 30
0.0
 10
-35.74459672671274
 20
42.3809936946018
 30
0.0
 10
-35.84036166201845
 20
42.40570961001135
 30
0.0
 10
-35.92745225531596
 20
42.4370406128738
 30
0.0
 10
-36.00590444041159
 20
42.4751857331667
 30
0.0
 10
-36.07371001135727
 20
42.52346027338273
 30
0.0
 10
-36.15500073312383
 20
42.59485259349331
 30
0.0
 10
-36.23706925242116
 20
42.71114608333328
 30
0.0
 10
-36.30283324898495
 20
42.88112279607672
 30
0.0
 10
-36.34317008729824
 20
43.08304468589821
 30
0.0
 10
-36.34761894915355
 20
43.22843594508048
 30
0.0
 10
-36.34999999999998
 20
43.30625000000001
 30
0.0
  0
SPLINE
  5
C6
330
1F
100
AcDbEntity
  8
0
  6
Continuous
 62
     7
370
    25
100
AcDbSpline
210
0.0
220
0.0
230
1.0
 70
     8
 71
     3
 72
    15
 73
    11
 74
     0
 42
0.00000001
 43
0.00000001
 40
0.0
 40
0.0
 40
0.0
 40
0.0
 40
0.1029242452228148
 40
0.210194263754824
 40
0.3221386527259457
 40
0.4403825382956481
 40
0.5659616124540412
 40
0.7001564004406997
 40
0.8456321911720058
 40
0.9999999999999999
 40
0.9999999999999999
 40
0.9999999999999999
 40
0.9999999999999999
 10
-31.18906249999998
 20
42.62500000000001
 30
0.0
 10
-31.24967267212568
 20
42.60066536752136
 30
0.0
 10
-31.37345216138438
 20
42.5509686206905
 30
0.0
 10
-31.56943033470549
 20
42.4920076642903
 30
0.0
 10
-31.77859149807929
 20
42.4459888266793
 30
0.0
 10
-32.00114640201553
 20
42.40786132935212
 30
0.0
 10
-32.23971151181021
 20
42.38244576431973
 30
0.0
 10
-32.49613557823009
 20
42.36421100536432
 30
0.0
 10
-32.77121430810787
 20
42.35079054584777
 30
0.0
 10
-32.9614410120456
 20
42.35026867407566
 30
0.0
 10
-33.05937499999997
 20
42.35000000000002
 30
0.0
  0
SPLINE
  5
C7
330
1F
100
AcDbEntity
  8
0
  6
Continuous
 62
     7
370
    25
100
AcDbSpline
210
0.0
220
0.0
230
1.0
 70
     8
 71
     3
 72
    15
 73
    11
 74
     0
 42
0.00000001
 43
0.00000001
 40
0.0
 40
0.0
 40
0.0
 40
0.0
 40
0.1292509114881895
 40
0.2552282832037164
 40
0.379102423965141
 40
0.5044379537611777
 40
0.6288787949259372
 40
0.7512500727051323
 40
0.8739076435899719
 40
1.0
 40
1.0
 40
1.0
 40
1.0
 10
-29.94999999999998
 20
44.53281250000001
 30
0.0
 10
-29.95350250765784
 20
44.42880821286708
 30
0.0
 10
-29.96041881490963
 20
44.2234337567404
 30
0.0
 10
-30.02748099149499
 20
43.92460988151951
 30
0.0
 10
-30.13237374945489
 20
43.64096900929895
 30
0.0
 10
-30.27990579609674
 20
43.37814314590244
 30
0.0
 10
-30.46044510272757
 20
43.13848221175704
 30
0.0
 10
-30.67347693479194
 20
42.93021357985676
 30
0.0
 10
-30.91668922973878
 20
42.75479300986537
 30
0.0
 10
-31.09743946555764
 20
42.66866077993581
 30
0.0
 10
-31.18906249999998
 20
42.62500000000001
 30
0.0
  0
SPLINE
  5
C9
330
1F
100
AcDbEntity
  8
0
  6
Continuous
 62
     7
370
    25
100
AcDbSpline
210
0.0
220
0.0
230
1.0
 70
     8
 71
     3
 72
    15
 73
    11
 74
     0
 42
0.00000001
 43
0.00000001
 40
0.0
 40
0.0
 40
0.0
 40
0.0
 40
0.148117903381782
 40
0.2758520891624334
 40
0.3887404602898673
 40
0.4924796911247343
 40
0.5970066267467244
 40
0.7137747437689291
 40
0.8468284513816944
 40
0.9999999999999999
 40
0.9999999999999999
 40
0.9999999999999999
 40
0.9999999999999999
 10
-27.73124999999999
 20
42.35000000000002
 30
0.0
 10
-27.8075823404812
 20
42.35199718280416
 30
0.0
 10
-27.94974230299516
 20
42.35571669973212
 30
0.0
 10
-28.14581677926077
 20
42.40040825062613
 30
0.0
 10
-28.31065920776093
 20
42.46893266449727
 30
0.0
 10
-28.44200268969841
 20
42.57308298455771
 30
0.0
 10
-28.53880822999627
 20
42.71181343738773
 30
0.0
 10
-28.60505078002738
 20
42.88305338763089
 30
0.0
 10
-28.64249837896579
 20
43.08798445303632
 30
0.0
 10
-28.64738497208382
 20
43.23525281322066
 30
0.0
 10
-28.64999999999999
 20
43.31406250000001
 30
0.0
  0
SPLINE
  5
CB
330
1F
100
AcDbEntity
  8
0
  6
Continuous
 62
     7
370
    25
100
AcDbSpline
210
0.0
220
0.0
230
1.0
 70
     8
 71
     3
 72
    15
 73
    11
 74
     0
 42
0.00000001
 43
0.00000001
 40
0.0
 40
0.0
 40
0.0
 40
0.0
 40
0.1202231895927846
 40
0.2325581639606092
 40
0.344107656161149
 40
0.4567717215353785
 40
0.5749214734182948
 40
0.7012487594716066
 40
0.8418877067080088
 40
1.0
 40
1.0
 40
1.0
 40
1.0
 10
-23.18906249999999
 20
42.99531250000002
 30
0.0
 10
-23.19126611049401
 20
42.94920293982766
 30
0.0
 10
-23.19552874578349
 20
42.86000921030648
 30
0.0
 10
-23.23444245082053
 20
42.73262070871856
 30
0.0
 10
-23.2995569183165
 20
42.62024159140429
 30
0.0
 10
-23.38913817218976
 20
42.52334040469998
 30
0.0
 10
-23.5015636158522
 20
42.44324573245228
 30
0.0
 10
-23.64015027950701
 20
42.39006344744924
 30
0.0
 10
-23.7997833957394
 20
42.35463472829035
 30
0.0
 10
-23.91436066883951
 20
42.3516039965209
 30
0.0
 10
-23.97499999999999
 20
42.35000000000002
 30
0.0
  0
SPLINE
  5
CC
330
1F
100
AcDbEntity
  8
0
  6
Continuous
 62
     7
370
    25
100
AcDbSpline
210
0.0
220
0.0
230
1.0
 70
     8
 71
     3
 72
    15
 73
    11
 74
     0
 42
0.00000001
 43
0.00000001
 40
0.0
 40
0.0
 40
0.0
 40
0.0
 40
0.1550337644472315
 40
0.2956398480582979
 40
0.4227207273063807
 40
0.5440761416024266
 40
0.6593982807374336
 40
0.7706876048432478
 40
0.8827605791277282
 40
1.0
 40
1.0
 40
1.0
 40
1.0
 10
-23.97499999999999
 20
43.65000000000001
 30
0.0
 10
-23.91539363680847
 20
43.64843957340786
 30
0.0
 10
-23.80172797036428
 20
43.64546393592491
 30
0.0
 10
-23.64281202061949
 20
43.60867982698134
 30
0.0
 10
-23.5035897514779
 20
43.55176514737535
 30
0.0
 10
-23.39102385279494
 20
43.46712830008171
 30
0.0
 10
-23.30029249993036
 20
43.36813382295094
 30
0.0
 10
-23.2343963735463
 20
43.25490564840404
 30
0.0
 10
-23.19585262997136
 20
43.12848946740476
 30
0.0
 10
-23.19135961941669
 20
43.04036662988733
 30
0.0
 10
-23.18906249999999
 20
42.99531250000001
 30
0.0
  0
SPLINE
  5
CF
330
1F
100
AcDbEntity
  8
0
  6
Continuous
 62
     7
370
    25
100
AcDbSpline
210
0.0
220
0.0
230
1.0
 70
     8
 71
     3
 72
    15
 73
    11
 74
     0
 42
0.00000001
 43
0.00000001
 40
0.0
 40
0.0
 40
0.0
 40
0.0
 40
0.1172064969144934
 40
0.2276387516711806
 40
0.3357661614619448
 40
0.4464889514609278
 40
0.5637831285798751
 40
0.6919810922994293
 40
0.8353768806301303
 40
1.0
 40
1.0
 40
1.0
 40
1.0
 10
-27.90781249999999
 20
50.25000000000001
 30
0.0
 10
-27.8537826284438
 20
50.2478158915514
 30
0.0
 10
-27.74884567667244
 20
50.24357391065578
 30
0.0
 10
-27.60047438972751
 20
50.1955311049448
 30
0.0
 10
-27.46739980316411
 20
50.12140984803717
 30
0.0
 10
-27.35311105232732
 20
50.0155001920946
 30
0.0
 10
-27.25869617093496
 20
49.88002432709178
 30
0.0
 10
-27.19448965907098
 20
49.71185104346742
 30
0.0
 10
-27.1553671190905
 20
49.51430200223606
 30
0.0
 10
-27.15186938917002
 20
49.37260569954274
 30
0.0
 10
-27.14999999999999
 20
49.29687500000001
 30
0.0
  0
SPLINE
  5
D0
330
1F
100
AcDbEntity
  8
0
  6
Continuous
 62
     7
370
    25
100
AcDbSpline
210
0.0
220
0.0
230
1.0
 70
     8
 71
     3
 72
    15
 73
    11
 74
     0
 42
0.00000001
 43
0.00000001
 40
0.0
 40
0.0
 40
0.0
 40
0.0
 40
0.1640284378042434
 40
0.3088983247878876
 40
0.436927056603384
 40
0.5550889364537722
 40
0.6668913062363371
 40
0.774722379706198
 40
0.883763037546772
 40
1.0
 40
1.0
 40
1.0
 40
1.0
 10
-28.64999999999999
 20
49.29687500000001
 30
0.0
 10
-28.64806730876075
 20
49.37154951405441
 30
0.0
 10
-28.64442766496407
 20
49.51217654558953
 30
0.0
 10
-28.60566042092118
 20
49.70814931889034
 30
0.0
 10
-28.54183269792307
 20
49.87520787899485
 30
0.0
 10
-28.45196208555477
 20
50.01275996046279
 30
0.0
 10
-28.33904829508491
 20
50.1188170699827
 30
0.0
 10
-28.20986086109662
 20
50.19637498228793
 30
0.0
 10
-28.06325004931777
 20
50.24102808298603
 30
0.0
 10
-27.960716796029
 20
50.24694634304429
 30
0.0
 10
-27.9078125
 20
50.25000000000001
 30
0.0
  0
SPLINE
  5
D1
330
1F
100
AcDbEntity
  8
0
  6
Continuous
 62
     7
370
    25
100
AcDbSpline
210
0.0
220
0.0
230
1.0
 70
     8
 71
     3
 72
    23
 73
    19
 74
     0
 42
0.00000001
 43
0.00000001
 40
0.0
 40
0.0
 40
0.0
 40
0.0
 40
0.0699812534689266
 40
0.1373113950427515
 40
0.2019236830115334
 40
0.2647098821922538
 40
0.3255199297604012
 40
0.3846113655050415
 40
0.4429457153330404
 40
0.5008350717428122
 40
0.5584132160374545
 40
0.6162686151586885
 40
0.6746542770747435
 40
0.7347704265938195
 40
0.796775232855051
 40
0.8612536522718294
 40
0.9287614633342046
 40
0.9999999999999999
 40
0.9999999999999999
 40
0.9999999999999999
 40
0.9999999999999999
 10
12.85000000000001
 20
46.26093750000002
 30
0.0
 10
12.84694777318957
 20
46.11499337697343
 30
0.0
 10
12.84095894760336
 20
45.82863395730445
 30
0.0
 10
12.79553176434473
 20
45.40940895826174
 30
0.0
 10
12.71852377104975
 20
45.01034312124736
 30
0.0
 10
12.61364460863274
 20
44.63159832319081
 30
0.0
 10
12.47579475098856
 20
44.2757966452905
 30
0.0
 10
12.30808549051661
 20
43.94340534471431
 30
0.0
 10
12.10886688852334
 20
43.63602883414614
 30
0.0
 10
11.88028522857792
 20
43.35394498178029
 30
0.0
 10
11.62321454447821
 20
43.0987516804929
 30
0.0
 10
11.3358985542281
 20
42.87628187974598
 30
0.0
 10
11.02011898191758
 20
42.68640345480581
 30
0.0
 10
10.67868084021346
 20
42.52646507593371
 30
0.0
 10
10.30953907888899
 20
42.40045215112879
 30
0.0
 10
9.913441128389398
 20
42.31573302971503
 30
0.0
 10
9.492833495957656
 20
42.25807219280919
 30
0.0
 10
9.203330959209389
 20
42.25273853618118
 30
0.0
 10
9.054687500000012
 20
42.25000000000001
 30
0.0
  0
SPLINE
  5
D2
330
1F
100
AcDbEntity
  8
0
  6
Continuous
 62
     7
370
    25
100
AcDbSpline
210
0.0
220
0.0
230
1.0
 70
     8
 71
     3
 72
    31
 73
    27
 74
     0
 42
0.00000001
 43
0.00000001
 40
0.0
 40
0.0
 40
0.0
 40
0.0
 40
0.0473805182659701
 40
0.0929041904025644
 40
0.1371843651017145
 40
0.1804020471459701
 40
0.2222492441373447
 40
0.2631661452921137
 40
0.3035910478924846
 40
0.3433931813888108
 40
0.3825555054395902
 40
0.4211552334065672
 40
0.459552383333989
 40
0.4976285525661451
 40
0.5356189415516042
 40
0.5739091263929756
 40
0.612912447253452
 40
0.6525048142500849
 40
0.6927764706137243
 40
0.7335655964575354
 40
0.7752796745457275
 40
0.817603073379342
 40
0.8614162591651922
 40
0.9061265926360925
 40
0.952376154262702
 40
1.0
 40
1.0
 40
1.0
 40
1.0
 10
9.023437500000012
 20
50.25000000000001
 30
0.0
 10
9.122449577317271
 20
50.2486100654705
 30
0.0
 10
9.316593441079995
 20
50.24588466805184
 30
0.0
 10
9.602355169309947
 20
50.22117967929711
 30
0.0
 10
9.87795870546827
 20
50.18450992128366
 30
0.0
 10
10.14321746165762
 20
50.13172788448068
 30
0.0
 10
10.39747339794406
 20
50.06285498706298
 30
0.0
 10
10.6407749319192
 20
49.97820899957631
 30
0.0
 10
10.87343558189877
 20
49.87807029092207
 30
0.0
 10
11.0957274532439
 20
49.76440354662241
 30
0.0
 10
11.30520865544226
 20
49.63573316978828
 30
0.0
 10
11.50321294165786
 20
49.49502545683065
 30
0.0
 10
11.68749755823862
 20
49.34021614489454
 30
0.0
 10
11.85849208000669
 20
49.17266414842957
 30
0.0
 10
12.01510553134203
 20
48.9919122954967
 30
0.0
 10
12.15961474441376
 20
48.79896419535627
 30
0.0
 10
12.2909065416861
 20
48.59273448163248
 30
0.0
 10
12.40756687260952
 20
48.37326697598414
 30
0.0
 10
12.51237829549091
 20
48.14384096110962
 30
0.0
 10
12.60336162351711
 20
47.90378402307068
 30
0.0
 10
12.67929991462042
 20
47.65411317394094
 30
0.0
 10
12.74246419358944
 20
47.39441483859935
 30
0.0
 10
12.79033632704765
 20
47.12506911331732
 30
0.0
 10
12.82405670511431
 20
46.84544518879857
 30
0.0
 10
12.84740142472401
 20
46.55664598867068
 30
0.0
 10
12.84912539540262
 20
46.36046434691052
 30
0.0
 10
12.85000000000001
 20
46.26093750000002
 30
0.0
  0
SPLINE
  5
D3
330
1F
100
AcDbEntity
  8
0
  6
Continuous
 62
     7
370
    25
100
AcDbSpline
210
0.0
220
0.0
230
1.0
 70
     8
 71
     3
 72
    23
 73
    19
 74
     0
 42
0.00000001
 43
0.00000001
 40
0.0
 40
0.0
 40
0.0
 40
0.0
 40
0.0703261631873173
 40
0.1382863995190655
 40
0.2037938635975743
 40
0.2678783918372751
 40
0.3302792795408569
 40
0.3902201030009794
 40
0.448767990171035
 40
0.506371847164475
 40
0.5635627838098803
 40
0.6210983022642379
 40
0.6791607941846681
 40
0.7386809229027235
 40
0.8000983477355375
 40
0.8638975637533072
 40
0.9301677760581156
 40
1.0
 40
1.0
 40
1.0
 40
1.0
 10
5.250000000000014
 20
46.27187500000002
 30
0.0
 10
5.252752110004157
 20
46.41733153159206
 30
0.0
 10
5.258163742976935
 20
46.70335111703169
 30
0.0
 10
5.30812697540616
 20
47.12239849810582
 30
0.0
 10
5.38701204122652
 20
47.52359089651461
 30
0.0
 10
5.499449763055301
 20
47.90490857992695
 30
0.0
 10
5.642011125615518
 20
48.263672777292
 30
0.0
 10
5.815050655674776
 20
48.59597094897838
 30
0.0
 10
6.015394071985918
 20
48.90077309453006
 30
0.0
 10
6.244367125306417
 20
49.17749911905346
 30
0.0
 10
6.502333428191934
 20
49.42446425066193
 30
0.0
 10
6.787849783545699
 20
49.64044699824458
 30
0.0
 10
7.099510771481262
 20
49.82623792111063
 30
0.0
 10
7.437330713093025
 20
49.97905389402246
 30
0.0
 10
7.79977265487882
 20
50.10170887651669
 30
0.0
 10
8.186742333318339
 20
50.18830699060773
 30
0.0
 10
8.597512219835062
 20
50.24076940112894
 30
0.0
 10
8.879006691122322
 20
50.24686991375377
 30
0.0
 10
9.023437500000012
 20
50.25000000000001
 30
0.0
  0
SPLINE
  5
D4
330
1F
100
AcDbEntity
  8
0
  6
Continuous
 62
     7
370
    25
100
AcDbSpline
210
0.0
220
0.0
230
1.0
 70
     8
 71
     3
 72
    23
 73
    19
 74
     0
 42
0.00000001
 43
0.00000001
 40
0.0
 40
0.0
 40
0.0
 40
0.0
 40
0.0706307251889701
 40
0.1382724616055896
 40
0.2029956782284625
 40
0.2657656812899847
 40
0.3266699670799531
 40
0.3855133943874713
 40
0.443074862218327
 40
0.5003813793520373
 40
0.5578228203218261
 40
0.615999947829152
 40
0.6755497410754601
 40
0.7371887325001474
 40
0.8006571592265851
 40
0.8654058285984505
 40
0.931631389015643
 40
1.0
 40
1.0
 40
1.0
 40
1.0
 10
9.054687500000012
 20
42.25000000000001
 30
0.0
 10
8.907115001832832
 20
42.2535529284683
 30
0.0
 10
8.61821505733602
 20
42.26050843067933
 30
0.0
 10
8.197067476108728
 20
42.31624458358765
 30
0.0
 10
7.79886116245608
 20
42.40590413923861
 30
0.0
 10
7.42586966395906
 20
42.5341005591572
 30
0.0
 10
7.080698379979905
 20
42.69735304013413
 30
0.0
 10
6.7619000044334
 20
42.8873782175359
 30
0.0
 10
6.475659603980778
 20
43.11185944798751
 30
0.0
 10
6.218300471145001
 20
43.3643890682603
 30
0.0
 10
5.989843114566145
 20
43.64536536326911
 30
0.0
 10
5.795618515829769
 20
43.95618096954612
 30
0.0
 10
5.62432826668415
 20
44.29007109466047
 30
0.0
 10
5.488934819532252
 20
44.65198827301663
 30
0.0
 10
5.381214868224658
 20
45.03408081672028
 30
0.0
 10
5.305295839680563
 20
45.43350060545461
 30
0.0
 10
5.259006756666695
 20
45.84786369228491
 30
0.0
 10
5.253033952508627
 20
46.12904554225724
 30
0.0
 10
5.250000000000013
 20
46.27187500000001
 30
0.0
  0
SPLINE
  5
D6
330
1F
100
AcDbEntity
  8
0
  6
Continuous
 62
     7
370
    25
100
AcDbSpline
210
0.0
220
0.0
230
1.0
 70
     8
 71
     3
 72
    15
 73
    11
 74
     0
 42
0.00000001
 43
0.00000001
 40
0.0
 40
0.0
 40
0.0
 40
0.0
 40
0.124240828281878
 40
0.2395741674140944
 40
0.3492112529738741
 40
0.4615312624092361
 40
0.578701830288582
 40
0.7048654012499935
 40
0.8436535457254418
 40
1.0
 40
1.0
 40
1.0
 40
1.0
 10
13.45
 20
49.39687500000002
 30
0.0
 10
13.45200333063845
 20
49.44511342118693
 30
0.0
 10
13.45586636243242
 20
49.53813179327155
 30
0.0
 10
13.49667311016839
 20
49.66848672622434
 30
0.0
 10
13.56018141689863
 20
49.7837640120929
 30
0.0
 10
13.65150261910556
 20
49.87988387777712
 30
0.0
 10
13.76622072440919
 20
49.95798554965662
 30
0.0
 10
13.9050876789312
 20
50.01177294777121
 30
0.0
 10
14.06564407846451
 20
50.04480554836348
 30
0.0
 10
14.18002966279926
 20
50.04820117790143
 30
0.0
 10
14.240625
 20
50.05000000000001
 30
0.0
  0
SPLINE
  5
D7
330
1F
100
AcDbEntity
  8
0
  6
Continuous
 62
     7
370
    25
100
AcDbSpline
210
0.0
220
0.0
230
1.0
 70
     8
 71
     3
 72
    15
 73
    11
 74
     0
 42
0.00000001
 43
0.00000001
 40
0.0
 40
0.0
 40
0.0
 40
0.0
 40
0.1622719074240395
 40
0.3044553260389214
 40
0.4310506534175542
 40
0.5482806941707593
 40
0.6601655235069589
 40
0.7683402437021966
 40
0.8807126617632771
 40
1.0
 40
1.0
 40
1.0
 40
1.0
 10
14.240625
 20
48.75000000000001
 30
0.0
 10
14.17790561750487
 20
48.75155627947054
 30
0.0
 10
14.06023121316935
 20
48.7544761784298
 30
0.0
 10
13.89690681834933
 20
48.78985228448028
 30
0.0
 10
13.75674042281904
 20
48.84298862555416
 30
0.0
 10
13.64332571053946
 20
48.92292139640289
 30
0.0
 10
13.55653953844333
 20
49.021221203467
 30
0.0
 10
13.49315204958587
 20
49.13386926629051
 30
0.0
 10
13.45707963386993
 20
49.26137560905897
 30
0.0
 10
13.45240637604125
 20
49.3508185945481
 30
0.0
 10
13.45
 20
49.39687500000002
 30
0.0
  0
SPLINE
  5
DA
330
1F
100
AcDbEntity
  8
0
  6
Continuous
 62
     7
370
    25
100
AcDbSpline
210
0.0
220
0.0
230
1.0
 70
     8
 71
     3
 72
    15
 73
    11
 74
     0
 42
0.00000001
 43
0.00000001
 40
0.0
 40
0.0
 40
0.0
 40
0.0
 40
0.1170739408899512
 40
0.2273634513310601
 40
0.3358604885361397
 40
0.4475340090666071
 40
0.5658353424842155
 40
0.6936494833443091
 40
0.8373880369278199
 40
1.0
 40
1.0
 40
1.0
 40
1.0
 10
16.7046875
 20
42.25000000000001
 30
0.0
 10
16.65114268330457
 20
42.25212462299171
 30
0.0
 10
16.54715597001707
 20
42.25625074715304
 30
0.0
 10
16.40056397928725
 20
42.30518176461263
 30
0.0
 10
16.26691443453583
 20
42.37669795150382
 30
0.0
 10
16.15329525368407
 20
42.48311717948479
 30
0.0
 10
16.05862599291763
 20
42.61765802268074
 30
0.0
 10
15.99691244765589
 20
42.78555492630732
 30
0.0
 10
15.95482743513374
 20
42.97968454033135
 30
0.0
 10
15.95167390513663
 20
43.11952315643063
 30
0.0
 10
15.95
 20
43.19375000000002
 30
0.0
  0
SPLINE
  5
DB
330
1F
100
AcDbEntity
  8
0
  6
Continuous
 62
     7
370
    25
100
AcDbSpline
210
0.0
220
0.0
230
1.0
 70
     8
 71
     3
 72
    15
 73
    11
 74
     0
 42
0.00000001
 43
0.00000001
 40
0.0
 40
0.0
 40
0.0
 40
0.0
 40
0.1655964407989117
 40
0.3097132875407088
 40
0.4395619930365692
 40
0.5567688959244209
 40
0.6672951569545862
 40
0.7742509049746183
 40
0.8835718141545691
 40
1.0
 40
1.0
 40
1.0
 40
1.0
 10
17.45
 20
43.19375000000001
 30
0.0
 10
17.44814868280955
 20
43.11853568141976
 30
0.0
 10
17.44468618367268
 20
42.97786312973186
 30
0.0
 10
17.40528816320602
 20
42.78140494232228
 30
0.0
 10
17.34147777248783
 20
42.61449213244649
 30
0.0
 10
17.2485497071638
 20
42.47973794625163
 30
0.0
 10
17.13590426674604
 20
42.37596867390472
 30
0.0
 10
17.00582586098446
 20
42.30272153751174
 30
0.0
 10
16.86031622008579
 20
42.25684000632003
 30
0.0
 10
16.75764124812413
 20
42.2523273594465
 30
0.0
 10
16.7046875
 20
42.25000000000001
 30
0.0
  0
SPLINE
  5
DE
330
1F
100
AcDbEntity
  8
0
  6
Continuous
 62
     7
370
    25
100
AcDbSpline
210
0.0
220
0.0
230
1.0
 70
     8
 71
     3
 72
    15
 73
    11
 74
     0
 42
0.00000001
 43
0.00000001
 40
0.0
 40
0.0
 40
0.0
 40
0.0
 40
0.1184645462930531
 40
0.2304397159424618
 40
0.3385271411479032
 40
0.4505344091696664
 40
0.5680545142844737
 40
0.695021411091814
 40
0.8388473732983406
 40
0.9999999999999999
 40
0.9999999999999999
 40
0.9999999999999999
 40
0.9999999999999999
 10
19.959375
 20
49.39687500000002
 30
0.0
 10
19.95710988928129
 20
49.3507842069847
 30
0.0
 10
19.95270374848279
 20
49.26112743133017
 30
0.0
 10
19.9145203181277
 20
49.13371070223129
 30
0.0
 10
19.8496331409773
 20
49.02112434849587
 30
0.0
 10
19.76124806173635
 20
48.92285560065153
 30
0.0
 10
19.64629099443628
 20
48.84299417626254
 30
0.0
 10
19.50414779052124
 20
48.78961592671013
 30
0.0
 10
19.33918252507343
 20
48.75475788460882
 30
0.0
 10
19.22051642320173
 20
48.75164491365646
 30
0.0
 10
19.1578125
 20
48.75000000000001
 30
0.0
  0
SPLINE
  5
DF
330
1F
100
AcDbEntity
  8
0
  6
Continuous
 62
     7
370
    25
100
AcDbSpline
210
0.0
220
0.0
230
1.0
 70
     8
 71
     3
 72
    15
 73
    11
 74
     0
 42
0.00000001
 43
0.00000001
 40
0.0
 40
0.0
 40
0.0
 40
0.0
 40
0.1630620563492695
 40
0.3062143059784063
 40
0.433085666623928
 40
0.5497351712894444
 40
0.6612177725259604
 40
0.7693107538467208
 40
0.8807614070667532
 40
1.0
 40
1.0
 40
1.0
 40
1.0
 10
19.1578125
 20
50.05000000000001
 30
0.0
 10
19.22155919106456
 20
50.04838674460176
 30
0.0
 10
19.34126912972094
 20
50.04535721159329
 30
0.0
 10
19.50750979196513
 20
50.01065928997915
 30
0.0
 10
19.64951902095724
 20
49.95589916383098
 30
0.0
 10
19.76231806138438
 20
49.87332355297328
 30
0.0
 10
19.85211365450979
 20
49.77610946987834
 30
0.0
 10
19.91372711085612
 20
49.66136563642969
 30
0.0
 10
19.95305823064466
 20
49.53379908378532
 30
0.0
 10
19.95722254853521
 20
49.4435321483191
 30
0.0
 10
19.95937499999999
 20
49.39687500000002
 30
0.0
  0
SPLINE
  5
E0
330
1F
100
AcDbEntity
  8
0
  6
Continuous
 62
     7
370
    25
100
AcDbSpline
210
0.0
220
0.0
230
1.0
 70
     8
 71
     3
 72
    17
 73
    13
 74
     0
 42
0.00000001
 43
0.00000001
 40
0.0
 40
0.0
 40
0.0
 40
0.0
 40
0.0811939239052599
 40
0.156735873268679
 40
0.2288822190511368
 40
0.2987519458206567
 40
0.437996262244568
 40
0.5808282274439664
 40
0.6615771143098186
 40
0.7587225620016017
 40
0.8711386221593609
 40
1.0
 40
1.0
 40
1.0
 40
1.0
 10
35.2328125
 20
42.25000000000001
 30
0.0
 10
35.19048512568208
 20
42.25131571804155
 30
0.0
 10
35.10877681971782
 20
42.25385556593034
 30
0.0
 10
34.99174120726899
 20
42.27859851402292
 30
0.0
 10
34.88398743336449
 20
42.31497958241209
 30
0.0
 10
34.75630979689243
 20
42.38802563456728
 30
0.0
 10
34.61554364890161
 20
42.50757026152063
 30
0.0
 10
34.49627186070773
 20
42.65501649121907
 30
0.0
 10
34.40428130882021
 20
42.79437538426605
 30
0.0
 10
34.324110256975
 20
42.92249117234301
 30
0.0
 10
34.22913211170049
 20
43.0708837327502
 30
0.0
 10
34.16430848308578
 20
43.17847512384424
 30
0.0
 10
34.1296875
 20
43.23593750000001
 30
0.0
  0
SPLINE
  5
E1
330
1F
100
AcDbEntity
  8
0
  6
Continuous
 62
     7
370
    25
100
AcDbSpline
210
0.0
220
0.0
230
1.0
 70
     8
 71
     3
 72
    17
 73
    13
 74
     0
 42
0.00000001
 43
0.00000001
 40
0.0
 40
0.0
 40
0.0
 40
0.0
 40
0.1406975552960067
 40
0.295220797189847
 40
0.3767564478477703
 40
0.4575194754195119
 40
0.5410805361872387
 40
0.626619062156789
 40
0.7146975176568088
 40
0.8048514507654319
 40
0.9001553276350004
 40
0.9999999999999999
 40
0.9999999999999999
 40
0.9999999999999999
 40
0.9999999999999999
 10
35.9875
 20
42.87031250000001
 30
0.0
 10
35.98216706025994
 20
42.8195269224528
 30
0.0
 10
35.97097713788983
 20
42.71296530766362
 30
0.0
 10
35.90612194072619
 20
42.59021467298783
 30
0.0
 10
35.83750382808029
 20
42.49913737306971
 30
0.0
 10
35.77585792337753
 20
42.43497042786014
 30
0.0
 10
35.70339177222516
 20
42.38108496936871
 30
0.0
 10
35.62357043897411
 20
42.33372529786897
 30
0.0
 10
35.5359367673024
 20
42.29606994752083
 30
0.0
 10
35.4407299629191
 20
42.2700371058914
 30
0.0
 10
35.3392473054446
 20
42.25165842315657
 30
0.0
 10
35.26883688123909
 20
42.25056131702217
 30
0.0
 10
35.2328125
 20
42.25000000000001
 30
0.0
  0
SPLINE
  5
E2
330
1F
100
AcDbEntity
  8
0
  6
Continuous
 62
     7
370
    25
100
AcDbSpline
210
0.0
220
0.0
230
1.0
 70
     8
 71
     3
 72
    23
 73
    19
 74
     0
 42
0.00000001
 43
0.00000001
 40
0.0
 40
0.0
 40
0.0
 40
0.0
 40
0.0646961556516941
 40
0.1319187972708148
 40
0.2029702639278554
 40
0.2777605315391684
 40
0.3545394828198533
 40
0.4310151404333173
 40
0.5074009580938769
 40
0.5835154630944466
 40
0.6571324168009884
 40
0.7258868232559359
 40
0.7898770024325947
 40
0.8490169267591765
 40
0.9011454867119976
 40
0.9433440781211606
 40
0.9763194820009077
 40
0.9999999999999999
 40
0.9999999999999999
 40
0.9999999999999999
 40
0.9999999999999999
 10
33.8703125
 20
45.83125000000001
 30
0.0
 10
33.94056362680176
 20
45.79216373973122
 30
0.0
 10
34.08380929667591
 20
45.71246483965699
 30
0.0
 10
34.28539402384959
 20
45.56030976204237
 30
0.0
 10
34.48459172254591
 20
45.38596745105579
 30
0.0
 10
34.67361467331731
 20
45.18393746802072
 30
0.0
 10
34.85727211418792
 20
44.96853652966283
 30
0.0
 10
35.03465423475655
 20
44.74528502359153
 30
0.0
 10
35.2000855957587
 20
44.51401554583487
 30
0.0
 10
35.35255308444334
 20
44.27829619090622
 30
0.0
 10
35.49359477435286
 20
44.04662145667307
 30
0.0
 10
35.61910482173791
 20
43.8232470473724
 30
0.0
 10
35.72670385002322
 20
43.61067994384957
 30
0.0
 10
35.81813609683903
 20
43.41326646520741
 30
0.0
 10
35.89096694791328
 20
43.23707307273362
 30
0.0
 10
35.94285486652772
 20
43.08794652192672
 30
0.0
 10
35.9777152803904
 20
42.96972592091531
 30
0.0
 10
35.9846157891838
 20
42.89961627929261
 30
0.0
 10
35.9875
 20
42.87031250000001
 30
0.0
  0
SPLINE
  5
E3
330
1F
100
AcDbEntity
  8
0
  6
Continuous
 62
     7
370
    25
100
AcDbSpline
210
0.0
220
0.0
230
1.0
 70
     8
 71
     3
 72
    23
 73
    19
 74
     0
 42
0.00000001
 43
0.00000001
 40
0.0
 40
0.0
 40
0.0
 40
0.0
 40
0.0659464370745006
 40
0.1288385829145275
 40
0.1890227607128571
 40
0.2475278068376074
 40
0.3041611961796184
 40
0.3600530396745005
 40
0.4148898749451985
 40
0.4706864358789766
 40
0.5273966452267727
 40
0.5855409168148594
 40
0.6466503230744052
 40
0.7102366278532167
 40
0.7769488072639864
 40
0.8475792490671674
 40
0.9216299770853321
 40
1.0
 40
1.0
 40
1.0
 40
1.0
 10
35.85
 20
47.93281250000001
 30
0.0
 10
35.84860895779083
 20
47.8629473650126
 30
0.0
 10
35.84589129911274
 20
47.72645287969654
 30
0.0
 10
35.82152415384659
 20
47.52743216364611
 30
0.0
 10
35.78441451826667
 20
47.33861401641966
 30
0.0
 10
35.73237549644022
 20
47.1599350625559
 30
0.0
 10
35.66035284817686
 20
46.99338256928616
 30
0.0
 10
35.57679239217833
 20
46.83679979991407
 30
0.0
 10
35.47695632156526
 20
46.69095917148201
 30
0.0
 10
35.36104260136074
 20
46.55640939510682
 30
0.0
 10
35.22865104235707
 20
46.432958878455
 30
0.0
 10
35.08184054778746
 20
46.31786391131325
 30
0.0
 10
34.91960645033057
 20
46.21163257470369
 30
0.0
 10
34.74023597447823
 20
46.11674254385922
 30
0.0
 10
34.54561197422699
 20
46.03021444186445
 30
0.0
 10
34.33452543084488
 20
45.95531404564581
 30
0.0
 10
34.10894676137178
 20
45.88460591306277
 30
0.0
 10
33.95134594956194
 20
45.84936815983652
 30
0.0
 10
33.8703125
 20
45.83125000000001
 30
0.0
  0
SPLINE
  5
E4
330
1F
100
AcDbEntity
  8
0
  6
Continuous
 62
     7
370
    25
100
AcDbSpline
210
0.0
220
0.0
230
1.0
 70
     8
 71
     3
 72
    19
 73
    15
 74
     0
 42
0.00000001
 43
0.00000001
 40
0.0
 40
0.0
 40
0.0
 40
0.0
 40
0.0825917821699606
 40
0.1642255450426335
 40
0.2465938318446984
 40
0.329086934912529
 40
0.4120645108506714
 40
0.4941904263161437
 40
0.5766211448756307
 40
0.6598540648118929
 40
0.7441235173473432
 40
0.8282911644061387
 40
0.9134839720891941
 40
1.0
 40
1.0
 40
1.0
 40
1.0
 10
34.628125
 20
49.81875000000002
 30
0.0
 10
34.68811000744307
 20
49.791823841014
 30
0.0
 10
34.80738422919864
 20
49.73828385169301
 30
0.0
 10
34.97561674030695
 20
49.63653888419686
 30
0.0
 10
35.13360202961439
 20
49.51986957592844
 30
0.0
 10
35.27876555680569
 20
49.38605594605887
 30
0.0
 10
35.41223207751877
 20
49.24067827245452
 30
0.0
 10
35.52598130557342
 20
49.07944021613621
 30
0.0
 10
35.6253158725732
 20
48.90888429130024
 30
0.0
 10
35.70650212930329
 20
48.72695724845004
 30
0.0
 10
35.76975150880945
 20
48.53677271692803
 30
0.0
 10
35.81791480176194
 20
48.34054538850433
 30
0.0
 10
35.84413030333879
 20
48.13821513697967
 30
0.0
 10
35.84803340842831
 20
48.00163089352223
 30
0.0
 10
35.85
 20
47.93281250000001
 30
0.0
  0
SPLINE
  5
E5
330
1F
100
AcDbEntity
  8
0
  6
Continuous
 62
     7
370
    25
100
AcDbSpline
210
0.0
220
0.0
230
1.0
 70
     8
 71
     3
 72
    15
 73
    11
 74
     0
 42
0.00000001
 43
0.00000001
 40
0.0
 40
0.0
 40
0.0
 40
0.0
 40
0.1578912487995381
 40
0.3039390400740294
 40
0.4393445538738185
 40
0.5621574319433249
 40
0.677736769796662
 40
0.7880389662242748
 40
0.8954335524849496
 40
1.0
 40
1.0
 40
1.0
 40
1.0
 10
33.08437500000001
 20
50.05000000000002
 30
0.0
 10
33.16718903954445
 20
50.04924128851498
 30
0.0
 10
33.32660521919443
 20
50.04778077666134
 30
0.0
 10
33.55701691965631
 20
50.04112271277833
 30
0.0
 10
33.76850813479796
 20
50.02486661394059
 30
0.0
 10
33.96355469280891
 20
50.00497796030466
 30
0.0
 10
34.14472184098698
 20
49.97833400945277
 30
0.0
 10
34.31456115055256
 20
49.9363520712071
 30
0.0
 10
34.47637860051135
 20
49.88646906167552
 30
0.0
 10
34.57799481271572
 20
49.8411213330659
 30
0.0
 10
34.628125
 20
49.81875000000002
 30
0.0
  0
SPLINE
  5
E7
330
1F
100
AcDbEntity
  8
0
  6
Continuous
 62
     7
370
    25
100
AcDbSpline
210
0.0
220
0.0
230
1.0
 70
     8
 71
     3
 72
    15
 73
    11
 74
     0
 42
0.00000001
 43
0.00000001
 40
0.0
 40
0.0
 40
0.0
 40
0.0
 40
0.150567393374301
 40
0.2825196804827781
 40
0.3973543704744774
 40
0.5018539184075423
 40
0.6061585588727312
 40
0.7204604116073323
 40
0.8504394402177242
 40
1.0
 40
1.0
 40
1.0
 40
1.0
 10
29.65
 20
49.09843750000002
 30
0.0
 10
29.65228991049699
 20
49.17626770936661
 30
0.0
 10
29.65658662286904
 20
49.3223057418342
 30
0.0
 10
29.69824709732423
 20
49.52434532456212
 30
0.0
 10
29.76598885716438
 20
49.69400392074031
 30
0.0
 10
29.86617733022109
 20
49.83048472183302
 30
0.0
 10
30.00102889986354
 20
49.93234781813237
 30
0.0
 10
30.1685328892865
 20
50.00190879988668
 30
0.0
 10
30.36883204782466
 20
50.04345773744259
 30
0.0
 10
30.51332025372062
 20
50.04771972940469
 30
0.0
 10
30.590625
 20
50.05000000000002
 30
0.0
  0
SPLINE
  5
E9
330
1F
100
AcDbEntity
  8
0
  6
Continuous
 62
     7
370
    25
100
AcDbSpline
210
0.0
220
0.0
230
1.0
 70
     8
 71
     3
 72
    15
 73
    11
 74
     0
 42
0.00000001
 43
0.00000001
 40
0.0
 40
0.0
 40
0.0
 40
0.0
 40
0.1234793912899232
 40
0.2376491799265155
 40
0.3458206538054342
 40
0.4561336400818393
 40
0.5723511778139702
 40
0.6988020282031692
 40
0.8403558882779871
 40
1.0
 40
1.0
 40
1.0
 40
1.0
 10
30.403125
 20
42.25000000000001
 30
0.0
 10
30.34655923328804
 20
42.2528705853981
 30
0.0
 10
30.23769241810063
 20
42.2583953313386
 30
0.0
 10
30.08437843519798
 20
42.30423700505629
 30
0.0
 10
29.95197143295331
 20
42.38184203834241
 30
0.0
 10
29.84016165207433
 20
42.48864212849995
 30
0.0
 10
29.75339742634703
 20
42.62668438556195
 30
0.0
 10
29.69364062624052
 20
42.79294316301091
 30
0.0
 10
29.65587598421084
 20
42.98582150604003
 30
0.0
 10
29.65203554821354
 20
43.12376221630674
 30
0.0
 10
29.65
 20
43.19687500000001
 30
0.0
  0
SPLINE
  5
EA
330
1F
100
AcDbEntity
  8
0
  6
Continuous
 62
     7
370
    25
100
AcDbSpline
210
0.0
220
0.0
230
1.0
 70
     8
 71
     3
 72
    15
 73
    11
 74
     0
 42
0.00000001
 43
0.00000001
 40
0.0
 40
0.0
 40
0.0
 40
0.0
 40
0.1664877746693302
 40
0.3115077802889135
 40
0.4400940730803421
 40
0.5571216504119652
 40
0.6667079260682459
 40
0.7735000327110811
 40
0.8837499482804014
 40
1.0
 40
1.0
 40
1.0
 40
1.0
 10
31.15
 20
43.19375000000001
 30
0.0
 10
31.14809659161405
 20
43.11803671429966
 30
0.0
 10
31.14453520987013
 20
42.97637299386284
 30
0.0
 10
31.10592184999317
 20
42.77908794212907
 30
0.0
 10
31.04093982829749
 20
42.61269798480657
 30
0.0
 10
30.94911469113839
 20
42.47808984064304
 30
0.0
 10
30.83532069861337
 20
42.37611196842057
 30
0.0
 10
30.70549589220902
 20
42.30227927531602
 30
0.0
 10
30.55917728695212
 20
42.25707940296191
 30
0.0
 10
30.45605303916283
 20
42.25240111134887
 30
0.0
 10
30.403125
 20
42.25000000000001
 30
0.0
  0
SPLINE
  5
ED
330
1F
100
AcDbEntity
  8
0
  6
Continuous
 62
     7
370
    25
100
AcDbSpline
210
0.0
220
0.0
230
1.0
 70
     8
 71
     3
 72
    19
 73
    15
 74
     0
 42
0.00000001
 43
0.00000001
 40
0.0
 40
0.0
 40
0.0
 40
0.0
 40
0.1291032775032436
 40
0.2441424522164097
 40
0.3456810547104132
 40
0.4341385680012459
 40
0.5126131326723327
 40
0.5848883023030327
 40
0.651441800881989
 40
0.7134646218462669
 40
0.7760883237832267
 40
0.8440278578261794
 40
0.9186818788617952
 40
1.0
 40
1.0
 40
1.0
 40
1.0
 10
33.5015625
 20
44.26875000000001
 30
0.0
 10
33.4480077622231
 20
44.3581869703992
 30
0.0
 10
33.34673237044746
 20
44.52731793046729
 30
0.0
 10
33.19404127685063
 20
44.76110198035377
 30
0.0
 10
33.04861890219329
 20
44.95999712332544
 30
0.0
 10
32.91193257838138
 20
45.1284260156009
 30
0.0
 10
32.77910958246875
 20
45.26892008045997
 30
0.0
 10
32.64658789476032
 20
45.3845875083835
 30
0.0
 10
32.51089551015135
 20
45.47410641833963
 30
0.0
 10
32.37292842792704
 20
45.54440354681432
 30
0.0
 10
32.22468186011361
 20
45.59300979843155
 30
0.0
 10
32.0622793847046
 20
45.62700181090118
 30
0.0
 10
31.88227767587881
 20
45.64712843864433
 30
0.0
 10
31.75630336073865
 20
45.64901593107566
 30
0.0
 10
31.690625
 20
45.65000000000001
 30
0.0
  0
SPLINE
  5
EF
330
1F
100
AcDbEntity
  8
0
  6
Continuous
 62
     7
370
    25
100
AcDbSpline
210
0.0
220
0.0
230
1.0
 70
     8
 71
     3
 72
    23
 73
    19
 74
     0
 42
0.00000001
 43
0.00000001
 40
0.0
 40
0.0
 40
0.0
 40
0.0
 40
0.0675283682245755
 40
0.132859108274554
 40
0.1955706698773778
 40
0.2573506102485826
 40
0.3171594581372393
 40
0.3764507655614821
 40
0.4351509322729161
 40
0.4939649761380111
 40
0.5528410419776604
 40
0.6123064999585823
 40
0.6727057086624977
 40
0.7340938513807129
 40
0.7971504186507641
 40
0.862713515356172
 40
0.9302298721313034
 40
1.0
 40
1.0
 40
1.0
 40
1.0
 10
43.40625000000001
 20
43.45000000000001
 30
0.0
 10
43.4615147113019
 20
43.45057642623826
 30
0.0
 10
43.57024561145042
 20
43.45171051962765
 30
0.0
 10
43.72933545918329
 20
43.47023587149742
 30
0.0
 10
43.88251873328901
 20
43.49613809329995
 30
0.0
 10
44.02857373039672
 20
43.53396004166034
 30
0.0
 10
44.16933509666691
 20
43.58014377691556
 30
0.0
 10
44.30185181851267
 20
43.64055745041679
 30
0.0
 10
44.42929568966976
 20
43.70911424524884
 30
0.0
 10
44.54989152235475
 20
43.78874381778828
 30
0.0
 10
44.66250213210328
 20
43.88022634406211
 30
0.0
 10
44.76885892979228
 20
43.98063120153855
 30
0.0
 10
44.86985499817626
 20
44.0894716509877
 30
0.0
 10
44.95979176107616
 20
44.21125019171283
 30
0.0
 10
45.04491568779299
 20
44.34136566734406
 30
0.0
 10
45.12260035893375
 20
44.48186861087783
 30
0.0
 10
45.19343465849902
 20
44.63208318701877
 30
0.0
 10
45.23301164690051
 20
44.73720249670484
 30
0.0
 10
45.25312500000001
 20
44.79062500000001
 30
0.0
  0
SPLINE
  5
F0
330
1F
100
AcDbEntity
  8
0
  6
Continuous
 62
     7
370
    25
100
AcDbSpline
210
0.0
220
0.0
230
1.0
 70
     8
 71
     3
 72
    27
 73
    23
 74
     0
 42
0.00000001
 43
0.00000001
 40
0.0
 40
0.0
 40
0.0
 40
0.0
 40
0.0580788002733204
 40
0.1133944030311668
 40
0.1668792636510455
 40
0.2178038659546845
 40
0.2666022684757648
 40
0.3135461110970242
 40
0.3583127389090599
 40
0.4018269048383466
 40
0.4435088694256049
 40
0.4839071498123025
 40
0.522846198511179
 40
0.5605893149773766
 40
0.5975048219717239
 40
0.6340017145129844
 40
0.6697809488642504
 40
0.7053596611536004
 40
0.7764496438805331
 40
0.8480047040901313
 40
0.9220248764072254
 40
1.0
 40
1.0
 40
1.0
 40
1.0
 10
41.35000000000001
 20
46.18593750000001
 30
0.0
 10
41.35114726831041
 20
46.11092819906627
 30
0.0
 10
41.3533872216938
 20
45.96447829202378
 30
0.0
 10
41.36367197901701
 20
45.7491087322847
 30
0.0
 10
41.38396715870839
 20
45.54370466011488
 30
0.0
 10
41.41263306209706
 20
45.34787153445414
 30
0.0
 10
41.44589333023816
 20
45.16129438794793
 30
0.0
 10
41.48975404189835
 20
44.9850356137589
 30
0.0
 10
41.54183495302036
 20
44.81826463630104
 30
0.0
 10
41.60009133345145
 20
44.66065957479669
 30
0.0
 10
41.66889181165732
 20
44.51364884809261
 30
0.0
 10
41.73928819330744
 20
44.37401579123877
 30
0.0
 10
41.81906391478876
 20
44.24521882986831
 30
0.0
 10
41.90793484883255
 20
44.12834955462215
 30
0.0
 10
41.99951303149397
 20
44.01764473585076
 30
0.0
 10
42.0994999493437
 20
43.91784963823675
 30
0.0
 10
42.2064874543669
 20
43.82838392553609
 30
0.0
 10
42.3567317109832
 20
43.72189469959646
 30
0.0
 10
42.56026328075851
 20
43.61206351310651
 30
0.0
 10
42.82462160560791
 20
43.51768081365977
 30
0.0
 10
43.10897163470423
 20
43.4599940992125
 30
0.0
 10
43.30545304826367
 20
43.45338865808472
 30
0.0
 10
43.40625000000001
 20
43.45000000000001
 30
0.0
  0
SPLINE
  5
F1
330
1F
100
AcDbEntity
  8
0
  6
Continuous
 62
     7
370
    25
100
AcDbSpline
210
0.0
220
0.0
230
1.0
 70
     8
 71
     3
 72
    23
 73
    19
 74
     0
 42
0.00000001
 43
0.00000001
 40
0.0
 40
0.0
 40
0.0
 40
0.0
 40
0.058544781845154
 40
0.115013325760622
 40
0.1695873652222774
 40
0.2227305287323973
 40
0.2763137763356257
 40
0.3301178349606409
 40
0.3852791855674072
 40
0.4427905927825497
 40
0.5022665448594976
 40
0.5633164202236725
 40
0.6267462163784993
 40
0.6933337245807782
 40
0.7637888661431924
 40
0.8382793379680404
 40
0.9169238448495465
 40
1.0
 40
1.0
 40
1.0
 40
1.0
 10
43.45937500000002
 20
49.05000000000001
 30
0.0
 10
43.38108795589562
 20
49.04828378162644
 30
0.0
 10
43.22729024715653
 20
49.04491220901734
 30
0.0
 10
43.00328166673796
 20
49.0069982712137
 30
0.0
 10
42.79088662998708
 20
48.95056789223678
 30
0.0
 10
42.59149620121774
 20
48.8673394786336
 30
0.0
 10
42.4034299448074
 20
48.76325119123224
 30
0.0
 10
42.22857153444124
 20
48.63341798872809
 30
0.0
 10
42.06691340077961
 20
48.48006851314864
 30
0.0
 10
41.91682870213805
 20
48.30526620231434
 30
0.0
 10
41.78260192790158
 20
48.10827877817156
 30
0.0
 10
41.66717551224368
 20
47.89090556209731
 30
0.0
 10
41.56774656988141
 20
47.6553633216981
 30
0.0
 10
41.48964593241699
 20
47.39887454203826
 30
0.0
 10
41.42421756073553
 20
47.12367174460807
 30
0.0
 10
41.38262304188493
 20
46.82758157472612
 30
0.0
 10
41.35524956610681
 20
46.51301739665231
 30
0.0
 10
41.35178153365467
 20
46.29693788208682
 30
0.0
 10
41.35000000000001
 20
46.18593750000001
 30
0.0
  0
SPLINE
  5
F2
330
1F
100
AcDbEntity
  8
0
  6
Continuous
 62
     7
370
    25
100
AcDbSpline
210
0.0
220
0.0
230
1.0
 70
     8
 71
     3
 72
    15
 73
    11
 74
     0
 42
0.00000001
 43
0.00000001
 40
0.0
 40
0.0
 40
0.0
 40
0.0
 40
0.1426038761921026
 40
0.2751114779844938
 40
0.3986346369223306
 40
0.5147448217721875
 40
0.6286157956229693
 40
0.7460355073184648
 40
0.8687797769914242
 40
1.0
 40
1.0
 40
1.0
 40
1.0
 10
45.20000000000002
 20
47.88593750000001
 30
0.0
 10
45.14879685183552
 20
47.97826230833874
 30
0.0
 10
45.05001570965945
 20
48.15637538040203
 30
0.0
 10
44.8757895427819
 20
48.39538576876284
 30
0.0
 10
44.68777208070303
 20
48.5973610595673
 30
0.0
 10
44.48507882427167
 20
48.76418576915972
 30
0.0
 10
44.26154355945634
 20
48.89335773476261
 30
0.0
 10
44.01549221404581
 20
48.9864698768987
 30
0.0
 10
43.74441104120593
 20
49.03921966744917
 30
0.0
 10
43.55647774413541
 20
49.0463274824161
 30
0.0
 10
43.45937500000002
 20
49.05000000000001
 30
0.0
  0
SPLINE
  5
F3
330
1F
100
AcDbEntity
  8
0
  6
Continuous
 62
     7
370
    25
100
AcDbSpline
210
0.0
220
0.0
230
1.0
 70
     8
 71
     3
 72
    15
 73
    11
 74
     0
 42
0.00000001
 43
0.00000001
 40
0.0
 40
0.0
 40
0.0
 40
0.0
 40
0.1295037237597645
 40
0.2455238615754675
 40
0.3490269108920983
 40
0.4455105672079264
 40
0.5512694077959228
 40
0.6787841030567835
 40
0.8277766261982891
 40
1.0
 40
1.0
 40
1.0
 40
1.0
 10
45.98593750000002
 20
47.24218750000001
 30
0.0
 10
45.93894403950664
 20
47.24395935916108
 30
0.0
 10
45.84984995360585
 20
47.24731859618352
 30
0.0
 10
45.72501322338379
 20
47.27283603608582
 30
0.0
 10
45.61888630080039
 20
47.31848034563791
 30
0.0
 10
45.52888255013355
 20
47.38514916996612
 30
0.0
 10
45.45159801525759
 20
47.47719065570339
 30
0.0
 10
45.37090133895507
 20
47.58992212289043
 30
0.0
 10
45.28477521744303
 20
47.72825779310886
 30
0.0
 10
45.22958879608584
 20
47.83090310628452
 30
0.0
 10
45.20000000000002
 20
47.88593750000001
 30
0.0
  0
SPLINE
  5
F4
330
1F
100
AcDbEntity
  8
0
  6
Continuous
 62
     7
370
    25
100
AcDbSpline
210
0.0
220
0.0
230
1.0
 70
     8
 71
     3
 72
    15
 73
    11
 74
     0
 42
0.00000001
 43
0.00000001
 40
0.0
 40
0.0
 40
0.0
 40
0.0
 40
0.1256503194285392
 40
0.2477723605403687
 40
0.3724885313240279
 40
0.5024036064223595
 40
0.6315473532479946
 40
0.7537901922995314
 40
0.8743496805714608
 40
1.0
 40
1.0
 40
1.0
 40
1.0
 10
46.63437500000001
 20
47.91875000000001
 30
0.0
 10
46.6317470556661
 20
47.87532719632
 30
0.0
 10
46.62656496003801
 20
47.78970090728222
 30
0.0
 10
46.59178960298425
 20
47.66437048953087
 30
0.0
 10
46.52835746155692
 20
47.54972826626614
 30
0.0
 10
46.44696670044441
 20
47.44435090738178
 30
0.0
 10
46.34823184103168
 20
47.35566468631811
 30
0.0
 10
46.2368110994181
 20
47.29019419938083
 30
0.0
 10
46.11487154951865
 20
47.24840004563346
 30
0.0
 10
46.02950389318207
 20
47.24428669882872
 30
0.0
 10
45.98593750000002
 20
47.24218750000001
 30
0.0
  0
SPLINE
  5
F5
330
1F
100
AcDbEntity
  8
0
  6
Continuous
 62
     7
370
    25
100
AcDbSpline
210
0.0
220
0.0
230
1.0
 70
     8
 71
     3
 72
    31
 73
    27
 74
     0
 42
0.00000001
 43
0.00000001
 40
0.0
 40
0.0
 40
0.0
 40
0.0
 40
0.0535291767394753
 40
0.1057442882473175
 40
0.1568255288716603
 40
0.2068870451353781
 40
0.2560806546834268
 40
0.3043312025503152
 40
0.3525370281729926
 40
0.4000875932065043
 40
0.4468341320090231
 40
0.4920988908020701
 40
0.5358212289171278
 40
0.5783446774840946
 40
0.6201113212633949
 40
0.6605049043184212
 40
0.7001982647284728
 40
0.7393928596745025
 40
0.7773987952850435
 40
0.8133654571959459
 40
0.8478059753456925
 40
0.8805159065790453
 40
0.9120725478861357
 40
0.9421531196326214
 40
0.971400834120958
 40
1.0
 40
1.0
 40
1.0
 40
1.0
 10
43.44843750000001
 20
50.25000000000001
 30
0.0
 10
43.5255488850647
 20
50.24867916112811
 30
0.0
 10
43.67787868025499
 20
50.24606990810187
 30
0.0
 10
43.90330643944247
 20
50.2289613620807
 30
0.0
 10
44.12230394889551
 20
50.1990117204972
 30
0.0
 10
44.33510659577413
 20
50.15836109586098
 30
0.0
 10
44.54157947653831
 20
50.10751406229022
 30
0.0
 10
44.7412789085561
 20
50.04263619125522
 30
0.0
 10
44.93445827177098
 20
49.96660954642326
 30
0.0
 10
45.11996949545592
 20
49.8784518147079
 30
0.0
 10
45.29755630057026
 20
49.78401202835281
 30
0.0
 10
45.46453205830641
 20
49.68210789474729
 30
0.0
 10
45.62171759717194
 20
49.5761638402298
 30
0.0
 10
45.76735526060703
 20
49.46287009506246
 30
0.0
 10
45.90322662148433
 20
49.34518287727438
 30
0.0
 10
46.02684359628849
 20
49.22041418838575
 30
0.0
 10
46.14204657238827
 20
49.0927333528726
 30
0.0
 10
46.24380392301531
 20
48.95839318968765
 30
0.0
 10
46.33612584057266
 20
48.82391637061097
 30
0.0
 10
46.41428716266394
 20
48.68853414945034
 30
0.0
 10
46.48119416663658
 20
48.5558880156284
 30
0.0
 10
46.53927706082364
 20
48.42591483926964
 30
0.0
 10
46.58087790887389
 20
48.29624946583237
 30
0.0
 10
46.6105943386218
 20
48.16869370770137
 30
0.0
 10
46.63074407964981
 20
48.04334410288213
 30
0.0
 10
46.63317377336331
 20
47.95996978471658
 30
0.0
 10
46.63437500000001
 20
47.91875000000001
 30
0.0
  0
SPLINE
  5
F6
330
1F
100
AcDbEntity
  8
0
  6
Continuous
 62
     7
370
    25
100
AcDbSpline
210
0.0
220
0.0
230
1.0
 70
     8
 71
     3
 72
    23
 73
    19
 74
     0
 42
0.00000001
 43
0.00000001
 40
0.0
 40
0.0
 40
0.0
 40
0.0
 40
0.0745054318009344
 40
0.1453904581411389
 40
0.2131166690596774
 40
0.2786173214406147
 40
0.3418125552015219
 40
0.4034430196498328
 40
0.4635007375504978
 40
0.5233101250713829
 40
0.5824578413357857
 40
0.6410549772224015
 40
0.6994069726951222
 40
0.7585241143261504
 40
0.8182324746855674
 40
0.8778905278910341
 40
0.9384429176581931
 40
1.0
 40
1.0
 40
1.0
 40
1.0
 10
39.75000000000001
 20
46.21562500000001
 30
0.0
 10
39.7530719260093
 20
46.36839294941272
 30
0.0
 10
39.7590665054523
 20
46.66650547111102
 30
0.0
 10
39.81235038117946
 20
47.10074301696332
 30
0.0
 10
39.89496987971954
 20
47.51140032806155
 30
0.0
 10
40.01586357410475
 20
47.89622875332341
 30
0.0
 10
40.16814529024559
 20
48.25593765017891
 30
0.0
 10
40.34844876938641
 20
48.59007485886137
 30
0.0
 10
40.56189367023905
 20
48.89567853948883
 30
0.0
 10
40.80217495136127
 20
49.17384571415611
 30
0.0
 10
41.06853873352064
 20
49.42281073592459
 30
0.0
 10
41.35685465370843
 20
49.64108962258605
 30
0.0
 10
41.66719770626067
 20
49.82661210559282
 30
0.0
 10
41.99723176854084
 20
49.97972714465154
 30
0.0
 10
42.34369876302618
 20
50.09890273579845
 30
0.0
 10
42.70208477043721
 20
50.18779398057978
 30
0.0
 10
43.07188385996361
 20
50.24013572607726
 30
0.0
 10
43.32223301222518
 20
50.24669392217914
 30
0.0
 10
43.44843750000001
 20
50.25000000000001
 30
0.0
  0
SPLINE
  5
F7
330
1F
100
AcDbEntity
  8
0
  6
Continuous
 62
     7
370
    25
100
AcDbSpline
210
0.0
220
0.0
230
1.0
 70
     8
 71
     3
 72
    19
 73
    15
 74
     0
 42
0.00000001
 43
0.00000001
 40
0.0
 40
0.0
 40
0.0
 40
0.0
 40
0.0774646129044067
 40
0.1552672690684984
 40
0.2342858169677947
 40
0.3144702126137997
 40
0.3958660732208596
 40
0.4780817633644779
 40
0.560751105302186
 40
0.6451461202682218
 40
0.7311703462669561
 40
0.8184237611082681
 40
0.908332122232966
 40
1.0
 40
1.0
 40
1.0
 40
1.0
 10
40.71250000000001
 20
43.33281250000001
 30
0.0
 10
40.66228586376447
 20
43.39526535576866
 30
0.0
 10
40.56163846478312
 20
43.52044360164327
 30
0.0
 10
40.42313589456786
 20
43.71965682121208
 30
0.0
 10
40.29965164756735
 20
43.93155666541467
 30
0.0
 10
40.1822912671208
 20
44.1511822269703
 30
0.0
 10
40.08209063401102
 20
44.38283150275665
 30
0.0
 10
39.99271268324818
 20
44.62146404961287
 30
0.0
 10
39.91705411328289
 20
44.86817439914666
 30
0.0
 10
39.85715828486657
 20
45.12311462677946
 30
0.0
 10
39.80746713927908
 20
45.3851478523083
 30
0.0
 10
39.77663839358231
 20
45.65572813489066
 30
0.0
 10
39.75250297065622
 20
45.93290137890428
 30
0.0
 10
39.75083969605998
 20
46.12077694011361
 30
0.0
 10
39.75000000000001
 20
46.21562500000001
 30
0.0
  0
SPLINE
  5
F8
330
1F
100
AcDbEntity
  8
0
  6
Continuous
 62
     7
370
    25
100
AcDbSpline
210
0.0
220
0.0
230
1.0
 70
     8
 71
     3
 72
    19
 73
    15
 74
     0
 42
0.00000001
 43
0.00000001
 40
0.0
 40
0.0
 40
0.0
 40
0.0
 40
0.0968665172840128
 40
0.1894210298760936
 40
0.2783489770852058
 40
0.3634748984423204
 40
0.4452599082687834
 40
0.5255922844982607
 40
0.6037559420901908
 40
0.6810962619012682
 40
0.7581735243009312
 40
0.8370705142261282
 40
0.9171592933343652
 40
1.0
 40
1.0
 40
1.0
 40
1.0
 10
43.49062500000001
 20
42.25000000000001
 30
0.0
 10
43.3910958504618
 20
42.25083628958244
 30
0.0
 10
43.1964680829233
 20
42.25247164138845
 30
0.0
 10
42.91131053192384
 20
42.27589671503548
 30
0.0
 10
42.63940778985365
 20
42.30919577200898
 30
0.0
 10
42.38078150451199
 20
42.3570814213799
 30
0.0
 10
42.13494935892859
 20
42.42175704494337
 30
0.0
 10
41.9011062944853
 20
42.50128458391624
 30
0.0
 10
41.6774060917513
 20
42.59489393914648
 30
0.0
 10
41.46567245429652
 20
42.70625379278673
 30
0.0
 10
41.26383905025272
 20
42.83600576310917
 30
0.0
 10
41.07062430144126
 20
42.98281901457168
 30
0.0
 10
40.88404297185038
 20
43.14740522986333
 30
0.0
 10
40.77032125517565
 20
43.2703180651517
 30
0.0
 10
40.71250000000002
 20
43.33281250000002
 30
0.0
  0
SPLINE
  5
F9
330
1F
100
AcDbEntity
  8
0
  6
Continuous
 62
     7
370
    25
100
AcDbSpline
210
0.0
220
0.0
230
1.0
 70
     8
 71
     3
 72
    23
 73
    19
 74
     0
 42
0.00000001
 43
0.00000001
 40
0.0
 40
0.0
 40
0.0
 40
0.0
 40
0.0414833449479702
 40
0.0856516790845866
 40
0.1322587310008425
 40
0.1821536815803529
 40
0.2347601123108827
 40
0.2896125874664
 40
0.3477980170083676
 40
0.4091809552791668
 40
0.4729520013813718
 40
0.5380973728275814
 40
0.6066114507805181
 40
0.6779034903598522
 40
0.7525310070413965
 40
0.8304429296926324
 40
0.9129309320544007
 40
1.0
 40
1.0
 40
1.0
 40
1.0
 10
46.65468750000002
 20
44.80156250000001
 30
0.0
 10
46.65256516658098
 20
44.73943403877973
 30
0.0
 10
46.64818313275162
 20
44.61115588210905
 30
0.0
 10
46.61132980424929
 20
44.41602397204038
 30
0.0
 10
46.55488930013168
 20
44.21300142171638
 30
0.0
 10
46.47463748786888
 20
44.00444678046371
 30
0.0
 10
46.3727186138166
 20
43.7917176234246
 30
0.0
 10
46.24059699320861
 20
43.58142200665845
 30
0.0
 10
46.08423821573026
 20
43.37208458906813
 30
0.0
 10
45.90221005599077
 20
43.1663065280248
 30
0.0
 10
45.69419122535414
 20
42.97097234232589
 30
0.0
 10
45.45643456822943
 20
42.7944758747418
 30
0.0
 10
45.1923292446216
 20
42.63755995759897
 30
0.0
 10
44.90221671588527
 20
42.49933348118473
 30
0.0
 10
44.58626823095655
 20
42.38567896133867
 30
0.0
 10
44.24265979427122
 20
42.30755949300139
 30
0.0
 10
43.87489504708454
 20
42.25788230692951
 30
0.0
 10
43.62100156673181
 20
42.25267433832846
 30
0.0
 10
43.49062500000001
 20
42.25000000000001
 30
0.0
  0
SPLINE
  5
FA
330
1F
100
AcDbEntity
  8
0
  6
Continuous
 62
     7
370
    25
100
AcDbSpline
210
0.0
220
0.0
230
1.0
 70
     8
 71
     3
 72
    15
 73
    11
 74
     0
 42
0.00000001
 43
0.00000001
 40
0.0
 40
0.0
 40
0.0
 40
0.0
 40
0.1250062996713749
 40
0.2458894367456507
 40
0.366954385623907
 40
0.4933355668018049
 40
0.6197167479796987
 40
0.742738359492537
 40
0.8677865443383774
 40
1.0
 40
1.0
 40
1.0
 40
1.0
 10
45.97500000000002
 20
45.49375000000001
 30
0.0
 10
46.02009587258271
 20
45.49150865376748
 30
0.0
 10
46.10880019178955
 20
45.48709988905626
 30
0.0
 10
46.23590895310731
 20
45.44716917187965
 30
0.0
 10
46.35452313127541
 20
45.38611618091819
 30
0.0
 10
46.45716614477472
 20
45.29774005376683
 30
0.0
 10
46.54560631581461
 20
45.19446509393563
 30
0.0
 10
46.60912000033469
 20
45.07450201537833
 30
0.0
 10
46.64813648347586
 20
44.94198800014117
 30
0.0
 10
46.65246365426179
 20
44.8492321477369
 30
0.0
 10
46.65468750000002
 20
44.80156250000001
 30
0.0
  0
SPLINE
  5
FB
330
1F
100
AcDbEntity
  8
0
  6
Continuous
 62
     7
370
    25
100
AcDbSpline
210
0.0
220
0.0
230
1.0
 70
     8
 71
     3
 72
    15
 73
    11
 74
     0
 42
0.00000001
 43
0.00000001
 40
0.0
 40
0.0
 40
0.0
 40
0.0
 40
0.1435331064915466
 40
0.2772797827564191
 40
0.4001195365232348
 40
0.5149298077171459
 40
0.6255755108528683
 40
0.739029445867305
 40
0.8615475534815704
 40
1.0
 40
1.0
 40
1.0
 40
1.0
 10
45.25312500000001
 20
44.79062500000001
 30
0.0
 10
45.27008254465238
 20
44.84038588633831
 30
0.0
 10
45.3028414280363
 20
44.93651484286207
 30
0.0
 10
45.36224256128231
 20
45.07067922385821
 30
0.0
 10
45.42677268404729
 20
45.19042366368387
 30
0.0
 10
45.4956251452811
 20
45.29819450513947
 30
0.0
 10
45.58320983899042
 20
45.3879425374293
 30
0.0
 10
45.6946978158179
 20
45.45190070096022
 30
0.0
 10
45.82863579498156
 20
45.48724795287004
 30
0.0
 10
45.92426561005628
 20
45.49149618804864
 30
0.0
 10
45.97500000000002
 20
45.49375000000001
 30
0.0
  0
SPLINE
  5
FD
330
1F
100
AcDbEntity
  8
0
  6
Continuous
 62
     7
370
    25
100
AcDbSpline
210
0.0
220
0.0
230
1.0
 70
     8
 71
     3
 72
    15
 73
    11
 74
     0
 42
0.00000001
 43
0.00000001
 40
0.0
 40
0.0
 40
0.0
 40
0.0
 40
0.1242408282818782
 40
0.2395741674140945
 40
0.3492112529738744
 40
0.4615312624092377
 40
0.5787018302885851
 40
0.7048654012499928
 40
0.8436535457254415
 40
1.0
 40
1.0
 40
1.0
 40
1.0
 10
47.35000000000001
 20
49.39687500000002
 30
0.0
 10
47.35200333063847
 20
49.44511342118693
 30
0.0
 10
47.35586636243242
 20
49.53813179327156
 30
0.0
 10
47.39667311016839
 20
49.66848672622432
 30
0.0
 10
47.46018141689862
 20
49.7837640120929
 30
0.0
 10
47.55150261910558
 20
49.87988387777712
 30
0.0
 10
47.66622072440919
 20
49.9579855496566
 30
0.0
 10
47.80508767893122
 20
50.01177294777122
 30
0.0
 10
47.96564407846451
 20
50.04480554836346
 30
0.0
 10
48.08002966279926
 20
50.04820117790143
 30
0.0
 10
48.14062500000001
 20
50.05000000000001
 30
0.0
  0
SPLINE
  5
FE
330
1F
100
AcDbEntity
  8
0
  6
Continuous
 62
     7
370
    25
100
AcDbSpline
210
0.0
220
0.0
230
1.0
 70
     8
 71
     3
 72
    15
 73
    11
 74
     0
 42
0.00000001
 43
0.00000001
 40
0.0
 40
0.0
 40
0.0
 40
0.0
 40
0.1622719074240397
 40
0.3044553260389204
 40
0.4310506534175562
 40
0.5482806941707602
 40
0.66016552350696
 40
0.7683402437021963
 40
0.880712661763277
 40
1.0
 40
1.0
 40
1.0
 40
1.0
 10
48.14062500000001
 20
48.75000000000001
 30
0.0
 10
48.07790561750488
 20
48.75155627947054
 30
0.0
 10
47.96023121316938
 20
48.75447617842981
 30
0.0
 10
47.79690681834933
 20
48.78985228448024
 30
0.0
 10
47.65674042281908
 20
48.84298862555418
 30
0.0
 10
47.54332571053946
 20
48.92292139640288
 30
0.0
 10
47.45653953844334
 20
49.02122120346698
 30
0.0
 10
47.39315204958589
 20
49.13386926629052
 30
0.0
 10
47.35707963386993
 20
49.26137560905896
 30
0.0
 10
47.35240637604125
 20
49.35081859454809
 30
0.0
 10
47.35000000000002
 20
49.39687500000002
 30
0.0
  0
SPLINE
  5
101
330
1F
100
AcDbEntity
  8
0
  6
Continuous
 62
     7
370
    25
100
AcDbSpline
210
0.0
220
0.0
230
1.0
 70
     8
 71
     3
 72
    15
 73
    11
 74
     0
 42
0.00000001
 43
0.00000001
 40
0.0
 40
0.0
 40
0.0
 40
0.0
 40
0.1170739408899535
 40
0.2273634513310598
 40
0.3358604885361414
 40
0.4475340090666068
 40
0.565835342484215
 40
0.6936494833443093
 40
0.8373880369278204
 40
1.0
 40
1.0
 40
1.0
 40
1.0
 10
50.60468750000001
 20
42.25000000000001
 30
0.0
 10
50.55114268330458
 20
42.2521246229917
 30
0.0
 10
50.44715597001707
 20
42.25625074715304
 30
0.0
 10
50.3005639792873
 20
42.30518176461265
 30
0.0
 10
50.16691443453585
 20
42.37669795150382
 30
0.0
 10
50.05329525368408
 20
42.4831171794848
 30
0.0
 10
49.95862599291765
 20
42.61765802268074
 30
0.0
 10
49.8969124476559
 20
42.78555492630733
 30
0.0
 10
49.85482743513375
 20
42.97968454033134
 30
0.0
 10
49.85167390513663
 20
43.11952315643063
 30
0.0
 10
49.85000000000002
 20
43.19375000000002
 30
0.0
  0
SPLINE
  5
102
330
1F
100
AcDbEntity
  8
0
  6
Continuous
 62
     7
370
    25
100
AcDbSpline
210
0.0
220
0.0
230
1.0
 70
     8
 71
     3
 72
    15
 73
    11
 74
     0
 42
0.00000001
 43
0.00000001
 40
0.0
 40
0.0
 40
0.0
 40
0.0
 40
0.1655964407989117
 40
0.3097132875407089
 40
0.4395619930365695
 40
0.5567688959244227
 40
0.6672951569545881
 40
0.7742509049746181
 40
0.883571814154569
 40
0.9999999999999999
 40
0.9999999999999999
 40
0.9999999999999999
 40
0.9999999999999999
 10
51.35000000000001
 20
43.19375000000001
 30
0.0
 10
51.34814868280956
 20
43.11853568141977
 30
0.0
 10
51.3446861836727
 20
42.97786312973186
 30
0.0
 10
51.30528816320604
 20
42.78140494232229
 30
0.0
 10
51.24147777248785
 20
42.61449213244649
 30
0.0
 10
51.14854970716381
 20
42.47973794625163
 30
0.0
 10
51.03590426674606
 20
42.37596867390472
 30
0.0
 10
50.90582586098448
 20
42.30272153751176
 30
0.0
 10
50.76031622008583
 20
42.25684000632004
 30
0.0
 10
50.65764124812414
 20
42.2523273594465
 30
0.0
 10
50.60468750000001
 20
42.25000000000001
 30
0.0
  0
SPLINE
  5
105
330
1F
100
AcDbEntity
  8
0
  6
Continuous
 62
     7
370
    25
100
AcDbSpline
210
0.0
220
0.0
230
1.0
 70
     8
 71
     3
 72
    15
 73
    11
 74
     0
 42
0.00000001
 43
0.00000001
 40
0.0
 40
0.0
 40
0.0
 40
0.0
 40
0.1184645462930532
 40
0.230439715942463
 40
0.3385271411479045
 40
0.4505344091696658
 40
0.5680545142844733
 40
0.6950214110918137
 40
0.8388473732983405
 40
1.0
 40
1.0
 40
1.0
 40
1.0
 10
53.85937500000001
 20
49.39687500000002
 30
0.0
 10
53.8571098892813
 20
49.35078420698469
 30
0.0
 10
53.8527037484828
 20
49.26112743133016
 30
0.0
 10
53.81452031812773
 20
49.13371070223132
 30
0.0
 10
53.74963314097731
 20
49.02112434849587
 30
0.0
 10
53.66124806173637
 20
48.92285560065152
 30
0.0
 10
53.54629099443628
 20
48.84299417626254
 30
0.0
 10
53.40414779052127
 20
48.78961592671012
 30
0.0
 10
53.23918252507343
 20
48.75475788460882
 30
0.0
 10
53.12051642320174
 20
48.75164491365646
 30
0.0
 10
53.05781250000002
 20
48.75000000000002
 30
0.0
  0
SPLINE
  5
106
330
1F
100
AcDbEntity
  8
0
  6
Continuous
 62
     7
370
    25
100
AcDbSpline
210
0.0
220
0.0
230
1.0
 70
     8
 71
     3
 72
    15
 73
    11
 74
     0
 42
0.00000001
 43
0.00000001
 40
0.0
 40
0.0
 40
0.0
 40
0.0
 40
0.1630620563492696
 40
0.3062143059784067
 40
0.4330856666239285
 40
0.5497351712894426
 40
0.6612177725259607
 40
0.7693107538467198
 40
0.8807614070667533
 40
1.0
 40
1.0
 40
1.0
 40
1.0
 10
53.05781250000001
 20
50.05000000000001
 30
0.0
 10
53.12155919106457
 20
50.04838674460176
 30
0.0
 10
53.24126912972095
 20
50.04535721159326
 30
0.0
 10
53.40750979196515
 20
50.01065928997917
 30
0.0
 10
53.54951902095726
 20
49.95589916383096
 30
0.0
 10
53.66231806138438
 20
49.87332355297328
 30
0.0
 10
53.75211365450981
 20
49.77610946987833
 30
0.0
 10
53.81372711085613
 20
49.66136563642969
 30
0.0
 10
53.85305823064468
 20
49.53379908378532
 30
0.0
 10
53.85722254853521
 20
49.44353214831909
 30
0.0
 10
53.85937500000001
 20
49.39687500000002
 30
0.0
  0
SPLINE
  5
107
330
1F
100
AcDbEntity
  8
0
  6
Continuous
 62
     7
370
    25
100
AcDbSpline
210
0.0
220
0.0
230
1.0
 70
     8
 71
     3
 72
    27
 73
    23
 74
     0
 42
0.00000001
 43
0.00000001
 40
0.0
 40
0.0
 40
0.0
 40
0.0
 40
0.073428424736986
 40
0.1446789210415059
 40
0.2158037652396748
 40
0.2877691094403509
 40
0.324116548569282
 40
0.3611157726754072
 40
0.398418489786906
 40
0.4362891591329415
 40
0.4752265408806639
 40
0.5151250132662557
 40
0.5564868603628849
 40
0.5994898850081204
 40
0.6437827782499851
 40
0.6893999353556842
 40
0.7364304153587435
 40
0.7852566237692877
 40
0.835932136617439
 40
0.888597729671763
 40
0.9429919022028721
 40
1.0
 40
1.0
 40
1.0
 40
1.0
 10
24.4453125
 20
43.45000000000001
 30
0.0
 10
24.54405619404651
 20
43.45330721715667
 30
0.0
 10
24.73861478856184
 20
43.45982355754651
 30
0.0
 10
25.02350001920433
 20
43.52066624352817
 30
0.0
 10
25.2956883362944
 20
43.61632725779207
 30
0.0
 10
25.51120246974547
 20
43.7264725211078
 30
0.0
 10
25.67363013427701
 20
43.83497240981074
 30
0.0
 10
25.79100612584607
 20
43.92650897972276
 30
0.0
 10
25.90012452649944
 20
44.0306732210467
 30
0.0
 10
26.0041342590025
 20
44.1434441734296
 30
0.0
 10
26.10051290869396
 20
44.26728080402644
 30
0.0
 10
26.19176377458505
 20
44.40061263806842
 30
0.0
 10
26.27601343625454
 20
44.54486508051512
 30
0.0
 10
26.35395901532389
 20
44.69923161601842
 30
0.0
 10
26.4243492481126
 20
44.86343142391609
 30
0.0
 10
26.48574581510211
 20
45.03702843878204
 30
0.0
 10
26.53468990160047
 20
45.22078581664068
 30
0.0
 10
26.577406970117
 20
45.4129970023935
 30
0.0
 10
26.60990389712852
 20
45.61492629569518
 30
0.0
 10
26.63301241021616
 20
45.8256064746767
 30
0.0
 10
26.64749138471455
 20
46.0456302276891
 30
0.0
 10
26.64915081602683
 20
46.19528954834665
 30
0.0
 10
26.65
 20
46.27187500000001
 30
0.0
  0
SPLINE
  5
108
330
1F
100
AcDbEntity
  8
0
  6
Continuous
 62
     7
370
    25
100
AcDbSpline
210
0.0
220
0.0
230
1.0
 70
     8
 71
     3
 72
    23
 73
    19
 74
     0
 42
0.00000001
 43
0.00000001
 40
0.0
 40
0.0
 40
0.0
 40
0.0
 40
0.0812731202458116
 40
0.159003827479239
 40
0.2335696999225113
 40
0.3053982425301929
 40
0.3738677277977546
 40
0.4385529267906493
 40
0.5002110321123362
 40
0.5592869096176336
 40
0.6164724389176618
 40
0.6713159867737541
 40
0.7255404865601737
 40
0.7790838068599724
 40
0.8327145080675424
 40
0.8870155578346628
 40
0.9428039062200554
 40
1.0
 40
1.0
 40
1.0
 40
1.0
 10
22.25
 20
46.27187500000001
 30
0.0
 10
22.25211848385008
 20
46.16294333224745
 30
0.0
 10
22.25626311419767
 20
45.9498279497696
 30
0.0
 10
22.28811400764158
 20
45.63807798326569
 30
0.0
 10
22.33925130765041
 20
45.34187819805128
 30
0.0
 10
22.41019258339742
 20
45.06245450122169
 30
0.0
 10
22.50197048143795
 20
44.80306448326707
 30
0.0
 10
22.61214477865697
 20
44.56608493676611
 30
0.0
 10
22.73565508669338
 20
44.34982551323854
 30
0.0
 10
22.88136108915428
 20
44.16031624726395
 30
0.0
 10
23.03874791157059
 20
43.99308355619852
 30
0.0
 10
23.20789227818966
 20
43.84742497663696
 30
0.0
 10
23.38757366999754
 20
43.72333921364669
 30
0.0
 10
23.57951271718037
 20
43.62232146325574
 30
0.0
 10
23.78265717288616
 20
43.54652663194406
 30
0.0
 10
23.99476139652085
 20
43.48908393497662
 30
0.0
 10
24.21720235405945
 20
43.45627429114545
 30
0.0
 10
24.36864680361526
 20
43.45210873084143
 30
0.0
 10
24.4453125
 20
43.45000000000001
 30
0.0
  0
SPLINE
  5
109
330
1F
100
AcDbEntity
  8
0
  6
Continuous
 62
     7
370
    25
100
AcDbSpline
210
0.0
220
0.0
230
1.0
 70
     8
 71
     3
 72
    23
 73
    19
 74
     0
 42
0.00000001
 43
0.00000001
 40
0.0
 40
0.0
 40
0.0
 40
0.0
 40
0.0579313856614939
 40
0.1144958576654885
 40
0.1698754281335327
 40
0.2247038324623969
 40
0.2792843835168063
 40
0.3334374040890253
 40
0.3884308929637049
 40
0.4438566124991248
 40
0.5012505397875007
 40
0.5619446762805104
 40
0.6260592850114933
 40
0.694164421035309
 40
0.7657731969049308
 40
0.8405222265136408
 40
0.9184689070399159
 40
1.0
 40
1.0
 40
1.0
 40
1.0
 10
24.4234375
 20
49.05000000000001
 30
0.0
 10
24.34673795892435
 20
49.04809208235901
 30
0.0
 10
24.19514863238348
 20
49.04432126513848
 30
0.0
 10
23.97262097042484
 20
49.00851018978602
 30
0.0
 10
23.75886211368757
 20
48.95250550330999
 30
0.0
 10
23.55486658703108
 20
48.87417389384805
 30
0.0
 10
23.36245113621112
 20
48.77414041152548
 30
0.0
 10
23.18247655006871
 20
48.65269305267054
 30
0.0
 10
23.01711305832197
 20
48.51030460951331
 30
0.0
 10
22.86543505266213
 20
48.34755166338856
 30
0.0
 10
22.72834895905467
 20
48.16279424794699
 30
0.0
 10
22.60672806960682
 20
47.95411586333456
 30
0.0
 10
22.50076006397707
 20
47.72151370335756
 30
0.0
 10
22.41041827327539
 20
47.46706322505337
 30
0.0
 10
22.33896675596373
 20
47.19207285595465
 30
0.0
 10
22.288161108328
 20
46.8994257317712
 30
0.0
 10
22.25624507570527
 20
46.59080753040003
 30
0.0
 10
22.25211265193425
 20
46.37976695504481
 30
0.0
 10
22.25
 20
46.27187500000001
 30
0.0
  0
SPLINE
  5
10A
330
1F
100
AcDbEntity
  8
0
  6
Continuous
 62
     7
370
    25
100
AcDbSpline
210
0.0
220
0.0
230
1.0
 70
     8
 71
     3
 72
    23
 73
    19
 74
     0
 42
0.00000001
 43
0.00000001
 40
0.0
 40
0.0
 40
0.0
 40
0.0
 40
0.1039854976187572
 40
0.2013400224768891
 40
0.2933629942762367
 40
0.3811311418691398
 40
0.4232578053788825
 40
0.4645311362591816
 40
0.5042546773355419
 40
0.5430935420420892
 40
0.5814202493590528
 40
0.6188454488767641
 40
0.6564643535461605
 40
0.693921906819227
 40
0.7686123191584545
 40
0.8434485559677761
 40
0.9200683814454524
 40
1.0
 40
1.0
 40
1.0
 40
1.0
 10
26.65
 20
46.27187500000001
 30
0.0
 10
26.64694446194733
 20
46.4111098898305
 30
0.0
 10
26.64102823214325
 20
46.68070090482778
 30
0.0
 10
26.58859404249837
 20
47.07068415394922
 30
0.0
 10
26.50366684881302
 20
47.43241283832424
 30
0.0
 10
26.40244422942941
 20
47.71250003533554
 30
0.0
 10
26.30524547555058
 20
47.92011387144235
 30
0.0
 10
26.2258634418496
 20
48.064613718638
 30
0.0
 10
26.14047174033781
 20
48.20065344375422
 30
0.0
 10
26.04355404455838
 20
48.32370070203288
 30
0.0
 10
25.94302069422713
 20
48.43962526755158
 30
0.0
 10
25.83417539525748
 20
48.54569352111388
 30
0.0
 10
25.71682853735213
 20
48.64032613848325
 30
0.0
 10
25.55238632562368
 20
48.75518673045175
 30
0.0
 10
25.33093771750697
 20
48.87420248520484
 30
0.0
 10
25.04501249202344
 20
48.97618650700063
 30
0.0
 10
24.740226844123
 20
49.03903310484128
 30
0.0
 10
24.53051275832761
 20
49.04629317351117
 30
0.0
 10
24.4234375
 20
49.05000000000001
 30
0.0
  0
SPLINE
  5
10B
330
1F
100
AcDbEntity
  8
0
  6
Continuous
 62
     7
370
    25
100
AcDbSpline
210
0.0
220
0.0
230
1.0
 70
     8
 71
     3
 72
    27
 73
    23
 74
     0
 42
0.00000001
 43
0.00000001
 40
0.0
 40
0.0
 40
0.0
 40
0.0
 40
0.0734284247369852
 40
0.1446789210415051
 40
0.2158037652396748
 40
0.2877691094403509
 40
0.3241165485692821
 40
0.3611157726754069
 40
0.398418489786906
 40
0.4362891591329409
 40
0.4752265408806636
 40
0.5151250132662554
 40
0.5564868603628849
 40
0.5994898850081203
 40
0.6437827782499852
 40
0.6893999353556841
 40
0.7364304153587433
 40
0.7852566237692877
 40
0.8359321366174389
 40
0.8885977296717628
 40
0.942991902202872
 40
1.0
 40
1.0
 40
1.0
 40
1.0
 10
9.045312500000014
 20
43.45000000000001
 30
0.0
 10
9.14405619404653
 20
43.45330721715667
 30
0.0
 10
9.338614788561864
 20
43.45982355754653
 30
0.0
 10
9.623500019204347
 20
43.52066624352819
 30
0.0
 10
9.895688336294414
 20
43.61632725779207
 30
0.0
 10
10.1112024697455
 20
43.72647252110782
 30
0.0
 10
10.27363013427702
 20
43.83497240981072
 30
0.0
 10
10.3910061258461
 20
43.92650897972279
 30
0.0
 10
10.50012452649945
 20
44.03067322104668
 30
0.0
 10
10.60413425900252
 20
44.14344417342963
 30
0.0
 10
10.70051290869396
 20
44.26728080402641
 30
0.0
 10
10.79176377458507
 20
44.40061263806844
 30
0.0
 10
10.87601343625456
 20
44.54486508051512
 30
0.0
 10
10.95395901532391
 20
44.69923161601842
 30
0.0
 10
11.02434924811262
 20
44.86343142391608
 30
0.0
 10
11.08574581510212
 20
45.03702843878204
 30
0.0
 10
11.13468990160048
 20
45.22078581664069
 30
0.0
 10
11.17740697011702
 20
45.4129970023935
 30
0.0
 10
11.20990389712854
 20
45.61492629569518
 30
0.0
 10
11.23301241021617
 20
45.82560647467668
 30
0.0
 10
11.24749138471456
 20
46.0456302276891
 30
0.0
 10
11.24915081602684
 20
46.19528954834665
 30
0.0
 10
11.25000000000002
 20
46.27187500000002
 30
0.0
  0
SPLINE
  5
10C
330
1F
100
AcDbEntity
  8
0
  6
Continuous
 62
     7
370
    25
100
AcDbSpline
210
0.0
220
0.0
230
1.0
 70
     8
 71
     3
 72
    23
 73
    19
 74
     0
 42
0.00000001
 43
0.00000001
 40
0.0
 40
0.0
 40
0.0
 40
0.0
 40
0.0812731202458116
 40
0.159003827479239
 40
0.2335696999225111
 40
0.3053982425301929
 40
0.3738677277977546
 40
0.4385529267906493
 40
0.5002110321123363
 40
0.5592869096176334
 40
0.6164724389176616
 40
0.671315986773754
 40
0.7255404865601734
 40
0.7790838068599721
 40
0.8327145080675425
 40
0.8870155578346625
 40
0.942803906220055
 40
1.0
 40
1.0
 40
1.0
 40
1.0
 10
6.850000000000013
 20
46.27187500000001
 30
0.0
 10
6.852118483850088
 20
46.16294333224744
 30
0.0
 10
6.856263114197683
 20
45.94982794976958
 30
0.0
 10
6.888114007641605
 20
45.63807798326572
 30
0.0
 10
6.939251307650422
 20
45.34187819805125
 30
0.0
 10
7.010192583397429
 20
45.06245450122168
 30
0.0
 10
7.101970481437967
 20
44.80306448326709
 30
0.0
 10
7.212144778656986
 20
44.56608493676611
 30
0.0
 10
7.335655086693405
 20
44.34982551323853
 30
0.0
 10
7.481361089154293
 20
44.16031624726396
 30
0.0
 10
7.638747911570611
 20
43.99308355619852
 30
0.0
 10
7.807892278189671
 20
43.84742497663696
 30
0.0
 10
7.987573669997555
 20
43.72333921364667
 30
0.0
 10
8.179512717180385
 20
43.62232146325574
 30
0.0
 10
8.382657172886184
 20
43.54652663194408
 30
0.0
 10
8.594761396520868
 20
43.48908393497663
 30
0.0
 10
8.817202354059463
 20
43.45627429114543
 30
0.0
 10
8.968646803615277
 20
43.45210873084142
 30
0.0
 10
9.045312500000014
 20
43.45000000000001
 30
0.0
  0
SPLINE
  5
10D
330
1F
100
AcDbEntity
  8
0
  6
Continuous
 62
     7
370
    25
100
AcDbSpline
210
0.0
220
0.0
230
1.0
 70
     8
 71
     3
 72
    23
 73
    19
 74
     0
 42
0.00000001
 43
0.00000001
 40
0.0
 40
0.0
 40
0.0
 40
0.0
 40
0.1039854976187571
 40
0.2013400224768889
 40
0.2933629942762367
 40
0.3811311418691398
 40
0.423257805378882
 40
0.4645311362591814
 40
0.5042546773355413
 40
0.5430935420420888
 40
0.5814202493590525
 40
0.6188454488767635
 40
0.6564643535461605
 40
0.693921906819227
 40
0.7686123191584545
 40
0.8434485559677761
 40
0.9200683814454521
 40
1.0
 40
1.0
 40
1.0
 40
1.0
 10
11.25000000000002
 20
46.27187500000002
 30
0.0
 10
11.24694446194734
 20
46.41110988983051
 30
0.0
 10
11.24102823214326
 20
46.68070090482779
 30
0.0
 10
11.1885940424984
 20
47.07068415394921
 30
0.0
 10
11.10366684881304
 20
47.43241283832424
 30
0.0
 10
11.00244422942941
 20
47.71250003533552
 30
0.0
 10
10.90524547555061
 20
47.92011387144235
 30
0.0
 10
10.82586344184962
 20
48.06461371863798
 30
0.0
 10
10.74047174033783
 20
48.20065344375423
 30
0.0
 10
10.6435540445584
 20
48.32370070203288
 30
0.0
 10
10.54302069422715
 20
48.43962526755161
 30
0.0
 10
10.4341753952575
 20
48.54569352111388
 30
0.0
 10
10.31682853735214
 20
48.64032613848324
 30
0.0
 10
10.1523863256237
 20
48.75518673045175
 30
0.0
 10
9.930937717506975
 20
48.87420248520484
 30
0.0
 10
9.645012492023444
 20
48.9761865070006
 30
0.0
 10
9.340226844123016
 20
49.03903310484129
 30
0.0
 10
9.130512758327631
 20
49.04629317351118
 30
0.0
 10
9.023437500000012
 20
49.05000000000001
 30
0.0
  0
SPLINE
  5
10E
330
1F
100
AcDbEntity
  8
0
  6
Continuous
 62
     7
370
    25
100
AcDbSpline
210
0.0
220
0.0
230
1.0
 70
     8
 71
     3
 72
    23
 73
    19
 74
     0
 42
0.00000001
 43
0.00000001
 40
0.0
 40
0.0
 40
0.0
 40
0.0
 40
0.0579313856614939
 40
0.1144958576654877
 40
0.1698754281335328
 40
0.2247038324623966
 40
0.2792843835168061
 40
0.3334374040890247
 40
0.3884308929637046
 40
0.4438566124991242
 40
0.5012505397875004
 40
0.56194467628051
 40
0.6260592850114932
 40
0.694164421035309
 40
0.765773196904931
 40
0.8405222265136408
 40
0.918468907039916
 40
1.0
 40
1.0
 40
1.0
 40
1.0
 10
9.023437500000012
 20
49.05000000000001
 30
0.0
 10
8.946737958924366
 20
49.04809208235901
 30
0.0
 10
8.795148632383494
 20
49.04432126513848
 30
0.0
 10
8.57262097042486
 20
49.00851018978602
 30
0.0
 10
8.35886211368759
 20
48.95250550331
 30
0.0
 10
8.154866587031096
 20
48.87417389384804
 30
0.0
 10
7.962451136211134
 20
48.77414041152549
 30
0.0
 10
7.782476550068724
 20
48.65269305267054
 30
0.0
 10
7.617113058321989
 20
48.51030460951331
 30
0.0
 10
7.465435052662146
 20
48.34755166338856
 30
0.0
 10
7.328348959054682
 20
48.162794247947
 30
0.0
 10
7.206728069606828
 20
47.95411586333455
 30
0.0
 10
7.100760063977077
 20
47.72151370335756
 30
0.0
 10
7.010418273275402
 20
47.46706322505339
 30
0.0
 10
6.938966755963748
 20
47.19207285595465
 30
0.0
 10
6.888161108328013
 20
46.89942573177117
 30
0.0
 10
6.856245075705287
 20
46.59080753040005
 30
0.0
 10
6.852112651934263
 20
46.37976695504482
 30
0.0
 10
6.850000000000013
 20
46.27187500000001
 30
0.0
  0
SPLINE
  5
10F
330
1F
100
AcDbEntity
  8
0
  6
Continuous
 62
     7
370
    25
100
AcDbSpline
210
0.0
220
0.0
230
1.0
 70
     8
 71
     3
 72
    19
 73
    15
 74
     0
 42
0.00000001
 43
0.00000001
 40
0.0
 40
0.0
 40
0.0
 40
0.0
 40
0.1160043110260766
 40
0.2234196456922102
 40
0.3205826234320535
 40
0.4099664910251645
 40
0.4910449969200149
 40
0.566273495539828
 40
0.6362467488150381
 40
0.7033921978152508
 40
0.7701770441446841
 40
0.8407100792725417
 40
0.9164048652587843
 40
1.0
 40
1.0
 40
1.0
 40
1.0
 10
32.5328125
 20
46.75000000000001
 30
0.0
 10
32.62189971373282
 20
46.75127688955077
 30
0.0
 10
32.79347811070652
 20
46.75373612756094
 30
0.0
 10
33.03927962872823
 20
46.77014167795536
 30
0.0
 10
33.26328674840998
 20
46.79962873525614
 30
0.0
 10
33.46476734987687
 20
46.84083664419092
 30
0.0
 10
33.64602590724198
 20
46.89542607814665
 30
0.0
 10
33.80271865449126
 20
46.97172563006146
 30
0.0
 10
33.94066320085655
 20
47.06002503152025
 30
0.0
 10
34.05349241141573
 20
47.17007616451516
 30
0.0
 10
34.14420718115084
 20
47.29966341664446
 30
0.0
 10
34.20563471078771
 20
47.45245570522502
 30
0.0
 10
34.24390155533894
 20
47.62572811236463
 30
0.0
 10
34.24790106352089
 20
47.74821765425163
 30
0.0
 10
34.24999999999999
 20
47.81250000000001
 30
0.0
  0
SPLINE
  5
113
330
1F
100
AcDbEntity
  8
0
  6
Continuous
 62
     7
370
    25
100
AcDbSpline
210
0.0
220
0.0
230
1.0
 70
     8
 71
     3
 72
    15
 73
    11
 74
     0
 42
0.00000001
 43
0.00000001
 40
0.0
 40
0.0
 40
0.0
 40
0.0
 40
0.1318197481159214
 40
0.2582495437293117
 40
0.3802061098165456
 40
0.5033589930225402
 40
0.6256410182784501
 40
0.747872473468883
 40
0.8710181847397919
 40
1.0
 40
1.0
 40
1.0
 40
1.0
 10
34.24999999999999
 20
47.81250000000001
 30
0.0
 10
34.24857156637005
 20
47.86424570505788
 30
0.0
 10
34.24577310606004
 20
47.96562129492318
 30
0.0
 10
34.21289303080516
 20
48.11176513008197
 30
0.0
 10
34.16268478378669
 20
48.24889335021417
 30
0.0
 10
34.09201913802909
 20
48.37494388794423
 30
0.0
 10
34.00470588224542
 20
48.49034833621928
 30
0.0
 10
33.89856834168996
 20
48.58853074752042
 30
0.0
 10
33.77846273295268
 20
48.67405931536464
 30
0.0
 10
33.6883081929188
 20
48.71499558201459
 30
0.0
 10
33.6421875
 20
48.73593750000001
 30
0.0
  0
SPLINE
  5
114
330
1F
100
AcDbEntity
  8
0
  6
Continuous
 62
     7
370
    25
100
AcDbSpline
210
0.0
220
0.0
230
1.0
 70
     8
 71
     3
 72
    15
 73
    11
 74
     0
 42
0.00000001
 43
0.00000001
 40
0.0
 40
0.0
 40
0.0
 40
0.0
 40
0.0751593444880825
 40
0.1633778205362415
 40
0.266296542049839
 40
0.3833175794359109
 40
0.5142533600420568
 40
0.6607945581205587
 40
0.8232004060776954
 40
1.0
 40
1.0
 40
1.0
 40
1.0
 10
33.6421875
 20
48.73593750000001
 30
0.0
 10
33.61680369185376
 20
48.74521542024036
 30
0.0
 10
33.56162557288413
 20
48.76538332349045
 30
0.0
 10
33.46852235688619
 20
48.78846485177839
 30
0.0
 10
33.35908509499692
 20
48.80569021271336
 30
0.0
 10
33.23425311475755
 20
48.82374115451803
 30
0.0
 10
33.09289352138222
 20
48.83581941388194
 30
0.0
 10
32.93493044023808
 20
48.84240534966546
 30
0.0
 10
32.76048022742259
 20
48.84981546385965
 30
0.0
 10
32.63855137375351
 20
48.84993677210025
 30
0.0
 10
32.575
 20
48.85000000000001
 30
0.0
  0
SPLINE
  5
115
330
1F
100
AcDbEntity
  8
0
  6
Continuous
 62
     7
370
    25
100
AcDbSpline
210
0.0
220
0.0
230
1.0
 70
     8
 71
     3
 72
    19
 73
    15
 74
     0
 42
0.00000001
 43
0.00000001
 40
0.0
 40
0.0
 40
0.0
 40
0.0
 40
0.1160043110260766
 40
0.2234196456922102
 40
0.3205826234320535
 40
0.4099664910251645
 40
0.4910449969200149
 40
0.566273495539828
 40
0.6362467488150381
 40
0.7033921978152508
 40
0.7701770441446841
 40
0.8407100792725417
 40
0.9164048652587843
 40
1.0
 40
1.0
 40
1.0
 40
1.0
 10
57.8328125
 20
46.75000000000001
 30
0.0
 10
57.92189971373283
 20
46.75127688955077
 30
0.0
 10
58.09347811070653
 20
46.75373612756094
 30
0.0
 10
58.33927962872824
 20
46.77014167795536
 30
0.0
 10
58.56328674840996
 20
46.79962873525614
 30
0.0
 10
58.76476734987688
 20
46.84083664419092
 30
0.0
 10
58.94602590724198
 20
46.89542607814665
 30
0.0
 10
59.10271865449126
 20
46.97172563006146
 30
0.0
 10
59.24066320085655
 20
47.06002503152025
 30
0.0
 10
59.35349241141573
 20
47.17007616451516
 30
0.0
 10
59.44420718115083
 20
47.29966341664446
 30
0.0
 10
59.50563471078772
 20
47.45245570522502
 30
0.0
 10
59.54390155533894
 20
47.62572811236463
 30
0.0
 10
59.54790106352088
 20
47.74821765425163
 30
0.0
 10
59.55
 20
47.81250000000001
 30
0.0
  0
SPLINE
  5
117
330
1F
100
AcDbEntity
  8
0
  6
Continuous
 62
     7
370
    25
100
AcDbSpline
210
0.0
220
0.0
230
1.0
 70
     8
 71
     3
 72
    15
 73
    11
 74
     0
 42
0.00000001
 43
0.00000001
 40
0.0
 40
0.0
 40
0.0
 40
0.0
 40
0.1318197481159214
 40
0.2582495437293117
 40
0.3802061098165456
 40
0.5033589930225402
 40
0.6256410182784501
 40
0.747872473468883
 40
0.8710181847397919
 40
1.0
 40
1.0
 40
1.0
 40
1.0
 10
59.55
 20
47.81250000000001
 30
0.0
 10
59.54857156637006
 20
47.86424570505788
 30
0.0
 10
59.54577310606004
 20
47.96562129492318
 30
0.0
 10
59.51289303080517
 20
48.11176513008197
 30
0.0
 10
59.46268478378669
 20
48.24889335021417
 30
0.0
 10
59.39201913802908
 20
48.37494388794423
 30
0.0
 10
59.30470588224542
 20
48.49034833621928
 30
0.0
 10
59.19856834168997
 20
48.58853074752042
 30
0.0
 10
59.07846273295268
 20
48.67405931536464
 30
0.0
 10
58.98830819291882
 20
48.71499558201459
 30
0.0
 10
58.9421875
 20
48.73593750000001
 30
0.0
  0
SPLINE
  5
11A
330
1F
100
AcDbEntity
  8
0
  6
Continuous
 62
     7
370
    25
100
AcDbSpline
210
0.0
220
0.0
230
1.0
 70
     8
 71
     3
 72
    15
 73
    11
 74
     0
 42
0.00000001
 43
0.00000001
 40
0.0
 40
0.0
 40
0.0
 40
0.0
 40
0.0751593444880825
 40
0.1633778205362415
 40
0.266296542049839
 40
0.3833175794359109
 40
0.5142533600420568
 40
0.6607945581205587
 40
0.8232004060776954
 40
1.0
 40
1.0
 40
1.0
 40
1.0
 10
58.9421875
 20
48.73593750000001
 30
0.0
 10
58.91680369185377
 20
48.74521542024036
 30
0.0
 10
58.86162557288413
 20
48.76538332349045
 30
0.0
 10
58.76852235688619
 20
48.78846485177839
 30
0.0
 10
58.65908509499694
 20
48.80569021271336
 30
0.0
 10
58.53425311475755
 20
48.82374115451803
 30
0.0
 10
58.39289352138222
 20
48.83581941388194
 30
0.0
 10
58.23493044023808
 20
48.84240534966546
 30
0.0
 10
58.06048022742259
 20
48.84981546385965
 30
0.0
 10
57.93855137375351
 20
48.84993677210025
 30
0.0
 10
57.875
 20
48.85000000000001
 30
0.0
  0
SPLINE
  5
11B
330
1F
100
AcDbEntity
  8
0
  6
Continuous
 62
     7
370
    25
100
AcDbSpline
210
0.0
220
0.0
230
1.0
 70
     8
 71
     3
 72
    15
 73
    11
 74
     0
 42
0.00000001
 43
0.00000001
 40
0.0
 40
0.0
 40
0.0
 40
0.0
 40
0.1037748584618962
 40
0.2099041154921533
 40
0.3208065782618836
 40
0.4379775703774619
 40
0.5634304375534789
 40
0.6982319782899858
 40
0.8432666053111274
 40
1.0
 40
1.0
 40
1.0
 40
1.0
 10
-17.84687499999999
 20
43.91718750000002
 30
0.0
 10
-17.78224172641087
 20
43.97614900608029
 30
0.0
 10
-17.65150880781029
 20
44.09540971108436
 30
0.0
 10
-17.4917206814237
 20
44.31474853923743
 30
0.0
 10
-17.35320423388034
 20
44.55984435701395
 30
0.0
 10
-17.24034293973965
 20
44.83592892376458
 30
0.0
 10
-17.15620750333168
 20
45.14260837010544
 30
0.0
 10
-17.09406589123051
 20
45.47813095420778
 30
0.0
 10
-17.05647503621888
 20
45.84394033110157
 30
0.0
 10
-17.05221341607903
 20
46.09782430152196
 30
0.0
 10
-17.04999999999999
 20
46.22968750000002
 30
0.0
  0
SPLINE
  5
11C
330
1F
100
AcDbEntity
  8
0
  6
Continuous
 62
     7
370
    25
100
AcDbSpline
210
0.0
220
0.0
230
1.0
 70
     8
 71
     3
 72
    17
 73
    13
 74
     0
 42
0.00000001
 43
0.00000001
 40
0.0
 40
0.0
 40
0.0
 40
0.0
 40
0.1184958504657053
 40
0.2231821799299878
 40
0.3150981765822699
 40
0.3923453377719933
 40
0.5394195509452494
 40
0.6947227249339795
 40
0.773568961972359
 40
0.8512942824969226
 40
0.9255160070508797
 40
0.9999999999999999
 40
0.9999999999999999
 40
0.9999999999999999
 40
0.9999999999999999
 10
-19.34843749999999
 20
43.55000000000002
 30
0.0
 10
-19.28593727894462
 20
43.55042357251266
 30
0.0
 10
-19.16822062029012
 20
43.55122135434512
 30
0.0
 10
-19.00202651272629
 20
43.55380906062864
 30
0.0
 10
-18.85769416812765
 20
43.55985831089011
 30
0.0
 10
-18.69125582951267
 20
43.57162551816928
 30
0.0
 10
-18.4931490961319
 20
43.60409339503222
 30
0.0
 10
-18.29950572040992
 20
43.66026821571599
 30
0.0
 10
-18.14663122037368
 20
43.72144761854783
 30
0.0
 10
-18.03811192366304
 20
43.77700990986596
 30
0.0
 10
-17.93754089898308
 20
43.84196753969494
 30
0.0
 10
-17.87713247991204
 20
43.89208471644586
 30
0.0
 10
-17.84687499999999
 20
43.91718750000003
 30
0.0
  0
SPLINE
  5
120
330
1F
100
AcDbEntity
  8
0
  6
Continuous
 62
     7
370
    25
100
AcDbSpline
210
0.0
220
0.0
230
1.0
 70
     8
 71
     3
 72
    27
 73
    23
 74
     0
 42
0.00000001
 43
0.00000001
 40
0.0
 40
0.0
 40
0.0
 40
0.0
 40
0.0666353971550036
 40
0.1293009974454251
 40
0.1877099062962796
 40
0.242110265030788
 40
0.2929414684489834
 40
0.3402607916965353
 40
0.3841534704124066
 40
0.425623023139941
 40
0.4648521741329783
 40
0.5020026381263173
 40
0.5375815601845408
 40
0.5718129722172441
 40
0.6050150798122356
 40
0.637446731962443
 40
0.6694071970507002
 40
0.7014304550240972
 40
0.7678732564011628
 40
0.8392226192880555
 40
0.9165944916567629
 40
1.0
 40
1.0
 40
1.0
 40
1.0
 10
-17.04999999999999
 20
46.22968750000002
 30
0.0
 10
-17.05051492709901
 20
46.32295522422091
 30
0.0
 10
-17.0515141045686
 20
46.50393425767925
 30
0.0
 10
-17.07014311329415
 20
46.76603434643605
 30
0.0
 10
-17.09464212354067
 20
47.01049345644645
 30
0.0
 10
-17.13499734478411
 20
47.23601517492852
 30
0.0
 10
-17.18141880760858
 20
47.44457747352433
 30
0.0
 10
-17.243258245114
 20
47.63369503829926
 30
0.0
 10
-17.31250707270303
 20
47.80625529428684
 30
0.0
 10
-17.39638979229361
 20
47.95949312140235
 30
0.0
 10
-17.4873565924762
 20
48.09718776518176
 30
0.0
 10
-17.58302217789473
 20
48.22144847897349
 30
0.0
 10
-17.68328054989037
 20
48.33273511273562
 30
0.0
 10
-17.78775658463314
 20
48.43238855439653
 30
0.0
 10
-17.89952593527461
 20
48.51673158142819
 30
0.0
 10
-18.0155768303268
 20
48.58894578226955
 30
0.0
 10
-18.1364258343022
 20
48.64969593585356
 30
0.0
 10
-18.30932379164565
 20
48.70915297090345
 30
0.0
 10
-18.54041230166585
 20
48.76578042983612
 30
0.0
 10
-18.83750798162734
 20
48.81599403585084
 30
0.0
 10
-19.16138450040729
 20
48.8454071992721
 30
0.0
 10
-19.38639675503455
 20
48.84843123782789
 30
0.0
 10
-19.50312499999999
 20
48.85000000000002
 30
0.0
  0
SPLINE
  5
121
330
1F
100
AcDbEntity
  8
0
  6
Continuous
 62
     7
370
    25
100
AcDbSpline
210
0.0
220
0.0
230
1.0
 70
     8
 71
     3
 72
    11
 73
     7
 74
     0
 42
0.00000001
 43
0.00000001
 40
0.0
 40
0.0
 40
0.0
 40
0.0
 40
0.2465871535765247
 40
0.4939013827501013
 40
0.7418862589447275
 40
1.0
 40
1.0
 40
1.0
 40
1.0
 10
-31.99687499999999
 20
47.38281250000001
 30
0.0
 10
-31.97580107482512
 20
47.42025687071634
 30
0.0
 10
-31.93359108686396
 20
47.49525601890697
 30
0.0
 10
-31.89336879316659
 20
47.61833325491513
 30
0.0
 10
-31.86415832996983
 20
47.74654408709398
 30
0.0
 10
-31.86202533960867
 20
47.83471813509958
 30
0.0
 10
-31.86093749999998
 20
47.87968750000001
 30
0.0
  0
SPLINE
  5
122
330
1F
100
AcDbEntity
  8
0
  6
Continuous
 62
     7
370
    25
100
AcDbSpline
210
0.0
220
0.0
230
1.0
 70
     8
 71
     3
 72
    15
 73
    11
 74
     0
 42
0.00000001
 43
0.00000001
 40
0.0
 40
0.0
 40
0.0
 40
0.0
 40
0.1754457322193803
 40
0.3307676262320544
 40
0.4655516646729331
 40
0.5819667381089805
 40
0.6869247092983349
 40
0.7888839979260025
 40
0.8920456893790941
 40
1.0
 40
1.0
 40
1.0
 40
1.0
 10
-33.40156249999998
 20
46.85000000000001
 30
0.0
 10
-33.3088001877887
 20
46.85072955479151
 30
0.0
 10
-33.13391551304748
 20
46.85210498355536
 30
0.0
 10
-32.88857744813762
 20
46.87435856520259
 30
0.0
 10
-32.67615955271499
 20
46.90740349531276
 30
0.0
 10
-32.49314206423146
 20
46.95409999620929
 30
0.0
 10
-32.33654034747119
 20
47.02467124946363
 30
0.0
 10
-32.20040590399987
 20
47.11775361025116
 30
0.0
 10
-32.08614407566297
 20
47.2394246072189
 30
0.0
 10
-32.02707831613294
 20
47.33429861293283
 30
0.0
 10
-31.99687499999998
 20
47.38281250000001
 30
0.0
  0
SPLINE
  5
126
330
1F
100
AcDbEntity
  8
0
  6
Continuous
 62
     7
370
    25
100
AcDbSpline
210
0.0
220
0.0
230
1.0
 70
     8
 71
     3
 72
    23
 73
    19
 74
     0
 42
0.00000001
 43
0.00000001
 40
0.0
 40
0.0
 40
0.0
 40
0.0
 40
0.0626890872429991
 40
0.1197749355922273
 40
0.1733017887518448
 40
0.2234663809112289
 40
0.2717170296454974
 40
0.3199777128290259
 40
0.3681329300093074
 40
0.41828304116993
 40
0.4722961846126978
 40
0.5306197535709944
 40
0.5950909577328941
 40
0.6643035207418668
 40
0.7393950024251819
 40
0.82035717278224
 40
0.9067445776102573
 40
1.0
 40
1.0
 40
1.0
 40
1.0
 10
-31.86093749999998
 20
47.87968750000001
 30
0.0
 10
-31.8618402849352
 20
47.92665391527119
 30
0.0
 10
-31.86356516261687
 20
48.01638882148058
 30
0.0
 10
-31.8847672770866
 20
48.14477731153121
 30
0.0
 10
-31.91697407018632
 20
48.26094601087421
 30
0.0
 10
-31.96206510382574
 20
48.36591716953932
 30
0.0
 10
-32.02275558551826
 20
48.45798931415789
 30
0.0
 10
-32.09609948435644
 20
48.53840708598809
 30
0.0
 10
-32.18426739399843
 20
48.60454132892043
 30
0.0
 10
-32.28433947128875
 20
48.65984879401561
 30
0.0
 10
-32.39789577591493
 20
48.70406949281685
 30
0.0
 10
-32.52438212574105
 20
48.74310628627052
 30
0.0
 10
-32.66401763507375
 20
48.77770841369697
 30
0.0
 10
-32.81831827539204
 20
48.80288354833849
 30
0.0
 10
-32.98541220267929
 20
48.82589335114258
 30
0.0
 10
-33.1665370534415
 20
48.83820312338776
 30
0.0
 10
-33.36133892420879
 20
48.84858976102628
 30
0.0
 10
-33.49581588867864
 20
48.84951808986919
 30
0.0
 10
-33.56562499999998
 20
48.85000000000001
 30
0.0
  0
SPLINE
  5
129
330
1F
100
AcDbEntity
  8
0
  6
Continuous
 62
     7
370
    25
100
AcDbSpline
210
0.0
220
0.0
230
1.0
 70
     8
 71
     3
 72
    23
 73
    19
 74
     0
 42
0.00000001
 43
0.00000001
 40
0.0
 40
0.0
 40
0.0
 40
0.0
 40
0.0873650525811307
 40
0.1692638148118659
 40
0.2459701681874702
 40
0.3178001343732603
 40
0.3856302469905678
 40
0.4484558086062252
 40
0.5079932420328285
 40
0.5642884523615257
 40
0.6179718111759674
 40
0.6702695592383563
 40
0.7215470691382349
 40
0.7738827484825391
 40
0.8263320570816745
 40
0.8816852447504157
 40
0.9393603483674893
 40
1.0
 40
1.0
 40
1.0
 40
1.0
 10
-33.15156249999998
 20
43.55000000000001
 30
0.0
 10
-33.08696018478201
 20
43.5509865838842
 30
0.0
 10
-32.96179761695415
 20
43.55289802269107
 30
0.0
 10
-32.78022495834745
 20
43.56510003372157
 30
0.0
 10
-32.61104931819231
 20
43.58650228613251
 30
0.0
 10
-32.45407697425615
 20
43.61810820296748
 30
0.0
 10
-32.30929831985966
 20
43.65656567831662
 30
0.0
 10
-32.17617130156815
 20
43.70272805982886
 30
0.0
 10
-32.05737821138447
 20
43.76117719393087
 30
0.0
 10
-31.95035621841725
 20
43.82674251960022
 30
0.0
 10
-31.85518494398153
 20
43.90040324332036
 30
0.0
 10
-31.77381534144013
 20
43.98388926398906
 30
0.0
 10
-31.70325446348605
 20
44.0755552545203
 30
0.0
 10
-31.64810177527148
 20
44.1773307081773
 30
0.0
 10
-31.60289181803073
 20
44.28708414212633
 30
0.0
 10
-31.57263491532146
 20
44.40596739382338
 30
0.0
 10
-31.55331247969896
 20
44.53322198460607
 30
0.0
 10
-31.55112245134659
 20
44.62075953472051
 30
0.0
 10
-31.54999999999998
 20
44.66562500000001
 30
0.0
  0
SPLINE
  5
12B
330
1F
100
AcDbEntity
  8
0
  6
Continuous
 62
     7
370
    25
100
AcDbSpline
210
0.0
220
0.0
230
1.0
 70
     8
 71
     3
 72
    23
 73
    19
 74
     0
 42
0.00000001
 43
0.00000001
 40
0.0
 40
0.0
 40
0.0
 40
0.0
 40
0.0611484004273981
 40
0.1187796955620006
 40
0.1726603380665876
 40
0.2252557685014497
 40
0.2763266382188557
 40
0.3266322689967778
 40
0.3781914170052029
 40
0.430965191801516
 40
0.4865883412127357
 40
0.5460184092652295
 40
0.6096762990764794
 40
0.6775258314367735
 40
0.7501069930132281
 40
0.8276844357526421
 40
0.9111242129538242
 40
1.0
 40
1.0
 40
1.0
 40
1.0
 10
-31.54999999999998
 20
44.66562500000001
 30
0.0
 10
-31.55093868632139
 20
44.71155387555155
 30
0.0
 10
-31.55276206804038
 20
44.80076991092427
 30
0.0
 10
-31.57424721352468
 20
44.92888386817103
 30
0.0
 10
-31.60485324294474
 20
45.04835476717154
 30
0.0
 10
-31.64995008431028
 20
45.15812133374585
 30
0.0
 10
-31.70982512471316
 20
45.25748613051005
 30
0.0
 10
-31.78342851320755
 20
45.34589872174536
 30
0.0
 10
-31.86749807906367
 20
45.42643162536403
 30
0.0
 10
-31.96646336844309
 20
45.49490822132002
 30
0.0
 10
-32.07633751453481
 20
45.55695043788656
 30
0.0
 10
-32.20101194520099
 20
45.60694639599511
 30
0.0
 10
-32.33671129614608
 20
45.65320205164315
 30
0.0
 10
-32.48601387120509
 20
45.68816143386198
 30
0.0
 10
-32.64722906867836
 20
45.71610544694817
 30
0.0
 10
-32.82140894414675
 20
45.73670914344335
 30
0.0
 10
-33.00873982684352
 20
45.74660137170387
 30
0.0
 10
-33.13801223075619
 20
45.74884354606997
 30
0.0
 10
-33.20468749999998
 20
45.75000000000001
 30
0.0
  0
LINE
  5
12C
330
1F
100
AcDbEntity
  8
0
  6
Continuous
 62
     7
370
    25
100
AcDbLine
 10
62.65
 20
43.3140625
 30
0.0
 11
62.65
 21
49.296875
 31
0.0
  0
LINE
  5
12D
330
1F
100
AcDbEntity
  8
0
  6
Continuous
 62
     7
370
    25
100
AcDbLine
 10
67.325
 20
42.35
 30
0.0
 11
63.56875
 21
42.35
 31
0.0
  0
LINE
  5
12E
330
1F
100
AcDbEntity
  8
0
  6
Continuous
 62
     7
370
    25
100
AcDbLine
 10
64.15
 20
43.65
 30
0.0
 11
67.325
 21
43.65
 31
0.0
  0
LINE
  5
12F
330
1F
100
AcDbEntity
  8
0
  6
Continuous
 62
     7
370
    25
100
AcDbLine
 10
64.15
 20
49.296875
 30
0.0
 11
64.15
 21
43.65
 31
0.0
  0
LINE
  5
130
330
1F
100
AcDbEntity
  8
0
  6
Continuous
 62
     7
370
    25
100
AcDbLine
 10
55.890625
 20
50.05
 30
0.0
 11
58.384375
 21
50.05
 31
0.0
  0
LINE
  5
131
330
1F
100
AcDbEntity
  8
0
  6
Continuous
 62
     7
370
    25
100
AcDbLine
 10
54.95
 20
43.196875
 30
0.0
 11
54.95
 21
49.0984375
 31
0.0
  0
LINE
  5
132
330
1F
100
AcDbEntity
  8
0
  6
Continuous
 62
     7
370
    25
100
AcDbLine
 10
56.45
 20
45.65
 30
0.0
 11
56.45
 21
43.19375
 31
0.0
  0
LINE
  5
133
330
1F
100
AcDbEntity
  8
0
  6
Continuous
 62
     7
370
    25
100
AcDbLine
 10
56.990625
 20
45.65
 30
0.0
 11
56.45
 21
45.65
 31
0.0
  0
LINE
  5
134
330
1F
100
AcDbEntity
  8
0
  6
Continuous
 62
     7
370
    25
100
AcDbLine
 10
59.4296875
 20
43.2359375
 30
0.0
 11
58.8015625
 21
44.26875
 31
0.0
  0
LINE
  5
135
330
1F
100
AcDbEntity
  8
0
  6
Continuous
 62
     7
370
    25
100
AcDbLine
 10
2.55
 20
48.45
 30
0.0
 11
1.3046875
 21
43.5421875
 31
0.0
  0
LINE
  5
136
330
1F
100
AcDbEntity
  8
0
  6
Continuous
 62
     7
370
    25
100
AcDbLine
 10
2.55
 20
43.1328125
 30
0.0
 11
2.55
 21
48.45
 31
0.0
  0
LINE
  5
137
330
1F
100
AcDbEntity
  8
0
  6
Continuous
 62
     7
370
    25
100
AcDbLine
 10
3.95
 20
49.196875
 30
0.0
 11
3.95
 21
43.128125
 31
0.0
  0
LINE
  5
138
330
1F
100
AcDbEntity
  8
0
  6
Continuous
 62
     7
370
    25
100
AcDbLine
 10
2.5
 20
50.05
 30
0.0
 11
2.98125
 21
50.05
 31
0.0
  0
LINE
  5
139
330
1F
100
AcDbEntity
  8
0
  6
Continuous
 62
     7
370
    25
100
AcDbLine
 10
0.25
 20
44.85
 30
0.0
 11
1.3640625
 21
49.0296875
 31
0.0
  0
LINE
  5
13A
330
1F
100
AcDbEntity
  8
0
  6
Continuous
 62
     7
370
    25
100
AcDbLine
 10
-0.878125
 20
49.0296875
 30
0.0
 11
0.25
 21
44.85
 31
0.0
  0
LINE
  5
13B
330
1F
100
AcDbEntity
  8
0
  6
Continuous
 62
     7
370
    25
100
AcDbLine
 10
-2.4875
 20
50.05
 30
0.0
 11
-2.0078125
 21
50.05
 31
0.0
  0
LINE
  5
13C
330
1F
100
AcDbEntity
  8
0
  6
Continuous
 62
     7
370
    25
100
AcDbLine
 10
-3.45
 20
43.128125
 30
0.0
 11
-3.45
 21
49.196875
 31
0.0
  0
LINE
  5
13D
330
1F
100
AcDbEntity
  8
0
  6
Continuous
 62
     7
370
    25
100
AcDbLine
 10
-2.05
 20
48.45
 30
0.0
 11
-2.05
 21
43.1328125
 31
0.0
  0
LINE
  5
13E
330
1F
100
AcDbEntity
  8
0
  6
Continuous
 62
     7
370
    25
100
AcDbLine
 10
-0.8046875
 20
43.5421875
 30
0.0
 11
-2.05
 21
48.45
 31
0.0
  0
LINE
  5
13F
330
1F
100
AcDbEntity
  8
0
  6
Continuous
 62
     7
370
    25
100
AcDbLine
 10
-19.0265625
 20
42.35
 30
0.0
 11
-21.0609375
 21
42.35
 31
0.0
  0
LINE
  5
140
330
1F
100
AcDbEntity
  8
0
  6
Continuous
 62
     7
370
    25
100
AcDbLine
 10
-21.13125
 20
50.05
 30
0.0
 11
-19.0796875
 21
50.05
 31
0.0
  0
LINE
  5
141
330
1F
100
AcDbEntity
  8
0
  6
Continuous
 62
     7
370
    25
100
AcDbLine
 10
-22.05
 20
43.4484375
 30
0.0
 11
-22.05
 21
49.09375
 31
0.0
  0
LINE
  5
142
330
1F
100
AcDbEntity
  8
0
  6
Continuous
 62
     7
370
    25
100
AcDbLine
 10
-75.35
 20
-57.35
 30
0.0
 11
75.35
 21
-57.35
 31
0.0
  0
LINE
  5
143
330
1F
100
AcDbEntity
  8
0
  6
Continuous
 62
     7
370
    25
100
AcDbLine
 10
-75.35
 20
57.35
 30
0.0
 11
-75.35
 21
-57.35
 31
0.0
  0
LINE
  5
144
330
1F
100
AcDbEntity
  8
0
  6
Continuous
 62
     7
370
    25
100
AcDbLine
 10
75.35
 20
57.35
 30
0.0
 11
-75.35
 21
57.35
 31
0.0
  0
LINE
  5
145
330
1F
100
AcDbEntity
  8
0
  6
Continuous
 62
     7
370
    25
100
AcDbLine
 10
75.35
 20
-57.35
 30
0.0
 11
75.35
 21
57.35
 31
0.0
  0
LINE
  5
146
330
1F
100
AcDbEntity
  8
0
  6
Continuous
 62
     7
370
    25
100
AcDbLine
 10
-35.40625
 20
50.05
 30
0.0
 11
-32.91875
 21
50.05
 31
0.0
  0
LINE
  5
147
330
1F
100
AcDbEntity
  8
0
  6
Continuous
 62
     7
370
    25
100
AcDbLine
 10
-36.35
 20
43.30625
 30
0.0
 11
-36.35
 21
49.09375
 31
0.0
  0
LINE
  5
148
330
1F
100
AcDbEntity
  8
0
  6
Continuous
 62
     7
370
    25
100
AcDbLine
 10
-33.059375
 20
42.35
 30
0.0
 11
-35.40625
 21
42.35
 31
0.0
  0
LINE
  5
149
330
1F
100
AcDbEntity
  8
0
  6
Continuous
 62
     7
370
    25
100
AcDbLine
 10
-28.65
 20
43.3140625
 30
0.0
 11
-28.65
 21
49.296875
 31
0.0
  0
LINE
  5
14A
330
1F
100
AcDbEntity
  8
0
  6
Continuous
 62
     7
370
    25
100
AcDbLine
 10
-23.975
 20
42.35
 30
0.0
 11
-27.73125
 21
42.35
 31
0.0
  0
LINE
  5
14B
330
1F
100
AcDbEntity
  8
0
  6
Continuous
 62
     7
370
    25
100
AcDbLine
 10
-27.15
 20
43.65
 30
0.0
 11
-23.975
 21
43.65
 31
0.0
  0
LINE
  5
14C
330
1F
100
AcDbEntity
  8
0
  6
Continuous
 62
     7
370
    25
100
AcDbLine
 10
-27.15
 20
49.296875
 30
0.0
 11
-27.15
 21
43.65
 31
0.0
  0
LINE
  5
14D
330
1F
100
AcDbEntity
  8
0
  6
Continuous
 62
     7
370
    25
100
AcDbLine
 10
14.240625
 20
50.05
 30
0.0
 11
19.1578125
 21
50.05
 31
0.0
  0
LINE
  5
14E
330
1F
100
AcDbEntity
  8
0
  6
Continuous
 62
     7
370
    25
100
AcDbLine
 10
15.95
 20
48.75
 30
0.0
 11
14.240625
 21
48.75
 31
0.0
  0
LINE
  5
14F
330
1F
100
AcDbEntity
  8
0
  6
Continuous
 62
     7
370
    25
100
AcDbLine
 10
15.95
 20
43.19375
 30
0.0
 11
15.95
 21
48.75
 31
0.0
  0
LINE
  5
150
330
1F
100
AcDbEntity
  8
0
  6
Continuous
 62
     7
370
    25
100
AcDbLine
 10
17.45
 20
48.75
 30
0.0
 11
17.45
 21
43.19375
 31
0.0
  0
LINE
  5
151
330
1F
100
AcDbEntity
  8
0
  6
Continuous
 62
     7
370
    25
100
AcDbLine
 10
19.1578125
 20
48.75
 30
0.0
 11
17.45
 21
48.75
 31
0.0
  0
LINE
  5
152
330
1F
100
AcDbEntity
  8
0
  6
Continuous
 62
     7
370
    25
100
AcDbLine
 10
30.590625
 20
50.05
 30
0.0
 11
33.084375
 21
50.05
 31
0.0
  0
LINE
  5
153
330
1F
100
AcDbEntity
  8
0
  6
Continuous
 62
     7
370
    25
100
AcDbLine
 10
29.65
 20
43.196875
 30
0.0
 11
29.65
 21
49.0984375
 31
0.0
  0
LINE
  5
154
330
1F
100
AcDbEntity
  8
0
  6
Continuous
 62
     7
370
    25
100
AcDbLine
 10
31.15
 20
45.65
 30
0.0
 11
31.15
 21
43.19375
 31
0.0
  0
LINE
  5
155
330
1F
100
AcDbEntity
  8
0
  6
Continuous
 62
     7
370
    25
100
AcDbLine
 10
31.690625
 20
45.65
 30
0.0
 11
31.15
 21
45.65
 31
0.0
  0
LINE
  5
156
330
1F
100
AcDbEntity
  8
0
  6
Continuous
 62
     7
370
    25
100
AcDbLine
 10
34.1296875
 20
43.2359375
 30
0.0
 11
33.5015625
 21
44.26875
 31
0.0
  0
LINE
  5
157
330
1F
100
AcDbEntity
  8
0
  6
Continuous
 62
     7
370
    25
100
AcDbLine
 10
48.140625
 20
50.05
 30
0.0
 11
53.0578125
 21
50.05
 31
0.0
  0
LINE
  5
158
330
1F
100
AcDbEntity
  8
0
  6
Continuous
 62
     7
370
    25
100
AcDbLine
 10
49.85
 20
48.75
 30
0.0
 11
48.140625
 21
48.75
 31
0.0
  0
LINE
  5
159
330
1F
100
AcDbEntity
  8
0
  6
Continuous
 62
     7
370
    25
100
AcDbLine
 10
49.85
 20
43.19375
 30
0.0
 11
49.85
 21
48.75
 31
0.0
  0
LINE
  5
15A
330
1F
100
AcDbEntity
  8
0
  6
Continuous
 62
     7
370
    25
100
AcDbLine
 10
51.35
 20
48.75
 30
0.0
 11
51.35
 21
43.19375
 31
0.0
  0
LINE
  5
15B
330
1F
100
AcDbEntity
  8
0
  6
Continuous
 62
     7
370
    25
100
AcDbLine
 10
53.0578125
 20
48.75
 30
0.0
 11
51.35
 21
48.75
 31
0.0
  0
LINE
  5
15C
330
1F
100
AcDbEntity
  8
0
  6
Continuous
 62
     7
370
    25
100
AcDbLine
 10
31.15
 20
46.75
 30
0.0
 11
32.5328125
 21
46.75
 31
0.0
  0
LINE
  5
15D
330
1F
100
AcDbEntity
  8
0
  6
Continuous
 62
     7
370
    25
100
AcDbLine
 10
31.15
 20
48.85
 30
0.0
 11
31.15
 21
46.75
 31
0.0
  0
LINE
  5
15E
330
1F
100
AcDbEntity
  8
0
  6
Continuous
 62
     7
370
    25
100
AcDbLine
 10
32.575
 20
48.85
 30
0.0
 11
31.15
 21
48.85
 31
0.0
  0
LINE
  5
15F
330
1F
100
AcDbEntity
  8
0
  6
Continuous
 62
     7
370
    25
100
AcDbLine
 10
56.45
 20
46.75
 30
0.0
 11
57.8328125
 21
46.75
 31
0.0
  0
LINE
  5
160
330
1F
100
AcDbEntity
  8
0
  6
Continuous
 62
     7
370
    25
100
AcDbLine
 10
56.45
 20
48.85
 30
0.0
 11
56.45
 21
46.75
 31
0.0
  0
LINE
  5
161
330
1F
100
AcDbEntity
  8
0
  6
Continuous
 62
     7
370
    25
100
AcDbLine
 10
57.875
 20
48.85
 30
0.0
 11
56.45
 21
48.85
 31
0.0
  0
LINE
  5
162
330
1F
100
AcDbEntity
  8
0
  6
Continuous
 62
     7
370
    25
100
AcDbLine
 10
-20.55
 20
43.55
 30
0.0
 11
-19.3484375
 21
43.55
 31
0.0
  0
LINE
  5
163
330
1F
100
AcDbEntity
  8
0
  6
Continuous
 62
     7
370
    25
100
AcDbLine
 10
-19.503125
 20
48.85
 30
0.0
 11
-20.55
 21
48.85
 31
0.0
  0
LINE
  5
164
330
1F
100
AcDbEntity
  8
0
  6
Continuous
 62
     7
370
    25
100
AcDbLine
 10
-20.55
 20
48.85
 30
0.0
 11
-20.55
 21
43.55
 31
0.0
  0
LINE
  5
165
330
1F
100
AcDbEntity
  8
0
  6
Continuous
 62
     7
370
    25
100
AcDbLine
 10
-34.85
 20
46.85
 30
0.0
 11
-33.4015625
 21
46.85
 31
0.0
  0
LINE
  5
166
330
1F
100
AcDbEntity
  8
0
  6
Continuous
 62
     7
370
    25
100
AcDbLine
 10
-33.565625
 20
48.85
 30
0.0
 11
-34.85
 21
48.85
 31
0.0
  0
LINE
  5
167
330
1F
100
AcDbEntity
  8
0
  6
Continuous
 62
     7
370
    25
100
AcDbLine
 10
-34.85
 20
48.85
 30
0.0
 11
-34.85
 21
46.85
 31
0.0
  0
LINE
  5
168
330
1F
100
AcDbEntity
  8
0
  6
Continuous
 62
     7
370
    25
100
AcDbLine
 10
-34.85
 20
43.55
 30
0.0
 11
-33.1515625
 21
43.55
 31
0.0
  0
LINE
  5
169
330
1F
100
AcDbEntity
  8
0
  6
Continuous
 62
     7
370
    25
100
AcDbLine
 10
-34.85
 20
45.75
 30
0.0
 11
-34.85
 21
43.55
 31
0.0
  0
LINE
  5
16A
330
1F
100
AcDbEntity
  8
0
  6
Continuous
 62
     7
370
    25
100
AcDbLine
 10
-33.2046875
 20
45.75
 30
0.0
 11
-34.85
 21
45.75
 31
0.0
  0
ENDSEC
  0
SECTION
  2
OBJECTS
  0
DICTIONARY
  5
C
330
0
100
AcDbDictionary
281
     1
  3
ACAD_GROUP
350
D
  3
ACAD_LAYOUT
350
1A
  3
ACAD_MLINESTYLE
350
17
  3
ACAD_PLOTSETTINGS
350
19
  3
ACAD_PLOTSTYLENAME
350
E
  3
ACAD_SCALELIST
350
47
  3
DWGPROPS
350
16B
  0
DICTIONARY
  5
D
102
{ACAD_REACTORS
330
C
102
}
330
C
100
AcDbDictionary
281
     1
  0
DICTIONARY
  5
1A
102
{ACAD_REACTORS
330
C
102
}
330
C
100
AcDbDictionary
281
     1
  3
Layout1
350
1E
  3
Layout2
350
26
  3
Model
350
22
  0
DICTIONARY
  5
17
102
{ACAD_REACTORS
330
C
102
}
330
C
100
AcDbDictionary
281
     1
  3
Standard
350
18
  0
DICTIONARY
  5
19
102
{ACAD_REACTORS
330
C
102
}
330
C
100
AcDbDictionary
281
     1
  0
ACDBDICTIONARYWDFLT
  5
E
102
{ACAD_REACTORS
330
C
102
}
330
C
100
AcDbDictionary
281
     1
  3
Normal
350
F
100
AcDbDictionaryWithDefault
340
F
  0
DICTIONARY
  5
47
102
{ACAD_REACTORS
330
C
102
}
330
C
100
AcDbDictionary
281
     1
  3
A0
350
48
  3
A1
350
49
  3
A2
350
4A
  3
A3
350
4B
  3
A4
350
4C
  3
A5
350
4D
  3
A6
350
4E
  3
A7
350
4F
  3
A8
350
50
  3
A9
350
51
  3
B0
350
52
  3
B1
350
53
  3
B2
350
54
  3
B3
350
55
  3
B4
350
56
  3
B5
350
57
  3
B6
350
58
  3
B7
350
59
  3
B8
350
5A
  3
B9
350
5B
  3
C0
350
5C
  3
C1
350
5D
  3
C2
350
5E
  3
C3
350
5F
  3
C4
350
60
  3
C5
350
61
  3
C6
350
62
  3
C7
350
63
  3
C8
350
64
  3
C9
350
65
  3
D0
350
66
  3
D1
350
67
  3
D2
350
68
  0
XRECORD
  5
16B
102
{ACAD_REACTORS
330
C
102
}
330
C
100
AcDbXrecord
280
     1
  1
DWGPROPS COOKIE
  2

  3

  4

  6

  7

  8
rfranca
  9

300
=
301
=
302
=
303
=
304
=
305
=
306
=
307
=
308
=
309
=
 40
0.0
 41
2460870.855343229
 42
2460870.855359595
  1

 90
        0
  0
LAYOUT
  5
1E
102
{ACAD_REACTORS
330
1A
102
}
330
1A
100
AcDbPlotSettings
  1

  2
none_device
  4

  6

 40
0.0
 41
0.0
 42
0.0
 43
0.0
 44
0.0
 45
0.0
 46
0.0
 47
0.0
 48
0.0
 49
0.0
140
0.0
141
0.0
142
1.0
143
1.0
 70
   688
 72
     1
 73
     0
 74
     5
  7

 75
    16
147
1.0
148
0.0
149
0.0
100
AcDbLayout
  1
Layout1
 70
     1
 71
     1
 10
0.0
 20
0.0
 11
420.0
 21
297.0
 12
0.0
 22
0.0
 32
0.0
 14
1.0000000000E+20
 24
1.0000000000E+20
 34
1.0000000000E+20
 15
-1.0000000000E+20
 25
-1.0000000000E+20
 35
-1.0000000000E+20
146
0.0
 13
0.0
 23
0.0
 33
0.0
 16
1.0
 26
0.0
 36
0.0
 17
0.0
 27
1.0
 37
0.0
 76
     0
330
1B
  0
LAYOUT
  5
26
102
{ACAD_REACTORS
330
1A
102
}
330
1A
100
AcDbPlotSettings
  1

  2
none_device
  4

  6

 40
0.0
 41
0.0
 42
0.0
 43
0.0
 44
0.0
 45
0.0
 46
0.0
 47
0.0
 48
0.0
 49
0.0
140
0.0
141
0.0
142
1.0
143
1.0
 70
   688
 72
     1
 73
     0
 74
     5
  7

 75
    16
147
1.0
148
0.0
149
0.0
100
AcDbLayout
  1
Layout2
 70
     1
 71
     2
 10
0.0
 20
0.0
 11
0.0
 21
0.0
 12
0.0
 22
0.0
 32
0.0
 14
0.0
 24
0.0
 34
0.0
 15
0.0
 25
0.0
 35
0.0
146
0.0
 13
0.0
 23
0.0
 33
0.0
 16
1.0
 26
0.0
 36
0.0
 17
0.0
 27
1.0
 37
0.0
 76
     0
330
23
  0
LAYOUT
  5
22
102
{ACAD_REACTORS
330
1A
102
}
330
1A
100
AcDbPlotSettings
  1

  2
none_device
  4
ANSI_A_(11.00_x_8.50_Inches)
  6

 40
6.35
 41
19.05
 42
6.35000508
 43
19.05000254
 44
279.4
 45
215.9
 46
133.34999746
 47
88.89999873
 48
0.0
 49
0.0
140
0.0
141
0.0
142
0.0722627737
143
1.0
 70
  1696
 72
     0
 73
     0
 74
     0
  7

 75
     0
147
0.0179189148
148
-1300.4909072572
149
0.0
100
AcDbLayout
  1
Model
 70
     1
 71
     0
 10
0.0
 20
0.0
 11
420.0
 21
297.0
 12
0.0
 22
0.0
 32
0.0
 14
-75.35
 24
-57.35
 34
0.0
 15
75.35
 25
57.35
 35
0.0
146
0.0
 13
0.0
 23
0.0
 33
0.0
 16
1.0
 26
0.0
 36
0.0
 17
0.0
 27
1.0
 37
0.0
 76
     0
330
1F
331
29
  0
MLINESTYLE
  5
18
102
{ACAD_REACTORS
330
17
102
}
330
17
100
AcDbMlineStyle
  2
Standard
 70
     0
  3

 62
   256
 51
90.0
 52
90.0
 71
     2
 49
0.5
 62
   256
  6
BYLAYER
 49
-0.5
 62
   256
  6
BYLAYER
  0
ACDBPLACEHOLDER
  5
F
102
{ACAD_REACTORS
330
E
102
}
330
E
  0
SCALE
  5
48
102
{ACAD_REACTORS
330
47
102
}
330
47
100
AcDbScale
 70
     0
300
1:1
140
1.0
141
1.0
290
     1
  0
SCALE
  5
49
102
{ACAD_REACTORS
330
47
102
}
330
47
100
AcDbScale
 70
     0
300
1:2
140
1.0
141
2.0
290
     0
  0
SCALE
  5
4A
102
{ACAD_REACTORS
330
47
102
}
330
47
100
AcDbScale
 70
     0
300
1:4
140
1.0
141
4.0
290
     0
  0
SCALE
  5
4B
102
{ACAD_REACTORS
330
47
102
}
330
47
100
AcDbScale
 70
     0
300
1:5
140
1.0
141
5.0
290
     0
  0
SCALE
  5
4C
102
{ACAD_REACTORS
330
47
102
}
330
47
100
AcDbScale
 70
     0
300
1:8
140
1.0
141
8.0
290
     0
  0
SCALE
  5
4D
102
{ACAD_REACTORS
330
47
102
}
330
47
100
AcDbScale
 70
     0
300
1:10
140
1.0
141
10.0
290
     0
  0
SCALE
  5
4E
102
{ACAD_REACTORS
330
47
102
}
330
47
100
AcDbScale
 70
     0
300
1:16
140
1.0
141
16.0
290
     0
  0
SCALE
  5
4F
102
{ACAD_REACTORS
330
47
102
}
330
47
100
AcDbScale
 70
     0
300
1:20
140
1.0
141
20.0
290
     0
  0
SCALE
  5
50
102
{ACAD_REACTORS
330
47
102
}
330
47
100
AcDbScale
 70
     0
300
1:30
140
1.0
141
30.0
290
     0
  0
SCALE
  5
51
102
{ACAD_REACTORS
330
47
102
}
330
47
100
AcDbScale
 70
     0
300
1:40
140
1.0
141
40.0
290
     0
  0
SCALE
  5
52
102
{ACAD_REACTORS
330
47
102
}
330
47
100
AcDbScale
 70
     0
300
1:50
140
1.0
141
50.0
290
     0
  0
SCALE
  5
53
102
{ACAD_REACTORS
330
47
102
}
330
47
100
AcDbScale
 70
     0
300
1:100
140
1.0
141
100.0
290
     0
  0
SCALE
  5
54
102
{ACAD_REACTORS
330
47
102
}
330
47
100
AcDbScale
 70
     0
300
2:1
140
2.0
141
1.0
290
     0
  0
SCALE
  5
55
102
{ACAD_REACTORS
330
47
102
}
330
47
100
AcDbScale
 70
     0
300
4:1
140
4.0
141
1.0
290
     0
  0
SCALE
  5
56
102
{ACAD_REACTORS
330
47
102
}
330
47
100
AcDbScale
 70
     0
300
8:1
140
8.0
141
1.0
290
     0
  0
SCALE
  5
57
102
{ACAD_REACTORS
330
47
102
}
330
47
100
AcDbScale
 70
     0
300
10:1
140
10.0
141
1.0
290
     0
  0
SCALE
  5
58
102
{ACAD_REACTORS
330
47
102
}
330
47
100
AcDbScale
 70
     0
300
100:1
140
100.0
141
1.0
290
     0
  0
SCALE
  5
59
102
{ACAD_REACTORS
330
47
102
}
330
47
100
AcDbScale
 70
     0
300
1/128" = 1'-0"
140
0.0078125
141
12.0
290
     0
  0
SCALE
  5
5A
102
{ACAD_REACTORS
330
47
102
}
330
47
100
AcDbScale
 70
     0
300
1/64" = 1'-0"
140
0.015625
141
12.0
290
     0
  0
SCALE
  5
5B
102
{ACAD_REACTORS
330
47
102
}
330
47
100
AcDbScale
 70
     0
300
1/32" = 1'-0"
140
0.03125
141
12.0
290
     0
  0
SCALE
  5
5C
102
{ACAD_REACTORS
330
47
102
}
330
47
100
AcDbScale
 70
     0
300
1/16" = 1'-0"
140
0.0625
141
12.0
290
     0
  0
SCALE
  5
5D
102
{ACAD_REACTORS
330
47
102
}
330
47
100
AcDbScale
 70
     0
300
3/32" = 1'-0"
140
0.09375
141
12.0
290
     0
  0
SCALE
  5
5E
102
{ACAD_REACTORS
330
47
102
}
330
47
100
AcDbScale
 70
     0
300
1/8" = 1'-0"
140
0.125
141
12.0
290
     0
  0
SCALE
  5
5F
102
{ACAD_REACTORS
330
47
102
}
330
47
100
AcDbScale
 70
     0
300
3/16" = 1'-0"
140
0.1875
141
12.0
290
     0
  0
SCALE
  5
60
102
{ACAD_REACTORS
330
47
102
}
330
47
100
AcDbScale
 70
     0
300
1/4" = 1'-0"
140
0.25
141
12.0
290
     0
  0
SCALE
  5
61
102
{ACAD_REACTORS
330
47
102
}
330
47
100
AcDbScale
 70
     0
300
3/8" = 1'-0"
140
0.375
141
12.0
290
     0
  0
SCALE
  5
62
102
{ACAD_REACTORS
330
47
102
}
330
47
100
AcDbScale
 70
     0
300
1/2" = 1'-0"
140
0.5
141
12.0
290
     0
  0
SCALE
  5
63
102
{ACAD_REACTORS
330
47
102
}
330
47
100
AcDbScale
 70
     0
300
3/4" = 1'-0"
140
0.75
141
12.0
290
     0
  0
SCALE
  5
64
102
{ACAD_REACTORS
330
47
102
}
330
47
100
AcDbScale
 70
     0
300
1" = 1'-0"
140
1.0
141
12.0
290
     0
  0
SCALE
  5
65
102
{ACAD_REACTORS
330
47
102
}
330
47
100
AcDbScale
 70
     0
300
1-1/2" = 1'-0"
140
1.5
141
12.0
290
     0
  0
SCALE
  5
66
102
{ACAD_REACTORS
330
47
102
}
330
47
100
AcDbScale
 70
     0
300
3" = 1'-0"
140
3.0
141
12.0
290
     0
  0
SCALE
  5
67
102
{ACAD_REACTORS
330
47
102
}
330
47
100
AcDbScale
 70
     0
300
6" = 1'-0"
140
6.0
141
12.0
290
     0
  0
SCALE
  5
68
102
{ACAD_REACTORS
330
47
102
}
330
47
100
AcDbScale
 70
     0
300
1'-0" = 1'-0"
140
12.0
141
12.0
290
     0
  0
ENDSEC
  0
EOF
